<svg width="490" height="350" viewBox="0 0 490 350" fill="none" xmlns="http://www.w3.org/2000/svg">
<rect width="490" height="350" fill="#4F4F4F"/>
<path d="M170.426 230.496L170.268 230.654C168.13 225.983 166.785 220.679 166.23 214.821C166.785 220.6 168.289 225.825 170.426 230.496Z" fill="white"/>
<path d="M221.252 162.175C231.658 162.175 240.093 153.739 240.093 143.333C240.093 132.927 231.658 124.492 221.252 124.492C210.846 124.492 202.41 132.927 202.41 143.333C202.41 153.739 210.846 162.175 221.252 162.175Z" fill="white"/>
<path d="M278.17 95.8334H211.828C183.011 95.8334 165.832 113.013 165.832 141.829V208.171C165.832 216.8 167.336 224.321 170.265 230.654C177.074 245.696 191.64 254.167 211.828 254.167H278.17C306.986 254.167 324.165 236.988 324.165 208.171V190.042V141.829C324.165 113.013 306.986 95.8334 278.17 95.8334ZM311.261 178.958C305.086 173.654 295.111 173.654 288.936 178.958L256.003 207.221C249.828 212.525 239.853 212.525 233.678 207.221L230.986 205.004C225.365 200.096 216.42 199.621 210.086 203.896L180.478 223.767C178.736 219.333 177.707 214.188 177.707 208.171V141.829C177.707 119.504 189.503 107.708 211.828 107.708H278.17C300.495 107.708 312.29 119.504 312.29 141.829V179.829L311.261 178.958Z" fill="white"/>
</svg>
