<svg width="240" height="40" viewBox="0 0 240 40" fill="none" xmlns="http://www.w3.org/2000/svg">
<path d="M20.1 39L12.07 24.425H9.815V39H0.41V0.389999H16.195C19.2383 0.389999 21.8233 0.921665 23.95 1.985C26.1133 3.04833 27.7267 4.515 28.79 6.385C29.8533 8.21833 30.385 10.2717 30.385 12.545C30.385 15.1117 29.6517 17.4033 28.185 19.42C26.755 21.4367 24.6283 22.8667 21.805 23.71L30.715 39H20.1ZM9.815 17.77H15.645C17.3683 17.77 18.6517 17.3483 19.495 16.505C20.375 15.6617 20.815 14.47 20.815 12.93C20.815 11.4633 20.375 10.3083 19.495 9.465C18.6517 8.62167 17.3683 8.2 15.645 8.2H9.815V17.77ZM65.2189 23.16C65.2189 24.04 65.1639 24.9567 65.0539 25.91H43.7689C43.9156 27.8167 44.5206 29.2833 45.5839 30.31C46.6839 31.3 48.0222 31.795 49.5989 31.795C51.9456 31.795 53.5772 30.805 54.4939 28.825H64.5039C63.9906 30.8417 63.0556 32.6567 61.6989 34.27C60.3789 35.8833 58.7106 37.1483 56.6939 38.065C54.6772 38.9817 52.4222 39.44 49.9289 39.44C46.9222 39.44 44.2456 38.7983 41.8989 37.515C39.5522 36.2317 37.7189 34.3983 36.3989 32.015C35.0789 29.6317 34.4189 26.845 34.4189 23.655C34.4189 20.465 35.0606 17.6783 36.3439 15.295C37.6639 12.9117 39.4972 11.0783 41.8439 9.795C44.1906 8.51166 46.8856 7.87 49.9289 7.87C52.8989 7.87 55.5389 8.49333 57.8489 9.74C60.1589 10.9867 61.9556 12.765 63.2389 15.075C64.5589 17.385 65.2189 20.08 65.2189 23.16ZM55.5939 20.685C55.5939 19.0717 55.0439 17.7883 53.9439 16.835C52.8439 15.8817 51.4689 15.405 49.8189 15.405C48.2422 15.405 46.9039 15.8633 45.8039 16.78C44.7406 17.6967 44.0806 18.9983 43.8239 20.685H55.5939ZM82.6655 39.44C79.9888 39.44 77.6055 38.9817 75.5155 38.065C73.4255 37.1483 71.7755 35.9017 70.5655 34.325C69.3555 32.7117 68.6772 30.915 68.5305 28.935H77.8255C77.9355 29.9983 78.4305 30.86 79.3105 31.52C80.1905 32.18 81.2722 32.51 82.5555 32.51C83.7288 32.51 84.6272 32.29 85.2505 31.85C85.9105 31.3733 86.2405 30.7683 86.2405 30.035C86.2405 29.155 85.7822 28.5133 84.8655 28.11C83.9488 27.67 82.4638 27.1933 80.4105 26.68C78.2105 26.1667 76.3772 25.635 74.9105 25.085C73.4438 24.4983 72.1788 23.6 71.1155 22.39C70.0522 21.1433 69.5205 19.475 69.5205 17.385C69.5205 15.625 69.9972 14.03 70.9505 12.6C71.9405 11.1333 73.3705 9.97833 75.2405 9.135C77.1472 8.29166 79.4022 7.87 82.0055 7.87C85.8555 7.87 88.8805 8.82333 91.0805 10.73C93.3172 12.6367 94.6005 15.1667 94.9305 18.32H86.2405C86.0938 17.2567 85.6172 16.4133 84.8105 15.79C84.0405 15.1667 83.0138 14.855 81.7305 14.855C80.6305 14.855 79.7872 15.075 79.2005 15.515C78.6138 15.9183 78.3205 16.4867 78.3205 17.22C78.3205 18.1 78.7788 18.76 79.6955 19.2C80.6488 19.64 82.1155 20.08 84.0955 20.52C86.3688 21.1067 88.2205 21.6933 89.6505 22.28C91.0805 22.83 92.3272 23.7467 93.3905 25.03C94.4905 26.2767 95.0588 27.9633 95.0955 30.09C95.0955 31.8867 94.5822 33.5 93.5555 34.93C92.5655 36.3233 91.1172 37.4233 89.2105 38.23C87.3405 39.0367 85.1588 39.44 82.6655 39.44ZM129.779 23.16C129.779 24.04 129.724 24.9567 129.614 25.91H108.329C108.476 27.8167 109.081 29.2833 110.144 30.31C111.244 31.3 112.583 31.795 114.159 31.795C116.506 31.795 118.138 30.805 119.054 28.825H129.064C128.551 30.8417 127.616 32.6567 126.259 34.27C124.939 35.8833 123.271 37.1483 121.254 38.065C119.238 38.9817 116.983 39.44 114.489 39.44C111.483 39.44 108.806 38.7983 106.459 37.515C104.113 36.2317 102.279 34.3983 100.959 32.015C99.6395 29.6317 98.9795 26.845 98.9795 23.655C98.9795 20.465 99.6211 17.6783 100.904 15.295C102.224 12.9117 104.058 11.0783 106.404 9.795C108.751 8.51166 111.446 7.87 114.489 7.87C117.459 7.87 120.099 8.49333 122.409 9.74C124.719 10.9867 126.516 12.765 127.799 15.075C129.119 17.385 129.779 20.08 129.779 23.16ZM120.154 20.685C120.154 19.0717 119.604 17.7883 118.504 16.835C117.404 15.8817 116.029 15.405 114.379 15.405C112.803 15.405 111.464 15.8633 110.364 16.78C109.301 17.6967 108.641 18.9983 108.384 20.685H120.154ZM144.146 13.425C145.246 11.7383 146.621 10.4183 148.271 9.465C149.921 8.475 151.754 7.98 153.771 7.98V17.935H151.186C148.839 17.935 147.079 18.4483 145.906 19.475C144.733 20.465 144.146 22.225 144.146 24.755V39H134.741V8.31H144.146V13.425ZM172.071 30.2L178.726 8.31H188.736L177.846 39H166.241L155.351 8.31H165.416L172.071 30.2Z" fill="url(#paint0_linear_126_825)"/>
<path d="M202.1 0.389999V39H192.695V0.389999H202.1ZM227.616 7.98C231.209 7.98 234.069 9.15333 236.196 11.5C238.359 13.81 239.441 17 239.441 21.07V39H230.091V22.335C230.091 20.2817 229.559 18.6867 228.496 17.55C227.433 16.4133 226.003 15.845 224.206 15.845C222.409 15.845 220.979 16.4133 219.916 17.55C218.853 18.6867 218.321 20.2817 218.321 22.335V39H208.916V8.31H218.321V12.38C219.274 11.0233 220.558 9.96 222.171 9.19C223.784 8.38333 225.599 7.98 227.616 7.98Z" fill="url(#paint1_linear_126_825)"/>
<defs>
<linearGradient id="paint0_linear_126_825" x1="244" y1="20" x2="-3" y2="20" gradientUnits="userSpaceOnUse">
<stop stop-color="#09C4E3"/>
<stop offset="0.5" stop-color="#04A5D4"/>
<stop offset="1" stop-color="#015AAC"/>
</linearGradient>
<linearGradient id="paint1_linear_126_825" x1="120.5" y1="-1" x2="120.5" y2="41" gradientUnits="userSpaceOnUse">
<stop stop-color="#F4781A"/>
<stop offset="1" stop-color="#E53C08"/>
</linearGradient>
</defs>
</svg>
