<svg width="434" height="95" viewBox="0 0 434 95" fill="none" xmlns="http://www.w3.org/2000/svg">
<g filter="url(#filter0_d_523_606)">
<path d="M399.525 26.8788C405.622 26.8788 410.475 28.8697 414.084 32.8516C417.755 36.7712 419.59 42.184 419.59 49.09V79.5138H403.725V51.2365C403.725 47.7524 402.823 45.046 401.018 43.1173C399.214 41.1885 396.788 40.2242 393.739 40.2242C390.691 40.2242 388.264 41.1885 386.46 43.1173C384.656 45.046 383.753 47.7524 383.753 51.2365V79.5138H367.795V27.4387H383.753V34.3447C385.371 32.0427 387.549 30.2385 390.286 28.9319C393.024 27.5632 396.103 26.8788 399.525 26.8788Z" fill="url(#paint0_linear_523_606)"/>
<path d="M399.525 27.3788C405.502 27.3788 410.212 29.3243 413.713 33.1864V33.1874L413.719 33.1932C417.28 36.9959 419.09 42.2732 419.09 49.0897V79.0135H404.225V51.2362C404.225 47.8901 403.412 45.1816 401.731 43.1688L401.384 42.7753C399.47 40.7297 396.903 39.7245 393.739 39.7245C390.773 39.7245 388.331 40.6081 386.461 42.4042L386.095 42.7753C384.179 44.823 383.253 47.6669 383.253 51.2362V79.0135H368.295V27.9384H383.253V35.9257L384.162 34.6327C385.726 32.4065 387.836 30.6552 390.502 29.3827V29.3837L390.51 29.3788C393.17 28.0487 396.172 27.3788 399.525 27.3788Z" stroke="white"/>
</g>
<g filter="url(#filter1_d_523_606)">
<path d="M356.23 14V79.5138H340.271V14H356.23Z" fill="url(#paint1_linear_523_606)"/>
<path d="M355.729 14.5V79.0137H340.771V14.5H355.729Z" stroke="white"/>
</g>
<g filter="url(#filter2_d_523_606)">
<path d="M305.277 64.5819L316.569 27.4387H333.554L315.076 79.5138H295.385L276.906 27.4387H293.985L305.277 64.5819Z" fill="url(#paint2_linear_523_606)"/>
<path d="M293.613 27.9387L304.799 64.7278L305.277 66.301L305.755 64.7278L316.94 27.9387H332.847L314.723 79.0139H295.737L277.614 27.9387H293.613Z" stroke="white"/>
</g>
<g filter="url(#filter3_d_523_606)">
<path d="M257.893 36.1179C259.76 33.256 262.093 31.0162 264.892 29.3985C267.692 27.7187 270.803 26.8788 274.225 26.8788V43.7705H269.839C265.857 43.7705 262.87 44.6416 260.879 46.3836C258.889 48.0634 257.893 51.0498 257.893 55.3428V79.5138H241.935V27.4387H257.893V36.1179Z" fill="url(#paint3_linear_523_606)"/>
<path d="M273.725 43.2704H269.839C265.799 43.2704 262.675 44.152 260.557 46.0018C258.398 47.8237 257.393 50.9959 257.393 55.3427V79.0135H242.435V27.9384H257.393V37.7997L258.312 36.3915C260.024 33.7663 262.132 31.6825 264.637 30.1337L265.143 29.8319L265.149 29.827C267.731 28.278 270.586 27.4646 273.725 27.3866V43.2704Z" stroke="white"/>
</g>
<g filter="url(#filter4_d_523_606)">
<path d="M233.515 52.6364C233.515 54.1296 233.421 55.685 233.235 57.3026H197.118C197.367 60.5378 198.394 63.0265 200.198 64.7686C202.064 66.4484 204.335 67.2883 207.01 67.2883C210.992 67.2883 213.761 65.6085 215.316 62.2488H232.301C231.43 65.6707 229.844 68.7504 227.542 71.4879C225.302 74.2254 222.471 76.3719 219.049 77.9273C215.627 79.4827 211.801 80.2604 207.57 80.2604C202.469 80.2604 197.927 79.1716 193.945 76.9941C189.963 74.8165 186.852 71.7057 184.613 67.6616C182.373 63.6175 181.253 58.8891 181.253 53.4763C181.253 48.0635 182.342 43.335 184.519 39.291C186.759 35.2469 189.87 32.1361 193.852 29.9585C197.834 27.7809 202.406 26.6921 207.57 26.6921C212.61 26.6921 217.09 27.7498 221.009 29.8652C224.929 31.9805 227.977 34.998 230.155 38.9177C232.395 42.8373 233.515 47.4102 233.515 52.6364ZM217.183 48.4368C217.183 45.6992 216.25 43.5217 214.383 41.904C212.517 40.2864 210.184 39.4776 207.384 39.4776C204.708 39.4776 202.438 40.2553 200.571 41.8107C198.767 43.3661 197.647 45.5748 197.211 48.4368H217.183Z" fill="url(#paint4_linear_523_606)"/>
<path d="M207.57 27.1921C212.228 27.1921 216.383 28.1075 220.046 29.9285L220.771 30.3054C224.367 32.2458 227.211 34.9587 229.309 38.4519L229.718 39.1609L229.721 39.1658C231.911 42.9987 233.015 47.4834 233.015 52.6365C233.015 53.9726 232.938 55.3611 232.786 56.8025H196.578L196.619 57.3406C196.875 60.6611 197.935 63.2791 199.851 65.1287L199.856 65.1345L199.863 65.1404C201.828 66.9085 204.221 67.7878 207.011 67.7878C209.072 67.7878 210.854 67.3529 212.333 66.4558C213.731 65.6074 214.827 64.3635 215.63 62.7488H231.648C230.826 65.6418 229.469 68.2779 227.573 70.6599L227.159 71.1658L227.155 71.1716C225.104 73.6789 222.543 75.6817 219.465 77.1794L218.843 77.4724C215.494 78.9948 211.739 79.7605 207.57 79.7605C202.856 79.7605 198.644 78.818 194.923 76.9431L194.185 76.5554C190.531 74.5573 187.629 71.7584 185.472 68.1511L185.05 67.4197C182.858 63.4615 181.753 58.8189 181.753 53.4763C181.753 48.1315 182.828 43.4873 184.96 39.5281L184.959 39.5271C187.016 35.8146 189.819 32.9111 193.371 30.8074L194.092 30.3972C197.99 28.2652 202.479 27.1922 207.57 27.1921ZM207.384 38.9773C204.778 38.9773 202.516 39.6906 200.624 41.1296L200.251 41.4265L200.245 41.4324C198.332 43.0815 197.166 45.4078 196.717 48.3611L196.63 48.9363H217.683V48.4363C217.683 45.7505 216.818 43.5419 215.071 41.8562L214.711 41.5261C212.741 39.8192 210.287 38.9773 207.384 38.9773Z" stroke="white"/>
</g>
<g filter="url(#filter5_d_523_606)">
<path d="M153.571 80.2604C149.03 80.2604 144.985 79.4827 141.439 77.9273C137.893 76.3719 135.093 74.2565 133.04 71.5812C130.987 68.8437 129.836 65.7951 129.587 62.4354H145.359C145.545 64.2397 146.385 65.7018 147.879 66.8217C149.372 67.9416 151.207 68.5015 153.385 68.5015C155.376 68.5015 156.9 68.1282 157.958 67.3816C159.077 66.5728 159.637 65.5463 159.637 64.3019C159.637 62.8087 158.86 61.7199 157.304 61.0356C155.749 60.289 153.229 59.4802 149.745 58.6091C146.012 57.7381 142.901 56.836 140.413 55.9027C137.924 54.9073 135.777 53.383 133.973 51.3298C132.169 49.2145 131.267 46.3836 131.267 42.8373C131.267 39.8509 132.076 37.1445 133.693 34.718C135.373 32.2294 137.799 30.2696 140.973 28.8386C144.208 27.4076 148.034 26.6921 152.451 26.6921C158.984 26.6921 164.117 28.3098 167.85 31.545C171.645 34.7803 173.823 39.0732 174.383 44.4238H159.637C159.389 42.6195 158.58 41.1886 157.211 40.1309C155.904 39.0732 154.162 38.5444 151.985 38.5444C150.118 38.5444 148.687 38.9177 147.692 39.6643C146.696 40.3486 146.199 41.313 146.199 42.5573C146.199 44.0505 146.976 45.1704 148.532 45.917C150.149 46.6636 152.638 47.4102 155.998 48.1568C159.855 49.1522 162.997 50.1477 165.424 51.1432C167.85 52.0764 169.965 53.6318 171.77 55.8094C173.636 57.9247 174.6 60.7867 174.663 64.3953C174.663 67.4439 173.792 70.1814 172.05 72.6078C170.37 74.972 167.912 76.8385 164.677 78.2073C161.504 79.576 157.802 80.2604 153.571 80.2604Z" fill="url(#paint5_linear_523_606)"/>
<path d="M152.451 27.1921C158.701 27.1921 163.592 28.6905 167.18 31.6335L167.522 31.9226L167.525 31.9255C171.084 34.9592 173.184 38.9476 173.82 43.9236H160.061C159.752 42.313 158.996 40.982 157.787 39.9539L157.517 39.7351C156.099 38.5913 154.237 38.0447 151.984 38.0447C150.182 38.0447 148.703 38.3815 147.606 39.113L147.392 39.2644C146.267 40.0448 145.698 41.1614 145.698 42.5574C145.698 43.3957 145.919 44.1508 146.371 44.8025C146.765 45.3691 147.319 45.8352 148.011 46.2117L148.315 46.3679L148.322 46.3708C149.987 47.1391 152.512 47.894 155.872 48.6414H155.873C159.238 49.5097 162.045 50.3753 164.301 51.2371L165.233 51.6062L165.244 51.6101C167.584 52.5099 169.63 54.0112 171.385 56.1287L171.395 56.1404C173.052 58.0189 173.981 60.5412 174.141 63.7527L174.163 64.4041C174.162 67.1627 173.423 69.6481 171.948 71.8738L171.644 72.3162L171.642 72.3181C170.127 74.4501 167.944 76.178 165.066 77.49L164.482 77.7468L164.479 77.7478C161.38 79.0842 157.749 79.7605 153.571 79.7605C149.367 79.7605 145.612 79.0854 142.297 77.7458L141.64 77.4695C138.377 76.0382 135.775 74.1318 133.819 71.7576L133.437 71.2771C131.552 68.7627 130.453 65.9847 130.134 62.9353H144.923C145.191 64.5607 145.984 65.9184 147.286 66.9919L147.578 67.2214C149.172 68.4166 151.118 69.0017 153.385 69.0017C155.299 69.0017 156.862 68.6662 158.02 67.9402L158.246 67.7898L158.25 67.7869C159.483 66.8961 160.138 65.7259 160.138 64.3015C160.138 63.4635 159.917 62.7138 159.461 62.075C159.064 61.5195 158.506 61.0726 157.812 60.7224L157.506 60.5779C156.102 59.9064 153.971 59.198 151.131 58.449L149.866 58.1238L149.858 58.1218L148.493 57.7957C145.38 57.031 142.75 56.2438 140.598 55.4373C138.335 54.532 136.364 53.1776 134.682 51.3679L134.349 50.9998C132.644 48.9982 131.767 46.2952 131.767 42.8376C131.767 39.9475 132.548 37.338 134.109 34.9958L134.108 34.9949C135.728 32.596 138.077 30.6932 141.178 29.2947L141.177 29.2937C144.334 27.8977 148.088 27.1922 152.451 27.1921Z" stroke="white"/>
</g>
<g filter="url(#filter6_d_523_606)">
<path d="M123.968 52.6364C123.968 54.1296 123.874 55.685 123.688 57.3026H87.5712C87.8201 60.5378 88.8467 63.0265 90.6509 64.7686C92.5174 66.4484 94.7883 67.2883 97.4636 67.2883C101.445 67.2883 104.214 65.6085 105.77 62.2488H122.755C121.884 65.6707 120.297 68.7504 117.995 71.4879C115.755 74.2254 112.924 76.3719 109.502 77.9273C106.081 79.4827 102.254 80.2604 98.0236 80.2604C92.9218 80.2604 88.38 79.1716 84.3982 76.9941C80.4163 74.8165 77.3055 71.7057 75.0657 67.6616C72.8259 63.6175 71.7061 58.8891 71.7061 53.4763C71.7061 48.0635 72.7948 43.335 74.9724 39.291C77.2122 35.2469 80.323 32.1361 84.3049 29.9585C88.2867 27.7809 92.8596 26.6921 98.0236 26.6921C103.063 26.6921 107.543 27.7498 111.462 29.8652C115.382 31.9805 118.431 34.998 120.608 38.9177C122.848 42.8373 123.968 47.4102 123.968 52.6364ZM107.636 48.4368C107.636 45.6992 106.703 43.5217 104.836 41.904C102.97 40.2864 100.637 39.4776 97.8369 39.4776C95.1616 39.4776 92.8907 40.2553 91.0242 41.8107C89.22 43.3661 88.1001 45.5748 87.6645 48.4368H107.636Z" fill="url(#paint6_linear_523_606)"/>
<path d="M98.0234 27.1921C102.681 27.1921 106.836 28.1075 110.499 29.9285L111.225 30.3054C114.82 32.2458 117.664 34.9587 119.762 38.4519L120.171 39.1609L120.174 39.1658C122.364 42.9987 123.468 47.4834 123.468 52.6365C123.468 53.9726 123.391 55.3611 123.239 56.8025H87.0312L87.0723 57.3406C87.3277 60.6611 88.3881 63.2791 90.3037 65.1287L90.3096 65.1345L90.3164 65.1404C92.281 66.9085 94.6739 67.7878 97.4639 67.7878C99.5252 67.7878 101.308 67.3529 102.786 66.4558C104.184 65.6074 105.28 64.3635 106.083 62.7488H122.102C121.279 65.6418 119.922 68.2779 118.026 70.6599L117.612 71.1658L117.608 71.1716C115.557 73.6789 112.996 75.6817 109.918 77.1794L109.296 77.4724C105.947 78.9948 102.192 79.7605 98.0234 79.7605C93.3094 79.7605 89.0971 78.818 85.376 76.9431L84.6377 76.5554C80.9842 74.5573 78.0818 71.7584 75.9248 68.1511L75.5029 67.4197C73.3107 63.4615 72.2061 58.8189 72.2061 53.4763C72.2061 48.1315 73.2812 43.4873 75.4131 39.5281L75.4121 39.5271C77.4695 35.8146 80.2725 32.9111 83.8242 30.8074L84.5449 30.3972C88.4435 28.2652 92.9317 27.1922 98.0234 27.1921ZM97.8369 38.9773C95.2308 38.9773 92.9693 39.6906 91.0771 41.1296L90.7041 41.4265L90.6982 41.4324C88.7853 43.0815 87.6194 45.4078 87.1699 48.3611L87.083 48.9363H108.136V48.4363C108.136 45.7505 107.271 43.5419 105.524 41.8562L105.164 41.5261C103.195 39.8192 100.74 38.9773 97.8369 38.9773Z" stroke="white"/>
</g>
<g filter="url(#filter7_d_523_606)">
<path d="M47.4102 79.5138L33.7848 54.7828H29.9585V79.5138H14V14H40.7841C45.9481 14 50.3343 14.9021 53.9429 16.7064C57.6137 18.5107 60.3512 20.9993 62.1555 24.1724C63.9597 27.2832 64.8619 30.7673 64.8619 34.6247C64.8619 38.9799 63.6175 42.8684 61.1289 46.2903C58.7024 49.7122 55.0939 52.1386 50.3032 53.5696L65.4218 79.5138H47.4102ZM29.9585 43.4906H39.8509C42.7751 43.4906 44.9526 42.7751 46.3836 41.3441C47.8768 39.9131 48.6234 37.8911 48.6234 35.278C48.6234 32.7893 47.8768 30.8295 46.3836 29.3985C44.9526 27.9676 42.7751 27.2521 39.8509 27.2521H29.9585V43.4906Z" fill="url(#paint7_linear_523_606)"/>
<path d="M40.7842 14.5C45.5725 14.5 49.6556 15.2847 53.0498 16.834L53.7197 17.1533L53.7227 17.1553C57.09 18.8105 59.6357 21.0438 61.3818 23.8506L61.7207 24.4199L61.7227 24.4229C63.4795 27.4519 64.3623 30.8491 64.3623 34.625C64.3623 38.612 63.2961 42.1879 61.165 45.3662L60.7246 45.9961L60.7207 46.001C58.3706 49.3152 54.8651 51.6855 50.1602 53.0908L49.5518 53.2725L49.8711 53.8213L64.5518 79.0137H47.7051L34.2227 54.542L34.0801 54.2832H29.458V79.0137H14.5V14.5H40.7842ZM29.458 43.9902H39.8506C42.8433 43.9902 45.1689 43.2585 46.7285 41.7041L46.7295 41.7051C48.3455 40.1564 49.123 37.9895 49.123 35.2783C49.123 32.6832 48.3407 30.5812 46.7295 29.0371H46.7285C45.1689 27.4832 42.8429 26.752 39.8506 26.752H29.458V43.9902Z" stroke="white"/>
</g>
<defs>
<filter id="filter0_d_523_606" x="353.795" y="12.8788" width="79.7949" height="80.635" filterUnits="userSpaceOnUse" color-interpolation-filters="sRGB">
<feFlood flood-opacity="0" result="BackgroundImageFix"/>
<feColorMatrix in="SourceAlpha" type="matrix" values="0 0 0 0 0 0 0 0 0 0 0 0 0 0 0 0 0 0 127 0" result="hardAlpha"/>
<feOffset/>
<feGaussianBlur stdDeviation="7"/>
<feComposite in2="hardAlpha" operator="out"/>
<feColorMatrix type="matrix" values="0 0 0 0 0 0 0 0 0 0 0 0 0 0 0 0 0 0 0.61 0"/>
<feBlend mode="normal" in2="BackgroundImageFix" result="effect1_dropShadow_523_606"/>
<feBlend mode="normal" in="SourceGraphic" in2="effect1_dropShadow_523_606" result="shape"/>
</filter>
<filter id="filter1_d_523_606" x="326.271" y="0" width="43.958" height="93.5138" filterUnits="userSpaceOnUse" color-interpolation-filters="sRGB">
<feFlood flood-opacity="0" result="BackgroundImageFix"/>
<feColorMatrix in="SourceAlpha" type="matrix" values="0 0 0 0 0 0 0 0 0 0 0 0 0 0 0 0 0 0 127 0" result="hardAlpha"/>
<feOffset/>
<feGaussianBlur stdDeviation="7"/>
<feComposite in2="hardAlpha" operator="out"/>
<feColorMatrix type="matrix" values="0 0 0 0 0 0 0 0 0 0 0 0 0 0 0 0 0 0 0.61 0"/>
<feBlend mode="normal" in2="BackgroundImageFix" result="effect1_dropShadow_523_606"/>
<feBlend mode="normal" in="SourceGraphic" in2="effect1_dropShadow_523_606" result="shape"/>
</filter>
<filter id="filter2_d_523_606" x="262.906" y="13.4387" width="84.6484" height="80.0751" filterUnits="userSpaceOnUse" color-interpolation-filters="sRGB">
<feFlood flood-opacity="0" result="BackgroundImageFix"/>
<feColorMatrix in="SourceAlpha" type="matrix" values="0 0 0 0 0 0 0 0 0 0 0 0 0 0 0 0 0 0 127 0" result="hardAlpha"/>
<feOffset/>
<feGaussianBlur stdDeviation="7"/>
<feComposite in2="hardAlpha" operator="out"/>
<feColorMatrix type="matrix" values="0 0 0 0 0 0 0 0 0 0 0 0 0 0 0 0 0 0 0.61 0"/>
<feBlend mode="normal" in2="BackgroundImageFix" result="effect1_dropShadow_523_606"/>
<feBlend mode="normal" in="SourceGraphic" in2="effect1_dropShadow_523_606" result="shape"/>
</filter>
<filter id="filter3_d_523_606" x="227.935" y="12.8788" width="60.29" height="80.635" filterUnits="userSpaceOnUse" color-interpolation-filters="sRGB">
<feFlood flood-opacity="0" result="BackgroundImageFix"/>
<feColorMatrix in="SourceAlpha" type="matrix" values="0 0 0 0 0 0 0 0 0 0 0 0 0 0 0 0 0 0 127 0" result="hardAlpha"/>
<feOffset/>
<feGaussianBlur stdDeviation="7"/>
<feComposite in2="hardAlpha" operator="out"/>
<feColorMatrix type="matrix" values="0 0 0 0 0 0 0 0 0 0 0 0 0 0 0 0 0 0 0.61 0"/>
<feBlend mode="normal" in2="BackgroundImageFix" result="effect1_dropShadow_523_606"/>
<feBlend mode="normal" in="SourceGraphic" in2="effect1_dropShadow_523_606" result="shape"/>
</filter>
<filter id="filter4_d_523_606" x="167.253" y="12.6921" width="80.2617" height="81.5683" filterUnits="userSpaceOnUse" color-interpolation-filters="sRGB">
<feFlood flood-opacity="0" result="BackgroundImageFix"/>
<feColorMatrix in="SourceAlpha" type="matrix" values="0 0 0 0 0 0 0 0 0 0 0 0 0 0 0 0 0 0 127 0" result="hardAlpha"/>
<feOffset/>
<feGaussianBlur stdDeviation="7"/>
<feComposite in2="hardAlpha" operator="out"/>
<feColorMatrix type="matrix" values="0 0 0 0 0 0 0 0 0 0 0 0 0 0 0 0 0 0 0.61 0"/>
<feBlend mode="normal" in2="BackgroundImageFix" result="effect1_dropShadow_523_606"/>
<feBlend mode="normal" in="SourceGraphic" in2="effect1_dropShadow_523_606" result="shape"/>
</filter>
<filter id="filter5_d_523_606" x="115.587" y="12.6921" width="73.0762" height="81.5683" filterUnits="userSpaceOnUse" color-interpolation-filters="sRGB">
<feFlood flood-opacity="0" result="BackgroundImageFix"/>
<feColorMatrix in="SourceAlpha" type="matrix" values="0 0 0 0 0 0 0 0 0 0 0 0 0 0 0 0 0 0 127 0" result="hardAlpha"/>
<feOffset/>
<feGaussianBlur stdDeviation="7"/>
<feComposite in2="hardAlpha" operator="out"/>
<feColorMatrix type="matrix" values="0 0 0 0 0 0 0 0 0 0 0 0 0 0 0 0 0 0 0.61 0"/>
<feBlend mode="normal" in2="BackgroundImageFix" result="effect1_dropShadow_523_606"/>
<feBlend mode="normal" in="SourceGraphic" in2="effect1_dropShadow_523_606" result="shape"/>
</filter>
<filter id="filter6_d_523_606" x="57.7061" y="12.6921" width="80.2617" height="81.5683" filterUnits="userSpaceOnUse" color-interpolation-filters="sRGB">
<feFlood flood-opacity="0" result="BackgroundImageFix"/>
<feColorMatrix in="SourceAlpha" type="matrix" values="0 0 0 0 0 0 0 0 0 0 0 0 0 0 0 0 0 0 127 0" result="hardAlpha"/>
<feOffset/>
<feGaussianBlur stdDeviation="7"/>
<feComposite in2="hardAlpha" operator="out"/>
<feColorMatrix type="matrix" values="0 0 0 0 0 0 0 0 0 0 0 0 0 0 0 0 0 0 0.61 0"/>
<feBlend mode="normal" in2="BackgroundImageFix" result="effect1_dropShadow_523_606"/>
<feBlend mode="normal" in="SourceGraphic" in2="effect1_dropShadow_523_606" result="shape"/>
</filter>
<filter id="filter7_d_523_606" x="0" y="0" width="79.4219" height="93.5138" filterUnits="userSpaceOnUse" color-interpolation-filters="sRGB">
<feFlood flood-opacity="0" result="BackgroundImageFix"/>
<feColorMatrix in="SourceAlpha" type="matrix" values="0 0 0 0 0 0 0 0 0 0 0 0 0 0 0 0 0 0 127 0" result="hardAlpha"/>
<feOffset/>
<feGaussianBlur stdDeviation="7"/>
<feComposite in2="hardAlpha" operator="out"/>
<feColorMatrix type="matrix" values="0 0 0 0 0 0 0 0 0 0 0 0 0 0 0 0 0 0 0.61 0"/>
<feBlend mode="normal" in2="BackgroundImageFix" result="effect1_dropShadow_523_606"/>
<feBlend mode="normal" in="SourceGraphic" in2="effect1_dropShadow_523_606" result="shape"/>
</filter>
<linearGradient id="paint0_linear_523_606" x1="393.692" y1="26.8788" x2="393.692" y2="79.5138" gradientUnits="userSpaceOnUse">
<stop stop-color="#F4781A"/>
<stop offset="1" stop-color="#E53C08"/>
</linearGradient>
<linearGradient id="paint1_linear_523_606" x1="348.251" y1="14" x2="348.251" y2="79.5138" gradientUnits="userSpaceOnUse">
<stop stop-color="#F4781A"/>
<stop offset="1" stop-color="#E53C08"/>
</linearGradient>
<linearGradient id="paint2_linear_523_606" x1="333.554" y1="53.4763" x2="276.906" y2="53.4763" gradientUnits="userSpaceOnUse">
<stop stop-color="#09C4E3"/>
<stop offset="0.5" stop-color="#04A5D4"/>
<stop offset="1" stop-color="#015AAC"/>
</linearGradient>
<linearGradient id="paint3_linear_523_606" x1="274.225" y1="53.1963" x2="241.935" y2="53.1963" gradientUnits="userSpaceOnUse">
<stop stop-color="#09C4E3"/>
<stop offset="0.5" stop-color="#04A5D4"/>
<stop offset="1" stop-color="#015AAC"/>
</linearGradient>
<linearGradient id="paint4_linear_523_606" x1="233.515" y1="53.4763" x2="181.253" y2="53.4763" gradientUnits="userSpaceOnUse">
<stop stop-color="#09C4E3"/>
<stop offset="0.5" stop-color="#04A5D4"/>
<stop offset="1" stop-color="#015AAC"/>
</linearGradient>
<linearGradient id="paint5_linear_523_606" x1="174.663" y1="53.4763" x2="129.587" y2="53.4763" gradientUnits="userSpaceOnUse">
<stop stop-color="#09C4E3"/>
<stop offset="0.5" stop-color="#04A5D4"/>
<stop offset="1" stop-color="#015AAC"/>
</linearGradient>
<linearGradient id="paint6_linear_523_606" x1="123.968" y1="53.4763" x2="71.7061" y2="53.4763" gradientUnits="userSpaceOnUse">
<stop stop-color="#09C4E3"/>
<stop offset="0.5" stop-color="#04A5D4"/>
<stop offset="1" stop-color="#015AAC"/>
</linearGradient>
<linearGradient id="paint7_linear_523_606" x1="65.4218" y1="46.7569" x2="14" y2="46.7569" gradientUnits="userSpaceOnUse">
<stop stop-color="#09C4E3"/>
<stop offset="0.5" stop-color="#04A5D4"/>
<stop offset="1" stop-color="#015AAC"/>
</linearGradient>
</defs>
</svg>
