<svg width="406" height="67" viewBox="0 0 406 67" fill="none" xmlns="http://www.w3.org/2000/svg">
<path d="M385.525 12.8788C391.622 12.8788 396.475 14.8697 400.084 18.8516C403.755 22.7712 405.59 28.184 405.59 35.09V65.5138H389.725V37.2365C389.725 33.7524 388.823 31.046 387.018 29.1173C385.214 27.1885 382.788 26.2242 379.739 26.2242C376.691 26.2242 374.264 27.1885 372.46 29.1173C370.656 31.046 369.753 33.7524 369.753 37.2365V65.5138H353.795V13.4387H369.753V20.3447C371.371 18.0427 373.549 16.2385 376.286 14.9319C379.024 13.5632 382.103 12.8788 385.525 12.8788Z" fill="url(#paint0_linear_523_606)"/>
<path d="M342.23 0V65.5138H326.271V0H342.23Z" fill="url(#paint1_linear_523_606)"/>
<path d="M291.277 50.5819L302.569 13.4387H319.554L301.076 65.5138H281.385L262.906 13.4387H279.985L291.277 50.5819Z" fill="url(#paint2_linear_523_606)"/>
<path d="M243.893 22.1179C245.76 19.256 248.093 17.0162 250.892 15.3985C253.692 13.7187 256.803 12.8788 260.225 12.8788V29.7705H255.839C251.857 29.7705 248.87 30.6416 246.879 32.3836C244.889 34.0634 243.893 37.0498 243.893 41.3428V65.5138H227.935V13.4387H243.893V22.1179Z" fill="url(#paint3_linear_523_606)"/>
<path d="M219.515 38.6364C219.515 40.1296 219.421 41.685 219.235 43.3026H183.118C183.367 46.5378 184.394 49.0265 186.198 50.7686C188.064 52.4484 190.335 53.2883 193.01 53.2883C196.992 53.2883 199.761 51.6085 201.316 48.2488H218.301C217.43 51.6707 215.844 54.7504 213.542 57.4879C211.302 60.2254 208.471 62.3719 205.049 63.9273C201.627 65.4827 197.801 66.2604 193.57 66.2604C188.469 66.2604 183.927 65.1716 179.945 62.9941C175.963 60.8165 172.852 57.7057 170.613 53.6616C168.373 49.6175 167.253 44.8891 167.253 39.4763C167.253 34.0635 168.342 29.335 170.519 25.291C172.759 21.2469 175.87 18.1361 179.852 15.9585C183.834 13.7809 188.406 12.6921 193.57 12.6921C198.61 12.6921 203.09 13.7498 207.009 15.8652C210.929 17.9805 213.977 20.998 216.155 24.9177C218.395 28.8373 219.515 33.4102 219.515 38.6364ZM203.183 34.4368C203.183 31.6992 202.25 29.5217 200.383 27.904C198.517 26.2864 196.184 25.4776 193.384 25.4776C190.708 25.4776 188.438 26.2553 186.571 27.8107C184.767 29.3661 183.647 31.5748 183.211 34.4368H203.183Z" fill="url(#paint4_linear_523_606)"/>
<path d="M139.571 66.2604C135.03 66.2604 130.985 65.4827 127.439 63.9273C123.893 62.3719 121.093 60.2565 119.04 57.5812C116.987 54.8437 115.836 51.7951 115.587 48.4354H131.359C131.545 50.2397 132.385 51.7018 133.879 52.8217C135.372 53.9416 137.207 54.5015 139.385 54.5015C141.376 54.5015 142.9 54.1282 143.958 53.3816C145.077 52.5728 145.637 51.5463 145.637 50.3019C145.637 48.8087 144.86 47.7199 143.304 47.0356C141.749 46.289 139.229 45.4802 135.745 44.6091C132.012 43.7381 128.901 42.836 126.413 41.9027C123.924 40.9073 121.777 39.383 119.973 37.3298C118.169 35.2145 117.267 32.3836 117.267 28.8373C117.267 25.8509 118.076 23.1445 119.693 20.718C121.373 18.2294 123.799 16.2696 126.973 14.8386C130.208 13.4076 134.034 12.6921 138.451 12.6921C144.984 12.6921 150.117 14.3098 153.85 17.545C157.645 20.7803 159.823 25.0732 160.383 30.4238H145.637C145.389 28.6195 144.58 27.1886 143.211 26.1309C141.904 25.0732 140.162 24.5444 137.985 24.5444C136.118 24.5444 134.687 24.9177 133.692 25.6643C132.696 26.3486 132.199 27.313 132.199 28.5573C132.199 30.0505 132.976 31.1704 134.532 31.917C136.149 32.6636 138.638 33.4102 141.998 34.1568C145.855 35.1522 148.997 36.1477 151.424 37.1432C153.85 38.0764 155.965 39.6318 157.77 41.8094C159.636 43.9247 160.6 46.7867 160.663 50.3953C160.663 53.4439 159.792 56.1814 158.05 58.6078C156.37 60.972 153.912 62.8385 150.677 64.2073C147.504 65.576 143.802 66.2604 139.571 66.2604Z" fill="url(#paint5_linear_523_606)"/>
<path d="M109.968 38.6364C109.968 40.1296 109.874 41.685 109.688 43.3026H73.5712C73.8201 46.5378 74.8467 49.0265 76.6509 50.7686C78.5174 52.4484 80.7883 53.2883 83.4636 53.2883C87.4455 53.2883 90.2141 51.6085 91.7695 48.2488H108.755C107.884 51.6707 106.297 54.7504 103.995 57.4879C101.755 60.2254 98.9244 62.3719 95.5025 63.9273C92.0806 65.4827 88.2543 66.2604 84.0236 66.2604C78.9218 66.2604 74.38 65.1716 70.3982 62.9941C66.4163 60.8165 63.3055 57.7057 61.0657 53.6616C58.8259 49.6175 57.7061 44.8891 57.7061 39.4763C57.7061 34.0635 58.7948 29.335 60.9724 25.291C63.2122 21.2469 66.323 18.1361 70.3049 15.9585C74.2867 13.7809 78.8596 12.6921 84.0236 12.6921C89.0631 12.6921 93.5427 13.7498 97.4623 15.8652C101.382 17.9805 104.431 20.998 106.608 24.9177C108.848 28.8373 109.968 33.4102 109.968 38.6364ZM93.636 34.4368C93.636 31.6992 92.7028 29.5217 90.8363 27.904C88.9698 26.2864 86.6367 25.4776 83.8369 25.4776C81.1616 25.4776 78.8907 26.2553 77.0242 27.8107C75.22 29.3661 74.1001 31.5748 73.6645 34.4368H93.636Z" fill="url(#paint6_linear_523_606)"/>
<path d="M33.4102 65.5138L19.7848 40.7828H15.9585V65.5138H0V0H26.7841C31.9481 0 36.3343 0.902137 39.9429 2.70641C43.6137 4.51068 46.3512 6.99934 48.1555 10.1724C49.9597 13.2832 50.8619 16.7673 50.8619 20.6247C50.8619 24.9799 49.6175 28.8684 47.1289 32.2903C44.7024 35.7122 41.0939 38.1386 36.3032 39.5696L51.4218 65.5138H33.4102ZM15.9585 29.4906H25.8509C28.7751 29.4906 30.9526 28.7751 32.3836 27.3441C33.8768 25.9131 34.6234 23.8911 34.6234 21.278C34.6234 18.7893 33.8768 16.8295 32.3836 15.3985C30.9526 13.9676 28.7751 13.2521 25.8509 13.2521H15.9585V29.4906Z" fill="url(#paint7_linear_523_606)"/>
<defs>
<linearGradient id="paint0_linear_523_606" x1="379.692" y1="12.8788" x2="379.692" y2="65.5138" gradientUnits="userSpaceOnUse">
<stop stop-color="#F4781A"/>
<stop offset="1" stop-color="#E53C08"/>
</linearGradient>
<linearGradient id="paint1_linear_523_606" x1="334.251" y1="0" x2="334.251" y2="65.5138" gradientUnits="userSpaceOnUse">
<stop stop-color="#F4781A"/>
<stop offset="1" stop-color="#E53C08"/>
</linearGradient>
<linearGradient id="paint2_linear_523_606" x1="319.554" y1="39.4763" x2="262.906" y2="39.4763" gradientUnits="userSpaceOnUse">
<stop stop-color="#09C4E3"/>
<stop offset="0.5" stop-color="#04A5D4"/>
<stop offset="1" stop-color="#015AAC"/>
</linearGradient>
<linearGradient id="paint3_linear_523_606" x1="260.225" y1="39.1963" x2="227.935" y2="39.1963" gradientUnits="userSpaceOnUse">
<stop stop-color="#09C4E3"/>
<stop offset="0.5" stop-color="#04A5D4"/>
<stop offset="1" stop-color="#015AAC"/>
</linearGradient>
<linearGradient id="paint4_linear_523_606" x1="219.515" y1="39.4763" x2="167.253" y2="39.4763" gradientUnits="userSpaceOnUse">
<stop stop-color="#09C4E3"/>
<stop offset="0.5" stop-color="#04A5D4"/>
<stop offset="1" stop-color="#015AAC"/>
</linearGradient>
<linearGradient id="paint5_linear_523_606" x1="160.663" y1="39.4763" x2="115.587" y2="39.4763" gradientUnits="userSpaceOnUse">
<stop stop-color="#09C4E3"/>
<stop offset="0.5" stop-color="#04A5D4"/>
<stop offset="1" stop-color="#015AAC"/>
</linearGradient>
<linearGradient id="paint6_linear_523_606" x1="109.968" y1="39.4763" x2="57.7061" y2="39.4763" gradientUnits="userSpaceOnUse">
<stop stop-color="#09C4E3"/>
<stop offset="0.5" stop-color="#04A5D4"/>
<stop offset="1" stop-color="#015AAC"/>
</linearGradient>
<linearGradient id="paint7_linear_523_606" x1="51.4218" y1="32.7569" x2="0" y2="32.7569" gradientUnits="userSpaceOnUse">
<stop stop-color="#09C4E3"/>
<stop offset="0.5" stop-color="#04A5D4"/>
<stop offset="1" stop-color="#015AAC"/>
</linearGradient>
</defs>
</svg>
