<svg width="1492" height="164" viewBox="0 0 1492 164" fill="none" xmlns="http://www.w3.org/2000/svg">
<mask id="path-1-outside-1_335_466" maskUnits="userSpaceOnUse" x="1.08545e-06" y="-1.29438e-05" width="1492" height="164" fill="black">
<rect fill="white" x="1.08545e-06" y="-1.29438e-05" width="1492" height="164"/>
<path d="M1.5578 3.5938L63.1105 3.5938C75.1418 3.5938 85.5975 5.38416 94.4777 8.96489C103.358 12.5456 110.197 17.8451 114.995 24.8633C119.865 31.8816 122.3 40.5469 122.3 50.8594C122.3 59.8112 120.904 67.295 118.111 73.3106C115.318 79.3262 111.415 84.3034 106.402 88.2422C101.46 92.1094 95.6952 95.2963 89.1066 97.8028L76.7531 104.785L25.0832 104.785L24.8684 75.6739L63.1105 75.6739C67.9087 75.6739 71.8833 74.8145 75.0344 73.0957C78.1854 71.377 80.5487 68.9421 82.1242 65.7911C83.7713 62.5684 84.5949 58.737 84.5949 54.2969C84.5949 49.7852 83.7713 45.918 82.1242 42.6954C80.4771 39.4727 78.0422 37.002 74.8195 35.2832C71.6685 33.5645 67.7655 32.7051 63.1105 32.7051L39.2629 32.7051L39.2629 160L1.55781 160L1.5578 3.5938ZM87.173 160L52.5832 90.8204L92.5441 90.6055L127.564 158.389L127.564 160L87.173 160ZM320.91 130.996L320.91 160L237.551 160L237.551 130.996L320.91 130.996ZM250.979 3.59379L250.979 160L213.273 160L213.273 3.59379L250.979 3.59379ZM310.168 65.6836L310.168 93.7207L237.551 93.7207L237.551 65.6836L310.168 65.6836ZM321.232 3.59379L321.232 32.7051L237.551 32.7051L237.551 3.59379L321.232 3.59379ZM485.145 118.428C485.145 115.993 484.787 113.809 484.071 111.875C483.355 109.87 482.03 108.008 480.096 106.289C478.163 104.57 475.37 102.852 471.718 101.133C468.137 99.3425 463.41 97.4805 457.538 95.5469C450.663 93.2552 444.038 90.6771 437.665 87.8125C431.291 84.8763 425.598 81.4746 420.585 77.6075C415.572 73.6686 411.597 69.0853 408.661 63.8575C405.725 58.558 404.257 52.3991 404.257 45.3809C404.257 38.6491 405.761 32.5977 408.768 27.2266C411.776 21.7839 415.966 17.1647 421.337 13.3692C426.779 9.50199 433.153 6.56579 440.458 4.56058C447.762 2.48376 455.747 1.44534 464.413 1.44534C475.871 1.44534 485.969 3.45055 494.706 7.46097C503.514 11.3998 510.389 17.0215 515.331 24.3262C520.344 31.5593 522.85 40.1172 522.85 50L485.36 50C485.36 46.0612 484.537 42.5879 482.889 39.5801C481.314 36.5723 478.915 34.209 475.692 32.4903C472.469 30.7715 468.423 29.9121 463.553 29.9121C458.827 29.9121 454.852 30.6283 451.63 32.0606C448.407 33.4929 445.972 35.4265 444.325 37.8614C442.678 40.2246 441.854 42.8386 441.854 45.7032C441.854 48.0664 442.499 50.2149 443.788 52.1485C445.149 54.0104 447.046 55.765 449.481 57.4121C451.988 59.0593 454.996 60.6348 458.505 62.1387C462.085 63.6426 466.096 65.1107 470.536 66.543C478.843 69.1927 486.219 72.1647 492.665 75.459C499.182 78.6817 504.66 82.3698 509.1 86.5235C513.612 90.6055 517.014 95.2604 519.305 100.488C521.669 105.716 522.85 111.624 522.85 118.213C522.85 125.231 521.49 131.462 518.768 136.904C516.047 142.347 512.144 146.966 507.059 150.762C501.975 154.486 495.887 157.314 488.798 159.248C481.708 161.182 473.794 162.148 465.057 162.148C457.037 162.148 449.123 161.146 441.317 159.141C433.583 157.064 426.565 153.913 420.262 149.688C413.96 145.391 408.912 139.912 405.116 133.252C401.392 126.52 399.53 118.535 399.53 109.297L437.343 109.297C437.343 113.88 437.951 117.747 439.169 120.898C440.386 124.05 442.177 126.592 444.54 128.525C446.903 130.387 449.803 131.748 453.241 132.607C456.678 133.395 460.617 133.789 465.057 133.789C469.856 133.789 473.723 133.109 476.659 131.748C479.595 130.316 481.744 128.454 483.104 126.162C484.465 123.799 485.145 121.221 485.145 118.428ZM718.13 130.996L718.13 160L634.771 160L634.771 130.996L718.13 130.996ZM648.199 3.59377L648.199 160L610.494 160L610.494 3.59378L648.199 3.59377ZM707.388 65.6836L707.388 93.7207L634.771 93.7207L634.771 65.6836L707.388 65.6836ZM718.453 3.59377L718.453 32.7051L634.771 32.7051L634.771 3.59377L718.453 3.59377ZM801.799 3.59377L863.352 3.59376C875.383 3.59376 885.839 5.38413 894.719 8.96486C903.599 12.5456 910.439 17.8451 915.237 24.8633C920.106 31.8815 922.541 40.5469 922.541 50.8594C922.541 59.8112 921.145 67.2949 918.352 73.3106C915.559 79.3262 911.656 84.3034 906.643 88.2422C901.702 92.1094 895.937 95.2962 889.348 97.8027L876.995 104.785L825.325 104.785L825.11 75.6738L863.352 75.6738C868.15 75.6738 872.125 74.8145 875.276 73.0957C878.427 71.377 880.79 68.9421 882.366 65.791C884.013 62.5684 884.836 58.737 884.836 54.2969C884.836 49.7852 884.013 45.918 882.366 42.6953C880.718 39.4727 878.284 37.002 875.061 35.2832C871.91 33.5645 868.007 32.7051 863.352 32.7051L839.504 32.7051L839.504 160L801.799 160L801.799 3.59377ZM887.414 160L852.825 90.8203L892.786 90.6055L927.805 158.389L927.805 160L887.414 160ZM1070.56 123.154L1103.1 3.59375L1145.32 3.59375L1092.58 160L1065.29 160L1070.56 123.154ZM1041.01 3.59376L1073.56 123.154L1079.04 160L1051.43 160L999.013 3.59376L1041.01 3.59376ZM1265.08 3.59375L1265.08 160L1227.49 160L1227.49 3.59375L1265.08 3.59375ZM1490.44 3.59374L1490.44 160L1452.84 160L1397.52 62.6758L1397.52 160L1359.82 160L1359.82 3.59374L1397.52 3.59374L1452.84 100.918L1452.84 3.59374L1490.44 3.59374Z"/>
</mask>
<path d="M1.5578 3.5938L1.5578 2.5938L0.557801 2.5938L0.557802 3.5938L1.5578 3.5938ZM94.4777 8.96489L94.1038 9.89233L94.4777 8.96489ZM114.995 24.8633L114.17 25.4277L114.174 25.4334L114.995 24.8633ZM106.402 88.2422L107.018 89.0297L107.019 89.0285L106.402 88.2422ZM89.1066 97.8028L88.7511 96.8681L88.6804 96.895L88.6146 96.9322L89.1066 97.8028ZM76.7531 104.785L76.7531 105.785L77.0162 105.785L77.2452 105.656L76.7531 104.785ZM25.0832 104.785L24.0832 104.793L24.0906 105.785L25.0832 105.785L25.0832 104.785ZM24.8684 75.6739L24.8684 74.6739L23.861 74.6739L23.8684 75.6813L24.8684 75.6739ZM82.1242 65.7911L81.2337 65.3359L81.2298 65.3438L82.1242 65.7911ZM74.8195 35.2832L74.3407 36.1612L74.3489 36.1656L74.8195 35.2832ZM39.2629 32.7051L39.2629 31.7051L38.2629 31.7051L38.2629 32.7051L39.2629 32.7051ZM39.2629 160L39.2629 161L40.2629 161L40.2629 160L39.2629 160ZM1.55781 160L0.557808 160L0.557808 161L1.55781 161L1.55781 160ZM87.173 160L86.2786 160.447L86.555 161L87.173 161L87.173 160ZM52.5832 90.8204L52.5778 89.8204L50.9695 89.829L51.6888 91.2676L52.5832 90.8204ZM92.5441 90.6055L93.4326 90.1465L93.1514 89.6022L92.5388 89.6055L92.5441 90.6055ZM127.564 158.389L128.564 158.389L128.564 158.146L128.452 157.93L127.564 158.389ZM127.564 160L127.564 161L128.564 161L128.564 160L127.564 160ZM1.5578 3.5938L1.5578 4.5938L63.1105 4.5938L63.1105 3.5938L63.1105 2.5938L1.5578 2.5938L1.5578 3.5938ZM63.1105 3.5938L63.1105 4.5938C75.0453 4.5938 85.3686 6.37009 94.1038 9.89233L94.4777 8.96489L94.8517 8.03745C85.8264 4.39823 75.2383 2.5938 63.1105 2.5938L63.1105 3.5938ZM94.4777 8.96489L94.1038 9.89233C102.825 13.4089 109.497 18.5925 114.17 25.4277L114.995 24.8633L115.821 24.2989C110.898 17.0977 103.891 11.6823 94.8517 8.03745L94.4777 8.96489ZM114.995 24.8633L114.174 25.4334C118.905 32.2521 121.3 40.7077 121.3 50.8594L122.3 50.8594L123.3 50.8594C123.3 40.3861 120.825 31.511 115.817 24.2932L114.995 24.8633ZM122.3 50.8594L121.3 50.8594C121.3 59.714 119.918 67.0434 117.204 72.8895L118.111 73.3106L119.018 73.7317C121.889 67.5465 123.3 59.9085 123.3 50.8594L122.3 50.8594ZM118.111 73.3106L117.204 72.8895C114.474 78.7682 110.668 83.6184 105.784 87.4559L106.402 88.2422L107.019 89.0285C112.161 84.9885 116.161 79.8842 119.018 73.7317L118.111 73.3106ZM106.402 88.2422L105.785 87.4547C100.932 91.253 95.2572 94.393 88.7511 96.8681L89.1066 97.8028L89.4622 98.7374C96.1331 96.1996 101.988 92.9659 107.018 89.0297L106.402 88.2422ZM89.1066 97.8028L88.6146 96.9322L76.2611 103.915L76.7531 104.785L77.2452 105.656L89.5987 98.6733L89.1066 97.8028ZM76.7531 104.785L76.7531 103.785L25.0832 103.785L25.0832 104.785L25.0832 105.785L76.7531 105.785L76.7531 104.785ZM25.0832 104.785L26.0832 104.778L25.8683 75.6665L24.8684 75.6739L23.8684 75.6813L24.0832 104.793L25.0832 104.785ZM24.8684 75.6739L24.8684 76.6739L63.1105 76.6739L63.1105 75.6739L63.1105 74.6739L24.8684 74.6739L24.8684 75.6739ZM63.1105 75.6739L63.1105 76.6739C68.0219 76.6739 72.1741 75.795 75.5132 73.9736L75.0344 73.0957L74.5555 72.2178C71.5925 73.834 67.7956 74.6739 63.1105 74.6739L63.1105 75.6739ZM75.0344 73.0957L75.5132 73.9736C78.8399 72.1591 81.35 69.5756 83.0187 66.2383L82.1242 65.7911L81.2298 65.3438C79.7474 68.3086 77.5309 70.5949 74.5555 72.2178L75.0344 73.0957ZM82.1242 65.7911L83.0147 66.2462C84.7483 62.8542 85.5949 58.8599 85.5949 54.2969L84.5949 54.2969L83.5949 54.2969C83.5949 58.6141 82.7944 62.2826 81.2338 65.336L82.1242 65.7911ZM84.5949 54.2969L85.5949 54.2969C85.5949 49.6652 84.7494 45.6343 83.0147 42.2402L82.1242 42.6954L81.2338 43.1505C82.7933 46.2017 83.5949 49.9052 83.5949 54.2969L84.5949 54.2969ZM82.1242 42.6954L83.0147 42.2402C81.2736 38.8338 78.6913 36.2149 75.2901 34.4009L74.8195 35.2832L74.3489 36.1656C77.393 37.7891 79.6806 40.1116 81.2338 43.1505L82.1242 42.6954ZM74.8195 35.2832L75.2984 34.4054C71.9632 32.5862 67.8846 31.7051 63.1105 31.7051L63.1105 32.7051L63.1105 33.7051C67.6464 33.7051 71.3737 34.5428 74.3407 36.1611L74.8195 35.2832ZM63.1105 32.7051L63.1105 31.7051L39.2629 31.7051L39.2629 32.7051L39.2629 33.7051L63.1105 33.7051L63.1105 32.7051ZM39.2629 32.7051L38.2629 32.7051L38.2629 160L39.2629 160L40.2629 160L40.2629 32.7051L39.2629 32.7051ZM39.2629 160L39.2629 159L1.55781 159L1.55781 160L1.55781 161L39.2629 161L39.2629 160ZM1.55781 160L2.55781 160L2.5578 3.5938L1.5578 3.5938L0.557802 3.5938L0.557808 160L1.55781 160ZM87.173 160L88.0675 159.553L53.4776 90.3731L52.5832 90.8204L51.6888 91.2676L86.2786 160.447L87.173 160ZM52.5832 90.8204L52.5886 91.8203L92.5495 91.6055L92.5441 90.6055L92.5388 89.6055L52.5778 89.8204L52.5832 90.8204ZM92.5441 90.6055L91.6557 91.0645L126.675 158.848L127.564 158.389L128.452 157.93L93.4326 90.1465L92.5441 90.6055ZM127.564 158.389L126.564 158.389L126.564 160L127.564 160L128.564 160L128.564 158.389L127.564 158.389ZM127.564 160L127.564 159L87.173 159L87.173 160L87.173 161L127.564 161L127.564 160ZM320.91 130.996L321.91 130.996L321.91 129.996L320.91 129.996L320.91 130.996ZM320.91 160L320.91 161L321.91 161L321.91 160L320.91 160ZM237.551 160L236.551 160L236.551 161L237.551 161L237.551 160ZM237.551 130.996L237.551 129.996L236.551 129.996L236.551 130.996L237.551 130.996ZM250.979 3.59379L251.979 3.59379L251.979 2.59379L250.979 2.59379L250.979 3.59379ZM250.979 160L250.979 161L251.979 161L251.979 160L250.979 160ZM213.273 160L212.273 160L212.273 161L213.273 161L213.273 160ZM213.273 3.59379L213.273 2.59379L212.273 2.59379L212.273 3.59379L213.273 3.59379ZM310.168 65.6836L311.168 65.6836L311.168 64.6836L310.168 64.6836L310.168 65.6836ZM310.168 93.7207L310.168 94.7207L311.168 94.7207L311.168 93.7207L310.168 93.7207ZM237.551 93.7207L236.551 93.7207L236.551 94.7207L237.551 94.7207L237.551 93.7207ZM237.551 65.6836L237.551 64.6836L236.551 64.6836L236.551 65.6836L237.551 65.6836ZM321.232 3.59379L322.232 3.59379L322.232 2.59379L321.232 2.59379L321.232 3.59379ZM321.232 32.7051L321.232 33.7051L322.232 33.7051L322.232 32.7051L321.232 32.7051ZM237.551 32.7051L236.551 32.7051L236.551 33.7051L237.551 33.7051L237.551 32.7051ZM237.551 3.59379L237.551 2.59379L236.551 2.59379L236.551 3.59379L237.551 3.59379ZM320.91 130.996L319.91 130.996L319.91 160L320.91 160L321.91 160L321.91 130.996L320.91 130.996ZM320.91 160L320.91 159L237.551 159L237.551 160L237.551 161L320.91 161L320.91 160ZM237.551 160L238.551 160L238.551 130.996L237.551 130.996L236.551 130.996L236.551 160L237.551 160ZM237.551 130.996L237.551 131.996L320.91 131.996L320.91 130.996L320.91 129.996L237.551 129.996L237.551 130.996ZM250.979 3.59379L249.979 3.59379L249.979 160L250.979 160L251.979 160L251.979 3.59379L250.979 3.59379ZM250.979 160L250.979 159L213.273 159L213.273 160L213.273 161L250.979 161L250.979 160ZM213.273 160L214.273 160L214.273 3.59379L213.273 3.59379L212.273 3.59379L212.273 160L213.273 160ZM213.273 3.59379L213.273 4.59379L250.979 4.59379L250.979 3.59379L250.979 2.59379L213.273 2.59379L213.273 3.59379ZM310.168 65.6836L309.168 65.6836L309.168 93.7207L310.168 93.7207L311.168 93.7207L311.168 65.6836L310.168 65.6836ZM310.168 93.7207L310.168 92.7207L237.551 92.7207L237.551 93.7207L237.551 94.7207L310.168 94.7207L310.168 93.7207ZM237.551 93.7207L238.551 93.7207L238.551 65.6836L237.551 65.6836L236.551 65.6836L236.551 93.7207L237.551 93.7207ZM237.551 65.6836L237.551 66.6836L310.168 66.6836L310.168 65.6836L310.168 64.6836L237.551 64.6836L237.551 65.6836ZM321.232 3.59379L320.232 3.59379L320.232 32.7051L321.232 32.7051L322.232 32.7051L322.232 3.59379L321.232 3.59379ZM321.232 32.7051L321.232 31.7051L237.551 31.7051L237.551 32.7051L237.551 33.7051L321.232 33.7051L321.232 32.7051ZM237.551 32.7051L238.551 32.7051L238.551 3.59379L237.551 3.59379L236.551 3.59379L236.551 32.7051L237.551 32.7051ZM237.551 3.59379L237.551 4.59379L321.232 4.59379L321.232 3.59379L321.232 2.59379L237.551 2.59379L237.551 3.59379ZM484.071 111.875L483.129 112.211L483.133 112.222L484.071 111.875ZM471.718 101.133L471.27 102.027L471.281 102.033L471.292 102.038L471.718 101.133ZM457.538 95.5469L457.222 96.4956L457.225 96.4967L457.538 95.5469ZM437.665 87.8125L437.246 88.7208L437.255 88.7246L437.665 87.8125ZM420.585 77.6075L419.967 78.3938L419.974 78.3992L420.585 77.6075ZM408.661 63.8575L407.786 64.3421L407.789 64.3471L408.661 63.8575ZM408.768 27.2266L409.641 27.7152L409.644 27.7103L408.768 27.2266ZM421.337 13.3692L421.914 14.1858L421.916 14.1844L421.337 13.3692ZM440.458 4.56058L440.722 5.52495L440.731 5.52246L440.458 4.56058ZM494.706 7.46097L494.289 8.36984L494.298 8.37386L494.706 7.46097ZM515.331 24.3262L514.503 24.8865L514.509 24.8958L515.331 24.3262ZM522.85 50L522.85 51L523.85 51L523.85 50L522.85 50ZM485.36 50L484.36 50L484.36 51L485.36 51L485.36 50ZM482.889 39.5801L482.004 40.0441L482.008 40.0523L482.012 40.0604L482.889 39.5801ZM444.325 37.8614L445.145 38.4332L445.153 38.4217L444.325 37.8614ZM443.788 52.1485L442.956 52.7032L442.968 52.7211L442.98 52.7385L443.788 52.1485ZM449.481 57.4121L448.921 58.2405L448.932 58.2478L449.481 57.4121ZM458.505 62.1387L458.111 63.0579L458.117 63.0607L458.505 62.1387ZM470.536 66.543L470.229 67.4947L470.232 67.4957L470.536 66.543ZM492.665 75.459L492.21 76.3495L492.222 76.3554L492.665 75.459ZM509.1 86.5235L508.417 87.2537L508.423 87.2594L508.429 87.265L509.1 86.5235ZM519.305 100.488L518.389 100.89L518.394 100.9L519.305 100.488ZM507.059 150.762L507.65 151.569L507.658 151.563L507.059 150.762ZM441.317 159.141L441.058 160.106L441.068 160.109L441.317 159.141ZM420.262 149.688L419.699 150.514L419.706 150.518L420.262 149.688ZM405.116 133.252L404.241 133.736L404.247 133.747L405.116 133.252ZM399.53 109.297L399.53 108.297L398.53 108.297L398.53 109.297L399.53 109.297ZM437.343 109.297L438.343 109.297L438.343 108.297L437.343 108.297L437.343 109.297ZM444.54 128.525L443.907 129.299L443.914 129.305L443.921 129.311L444.54 128.525ZM453.241 132.607L452.998 133.578L453.008 133.58L453.018 133.582L453.241 132.607ZM476.659 131.748L477.079 132.655L477.088 132.651L477.097 132.647L476.659 131.748ZM483.104 126.162L483.964 126.673L483.971 126.661L483.104 126.162ZM485.145 118.428L486.145 118.428C486.145 115.895 485.773 113.591 485.009 111.528L484.071 111.875L483.133 112.222C483.802 114.027 484.145 116.09 484.145 118.428L485.145 118.428ZM484.071 111.875L485.013 111.539C484.229 109.345 482.793 107.348 480.761 105.542L480.096 106.289L479.432 107.036C481.267 108.667 482.481 110.395 483.129 112.211L484.071 111.875ZM480.096 106.289L480.761 105.542C478.727 103.734 475.84 101.967 472.143 100.228L471.718 101.133L471.292 102.038C474.9 103.736 477.598 105.407 479.432 107.036L480.096 106.289ZM471.718 101.133L472.165 100.238C468.524 98.418 463.747 96.5386 457.851 94.5971L457.538 95.5469L457.225 96.4967C463.073 98.4224 467.75 100.267 471.27 102.027L471.718 101.133ZM457.538 95.5469L457.854 94.5982C451.01 92.3168 444.417 89.7507 438.075 86.9004L437.665 87.8125L437.255 88.7246C443.66 91.6035 450.316 94.1937 457.222 96.4956L457.538 95.5469ZM437.665 87.8125L438.083 86.9043C431.771 83.9962 426.143 80.6323 421.196 76.8157L420.585 77.6075L419.974 78.3992C425.052 82.317 430.812 85.7565 437.246 88.7208L437.665 87.8125ZM420.585 77.6075L421.203 76.8211C416.286 72.9583 412.401 68.4739 409.533 63.3678L408.661 63.8575L407.789 64.3471C410.794 69.6967 414.857 74.379 419.967 78.3938L420.585 77.6075ZM408.661 63.8575L409.536 63.3728C406.694 58.2437 405.257 52.2566 405.257 45.3809L404.257 45.3809L403.257 45.3809C403.257 52.5416 404.756 58.8723 407.786 64.3421L408.661 63.8575ZM404.257 45.3809L405.257 45.3809C405.257 38.8038 406.724 32.9233 409.641 27.7152L408.768 27.2266L407.896 26.738C404.797 32.2721 403.257 38.4945 403.257 45.3809L404.257 45.3809ZM408.768 27.2266L409.644 27.7103C412.574 22.4072 416.659 17.8995 421.914 14.1858L421.337 13.3692L420.76 12.5525C415.273 16.43 410.978 21.1606 407.893 26.7429L408.768 27.2266ZM421.337 13.3692L421.916 14.1844C427.251 10.3933 433.516 7.50328 440.722 5.52491L440.458 4.56058L440.193 3.59625C432.791 5.62829 426.307 8.61063 420.757 12.554L421.337 13.3692ZM440.458 4.56058L440.731 5.52246C447.935 3.4742 455.827 2.44534 464.413 2.44534L464.413 1.44534L464.413 0.445344C455.668 0.445345 447.589 1.49332 440.184 3.5987L440.458 4.56058ZM464.413 1.44534L464.413 2.44534C475.754 2.44534 485.705 4.42987 494.289 8.3698L494.706 7.46097L495.123 6.55214C486.232 2.47124 475.988 0.445344 464.413 0.445344L464.413 1.44534ZM494.706 7.46097L494.298 8.37386C502.953 12.244 509.675 17.7506 514.503 24.8865L515.331 24.3262L516.159 23.7659C511.104 16.2924 504.076 10.5555 495.114 6.54808L494.706 7.46097ZM515.331 24.3262L514.509 24.8958C519.392 31.9414 521.85 40.2948 521.85 50L522.85 50L523.85 50C523.85 39.9397 521.296 31.1772 516.153 23.7566L515.331 24.3262ZM522.85 50L522.85 49L485.36 49L485.36 50L485.36 51L522.85 51L522.85 50ZM485.36 50L486.36 50C486.36 45.9185 485.506 42.2755 483.766 39.0998L482.889 39.5801L482.012 40.0604C483.568 42.9004 484.36 46.2039 484.36 50L485.36 50ZM482.889 39.5801L483.775 39.1161C482.099 35.9166 479.549 33.4137 476.163 31.6079L475.692 32.4903L475.222 33.3726C478.281 35.0043 480.528 37.2279 482.004 40.0441L482.889 39.5801ZM475.692 32.4903L476.163 31.6079C472.755 29.7905 468.535 28.9121 463.553 28.9121L463.553 29.9121L463.553 30.9121C468.312 30.9121 472.184 31.7525 475.222 33.3726L475.692 32.4903ZM463.553 29.9121L463.553 28.9121C458.732 28.9121 454.61 29.6418 451.224 31.1468L451.63 32.0606L452.036 32.9744C455.095 31.6148 458.922 30.9121 463.553 30.9121L463.553 29.9121ZM451.63 32.0606L451.224 31.1468C447.864 32.6398 445.268 34.6826 443.497 37.301L444.325 37.8614L445.153 38.4217C446.676 36.1703 448.95 34.346 452.036 32.9744L451.63 32.0606ZM444.325 37.8614L443.505 37.2896C441.741 39.8196 440.854 42.6329 440.854 45.7032L441.854 45.7032L442.854 45.7032C442.854 43.0443 443.614 40.6297 445.145 38.4332L444.325 37.8614ZM441.854 45.7032L440.854 45.7032C440.854 48.2603 441.555 50.6024 442.956 52.7032L443.788 52.1485L444.62 51.5938C443.442 49.8274 442.854 47.8726 442.854 45.7032L441.854 45.7032ZM443.788 52.1485L442.98 52.7385C444.425 54.7151 446.416 56.5456 448.921 58.2404L449.481 57.4121L450.042 56.5839C447.677 54.9844 445.872 53.3058 444.595 51.5584L443.788 52.1485ZM449.481 57.4121L448.932 58.2478C451.499 59.9346 454.561 61.5367 458.111 63.0578L458.505 62.1387L458.899 61.2196C455.43 59.7329 452.477 58.1839 450.03 56.5764L449.481 57.4121ZM458.505 62.1387L458.117 63.0607C461.729 64.5776 465.767 66.0553 470.229 67.4947L470.536 66.543L470.843 65.5913C466.425 64.1661 462.442 62.7076 458.892 61.2167L458.505 62.1387ZM470.536 66.543L470.232 67.4957C478.497 70.1321 485.822 73.0844 492.21 76.3494L492.665 75.459L493.12 74.5686C486.617 71.245 479.189 68.2534 470.84 65.5903L470.536 66.543ZM492.665 75.459L492.222 76.3554C498.667 79.5429 504.061 83.1785 508.417 87.2537L509.1 86.5235L509.784 85.7932C505.26 81.5612 499.696 77.8204 493.108 74.5626L492.665 75.459ZM509.1 86.5235L508.429 87.265C512.843 91.2586 516.158 95.7997 518.39 100.89L519.305 100.488L520.221 100.087C517.869 94.7212 514.381 89.9524 509.771 85.7819L509.1 86.5235ZM519.305 100.488L518.394 100.9C520.691 105.981 521.85 111.745 521.85 118.213L522.85 118.213L523.85 118.213C523.85 111.503 522.646 105.452 520.217 100.076L519.305 100.488ZM522.85 118.213L521.85 118.213C521.85 125.1 520.516 131.173 517.874 136.457L518.768 136.904L519.663 137.352C522.463 131.75 523.85 125.363 523.85 118.213L522.85 118.213ZM518.768 136.904L517.874 136.457C515.225 141.754 511.426 146.254 506.461 149.96L507.059 150.762L507.658 151.563C512.862 147.678 516.869 142.94 519.663 137.352L518.768 136.904ZM507.059 150.762L506.468 149.955C501.497 153.596 495.526 156.377 488.534 158.283L488.798 159.248L489.061 160.213C496.249 158.252 502.452 155.376 507.65 151.569L507.059 150.762ZM488.798 159.248L488.534 158.283C481.545 160.19 473.722 161.148 465.057 161.148L465.057 162.148L465.057 163.148C473.867 163.148 481.871 162.174 489.061 160.213L488.798 159.248ZM465.057 162.148L465.057 161.148C457.121 161.148 449.291 160.157 441.566 158.172L441.317 159.141L441.068 160.109C448.955 162.135 456.952 163.148 465.057 163.148L465.057 162.148ZM441.317 159.141L441.576 158.175C433.942 156.125 427.025 153.018 420.819 148.857L420.262 149.688L419.706 150.518C426.104 154.808 433.223 158.003 441.058 160.106L441.317 159.141ZM420.262 149.688L420.826 148.861C414.65 144.651 409.705 139.286 405.985 132.757L405.116 133.252L404.247 133.747C408.118 140.539 413.271 146.131 419.699 150.514L420.262 149.688ZM405.116 133.252L405.991 132.768C402.364 126.211 400.53 118.4 400.53 109.297L399.53 109.297L398.53 109.297C398.53 118.671 400.42 126.829 404.241 133.736L405.116 133.252ZM399.53 109.297L399.53 110.297L437.343 110.297L437.343 109.297L437.343 108.297L399.53 108.297L399.53 109.297ZM437.343 109.297L436.343 109.297C436.343 113.962 436.961 117.96 438.236 121.259L439.169 120.898L440.102 120.538C438.941 117.535 438.343 113.798 438.343 109.297L437.343 109.297ZM439.169 120.898L438.236 121.259C439.509 124.554 441.395 127.245 443.907 129.299L444.54 128.525L445.173 127.751C442.958 125.939 441.263 123.545 440.102 120.538L439.169 120.898ZM444.54 128.525L443.921 129.311C446.413 131.274 449.448 132.69 452.998 133.578L453.241 132.607L453.484 131.637C450.159 130.806 447.393 129.5 445.159 127.74L444.54 128.525ZM453.241 132.607L453.018 133.582C456.544 134.39 460.56 134.789 465.057 134.789L465.057 133.789L465.057 132.789C460.674 132.789 456.813 132.4 453.464 131.633L453.241 132.607ZM465.057 133.789L465.057 134.789C469.937 134.789 473.964 134.099 477.079 132.655L476.659 131.748L476.238 130.841C473.482 132.118 469.774 132.789 465.057 132.789L465.057 133.789ZM476.659 131.748L477.097 132.647C480.169 131.148 482.483 129.167 483.964 126.673L483.104 126.162L482.244 125.652C481.004 127.741 479.021 129.483 476.221 130.849L476.659 131.748ZM483.104 126.162L483.971 126.661C485.421 124.142 486.145 121.391 486.145 118.428L485.145 118.428L484.145 118.428C484.145 121.05 483.509 123.455 482.238 125.663L483.104 126.162ZM718.13 130.996L719.13 130.996L719.13 129.996L718.13 129.996L718.13 130.996ZM718.13 160L718.13 161L719.13 161L719.13 160L718.13 160ZM634.771 160L633.771 160L633.771 161L634.771 161L634.771 160ZM634.771 130.996L634.771 129.996L633.771 129.996L633.771 130.996L634.771 130.996ZM648.199 3.59377L649.199 3.59377L649.199 2.59377L648.199 2.59377L648.199 3.59377ZM648.199 160L648.199 161L649.199 161L649.199 160L648.199 160ZM610.494 160L609.494 160L609.494 161L610.494 161L610.494 160ZM610.494 3.59378L610.494 2.59378L609.494 2.59378L609.494 3.59378L610.494 3.59378ZM707.388 65.6836L708.388 65.6836L708.388 64.6836L707.388 64.6836L707.388 65.6836ZM707.388 93.7207L707.388 94.7207L708.388 94.7207L708.388 93.7207L707.388 93.7207ZM634.771 93.7207L633.771 93.7207L633.771 94.7207L634.771 94.7207L634.771 93.7207ZM634.771 65.6836L634.771 64.6836L633.771 64.6836L633.771 65.6836L634.771 65.6836ZM718.453 3.59377L719.453 3.59377L719.453 2.59377L718.453 2.59377L718.453 3.59377ZM718.453 32.7051L718.453 33.7051L719.453 33.7051L719.453 32.7051L718.453 32.7051ZM634.771 32.7051L633.771 32.7051L633.771 33.7051L634.771 33.7051L634.771 32.7051ZM634.771 3.59377L634.771 2.59377L633.771 2.59377L633.771 3.59377L634.771 3.59377ZM718.13 130.996L717.13 130.996L717.13 160L718.13 160L719.13 160L719.13 130.996L718.13 130.996ZM718.13 160L718.13 159L634.771 159L634.771 160L634.771 161L718.13 161L718.13 160ZM634.771 160L635.771 160L635.771 130.996L634.771 130.996L633.771 130.996L633.771 160L634.771 160ZM634.771 130.996L634.771 131.996L718.13 131.996L718.13 130.996L718.13 129.996L634.771 129.996L634.771 130.996ZM648.199 3.59377L647.199 3.59377L647.199 160L648.199 160L649.199 160L649.199 3.59377L648.199 3.59377ZM648.199 160L648.199 159L610.494 159L610.494 160L610.494 161L648.199 161L648.199 160ZM610.494 160L611.494 160L611.494 3.59378L610.494 3.59378L609.494 3.59378L609.494 160L610.494 160ZM610.494 3.59378L610.494 4.59378L648.199 4.59377L648.199 3.59377L648.199 2.59377L610.494 2.59378L610.494 3.59378ZM707.388 65.6836L706.388 65.6836L706.388 93.7207L707.388 93.7207L708.388 93.7207L708.388 65.6836L707.388 65.6836ZM707.388 93.7207L707.388 92.7207L634.771 92.7207L634.771 93.7207L634.771 94.7207L707.388 94.7207L707.388 93.7207ZM634.771 93.7207L635.771 93.7207L635.771 65.6836L634.771 65.6836L633.771 65.6836L633.771 93.7207L634.771 93.7207ZM634.771 65.6836L634.771 66.6836L707.388 66.6836L707.388 65.6836L707.388 64.6836L634.771 64.6836L634.771 65.6836ZM718.453 3.59377L717.453 3.59377L717.453 32.7051L718.453 32.7051L719.453 32.7051L719.453 3.59377L718.453 3.59377ZM718.453 32.7051L718.453 31.7051L634.771 31.7051L634.771 32.7051L634.771 33.7051L718.453 33.7051L718.453 32.7051ZM634.771 32.7051L635.771 32.7051L635.771 3.59377L634.771 3.59377L633.771 3.59377L633.771 32.7051L634.771 32.7051ZM634.771 3.59377L634.771 4.59377L718.453 4.59377L718.453 3.59377L718.453 2.59377L634.771 2.59377L634.771 3.59377ZM801.799 3.59377L801.799 2.59377L800.799 2.59377L800.799 3.59377L801.799 3.59377ZM894.719 8.96486L894.345 9.8923L894.719 8.96486ZM915.237 24.8633L914.411 25.4277L914.415 25.4334L915.237 24.8633ZM906.643 88.2422L907.259 89.0297L907.261 89.0285L906.643 88.2422ZM889.348 97.8027L888.992 96.8681L888.922 96.895L888.856 96.9322L889.348 97.8027ZM876.995 104.785L876.995 105.785L877.258 105.785L877.487 105.656L876.995 104.785ZM825.325 104.785L824.325 104.793L824.332 105.785L825.325 105.785L825.325 104.785ZM825.11 75.6738L825.11 74.6738L824.102 74.6738L824.11 75.6812L825.11 75.6738ZM882.366 65.791L881.475 65.3359L881.471 65.3438L882.366 65.791ZM875.061 35.2832L874.582 36.1611L874.59 36.1656L875.061 35.2832ZM839.504 32.7051L839.504 31.7051L838.504 31.7051L838.504 32.7051L839.504 32.7051ZM839.504 160L839.504 161L840.504 161L840.504 160L839.504 160ZM801.799 160L800.799 160L800.799 161L801.799 161L801.799 160ZM887.414 160L886.52 160.447L886.796 161L887.414 161L887.414 160ZM852.825 90.8203L852.819 89.8203L851.211 89.829L851.93 91.2675L852.825 90.8203ZM892.786 90.6055L893.674 90.1465L893.393 89.6022L892.78 89.6055L892.786 90.6055ZM927.805 158.389L928.805 158.389L928.805 158.146L928.693 157.93L927.805 158.389ZM927.805 160L927.805 161L928.805 161L928.805 160L927.805 160ZM801.799 3.59377L801.799 4.59377L863.352 4.59376L863.352 3.59376L863.352 2.59376L801.799 2.59377L801.799 3.59377ZM863.352 3.59376L863.352 4.59376C875.287 4.59376 885.61 6.37006 894.345 9.8923L894.719 8.96486L895.093 8.03742C886.068 4.3982 875.48 2.59376 863.352 2.59376L863.352 3.59376ZM894.719 8.96486L894.345 9.8923C903.066 13.4089 909.738 18.5924 914.411 25.4277L915.237 24.8633L916.062 24.2989C911.139 17.0977 904.132 11.6823 895.093 8.03742L894.719 8.96486ZM915.237 24.8633L914.415 25.4334C919.146 32.2521 921.541 40.7077 921.541 50.8594L922.541 50.8594L923.541 50.8594C923.541 40.3861 921.067 31.511 916.058 24.2932L915.237 24.8633ZM922.541 50.8594L921.541 50.8594C921.541 59.7139 920.159 67.0434 917.445 72.8894L918.352 73.3106L919.259 73.7317C922.131 67.5464 923.541 59.9085 923.541 50.8594L922.541 50.8594ZM918.352 73.3106L917.445 72.8894C914.715 78.7682 910.909 83.6183 906.025 87.4559L906.643 88.2422L907.261 89.0285C912.403 84.9885 916.402 79.8841 919.259 73.7317L918.352 73.3106ZM906.643 88.2422L906.027 87.4547C901.173 91.2529 895.499 94.3929 888.992 96.8681L889.348 97.8027L889.704 98.7374C896.375 96.1995 902.23 92.9658 907.259 89.0297L906.643 88.2422ZM889.348 97.8027L888.856 96.9322L876.502 103.915L876.995 104.785L877.487 105.656L889.84 98.6733L889.348 97.8027ZM876.995 104.785L876.995 103.785L825.325 103.785L825.325 104.785L825.325 105.785L876.995 105.785L876.995 104.785ZM825.325 104.785L826.325 104.778L826.11 75.6665L825.11 75.6738L824.11 75.6812L824.325 104.793L825.325 104.785ZM825.11 75.6738L825.11 76.6738L863.352 76.6738L863.352 75.6738L863.352 74.6738L825.11 74.6738L825.11 75.6738ZM863.352 75.6738L863.352 76.6738C868.263 76.6738 872.416 75.7949 875.755 73.9736L875.276 73.0957L874.797 72.2178C871.834 73.834 868.037 74.6738 863.352 74.6738L863.352 75.6738ZM875.276 73.0957L875.755 73.9736C879.081 72.1591 881.591 69.5755 883.26 66.2382L882.366 65.791L881.471 65.3438C879.989 68.3086 877.772 70.5949 874.797 72.2178L875.276 73.0957ZM882.366 65.791L883.256 66.2461C884.99 62.8542 885.836 58.8599 885.836 54.2969L884.836 54.2969L883.836 54.2969C883.836 58.6141 883.036 62.2826 881.475 65.3359L882.366 65.791ZM884.836 54.2969L885.836 54.2969C885.836 49.6651 884.991 45.6343 883.256 42.2402L882.366 42.6953L881.475 43.1504C883.035 46.2017 883.836 49.9052 883.836 54.2969L884.836 54.2969ZM882.366 42.6953L883.256 42.2402C881.515 38.8338 878.933 36.2148 875.531 34.4009L875.061 35.2832L874.59 36.1656C877.634 37.7891 879.922 40.1115 881.475 43.1504L882.366 42.6953ZM875.061 35.2832L875.54 34.4053C872.205 32.5861 868.126 31.7051 863.352 31.7051L863.352 32.7051L863.352 33.7051C867.888 33.7051 871.615 34.5428 874.582 36.1611L875.061 35.2832ZM863.352 32.7051L863.352 31.7051L839.504 31.7051L839.504 32.7051L839.504 33.7051L863.352 33.7051L863.352 32.7051ZM839.504 32.7051L838.504 32.7051L838.504 160L839.504 160L840.504 160L840.504 32.7051L839.504 32.7051ZM839.504 160L839.504 159L801.799 159L801.799 160L801.799 161L839.504 161L839.504 160ZM801.799 160L802.799 160L802.799 3.59377L801.799 3.59377L800.799 3.59377L800.799 160L801.799 160ZM887.414 160L888.309 159.553L853.719 90.3731L852.825 90.8203L851.93 91.2675L886.52 160.447L887.414 160ZM852.825 90.8203L852.83 91.8203L892.791 91.6055L892.786 90.6055L892.78 89.6055L852.819 89.8203L852.825 90.8203ZM892.786 90.6055L891.897 91.0645L926.917 158.848L927.805 158.389L928.693 157.93L893.674 90.1465L892.786 90.6055ZM927.805 158.389L926.805 158.389L926.805 160L927.805 160L928.805 160L928.805 158.389L927.805 158.389ZM927.805 160L927.805 159L887.414 159L887.414 160L887.414 161L927.805 161L927.805 160ZM1070.56 123.154L1069.59 122.892L1069.57 122.951L1069.57 123.013L1070.56 123.154ZM1103.1 3.59375L1103.1 2.59375L1102.34 2.59375L1102.14 3.33108L1103.1 3.59375ZM1145.32 3.59375L1146.27 3.9133L1146.71 2.59375L1145.32 2.59375L1145.32 3.59375ZM1092.58 160L1092.58 161L1093.3 161L1093.53 160.32L1092.58 160ZM1065.29 160L1064.3 159.859L1064.14 161L1065.29 161L1065.29 160ZM1041.01 3.59376L1041.98 3.33108L1041.78 2.59376L1041.01 2.59376L1041.01 3.59376ZM1073.56 123.154L1074.55 123.007L1074.54 122.949L1074.53 122.892L1073.56 123.154ZM1079.04 160L1079.04 161L1080.2 161L1080.03 159.853L1079.04 160ZM1051.43 160L1050.49 160.318L1050.72 161L1051.43 161L1051.43 160ZM999.013 3.59376L999.013 2.59376L997.623 2.59376L998.065 3.91155L999.013 3.59376ZM1070.56 123.154L1071.52 123.417L1104.07 3.85643L1103.1 3.59375L1102.14 3.33108L1069.59 122.892L1070.56 123.154ZM1103.1 3.59375L1103.1 4.59375L1145.32 4.59375L1145.32 3.59375L1145.32 2.59375L1103.1 2.59375L1103.1 3.59375ZM1145.32 3.59375L1144.37 3.27421L1091.63 159.68L1092.58 160L1093.53 160.32L1146.27 3.9133L1145.32 3.59375ZM1092.58 160L1092.58 159L1065.29 159L1065.29 160L1065.29 161L1092.58 161L1092.58 160ZM1065.29 160L1066.28 160.141L1071.55 123.296L1070.56 123.154L1069.57 123.013L1064.3 159.859L1065.29 160ZM1041.01 3.59376L1040.05 3.85643L1072.6 123.417L1073.56 123.154L1074.53 122.892L1041.98 3.33108L1041.01 3.59376ZM1073.56 123.154L1072.57 123.301L1078.05 160.147L1079.04 160L1080.03 159.853L1074.55 123.007L1073.56 123.154ZM1079.04 160L1079.04 159L1051.43 159L1051.43 160L1051.43 161L1079.04 161L1079.04 160ZM1051.43 160L1052.38 159.682L999.961 3.27597L999.013 3.59376L998.065 3.91155L1050.49 160.318L1051.43 160ZM999.013 3.59376L999.013 4.59376L1041.01 4.59376L1041.01 3.59376L1041.01 2.59376L999.013 2.59376L999.013 3.59376ZM1265.08 3.59375L1266.08 3.59375L1266.08 2.59375L1265.08 2.59375L1265.08 3.59375ZM1265.08 160L1265.08 161L1266.08 161L1266.08 160L1265.08 160ZM1227.49 160L1226.49 160L1226.49 161L1227.49 161L1227.49 160ZM1227.49 3.59375L1227.49 2.59375L1226.49 2.59375L1226.49 3.59375L1227.49 3.59375ZM1265.08 3.59375L1264.08 3.59375L1264.08 160L1265.08 160L1266.08 160L1266.08 3.59375L1265.08 3.59375ZM1265.08 160L1265.08 159L1227.49 159L1227.49 160L1227.49 161L1265.08 161L1265.08 160ZM1227.49 160L1228.49 160L1228.49 3.59375L1227.49 3.59375L1226.49 3.59375L1226.49 160L1227.49 160ZM1227.49 3.59375L1227.49 4.59375L1265.08 4.59375L1265.08 3.59375L1265.08 2.59375L1227.49 2.59375L1227.49 3.59375ZM1490.44 3.59374L1491.44 3.59374L1491.44 2.59374L1490.44 2.59374L1490.44 3.59374ZM1490.44 160L1490.44 161L1491.44 161L1491.44 160L1490.44 160ZM1452.84 160L1451.98 160.494L1452.26 161L1452.84 161L1452.84 160ZM1397.52 62.6758L1398.39 62.1816L1396.52 58.893L1396.52 62.6758L1397.52 62.6758ZM1397.52 160L1397.52 161L1398.52 161L1398.52 160L1397.52 160ZM1359.82 160L1358.82 160L1358.82 161L1359.82 161L1359.82 160ZM1359.82 3.59374L1359.82 2.59374L1358.82 2.59374L1358.82 3.59374L1359.82 3.59374ZM1397.52 3.59374L1398.39 3.09957L1398.1 2.59374L1397.52 2.59374L1397.52 3.59374ZM1452.84 100.918L1451.98 101.412L1453.84 104.701L1453.84 100.918L1452.84 100.918ZM1452.84 3.59374L1452.84 2.59374L1451.84 2.59374L1451.84 3.59374L1452.84 3.59374ZM1490.44 3.59374L1489.44 3.59374L1489.44 160L1490.44 160L1491.44 160L1491.44 3.59374L1490.44 3.59374ZM1490.44 160L1490.44 159L1452.84 159L1452.84 160L1452.84 161L1490.44 161L1490.44 160ZM1452.84 160L1453.71 159.506L1398.39 62.1816L1397.52 62.6758L1396.65 63.1699L1451.98 160.494L1452.84 160ZM1397.52 62.6758L1396.52 62.6758L1396.52 160L1397.52 160L1398.52 160L1398.52 62.6758L1397.52 62.6758ZM1397.52 160L1397.52 159L1359.82 159L1359.82 160L1359.82 161L1397.52 161L1397.52 160ZM1359.82 160L1360.82 160L1360.82 3.59374L1359.82 3.59374L1358.82 3.59374L1358.82 160L1359.82 160ZM1359.82 3.59374L1359.82 4.59374L1397.52 4.59374L1397.52 3.59374L1397.52 2.59374L1359.82 2.59374L1359.82 3.59374ZM1397.52 3.59374L1396.65 4.08792L1451.98 101.412L1452.84 100.918L1453.71 100.424L1398.39 3.09957L1397.52 3.59374ZM1452.84 100.918L1453.84 100.918L1453.84 3.59374L1452.84 3.59374L1451.84 3.59374L1451.84 100.918L1452.84 100.918ZM1452.84 3.59374L1452.84 4.59374L1490.44 4.59374L1490.44 3.59374L1490.44 2.59374L1452.84 2.59374L1452.84 3.59374Z" fill="white" fill-opacity="0.5" mask="url(#path-1-outside-1_335_466)"/>
</svg>
