<svg width="19" height="19" viewBox="0 0 19 19" fill="none" xmlns="http://www.w3.org/2000/svg">
<path d="M0.916471 10.0831H1.83314V16.4998C1.83314 17.5109 2.65539 18.3331 3.66647 18.3331H14.6665C15.6776 18.3331 16.4998 17.5109 16.4998 16.4998V10.0831H17.4165C17.5977 10.0831 17.7749 10.0293 17.9256 9.92859C18.0764 9.82786 18.1938 9.68471 18.2632 9.51724C18.3325 9.34976 18.3507 9.16548 18.3153 8.98769C18.28 8.8099 18.1927 8.64659 18.0646 8.51839L9.81456 0.268388C9.64266 0.096539 9.40954 0 9.16647 0C8.92341 0 8.69029 0.096539 8.51839 0.268388L0.268388 8.51839C0.140229 8.64659 0.0529568 8.8099 0.0176032 8.98769C-0.0177504 9.16548 0.000402372 9.34976 0.0697666 9.51724C0.139131 9.68471 0.256592 9.82786 0.407301 9.92859C0.55801 10.0293 0.7352 10.0831 0.916471 10.0831ZM7.33314 16.4998V11.9165H10.9998V16.4998H7.33314ZM9.16647 2.21264L14.6665 7.71264V11.9165L14.6674 16.4998H12.8331V11.9165C12.8331 10.9054 12.0109 10.0831 10.9998 10.0831H7.33314C6.32206 10.0831 5.49981 10.9054 5.49981 11.9165V16.4998H3.66647V7.71264L9.16647 2.21264Z" fill="white"/>
</svg>