<svg width="45" height="45" viewBox="0 0 45 45" fill="none" xmlns="http://www.w3.org/2000/svg">
<rect width="45" height="45" rx="10" fill="#1D2932"/>
<path fill-rule="evenodd" clip-rule="evenodd" d="M9 16.0556C9 13.9191 9.84871 11.8701 11.3594 10.3594C12.8701 8.84871 14.9191 8 17.0556 8H29.9444C32.0809 8 34.1299 8.84871 35.6406 10.3594C37.1513 11.8701 38 13.9191 38 16.0556V28.9444C38 31.0809 37.1513 33.1299 35.6406 34.6406C34.1299 36.1513 32.0809 37 29.9444 37H17.0556C14.9191 37 12.8701 36.1513 11.3594 34.6406C9.84871 33.1299 9 31.0809 9 28.9444V16.0556ZM17.0556 11.2222C15.7737 11.2222 14.5443 11.7314 13.6379 12.6379C12.7314 13.5443 12.2222 14.7737 12.2222 16.0556V28.9444C12.2222 30.2263 12.7314 31.4557 13.6379 32.3621C14.5443 33.2686 15.7737 33.7778 17.0556 33.7778H29.9444C31.2263 33.7778 32.4557 33.2686 33.3621 32.3621C34.2686 31.4557 34.7778 30.2263 34.7778 28.9444V16.0556C34.7778 14.7737 34.2686 13.5443 33.3621 12.6379C32.4557 11.7314 31.2263 11.2222 29.9444 11.2222H17.0556ZM29.2952 14.7892C29.2952 14.3619 29.4649 13.9521 29.7671 13.65C30.0692 13.3479 30.479 13.1781 30.9063 13.1781H30.9224C31.3497 13.1781 31.7595 13.3479 32.0616 13.65C32.3638 13.9521 32.5335 14.3619 32.5335 14.7892C32.5335 15.2165 32.3638 15.6263 32.0616 15.9285C31.7595 16.2306 31.3497 16.4003 30.9224 16.4003H30.9063C30.479 16.4003 30.0692 16.2306 29.7671 15.9285C29.4649 15.6263 29.2952 15.2165 29.2952 14.7892ZM23.5 17.6667C22.2181 17.6667 20.9887 18.1759 20.0823 19.0823C19.1759 19.9887 18.6667 21.2181 18.6667 22.5C18.6667 23.7819 19.1759 25.0113 20.0823 25.9177C20.9887 26.8241 22.2181 27.3333 23.5 27.3333C24.7819 27.3333 26.0113 26.8241 26.9177 25.9177C27.8241 25.0113 28.3333 23.7819 28.3333 22.5C28.3333 21.2181 27.8241 19.9887 26.9177 19.0823C26.0113 18.1759 24.7819 17.6667 23.5 17.6667ZM15.4444 22.5C15.4444 20.3635 16.2932 18.3146 17.8039 16.8039C19.3146 15.2932 21.3635 14.4444 23.5 14.4444C25.6365 14.4444 27.6854 15.2932 29.1961 16.8039C30.7068 18.3146 31.5556 20.3635 31.5556 22.5C31.5556 24.6365 30.7068 26.6854 29.1961 28.1961C27.6854 29.7068 25.6365 30.5556 23.5 30.5556C21.3635 30.5556 19.3146 29.7068 17.8039 28.1961C16.2932 26.6854 15.4444 24.6365 15.4444 22.5Z" fill="white"/>
</svg>
