<svg width="22" height="22" viewBox="0 0 22 22" fill="none" xmlns="http://www.w3.org/2000/svg">
<path d="M3.78143 3.11662e-05H18.2189C18.716 -0.00199291 19.2085 0.094592 19.6679 0.284195C20.1274 0.473797 20.5446 0.752652 20.8956 1.10461C21.2476 1.45557 21.5264 1.87285 21.716 2.3323C21.9056 2.79175 22.0022 3.28425 22.0002 3.78128C22.0002 5.04995 21.5638 6.34245 20.9662 7.59461C20.3685 8.84586 19.5774 10.1219 18.8102 11.3566L18.8028 11.3685C18.0246 12.6225 17.2729 13.8353 16.7128 15.0077C16.15 16.1838 15.8127 17.2535 15.8127 18.2188C15.8127 18.6345 15.9204 19.0431 16.1254 19.4048C16.3303 19.7665 16.6255 20.069 16.982 20.2827C17.3386 20.4964 17.7445 20.614 18.1601 20.6242C18.5757 20.6343 18.9869 20.5367 19.3535 20.3406C19.7201 20.1446 20.0297 19.857 20.252 19.5057C20.4744 19.1545 20.602 18.7516 20.6223 18.3364C20.6426 17.9212 20.5551 17.5077 20.3681 17.1364C20.1811 16.7651 19.9011 16.4486 19.5554 16.2177C19.4804 16.1675 19.4159 16.103 19.3658 16.0279C19.3157 15.9528 19.2808 15.8686 19.2632 15.78C19.2457 15.6914 19.2457 15.6003 19.2634 15.5117C19.281 15.4232 19.3159 15.339 19.3661 15.2639C19.4163 15.1889 19.4808 15.1244 19.5559 15.0743C19.631 15.0242 19.7153 14.9893 19.8038 14.9717C19.8924 14.9541 19.9836 14.9542 20.0721 14.9718C20.1607 14.9895 20.2449 15.0244 20.3199 15.0746C20.9939 15.5256 21.505 16.1814 21.778 16.945C22.0509 17.7087 22.0711 18.5398 21.8357 19.3159C21.6003 20.0919 21.1216 20.7717 20.4704 21.255C19.8192 21.7383 19.0299 21.9995 18.2189 22H4.12518C3.12233 22 2.16056 21.6017 1.45143 20.8925C0.742312 20.1834 0.343931 19.2216 0.343931 18.2188C0.343931 16.1709 1.4971 13.9508 2.7181 11.8919C3.0371 11.3548 3.3616 10.8268 3.6806 10.3079C4.41393 9.11261 5.11701 7.9677 5.64593 6.88145H3.10768C2.35326 6.88145 1.37885 6.70453 0.754598 5.9327C0.259016 5.32599 -0.00796518 4.56462 0.000181052 3.78128C0.000181052 2.77843 0.398562 1.81666 1.10768 1.10753C1.81681 0.398412 2.77858 3.11662e-05 3.78143 3.11662e-05ZM14.4377 18.2188C14.4377 16.9538 14.874 15.6649 15.4717 14.4146C16.0666 13.1698 16.8549 11.9002 17.6194 10.6691L17.635 10.6434C18.4133 9.39037 19.1649 8.17578 19.725 7.00245C20.2878 5.82453 20.6252 4.7502 20.6252 3.78128C20.6264 3.46495 20.565 3.1515 20.4445 2.85902C20.324 2.56653 20.1468 2.30079 19.9231 2.0771C19.6994 1.85342 19.4337 1.67622 19.1412 1.55573C18.8487 1.43523 18.5353 1.37382 18.2189 1.37503C17.5808 1.37503 16.9687 1.62855 16.5175 2.07981C16.0662 2.53106 15.8127 3.1431 15.8127 3.78128C15.8127 4.5742 16.1986 5.16453 16.8824 5.62286C17.0048 5.70491 17.0976 5.82412 17.1472 5.96291C17.1967 6.10171 17.2003 6.25274 17.1575 6.39374C17.1147 6.53474 17.0277 6.65826 16.9093 6.74606C16.791 6.83387 16.6475 6.88133 16.5002 6.88145H7.16118C6.56535 8.24086 5.67251 9.6947 4.79893 11.1155C4.49276 11.6142 4.18843 12.1083 3.9006 12.5932C2.65851 14.6896 1.71893 16.5999 1.71893 18.2188C1.71893 18.857 1.97245 19.469 2.42371 19.9203C2.87496 20.3715 3.487 20.625 4.12518 20.625H15.3021C14.7416 19.9486 14.4358 19.0972 14.4377 18.2188ZM1.37518 3.78128C1.36601 4.2497 1.5246 4.70528 1.8216 5.06736C2.05443 5.35428 2.49993 5.50645 3.10676 5.50645H14.8951C14.5892 4.98342 14.4311 4.38715 14.4377 3.78128C14.4358 2.90282 14.7416 2.05144 15.3021 1.37503H3.78143C3.14325 1.37503 2.53121 1.62855 2.07996 2.07981C1.6287 2.53106 1.37518 3.1431 1.37518 3.78128Z" fill="white"/>
</svg>