<svg width="21" height="20" viewBox="0 0 21 20" fill="none" xmlns="http://www.w3.org/2000/svg">
<path d="M9.25 16.9846H1M16.5833 16.9846L10.3885 18.5328C10.2534 18.5665 10.1124 18.569 9.9762 18.54C9.84 18.5111 9.71218 18.4515 9.60244 18.3658C9.4927 18.2801 9.40393 18.1705 9.34286 18.0454C9.2818 17.9203 9.25004 17.7829 9.25 17.6436V2.83306C9.25018 2.55455 9.31381 2.27884 9.43606 2.0286C9.5583 1.77837 9.73595 1.55927 9.95552 1.38794C10.1751 1.21662 10.4308 1.09757 10.7033 1.03983C10.9757 0.982093 11.2577 0.987186 11.5279 1.05472L15.1946 1.97139C15.5912 2.07053 15.9433 2.29939 16.1949 2.62161C16.4466 2.94382 16.5833 3.3409 16.5833 3.74972V16.9846ZM16.5833 16.9846H19.3333M9.25 2.31789H6.5C6.01377 2.31789 5.54745 2.51104 5.20364 2.85486C4.85982 3.19868 4.66667 3.66499 4.66667 4.15122V16.9846M12 9.65122H12.0092" stroke="white" stroke-width="1.83333" stroke-linecap="round" stroke-linejoin="round"/>
</svg>