<svg width="22" height="22" viewBox="0 0 22 22" fill="none" xmlns="http://www.w3.org/2000/svg">
<path d="M11 2.75C8.34969 2.75 6.1875 4.91219 6.1875 7.5625C6.1875 9.19806 7.01938 10.6452 8.27131 11.5156C5.44913 12.617 3.4375 15.367 3.4375 18.5625H4.8125C4.8125 15.5389 7.00631 13.0116 9.88281 12.4823L10.3125 13.75H11.6875L12.1172 12.4823C14.9937 13.0116 17.1875 15.5389 17.1875 18.5625H18.5625C18.5625 15.367 16.5509 12.617 13.7287 11.5156C14.9799 10.6452 15.8125 9.19806 15.8125 7.5625C15.8125 4.91219 13.6503 2.75 11 2.75ZM11 4.125C12.9064 4.125 14.4375 5.65606 14.4375 7.5625C14.4375 9.46894 12.9064 11 11 11C9.09356 11 7.5625 9.46894 7.5625 7.5625C7.5625 5.65606 9.09356 4.125 11 4.125ZM10.3125 14.4375L9.625 18.5625H12.375L11.6875 14.4375H10.3125Z" fill="white"/>
</svg>