<svg width="45" height="45" viewBox="0 0 45 45" fill="none" xmlns="http://www.w3.org/2000/svg">
<rect width="45" height="45" rx="10" fill="#1D2932"/>
<path d="M23.657 9.02363C25.289 9 26.9116 9.014 28.5323 9C28.6305 10.786 29.317 12.6052 30.7142 13.8679C32.1086 15.1621 34.0809 15.7545 36 15.9549V20.653C34.2016 20.5979 32.3947 20.2478 30.7628 19.5233C30.052 19.2223 29.3899 18.8347 28.7418 18.4383C28.7334 21.8474 28.7568 25.2522 28.7184 28.6474C28.6212 30.2785 28.046 31.9017 27.0322 33.2458C25.4012 35.4833 22.5703 36.942 19.6627 36.9875C17.8793 37.0829 16.0977 36.6278 14.578 35.7896C12.0594 34.4 10.2872 31.8562 10.0291 29.1261C9.99619 28.5479 9.9912 27.9686 10.0141 27.39C10.2386 25.17 11.4123 23.0462 13.2341 21.6015C15.299 19.9188 18.1916 19.1173 20.9 19.5916C20.9253 21.3198 20.8514 23.0462 20.8514 24.7745C19.6141 24.3999 18.1683 24.505 17.0871 25.2076C16.2963 25.6953 15.6986 26.4125 15.386 27.2491C15.1279 27.8406 15.2018 28.4978 15.2167 29.1261C15.5132 31.0407 17.4809 32.6499 19.5814 32.4758C20.9739 32.4618 22.3085 31.7057 23.0342 30.5988C23.2689 30.2111 23.5317 29.8147 23.5457 29.3588C23.6683 27.2719 23.6196 25.1936 23.6346 23.1066C23.6449 18.4033 23.6196 13.713 23.658 9.0245L23.657 9.02363Z" fill="white"/>
</svg>
