<svg width="22" height="23" viewBox="0 0 22 23" fill="none" xmlns="http://www.w3.org/2000/svg">
<path d="M1 19.0833C1 17.713 1.518 16.3988 2.44006 15.4299C3.36211 14.461 4.61269 13.9166 5.91667 13.9166H15.75C17.054 13.9166 18.3046 14.461 19.2266 15.4299C20.1487 16.3988 20.6667 17.713 20.6667 19.0833C20.6667 19.7684 20.4077 20.4255 19.9466 20.91C19.4856 21.3945 18.8603 21.6666 18.2083 21.6666H3.45833C2.80634 21.6666 2.18106 21.3945 1.72003 20.91C1.259 20.4255 1 19.7684 1 19.0833Z" stroke="white" stroke-width="1.375" stroke-linejoin="round"/>
<path d="M10.834 8.75C12.8705 8.75 14.5215 7.01511 14.5215 4.875C14.5215 2.7349 12.8705 1 10.834 1C8.79743 1 7.14648 2.7349 7.14648 4.875C7.14648 7.01511 8.79743 8.75 10.834 8.75Z" stroke="white" stroke-width="1.375"/>
</svg>