<svg width="45" height="45" viewBox="0 0 45 45" fill="none" xmlns="http://www.w3.org/2000/svg">
<rect width="45" height="45" rx="10" fill="#1D2932"/>
<path d="M32.5025 14.4921C31.3967 13.381 30.0796 12.5 28.6282 11.9005C27.1767 11.301 25.6198 10.9949 24.0482 11.0001C17.4633 11.0001 12.0965 16.3401 12.0965 22.892C12.0965 24.992 12.6513 27.032 13.6884 28.832L12 35L18.3317 33.344C20.0804 34.292 22.0462 34.796 24.0482 34.796C30.6332 34.796 36 29.456 36 22.904C36 19.724 34.7578 16.736 32.5025 14.4921ZM24.0482 32.78C22.2633 32.78 20.5146 32.3 18.9829 31.4L18.6211 31.184L14.8583 32.168L15.8593 28.52L15.6181 28.148C14.6262 26.5725 14.0996 24.7512 14.0985 22.892C14.0985 17.444 18.5608 13.0041 24.0362 13.0041C26.6894 13.0041 29.1859 14.0361 31.0553 15.9081C31.981 16.8247 32.7147 17.9151 33.2136 19.116C33.7126 20.317 33.9669 21.6045 33.9618 22.904C33.9859 28.352 29.5236 32.78 24.0482 32.78ZM29.4995 25.388C29.198 25.244 27.7266 24.524 27.4613 24.416C27.1839 24.32 26.991 24.272 26.7859 24.56C26.5809 24.86 26.0141 25.532 25.8452 25.724C25.6764 25.928 25.4955 25.952 25.194 25.796C24.8925 25.652 23.9276 25.328 22.794 24.32C21.9015 23.528 21.3106 22.556 21.1296 22.256C20.9608 21.956 21.1055 21.8 21.2623 21.644C21.395 21.512 21.5638 21.296 21.7085 21.128C21.8533 20.96 21.9136 20.828 22.01 20.636C22.1065 20.432 22.0583 20.264 21.9859 20.12C21.9136 19.976 21.3106 18.512 21.0693 17.912C20.8281 17.336 20.5749 17.408 20.394 17.396H19.8151C19.61 17.396 19.2965 17.468 19.0191 17.768C18.7538 18.068 17.9819 18.788 17.9819 20.252C17.9819 21.716 19.0553 23.132 19.2 23.324C19.3447 23.528 21.3106 26.528 24.3015 27.812C25.0131 28.124 25.5678 28.304 26.002 28.436C26.7136 28.664 27.3648 28.628 27.8834 28.556C28.4623 28.472 29.6563 27.836 29.8975 27.14C30.1508 26.444 30.1508 25.856 30.0663 25.724C29.9819 25.592 29.801 25.532 29.4995 25.388Z" fill="white"/>
</svg>
