<svg width="102" height="102" viewBox="0 0 102 102" fill="none" xmlns="http://www.w3.org/2000/svg">
<path d="M92.8899 0.299988H9.29987C4.51156 0.299988 0.629883 4.18166 0.629883 8.96997V92.56C0.629883 97.3483 4.51156 101.23 9.29987 101.23H92.8899C97.6782 101.23 101.56 97.3483 101.56 92.56V8.96997C101.56 4.18166 97.6782 0.299988 92.8899 0.299988Z" fill="#24B999"/>
<path d="M51.0599 77.13C50.2599 77.13 49.2999 77.03 48.1499 76.83C46.2199 76.61 44.4798 76.14 43.0398 75.44C41.3298 74.83 39.6399 74.09 37.9999 73.23C36.4199 72.41 34.8999 71.49 33.4899 70.5C32.8399 70.05 32.1799 69.54 31.4599 68.95C30.2999 68.93 29.5099 68.15 28.8699 67.53C28.6799 67.35 28.4999 67.16 28.3099 67.01C28.1599 66.89 27.9699 66.8 27.7699 66.74C27.4399 66.64 27.0899 66.59 26.6799 66.59C25.9299 66.59 25.2898 66.76 25.2898 66.76C25.1698 66.79 25.0599 66.81 24.9399 66.81C24.4899 66.81 24.0499 66.58 23.8099 66.18C23.4999 65.68 23.5499 65.04 23.9499 64.6C23.9499 64.59 24.0599 64.47 24.2399 64.29C22.6599 63.11 21.5398 61.83 21.4798 61.77C21.1298 61.37 21.0499 60.8 21.2799 60.33C20.2199 59.35 19.5799 58.43 19.5699 58.41C19.2399 57.93 19.2599 57.29 19.6199 56.84C19.8799 56.51 20.2698 56.33 20.6598 56.33C20.8198 56.33 20.9799 56.36 21.1299 56.42C21.3399 56.5 22.0499 56.75 22.9499 56.75C23.2799 56.75 23.5899 56.72 23.8999 56.65C23.8799 56.35 23.8699 56.05 23.8699 55.75C23.8699 55.63 23.8699 55.5 23.8799 55.38C23.9199 52.36 24.8499 48.86 26.6399 45.03C25.6499 43.64 22.9099 39.5 22.5099 35.54C22.1399 31.91 22.7999 29.34 24.5799 27.47C24.9699 27.06 27.0499 25 29.5099 25C30.2899 25 31.0299 25.21 31.6999 25.61C32.2399 25.94 33.2099 26.88 35.2799 28.95C36.2099 29.88 37.1698 30.84 37.9198 31.54C40.7598 30.06 43.6799 28.98 46.4299 28.4C49.2999 26.37 53.2798 25.35 55.1098 24.97C55.1998 19.86 53.7399 16.97 53.2699 16.17C53.2099 16.06 53.1698 16.01 53.1598 15.99C52.8798 15.58 52.8399 15.05 53.0699 14.61C53.2399 14.28 53.5299 14.04 53.8699 13.94C53.9799 13.86 54.1599 13.7 54.2699 13.59C54.5199 13.34 54.8599 13.2 55.2099 13.2C55.2599 13.2 55.3098 13.2 55.3598 13.2C55.7598 13.25 56.1199 13.47 56.3399 13.81C58.3299 16.97 58.5299 23.79 58.5499 25.95C59.2699 26.66 60.6899 28.18 61.8199 30.24C62.6599 30.59 63.4799 30.96 64.2599 31.36C64.9799 30.67 65.8598 29.79 66.7198 28.94C68.7898 26.87 69.7498 25.93 70.2898 25.6C70.9598 25.19 71.6999 24.98 72.4899 24.98C74.9599 24.98 77.0298 27.03 77.4198 27.44C79.1998 29.31 79.8499 31.88 79.4899 35.51C79.0999 39.36 76.4999 43.38 75.4399 44.88C77.2599 48.75 78.2099 52.3 78.2699 55.43C78.2699 55.48 78.2699 55.6 78.2699 55.72C78.2699 55.92 78.2498 56.28 78.2298 56.61C78.5498 56.69 78.8898 56.72 79.2298 56.72C80.1298 56.72 80.8398 56.47 81.0398 56.4C81.1898 56.34 81.3599 56.31 81.5199 56.31C81.9199 56.31 82.3099 56.49 82.5699 56.82C82.9299 57.28 82.9599 57.91 82.6299 58.39C82.6199 58.41 81.9798 59.33 80.9098 60.32C81.1298 60.79 81.0599 61.36 80.7099 61.76C80.6499 61.83 79.5299 63.1 77.9499 64.29C78.1299 64.48 78.2299 64.59 78.2399 64.6C78.6299 65.04 78.6899 65.69 78.3699 66.18C78.1199 66.58 77.6899 66.81 77.2399 66.81C77.1199 66.81 76.9999 66.79 76.8899 66.76C76.8899 66.76 76.2499 66.59 75.4899 66.59C75.1399 66.59 74.8199 66.63 74.5499 66.7C74.2699 66.77 74.0399 66.87 73.8699 67.01C73.6699 67.17 73.4899 67.35 73.2999 67.53C72.7299 68.09 72.0399 68.76 71.0899 68.92C70.6199 69.32 70.1399 69.71 69.6399 70.08C69.5399 70.26 69.3998 70.42 69.2298 70.55C67.8298 71.54 66.3098 72.45 64.7198 73.28C64.5898 73.35 64.4499 73.39 64.3099 73.42C62.5599 74.32 60.8199 75.07 59.1299 75.63C58.9799 75.68 58.4599 75.83 58.4599 75.83C57.3299 76.28 55.9099 76.63 54.3399 76.82C53.2499 77 52.2699 77.1 51.3999 77.12H51.0799L51.0599 77.13Z" fill="#2F150C"/>
<path d="M74.2198 63.65C70.7698 68.52 64.5599 72.4 58.7099 74.37C56.0999 75.25 53.5699 75.75 51.3699 75.79C51.2699 75.79 51.1699 75.79 51.0699 75.79C48.9999 75.79 46.3198 75.22 43.4698 74.19C41.8798 73.61 40.2399 72.89 38.6199 72.05C37.1299 71.27 35.6499 70.39 34.2599 69.41C31.8899 67.75 29.7499 65.82 28.1499 63.7C28.4999 63.81 28.8399 63.98 29.1399 64.22C30.3999 65.25 31.4299 67.47 33.4899 64.36C33.6299 64.46 33.7599 64.55 33.8999 64.64C34.6999 65.16 35.4699 65.5 36.1599 65.63C37.0999 65.79 38.5199 65.27 40.0699 64.34C39.8999 65.08 39.8099 65.83 39.8099 66.57C39.8099 66.6 39.8099 66.63 39.8099 66.66C39.8399 69.78 41.5099 71.85 44.1099 73.05C46.0599 73.95 48.5199 74.36 51.1999 74.36C53.5999 74.36 55.8299 74.03 57.6599 73.32C60.6499 72.16 62.5999 70 62.5999 66.57C62.5999 65.83 62.5099 65.08 62.3399 64.34C63.9199 65.31 65.3799 65.86 66.3299 65.69C67.0799 65.55 67.9299 65.16 68.7999 64.55C70.7899 67.39 71.7999 65.24 73.0399 64.23C73.3899 63.94 73.7999 63.76 74.2099 63.65H74.2198Z" fill="#D6D5BB" stroke="#582E10" stroke-width="0.23" stroke-miterlimit="10"/>
<path d="M76.95 55.73C76.95 56.08 76.8799 57.02 76.8699 57.15C76.6899 58.8 76.1399 60.4 75.3199 61.92C74.9899 62.51 74.6299 63.1 74.2199 63.66C73.7999 63.77 73.3999 63.95 73.0499 64.24C71.8199 65.25 70.7999 67.4 68.8099 64.56C67.9399 65.17 67.08 65.56 66.33 65.7C65.37 65.87 63.92 65.32 62.34 64.35C62.51 65.09 62.5999 65.84 62.5999 66.58C62.5999 72.11 57.5 74.36 51.2 74.36C44.9 74.36 39.8099 72.11 39.8099 66.58C39.8099 65.84 39.8999 65.09 40.0699 64.35C38.5199 65.29 37.0999 65.81 36.1599 65.64C35.3599 65.5 34.4299 65.06 33.4899 64.38C31.4199 67.5 30.4 65.27 29.14 64.24C28.84 64 28.5 63.83 28.15 63.72C27.71 63.13 27.3 62.53 26.95 61.92C26.08 60.42 25.4899 58.84 25.2899 57.2C25.2299 56.72 25.2 56.23 25.2 55.73C25.2 55.65 25.2 55.57 25.2 55.49C25.26 51.2 27.1299 46.66 29.1899 42.92C26.0399 40.1 39.8099 29.24 50.8799 29.24H51.0499C63.0699 29.24 75.8799 39.76 72.8799 42.8C74.9599 46.55 76.8699 51.13 76.9399 55.46C76.9399 55.55 76.9399 55.64 76.9399 55.73H76.95Z" fill="#B98C4F" stroke="#542910" stroke-width="0.34" stroke-miterlimit="10"/>
<path d="M51.21 72.6C48.3 72.6 45.9099 72.08 44.2999 71.11C42.7799 70.19 42.0699 68.93 42.0699 67.15C42.0699 66.6 42.14 66.04 42.27 65.47C42.48 64.56 42.1499 63.61 41.4199 63.06C41.0199 62.75 40.5499 62.6 40.0699 62.6C39.6799 62.6 39.2799 62.71 38.9299 62.92C37.6099 63.71 36.8 63.92 36.53 63.92C36.31 63.88 35.7099 63.71 34.7899 63.05C34.4099 62.77 33.9599 62.63 33.4999 62.63C33.3599 62.63 33.23 62.64 33.09 62.67C32.5 62.78 31.9699 63.13 31.6299 63.65C31.5699 63.74 31.5199 63.81 31.4699 63.88C31.4499 63.86 31.4299 63.84 31.4099 63.82C31.1599 63.56 30.8699 63.27 30.5399 63C30.2399 62.76 29.9199 62.55 29.5699 62.38C29.3199 62.02 29.09 61.67 28.89 61.32C28.89 61.32 28.89 61.32 28.89 61.31C28.15 60.03 27.69 58.75 27.53 57.49C27.48 57.13 27.46 56.74 27.46 56.33C27.46 56.31 27.46 56.29 27.46 56.26C27.46 56.21 27.46 56.17 27.46 56.12C27.51 52.88 28.75 49.03 31.15 44.67C31.57 43.9 31.53 42.97 31.08 42.26C31.26 41.88 31.72 41.18 32.7 40.21C33.94 38.98 35.68 37.66 37.58 36.5C42.11 33.75 46.9499 32.17 50.8699 32.17H51.0399C55.3399 32.17 60.3699 33.73 64.8199 36.44C68.9699 38.97 70.6699 41.26 70.9999 42.1C70.5299 42.82 70.4799 43.78 70.9099 44.56C73.3499 48.96 74.6199 52.85 74.6699 56.11C74.6699 56.15 74.6699 56.2 74.6699 56.24C74.6699 56.27 74.6699 56.3 74.6699 56.34C74.6699 56.54 74.6199 57.31 74.5999 57.51C74.4599 58.78 74.0299 60.09 73.3199 61.38C73.1399 61.71 72.95 62.02 72.77 62.31C72.35 62.5 71.9599 62.74 71.6099 63.02C71.2899 63.28 71.0099 63.57 70.7599 63.83C70.7399 63.85 70.7199 63.87 70.6899 63.9C70.6699 63.87 70.6399 63.83 70.6199 63.8C70.1799 63.17 69.4899 62.84 68.7899 62.84C68.3499 62.84 67.91 62.97 67.53 63.24C66.71 63.81 66.17 63.97 65.95 64.01C65.65 64.01 64.8199 63.78 63.4799 62.96C63.1199 62.74 62.7199 62.63 62.3199 62.63C61.8499 62.63 61.3799 62.78 60.9799 63.08C60.2499 63.64 59.9099 64.59 60.1199 65.5C60.2499 66.07 60.3199 66.63 60.3199 67.18C60.3199 68.96 59.61 70.22 58.09 71.14C56.48 72.12 54.0899 72.63 51.1799 72.63L51.21 72.6Z" fill="#E2AB69"/>
<path d="M25.9698 52.38C25.9698 52.38 25.8199 52.89 25.7499 53.8C25.6699 54.71 25.7098 56.03 26.0498 57.55C26.3798 59.07 27.0798 60.77 28.1098 62.4C29.1298 64.04 30.5198 65.57 32.0398 66.93C32.8098 67.59 33.5899 68.27 34.4299 68.81C35.2699 69.36 36.1099 69.88 36.9399 70.36C38.5899 71.33 40.1699 72.16 41.5599 72.8C42.9499 73.44 44.1298 73.91 44.9698 74.21C45.8098 74.49 46.2998 74.64 46.2998 74.64C46.2998 74.64 45.8099 74.52 44.9499 74.27C44.0999 74.01 42.8898 73.6 41.4798 72.99C40.0698 72.38 38.4698 71.58 36.7898 70.64C35.9598 70.16 35.1099 69.65 34.2599 69.09C33.3999 68.54 32.6099 67.87 31.8199 67.2C30.2699 65.83 28.8898 64.24 27.8598 62.57C26.8098 60.91 26.1698 59.15 25.8598 57.6C25.5398 56.05 25.5899 54.71 25.6899 53.8C25.7999 52.89 25.9698 52.39 25.9698 52.39V52.38Z" fill="#ECEBD6"/>
<path d="M76.3598 53.23C76.3598 53.23 76.4898 53.73 76.5298 54.63C76.5698 55.53 76.5298 56.84 76.1398 58.35C75.7598 59.85 75.0798 61.55 74.0298 63.17C73.5098 63.98 72.9198 64.78 72.2498 65.54C71.5798 66.29 70.8798 67.04 70.1098 67.7C69.3598 68.38 68.5398 69 67.7498 69.6C66.9498 70.2 66.1398 70.75 65.3198 71.24C63.6898 72.22 62.0898 72.96 60.6698 73.48C59.9598 73.74 59.2998 73.94 58.7098 74.09C58.1198 74.26 57.5898 74.34 57.1698 74.43C56.2998 74.56 55.8098 74.62 55.8098 74.62C55.8098 74.62 56.2998 74.54 57.1598 74.37C57.5798 74.26 58.1098 74.16 58.6798 73.97C59.2598 73.8 59.9098 73.56 60.6098 73.3C61.2998 73.02 62.0498 72.7 62.8098 72.3C63.5798 71.92 64.3598 71.46 65.1698 70.97C65.9698 70.48 66.7698 69.93 67.5598 69.33C68.3498 68.71 69.1398 68.11 69.8798 67.43C71.3798 66.09 72.7398 64.58 73.7698 62.99C74.7998 61.4 75.5398 59.76 75.9398 58.29C76.3398 56.81 76.4698 55.53 76.4598 54.63C76.4598 53.73 76.3498 53.22 76.3498 53.22L76.3598 53.23Z" fill="#ECEBD6"/>
<path d="M33.65 65.88C33.6 65.96 33.5499 66.03 33.4999 66.1C31.4299 69.09 30.41 66.96 29.15 65.97C28.85 65.74 28.5099 65.57 28.1599 65.47C26.6799 65 24.96 65.48 24.96 65.48C24.96 65.48 25.5099 64.86 26.3699 64.09C24.2299 62.86 22.4899 60.88 22.4899 60.88C22.4899 60.88 23.6399 61.2 24.8699 61.06C22.5299 60.22 20.7699 57.79 20.6699 57.64C20.8199 57.69 22.8 58.48 24.84 57.73C24.96 57.68 25.09 57.63 25.21 57.57C25.94 57.17 26.58 56.48 27.21 56.24C27.88 55.99 28.5599 56.24 29.3699 57.89C29.5299 58.2 29.59 58.53 29.59 58.85C30.05 59.05 30.5799 59.55 31.1899 60.49C31.3499 60.74 31.4799 61.02 31.5699 61.32C31.9499 61.3 32.3299 61.32 32.6899 61.42C34.4699 61.89 34.5799 64.47 33.6599 65.87L33.65 65.88Z" fill="#FDFDFE" stroke="#582E10" stroke-width="0.23" stroke-miterlimit="10"/>
<path d="M77.33 61.07C78.56 61.21 79.71 60.89 79.71 60.89C79.71 60.89 77.97 62.87 75.84 64.1C76.69 64.87 77.2399 65.49 77.2399 65.49C77.2399 65.49 75.6499 65.05 74.2199 65.42C73.7999 65.52 73.3999 65.7 73.0499 65.98C71.8199 66.95 70.7999 69.01 68.8099 66.29C68.7299 66.17 68.6299 66.04 68.5399 65.89C67.6199 64.48 67.74 61.91 69.51 61.44C69.87 61.34 70.24 61.32 70.63 61.34C70.73 61.04 70.85 60.76 71.01 60.51C71.63 59.57 72.1499 59.08 72.6199 58.87C72.6199 58.55 72.68 58.22 72.83 57.91C73.76 56 74.5199 55.96 75.3099 56.41C75.8299 56.71 76.36 57.23 76.95 57.56C77.08 57.64 77.2199 57.7 77.3599 57.75C79.4099 58.5 81.3899 57.72 81.5399 57.66C81.4399 57.81 79.67 60.25 77.34 61.08L77.33 61.07Z" fill="#FDFDFE" stroke="#582E10" stroke-width="0.23" stroke-miterlimit="10"/>
<path d="M55.7899 48.18C55.7899 48.18 55.71 48.32 55.59 48.56C55.31 47.45 54.83 46.68 54.83 46.68C54.83 46.68 54.6999 46.89 54.5399 47.24C54.2599 46.31 53.8799 45.69 53.8799 45.69C53.8799 45.69 53.6899 46 53.4699 46.52C53.1999 45.32 52.6799 44.48 52.6799 44.48C52.6799 44.48 52.2899 45.11 52.0099 46.05C51.7999 44.55 51.1099 43.43 51.1099 43.43C51.1099 43.43 51.11 43.45 51.09 43.47C51.08 43.45 51.0699 43.43 51.0699 43.43C51.0699 43.43 50.3799 44.55 50.1699 46.05C49.8899 45.1 49.4999 44.48 49.4999 44.48C49.4999 44.48 48.98 45.32 48.71 46.52C48.5 46.01 48.2999 45.69 48.2999 45.69C48.2999 45.69 47.9199 46.31 47.6299 47.24C47.4699 46.88 47.34 46.68 47.34 46.68C47.34 46.68 46.87 47.44 46.58 48.56C46.46 48.32 46.3799 48.18 46.3799 48.18C46.3799 48.18 45.4199 49.72 45.4199 51.61C45.4199 53.5 45.7 55.26 45.7 55.65C45.7 57.88 48.3299 59.62 48.6799 61.33C49.0799 63.3 47.8699 66.2 48.1599 67.4C48.4599 68.65 50.28 68.17 51.08 68.17C51.87 68.17 53.8 68.62 54.15 67.36C54.46 66.23 53.2199 63.51 53.5999 61.7C54.0099 59.74 56.0699 58.29 56.0699 55.77C56.0699 55.38 56.7499 53.51 56.7499 51.61C56.7499 49.71 55.7899 48.18 55.7899 48.18Z" fill="#FDFDFE"/>
<path d="M76.5997 65.26C76.5997 65.26 74.2497 64.64 72.8897 65.74C71.7597 66.65 70.7797 68.71 68.8197 65.79C68.3597 65.1 68.2497 63.9999 68.4597 63.1599C68.5397 63.3799 68.6397 63.58 68.7597 63.76C70.7197 66.67 71.6297 64.69 72.7597 63.78C74.0397 62.75 76.1897 63.23 76.4397 63.29C76.0897 63.56 75.7198 63.82 75.3398 64.05C76.1098 64.71 76.6097 65.26 76.6097 65.26H76.5997Z" fill="#F3E9EA"/>
<path d="M25.5298 65.24C25.5298 65.24 27.8797 64.62 29.2397 65.72C30.3697 66.63 31.3498 68.69 33.3098 65.77C33.7698 65.08 33.8797 63.99 33.6697 63.14C33.5897 63.36 33.4898 63.56 33.3698 63.74C31.3998 66.65 30.4998 64.67 29.3698 63.76C28.0898 62.73 25.9398 63.21 25.6898 63.27C26.0398 63.54 26.4097 63.8 26.7897 64.03C26.0197 64.69 25.5298 65.24 25.5298 65.24Z" fill="#F3E9EA"/>
<path d="M62.7899 68.21C62.7899 73.52 57.6099 75.68 51.2099 75.68C44.8099 75.68 39.6399 73.52 39.6399 68.21C39.6399 67.5 39.7299 66.78 39.9099 66.07C40.8299 62.3 44.0399 58.65 48.1699 57.4C49.1399 57.11 50.1598 56.94 51.2198 56.94C52.2798 56.94 53.3599 57.11 54.3599 57.43C58.4499 58.71 61.6199 62.33 62.5299 66.07C62.7099 66.78 62.7999 67.5 62.7999 68.21H62.7899Z" fill="#FDFDFE"/>
<path d="M27.2 56.96C27.2 56.96 35.7399 63.15 39.9199 63.15C43.1099 63.15 47.1099 61.53 47.1099 61.53C47.1099 61.53 50.3199 42.95 39.5499 44.4C28.6599 45.87 27.2 56.9699 27.2 56.9699V56.96Z" fill="#FDFDFE"/>
<path d="M48.21 57.4C48.21 57.78 48.15 58.1 48.04 58.33C46.58 61.07 43.09 64.31 40.09 66.06C38.54 66.96 37.12 67.46 36.18 67.3C35.38 67.16 34.45 66.74 33.51 66.09C31.19 64.5 28.72 61.56 27.55 58.3C27.29 57.59 27.2 56.9 27.22 56.23C27.32 52.61 31.05 49.78 33.4 48.41C37.33 46.11 44.45 45.43 46 49.65C46.37 50.64 48.21 55.13 48.21 57.4Z" fill="#3B180E"/>
<path d="M75.2999 56.96C75.2999 56.96 66.7499 63.15 62.5799 63.15C59.3899 63.15 55.3899 61.53 55.3899 61.53C55.3899 61.53 52.1799 42.95 62.9499 44.4C73.8499 45.87 75.2999 56.9699 75.2999 56.9699V56.96Z" fill="#FDFDFE"/>
<path d="M75.2998 56.39C75.2998 57.02 75.1999 57.68 74.9599 58.35C73.7599 61.7 71.1898 64.72 68.8098 66.27C67.9398 66.85 67.0799 67.23 66.3299 67.36C65.3699 67.52 63.9199 67 62.3399 66.06C59.3599 64.3 55.9098 61.1 54.4698 58.37C54.3398 58.14 54.2898 57.81 54.2998 57.42C54.2998 55.14 56.1398 50.69 56.5098 49.69C58.0598 45.47 65.1798 46.16 69.1098 48.46C71.4898 49.85 75.2698 52.72 75.2998 56.38V56.39Z" fill="#3B180E"/>
<path d="M35.68 40.12C35.99 39.84 36.37 39.53 36.85 39.31C37.32 39.07 37.88 38.91 38.46 38.85C38.75 38.85 39.0501 38.82 39.3401 38.88C39.4801 38.9 39.63 38.92 39.77 38.95C39.91 39 40.04 39.04 40.17 39.09C40.43 39.17 40.66 39.32 40.87 39.46C40.97 39.53 41.08 39.59 41.17 39.67C41.25 39.75 41.33 39.83 41.41 39.91C41.56 40.07 41.7 40.2 41.79 40.35C41.88 40.5 41.96 40.63 42.01 40.74C42.12 40.96 42.04 41.04 41.82 40.94C41.71 40.89 41.59 40.84 41.45 40.76C41.32 40.69 41.14 40.65 40.98 40.58C40.81 40.51 40.63 40.45 40.44 40.41C40.25 40.36 40.06 40.3 39.85 40.28C39.75 40.27 39.65 40.25 39.54 40.23C39.44 40.23 39.33 40.23 39.22 40.23C39.01 40.21 38.79 40.23 38.57 40.24C38.35 40.25 38.13 40.3 37.91 40.32C37.69 40.37 37.47 40.4 37.26 40.46C36.83 40.56 36.43 40.7 36.07 40.8C35.36 41.04 35.06 40.68 35.68 40.11V40.12Z" fill="#64260E"/>
<path d="M36.93 39.57C37.36 39.35 37.84 39.21 38.34 39.16C38.39 39.16 38.44 39.16 38.49 39.16C38.57 39.16 38.65 39.16 38.73 39.16C38.87 39.16 38.97 39.16 39.06 39.19C39.07 39.19 39.0899 39.19 39.0999 39.19C39.2199 39.21 39.34 39.23 39.46 39.25C39.57 39.29 39.6799 39.33 39.7899 39.37C39.7999 39.37 39.82 39.38 39.83 39.39C39.91 39.42 39.8499 39.45 39.7199 39.44C39.6399 39.44 39.56 39.41 39.48 39.4C39.45 39.4 39.4 39.39 39.36 39.39C39.27 39.39 39.18 39.39 39.09 39.39C39.02 39.39 38.94 39.38 38.86 39.38C38.76 39.38 38.65 39.38 38.55 39.39C38.49 39.39 38.43 39.39 38.38 39.39C38.2 39.39 38.05 39.42 37.9 39.44C37.83 39.45 37.75 39.46 37.68 39.47C37.66 39.47 37.63 39.47 37.61 39.48C37.53 39.5 37.45 39.52 37.36 39.53C37.23 39.56 37.09 39.58 36.95 39.62C36.85 39.64 36.8299 39.6 36.9099 39.56L36.93 39.57Z" fill="#E7BFAF"/>
<path d="M66.7399 40.12C66.4299 39.84 66.0499 39.53 65.5699 39.31C65.0999 39.07 64.5399 38.91 63.9599 38.85C63.6699 38.85 63.3699 38.82 63.0799 38.88C62.9399 38.9 62.7899 38.92 62.6499 38.95C62.5099 39 62.3799 39.04 62.2499 39.09C61.9899 39.17 61.7599 39.32 61.5499 39.46C61.4499 39.53 61.3399 39.59 61.2499 39.67C61.1699 39.75 61.0899 39.83 61.0099 39.91C60.8599 40.07 60.7199 40.2 60.6299 40.35C60.5399 40.5 60.4699 40.63 60.4099 40.74C60.2999 40.96 60.3799 41.04 60.5999 40.94C60.7099 40.89 60.8299 40.84 60.9699 40.76C61.0999 40.69 61.2799 40.65 61.4399 40.58C61.6099 40.51 61.7899 40.45 61.9799 40.41C62.1699 40.36 62.3599 40.3 62.5699 40.28C62.6699 40.27 62.7699 40.25 62.8799 40.23C62.9799 40.23 63.0899 40.23 63.1999 40.23C63.4099 40.21 63.6299 40.23 63.8499 40.24C64.0699 40.25 64.2899 40.3 64.5099 40.32C64.7299 40.37 64.9499 40.4 65.1599 40.46C65.5899 40.56 65.9899 40.7 66.3499 40.8C67.0599 41.04 67.3599 40.68 66.7399 40.11V40.12Z" fill="#64260E"/>
<path d="M65.49 39.57C65.06 39.35 64.5801 39.21 64.0801 39.16C64.0301 39.16 63.98 39.16 63.93 39.16C63.85 39.16 63.7701 39.16 63.6901 39.16C63.5501 39.16 63.45 39.16 63.36 39.19C63.35 39.19 63.3301 39.19 63.3201 39.19C63.2001 39.21 63.0801 39.23 62.9601 39.25C62.8501 39.29 62.7401 39.33 62.6301 39.37C62.6201 39.37 62.6001 39.38 62.5901 39.39C62.5101 39.42 62.5701 39.45 62.7001 39.44C62.7801 39.44 62.8601 39.41 62.9401 39.4C62.9701 39.4 63.0201 39.39 63.0601 39.39C63.1501 39.39 63.2401 39.39 63.3301 39.39C63.4001 39.39 63.4801 39.38 63.5601 39.38C63.6601 39.38 63.7701 39.38 63.8701 39.39C63.9301 39.39 63.99 39.39 64.04 39.39C64.21 39.39 64.3701 39.42 64.5201 39.44C64.5901 39.45 64.67 39.46 64.74 39.47C64.76 39.47 64.7901 39.47 64.8101 39.48C64.8901 39.5 64.97 39.52 65.05 39.53C65.18 39.56 65.3201 39.58 65.4601 39.62C65.5601 39.64 65.5801 39.6 65.5001 39.56L65.49 39.57Z" fill="#E7BFAF"/>
<path d="M65.5399 34.38C65.5399 34.38 68.9199 32.14 69.3999 30.53C69.8799 28.92 70.3599 27.14 71.8599 27.04C73.3599 26.94 75.0999 27.56 75.6999 28.45C76.2999 29.34 78.5799 30.67 76.7199 35.63C74.8599 40.59 72.3999 42 72.3999 42H69.9399C69.9399 42 64.0399 37.15 65.5399 34.39V34.38Z" fill="#EFB4BB"/>
<path d="M65.6099 36.93C65.6099 36.93 71.0299 28.19 71.6699 27.86C72.3099 27.53 73.9999 28.04 74.7499 28.6C75.5099 29.16 77.0499 30.67 76.4899 33.98C75.9199 37.29 74 40.28 72.71 41.13C71.43 41.98 69.8799 41.95 69.8799 41.95C69.8799 41.95 72.03 44.74 73.96 44.67C73.96 44.67 77.7299 39.81 78.1699 35.39C78.5399 31.76 77.75 29.72 76.46 28.37C76.15 28.04 73.3799 25.28 70.9899 26.74C69.9499 27.37 64.1399 33.69 63.4999 33.69C63.4999 33.69 63.1599 35.99 65.6099 36.94V36.93Z" fill="#3B180E"/>
<path d="M36.3099 34.96C36.3099 34.96 33.0899 32.48 32.6099 30.87C32.1299 29.25 31.65 27.48 30.15 27.38C28.65 27.28 26.9099 27.9 26.3099 28.79C25.7099 29.68 23.4299 31.01 25.2899 35.97C27.1499 40.93 29.6099 42.34 29.6099 42.34L32.1299 41.96C32.1299 41.96 37.8199 37.74 36.3199 34.97L36.3099 34.96Z" fill="#EFB4BB"/>
<path d="M36.3899 36.93C36.3899 36.93 30.9699 28.19 30.3299 27.86C29.6899 27.53 27.9999 28.04 27.2499 28.6C26.4899 29.16 24.9499 30.67 25.5099 33.98C26.0799 37.29 27.9998 40.28 29.2898 41.13C30.5698 41.98 32.1198 41.95 32.1198 41.95C32.1198 41.95 29.9698 44.74 28.0398 44.67C28.0398 44.67 24.2699 39.81 23.8299 35.39C23.4699 31.76 24.2498 29.72 25.5398 28.37C25.8498 28.04 28.6199 25.28 31.0099 26.74C32.0499 27.37 37.8599 33.69 38.4999 33.69C38.4999 33.69 38.8399 35.99 36.3899 36.94V36.93Z" fill="#3B180E"/>
<path d="M42.3298 63.65C41.1798 64.47 40.3798 65.52 39.8198 66.65C38.9298 68.45 38.6598 70.45 38.6298 72.06C37.1398 71.28 35.6598 70.4 34.2698 69.42C33.5098 66.92 33.7298 64.7 33.7298 64.7C33.7298 64.7 33.7898 64.68 33.9098 64.65C35.4198 64.2 45.8998 61.09 42.3298 63.66V63.65Z" fill="#3B180E"/>
<path d="M60.4098 63.7C61.5598 64.52 62.3598 65.57 62.9198 66.7C63.8098 68.5 64.0798 70.5 64.1098 72.11C65.5998 71.33 67.0798 70.45 68.4698 69.47C69.2298 66.97 69.0098 64.75 69.0098 64.75C69.0098 64.75 68.9498 64.73 68.8298 64.7C67.3198 64.25 56.8398 61.14 60.4098 63.71V63.7Z" fill="#3B180E"/>
<path opacity="0.25" d="M57.5099 45.94C46.1999 55.27 39.2299 51.29 41.4199 51.08C41.7399 51.05 42.0499 50.86 42.3599 50.54C44.1699 48.64 45.6299 42.1 44.5399 36.35C43.2599 29.62 56.1799 26.94 56.1799 26.94C56.1799 26.66 56.1799 26.38 56.1799 26.11C56.3399 26.08 56.4199 26.07 56.4199 26.07C56.7599 19.97 55.0099 16.46 54.4299 15.49L54.4399 15.48C56.6999 18.71 57.0099 27.36 57.0099 27.36C57.0099 27.36 60.7099 30.25 61.9799 34.44C62.9899 37.74 62.4899 41.84 57.5099 45.95V45.94Z" fill="#2F2311"/>
<path d="M56.8399 45.12C50.1599 50.1 45.0799 50.85 42.3599 50.55C40.2899 50.32 39.5699 49.49 40.5199 49.45C42.7199 49.35 45.2899 41.68 44.3399 34.89C43.4599 28.65 54.3899 26.43 56.1699 26.11C56.3299 26.08 56.4099 26.07 56.4099 26.07C56.7499 19.97 54.9999 16.46 54.4199 15.49C54.3199 15.3 54.2499 15.21 54.2499 15.21C54.5299 15.21 55.2199 14.52 55.2199 14.52C57.3199 17.86 57.2199 26.53 57.2199 26.53C57.2199 26.53 61.0999 29.9 61.9799 34.44C62.6099 37.66 61.7199 41.48 56.8399 45.12Z" fill="#44AD6F" stroke="#124932" stroke-width="0.46" stroke-miterlimit="10"/>
<path d="M46.6799 46.53C47.8599 42.95 48.33 38.36 47.77 34.38C47.52 32.63 51.9299 30.69 55.5999 29.86C56.8499 31.19 58.7899 33.83 58.6899 36.43C58.6099 38.41 57.3099 40.36 54.8099 42.22C51.4699 44.71 48.7399 45.94 46.6799 46.52V46.53Z" fill="#3B9B63"/>
<path d="M55.6901 28.49C55.6901 28.49 55.66 28.9 55.55 29.6C55.5 29.95 55.4101 30.37 55.3201 30.86C55.2101 31.34 55.1101 31.89 54.9301 32.47C54.7701 33.06 54.58 33.69 54.36 34.35C54.16 35.02 53.88 35.7 53.6 36.41C53.29 37.11 52.9901 37.83 52.6201 38.54C52.2401 39.24 51.8901 39.97 51.4401 40.65L50.79 41.68C50.57 42.01 50.3201 42.33 50.0901 42.65C49.8501 42.97 49.6301 43.29 49.3801 43.59C49.1201 43.88 48.8701 44.17 48.6201 44.46C48.3701 44.74 48.1401 45.03 47.8801 45.29C47.6201 45.54 47.36 45.78 47.1 46.02C46.85 46.26 46.6001 46.48 46.3701 46.71C46.1301 46.92 45.8701 47.11 45.6401 47.29C45.1701 47.66 44.7301 48 44.3301 48.27C43.9101 48.52 43.5501 48.74 43.2501 48.91C42.6501 49.26 42.3101 49.46 42.3101 49.46C42.3101 49.46 42.6301 49.22 43.1801 48.8C43.4601 48.59 43.7901 48.34 44.1801 48.06C44.5401 47.74 44.9501 47.38 45.3901 46.99C45.6101 46.79 45.8501 46.6 46.0801 46.38C46.3001 46.15 46.5301 45.91 46.7601 45.66C46.9901 45.41 47.23 45.16 47.48 44.9C47.72 44.63 47.9401 44.35 48.1801 44.06C48.4101 43.77 48.6501 43.48 48.9001 43.19C49.1301 42.89 49.3401 42.56 49.5701 42.25C49.7901 41.93 50.0301 41.62 50.2501 41.29L50.8701 40.28C51.3101 39.62 51.66 38.91 52.04 38.23C52.4 37.54 52.73 36.84 53.05 36.17C53.33 35.48 53.6601 34.83 53.8901 34.19C54.1501 33.55 54.3701 32.94 54.5601 32.37C54.7601 31.8 54.9101 31.27 55.0701 30.81C55.2001 30.34 55.33 29.93 55.42 29.59C55.61 28.91 55.6901 28.51 55.6901 28.51V28.49Z" fill="#124932"/>
<path d="M55.1199 31.43C55.1199 31.43 54.6299 31.72 53.8699 32.09C53.4899 32.28 53.0499 32.49 52.5699 32.7C52.0899 32.93 51.5599 33.11 51.0399 33.32C50.7799 33.43 50.5099 33.49 50.2499 33.58C49.9899 33.66 49.7299 33.74 49.4799 33.82C48.9699 33.93 48.49 34.03 48.08 34.12C47.25 34.18 46.6899 34.22 46.6899 34.22C46.6899 34.22 47.2399 34.16 48.0699 34.07C48.4699 33.97 48.95 33.85 49.45 33.72C49.7 33.63 49.95 33.54 50.21 33.45C50.47 33.35 50.7299 33.27 50.9899 33.16C51.4999 32.93 52.0199 32.73 52.4799 32.48C52.9499 32.25 53.3899 32.03 53.7499 31.82C54.4899 31.42 54.96 31.12 54.96 31.12L55.1299 31.43H55.1199Z" fill="#124932"/>
<path d="M53.56 36.39C53.56 36.39 53.47 36.47 53.29 36.59C53.12 36.72 52.87 36.88 52.56 37.07C52.41 37.17 52.24 37.26 52.06 37.36C51.88 37.45 51.69 37.57 51.49 37.66C51.08 37.83 50.66 38.07 50.2 38.2C49.98 38.28 49.75 38.35 49.53 38.43C49.31 38.52 49.08 38.55 48.87 38.6C48.65 38.65 48.45 38.7 48.25 38.75C48.05 38.8 47.86 38.83 47.69 38.84C46.99 38.92 46.52 38.97 46.52 38.97C46.52 38.97 46.98 38.9 47.68 38.79C47.85 38.77 48.04 38.74 48.24 38.67C48.43 38.61 48.64 38.56 48.85 38.5C49.06 38.43 49.28 38.39 49.5 38.3C49.71 38.21 49.93 38.13 50.15 38.04C50.59 37.89 51 37.63 51.39 37.45C51.58 37.35 51.76 37.23 51.94 37.13C52.11 37.02 52.28 36.93 52.42 36.83C53.01 36.44 53.35 36.13 53.35 36.13L53.57 36.41L53.56 36.39Z" fill="#124932"/>
<path d="M51.0801 40.93C51.0801 40.93 49.7301 41.95 48.2401 42.68C47.8701 42.87 47.4801 43.03 47.1201 43.17C46.7501 43.31 46.41 43.41 46.1 43.47C45.79 43.53 45.54 43.57 45.36 43.57C45.18 43.57 45.0801 43.58 45.0801 43.58C45.0801 43.58 45.18 43.58 45.36 43.55C45.54 43.55 45.7901 43.48 46.0901 43.41C46.3901 43.33 46.7301 43.21 47.0801 43.06C47.4301 42.9 47.8 42.72 48.16 42.52C49.6 41.72 50.8701 40.65 50.8701 40.65L51.0801 40.93Z" fill="#124932"/>
<path d="M55.1999 31.22C55.1999 31.22 55.3599 31.77 55.6699 32.56C55.8099 32.96 55.9999 33.42 56.2099 33.91C56.3999 34.41 56.6699 34.91 56.9099 35.43C57.0299 35.69 57.1799 35.93 57.3099 36.18C57.4499 36.42 57.5799 36.67 57.7099 36.9C58.0099 37.34 58.2899 37.75 58.5299 38.1C59.0999 38.73 59.4799 39.15 59.4799 39.15C59.4799 39.15 59.0899 38.74 58.4899 38.13C58.2399 37.79 57.9399 37.39 57.6199 36.96C57.4799 36.73 57.3399 36.5 57.1899 36.26C57.0499 36.02 56.8899 35.78 56.7599 35.52C56.4999 35.01 56.2099 34.51 55.9999 34.02C55.7699 33.53 55.5599 33.08 55.3999 32.68C55.0599 31.89 54.8799 31.34 54.8799 31.34L55.2099 31.22H55.1999Z" fill="#124932"/>
<path d="M53.4999 36.6C53.4999 36.6 53.5599 37.07 53.7599 37.76C53.7999 37.93 53.8699 38.12 53.9299 38.31C53.9999 38.5 54.0499 38.71 54.1399 38.92C54.3199 39.33 54.4699 39.79 54.6999 40.21C54.8099 40.42 54.9199 40.64 55.0299 40.85C55.1299 41.06 55.2699 41.25 55.3899 41.44C55.5099 41.63 55.6299 41.81 55.7399 41.98C55.8499 42.16 55.9699 42.31 56.0799 42.44C56.5399 42.99 56.8399 43.36 56.8399 43.36C56.8399 43.36 56.5199 43.01 56.0399 42.47C55.9199 42.34 55.7899 42.2 55.6699 42.02C55.5499 41.85 55.4199 41.68 55.2899 41.49C55.1599 41.3 55.0099 41.13 54.8999 40.91C54.7799 40.7 54.6599 40.49 54.5399 40.28C54.2799 39.87 54.1099 39.41 53.9099 39C53.8199 38.79 53.7499 38.58 53.6699 38.39C53.5999 38.19 53.5198 38.01 53.4698 37.83C53.3598 37.48 53.2698 37.19 53.2198 36.97C53.1598 36.76 53.1499 36.64 53.1499 36.64L53.4899 36.58L53.4999 36.6Z" fill="#124932"/>
<path d="M50.9399 41.24C50.9399 41.24 50.9899 41.56 51.0999 42.02C51.1499 42.25 51.2199 42.53 51.2999 42.81C51.3699 43.1 51.4799 43.4 51.5799 43.71C51.6799 44.01 51.8199 44.3 51.9299 44.58C52.0599 44.85 52.2099 45.08 52.3199 45.29C52.3799 45.39 52.4599 45.47 52.5199 45.55C52.5799 45.62 52.6399 45.69 52.6799 45.74C52.7699 45.85 52.8199 45.91 52.8199 45.91C52.8199 45.91 52.7699 45.85 52.6699 45.75C52.6199 45.7 52.5599 45.64 52.4999 45.57C52.4399 45.5 52.3499 45.42 52.2799 45.33C52.1499 45.13 51.9899 44.9 51.8399 44.63C51.7099 44.36 51.5499 44.07 51.4299 43.78C51.3099 43.48 51.1799 43.18 51.0899 42.89C50.9899 42.6 50.8999 42.33 50.8299 42.1C50.6899 41.63 50.6199 41.31 50.6199 41.31L50.9599 41.24H50.9399Z" fill="#124932"/>
<path d="M51.3497 67.11L51.1797 69.6L51.0098 67.11H51.3497Z" fill="#64260E"/>
<path d="M56.84 68.55C56.84 68.55 56.7999 68.66 56.7599 68.74C56.7199 68.82 56.66 68.91 56.59 69.01C56.55 69.06 56.51 69.1 56.46 69.16C56.41 69.21 56.3599 69.26 56.2999 69.3C56.1799 69.39 56.05 69.49 55.9 69.56C55.75 69.64 55.5899 69.71 55.4199 69.77C55.2499 69.83 55.0599 69.88 54.8699 69.92C54.6799 69.96 54.4899 69.99 54.2899 70.01C53.5099 70.09 52.7199 70.02 52.1599 69.89C52.0199 69.86 51.8899 69.82 51.7899 69.78C51.6799 69.74 51.6 69.7 51.53 69.67C51.49 69.65 51.47 69.64 51.45 69.63C51.43 69.62 51.41 69.61 51.39 69.59C51.35 69.56 51.2599 69.41 51.2599 69.41L51.1599 69.24C51.1599 69.24 50.9699 69.56 50.9299 69.59C50.9099 69.61 50.8899 69.62 50.8699 69.63C50.8499 69.64 50.8299 69.66 50.7899 69.67C50.7199 69.7 50.64 69.74 50.53 69.78C50.42 69.82 50.2999 69.85 50.1599 69.89C49.5999 70.02 48.81 70.09 48.03 70.01C47.84 69.99 47.64 69.96 47.45 69.92C47.26 69.88 47.08 69.83 46.9 69.77C46.73 69.71 46.5599 69.64 46.4099 69.56C46.2599 69.48 46.1299 69.39 46.0099 69.3C45.9499 69.25 45.8999 69.2 45.8499 69.16C45.8099 69.11 45.7599 69.06 45.7199 69.01C45.6499 68.91 45.5899 68.82 45.5499 68.74C45.4999 68.66 45.4799 68.6 45.4699 68.55C45.4499 68.51 45.4399 68.48 45.4399 68.48C45.4399 68.48 45.44 68.5 45.46 68.55C45.48 68.6 45.49 68.67 45.53 68.75C45.56 68.83 45.6199 68.93 45.6799 69.04C45.7199 69.09 45.7599 69.14 45.7999 69.2C45.8499 69.25 45.9 69.31 45.95 69.36C46.06 69.47 46.19 69.57 46.34 69.67C46.49 69.77 46.65 69.85 46.83 69.93C47.01 70 47.1899 70.08 47.3799 70.13C47.5699 70.19 47.7699 70.23 47.9699 70.27C48.7699 70.42 49.59 70.42 50.21 70.33C50.36 70.31 50.5099 70.28 50.6299 70.25C50.7599 70.22 50.87 70.18 50.96 70.14C51.01 70.12 51.0799 70.09 51.1199 70.06C51.1699 70.09 51.23 70.12 51.28 70.14C51.37 70.18 51.4799 70.22 51.6099 70.25C51.7399 70.28 51.88 70.31 52.03 70.33C52.65 70.42 53.47 70.42 54.27 70.27C54.47 70.23 54.6699 70.19 54.8599 70.13C55.0499 70.08 55.2399 70 55.4099 69.93C55.5799 69.85 55.75 69.77 55.9 69.67C56.05 69.58 56.1799 69.47 56.2899 69.36C56.3499 69.31 56.3899 69.25 56.4399 69.2C56.4799 69.14 56.5199 69.09 56.5599 69.04C56.6299 68.93 56.68 68.84 56.71 68.75C56.75 68.67 56.76 68.6 56.78 68.55C56.79 68.5 56.7999 68.48 56.7999 68.48C56.7999 68.48 56.8 68.5 56.77 68.55H56.84Z" fill="#64260E"/>
<path d="M54.0399 65.83C54.0399 67.06 52.7699 68.06 51.2099 68.06C49.6499 68.06 48.3799 67.06 48.3799 65.83C48.3799 64.6 49.6499 63.6 51.2099 63.6C52.7699 63.6 54.0399 64.6 54.0399 65.83Z" fill="#0D0D0D"/>
<path d="M51.2198 62.53C51.2198 62.53 51.1898 62.53 51.1698 62.53C51.1598 62.53 51.1398 62.53 51.1198 62.53C49.9498 62.53 47.1298 63.34 47.7998 65.25C49.1898 69.23 49.1198 66.11 50.5998 66.51C50.9998 66.61 50.6998 68.06 51.1198 68.06H51.2099C51.6399 68.06 51.3298 66.62 51.7298 66.51C53.1998 66.11 53.1299 69.23 54.5299 65.25C55.1999 63.34 52.3799 62.53 51.2099 62.53H51.2198Z" fill="#3B180E"/>
<path d="M52.9399 63.6C52.9399 63.97 52.1399 64.28 51.1599 64.28C50.1799 64.28 49.3699 63.98 49.3699 63.6C49.3699 63.22 50.1699 62.92 51.1599 62.92C52.1499 62.92 52.9399 63.22 52.9399 63.6Z" fill="#FDFDFE"/>
<path d="M45.1597 60.92C37.8997 64.38 32.7997 62.14 30.4897 53.18C30.4897 53.18 39.2197 46.4 43.8497 55.1C44.5697 56.45 45.1498 60.93 45.1498 60.93" fill="white"/>
<path d="M38.15 61.48C36.13 61.44 34.4399 59.84 33.7999 57.62C33.5999 56.94 33.5 56.2 33.51 55.44C33.58 52.35 35.4999 51.25 37.9099 51.18C38.0599 51.18 38.2099 51.18 38.3599 51.18C40.9899 51.24 42.99 53.97 43.03 55.65C43.12 58.93 40.77 61.54 38.14 61.49" fill="#8D5D25"/>
<path d="M38.1698 60.65C36.6398 60.62 35.2999 59.31 34.7599 57.32C34.5799 56.68 34.4999 56.02 34.5099 55.33C34.5599 53.03 35.6499 51.92 37.9399 51.85C38.0599 51.85 38.1698 51.85 38.2898 51.85H38.3598C40.4298 51.9 42.0098 54.31 42.0398 55.55C42.0798 57.05 41.5798 58.48 40.6598 59.47C39.9598 60.23 39.0998 60.65 38.2298 60.65H38.1698Z" fill="#5D4018"/>
<path d="M38.4699 54.21C38.4299 56.2 37.0999 57.78 35.5099 57.75C34.7899 57.73 34.1399 57.39 33.6399 56.84C33.4699 56.25 33.3799 55.6 33.3899 54.93C33.4499 52.23 35.1299 51.26 37.2499 51.2C38.0099 51.86 38.4999 52.97 38.4699 54.21Z" fill="white"/>
<path d="M40.9697 59.96C40.9597 60.63 40.5097 61.17 39.9697 61.16C39.4297 61.15 38.9997 60.6 39.0197 59.92C39.0297 59.25 39.4797 58.71 40.0297 58.72C40.5697 58.73 40.9997 59.29 40.9797 59.96H40.9697Z" fill="white"/>
<path d="M43.8497 61.48C44.2797 61.31 44.7097 61.12 45.1597 60.91C45.1597 60.91 44.5797 56.43 43.8597 55.08C42.0497 51.68 39.6098 50.65 37.3198 50.65C39.6198 50.65 42.0497 51.68 43.8597 55.08C44.5797 56.43 45.1597 60.92 45.1597 60.92C44.7197 61.13 44.2797 61.32 43.8497 61.49M30.9097 54.62C30.7597 54.16 30.6198 53.67 30.4998 53.17C30.6298 53.68 30.7697 54.16 30.9097 54.62Z" fill="#1E1E1E"/>
<path d="M43.8497 61.48C43.6197 60.2 43.2898 58.77 42.9398 58.1C42.8798 57.98 42.8097 57.86 42.7397 57.74C42.9397 57.09 43.0498 56.38 43.0298 55.64C42.9798 53.96 40.9897 51.23 38.3597 51.17H38.2897C38.1697 51.17 38.0397 51.17 37.9097 51.17C37.6897 51.17 37.4798 51.19 37.2798 51.21C37.2698 51.21 37.2497 51.19 37.2397 51.18C35.3297 51.24 33.7798 52.03 33.4498 54.16C32.5498 54.46 31.7497 54.84 31.1097 55.19C31.0397 55 30.9797 54.8 30.9097 54.6C30.7597 54.14 30.6298 53.65 30.4998 53.15C30.4998 53.15 30.5597 53.1 30.6797 53.02C31.3697 52.53 33.8698 50.89 36.6898 50.66C36.8998 50.64 37.1098 50.64 37.3198 50.64C39.6098 50.64 42.0497 51.67 43.8597 55.07C44.5797 56.42 45.1597 60.9 45.1597 60.9C44.7197 61.11 44.2797 61.3 43.8497 61.47" fill="#E2E1E1"/>
<path d="M42.7498 57.75C42.4998 57.32 42.2497 56.93 41.9797 56.58C42.0297 56.24 42.0497 55.9 42.0397 55.55C42.0097 54.31 40.4297 51.89 38.3597 51.85H38.2897C38.1797 51.85 38.0598 51.85 37.9398 51.85C37.8998 51.85 37.8598 51.85 37.8198 51.85C37.6598 51.61 37.4798 51.4 37.2798 51.22C37.4798 51.2 37.6897 51.18 37.9097 51.18C38.0397 51.18 38.1597 51.18 38.2897 51.18H38.3597C40.9897 51.24 42.9898 53.97 43.0298 55.65C43.0498 56.39 42.9397 57.1 42.7397 57.75" fill="#875C2A"/>
<path d="M41.9798 56.58C40.9098 55.17 39.6998 54.37 38.4698 53.98C38.4398 53.18 38.2098 52.44 37.8198 51.86C37.8598 51.86 37.8998 51.86 37.9398 51.86C38.0598 51.86 38.1698 51.86 38.2898 51.86H38.3598C40.4298 51.91 42.0098 54.32 42.0398 55.56C42.0398 55.91 42.0298 56.25 41.9798 56.59" fill="#5D421D"/>
<path d="M33.4497 54.18C33.7797 52.04 35.3397 51.25 37.2397 51.2C37.2497 51.21 37.2697 51.22 37.2797 51.23C37.4797 51.41 37.6597 51.62 37.8197 51.86C38.1997 52.44 38.4397 53.18 38.4697 53.98C37.7797 53.76 37.0897 53.67 36.4097 53.67C35.3697 53.67 34.3697 53.88 33.4597 54.18" fill="#E2E1E1"/>
<path d="M45.1598 60.92C45.0698 60.48 44.9698 60.03 44.8698 59.59C44.7698 59.15 44.6798 58.7 44.5698 58.27C44.4598 57.83 44.3498 57.4 44.2198 56.97C44.0998 56.53 43.9598 56.14 43.7998 55.73C43.7098 55.54 43.6098 55.29 43.5198 55.15L43.1698 54.59C42.9098 54.23 42.6598 53.87 42.3698 53.55C42.2298 53.38 42.0898 53.22 41.9298 53.08C41.7798 52.93 41.6198 52.78 41.4498 52.65C41.2898 52.51 41.1198 52.38 40.9398 52.27C40.7698 52.15 40.5898 52.03 40.3998 51.94C40.0398 51.73 39.6398 51.59 39.2398 51.46C38.8398 51.34 38.4298 51.26 38.0098 51.22C37.5898 51.19 37.1698 51.18 36.7498 51.22C36.3298 51.25 35.9098 51.34 35.4898 51.43C34.6498 51.63 33.8398 51.92 33.0598 52.3C32.6698 52.49 32.2798 52.7 31.9098 52.92C31.5398 53.14 31.1598 53.38 30.8298 53.63L31.0398 53.0301L31.3698 54.21C31.4698 54.6 31.6198 54.98 31.7598 55.36C31.8898 55.74 32.0298 56.13 32.2098 56.49C32.3798 56.85 32.5198 57.24 32.7298 57.58C32.9298 57.92 33.0898 58.3 33.3398 58.61C33.5798 58.92 33.7698 59.28 34.0498 59.56C34.3198 59.85 34.5598 60.16 34.8698 60.4L35.3098 60.79L35.7998 61.11C36.1198 61.34 36.4898 61.48 36.8398 61.64C37.1998 61.8 37.5898 61.87 37.9598 61.99C38.3498 62.04 38.7498 62.12 39.1498 62.14C39.5498 62.13 39.9598 62.18 40.3598 62.12C40.7598 62.07 41.1798 62.07 41.5698 61.97C41.9698 61.88 42.3898 61.83 42.7798 61.7C43.1698 61.58 43.5798 61.48 43.9698 61.34L45.1498 60.92H45.1598ZM45.1598 60.92L44.0498 61.5C43.6798 61.69 43.2798 61.82 42.8898 61.99C42.4998 62.17 42.0898 62.25 41.6898 62.39C41.2898 62.53 40.8598 62.58 40.4398 62.67C40.0198 62.77 39.5898 62.75 39.1598 62.79C38.7298 62.8 38.2898 62.75 37.8598 62.72C37.4298 62.62 36.9898 62.57 36.5798 62.41C36.1698 62.25 35.7398 62.11 35.3698 61.87L34.7998 61.54L34.2798 61.14C33.9098 60.88 33.6198 60.55 33.3198 60.24C32.9998 59.93 32.7698 59.56 32.4998 59.22C32.2198 58.88 32.0398 58.49 31.8098 58.12C31.5698 57.75 31.4098 57.35 31.2198 56.97C31.0198 56.58 30.8698 56.1801 30.7298 55.7801C30.5798 55.3801 30.4198 54.98 30.3098 54.57L29.9498 53.34L29.8398 52.98L30.1498 52.75C30.5498 52.45 30.9298 52.2 31.3398 51.96C31.7498 51.72 32.1598 51.5 32.5898 51.3C33.4398 50.9 34.3398 50.58 35.2598 50.37C35.7298 50.27 36.1998 50.2 36.6798 50.18C37.1598 50.14 37.6498 50.17 38.1298 50.21C38.6098 50.27 39.0898 50.3701 39.5498 50.5301C39.7798 50.6101 40.0098 50.69 40.2298 50.8C40.4498 50.9 40.6698 51.01 40.8698 51.15C41.0798 51.27 41.2798 51.41 41.4698 51.56C41.6698 51.7 41.8498 51.86 42.0198 52.02C42.1998 52.18 42.3598 52.3501 42.5198 52.5301C42.6798 52.7001 42.8398 52.88 42.9698 53.07C43.2698 53.44 43.5098 53.84 43.7498 54.24L44.0798 54.86C44.2098 55.11 44.2498 55.3 44.3398 55.52C44.4698 55.96 44.5898 56.45 44.6598 56.89C44.7498 57.34 44.8198 57.79 44.8798 58.24C45.0098 59.14 45.1098 60.05 45.1598 60.95V60.92Z" fill="#3F403F"/>
<path d="M57.23 60.92C64.49 64.38 69.59 62.14 71.9 53.18C71.9 53.18 63.17 46.4 58.54 55.1C57.82 56.45 57.24 60.93 57.24 60.93" fill="white"/>
<path d="M64.2399 61.48C66.2599 61.44 67.95 59.84 68.59 57.62C68.79 56.94 68.8899 56.2 68.8799 55.44C68.8099 52.35 66.8899 51.25 64.4799 51.18C64.3299 51.18 64.18 51.18 64.03 51.18C61.4 51.24 59.3999 53.97 59.3599 55.65C59.2699 58.93 61.6199 61.54 64.2499 61.49" fill="#8D5D25"/>
<path d="M64.1599 60.66C63.2899 60.66 62.4199 60.24 61.7299 59.48C60.8199 58.48 60.3199 57.06 60.3499 55.56C60.3799 54.32 61.9599 51.9 64.0399 51.86H64.0999C64.2099 51.86 64.3299 51.86 64.4499 51.86C66.7399 51.93 67.8299 53.04 67.8799 55.34C67.8899 56.03 67.8099 56.69 67.6399 57.32C67.0899 59.32 65.7499 60.62 64.2199 60.65H64.1599" fill="#5D4018"/>
<path d="M64.1199 54.52C64.0799 56.5 62.7499 58.09 61.1599 58.05C60.4399 58.04 59.7899 57.69 59.2899 57.14C59.1099 56.55 59.0299 55.9 59.0399 55.23C59.0999 52.52 60.7799 51.56 62.8999 51.5C63.6599 52.16 64.1499 53.27 64.1199 54.52Z" fill="white"/>
<path d="M66.8201 59.96C66.8001 60.63 66.3501 61.17 65.8101 61.16C65.2701 61.15 64.84 60.6 64.86 59.92C64.87 59.25 65.32 58.71 65.86 58.72C66.4 58.73 66.8301 59.29 66.8101 59.96H66.8201Z" fill="white"/>
<path d="M58.54 61.48C58.11 61.31 57.68 61.12 57.23 60.91C57.23 60.91 57.82 56.43 58.54 55.07C58.76 54.66 58.99 54.28 59.22 53.94C58.98 54.29 58.76 54.67 58.54 55.08C57.82 56.43 57.24 60.91 57.24 60.91C57.68 61.12 58.12 61.31 58.55 61.48" fill="#1E1E1E"/>
<path d="M58.54 61.48C58.11 61.31 57.68 61.12 57.23 60.91C57.23 60.91 57.81 56.43 58.53 55.08C58.75 54.67 58.98 54.29 59.21 53.95C59.11 54.33 59.04 54.75 59.03 55.23C59.02 55.9 59.1 56.55 59.28 57.14C59.36 57.23 59.45 57.32 59.54 57.4C59.57 57.52 59.6 57.64 59.64 57.75C59.57 57.87 59.51 57.99 59.44 58.11C59.08 58.78 58.76 60.21 58.53 61.49" fill="#E2E1E1"/>
<path d="M71.4999 54.57C71.6399 54.12 71.77 53.66 71.9 53.17C71.78 53.65 71.6399 54.12 71.4999 54.57ZM61.4199 51.73C62.5999 50.95 63.8599 50.66 65.0699 50.66C63.8499 50.66 62.5999 50.95 61.4199 51.73Z" fill="#1E1E1E"/>
<path d="M71.28 55.21C70.59 54.83 69.7 54.41 68.71 54.11C68.18 52.03 66.5099 51.25 64.4799 51.19C64.3499 51.19 64.2299 51.19 64.0999 51.19H64.03C63.49 51.2 62.9799 51.33 62.4999 51.53C62.1199 51.56 61.7599 51.63 61.4199 51.73C62.5999 50.95 63.8499 50.66 65.0699 50.66C65.2799 50.66 65.49 50.66 65.7 50.68C68.52 50.9 71.03 52.55 71.71 53.04C71.83 53.12 71.89 53.17 71.89 53.17C71.77 53.66 71.6299 54.12 71.4899 54.57C71.4199 54.79 71.35 55.01 71.27 55.22" fill="#E2E1E1"/>
<path d="M59.6501 57.75C59.6101 57.63 59.58 57.52 59.55 57.4C59.62 57.46 59.6901 57.52 59.7601 57.57C59.7201 57.63 59.6901 57.69 59.6501 57.76M68.7101 54.11C68.3701 54.01 68.0101 53.91 67.6501 53.84C67.2201 52.54 66.1701 51.9 64.4501 51.85C64.3301 51.85 64.22 51.85 64.1 51.85H64.04C63.79 51.85 63.5501 51.9 63.3201 51.96C63.1901 51.79 63.0401 51.63 62.8901 51.5C62.7601 51.5 62.6301 51.5 62.5001 51.52C62.9801 51.32 63.4901 51.19 64.0301 51.18H64.1C64.22 51.18 64.35 51.18 64.48 51.18C66.51 51.24 68.1901 52.02 68.7101 54.1" fill="#875C2A"/>
<path d="M64.0901 53.93C64.0101 53.17 63.7301 52.48 63.3301 51.96C63.5601 51.89 63.8 51.85 64.05 51.85H64.11C64.22 51.85 64.3401 51.85 64.4601 51.85C66.1901 51.9 67.23 52.54 67.66 53.84C67.12 53.73 66.5601 53.67 66.0001 53.67C65.3701 53.67 64.73 53.75 64.1 53.93" fill="#5D421D"/>
<path d="M59.7599 57.56C59.6899 57.51 59.6199 57.45 59.5499 57.39C59.4599 57.31 59.3799 57.22 59.2899 57.13C59.1099 56.54 59.0299 55.89 59.0399 55.22C59.0499 54.74 59.1099 54.32 59.2199 53.94C59.8999 52.94 60.6499 52.22 61.4199 51.71C61.7599 51.6 62.1199 51.54 62.4999 51.51C62.6299 51.5 62.7599 51.49 62.8899 51.49C63.0499 51.63 63.1899 51.78 63.3199 51.95C63.7299 52.48 63.9999 53.16 64.0799 53.92C62.5299 54.37 60.9999 55.44 59.7399 57.55" fill="#E2E1E1"/>
<path d="M57.23 60.92C57.28 60.02 57.38 59.11 57.51 58.21C57.57 57.76 57.64 57.31 57.73 56.86C57.8 56.42 57.92 55.93 58.05 55.49C58.14 55.27 58.18 55.08 58.31 54.83L58.64 54.21C58.88 53.81 59.12 53.41 59.42 53.04C59.56 52.85 59.71 52.67 59.88 52.5C60.04 52.32 60.2 52.15 60.39 51.99C60.56 51.83 60.74 51.66 60.94 51.53C61.13 51.38 61.33 51.24 61.54 51.12C61.74 50.99 61.96 50.88 62.18 50.77C62.39 50.65 62.63 50.58 62.86 50.5C63.32 50.34 63.8 50.24 64.28 50.18C64.76 50.13 65.25 50.11 65.73 50.15C66.21 50.17 66.69 50.24 67.15 50.34C68.08 50.55 68.98 50.87 69.82 51.27C70.25 51.47 70.66 51.69 71.07 51.93C71.48 52.17 71.86 52.42 72.26 52.72L72.57 52.95L72.46 53.31L72.1 54.54C71.99 54.95 71.83 55.35 71.68 55.75C71.54 56.15 71.38 56.55 71.19 56.94C71 57.33 70.84 57.73 70.6 58.09C70.36 58.46 70.18 58.85 69.9 59.19C69.63 59.53 69.4 59.91 69.08 60.21C68.78 60.53 68.48 60.86 68.12 61.11L67.6 61.51L67.03 61.84C66.66 62.08 66.23 62.22 65.82 62.38C65.41 62.54 64.96 62.59 64.54 62.69C64.11 62.72 63.67 62.77 63.24 62.76C62.81 62.72 62.37 62.74 61.96 62.64C61.54 62.55 61.11 62.5 60.71 62.36C60.31 62.23 59.89 62.14 59.51 61.96C59.12 61.8 58.72 61.66 58.35 61.47L57.24 60.89L57.23 60.92ZM57.23 60.92L58.41 61.34C58.8 61.48 59.21 61.58 59.6 61.7C59.99 61.83 60.41 61.87 60.81 61.97C61.21 62.07 61.62 62.07 62.02 62.12C62.43 62.17 62.83 62.12 63.23 62.14C63.63 62.12 64.02 62.04 64.42 61.99C64.8 61.87 65.19 61.8 65.55 61.64C65.91 61.48 66.28 61.34 66.59 61.11L67.08 60.79L67.52 60.4C67.83 60.16 68.08 59.85 68.34 59.56C68.62 59.29 68.81 58.93 69.05 58.61C69.29 58.3 69.45 57.92 69.66 57.58C69.87 57.24 70.01 56.86 70.18 56.49C70.36 56.13 70.5 55.75 70.63 55.36C70.76 54.97 70.92 54.6 71.02 54.21L71.35 53.03L71.56 53.63C71.23 53.39 70.85 53.14 70.48 52.92C70.11 52.7 69.72 52.49 69.33 52.3C68.55 51.92 67.73 51.62 66.9 51.43C66.48 51.34 66.06 51.25 65.64 51.22C65.22 51.17 64.79 51.18 64.38 51.22C63.96 51.26 63.55 51.33 63.15 51.46C62.75 51.59 62.36 51.73 61.99 51.94C61.8 52.03 61.62 52.15 61.45 52.27C61.27 52.38 61.11 52.52 60.94 52.65C60.77 52.78 60.62 52.93 60.46 53.08C60.3 53.23 60.16 53.39 60.02 53.55C59.73 53.87 59.47 54.23 59.22 54.59L58.87 55.15C58.78 55.29 58.68 55.54 58.59 55.73C58.43 56.14 58.29 56.53 58.17 56.97C58.04 57.4 57.93 57.83 57.82 58.27C57.71 58.71 57.62 59.15 57.52 59.59C57.42 60.03 57.32 60.47 57.23 60.92Z" fill="#3F403F"/>
</svg>
