<svg width="102" height="101" viewBox="0 0 102 101" fill="none" xmlns="http://www.w3.org/2000/svg">
<path d="M92.67 0.0700073H9.08002C4.29171 0.0700073 0.410034 3.95168 0.410034 8.73999V92.33C0.410034 97.1183 4.29171 101 9.08002 101H92.67C97.4584 101 101.34 97.1183 101.34 92.33V8.73999C101.34 3.95168 97.4584 0.0700073 92.67 0.0700073Z" fill="#94A4A5"/>
<path d="M50.61 76.41C46.9 76.41 41.88 74.61 37.49 71.7C33.31 68.93 30.33 65.59 28.89 62.11C28.67 62.32 28.43 62.53 28.19 62.73C24.7 65.68 20.55 66.07 17.22 66.38C16.19 66.53 15.3 66.75 14.58 67.02C13.9 67.34 13.61 67.68 13.54 67.76C13.34 68.2 12.92 68.45 12.44 68.45C12.39 68.45 12.34 68.45 12.28 68.45C11.73 68.39 11.31 67.93 11.21 67.38C11.13 66.95 11.1 66.5 11.12 66.03C11 62.78 13.08 58.84 16.69 55.5C16.72 55.47 16.75 55.45 16.78 55.42C11.99 54.7 8.26001 51.62 6.67001 49.71C5.38001 48.15 4.36 43.83 4.88 39.3C5.28 35.82 6.75001 30.91 11.48 27.3C13.76 25.56 16 24.67 18.13 24.67C23.51 24.67 26.07 30.17 26.17 30.41C26.4 30.93 26.26 31.53 25.82 31.89C25.59 32.08 25.31 32.17 25.03 32.17C24.77 32.17 24.52 32.0901 24.3 31.9301C22.48 30.6101 20.81 29.9399 19.33 29.9399C15.5 29.9399 13.95 34.51 13.57 35.91C12.61 39.42 13.15 42.7799 14.26 43.4399C14.97 43.8599 15.65 44.0601 16.35 44.0601C18.72 44.0601 21.17 41.6499 23.54 39.3199C23.92 38.9499 24.3 38.57 24.68 38.21C25.59 37.34 26.51 36.15 27.49 34.89C30.47 31.05 34.18 26.28 41.21 24.95C42.09 24.78 42.95 24.7 43.76 24.7C47.26 24.7 49.48 26.2201 50.86 27.9301C52.25 26.2101 54.47 24.68 57.98 24.68C58.79 24.68 59.64 24.76 60.53 24.93C67.56 26.26 71.27 31.03 74.25 34.87C75.23 36.13 76.16 37.33 77.07 38.2C77.45 38.56 77.83 38.9401 78.21 39.3101C80.58 41.6401 83.03 44.05 85.4 44.05C86.1 44.05 86.78 43.8501 87.49 43.4301C88.61 42.7701 89.14 39.41 88.18 35.9C87.8 34.5 86.25 29.9301 82.42 29.9301C80.94 29.9301 79.27 30.6 77.45 31.92C77.23 32.08 76.97 32.16 76.72 32.16C76.44 32.16 76.16 32.07 75.93 31.88C75.49 31.52 75.35 30.91 75.58 30.4C75.69 30.17 78.23 24.67 83.62 24.67C85.75 24.67 87.98 25.55 90.27 27.29C95 30.9 96.47 35.81 96.87 39.3C97.39 43.83 96.37 48.14 95.08 49.7C93.43 51.69 89.47 54.93 84.4 55.48C84.47 55.54 84.54 55.6 84.6 55.67C87.52 58.37 89.49 61.52 90.03 64.33C90.37 65.47 90.45 66.5599 90.27 67.5699C90.17 68.1099 89.75 68.58 89.2 68.64C89.15 68.64 89.1 68.64 89.05 68.64C88.57 68.64 88.15 68.39 87.95 67.95C87.91 67.89 87.78 67.74 87.51 67.55C87.05 67.29 86.02 66.84 84.08 66.55C81.77 66.33 78.61 66.03 75.7 64.52C74.4 63.89 73.29 63.12 72.36 62.23C70.99 65.68 68.22 68.95 64.34 71.62C60.09 74.54 55.07 76.34 50.91 76.42H50.62L50.61 76.41Z" fill="#2F150C"/>
<path d="M89.51 28.28C80.88 21.7 76.72 30.91 76.72 30.91C88.78 22.14 92.58 41.88 88.12 44.51C83.66 47.14 79.93 42.68 76.21 39.1C72.48 35.52 69.19 27.84 60.31 26.16C55.2 25.19 52.34 27.4299 50.88 30.1899C49.42 27.4299 46.5599 25.2101 41.4599 26.1801C32.5799 27.8601 29.29 35.54 25.56 39.12C21.83 42.7 18.1 47.16 13.65 44.53C9.18995 41.9 12.9899 22.1601 25.0499 30.9301C25.0499 30.9301 20.88 21.72 12.26 28.3C3.62997 34.88 5.89995 46.79 7.64995 48.91C8.80995 50.31 13.6599 55.02 20.3599 54.23C19.4399 54.81 18.48 55.56 17.56 56.41C14.72 59.04 12.24 62.72 12.39 66.03C12.37 66.41 12.3899 66.78 12.4599 67.15C12.4599 67.15 12.83 66.45 14.1 65.87C14.79 65.6 15.7599 65.33 17.0799 65.14C20.3099 64.84 24.21 64.46 27.42 61.76C27.97 61.32 28.47 60.82 28.91 60.26C28.95 60.21 28.9799 60.16 29.0199 60.11C29.1399 59.95 29.2599 59.79 29.3599 59.62C29.3699 59.6 29.38 59.5899 29.39 59.5699C31.28 68.3599 43.8699 75.17 50.6099 75.17C50.6999 75.17 50.79 75.17 50.88 75.17C58.69 75.02 70.08 68.29 71.84 59.63C72.9 61.32 74.47 62.55 76.26 63.41C78.89 64.78 81.74 65.0799 84.22 65.3199C86.32 65.6199 87.52 66.12 88.17 66.5C88.82 66.95 89.04 67.35 89.04 67.35C89.2 66.47 89.1 65.55 88.82 64.63C88.3 61.77 86.16 58.81 83.76 56.59C82.65 55.56 81.48 54.6899 80.4 54.0699C87.62 55.5099 92.91 50.37 94.13 48.91C95.88 46.79 98.15 34.88 89.53 28.3L89.51 28.28Z" fill="#2F150C"/>
<path d="M72.0699 57.34C72.0699 57.65 72.0599 57.95 72.0399 58.26C72.0399 58.37 72.0199 58.49 72.0099 58.6C70.9799 67.75 58.9999 75 50.8899 75.16C50.7999 75.16 50.7199 75.16 50.6199 75.16C43.6499 75.16 30.4099 67.88 29.2399 58.65C29.1799 58.22 29.1599 57.79 29.1599 57.35C29.1599 48.67 36.0899 38.75 36.0899 38.75C36.0899 38.75 43.0899 34.54 50.6199 34.54C57.6999 34.54 65.1499 38.75 65.1499 38.75C65.1499 38.75 72.0799 48.67 72.0799 57.35" fill="#40311B"/>
<path d="M50.61 75.16C47.42 75.16 42.66 73.18 38.77 70.25C34.3 66.88 31.48 62.7 31.03 58.77C30.98 58.38 30.96 57.99 30.96 57.59C30.96 49.73 36.2 40.57 37.35 38.67C38.77 37.81 44.58 34.53 50.62 34.53C56.31 34.53 62.38 37.8099 63.9 38.6899C65.07 40.6299 70.28 49.76 70.28 57.59C70.28 57.88 70.28 58.1599 70.25 58.4399C70.25 58.5399 70.23 58.65 70.22 58.75C69.29 67.89 57.83 75.01 50.85 75.16H50.88H50.61Z" fill="#614C31"/>
<path d="M33.1599 53.38C33.1599 53.38 37.3099 61.95 40.8599 61.95C43.5799 61.95 46.9799 60.5501 46.9799 60.5501C46.9799 60.5501 48.4199 46.2701 40.5399 45.8101C36.9899 45.6001 33.1499 53.37 33.1499 53.37" fill="#4F3E2A"/>
<path d="M68.13 53.38C68.13 53.38 63.9799 61.95 60.4299 61.95C57.7099 61.95 54.3099 60.5501 54.3099 60.5501C54.3099 60.5501 52.87 46.2701 60.75 45.8101C64.3 45.6001 68.14 53.37 68.14 53.37" fill="#4F3E2A"/>
<path d="M37.01 47.7C37.01 47.7 37.05 47.56 37.18 47.34C37.25 47.23 37.33 47.1 37.44 46.96C37.55 46.83 37.68 46.66 37.85 46.52C38.01 46.36 38.2 46.22 38.42 46.08C38.63 45.94 38.88 45.81 39.14 45.7C39.41 45.6 39.69 45.49 39.99 45.45C40.29 45.38 40.6 45.38 40.91 45.38C41.22 45.38 41.52 45.45 41.82 45.51C42.11 45.6 42.39 45.7001 42.65 45.8101C42.9 45.9501 43.13 46.09 43.34 46.23C43.54 46.38 43.71 46.55 43.87 46.7C43.95 46.78 44.02 46.85 44.09 46.92C44.16 46.99 44.21 47.07 44.26 47.14C44.37 47.28 44.45 47.41 44.52 47.52C44.65 47.73 44.72 47.86 44.72 47.86C44.72 47.86 44.57 47.82 44.34 47.74C44.22 47.7 44.08 47.65 43.93 47.59C43.78 47.52 43.61 47.46 43.42 47.4C43.23 47.34 43.04 47.2599 42.84 47.1899C42.63 47.1399 42.42 47.08 42.2 47.01C41.98 46.97 41.75 46.93 41.53 46.88C41.3 46.88 41.08 46.8199 40.85 46.8199C40.62 46.8199 40.39 46.81 40.17 46.84C40.06 46.86 39.94 46.84 39.83 46.87C39.72 46.89 39.61 46.91 39.5 46.92C39.28 46.96 39.07 47.0101 38.86 47.0601C38.65 47.1201 38.46 47.17 38.28 47.23C38.09 47.28 37.93 47.35 37.77 47.4C37.62 47.47 37.48 47.5101 37.37 47.5601C37.14 47.6601 37.01 47.71 37.01 47.71V47.7Z" fill="#1E1914"/>
<path d="M64.1499 47.7C64.1499 47.7 64.0199 47.64 63.7899 47.55C63.6799 47.5 63.54 47.46 63.39 47.39C63.23 47.34 63.0699 47.27 62.8799 47.22C62.6999 47.15 62.4999 47.1 62.2999 47.05C62.0899 46.99 61.8799 46.95 61.6599 46.91C61.5499 46.9 61.4399 46.88 61.3299 46.86C61.2199 46.84 61.1099 46.85 60.9899 46.83C60.7699 46.8 60.5399 46.8101 60.3099 46.8101C60.0799 46.8101 59.8499 46.86 59.6299 46.87C59.4099 46.92 59.1799 46.96 58.9599 47C58.7399 47.07 58.5299 47.1301 58.3199 47.1801C58.1099 47.2501 57.9199 47.33 57.7399 47.39C57.5499 47.45 57.3699 47.51 57.2299 47.58C57.0799 47.64 56.9399 47.69 56.8199 47.74C56.5899 47.82 56.4399 47.86 56.4399 47.86C56.4399 47.86 56.5 47.73 56.64 47.52C56.71 47.42 56.7899 47.28 56.8999 47.14C56.9499 47.07 57.0099 46.99 57.0699 46.92C57.1399 46.85 57.2099 46.78 57.2899 46.7C57.4499 46.55 57.6199 46.38 57.8199 46.23C58.0299 46.09 58.2599 45.9501 58.5099 45.8101C58.7699 45.7001 59.0499 45.6 59.3399 45.51C59.6399 45.46 59.9399 45.39 60.2499 45.38C60.5599 45.38 60.87 45.38 61.17 45.45C61.47 45.49 61.7499 45.6 62.0199 45.7C62.2799 45.81 62.5299 45.94 62.7399 46.08C62.9499 46.22 63.1499 46.37 63.2999 46.52C63.4699 46.66 63.5899 46.83 63.7099 46.96C63.8199 47.1 63.8999 47.23 63.9699 47.34C64.0999 47.56 64.14 47.7 64.14 47.7H64.1499Z" fill="#1E1914"/>
<path d="M46.98 60.5601C40.44 63.6801 35.83 61.66 33.76 53.58C33.76 53.58 41.63 47.4701 45.81 55.3001C46.46 56.5201 46.99 60.5601 46.99 60.5601" fill="white"/>
<path d="M40.66 61.0699C38.84 61.0299 37.32 59.59 36.74 57.59C36.56 56.98 36.47 56.32 36.48 55.63C36.54 52.85 38.27 51.86 40.45 51.79C40.59 51.79 40.72 51.79 40.86 51.79C43.23 51.84 45.03 54.3099 45.07 55.8199C45.15 58.7699 43.03 61.13 40.67 61.08" fill="#9A6026"/>
<path d="M40.68 60.3199C39.3 60.2899 38.1 59.1099 37.6 57.3199C37.44 56.7499 37.37 56.15 37.38 55.53C37.42 53.45 38.4 52.46 40.47 52.39C40.57 52.39 40.68 52.39 40.78 52.39H40.84C42.71 52.43 44.13 54.61 44.16 55.73C44.19 57.08 43.74 58.37 42.92 59.26C42.29 59.94 41.51 60.3199 40.73 60.3199H40.67" fill="#432812"/>
<path d="M54.29 60.5601C60.83 63.6801 65.44 61.66 67.51 53.58C67.51 53.58 59.64 47.4701 55.46 55.3001C54.81 56.5201 54.28 60.5601 54.28 60.5601" fill="white"/>
<path d="M60.61 61.0699C62.43 61.0299 63.95 59.59 64.54 57.59C64.72 56.98 64.81 56.32 64.8 55.63C64.74 52.85 63.01 51.86 60.83 51.79C60.69 51.79 60.56 51.79 60.42 51.79C58.05 51.84 56.25 54.3099 56.21 55.8199C56.13 58.7699 58.25 61.13 60.61 61.08" fill="#9A6026"/>
<path d="M60.53 60.3199C59.75 60.3199 58.97 59.94 58.34 59.26C57.52 58.36 57.07 57.07 57.1 55.73C57.13 54.61 58.55 52.43 60.43 52.39H60.48C60.58 52.39 60.69 52.39 60.79 52.39C62.86 52.46 63.84 53.45 63.88 55.52C63.89 56.14 63.82 56.7401 63.66 57.3101C63.17 59.1101 61.96 60.2799 60.58 60.3199H60.53Z" fill="#432812"/>
<path d="M40.95 54.52C40.91 56.31 39.72 57.74 38.28 57.71C37.63 57.7 37.05 57.39 36.6 56.89C36.44 56.36 36.36 55.77 36.38 55.17C36.43 52.73 37.94 51.8601 39.85 51.8101C40.54 52.4101 40.98 53.41 40.95 54.53" fill="white"/>
<path d="M43.21 59.7C43.2 60.31 42.79 60.7901 42.3 60.7801C41.81 60.7801 41.43 60.2701 41.44 59.6601C41.45 59.0501 41.86 58.57 42.35 58.58C42.84 58.58 43.22 59.09 43.21 59.7Z" fill="white"/>
<path d="M60.49 54.79C60.45 56.58 59.26 58.01 57.82 57.98C57.17 57.96 56.59 57.66 56.14 57.16C55.98 56.63 55.9 56.0399 55.92 55.4399C55.97 52.9999 57.49 52.13 59.4 52.08C60.09 52.67 60.52 53.67 60.5 54.8" fill="white"/>
<path d="M62.93 59.7C62.92 60.31 62.51 60.7901 62.03 60.7801C61.54 60.7801 61.16 60.2701 61.17 59.6601C61.18 59.0501 61.59 58.57 62.07 58.58C62.56 58.58 62.94 59.09 62.93 59.7Z" fill="white"/>
<path d="M45.8099 61.0699C46.1899 60.9199 46.5899 60.7501 46.9899 60.5601C46.5899 60.7501 46.1999 60.9299 45.8099 61.0699Z" fill="#604E36"/>
<path d="M46.98 60.5601C46.98 60.5601 46.45 56.52 45.8 55.3C44.23 52.36 42.14 51.3801 40.15 51.3101C42.15 51.3801 44.24 52.36 45.81 55.3C46.45 56.5 46.97 60.43 46.98 60.55M34.14 54.91C34.01 54.49 33.88 54.04 33.76 53.58C33.88 54.04 34.01 54.48 34.14 54.91Z" fill="#51412E"/>
<path d="M45.81 61.0699C45.6 59.9199 45.3 58.63 44.99 58.03C44.93 57.92 44.87 57.81 44.81 57.71C44.99 57.12 45.09 56.4899 45.07 55.8199C45.03 54.3099 43.23 51.85 40.86 51.79H40.79C40.67 51.79 40.56 51.79 40.45 51.79C40.26 51.79 40.07 51.81 39.89 51.83C39.88 51.83 39.87 51.81 39.85 51.8C38.13 51.85 36.73 52.56 36.43 54.49C35.62 54.76 34.89 55.1 34.32 55.42C34.26 55.25 34.2 55.08 34.15 54.9C34.02 54.48 33.89 54.0399 33.77 53.5699C33.82 53.5299 36.72 51.3 39.92 51.3C40 51.3 40.08 51.3 40.16 51.3C42.16 51.37 44.25 52.35 45.81 55.29C46.46 56.51 46.99 60.55 46.99 60.55C46.59 60.74 46.2 60.9101 45.81 61.0601" fill="#E2E1E1"/>
<path d="M44.81 57.7C44.59 57.31 44.36 56.96 44.12 56.65C44.16 56.35 44.18 56.04 44.17 55.73C44.14 54.61 42.72 52.43 40.85 52.39H40.79C40.69 52.39 40.58 52.39 40.48 52.39C40.44 52.39 40.41 52.39 40.37 52.39C40.23 52.18 40.07 51.9899 39.89 51.8199C40.07 51.7999 40.26 51.79 40.45 51.78C40.57 51.78 40.68 51.78 40.79 51.78H40.86C43.23 51.83 45.03 54.3001 45.07 55.8101C45.09 56.4801 44.99 57.11 44.81 57.7Z" fill="#935F2B"/>
<path d="M44.11 56.65C43.15 55.38 42.06 54.6601 40.94 54.3101C40.92 53.5901 40.7 52.92 40.36 52.4C40.39 52.4 40.43 52.4 40.47 52.4C40.57 52.4 40.68 52.4 40.78 52.4H40.84C42.71 52.44 44.13 54.62 44.16 55.74C44.16 56.05 44.16 56.36 44.11 56.66" fill="#462D1A"/>
<path d="M36.4299 54.49C36.7299 52.56 38.1299 51.85 39.8499 51.8C39.8599 51.8 39.88 51.82 39.89 51.83C40.07 51.99 40.2299 52.18 40.3699 52.4C40.7099 52.92 40.93 53.5901 40.95 54.3101C40.33 54.1101 39.6999 54.03 39.0899 54.03C38.1599 54.03 37.2499 54.22 36.4299 54.49Z" fill="#E2E1E1"/>
<path d="M55.46 61.0699C55.08 60.9199 54.68 60.7501 54.28 60.5601C54.28 60.5601 54.28 60.53 54.29 60.46C54.29 60.52 54.28 60.5601 54.28 60.5601C54.68 60.7501 55.07 60.9199 55.46 61.0699Z" fill="#604E36"/>
<path d="M54.2999 60.46C54.3899 59.84 54.8799 56.41 55.4599 55.3C55.6599 54.93 55.8699 54.59 56.0799 54.28C55.8699 54.6 55.6599 54.94 55.4699 55.3C54.8799 56.4 54.3899 59.84 54.3099 60.46" fill="#51412E"/>
<path d="M55.46 61.0699C55.08 60.9199 54.68 60.7501 54.28 60.5601C54.28 60.5601 54.28 60.53 54.29 60.46C54.38 59.84 54.86 56.41 55.45 55.3C55.65 54.93 55.85 54.59 56.06 54.28C55.96 54.62 55.91 55.0001 55.9 55.4301C55.89 56.0301 55.97 56.62 56.12 57.15C56.19 57.23 56.27 57.31 56.35 57.38C56.38 57.49 56.41 57.59 56.44 57.7C56.38 57.81 56.32 57.91 56.26 58.02C55.94 58.62 55.65 59.9101 55.44 61.0601" fill="#E2E1E1"/>
<path d="M56.46 57.7C56.43 57.59 56.4 57.49 56.37 57.38C56.43 57.43 56.49 57.48 56.56 57.53C56.53 57.58 56.49 57.64 56.46 57.7Z" fill="#935F2B"/>
<path d="M67.1799 54.74C67.2999 54.37 67.3999 53.98 67.5099 53.58C67.4099 53.98 67.2999 54.37 67.1799 54.74ZM58.0599 52.27C59.0599 51.61 60.11 51.3401 61.14 51.3101C60.11 51.3401 59.0599 51.62 58.0699 52.27" fill="#51412E"/>
<path d="M66.95 55.42C66.33 55.07 65.5299 54.7 64.6299 54.42C64.1599 52.55 62.6399 51.84 60.8199 51.79C60.6999 51.79 60.5899 51.79 60.4799 51.79H60.4099C59.9299 51.8 59.4699 51.91 59.0399 52.1C58.6999 52.13 58.3699 52.19 58.0599 52.28C59.0599 51.63 60.1099 51.3599 61.1299 51.3199C61.1999 51.3199 61.2699 51.3199 61.3499 51.3199C64.5599 51.3199 67.4699 53.56 67.4999 53.59C67.3999 53.99 67.29 54.38 67.17 54.75C67.1 54.98 67.0199 55.2101 66.9399 55.4301" fill="#E2E1E1"/>
<path d="M64.64 54.42C64.33 54.33 64.0099 54.2401 63.6899 54.1801C63.2999 53.0101 62.3599 52.44 60.7999 52.39C60.6899 52.39 60.5899 52.39 60.4899 52.39H60.4399C60.2199 52.39 59.9999 52.43 59.7899 52.49C59.6699 52.33 59.5399 52.1999 59.3999 52.0699C59.2799 52.0699 59.1599 52.07 59.0499 52.09C59.4799 51.91 59.94 51.8 60.42 51.78H60.4899C60.6099 51.78 60.7199 51.78 60.8299 51.78C62.6599 51.84 64.17 52.54 64.64 54.41" fill="#935F2B"/>
<path d="M60.47 54.27C60.4 53.58 60.15 52.97 59.78 52.49C59.99 52.43 60.2 52.39 60.43 52.39H60.48C60.58 52.39 60.69 52.39 60.79 52.39C62.34 52.44 63.29 53.0101 63.68 54.1801C63.19 54.0801 62.69 54.03 62.18 54.03C61.62 54.03 61.04 54.1 60.47 54.26" fill="#462D1A"/>
<path d="M56.56 57.54C56.5 57.49 56.44 57.44 56.37 57.39C56.29 57.32 56.21 57.24 56.14 57.16C55.98 56.63 55.9 56.0399 55.92 55.4399C55.92 55.0099 55.98 54.63 56.08 54.29C56.69 53.39 57.37 52.74 58.07 52.28C58.38 52.19 58.7 52.13 59.05 52.1C59.17 52.1 59.28 52.08 59.4 52.08C59.54 52.2 59.67 52.34 59.79 52.5C60.16 52.98 60.4 53.59 60.48 54.28C59.08 54.68 57.7 55.65 56.57 57.55" fill="#E2E1E1"/>
<path d="M46.9799 60.5601C46.8999 60.1601 46.8099 59.76 46.7199 59.36C46.6299 58.96 46.5499 58.5601 46.4499 58.1701C46.3599 57.7801 46.2499 57.38 46.1399 57C46.0299 56.6 45.8999 56.25 45.7599 55.88C45.6799 55.71 45.5899 55.48 45.5099 55.36L45.1899 54.86C44.9599 54.54 44.7299 54.2101 44.4699 53.9201C44.3499 53.7701 44.2099 53.63 44.0699 53.5C43.9399 53.36 43.7999 53.23 43.6399 53.11C43.4899 52.99 43.3399 52.8701 43.1799 52.7701C43.0199 52.6601 42.8599 52.56 42.6899 52.47C42.3599 52.28 42.0099 52.1501 41.6499 52.0401C41.2899 51.9301 40.9199 51.86 40.5399 51.83C40.1599 51.8 39.7799 51.79 39.3999 51.83C39.0199 51.86 38.6399 51.9301 38.2699 52.0201C37.5199 52.2001 36.7799 52.4701 36.0799 52.8101C35.7299 52.9801 35.3799 53.17 35.0399 53.37C34.7099 53.57 34.3599 53.79 34.0699 54.01L34.2499 53.47L34.5499 54.5301C34.6399 54.8901 34.7799 55.23 34.8999 55.57C35.0199 55.92 35.1399 56.26 35.2999 56.59C35.4599 56.91 35.5799 57.26 35.7699 57.57C35.9599 57.88 36.0999 58.22 36.3199 58.5C36.5399 58.78 36.7099 59.11 36.9599 59.36C37.1999 59.62 37.4199 59.9 37.6999 60.12L38.0999 60.47L38.5399 60.75C38.8299 60.96 39.1599 61.08 39.4799 61.23C39.7999 61.38 40.1599 61.4401 40.4899 61.5501C40.8399 61.6001 41.1999 61.6701 41.5599 61.6801C41.9199 61.6801 42.2899 61.7101 42.6499 61.6601C43.0099 61.6201 43.3799 61.6201 43.7499 61.5301C44.1099 61.4501 44.4799 61.4101 44.8299 61.2901C45.1899 61.1801 45.5499 61.1 45.8999 60.97L46.9599 60.59L46.9799 60.5601ZM46.9799 60.5601L45.9799 61.08C45.6399 61.25 45.2799 61.3701 44.9299 61.5201C44.5799 61.6801 44.2099 61.75 43.8399 61.88C43.4799 62.01 43.0899 62.05 42.7199 62.13C42.3399 62.22 41.9499 62.2 41.5599 62.24C41.1699 62.24 40.7799 62.2001 40.3899 62.1801C40.0099 62.0801 39.5999 62.0501 39.2399 61.9001C38.8699 61.7601 38.4899 61.6301 38.1499 61.4101L37.6299 61.11L37.1599 60.74C36.8299 60.51 36.5699 60.2101 36.2899 59.9301C35.9999 59.6601 35.7999 59.32 35.5499 59.01C35.2999 58.7 35.1299 58.3501 34.9299 58.0201C34.7099 57.6901 34.5699 57.33 34.3999 56.98C34.2299 56.63 34.0899 56.2701 33.9599 55.9101C33.8299 55.5501 33.6799 55.19 33.5799 54.82L33.2499 53.71L33.1499 53.38L33.4299 53.1701C33.7899 52.9001 34.1299 52.67 34.4999 52.46C34.8699 52.24 35.2399 52.05 35.6199 51.87C36.3799 51.51 37.1899 51.2201 38.0299 51.0301C38.4499 50.9401 38.8799 50.88 39.3199 50.86C39.7499 50.83 40.1899 50.85 40.6199 50.89C41.0499 50.95 41.4899 51.0401 41.8999 51.1801C42.1099 51.2501 42.3199 51.3201 42.5099 51.4301C42.7099 51.5201 42.8999 51.62 43.0899 51.74C43.2799 51.85 43.4599 51.97 43.6299 52.11C43.8099 52.23 43.9699 52.3801 44.1299 52.5301C44.2999 52.6701 44.4399 52.83 44.5799 52.99C44.7299 53.14 44.8699 53.31 44.9899 53.48C45.2599 53.81 45.4699 54.1801 45.6899 54.5301L45.9899 55.09C46.1099 55.31 46.1399 55.4801 46.2299 55.6801C46.3499 56.0801 46.4599 56.5201 46.5199 56.9101C46.5999 57.3201 46.6599 57.72 46.7199 58.13C46.8399 58.94 46.9199 59.76 46.9699 60.57L46.9799 60.5601Z" fill="#1E1914"/>
<path d="M54.29 60.56C54.34 59.75 54.43 58.93 54.54 58.12C54.6 57.71 54.66 57.31 54.74 56.9C54.8 56.5 54.91 56.06 55.03 55.67C55.11 55.47 55.15 55.2999 55.27 55.0799L55.57 54.52C55.79 54.16 56 53.7999 56.27 53.4699C56.39 53.2999 56.53 53.1299 56.68 52.9799C56.82 52.8199 56.97 52.66 57.13 52.52C57.29 52.37 57.45 52.2299 57.63 52.0999C57.8 51.9699 57.98 51.8399 58.17 51.7299C58.35 51.6099 58.55 51.51 58.75 51.42C58.94 51.32 59.15 51.25 59.36 51.17C59.78 51.03 60.21 50.94 60.64 50.88C61.07 50.84 61.51 50.8099 61.94 50.8499C62.37 50.8699 62.8 50.93 63.22 51.02C64.06 51.21 64.86 51.4899 65.63 51.8599C66.01 52.0399 66.39 52.2399 66.75 52.4499C67.12 52.6699 67.46 52.89 67.82 53.16L68.1 53.37L68.01 53.6999L67.68 54.81C67.58 55.18 67.44 55.54 67.3 55.9C67.17 56.26 67.03 56.6199 66.86 56.9699C66.69 57.3199 66.54 57.68 66.33 58.01C66.12 58.34 65.96 58.69 65.7 59C65.45 59.31 65.25 59.65 64.96 59.92C64.69 60.2 64.42 60.4999 64.09 60.7299L63.62 61.0999L63.1 61.4C62.77 61.62 62.38 61.74 62.01 61.89C61.64 62.04 61.24 62.08 60.86 62.17C60.47 62.19 60.07 62.2399 59.69 62.2299C59.3 62.1899 58.91 62.21 58.53 62.12C58.16 62.04 57.77 62 57.41 61.87C57.04 61.75 56.67 61.67 56.32 61.51C55.97 61.36 55.61 61.2399 55.27 61.0699L54.27 60.55L54.29 60.56ZM54.29 60.56L55.35 60.9399C55.7 61.0699 56.06 61.16 56.42 61.26C56.77 61.38 57.14 61.42 57.5 61.5C57.86 61.59 58.23 61.59 58.6 61.63C58.97 61.68 59.33 61.63 59.69 61.65C60.05 61.63 60.4 61.56 60.76 61.52C61.1 61.41 61.45 61.3499 61.77 61.1999C62.09 61.0499 62.42 60.9299 62.71 60.7199L63.15 60.4399L63.55 60.0899C63.83 59.8799 64.05 59.5899 64.29 59.3299C64.54 59.0799 64.71 58.7599 64.93 58.4699C65.15 58.1899 65.3 57.85 65.48 57.54C65.67 57.24 65.79 56.89 65.95 56.56C66.11 56.23 66.23 55.89 66.35 55.54C66.47 55.2 66.61 54.86 66.7 54.5L67 53.4399L67.18 53.9799C66.89 53.7599 66.54 53.5399 66.21 53.3399C65.88 53.1399 65.53 52.95 65.18 52.78C64.47 52.44 63.74 52.17 62.99 51.99C62.62 51.91 62.24 51.83 61.86 51.8C61.48 51.76 61.1 51.77 60.72 51.8C60.34 51.83 59.97 51.9 59.61 52.01C59.25 52.13 58.9 52.2499 58.57 52.4399C58.4 52.5199 58.24 52.62 58.08 52.74C57.92 52.84 57.77 52.9599 57.62 53.0799C57.47 53.1999 57.33 53.3299 57.19 53.4699C57.05 53.5999 56.92 53.74 56.79 53.89C56.52 54.18 56.3 54.4999 56.07 54.8299L55.75 55.3299C55.67 55.4499 55.58 55.6799 55.49 55.8499C55.35 56.2199 55.22 56.5699 55.11 56.9699C54.99 57.3599 54.89 57.75 54.8 58.14C54.7 58.53 54.62 58.9399 54.53 59.3299C54.44 59.7299 54.35 60.13 54.27 60.53L54.29 60.56Z" fill="#1E1914"/>
<path d="M52.17 70.59C51.39 70.3 50.8799 69.89 50.8799 69.89L50.8399 69.9301L50.7999 69.89C50.7999 69.89 50.2899 70.3 49.5099 70.59C48.7099 70.89 48.4599 70.61 48.8399 70.8C49.0699 70.91 49.6999 71.27 50.8299 71.29C51.9699 71.27 52.5899 70.92 52.8199 70.8C53.1999 70.61 52.9499 70.89 52.1499 70.59H52.17Z" fill="#4F3E2A"/>
<path d="M52.65 70.8C52.52 70.8 52.39 70.8 52.3 70.78C52.12 70.76 51.95 70.7301 51.8 70.6801C51.66 70.6401 51.52 70.58 51.38 70.52C51.25 70.46 51.13 70.39 51.06 70.34C51 70.3 50.95 70.26 50.9 70.22L50.84 70.1801H50.83L50.77 70.23C50.77 70.23 50.67 70.31 50.61 70.35C50.5 70.42 50.3901 70.48 50.2901 70.53C50.1601 70.6 50.02 70.6499 49.87 70.6899C49.72 70.7299 49.55 70.76 49.38 70.79C49.23 70.8 49.03 70.82 48.84 70.8C48.67 70.8 48.48 70.77 48.3 70.73C47.58 70.58 46.94 70.2201 46.66 69.8101C46.59 69.7001 46.5401 69.59 46.5401 69.49C46.5201 69.39 46.56 69.3 46.59 69.23C46.64 69.15 46.68 69.11 46.71 69.08C46.73 69.06 46.75 69.04 46.8 69.04H46.86C46.86 69.04 46.81 69.25 46.78 69.3C46.77 69.34 46.7501 69.41 46.7601 69.47C46.7601 69.55 46.81 69.63 46.87 69.71C47.13 70.06 47.73 70.37 48.38 70.48C48.55 70.51 48.71 70.53 48.87 70.53H48.9501C49.0901 70.53 49.22 70.52 49.34 70.5C49.48 70.48 49.6301 70.45 49.7601 70.4C49.8801 70.36 49.99 70.31 50.1 70.26C50.19 70.21 50.27 70.16 50.36 70.09C50.41 70.05 50.46 70.02 50.49 69.98L50.5701 69.9C50.5701 69.9 50.6201 69.85 50.6401 69.83L50.7301 68.45H50.96L51.05 69.84L51.2001 69.98C51.2001 69.98 51.28 70.05 51.33 70.09C51.42 70.16 51.5 70.21 51.59 70.26C51.7 70.32 51.81 70.37 51.94 70.4C52.06 70.44 52.21 70.47 52.36 70.5C52.55 70.52 52.68 70.53 52.83 70.53C52.99 70.53 53.1501 70.51 53.3201 70.48C53.9701 70.37 54.57 70.06 54.83 69.71C54.89 69.63 54.93 69.55 54.94 69.48C54.95 69.41 54.9401 69.34 54.9201 69.29C54.8901 69.25 54.84 69.04 54.84 69.04H54.9C54.9 69.04 54.97 69.06 55 69.09C55.03 69.12 55.07 69.17 55.11 69.23C55.14 69.31 55.18 69.4 55.16 69.5C55.16 69.6 55.1101 69.7099 55.0401 69.8199C54.7601 70.2299 54.12 70.59 53.4 70.74C53.21 70.78 53.03 70.8101 52.85 70.8101C52.79 70.8101 52.7301 70.8101 52.6701 70.8101L52.65 70.8Z" fill="#1E1914"/>
<path d="M49.5 67.02C49.19 67.52 48.27 67.5 47.45 66.99C46.63 66.48 46.21 65.6601 46.52 65.1701C46.83 64.6701 47.74 64.69 48.57 65.2C49.39 65.71 49.81 66.53 49.5 67.02Z" fill="#010101"/>
<path d="M52.2199 67.02C52.5299 67.52 53.4499 67.5 54.2699 66.99C55.0899 66.48 55.51 65.6601 55.2 65.1701C54.89 64.6701 53.9699 64.69 53.1499 65.2C52.3299 65.71 51.9099 66.53 52.2199 67.02Z" fill="#010101"/>
<path d="M30.31 57.6899C28.56 62.7299 22.92 64.56 18.25 65C13.57 65.44 12.48 66.83 12.48 66.83C11.84 63.33 14.49 59.26 17.56 56.41C19.04 55.04 20.63 53.95 21.98 53.34C25.76 51.66 30.61 47.65 31.49 46.91C31.58 46.84 31.63 46.79 31.63 46.79C31.63 46.79 32.07 52.6401 30.32 57.6801L30.31 57.6899Z" fill="#40311B"/>
<path d="M30.41 53.35C30.41 55.02 30.77 58.03 28.9 60.25C25.48 64.35 20.81 64.79 17.06 65.14C13.31 65.49 12.45 67.15 12.45 67.15C12.14 65.45 12.8 63.58 13.91 61.86C15.39 60.49 17.69 59.09 19.04 58.48C22.82 56.79 28.36 56.09 30.41 53.34V53.35Z" fill="#1E1914"/>
<path d="M52.16 36.12C52.42 32.48 50.3399 24.5001 41.4599 26.1801C32.5799 27.8601 29.29 35.54 25.56 39.12C21.83 42.7 18.1 47.16 13.65 44.53C9.18995 41.9 12.9899 22.1601 25.0499 30.9301C25.0499 30.9301 20.88 21.72 12.26 28.3C3.62997 34.88 5.89995 46.8 7.64995 48.91C9.40995 51.03 19.6899 60.82 32.0199 47.3C44.3499 33.77 51.08 51.1 52.17 36.12H52.16Z" fill="#68655E"/>
<path d="M71 57.85C72.75 62.89 78.39 64.72 83.06 65.16C87.74 65.6 88.84 66.98 88.84 66.98C89.48 63.48 86.83 59.4099 83.75 56.5699C82.27 55.1999 80.68 54.11 79.33 53.5C75.55 51.82 70.7 47.8099 69.82 47.0699C69.73 46.9899 69.68 46.95 69.68 46.95C69.68 46.95 69.24 52.8 70.99 57.84L71 57.85Z" fill="#40311B"/>
<path d="M49.5999 36.1C49.3399 32.46 51.4199 24.48 60.2999 26.16C69.1899 27.84 72.4699 35.52 76.1999 39.1C79.9299 42.68 83.6499 47.14 88.1099 44.51C92.5699 41.88 88.7699 22.14 76.7099 30.91C76.7099 30.91 80.8699 21.7 89.4999 28.28C98.1199 34.86 95.8599 46.77 94.0999 48.89C92.3499 51.01 82.0599 60.81 69.7299 47.28C57.3999 33.76 50.6699 51.08 49.5799 36.1H49.5999Z" fill="#68655E"/>
<path d="M53.67 67.2C52.92 67.41 52.52 66.94 52.62 66.38C52.72 65.82 55.19 65.08 55.19 65.08C55.25 64.45 54.11 63.0401 52.98 63.3001C51.94 63.5301 50.98 64.04 50.83 64.12V64.1C50.83 64.1 49.79 63.52 48.66 63.27C47.53 63.02 46.39 64.4201 46.45 65.0601C46.45 65.0601 48.92 65.79 49.02 66.36C49.12 66.93 48.73 67.3901 47.97 67.1801C47.22 66.9801 47 66.6701 47 66.6701C47 66.6701 48.65 69.7001 50.78 68.5401C52.94 69.7801 54.62 66.7 54.62 66.7C54.62 66.7 54.4 67.01 53.65 67.21L53.67 67.2Z" fill="#1E1914"/>
<path d="M71.0699 53.53C71.0699 55.2 70.7099 58.2101 72.5799 60.4301C75.9999 64.5201 80.6699 64.9699 84.4199 65.3199C88.1699 65.6699 89.0299 67.33 89.0299 67.33C89.3399 65.63 88.6799 63.76 87.5699 62.04C86.0899 60.67 83.7899 59.27 82.4299 58.66C78.6499 56.97 73.1099 56.27 71.0599 53.52L71.0699 53.53Z" fill="#1E1914"/>
</svg>
