<svg width="102" height="102" viewBox="0 0 102 102" fill="none" xmlns="http://www.w3.org/2000/svg">
<path d="M93.06 0.190002H9.47005C4.68174 0.190002 0.800049 4.07168 0.800049 8.85999V92.45C0.800049 97.2383 4.68174 101.12 9.47005 101.12H93.06C97.8484 101.12 101.73 97.2383 101.73 92.45V8.85999C101.73 4.07168 97.8484 0.190002 93.06 0.190002Z" fill="#DBBD64"/>
<path d="M51.2701 84.83C47.5601 84.83 42.3701 82.98 38.0601 80.12C32.9201 76.71 29.7901 72.49 29.2301 68.23C29.1701 67.79 29.1401 67.32 29.1401 66.85C29.1401 65.04 29.2901 63.27 29.5901 61.56C28.6101 62.26 27.5001 62.93 26.1801 63.42C25.5801 63.64 24.8801 63.75 24.0901 63.75C21.2801 63.75 17.5201 62.32 15.7801 59.59C14.9701 58.32 14.2701 56.24 15.5301 53.52C17.3001 49.7 19.0401 47.85 20.8501 47.85C21.4901 47.85 21.9101 48.1 22.0501 48.21C24.4401 49.93 27.4501 50.8 30.9601 50.8C31.4601 50.8 31.9601 50.78 32.4701 50.75C30.4401 48.92 27.7201 46.34 26.0001 44.25C25.7201 44.25 25.2901 44.33 24.8301 44.41C24.0001 44.55 22.9601 44.73 21.7901 44.73C20.7201 44.73 19.7301 44.58 18.7701 44.28C15.2001 43.17 13.2301 41.56 12.7501 39.35C12.5201 38.28 12.7101 37.25 13.2901 36.54C13.7501 35.97 14.4401 35.64 15.1701 35.64C15.6301 35.64 16.0901 35.77 16.5401 36.02C17.1901 36.39 17.8801 36.93 18.5501 37.45C19.1701 37.94 19.8701 38.49 20.2901 38.68C20.3301 38.7 20.4801 38.74 20.7201 38.74C21.4701 38.74 22.4101 38.36 22.4301 37.92C22.4601 37.12 20.7401 35.54 19.1801 34.66C19.1001 34.62 18.7701 34.48 18.4901 34.35C14.5101 32.63 10.3501 30.49 9.63011 27.66C9.44011 26.89 9.6101 26.03 10.0901 25.42C10.5401 24.84 11.2101 24.52 11.9701 24.52C12.1501 24.52 12.3301 24.54 12.5101 24.57C13.2801 24.71 14.4001 25.37 16.1601 26.44C17.3501 27.16 18.8301 28.05 19.4701 28.23C19.5001 28.23 19.5701 28.25 19.7301 28.25C21.1901 28.25 23.8401 26.89 24.2001 25.71C24.7501 23.93 24.4001 22.17 24.1301 20.76C23.8401 19.25 23.4301 17.19 25.4101 16.65C25.9001 16.52 26.3301 16.45 26.7301 16.45C28.6101 16.45 29.4601 17.86 30.1201 19.18C31.5801 22.13 31.3801 25.06 29.5201 27.9C28.2601 29.8134 27.8834 31.1867 28.3901 32.02C28.8501 32.77 29.5001 33.24 30.0801 33.24C30.5201 33.24 30.9601 32.96 31.3701 32.41C31.7101 31.96 32.0301 31.27 32.3401 30.61C33.0401 29.1 33.8401 27.39 35.5401 27.39C35.9301 27.39 36.3201 27.49 36.7001 27.68C37.5101 28.09 38.0601 28.86 38.2501 29.86C38.6101 31.7 37.7001 34.04 35.7501 36.27C34.8801 37.26 33.7001 38.09 32.6501 38.82C32.1001 39.2 31.3101 39.75 31.0201 40.06C31.2801 41.14 32.3201 42.54 34.1001 44.23C35.4101 45.48 36.6701 46.61 37.5701 47.41C40.7401 45.18 45.1401 44.13 51.2901 44.13C57.4401 44.13 61.7701 45.24 64.9901 47.43C65.8501 46.67 67.1401 45.5 68.4801 44.22C70.2601 42.53 71.3001 41.13 71.5601 40.05C71.2701 39.73 70.4801 39.18 69.9301 38.81C68.8801 38.08 67.7001 37.26 66.8301 36.26C64.8801 34.03 63.9701 31.69 64.3301 29.85C64.5201 28.85 65.0801 28.07 65.8901 27.66C66.2701 27.47 66.6601 27.37 67.0501 27.37C68.7501 27.37 69.5501 29.08 70.2501 30.59C70.5601 31.25 70.8801 31.94 71.2201 32.39C71.6401 32.94 72.0701 33.22 72.5101 33.22C73.0901 33.22 73.7401 32.75 74.2001 32C74.7134 31.1667 74.3368 29.7933 73.0701 27.88C71.2101 25.05 71.0001 22.11 72.4701 19.16C73.1201 17.84 73.9801 16.43 75.8601 16.43C76.2601 16.43 76.6901 16.49 77.1801 16.63C79.1601 17.17 78.7601 19.23 78.4601 20.74C78.1801 22.15 77.8401 23.91 78.3901 25.69C78.7501 26.87 81.4001 28.23 82.8601 28.23C83.0201 28.23 83.1001 28.21 83.1201 28.21C83.7601 28.03 85.2401 27.14 86.4301 26.42C88.2001 25.36 89.3201 24.7 90.0901 24.55C90.2701 24.52 90.4501 24.5 90.6301 24.5C91.3901 24.5 92.0601 24.82 92.5101 25.4C92.9901 26.01 93.1701 26.87 92.9701 27.64C92.2501 30.46 88.0901 32.6 84.1101 34.33C83.8201 34.45 83.4901 34.6 83.4101 34.64C81.8501 35.52 80.1301 37.1 80.1601 37.9C80.1801 38.34 81.1201 38.72 81.8701 38.72C82.1101 38.72 82.2601 38.68 82.3001 38.66C82.7301 38.47 83.4301 37.92 84.0501 37.43C84.7201 36.9 85.4001 36.36 86.0601 36C86.5001 35.75 86.9601 35.62 87.4301 35.62C88.1601 35.62 88.8401 35.95 89.3101 36.52C89.8801 37.23 90.0801 38.25 89.8501 39.33C89.3701 41.53 87.4101 43.15 83.8301 44.26C82.8701 44.56 81.8801 44.71 80.8101 44.71C79.6301 44.71 78.6001 44.53 77.7701 44.39C77.3101 44.31 76.8701 44.23 76.6001 44.23C74.8901 46.31 72.1801 48.87 70.1601 50.7C70.7201 50.75 71.3301 50.78 71.9701 50.78C75.4901 50.78 78.4901 49.91 80.8901 48.18C81.0301 48.08 81.4401 47.83 82.0801 47.83C83.8901 47.83 85.6301 49.68 87.4001 53.5C88.6601 56.22 87.9601 58.3 87.1501 59.57C85.4101 62.3 81.6501 63.73 78.8401 63.73C78.0501 63.73 77.3501 63.62 76.7501 63.4C75.2501 62.85 74.0301 62.06 72.9501 61.26C73.2801 63.06 73.4501 64.92 73.4501 66.83C73.4501 67.15 73.4401 67.48 73.4101 67.79C73.4101 67.91 73.3901 68.03 73.3701 68.14C72.8701 72.44 69.9501 76.64 65.1501 79.97C60.9101 82.92 55.8401 84.72 51.6001 84.8H51.3201L51.2701 84.83Z" fill="#2F150C"/>
<path d="M19.1101 29.44C17.5201 28.99 13.4401 26.03 12.2601 25.81C11.0801 25.59 10.6401 26.65 10.8201 27.37C11.6101 30.47 19.0101 33.15 19.7801 33.58C20.9901 34.26 23.7401 36.23 23.6701 37.98C23.6001 39.73 20.8701 40.32 19.7701 39.83C18.7101 39.35 17.1301 37.79 15.9201 37.11C14.7101 36.43 13.6101 37.44 13.9701 39.09C14.3301 40.74 15.8801 42.07 19.1401 43.09C22.9101 44.26 26.0601 42.32 26.8201 43.26C29.0601 46.05 33.3401 49.87 35.1901 51.48C35.1401 51.54 35.0901 51.61 35.0401 51.68C32.0901 52.21 26.1401 52.67 21.3201 49.22C21.3201 49.22 19.5201 47.9 16.6701 54.05C13.8101 60.2 22.4201 63.47 25.7601 62.25C28.2501 61.34 29.9801 59.62 31.6201 58.52C30.8601 60.98 30.4001 63.77 30.4001 66.85C30.4001 67.26 30.4301 67.67 30.4801 68.07C31.6101 76.75 44.5001 83.59 51.2801 83.59C51.3701 83.59 51.4501 83.59 51.5401 83.59C59.4301 83.44 71.1001 76.63 72.1001 68.03C72.1101 67.93 72.1201 67.82 72.1301 67.71C72.1501 67.43 72.1601 67.14 72.1601 66.85C72.1601 63.66 71.6701 60.78 70.8701 58.26C72.6401 59.32 74.4401 61.26 77.1301 62.24C80.4701 63.46 89.0701 60.19 86.2201 54.04C83.3701 47.89 81.5701 49.21 81.5701 49.21C76.5401 52.81 70.2901 52.16 67.4901 51.61C67.4501 51.56 67.4201 51.52 67.3801 51.47C69.2301 49.86 73.5001 46.05 75.7401 43.26C76.5001 42.31 79.6501 44.26 83.4201 43.09C86.6801 42.08 88.2301 40.75 88.5901 39.09C88.9501 37.44 87.8501 36.43 86.6401 37.11C85.4301 37.79 83.8501 39.35 82.7901 39.83C81.6901 40.32 78.9701 39.73 78.8901 37.98C78.8201 36.23 81.5701 34.26 82.7801 33.58C83.5401 33.15 90.9501 30.47 91.7401 27.37C91.9201 26.65 91.4801 25.59 90.3001 25.81C89.1201 26.03 85.0301 28.99 83.4501 29.44C81.8601 29.89 77.8301 28.17 77.1901 26.09C75.9401 22.04 78.6101 18.35 76.8501 17.87C75.0901 17.39 74.4401 18.03 73.5901 19.75C72.7001 21.55 72.0901 24.14 74.1201 27.23C76.1501 30.31 76.4201 30.81 75.2701 32.69C74.1201 34.57 71.9001 35.39 70.2301 33.19C68.9101 31.45 68.3301 27.86 66.4601 28.82C65.1301 29.49 64.8901 32.16 67.7801 35.48C69.5001 37.46 73.0101 38.92 72.8501 40.03C72.6901 41.14 71.9301 42.72 69.3501 45.17C67.5301 46.9 65.8101 48.42 65.0701 49.08C62.3101 46.86 57.8901 45.42 51.2901 45.42C44.2801 45.42 40.2101 46.82 37.5101 49.07C36.7601 48.41 35.0501 46.89 33.2401 45.18C30.6501 42.73 29.8901 41.15 29.7401 40.04C29.5801 38.93 33.0901 37.46 34.8101 35.49C37.7101 32.17 37.4601 29.5 36.1301 28.83C34.2601 27.88 33.6801 31.46 32.3601 33.2C30.6901 35.4 28.4701 34.58 27.3201 32.7C26.1701 30.82 26.4401 30.32 28.4701 27.24C30.5001 24.15 29.8901 21.57 29.0001 19.76C28.1501 18.04 27.5001 17.4 25.7401 17.88C23.9801 18.36 26.6401 22.04 25.4001 26.1C24.7601 28.18 20.7301 29.9 19.1401 29.45L19.1101 29.44Z" fill="#2F150C"/>
<path d="M36.0701 52.25C36.0701 52.25 29.7201 46.89 26.8101 43.27C26.0501 42.32 22.9001 44.27 19.1301 43.1C15.8701 42.09 14.3201 40.76 13.9601 39.1C13.6001 37.45 14.7001 36.44 15.9101 37.12C17.1201 37.8 18.7001 39.36 19.7601 39.84C20.8601 40.33 23.5801 39.74 23.6601 37.99C23.7301 36.24 20.9801 34.27 19.7701 33.59C19.0101 33.16 11.6001 30.48 10.8101 27.38C10.6301 26.66 11.0701 25.6 12.2501 25.82C13.4301 26.04 17.5201 29 19.1001 29.45C20.6901 29.9 24.7201 28.18 25.3601 26.1C26.6101 22.05 23.9401 18.36 25.7001 17.88C27.4601 17.4 28.1101 18.04 28.9601 19.76C29.8501 21.56 30.4601 24.15 28.4301 27.24C26.4001 30.32 26.1301 30.82 27.2801 32.7C28.4301 34.58 30.6501 35.4 32.3201 33.2C33.6401 31.46 34.2201 27.87 36.0901 28.83C37.4201 29.5 37.6601 32.17 34.7701 35.49C33.0501 37.47 29.5401 38.93 29.7001 40.04C29.8601 41.15 30.6201 42.73 33.2001 45.18C35.6201 47.48 37.8601 49.42 37.8601 49.42L36.0401 52.26L36.0701 52.25Z" fill="#DEC6A2"/>
<path d="M36.75 49.71C34.8 48 30.9 44.48 28.85 41.93C28.44 41.42 27.82 41.16 27.02 41.16C26.52 41.16 25.99 41.25 25.36 41.36C24.59 41.49 23.71 41.65 22.76 41.65C21.96 41.65 21.22 41.54 20.52 41.32C17.96 40.52 16.53 39.52 16.27 38.33C16.22 38.1 16.23 37.93 16.25 37.83C16.72 38.1 17.32 38.57 17.9 39.03C18.71 39.67 19.47 40.27 20.19 40.59C20.61 40.78 21.12 40.87 21.68 40.87C23.7 40.87 25.9 39.71 25.99 37.55C26.11 34.64 21.89 32.18 21.41 31.91C21.24 31.81 21 31.71 20.47 31.48C15.14 29.17 13.52 27.64 13.16 26.72C13.71 26.95 14.93 27.69 15.77 28.19C17.3 29.11 18.74 29.98 19.71 30.25C20 30.33 20.32 30.37 20.68 30.37C22.94 30.37 26.85 28.53 27.64 25.99C28.38 23.59 27.95 21.38 27.64 19.78C27.57 19.4 27.47 18.92 27.44 18.6C27.53 18.58 27.62 18.58 27.69 18.58C27.89 18.58 28.11 18.58 28.74 19.86C29.79 21.98 29.65 23.93 28.29 25.99C26.25 29.09 25.49 30.24 27.12 32.9C28.07 34.45 29.53 35.37 31.03 35.37C31.92 35.37 33.23 35.05 34.4 33.51C34.91 32.84 35.29 32.02 35.66 31.23C35.9 30.72 36.28 29.91 36.55 29.58C36.59 29.64 36.64 29.74 36.66 29.88C36.81 30.68 36.39 32.2 34.75 34.08C34.1 34.83 33.05 35.56 32.13 36.2C30.54 37.31 29.16 38.27 29.36 39.71C29.61 41.46 30.85 43.35 33.27 45.64C34.77 47.06 36.21 48.36 37.1 49.15L36.75 49.69V49.71Z" fill="#F4DFC3"/>
<path d="M66.4701 52.25C66.4701 52.25 72.8201 46.89 75.7301 43.27C76.4901 42.32 79.6401 44.27 83.4101 43.1C86.6701 42.09 88.2201 40.76 88.5801 39.1C88.9401 37.45 87.8401 36.44 86.6301 37.12C85.4201 37.8 83.8401 39.36 82.7801 39.84C81.6801 40.33 78.9601 39.74 78.8801 37.99C78.8101 36.24 81.5601 34.27 82.7701 33.59C83.5301 33.16 90.9401 30.48 91.7301 27.38C91.9101 26.66 91.4701 25.6 90.2901 25.82C89.1101 26.04 85.0201 29 83.4401 29.45C81.8501 29.9 77.8201 28.18 77.1801 26.1C75.9301 22.05 78.6001 18.36 76.8401 17.88C75.0801 17.4 74.4301 18.04 73.5801 19.76C72.6901 21.56 72.0801 24.15 74.1101 27.24C76.1401 30.32 76.4101 30.82 75.2601 32.7C74.1101 34.58 71.8901 35.4 70.2201 33.2C68.9001 31.46 68.3201 27.87 66.4501 28.83C65.1201 29.5 64.8801 32.17 67.7701 35.49C69.4901 37.47 73.0001 38.93 72.8401 40.04C72.6801 41.15 71.9201 42.73 69.3401 45.18C66.9201 47.48 64.6801 49.42 64.6801 49.42L66.5001 52.26L66.4701 52.25Z" fill="#DEC6A2"/>
<path d="M65.4401 49.65C66.3201 48.87 67.7701 47.57 69.2701 46.14C71.6901 43.84 72.9401 41.96 73.1801 40.21C73.3801 38.77 72.0101 37.81 70.4101 36.7C69.4901 36.06 68.4401 35.33 67.7901 34.58C66.1501 32.7 65.7301 31.17 65.8801 30.38C65.9101 30.24 65.9501 30.14 65.9901 30.08C66.2601 30.4 66.6401 31.21 66.8801 31.72C67.2501 32.51 67.6301 33.32 68.1401 34C69.3001 35.53 70.6101 35.85 71.5101 35.85C73.0101 35.85 74.4701 34.93 75.4201 33.39C77.0501 30.73 76.2901 29.57 74.2501 26.48C72.8901 24.42 72.7501 22.48 73.8001 20.35C74.4401 19.07 74.6501 19.07 74.8501 19.07C74.9201 19.07 75.0001 19.07 75.1001 19.09C75.0701 19.41 74.9701 19.89 74.9001 20.27C74.5901 21.88 74.1601 24.08 74.9001 26.49C75.6801 29.03 79.6001 30.87 81.8501 30.87C82.2001 30.87 82.5301 30.83 82.8201 30.75C83.7901 30.47 85.2401 29.6 86.7601 28.69C87.6001 28.18 88.8101 27.45 89.3701 27.22C89.0101 28.13 87.4001 29.67 82.0601 31.98C81.5401 32.21 81.3001 32.31 81.1201 32.41C80.6401 32.68 76.4201 35.14 76.5401 38.05C76.6301 40.2 78.8301 41.37 80.8501 41.37C81.4201 41.37 81.9201 41.27 82.3401 41.08C83.0601 40.76 83.8201 40.16 84.6301 39.52C85.2101 39.06 85.8101 38.59 86.2801 38.32C86.3001 38.42 86.3101 38.59 86.2601 38.82C86.0001 40.01 84.5701 41.01 82.0101 41.81C81.3001 42.03 80.5701 42.13 79.7701 42.13C78.8201 42.13 77.9401 41.98 77.1701 41.85C76.5501 41.74 76.0101 41.65 75.5101 41.65C74.7101 41.65 74.0901 41.91 73.6801 42.42C71.6301 44.98 67.7301 48.49 65.7801 50.2L65.4301 49.65H65.4401Z" fill="#F4DFC3"/>
<path d="M72.1501 66.85C72.1501 67.14 72.1401 67.43 72.1201 67.71C72.1201 67.81 72.1001 67.92 72.0901 68.03C71.0901 76.63 59.4201 83.44 51.5301 83.59C51.4401 83.59 51.3601 83.59 51.2701 83.59C44.4801 83.59 31.6001 76.75 30.4701 68.07C30.4101 67.67 30.3901 67.26 30.3901 66.85C30.3901 58.69 33.6101 52.55 37.1301 49.37C39.8201 46.94 43.9401 45.41 51.2701 45.41C58.1601 45.41 62.6901 46.98 65.4101 49.37C68.9801 52.51 72.1501 58.69 72.1501 66.85Z" fill="#906B62"/>
<path d="M36.8701 51.26C36.8701 51.26 28.0001 54.01 21.3101 49.22C21.3101 49.22 19.5101 47.9 16.6601 54.05C13.8001 60.2 22.4101 63.47 25.7501 62.25C29.0901 61.03 31.0601 58.33 33.3001 57.68C34.2001 57.42 34.9601 56.33 35.5401 55.11C36.4001 53.32 36.8801 51.27 36.8801 51.27L36.8701 51.26Z" fill="#906B62"/>
<path d="M34.2301 54.86C34.2301 54.86 28.2501 57.87 24.6501 56.56C24.6501 56.56 22.4101 57.17 23.2201 58.05C24.0301 58.93 26.7501 61.39 34.2301 54.87V54.86Z" fill="#D69891"/>
<path d="M51.2701 82.92C48.1701 82.92 43.5301 81.1 39.7401 78.38C35.3901 75.27 32.6401 71.41 32.2001 67.79C32.1501 67.43 32.1301 67.07 32.1301 66.7C32.1301 59.45 36.8301 50.67 38.3501 49.23C39.5001 48.13 45.3901 45.41 51.2701 45.41C56.8101 45.41 62.9701 48.1 64.2001 49.25C65.7601 50.71 70.4101 59.47 70.4101 66.7C70.4101 66.96 70.4101 67.23 70.3801 67.49C70.3801 67.59 70.3601 67.68 70.3501 67.78C69.4401 76.22 58.2901 82.79 51.5001 82.93H51.5301H51.2701" fill="#99736D"/>
<path d="M66.0001 51.26C66.0001 51.26 74.8701 54.01 81.5601 49.22C81.5601 49.22 83.3601 47.9 86.2101 54.05C89.0601 60.2 80.4601 63.47 77.1201 62.25C73.7801 61.03 71.8101 58.33 69.5701 57.68C68.6701 57.42 67.9101 56.33 67.3301 55.11C66.4701 53.32 65.9901 51.27 65.9901 51.27L66.0001 51.26Z" fill="#906B62"/>
<path d="M68.6401 54.86C68.6401 54.86 74.6201 57.87 78.2201 56.56C78.2201 56.56 80.4601 57.17 79.6501 58.05C78.8401 58.93 76.1201 61.39 68.6401 54.87V54.86Z" fill="#D69891"/>
<path d="M34.28 63.76C34.28 63.76 38.32 72.1 41.77 72.1C44.42 72.1 47.73 70.74 47.73 70.74C47.73 70.74 49.13 56.84 41.47 56.39C38.02 56.19 34.28 63.75 34.28 63.75" fill="#7B5851"/>
<path d="M68.3201 63.76C68.3201 63.76 64.2801 72.1 60.8301 72.1C58.1801 72.1 54.8701 70.74 54.8701 70.74C54.8701 70.74 53.4701 56.84 61.1301 56.39C64.5801 56.19 68.3201 63.75 68.3201 63.75" fill="#7B5851"/>
<path d="M54.5001 78.14C54.5001 78.67 53.3001 79.65 52.6301 79.95C52.1701 80.15 51.6701 80.27 51.2801 80.27C50.8901 80.27 50.3901 80.15 49.9401 79.95C49.2701 79.66 48.2001 78.61 48.2001 78.07C48.2001 77.17 50.3301 77.02 51.2801 77.02C52.2301 77.02 54.5001 77.24 54.5001 78.13V78.14Z" fill="#723648"/>
<path d="M54.93 75.16C53.86 75.16 48.69 74.97 47.62 74.97C46.01 74.97 45.51 75.67 45.51 76.45C45.51 77.23 48.89 78.34 50.5 78.34C50.95 78.34 51.47 78.32 51.99 78.28C52.23 78.34 52.53 78.37 52.93 78.37C54.54 78.37 56.98 77.22 56.98 76.44C56.98 75.66 56.54 75.15 54.93 75.15V75.16Z" fill="#99736D"/>
<path d="M54.17 74.85C53.85 76.58 48.78 76.61 48.41 74.85C48.07 73.21 49.61 73.18 51.29 73.18C52.97 73.18 54.48 73.21 54.17 74.85Z" fill="#C24842"/>
<path d="M38.02 58.23C38.02 58.23 38.07 58.09 38.2 57.89C38.26 57.78 38.35 57.67 38.46 57.53C38.57 57.41 38.7 57.25 38.86 57.11C38.94 57.04 39.02 56.96 39.11 56.89C39.21 56.82 39.3 56.76 39.41 56.69C39.51 56.62 39.63 56.57 39.74 56.5C39.86 56.44 39.97 56.37 40.1 56.33C40.36 56.24 40.63 56.14 40.92 56.1C41.21 56.03 41.51 56.04 41.8 56.03C42.1 56.03 42.39 56.1 42.68 56.15C42.96 56.23 43.23 56.33 43.48 56.43C43.72 56.56 43.94 56.7 44.15 56.82C44.35 56.96 44.52 57.12 44.67 57.26C44.75 57.33 44.82 57.4 44.89 57.47C44.95 57.54 45.01 57.62 45.06 57.68C45.17 57.81 45.25 57.94 45.32 58.03C45.46 58.23 45.52 58.35 45.52 58.35C45.52 58.35 45.38 58.31 45.16 58.22C45.05 58.18 44.92 58.12 44.77 58.05C44.63 57.98 44.46 57.92 44.28 57.86C44.1 57.8 43.91 57.71 43.72 57.64C43.52 57.58 43.31 57.52 43.1 57.45C42.88 57.4 42.66 57.37 42.44 57.31C42.21 57.31 41.99 57.25 41.76 57.25C41.53 57.25 41.31 57.24 41.08 57.27C40.97 57.29 40.85 57.27 40.75 57.3C40.64 57.32 40.53 57.34 40.42 57.35C40.21 57.4 39.99 57.44 39.8 57.5C39.6 57.56 39.41 57.62 39.23 57.68C39.05 57.74 38.89 57.81 38.74 57.86C38.6 57.93 38.46 57.97 38.36 58.02C38.14 58.12 38.02 58.18 38.02 58.18V58.23Z" fill="#492F2A"/>
<path d="M64.6401 58.23C64.6401 58.23 64.5201 58.17 64.3001 58.07C64.2001 58.02 64.0601 57.97 63.9201 57.91C63.7701 57.85 63.6101 57.78 63.4301 57.73C63.2501 57.66 63.0601 57.61 62.8601 57.55C62.6601 57.49 62.4501 57.44 62.2401 57.4C62.1301 57.39 62.0201 57.37 61.9101 57.35C61.8001 57.33 61.6901 57.33 61.5801 57.32C61.3601 57.29 61.1301 57.3 60.9001 57.3C60.6701 57.3 60.4501 57.35 60.2201 57.36C60.0001 57.42 59.7801 57.46 59.5601 57.5C59.3501 57.57 59.1401 57.63 58.9401 57.69C58.7401 57.76 58.5601 57.84 58.3801 57.91C58.2001 57.97 58.0301 58.03 57.8901 58.1C57.7501 58.17 57.6101 58.22 57.5001 58.26C57.2801 58.35 57.1401 58.39 57.1401 58.39C57.1401 58.39 57.2101 58.27 57.3401 58.07C57.4101 57.97 57.4901 57.85 57.6001 57.71C57.6501 57.64 57.7101 57.57 57.7701 57.5C57.8401 57.43 57.9101 57.37 57.9901 57.29C58.1501 57.15 58.3101 56.99 58.5101 56.85C58.7201 56.72 58.9401 56.59 59.1801 56.46C59.4301 56.36 59.7001 56.26 59.9801 56.18C60.2701 56.13 60.5601 56.06 60.8601 56.06C61.1601 56.06 61.4601 56.06 61.7501 56.13C62.0401 56.17 62.3101 56.26 62.5701 56.36C62.7001 56.4 62.8201 56.47 62.9301 56.53C63.0501 56.59 63.1601 56.64 63.2601 56.72C63.3601 56.79 63.4601 56.86 63.5601 56.92C63.6501 56.99 63.7301 57.07 63.8101 57.14C63.9701 57.27 64.1001 57.43 64.2101 57.56C64.3201 57.69 64.4101 57.81 64.4701 57.92C64.6001 58.13 64.6501 58.26 64.6501 58.26L64.6401 58.23Z" fill="#492F2A"/>
<path d="M47.7301 70.75C41.3601 73.78 36.8801 71.82 34.8601 63.96C34.8601 63.96 42.5201 58.01 46.5901 65.64C47.2201 66.82 47.7301 70.75 47.7301 70.75Z" fill="white"/>
<path d="M41.5801 71.25C39.8101 71.21 38.3301 69.81 37.7601 67.87C37.5801 67.28 37.5001 66.63 37.5101 65.96C37.5701 63.25 39.2501 62.28 41.3701 62.22C41.5001 62.22 41.6401 62.22 41.7701 62.22C44.0801 62.27 45.8301 64.67 45.8701 66.14C45.9501 69.01 43.8901 71.31 41.5801 71.26" fill="#64413F"/>
<path d="M41.6001 70.52C40.2601 70.49 39.0801 69.34 38.6001 67.6C38.4401 67.04 38.3701 66.46 38.3801 65.86C38.4201 63.84 39.3801 62.87 41.3901 62.81C41.4901 62.81 41.5901 62.81 41.6901 62.81H41.7501C43.5701 62.85 44.9501 64.97 44.9801 66.06C45.0101 67.37 44.5701 68.63 43.7701 69.5C43.1601 70.17 42.4001 70.54 41.6401 70.54H41.5901" fill="#4F3231"/>
<path d="M54.8401 70.75C61.2101 73.78 65.6901 71.82 67.7101 63.96C67.7101 63.96 60.0501 58.01 55.9801 65.64C55.3501 66.82 54.8401 70.75 54.8401 70.75Z" fill="white"/>
<path d="M61 71.25C62.77 71.21 64.25 69.81 64.82 67.87C65 67.28 65.09 66.63 65.07 65.96C65.01 63.25 63.33 62.28 61.21 62.22C61.08 62.22 60.95 62.22 60.81 62.22C58.5 62.27 56.75 64.67 56.71 66.14C56.63 69.01 58.69 71.31 61 71.26" fill="#64413F"/>
<path d="M60.9301 70.52C60.1701 70.52 59.4101 70.15 58.8001 69.48C58.0001 68.61 57.5601 67.35 57.5901 66.04C57.6201 64.95 59.0001 62.83 60.8301 62.79H60.8801C60.9801 62.79 61.0801 62.79 61.1801 62.79C63.1901 62.85 64.1501 63.82 64.1901 65.84C64.2001 66.44 64.1301 67.03 63.9801 67.58C63.5001 69.33 62.3201 70.47 60.9801 70.5H60.9301" fill="#4F3231"/>
<path d="M41.86 64.87C41.82 66.61 40.66 68 39.26 67.97C38.63 67.95 38.06 67.65 37.62 67.17C37.47 66.65 37.39 66.08 37.4 65.5C37.45 63.12 38.92 62.28 40.78 62.23C41.45 62.81 41.87 63.78 41.85 64.88" fill="white"/>
<path d="M44.06 69.9099C44.05 70.4999 43.65 70.97 43.18 70.96C42.71 70.96 42.33 70.46 42.34 69.87C42.35 69.28 42.75 68.81 43.22 68.82C43.69 68.82 44.07 69.3199 44.06 69.9099Z" fill="white"/>
<path d="M60.89 65.13C60.85 66.87 59.69 68.26 58.29 68.23C57.66 68.22 57.09 67.91 56.65 67.43C56.5 66.91 56.42 66.34 56.43 65.76C56.48 63.39 57.95 62.54 59.81 62.49C60.48 63.07 60.9 64.04 60.88 65.14" fill="white"/>
<path d="M63.2601 69.9099C63.2501 70.4999 62.8501 70.97 62.3801 70.96C61.9101 70.96 61.5301 70.46 61.5401 69.87C61.5501 69.28 61.9501 68.81 62.4201 68.82C62.8901 68.82 63.2701 69.3199 63.2601 69.9099Z" fill="white"/>
<path d="M46.5901 71.25C46.9601 71.1 47.3501 70.94 47.7301 70.75C47.3401 70.94 46.9601 71.11 46.5801 71.25" fill="#91706B"/>
<path d="M47.7301 70.75C47.7301 70.75 47.2201 66.82 46.5901 65.64C47.2101 66.81 47.7201 70.63 47.7301 70.76" fill="#775852"/>
<path d="M46.5901 71.25C46.3801 70.13 46.1001 68.87 45.7901 68.28C45.7301 68.17 45.6701 68.07 45.6201 67.97C45.8001 67.4 45.8901 66.78 45.8701 66.13C45.8301 64.66 44.0801 62.26 41.7701 62.21H41.7101C41.6001 62.21 41.4901 62.21 41.3801 62.21C41.1901 62.21 41.0101 62.23 40.8301 62.25C40.8201 62.24 40.8101 62.23 40.8001 62.22C39.1201 62.27 37.7601 62.96 37.4701 64.84C36.6801 65.1 35.9801 65.44 35.4201 65.75C35.3601 65.58 35.3001 65.42 35.2501 65.24C35.1201 64.83 35.0001 64.4 34.8801 63.95C34.9301 63.91 37.7501 61.74 40.8701 61.74C41.0401 61.74 41.2001 61.74 41.3701 61.76C43.2301 61.9 45.1501 62.89 46.6101 65.63C47.2401 66.81 47.7501 70.74 47.7501 70.74C47.3601 70.93 46.9801 71.09 46.6101 71.24" fill="#E2E1E1"/>
<path d="M45.6101 67.97C45.3901 67.59 45.1701 67.25 44.9401 66.95C44.9801 66.65 45.0001 66.35 44.9901 66.05C44.9601 64.96 43.5801 62.84 41.7601 62.8H41.7001C41.6001 62.8 41.5001 62.8 41.4001 62.8C41.3601 62.8 41.3301 62.8 41.2901 62.8C41.1501 62.59 40.9901 62.41 40.8201 62.25C41.0001 62.23 41.1801 62.22 41.3701 62.21C41.4801 62.21 41.5901 62.21 41.7001 62.21H41.7601C44.0701 62.26 45.8201 64.66 45.8601 66.13C45.8801 66.78 45.7901 67.4 45.6101 67.97Z" fill="#624341"/>
<path d="M44.94 66.95C44 65.71 42.94 65.01 41.86 64.67C41.84 63.96 41.63 63.32 41.29 62.81C41.33 62.81 41.36 62.81 41.4 62.81C41.5 62.81 41.6 62.81 41.7 62.81H41.76C43.58 62.85 44.9601 64.97 44.9901 66.06C44.9901 66.37 44.99 66.67 44.94 66.96" fill="#513635"/>
<path d="M37.4601 64.84C37.7501 62.96 39.1101 62.27 40.7901 62.22C40.8001 62.22 40.8101 62.24 40.8201 62.25C41.0001 62.41 41.1501 62.59 41.2901 62.8C41.6301 63.31 41.8301 63.96 41.8601 64.66C41.2601 64.47 40.6501 64.39 40.0501 64.39C39.1401 64.39 38.2601 64.57 37.4601 64.84Z" fill="#E2E1E1"/>
<path d="M55.9901 71.25C55.6201 71.11 55.2301 70.94 54.8401 70.75C54.8401 70.75 54.8401 70.72 54.8501 70.65C54.8501 70.71 54.8401 70.75 54.8401 70.75C55.2301 70.94 55.6101 71.1 55.9801 71.25" fill="#91706B"/>
<path d="M54.8601 70.65C54.9401 70.03 55.4201 66.71 55.9901 65.63C56.1801 65.27 56.3801 64.94 56.5901 64.63C56.3801 64.93 56.1801 65.26 55.9901 65.62C55.4201 66.69 54.9401 70.02 54.8601 70.64" fill="#775852"/>
<path d="M55.9901 71.25C55.6201 71.1 55.2301 70.94 54.8501 70.75C54.8501 70.75 54.8501 70.72 54.8601 70.65C54.9401 70.04 55.4201 66.7 55.9901 65.63C56.1801 65.27 56.3801 64.94 56.5901 64.64C56.5001 64.97 56.4401 65.34 56.4401 65.76C56.4301 66.35 56.5101 66.91 56.6601 67.43C56.7301 67.51 56.8101 67.59 56.8801 67.65C56.9101 67.76 56.9401 67.86 56.9701 67.96C56.9101 68.06 56.8501 68.17 56.8001 68.27C56.4901 68.86 56.2101 70.11 56.0001 71.24" fill="#E2E1E1"/>
<path d="M56.9601 67.97C56.9301 67.87 56.9001 67.76 56.8701 67.66C56.9301 67.71 56.9901 67.76 57.0501 67.81C57.0201 67.86 56.9901 67.92 56.9501 67.97" fill="#624341"/>
<path d="M67.33 65.29C67.47 64.87 67.59 64.42 67.71 63.96C67.59 64.42 67.46 64.87 67.33 65.29ZM58.52 62.68C59.38 62.11 60.29 61.84 61.18 61.77C60.29 61.84 59.38 62.12 58.52 62.68Z" fill="#775852"/>
<path d="M67.17 65.75C66.56 65.41 65.79 65.05 64.92 64.78C64.46 62.96 62.99 62.27 61.21 62.22C61.1 62.22 60.99 62.22 60.88 62.22H60.82C60.35 62.23 59.9 62.34 59.48 62.52C59.15 62.55 58.83 62.6 58.53 62.69C59.39 62.13 60.29 61.85 61.19 61.78C61.37 61.76 61.55 61.76 61.73 61.76C64.85 61.76 67.67 63.93 67.72 63.97C67.6 64.43 67.47 64.88 67.34 65.3C67.29 65.46 67.24 65.61 67.18 65.76" fill="#E2E1E1"/>
<path d="M64.9201 64.78C64.6201 64.69 64.3101 64.61 63.9901 64.55C63.6101 63.42 62.7001 62.86 61.1801 62.81C61.0801 62.81 60.9801 62.81 60.8801 62.81H60.8301C60.6101 62.81 60.4001 62.85 60.2001 62.91C60.0801 62.76 59.9601 62.62 59.8201 62.5C59.7001 62.5 59.5901 62.51 59.4801 62.52C59.9001 62.34 60.3401 62.23 60.8201 62.22H60.8801C60.9901 62.22 61.1001 62.22 61.2101 62.22C62.9901 62.27 64.4601 62.96 64.9201 64.78Z" fill="#624341"/>
<path d="M60.8601 64.62C60.7901 63.95 60.5501 63.35 60.1901 62.89C60.3901 62.83 60.6001 62.8 60.8201 62.79H60.8701C60.9701 62.79 61.0701 62.79 61.1701 62.79C62.6801 62.84 63.6001 63.4 63.9801 64.53C63.5101 64.44 63.0201 64.38 62.5201 64.38C61.9701 64.38 61.4101 64.45 60.8501 64.61" fill="#513635"/>
<path d="M57.06 67.81C57 67.76 56.94 67.71 56.88 67.66C56.8 67.59 56.73 67.52 56.66 67.44C56.51 66.92 56.43 66.35 56.44 65.77C56.44 65.35 56.5 64.98 56.59 64.65C57.19 63.78 57.84 63.15 58.52 62.7C58.82 62.61 59.13 62.55 59.47 62.53C59.58 62.53 59.7 62.51 59.81 62.51C59.95 62.63 60.07 62.77 60.19 62.92C60.55 63.39 60.79 63.98 60.86 64.65C59.5 65.04 58.16 65.98 57.05 67.83" fill="#E2E1E1"/>
<path d="M47.73 70.75C47.65 70.36 47.56 69.97 47.48 69.59C47.39 69.2 47.31 68.82 47.21 68.43C47.12 68.05 47.02 67.66 46.91 67.28C46.8 66.89 46.68 66.56 46.54 66.19C46.46 66.02 46.38 65.8 46.29 65.67L45.98 65.18C45.76 64.87 45.54 64.55 45.28 64.27C45.16 64.12 45.03 63.98 44.89 63.86C44.76 63.73 44.62 63.59 44.47 63.48C44.33 63.36 44.18 63.24 44.02 63.15C43.87 63.04 43.71 62.94 43.55 62.86C43.23 62.68 42.88 62.55 42.54 62.44C42.19 62.33 41.83 62.27 41.46 62.23C41.09 62.2 40.72 62.19 40.35 62.23C39.98 62.26 39.61 62.33 39.25 62.41C38.52 62.58 37.8 62.85 37.12 63.18C36.78 63.35 36.44 63.53 36.11 63.72C35.79 63.91 35.45 64.13 35.17 64.34L35.35 63.82L35.64 64.85C35.73 65.2 35.86 65.53 35.98 65.86C36.1 66.2 36.22 66.53 36.37 66.85C36.52 67.17 36.64 67.51 36.82 67.8C37 68.1 37.14 68.43 37.35 68.71C37.56 68.98 37.73 69.3 37.98 69.54C38.21 69.79 38.43 70.07 38.7 70.27L39.09 70.61L39.52 70.89C39.8 71.1 40.12 71.21 40.43 71.36C40.74 71.5 41.09 71.56 41.42 71.67C41.76 71.71 42.11 71.79 42.46 71.8C42.81 71.8 43.17 71.83 43.52 71.78C43.87 71.74 44.24 71.74 44.59 71.65C44.94 71.57 45.3 71.53 45.65 71.42C46 71.31 46.35 71.23 46.69 71.1L47.73 70.73V70.75ZM47.73 70.75L46.75 71.26C46.42 71.43 46.07 71.54 45.73 71.69C45.39 71.85 45.03 71.92 44.67 72.04C44.32 72.17 43.94 72.21 43.58 72.29C43.21 72.38 42.83 72.36 42.45 72.4C42.07 72.4 41.69 72.36 41.31 72.34C40.94 72.25 40.55 72.21 40.19 72.07C39.83 71.93 39.46 71.81 39.13 71.6L38.63 71.31L38.17 70.95C37.85 70.73 37.59 70.43 37.33 70.16C37.05 69.89 36.85 69.56 36.61 69.26C36.36 68.96 36.21 68.62 36 68.3C35.79 67.98 35.65 67.63 35.48 67.29C35.31 66.95 35.18 66.6 35.05 66.24C34.92 65.89 34.78 65.54 34.68 65.18L34.36 64.11L34.27 63.79L34.54 63.58C34.89 63.31 35.23 63.1 35.59 62.89C35.95 62.68 36.31 62.49 36.68 62.32C37.42 61.97 38.21 61.69 39.03 61.5C39.44 61.42 39.86 61.35 40.28 61.33C40.7 61.3 41.13 61.32 41.55 61.36C41.97 61.41 42.39 61.5 42.8 61.64C43 61.71 43.2 61.78 43.39 61.88C43.58 61.97 43.77 62.07 43.95 62.18C44.14 62.29 44.31 62.41 44.47 62.54C44.64 62.66 44.8 62.81 44.95 62.95C45.11 63.09 45.25 63.24 45.39 63.4C45.53 63.55 45.67 63.71 45.79 63.88C46.05 64.2 46.26 64.56 46.47 64.91L46.76 65.45C46.88 65.67 46.91 65.83 46.99 66.02C47.1 66.41 47.21 66.83 47.27 67.22C47.35 67.61 47.41 68.01 47.46 68.4C47.57 69.19 47.66 69.98 47.71 70.78L47.73 70.75Z" fill="#492F2A"/>
<path d="M54.8401 70.75C54.8901 69.96 54.9701 69.16 55.0901 68.37C55.1401 67.97 55.2001 67.58 55.2801 67.19C55.3401 66.8 55.4501 66.38 55.5601 65.99C55.6401 65.8 55.6801 65.63 55.7901 65.42L56.0801 64.88C56.2901 64.53 56.5001 64.17 56.7601 63.85C56.8801 63.68 57.0201 63.52 57.1601 63.37C57.3001 63.21 57.4401 63.06 57.6001 62.92C57.7501 62.78 57.9101 62.64 58.0801 62.51C58.2501 62.38 58.4201 62.26 58.6001 62.15C58.7801 62.03 58.9701 61.94 59.1601 61.85C59.3501 61.75 59.5501 61.68 59.7501 61.61C60.1501 61.47 60.5701 61.38 61.0001 61.33C61.4201 61.29 61.8501 61.26 62.2701 61.3C62.6901 61.32 63.1101 61.38 63.5201 61.47C64.3401 61.66 65.1201 61.94 65.8701 62.29C66.2401 62.46 66.6101 62.66 66.9601 62.86C67.3201 63.07 67.6501 63.29 68.0001 63.55L68.2701 63.76L68.1801 64.08L67.8601 65.15C67.7601 65.51 67.6201 65.86 67.4901 66.21C67.3601 66.56 67.2301 66.92 67.0601 67.26C66.8901 67.6 66.7501 67.95 66.5401 68.27C66.3301 68.59 66.1801 68.93 65.9301 69.23C65.6901 69.53 65.5001 69.86 65.2101 70.13C64.9401 70.41 64.6901 70.7 64.3701 70.92L63.9101 71.2801L63.4101 71.57C63.0801 71.79 62.7101 71.9 62.3501 72.04C61.9901 72.18 61.6001 72.22 61.2301 72.31C60.8501 72.34 60.4701 72.38 60.0901 72.37C59.7101 72.33 59.3301 72.35 58.9601 72.26C58.5901 72.18 58.2201 72.14 57.8701 72.01C57.5201 71.89 57.1501 71.82 56.8101 71.66C56.4701 71.52 56.1201 71.4 55.7901 71.23L54.8101 70.72L54.8401 70.75ZM54.8401 70.75L55.8701 71.12C56.2101 71.24 56.5701 71.33 56.9101 71.44C57.2501 71.56 57.6201 71.6 57.9701 71.67C58.3201 71.76 58.6801 71.76 59.0401 71.8C59.3901 71.85 59.7501 71.8 60.1001 71.82C60.4501 71.8 60.8001 71.73 61.1401 71.69C61.4701 71.58 61.8101 71.52 62.1301 71.38C62.4401 71.23 62.7701 71.11 63.0401 70.91L63.4701 70.63L63.8601 70.29C64.1301 70.08 64.3501 69.81 64.5801 69.56C64.8301 69.32 65.0001 69 65.2101 68.73C65.4201 68.46 65.5601 68.12 65.7401 67.82C65.9201 67.52 66.0401 67.19 66.1901 66.87C66.3501 66.55 66.4701 66.22 66.5801 65.88C66.7001 65.55 66.8301 65.22 66.9201 64.87L67.2101 63.84L67.3901 64.36C67.1101 64.15 66.7701 63.94 66.4501 63.74C66.1201 63.54 65.7901 63.37 65.4401 63.2C64.7501 62.87 64.0401 62.61 63.3101 62.43C62.9401 62.35 62.5801 62.28 62.2101 62.25C61.8401 62.21 61.4701 62.22 61.1001 62.25C60.7301 62.28 60.3701 62.35 60.0201 62.46C59.6701 62.57 59.3201 62.7 59.0101 62.88C58.8401 62.96 58.6901 63.06 58.5401 63.17C58.3801 63.27 58.2401 63.39 58.0901 63.5C57.9401 63.62 57.8101 63.75 57.6701 63.88C57.5301 64 57.4001 64.15 57.2801 64.29C57.0201 64.57 56.8001 64.89 56.5801 65.2L56.2701 65.69C56.1901 65.81 56.1001 66.04 56.0201 66.21C55.8801 66.57 55.7601 66.91 55.6501 67.3C55.5401 67.68 55.4401 68.06 55.3501 68.45C55.2501 68.83 55.1701 69.22 55.0801 69.61C54.9901 70 54.9101 70.38 54.8301 70.77L54.8401 70.75Z" fill="#492F2A"/>
<path d="M52.6201 79.94C52.1601 80.14 51.6601 80.26 51.2701 80.26C50.8801 80.26 50.3801 80.14 49.9301 79.94C50.0201 79.57 50.3501 79.3 50.7501 79.3C50.9501 79.3 51.1301 79.37 51.2801 79.49C51.4301 79.37 51.6101 79.3 51.8101 79.3C52.2101 79.3 52.5401 79.57 52.6301 79.94H52.6201Z" fill="#D36683"/>
<path d="M53.37 74.11C53.37 74.51 52.4301 74.84 51.2701 74.84C50.1101 74.84 49.17 74.52 49.17 74.11C49.17 73.7 50.1101 73.39 51.2701 73.39C52.4301 73.39 53.37 73.71 53.37 74.11Z" fill="#FEF8FB"/>
<path d="M45.64 75.89C45.64 75.89 45.62 75.94 45.62 76.04C45.61 76.14 45.62 76.29 45.68 76.46C45.74 76.63 45.85 76.83 46.03 77.01C46.11 77.11 46.23 77.17 46.34 77.26C46.46 77.33 46.59 77.41 46.73 77.48C46.88 77.54 47.03 77.6 47.18 77.67C47.34 77.72 47.51 77.77 47.69 77.82C47.86 77.87 48.05 77.89 48.24 77.94C48.33 77.96 48.43 77.98 48.52 78C48.62 78.01 48.71 78.03 48.81 78.04C49.01 78.06 49.21 78.1 49.41 78.11C49.61 78.13 49.82 78.14 50.03 78.16C50.45 78.2 50.87 78.19 51.3 78.21C51.73 78.23 52.15 78.22 52.57 78.21C52.99 78.19 53.4 78.16 53.79 78.11C54.58 78.02 55.31 77.87 55.89 77.62C56.18 77.5 56.43 77.36 56.64 77.2C56.84 77.04 56.98 76.87 57.07 76.71C57.16 76.55 57.2 76.41 57.22 76.31C57.24 76.21 57.25 76.16 57.25 76.16C57.25 76.16 57.25 76.21 57.24 76.31C57.24 76.41 57.21 76.56 57.13 76.73C57.05 76.9 56.92 77.1 56.72 77.29C56.52 77.47 56.27 77.64 55.97 77.78C55.38 78.06 54.63 78.26 53.83 78.38C53.43 78.44 53.01 78.48 52.59 78.5C52.17 78.52 51.73 78.53 51.3 78.52C50.87 78.5 50.44 78.51 50.01 78.46C49.8 78.44 49.59 78.42 49.38 78.4C49.17 78.37 48.97 78.33 48.77 78.31C48.57 78.28 48.37 78.24 48.18 78.19C47.99 78.14 47.8 78.11 47.62 78.04C47.44 77.98 47.27 77.92 47.1 77.86C46.94 77.79 46.79 77.71 46.64 77.64C46.5 77.55 46.36 77.47 46.24 77.38C46.13 77.27 46.01 77.19 45.93 77.08C45.75 76.88 45.65 76.66 45.6 76.47C45.56 76.28 45.56 76.13 45.58 76.03C45.6 75.93 45.62 75.88 45.62 75.88L45.64 75.89Z" fill="#492F2A"/>
</svg>
