<svg width="102" height="102" viewBox="0 0 102 102" fill="none" xmlns="http://www.w3.org/2000/svg">
<path d="M93.06 0.77002H9.47005C4.68174 0.77002 0.800049 4.65171 0.800049 9.44002V93.03C0.800049 97.8183 4.68174 101.7 9.47005 101.7H93.06C97.8484 101.7 101.73 97.8183 101.73 93.03V9.44002C101.73 4.65171 97.8484 0.77002 93.06 0.77002Z" fill="#DBBD64"/>
<path d="M52.22 77.7101C52.13 77.7101 52.04 77.7101 51.95 77.7101H51.8501C44.4001 77.5201 32.6501 71.6801 27.7101 63.6001C26.5001 61.6201 25.7501 59.5901 25.4901 57.5601C25.4201 57.0301 25.3801 56.4601 25.3801 55.8801C25.3801 52.4001 26.31 48.4301 28.15 44.0701C26.06 42.3801 25.4001 39.97 24.9901 36.33C24.5801 32.7 25.5 26.3601 29.73 24.7701C30.07 24.6401 30.44 24.5401 30.81 24.4901C31.02 24.4601 31.25 24.4401 31.47 24.4401C33.72 24.4401 35.8001 26.1301 37.8201 27.7701C38.9801 28.7101 40.1701 29.6801 41.3001 30.2501C41.4701 30.1501 41.65 30.02 41.87 29.86C43.14 28.95 44.8701 27.6901 50.0701 27.5101C50.0901 27.5101 50.14 27.5101 50.15 27.5101C50.83 27.5101 51.3801 27.7801 51.8201 28.0001C51.9401 28.0601 52.1 28.1401 52.2 28.1801C52.29 28.1401 52.46 28.0601 52.58 28.0001C53.02 27.7801 53.57 27.5101 54.25 27.5101C54.26 27.5101 54.31 27.5101 54.33 27.5101C59.53 27.6901 61.25 28.94 62.5 29.86C62.73 30.03 62.9 30.1501 63.06 30.2501C64.19 29.6801 65.39 28.7101 66.56 27.7701C68.59 26.1301 70.6901 24.4401 72.9401 24.4401C73.1601 24.4401 73.3901 24.4601 73.6101 24.4901C73.9801 24.5501 74.35 24.6401 74.7 24.7801C78.92 26.3601 79.84 32.71 79.43 36.33C79.02 39.97 78.3601 42.3801 76.2701 44.0701C78.1101 48.4301 79.04 52.4001 79.04 55.8801C79.04 56.2701 79.0201 56.66 78.9901 57.05C78.9801 57.2 78.96 57.3401 78.95 57.4801C78.7 59.5901 77.9801 61.6901 76.8001 63.7201C71.9301 72.0901 60.51 77.5001 52.72 77.7101H52.68C52.68 77.7101 52.5901 77.7101 52.5501 77.7101H52.22Z" fill="#2F150C"/>
<path d="M78.0301 36.16C78.3801 33.07 77.6001 27.37 74.2001 26.09C73.9501 25.99 73.6901 25.92 73.4101 25.88C70.2401 25.39 66.7301 30.32 63.1501 31.76C63.1301 31.77 63.1101 31.78 63.0901 31.79C61.2401 31.27 61.0601 29.1601 54.3001 28.9201C53.6201 28.9001 52.9401 29.55 52.2601 29.6C52.2501 29.6 52.2301 29.6 52.2101 29.59C52.1901 29.59 52.1801 29.59 52.1601 29.6C51.4901 29.55 50.8101 28.9001 50.1301 28.9201C43.9301 29.1301 43.2201 30.92 41.7201 31.62C41.5701 31.67 41.4201 31.72 41.2701 31.78C37.6801 30.35 34.2101 25.39 31.0201 25.88C30.7401 25.92 30.4801 25.99 30.2301 26.09C26.8301 27.37 26.0501 33.07 26.4001 36.16C26.8401 40.03 27.4901 42.04 29.7201 43.43C29.6501 43.66 29.7301 43.66 29.9601 43.48C28.2701 47.22 26.8101 51.67 26.8101 55.87C26.8101 56.37 26.8401 56.87 26.9101 57.36C27.1601 59.27 27.8801 61.11 28.9301 62.84C33.6401 70.56 45.0901 76.1 51.9001 76.27C52.0101 76.27 52.1201 76.28 52.2201 76.28H52.5401H52.5001C52.5601 76.28 52.6301 76.28 52.6901 76.28C60.4601 76.07 71.1601 70.61 75.5801 62.99C76.6301 61.2 77.3201 59.3 77.5501 57.31C77.5601 57.18 77.5801 57.0501 77.5901 56.9201C77.6201 56.5701 77.6301 56.22 77.6301 55.87C77.6301 51.67 76.1701 47.22 74.4801 43.48C74.7101 43.66 74.8001 43.66 74.7201 43.43C76.9501 42.04 77.6001 40.03 78.0401 36.16H78.0301Z" fill="#2F150C"/>
<path d="M77.6201 55.87C77.6201 56.22 77.6101 56.58 77.5801 56.92C77.5701 57.05 77.5501 57.18 77.5401 57.31C77.3101 59.29 76.6201 61.2 75.5701 62.99C71.1201 70.65 60.3201 76.14 52.5301 76.28C52.4201 76.28 52.3201 76.28 52.2101 76.28C45.4501 76.28 33.7101 70.68 28.9301 62.84C27.8701 61.11 27.1601 59.27 26.9101 57.36C26.8401 56.87 26.8101 56.37 26.8101 55.87C26.8101 45.92 35.0101 34.56 35.0101 34.56C35.0101 34.56 43.3001 29.73 52.2101 29.73C60.6001 29.73 69.4101 34.56 69.4101 34.56C69.4101 34.56 77.6101 45.93 77.6101 55.87H77.6201Z" fill="#D3AA7F"/>
<path d="M52.2201 76.29C48.4401 76.29 42.8101 74.03 38.2001 70.66C32.9101 66.8 29.5701 62 29.0301 57.51C28.9701 57.07 28.9501 56.62 28.9501 56.16C28.9501 47.15 35.1601 36.66 36.5101 34.48C38.1901 33.49 45.0801 29.74 52.2201 29.74C58.9601 29.74 66.1501 33.5 67.9501 34.5C69.3301 36.73 75.5001 47.18 75.5001 56.16C75.5001 56.49 75.4901 56.82 75.4601 57.14C75.4601 57.26 75.4401 57.38 75.4301 57.5C74.3201 67.98 60.7601 76.13 52.5001 76.3H52.5401H52.2201V76.29Z" fill="#EDC494"/>
<path d="M31.5601 52.0501C31.5601 52.0501 36.4701 62.2001 40.6801 62.2001C43.9001 62.2001 47.9301 60.5501 47.9301 60.5501C47.9301 60.5501 49.6401 43.6401 40.3101 43.1001C36.1101 42.8601 31.5701 52.0501 31.5701 52.0501H31.5601Z" fill="#D3AA7F"/>
<path d="M72.9601 52.0501C72.9601 52.0501 68.0501 62.2001 63.8401 62.2001C60.6201 62.2001 56.5901 60.5501 56.5901 60.5501C56.5901 60.5501 54.8801 43.6401 64.2101 43.1001C68.4101 42.8601 72.9501 52.0501 72.9501 52.0501H72.9601Z" fill="#D3AA7F"/>
<path opacity="0.7" d="M75.5701 62.99C71.1201 70.65 60.3201 76.14 52.5301 76.28C52.4201 76.28 52.3201 76.28 52.2101 76.28C45.4501 76.28 33.7101 70.68 28.9301 62.84C30.2801 62.61 33.3301 62.36 36.8301 64.05C38.1501 64.69 39.6501 65.41 41.4301 66.24C41.6501 66.34 41.8701 66.47 42.1001 66.6C42.8301 67.02 43.6601 67.5 44.9501 67.5C45.8101 67.5 46.7601 67.28 47.8501 66.84C49.0501 66.35 50.1801 66.11 51.2101 66.11C51.5401 66.11 51.8001 66.13 51.9801 66.15C52.1101 66.16 52.2201 66.17 52.2901 66.17H52.4001H52.4301H52.5901L52.6901 66.12C52.6901 66.12 52.8601 66.08 53.1901 66.08C53.8501 66.08 55.0301 66.24 56.9001 67C57.9301 67.42 58.8401 67.62 59.6901 67.63C60.3801 67.63 60.9501 67.49 61.4401 67.3C61.9301 67.11 62.3501 66.86 62.7201 66.63C62.9701 66.48 63.2101 66.34 63.4401 66.23C65.2201 65.4 66.7101 64.68 68.0301 64.04C72.1501 62.05 73.6601 62.87 75.5501 62.97L75.5701 62.99Z" fill="white"/>
<path d="M55.4001 71.3101C55.4001 71.9601 54.6901 72.5301 53.8801 72.8901C53.3201 73.1401 52.7101 73.2801 52.2401 73.2801C51.7701 73.2801 51.1601 73.1401 50.6001 72.8901C49.7801 72.5301 49.0601 71.9601 49.0601 71.3001C49.0601 70.2101 51.0701 69.3301 52.2301 69.3301C53.3901 69.3301 55.4001 70.2101 55.4001 71.3001V71.3101Z" fill="#B3576F"/>
<path opacity="0.2" d="M55.8802 72.07C55.8802 72.87 55.0502 73.58 54.0802 74.02C53.4202 74.32 52.7002 74.5 52.1402 74.5C51.5802 74.5 50.8702 74.32 50.2102 74.02C49.2402 73.58 48.4001 72.87 48.4001 72.06C48.4001 70.71 50.7702 69.62 52.1402 69.62C53.5102 69.62 55.8701 70.71 55.8701 72.06L55.8802 72.07Z" fill="#565656"/>
<path d="M52.1701 69.9701C52.1701 70.8201 53.8001 71.8901 55.3601 71.8901C56.9201 71.8901 57.8201 69.96 57.8201 69.11C57.8201 68.26 57.3901 67.7001 55.8301 67.7001C54.7901 67.7001 53.1401 68.0001 52.4201 68.6801C52.0601 69.0301 52.1701 69.6801 52.1701 69.9701Z" fill="white"/>
<path d="M52.1701 69.9701C52.1701 70.8201 50.9001 72.0101 49.3401 72.0101C47.7801 72.0101 46.6801 70.3101 46.6801 69.4601C46.6801 68.6101 47.1601 67.8501 48.7301 67.8501C49.7701 67.8501 51.1801 68.3301 51.9001 69.0201C52.2601 69.3601 52.1601 69.6901 52.1601 69.9701H52.1701Z" fill="white"/>
<path d="M36.1101 45.33C36.1101 45.33 36.1201 45.29 36.1601 45.22C36.2001 45.15 36.2501 45.04 36.3301 44.92C36.4101 44.79 36.5201 44.65 36.6501 44.49C36.7901 44.34 36.9401 44.15 37.1401 43.99C37.2401 43.91 37.3401 43.82 37.4501 43.73C37.5701 43.65 37.6901 43.57 37.8101 43.49C37.9301 43.4 38.0701 43.34 38.2101 43.27C38.3501 43.2 38.4901 43.12 38.6501 43.07C38.9601 42.96 39.2901 42.84 39.6401 42.8C39.9901 42.72 40.3501 42.73 40.7101 42.72C41.0701 42.72 41.4201 42.81 41.7701 42.86C42.1001 42.96 42.4301 43.08 42.7301 43.2C43.0201 43.36 43.2901 43.51 43.5401 43.67C43.7801 43.84 43.9901 44.03 44.1801 44.2C44.2701 44.29 44.3601 44.37 44.4501 44.45C44.5301 44.53 44.5901 44.62 44.6601 44.7C44.7901 44.86 44.8901 45.01 44.9801 45.12C45.1501 45.36 45.2301 45.5 45.2301 45.5C45.2301 45.5 45.0601 45.45 44.8001 45.33C44.6701 45.27 44.5101 45.21 44.3301 45.12C44.1601 45.03 43.9501 44.96 43.7301 44.88C43.5101 44.8 43.2901 44.7 43.0401 44.61C42.7901 44.54 42.5401 44.46 42.2801 44.37C42.0101 44.31 41.7401 44.26 41.4701 44.2C41.3301 44.19 41.1901 44.18 41.0601 44.16C40.9201 44.15 40.7801 44.11 40.6401 44.13C40.3601 44.13 40.0801 44.11 39.8101 44.15C39.6701 44.17 39.5301 44.15 39.4001 44.19C39.2701 44.22 39.1301 44.24 39.0001 44.26C38.8701 44.27 38.7401 44.33 38.6101 44.35C38.4801 44.38 38.3501 44.41 38.2401 44.45C38.0001 44.52 37.7601 44.6 37.5501 44.68C37.3301 44.75 37.1401 44.84 36.9601 44.91C36.7901 45 36.6201 45.05 36.5001 45.12C36.3701 45.18 36.2701 45.23 36.2001 45.26C36.1301 45.3 36.0901 45.31 36.0901 45.31L36.1101 45.33Z" fill="#232222"/>
<path d="M68.2401 45.33C68.2401 45.33 68.2001 45.31 68.1301 45.28C68.0601 45.25 67.9601 45.2 67.8301 45.14C67.7101 45.07 67.5401 45.02 67.3701 44.93C67.1901 44.86 67.0001 44.77 66.7801 44.7C66.5701 44.61 66.3301 44.54 66.0901 44.47C65.9701 44.43 65.8401 44.4 65.7201 44.37C65.5901 44.35 65.4701 44.29 65.3301 44.28C65.2001 44.26 65.0601 44.24 64.9301 44.21C64.8001 44.18 64.6601 44.19 64.5201 44.17C64.2501 44.13 63.9701 44.15 63.6901 44.15C63.5501 44.14 63.4101 44.17 63.2701 44.18C63.1301 44.2 62.9901 44.21 62.8601 44.22C62.5901 44.29 62.3201 44.34 62.0501 44.39C61.7901 44.48 61.5401 44.56 61.2901 44.63C61.0501 44.72 60.8201 44.82 60.6001 44.9C60.3801 44.98 60.1701 45.05 60.0001 45.14C59.8301 45.23 59.6701 45.29 59.5301 45.35C59.2601 45.46 59.1001 45.52 59.1001 45.52C59.1001 45.52 59.1801 45.37 59.3501 45.14C59.4401 45.02 59.5401 44.87 59.6701 44.72C59.7401 44.64 59.8001 44.55 59.8801 44.47C59.9601 44.39 60.0501 44.31 60.1501 44.22C60.3401 44.05 60.5501 43.86 60.7901 43.69C61.0401 43.54 61.3101 43.38 61.6001 43.22C61.9001 43.09 62.2301 42.98 62.5601 42.88C62.9101 42.82 63.2601 42.74 63.6201 42.74C63.9801 42.74 64.3401 42.74 64.6901 42.82C65.0401 42.86 65.3701 42.98 65.6801 43.09C65.8401 43.14 65.9801 43.22 66.1201 43.29C66.2601 43.36 66.4001 43.43 66.5201 43.51C66.6401 43.59 66.7601 43.67 66.8801 43.75C66.9901 43.83 67.0901 43.92 67.1901 44.01C67.3901 44.17 67.5401 44.36 67.6801 44.51C67.8101 44.67 67.9201 44.81 68.0001 44.94C68.0801 45.06 68.1401 45.17 68.1701 45.24C68.2001 45.31 68.2201 45.35 68.2201 45.35L68.2401 45.33Z" fill="#232222"/>
<path d="M53.8801 72.89C53.3201 73.14 52.7101 73.28 52.2401 73.28C51.7701 73.28 51.1601 73.14 50.6001 72.89C50.7101 72.44 51.1101 72.11 51.6001 72.11C51.8501 72.11 52.0701 72.2 52.2401 72.34C52.4201 72.2 52.6401 72.11 52.8801 72.11C53.3601 72.11 53.7701 72.44 53.8801 72.89Z" fill="#ED7693"/>
<path d="M78.0301 36.16C77.5901 40.03 76.9401 42.04 74.7101 43.43C75.3601 45.42 63.7901 29.99 52.2201 29.99C40.6501 29.99 29.0801 45.42 29.7201 43.43C27.4901 42.04 26.8501 40.03 26.4001 36.16C26.0501 33.07 26.8301 27.37 30.2301 26.09C30.4801 25.99 30.7401 25.92 31.0201 25.88C34.2101 25.39 37.6801 30.35 41.2701 31.78C41.2701 31.78 41.2801 31.78 41.2901 31.78C43.1401 31.26 43.3701 29.15 50.1301 28.91C50.8101 28.89 51.4901 29.54 52.1601 29.59C52.1801 29.59 52.1901 29.59 52.2101 29.58C52.2201 29.58 52.2401 29.58 52.2601 29.59C52.9401 29.54 53.6101 28.89 54.3001 28.91C61.0601 29.14 61.2401 31.25 63.0901 31.78C63.1101 31.78 63.1301 31.77 63.1501 31.76C66.7301 30.32 70.2301 25.39 73.4101 25.88C73.6901 25.92 73.9501 25.99 74.2001 26.09C77.6001 27.36 78.3801 33.07 78.0301 36.16Z" fill="#D3AA7F"/>
<path d="M39.8502 32.4801C36.8902 31.3201 33.7702 27.2101 31.1402 27.6201C27.7802 28.1401 27.0202 33.3601 27.3302 36.0901C27.6902 39.2801 28.2302 40.9401 30.0602 42.0801C29.5002 43.8101 31.3402 39.6901 34.2402 36.6501C36.8502 33.9101 40.5702 32.2801 39.8502 32.4901V32.4801Z" fill="#F8A081"/>
<path d="M37.2001 66.6801C37.1401 66.8801 36.3901 66.9101 36.3901 66.9101C36.3901 66.9101 36.3101 67.4301 36.1601 67.4901C36.0201 67.5501 35.5801 67.2601 35.5801 67.2601L35.3701 66.6801L35.8201 66.3301L36.1601 66.2701L36.7301 66.1001C36.7301 66.1001 37.2501 66.4901 37.2001 66.6701V66.6801Z" fill="#231F20"/>
<path d="M52.68 68.74C52.82 69.12 53.45 69.1001 54.09 68.7001C54.72 68.3001 55.12 67.68 54.98 67.3C54.84 66.92 54.2101 66.94 53.5701 67.34C52.9401 67.74 52.54 68.37 52.68 68.74Z" fill="#0F0F10"/>
<path d="M51.7701 68.74C51.6301 69.12 51.0001 69.1001 50.3601 68.7001C49.7301 68.3001 49.3301 67.67 49.4701 67.3C49.6101 66.92 50.2401 66.94 50.8801 67.34C51.5101 67.74 51.9101 68.36 51.7701 68.74Z" fill="#0F0F10"/>
<path d="M47.5501 60.24C48.4001 60.49 45.8901 63.62 45.8901 63.62C45.8901 63.62 42.3901 64.42 38.6701 63.96C32.1901 63.16 31.5601 52.62 31.5601 52.05C31.5601 51.48 35.4901 61.12 39.8801 61.12C44.2701 61.12 47.0001 60.08 47.5501 60.24Z" fill="white"/>
<path d="M44.7201 44.42C45.0101 44.59 44.9101 45.32 44.4801 46.06C44.0601 46.8 43.4801 47.26 43.1801 47.09C42.8901 46.92 42.9901 46.19 43.4201 45.45C43.8401 44.71 44.4201 44.25 44.7201 44.41V44.42Z" fill="#231F20"/>
<path d="M59.4901 44.03C59.2301 44.15 58.7001 44.88 59.3601 45.35C59.9301 45.76 59.9301 46.55 61.1501 46.44C61.4401 46.42 61.2601 45.68 60.8001 45.01C60.3401 44.34 59.7501 43.9 59.4901 44.02V44.03Z" fill="#231F20"/>
<path d="M42.5501 35.37C42.2701 35.33 41.9901 35.06 42.0301 35.37C42.0601 35.68 41.9601 35.84 42.5501 35.95C43.1401 36.06 43.2901 36.23 43.8401 36.15C44.4001 36.06 44.6801 35.96 44.5901 35.7C44.5001 35.44 44.3301 35.3 44.0501 34.98C43.7701 34.67 43.2501 34.81 43.0701 34.76C42.9001 34.7 42.6501 34.88 42.6201 34.98C42.5801 35.08 42.5501 35.37 42.5501 35.37Z" fill="#231F20"/>
<path d="M55.0301 35.6801C54.7501 35.6401 54.4701 35.3701 54.5101 35.6801C54.5401 35.9901 54.4401 36.1601 55.0301 36.2601C55.6201 36.3701 55.7701 36.5401 56.3201 36.4601C56.8801 36.3701 57.1601 36.2701 57.0701 36.0101C56.9801 35.7501 56.8101 35.6101 56.5301 35.2901C56.2501 34.9801 55.7301 35.1201 55.5501 35.0701C55.3801 35.0101 55.1301 35.1901 55.1001 35.2901C55.0701 35.4001 55.0301 35.6801 55.0301 35.6801Z" fill="#231F20"/>
<path d="M44.36 31.0501C44.42 30.9001 44.42 30.9701 44.73 30.7601C45.04 30.5501 45.2801 30.4501 45.6301 30.3401C45.9801 30.2401 46.1501 29.9201 46.4901 30.3401C46.8301 30.7601 47.2201 30.5601 46.8501 31.0501C46.4801 31.5401 46.38 31.7101 45.94 31.7601C45.5 31.8101 45.0101 31.8201 44.8501 31.8101C44.6901 31.8001 44.2601 31.6001 44.2401 31.5201C44.2301 31.4401 44.36 31.0501 44.36 31.0501Z" fill="#231F20"/>
<path d="M63.7801 42.7701C63.9501 42.5701 64.0901 42.5101 64.6001 42.4201C65.1101 42.3401 65.3401 42.4801 65.6001 42.5901C65.8601 42.7101 66.0001 42.4401 65.6001 43.2001C65.2001 43.9601 65.1701 44.1101 64.6001 44.0801C64.0401 44.0501 63.7601 44.0801 63.6701 43.7601C63.5701 43.4401 63.7801 42.7501 63.7801 42.7501V42.7701Z" fill="#231F20"/>
<path d="M37.7701 35.7C37.9401 35.5 38.08 35.44 38.59 35.35C39.1 35.27 39.33 35.41 39.59 35.52C39.85 35.64 39.99 35.37 39.59 36.13C39.19 36.89 39.16 37.04 38.59 37.01C38.03 36.98 37.7501 37.01 37.6601 36.69C37.5601 36.37 37.7701 35.68 37.7701 35.68V35.7Z" fill="#231F20"/>
<path d="M58.7801 34.56C59.1101 34.33 59.1501 34.19 59.8001 34.35C60.4501 34.51 60.9201 34.4501 61.1501 35.0401C61.3801 35.6301 61.2401 36.45 61.1501 36.69C61.0601 36.93 60.6401 37.46 60.3101 37.19C59.9801 36.93 59.6401 36.47 59.2301 36.21C58.8201 35.95 58.6301 35.95 58.5801 35.62C58.5301 35.29 58.7701 34.55 58.7701 34.55L58.7801 34.56Z" fill="#231F20"/>
<path d="M62.4101 31.93C62.8801 32.09 63.8501 32.7 64.1301 32.86C64.4101 33.02 64.5201 33.21 64.7401 33.62C64.9701 34.04 65.3501 34.38 64.7401 34.46C64.1301 34.55 64.0801 34.64 63.3301 34.22C62.5801 33.8 62.7201 33.82 62.4001 33.23C62.0701 32.64 62.0701 33.01 62.0701 32.64C62.0701 32.27 62.4001 31.92 62.4001 31.92L62.4101 31.93Z" fill="#231F20"/>
<path d="M66.18 35.66C65.9 35.59 65.42 35.47 65.47 35.78C65.53 36.09 65.5301 36.44 65.9901 36.8C66.4601 37.16 66.55 37.27 67.01 37.26C67.48 37.26 67.71 37.63 67.62 37.16C67.53 36.69 67.43 36.77 67.11 36.45C66.78 36.13 66.18 35.65 66.18 35.65V35.66Z" fill="#231F20"/>
<path d="M72.0901 43.77C71.7801 43.69 71.6901 43.6 71.5901 44.09C71.5001 44.57 71.8401 45.2 72.0901 45.42C72.3401 45.64 72.4801 45.71 72.9001 45.72C73.3201 45.73 73.6001 45.89 73.5101 45.42C73.4201 44.94 73.2301 44.26 73.0401 44.09C72.8501 43.92 72.9901 43.73 72.8101 43.71C72.6201 43.69 72.1001 43.77 72.1001 43.77H72.0901Z" fill="#231F20"/>
<path d="M34.0301 42.7101C34.3401 42.6301 34.4301 42.5501 34.5301 43.0301C34.6301 43.5101 34.2801 44.1401 34.0301 44.3601C33.7801 44.5801 33.6401 44.6501 33.2201 44.6601C32.8001 44.6701 32.5201 44.8301 32.6101 44.3601C32.7001 43.8801 32.8901 43.2001 33.0801 43.0301C33.2701 42.8601 33.1301 42.6701 33.3101 42.6501C33.5001 42.6301 34.0301 42.7101 34.0301 42.7101Z" fill="#231F20"/>
<path d="M51.7602 37.1001C51.7602 37.1001 52.0402 36.4001 51.0602 36.2601C50.0802 36.1201 49.5102 36.1701 49.3502 36.2601C49.1902 36.3501 48.8202 36.1701 49.0502 36.6301C49.2802 37.0901 49.2902 37.0501 49.8202 37.5601C50.3502 38.0701 50.0302 38.4401 50.7702 38.1701C51.5202 37.8901 51.2201 37.4701 51.7901 37.6101C52.3601 37.7501 52.1702 38.0301 52.8702 37.8401C53.5702 37.6501 53.7602 38.0301 53.8002 37.2101C53.8502 36.3901 53.7502 36.3501 53.2402 36.4401C52.7302 36.5301 51.7502 37.0901 51.7502 37.0901L51.7602 37.1001Z" fill="#231F20"/>
<path d="M51.4 34.82C50.64 34.31 50.83 34.26 50.13 33.47C49.43 32.68 48.96 32.63 49.36 32.17C49.76 31.7 49.99 31.52 50.51 31.66C51.02 31.8 51.44 31.89 51.63 32.5C51.82 33.11 51.89 33.57 52.2 33.22C52.51 32.87 52.75 32.45 53.17 32.45C53.59 32.45 54.01 32.17 54.23 32.87C54.45 33.57 54.61 33.52 53.82 34.08C53.03 34.64 52.59 34.78 52.2 34.83C51.81 34.88 51.41 34.83 51.41 34.83L51.4 34.82Z" fill="#231F20"/>
<path d="M53.1301 54.33C53.1301 54.98 52.7901 55.51 52.3601 55.51C51.9301 55.51 51.5901 54.98 51.5901 54.33C51.5901 53.68 51.9301 53.15 52.3601 53.15C52.7901 53.15 53.1301 53.68 53.1301 54.33Z" fill="#231F20"/>
<path d="M51.3901 50.7001C51.3901 51.0601 51.1001 51.3401 50.7501 51.3401C50.4001 51.3401 50.1101 51.0501 50.1101 50.7001C50.1101 50.3501 50.4001 50.05 50.7501 50.05C51.1001 50.05 51.3901 50.3401 51.3901 50.7001Z" fill="#231F20"/>
<path d="M52.59 51.1901C52.72 51.5901 53.32 51.7601 53.93 51.5601C54.53 51.3601 54.92 50.8701 54.78 50.4701C54.65 50.0701 54.0501 49.9001 53.4401 50.1001C52.8401 50.3001 52.45 50.7901 52.59 51.1901Z" fill="#231F20"/>
<path d="M67.92 68.41C67.92 68.41 67.84 68.65 68.13 68.99C68.42 69.33 68.36 69.4 68.96 69.24C69.56 69.08 69.91 69.02 69.98 68.55C70.04 68.07 70.29 67.8101 69.85 67.7301C69.41 67.6501 69.25 67.8201 68.89 67.8901C68.53 67.9601 67.93 68.41 67.93 68.41H67.92Z" fill="#231F20"/>
<path d="M52.3701 46.72C52.7301 46.24 52.5501 46.19 53.0001 46.19C53.4501 46.19 53.9601 46.16 54.1701 46.46C54.3701 46.76 54.3201 46.92 54.1701 47.3C54.0201 47.68 53.3301 47.8301 53.0001 47.7601C52.6801 47.6901 52.3701 47.3 52.3701 47.3V46.7301V46.72Z" fill="#231F20"/>
<path d="M50.1101 45.42C50.1901 45.02 50.3301 44.84 50.5801 44.7C50.8301 44.56 51.3401 44.37 51.3901 44.7C51.4401 45.03 51.9501 45.19 51.3901 45.74C50.8301 46.29 50.49 46.19 50.29 46.19C50.09 46.19 50.1001 45.42 50.1001 45.42H50.1101Z" fill="#231F20"/>
<path d="M49.1501 42.83C48.7401 42.88 48.5102 42.62 48.2702 43.07C48.0402 43.53 48.0101 43.53 48.0001 43.9C48.0001 44.27 47.9002 44.66 48.3602 44.51C48.8302 44.36 49.0502 44.13 49.1902 43.99C49.3302 43.85 49.4702 43.52 49.4702 43.38C49.4702 43.24 49.1302 42.82 49.1302 42.82L49.1501 42.83Z" fill="#231F20"/>
<path d="M51.8001 41.9501C51.4701 42.2301 51.6101 42.53 51.6101 42.61C51.6101 42.69 51.9601 43.2501 52.1801 43.4801C52.4001 43.7101 52.2301 43.8501 52.5701 43.7101C52.9101 43.5701 53.1901 42.9301 53.1001 42.8501C53.0101 42.7801 52.5701 41.9401 52.5701 41.9401H51.7901L51.8001 41.9501Z" fill="#231F20"/>
<path d="M63.9901 70.3701C64.2601 70.7001 64.5701 70.5701 64.6501 70.5701C64.7301 70.5701 65.3001 70.2301 65.5301 70.0101C65.7701 69.7901 65.9001 69.9601 65.7701 69.6201C65.6401 69.2801 65.0001 68.9901 64.9201 69.0801C64.8401 69.1701 64.0001 69.5901 64.0001 69.5901V70.3701H63.9901Z" fill="#231F20"/>
<path d="M44.9 40C44.62 40 44.4 39.91 44.32 40.33C44.25 40.75 44.09 40.89 44.61 41.08C45.13 41.26 45.68 41.55 45.85 41.08C46.02 40.61 46.51 40.08 46.38 40C46.25 39.92 45.64 39.73 45.64 39.73L44.89 40.01L44.9 40Z" fill="#231F20"/>
<path d="M44.7201 37.2201C44.3001 37.4301 43.7401 37.6601 44.0201 37.8901C44.3001 38.1201 44.6301 38.3601 45.2801 38.2701C45.9301 38.1701 46.4001 37.9901 46.6801 37.7601C46.9601 37.5301 47.1901 37.2501 46.9601 36.9701C46.7301 36.6901 46.2501 36.6901 46.2501 36.6901L45.5001 37.2301H44.7201V37.2201Z" fill="#231F20"/>
<path d="M55.3 40.6901C55.3 40.6901 54.79 40.9501 54.65 41.1801C54.51 41.4101 54.42 41.7201 54.65 41.9801C54.88 42.2501 55.2 42.3901 55.53 42.2901C55.86 42.2001 56.14 42.0101 56.14 41.7301C56.14 41.4501 55.95 41.1701 55.95 41.1701L55.3 40.6801V40.6901Z" fill="#231F20"/>
<path d="M39.3201 69.0901C39.3201 69.0901 38.7401 69.3801 38.5801 69.6401C38.4201 69.9001 38.3201 70.2501 38.5801 70.5501C38.8401 70.8501 39.2001 71.0101 39.5701 70.9001C39.9401 70.7901 40.2601 70.5801 40.2601 70.2701C40.2601 69.9601 40.0501 69.6401 40.0501 69.6401L39.3101 69.0901H39.3201Z" fill="#231F20"/>
<path d="M60.6301 39.93C60.6301 40.25 60.6001 40.73 59.9601 40.65C59.8001 40.63 59.4301 40.96 59.2401 40.96C58.5801 40.96 58.2501 40.38 58.2501 39.94C58.2501 39.77 58.4401 39.4 58.5801 39.27C58.8001 39.07 59.0401 38.71 59.4301 38.71C60.0901 38.71 60.6201 39.5 60.6201 39.94L60.6301 39.93Z" fill="#231F20"/>
<path d="M58.3101 32.4001C58.3101 32.6601 57.8601 32.8701 57.3201 32.8701C56.7801 32.8701 56.3301 32.6601 56.3301 32.4001C56.3301 32.1401 56.7801 31.9301 57.3201 31.9301C57.8601 31.9301 58.3101 32.1401 58.3101 32.4001Z" fill="#231F20"/>
<path d="M68.5701 65.5801L68.6801 65.7401V65.9301L68.6001 66.1101L68.6601 66.3301L68.5001 66.4801L68.5101 66.7001L68.3801 66.8601L68.2601 67.0301L68.0301 67.0701L67.9101 67.2301L67.7401 67.3701L67.5201 67.3301L67.3601 67.1501L67.4801 66.9301L67.3601 66.7201L67.4501 66.5401L67.4901 66.3301L67.6801 66.2001L67.7901 66.0401L67.8601 65.8501L68.0501 65.7501L68.2201 65.6701L68.3901 65.5901L68.5701 65.5801Z" fill="#231F20"/>
<path d="M35.4701 68.43C35.3701 68.67 34.8801 68.69 34.3701 68.49C33.8601 68.28 33.5301 67.92 33.6201 67.68C33.7201 67.44 34.2101 67.42 34.7201 67.62C35.2301 67.83 35.5601 68.19 35.4601 68.43H35.4701Z" fill="#231F20"/>
<path d="M48.94 70.18C48.94 70.18 48.91 70.25 48.87 70.25C48.83 70.25 48.8 70.22 48.8 70.18C48.8 70.14 48.83 70.11 48.87 70.11C48.91 70.11 48.94 70.14 48.94 70.18Z" fill="#231F20"/>
<path d="M50.0401 69.71C50.0401 69.71 50.0102 69.78 49.9702 69.78C49.9302 69.78 49.9001 69.75 49.9001 69.71C49.9001 69.67 49.9302 69.64 49.9702 69.64C50.0102 69.64 50.0401 69.67 50.0401 69.71Z" fill="#231F20"/>
<path d="M49.8002 70.95C49.8002 70.95 49.7701 71.02 49.7301 71.02C49.6901 71.02 49.6602 70.99 49.6602 70.95C49.6602 70.91 49.6901 70.88 49.7301 70.88C49.7701 70.88 49.8002 70.91 49.8002 70.95Z" fill="#231F20"/>
<path d="M50.81 70.4101C50.81 70.4101 50.7801 70.4801 50.7401 70.4801C50.7001 70.4801 50.67 70.4501 50.67 70.4101C50.67 70.3701 50.7001 70.3401 50.7401 70.3401C50.7801 70.3401 50.81 70.3701 50.81 70.4101Z" fill="#231F20"/>
<path d="M53.4001 70.18C53.4001 70.18 53.3701 70.25 53.3301 70.25C53.2901 70.25 53.2601 70.22 53.2601 70.18C53.2601 70.14 53.2901 70.11 53.3301 70.11C53.3701 70.11 53.4001 70.14 53.4001 70.18Z" fill="#231F20"/>
<path d="M54.5001 69.72C54.5001 69.72 54.4701 69.79 54.4301 69.79C54.3901 69.79 54.3601 69.76 54.3601 69.72C54.3601 69.68 54.3901 69.65 54.4301 69.65C54.4701 69.65 54.5001 69.68 54.5001 69.72Z" fill="#231F20"/>
<path d="M54.2601 70.96C54.2601 70.96 54.2301 71.03 54.1901 71.03C54.1501 71.03 54.1201 71 54.1201 70.96C54.1201 70.92 54.1501 70.89 54.1901 70.89C54.2301 70.89 54.2601 70.92 54.2601 70.96Z" fill="#231F20"/>
<path d="M55.2701 70.4101C55.2701 70.4101 55.2401 70.4801 55.2001 70.4801C55.1601 70.4801 55.1301 70.4501 55.1301 70.4101C55.1301 70.3701 55.1601 70.3401 55.2001 70.3401C55.2401 70.3401 55.2701 70.3701 55.2701 70.4101Z" fill="#231F20"/>
<path d="M56.8901 60.2601C56.0401 60.5101 58.5501 63.6401 58.5501 63.6401C58.5501 63.6401 62.0501 64.4401 65.7701 63.9801C72.2501 63.1801 72.9701 52.6101 72.9701 52.0501C72.9701 51.4901 68.9601 61.1401 64.5701 61.1401C60.1801 61.1401 57.4501 60.1001 56.9001 60.2601H56.8901Z" fill="white"/>
<path d="M43.3401 50.1C44.8901 50.05 47.6301 53.45 48.0801 55.79C48.5301 58.13 48.5201 60.73 48.4401 60.84C48.3701 60.95 48.3101 60.38 48.2501 59.81C48.1901 59.24 47.6801 57.2 46.9801 55.79C46.2801 54.38 41.4201 50.16 43.3401 50.1Z" fill="url(#paint0_linear_632_4468)"/>
<path d="M43.0801 68.0601C43.6501 68.1901 44.2201 68.3301 44.7901 68.4701C45.0801 68.5401 45.3601 68.6001 45.6401 68.6801C45.9201 68.7701 46.2001 68.8601 46.4701 68.9701C46.1801 68.9501 45.8901 68.8801 45.6001 68.8201C45.3101 68.7501 45.0301 68.66 44.7501 68.58C44.1901 68.42 43.6201 68.2501 43.0601 68.0701L43.0801 68.0601Z" fill="#303030"/>
<path d="M40.7501 70.78L43.2401 70.22C43.6601 70.13 44.0701 70.03 44.4901 69.95C44.9101 69.88 45.3301 69.8 45.7601 69.76C45.3501 69.9 44.9401 70 44.5201 70.09C44.1001 70.18 43.6801 70.25 43.2701 70.33L40.7601 70.79L40.7501 70.78Z" fill="#303030"/>
<path d="M43.17 72.3L44.8 71.31C45.07 71.15 45.34 70.97 45.62 70.82C45.9 70.67 46.18 70.53 46.48 70.4C46.22 70.61 45.95 70.77 45.69 70.94C45.42 71.11 45.13 71.25 44.86 71.4L43.18 72.3H43.17Z" fill="#303030"/>
<path d="M61.2301 68.0701C60.6701 68.2401 60.1101 68.41 59.5401 68.58C59.2601 68.66 58.9801 68.7601 58.6901 68.8201C58.4001 68.8801 58.1201 68.9501 57.8201 68.9801C58.0901 68.8501 58.3701 68.7601 58.6501 68.6701C58.9301 68.5901 59.2201 68.5201 59.5001 68.4601C60.0701 68.3201 60.6401 68.19 61.2101 68.05L61.2301 68.0701Z" fill="#303030"/>
<path d="M63.5601 70.79L61.0501 70.33C60.6301 70.25 60.2101 70.18 59.8001 70.09C59.3801 69.99 58.9701 69.9 58.5601 69.77C58.9901 69.8 59.4101 69.87 59.8301 69.95C60.2501 70.03 60.6601 70.13 61.0801 70.22L63.5701 70.78L63.5601 70.79Z" fill="#303030"/>
<path d="M61.1301 72.31L59.4501 71.41C59.1701 71.26 58.8901 71.12 58.6201 70.95C58.3501 70.78 58.0801 70.61 57.8301 70.42C58.1301 70.53 58.4101 70.68 58.6901 70.82C58.9701 70.97 59.2401 71.14 59.5101 71.31L61.1401 72.3L61.1301 72.31Z" fill="#303030"/>
<path d="M47.3601 55.0801C48.2401 56.9701 49.0901 58.8201 48.0601 62.5901C47.8501 63.3701 45.3301 65.1801 44.9901 66.7501C44.3901 69.5301 45.4001 72.6701 45.4001 72.6701C45.4001 72.6701 43.7401 68.7701 44.4701 66.4701C44.8101 65.4001 46.8001 63.0901 46.1301 63.0901C44.8501 63.0901 42.1501 62.5101 41.5101 62.5401C40.6501 62.5901 47.3601 55.0901 47.3601 55.0901V55.0801Z" fill="url(#paint1_linear_632_4468)"/>
<path d="M61.3102 50.0101C59.4002 50.2501 56.8002 53.4601 56.3602 55.7901C55.9202 58.1301 55.9202 60.73 56.0002 60.84C56.0702 60.95 56.1302 60.3801 56.1902 59.8101C56.2502 59.2401 56.7602 57.2001 57.4602 55.7901C58.1602 54.3801 63.6802 49.7001 61.3102 50.0101Z" fill="url(#paint2_linear_632_4468)"/>
<path d="M57.0701 55.0801C56.1901 56.9701 55.3401 58.8201 56.3701 62.5901C56.5801 63.3701 59.1001 65.1801 59.4401 66.7501C60.0401 69.5301 59.0301 72.6701 59.0301 72.6701C59.0301 72.6701 60.6901 68.7701 59.9601 66.4701C59.6201 65.4001 57.6301 63.0901 58.3001 63.0901C59.5801 63.0901 61.8201 62.5101 62.4501 62.5501C63.3101 62.6001 57.0601 55.1001 57.0601 55.1001L57.0701 55.0801Z" fill="url(#paint3_linear_632_4468)"/>
<path d="M64.58 32.5001C67.54 31.3401 70.66 27.2301 73.29 27.6401C76.65 28.1601 77.41 33.3801 77.1 36.1101C76.74 39.3001 76.2 40.9601 74.37 42.1001C74.93 43.8301 73.09 39.7101 70.19 36.6701C67.58 33.9301 63.86 32.3001 64.58 32.5101V32.5001Z" fill="#F8A081"/>
<path d="M52.18 39.66C52.09 40.59 51.88 48.98 51.89 51.59C51.9 54.2 51.54 58.66 51.77 59.07C52 59.47 52.54 58.84 52.59 55.45C52.64 52.07 52.43 47.48 52.43 46C52.43 44.52 52.19 39.66 52.19 39.66H52.18Z" fill="url(#paint4_linear_632_4468)"/>
<path d="M41.2801 31.7801C41.2401 32.1701 41.0101 32.7201 40.5101 32.9801C39.9201 33.2901 38.3601 34.0301 34.7001 29.6301C33.6701 28.4001 31.8701 26.7901 30.5201 26.2001C30.4201 26.1601 30.3301 26.1201 30.2401 26.0901C30.4901 25.9901 30.7501 25.9201 31.0301 25.8801C34.2201 25.3901 37.6901 30.3501 41.2801 31.7801Z" fill="#191919"/>
<path opacity="0.5" d="M55.3901 71.5801C55.3901 71.5801 55.3801 71.5801 55.3601 71.6001C55.4001 71.6001 55.3901 71.5801 55.3901 71.5801Z" fill="url(#paint5_linear_632_4468)"/>
<path d="M56.8 70.01C56.71 69.9 56.61 69.83 56.53 69.78C56.45 69.73 56.38 69.7 56.33 69.68C56.37 69.7 56.44 69.73 56.52 69.79C56.6 69.84 56.7 69.92 56.78 70.03C56.87 70.14 56.94 70.3 56.95 70.49C56.95 70.68 56.89 70.88 56.78 71.04C56.67 71.21 56.52 71.35 56.35 71.46C56.01 71.68 55.6 71.79 55.2 71.8C55 71.8 54.79 71.78 54.6 71.74C54.4 71.7 54.21 71.63 54.03 71.56C53.85 71.48 53.68 71.4 53.52 71.3C53.36 71.21 53.22 71.1 53.09 71C52.83 70.8 52.63 70.6 52.49 70.46C52.39 70.36 52.32 70.29 52.29 70.25L52.36 68.65H52.07L52.14 70.24C52.14 70.24 52.04 70.34 51.94 70.45C51.8 70.59 51.6 70.78 51.34 70.99C51.21 71.09 51.07 71.2 50.91 71.29C50.75 71.39 50.58 71.47 50.4 71.55C50.22 71.62 50.03 71.69 49.83 71.73C49.63 71.78 49.43 71.79 49.23 71.79C48.82 71.79 48.42 71.68 48.08 71.45C47.91 71.34 47.76 71.2 47.65 71.03C47.54 70.86 47.47 70.67 47.48 70.48C47.48 70.29 47.56 70.13 47.65 70.02C47.73 69.9 47.83 69.83 47.91 69.78C47.99 69.72 48.06 69.69 48.1 69.67C48.05 69.69 47.99 69.72 47.9 69.77C47.82 69.82 47.72 69.89 47.63 70C47.54 70.11 47.45 70.27 47.43 70.48C47.42 70.69 47.48 70.91 47.59 71.09C47.7 71.28 47.85 71.43 48.03 71.56C48.38 71.81 48.8 71.95 49.22 71.98C49.43 71.98 49.65 71.98 49.85 71.95C50.06 71.92 50.26 71.86 50.45 71.8C50.64 71.73 50.83 71.65 50.99 71.56C51.16 71.47 51.31 71.37 51.46 71.28C51.74 71.08 51.96 70.89 52.11 70.75C52.14 70.72 52.17 70.69 52.2 70.66C52.23 70.69 52.26 70.71 52.29 70.75C52.44 70.89 52.66 71.08 52.94 71.28C53.08 71.37 53.23 71.48 53.4 71.56C53.57 71.65 53.75 71.73 53.94 71.8C54.13 71.87 54.33 71.92 54.54 71.95C54.75 71.99 54.96 71.99 55.17 71.98C55.6 71.95 56.02 71.81 56.36 71.56C56.53 71.43 56.68 71.27 56.8 71.09C56.91 70.91 56.98 70.68 56.96 70.48C56.95 70.27 56.86 70.11 56.76 70L56.8 70.01Z" fill="#221E12"/>
<path d="M74.2001 26.09C74.1101 26.12 74.0202 26.1601 73.9202 26.2001C72.5702 26.7901 70.7702 28.4 69.7402 29.63C66.0802 34.02 64.5201 33.2801 63.9301 32.9801C63.4301 32.7201 63.1902 32.16 63.1602 31.76C66.7402 30.32 70.2402 25.39 73.4202 25.88C73.7002 25.92 73.9602 25.99 74.2102 26.09H74.2001Z" fill="#191919"/>
<path d="M54.99 65.8101C54.67 65.0301 52.27 65.7601 52.27 65.7601H52.16C52.16 65.7601 49.76 65.0401 49.44 65.8101C49.33 66.0801 48.81 66.7501 48.99 67.1001C49.48 68.0401 49.68 68.2401 49.76 68.2401C49.81 68.2401 49.85 68.0401 49.88 67.8901C49.92 67.6901 49.96 67.4601 50.07 67.3301C50.14 67.2501 50.22 67.2101 50.29 67.2101C50.58 67.2101 50.84 67.7601 51.12 68.3501L51.2 68.5201C51.31 68.7501 51.33 68.9701 51.35 69.1701C51.39 69.5601 51.41 69.8001 52.12 69.8001C52.12 69.8001 52.18 69.8001 52.21 69.8001C52.24 69.8001 52.26 69.8001 52.29 69.8001C52.99 69.8001 53.02 69.5601 53.06 69.1701C53.08 68.9701 53.1 68.7501 53.21 68.5201L53.29 68.3501C53.57 67.7601 53.83 67.2101 54.12 67.2101C54.2 67.2101 54.28 67.2501 54.34 67.3301C54.45 67.4601 54.49 67.6901 54.53 67.8901C54.56 68.0501 54.6 68.2401 54.65 68.2401C54.73 68.2401 54.93 68.0401 55.42 67.1001C55.6 66.7501 55.08 66.0801 54.97 65.8101H54.99Z" fill="#303030"/>
<path d="M47.9201 60.55C40.1701 64.24 34.7201 61.8501 32.2701 52.2801C32.2701 52.2801 41.5901 45.0501 46.5301 54.3201C47.3001 55.7601 47.9201 60.5401 47.9201 60.5401V60.55Z" fill="white"/>
<path d="M40.4401 61.16C38.2901 61.11 36.4901 59.41 35.7901 57.04C35.5801 56.32 35.4701 55.53 35.4901 54.72C35.5601 51.42 37.6101 50.25 40.1901 50.17C40.3501 50.17 40.5101 50.17 40.6701 50.17C43.4801 50.23 45.6101 53.15 45.6501 54.94C45.7401 58.44 43.2401 61.23 40.4401 61.17V61.16Z" fill="#FBBF3A"/>
<path d="M40.4601 60.27C38.8301 60.23 37.4001 58.84 36.8201 56.72C36.6301 56.04 36.5401 55.33 36.5601 54.6C36.6101 52.14 37.7701 50.96 40.2201 50.89C40.3401 50.89 40.4701 50.89 40.5901 50.89H40.6601C42.8701 50.94 44.5601 53.52 44.5901 54.84C44.6301 56.44 44.1001 57.97 43.1201 59.03C42.3701 59.84 41.4501 60.29 40.5201 60.29H40.4601V60.27Z" fill="#AF6C3E"/>
<path d="M56.5701 60.55C64.3201 64.24 69.7701 61.8501 72.2201 52.2801C72.2201 52.2801 62.9001 45.0501 57.9601 54.3201C57.1901 55.7601 56.5701 60.5401 56.5701 60.5401V60.55Z" fill="white"/>
<path d="M64.0601 61.16C66.2101 61.11 68.0101 59.41 68.7101 57.04C68.9201 56.32 69.0301 55.53 69.0101 54.72C68.9401 51.42 66.8901 50.25 64.3101 50.17C64.1501 50.17 63.9901 50.17 63.8301 50.17C61.0201 50.23 58.8901 53.15 58.8501 54.94C58.7601 58.44 61.2601 61.23 64.0601 61.17V61.16Z" fill="#FBBF3A"/>
<path d="M63.97 60.27C63.04 60.27 62.12 59.82 61.37 59.01C60.4 57.95 59.86 56.43 59.9 54.83C59.93 53.51 61.62 50.93 63.84 50.88H63.9C64.02 50.88 64.15 50.88 64.27 50.88C66.72 50.96 67.88 52.14 67.93 54.59C67.95 55.32 67.86 56.04 67.67 56.71C67.08 58.84 65.65 60.23 64.02 60.27H63.96H63.97Z" fill="#AF6C3E"/>
<path d="M40.7801 53.4001C40.7401 55.5201 39.3201 57.2101 37.6201 57.1701C36.8501 57.1501 36.1601 56.7901 35.6301 56.2001C35.4401 55.5701 35.3501 54.8801 35.3601 54.1601C35.4201 51.2701 37.2101 50.2401 39.4801 50.1801C40.2901 50.8801 40.8101 52.0701 40.7801 53.4001Z" fill="white"/>
<path d="M43.45 59.5301C43.43 60.2501 42.96 60.8201 42.38 60.8101C41.8 60.8001 41.35 60.2101 41.36 59.4901C41.37 58.7701 41.85 58.2001 42.43 58.2101C43.01 58.2201 43.46 58.8101 43.45 59.5301Z" fill="white"/>
<path d="M63.9201 53.72C63.8801 55.84 62.4601 57.53 60.7601 57.5C59.9901 57.48 59.3001 57.12 58.7701 56.53C58.5801 55.9 58.4901 55.21 58.5001 54.49C58.5601 51.6 60.3501 50.57 62.6201 50.51C63.4301 51.21 63.9501 52.4 63.9201 53.73V53.72Z" fill="white"/>
<path d="M66.8001 59.5301C66.7801 60.2501 66.3101 60.8201 65.7301 60.8101C65.1501 60.8001 64.7001 60.2101 64.7101 59.4901C64.7301 58.7701 65.2001 58.2001 65.7801 58.2101C66.3601 58.2201 66.8101 58.8101 66.8001 59.5301Z" fill="white"/>
<path opacity="0.1" d="M47.9201 60.55C47.4501 60.78 46.9801 60.9801 46.5301 61.1601C46.2801 59.8001 45.9301 58.26 45.5601 57.55C41.8901 50.67 35.8201 52.87 32.9301 54.46C32.6901 53.78 32.4701 53.0501 32.2701 52.2801C32.2701 52.2801 41.5901 45.0501 46.5401 54.3201C47.3001 55.7601 47.9301 60.5401 47.9301 60.5401L47.9201 60.55Z" fill="#565656"/>
<path opacity="0.1" d="M56.5701 60.55C57.0401 60.78 57.5101 60.9801 57.9601 61.1601C58.2101 59.8001 58.5601 58.26 58.9301 57.55C62.6001 50.67 68.6701 52.87 71.5601 54.46C71.8001 53.78 72.0201 53.0501 72.2201 52.2801C72.2201 52.2801 62.9001 45.0501 57.9501 54.3201C57.1901 55.7601 56.5601 60.5401 56.5601 60.5401L56.5701 60.55Z" fill="#565656"/>
<path d="M47.92 60.55L46.73 61.16C46.33 61.36 45.9001 61.5 45.4901 61.68C45.0801 61.87 44.63 61.96 44.2 62.1C43.77 62.25 43.32 62.3 42.87 62.4C42.42 62.51 41.96 62.48 41.5 62.53C41.04 62.54 40.58 62.48 40.11 62.46C39.66 62.35 39.18 62.3 38.75 62.13C38.31 61.96 37.8601 61.81 37.4601 61.55L36.8501 61.19L36.29 60.76C35.9 60.49 35.5901 60.13 35.2701 59.8C34.9201 59.48 34.69 59.07 34.39 58.71C34.09 58.35 33.9 57.93 33.65 57.54C33.39 57.15 33.2301 56.72 33.0201 56.31C32.8101 55.9 32.65 55.47 32.5 55.04C32.34 54.61 32.17 54.19 32.05 53.75L31.66 52.44L31.55 52.05L31.8801 51.8C32.3101 51.48 32.71 51.21 33.15 50.96C33.58 50.71 34.03 50.47 34.48 50.26C35.39 49.83 36.34 49.49 37.33 49.27C37.83 49.16 38.3401 49.09 38.8501 49.06C39.3601 49.02 39.88 49.05 40.4 49.1C40.91 49.17 41.43 49.27 41.92 49.44C42.17 49.53 42.41 49.6101 42.64 49.7301C42.88 49.8401 43.1101 49.96 43.3201 50.1C43.5501 50.23 43.7601 50.38 43.9601 50.54C44.1701 50.69 44.36 50.86 44.55 51.03C44.74 51.2 44.92 51.38 45.09 51.57C45.27 51.75 45.43 51.95 45.58 52.15C45.89 52.54 46.15 52.97 46.41 53.4L46.76 54.06C46.9 54.33 46.94 54.53 47.04 54.76C47.18 55.23 47.31 55.75 47.39 56.22C47.48 56.7 47.56 57.18 47.62 57.66C47.76 58.62 47.86 59.58 47.92 60.55ZM47.92 60.55C47.82 60.08 47.72 59.6 47.61 59.13C47.51 58.66 47.41 58.19 47.29 57.72C47.18 57.25 47.06 56.79 46.92 56.33C46.79 55.86 46.64 55.45 46.47 55.01C46.37 54.81 46.27 54.5401 46.17 54.3901L45.79 53.79C45.52 53.41 45.25 53.02 44.94 52.68C44.79 52.5 44.64 52.33 44.47 52.18C44.31 52.02 44.1401 51.86 43.9601 51.72C43.7801 51.57 43.61 51.43 43.42 51.31C43.24 51.18 43.05 51.06 42.84 50.96C42.45 50.73 42.03 50.5801 41.61 50.4501C41.18 50.3201 40.74 50.2401 40.3 50.2001C39.85 50.1701 39.4 50.1601 38.95 50.2001C38.5 50.2301 38.05 50.3201 37.61 50.4201C36.72 50.6301 35.8501 50.95 35.0201 51.35C34.6001 51.55 34.19 51.77 33.79 52.01C33.4 52.25 32.99 52.5 32.65 52.76L32.87 52.12L33.23 53.37C33.34 53.79 33.5 54.19 33.64 54.6C33.78 55.01 33.93 55.42 34.12 55.8C34.3 56.19 34.45 56.6 34.67 56.96C34.89 57.32 35.0601 57.73 35.3201 58.06C35.5801 58.39 35.78 58.78 36.08 59.07C36.36 59.38 36.6301 59.71 36.9601 59.97L37.43 60.38L37.9601 60.72C38.3001 60.97 38.6901 61.12 39.0701 61.29C39.4501 61.46 39.8701 61.5301 40.2701 61.6701C40.6901 61.7201 41.11 61.81 41.54 61.83C41.97 61.82 42.4 61.87 42.83 61.81C43.26 61.76 43.7001 61.76 44.1301 61.65C44.5601 61.55 45 61.51 45.42 61.37C45.84 61.24 46.27 61.1401 46.69 60.9801L47.95 60.53L47.92 60.55Z" fill="#302A13"/>
<path d="M56.5701 60.55L57.8301 61C58.2501 61.15 58.6801 61.2601 59.1001 61.3901C59.5201 61.5301 59.9601 61.5801 60.3801 61.6701C60.8101 61.7801 61.2501 61.78 61.6801 61.83C62.1101 61.89 62.5401 61.83 62.9701 61.85C63.4001 61.83 63.8201 61.75 64.2401 61.69C64.6401 61.56 65.0601 61.49 65.4401 61.31C65.8201 61.13 66.2201 60.99 66.5501 60.74L67.0801 60.4L67.5501 59.99C67.8801 59.74 68.1401 59.4 68.4301 59.09C68.7301 58.8 68.9401 58.41 69.1901 58.08C69.4501 57.75 69.6201 57.3401 69.8401 56.9801C70.0601 56.6201 70.2101 56.21 70.3901 55.82C70.5801 55.44 70.7301 55.03 70.8701 54.62C71.0101 54.21 71.1701 53.8101 71.2801 53.3901L71.6401 52.1401L71.8601 52.78C71.5101 52.52 71.1101 52.26 70.7101 52.03C70.3101 51.79 69.9001 51.57 69.4801 51.37C68.6401 50.97 67.7701 50.65 66.8901 50.44C66.4401 50.34 66.0001 50.25 65.5501 50.22C65.1001 50.17 64.6501 50.18 64.2101 50.22C63.7601 50.26 63.3201 50.34 62.9001 50.47C62.4801 50.61 62.0501 50.7601 61.6701 50.9801C61.4701 51.0801 61.2801 51.2 61.0901 51.33C60.9001 51.45 60.7201 51.59 60.5501 51.74C60.3701 51.88 60.2001 52.0401 60.0401 52.2001C59.8701 52.3601 59.7201 52.5201 59.5701 52.7001C59.2601 53.0401 58.9901 53.42 58.7201 53.81L58.3501 54.41C58.2501 54.56 58.1501 54.83 58.0501 55.03C57.8801 55.47 57.7301 55.88 57.6001 56.35C57.4601 56.81 57.3401 57.27 57.2301 57.74C57.1101 58.21 57.0101 58.68 56.9101 59.15C56.8001 59.62 56.7001 60.09 56.6001 60.57L56.5701 60.55ZM56.5701 60.55C56.6301 59.58 56.7301 58.62 56.8701 57.66C56.9401 57.18 57.0101 56.7 57.1001 56.22C57.1801 55.75 57.3101 55.23 57.4401 54.76C57.5401 54.52 57.5801 54.33 57.7201 54.06L58.0701 53.4C58.3301 52.97 58.5801 52.54 58.9001 52.15C59.0501 51.94 59.2101 51.75 59.3901 51.57C59.5601 51.38 59.7301 51.2 59.9301 51.03C60.1201 50.86 60.3101 50.68 60.5201 50.54C60.7201 50.38 60.9301 50.23 61.1601 50.1C61.3801 49.96 61.6101 49.8401 61.8401 49.7301C62.0701 49.6101 62.3201 49.53 62.5601 49.44C63.0501 49.27 63.5601 49.16 64.0801 49.1C64.6001 49.05 65.1101 49.02 65.6301 49.06C66.1401 49.09 66.6501 49.16 67.1501 49.27C68.1401 49.5 69.1001 49.83 70.0101 50.26C70.4601 50.47 70.9101 50.71 71.3401 50.96C71.7801 51.21 72.1801 51.48 72.6101 51.8L72.9401 52.05L72.8301 52.44L72.4401 53.75C72.3201 54.19 72.1501 54.61 71.9901 55.04C71.8401 55.47 71.6701 55.9 71.4701 56.31C71.2701 56.72 71.1001 57.15 70.8401 57.54C70.5901 57.93 70.4001 58.35 70.1001 58.71C69.8101 59.07 69.5701 59.48 69.2301 59.8C68.9001 60.14 68.5901 60.49 68.2001 60.76L67.6401 61.19L67.0301 61.55C66.6301 61.81 66.1801 61.95 65.7401 62.13C65.3001 62.31 64.8301 62.35 64.3801 62.46C63.9101 62.49 63.4501 62.54 62.9901 62.53C62.5301 62.48 62.0701 62.51 61.6201 62.4C61.1701 62.3 60.7201 62.25 60.2901 62.1C59.8601 61.96 59.4201 61.87 59.0101 61.68C58.6001 61.51 58.1701 61.36 57.7701 61.16L56.5801 60.55H56.5701Z" fill="#302A13"/>
<path d="M53.9401 66.47C53.9401 66.73 53.1801 66.94 52.2501 66.94C51.3201 66.94 50.5601 66.73 50.5601 66.47C50.5601 66.21 51.3101 66 52.2501 66C53.1901 66 53.9401 66.21 53.9401 66.47Z" fill="white"/>
<defs>
<linearGradient id="paint0_linear_632_4468" x1="42.8901" y1="55.48" x2="48.4801" y2="55.48" gradientUnits="userSpaceOnUse">
<stop offset="0.08" stop-color="#231F20"/>
<stop offset="0.31" stop-color="#231F20"/>
<stop offset="0.9" stop-color="#231F20"/>
</linearGradient>
<linearGradient id="paint1_linear_632_4468" x1="44.9901" y1="61.0601" x2="44.9901" y2="66.7301" gradientUnits="userSpaceOnUse">
<stop offset="0.08" stop-color="#231F20"/>
<stop offset="0.31" stop-color="#231F20"/>
<stop offset="0.9" stop-color="#231F20"/>
</linearGradient>
<linearGradient id="paint2_linear_632_4468" x1="61.9002" y1="55.4201" x2="55.9602" y2="55.4201" gradientUnits="userSpaceOnUse">
<stop offset="0.08" stop-color="#231F20"/>
<stop offset="0.31" stop-color="#231F20"/>
<stop offset="0.9" stop-color="#231F20"/>
</linearGradient>
<linearGradient id="paint3_linear_632_4468" x1="59.2201" y1="61.0601" x2="59.2201" y2="66.7301" gradientUnits="userSpaceOnUse">
<stop offset="0.08" stop-color="#231F20"/>
<stop offset="0.31" stop-color="#231F20"/>
<stop offset="0.9" stop-color="#231F20"/>
</linearGradient>
<linearGradient id="paint4_linear_632_4468" x1="52.01" y1="30.8" x2="52.14" y2="56.29" gradientUnits="userSpaceOnUse">
<stop offset="0.08" stop-color="#231F20"/>
<stop offset="0.9" stop-color="#231F20"/>
</linearGradient>
<linearGradient id="paint5_linear_632_4468" x1="55.4301" y1="73.4419" x2="55.3399" y2="70.1287" gradientUnits="userSpaceOnUse">
<stop stop-color="white"/>
<stop offset="0.48" stop-color="#959899"/>
<stop offset="0.67"/>
</linearGradient>
</defs>
</svg>
