<svg width="102" height="102" viewBox="0 0 102 102" fill="none" xmlns="http://www.w3.org/2000/svg">
<path d="M92.87 0.530029H9.28C4.49169 0.530029 0.609985 4.41173 0.609985 9.20004V92.79C0.609985 97.5783 4.49169 101.46 9.28 101.46H92.87C97.6583 101.46 101.54 97.5783 101.54 92.79V9.20004C101.54 4.41173 97.6583 0.530029 92.87 0.530029Z" fill="#DBBD64"/>
<path d="M50.93 74.98L50.27 74.96C50.09 74.96 49.94 74.94 49.79 74.93C49.13 74.87 48.46 74.78 47.79 74.65C47.79 74.65 47.68 74.63 47.65 74.62C47.63 74.62 47.62 74.62 47.6 74.62C44.41 73.98 40.86 72.56 37.59 70.61C36.58 70.01 35.59 69.35 34.65 68.66C33.67 67.94 32.74 67.17 31.89 66.37C31.15 66.02 30.5 65.61 29.91 65.13C27.95 63.52 26.78 61.13 26.34 57.83C26.12 56.68 26 52.36 26.16 51.09C26.2 49.35 26.34 47.44 26.98 45.14C25.09 43.49 24.19 40.75 23.23 36.3C23.12 35.8 22.83 35.35 22.49 34.82C21.7 33.6 20.51 31.76 22.53 28.96C23.45 27.68 25.14 27.03 27.54 27.03C31.1 27.03 36.49 28.67 38.66 30.57C38.81 30.51 38.98 30.45 39.15 30.38C41.02 29.64 44.14 28.41 49.17 28.24C49.19 28.24 49.23 28.24 49.24 28.24C49.42 28.24 49.6 28.26 49.79 28.3C50.21 28.28 50.61 28.27 51 28.27C51.42 28.27 51.86 28.28 52.33 28.31C52.53 28.26 52.73 28.24 52.92 28.24C52.93 28.24 52.97 28.24 52.98 28.24C58.01 28.41 61.14 29.65 63.01 30.38C63.18 30.45 63.34 30.51 63.5 30.57C65.66 28.67 71.06 27.03 74.62 27.03C77.02 27.03 78.71 27.68 79.63 28.97C81.65 31.77 80.46 33.61 79.67 34.83C79.33 35.35 79.04 35.8 78.93 36.31C77.97 40.75 77.07 43.49 75.18 45.15C75.94 47.86 76.02 50.09 76.02 52.48C76.09 53.2 76.13 53.86 76.13 54.5C76.13 54.87 76.12 55.24 76.09 55.6C76.08 55.74 76.06 55.87 76.05 56C76.03 56.18 76 56.36 75.97 56.53L75.95 56.64C75.6 61.39 73.87 64.52 70.66 66.19C69.89 66.96 69.06 67.7 68.19 68.39C67.2 69.18 66.11 69.92 64.98 70.61C61.93 72.46 58.62 73.81 55.41 74.5C55.38 74.5 55.35 74.52 55.32 74.52C53.92 74.82 52.57 74.98 51.33 75H51.24C51.24 75 51.18 75 51.16 75C51.16 75 50.97 75 50.95 75L50.93 74.98Z" fill="#2F150C"/>
<path d="M78.5301 29.73C76.1001 26.35 64.9301 29.96 63.8901 32.11C62.1901 31.63 59.1301 29.77 52.9401 29.56C52.7801 29.56 52.6201 29.59 52.4701 29.64C51.9801 29.61 51.4801 29.5901 50.9901 29.5901C50.5401 29.5901 50.0901 29.61 49.6401 29.63C49.5001 29.58 49.3501 29.55 49.2101 29.56C43.0201 29.77 39.9501 31.63 38.2601 32.11C37.2201 29.96 26.0501 26.36 23.6201 29.73C21.4101 32.79 24.0501 33.74 24.5401 36.01C25.5901 40.87 26.4901 43.34 28.5301 44.62C27.7401 47.04 27.5401 49.04 27.4901 51.19C27.3101 52.29 27.4901 57.04 27.6601 57.6C28.0801 60.85 29.2201 62.8201 30.7601 64.0901C31.3401 64.5701 31.9801 64.94 32.6501 65.24C33.5201 66.07 34.4601 66.85 35.4401 67.58C36.3501 68.25 37.3001 68.88 38.2701 69.46C41.4701 71.36 44.9001 72.71 47.8701 73.31C47.9301 73.31 47.9901 73.33 48.0501 73.35C48.6901 73.48 49.3101 73.56 49.8901 73.61C50.0301 73.62 50.1701 73.63 50.3201 73.64C50.5201 73.64 50.7201 73.65 50.9301 73.66H51.0001H51.1501C51.2001 73.66 51.2501 73.66 51.3001 73.66C52.4801 73.64 53.7401 73.48 55.0401 73.21H55.0601L55.1201 73.19C58.1401 72.54 61.3601 71.25 64.2901 69.46C65.3601 68.81 66.3901 68.1 67.3701 67.33C68.2601 66.63 69.1001 65.8801 69.8701 65.0901C69.9301 65.0601 69.9901 65.03 70.0601 64.99C72.4701 63.73 74.2901 61.3901 74.6401 56.4601C74.6701 56.2501 74.7101 56.04 74.7401 55.83C74.7501 55.71 74.7701 55.59 74.7801 55.47C74.8101 55.14 74.8201 54.81 74.8201 54.48C74.8201 53.83 74.7801 53.1801 74.7101 52.5301C74.7101 49.8401 74.6001 47.54 73.6501 44.63C75.6901 43.35 76.5901 40.88 77.6401 36.02C78.1301 33.75 80.7701 32.8 78.5601 29.74L78.5301 29.73Z" fill="#2F150C"/>
<path d="M73.62 44.62C74.56 47.53 74.67 49.83 74.68 52.52C74.75 53.17 74.79 53.83 74.79 54.47C74.79 54.8 74.78 55.1301 74.75 55.4601C74.74 55.5801 74.73 55.7 74.71 55.82C74.69 56.03 74.65 56.24 74.61 56.45C74.26 61.38 72.44 63.72 70.03 64.98C69.97 65.01 69.91 65.05 69.84 65.08C69.07 65.87 68.23 66.62 67.34 67.32C66.37 68.09 65.33 68.8 64.26 69.45C61.32 71.23 58.11 72.53 55.09 73.18H55.03L55.01 73.2C53.72 73.47 52.46 73.6301 51.27 73.6501C51.22 73.6501 51.17 73.6501 51.12 73.6501H50.9C50.69 73.6401 50.49 73.63 50.29 73.63C50.14 73.63 50 73.61 49.86 73.6C49.27 73.55 48.66 73.4601 48.02 73.3401C47.96 73.3301 47.9 73.31 47.84 73.3C44.88 72.7 41.44 71.36 38.24 69.45C37.27 68.87 36.32 68.24 35.41 67.57C34.42 66.84 33.49 66.06 32.62 65.23C31.95 64.93 31.31 64.56 30.73 64.08C29.19 62.82 28.05 60.8401 27.63 57.5901C27.47 57.0201 27.28 52.28 27.46 51.18C27.51 49.03 27.71 47.04 28.5 44.61C26.46 43.33 25.56 40.86 24.51 36C24.02 33.73 21.38 32.78 23.59 29.72C26.02 26.34 37.19 29.95 38.23 32.1C39.93 31.62 42.99 29.76 49.18 29.55C49.55 29.54 49.93 29.75 50.3 29.93C50.52 29.93 50.74 29.92 50.96 29.92C51.23 29.92 51.51 29.92 51.78 29.94C52.16 29.76 52.53 29.55 52.91 29.56C59.1 29.77 62.17 31.63 63.86 32.11C64.9 29.96 76.07 26.36 78.5 29.73C80.71 32.79 78.07 33.74 77.58 36.01C76.53 40.87 75.63 43.34 73.59 44.62" fill="#CD7529"/>
<path d="M77.9401 30.16C77.3001 29.27 75.7701 29.0801 74.6001 29.0801C70.4001 29.0801 65.0601 31.3701 64.5501 32.4301L64.2801 32.98L63.6901 32.8101C63.2701 32.6901 62.7901 32.5001 62.2401 32.2801C60.3801 31.5501 57.5801 30.44 52.9101 30.29C52.7501 30.29 52.5101 30.4101 52.2701 30.5301C51.9201 30.7001 51.5301 30.89 51.0701 30.91C50.6101 30.89 50.2201 30.7001 49.8701 30.5301C49.6301 30.4101 49.3901 30.29 49.2301 30.29C44.5601 30.45 41.7601 31.5601 39.9001 32.2801C39.3501 32.5001 38.8701 32.6901 38.4501 32.8101L37.8601 32.98L37.5901 32.4301C37.0801 31.3801 31.7401 29.0801 27.5401 29.0801C26.3701 29.0801 24.8501 29.27 24.2001 30.16C23.0101 31.82 23.4601 32.5201 24.2201 33.6901C24.6101 34.3001 25.0501 34.98 25.2401 35.85C26.2101 40.34 27.0401 42.8301 28.9001 43.9901L29.3901 44.29L29.2101 44.8401C28.1701 48.0401 28.1801 50.5101 28.1901 53.6401C28.1901 53.9701 28.1901 54.3001 28.1901 54.6401C28.1901 64.1801 32.7501 64.96 38.0301 65.85C39.4301 66.09 40.8701 66.3301 42.2101 66.7601C44.4901 67.5001 45.8101 68.1501 46.7801 68.6201C48.1801 69.3001 48.9001 69.65 51.0601 69.66C53.2201 69.64 53.9401 69.3001 55.3401 68.6201C56.3101 68.1501 57.6401 67.5001 59.9101 66.7601C61.2401 66.3301 62.6901 66.08 64.0901 65.85C69.3701 64.95 73.9301 64.1801 73.9301 54.6401C73.9301 54.3001 73.9301 53.9601 73.9301 53.6401C73.9401 50.5101 73.9501 48.0401 72.9101 44.8401L72.7301 44.29L73.2201 43.9901C75.0801 42.8301 75.9101 40.34 76.8801 35.85C77.0701 34.98 77.5101 34.2901 77.9001 33.6901C78.6601 32.5201 79.1101 31.82 77.9201 30.16" fill="#F8983F"/>
<path d="M25.22 31.97C24.72 32.4 26.04 33.35 26.78 34.66C27.87 36.61 27.78 39.7301 29.41 39.9901C29.41 39.9901 31.03 37.9 31.6 37.29C32.22 36.64 34.16 35.35 34.16 35.35C33.41 32.53 26.45 30.9 25.21 31.97" fill="#E48F8C"/>
<path d="M35.17 32.8799C34.94 32.6299 34.42 31.73 33.55 31.21C32.68 30.68 30.58 30.6699 29.54 30.1799C29.17 29.9999 28.74 29.9399 28.32 29.9399H28.3C27.56 29.9399 26.83 30.1199 26.42 30.1799C25.77 30.2599 25.36 30.34 24.71 30.89C24.34 31.2 24.26 31.2999 24.26 31.4199C24.26 31.3099 24.33 31.21 24.71 30.89C25.36 30.34 25.77 30.2599 26.42 30.1799C26.84 30.1299 27.57 29.9399 28.31 29.9399C28.73 29.9399 29.16 29.9999 29.54 30.1799C30.58 30.6699 32.69 30.68 33.55 31.21C34.42 31.74 34.95 32.6299 35.17 32.8799Z" fill="white"/>
<path d="M76.93 31.97C77.43 32.4 76.11 33.35 75.37 34.66C74.28 36.61 74.37 39.7301 72.74 39.9901C72.74 39.9901 71.12 37.9 70.55 37.29C69.93 36.64 67.99 35.35 67.99 35.35C68.74 32.53 75.7 30.9 76.94 31.97" fill="#E48F8C"/>
<path d="M66.9 33.1199C66.9 33.0199 66.92 32.9399 66.97 32.8799C67.2 32.6299 67.72 31.73 68.59 31.21C69.46 30.68 71.56 30.6699 72.6 30.1799C72.98 29.9999 73.41 29.9399 73.83 29.9399C74.58 29.9399 75.31 30.1199 75.72 30.1799C76.37 30.2599 76.78 30.34 77.43 30.89C77.81 31.21 77.89 31.2999 77.88 31.4199C77.88 31.2999 77.8 31.2 77.43 30.89C76.78 30.34 76.37 30.2599 75.72 30.1799C75.3 30.1299 74.58 29.9399 73.84 29.9399H73.82C73.4 29.9399 72.97 29.9999 72.6 30.1799C71.56 30.6699 69.45 30.68 68.59 31.21C67.72 31.74 67.19 32.6299 66.97 32.8799C66.91 32.9399 66.9 33.0199 66.9 33.1199Z" fill="white"/>
<path d="M50.9901 72.23C47.4501 72.23 42.18 70.1601 37.86 67.0701C32.9 63.5301 29.7701 59.1401 29.2701 55.0301C29.2201 54.6201 29.1901 54.21 29.1901 53.79C29.1901 45.54 34.5501 35.5801 36.2701 33.9301C37.58 32.6801 44.2901 29.5901 50.9901 29.5901C57.3001 29.5901 64.3201 32.6501 65.7201 33.9501C67.5001 35.6101 72.7901 45.57 72.7901 53.79C72.7901 54.09 72.7801 54.3901 72.7601 54.6801C72.7601 54.7901 72.7401 54.9001 72.7301 55.0101C71.6901 64.6001 58.9901 72.07 51.2601 72.22H51.3H51.0001" fill="#F8983F"/>
<path d="M64.84 64.97C65 65.56 66.13 65.77 67.37 65.43C68.61 65.09 69.48 64.34 69.32 63.75C69.16 63.16 68.03 62.95 66.79 63.29C65.55 63.63 64.68 64.38 64.84 64.97Z" fill="#231F20"/>
<path d="M35.9801 64.6299C35.8301 65.1299 34.7201 65.2399 33.5201 64.8699C32.3101 64.4999 31.4601 63.7899 31.6101 63.2899C31.7601 62.7899 32.8701 62.6799 34.0801 63.0499C35.2901 63.4199 36.1401 64.1299 35.9901 64.6299H35.9801Z" fill="#231F20"/>
<path d="M40.4701 42.38C40.4701 42.67 39.8701 42.91 39.1401 42.91C38.4101 42.91 37.8101 42.67 37.8101 42.38C37.8101 42.09 38.4101 41.85 39.1401 41.85C39.8701 41.85 40.4701 42.09 40.4701 42.38Z" fill="#231F20"/>
<path d="M30.3001 44.55C30.5101 44.8 31.0801 44.67 31.5801 44.25C32.0801 43.83 32.3101 43.29 32.1001 43.04C31.8901 42.79 31.3201 42.92 30.8201 43.34C30.3201 43.76 30.0901 44.3 30.3001 44.55Z" fill="#231F20"/>
<path d="M33.51 40.08C33.72 40.33 34.29 40.2 34.79 39.78C35.29 39.36 35.52 38.82 35.31 38.57C35.1 38.32 34.53 38.46 34.03 38.88C33.53 39.3 33.3 39.84 33.51 40.09V40.08Z" fill="#231F20"/>
<path d="M39.5001 38.29C39.7001 38.78 40.5601 38.89 41.4201 38.53C42.2801 38.17 42.8101 37.49 42.6101 37C42.4101 36.51 41.5501 36.4 40.6901 36.76C39.8301 37.12 39.3001 37.8 39.5001 38.29Z" fill="#231F20"/>
<path d="M36.84 34.81C36.84 34.81 37.62 34.51 37.8 34.3C37.98 34.09 38.07 34.03 38.4 33.79C38.73 33.55 38.6801 33.3 39.1301 33.54C39.5801 33.79 39.7901 33.78 39.7001 34.11C39.6101 34.45 39.5601 34.51 39.1301 34.93C38.7001 35.35 38.7901 35.61 38.0701 35.62C37.3501 35.62 36.93 35.89 36.84 35.62C36.75 35.35 36.84 34.81 36.84 34.81Z" fill="#231F20"/>
<path d="M44.1601 35.11C43.9201 35.08 43.6801 34.84 43.7101 35.11C43.7401 35.38 43.6501 35.52 44.1601 35.61C44.6701 35.71 44.8001 35.85 45.2801 35.78C45.7601 35.71 46.0101 35.62 45.9301 35.39C45.8501 35.16 45.7001 35.04 45.4601 34.77C45.2201 34.5 44.7701 34.63 44.6201 34.58C44.4701 34.53 44.2601 34.68 44.2301 34.77C44.2001 34.86 44.1701 35.11 44.1701 35.11H44.1601Z" fill="#231F20"/>
<path d="M44.2901 31.67C44.3401 31.54 44.3401 31.6 44.6101 31.42C44.8801 31.24 45.0801 31.15 45.3801 31.06C45.6801 30.97 45.8301 30.7 46.1201 31.06C46.4101 31.42 46.7501 31.25 46.4301 31.68C46.1101 32.1 46.0301 32.25 45.6501 32.29C45.2701 32.33 44.8501 32.34 44.7101 32.33C44.5701 32.32 44.2001 32.15 44.1901 32.08C44.1801 32.01 44.2901 31.68 44.2901 31.68V31.67Z" fill="#231F20"/>
<path d="M61.05 41.7699C61.19 41.5999 61.32 41.5399 61.76 41.4699C62.2 41.3999 62.4 41.5199 62.62 41.6199C62.84 41.7199 62.96 41.4899 62.62 42.1499C62.28 42.8099 62.25 42.9299 61.76 42.9099C61.27 42.8899 61.04 42.9099 60.96 42.6399C60.88 42.3599 61.05 41.7699 61.05 41.7699Z" fill="#231F20"/>
<path d="M57.9 35.37C58.18 35.17 58.22 35.0501 58.78 35.1901C59.34 35.3301 59.7501 35.2801 59.9501 35.7801C60.1501 36.2901 60.0301 37.0001 59.9501 37.2101C59.8701 37.4201 59.5101 37.8701 59.2301 37.6401C58.9501 37.4101 58.66 37.02 58.3 36.79C57.94 36.56 57.78 36.5601 57.74 36.2801C57.7 36.0001 57.9 35.36 57.9 35.36V35.37Z" fill="#231F20"/>
<path d="M59.8701 32.4199C60.2701 32.5599 61.1201 33.0899 61.3601 33.2299C61.6001 33.3699 61.6901 33.53 61.8901 33.89C62.0801 34.25 62.4201 34.5399 61.8901 34.6199C61.3601 34.6999 61.3201 34.7799 60.6801 34.4099C60.0401 34.0499 60.1601 34.0599 59.8801 33.5499C59.6001 33.0399 59.6001 33.3599 59.6001 33.0399C59.6001 32.7199 59.8801 32.4199 59.8801 32.4199H59.8701Z" fill="#231F20"/>
<path d="M63.44 38.3299C63.2 38.2599 62.78 38.1599 62.83 38.4399C62.88 38.7099 62.88 39.0099 63.28 39.3199C63.68 39.6299 63.76 39.7199 64.16 39.7199C64.56 39.7199 64.76 40.0399 64.68 39.6299C64.6 39.2299 64.52 39.2999 64.24 39.0199C63.96 38.7399 63.44 38.3299 63.44 38.3299Z" fill="#231F20"/>
<path d="M68.2101 42.64C67.9401 42.57 67.8601 42.4999 67.7801 42.9099C67.7001 43.3299 67.9901 43.87 68.2101 44.06C68.4201 44.25 68.5501 44.31 68.9101 44.32C69.2701 44.33 69.5101 44.47 69.4301 44.06C69.3501 43.65 69.1901 43.0599 69.0301 42.9099C68.8701 42.7599 68.9901 42.6 68.8301 42.58C68.6701 42.56 68.2101 42.64 68.2101 42.64Z" fill="#231F20"/>
<path d="M71.04 45.1799C70.72 45.4599 70.55 46.29 70.73 46.52C70.92 46.75 70.96 47.4799 71.44 47.6599C71.92 47.8399 72.04 48.2099 72.16 47.6199C72.28 47.0299 72.36 46.07 72.16 45.95C71.96 45.83 71.47 45.3699 71.47 45.3699L71.04 45.1899V45.1799Z" fill="#231F20"/>
<path d="M73.89 50.64C73.69 50.32 73.49 49.95 73.21 50.09C72.93 50.23 72.68 50.27 72.68 50.8C72.68 51.32 72.71 52.21 72.68 52.65C72.64 53.09 72.6 53.69 72.97 53.9C73.33 54.1 73.37 54.34 73.69 54.1C74.01 53.86 74.28 53.59 74.27 53.3C74.26 53.01 73.89 50.64 73.89 50.64Z" fill="#231F20"/>
<path d="M73.47 58.3201C73.25 57.9601 73.08 57.7501 72.68 57.8701C72.28 57.9901 71.92 57.9901 71.72 58.6601C71.52 59.3201 71.26 59.4001 71.47 60.0601C71.68 60.7301 71.29 61.2301 71.93 61.1001C72.57 60.9701 73.07 60.7401 73.18 60.4701C73.29 60.2001 73.47 58.3301 73.47 58.3301V58.3201Z" fill="#231F20"/>
<path d="M28 54.5099C28.2 54.0499 27.72 54.0499 28.2 54.0499C28.68 54.0499 28.84 53.9699 29.04 54.8099C29.24 55.6599 29.08 55.8199 29.24 56.5799C29.4 57.3499 29.72 57.6599 29.24 57.8699C28.76 58.0699 28.4 58.0399 28.4 58.0399C28.4 58.0399 28.09 56.5399 27.98 56.3099C27.87 56.0799 28 54.5199 28 54.5199V54.5099Z" fill="#231F20"/>
<path d="M28.32 47.65C28.8 47.42 28.64 47.1 29.04 47.38C29.44 47.66 29.84 47.59 29.74 48.31C29.64 49.03 29.48 49.47 29.28 49.91C29.08 50.35 29.39 50.63 28.71 51C28.03 51.36 28.04 51.74 27.93 51.23C27.81 50.72 27.91 48.99 27.93 48.76C27.95 48.54 28.32 47.65 28.32 47.65Z" fill="#231F20"/>
<path d="M50.68 36.88C50.68 36.88 50.92 36.28 50.08 36.16C49.24 36.04 48.75 36.08 48.61 36.16C48.47 36.24 48.15 36.08 48.35 36.48C48.55 36.88 48.56 36.84 49.02 37.28C49.48 37.72 49.2 38.04 49.84 37.8C50.48 37.56 50.23 37.2 50.72 37.32C51.21 37.44 51.05 37.68 51.65 37.52C52.25 37.36 52.42 37.69 52.46 36.98C52.5 36.27 52.42 36.24 51.98 36.31C51.54 36.39 50.69 36.87 50.69 36.87L50.68 36.88Z" fill="#231F20"/>
<path d="M50.37 34.9099C49.72 34.4699 49.88 34.43 49.27 33.74C48.67 33.06 48.2601 33.02 48.6001 32.62C48.9501 32.22 49.15 32.05 49.59 32.18C50.03 32.3 50.39 32.38 50.55 32.9C50.71 33.42 50.7701 33.83 51.0401 33.52C51.3101 33.22 51.51 32.8599 51.87 32.8599C52.23 32.8599 52.6001 32.6199 52.7901 33.2199C52.9801 33.8199 53.1201 33.78 52.4401 34.26C51.7501 34.74 51.3801 34.87 51.0401 34.9C50.7101 34.94 50.36 34.9 50.36 34.9L50.37 34.9099Z" fill="#231F20"/>
<path d="M52.0101 51.74C52.0101 52.3 51.7101 52.75 51.3501 52.75C50.9901 52.75 50.6901 52.3 50.6901 51.74C50.6901 51.18 50.9901 50.72 51.3501 50.72C51.7101 50.72 52.0101 51.17 52.0101 51.74Z" fill="#231F20"/>
<path d="M50.36 48.61C50.36 48.92 50.11 49.17 49.81 49.17C49.51 49.17 49.26 48.92 49.26 48.61C49.26 48.3 49.51 48.05 49.81 48.05C50.11 48.05 50.36 48.3 50.36 48.61Z" fill="#231F20"/>
<path d="M51.4 49.03C51.52 49.38 52.03 49.5199 52.55 49.3499C53.07 49.1799 53.4001 48.7599 53.2901 48.4099C53.1801 48.0599 52.6601 47.92 52.1401 48.09C51.6201 48.26 51.29 48.68 51.4 49.03Z" fill="#231F20"/>
<path d="M47.5 45.9099C47.5 45.9099 47.37 46.0799 47.5 46.4399C47.63 46.7999 47.57 46.8399 48.1 46.8799C48.63 46.9199 48.94 46.9799 49.13 46.6099C49.32 46.2399 49.59 46.0999 49.26 45.9099C48.92 45.7199 48.74 45.8099 48.43 45.7599C48.12 45.7199 47.5 45.9099 47.5 45.9099Z" fill="#231F20"/>
<path d="M51.21 45.1801C51.52 44.7601 51.37 44.72 51.75 44.72C52.13 44.72 52.58 44.6901 52.76 44.9501C52.94 45.2101 52.89 45.3401 52.76 45.6701C52.63 46.0001 52.03 46.1301 51.75 46.0701C51.47 46.0001 51.21 45.6701 51.21 45.6701V45.1801Z" fill="#231F20"/>
<path d="M49.2501 44.06C49.3101 43.72 49.4401 43.56 49.6601 43.44C49.8801 43.32 50.32 43.16 50.36 43.44C50.4 43.72 50.84 43.86 50.36 44.33C49.88 44.8 49.5901 44.72 49.4101 44.72C49.2301 44.72 49.2501 44.06 49.2501 44.06Z" fill="#231F20"/>
<path d="M48.4301 41.83C48.0801 41.87 47.8801 41.65 47.6701 42.04C47.4701 42.43 47.4401 42.43 47.4401 42.75C47.4401 43.07 47.3501 43.4 47.7501 43.28C48.1501 43.15 48.3401 42.95 48.4701 42.83C48.5901 42.71 48.7201 42.43 48.7201 42.31C48.7201 42.19 48.4301 41.83 48.4301 41.83Z" fill="#231F20"/>
<path d="M50.72 41.0601C50.44 41.3001 50.56 41.5601 50.56 41.6301C50.56 41.7001 50.86 42.1801 51.05 42.3901C51.24 42.5901 51.1 42.7101 51.39 42.5901C51.68 42.4701 51.92 41.91 51.84 41.85C51.76 41.79 51.39 41.0601 51.39 41.0601H50.72Z" fill="#231F20"/>
<path d="M52.4501 39.9399C52.1201 40.2199 51.7601 40.0699 52.0801 40.5699C52.4001 41.0699 52.5001 41.7 52.9501 41.4C53.4001 41.1 53.6401 40.8299 53.4401 40.5699C53.2401 40.2999 52.4501 39.9399 52.4501 39.9399Z" fill="#231F20"/>
<path d="M46.5 38.5701C46.26 38.5701 46.07 38.49 46 38.85C45.93 39.21 45.8 39.3401 46.25 39.5001C46.7 39.6601 47.18 39.9001 47.32 39.5001C47.46 39.1001 47.89 38.6401 47.78 38.5701C47.67 38.5001 47.15 38.3401 47.15 38.3401L46.51 38.5801L46.5 38.5701Z" fill="#231F20"/>
<path d="M44.61 36.99C44.25 37.17 43.77 37.37 44.01 37.57C44.25 37.77 44.53 37.98 45.1 37.89C45.66 37.81 46.06 37.65 46.31 37.45C46.55 37.25 46.75 37.01 46.55 36.77C46.35 36.53 45.94 36.53 45.94 36.53L45.29 37H44.62L44.61 36.99Z" fill="#231F20"/>
<path d="M54.94 37.9099C54.94 37.9099 54.5 38.13 54.38 38.33C54.26 38.53 54.18 38.79 54.38 39.02C54.58 39.25 54.86 39.3699 55.14 39.2899C55.42 39.2099 55.67 39.0499 55.67 38.8099C55.67 38.5699 55.51 38.33 55.51 38.33L54.95 37.9099H54.94Z" fill="#231F20"/>
<path d="M56.33 36.29C56.33 36.57 55.9101 36.8 55.3901 36.8C54.8701 36.8 54.4501 36.57 54.4501 36.29C54.4501 36.01 54.8701 35.78 55.3901 35.78C55.9101 35.78 56.33 36.01 56.33 36.29Z" fill="#231F20"/>
<path d="M56.33 34.61C56.33 34.89 55.9101 35.11 55.3901 35.11C54.8701 35.11 54.4501 34.88 54.4501 34.61C54.4501 34.34 54.8701 34.11 55.3901 34.11C55.9101 34.11 56.33 34.34 56.33 34.61Z" fill="#231F20"/>
<path d="M56.33 32.8199C56.33 33.0399 55.95 33.2199 55.47 33.2199C54.99 33.2199 54.61 33.0399 54.61 32.8199C54.61 32.5999 54.99 32.4199 55.47 32.4199C55.95 32.4199 56.33 32.5999 56.33 32.8199Z" fill="#231F20"/>
<path d="M31.65 50.8301C31.65 50.8301 36.25 60.3401 40.19 60.3401C43.21 60.3401 46.98 58.8001 46.98 58.8001C46.98 58.8001 48.58 42.9601 39.84 42.4601C35.91 42.2301 31.65 50.8401 31.65 50.8401" fill="#CD7529"/>
<path d="M70.42 50.8301C70.42 50.8301 65.82 60.3401 61.88 60.3401C58.86 60.3401 55.09 58.8001 55.09 58.8001C55.09 58.8001 53.49 42.9601 62.23 42.4601C66.16 42.2301 70.42 50.8401 70.42 50.8401" fill="#CD7529"/>
<path d="M35.91 44.53C35.91 44.53 35.92 44.49 35.96 44.43C35.99 44.36 36.04 44.26 36.12 44.15C36.19 44.03 36.3 43.9 36.42 43.75C36.55 43.61 36.69 43.43 36.88 43.28C36.97 43.2 37.07 43.12 37.17 43.04C37.28 42.97 37.39 42.89 37.51 42.81C37.62 42.73 37.76 42.6699 37.89 42.5999C38.02 42.5299 38.16 42.4599 38.3 42.4099C38.59 42.3099 38.9 42.19 39.23 42.15C39.55 42.07 39.89 42.08 40.23 42.08C40.57 42.08 40.9 42.1599 41.22 42.2199C41.53 42.3199 41.84 42.42 42.12 42.54C42.39 42.69 42.65 42.84 42.88 42.98C43.11 43.14 43.3 43.3199 43.48 43.4699C43.57 43.5499 43.65 43.63 43.73 43.7C43.8 43.78 43.87 43.87 43.93 43.94C44.05 44.09 44.15 44.23 44.23 44.34C44.39 44.56 44.47 44.7 44.47 44.7C44.47 44.7 44.31 44.65 44.06 44.54C43.94 44.49 43.78 44.4299 43.62 44.3499C43.46 44.2699 43.27 44.2 43.06 44.12C42.85 44.05 42.65 43.95 42.42 43.87C42.19 43.8 41.95 43.73 41.71 43.65C41.46 43.59 41.21 43.55 40.95 43.48C40.82 43.48 40.69 43.46 40.56 43.44C40.43 43.43 40.3 43.3999 40.17 43.4099C39.91 43.4099 39.65 43.39 39.39 43.43C39.26 43.45 39.13 43.4299 39.01 43.4699C38.88 43.4999 38.76 43.52 38.64 43.54C38.51 43.55 38.4 43.6 38.28 43.63C38.16 43.66 38.04 43.6799 37.93 43.7199C37.7 43.7899 37.48 43.86 37.28 43.94C37.07 44.01 36.9 44.0899 36.72 44.1599C36.56 44.2399 36.41 44.2899 36.29 44.3499C36.17 44.4099 36.07 44.45 36.01 44.49C35.94 44.52 35.91 44.54 35.91 44.54V44.53Z" fill="#302A13"/>
<path d="M48.13 56.6099C48.69 55.3099 47.94 55.54 48.77 55.09C49.59 54.64 49.54 54.13 49.76 55.09C49.98 56.05 49.62 57.2999 49.27 57.9699C48.92 58.6399 47.93 60.31 47.1 61.7C46.27 63.08 45.98 64.8699 45 64.7899C44.02 64.7099 44.08 63.7199 44.08 63.0499C44.08 62.3799 43.76 61.73 44.62 60.83C45.48 59.93 45.76 59.1699 46.44 58.6799C47.12 58.1899 48.13 56.6099 48.13 56.6099Z" fill="#231F20"/>
<path d="M54.1401 56.6099C53.5801 55.3099 54.3301 55.54 53.5001 55.09C52.6801 54.64 52.7301 54.13 52.5101 55.09C52.2901 56.05 52.6401 57.2999 53.0001 57.9699C53.3601 58.6399 54.3401 60.31 55.1701 61.7C56.0001 63.08 56.2901 64.8699 57.2701 64.7899C58.2501 64.7099 58.1801 63.7199 58.1901 63.0499C58.1901 62.3799 58.5101 61.73 57.6501 60.83C56.7901 59.93 56.5101 59.1699 55.8301 58.6799C55.1501 58.1899 54.1401 56.6099 54.1401 56.6099Z" fill="#231F20"/>
<path d="M66.0001 44.5301C66.0001 44.5301 65.9601 44.51 65.9001 44.48C65.8301 44.45 65.7401 44.4001 65.6201 44.3401C65.5001 44.2801 65.3501 44.2301 65.1901 44.1501C65.0201 44.0901 64.8401 44.0001 64.6301 43.9301C64.4301 43.8501 64.2101 43.7801 63.9801 43.7101C63.8701 43.6701 63.7501 43.6401 63.6301 43.6201C63.5101 43.6001 63.3901 43.5501 63.2701 43.5301C63.1401 43.5101 63.0201 43.49 62.8901 43.47C62.7701 43.44 62.6301 43.4501 62.5101 43.4301C62.2501 43.3901 61.9901 43.41 61.7301 43.41C61.6001 43.4 61.4701 43.4301 61.3401 43.4401C61.2101 43.4601 61.0801 43.47 60.9501 43.48C60.7001 43.55 60.4401 43.5901 60.1901 43.6501C59.9501 43.7301 59.7101 43.8101 59.4801 43.8701C59.2501 43.9501 59.0401 44.0501 58.8401 44.1201C58.6301 44.2001 58.4401 44.26 58.2801 44.35C58.1201 44.43 57.9701 44.49 57.8401 44.54C57.5901 44.65 57.4401 44.7001 57.4401 44.7001C57.4401 44.7001 57.5201 44.5601 57.6801 44.3401C57.7601 44.2301 57.8601 44.0901 57.9801 43.9401C58.0401 43.8701 58.1001 43.7801 58.1801 43.7001C58.2601 43.6201 58.3401 43.55 58.4301 43.47C58.6101 43.32 58.8001 43.14 59.0301 42.98C59.2701 42.84 59.5201 42.69 59.7901 42.54C60.0701 42.42 60.3801 42.32 60.6901 42.22C61.0101 42.17 61.3501 42.0901 61.6801 42.0801C62.0201 42.0801 62.3601 42.0801 62.6801 42.1501C63.0101 42.1901 63.32 42.3 63.61 42.41C63.76 42.46 63.8901 42.53 64.0201 42.6C64.1501 42.67 64.2801 42.7301 64.4001 42.8101C64.5201 42.8901 64.6301 42.96 64.7401 43.04C64.8401 43.12 64.9401 43.2001 65.0301 43.2801C65.2201 43.4301 65.3601 43.6101 65.4901 43.7501C65.6101 43.9001 65.7201 44.0301 65.7901 44.1501C65.8701 44.2601 65.9201 44.3601 65.9501 44.4301C65.9801 44.4901 66.0001 44.5301 66.0001 44.5301Z" fill="#302A13"/>
<path d="M39.67 61.8801C34.77 61.8801 30.9 61.88 30.9 53.11C30.9 48.79 35.06 45.55 38.78 45.55C39.07 45.55 39.36 45.57 39.63 45.61C44.32 46.35 47.7 50.9701 48.25 55.0101C48.48 56.7001 48.09 58.1301 47.1 59.2701C45.65 60.9301 42.95 61.8801 39.67 61.8801Z" fill="#F8D089"/>
<path d="M62.47 61.8801C67.37 61.8801 71.24 61.88 71.24 53.11C71.24 48.79 67.08 45.55 63.36 45.55C63.07 45.55 62.78 45.57 62.51 45.61C57.82 46.35 54.44 50.9701 53.89 55.0101C53.66 56.7001 54.05 58.1301 55.04 59.2701C56.49 60.9301 59.19 61.8801 62.47 61.8801Z" fill="#F8D089"/>
<path d="M46.9701 58.7899C39.7201 62.2499 34.6101 60.01 32.3101 51.05C32.3101 51.05 41.0401 44.28 45.6701 52.96C46.3901 54.31 46.9701 58.7899 46.9701 58.7899Z" fill="white"/>
<path d="M39.96 59.36C37.94 59.32 36.26 57.72 35.61 55.5C35.41 54.83 35.31 54.09 35.33 53.33C35.39 50.24 37.3101 49.14 39.7301 49.07C39.8801 49.07 40.03 49.06 40.18 49.07C42.81 49.13 44.8 51.86 44.85 53.53C44.94 56.81 42.59 59.42 39.97 59.36" fill="#ECB61E"/>
<path d="M39.98 58.53C38.45 58.49 37.11 57.19 36.57 55.2C36.39 54.57 36.31 53.9 36.32 53.22C36.37 50.92 37.46 49.81 39.75 49.74C39.86 49.74 39.98 49.74 40.09 49.74H40.15C42.22 49.79 43.8 52.2 43.83 53.44C43.87 54.94 43.37 56.37 42.46 57.36C41.76 58.12 40.9 58.54 40.03 58.54H39.97" fill="#6C5221"/>
<path d="M55.0701 58.7899C62.3201 62.2499 67.4301 60.01 69.7301 51.05C69.7301 51.05 61.0101 44.28 56.3701 52.96C55.6501 54.31 55.0701 58.7899 55.0701 58.7899Z" fill="white"/>
<path d="M62.08 59.36C64.1 59.32 65.78 57.72 66.43 55.5C66.63 54.83 66.73 54.09 66.71 53.33C66.65 50.24 64.73 49.14 62.31 49.07C62.16 49.07 62.01 49.06 61.86 49.07C59.23 49.13 57.24 51.86 57.19 53.53C57.1 56.81 59.45 59.42 62.07 59.36" fill="#ECB61E"/>
<path d="M62 58.53C61.13 58.53 60.27 58.11 59.57 57.35C58.66 56.36 58.16 54.93 58.2 53.43C58.23 52.19 59.81 49.77 61.89 49.73H61.95C62.07 49.73 62.18 49.73 62.3 49.73C64.59 49.8 65.68 50.91 65.73 53.21C65.74 53.9 65.66 54.56 65.49 55.19C64.94 57.18 63.6 58.49 62.07 58.52H62.01" fill="#6C5221"/>
<path d="M40.2801 52.0901C40.2401 54.0701 38.9101 55.6601 37.3201 55.6301C36.6001 55.6101 35.9501 55.27 35.4601 54.72C35.2801 54.13 35.2001 53.4801 35.2101 52.8101C35.2701 50.1101 36.9501 49.1401 39.0701 49.0801C39.8301 49.7401 40.3201 50.8501 40.2901 52.0901" fill="white"/>
<path d="M42.78 57.84C42.77 58.51 42.32 59.05 41.78 59.04C41.24 59.03 40.81 58.47 40.83 57.8C40.84 57.13 41.29 56.59 41.83 56.6C42.37 56.6 42.79 57.16 42.78 57.84Z" fill="white"/>
<path d="M61.95 52.39C61.91 54.37 60.58 55.96 58.99 55.93C58.27 55.91 57.62 55.57 57.13 55.02C56.95 54.43 56.87 53.78 56.88 53.11C56.94 50.41 58.62 49.44 60.74 49.38C61.5 50.04 61.99 51.15 61.96 52.39" fill="white"/>
<path d="M64.65 57.84C64.64 58.51 64.19 59.05 63.65 59.04C63.11 59.03 62.68 58.47 62.7 57.8C62.71 57.13 63.16 56.59 63.7 56.6C64.24 56.6 64.67 57.16 64.65 57.84Z" fill="white"/>
<path d="M45.6701 59.36C46.1001 59.19 46.5301 59 46.9701 58.79C46.9701 58.79 46.3901 54.31 45.6701 52.96C44.1201 50.05 42.1201 48.88 40.1301 48.6C42.1101 48.88 44.1201 50.05 45.6701 52.96C46.3901 54.31 46.9701 58.79 46.9701 58.79C46.5301 59 46.0901 59.19 45.6701 59.36ZM32.7201 52.5C32.5701 52.04 32.4301 51.56 32.3101 51.05C32.4401 51.55 32.5801 52.04 32.7201 52.5Z" fill="#E0BD82"/>
<path d="M45.6601 59.36C45.4201 58.08 45.1001 56.65 44.7501 55.98C44.6801 55.86 44.62 55.74 44.55 55.62C44.75 54.97 44.8601 54.26 44.8401 53.52C44.8001 51.85 42.8001 49.11 40.1701 49.06H40.08C39.96 49.06 39.8401 49.06 39.7201 49.06C39.5101 49.06 39.3001 49.08 39.0901 49.1C39.0801 49.09 39.06 49.08 39.05 49.07C37.14 49.13 35.5901 49.91 35.2601 52.05C34.3601 52.35 33.5601 52.73 32.9201 53.08C32.8501 52.89 32.7801 52.69 32.7201 52.48C32.5701 52.02 32.4401 51.54 32.3101 51.03C32.3601 50.99 35.5801 48.52 39.1301 48.52C39.4601 48.52 39.8001 48.54 40.1301 48.59C42.1101 48.87 44.1201 50.04 45.6701 52.95C46.3901 54.3 46.9701 58.78 46.9701 58.78C46.5301 58.99 46.0901 59.18 45.6701 59.35" fill="#E2E1E1"/>
<path d="M44.5501 55.6301C44.3001 55.2001 44.0501 54.8101 43.7801 54.4601C43.8301 54.1301 43.8501 53.7801 43.8401 53.4301C43.8101 52.1901 42.2301 49.77 40.1601 49.73H40.1001C39.9801 49.73 39.8701 49.73 39.7601 49.73C39.7201 49.73 39.6801 49.73 39.6401 49.73C39.4801 49.49 39.3001 49.28 39.1001 49.1C39.3101 49.08 39.5201 49.0601 39.7301 49.0601C39.8501 49.0601 39.9701 49.0601 40.0901 49.0601H40.1801C42.8101 49.1201 44.8001 51.8501 44.8501 53.5201C44.8701 54.2601 44.7701 54.9601 44.5601 55.6201" fill="#D7A72D"/>
<path d="M43.79 54.46C42.72 53.06 41.51 52.26 40.28 51.87C40.26 51.07 40.02 50.33 39.64 49.75C39.68 49.75 39.72 49.75 39.76 49.75C39.87 49.75 39.99 49.75 40.1 49.75H40.16C42.23 49.8 43.81 52.21 43.84 53.45C43.84 53.8 43.83 54.14 43.78 54.48" fill="#6A5326"/>
<path d="M35.26 52.0601C35.59 49.9201 37.14 49.1301 39.05 49.0801C39.06 49.0801 39.08 49.1 39.09 49.11C39.29 49.29 39.47 49.5001 39.63 49.7401C40.01 50.3201 40.25 51.06 40.27 51.86C39.58 51.64 38.89 51.55 38.21 51.55C37.18 51.55 36.17 51.7601 35.26 52.0601Z" fill="#E2E1E1"/>
<path d="M56.3701 59.36C55.9401 59.19 55.5101 59 55.0601 58.79C55.0601 58.79 55.65 54.3101 56.36 52.9601C56.58 52.5501 56.81 52.1701 57.05 51.8301C56.81 52.1801 56.5901 52.55 56.3701 52.97C55.6501 54.32 55.0701 58.8 55.0701 58.8C55.5101 59.01 55.9501 59.2001 56.3701 59.3701" fill="#E0BD82"/>
<path d="M56.3701 59.36C55.9401 59.19 55.5101 59 55.0701 58.79C55.0701 58.79 55.6601 54.3101 56.3701 52.9601C56.5901 52.5501 56.82 52.1701 57.05 51.8301C56.95 52.2101 56.8801 52.63 56.8701 53.11C56.8501 53.78 56.9401 54.4301 57.1201 55.0201C57.2001 55.1101 57.2901 55.2001 57.3801 55.2801C57.4101 55.4001 57.4401 55.5201 57.4801 55.6301C57.4101 55.7501 57.3501 55.8601 57.2801 55.9901C56.9301 56.6601 56.6001 58.0901 56.3701 59.3701" fill="#E2E1E1"/>
<path d="M57.48 55.63C57.44 55.51 57.41 55.4 57.38 55.28C57.45 55.34 57.52 55.39 57.59 55.45C57.55 55.51 57.52 55.57 57.48 55.64" fill="#D7A72D"/>
<path d="M69.3 52.53C69.45 52.06 69.59 51.57 69.72 51.06C69.59 51.57 69.45 52.07 69.3 52.53Z" fill="#E0BD82"/>
<path d="M69.11 53.0901C68.42 52.7101 67.53 52.2901 66.54 51.9901C66.02 49.9101 64.34 49.1301 62.31 49.0701C62.19 49.0701 62.07 49.0701 61.95 49.0701H61.86C61.32 49.0801 60.81 49.2 60.34 49.41C59.96 49.44 59.6 49.51 59.26 49.61C60.12 49.04 61.02 48.74 61.91 48.61C62.24 48.56 62.58 48.54 62.91 48.54C66.46 48.54 69.68 51.01 69.73 51.05C69.6 51.56 69.46 52.0601 69.31 52.5201C69.25 52.7101 69.18 52.9001 69.12 53.0901" fill="#E2E1E1"/>
<path d="M66.5401 51.9901C66.2001 51.8801 65.8401 51.79 65.4801 51.72C65.0501 50.43 64.0001 49.7901 62.2801 49.7401C62.1601 49.7401 62.0501 49.7401 61.9301 49.7401H61.8701C61.6201 49.7401 61.3801 49.78 61.1501 49.85C61.0201 49.68 60.8701 49.5201 60.7201 49.3901C60.5901 49.3901 60.4601 49.39 60.3301 49.41C60.8001 49.21 61.3101 49.0801 61.8501 49.0701H61.9401C62.0601 49.0701 62.1801 49.0701 62.3001 49.0701C64.3301 49.1301 66.0101 49.9101 66.5301 51.9901" fill="#D7A72D"/>
<path d="M61.93 51.81C61.85 51.05 61.57 50.37 61.17 49.84C61.4 49.77 61.64 49.74 61.89 49.73H61.95C62.07 49.73 62.18 49.73 62.3 49.73C64.03 49.78 65.07 50.42 65.5 51.71C64.96 51.61 64.4 51.54 63.84 51.54C63.21 51.54 62.58 51.62 61.94 51.8" fill="#6A5326"/>
<path d="M57.59 55.44C57.52 55.39 57.45 55.33 57.38 55.27C57.29 55.19 57.21 55.1 57.12 55.01C56.94 54.42 56.86 53.77 56.87 53.1C56.88 52.62 56.94 52.2 57.05 51.82C57.73 50.82 58.48 50.1 59.25 49.59C59.59 49.49 59.95 49.42 60.33 49.39C60.46 49.38 60.59 49.37 60.72 49.37C60.88 49.5 61.02 49.66 61.15 49.83C61.56 50.36 61.83 51.05 61.91 51.8C60.36 52.25 58.83 53.32 57.57 55.43" fill="#E2E1E1"/>
<path d="M46.97 58.79C46.88 58.35 46.78 57.9001 46.68 57.4601C46.58 57.0201 46.49 56.58 46.38 56.14C46.28 55.7 46.16 55.26 46.03 54.83C45.91 54.39 45.77 54.0001 45.61 53.5901C45.52 53.4001 45.42 53.14 45.33 53.01L44.98 52.45C44.73 52.09 44.48 51.73 44.18 51.41C44.04 51.24 43.9 51.09 43.74 50.94C43.59 50.79 43.43 50.64 43.26 50.51C43.1 50.37 42.93 50.24 42.75 50.13C42.58 50.01 42.4 49.89 42.21 49.8C41.85 49.59 41.45 49.44 41.05 49.32C40.65 49.2 40.24 49.12 39.82 49.08C39.4 49.05 38.98 49.0401 38.56 49.0901C38.14 49.1201 37.72 49.2 37.3 49.3C36.47 49.5 35.65 49.8 34.87 50.18C34.48 50.37 34.09 50.58 33.72 50.8C33.35 51.02 32.97 51.26 32.65 51.5L32.85 50.9001L33.18 52.08C33.28 52.48 33.43 52.85 33.57 53.23C33.7 53.62 33.84 54 34.02 54.36C34.19 54.72 34.33 55.11 34.54 55.45C34.75 55.79 34.9 56.17 35.15 56.48C35.39 56.79 35.58 57.15 35.86 57.43C36.13 57.72 36.37 58.0301 36.68 58.2701L37.12 58.66L37.61 58.98C37.93 59.22 38.3 59.3501 38.65 59.5201C39.01 59.6801 39.4 59.75 39.77 59.87C40.16 59.92 40.56 60.0001 40.96 60.0201C41.36 60.0101 41.77 60.06 42.17 60C42.57 59.95 42.99 59.95 43.38 59.85C43.78 59.76 44.19 59.72 44.58 59.58C44.97 59.46 45.38 59.36 45.77 59.22L46.95 58.8L46.97 58.79ZM46.97 58.79L45.86 59.37C45.49 59.56 45.09 59.69 44.7 59.86C44.31 60.04 43.9 60.12 43.5 60.26C43.1 60.4 42.67 60.45 42.26 60.54C41.84 60.64 41.41 60.62 40.98 60.66C40.55 60.66 40.12 60.6201 39.68 60.5901C39.26 60.4901 38.81 60.4401 38.4 60.2801C37.99 60.1201 37.57 59.98 37.19 59.74L36.62 59.41L36.1 59C35.73 58.75 35.44 58.41 35.14 58.1C34.82 57.8 34.59 57.42 34.32 57.08C34.04 56.74 33.86 56.35 33.63 55.98C33.39 55.61 33.23 55.22 33.04 54.83C32.85 54.44 32.69 54.04 32.55 53.64C32.4 53.24 32.24 52.84 32.13 52.43L31.77 51.2101L31.66 50.85L31.97 50.62C32.37 50.32 32.75 50.07 33.16 49.83C33.56 49.59 33.98 49.38 34.41 49.18C35.26 48.78 36.15 48.46 37.08 48.25C37.55 48.15 38.02 48.08 38.5 48.05C38.98 48.01 39.47 48.0401 39.95 48.0901C40.43 48.1501 40.91 48.25 41.37 48.41C41.6 48.49 41.83 48.57 42.05 48.69C42.27 48.79 42.49 48.9001 42.69 49.0301C42.9 49.1501 43.1 49.29 43.29 49.44C43.49 49.58 43.67 49.7401 43.84 49.9001C44.02 50.0601 44.18 50.23 44.34 50.41C44.5 50.58 44.66 50.7601 44.8 50.9601C45.09 51.3301 45.34 51.73 45.58 52.13L45.91 52.75C46.04 53 46.08 53.19 46.17 53.41C46.3 53.85 46.42 54.3401 46.49 54.7801C46.58 55.2301 46.65 55.68 46.71 56.13C46.84 57.03 46.93 57.9301 46.99 58.8401L46.97 58.79Z" fill="#302A13"/>
<path d="M55.0701 58.7899C55.1301 57.8799 55.2201 56.98 55.3501 56.08C55.4101 55.63 55.4801 55.1799 55.5701 54.7299C55.6401 54.2899 55.7601 53.7999 55.8901 53.3599C55.9801 53.1399 56.0201 52.95 56.1501 52.7L56.4801 52.08C56.7201 51.68 56.9601 51.2799 57.2601 50.9099C57.4001 50.7199 57.5501 50.5399 57.7201 50.3599C57.8801 50.1799 58.0401 50.0099 58.2301 49.8499C58.4001 49.6899 58.5801 49.53 58.7801 49.39C58.9701 49.24 59.1701 49.0999 59.3801 48.9799C59.5801 48.8499 59.8001 48.74 60.0201 48.64C60.2301 48.52 60.4701 48.4499 60.7001 48.3599C61.1601 48.1999 61.6401 48.0999 62.1201 48.0399C62.6001 47.9899 63.0901 47.9699 63.5701 47.9999C64.0501 48.0299 64.5301 48.1 64.9901 48.2C65.9201 48.41 66.8201 48.7299 67.6601 49.1299C68.0901 49.3299 68.5001 49.55 68.9101 49.78C69.3201 50.02 69.7001 50.2699 70.1001 50.5699L70.4101 50.7999L70.3 51.1599L69.9401 52.3799C69.8301 52.7899 69.6701 53.19 69.5201 53.59C69.3801 53.99 69.2201 54.39 69.0301 54.78C68.8401 55.17 68.6801 55.5599 68.4401 55.9299C68.2001 56.2999 68.0301 56.69 67.7401 57.03C67.4701 57.37 67.2401 57.7499 66.9201 58.0499C66.6201 58.3699 66.3301 58.7 65.9601 58.95L65.4401 59.3599L64.86 59.6899C64.49 59.9299 64.0601 60.0699 63.6501 60.2299C63.2401 60.3999 62.7901 60.4399 62.3701 60.5399C61.9301 60.5699 61.5001 60.6199 61.0701 60.6099C60.6401 60.5699 60.2101 60.5899 59.7901 60.4899C59.3701 60.3999 58.9501 60.35 58.5401 60.21C58.1401 60.07 57.7201 59.9899 57.3401 59.8099C56.9501 59.6499 56.5501 59.5099 56.1801 59.3199L55.0701 58.7399V58.7899ZM55.0701 58.7899L56.2501 59.21C56.6401 59.36 57.0501 59.4499 57.4401 59.5699C57.8301 59.6999 58.2401 59.75 58.6401 59.84C59.0401 59.94 59.4501 59.9399 59.8501 59.9899C60.2501 60.0399 60.6601 59.99 61.0601 60.01C61.4601 59.99 61.8501 59.9099 62.2501 59.8599C62.6301 59.7399 63.0201 59.67 63.3701 59.51C63.7301 59.35 64.1001 59.2099 64.4101 58.9699L64.9001 58.65L65.3401 58.26C65.6501 58.02 65.9001 57.7099 66.1601 57.4199C66.4401 57.1499 66.6301 56.7899 66.8701 56.4699C67.1101 56.1599 67.2701 55.7799 67.4801 55.4399C67.6901 55.0999 67.8201 54.7099 68.0001 54.3499C68.1801 53.9899 68.3201 53.6099 68.4501 53.2199C68.5801 52.8399 68.7401 52.4599 68.8401 52.0699L69.1701 50.89L69.3701 51.4899C69.0501 51.2499 68.66 51.0099 68.3 50.7899C67.93 50.5699 67.5401 50.3599 67.1501 50.1699C66.3701 49.7899 65.5501 49.4899 64.7201 49.2899C64.3001 49.1999 63.8801 49.11 63.4601 49.08C63.0401 49.03 62.6201 49.0399 62.2001 49.0699C61.7801 49.1099 61.3701 49.1799 60.9701 49.3099C60.5701 49.4399 60.1801 49.5799 59.8101 49.7899C59.6201 49.8799 59.4401 49.9999 59.2701 50.1199C59.0901 50.2299 58.9301 50.3599 58.7601 50.4999C58.5901 50.6299 58.4401 50.7799 58.2901 50.9299C58.1301 51.0799 57.9901 51.23 57.8501 51.4C57.5601 51.72 57.3 52.0799 57.05 52.4399L56.7001 52.9999C56.6001 53.1399 56.5101 53.39 56.4201 53.58C56.2601 53.99 56.1201 54.3799 56.0001 54.8199C55.8701 55.2499 55.7601 55.6899 55.6501 56.1299C55.5401 56.5699 55.4501 57.01 55.3501 57.45C55.2501 57.89 55.1501 58.34 55.0601 58.78L55.0701 58.7899Z" fill="#302A13"/>
<path d="M50.99 72.65H50.77C50.56 72.65 50.36 72.63 50.16 72.63C50.01 72.63 49.87 72.61 49.73 72.6C49.14 72.55 48.53 72.46 47.89 72.34C47.83 72.33 47.77 72.31 47.71 72.3C44.75 71.7 41.31 70.36 38.11 68.45C37.14 67.87 36.19 67.24 35.28 66.57C35.2 66.43 35.15 66.29 35.13 66.14C35.1 65.87 35.07 65.58 35.05 65.27C35.05 65.11 35.04 64.95 35.04 64.78C35.04 63.56 35.24 62.34 35.96 62.34C36.25 62.34 36.63 62.55 37.12 63.05C39.06 65.04 40.58 65.89 42.11 65.89C42.58 65.89 43.06 65.81 43.55 65.66C44.25 65.44 44.81 65.12 45.27 64.75C45.53 64.54 45.75 64.32 45.95 64.08C47.48 62.28 47.57 59.85 49 59.85H49.05C48.5 61.52 47.92 62.9 47.84 63.07C47.88 62.99 48.04 62.69 48.57 62.56C48.59 62.56 48.62 62.56 48.64 62.56C49.16 62.56 50.68 63.48 51.15 63.66C51.62 63.48 53.14 62.56 53.66 62.56C53.69 62.56 53.71 62.56 53.73 62.56C54.25 62.69 54.42 62.99 54.46 63.07C54.39 62.9 53.81 61.52 53.25 59.85C53.29 59.85 53.32 59.85 53.35 59.85C54.68 59.85 54.85 61.93 56.08 63.67C56.36 64.07 56.7 64.45 57.12 64.79C57.57 65.15 58.12 65.46 58.81 65.67C59.3 65.82 59.77 65.9 60.25 65.9C61.78 65.9 63.3 65.05 65.24 63.06C65.73 62.56 66.11 62.35 66.4 62.35C67.12 62.35 67.33 63.58 67.32 64.8C67.32 64.94 67.32 65.08 67.31 65.22C67.29 65.55 67.26 65.87 67.23 66.15C67.23 66.21 67.21 66.27 67.19 66.32C66.22 67.09 65.18 67.8 64.11 68.45C61.17 70.23 57.96 71.53 54.94 72.18H54.88L54.86 72.2C53.56 72.47 52.31 72.63 51.12 72.65C51.07 72.65 51.02 72.65 50.97 72.65M48.26 67.95C48.26 67.95 49.48 68.83 51.14 68.83C52.66 68.83 54.18 68.03 54.43 67.89C54.46 67.89 54.47 67.88 54.47 67.87C54.47 67.87 54.46 67.87 54.44 67.89C54.42 67.89 54.39 67.89 54.34 67.89C54.18 67.89 53.82 67.86 53.02 67.73C52.25 67.6 51.23 66.91 51.23 66.91C51.23 66.91 50.94 67.16 50.24 67.49C49.29 67.94 48.29 67.94 48.27 67.94" fill="white"/>
<path d="M51.44 65.02C51.58 65.32 52.22 65.2999 52.85 64.9899C53.49 64.6799 53.89 64.19 53.75 63.9C53.61 63.61 52.97 63.6199 52.34 63.9299C51.7 64.2399 51.3 64.73 51.44 65.03V65.02Z" fill="#0E0E0E"/>
<path d="M51.13 68.83C49.47 68.83 48.25 67.95 48.25 67.95C48.25 67.95 49.27 67.9499 50.22 67.4999C50.91 67.1699 51.21 66.9199 51.21 66.9199C51.21 66.9199 52.23 67.6199 53 67.7399C53.8 67.8699 54.16 67.9 54.32 67.9C54.37 67.9 54.4 67.9 54.42 67.9C54.17 68.04 52.65 68.84 51.13 68.84M54.43 67.9L54.46 67.8799C54.46 67.8799 54.46 67.89 54.42 67.9" fill="#E2E2E2"/>
<path d="M50.84 65.08C50.7 65.37 50.06 65.36 49.43 65.05C48.79 64.74 48.39 64.25 48.53 63.95C48.67 63.66 49.31 63.67 49.94 63.98C50.58 64.29 50.98 64.78 50.84 65.08Z" fill="#0E0E0E"/>
<path d="M51.1401 66.75L51.05 65.62H51.3501L51.2601 66.75H51.1401Z" fill="#231F20"/>
<path d="M47.38 66.1899C47.38 66.1899 47.36 66.19 47.31 66.21C47.27 66.23 47.2 66.2499 47.13 66.2899C47.06 66.3299 46.96 66.3899 46.88 66.4699C46.8 66.5499 46.73 66.6699 46.72 66.8199C46.72 66.9599 46.78 67.1099 46.88 67.2299C46.99 67.3599 47.13 67.4599 47.29 67.5499C47.61 67.7099 48 67.7999 48.38 67.7999C48.57 67.7999 48.7601 67.7899 48.9501 67.7499C49.1401 67.7199 49.32 67.6699 49.49 67.6099C49.66 67.5499 49.82 67.4899 49.97 67.4199C50.12 67.3499 50.25 67.27 50.38 67.2C50.63 67.05 50.8201 66.8999 50.9501 66.7999C51.0801 66.6899 51.15 66.6299 51.15 66.6299L51.34 66.8599C51.34 66.8599 51.26 66.92 51.12 67.03C50.98 67.13 50.77 67.2799 50.5 67.4199C50.37 67.4899 50.22 67.5699 50.06 67.6299C49.9 67.6999 49.73 67.7599 49.55 67.8099C49.37 67.8599 49.1701 67.9099 48.9801 67.9299C48.7801 67.9599 48.58 67.96 48.38 67.95C47.98 67.92 47.58 67.8199 47.25 67.6299C47.09 67.5299 46.94 67.41 46.84 67.27C46.73 67.13 46.67 66.9699 46.68 66.8099C46.69 66.6499 46.78 66.53 46.87 66.45C46.96 66.37 47.05 66.31 47.13 66.28C47.21 66.24 47.27 66.22 47.32 66.2C47.36 66.19 47.3901 66.1799 47.3901 66.1799L47.38 66.1899Z" fill="#231F20"/>
<path d="M47.9501 66.2599C47.9501 66.2599 47.9201 66.33 47.8801 66.33C47.8401 66.33 47.8101 66.2999 47.8101 66.2599C47.8101 66.2199 47.8401 66.1899 47.8801 66.1899C47.9201 66.1899 47.9501 66.2199 47.9501 66.2599Z" fill="#231F20"/>
<path d="M49.06 65.79C49.06 65.79 49.03 65.86 48.99 65.86C48.95 65.86 48.92 65.83 48.92 65.79C48.92 65.75 48.95 65.72 48.99 65.72C49.03 65.72 49.06 65.75 49.06 65.79Z" fill="#231F20"/>
<path d="M48.8201 67.04C48.8201 67.04 48.7901 67.11 48.7501 67.11C48.7101 67.11 48.6801 67.08 48.6801 67.04C48.6801 67 48.7101 66.97 48.7501 66.97C48.7901 66.97 48.8201 67 48.8201 67.04Z" fill="#231F20"/>
<path d="M49.83 66.4899C49.83 66.4899 49.8001 66.5599 49.7601 66.5599C49.7201 66.5599 49.6901 66.5299 49.6901 66.4899C49.6901 66.4499 49.7201 66.4199 49.7601 66.4199C49.8001 66.4199 49.83 66.4499 49.83 66.4899Z" fill="#231F20"/>
<path d="M52.4401 66.2599C52.4401 66.2599 52.4101 66.33 52.3701 66.33C52.3301 66.33 52.3 66.2999 52.3 66.2599C52.3 66.2199 52.3301 66.1899 52.3701 66.1899C52.4101 66.1899 52.4401 66.2199 52.4401 66.2599Z" fill="#231F20"/>
<path d="M53.55 65.79C53.55 65.79 53.52 65.87 53.48 65.87C53.44 65.87 53.41 65.84 53.41 65.79C53.41 65.75 53.44 65.72 53.48 65.72C53.52 65.72 53.55 65.75 53.55 65.79Z" fill="#231F20"/>
<path d="M53.31 67.04C53.31 67.04 53.28 67.11 53.24 67.11C53.2 67.11 53.17 67.08 53.17 67.04C53.17 67 53.2 66.97 53.24 66.97C53.28 66.97 53.31 67 53.31 67.04Z" fill="#231F20"/>
<path d="M54.3201 66.4899C54.3201 66.4899 54.2901 66.5599 54.2501 66.5599C54.2101 66.5599 54.1801 66.5299 54.1801 66.4899C54.1801 66.4499 54.2101 66.4199 54.2501 66.4199C54.2901 66.4199 54.3201 66.4499 54.3201 66.4899Z" fill="#231F20"/>
<path d="M55.0201 66.1899C55.0201 66.1899 55.0401 66.19 55.0901 66.21C55.1301 66.23 55.2001 66.2499 55.2801 66.2899C55.3601 66.3299 55.4501 66.38 55.5401 66.46C55.6301 66.54 55.7101 66.6699 55.7201 66.8199C55.7301 66.9799 55.6701 67.14 55.5601 67.28C55.4501 67.42 55.3101 67.54 55.1501 67.64C54.8201 67.83 54.4201 67.93 54.0201 67.96C53.8201 67.96 53.6101 67.9599 53.4201 67.9399C53.2201 67.9199 53.0301 67.8699 52.8501 67.8199C52.6701 67.7699 52.49 67.71 52.33 67.64C52.17 67.58 52.0201 67.4999 51.8901 67.4299C51.6301 67.2799 51.4201 67.1399 51.2701 67.0399C51.1301 66.9299 51.05 66.8699 51.05 66.8699L51.2401 66.64C51.2401 66.64 51.3101 66.6999 51.4401 66.8099C51.5701 66.9199 51.7601 67.06 52.0101 67.21C52.1301 67.28 52.2701 67.3599 52.4201 67.4299C52.5701 67.4999 52.7301 67.5699 52.9001 67.6199C53.0701 67.6799 53.2501 67.7299 53.4401 67.7599C53.6301 67.7999 53.8201 67.8099 54.0101 67.8099C54.3901 67.8099 54.7801 67.7199 55.1001 67.5599C55.2601 67.4699 55.4001 67.3699 55.5101 67.2399C55.6101 67.1199 55.6801 66.97 55.6701 66.83C55.6701 66.69 55.5901 66.5699 55.5101 66.4799C55.4301 66.3899 55.3401 66.3399 55.2601 66.2999C55.1901 66.2599 55.12 66.2399 55.08 66.2199C55.04 66.2099 55.0101 66.2 55.0101 66.2L55.0201 66.1899Z" fill="#231F20"/>
<path d="M54.42 63.62C52.73 66.32 53.47 63.16 52.53 64.19C52.41 64.32 52.32 64.53 52.14 64.81C51.74 65.42 52.27 65.98 51.2 65.98C50.06 65.98 50.52 65.47 50.21 64.95C49.86 64.38 49.51 63.74 49.18 64.04C48.85 64.34 49.18 65.63 47.98 63.85C47.1 62.54 49.62 62.1 51.2 62.1C52.78 62.1 55.25 62.29 54.42 63.62Z" fill="#F8A181"/>
<path d="M53.43 63C53.43 63.34 52.44 63.62 51.21 63.62C49.98 63.62 48.99 63.34 48.99 63C48.99 62.66 49.98 62.38 51.21 62.38C52.44 62.38 53.43 62.66 53.43 63Z" fill="white"/>
<path d="M42.0601 64.12C42.6401 64.25 43.2101 64.39 43.7801 64.53C44.0701 64.6 44.3601 64.66 44.6401 64.75C44.9201 64.84 45.2001 64.93 45.4801 65.04V65.06C45.1801 65.02 44.8901 64.96 44.6001 64.89C44.3101 64.82 44.0301 64.73 43.7501 64.65C43.1801 64.48 42.62 64.31 42.05 64.14V64.12H42.0601Z" fill="#212120"/>
<path d="M39.71 66.86L42.22 66.29C42.64 66.2 43.06 66.1001 43.48 66.0201C43.9 65.9501 44.32 65.8701 44.75 65.8301C44.34 65.9701 43.92 66.07 43.5 66.16C43.08 66.26 42.66 66.3301 42.24 66.4001L39.71 66.86Z" fill="#212120"/>
<path d="M42.15 68.39L43.79 67.39C44.06 67.22 44.33 67.05 44.61 66.9C44.89 66.75 45.18 66.6 45.48 66.48C45.22 66.69 44.95 66.86 44.68 67.03C44.41 67.2 44.12 67.34 43.84 67.5L42.15 68.41V68.39Z" fill="#212120"/>
<path d="M60.32 64.14C59.75 64.31 59.19 64.48 58.62 64.65C58.34 64.73 58.06 64.83 57.77 64.89C57.48 64.95 57.19 65.02 56.9 65.06V65.04C57.17 64.92 57.45 64.84 57.73 64.75C58.01 64.66 58.3 64.6 58.59 64.53C59.16 64.39 59.74 64.25 60.31 64.12V64.14H60.32Z" fill="#212120"/>
<path d="M62.66 66.88L60.13 66.42C59.71 66.34 59.29 66.27 58.87 66.18C58.45 66.08 58.03 65.99 57.62 65.86C58.05 65.89 58.47 65.96 58.89 66.04C59.31 66.11 59.73 66.22 60.15 66.31L62.66 66.87V66.89V66.88Z" fill="#212120"/>
<path d="M60.22 68.4L58.53 67.49C58.25 67.34 57.96 67.19 57.69 67.02C57.42 66.85 57.15 66.68 56.89 66.49C57.19 66.6 57.47 66.75 57.76 66.9C58.04 67.05 58.31 67.22 58.59 67.39L60.23 68.39L60.22 68.4Z" fill="#212120"/>
</svg>
