<svg width="102" height="102" viewBox="0 0 102 102" fill="none" xmlns="http://www.w3.org/2000/svg">
<path d="M92.67 0.650024H9.08002C4.29171 0.650024 0.410034 4.53173 0.410034 9.32004V92.91C0.410034 97.6983 4.29171 101.58 9.08002 101.58H92.67C97.4584 101.58 101.34 97.6983 101.34 92.91V9.32004C101.34 4.53173 97.4584 0.650024 92.67 0.650024Z" fill="#94A4A5"/>
<path d="M50.67 81.11C46.54 81.11 40.76 78.98 35.95 75.67C30.25 71.75 26.76 66.9 26.15 62.03C26.08 61.53 26.05 60.99 26.05 60.45C26.05 56.01 27.62 51.33 29.32 47.57C29.24 47.59 29.04 47.63 29.04 47.63C27.98 47.85 26.97 47.95 26.03 47.95H25.94C25.79 47.95 25.67 47.95 25.54 47.94C25.45 47.94 25.36 47.94 25.27 47.93L25.07 47.92C24.94 47.92 24.81 47.9 24.68 47.88C22.25 47.6 20.32 46.57 18.92 44.83C17.68 43.28 16.38 41.88 15.23 40.65C12.79 38.03 11.02 36.13 11.09 34.24C11.09 34.11 11.09 34 11.11 33.89C11.23 33.05 11.77 32.24 12.53 31.78C13.2 31.37 14.33 31 18.01 31C20.5 31 28.88 31.29 32.19 35.07C32.54 35.44 32.83 35.84 33.06 36.25C33.21 36.53 33.37 36.77 33.54 36.97C34.06 37.52 34.47 37.56 34.92 37.6C35.25 37.63 35.64 37.67 36 37.89C36.52 37.74 37.54 37.25 38.5 36.79C38.69 36.16 39.01 35.32 39.45 34.29C39.7 33.71 39.66 33.18 39.58 32.2C39.51 31.43 39.43 30.47 39.56 29.29C39.63 28.64 39.7 27.98 39.75 27.26C39.75 27.25 39.75 27.23 39.75 27.22C39.82 26.36 39.85 25.6 39.88 24.99C39.9 24.62 39.91 24.3 39.93 24.05C39.95 23.73 39.99 23.45 40.05 23.25C40.1 23.05 40.18 22.87 40.3 22.72C41.28 21.42 42.27 21.14 42.92 21.14C43.41 21.14 45.06 21.34 45.61 23.92V23.96C45.65 24.14 45.68 24.32 45.7 24.52L45.72 24.65C45.72 24.74 45.74 24.83 45.74 24.92C45.74 25 45.75 25.09 45.76 25.18C45.76 25.27 45.76 25.36 45.76 25.45C45.76 25.58 45.76 25.72 45.76 25.86V26.02C45.74 26.4 45.71 26.81 45.66 27.23C45.63 27.46 45.6 27.68 45.56 27.92C45.56 27.95 45.55 27.98 45.54 28.01C45.5 28.22 45.46 28.44 45.41 28.66C45.2 29.63 45.48 30.79 45.68 31.59C46.63 30.46 47.74 29.45 49.76 29.26C50.06 29.23 50.35 29.22 50.62 29.22C51.79 29.22 52.44 29.45 52.61 29.52C52.99 29.68 53.27 30.01 53.37 30.41C54.38 30.44 55.31 30.68 56.16 30.99C56.32 30.27 56.45 29.42 56.28 28.67C56.22 28.39 56.17 28.12 56.12 27.85C56.09 27.68 56.07 27.52 56.04 27.36L56.01 27.15C55.99 26.99 55.97 26.82 55.96 26.66V26.59C55.94 26.4 55.93 26.21 55.92 26.03V25.91C55.91 25.53 55.92 25.17 55.95 24.82L57.25 24.9L55.95 24.78C56.2 22.1 57.57 21.14 58.77 21.14C59.42 21.14 60.4 21.42 61.4 22.73C61.48 22.83 61.68 23.11 61.74 23.74C61.76 24 61.78 24.35 61.8 24.79C61.83 25.44 61.87 26.25 61.94 27.21C61.94 27.23 61.94 27.26 61.94 27.28C62 28 62.06 28.66 62.13 29.29C62.26 30.47 62.18 31.43 62.11 32.2C62.02 33.17 61.99 33.7 62.24 34.28C62.45 34.76 62.89 35.83 63.17 36.71C64.13 37.17 65.19 37.68 65.76 37.86C66.1 37.68 66.46 37.64 66.76 37.62C67.33 37.57 67.99 37.51 68.79 36.06C71.45 31.26 81.65 31.02 83.67 31.02C85.04 31.02 88.33 31.1 89.33 31.82C90.11 32.38 90.55 33.07 90.66 33.85C90.68 33.97 90.69 34.1 90.69 34.23C90.69 34.23 90.69 34.25 90.69 34.27C90.69 34.31 90.69 34.36 90.69 34.4C90.69 34.42 90.69 34.46 90.69 34.47C90.62 36.29 88.91 38.13 86.55 40.67C85.4 41.9 84.1 43.3 82.86 44.85C81.22 46.9 78.77 47.98 75.78 47.98C74.39 47.98 73.07 47.75 71.99 47.48C73.72 51.29 75.3 55.99 75.3 60.45C75.3 60.82 75.29 61.19 75.26 61.55C75.25 61.68 75.24 61.82 75.22 61.95C74.67 66.87 71.43 71.7 66.1 75.53C61.37 78.93 55.73 81.01 51 81.1H50.68L50.67 81.11Z" fill="#2F150C"/>
<path d="M89.37 34.25C89.37 34.18 89.3701 34.0999 89.3501 34.0199C89.2801 33.5199 88.9501 33.16 88.5401 32.87C88.1601 32.6 86.23 32.32 83.65 32.32C78.43 32.32 71.7001 33.46 69.9201 36.69C68.7801 38.74 67.58 38.85 66.87 38.92C66.64 38.94 66.44 38.96 66.34 39.03C66.27 39.08 66.21 39.15 66.15 39.22C66.11 39.22 66.08 39.23 66.03 39.23C65.33 39.23 63.9 38.52 62.07 37.63C61.87 36.76 61.2101 35.1799 61.0401 34.7999C60.3601 33.1999 61.11 31.86 60.84 29.44C60.75 28.68 60.6901 27.96 60.6401 27.31C60.5101 25.69 60.49 24.45 60.44 23.87C60.42 23.67 60.38 23.5499 60.36 23.5199C58.9 21.5899 57.49 22.3899 57.25 24.8999C57.25 24.9099 57.25 24.9199 57.25 24.9299C57.22 25.2199 57.21 25.54 57.22 25.87C57.22 25.9 57.22 25.94 57.22 25.98C57.22 26.14 57.23 26.31 57.25 26.48C57.25 26.5 57.25 26.5199 57.25 26.5499C57.26 26.6999 57.28 26.84 57.3 27C57.3 27.06 57.32 27.12 57.32 27.19C57.34 27.34 57.3601 27.49 57.3901 27.64C57.4301 27.89 57.4801 28.14 57.5401 28.4C57.9401 30.1899 57.13 32.13 57.07 32.81C57.03 32.79 56.9901 32.77 56.9501 32.75C55.6201 32.13 54.08 31.55 52.33 31.78C51.02 31.95 50.21 32.42 50.21 32.42L52.1 30.75C52.1 30.75 51.37 30.4499 49.87 30.5799C47.96 30.7499 47.12 31.87 46.07 33.2L45.84 33.67C45.86 33.8 45.85 34.0099 45.86 34.2699C45.22 33.9499 44.61 33.54 44.61 32.89C44.61 32.29 43.72 30.27 44.13 28.4C44.18 28.17 44.2301 27.94 44.2601 27.72C44.3001 27.51 44.33 27.3099 44.35 27.1099C44.4 26.7299 44.43 26.37 44.44 26.03C44.44 25.98 44.44 25.93 44.44 25.89C44.44 25.77 44.44 25.65 44.44 25.53C44.44 25.45 44.44 25.3699 44.44 25.2999C44.44 25.2199 44.44 25.15 44.43 25.07C44.43 24.99 44.42 24.92 44.41 24.84C44.41 24.8 44.41 24.76 44.4 24.73C44.38 24.57 44.36 24.42 44.33 24.28C44.33 24.27 44.33 24.2599 44.33 24.2399C44.09 23.1199 43.5701 22.4899 42.9201 22.4899C42.4401 22.4899 41.89 22.83 41.33 23.57C41.33 23.58 41.31 23.6 41.31 23.64C41.28 23.73 41.2501 23.92 41.2301 24.2C41.1801 24.85 41.16 25.97 41.05 27.38C41 28.03 40.93 28.7399 40.85 29.4899C40.58 31.9099 41.33 33.25 40.65 34.85C40.48 35.25 39.78 36.91 39.6 37.76C37.84 38.62 36.45 39.2999 35.77 39.2999C35.66 39.2999 35.57 39.2799 35.5 39.2399C35.45 39.1799 35.3901 39.12 35.3201 39.07C35.2201 39 35.0201 38.9799 34.7901 38.9599C34.2401 38.9099 33.41 38.83 32.55 37.89C32.34 37.64 32.1301 37.33 31.9201 36.94C31.7401 36.61 31.5001 36.3 31.2301 36.01C28.9101 33.34 22.8201 32.37 18.0101 32.37C14.7201 32.37 13.68 32.6799 13.21 32.9599C12.73 33.2499 12.46 33.75 12.41 34.13C12.41 34.19 12.41 34.25 12.41 34.32C12.28 36.4 16.31 39.53 19.96 44.09C21.29 45.75 23.06 46.46 24.84 46.66C24.84 46.66 24.85 46.66 24.86 46.66C24.98 46.67 25.1 46.68 25.21 46.69C25.26 46.69 25.3 46.69 25.35 46.69C25.44 46.69 25.53 46.6999 25.62 46.7099C25.73 46.7099 25.85 46.7099 25.96 46.7099C25.99 46.7099 26.02 46.7099 26.05 46.7099C26.05 46.7099 26.05 46.7099 26.06 46.7099C27.02 46.7099 27.9601 46.59 28.7901 46.42C28.8101 46.42 28.84 46.42 28.86 46.41C28.95 46.39 29.04 46.37 29.12 46.35C29.18 46.34 29.24 46.32 29.3 46.31C29.34 46.3 29.39 46.29 29.43 46.28C30.6 45.99 31.49 45.65 31.84 45.5C29.76 49.5 27.38 55.2199 27.38 60.5199C27.38 60.9999 27.41 61.47 27.47 61.94C28.74 71.97 43.12 79.88 50.69 79.88C50.79 79.88 50.8801 79.88 50.9801 79.88C59.7901 79.71 72.81 71.83 73.93 61.89C73.94 61.77 73.96 61.6499 73.97 61.5199C74 61.1899 74.0101 60.8599 74.0101 60.5199C74.0101 55.0899 71.52 49.2199 69.4 45.2099C69.7 45.3499 69.86 45.42 69.86 45.42V45.45C69.86 45.45 77.8301 49.11 81.8501 44.1C85.4201 39.65 89.33 36.56 89.4 34.48C89.4 34.47 89.4 34.45 89.4 34.44C89.4 34.41 89.4 34.38 89.4 34.35C89.4 34.34 89.4 34.33 89.4 34.32L89.37 34.25ZM54.87 34.6799C54.78 34.6499 54.68 34.6299 54.59 34.6099C54.81 34.5899 55.02 34.5699 55.22 34.5199C55.1 34.5799 54.98 34.63 54.87 34.69V34.6799Z" fill="#2F150C"/>
<path d="M73.98 60.45C73.98 60.79 73.97 61.12 73.94 61.45C73.94 61.57 73.92 61.69 73.9 61.82C72.78 71.76 59.76 79.64 50.95 79.81C50.85 79.81 50.76 79.81 50.66 79.81C43.09 79.81 28.7 71.9 27.44 61.87C27.38 61.4 27.35 60.93 27.35 60.45C27.35 51.02 34.88 40.24 34.88 40.24C34.88 40.24 42.49 35.66 50.67 35.66C58.37 35.66 66.46 40.24 66.46 40.24C66.46 40.24 73.99 51.02 73.99 60.45" fill="#B1771D"/>
<path d="M75.77 46.64C72.64 46.64 69.84 45.35 69.84 45.35C69.84 45.35 69.68 45.27 69.38 45.14C68.96 44.95 68.2801 44.64 67.4201 44.26C66.4101 42.25 65.52 40.75 65.11 40.07C64.31 39.62 62.34 38.56 59.82 37.6C60.43 37.74 61.23 37.88 61.73 37.88C61.77 37.88 61.8 37.88 61.84 37.88C61.89 37.88 61.91 37.83 61.91 37.75V37.73C61.91 37.2 61.13 35.43 60.97 34.97C60.79 34.44 60.74 33.94 60.74 33.41C60.74 32.62 60.86 31.78 60.86 30.72C60.86 30.38 60.85 30.01 60.81 29.61C60.7 28.31 60.63 27.14 60.58 26.19C60.64 27.11 60.72 28.21 60.86 29.43C61.13 31.85 60.38 33.19 61.06 34.79C61.23 35.18 61.89 36.76 62.09 37.62C63.92 38.51 65.35 39.22 66.05 39.22C66.19 39.22 66.3 39.19 66.38 39.13C66.92 38.73 68.42 39.54 69.9 36.86C71.8 33.42 78.9 32.38 83.81 32.38C86.25 32.38 88.15 32.63 88.61 32.97C91.34 34.96 86.31 38.41 81.83 43.99C80.2 46.03 77.91 46.63 75.77 46.63M26.03 46.64C23.89 46.64 21.61 46.03 19.97 44C15.5 38.42 10.46 34.97 13.19 32.98C13.65 32.64 15.56 32.39 17.99 32.39C22.9 32.39 29.99 33.42 31.9 36.87C33.38 39.55 34.88 38.74 35.43 39.14C35.51 39.2 35.62 39.23 35.75 39.23C36.43 39.23 37.82 38.55 39.58 37.69C39.76 36.84 40.46 35.18 40.63 34.78C41.31 33.18 40.56 31.84 40.83 29.42C40.97 28.19 41.05 27.07 41.11 26.14C41.06 27.1 40.99 28.29 40.88 29.61C40.84 30.01 40.83 30.37 40.83 30.72C40.83 31.78 40.9501 32.62 40.9501 33.41C40.9501 33.93 40.89 34.44 40.72 34.97C40.56 35.43 39.78 37.23 39.78 37.74C39.78 37.83 39.8 37.88 39.85 37.88C39.89 37.88 39.92 37.88 39.96 37.88C40.2 37.88 40.51 37.85 40.84 37.79C38.61 38.69 36.94 39.63 36.24 40.04C35.81 40.74 34.85 42.35 33.78 44.51C32.65 45.02 31.9501 45.34 31.9501 45.34C31.9501 45.34 31.9 45.36 31.8 45.4C31.18 45.66 28.71 46.63 26.01 46.63M57.84 36.91C56.11 36.36 54.23 35.91 52.33 35.74C52.42 35.37 52.47 35 52.47 34.66C52.47 34.2 52.37 33.8 52.12 33.51C52.66 33.86 53.22 34.3 53.77 34.41C54.14 34.49 54.5 34.57 54.87 34.67C55.68 34.26 57.07 33.83 57.07 32.84C57.07 32.24 57.96 30.22 57.55 28.35C56.74 24.73 57.52 22.42 58.77 22.42C59.25 22.42 59.8 22.76 60.36 23.5C60.38 23.52 60.39 23.58 60.4 23.67C59.96 22.95 59.53 22.61 59.15 22.61H59.13C58.42 22.61 57.9 23.81 57.9 25.81C57.9 26.6 57.98 27.51 58.16 28.53C58.22 28.88 58.25 29.23 58.25 29.58C58.25 31.1 57.78 32.53 57.78 33.01C57.78 34.4 55.6 34.68 55.58 35.35C55.58 35.35 55.58 35.35 55.58 35.36C55.58 35.7 56.15 36.14 57.82 36.88M44.75 36.49C45.73 36 46.08 35.66 46.08 35.39C46.08 34.71 43.88 34.43 43.88 33.04C43.88 32.55 43.41 31.12 43.41 29.61C43.41 29.26 43.44 28.91 43.5 28.56C43.68 27.54 43.76 26.63 43.76 25.84C43.76 23.83 43.24 22.64 42.53 22.64H42.51C42.13 22.64 41.7 22.98 41.26 23.7C41.27 23.6 41.29 23.54 41.3 23.52C41.85 22.78 42.4101 22.44 42.8901 22.44C44.1401 22.44 44.92 24.74 44.11 28.37C43.7 30.23 44.59 32.26 44.59 32.86C44.59 33.87 46.05 34.3 46.84 34.72C47.23 34.61 47.62 34.52 48 34.44C48.55 34.33 49.1001 33.89 49.6401 33.54C49.3901 33.82 49.29 34.23 49.29 34.68C49.29 35 49.3401 35.36 49.4201 35.72C47.8001 35.82 46.21 36.12 44.72 36.51" fill="#B1771D"/>
<path d="M50.67 78.81C47.21 78.81 42.0399 76.71 37.7999 73.59C32.9499 70.01 29.88 65.57 29.39 61.4C29.34 60.99 29.3099 60.57 29.3099 60.15C29.3099 51.8 35.0099 42.08 36.2499 40.06C37.7999 39.15 44.11 35.67 50.67 35.67C56.85 35.67 63.4499 39.15 65.0999 40.08C66.3699 42.15 72.0299 51.83 72.0299 60.15C72.0299 60.45 72.0299 60.76 71.9999 61.05C71.9999 61.16 71.9799 61.27 71.9699 61.38C70.9499 71.09 58.4999 78.64 50.9299 78.8H50.9699H50.6799" fill="#FAA62E"/>
<path d="M31.71 56.14C31.71 56.14 36.21 65.45 40.08 65.45C43.04 65.45 46.73 63.94 46.73 63.94C46.73 63.94 48.3 48.42 39.74 47.93C35.88 47.71 31.72 56.14 31.72 56.14" fill="#B1771D"/>
<path d="M69.7 56.14C69.7 56.14 65.2 65.46 61.33 65.46C58.37 65.46 54.68 63.95 54.68 63.95C54.68 63.95 53.11 48.43 61.67 47.94C65.52 47.72 69.69 56.15 69.69 56.15" fill="#B1771D"/>
<path d="M50.67 79.8C43.1 79.8 28.71 71.89 27.45 61.86C27.83 61.81 28.1899 61.79 28.5399 61.79C28.8499 61.79 29.15 61.81 29.45 61.84C30.1 65.87 33.1199 70.13 37.7999 73.58C40.7999 75.79 44.2799 77.49 47.2799 78.29C48.5099 78.65 49.6999 78.83 50.8799 78.84C52.1899 78.83 53.5199 78.6 54.9099 78.16C62.0499 76.19 70.71 69.82 71.89 61.93C72.39 61.83 72.8799 61.78 73.3799 61.78C73.5599 61.78 73.7299 61.78 73.9099 61.8C72.7899 71.74 59.7699 79.62 50.9599 79.79C50.8599 79.79 50.77 79.79 50.67 79.79" fill="#B1761D"/>
<path d="M47.2799 78.3001C44.2799 77.5001 40.7999 75.8001 37.7999 73.5901C33.1199 70.1401 30.1 65.8801 29.45 61.8501C31.92 62.1501 34.46 63.7101 41.14 66.9401C42.01 67.3601 42.7399 68.0801 44.0899 68.0801C44.7299 68.0801 45.4999 67.9201 46.4999 67.5001C46.6699 67.4301 46.8299 67.3701 46.9899 67.3101C46.9599 67.4001 46.8999 67.4801 46.7799 67.5401C45.1299 68.4001 39.31 74.4601 43.2 76.5801C44.63 77.3501 45.9699 77.9301 47.2699 78.3101M54.9099 78.1701C56.0699 77.7901 57.2799 77.2601 58.5499 76.5701C62.4499 74.4501 56.6299 68.3901 54.9699 67.5301C54.9499 67.5201 54.9199 67.5001 54.8999 67.4901C55.0299 67.5401 55.1699 67.6001 55.3099 67.6601C56.2399 68.0501 56.9899 68.2001 57.6199 68.2001C59.0899 68.2001 59.8799 67.3701 60.7799 66.9401C66.9399 63.9601 69.57 62.4001 71.89 61.9401C70.7 69.8201 62.0499 76.1901 54.9099 78.1701Z" fill="#DB9228"/>
<path d="M35.89 49.9701C35.89 49.9701 35.9 49.9301 35.94 49.8701C35.98 49.8101 36.02 49.7101 36.1 49.6001C36.17 49.4801 36.27 49.3501 36.39 49.2101C36.52 49.0701 36.66 48.9001 36.84 48.7501C36.93 48.6701 37.02 48.5901 37.12 48.5101C37.23 48.4401 37.34 48.3601 37.45 48.2901C37.56 48.2101 37.69 48.15 37.82 48.08C37.95 48.02 38.08 47.9401 38.23 47.8901C38.52 47.7901 38.82 47.6801 39.14 47.6401C39.46 47.5701 39.79 47.5701 40.12 47.5701C40.45 47.5701 40.78 47.6501 41.09 47.7001C41.4 47.8001 41.7 47.9001 41.97 48.0101C42.24 48.1501 42.49 48.3001 42.72 48.4401C42.94 48.6001 43.13 48.7701 43.31 48.9201C43.39 49.0001 43.48 49.0701 43.55 49.1501C43.62 49.2301 43.68 49.3101 43.74 49.3801C43.86 49.5201 43.96 49.6601 44.03 49.7701C44.19 49.9901 44.26 50.1201 44.26 50.1201C44.26 50.1201 44.11 50.0701 43.86 49.9701C43.74 49.9201 43.59 49.8601 43.43 49.7801C43.27 49.7001 43.08 49.6301 42.88 49.5601C42.68 49.4901 42.48 49.3901 42.25 49.3101C42.02 49.2501 41.79 49.1701 41.55 49.0901C41.31 49.0401 41.06 48.9901 40.81 48.9301C40.68 48.9201 40.56 48.9101 40.43 48.8901C40.3 48.8801 40.18 48.85 40.05 48.86C39.8 48.86 39.54 48.8401 39.29 48.8801C39.17 48.9001 39.04 48.8801 38.91 48.9201C38.79 48.9401 38.67 48.9701 38.54 48.9801C38.42 48.9901 38.31 49.0401 38.18 49.0601C38.06 49.0901 37.95 49.1101 37.84 49.1501C37.61 49.2201 37.4 49.29 37.21 49.36C37.01 49.43 36.83 49.5101 36.67 49.5701C36.51 49.6501 36.36 49.7001 36.25 49.7601C36.13 49.8201 36.03 49.8601 35.97 49.8901C35.9 49.9201 35.87 49.9401 35.87 49.9401L35.89 49.9701Z" fill="#262626"/>
<path d="M65.37 49.9701C65.37 49.9701 65.33 49.9501 65.27 49.9201C65.21 49.8901 65.11 49.8501 65 49.7901C64.89 49.7301 64.73 49.6801 64.58 49.6001C64.41 49.5401 64.23 49.4501 64.04 49.3901C63.84 49.3101 63.63 49.2401 63.41 49.1801C63.3 49.1401 63.18 49.1201 63.06 49.0901C62.94 49.0701 62.83 49.0201 62.7 49.0101C62.58 48.9901 62.46 48.9701 62.33 48.9501C62.21 48.9201 62.08 48.9301 61.95 48.9101C61.7 48.8701 61.44 48.8901 61.19 48.8901C61.06 48.8801 60.94 48.9101 60.81 48.9201C60.68 48.9401 60.56 48.9501 60.43 48.9601C60.19 49.0201 59.93 49.0701 59.69 49.1201C59.45 49.2001 59.22 49.2701 58.99 49.3401C58.76 49.4201 58.56 49.5201 58.36 49.5901C58.16 49.6601 57.97 49.7301 57.81 49.8101C57.65 49.8901 57.5 49.9501 57.38 50.0001C57.14 50.1001 56.98 50.1501 56.98 50.1501C56.98 50.1501 57.06 50.0201 57.21 49.8001C57.29 49.6901 57.39 49.5601 57.5 49.4101C57.56 49.3401 57.62 49.2501 57.7 49.1801C57.77 49.1101 57.86 49.0301 57.94 48.9501C58.12 48.8001 58.31 48.6201 58.53 48.4701C58.76 48.3301 59.01 48.1801 59.28 48.0401C59.56 47.9201 59.86 47.8201 60.16 47.7301C60.48 47.6801 60.8 47.6001 61.13 47.6001C61.46 47.6001 61.79 47.6001 62.11 47.6701C62.43 47.7101 62.73 47.8201 63.02 47.9201C63.16 47.9701 63.29 48.0401 63.42 48.1101C63.55 48.1801 63.68 48.2301 63.79 48.3201C63.9 48.4001 64.02 48.4701 64.12 48.5401C64.22 48.6201 64.32 48.7001 64.41 48.7801C64.59 48.9301 64.73 49.1001 64.86 49.2401C64.98 49.3901 65.08 49.5201 65.15 49.6301C65.23 49.7401 65.27 49.8401 65.31 49.9001C65.34 49.9601 65.36 50.0001 65.36 50.0001L65.37 49.9701Z" fill="#262626"/>
<path d="M46.73 63.94C39.62 67.33 34.62 65.13 32.36 56.36C32.36 56.36 40.91 49.72 45.45 58.23C46.15 59.55 46.73 63.94 46.73 63.94Z" fill="white"/>
<path d="M39.8599 64.5C37.8899 64.46 36.23 62.89 35.6 60.72C35.4 60.06 35.31 59.33 35.32 58.59C35.38 55.56 37.26 54.49 39.63 54.42C39.78 54.42 39.93 54.42 40.07 54.42C42.65 54.48 44.6 57.15 44.64 58.79C44.73 62 42.43 64.56 39.85 64.51" fill="#3D2F19"/>
<path d="M39.8799 63.6901C38.3899 63.6501 37.0699 62.3801 36.5399 60.4301C36.3699 59.8101 36.2899 59.1601 36.2999 58.4801C36.3499 56.2201 37.4099 55.1401 39.6599 55.0701C39.7699 55.0701 39.8899 55.0701 39.9999 55.0701H40.0599C42.0899 55.1201 43.6399 57.4801 43.6699 58.7001C43.7099 60.1701 43.2199 61.5701 42.3299 62.5401C41.6399 63.2801 40.7999 63.7001 39.9499 63.7001H39.8899" fill="#010101"/>
<path d="M54.6599 63.94C61.7699 67.33 66.7699 65.13 69.0299 56.36C69.0299 56.36 60.4799 49.72 55.9399 58.23C55.2399 59.55 54.6599 63.94 54.6599 63.94Z" fill="white"/>
<path d="M61.53 64.5C63.5 64.46 65.16 62.89 65.79 60.72C65.99 60.06 66.09 59.33 66.07 58.59C66.01 55.56 64.13 54.49 61.76 54.42C61.61 54.42 61.46 54.42 61.32 54.42C58.75 54.48 56.79 57.15 56.75 58.79C56.66 62 58.96 64.56 61.54 64.51" fill="#3D2F19"/>
<path d="M61.4501 63.6901C60.6001 63.6901 59.7501 63.2801 59.0701 62.5301C58.1801 61.5601 57.6901 60.1601 57.7301 58.6901C57.7601 57.4801 59.31 55.1101 61.35 55.0601H61.4C61.51 55.0601 61.63 55.0601 61.74 55.0601C63.99 55.1301 65.06 56.2101 65.1 58.4701C65.11 59.1401 65.03 59.8001 64.86 60.4101C64.33 62.3601 63.0101 63.6401 61.5101 63.6801H61.4501" fill="#010101"/>
<path d="M40.17 57.38C40.13 59.32 38.83 60.88 37.27 60.84C36.56 60.82 35.93 60.49 35.44 59.95C35.27 59.37 35.18 58.74 35.2 58.08C35.26 55.43 36.9 54.49 38.98 54.42C39.73 55.07 40.2 56.16 40.18 57.37" fill="white"/>
<path d="M42.6199 63.01C42.6099 63.67 42.1699 64.19 41.6399 64.18C41.1099 64.17 40.6899 63.63 40.7099 62.97C40.7199 62.31 41.1599 61.7899 41.6899 61.7999C42.2199 61.8099 42.6399 62.35 42.6199 63.01Z" fill="white"/>
<path d="M61.41 57.67C61.37 59.61 60.07 61.17 58.51 61.13C57.8 61.11 57.17 60.78 56.68 60.24C56.51 59.66 56.42 59.03 56.44 58.37C56.5 55.72 58.14 54.78 60.22 54.71C60.97 55.36 61.44 56.45 61.42 57.66" fill="white"/>
<path d="M64.0499 63.01C64.0399 63.67 63.6 64.19 63.07 64.18C62.54 64.17 62.12 63.63 62.14 62.97C62.15 62.31 62.5899 61.7899 63.1199 61.7999C63.6499 61.8099 64.0699 62.35 64.0499 63.01Z" fill="white"/>
<path d="M45.45 64.5001C45.87 64.3301 46.2899 64.1501 46.7299 63.9401C46.2999 64.1501 45.87 64.3301 45.45 64.5001Z" fill="#E19A39"/>
<path d="M46.73 63.94C46.73 63.94 46.16 59.55 45.45 58.23C43.68 54.9 41.29 53.89 39.04 53.89C41.29 53.89 43.67 54.9 45.45 58.23C46.14 59.54 46.71 63.82 46.73 63.94ZM32.73 57.65C32.6 57.24 32.48 56.8 32.36 56.36C32.36 56.36 33.57 55.42 35.32 54.71C33.57 55.43 32.36 56.36 32.36 56.36C32.48 56.81 32.6 57.24 32.73 57.65ZM36.76 54.21C36.76 54.21 36.77 54.21 36.78 54.21C36.78 54.21 36.78 54.21 36.76 54.21Z" fill="#A67227"/>
<path d="M45.45 64.5C45.22 63.25 44.9 61.84 44.56 61.19C44.5 61.07 44.43 60.95 44.37 60.84C44.57 60.2 44.67 59.51 44.65 58.79C44.61 57.15 42.65 54.47 40.08 54.42C40.06 54.42 40.03 54.42 40.01 54.42C39.89 54.42 39.76 54.42 39.64 54.42C39.43 54.42 39.23 54.44 39.03 54.46C39.02 54.45 39 54.44 38.99 54.43C37.12 54.49 35.6 55.26 35.27 57.35C34.39 57.64 33.6 58.02 32.98 58.36C32.9 58.13 32.82 57.9 32.75 57.65C32.62 57.24 32.5 56.8 32.38 56.36C32.38 56.36 33.59 55.42 35.34 54.71C35.79 54.53 36.27 54.36 36.78 54.22C36.78 54.22 36.79 54.22 36.8 54.22C37.52 54.03 38.28 53.91 39.06 53.91C41.31 53.91 43.7 54.92 45.47 58.25C46.17 59.57 46.75 63.96 46.75 63.96C46.32 64.17 45.89 64.35 45.47 64.52" fill="#E2E1E1"/>
<path d="M44.36 60.84C44.12 60.42 43.87 60.04 43.61 59.7C43.66 59.37 43.68 59.03 43.67 58.69C43.64 57.48 42.09 55.11 40.06 55.06H40C39.89 55.06 39.77 55.06 39.66 55.06C39.62 55.06 39.58 55.06 39.54 55.06C39.39 54.83 39.21 54.62 39.01 54.45C39.21 54.43 39.41 54.41 39.62 54.41C39.74 54.41 39.87 54.41 39.99 54.41C40.01 54.41 40.04 54.41 40.06 54.41C42.64 54.47 44.59 57.14 44.63 58.78C44.65 59.51 44.55 60.2 44.35 60.83" fill="#413320"/>
<path d="M43.61 59.7001C42.56 58.3201 41.38 57.5401 40.17 57.1601C40.15 56.3701 39.92 55.6501 39.54 55.0801C39.58 55.0801 39.62 55.0801 39.66 55.0801C39.77 55.0801 39.89 55.0801 40 55.0801H40.06C42.09 55.1301 43.64 57.4901 43.67 58.7101C43.67 59.0501 43.67 59.3901 43.61 59.7201" fill="#0F1010"/>
<path d="M35.26 57.3501C35.58 55.2601 37.1 54.4801 38.98 54.4301C38.99 54.4401 39.01 54.4501 39.02 54.4601C39.22 54.6401 39.39 54.8401 39.55 55.0701C39.93 55.6401 40.16 56.3601 40.18 57.1501C39.51 56.9401 38.83 56.8501 38.16 56.8501C37.15 56.8501 36.16 57.0601 35.27 57.3501" fill="#E2E1E1"/>
<path d="M55.9399 64.5001C55.5199 64.3401 55.0999 64.1501 54.6599 63.9401C54.6599 63.9401 54.6599 63.9001 54.6799 63.8301C54.6799 63.9001 54.6599 63.9401 54.6599 63.9401C55.0899 64.1501 55.5199 64.3301 55.9399 64.5001Z" fill="#E19A39"/>
<path d="M54.6799 63.84C54.7699 63.15 55.2999 59.44 55.9399 58.24C56.1599 57.84 56.3799 57.47 56.6099 57.13C56.3799 57.47 56.1499 57.84 55.9399 58.24C55.2999 59.44 54.7699 63.16 54.6799 63.84Z" fill="#A67227"/>
<path d="M55.9399 64.5C55.5199 64.34 55.0999 64.15 54.6599 63.94C54.6599 63.94 54.6599 63.9 54.6799 63.83C54.7699 63.15 55.2999 59.43 55.9399 58.23C56.1499 57.83 56.3799 57.46 56.6099 57.12C56.5099 57.49 56.4499 57.9 56.4399 58.37C56.4199 59.02 56.5099 59.66 56.6799 60.24C56.7599 60.33 56.8399 60.41 56.9299 60.49C56.9599 60.61 56.9899 60.72 57.0299 60.84C56.9599 60.95 56.8999 61.07 56.8299 61.19C56.4799 61.84 56.1699 63.25 55.9399 64.5Z" fill="#E2E1E1"/>
<path d="M57.0299 60.84C56.9899 60.73 56.9599 60.61 56.9299 60.49C56.9999 60.55 57.0599 60.6 57.1299 60.65C57.0899 60.71 57.0599 60.77 57.0299 60.83" fill="#413320"/>
<path d="M68.66 57.66C68.79 57.24 68.91 56.81 69.03 56.36C69.03 56.36 67.82 55.42 66.08 54.71C67.83 55.43 69.03 56.36 69.03 56.36C68.92 56.81 68.79 57.24 68.66 57.66ZM58.76 54.94C59.92 54.18 61.15 53.89 62.34 53.89C63.12 53.89 63.88 54.01 64.6 54.2C63.89 54.01 63.12 53.89 62.34 53.89C61.15 53.89 59.92 54.17 58.76 54.94Z" fill="#A67227"/>
<path d="M68.42 58.36C67.74 57.99 66.88 57.58 65.9 57.28C65.38 55.25 63.74 54.48 61.75 54.42C61.63 54.42 61.5 54.42 61.38 54.42C61.36 54.42 61.33 54.42 61.31 54.42C60.78 54.43 60.28 54.55 59.82 54.75C59.45 54.78 59.09 54.85 58.76 54.95C59.91 54.19 61.14 53.9 62.34 53.9C63.12 53.9 63.89 54.02 64.6 54.21C65.12 54.35 65.6 54.52 66.06 54.7C67.81 55.42 69.01 56.35 69.01 56.35C68.9 56.8 68.77 57.23 68.64 57.65C68.57 57.89 68.49 58.12 68.41 58.35" fill="#E2E1E1"/>
<path d="M65.91 57.28C65.57 57.18 65.23 57.09 64.87 57.02C64.45 55.75 63.42 55.13 61.73 55.07C61.62 55.07 61.5 55.07 61.39 55.07H61.34C61.1 55.07 60.86 55.11 60.64 55.18C60.51 55.01 60.37 54.86 60.22 54.73C60.09 54.73 59.96 54.74 59.84 54.75C60.3 54.55 60.81 54.43 61.33 54.42C61.36 54.42 61.38 54.42 61.4 54.42C61.52 54.42 61.65 54.42 61.77 54.42C63.76 54.48 65.4 55.25 65.92 57.28" fill="#413320"/>
<path d="M61.38 57.1001C61.3 56.3601 61.03 55.6901 60.63 55.1701C60.86 55.1001 61.09 55.0701 61.33 55.0601H61.38C61.49 55.0601 61.61 55.0601 61.72 55.0601C63.41 55.1101 64.43 55.7401 64.86 57.0101C64.33 56.9101 63.79 56.8401 63.23 56.8401C62.61 56.8401 61.99 56.9201 61.37 57.0901" fill="#0F1010"/>
<path d="M57.13 60.66C57.06 60.61 56.99 60.55 56.93 60.5C56.84 60.42 56.76 60.34 56.68 60.25C56.51 59.67 56.42 59.04 56.44 58.38C56.44 57.91 56.51 57.5 56.61 57.13C57.28 56.15 58.01 55.45 58.77 54.94C59.1 54.84 59.46 54.77 59.83 54.74C59.96 54.73 60.08 54.72 60.21 54.72C60.36 54.85 60.5 55 60.63 55.17C61.03 55.69 61.3 56.36 61.38 57.1C59.86 57.54 58.37 58.59 57.13 60.65" fill="#E2E1E1"/>
<path d="M46.7299 63.94C46.6399 63.5 46.54 63.07 46.45 62.64C46.35 62.21 46.2599 61.77 46.1499 61.35C46.0499 60.92 45.9399 60.49 45.8099 60.07C45.6899 59.64 45.5599 59.26 45.3999 58.85C45.3099 58.66 45.2199 58.41 45.1199 58.28L44.7699 57.73C44.5199 57.38 44.2799 57.03 43.9899 56.71C43.8599 56.55 43.7099 56.39 43.5599 56.25C43.4099 56.1 43.2599 55.95 43.0999 55.83C42.9399 55.7 42.7799 55.56 42.5999 55.45C42.4299 55.33 42.2599 55.22 42.0699 55.13C41.7099 54.92 41.3299 54.78 40.9399 54.66C40.5499 54.54 40.1399 54.47 39.7399 54.43C39.3299 54.4 38.9199 54.39 38.5099 54.43C38.0999 54.46 37.6799 54.54 37.2799 54.63C36.4599 54.82 35.6699 55.12 34.8999 55.49C34.5199 55.68 34.1399 55.88 33.7699 56.1C33.4099 56.32 33.0399 56.55 32.7199 56.79L32.92 56.21L33.2499 57.36C33.3399 57.75 33.4899 58.12 33.6299 58.49C33.7599 58.87 33.8899 59.24 34.0699 59.59C34.2399 59.94 34.3699 60.32 34.5799 60.65C34.7799 60.98 34.94 61.36 35.17 61.66C35.4 61.97 35.5899 62.32 35.8699 62.59C36.1299 62.87 36.37 63.18 36.67 63.41L37.0999 63.79L37.5799 64.1C37.8899 64.33 38.2499 64.46 38.5999 64.62C38.9499 64.78 39.33 64.84 39.7 64.97C40.08 65.02 40.4699 65.1 40.8599 65.11C41.2499 65.11 41.6499 65.15 42.0399 65.1C42.4299 65.05 42.8399 65.05 43.2299 64.95C43.6199 64.86 44.0299 64.82 44.4099 64.69C44.7999 64.57 45.1899 64.48 45.5699 64.34L46.7199 63.93L46.7299 63.94ZM46.7299 63.94L45.64 64.5C45.27 64.68 44.8799 64.82 44.4999 64.98C44.1199 65.15 43.7099 65.24 43.3199 65.37C42.9299 65.51 42.5099 65.55 42.0999 65.64C41.6899 65.74 41.2599 65.72 40.8399 65.76C40.4199 65.77 39.9899 65.72 39.5599 65.69C39.1499 65.59 38.7099 65.54 38.3099 65.38C37.9099 65.22 37.4899 65.09 37.1299 64.85L36.5699 64.52L36.0599 64.12C35.6999 63.87 35.4199 63.55 35.1199 63.24C34.7999 62.94 34.5799 62.57 34.3099 62.24C34.0399 61.91 33.8599 61.52 33.6299 61.16C33.3999 60.8 33.2399 60.41 33.0499 60.03C32.8599 59.65 32.7099 59.26 32.5699 58.86C32.4299 58.47 32.2699 58.08 32.1599 57.67L31.7999 56.47L31.7 56.11L31.9999 55.88C32.3899 55.58 32.77 55.34 33.17 55.11C33.56 54.88 33.97 54.66 34.39 54.47C35.22 54.08 36.0999 53.77 37.0099 53.56C37.4699 53.46 37.9299 53.39 38.4099 53.37C38.8799 53.33 39.3599 53.36 39.8299 53.4C40.2999 53.46 40.7699 53.56 41.2199 53.71C41.4499 53.79 41.6699 53.87 41.8799 53.98C42.0999 54.08 42.3099 54.19 42.5099 54.32C42.7199 54.44 42.9099 54.57 43.0999 54.72C43.2899 54.85 43.47 55.01 43.64 55.17C43.82 55.32 43.9799 55.49 44.1299 55.67C44.2899 55.84 44.4399 56.01 44.5799 56.2C44.8699 56.56 45.1099 56.96 45.3399 57.35L45.6599 57.95C45.7899 58.2 45.83 58.38 45.92 58.59C46.05 59.02 46.1599 59.5 46.2399 59.93C46.3199 60.37 46.39 60.81 46.45 61.25C46.58 62.13 46.6699 63.02 46.7199 63.9L46.7299 63.94Z" fill="#262626"/>
<path d="M54.6599 63.9401C54.7199 63.0501 54.8099 62.1701 54.9299 61.2901C54.9899 60.8501 55.0599 60.4101 55.1399 59.9701C55.2099 59.5401 55.3299 59.0601 55.4599 58.6301C55.5499 58.4101 55.5899 58.2301 55.7199 57.9901L56.0399 57.3901C56.2699 57.0001 56.5099 56.6001 56.7999 56.2401C56.9299 56.0501 57.0799 55.8801 57.2499 55.7101C57.3999 55.5401 57.5599 55.3701 57.7399 55.2101C57.9099 55.0501 58.0899 54.8901 58.2799 54.7601C58.4699 54.6101 58.6599 54.4801 58.8599 54.3601C59.0599 54.2301 59.2699 54.1201 59.4899 54.0201C59.6999 53.9101 59.9299 53.8301 60.1499 53.7501C60.5999 53.5901 61.0699 53.5001 61.5399 53.4401C62.0099 53.3901 62.4899 53.3701 62.9599 53.4101C63.4299 53.4301 63.8999 53.5001 64.3599 53.6001C65.2699 53.8101 66.1499 54.1201 66.9799 54.5101C67.3999 54.7101 67.8099 54.9201 68.1999 55.1501C68.5999 55.3801 68.9799 55.6301 69.3599 55.9201L69.6699 56.1501L69.5699 56.5101L69.2099 57.7101C69.1099 58.1101 68.9499 58.5001 68.7999 58.9001C68.6599 59.2901 68.5099 59.6901 68.3199 60.0701C68.1299 60.4501 67.9799 60.8401 67.7499 61.2001C67.5199 61.5601 67.3399 61.9401 67.0699 62.2801C66.7999 62.6101 66.5799 62.9801 66.2699 63.2801C65.9699 63.5901 65.6899 63.9101 65.3299 64.1601L64.8199 64.5601L64.2599 64.8901C63.8999 65.1301 63.4799 65.2601 63.0799 65.4201C62.6799 65.5801 62.2399 65.6201 61.8299 65.7301C61.3999 65.7601 60.9799 65.8101 60.5499 65.8001C60.1299 65.7601 59.7099 65.7801 59.2899 65.6801C58.8799 65.5901 58.4599 65.5501 58.0699 65.4101C57.6799 65.2801 57.2699 65.2001 56.8899 65.0201C56.5099 64.8601 56.1199 64.7301 55.7499 64.5401L54.6599 63.9801V63.9401ZM54.6599 63.9401L55.8099 64.3501C56.1899 64.4901 56.5899 64.5901 56.9699 64.7001C57.3499 64.8301 57.7599 64.8701 58.1499 64.9601C58.5399 65.0601 58.9499 65.0601 59.3399 65.1101C59.7299 65.1601 60.1299 65.1101 60.5199 65.1201C60.9099 65.1001 61.2999 65.0201 61.6799 64.9801C62.0499 64.8601 62.4299 64.7901 62.7799 64.6301C63.1299 64.4701 63.4899 64.3401 63.7999 64.1101L64.2799 63.8001L64.7099 63.4201C65.0099 63.1901 65.2499 62.8801 65.5199 62.6001C65.7899 62.3301 65.9799 61.9801 66.2199 61.6701C66.4599 61.3601 66.6099 60.9901 66.8099 60.6601C67.0199 60.3301 67.1499 59.9501 67.3199 59.6001C67.4899 59.2501 67.6299 58.8701 67.7599 58.5001C67.8899 58.1301 68.0399 57.7601 68.1399 57.3701L68.4699 56.2201L68.6699 56.8001C68.3499 56.5701 67.9799 56.3301 67.6199 56.1101C67.2499 55.8901 66.8799 55.6901 66.4899 55.5001C65.7199 55.1301 64.9199 54.8401 64.1099 54.6401C63.6999 54.5501 63.2899 54.4701 62.8799 54.4401C62.4699 54.3901 62.0499 54.4001 61.6499 54.4401C61.2399 54.4801 60.8399 54.5501 60.4499 54.6701C60.0599 54.7901 59.6699 54.9401 59.3199 55.1401C59.1299 55.2301 58.9599 55.3401 58.7899 55.4601C58.6099 55.5701 58.4499 55.7001 58.2899 55.8401C58.1199 55.9701 57.9699 56.1101 57.8299 56.2601C57.6699 56.4001 57.5299 56.5601 57.3999 56.7201C57.1099 57.0301 56.8599 57.3801 56.6199 57.7401L56.2699 58.2901C56.1799 58.4301 56.0899 58.6701 55.9899 58.8601C55.8399 59.2701 55.6999 59.6401 55.5799 60.0801C55.4499 60.5001 55.3399 60.9301 55.2399 61.3601C55.1299 61.7901 55.0399 62.2201 54.9399 62.6501C54.8399 63.0801 54.7399 63.5201 54.6599 63.9501V63.9401Z" fill="#262626"/>
<path d="M38.89 39.0901C39.5 38.6801 40.25 38.3401 40.79 38.2101C41.33 38.0701 42.02 37.5301 42.19 38.2101C42.35 38.8901 42.87 39.0701 42.44 39.5201C42.01 39.9701 41.42 40.1701 40.83 40.1101C40.25 40.0401 40.48 39.4801 39.79 39.5201C39.1 39.5601 38.9 39.0901 38.9 39.0901" fill="#8D3E1F"/>
<path d="M43.9199 37.87C43.9699 37.32 43.7099 37.19 44.3799 37.12C45.0499 37.05 45.2799 36.92 45.3999 37.5C45.5199 38.07 45.1599 38.28 44.7299 38.34C44.2999 38.41 43.9099 37.87 43.9099 37.87" fill="#8D3E1F"/>
<path d="M42.74 41.97C43.56 41.54 43.54 40.78 44.41 41.24C45.28 41.71 45.47 41.13 46.16 42.36C46.85 43.6 47.88 43.91 46.91 44.33C45.94 44.75 46.24 44.98 45.02 44.33C43.8 43.68 42.91 43.38 42.73 42.91C42.56 42.44 42.73 41.96 42.73 41.96L42.74 41.97Z" fill="#8D3E1F"/>
<path d="M47.79 46.5701C48.33 45.7501 47.79 44.9601 48.71 45.4401C49.65 45.9101 49.73 45.4201 49.73 46.5701C49.73 47.7201 50.18 48.51 49.01 48.24C47.84 47.97 47.79 46.5701 47.79 46.5701Z" fill="#8D3E1F"/>
<path d="M51.51 48.41C51.51 47.04 51.58 46.91 52.62 46.44C53.66 45.97 53.79 45.23 54.43 46.05C55.06 46.87 55.59 46.7 55.28 47.94C54.97 49.18 54.96 50.02 53.61 49.93C52.26 49.84 51.52 48.41 51.52 48.41H51.51Z" fill="#8D3E1F"/>
<path d="M48.63 50.2801C49.31 49.7701 48.29 49.4801 49.22 49.2601C50.15 49.0401 51 49.2201 51.23 49.4601C51.46 49.7001 52.85 50.3101 51.83 51.1601C50.81 52.0101 50.88 52.0001 49.82 52.0001C48.75 52.0001 48.63 50.2801 48.63 50.2801Z" fill="#8D3E1F"/>
<path d="M55.4299 38.35C55.7699 37.87 55.3599 37.67 56.1799 37.46C56.9899 37.26 57.7299 36.71 58.0999 37.46C58.4799 38.2 58.9499 38.7 57.7999 38.99C56.6499 39.29 55.4299 38.34 55.4299 38.34" fill="#8D3E1F"/>
<path d="M57.64 42.9101C58.3 42.2001 58.67 41.2401 59.14 41.9701C59.61 42.7001 60.31 42.9401 59.14 43.2301C57.97 43.5201 57.64 42.9201 57.64 42.9201V42.9101Z" fill="#8D3E1F"/>
<path d="M60.56 39.3501C61.06 38.8101 61.15 38.6201 62.19 38.9901C63.23 39.3501 64.93 39.3101 63.44 40.1101C61.94 40.9101 62.19 41.4701 61.22 40.8901C60.25 40.3001 60.56 39.3501 60.56 39.3501Z" fill="#8D3E1F"/>
<path d="M48.6599 41.62C49.0799 41.13 49.5699 41.14 50.4799 41.09C51.3899 41.04 52.0499 40.92 52.9499 41.35C53.8499 41.78 54.0799 41.53 54.5399 42.35C55.0099 43.17 55.8399 44.07 55.0499 44.32C54.2599 44.57 53.0099 44.88 52.3599 44.73C51.7099 44.58 49.3699 44 49.2199 43.83C49.0799 43.67 48.6599 41.61 48.6599 41.61V41.62Z" fill="#8D3E1F"/>
<path d="M64.62 66.43C65.61 66 65.1799 65.85 66.0499 65.8C66.9099 65.75 67.65 65.38 67.34 66.43C67.04 67.48 67.41 67.62 66.29 67.64C65.18 67.66 64.93 68.04 64.62 67.42C64.31 66.8 64.62 66.43 64.62 66.43Z" fill="#8D3E1F"/>
<path d="M62.26 69.79C62.7 69.41 62.26 69.47 63.13 69.16C64 68.85 63.91 68.42 64.48 68.85C65.05 69.28 65.65 69.49 64.94 69.74C64.27 69.98 63.87 70.08 63.03 70.28C62.19 70.48 62.26 69.78 62.26 69.78V69.79Z" fill="#8D3E1F"/>
<path d="M31.94 64.3501C32.62 64.8301 32.13 64.6401 33.11 65.0101C34.1 65.3801 34.47 64.8601 34.16 65.8001C33.85 66.7401 33.64 66.6301 33.1 66.7401C32.56 66.8401 32.27 67.0401 31.93 66.2301C31.59 65.4301 31.38 65.0101 31.38 65.0101L31.93 64.3501H31.94Z" fill="#8D3E1F"/>
<path d="M34.61 65.59C35.34 65.63 34.97 65.18 35.9 65.59C36.83 66 37.14 65.35 37.32 66.23C37.51 67.11 39.11 67.36 37.32 67.3C35.53 67.24 34.81 67.23 34.61 66.74C34.42 66.25 34.61 65.6 34.61 65.6V65.59Z" fill="#8D3E1F"/>
<path d="M33.74 67.8C34.05 67.67 33.51 67.55 34.61 67.64C35.72 67.73 36.09 67.66 36.65 68.16C37.2 68.66 37.57 68.37 37.39 69.03C37.21 69.69 37.05 69.67 36.35 69.39C35.65 69.11 34.77 68.7 34.62 68.62C34.47 68.53 33.75 67.81 33.75 67.81L33.74 67.8Z" fill="#8D3E1F"/>
<path d="M38.3 69.68C38.17 68.88 38.52 68.91 39.4 69.03C40.28 69.15 40.37 68.94 40.94 69.57C41.51 70.2 42.09 70.08 41.57 70.51C41.06 70.94 40.17 70.66 39.68 70.39C39.19 70.12 38.36 70.08 38.3 69.68Z" fill="#8D3E1F"/>
<path d="M59.7699 69.89C59.7499 69.37 59.15 69.27 60.2 68.76C61.25 68.25 61.0599 67.89 61.7399 68.13C62.4199 68.37 63.19 68.37 62.53 68.76C61.86 69.15 61.12 69.4 60.57 69.56C59.93 69.75 59.7699 69.89 59.7699 69.89Z" fill="#8D3E1F"/>
<path d="M67.79 68.5301C67.96 67.5401 67.56 67.5801 68 66.6501C68.44 65.7201 68.14 65.3301 69.01 65.0301C69.89 64.7201 70.35 64.7701 70.6 64.9601C70.85 65.1501 71.13 64.7101 70.88 65.5301C70.64 66.3501 69.88 67.0501 69.46 67.3801C69.05 67.7201 67.78 68.5301 67.78 68.5301H67.79Z" fill="#8D3E1F"/>
<path d="M35.39 39.1401C34.85 38.7401 33.3499 39.5501 31.8599 36.8701C29.0099 31.7201 14.55 31.9701 13.15 32.9901C10.42 34.9801 15.45 38.4301 19.93 44.0101C23.95 49.0201 31.98 45.3601 31.98 45.3601C31.98 45.3601 31.6 44.0401 32.37 42.9801C33.57 41.3201 35.99 39.6001 35.38 39.1501L35.39 39.1401Z" fill="#ED9DB2"/>
<path d="M35.48 40.84C35.4 40.84 35.31 40.79 35.21 40.7C35.02 40.54 34.8 40.53 34.59 40.53H34.43C34 40.53 33.28 40.53 32.44 38.66C30.46 34.24 20.76 32.82 16.38 32.82C15.63 32.82 14.3 32.86 13.83 33.15C13.03 33.64 12.62 34.65 12.67 35.29C12.48 34.87 12.36 34.35 12.4 34.04C12.45 33.66 12.72 33.16 13.2 32.87C13.67 32.59 14.71 32.28 18 32.28C23.22 32.28 29.95 33.42 31.73 36.65C32.87 38.7 34.07 38.81 34.79 38.87C35.02 38.89 35.22 38.91 35.32 38.98C35.82 39.35 35.89 40.12 35.75 40.53C35.73 40.6 35.64 40.83 35.49 40.83L35.48 40.84Z" fill="#B1771D"/>
<path d="M39.97 37.89C39.97 37.89 39.89 37.89 39.86 37.89C39.81 37.89 39.79 37.84 39.79 37.75C39.79 37.24 40.57 35.44 40.73 34.98C40.91 34.45 40.96 33.95 40.96 33.42C40.96 32.63 40.84 31.79 40.84 30.73C40.84 30.39 40.85 30.02 40.89 29.62C41.01 28.3 41.08 27.11 41.12 26.15C41.2 24.94 41.23 24.07 41.27 23.7C41.71 22.98 42.14 22.64 42.52 22.64H42.54C43.25 22.64 43.77 23.84 43.77 25.84C43.77 26.63 43.69 27.54 43.51 28.56C43.45 28.91 43.42 29.26 43.42 29.61C43.42 31.13 43.89 32.56 43.89 33.04C43.89 34.43 46.09 34.71 46.09 35.39C46.09 35.66 45.74 36 44.76 36.49C43.34 36.86 42.02 37.33 40.85 37.8C40.52 37.85 40.21 37.89 39.97 37.89Z" fill="#B1761D"/>
<path d="M61.72 37.89C61.22 37.89 60.42 37.74 59.81 37.61C59.18 37.37 58.52 37.14 57.84 36.92C56.17 36.19 55.61 35.74 55.6 35.4C55.61 34.71 57.8 34.43 57.8 33.04C57.8 32.55 58.27 31.12 58.27 29.61C58.27 29.26 58.24 28.91 58.18 28.56C58 27.54 57.92 26.63 57.92 25.84C57.92 23.83 58.44 22.64 59.15 22.64H59.17C59.55 22.64 59.98 22.98 60.42 23.7C60.47 24.06 60.5 24.96 60.58 26.2C60.63 27.15 60.7 28.32 60.81 29.62C60.85 30.02 60.86 30.38 60.86 30.73C60.86 31.79 60.74 32.63 60.74 33.42C60.74 33.94 60.8 34.45 60.97 34.98C61.13 35.44 61.9 37.22 61.91 37.74V37.76C61.91 37.84 61.89 37.89 61.84 37.89C61.8 37.89 61.77 37.89 61.73 37.89" fill="#B1761D"/>
<path d="M44.27 27.68C45.07 23.13 43.23 20.99 41.32 23.51C41.29 23.55 41.24 23.77 41.22 24.12C41.17 24.77 41.15 25.89 41.04 27.3C42.18 26.16 43.52 26.38 44.27 27.68Z" fill="#4B1E11"/>
<path d="M66.37 39.1701C66.91 38.7701 68.41 39.5801 69.9 36.9001C72.74 31.7501 87.21 32.0001 88.61 33.0201C91.34 35.0101 86.31 38.4601 81.83 44.0401C77.81 49.0501 69.84 45.3901 69.84 45.3901C69.84 45.3901 70.16 44.0701 69.38 43.0001C68.18 41.3501 65.77 39.6201 66.37 39.1701Z" fill="#ED9DB2"/>
<path d="M66.18 40.8801C66.26 40.8801 66.35 40.8301 66.45 40.7401C66.63 40.5801 66.85 40.5701 67.07 40.5701H67.23C67.66 40.5701 68.38 40.5701 69.22 38.7001C71.2 34.2801 80.9 32.8601 85.28 32.8601C86.03 32.8601 87.57 32.9001 88.04 33.1901C88.84 33.6801 89.1299 34.7301 89.0799 35.3701C89.2699 34.9501 89.4399 34.5801 89.3599 34.0301C89.2899 33.5301 88.9599 33.1701 88.5499 32.8801C88.1699 32.6101 86.24 32.3301 83.66 32.3301C78.44 32.3301 71.71 33.4701 69.93 36.7001C68.79 38.7501 67.59 38.8601 66.88 38.9301C66.65 38.9501 66.45 38.9701 66.35 39.0401C65.86 39.4101 65.78 40.1701 65.92 40.5901C65.95 40.6601 66.03 40.8901 66.18 40.8901V40.8801Z" fill="#B1771D"/>
<path d="M57.42 27.67C56.62 23.12 58.4599 20.98 60.3699 23.5C60.3899 23.53 60.43 23.65 60.45 23.85C60.5 24.43 60.5199 25.67 60.6499 27.29C59.5099 26.15 58.17 26.38 57.42 27.67Z" fill="#4B1E11"/>
<path d="M45.84 33.62C45.94 34.26 45.34 36.74 48.82 37.56C50.81 38.03 52.24 39.21 52.25 39.74C52.25 40.27 51.58 40.7 51.58 40.7C51.58 40.7 52.54 40.68 53.02 40.3C53.75 39.73 53.98 38.56 53.86 38.02L54.15 38.4C54.23 38.9 55.44 39.1 55.47 39.11C55.7 39.16 56.39 39.23 57.14 39.73C57.89 40.23 58.03 41.65 58.03 41.65C58.03 41.65 58.79 38.97 57.73 36.86C57.5 36.39 56.31 35.12 55.4 35.11C54.27 35.1 53.07 34.54 53.07 34.54C53.07 34.54 54.75 34.81 55.64 34.36C57.23 33.57 59.1 34.29 59.1 34.29C59.1 34.29 58.28 33.33 56.94 32.71C55.61 32.09 54.07 31.51 52.32 31.74C51.01 31.91 50.2 32.38 50.2 32.38L52.09 30.71C52.09 30.71 51.36 30.41 49.86 30.54C47.95 30.71 47.11 31.83 46.06 33.16L45.83 33.63L45.84 33.62Z" fill="#483C2C"/>
<path d="M50.8799 78.8501C53.2999 78.8301 55.7699 78.0801 58.5499 76.5701C62.4499 74.4501 56.6299 68.3901 54.9699 67.5301C53.9799 67.0101 56.8199 65.2501 54.3299 64.2101C53.3599 63.8001 52.7799 65.4901 50.8799 65.5401C48.9799 65.5001 48.3999 63.8101 47.4299 64.2101C44.9399 65.2601 47.7799 67.0201 46.7899 67.5301C45.1399 68.3901 39.3199 74.4501 43.2099 76.5701C45.9899 78.0801 48.4599 78.8301 50.8799 78.8501Z" fill="#B1771D"/>
<path d="M48.16 70.9301C48.05 70.8901 47.03 70.5101 46.33 69.5801C45.87 68.9701 44.89 67.4901 45.82 66.7901C45.98 66.6701 46.18 66.6001 46.4 66.6001C47.2 66.6001 48.05 67.6001 48.37 68.0301C49.08 68.9601 49.18 70.0401 49.19 70.1601L49.27 71.3301L48.16 70.9401V70.9301Z" fill="#B1771D"/>
<path d="M53.71 70.9301C53.82 70.8901 54.84 70.5101 55.54 69.5801C56 68.9701 56.98 67.4901 56.05 66.7901C55.89 66.6701 55.69 66.6001 55.47 66.6001C54.67 66.6001 53.82 67.6001 53.5 68.0301C52.79 68.9601 52.69 70.0401 52.68 70.1601L52.6 71.3301L53.7 70.9401L53.71 70.9301Z" fill="#B1771D"/>
<path d="M56.24 73.0101C56.19 72.9201 56.16 72.8601 56.12 72.8201C56.16 72.8601 56.19 72.9201 56.23 73.0101C56.26 73.1001 56.29 73.2101 56.27 73.3401C56.27 73.4701 56.2 73.6101 56.12 73.7501C55.78 74.3001 55 74.7801 54.17 74.9601C53.96 75.0001 53.75 75.0301 53.54 75.0401C53.33 75.0501 53.13 75.0301 52.93 75.0001C52.73 74.9701 52.55 74.9201 52.39 74.8501C52.22 74.7801 52.07 74.7001 51.94 74.6201C51.81 74.5401 51.7 74.45 51.6 74.36C51.51 74.28 51.43 74.1901 51.37 74.1301C51.29 74.0401 51.24 73.9701 51.21 73.9301L51.11 71.9401H51.06L50.96 73.9301C50.96 73.9301 50.88 74.0301 50.8 74.1301C50.74 74.1901 50.66 74.28 50.57 74.36C50.48 74.44 50.36 74.5301 50.23 74.6201C50.1 74.7001 49.95 74.7801 49.78 74.8501C49.61 74.9201 49.43 74.9701 49.24 75.0001C49.05 75.0301 48.84 75.0501 48.63 75.0401C48.42 75.0401 48.21 75.0101 48 74.9601C47.17 74.7901 46.39 74.3001 46.05 73.7501C45.97 73.6101 45.91 73.4701 45.9 73.3401C45.88 73.2101 45.9 73.1001 45.94 73.0101C45.98 72.9301 46.02 72.8601 46.05 72.8201C46.01 72.8601 45.97 72.9201 45.93 73.0101C45.9 73.1001 45.86 73.2101 45.88 73.3501C45.88 73.4901 45.94 73.6301 46.02 73.7801C46.35 74.3601 47.12 74.8801 47.98 75.1001C48.2 75.1501 48.41 75.1901 48.63 75.2101C48.85 75.2301 49.07 75.2101 49.28 75.1901C49.49 75.1601 49.68 75.11 49.87 75.05C50.05 74.99 50.22 74.9101 50.37 74.8201C50.52 74.7301 50.64 74.64 50.75 74.55C50.85 74.46 50.94 74.3701 51.01 74.3101C51.05 74.2701 51.08 74.2301 51.11 74.2001C51.14 74.2301 51.17 74.2701 51.21 74.3101C51.28 74.3801 51.37 74.46 51.47 74.55C51.58 74.64 51.7 74.7301 51.85 74.8201C52 74.9101 52.16 74.99 52.35 75.05C52.53 75.11 52.73 75.1601 52.94 75.1901C53.15 75.2101 53.36 75.2301 53.58 75.2101C53.8 75.2001 54.02 75.1601 54.23 75.1001C55.08 74.8801 55.86 74.3601 56.19 73.7801C56.27 73.6401 56.32 73.4901 56.33 73.3501C56.35 73.2201 56.31 73.1001 56.28 73.0101H56.24Z" fill="#2C2B2B"/>
<path d="M53.04 69.73C53.04 69.73 54.02 69.41 55.1 68.68C56.05 68.05 55.57 67.8 55.57 67.51C55.57 67.14 54.69 67.16 53.6 67.88C52.78 68.42 53.04 69.73 53.04 69.73Z" fill="#010101"/>
<path d="M48.71 69.77C47.97 69.52 47.92 69.5701 46.65 68.7201C45.7 68.0901 46.18 67.85 46.18 67.55C46.18 67.18 47.07 67.2001 48.15 67.9201C48.97 68.4601 48.71 69.77 48.71 69.77Z" fill="#010101"/>
</svg>
