<svg width="102" height="102" viewBox="0 0 102 102" fill="none" xmlns="http://www.w3.org/2000/svg">
<path d="M93.06 0.530029H9.47005C4.68174 0.530029 0.800049 4.41173 0.800049 9.20004V92.79C0.800049 97.5783 4.68174 101.46 9.47005 101.46H93.06C97.8484 101.46 101.73 97.5783 101.73 92.79V9.20004C101.73 4.41173 97.8484 0.530029 93.06 0.530029Z" fill="#DBBD64"/>
<path d="M51.24 79.6C48.29 79.6 45.45 78.53 43.55 76.72C37.3 75.03 25.15 68.8 25.15 59.37C25.15 57.94 25.35 56.52 25.76 55.02C25.81 54.52 25.88 54.01 25.96 53.49C21.63 53.44 17.41 48.97 15.9 42.82C14.38 36.62 15.8 28.41 24.37 23.93C26.36 22.89 28.04 22.39 29.52 22.39C33.49 22.39 34.91 25.87 36.17 28.93C36.67 30.16 37.19 31.42 37.85 32.45C38 32.39 38.15 32.32 38.31 32.25C40.5 31.3 44.59 29.54 51.37 29.54C57.22 29.54 61.83 31.03 64.58 32.63C65.3 31.57 65.84 30.24 66.38 28.93C67.63 25.86 69.05 22.39 73.03 22.39C77.51 22.39 82.2 25.94 84.56 29.53C88.72 35.87 87.82 45.11 82.54 50.58C80.72 52.46 78.67 53.46 76.59 53.49C76.68 54.01 76.75 54.52 76.79 55.02C77.2 56.52 77.4 57.94 77.4 59.37C77.4 69.37 64 75.25 58.78 76.7C56.85 78.57 54.19 79.6 51.25 79.6H51.24Z" fill="#2F150C"/>
<path d="M85.8 37.82C85.8 37.77 85.8 37.71 85.8 37.66C85.8 37.69 85.8 37.72 85.8 37.75C85.8 37.59 85.78 37.44 85.77 37.28C85.77 37.33 85.77 37.39 85.78 37.44C85.78 37.38 85.78 37.32 85.77 37.26C85.77 37.22 85.77 37.19 85.77 37.15C85.77 37.09 85.77 37.04 85.76 36.98C85.76 37.03 85.76 37.08 85.77 37.14C85.76 36.98 85.74 36.81 85.72 36.65C85.72 36.67 85.72 36.7 85.72 36.72C85.72 36.67 85.72 36.63 85.71 36.58C85.71 36.56 85.71 36.54 85.71 36.51C85.71 36.52 85.71 36.54 85.71 36.55C85.69 36.36 85.66 36.18 85.63 35.99C85.63 36.01 85.63 36.03 85.63 36.04C85.63 36.01 85.63 35.98 85.62 35.95C85.62 35.89 85.6 35.84 85.59 35.78C85.59 35.81 85.6 35.85 85.61 35.88C85.58 35.72 85.56 35.56 85.52 35.4C85.53 35.46 85.54 35.52 85.55 35.58C85.54 35.51 85.52 35.45 85.51 35.38C85.51 35.35 85.5 35.31 85.49 35.28C85.48 35.22 85.47 35.17 85.46 35.11C85.47 35.16 85.48 35.21 85.49 35.27C85.45 35.1 85.42 34.93 85.38 34.76C85.38 34.79 85.4 34.83 85.4 34.86C85.38 34.79 85.37 34.72 85.35 34.65C85.35 34.66 85.35 34.68 85.35 34.69C85.3 34.5 85.25 34.31 85.2 34.13C85.2 34.15 85.21 34.17 85.22 34.19C85.22 34.16 85.2 34.13 85.19 34.1C85.19 34.1 85.19 34.09 85.19 34.08C85.18 34.04 85.16 33.99 85.15 33.95C85.15 33.98 85.17 34.01 85.18 34.04C85.13 33.88 85.08 33.72 85.03 33.56C85.05 33.62 85.07 33.68 85.09 33.75C85.07 33.68 85.05 33.62 85.02 33.55C85.01 33.52 85 33.49 84.99 33.45C84.97 33.4 84.95 33.34 84.93 33.29C84.95 33.34 84.96 33.39 84.98 33.44C84.92 33.27 84.86 33.1 84.79 32.93C84.81 32.97 84.82 33.02 84.84 33.06C84.81 32.99 84.78 32.91 84.75 32.84C84.75 32.85 84.75 32.86 84.76 32.88C84.69 32.69 84.61 32.51 84.53 32.33C84.54 32.35 84.55 32.38 84.56 32.4C84.55 32.37 84.53 32.34 84.52 32.31C84.52 32.29 84.5 32.28 84.5 32.26C84.49 32.24 84.48 32.22 84.47 32.19C84.47 32.21 84.49 32.22 84.49 32.24C84.42 32.08 84.34 31.92 84.26 31.77C84.29 31.83 84.32 31.89 84.35 31.96C84.32 31.9 84.29 31.83 84.26 31.77C84.24 31.74 84.23 31.7 84.21 31.67C84.18 31.62 84.16 31.57 84.13 31.52C84.15 31.57 84.18 31.61 84.2 31.66C84.12 31.5 84.03 31.33 83.94 31.17C83.97 31.23 84 31.28 84.03 31.34C83.98 31.26 83.94 31.17 83.89 31.09C83.89 31.1 83.9 31.11 83.91 31.12C83.81 30.94 83.7 30.77 83.59 30.59C83.6 30.61 83.62 30.64 83.63 30.66C83.61 30.63 83.6 30.61 83.58 30.58C83.56 30.55 83.54 30.53 83.53 30.5C83.47 30.41 83.42 30.32 83.36 30.24C83.42 30.33 83.47 30.41 83.53 30.5C83.44 30.35 83.34 30.21 83.24 30.06C83.24 30.06 83.25 30.08 83.26 30.09C83.26 30.08 83.25 30.07 83.24 30.06C83.22 30.03 83.19 29.99 83.17 29.96C83.14 29.91 83.11 29.87 83.07 29.82C83.1 29.86 83.13 29.9 83.15 29.94C83.04 29.79 82.93 29.64 82.81 29.49C82.86 29.56 82.91 29.62 82.96 29.69C82.89 29.6 82.82 29.51 82.75 29.42C82.75 29.42 82.76 29.44 82.77 29.44C82.64 29.27 82.5 29.11 82.36 28.95C82.38 28.97 82.4 28.99 82.42 29.02C82.4 29 82.38 28.97 82.36 28.95C82.33 28.92 82.3 28.89 82.28 28.85C82.21 28.77 82.15 28.7 82.08 28.62C82.15 28.69 82.21 28.77 82.27 28.84C82.16 28.71 82.04 28.59 81.93 28.46C81.95 28.48 81.97 28.5 81.99 28.52C81.97 28.5 81.95 28.48 81.93 28.45C81.9 28.41 81.86 28.38 81.83 28.34C81.79 28.3 81.76 28.26 81.72 28.23C81.75 28.26 81.78 28.3 81.81 28.33C81.68 28.19 81.54 28.05 81.4 27.92C81.48 28 81.56 28.07 81.63 28.15C81.53 28.05 81.43 27.95 81.33 27.86C81.33 27.86 81.33 27.86 81.34 27.87C81.18 27.72 81.02 27.57 80.85 27.42C80.81 27.38 80.77 27.35 80.72 27.31C80.64 27.25 80.57 27.18 80.49 27.12C80.56 27.18 80.63 27.24 80.7 27.3C80.57 27.19 80.44 27.08 80.3 26.97C80.34 27 80.37 27.03 80.41 27.06C80.37 27.03 80.33 27 80.29 26.97C80.24 26.93 80.2 26.9 80.15 26.86C80.11 26.83 80.07 26.8 80.04 26.77C80.07 26.8 80.11 26.82 80.14 26.85C79.97 26.72 79.8 26.59 79.63 26.47C79.75 26.55 79.86 26.64 79.97 26.72C79.84 26.62 79.71 26.52 79.57 26.43C79.38 26.3 79.18 26.16 78.98 26.03C78.92 25.99 78.86 25.96 78.81 25.92C78.66 25.82 78.5 25.73 78.35 25.64C78.4 25.67 78.45 25.7 78.5 25.73C78.45 25.7 78.4 25.67 78.34 25.64C78.28 25.6 78.22 25.57 78.15 25.53C78.11 25.51 78.08 25.49 78.04 25.46C78.08 25.48 78.11 25.5 78.15 25.52C77.93 25.4 77.72 25.27 77.49 25.16C67.78 20.08 68.9 30.23 64.82 34.45C62.55 32.8 57.69 30.92 51.32 30.92C43.03 30.92 39.11 33.6 37.31 34.1C33.6 29.7 34.4 20.22 24.95 25.16C9.37996 33.3 19 54.82 27.63 51.88C27.35 53.01 27.15 54.15 27.04 55.29C26.65 56.68 26.45 58.03 26.45 59.39C26.45 68.36 38.88 74.18 44.19 75.52C47.44 78.91 54.26 79.43 58.01 75.51C63.42 74.12 75.98 68.3 75.98 59.39C75.98 58.02 75.78 56.68 75.39 55.29C75.28 54.16 75.08 53.01 74.8 51.88C80.22 53.73 86.03 45.95 85.75 37.88C85.75 37.89 85.75 37.9 85.75 37.92C85.75 37.89 85.75 37.87 85.75 37.85L85.8 37.82Z" fill="#2F150C"/>
<path d="M64.99 34.53C62.78 32.86 57.85 30.9099 51.37 30.9099C43.08 30.9099 39.16 33.59 37.36 34.09C31.09 31.33 36.34 68.1499 42.34 70.0999C47.81 71.8799 47.45 73 51.42 73.02H51.47C55.45 73.01 55.08 71.8799 60.55 70.0999C66.56 68.1499 71.26 31.78 64.99 34.53Z" fill="#F0EFEF"/>
<path d="M73.97 51.48C73.9 56.38 62.58 59.07 51.26 59.23C39.94 59.07 28.62 56.38 28.55 51.48C27.18 54.32 26.49 56.81 26.49 59.37C26.49 68.8 40.22 74.75 44.99 75.67C45.73 75.98 56.43 76 57.17 75.69C61.94 74.77 76.01 68.8 76.01 59.37C76.01 56.81 75.32 54.32 73.95 51.48" fill="#F0EFEF"/>
<path d="M77.5399 25.1501C66.6399 19.4601 69.38 32.92 63.11 35.68C61.31 35.17 53.8099 34.48 51.2899 34.39H51.27H51.25C48.73 34.47 41.2299 35.17 39.4299 35.68C33.1599 32.92 35.9 19.4501 25 25.1501C8.88995 33.5701 19.73 56.3 28.56 51.48C26.5 67.6 36.15 71.29 42.16 73.24C44.3 73.93 58.2099 73.94 60.3699 73.24C60.4399 73.22 75.82 69.38 73.97 51.48C82.8 56.3 93.64 33.5601 77.53 25.1501" fill="#231F20"/>
<path d="M77.5399 25.1501C66.6399 19.4601 69.38 32.92 63.11 35.68C61.31 35.17 53.8099 34.48 51.2899 34.39H51.27H51.25C48.73 34.47 41.2299 35.17 39.4299 35.68C33.1599 32.92 35.9 19.4501 25 25.1501C8.88995 33.5701 19.73 56.3 28.56 51.48C26.56 70.9 42.22 73.39 44.25 75.5C47.56 78.96 54.5999 79.44 58.2899 75.25C59.5899 73.78 75.9799 70.9 73.9799 51.48C82.8099 56.3 93.6499 33.5601 77.5399 25.1501Z" fill="#231F20"/>
<path d="M43.58 75.02C42.57 74.59 41.49 74.07 40.38 73.46C41.71 74.12 42.84 74.6 43.58 75.02Z" fill="#231F20"/>
<path d="M46.83 76.25C45.9 75.94 44.79 75.54 43.58 75.02C42.85 74.59 41.7101 74.11 40.3801 73.46C39.6101 73.03 38.82 72.56 38.04 72.03C38.27 72.1 38.5 72.18 38.73 72.24C40.81 73.41 42.9601 74.36 45.0201 75.03C45.5101 75.44 46.1001 75.8 46.7701 76.08C46.7901 76.14 46.81 76.19 46.83 76.25Z" fill="#231F20"/>
<path d="M58.29 75.25C58.63 74.86 60.04 74.37 61.89 73.5C60.59 74.23 59.36 74.8 58.29 75.25Z" fill="#231F20"/>
<path d="M55.6899 76.23C55.7199 76.15 55.7499 76.06 55.7699 75.98C56.5399 75.64 57.1899 75.22 57.7299 74.72C59.2299 74.16 60.8299 73.46 62.4299 72.63C62.9699 72.48 63.5099 72.32 64.0699 72.15C63.3399 72.65 62.5999 73.09 61.8899 73.49C60.0399 74.36 58.6399 74.85 58.2899 75.24C57.2299 75.68 56.3299 76 55.6899 76.22" fill="#231F20"/>
<path d="M85.83 38.5C85.87 34.94 84.47 31.43 82.16 28.74C80.04 26.27 76.41 23.75 73.02 23.75C67.66 23.75 68.21 32.26 63.98 35.19C68.21 32.27 67.66 23.75 73.02 23.75C74.2 23.75 75.67 24.16 77.54 25.14C83.57 28.29 85.82 33.44 85.82 38.41C85.82 38.44 85.82 38.47 85.82 38.5" fill="#231F20"/>
<path d="M75.52 56.9601C75.52 57.2901 75.51 57.6201 75.48 57.9501C75.48 58.0701 75.46 58.1901 75.44 58.3101C74.23 68.5801 57.27 76.0701 51.57 76.1801C51.47 76.1801 51.37 76.1801 51.27 76.1801C43.39 76.1801 28.43 68.32 27.11 58.36C27.05 57.9 27.02 57.4301 27.02 56.9601C27.02 47.5901 34.85 36.8901 34.85 36.8901C34.85 36.8901 42.76 32.3401 51.27 32.3401C59.28 32.3401 67.69 36.8901 67.69 36.8901C67.69 36.8901 75.52 47.6001 75.52 56.9601Z" fill="#231F20"/>
<path d="M51.2701 76.19C47.6701 76.19 42.2901 74.06 37.8801 70.89C32.8301 67.25 29.6401 62.74 29.1301 58.5C29.0801 58.08 29.05 57.66 29.05 57.23C29.05 48.75 34.5201 38.49 36.2701 36.81C37.6101 35.52 44.45 32.35 51.2701 32.35C57.7 32.35 64.86 35.49 66.28 36.83C68.08 38.53 73.4901 48.78 73.4901 57.23C73.4901 57.54 73.4801 57.85 73.4601 58.15C73.4601 58.27 73.44 58.38 73.43 58.49C72.36 66 59.42 76.04 51.54 76.19H51.58H51.28" fill="#3F403F"/>
<path d="M31.54 53.6499C31.54 53.6499 36.2301 63.34 40.2401 63.34C43.3101 63.34 47.16 61.7699 47.16 61.7699C47.16 61.7699 48.79 45.6299 39.89 45.1099C35.88 44.8799 31.54 53.6599 31.54 53.6599" fill="#231F20"/>
<path d="M71.07 53.6499C71.07 53.6499 66.38 63.34 62.37 63.34C59.3 63.34 55.45 61.7699 55.45 61.7699C55.45 61.7699 53.82 45.6299 62.72 45.1099C66.73 44.8799 71.07 53.6599 71.07 53.6599" fill="#231F20"/>
<path d="M35.89 47.23C35.89 47.23 35.9 47.19 35.94 47.12C35.98 47.05 36.03 46.95 36.11 46.83C36.18 46.71 36.29 46.57 36.41 46.42C36.54 46.28 36.69 46.1 36.88 45.95C36.97 45.87 37.07 45.78 37.18 45.7C37.29 45.63 37.41 45.55 37.52 45.47C37.64 45.39 37.77 45.32 37.9 45.25C38.04 45.19 38.17 45.11 38.32 45.06C38.62 44.95 38.93 44.84 39.27 44.8C39.6 44.73 39.95 44.73 40.29 44.73C40.63 44.73 40.97 44.81 41.3 44.87C41.62 44.97 41.93 45.08 42.22 45.2C42.5 45.35 42.76 45.5 43 45.65C43.23 45.81 43.43 45.99 43.61 46.15C43.7 46.23 43.79 46.31 43.86 46.38C43.94 46.46 44 46.55 44.06 46.62C44.19 46.77 44.28 46.91 44.37 47.03C44.53 47.26 44.61 47.39 44.61 47.39C44.61 47.39 44.45 47.34 44.2 47.23C44.07 47.18 43.92 47.11 43.76 47.03C43.6 46.95 43.4 46.87 43.19 46.8C42.98 46.73 42.77 46.62 42.54 46.54C42.3 46.47 42.06 46.4 41.81 46.31C41.56 46.26 41.3 46.21 41.04 46.14C40.91 46.13 40.78 46.12 40.64 46.1C40.51 46.09 40.38 46.06 40.24 46.07C39.97 46.07 39.71 46.05 39.45 46.09C39.32 46.11 39.19 46.1 39.06 46.13C38.93 46.15 38.81 46.18 38.68 46.2C38.55 46.21 38.43 46.26 38.31 46.28C38.19 46.31 38.07 46.34 37.95 46.38C37.72 46.45 37.49 46.52 37.29 46.6C37.08 46.67 36.9 46.76 36.72 46.82C36.56 46.9 36.4 46.96 36.28 47.02C36.16 47.08 36.06 47.13 35.99 47.16C35.92 47.19 35.89 47.21 35.89 47.21V47.23Z" fill="#F0EFEF"/>
<path d="M66.56 47.23C66.56 47.23 66.52 47.21 66.46 47.18C66.39 47.15 66.3 47.1 66.17 47.04C66.05 46.98 65.89 46.92 65.73 46.84C65.56 46.78 65.37 46.69 65.16 46.62C64.96 46.54 64.73 46.47 64.5 46.4C64.39 46.36 64.26 46.33 64.14 46.3C64.02 46.28 63.9 46.23 63.77 46.22C63.64 46.2 63.52 46.18 63.39 46.15C63.26 46.12 63.13 46.13 63 46.11C62.74 46.07 62.47 46.09 62.21 46.09C62.08 46.08 61.95 46.11 61.81 46.12C61.68 46.14 61.55 46.15 61.41 46.16C61.15 46.22 60.89 46.27 60.64 46.33C60.4 46.41 60.15 46.49 59.91 46.56C59.68 46.64 59.46 46.74 59.26 46.82C59.06 46.9 58.85 46.97 58.69 47.05C58.53 47.13 58.37 47.19 58.25 47.25C58 47.36 57.84 47.41 57.84 47.41C57.84 47.41 57.92 47.27 58.08 47.05C58.16 46.93 58.26 46.8 58.39 46.65C58.45 46.57 58.52 46.49 58.59 46.41C58.67 46.34 58.76 46.26 58.84 46.18C59.02 46.02 59.22 45.84 59.45 45.68C59.69 45.53 59.95 45.38 60.23 45.23C60.52 45.11 60.83 45 61.15 44.9C61.48 44.85 61.82 44.77 62.16 44.76C62.5 44.76 62.85 44.76 63.18 44.83C63.52 44.87 63.83 44.99 64.13 45.09C64.28 45.14 64.42 45.22 64.55 45.28C64.68 45.35 64.82 45.41 64.93 45.5C65.05 45.58 65.16 45.66 65.27 45.73C65.38 45.81 65.47 45.9 65.57 45.98C65.76 46.13 65.9 46.31 66.04 46.45C66.17 46.6 66.27 46.74 66.35 46.86C66.43 46.98 66.48 47.08 66.52 47.15C66.56 47.21 66.57 47.26 66.57 47.26L66.56 47.23Z" fill="#F0EFEF"/>
<path d="M47.17 61.7699C39.78 65.2899 34.57 63.0099 32.23 53.8799C32.23 53.8799 41.12 46.9699 45.85 55.8299C46.58 57.1999 47.18 61.7699 47.18 61.7699" fill="white"/>
<path d="M40.0201 62.35C37.9701 62.3 36.2501 60.68 35.5801 58.42C35.3801 57.73 35.27 56.98 35.29 56.2C35.36 53.05 37.3101 51.93 39.7801 51.86C39.9301 51.86 40.0901 51.86 40.2401 51.86C42.9201 51.92 44.9501 54.7 45.0001 56.41C45.0901 59.75 42.7001 62.41 40.0201 62.36" fill="#099948"/>
<path d="M40.04 61.5C38.48 61.46 37.12 60.13 36.56 58.11C36.38 57.47 36.3 56.78 36.31 56.08C36.36 53.73 37.47 52.61 39.81 52.53C39.93 52.53 40.04 52.53 40.16 52.53H40.23C42.34 52.58 43.95 55.04 43.98 56.31C44.02 57.84 43.51 59.29 42.58 60.3C41.87 61.07 40.99 61.5 40.1 61.5H40.04Z" fill="#0D532A"/>
<path d="M55.42 61.7699C62.81 65.2899 68.02 63.0099 70.36 53.8799C70.36 53.8799 61.47 46.9699 56.74 55.8299C56.01 57.1999 55.41 61.7699 55.41 61.7699" fill="white"/>
<path d="M62.57 62.35C64.62 62.3 66.35 60.68 67.01 58.42C67.21 57.73 67.32 56.98 67.3 56.2C67.23 53.05 65.28 51.93 62.81 51.86C62.66 51.86 62.5 51.86 62.35 51.86C59.67 51.92 57.64 54.7 57.59 56.41C57.5 59.75 59.89 62.41 62.57 62.36" fill="#099948"/>
<path d="M62.48 61.5C61.59 61.5 60.71 61.07 60 60.3C59.07 59.29 58.56 57.83 58.6 56.31C58.63 55.04 60.24 52.58 62.36 52.53H62.42C62.54 52.53 62.66 52.53 62.77 52.53C65.11 52.6 66.22 53.73 66.27 56.08C66.28 56.78 66.2 57.46 66.02 58.1C65.46 60.13 64.1 61.46 62.54 61.5H62.48Z" fill="#0D532A"/>
<path d="M40.34 54.94C40.3 56.96 38.95 58.57 37.32 58.54C36.59 58.53 35.93 58.18 35.42 57.61C35.24 57.01 35.15 56.35 35.17 55.67C35.23 52.91 36.94 51.93 39.1 51.87C39.88 52.54 40.37 53.68 40.34 54.94Z" fill="white"/>
<path d="M42.8999 60.79C42.8899 61.48 42.43 62.02 41.88 62.01C41.33 62 40.89 61.43 40.91 60.75C40.92 60.06 41.3799 59.52 41.9299 59.53C42.4799 59.54 42.9099 60.11 42.8999 60.79Z" fill="white"/>
<path d="M62.44 55.2499C62.4 57.2699 61.0499 58.8799 59.4199 58.8499C58.6899 58.8299 58.03 58.4799 57.52 57.9199C57.34 57.3199 57.25 56.6599 57.27 55.9799C57.33 53.2199 59.0399 52.2399 61.1999 52.1799C61.9799 52.8599 62.47 53.9899 62.44 55.2499Z" fill="white"/>
<path d="M65.19 60.79C65.18 61.48 64.72 62.02 64.17 62.01C63.62 62 63.18 61.43 63.2 60.75C63.21 60.06 63.67 59.52 64.22 59.53C64.77 59.54 65.2 60.11 65.19 60.79Z" fill="white"/>
<path d="M45.84 62.35C46.28 62.18 46.72 61.98 47.17 61.77C46.72 61.99 46.27 62.18 45.84 62.35Z" fill="#424241"/>
<path d="M47.17 61.7701C47.17 61.7701 46.57 57.2001 45.84 55.8301C43.99 52.3701 41.51 51.3201 39.17 51.3201C35.52 51.3201 32.22 53.8901 32.22 53.8901C32.34 54.3701 32.47 54.8201 32.61 55.2601C32.47 54.8201 32.34 54.3601 32.22 53.8901C32.22 53.8901 35.52 51.3201 39.17 51.3201C41.51 51.3201 43.99 52.3801 45.84 55.8301C46.56 57.1901 47.15 61.6401 47.17 61.7701Z" fill="#292526"/>
<path d="M45.84 62.35C45.6 61.05 45.27 59.58 44.91 58.91C44.84 58.78 44.78 58.66 44.71 58.54C44.92 57.88 45.02 57.1601 45 56.4001C44.95 54.6901 42.92 51.91 40.24 51.85H40.17C40.04 51.85 39.91 51.85 39.78 51.85C39.56 51.85 39.35 51.8701 39.14 51.8901C39.13 51.8801 39.11 51.87 39.1 51.86C37.15 51.92 35.57 52.7201 35.23 54.9001C34.31 55.2001 33.5 55.5901 32.85 55.9501C32.77 55.7201 32.69 55.4901 32.61 55.2401C32.47 54.8001 32.34 54.3401 32.22 53.8701C32.22 53.8701 35.52 51.3 39.17 51.3C41.51 51.3 43.99 52.3601 45.84 55.8101C46.57 57.1801 47.17 61.7501 47.17 61.7501C46.72 61.9601 46.28 62.1601 45.84 62.3301" fill="#E2E1E1"/>
<path d="M44.7 58.54C44.45 58.1 44.19 57.71 43.92 57.35C43.97 57.01 43.99 56.66 43.98 56.3C43.95 55.03 42.34 52.5701 40.23 52.5201H40.16C40.04 52.5201 39.92 52.5201 39.81 52.5201C39.77 52.5201 39.73 52.5201 39.69 52.5201C39.53 52.2801 39.35 52.0601 39.14 51.8801C39.35 51.8601 39.56 51.8401 39.78 51.8401C39.91 51.8401 40.04 51.8401 40.17 51.8401H40.24C42.92 51.9001 44.95 54.6801 45 56.3901C45.02 57.1501 44.91 57.8701 44.71 58.5301" fill="#29924A"/>
<path d="M43.9199 57.35C42.8299 55.91 41.5999 55.1001 40.3399 54.7001C40.3199 53.8801 40.0699 53.13 39.6799 52.54C39.7199 52.54 39.7599 52.54 39.7999 52.54C39.9199 52.54 40.0299 52.54 40.1499 52.54H40.2199C42.3299 52.59 43.9399 55.0501 43.9699 56.3201C43.9699 56.6701 43.9599 57.0201 43.9099 57.3701" fill="#1C532D"/>
<path d="M35.23 54.91C35.56 52.73 37.15 51.93 39.1 51.87C39.11 51.88 39.13 51.89 39.14 51.9C39.34 52.08 39.53 52.3 39.69 52.54C40.08 53.13 40.32 53.88 40.35 54.7C39.65 54.48 38.94 54.38 38.25 54.38C37.19 54.38 36.17 54.59 35.24 54.9" fill="#E2E1E1"/>
<path d="M56.75 62.35C56.32 62.18 55.87 61.99 55.42 61.77C55.42 61.77 55.42 61.73 55.44 61.65C55.44 61.72 55.43 61.77 55.43 61.77C55.88 61.98 56.32 62.18 56.76 62.35" fill="#424241"/>
<path d="M55.4299 61.6599C55.5299 60.9399 56.0799 57.08 56.7399 55.83C56.9599 55.41 57.1999 55.0299 57.4399 54.6699C57.1999 55.0199 56.9699 55.3999 56.7399 55.8199C56.0799 57.0699 55.5199 60.94 55.4299 61.65" fill="#292526"/>
<path d="M56.75 62.3499C56.31 62.1799 55.87 61.98 55.42 61.77C55.42 61.77 55.42 61.7299 55.43 61.6599C55.53 60.9499 56.0801 57.08 56.7401 55.83C56.9601 55.41 57.2 55.0299 57.44 54.6799C57.33 55.0599 57.27 55.4899 57.26 55.9799C57.24 56.6599 57.34 57.3199 57.51 57.9199C57.59 58.0199 57.6801 58.0999 57.7701 58.1799C57.8001 58.2999 57.83 58.4199 57.87 58.5399C57.8 58.6599 57.73 58.7799 57.67 58.9099C57.31 59.5899 56.9801 61.0499 56.7401 62.3499" fill="#E2E1E1"/>
<path d="M57.88 58.5399C57.84 58.4199 57.81 58.2999 57.78 58.1799C57.85 58.2399 57.92 58.2999 57.99 58.3499C57.95 58.4099 57.92 58.4699 57.88 58.5399Z" fill="#29924A"/>
<path d="M69.74 55.9601C69.04 55.5701 68.1299 55.1501 67.1199 54.8301C66.5799 52.7201 64.88 51.91 62.81 51.85C62.68 51.85 62.55 51.85 62.42 51.85H62.35C61.8 51.86 61.28 51.9901 60.8 52.2001C60.41 52.2301 60.04 52.3001 59.7 52.4001C60.9 51.6101 62.18 51.3101 63.42 51.3101C67.07 51.3101 70.3699 53.8801 70.3699 53.8801C70.2399 54.3801 70.11 54.8601 69.96 55.3201C69.89 55.5401 69.82 55.7501 69.74 55.9601Z" fill="#E2E1E1"/>
<path d="M67.12 54.83C66.77 54.72 66.41 54.63 66.04 54.56C65.6 53.24 64.54 52.59 62.78 52.53C62.66 52.53 62.54 52.53 62.43 52.53H62.37C62.12 52.53 61.87 52.58 61.64 52.65C61.51 52.47 61.36 52.32 61.2 52.18C61.06 52.18 60.93 52.19 60.8 52.2C61.28 51.99 61.8001 51.87 62.3501 51.85H62.42C62.55 51.85 62.68 51.85 62.81 51.85C64.88 51.91 66.59 52.71 67.12 54.83Z" fill="#29924A"/>
<path d="M62.41 54.65C62.33 53.88 62.05 53.18 61.63 52.64C61.87 52.57 62.11 52.53 62.36 52.52H62.42C62.54 52.52 62.66 52.52 62.77 52.52C64.53 52.58 65.59 53.23 66.03 54.55C65.48 54.44 64.91 54.38 64.34 54.38C63.7 54.38 63.05 54.46 62.41 54.64" fill="#1C532D"/>
<path d="M57.99 58.3499C57.92 58.2999 57.8499 58.2399 57.7799 58.1799C57.6899 58.0999 57.6 58.0099 57.52 57.9199C57.34 57.3199 57.25 56.6599 57.27 55.9799C57.28 55.4899 57.3399 55.0599 57.4499 54.6799C58.1399 53.6699 58.8999 52.9399 59.6999 52.4099C60.0399 52.2999 60.41 52.24 60.8 52.21C60.93 52.2 61.0699 52.1899 61.1999 52.1899C61.3599 52.3299 61.5099 52.4899 61.6399 52.6599C62.0499 53.1999 62.3299 53.8999 62.4199 54.6699C60.8399 55.1199 59.28 56.2199 58 58.3699" fill="#E2E1E1"/>
<path d="M47.17 61.7701C47.08 61.3201 46.98 60.87 46.87 60.42C46.77 59.97 46.67 59.52 46.56 59.07C46.45 58.63 46.34 58.18 46.21 57.74C46.09 57.29 45.94 56.9 45.78 56.47C45.68 56.28 45.59 56.02 45.49 55.88L45.13 55.31C44.87 54.95 44.62 54.58 44.32 54.25C44.18 54.08 44.03 53.9201 43.87 53.7701C43.72 53.6101 43.56 53.46 43.39 53.33C43.22 53.19 43.06 53.05 42.87 52.94C42.69 52.81 42.51 52.7 42.32 52.61C41.95 52.39 41.55 52.25 41.14 52.12C40.73 51.99 40.31 51.92 39.89 51.88C39.46 51.85 39.03 51.84 38.6 51.89C38.17 51.92 37.74 52.01 37.32 52.1C36.47 52.3 35.64 52.61 34.84 52.99C34.44 53.18 34.05 53.39 33.67 53.62C33.29 53.85 32.91 54.1001 32.58 54.3401L32.79 53.73L33.13 54.93C33.23 55.33 33.39 55.72 33.52 56.1C33.66 56.49 33.8 56.88 33.98 57.25C34.16 57.62 34.29 58.01 34.51 58.36C34.72 58.71 34.88 59.1 35.13 59.41C35.37 59.73 35.57 60.1 35.86 60.38C36.13 60.67 36.38 60.99 36.7 61.24L37.15 61.63L37.65 61.95C37.97 62.19 38.35 62.33 38.71 62.5C39.07 62.67 39.47 62.73 39.86 62.86C40.26 62.91 40.66 62.99 41.07 63.01C41.48 63 41.89 63.05 42.3 62.99C42.71 62.94 43.13 62.9401 43.54 62.8401C43.95 62.7501 44.37 62.7 44.77 62.57C45.17 62.44 45.58 62.35 45.98 62.2L47.18 61.7701H47.17ZM47.17 61.7701L46.04 62.35C45.66 62.54 45.25 62.68 44.86 62.85C44.46 63.03 44.04 63.12 43.63 63.25C43.22 63.4 42.79 63.44 42.36 63.54C41.93 63.64 41.49 63.62 41.05 63.66C40.61 63.67 40.17 63.6201 39.72 63.5901C39.29 63.4801 38.83 63.4401 38.42 63.2701C38 63.1101 37.57 62.97 37.19 62.72L36.6 62.38L36.07 61.97C35.7 61.71 35.4 61.37 35.09 61.05C34.76 60.74 34.53 60.36 34.25 60.01C33.97 59.66 33.78 59.26 33.54 58.89C33.3 58.52 33.13 58.11 32.94 57.72C32.74 57.32 32.59 56.92 32.44 56.51C32.29 56.1 32.12 55.7001 32.01 55.2801L31.64 54.0301L31.53 53.66L31.85 53.42C32.26 53.11 32.65 52.86 33.06 52.62C33.47 52.38 33.9 52.16 34.33 51.95C35.19 51.54 36.11 51.22 37.05 51C37.53 50.9 38.01 50.83 38.5 50.8C38.99 50.76 39.48 50.7901 39.97 50.8401C40.46 50.9001 40.95 51 41.42 51.17C41.65 51.25 41.89 51.33 42.11 51.45C42.34 51.56 42.55 51.67 42.76 51.8C42.98 51.92 43.18 52.06 43.37 52.22C43.57 52.36 43.75 52.53 43.93 52.69C44.12 52.85 44.28 53.0301 44.44 53.2101C44.61 53.3901 44.76 53.57 44.9 53.76C45.2 54.14 45.45 54.55 45.69 54.95L46.02 55.57C46.16 55.83 46.19 56.01 46.29 56.24C46.42 56.69 46.55 57.18 46.62 57.63C46.71 58.09 46.78 58.55 46.84 59.01C46.97 59.93 47.07 60.8501 47.12 61.7701H47.17Z" fill="#0B0B0B"/>
<path d="M55.42 61.7701C55.48 60.8501 55.57 59.93 55.7 59.01C55.76 58.55 55.83 58.09 55.92 57.63C55.99 57.18 56.12 56.69 56.25 56.24C56.34 56.01 56.38 55.83 56.52 55.57L56.85 54.95C57.1 54.54 57.34 54.13 57.64 53.76C57.78 53.57 57.94 53.3801 58.1 53.2101C58.26 53.0301 58.43 52.85 58.61 52.69C58.79 52.52 58.97 52.36 59.17 52.22C59.36 52.07 59.56 51.92 59.78 51.8C59.99 51.66 60.21 51.55 60.43 51.45C60.65 51.33 60.89 51.26 61.12 51.17C61.59 51.01 62.08 50.9101 62.57 50.8401C63.06 50.7901 63.56 50.76 64.05 50.8C64.54 50.82 65.02 50.9 65.5 51C66.45 51.22 67.36 51.54 68.23 51.95C68.66 52.15 69.09 52.38 69.5 52.62C69.92 52.86 70.3 53.12 70.71 53.42L71.03 53.66L70.92 54.0301L70.55 55.2801C70.44 55.7001 70.27 56.1 70.12 56.51C69.97 56.92 69.82 57.33 69.62 57.72C69.43 58.11 69.26 58.52 69.02 58.89C68.78 59.26 68.6 59.66 68.31 60.01C68.03 60.36 67.8 60.74 67.48 61.05C67.17 61.37 66.87 61.71 66.5 61.97L65.97 62.38L65.38 62.72C65 62.97 64.57 63.1101 64.15 63.2701C63.73 63.4401 63.28 63.4801 62.85 63.5901C62.41 63.6201 61.96 63.67 61.52 63.66C61.08 63.62 60.64 63.64 60.21 63.54C59.79 63.44 59.35 63.4 58.94 63.25C58.53 63.11 58.11 63.03 57.71 62.85C57.31 62.68 56.91 62.55 56.53 62.35L55.4 61.7701H55.42ZM55.42 61.7701L56.62 62.2C57.02 62.35 57.43 62.44 57.83 62.57C58.23 62.71 58.65 62.7501 59.06 62.8401C59.47 62.9401 59.89 62.94 60.3 62.99C60.71 63.04 61.12 62.99 61.53 63.01C61.94 62.99 62.34 62.91 62.74 62.86C63.12 62.73 63.52 62.67 63.89 62.5C64.25 62.33 64.63 62.19 64.95 61.95L65.45 61.63L65.9 61.24C66.22 61 66.47 60.68 66.74 60.38C67.03 60.1 67.22 59.73 67.47 59.41C67.72 59.09 67.88 58.71 68.09 58.36C68.3 58.02 68.44 57.62 68.62 57.25C68.8 56.88 68.94 56.5 69.08 56.1C69.22 55.71 69.37 55.33 69.47 54.93L69.81 53.73L70.02 54.3401C69.69 54.1001 69.3 53.85 68.93 53.62C68.55 53.39 68.16 53.19 67.76 52.99C66.96 52.6 66.13 52.3 65.28 52.1C64.85 52 64.43 51.92 64 51.89C63.57 51.84 63.14 51.85 62.72 51.88C62.29 51.92 61.88 52 61.47 52.12C61.07 52.25 60.66 52.39 60.29 52.61C60.1 52.7 59.92 52.82 59.74 52.94C59.56 53.05 59.39 53.19 59.22 53.33C59.05 53.46 58.89 53.6201 58.74 53.7701C58.58 53.9201 58.43 54.08 58.29 54.25C57.99 54.58 57.73 54.94 57.48 55.31L57.12 55.88C57.02 56.02 56.93 56.28 56.83 56.47C56.67 56.89 56.52 57.28 56.4 57.74C56.27 58.18 56.15 58.62 56.05 59.07C55.94 59.52 55.84 59.97 55.74 60.42C55.64 60.87 55.54 61.3201 55.45 61.7701H55.42Z" fill="#0B0B0B"/>
<path d="M51.4301 59.52C51.4301 59.52 51.2801 59.52 51.1101 59.51C50.9501 59.51 50.8201 59.51 50.7901 59.52C46.3201 60.48 43.0601 67.78 43.0601 70.94C43.0601 74.1 45.7801 76.81 50.7601 76.81C50.8601 76.81 50.9601 76.81 51.0601 76.81H51.1101H51.1601C51.2601 76.81 51.3601 76.81 51.4601 76.81C56.4401 76.81 59.4601 74.1 59.4601 70.94C59.4601 67.78 55.9001 60.49 51.4301 59.52Z" fill="#8A8C8E"/>
<path d="M51.22 73.0099C52.57 72.9999 54.56 71.9999 54.56 71.9999C54.56 71.9999 53.97 72.2299 53.04 72.1599C51.89 72.0699 51.23 70.9199 51.23 70.9199H51.22H51.21C51.21 70.9199 50.55 72.0599 49.4 72.1599C48.46 72.2299 47.88 71.9999 47.88 71.9999C47.88 71.9999 49.87 72.9999 51.22 73.0099Z" fill="#5B5C5C"/>
<path d="M50.53 69.42C50.53 69.42 49.7401 68.7801 48.5201 67.9601C47.45 67.2401 47.56 66.3301 47.55 66.0001C47.55 65.5801 48.6601 66.5301 49.8801 67.3401C50.8101 67.9501 50.5201 69.42 50.5201 69.42" fill="#0D0D0D"/>
<path d="M51.94 69.42C51.94 69.42 52.73 68.7801 53.95 67.9601C55.02 67.2401 54.91 66.3301 54.92 66.0001C54.92 65.5801 53.81 66.5301 52.58 67.3401C51.65 67.9501 51.94 69.42 51.94 69.42Z" fill="#0D0D0D"/>
<path d="M57.53 69.03V68.9699L57.49 68.9C57.48 68.87 57.46 68.8399 57.44 68.8199C57.42 68.7899 57.4 68.7599 57.37 68.7399C57.34 68.7099 57.31 68.6899 57.28 68.6599C57.25 68.6399 57.21 68.6199 57.17 68.5999C57.1 68.5599 57.02 68.5399 56.95 68.4999C56.88 68.4799 56.81 68.46 56.74 68.45C56.62 68.43 56.53 68.4199 56.53 68.4199L56.47 68.4699C56.47 68.4699 56.5 68.6099 56.57 68.8499C56.58 68.9699 56.62 69.1199 56.62 69.2899C56.63 69.4599 56.62 69.6599 56.59 69.8599C56.55 70.0699 56.49 70.2899 56.38 70.4999C56.28 70.7199 56.12 70.9199 55.94 71.1099C55.76 71.2999 55.53 71.4599 55.3 71.5999C55.06 71.7399 54.8 71.8399 54.53 71.9299C54.26 71.9999 53.98 72.0499 53.7 72.0699C53.42 72.0799 53.15 72.07 52.89 72.02C52.64 71.96 52.4 71.88 52.19 71.77C51.99 71.65 51.81 71.5099 51.69 71.3499C51.62 71.2799 51.58 71.1899 51.53 71.1099C51.49 71.0299 51.46 70.9499 51.43 70.8699C51.41 70.7899 51.39 70.72 51.37 70.65C51.37 70.58 51.35 70.51 51.35 70.45C51.37 70.33 51.35 70.2299 51.35 70.1699V70.1199L51.46 69.2H50.98L51.1 70.2499C51.1 70.3099 51.1 70.38 51.1 70.46C51.1 70.52 51.09 70.5899 51.08 70.6599C51.06 70.7299 51.04 70.7999 51.02 70.8799C50.99 70.9599 50.95 71.0399 50.92 71.1199C50.87 71.1899 50.83 71.2799 50.76 71.3599C50.64 71.5199 50.46 71.66 50.26 71.78C50.05 71.89 49.81 71.98 49.56 72.03C49.3 72.08 49.03 72.09 48.75 72.08C48.47 72.06 48.19 72.0199 47.92 71.9399C47.65 71.8599 47.39 71.7499 47.15 71.6099C46.91 71.4699 46.69 71.3099 46.51 71.1199C46.33 70.9299 46.17 70.7199 46.07 70.5099C45.96 70.2999 45.9 70.0799 45.86 69.8699C45.83 69.6599 45.82 69.4699 45.83 69.2999C45.83 69.1299 45.87 68.9799 45.88 68.8599C45.94 68.6199 45.98 68.4799 45.98 68.4799L45.92 68.4299C45.92 68.4299 45.84 68.44 45.71 68.46C45.65 68.47 45.58 68.4899 45.5 68.5099C45.43 68.5399 45.35 68.5599 45.28 68.6099C45.24 68.6299 45.21 68.6499 45.17 68.6699C45.14 68.6999 45.11 68.7199 45.08 68.7499C45.05 68.7699 45.03 68.8 45 68.83C44.98 68.86 44.96 68.8799 44.95 68.9099L44.92 68.9799V69.0399L44.91 69.09C44.91 69.09 44.91 69.0699 44.92 69.0399L44.94 68.9799L44.99 68.9199L45.05 68.8599C45.05 68.8599 45.1 68.8199 45.13 68.7999C45.16 68.7899 45.19 68.7699 45.22 68.7499C45.25 68.7299 45.29 68.72 45.33 68.71C45.4 68.68 45.48 68.6799 45.54 68.6599C45.61 68.6599 45.68 68.65 45.73 68.65H45.8C45.8 68.65 45.77 68.7599 45.76 68.8199C45.75 68.9499 45.7 69.11 45.7 69.28C45.69 69.46 45.7 69.6599 45.73 69.8799C45.77 70.0999 45.83 70.3299 45.95 70.5699C46.06 70.7999 46.22 71.0199 46.41 71.2299C46.6 71.4299 46.83 71.6099 47.08 71.7599C47.33 71.9099 47.61 72.0199 47.89 72.1099C48.17 72.1899 48.47 72.25 48.76 72.27C49.05 72.28 49.34 72.2699 49.62 72.2199C49.89 72.1599 50.16 72.07 50.39 71.95C50.61 71.82 50.82 71.6699 50.96 71.4899C51.04 71.4099 51.09 71.2999 51.15 71.2199C51.19 71.1399 51.23 71.0599 51.26 70.9799C51.29 71.0599 51.33 71.1399 51.37 71.2199C51.43 71.2999 51.48 71.4099 51.56 71.4899C51.7 71.6699 51.91 71.83 52.13 71.95C52.36 72.07 52.62 72.1599 52.9 72.2199C53.18 72.2699 53.46 72.28 53.76 72.27C54.05 72.25 54.34 72.1999 54.63 72.1099C54.91 72.0199 55.19 71.8999 55.44 71.7599C55.69 71.6099 55.92 71.4299 56.11 71.2299C56.3 71.0199 56.46 70.8099 56.57 70.5699C56.69 70.3399 56.75 70.0999 56.79 69.8799C56.82 69.6599 56.83 69.46 56.81 69.28C56.81 69.1 56.76 68.9399 56.75 68.8199C56.73 68.7599 56.72 68.6999 56.71 68.6599H56.78C56.84 68.6599 56.9 68.6599 56.97 68.6599C57.04 68.6799 57.11 68.68 57.18 68.71C57.21 68.72 57.25 68.7299 57.29 68.7499C57.32 68.7599 57.35 68.7799 57.38 68.7999C57.42 68.8199 57.43 68.8399 57.46 68.8599L57.52 68.9199L57.56 68.9799L57.58 69.0399L57.59 69.09C57.59 69.09 57.59 69.0699 57.59 69.0399L57.53 69.03Z" fill="#0D0D0D"/>
<path d="M55.01 65.84C54.91 65.69 54.74 65.62 54.51 65.62C54.08 65.62 53.47 65.88 52.83 66.15C52.24 66.4 51.64 66.66 51.27 66.66H51.23H51.19C50.82 66.66 50.21 66.4 49.63 66.15C48.99 65.88 48.38 65.62 47.95 65.62C47.72 65.62 47.55 65.69 47.45 65.84C47.27 66.09 47.3 66.52 47.55 67.2C47.57 67.25 47.63 67.42 47.78 67.42C47.89 67.42 47.96 67.33 48.05 67.22C48.14 67.1 48.25 66.97 48.4 66.96C48.82 66.96 49.49 67.38 49.89 67.63C49.99 67.7 50.09 67.76 50.14 67.78C50.16 67.82 50.16 68.02 50.16 68.16C50.16 68.6 50.14 69.2 50.49 69.56C50.67 69.74 50.92 69.84 51.24 69.85C51.56 69.85 51.81 69.75 51.99 69.56C52.34 69.2 52.33 68.6 52.32 68.16C52.32 68.01 52.32 67.82 52.32 67.8C52.39 67.76 52.48 67.7 52.59 67.63C52.99 67.38 53.66 66.96 54.09 66.96C54.23 66.96 54.34 67.1 54.43 67.22C54.51 67.33 54.59 67.42 54.7 67.42C54.85 67.42 54.91 67.26 54.93 67.2C55.17 66.52 55.2 66.09 55.03 65.84" fill="#231F20"/>
<path d="M51.23 67.66C49.86 67.66 48.75 66.34 48.75 66.24C48.86 66.24 49.92 67.06 51.22 67.06C52.52 67.06 53.58 66.26 53.69 66.26C53.69 66.36 52.58 67.66 51.21 67.66" fill="#F0EFEF"/>
</svg>
