<svg width="102" height="101" viewBox="0 0 102 101" fill="none" xmlns="http://www.w3.org/2000/svg">
<path d="M92.48 0.0700073H8.89001C4.10171 0.0700073 0.219971 3.95168 0.219971 8.73999V92.33C0.219971 97.1183 4.10171 101 8.89001 101H92.48C97.2683 101 101.15 97.1183 101.15 92.33V8.73999C101.15 3.95168 97.2683 0.0700073 92.48 0.0700073Z" fill="#E57D25"/>
<path d="M51.1599 79.5699C50.7499 79.5699 50.3599 79.3799 50.1099 79.0699C49.9399 79.1399 49.7599 79.1801 49.5899 79.1801C49.1599 79.1801 48.7499 78.98 48.4899 78.62C48.2899 78.35 48.1999 78.02 48.2299 77.7C48.1399 77.61 48.0499 77.5 47.9899 77.38C47.7499 76.92 47.7899 76.38 48.0599 75.97C48.0599 75.96 48.0499 75.9499 48.0399 75.9399C48.0299 75.9199 48.0099 75.89 47.9799 75.85C47.5799 75.5 47.0699 75.16 46.5399 74.8C45.7799 74.28 44.9999 73.74 44.3199 73.09C40.4199 71.9 36.3199 69.8 33.0199 67.29C32.9799 67.27 32.9499 67.24 32.9199 67.22L32.8599 67.17C32.2699 66.71 31.6899 66.23 31.1599 65.76C30.9199 65.54 30.6699 65.32 30.4299 65.08C30.1999 65.16 29.9599 65.21 29.7199 65.21C28.5499 65.21 27.8599 64.27 27.3499 63.59C27.1999 63.39 27.0599 63.2 26.9399 63.08C26.8799 63.01 26.6799 62.8 26.1299 62.8C25.6999 62.8 25.3099 62.9301 25.3099 62.9301C25.1499 62.9901 24.9899 63.02 24.8199 63.02C24.4199 63.02 24.0199 62.84 23.7599 62.52C23.3899 62.06 23.3499 61.42 23.6699 60.92C23.6699 60.91 23.7999 60.71 24.0199 60.41C22.7699 59.15 21.8799 57.77 21.8399 57.7C21.5699 57.29 21.5599 56.77 21.7699 56.34C20.9799 55.37 20.4999 54.44 20.4099 54.27C20.1299 53.73 20.2499 53.07 20.6899 52.66C20.9499 52.41 21.2899 52.28 21.6299 52.28C21.8599 52.28 22.0999 52.34 22.3099 52.46C22.3099 52.46 22.7599 52.7 23.3299 52.7C23.6199 52.7 23.8799 52.64 24.1299 52.52C24.2499 52.46 24.4799 52.23 24.6499 52.04C24.8099 49.83 25.3399 47.41 26.2299 44.84C26.2799 44.45 26.3999 43.99 26.6799 43.61C26.9399 42.95 27.2199 42.27 27.5199 41.6C26.6099 40.13 24.3099 36.05 23.9699 32.17C23.6499 28.54 24.2299 25.98 25.7699 24.1C26.1199 23.67 27.9999 21.53 30.2999 21.53C31.0599 21.53 31.7599 21.76 32.3999 22.2C33.6399 23.07 33.9199 23.76 35.0899 26.64C35.8199 28.43 37.3599 28.8401 37.9299 28.9301C38.1199 28.9301 38.2999 28.95 38.4599 28.99C38.5699 29.01 38.7699 29.04 39.0899 29.04C39.4399 29.04 39.8699 29.0099 40.3699 28.9399C41.3599 28.6199 42.3599 28.34 43.3499 28.11C44.0999 27.86 44.8599 27.67 45.5899 27.53C46.9999 27.27 48.3699 27.13 49.3499 27.13C49.5899 27.13 49.7999 27.13 49.9899 27.15C50.1399 27.11 50.2899 27.1 50.4499 27.1C50.5899 27.1 50.7199 27.11 50.8499 27.14C50.9999 27.14 51.1699 27.13 51.3499 27.13C52.3399 27.13 53.6699 27.27 55.1099 27.53C55.9199 27.68 56.7399 27.9001 57.5699 28.1801C57.9299 28.2701 58.2799 28.36 58.6299 28.46C59.8899 28.7 61.2699 28.94 62.1499 28.96C62.1799 28.96 62.2199 28.96 62.2499 28.96C62.2699 28.96 64.4299 28.89 65.3199 26.67C66.4999 23.76 66.7799 23.07 68.0199 22.2C68.6599 21.75 69.3599 21.53 70.1199 21.53C72.4399 21.53 74.2999 23.67 74.6499 24.1C76.1899 25.97 76.7699 28.53 76.4499 32.16C76.1399 35.73 74.1599 39.47 73.1299 41.2C73.5099 42.04 73.8599 42.8799 74.1799 43.6899C74.6099 44.1899 74.7199 44.87 74.7499 45.26C75.3799 47.13 75.8099 48.92 76.0399 50.61C76.2799 50.81 76.4899 51.03 76.6799 51.23C76.8599 51.42 77.1299 51.71 77.2599 51.77C77.5099 51.89 77.7699 51.95 78.0499 51.95C78.6199 51.95 79.0799 51.7 79.0899 51.7C79.2999 51.58 79.5399 51.52 79.7699 51.52C80.1099 51.52 80.4499 51.65 80.7099 51.9C81.1499 52.32 81.2599 52.98 80.9799 53.52C80.8899 53.69 80.3999 54.62 79.6199 55.6C79.8399 56.03 79.8199 56.54 79.5599 56.96C79.5099 57.03 78.6199 58.41 77.3799 59.67C77.5899 59.97 77.7199 60.1601 77.7299 60.1801C78.0499 60.6801 78.0099 61.32 77.6399 61.78C77.3699 62.11 76.9799 62.28 76.5799 62.28C76.4199 62.28 76.2499 62.2499 76.0899 62.1899C76.0899 62.1899 75.7099 62.0601 75.2699 62.0601C74.7199 62.0601 74.5199 62.27 74.4599 62.34C74.3399 62.47 74.1999 62.66 74.0499 62.86C73.5399 63.54 72.8499 64.48 71.6799 64.48C71.5899 64.48 71.4799 64.48 71.3699 64.46C71.0199 64.84 70.6599 65.2101 70.2899 65.5601C69.7499 66.0801 69.1599 66.59 68.5499 67.09C65.2199 69.79 61.1299 71.92 56.9899 73.12C56.3599 73.84 55.6399 74.5201 54.9399 75.1801C54.3699 75.7201 53.8399 76.23 53.4099 76.7C53.6699 77.27 53.5099 77.95 53.0099 78.34C52.8599 78.46 52.6899 78.54 52.5099 78.59C52.3799 79.05 52.0199 79.4301 51.5199 79.5601C51.4099 79.5901 51.2999 79.6 51.1899 79.6L51.1599 79.5699Z" fill="#2F150C"/>
<path d="M79.7499 52.88C79.7499 52.88 78.2199 53.77 76.6399 52.98C75.9299 52.62 75.3499 51.59 74.7499 51.4C74.5399 49.41 74.0399 47.41 73.3799 45.48C73.3799 45.48 73.3799 45.4599 73.3799 45.4499C73.3799 45.1499 73.2999 44.69 73.0899 44.51C73.0399 44.47 72.9999 44.39 72.9499 44.29C72.5299 43.17 72.0599 42.0899 71.5799 41.0799C72.2799 39.9799 74.7499 35.83 75.0899 32.01C75.4099 28.35 74.7199 26.3 73.5899 24.93C73.3199 24.6 70.8899 21.82 68.7999 23.28C67.8899 23.92 67.7099 24.36 66.5799 27.14C65.4599 29.92 62.7999 30.29 62.2399 30.29C61.2899 30.29 59.8699 30.06 58.2999 29.76C57.9299 29.66 57.5499 29.5599 57.1599 29.4599C56.4899 29.2299 55.7099 29 54.8499 28.84C53.0299 28.51 51.4299 28.39 50.6499 28.5C50.5699 28.4 50.2499 28.41 50.1599 28.52C49.4599 28.38 47.7699 28.49 45.8199 28.84C45.0499 28.98 44.3299 29.18 43.7099 29.39C42.6299 29.64 41.6099 29.93 40.6599 30.24C39.6499 30.38 38.7799 30.42 38.1599 30.28C38.0599 30.26 37.9399 30.25 37.8199 30.25C36.8999 30.13 34.7899 29.53 33.8099 27.13C32.6899 24.36 32.5099 23.91 31.5999 23.27C29.4999 21.8 27.0799 24.58 26.8099 24.92C25.6799 26.28 24.9999 28.34 25.3099 32C25.6999 36.46 28.9999 41.36 28.9999 41.36C29.0299 41.36 29.0699 41.36 29.0999 41.36C28.6699 42.29 28.2499 43.27 27.8599 44.28C27.8599 44.28 27.8499 44.3 27.8399 44.31C27.6699 44.46 27.5799 44.82 27.5599 45.11C26.6999 47.53 26.0798 50.1 25.9698 52.6C25.5798 52.98 25.1799 53.4899 24.7299 53.7099C23.1499 54.4999 21.6199 53.62 21.6199 53.62C21.6199 53.62 22.9499 56.24 24.7499 57.12C23.8299 57.26 22.9799 56.93 22.9799 56.93C22.9799 56.93 24.2799 58.9499 25.8599 60.2099C25.2199 60.9899 24.8199 61.63 24.8199 61.63C24.8199 61.63 26.7799 60.88 27.9399 62.12C28.7399 62.98 29.4199 64.71 30.5599 63.27C31.0399 63.77 31.5399 64.26 32.0699 64.73C32.5899 65.2 33.1399 65.65 33.6999 66.09C33.7199 66.11 33.7399 66.12 33.7599 66.14C37.2199 68.79 41.3399 70.8 45.0399 71.88C46.1499 73.05 47.8299 73.9 48.9599 74.9C49.0599 75.02 49.1599 75.15 49.2299 75.29C49.7599 76.25 49.1799 76.75 49.1799 76.75C49.1799 76.75 49.8199 76.57 49.9099 75.97C50.4499 76.8 49.5799 77.8299 49.5799 77.8299C49.5799 77.8299 50.8999 77.2799 50.9199 76.5799C50.9299 77.3299 51.1599 78.22 51.1599 78.22C51.1599 78.22 51.1299 78.0899 51.3199 77.0799C51.3599 76.8499 51.6999 76.3099 51.7999 76.1899L51.8299 76.17C51.5699 76.74 52.1299 77.25 52.1299 77.25C52.1299 77.25 51.7099 76.49 52.3699 75.76C53.4599 74.56 55.0899 73.24 56.1899 71.9C60.1399 70.81 64.2899 68.74 67.6599 66.01C68.2399 65.54 68.7899 65.06 69.3199 64.56C69.9199 63.99 70.4799 63.39 70.9999 62.77C72.0299 63.79 72.6699 62.21 73.4299 61.4C74.5899 60.15 76.5499 60.9 76.5499 60.9C76.5499 60.9 76.1399 60.26 75.4999 59.48C77.0899 58.22 78.3799 56.1999 78.3799 56.1999C78.3799 56.1999 77.5199 56.52 76.6099 56.38C78.4099 55.49 79.7399 52.88 79.7399 52.88H79.7499Z" fill="#2F150C"/>
<path d="M62.77 30.27C60.58 30.59 53.5299 28.4699 50.4099 28.5799C46.7699 28.7099 40.5699 30.82 38.1699 30.3C35.6499 29.75 27.8699 36.65 29.8599 40.37C30.9199 42.35 35.24 28.43 51.27 28.6C65.69 28.75 69.9899 42.35 71.0499 40.37C73.0399 36.65 65.31 29.9 62.76 30.27H62.77Z" fill="#D1D2D1"/>
<path d="M30.5699 57.4799C30.2999 57.3799 30.0199 57.36 29.7399 57.38C29.6699 57.07 29.5799 56.78 29.4599 56.53C29.0099 55.57 28.6099 55.0699 28.2699 54.8599C28.2699 54.5299 28.2299 54.2 28.1099 53.88C26.8499 50.34 25.9999 53.0899 24.7399 53.7199C23.1599 54.5099 21.6299 53.63 21.6299 53.63C21.6299 53.63 22.9599 56.25 24.7599 57.13C23.8399 57.27 22.9899 56.9399 22.9899 56.9399C22.9899 56.9399 24.2899 58.9599 25.8699 60.2199C25.2299 60.9999 24.8299 61.64 24.8299 61.64C24.8299 61.64 26.7899 60.89 27.9499 62.13C28.9099 63.16 29.6899 65.43 31.2999 62.04C31.9799 60.61 31.8999 57.9699 30.5799 57.4899L30.5699 57.4799Z" fill="#D1D2D1"/>
<path d="M70.7999 56.75C71.0699 56.65 71.3499 56.62 71.6299 56.65C71.6999 56.34 71.7899 56.05 71.9199 55.8C72.3699 54.84 72.7699 54.34 73.1099 54.13C73.1099 53.81 73.1499 53.47 73.2699 53.15C74.5299 49.61 75.3799 52.3599 76.6399 52.9899C78.2199 53.7799 79.7499 52.89 79.7499 52.89C79.7499 52.89 78.4199 55.51 76.6199 56.39C77.5299 56.53 78.3899 56.2099 78.3899 56.2099C78.3899 56.2099 77.0899 58.2299 75.5099 59.4899C76.1499 60.2699 76.5599 60.91 76.5599 60.91C76.5599 60.91 74.5999 60.16 73.4399 61.41C72.4799 62.44 71.6999 64.7099 70.0899 61.3199C69.4099 59.8899 69.4899 57.26 70.8099 56.77L70.7999 56.75Z" fill="#D1D2D1"/>
<path d="M74.8599 53.37C74.8599 53.71 74.8499 54.04 74.8199 54.37C74.8099 54.49 74.8 54.62 74.78 54.74C73.61 64.68 59.95 72.56 50.71 72.73H50.4099C42.4699 72.73 27.3799 64.82 26.0599 54.79C25.9899 54.32 25.96 53.85 25.96 53.37C25.96 43.94 33.8599 33.16 33.8599 33.16C33.8599 33.16 41.8399 28.58 50.4099 28.58C58.4799 28.58 66.96 33.16 66.96 33.16C66.96 33.16 74.8599 43.94 74.8599 53.37Z" fill="#D1D2D1"/>
<path d="M50.4097 68.84C46.7797 68.84 41.3497 66.88 36.9097 63.97C31.8197 60.63 28.5998 56.48 28.0898 52.6C28.0398 52.22 28.0098 51.8301 28.0098 51.4301C28.0098 43.6401 33.9797 34.5701 35.2897 32.6801C36.9097 31.8201 43.5297 28.58 50.4097 28.58C56.8897 28.58 63.8097 31.83 65.5397 32.7C66.8697 34.63 72.7997 43.6701 72.7997 51.4301C72.7997 51.7101 72.7898 52 72.7698 52.27C72.7698 52.37 72.7497 52.48 72.7397 52.58C71.6697 61.64 58.6197 68.69 50.6697 68.84H50.7098H50.4097Z" fill="white"/>
<path d="M30.53 50.0501C30.53 50.0501 35.25 59.82 39.3 59.82C42.4 59.82 46.27 58.23 46.27 58.23C46.27 58.23 47.92 41.96 38.94 41.44C34.9 41.21 30.52 50.0501 30.52 50.0501" fill="#D1D2D1"/>
<path d="M70.3699 50.0501C70.3699 50.0501 65.6499 59.82 61.5999 59.82C58.4999 59.82 54.6299 58.23 54.6299 58.23C54.6299 58.23 52.9799 41.96 61.9599 41.44C65.9999 41.21 70.3799 50.0501 70.3799 50.0501" fill="#D1D2D1"/>
<path d="M74.7798 54.7399C74.3498 58.3699 72.2598 61.73 69.3298 64.54C68.7998 65.04 68.2498 65.5299 67.6698 65.9899C62.6698 70.0499 55.9698 72.6399 50.7098 72.7399C50.6098 72.7399 50.5098 72.7399 50.4098 72.7399C45.8698 72.7399 39.0098 70.1599 33.7098 66.0699C33.1498 65.6399 32.5998 65.1799 32.0698 64.7099C28.8998 61.8799 26.5498 58.47 26.0598 54.78C29.6598 54.36 29.9098 59.6199 38.7498 63.6899C40.0998 64.3099 43.1298 66.44 46.4098 65.13C49.0298 64.08 52.3798 63.98 55.6498 65.29C58.9298 66.6 63.0798 63.2299 64.4198 62.6099C72.7598 58.7599 71.5398 54.5299 74.7798 54.7199" fill="#E9E9EA"/>
<path d="M50.4099 71.45C46.4599 71.45 40.8599 69.45 36.1399 66.35C33.0799 64.35 27.9299 60.23 26.8499 54.74C26.9699 54.74 27.0899 54.74 27.2099 54.74C29.3699 54.74 34.1599 59.82 35.6499 60.96C38.0699 62.81 42.5699 64.3 43.8199 64.3C44.6399 64.3 57.7999 64.76 58.4999 64.38C59.5999 63.78 63.5899 62.34 64.7799 61.53C66.3199 60.47 71.9399 54.8 73.9999 54.75C72.2899 64.27 59.1099 71.31 50.6999 71.46H50.4099" fill="white"/>
<path d="M64.0199 31C64.0199 31 66.9799 28.75 67.3999 27.12C67.8199 25.49 68.2399 23.71 69.5599 23.6C70.8699 23.49 72.3999 24.12 72.9199 25.02C73.4399 25.91 75.4399 27.25 73.8099 32.26C72.1799 37.26 70.0299 38.6801 70.0299 38.6801H67.8699C67.8699 38.6801 62.6999 33.79 64.0199 31Z" fill="white"/>
<path d="M34.9099 43.58C34.9099 43.58 34.92 43.54 34.96 43.47C35 43.4 35.0499 43.3001 35.1299 43.1801C35.2099 43.0601 35.3099 42.92 35.4399 42.77C35.5799 42.63 35.7199 42.45 35.9099 42.29C35.9999 42.21 36.1 42.12 36.21 42.04C36.32 41.96 36.4399 41.8901 36.5599 41.8101C36.6799 41.7201 36.81 41.66 36.95 41.59C37.09 41.53 37.2299 41.45 37.3799 41.4C37.6799 41.29 38 41.18 38.33 41.14C38.66 41.06 39.0099 41.0701 39.3599 41.0601C39.7099 41.0601 40.0499 41.15 40.3799 41.2C40.6999 41.3 41.0199 41.41 41.3099 41.53C41.5899 41.68 41.85 41.83 42.09 41.98C42.32 42.14 42.52 42.33 42.71 42.49C42.8 42.57 42.8899 42.65 42.9699 42.73C43.0499 42.81 43.1099 42.9 43.1699 42.97C43.2999 43.12 43.3999 43.26 43.4799 43.38C43.6399 43.61 43.7199 43.75 43.7199 43.75C43.7199 43.75 43.5599 43.7 43.2999 43.59C43.1699 43.54 43.0199 43.47 42.8499 43.39C42.6899 43.3 42.49 43.23 42.28 43.16C42.07 43.08 41.8599 42.98 41.6199 42.9C41.3799 42.83 41.13 42.76 40.89 42.67C40.63 42.62 40.3699 42.57 40.1099 42.5C39.9799 42.49 39.84 42.48 39.71 42.46C39.58 42.45 39.4499 42.4201 39.3099 42.4301C39.0399 42.4301 38.7799 42.41 38.5099 42.45C38.3799 42.47 38.2399 42.45 38.1199 42.49C37.9899 42.51 37.8599 42.5401 37.7299 42.5601C37.5999 42.5801 37.4799 42.62 37.3599 42.65C37.2399 42.68 37.1099 42.7 36.9999 42.75C36.7599 42.82 36.54 42.89 36.34 42.98C36.13 43.05 35.94 43.14 35.77 43.2C35.61 43.28 35.45 43.34 35.33 43.4C35.2 43.46 35.0999 43.51 35.0399 43.54C34.9699 43.57 34.9299 43.59 34.9299 43.59L34.9099 43.58Z" fill="#2D2D2C"/>
<path d="M66.0598 43.58C66.0598 43.58 66.0298 43.56 65.9498 43.53C65.8798 43.5 65.7897 43.45 65.6597 43.39C65.5397 43.33 65.3797 43.2699 65.2197 43.1899C65.0397 43.1299 64.8598 43.04 64.6498 42.97C64.4398 42.89 64.2197 42.82 63.9897 42.74C63.8697 42.7 63.7498 42.67 63.6298 42.64C63.5098 42.62 63.3898 42.56 63.2598 42.55C63.1298 42.53 62.9998 42.51 62.8698 42.48C62.7398 42.45 62.6097 42.4599 62.4797 42.4399C62.2197 42.3999 61.9497 42.42 61.6797 42.42C61.5497 42.41 61.4098 42.44 61.2798 42.45C61.1498 42.47 61.0098 42.48 60.8798 42.49C60.6198 42.56 60.3597 42.6 60.1097 42.66C59.8597 42.75 59.6198 42.82 59.3798 42.89C59.1398 42.97 58.9297 43.07 58.7197 43.15C58.5097 43.23 58.3098 43.29 58.1498 43.38C57.9898 43.46 57.8298 43.52 57.6998 43.58C57.4398 43.69 57.2798 43.74 57.2798 43.74C57.2798 43.74 57.3598 43.6 57.5198 43.37C57.6098 43.26 57.6998 43.12 57.8298 42.96C57.8898 42.88 57.9498 42.8 58.0298 42.72C58.1098 42.64 58.1897 42.57 58.2897 42.48C58.4697 42.32 58.6698 42.13 58.8998 41.97C59.1398 41.82 59.4097 41.67 59.6797 41.52C59.9697 41.4 60.2897 41.2899 60.6097 41.1899C60.9397 41.1399 61.2798 41.06 61.6298 41.05C61.9798 41.05 62.3197 41.05 62.6597 41.13C62.9997 41.17 63.3097 41.29 63.6097 41.39C63.7597 41.44 63.8998 41.52 64.0298 41.58C64.1598 41.65 64.2997 41.71 64.4197 41.8C64.5397 41.88 64.6598 41.96 64.7698 42.03C64.8798 42.11 64.9798 42.2 65.0698 42.28C65.2598 42.44 65.4097 42.62 65.5397 42.76C65.6697 42.92 65.7697 43.05 65.8497 43.17C65.9297 43.29 65.9798 43.39 66.0198 43.46C66.0498 43.53 66.0698 43.5699 66.0698 43.5699L66.0598 43.58Z" fill="#2D2D2C"/>
<path d="M47.4799 56.98C47.4799 59.68 47.5499 61.1401 46.5399 61.1801C45.3799 61.2301 46.5399 59.88 46.0999 57.74C45.5499 55.08 41.7199 49.27 42.6299 49.27C43.5399 49.27 47.4799 54.28 47.4799 56.98Z" fill="#2D2C2C"/>
<path d="M53.6198 56.98C53.6198 59.68 53.5598 61.1401 54.5598 61.1801C55.7198 61.2301 54.5598 59.88 54.9998 57.74C55.5498 55.08 59.3798 49.27 58.4698 49.27C57.5598 49.27 53.6198 54.28 53.6198 56.98Z" fill="#2D2C2C"/>
<path d="M57.3799 69.33C57.3799 68.82 57.0199 67.71 56.8799 67.3C52.8799 69.76 50.3999 67.3 50.3999 67.3C50.3999 67.3 47.9299 69.51 44.1499 67.48C44.0799 67.82 43.8999 68.89 43.8999 69.29C43.8999 72.06 47.1399 73.29 48.9599 74.89C49.0599 75.01 49.1599 75.14 49.2299 75.28C49.7599 76.24 49.1799 76.74 49.1799 76.74C49.1799 76.74 49.8199 76.56 49.9099 75.96C50.4499 76.79 49.5799 77.8199 49.5799 77.8199C49.5799 77.8199 50.8999 77.2699 50.9199 76.5699C50.9299 77.3199 51.1599 78.21 51.1599 78.21C51.1599 78.21 51.1299 78.0799 51.3199 77.0699C51.3599 76.8399 51.6999 76.3001 51.7999 76.1801L51.8299 76.16C51.5699 76.73 52.1299 77.24 52.1299 77.24C52.1299 77.24 51.7099 76.48 52.3699 75.75C54.1499 73.79 57.3799 71.5099 57.3799 69.3199" fill="white"/>
<path d="M44.3398 67.58C44.2798 67.55 44.2098 67.51 44.1498 67.48C44.1498 67.51 44.1398 67.54 44.1298 67.58C44.1098 67.53 44.0998 67.47 44.0798 67.42C44.1598 67.48 44.2498 67.53 44.3398 67.59" fill="#F1F0F0"/>
<path d="M50.7599 67.58C50.5299 67.42 50.3999 67.3 50.3999 67.3C50.3999 67.3 50.2999 67.39 50.1199 67.51C50.2499 67.38 50.3499 67.24 50.3999 67.1C50.4699 67.27 50.5899 67.44 50.7599 67.58ZM50.3999 66.45C50.3999 66.45 50.3699 66.3501 50.3399 66.3101H50.3799C50.3799 66.3101 50.4299 66.3101 50.4599 66.3101C50.4399 66.3601 50.4199 66.41 50.3999 66.46" fill="#CECBCB"/>
<path d="M50.2499 73.72C50.1699 73.53 50.0699 73.32 49.9199 73.09L49.0899 71.8199L49.0499 72.12C49.0099 72.07 48.9699 72.02 48.9299 71.97L48.8999 71.9399L48.8699 71.91C48.3599 71.46 47.7499 71.04 47.1599 70.64C45.8699 69.76 44.5499 68.85 44.1399 67.58C44.1399 67.55 44.1499 67.51 44.1599 67.48C44.2199 67.51 44.2899 67.55 44.3499 67.58C45.1599 68.07 46.2699 68.42 47.1399 68.42C48.2699 68.42 49.5299 68.09 50.1299 67.51C50.3099 67.38 50.4099 67.3 50.4099 67.3C50.4099 67.3 50.5299 67.42 50.7699 67.58C51.3699 68.11 52.5099 68.42 53.5799 68.42C54.3799 68.42 55.3899 68.1199 56.1699 67.6899C55.6499 69.0799 54.0599 70.83 51.5699 72.75L51.4499 72.84V72.86L50.9999 73.17L50.9499 73.21L50.9099 73.26L50.2499 73.71" fill="#F1F0F0"/>
<path d="M46.0299 41.2801C44.7499 41.5101 43.6399 41.34 43.6399 41.34C43.6399 41.34 44.6099 40.7901 45.8999 40.5601C47.1799 40.3301 48.2499 40.3001 48.2799 40.5001C48.3199 40.7001 47.3099 41.0501 46.0299 41.2801Z" fill="#2D2C2C"/>
<path d="M54.6598 41.2801C55.9398 41.5101 57.0398 41.34 57.0398 41.34C57.0398 41.34 56.0698 40.7901 54.7898 40.5601C53.5098 40.3301 52.4398 40.3001 52.3998 40.5001C52.3698 40.7001 53.3698 41.0501 54.6598 41.2801Z" fill="#2D2C2C"/>
<path d="M38.9698 65.7601C38.8398 65.9301 36.2098 66.15 33.7898 64.94V65.19C33.7898 65.39 33.8598 65.8601 33.7598 66.1301C33.1898 65.6801 32.6398 65.21 32.1098 64.72V64.33C32.1098 64.18 32.1598 64.0401 32.2498 63.9301C29.9198 61.9301 29.2298 58.8201 29.3698 58.6401C29.5198 58.4401 30.4798 61.5 33.1298 63.47C35.7798 65.44 39.1198 65.5601 38.9698 65.7601Z" fill="#2D2C2C"/>
<path d="M27.8498 44.3101C28.0198 44.1701 28.1698 43.55 28.3998 43.55C28.7698 43.55 29.0298 43.9299 29.1998 44.3199C29.4798 44.4799 29.5098 45.92 29.5098 46.88C29.5098 47.61 30.2398 49.06 30.1498 49.17C30.0498 49.29 29.4098 49.3 28.9998 48.85C28.6598 48.49 28.5698 47.9399 28.5998 47.6899C28.5598 47.4399 28.5398 47.17 28.5398 46.88C28.5398 46.54 28.5698 46.13 28.6298 45.75C28.5498 45.77 28.4798 45.78 28.4098 45.78C27.8798 45.78 27.5698 45.8 27.5698 45.26C27.5698 44.96 27.6498 44.4901 27.8598 44.3101H27.8498Z" fill="#2D2C2C"/>
<path d="M69.2798 63.78C69.3698 63.9 69.4298 64.03 69.4298 64.18V64.42C68.8898 64.94 68.3398 65.44 67.7498 65.93C67.6698 65.66 67.7298 65.23 67.7398 65.04V64.8C65.3198 66 62.6898 65.78 62.5598 65.61C62.4098 65.41 65.7498 65.2899 68.4098 63.3199C71.0598 61.3599 72.0298 58.29 72.1698 58.5C72.3098 58.69 71.6198 61.79 69.2798 63.79V63.78Z" fill="#2D2C2C"/>
<path d="M73.09 44.52C72.93 44.37 72.7799 43.75 72.5399 43.75C72.1699 43.75 71.9099 44.13 71.7399 44.52C71.4599 44.68 71.4299 46.12 71.4299 47.08C71.4299 47.81 70.6999 49.26 70.7899 49.37C70.8899 49.49 71.5199 49.5001 71.9399 49.0601C72.2799 48.7001 72.37 48.15 72.34 47.89C72.38 47.65 72.4 47.37 72.4 47.09C72.4 46.74 72.3699 46.34 72.3099 45.95C72.3899 45.97 72.46 45.98 72.53 45.98C73.06 45.98 73.3699 46.01 73.3699 45.46C73.3699 45.16 73.29 44.7 73.08 44.52H73.09Z" fill="#2D2C2C"/>
<path d="M46.27 58.2299C38.82 61.7799 33.57 59.48 31.2 50.28C31.2 50.28 40.1699 43.32 44.9299 52.25C45.6699 53.64 46.27 58.2399 46.27 58.2399" fill="white"/>
<path d="M39.0699 58.82C36.9999 58.78 35.2699 57.14 34.5999 54.86C34.3899 54.17 34.2899 53.41 34.3099 52.62C34.3699 49.45 36.3499 48.32 38.8299 48.24C38.9899 48.24 39.1399 48.23 39.2999 48.24C41.9999 48.3 44.0499 51.11 44.0999 52.83C44.1899 56.2 41.7799 58.88 39.0799 58.82" fill="#ECB61E"/>
<path d="M39.0899 57.96C37.5199 57.93 36.1399 56.58 35.5799 54.54C35.3999 53.89 35.3099 53.2 35.3299 52.5C35.3799 50.13 36.4998 49 38.8498 48.92C38.9698 48.92 39.0899 48.92 39.2099 48.92H39.2799C41.4099 48.97 43.0299 51.45 43.0599 52.72C43.0999 54.26 42.5899 55.73 41.6499 56.75C40.9299 57.53 40.0499 57.96 39.1499 57.96H39.0899Z" fill="#6C5221"/>
<path d="M54.5898 58.2299C62.0398 61.7799 67.2898 59.48 69.6598 50.28C69.6598 50.28 60.6898 43.32 55.9298 52.25C55.1898 53.64 54.5898 58.2399 54.5898 58.2399" fill="white"/>
<path d="M61.8 58.82C63.87 58.78 65.61 57.14 66.27 54.86C66.48 54.17 66.58 53.41 66.56 52.62C66.49 49.45 64.52 48.32 62.04 48.24C61.89 48.24 61.73 48.23 61.57 48.24C58.87 48.3 56.82 51.11 56.77 52.83C56.68 56.2 59.09 58.88 61.79 58.82" fill="#ECB61E"/>
<path d="M61.7198 57.97C60.8298 57.97 59.9398 57.54 59.2198 56.76C58.2798 55.74 57.7698 54.27 57.8098 52.73C57.8398 51.46 59.4698 48.9701 61.5998 48.9301H61.6598C61.7798 48.9301 61.8998 48.9301 62.0198 48.9301C64.3698 49.0101 65.4998 50.14 65.5398 52.51C65.5498 53.21 65.4698 53.9 65.2898 54.55C64.7298 56.6 63.3498 57.94 61.7798 57.97H61.7198Z" fill="#6C5221"/>
<path d="M39.4 51.35C39.36 53.39 37.9899 55.02 36.3599 54.98C35.6199 54.96 34.95 54.61 34.44 54.04C34.26 53.43 34.17 52.77 34.18 52.08C34.24 49.3 35.97 48.31 38.14 48.25C38.92 48.93 39.42 50.07 39.4 51.35Z" fill="white"/>
<path d="M41.9698 57.25C41.9598 57.94 41.4899 58.49 40.9399 58.48C40.3899 58.47 39.9499 57.9 39.9599 57.21C39.9699 56.52 40.4399 55.97 40.9899 55.98C41.5499 55.99 41.9798 56.56 41.9698 57.25Z" fill="white"/>
<path d="M61.6699 51.66C61.6299 53.7 60.26 55.33 58.63 55.29C57.89 55.28 57.22 54.92 56.71 54.35C56.53 53.74 56.44 53.08 56.45 52.39C56.51 49.61 58.2399 48.6201 60.4099 48.5601C61.1899 49.2401 61.6899 50.38 61.6699 51.66Z" fill="white"/>
<path d="M64.4399 57.25C64.4299 57.94 63.9598 58.49 63.4098 58.48C62.8598 58.47 62.4199 57.9 62.4299 57.21C62.4399 56.52 62.9099 55.97 63.4599 55.98C64.0099 55.99 64.4499 56.56 64.4299 57.25H64.4399Z" fill="white"/>
<path d="M44.9299 58.8199C45.3399 58.6599 45.7599 58.48 46.1899 58.28C45.7699 58.49 45.3499 58.6699 44.9299 58.8199Z" fill="#E2E1E1"/>
<path d="M42.6099 49.27C41.4799 48.33 40.27 47.88 39.08 47.74C40.28 47.88 41.4899 48.33 42.6099 49.27Z" fill="#C0BFBF"/>
<path d="M46.1899 58.27C46.1899 58.27 46.2499 58.24 46.2799 58.23C46.2799 58.23 45.6799 53.63 44.9399 52.24C44.2399 50.93 43.4499 49.97 42.6199 49.27C43.4599 49.97 44.2399 50.93 44.9399 52.24C45.6799 53.63 46.2799 58.23 46.2799 58.23C46.2499 58.25 46.2299 58.26 46.1899 58.27Z" fill="#313030"/>
<path d="M44.9299 58.8199C44.6899 57.5099 44.3599 56.03 43.9899 55.35C43.9199 55.23 43.8599 55.1 43.7899 54.98C43.9999 54.31 44.1 53.5799 44.08 52.8199C44.04 51.0999 41.99 48.29 39.28 48.23H39.2C39.07 48.23 38.9399 48.23 38.8099 48.23C38.5899 48.23 38.3799 48.25 38.1699 48.27C38.1599 48.26 38.1399 48.25 38.1299 48.24C36.1699 48.3 34.5699 49.1101 34.2299 51.3101C33.3099 51.6101 32.48 52.01 31.83 52.37C31.74 52.13 31.66 51.88 31.58 51.62C31.45 51.19 31.32 50.74 31.2 50.27C31.25 50.23 34.56 47.6899 38.21 47.6899C38.49 47.6899 38.7799 47.7 39.0699 47.74C40.2699 47.88 41.4799 48.33 42.5999 49.27C43.4299 49.97 44.2199 50.93 44.9199 52.24C45.6599 53.63 46.2599 58.23 46.2599 58.23C46.2299 58.24 46.1999 58.26 46.1699 58.27C45.7499 58.47 45.3299 58.6501 44.9099 58.8101" fill="#E2E1E1"/>
<path d="M43.7899 54.98C43.5399 54.54 43.2699 54.14 42.9999 53.78C43.0499 53.43 43.0699 53.08 43.0599 52.72C43.0299 51.45 41.4 48.96 39.28 48.92H39.21C39.09 48.92 38.9699 48.92 38.8499 48.92C38.8099 48.92 38.7699 48.92 38.7299 48.92C38.5699 48.68 38.3799 48.46 38.1799 48.27C38.3899 48.25 38.5999 48.23 38.8199 48.23C38.9499 48.23 39.08 48.23 39.21 48.23H39.2899C41.9899 48.29 44.04 51.0999 44.09 52.8199C44.11 53.5799 43.9999 54.31 43.7999 54.98" fill="#D7A72D"/>
<path d="M43 53.78C41.9 52.33 40.66 51.51 39.39 51.11C39.37 50.29 39.12 49.5301 38.73 48.9301C38.77 48.9301 38.81 48.9301 38.85 48.9301C38.97 48.9301 39.09 48.9301 39.21 48.9301H39.28C41.41 48.9801 43.03 51.46 43.06 52.73C43.07 53.09 43.05 53.44 43 53.79" fill="#6A5326"/>
<path d="M34.2397 51.3199C34.5797 49.1199 36.1698 48.31 38.1398 48.25C38.1498 48.26 38.1697 48.27 38.1797 48.28C38.3897 48.46 38.5697 48.6801 38.7297 48.9301C39.1197 49.5301 39.3698 50.28 39.3898 51.11C38.6898 50.88 37.9698 50.79 37.2698 50.79C36.2098 50.79 35.1697 51.0101 34.2397 51.3101" fill="#E2E1E1"/>
<path d="M55.9299 58.8199C55.5899 58.6899 55.2499 58.55 54.9099 58.39C55.2599 58.55 55.5899 58.6899 55.9299 58.8199Z" fill="#E2E1E1"/>
<path d="M54.5898 58.23C54.5898 58.23 55.1898 53.63 55.9298 52.24C56.1598 51.82 56.3898 51.4299 56.6298 51.0699C56.3898 51.4299 56.1498 51.82 55.9298 52.24C55.1898 53.63 54.5898 58.23 54.5898 58.23Z" fill="#313030"/>
<path d="M55.9298 58.8199C55.5898 58.6899 55.2598 58.54 54.9098 58.39C54.7998 58.34 54.6998 58.29 54.5898 58.24C54.5898 58.24 55.1898 53.64 55.9298 52.25C56.1498 51.83 56.3898 51.44 56.6298 51.09C56.5198 51.47 56.4598 51.91 56.4498 52.4C56.4298 53.09 56.5298 53.75 56.7098 54.36C56.7898 54.45 56.8798 54.54 56.9698 54.62C56.9998 54.74 57.0298 54.86 57.0698 54.98C56.9998 55.1 56.9298 55.22 56.8598 55.35C56.4998 56.03 56.1698 57.5099 55.9198 58.8199" fill="#E2E1E1"/>
<path d="M69.2599 51.7C69.3999 51.25 69.5399 50.78 69.6599 50.28C69.5299 50.77 69.3999 51.24 69.2599 51.7ZM58.8999 48.79C59.8299 48.17 60.8199 47.85 61.7899 47.74C60.8199 47.85 59.8399 48.17 58.8999 48.79Z" fill="#C0BFBF"/>
<path d="M69.0299 52.38C68.3199 51.99 67.4099 51.56 66.3899 51.25C65.8499 49.12 64.1299 48.31 62.0399 48.25C61.9099 48.25 61.7799 48.25 61.6499 48.25H61.5699C61.0199 48.26 60.4899 48.39 60.0099 48.6C59.6199 48.63 59.2499 48.7001 58.8999 48.8101C59.8299 48.1901 60.8199 47.88 61.7899 47.76C62.0799 47.73 62.3599 47.71 62.6499 47.71C66.2999 47.71 69.5999 50.25 69.6599 50.29C69.5299 50.78 69.3999 51.25 69.2599 51.71C69.1899 51.94 69.1099 52.17 69.0299 52.39" fill="#E2E1E1"/>
<path d="M57.08 54.98C57.04 54.86 57.01 54.74 56.98 54.62C57.05 54.68 57.12 54.74 57.19 54.79C57.15 54.86 57.12 54.92 57.08 54.98ZM66.39 51.24C66.04 51.13 65.67 51.04 65.3 50.97C64.86 49.64 63.78 48.9801 62.01 48.9301C61.89 48.9301 61.77 48.9301 61.65 48.9301H61.59C61.33 48.9301 61.09 48.97 60.85 49.04C60.72 48.87 60.57 48.7099 60.41 48.5699C60.27 48.5699 60.14 48.58 60.01 48.59C60.5 48.38 61.02 48.25 61.57 48.24H61.65C61.78 48.24 61.91 48.24 62.04 48.24C64.12 48.3 65.85 49.11 66.39 51.24Z" fill="#D7A72D"/>
<path d="M61.6399 51.0601C61.5499 50.2801 61.2699 49.58 60.8599 49.03C61.0999 48.96 61.3399 48.92 61.5999 48.92H61.6599C61.7799 48.92 61.8999 48.92 62.0199 48.92C63.7899 48.97 64.8699 49.63 65.3099 50.96C64.7599 50.85 64.1799 50.79 63.5999 50.79C62.9599 50.79 62.2999 50.8701 61.6499 51.0601" fill="#6A5326"/>
<path d="M57.19 54.79C57.12 54.74 57.0499 54.68 56.9799 54.62C56.8899 54.54 56.7999 54.45 56.7199 54.36C56.5399 53.75 56.45 53.09 56.46 52.4C56.47 51.91 56.53 51.48 56.64 51.09C57.34 50.06 58.1 49.32 58.9 48.8C59.25 48.69 59.62 48.63 60.01 48.59C60.14 48.58 60.2799 48.5699 60.4099 48.5699C60.5699 48.7099 60.7199 48.87 60.8499 49.04C61.2699 49.58 61.55 50.2899 61.63 51.0699C60.03 51.5299 58.4699 52.63 57.1699 54.8" fill="#E2E1E1"/>
<path d="M46.2698 58.2299C46.1798 57.7799 46.0797 57.32 45.9697 56.87C45.8697 56.42 45.7697 55.96 45.6597 55.51C45.5497 55.06 45.4398 54.61 45.3098 54.17C45.1798 53.71 45.0398 53.32 44.8798 52.89C44.7798 52.7 44.6898 52.44 44.5898 52.29L44.2197 51.7199C43.9597 51.3499 43.6998 50.98 43.3998 50.66C43.2598 50.49 43.1098 50.32 42.9498 50.17C42.7898 50.02 42.6398 49.8599 42.4598 49.7299C42.2898 49.5899 42.1198 49.4499 41.9398 49.3399C41.7598 49.2099 41.5798 49.1 41.3898 49C41.0198 48.78 40.6098 48.64 40.1998 48.51C39.7898 48.38 39.3698 48.31 38.9398 48.27C38.5098 48.24 38.0698 48.23 37.6398 48.27C37.2098 48.3 36.7697 48.39 36.3497 48.49C35.4897 48.69 34.6597 49 33.8497 49.39C33.4497 49.59 33.0497 49.8 32.6697 50.03C32.2897 50.26 31.8998 50.51 31.5698 50.75L31.7798 50.14L32.1298 51.3399C32.2298 51.7499 32.3898 52.13 32.5298 52.53C32.6698 52.92 32.8097 53.3199 32.9897 53.6899C33.1697 54.0599 33.2998 54.46 33.5198 54.81C33.7298 55.16 33.8898 55.55 34.1498 55.87C34.3898 56.19 34.5898 56.5599 34.8798 56.8399C35.1498 57.1399 35.3997 57.4599 35.7197 57.7099L36.1697 58.1099L36.6797 58.4399C37.0097 58.6799 37.3798 58.82 37.7498 58.99C38.1198 59.16 38.5197 59.2299 38.9097 59.3499C39.3097 59.3999 39.7198 59.49 40.1298 59.5C40.5398 59.49 40.9598 59.5399 41.3698 59.4799C41.7798 59.4299 42.2098 59.4299 42.6198 59.3299C43.0298 59.2299 43.4597 59.19 43.8597 59.05C44.2597 58.93 44.6698 58.83 45.0798 58.68L46.2897 58.25L46.2698 58.2299ZM46.2698 58.2299L45.1298 58.8199C44.7498 59.0099 44.3398 59.1499 43.9398 59.3199C43.5398 59.4999 43.1198 59.5899 42.6998 59.7299C42.2898 59.8799 41.8497 59.92 41.4197 60.02C40.9897 60.13 40.5397 60.1 40.0997 60.14C39.6597 60.15 39.2098 60.0999 38.7598 60.0699C38.3298 59.9599 37.8698 59.92 37.4498 59.75C37.0298 59.59 36.5898 59.4499 36.2098 59.1999L35.6198 58.8599L35.0798 58.4499C34.6998 58.1899 34.4098 57.85 34.0898 57.52C33.7598 57.21 33.5297 56.8199 33.2397 56.4699C32.9497 56.1199 32.7698 55.7099 32.5298 55.3399C32.2798 54.9599 32.1197 54.55 31.9197 54.16C31.7197 53.76 31.5697 53.3499 31.4197 52.9399C31.2697 52.5299 31.0997 52.1199 30.9897 51.6999L30.6198 50.4399L30.5098 50.0699L30.8298 49.8299C31.2398 49.5199 31.6297 49.26 32.0497 49.02C32.4697 48.78 32.8898 48.5499 33.3298 48.3499C34.1998 47.9399 35.1198 47.61 36.0798 47.4C36.5598 47.3 37.0497 47.2299 37.5397 47.1999C38.0297 47.1599 38.5298 47.1899 39.0298 47.2299C39.5298 47.2999 40.0197 47.4 40.4897 47.56C40.7297 47.65 40.9597 47.7199 41.1797 47.8399C41.4097 47.9499 41.6298 48.0599 41.8398 48.1999C42.0598 48.3199 42.2598 48.47 42.4598 48.62C42.6598 48.76 42.8498 48.9299 43.0198 49.0999C43.2098 49.2599 43.3797 49.44 43.5397 49.62C43.7097 49.79 43.8698 49.98 44.0098 50.18C44.3098 50.56 44.5598 50.97 44.8098 51.38L45.1498 52.01C45.2898 52.27 45.3197 52.46 45.4197 52.68C45.5497 53.13 45.6798 53.6299 45.7498 54.0899C45.8398 54.5499 45.9097 55.0099 45.9697 55.4799C46.0997 56.3999 46.1998 57.33 46.2598 58.26L46.2698 58.2299Z" fill="#2D2C2C"/>
<path d="M54.5898 58.2299C54.6498 57.2999 54.7398 56.3699 54.8798 55.4499C54.9398 54.9899 55.0098 54.53 55.1098 54.06C55.1798 53.61 55.3098 53.11 55.4398 52.65C55.5298 52.42 55.5698 52.2299 55.7098 51.9799L56.0498 51.3499C56.2998 50.9399 56.5498 50.53 56.8498 50.15C56.9898 49.95 57.1498 49.7699 57.3198 49.5899C57.4798 49.4099 57.6498 49.2299 57.8398 49.0699C58.0198 48.8999 58.1998 48.7299 58.3998 48.5899C58.5898 48.4399 58.7998 48.29 59.0098 48.17C59.2198 48.03 59.4398 47.92 59.6698 47.81C59.8898 47.69 60.1298 47.62 60.3598 47.53C60.8398 47.37 61.3298 47.2599 61.8198 47.1999C62.3098 47.1499 62.8098 47.12 63.2998 47.17C63.7998 47.19 64.2798 47.27 64.7598 47.37C65.7098 47.59 66.6298 47.9099 67.5098 48.3199C67.9498 48.5299 68.3798 48.75 68.7898 48.99C69.2098 49.23 69.5998 49.49 70.0098 49.8L70.3298 50.04L70.2198 50.41L69.8498 51.67C69.7398 52.09 69.5698 52.5 69.4198 52.91C69.2698 53.32 69.1198 53.73 68.9198 54.13C68.7298 54.53 68.5598 54.94 68.3198 55.31C68.0798 55.68 67.8898 56.0899 67.5998 56.4399C67.3198 56.7899 67.0898 57.18 66.7598 57.49C66.4498 57.81 66.1498 58.15 65.7698 58.42L65.2298 58.8299L64.6398 59.17C64.2598 59.42 63.8198 59.5599 63.3998 59.7199C62.9798 59.8899 62.5198 59.94 62.0898 60.04C61.6398 60.07 61.1998 60.12 60.7598 60.11C60.3198 60.07 59.8698 60.09 59.4398 59.99C59.0098 59.89 58.5698 59.8499 58.1598 59.6999C57.7498 59.5599 57.3198 59.47 56.9298 59.29C56.5298 59.12 56.1198 58.98 55.7398 58.79L54.5998 58.1999L54.5898 58.2299ZM54.5898 58.2299L55.7998 58.66C56.1998 58.81 56.6198 58.91 57.0198 59.03C57.4198 59.17 57.8498 59.21 58.2598 59.31C58.6698 59.41 59.0898 59.4099 59.5098 59.4599C59.9198 59.5099 60.3398 59.4599 60.7498 59.4799C61.1598 59.4599 61.5598 59.3799 61.9698 59.3299C62.3598 59.1999 62.7598 59.1399 63.1298 58.9699C63.4998 58.7999 63.8798 58.66 64.1998 58.42L64.7098 58.0899L65.1598 57.6899C65.4798 57.4399 65.7298 57.1199 65.9998 56.8199C66.2898 56.5399 66.4898 56.1699 66.7298 55.8499C66.9798 55.5299 67.1398 55.14 67.3498 54.79C67.5698 54.44 67.6998 54.05 67.8798 53.67C68.0598 53.3 68.1998 52.91 68.3398 52.51C68.4798 52.12 68.6298 51.7299 68.7398 51.3199L69.0798 50.12L69.2898 50.7299C68.9598 50.4799 68.5598 50.23 68.1898 50.01C67.8098 49.78 67.4098 49.57 67.0098 49.37C66.2098 48.98 65.3698 48.6799 64.5098 48.4699C64.0798 48.3699 63.6498 48.29 63.2198 48.25C62.7898 48.2 62.3498 48.21 61.9298 48.25C61.4998 48.29 61.0798 48.37 60.6698 48.49C60.2598 48.62 59.8598 48.7699 59.4798 48.9799C59.2898 49.0799 59.0998 49.1899 58.9298 49.3199C58.7498 49.4299 58.5698 49.5699 58.4098 49.7099C58.2398 49.8399 58.0798 50 57.9198 50.15C57.7598 50.3 57.6098 50.46 57.4698 50.64C57.1698 50.97 56.9098 51.3299 56.6498 51.6999L56.2898 52.27C56.1898 52.41 56.0998 52.67 55.9998 52.87C55.8398 53.29 55.6898 53.69 55.5698 54.15C55.4398 54.59 55.3198 55.04 55.2098 55.49C55.0998 55.94 54.9998 56.3899 54.8998 56.8499C54.7998 57.2999 54.6998 57.7599 54.5998 58.2099L54.5898 58.2299Z" fill="#2D2C2C"/>
<path d="M53.5399 67.91C53.5399 68.56 52.8199 69.15 51.9999 69.51C51.4399 69.76 50.8199 69.91 50.3399 69.91C49.8599 69.91 49.2499 69.77 48.6899 69.52C47.8599 69.16 47.1399 68.58 47.1399 67.92C47.1399 66.82 49.1699 65.9301 50.3499 65.9301C51.5299 65.9301 53.5499 66.82 53.5499 67.92L53.5399 67.91Z" fill="#B3576F"/>
<path d="M51.92 69.53C51.38 69.77 50.79 69.91 50.34 69.91C49.89 69.91 49.3 69.77 48.77 69.53C48.88 69.1 49.26 68.78 49.73 68.78C49.97 68.78 50.18 68.87 50.35 69C50.52 68.86 50.73 68.78 50.97 68.78C51.44 68.78 51.83 69.1 51.93 69.53H51.92Z" fill="#ED7693"/>
<path d="M53.8798 63.97C52.4898 63.97 50.7298 65.4099 50.3998 66.4399C50.0398 65.4099 48.1998 63.97 46.8298 63.97C45.2998 63.97 43.2898 65.28 43.2898 66.3C43.2898 67.32 45.5998 68.42 47.1398 68.42C48.5098 68.42 50.0998 67.93 50.4098 67.1C50.7298 67.92 52.2198 68.42 53.5798 68.42C55.1098 68.42 57.4298 67.33 57.4298 66.3C57.4298 65.27 55.4198 63.97 53.8898 63.97" fill="white"/>
<path d="M57.4297 65.61C57.3997 65.56 57.3797 65.5 57.3497 65.46C57.3197 65.42 57.2998 65.39 57.2698 65.36C57.2298 65.31 57.2098 65.27 57.2098 65.27C57.2098 65.27 57.2298 65.3 57.2698 65.36C57.2898 65.39 57.3098 65.43 57.3398 65.47C57.3698 65.51 57.3897 65.56 57.4197 65.62C57.4697 65.73 57.5098 65.8801 57.5198 66.0601C57.5098 66.2301 57.4697 66.43 57.3597 66.62C57.1497 67 56.7597 67.33 56.2897 67.59C56.0497 67.71 55.7998 67.83 55.5298 67.92C55.2598 68.02 54.9898 68.09 54.6998 68.15C54.4198 68.21 54.1397 68.24 53.8597 68.26C53.5797 68.27 53.2997 68.27 53.0397 68.24C52.7697 68.22 52.5198 68.17 52.2798 68.11C52.0398 68.05 51.8298 67.97 51.6298 67.89C51.4398 67.8 51.2698 67.72 51.1198 67.62C50.9698 67.53 50.8598 67.44 50.7598 67.36C50.6598 67.28 50.5997 67.21 50.5497 67.17C50.4997 67.11 50.4398 67.14 50.4398 67.14L50.5198 66.03H50.2397L50.3198 67.13C50.3198 67.13 50.2698 67.13 50.2098 67.17C50.1598 67.21 50.0998 67.29 49.9998 67.36C49.8998 67.44 49.7898 67.53 49.6398 67.62C49.4998 67.71 49.3298 67.8 49.1298 67.89C48.9398 67.98 48.7197 68.06 48.4897 68.12C48.2497 68.19 47.9997 68.23 47.7297 68.26C47.4597 68.29 47.1897 68.29 46.9097 68.28C46.6297 68.27 46.3398 68.2401 46.0598 68.1801C45.4998 68.0701 44.9397 67.88 44.4797 67.62C44.2397 67.49 44.0297 67.34 43.8497 67.17C43.6597 67.01 43.5197 66.81 43.4197 66.63C43.3097 66.44 43.2798 66.2399 43.2698 66.0699C43.2698 65.8999 43.2997 65.74 43.3597 65.63C43.3997 65.51 43.4597 65.42 43.4897 65.37C43.5297 65.31 43.5397 65.28 43.5397 65.28C43.5397 65.28 43.5197 65.31 43.4797 65.37C43.4397 65.42 43.3898 65.51 43.3398 65.63C43.2898 65.75 43.2497 65.9 43.2397 66.08C43.2397 66.26 43.2698 66.46 43.3698 66.66C43.4698 66.86 43.6097 67.06 43.7897 67.23C43.9697 67.4 44.1797 67.57 44.4197 67.71C44.8897 67.99 45.4498 68.2 46.0198 68.33C46.3098 68.4 46.5998 68.44 46.8898 68.46C47.1798 68.48 47.4597 68.48 47.7397 68.46C48.0197 68.44 48.2798 68.4 48.5298 68.34C48.7798 68.28 49.0097 68.21 49.2197 68.12C49.4297 68.03 49.6098 67.95 49.7598 67.85C49.9198 67.76 50.0398 67.66 50.1498 67.58C50.2398 67.51 50.3097 67.45 50.3597 67.4C50.4097 67.45 50.4798 67.51 50.5698 67.58C50.6798 67.66 50.7998 67.76 50.9598 67.85C51.1098 67.95 51.2998 68.03 51.5098 68.12C51.7198 68.2 51.9498 68.27 52.1998 68.33C52.4498 68.38 52.7197 68.4299 52.9897 68.4399C53.2597 68.4599 53.5498 68.4499 53.8398 68.4399C54.1298 68.4099 54.4198 68.37 54.7098 68.3C54.9898 68.24 55.2797 68.15 55.5397 68.05C55.8097 67.95 56.0697 67.8201 56.2997 67.6801C56.7697 67.4001 57.1698 67.04 57.3698 66.65C57.4698 66.46 57.5098 66.2499 57.5098 66.0699C57.4998 65.8899 57.4598 65.74 57.3998 65.63L57.4297 65.61Z" fill="#2D2C2C"/>
<path d="M49.7998 66.0401C49.7998 66.0401 49.1598 65.51 48.1698 64.85C47.2998 64.27 47.3899 63.52 47.3899 63.25C47.3899 62.91 48.2898 63.68 49.2898 64.34C50.0398 64.84 49.8098 66.0401 49.8098 66.0401" fill="#2D2C2C"/>
<path d="M50.97 66.0401C50.97 66.0401 51.61 65.51 52.6 64.85C53.47 64.27 53.38 63.52 53.38 63.25C53.38 62.91 52.48 63.68 51.48 64.34C50.73 64.84 50.96 66.0401 50.96 66.0401" fill="#2D2C2C"/>
<path d="M50.41 63.92H50.36C49.33 63.92 46.62 61.8099 47.48 64.2099C47.6 64.5499 47.71 63.9499 48.06 63.9399C48.52 63.9299 49.25 64.46 49.57 64.64C49.77 64.75 49.27 66.29 50.39 66.3C51.52 66.28 51.0201 64.75 51.2101 64.64C51.5201 64.46 52.26 63.9299 52.72 63.9399C53.07 63.9399 53.18 64.5499 53.29 64.2099C54.15 61.7999 51.44 63.92 50.41 63.92Z" fill="#EF98B7"/>
<path d="M45.5699 66.1899C45.5699 66.2499 45.5199 66.3 45.4599 66.3C45.3999 66.3 45.3499 66.2499 45.3499 66.1899C45.3499 66.1299 45.3999 66.08 45.4599 66.08C45.5199 66.08 45.5699 66.1299 45.5699 66.1899Z" fill="#5B5C5C"/>
<path d="M46.68 64.84C46.68 64.89 46.64 64.9399 46.58 64.9399C46.52 64.9399 46.48 64.9 46.48 64.84C46.48 64.78 46.52 64.74 46.58 64.74C46.64 64.74 46.68 64.78 46.68 64.84Z" fill="#5B5C5C"/>
<path d="M47.2998 66.1899C47.2998 66.2699 47.2398 66.3199 47.1698 66.3199C47.0998 66.3199 47.0398 66.2599 47.0398 66.1899C47.0398 66.1199 47.0998 66.0601 47.1698 66.0601C47.2398 66.0601 47.2998 66.1199 47.2998 66.1899Z" fill="#5B5C5C"/>
<path d="M55.1099 66.1899C55.1099 66.2499 55.1598 66.3 55.2198 66.3C55.2798 66.3 55.3299 66.2499 55.3299 66.1899C55.3299 66.1299 55.2798 66.08 55.2198 66.08C55.1598 66.08 55.1099 66.1299 55.1099 66.1899Z" fill="#5B5C5C"/>
<path d="M54.0098 64.84C54.0098 64.89 54.0497 64.9399 54.1097 64.9399C54.1697 64.9399 54.2098 64.9 54.2098 64.84C54.2098 64.78 54.1697 64.74 54.1097 64.74C54.0497 64.74 54.0098 64.78 54.0098 64.84Z" fill="#5B5C5C"/>
<path d="M53.3899 66.1899C53.3899 66.2699 53.4499 66.3199 53.5199 66.3199C53.5899 66.3199 53.6499 66.2599 53.6499 66.1899C53.6499 66.1199 53.5899 66.0601 53.5199 66.0601C53.4499 66.0601 53.3899 66.1199 53.3899 66.1899Z" fill="#5B5C5C"/>
<path d="M41.6599 64.5C42.2099 64.63 42.7499 64.76 43.2999 64.89C43.5699 64.95 43.8499 65.01 44.1199 65.1C44.3899 65.19 44.6599 65.27 44.9199 65.38C44.6399 65.36 44.36 65.29 44.09 65.24C43.82 65.17 43.55 65.09 43.28 65.01C42.74 64.85 42.2099 64.69 41.6699 64.52L41.6599 64.5Z" fill="#5B5C5C"/>
<path d="M39.4199 67.1L41.8099 66.5699C42.2099 66.4799 42.5999 66.3801 42.9999 66.3101C43.3999 66.2401 43.8 66.17 44.21 66.13C43.82 66.26 43.42 66.36 43.03 66.45C42.63 66.54 42.23 66.6001 41.83 66.6801L39.4299 67.12L39.4199 67.1Z" fill="#5B5C5C"/>
<path d="M41.7397 68.5601L43.2997 67.61C43.5597 67.45 43.8198 67.29 44.0898 67.14C44.3598 67 44.6297 66.86 44.9097 66.74C44.6697 66.94 44.4098 67.1 44.1498 67.26C43.8898 67.42 43.6197 67.55 43.3497 67.7L41.7397 68.5699V68.5601Z" fill="#5B5C5C"/>
<path d="M59.0298 64.51C58.4898 64.68 57.9497 64.84 57.4197 65C57.1497 65.08 56.8897 65.17 56.6097 65.23C56.3397 65.29 56.0598 65.35 55.7798 65.39C56.0398 65.26 56.3098 65.18 56.5798 65.1C56.8498 65.02 57.1198 64.96 57.3898 64.89C57.9398 64.76 58.4798 64.63 59.0298 64.5V64.51Z" fill="#5B5C5C"/>
<path d="M61.2499 67.12L58.8499 66.6801C58.4499 66.6001 58.05 66.54 57.65 66.45C57.25 66.35 56.86 66.26 56.46 66.14C56.87 66.17 57.2699 66.2401 57.6699 66.3101C58.0699 66.3801 58.4699 66.4799 58.8599 66.5699L61.2499 67.1V67.12Z" fill="#5B5C5C"/>
<path d="M58.9297 68.5699L57.3198 67.7C57.0498 67.56 56.7798 67.42 56.5198 67.26C56.2598 67.1 55.9998 66.94 55.7598 66.75C56.0398 66.85 56.3098 67 56.5798 67.14C56.8498 67.28 57.0997 67.45 57.3597 67.61L58.9197 68.5601L58.9297 68.5699Z" fill="#5B5C5C"/>
<path d="M55.1099 37.0101C53.7099 36.7601 52.1799 37.2501 51.5799 36.6301C51.4099 36.4601 51.5899 36.1501 51.5899 35.9001C51.5899 35.1501 50.9899 34.15 51.5399 33.73C52.1999 33.23 53.3999 34.26 54.5899 34.48C57.1099 34.94 59.2799 34.6 59.2799 34.6C59.2799 34.6 57.3599 33.5201 54.8499 33.0601C53.5299 32.8201 52.3399 32.6901 51.4799 32.6801C51.3699 31.2601 50.3999 29.8401 50.9899 29.3101C51.6299 28.7401 53.0899 29.9901 54.5899 30.2601C57.1099 30.7101 59.2799 30.3801 59.2799 30.3801C59.2799 30.3801 57.3599 29.3 54.8499 28.84C53.0299 28.51 51.4299 28.3901 50.6499 28.5001C50.5699 28.4001 50.2499 28.4101 50.1599 28.5201C49.4599 28.3801 47.7699 28.49 45.8199 28.84C43.2999 29.3 41.3899 30.3801 41.3899 30.3801C41.3899 30.3801 43.5599 30.7201 46.0799 30.2601C47.6899 29.9701 49.2199 28.68 49.8599 29.23C50.4599 29.75 49.4599 31.2001 49.3499 32.6701C48.4799 32.6701 47.2199 32.8001 45.8199 33.0501C43.2999 33.5001 41.3899 34.59 41.3899 34.59C41.3899 34.59 43.5599 34.93 46.0799 34.47C47.3499 34.24 48.6099 33.1601 49.2899 33.6701C49.8499 34.0901 49.2399 35.1201 49.2399 35.8901C49.2399 36.1401 49.4199 36.45 49.2499 36.62C48.6499 37.24 47.1699 36.7601 45.8199 37.0001C43.2999 37.4601 41.3899 38.5401 41.3899 38.5401C41.3899 38.5401 43.5599 38.8801 46.0799 38.4201C47.3599 38.1901 48.4999 37.9 49.3099 37.62C49.5599 40.96 50.4199 43.44 50.4199 43.44C50.4199 43.44 51.2899 40.94 51.5299 37.58C52.3399 37.87 53.5199 38.1801 54.8599 38.4201C57.3799 38.8801 59.5499 38.5401 59.5499 38.5401C59.5499 38.5401 57.6399 37.4601 55.1199 37.0001L55.1099 37.0101Z" fill="#2D2C2C"/>
<path d="M50.3799 64.6C49.2599 64.6 48.3699 63.5101 48.3699 63.4301C48.3699 63.4301 48.3699 63.4301 48.3799 63.4301C48.4699 63.4301 49.3199 64.03 50.3799 64.03C51.4399 64.03 52.3299 63.4301 52.4299 63.4301H52.4399C52.4399 63.5101 51.5099 64.6 50.3799 64.6Z" fill="#F3B6CB"/>
<path d="M64.0899 33.57C64.0899 33.57 67.2199 31.53 68.2599 27.02C68.4199 26.33 68.8299 24.75 69.3999 24.42C69.9599 24.09 71.4398 24.6001 72.0998 25.1701C72.7598 25.7301 74.1199 27.25 73.6199 30.59C73.1199 33.93 71.4399 36.9401 70.3099 37.8001C69.1899 38.6601 67.8299 38.62 67.8299 38.62C67.8299 38.62 69.7099 41.43 71.3999 41.36C71.3999 41.36 74.6999 36.46 75.0899 32C75.4099 28.34 74.7199 26.29 73.5899 24.92C73.3199 24.59 70.8899 21.81 68.7999 23.27C67.8899 23.91 67.7099 24.35 66.5799 27.13C65.4599 29.91 62.7999 30.2801 62.2399 30.2801C62.2399 30.2801 61.9399 32.5901 64.0899 33.5501V33.57Z" fill="#2D2C2C"/>
<path d="M65.9897 37.0699C65.9897 37.0699 65.7297 34.43 67.4797 32.54C67.4797 32.54 67.8097 32.54 67.8097 33C67.8097 33.46 67.8097 33.13 67.8097 33.13C67.8097 33.13 68.6397 30.25 69.6997 29.62C69.6997 29.62 70.1597 30.15 69.9297 30.98C69.9297 30.98 70.4297 30.22 70.7197 29.95C70.7197 29.95 70.9197 30.48 70.7197 31.24C70.7197 31.24 70.7897 31.04 71.0497 30.91C71.0497 30.91 71.3497 31.77 70.8897 32.63C70.8897 32.63 71.2197 32.36 71.4197 32.26C71.4197 32.26 70.5297 36.1901 65.9997 37.0601L65.9897 37.0699Z" fill="#2D2C2C"/>
<path d="M36.24 31.58C36.24 31.58 33.41 29.08 33 27.45C32.58 25.82 32.16 24.04 30.84 23.93C29.53 23.82 27.9999 24.45 27.4799 25.35C26.9499 26.24 24.96 27.58 26.59 32.59C28.22 37.6 30.37 39.01 30.37 39.01L32.57 38.62C32.57 38.62 37.55 34.36 36.24 31.58Z" fill="white"/>
<path d="M36.3099 33.57C36.3099 33.57 33.1699 31.53 32.1399 27.02C31.9799 26.33 31.5699 24.75 30.9999 24.42C30.4399 24.09 28.9599 24.6001 28.2999 25.1701C27.6399 25.7301 26.2799 27.25 26.7799 30.59C27.2799 33.93 28.9599 36.9401 30.0799 37.8001C31.2099 38.6601 32.5599 38.62 32.5599 38.62C32.5599 38.62 30.6799 41.43 28.9899 41.36C28.9899 41.36 25.6899 36.46 25.2999 32C24.9799 28.34 25.6699 26.29 26.7999 24.92C27.0699 24.59 29.4999 21.81 31.5899 23.27C32.4999 23.91 32.6799 24.35 33.7999 27.13C34.9299 29.91 37.5799 30.2801 38.1399 30.2801C38.1399 30.2801 38.4399 32.5901 36.2899 33.5501L36.3099 33.57Z" fill="#2D2C2C"/>
<path d="M34.0499 37.36C34.0499 37.36 34.3099 34.72 32.5599 32.83C32.5599 32.83 32.2299 32.83 32.2299 33.29C32.2299 33.75 32.2299 33.42 32.2299 33.42C32.2299 33.42 31.4099 30.54 30.3499 29.91C30.3499 29.91 29.8899 30.44 30.1199 31.26C30.1199 31.26 29.6199 30.5 29.3299 30.24C29.3299 30.24 29.1299 30.77 29.3299 31.53C29.3299 31.53 29.2599 31.33 28.9999 31.2C28.9999 31.2 28.6999 32.06 29.1699 32.92C29.1699 32.92 28.8399 32.66 28.6399 32.55C28.6399 32.55 29.5299 36.49 34.0599 37.35L34.0499 37.36Z" fill="#2D2C2C"/>
</svg>
