<svg width="101" height="102" viewBox="0 0 101 102" fill="none" xmlns="http://www.w3.org/2000/svg">
<path d="M92.28 0.299988H8.69C3.90169 0.299988 0.0200195 4.18166 0.0200195 8.96997V92.56C0.0200195 97.3483 3.90169 101.23 8.69 101.23H92.28C97.0683 101.23 100.95 97.3483 100.95 92.56V8.96997C100.95 4.18166 97.0683 0.299988 92.28 0.299988Z" fill="#94A4A5"/>
<path d="M54.3701 85C49.8201 85 42.1301 81.92 37.2201 76.89C37.1501 76.89 37.0901 76.9 37.0401 76.9C36.0601 76.9 35.4801 76.11 35.0601 75.54C34.9401 75.37 34.8201 75.22 34.7201 75.11C34.6701 75.05 34.5001 74.87 34.0401 74.87C33.6701 74.87 33.3502 74.99 33.3402 74.99C33.2102 75.04 33.0801 75.06 32.9501 75.06C32.6101 75.06 32.2701 74.91 32.0501 74.63C31.7401 74.25 31.7101 73.71 31.9701 73.3C31.9701 73.29 32.0801 73.13 32.2601 72.87C31.2201 71.82 30.4701 70.66 30.4301 70.6C30.2101 70.25 30.1901 69.82 30.3701 69.46C29.7101 68.65 29.3001 67.87 29.2301 67.72C29.0001 67.27 29.1002 66.72 29.4602 66.37C29.6802 66.16 29.9601 66.06 30.2501 66.06C30.4501 66.06 30.6501 66.11 30.8301 66.22C30.8301 66.22 31.2101 66.42 31.6801 66.42C31.9201 66.42 32.1402 66.37 32.3402 66.27C32.4402 66.22 32.6601 65.99 32.8101 65.84C33.0801 62.83 34.1101 59.46 35.8901 55.79C31.7401 52.02 16.4501 35.2 17.4701 24.31C17.7801 20.96 19.5701 18.51 22.8001 17.01C23.4601 16.7 24.1702 16.55 24.9002 16.55C32.7002 16.55 42.1502 34.77 47.2802 46.15C49.5302 45.52 51.7001 45.17 53.7401 45.11C53.9401 45.11 54.1501 45.1 54.3501 45.1C54.5501 45.1 54.7401 45.1 54.9301 45.11C56.8101 45.17 58.8502 45.5 61.0202 46.09V46.07C61.6202 43.72 63.0301 38.22 66.3101 33.12C66.4401 32.92 66.5501 32.76 66.6601 32.62C66.7301 32.53 66.8101 32.43 66.8901 32.33C67.2601 31.67 68.7801 29.26 71.3801 29.26C74.9201 29.26 78.3001 33.65 81.7201 42.68C84.3101 49.51 83.7801 55.9 82.2001 58.96C81.4301 60.44 80.5201 60.94 79.8901 61.11C79.6701 61.17 79.4501 61.19 79.2201 61.19C77.2701 61.19 75.0001 59.19 73.2401 56.08C73.1901 56.18 73.1402 56.28 73.0902 56.38C74.4702 59.33 75.3601 62.1 75.7401 64.63C75.9601 64.8 76.1502 65.01 76.3302 65.2C76.4802 65.36 76.7101 65.6 76.8201 65.65C77.0301 65.75 77.2401 65.8 77.4801 65.8C77.9601 65.8 78.3401 65.59 78.3501 65.59C78.5301 65.49 78.7201 65.44 78.9201 65.44C79.2101 65.44 79.4902 65.55 79.7102 65.75C80.0802 66.1 80.1701 66.65 79.9401 67.11C79.8701 67.25 79.4601 68.04 78.8001 68.85C78.9801 69.21 78.9701 69.64 78.7501 69.99C78.7101 70.05 77.9601 71.21 76.9201 72.26C77.1001 72.51 77.2002 72.67 77.2102 72.69C77.4802 73.11 77.4501 73.65 77.1301 74.03C76.9101 74.3 76.5801 74.45 76.2401 74.45C76.1001 74.45 75.9602 74.43 75.8302 74.37C75.8302 74.37 75.5101 74.26 75.1401 74.26C74.6801 74.26 74.5202 74.44 74.4602 74.5C74.3602 74.61 74.2401 74.76 74.1201 74.93C73.7201 75.47 73.1801 76.2 72.3001 76.28C68.1001 81.18 60.6301 84.89 54.6201 85H54.3501H54.3701Z" fill="#2F150C"/>
<path d="M37.3302 55.48C35.7802 58.54 34.1902 62.51 33.9402 66.32C33.6102 66.64 33.2702 67.0801 32.8802 67.2801C31.5502 67.9401 30.2702 67.2 30.2702 67.2C30.2702 67.2 31.3802 69.39 32.8902 70.14C32.1202 70.25 31.4102 69.98 31.4102 69.98C31.4102 69.98 32.5002 71.67 33.8202 72.73C33.2902 73.38 32.9502 73.92 32.9502 73.92C32.9502 73.92 34.5902 73.29 35.5602 74.33C36.1802 74.99 36.7103 76.26 37.5303 75.54C42.0303 80.51 49.6902 83.86 54.3802 83.86C54.4602 83.86 54.5502 83.86 54.6302 83.86C60.2202 83.76 67.7502 80.22 71.8602 75.06C72.5802 75.47 73.0802 74.34 73.6502 73.72C74.6202 72.68 76.2602 73.31 76.2602 73.31C76.2602 73.31 75.9202 72.78 75.3902 72.12C76.7202 71.07 77.8002 69.37 77.8002 69.37C77.8002 69.37 77.0802 69.6401 76.3202 69.5301C77.8302 68.7901 78.9402 66.59 78.9402 66.59C78.9402 66.59 77.6602 67.33 76.3302 66.67C75.7202 66.36 75.2202 65.46 74.7102 65.34C74.3202 62.16 73.0902 58.95 71.8102 56.29C72.3502 55.59 72.7402 54.38 73.0102 52.84C74.8502 57.59 77.8802 60.44 79.6302 59.98C82.1702 59.32 83.8102 51.35 80.6802 43.07C73.1102 23.07 68.0502 32.63 67.8702 32.97C67.8502 32.99 67.8402 33 67.8202 33.02C67.7502 33.1 67.6802 33.19 67.6102 33.29C67.5102 33.42 67.4102 33.56 67.3102 33.72C63.3902 39.82 62.2403 46.43 61.8403 47.5C59.7403 46.85 57.3202 46.31 54.9202 46.24C54.7402 46.24 54.5502 46.24 54.3702 46.24C54.1802 46.24 53.9802 46.24 53.7902 46.24C51.2302 46.31 48.7702 46.86 46.6602 47.52C45.5002 44.94 31.9302 14.04 23.2902 18.04C8.13021 25.06 34.1402 53.21 37.3302 55.48Z" fill="#2F150C"/>
<path d="M37.7603 70.44C37.5303 70.36 37.3002 70.33 37.0602 70.36C37.0002 70.1 36.9203 69.86 36.8203 69.65C36.4403 68.85 36.1103 68.42 35.8203 68.25C35.8203 67.98 35.7902 67.7 35.6902 67.43C34.6402 64.47 33.9202 66.77 32.8702 67.3C31.5402 67.96 30.2603 67.2199 30.2603 67.2199C30.2603 67.2199 31.3702 69.4099 32.8802 70.1599C32.1102 70.2699 31.4003 70 31.4003 70C31.4003 70 32.4902 71.69 33.8102 72.75C33.2802 73.4 32.9402 73.94 32.9402 73.94C32.9402 73.94 34.5802 73.31 35.5502 74.35C36.3502 75.21 37.0102 77.11 38.3602 74.28C38.9302 73.08 38.8603 70.8699 37.7603 70.4699V70.44Z" fill="#C9C9C9"/>
<path d="M71.4401 69.82C71.6701 69.74 71.9001 69.72 72.1401 69.74C72.2001 69.48 72.2801 69.24 72.3801 69.03C72.7601 68.23 73.0901 67.8 73.3801 67.63C73.3801 67.36 73.4101 67.08 73.5101 66.81C74.5601 63.85 75.2801 66.15 76.3301 66.68C77.6601 67.34 78.9401 66.6 78.9401 66.6C78.9401 66.6 77.8301 68.79 76.3201 69.54C77.0801 69.65 77.8001 69.38 77.8001 69.38C77.8001 69.38 76.7101 71.07 75.3901 72.13C75.9201 72.78 76.2601 73.32 76.2601 73.32C76.2601 73.32 74.6201 72.69 73.6501 73.73C72.8501 74.59 72.1901 76.4899 70.8401 73.6599C70.2701 72.4599 70.3401 70.25 71.4401 69.85V69.82Z" fill="#C9C9C9"/>
<path d="M74.8301 67.36C74.8301 67.64 74.8301 67.93 74.8001 68.21C74.8001 68.31 74.7801 68.42 74.7701 68.52C73.7901 76.99 62.3501 83.71 54.6201 83.85C54.5401 83.85 54.4501 83.85 54.3701 83.85C47.7201 83.85 35.0901 77.11 33.9801 68.56C33.9301 68.16 33.9001 67.76 33.9001 67.35C33.9001 59.31 40.5101 50.13 40.5101 50.13C40.5101 50.13 47.1901 46.23 54.3701 46.23C61.1301 46.23 68.2301 50.13 68.2301 50.13C68.2301 50.13 74.8401 59.31 74.8401 67.35" fill="#C9C9C9"/>
<path d="M54.3701 80.51C51.3301 80.51 46.7901 78.85 43.0701 76.37C38.8101 73.53 36.1101 70 35.6801 66.69C35.6301 66.36 35.6101 66.03 35.6101 65.69C35.6101 59.06 40.6101 51.33 41.7101 49.73C43.0701 49 48.6101 46.24 54.3701 46.24C59.7901 46.24 65.5901 49.01 67.0401 49.75C68.1501 51.39 73.1201 59.09 73.1201 65.7C73.1201 65.94 73.1201 66.18 73.0901 66.42C73.0901 66.51 73.0701 66.6 73.0601 66.68C72.1701 74.4 61.2401 80.4 54.5901 80.52H54.6201H54.3701" fill="#D8D8D8"/>
<path d="M37.7202 64.22C37.7202 64.22 41.6803 72.4 45.0703 72.4C47.6703 72.4 50.9102 71.07 50.9102 71.07C50.9102 71.07 52.2903 57.44 44.7703 57.01C41.3903 56.81 37.7202 64.22 37.7202 64.22Z" fill="#C9C9C9"/>
<path d="M71.0801 64.22C71.0801 64.22 67.1201 72.4 63.7301 72.4C61.1301 72.4 57.8901 71.07 57.8901 71.07C57.8901 71.07 56.5201 57.44 64.0301 57.01C67.4201 56.81 71.0801 64.22 71.0801 64.22Z" fill="#C9C9C9"/>
<path d="M46.7001 47.61C47.8101 47.28 50.3501 46.97 52.3701 46.82C41.9201 47.94 36.9301 57.06 37.4001 55.54C34.5101 53.61 8.03008 25.12 23.3001 18.05C32.0401 14 45.8401 45.7 46.7101 47.62L46.7001 47.61Z" fill="#C9C9C9"/>
<path d="M71.7202 56.4C72.1502 57.86 68.2702 48.41 57.4102 46.9C59.0502 47.08 60.8502 47.35 61.8002 47.58C62.1802 46.76 63.2802 39.98 67.3002 33.73C67.4002 33.58 67.5002 33.43 67.6002 33.3C67.6702 33.2 67.7402 33.11 67.8102 33.03C69.3202 31.2 70.5902 32.1 71.5302 34.4C73.8002 39.93 74.1902 53.52 71.7102 56.4" fill="#C9C9C9"/>
<path d="M43.7401 49.22C43.1901 48.01 31.8601 19.5 25.2501 22.38C13.4801 27.51 37.4401 52.12 39.2701 53.34C38.9601 54.37 39.2701 53.34 41.6301 51.15C43.9901 48.96 44.2401 49.06 43.7301 49.21L43.7401 49.22Z" fill="#ED9DB2"/>
<path d="M71.6902 45.23C71.1202 38.87 71.2202 37.42 70.1002 34.11C69.3402 35.1 68.4602 36.41 67.4402 38.12C64.6702 42.76 64.4802 47.7 64.1702 48.35C64.6302 48.41 65.5402 48.96 67.0502 50.27C69.9502 52.8 70.2502 54.94 69.9002 53.74C70.6102 53.34 71.2902 48.28 71.6902 45.22" fill="#ED9DB2"/>
<path d="M70.2802 53.11C69.4602 50.51 69.0102 47.27 69.2402 44.33C69.5802 39.99 69.8002 37.28 69.1602 35.42C69.4902 34.93 69.8102 34.49 70.1102 34.11C71.2302 37.41 71.1302 38.87 71.7002 45.23C71.3702 47.74 70.8602 51.58 70.2902 53.11" fill="#B18B95"/>
<path d="M80.6701 43.07C83.8101 51.35 82.1601 59.32 79.6201 59.98C77.0801 60.64 71.8601 54.36 71.4701 45.44C70.8101 30.45 67.8601 32.98 67.8601 32.98C67.8601 32.98 72.9701 22.71 80.6701 43.07Z" fill="#C9C9C9"/>
<path d="M41.3801 58.8C41.3801 58.8 41.3901 58.77 41.4201 58.71C41.4501 58.65 41.4901 58.57 41.5601 58.47C41.6301 58.37 41.7101 58.25 41.8201 58.12C41.9301 58 42.0501 57.85 42.2201 57.72C42.3001 57.65 42.3801 57.58 42.4701 57.51C42.5601 57.44 42.6601 57.38 42.7601 57.31C42.8601 57.24 42.9701 57.19 43.0901 57.13C43.2001 57.07 43.3201 57.01 43.4501 56.97C43.7001 56.88 43.9701 56.78 44.2501 56.75C44.5301 56.68 44.8201 56.69 45.1101 56.69C45.4001 56.69 45.6801 56.76 45.9601 56.8C46.2301 56.89 46.4901 56.98 46.7401 57.08C46.9701 57.21 47.1901 57.33 47.4001 57.46C47.5901 57.6 47.7601 57.75 47.9101 57.88C47.9801 57.95 48.0601 58.01 48.1201 58.08C48.1801 58.15 48.2401 58.22 48.2901 58.29C48.4001 58.42 48.4801 58.54 48.5501 58.63C48.6901 58.82 48.7501 58.94 48.7501 58.94C48.7501 58.94 48.6201 58.89 48.4001 58.81C48.2901 58.76 48.1601 58.71 48.0201 58.64C47.8801 58.57 47.7201 58.51 47.5401 58.45C47.3601 58.39 47.1801 58.3 46.9901 58.23C46.7901 58.17 46.5801 58.11 46.3801 58.04C46.1701 57.99 45.9501 57.96 45.7301 57.9C45.6201 57.9 45.5101 57.88 45.4001 57.87C45.2901 57.86 45.1801 57.83 45.0601 57.84C44.8301 57.84 44.6101 57.83 44.3901 57.86C44.2801 57.87 44.1701 57.86 44.0601 57.89C43.9501 57.91 43.8501 57.93 43.7401 57.95C43.6301 57.96 43.5301 58 43.4201 58.02C43.3201 58.04 43.2201 58.07 43.1201 58.1C42.9301 58.16 42.7401 58.22 42.5601 58.29C42.3801 58.35 42.2301 58.42 42.0801 58.48C41.9501 58.55 41.8101 58.59 41.7101 58.65C41.6001 58.7 41.5201 58.74 41.4701 58.77C41.4101 58.8 41.3801 58.81 41.3801 58.81V58.8Z" fill="#565656"/>
<path d="M67.4801 58.8C67.4801 58.8 67.4501 58.79 67.3901 58.76C67.3301 58.73 67.2501 58.69 67.1501 58.64C67.0501 58.59 66.9202 58.54 66.7802 58.47C66.6302 58.42 66.4801 58.34 66.3001 58.28C66.1301 58.21 65.9401 58.15 65.7401 58.09C65.6401 58.06 65.5401 58.03 65.4401 58.01C65.3401 57.99 65.2401 57.95 65.1301 57.94C65.0201 57.93 64.9201 57.91 64.8101 57.88C64.7001 57.85 64.5901 57.86 64.4801 57.85C64.2601 57.82 64.0301 57.83 63.8101 57.83C63.7001 57.82 63.5901 57.84 63.4701 57.86C63.3601 57.87 63.2501 57.88 63.1401 57.89C62.9201 57.95 62.7001 57.98 62.4901 58.03C62.2801 58.1 62.0801 58.16 61.8801 58.22C61.6901 58.29 61.5001 58.37 61.3301 58.44C61.1501 58.5 60.9901 58.56 60.8501 58.63C60.7101 58.7 60.5801 58.75 60.4701 58.8C60.2601 58.89 60.1201 58.93 60.1201 58.93C60.1201 58.93 60.1901 58.81 60.3201 58.62C60.3901 58.53 60.4701 58.41 60.5801 58.28C60.6301 58.22 60.6901 58.14 60.7501 58.07C60.8201 58.01 60.8901 57.94 60.9601 57.87C61.1101 57.74 61.2801 57.58 61.4701 57.45C61.6701 57.33 61.8901 57.2 62.1301 57.07C62.3701 56.97 62.6401 56.88 62.9101 56.8C63.1901 56.75 63.4701 56.69 63.7601 56.68C64.0501 56.68 64.3401 56.68 64.6201 56.74C64.9001 56.77 65.1701 56.87 65.4201 56.96C65.5501 57 65.6602 57.07 65.7802 57.12C65.8902 57.18 66.0101 57.23 66.1101 57.3C66.2101 57.37 66.3001 57.43 66.4001 57.5C66.4901 57.57 66.5701 57.64 66.6501 57.71C66.8101 57.84 66.9301 57.99 67.0501 58.11C67.1601 58.24 67.2401 58.35 67.3101 58.46C67.3801 58.56 67.4201 58.64 67.4501 58.7C67.4801 58.75 67.4901 58.79 67.4901 58.79L67.4801 58.8Z" fill="#565656"/>
<path d="M50.9001 71.07C44.6601 74.04 40.27 72.1199 38.29 64.4099C38.29 64.4099 45.7901 58.58 49.7801 66.06C50.4001 67.22 50.9001 71.07 50.9001 71.07Z" fill="white"/>
<path d="M44.8701 71.56C43.1301 71.52 41.6801 70.15 41.1301 68.24C40.9601 67.66 40.8701 67.03 40.8801 66.37C40.9401 63.71 42.5901 62.77 44.6701 62.71C44.8001 62.71 44.9301 62.71 45.0601 62.71C47.3201 62.76 49.0402 65.11 49.0802 66.55C49.1502 69.37 47.1401 71.61 44.8801 71.57" fill="#E81C38"/>
<path d="M44.8902 70.84C43.5802 70.81 42.4202 69.69 41.9502 67.98C41.8002 67.44 41.7302 66.86 41.7402 66.27C41.7802 64.29 42.7202 63.34 44.6902 63.28C44.7902 63.28 44.8902 63.28 44.9902 63.28H45.0502C46.8302 63.32 48.1902 65.4 48.2202 66.47C48.2502 67.76 47.8202 68.99 47.0402 69.84C46.4402 70.49 45.7002 70.85 44.9502 70.85H44.9002" fill="#6B0D0E"/>
<path d="M57.8701 71.07C64.1101 74.04 68.5001 72.1199 70.4801 64.4099C70.4801 64.4099 62.9801 58.58 58.9901 66.06C58.3701 67.22 57.8701 71.07 57.8701 71.07Z" fill="white"/>
<path d="M63.9003 71.56C65.6403 71.52 67.0903 70.15 67.6403 68.24C67.8103 67.66 67.9003 67.03 67.8903 66.37C67.8303 63.71 66.1802 62.77 64.1002 62.71C63.9702 62.71 63.8403 62.71 63.7103 62.71C61.4503 62.76 59.7303 65.11 59.6903 66.55C59.6203 69.37 61.6303 71.61 63.8903 71.57" fill="#E81C38"/>
<path d="M63.8301 70.84C63.0801 70.84 62.3401 70.48 61.7401 69.83C60.9601 68.98 60.5301 67.75 60.5601 66.46C60.5901 65.39 61.9501 63.31 63.7401 63.27H63.79C63.89 63.27 63.9901 63.27 64.0901 63.27C66.0601 63.33 67 64.28 67.04 66.26C67.05 66.85 66.9801 67.43 66.8301 67.97C66.3601 69.68 65.2101 70.81 63.8901 70.84H63.8401" fill="#6B0D0E"/>
<path d="M45.1502 65.31C45.1102 67.02 43.9701 68.38 42.6001 68.35C41.9801 68.34 41.4202 68.04 41.0002 67.57C40.8502 67.06 40.7701 66.5 40.7901 65.93C40.8401 63.6 42.2901 62.77 44.1101 62.72C44.7701 63.29 45.1801 64.24 45.1601 65.31" fill="white"/>
<path d="M47.3001 70.25C47.2901 70.83 46.9001 71.29 46.4401 71.28C45.9801 71.28 45.6101 70.79 45.6201 70.21C45.6301 69.63 46.0201 69.17 46.4801 69.18C46.9401 69.18 47.3101 69.66 47.3001 70.25Z" fill="white"/>
<path d="M63.79 65.57C63.75 67.28 62.61 68.64 61.24 68.61C60.62 68.6 60.0601 68.3 59.6401 67.83C59.4901 67.32 59.41 66.76 59.43 66.19C59.48 63.86 60.93 63.03 62.75 62.98C63.41 63.55 63.82 64.5 63.8 65.57" fill="white"/>
<path d="M66.1201 70.25C66.1101 70.83 65.7202 71.29 65.2602 71.28C64.7902 71.28 64.4301 70.79 64.4401 70.21C64.4501 69.63 64.8401 69.17 65.3001 69.18C65.7601 69.18 66.1301 69.66 66.1201 70.25Z" fill="white"/>
<path d="M49.7803 71.56C50.1503 71.41 50.5203 71.25 50.9003 71.07C50.5203 71.25 50.1403 71.42 49.7803 71.56Z" fill="#C5C5C5"/>
<path d="M50.9003 71.07C50.9003 71.07 50.4003 67.22 49.7803 66.06C50.3803 67.21 50.8803 70.96 50.9003 71.07ZM38.6403 65.64C38.5103 65.25 38.4003 64.84 38.2803 64.41C38.2803 64.41 38.8303 63.98 39.7103 63.51C38.8303 63.99 38.2803 64.41 38.2803 64.41C38.3903 64.84 38.5102 65.25 38.6302 65.64" fill="#B9B8B8"/>
<path d="M49.7801 71.56C49.5701 70.46 49.3001 69.23 49.0001 68.65C48.9401 68.54 48.8901 68.44 48.8301 68.34C49.0001 67.78 49.1001 67.17 49.0801 66.54C49.0401 65.1 47.3201 62.75 45.0601 62.7H44.9901C44.8801 62.7 44.77 62.7 44.67 62.7C44.49 62.7 44.3001 62.72 44.1301 62.74C44.1201 62.73 44.11 62.72 44.1 62.71C42.46 62.76 41.1201 63.43 40.8401 65.27C40.0701 65.52 39.3801 65.85 38.8301 66.16C38.7701 65.99 38.71 65.81 38.66 65.64C38.53 65.25 38.4201 64.84 38.3101 64.41C38.3101 64.41 38.8601 63.98 39.7401 63.51C40.3901 63.16 41.2201 62.79 42.1401 62.54C42.7801 62.37 43.46 62.26 44.16 62.26C46.13 62.26 48.23 63.15 49.79 66.07C50.41 67.23 50.91 71.08 50.91 71.08C50.53 71.26 50.16 71.42 49.79 71.57" fill="#E2E1E1"/>
<path d="M48.8301 68.34C48.6201 67.97 48.4001 67.64 48.1701 67.34C48.2101 67.05 48.2301 66.76 48.2201 66.46C48.1901 65.39 46.8301 63.31 45.0501 63.27H44.9901C44.8901 63.27 44.7901 63.27 44.6901 63.27C44.6501 63.27 44.6201 63.27 44.5801 63.27C44.4501 63.07 44.2901 62.89 44.1201 62.73C44.2901 62.71 44.4801 62.7 44.6601 62.69C44.7701 62.69 44.8701 62.69 44.9801 62.69H45.0501C47.3101 62.74 49.0301 65.09 49.0701 66.53C49.0901 67.17 49.0001 67.77 48.8201 68.33" fill="#D62F3C"/>
<path d="M48.16 67.34C47.24 66.13 46.2001 65.44 45.1401 65.11C45.1201 64.42 44.9101 63.79 44.5801 63.29C44.6101 63.29 44.6501 63.29 44.6901 63.29C44.7901 63.29 44.8901 63.29 44.9901 63.29H45.05C46.83 63.33 48.19 65.41 48.22 66.48C48.22 66.78 48.21 67.07 48.17 67.36" fill="#6B1915"/>
<path d="M40.8301 65.28C41.1101 63.44 42.4501 62.76 44.0901 62.72C44.1001 62.72 44.1101 62.74 44.1201 62.75C44.2901 62.9 44.4501 63.09 44.5801 63.29C44.9101 63.79 45.1101 64.42 45.1401 65.11C44.5501 64.92 43.95 64.85 43.36 64.85C42.47 64.85 41.6001 65.03 40.8201 65.29" fill="#E2E1E1"/>
<path d="M58.9901 71.56C58.6201 71.42 58.2501 71.25 57.8701 71.07C57.8701 71.07 57.8701 71.04 57.8801 70.97C57.8801 71.03 57.8701 71.07 57.8701 71.07C58.2501 71.25 58.6201 71.41 58.9901 71.56Z" fill="#C5C5C5"/>
<path d="M57.8801 70.98C57.9601 70.37 58.4301 67.11 58.9901 66.06C58.4301 67.11 57.9601 70.38 57.8801 70.98Z" fill="#B9B8B8"/>
<path d="M58.9901 71.56C58.6201 71.41 58.2501 71.25 57.8701 71.07C57.8701 71.07 57.8701 71.04 57.8801 70.98C57.9601 70.38 58.4301 67.11 58.9901 66.06C59.1801 65.7 59.3701 65.38 59.5801 65.09C59.4901 65.41 59.4401 65.78 59.4301 66.19C59.4201 66.77 59.4901 67.32 59.6401 67.83C59.7101 67.91 59.7801 67.98 59.8601 68.05C59.8901 68.15 59.9101 68.26 59.9501 68.35C59.8901 68.45 59.8402 68.55 59.7802 68.66C59.4802 69.23 59.2001 70.47 59.0001 71.57" fill="#E2E1E1"/>
<path d="M59.9501 68.34C59.9201 68.24 59.8901 68.14 59.8601 68.04C59.9201 68.09 59.9801 68.14 60.0401 68.19C60.0101 68.24 59.9801 68.3 59.9501 68.35" fill="#D62F3C"/>
<path d="M70.1302 65.65C70.2602 65.25 70.3802 64.84 70.4902 64.41C70.4902 64.41 69.9402 63.98 69.0602 63.51C69.9402 63.99 70.4902 64.41 70.4902 64.41C70.3802 64.84 70.2602 65.26 70.1302 65.65ZM61.4702 63.16C62.4802 62.49 63.5602 62.24 64.6102 62.24C63.5602 62.24 62.4902 62.49 61.4702 63.16ZM66.6503 62.53C66.6503 62.53 66.6503 62.53 66.6403 62.53C66.6403 62.53 66.6403 62.53 66.6503 62.53Z" fill="#B9B8B8"/>
<path d="M69.96 66.17C69.36 65.84 68.6 65.48 67.75 65.22C67.3 63.43 65.86 62.76 64.11 62.71C64 62.71 63.9 62.71 63.79 62.71H63.72C63.26 62.71 62.82 62.82 62.41 63C62.08 63.03 61.77 63.09 61.48 63.17C62.5 62.5 63.57 62.25 64.62 62.25C65.32 62.25 66 62.36 66.64 62.53C66.64 62.53 66.64 62.53 66.65 62.53C67.57 62.78 68.4 63.15 69.05 63.5C69.93 63.98 70.48 64.4 70.48 64.4C70.37 64.83 70.25 65.25 70.12 65.64C70.06 65.81 70.01 65.99 69.95 66.15" fill="#E2E1E1"/>
<path d="M67.7401 65.22C67.4501 65.13 67.1401 65.05 66.8301 64.99C66.4601 63.88 65.5601 63.33 64.0801 63.28C63.9801 63.28 63.8802 63.28 63.7802 63.28H63.7301C63.5201 63.28 63.3101 63.32 63.1101 63.38C63.0001 63.23 62.8701 63.1 62.7401 62.98C62.6301 62.98 62.5101 62.98 62.4001 63C62.8101 62.83 63.2501 62.72 63.7101 62.71H63.7802C63.8902 62.71 63.9901 62.71 64.1001 62.71C65.8501 62.76 67.2901 63.43 67.7401 65.22Z" fill="#D62F3C"/>
<path d="M63.7701 65.06C63.7001 64.41 63.4601 63.82 63.1101 63.36C63.3101 63.3 63.5201 63.27 63.7301 63.27H63.7802C63.8802 63.27 63.9801 63.27 64.0801 63.27C65.5601 63.32 66.4601 63.87 66.8301 64.98C66.3701 64.89 65.8901 64.84 65.4001 64.84C64.8601 64.84 64.3101 64.91 63.7701 65.06Z" fill="#6B1915"/>
<path d="M60.04 68.19C59.98 68.14 59.92 68.1 59.86 68.04C59.78 67.97 59.7101 67.9 59.6401 67.82C59.4901 67.31 59.41 66.75 59.43 66.18C59.43 65.77 59.4901 65.41 59.5801 65.08C60.1701 64.22 60.81 63.6 61.48 63.16C61.77 63.07 62.08 63.01 62.41 62.99C62.52 62.99 62.63 62.98 62.75 62.97C62.88 63.08 63.01 63.22 63.12 63.37C63.47 63.83 63.7001 64.41 63.7801 65.07C62.4501 65.45 61.13 66.38 60.05 68.19" fill="#E2E1E1"/>
<path d="M50.9 71.07C50.82 70.69 50.74 70.31 50.65 69.93C50.57 69.55 50.49 69.17 50.39 68.8C50.3 68.42 50.2 68.05 50.09 67.68C49.99 67.3 49.86 66.97 49.73 66.61C49.65 66.44 49.57 66.23 49.49 66.11L49.19 65.63C48.97 65.32 48.75 65.01 48.5 64.74C48.38 64.6 48.25 64.46 48.12 64.34C47.99 64.21 47.86 64.0799 47.71 63.9699C47.57 63.8499 47.43 63.74 47.27 63.64C47.12 63.54 46.97 63.44 46.81 63.36C46.5 63.18 46.16 63.05 45.82 62.94C45.48 62.83 45.12 62.77 44.77 62.74C44.41 62.72 44.05 62.71 43.68 62.74C43.32 62.77 42.96 62.84 42.6 62.92C41.88 63.09 41.18 63.35 40.51 63.67C40.17 63.83 39.84 64.01 39.52 64.2C39.2 64.39 38.88 64.6 38.6 64.8L38.77 64.2899L39.06 65.3C39.15 65.64 39.28 65.9599 39.39 66.2899C39.5 66.6199 39.62 66.95 39.77 67.26C39.92 67.57 40.04 67.9 40.22 68.2C40.39 68.49 40.53 68.82 40.74 69.09C40.95 69.36 41.11 69.67 41.35 69.9C41.58 70.15 41.79 70.42 42.05 70.62L42.43 70.95L42.85 71.2199C43.12 71.4199 43.44 71.54 43.74 71.68C44.05 71.82 44.39 71.87 44.71 71.98C45.05 72.02 45.39 72.09 45.73 72.11C46.08 72.11 46.42 72.1399 46.77 72.0999C47.11 72.0599 47.47 72.0599 47.81 71.9699C48.15 71.8899 48.51 71.86 48.85 71.74C49.19 71.64 49.53 71.55 49.87 71.43L50.88 71.07H50.9ZM50.9 71.07L49.94 71.57C49.62 71.73 49.28 71.85 48.94 71.99C48.6 72.14 48.25 72.21 47.9 72.33C47.55 72.45 47.19 72.49 46.83 72.57C46.47 72.66 46.1 72.64 45.73 72.67C45.36 72.67 44.99 72.63 44.61 72.61C44.25 72.52 43.86 72.48 43.51 72.34C43.16 72.2 42.79 72.08 42.47 71.88L41.98 71.59L41.53 71.24C41.22 71.02 40.97 70.74 40.71 70.46C40.43 70.2 40.24 69.88 40.01 69.58C39.77 69.29 39.61 68.95 39.41 68.63C39.2 68.31 39.07 67.97 38.91 67.64C38.74 67.31 38.61 66.96 38.49 66.62C38.37 66.27 38.22 65.93 38.13 65.58L37.82 64.53L37.73 64.2199L38 64.02C38.35 63.76 38.67 63.54 39.03 63.34C39.38 63.14 39.74 62.95 40.1 62.78C40.83 62.44 41.6 62.16 42.4 61.98C42.8 61.9 43.21 61.83 43.62 61.81C44.03 61.78 44.45 61.8 44.87 61.84C45.29 61.89 45.7 61.98 46.09 62.12C46.29 62.19 46.49 62.26 46.67 62.36C46.86 62.45 47.05 62.5399 47.22 62.6599C47.4 62.7599 47.57 62.89 47.73 63.01C47.9 63.13 48.05 63.2699 48.2 63.4099C48.36 63.5399 48.5 63.6899 48.64 63.8499C48.78 63.9999 48.91 64.15 49.03 64.32C49.28 64.64 49.49 64.98 49.69 65.33L49.97 65.86C50.08 66.07 50.12 66.24 50.2 66.42C50.31 66.8 50.42 67.2199 50.48 67.5999C50.55 67.9799 50.61 68.37 50.67 68.76C50.78 69.53 50.86 70.31 50.91 71.09L50.9 71.07Z" fill="#5B5C5C"/>
<path d="M57.8701 71.07C57.9201 70.29 58.0001 69.51 58.1101 68.74C58.1601 68.35 58.2201 67.96 58.3001 67.58C58.3601 67.2 58.4701 66.78 58.5801 66.4C58.6601 66.21 58.6901 66.05 58.8101 65.84L59.0901 65.31C59.3001 64.97 59.5101 64.62 59.7601 64.3C59.8801 64.13 60.0101 63.98 60.1501 63.83C60.2901 63.68 60.4301 63.53 60.5901 63.39C60.7401 63.25 60.8901 63.11 61.0601 62.99C61.2201 62.86 61.3901 62.74 61.5701 62.64C61.7501 62.53 61.9301 62.43 62.1201 62.34C62.3001 62.24 62.5001 62.17 62.7001 62.1C63.1001 61.97 63.5101 61.88 63.9201 61.82C64.3401 61.78 64.7501 61.75 65.1701 61.79C65.5801 61.81 65.9901 61.87 66.3901 61.96C67.1901 62.14 67.9601 62.42 68.6901 62.76C69.0601 62.93 69.4101 63.12 69.7601 63.32C70.1101 63.53 70.4402 63.74 70.7802 64L71.0501 64.2L70.9601 64.51L70.6501 65.56C70.5601 65.92 70.4201 66.26 70.2901 66.6C70.1701 66.95 70.0301 67.29 69.8701 67.62C69.7101 67.95 69.5701 68.29 69.3701 68.61C69.1701 68.93 69.0101 69.26 68.7701 69.56C68.5401 69.86 68.3401 70.18 68.0701 70.44C67.8101 70.71 67.5601 71 67.2401 71.22L66.7901 71.57L66.2901 71.86C65.9701 72.07 65.6001 72.19 65.2501 72.32C64.9001 72.46 64.5101 72.5 64.1501 72.59C63.7701 72.61 63.4002 72.66 63.0302 72.65C62.6602 72.61 62.2901 72.63 61.9301 72.55C61.5701 72.47 61.2001 72.43 60.8601 72.31C60.5101 72.19 60.1601 72.12 59.8201 71.97C59.4901 71.83 59.1401 71.71 58.8201 71.55L57.8601 71.05L57.8701 71.07ZM57.8701 71.07L58.8801 71.43C59.2201 71.56 59.5601 71.64 59.9001 71.74C60.2401 71.85 60.5901 71.89 60.9301 71.97C61.2701 72.06 61.6301 72.06 61.9801 72.1C62.3301 72.14 62.6801 72.1 63.0201 72.11C63.3601 72.1 63.7001 72.03 64.0401 71.98C64.3601 71.87 64.7001 71.82 65.0101 71.68C65.3201 71.54 65.6301 71.42 65.9101 71.22L66.3301 70.95L66.7101 70.62C66.9801 70.42 67.1901 70.14 67.4201 69.9C67.6601 69.67 67.8302 69.35 68.0302 69.09C68.2402 68.82 68.3801 68.49 68.5501 68.2C68.7301 67.91 68.8501 67.58 68.9901 67.26C69.1401 66.95 69.2601 66.62 69.3801 66.29C69.4901 65.96 69.6301 65.64 69.7101 65.3L70.0001 64.29L70.1701 64.8C69.8901 64.59 69.5701 64.38 69.2501 64.2C68.9301 64.01 68.6001 63.83 68.2601 63.67C67.5901 63.34 66.8901 63.09 66.1701 62.92C65.8101 62.84 65.4501 62.77 65.0901 62.74C64.7301 62.7 64.3601 62.71 64.0001 62.74C63.6401 62.77 63.2901 62.84 62.9501 62.94C62.6101 63.05 62.2701 63.17 61.9601 63.36C61.8001 63.44 61.6401 63.54 61.4901 63.64C61.3401 63.74 61.1901 63.85 61.0501 63.97C60.9001 64.08 60.7701 64.21 60.6401 64.34C60.5101 64.47 60.3801 64.6 60.2601 64.74C60.0101 65.02 59.7901 65.32 59.5701 65.63L59.2701 66.11C59.1901 66.23 59.1102 66.45 59.0302 66.61C58.9002 66.97 58.7701 67.29 58.6701 67.68C58.5601 68.05 58.4601 68.42 58.3701 68.8C58.2801 69.18 58.2001 69.56 58.1101 69.93C58.0201 70.31 57.9401 70.69 57.8601 71.07H57.8701Z" fill="#5B5C5C"/>
<path d="M54.3802 82.96C51.9202 82.96 46.2102 82.49 46.2102 78.17C46.2102 74.55 49.9502 71.49 54.3802 71.49C58.8102 71.49 62.5502 74.55 62.5502 78.17C62.5502 82.49 56.8402 82.96 54.3802 82.96Z" fill="white"/>
<path d="M54.67 76.3L54.45 78.38L54.23 76.3H54.67Z" fill="#3B5166"/>
<path d="M56.4601 75.57C56.0301 76.18 54.5101 76.63 54.4501 76.65C54.3901 76.63 52.8601 76.18 52.4301 75.57C52.2301 75.28 52.1401 75 52.1901 74.76C52.2201 74.92 52.3001 75.09 52.4301 75.27C52.8601 75.88 54.3901 76.04 54.4501 76.06C54.5101 76.05 56.0401 75.88 56.4601 75.27C56.5901 75.09 56.6601 74.92 56.7001 74.76C56.7501 75 56.6701 75.28 56.4601 75.58V75.57Z" fill="#941B1F"/>
<path d="M59.3 77.5C59.3 77.5 59.27 77.59 59.23 77.66C59.2 77.73 59.1501 77.8 59.0801 77.88C59.0501 77.92 59.01 77.96 58.97 78C58.93 78.04 58.8801 78.08 58.8301 78.12C58.7301 78.2 58.6201 78.28 58.4901 78.34C58.3601 78.41 58.2201 78.46 58.0701 78.52C57.9201 78.57 57.76 78.61 57.6 78.64C57.44 78.67 57.27 78.7 57.11 78.71C56.44 78.78 55.77 78.72 55.29 78.61C55.17 78.58 55.06 78.55 54.97 78.52C54.88 78.49 54.8001 78.46 54.7501 78.43C54.7201 78.42 54.7001 78.4 54.6801 78.39C54.6601 78.39 54.6501 78.37 54.6301 78.36C54.6001 78.34 54.5201 78.21 54.5201 78.21L54.4401 78.07C54.4401 78.07 54.2801 78.34 54.2401 78.36C54.2201 78.37 54.2101 78.38 54.1901 78.39C54.1701 78.39 54.1601 78.41 54.1201 78.43C54.0601 78.46 53.9901 78.49 53.9001 78.52C53.8101 78.55 53.7001 78.58 53.5801 78.61C53.1001 78.72 52.4301 78.78 51.7601 78.71C51.5901 78.69 51.4301 78.67 51.2701 78.64C51.1101 78.61 50.95 78.56 50.8 78.52C50.65 78.47 50.5101 78.41 50.3801 78.34C50.2501 78.28 50.14 78.2 50.04 78.12C49.99 78.08 49.9501 78.04 49.9001 78C49.8601 77.96 49.82 77.92 49.79 77.88C49.73 77.8 49.6801 77.72 49.6401 77.66C49.6001 77.6 49.5801 77.54 49.5701 77.5C49.5601 77.46 49.55 77.44 49.55 77.44C49.55 77.44 49.5501 77.46 49.5701 77.5C49.5801 77.54 49.6001 77.6 49.6301 77.66C49.6601 77.73 49.7001 77.81 49.7601 77.9C49.7901 77.94 49.83 77.99 49.86 78.03C49.9 78.07 49.9401 78.12 49.9901 78.16C50.0901 78.25 50.2001 78.34 50.3201 78.42C50.4501 78.5 50.5901 78.57 50.7401 78.64C50.8901 78.7 51.05 78.76 51.22 78.81C51.38 78.86 51.55 78.9 51.73 78.93C52.42 79.06 53.1201 79.05 53.6501 78.98C53.7801 78.96 53.9001 78.94 54.0101 78.91C54.1201 78.88 54.21 78.85 54.29 78.82C54.34 78.8 54.3901 78.78 54.4301 78.75C54.4701 78.77 54.5201 78.8 54.5701 78.82C54.6501 78.85 54.74 78.88 54.85 78.91C54.96 78.94 55.0801 78.96 55.2101 78.98C55.7401 79.06 56.4401 79.06 57.1301 78.93C57.3001 78.9 57.4701 78.86 57.6401 78.81C57.8101 78.76 57.9601 78.7 58.1201 78.64C58.2701 78.57 58.41 78.5 58.54 78.42C58.67 78.34 58.7801 78.25 58.8701 78.16C58.9201 78.12 58.9601 78.07 59.0001 78.03C59.0401 77.98 59.07 77.94 59.1 77.9C59.16 77.81 59.2 77.73 59.23 77.66C59.26 77.59 59.28 77.53 59.29 77.5C59.3 77.46 59.3101 77.44 59.3101 77.44C59.3101 77.44 59.31 77.46 59.29 77.5H59.3Z" fill="#3B5166"/>
</svg>
