<svg width="102" height="102" viewBox="0 0 102 102" fill="none" xmlns="http://www.w3.org/2000/svg">
<path d="M93.0901 0.190002H9.50006C4.71175 0.190002 0.830078 4.07168 0.830078 8.85999V92.45C0.830078 97.2383 4.71175 101.12 9.50006 101.12H93.0901C97.8784 101.12 101.76 97.2383 101.76 92.45V8.85999C101.76 4.07168 97.8784 0.190002 93.0901 0.190002Z" fill="#24B999"/>
<path d="M51.29 78.88C46.84 78.88 40.62 76.65 35.44 73.19C29.28 69.08 25.53 64 24.86 58.88C24.79 58.35 24.75 57.79 24.75 57.22C24.75 51.84 25.9 46.67 28.07 42.25C27.93 41.8 27.71 41.15 27.4 40.47C27.4 40.47 27.3 40.26 27.27 40.2L27.21 40.08L27.12 39.91L27.05 39.77L26.97 39.62L26.81 39.35C26.75 39.25 26.7 39.17 26.64 39.08C26.32 38.61 26.05 38.17 25.83 37.78C24.99 36.29 24.86 35.08 24.85 34.2C24.83 33.17 25.31 32.11 26.2 31.21C27.4 29.99 29.09 29.3 30.85 29.3C32.27 29.3 34.42 29.76 36.59 31.96C36.64 32.01 36.68 32.06 36.72 32.11C36.74 32.14 36.85 32.29 37 32.53C37.15 32.46 37.3 32.38 37.45 32.31L37.5 32.12C38.18 29.36 38.88 26.51 42.5 24.56C45.18 23.12 46.89 22.99 47.08 22.98C47.11 22.98 47.13 22.98 47.16 22.98C47.63 22.98 48.06 23.21 48.33 23.6C48.44 23.76 48.51 23.95 48.55 24.14C51.36 22.75 54.36 22.49 57.19 22.43C57.29 22.43 57.39 22.43 57.49 22.43C60.41 22.43 62.67 23.29 62.76 23.32C63.37 23.56 63.74 24.18 63.65 24.84C63.56 25.49 63.02 25.99 62.37 26.04C62.35 26.04 60.49 26.21 58.86 27.11C60.49 27.32 62.15 27.96 62.85 28.43C64.28 29.4 65.34 30.67 66.1 31.87C68.24 29.75 70.35 29.3 71.75 29.3C73.51 29.3 75.2 30 76.4 31.21C77.29 32.11 77.77 33.18 77.75 34.2C77.73 35.08 77.61 36.29 76.76 37.8C76.54 38.21 76.27 38.65 75.95 39.1C75.9 39.17 75.84 39.26 75.79 39.35L75.63 39.63C75.6 39.68 75.48 39.91 75.48 39.91C75.45 39.97 75.34 40.2 75.34 40.2C75.31 40.27 75.27 40.35 75.23 40.42C74.9 41.14 74.67 41.82 74.53 42.29C74.82 42.89 75.1 43.5 75.34 44.12C76.98 48.14 77.81 52.55 77.81 57.24C77.81 57.63 77.79 58.02 77.76 58.4C77.75 58.54 77.73 58.68 77.72 58.82C77.12 63.99 73.62 69.04 67.87 73.06C62.78 76.61 56.7 78.79 51.62 78.89H51.28L51.29 78.88Z" fill="#2F150C"/>
<path d="M28.2199 38.93C28.2499 38.99 28.2799 39.05 28.3099 39.1C28.3399 39.15 28.37 39.2 28.39 39.26C28.42 39.32 28.4499 39.39 28.4899 39.45C28.5099 39.5 28.5299 39.54 28.5599 39.59C28.5899 39.66 28.6299 39.73 28.6599 39.8C28.6799 39.83 28.69 39.87 28.7 39.9C29.2 41 29.49 42.03 29.59 42.4C27.57 46.31 26.1699 51.34 26.1699 57.23C26.1699 57.73 26.2 58.22 26.27 58.71C27.63 69.2 43.1299 77.48 51.2999 77.48C51.4099 77.48 51.5099 77.48 51.6099 77.48C61.0999 77.3 75.14 69.06 76.34 58.66C76.35 58.53 76.3699 58.4 76.3799 58.28C76.4099 57.94 76.4199 57.59 76.4199 57.24C76.4199 52.43 75.4999 48.18 74.0599 44.65C73.7499 43.88 73.4099 43.14 73.0499 42.44C73.1399 42.09 73.44 41.02 73.96 39.87C73.96 39.87 73.96 39.86 73.96 39.85C74 39.76 74.04 39.67 74.08 39.59C74.09 39.56 74.1099 39.54 74.1199 39.51C74.1599 39.43 74.1999 39.36 74.2399 39.28C74.2599 39.24 74.2799 39.2 74.2999 39.16C74.3399 39.09 74.3699 39.02 74.4099 38.96C74.4399 38.91 74.4699 38.86 74.4999 38.8C74.5299 38.74 74.5699 38.69 74.5999 38.63C74.6699 38.52 74.7299 38.42 74.7999 38.31C75.0899 37.9 75.33 37.5 75.53 37.13C76.22 35.9 76.33 34.95 76.34 34.19C76.38 31.83 71.5099 28.39 67.0099 32.96C67.0099 32.96 66.52 33.63 66.15 34.55C66.04 34.48 65.9299 34.42 65.8199 34.36C65.1499 32.84 63.9899 30.91 62.0599 29.61C61.2599 29.07 58.16 28.01 56.58 28.68C54.62 29.51 52.0699 29.54 52.0699 29.54C52.0699 29.54 55.1899 28.69 56.3499 27.35C58.4099 24.96 62.2499 24.66 62.2499 24.66C62.2499 24.66 60.03 23.81 57.21 23.86C54.39 23.92 51.2399 24.17 48.4199 25.82C46.2999 27.06 45.2999 28.38 45.2999 28.38L47.15 24.41C47.15 24.41 45.6399 24.49 43.1599 25.82C40.0299 27.5 39.5099 29.85 38.8099 32.65V33.27C37.9299 33.63 37.1299 34.04 36.4099 34.49C36.0499 33.6 35.58 32.97 35.58 32.97C31.08 28.4 26.2099 31.84 26.2499 34.2C26.2599 34.96 26.3699 35.91 27.0599 37.14C27.2599 37.51 27.5099 37.91 27.7899 38.32C27.8599 38.42 27.9299 38.53 27.9899 38.64C28.0199 38.69 28.05 38.74 28.08 38.79C28.12 38.85 28.1499 38.91 28.1799 38.97L28.2199 38.93Z" fill="#2F150C"/>
<path d="M74.0599 44.63C73.7499 43.86 73.4099 43.12 73.0499 42.42C73.1799 41.91 73.7599 39.85 74.8199 38.29C75.1099 37.88 75.3499 37.48 75.5499 37.11C76.2399 35.88 76.3499 34.93 76.3599 34.17C76.3999 31.81 71.53 28.37 67.03 32.94C67.03 32.94 66.5399 33.61 66.1699 34.53C62.8199 32.52 57.9999 31.3 51.2999 31.3C44.2399 31.3 39.67 32.47 36.45 34.46C36.09 33.57 35.6199 32.94 35.6199 32.94C31.1199 28.37 26.2499 31.81 26.2899 34.17C26.2999 34.93 26.4099 35.88 27.0999 37.11C27.2999 37.48 27.55 37.88 27.83 38.29C28.87 39.83 29.45 41.84 29.59 42.39C27.57 46.3 26.1699 51.33 26.1699 57.22C26.1699 57.72 26.2 58.21 26.27 58.7C27.63 69.19 43.1299 77.47 51.2999 77.47C51.4099 77.47 51.5099 77.47 51.6099 77.47C61.0999 77.29 75.14 69.05 76.34 58.65C76.35 58.52 76.3699 58.39 76.3799 58.27C76.4099 57.93 76.4199 57.58 76.4199 57.23C76.4199 52.42 75.4999 48.17 74.0599 44.64" fill="#1E1E1E"/>
<path d="M51.29 77.47C47.56 77.47 41.98 75.23 37.42 71.89C32.19 68.06 28.88 63.3 28.35 58.85C28.29 58.41 28.27 57.96 28.27 57.51C28.27 48.58 33.93 37.79 35.75 36.01C37.13 34.66 44.22 31.31 51.29 31.31C57.95 31.31 65.37 34.62 66.84 36.03C68.72 37.83 74.31 48.61 74.31 57.51C74.31 57.84 74.3 58.16 74.27 58.48C74.27 58.6 74.25 58.72 74.24 58.84C73.15 69.23 59.73 77.31 51.56 77.48H51.6H51.29" fill="#333333"/>
<path d="M42.4899 66.55C42.4899 66.55 49.0599 65.56 48.3699 57.27C47.6799 48.99 47.5499 43.07 43.7599 42.82C39.9599 42.57 35.2299 42.01 30.6499 46.81C26.0699 51.6 29.8899 66.17 42.4899 66.55Z" fill="#FDFDFE"/>
<path d="M60.15 66.55C60.15 66.55 53.58 65.56 54.27 57.27C54.96 48.99 55.08 43.07 58.88 42.82C62.67 42.57 67.41 42.01 71.99 46.81C76.57 51.6 72.75 66.17 60.15 66.55Z" fill="#FDFDFE"/>
<path d="M30.8599 53.37C30.8599 53.37 35.7199 63.4099 39.8699 63.4099C43.0599 63.4099 47.0399 61.78 47.0399 61.78C47.0399 61.78 48.7299 45.06 39.4999 44.52C35.3499 44.28 30.8499 53.37 30.8499 53.37" fill="#EDEDED"/>
<path d="M71.7799 53.37C71.7799 53.37 66.9199 63.4099 62.7599 63.4099C59.5699 63.4099 55.5999 61.78 55.5999 61.78C55.5999 61.78 53.9099 45.06 63.1299 44.52C67.2899 44.28 71.7799 53.37 71.7799 53.37Z" fill="#EDEDED"/>
<path d="M35.3599 46.7199C35.3599 46.7199 35.3699 46.68 35.4099 46.61C35.4499 46.54 35.4999 46.43 35.5799 46.32C35.6599 46.19 35.7599 46.05 35.8899 45.89C36.0299 45.74 36.1799 45.56 36.3799 45.4C36.4699 45.32 36.5799 45.23 36.6899 45.14C36.8099 45.06 36.9299 44.98 37.0399 44.9C37.1599 44.81 37.2999 44.75 37.4399 44.68C37.5799 44.61 37.7199 44.53 37.8799 44.48C38.1899 44.37 38.5099 44.26 38.8599 44.21C39.1999 44.13 39.5599 44.14 39.9199 44.14C40.2799 44.14 40.6198 44.22 40.9698 44.28C41.2998 44.38 41.6199 44.49 41.9199 44.62C42.1999 44.77 42.4799 44.93 42.7299 45.08C42.9699 45.25 43.1699 45.4399 43.3599 45.5999C43.4499 45.6799 43.5399 45.76 43.6199 45.84C43.6999 45.92 43.7599 46.01 43.8299 46.09C43.9599 46.25 44.0599 46.39 44.1499 46.51C44.3199 46.75 44.3999 46.89 44.3999 46.89C44.3999 46.89 44.2298 46.84 43.9698 46.73C43.8398 46.67 43.6799 46.61 43.5099 46.53C43.3399 46.44 43.1399 46.37 42.9199 46.29C42.6999 46.21 42.4799 46.11 42.2399 46.02C41.9899 45.95 41.7399 45.87 41.4899 45.78C41.2299 45.72 40.9599 45.67 40.6899 45.61C40.5499 45.6 40.4199 45.59 40.2799 45.57C40.1399 45.56 40.0099 45.53 39.8699 45.54C39.5999 45.54 39.3199 45.52 39.0499 45.56C38.9199 45.58 38.7799 45.5699 38.6499 45.5999C38.5199 45.6199 38.3899 45.65 38.2599 45.67C38.1299 45.68 37.9999 45.73 37.8799 45.76C37.7499 45.79 37.6299 45.82 37.5099 45.86C37.2699 45.93 37.0399 46 36.8299 46.09C36.6199 46.16 36.4299 46.25 36.2399 46.32C36.0699 46.4 35.9099 46.46 35.7899 46.53C35.6599 46.59 35.5599 46.64 35.4899 46.67C35.4199 46.71 35.3799 46.7199 35.3799 46.7199H35.3599Z" fill="#565656"/>
<path d="M67.1399 46.72C67.1399 46.72 67.0999 46.7 67.0299 46.67C66.9599 46.64 66.8599 46.59 66.7299 46.53C66.6099 46.47 66.4499 46.41 66.2799 46.32C66.0999 46.25 65.9099 46.17 65.6899 46.09C65.4799 46.01 65.2499 45.94 65.0099 45.86C64.8899 45.82 64.7699 45.79 64.6399 45.76C64.5099 45.74 64.3899 45.69 64.2599 45.67C64.1299 45.65 63.9999 45.62 63.8599 45.6C63.7299 45.57 63.5899 45.58 63.4599 45.56C63.1899 45.52 62.9099 45.54 62.6399 45.54C62.4999 45.53 62.3599 45.56 62.2299 45.57C62.0899 45.59 61.9599 45.6 61.8199 45.61C61.5499 45.68 61.2899 45.73 61.0199 45.78C60.7699 45.87 60.5099 45.95 60.2699 46.02C60.0299 46.1 59.8099 46.21 59.5899 46.29C59.3799 46.37 59.1699 46.44 58.9999 46.53C58.8299 46.61 58.6699 46.68 58.5399 46.73C58.2799 46.84 58.1099 46.89 58.1099 46.89C58.1099 46.89 58.1899 46.75 58.3599 46.51C58.4399 46.39 58.5499 46.25 58.6799 46.09C58.7499 46.01 58.8099 45.92 58.8899 45.84C58.9699 45.76 59.0599 45.68 59.1499 45.6C59.3399 45.43 59.5399 45.25 59.7799 45.08C60.0299 44.93 60.2999 44.77 60.5899 44.62C60.8899 44.49 61.2099 44.38 61.5399 44.28C61.8799 44.22 62.2299 44.14 62.5899 44.14C62.9499 44.14 63.3099 44.14 63.6499 44.21C63.9999 44.26 64.3199 44.37 64.6299 44.48C64.7799 44.53 64.9299 44.61 65.0699 44.68C65.2099 44.75 65.3498 44.81 65.4698 44.9C65.5898 44.98 65.7099 45.06 65.8299 45.14C65.9399 45.22 66.0399 45.31 66.1399 45.4C66.3399 45.56 66.4799 45.74 66.6299 45.89C66.7599 46.05 66.8699 46.19 66.9499 46.32C67.0299 46.44 67.0799 46.55 67.1199 46.61C67.1599 46.68 67.1699 46.72 67.1699 46.72H67.1399Z" fill="#565656"/>
<path d="M47.0498 61.78C39.3898 65.43 33.9998 63.07 31.5698 53.61C31.5698 53.61 40.7798 46.46 45.6698 55.63C46.4298 57.05 47.0498 61.78 47.0498 61.78Z" fill="white"/>
<path d="M39.6399 62.38C37.5099 62.33 35.7299 60.65 35.0499 58.31C34.8399 57.6 34.7299 56.82 34.7499 56.01C34.8199 52.75 36.8499 51.59 39.3999 51.51C39.5599 51.51 39.7199 51.51 39.8799 51.51C42.6499 51.57 44.7599 54.46 44.8099 56.22C44.8999 59.68 42.4299 62.44 39.6499 62.38" fill="#32C5F4"/>
<path d="M39.6599 61.51C38.0499 61.47 36.6299 60.09 36.0599 57.99C35.8699 57.32 35.7899 56.62 35.7999 55.89C35.8499 53.46 36.9999 52.29 39.4199 52.22C39.5399 52.22 39.6599 52.22 39.7799 52.22H39.8499C42.0399 52.27 43.6999 54.82 43.7399 56.13C43.7799 57.71 43.2499 59.22 42.2899 60.27C41.5599 61.07 40.6399 61.51 39.7199 61.51H39.6599Z" fill="#203F7C"/>
<path d="M55.5999 61.78C63.2599 65.43 68.6499 63.07 71.0799 53.61C71.0799 53.61 61.8699 46.46 56.9799 55.63C56.2199 57.05 55.6099 61.78 55.6099 61.78" fill="white"/>
<path d="M62.9999 62.38C65.1299 62.33 66.9098 60.65 67.5998 58.31C67.8098 57.6 67.9199 56.82 67.8999 56.01C67.8299 52.75 65.8099 51.59 63.2499 51.51C63.0899 51.51 62.9299 51.51 62.7799 51.51C59.9999 51.57 57.8998 54.46 57.8498 56.22C57.7498 59.68 60.2299 62.44 62.9999 62.38Z" fill="#32C5F4"/>
<path d="M62.9098 61.51C61.9898 61.51 61.0798 61.07 60.3398 60.27C59.3798 59.22 58.8498 57.71 58.8898 56.13C58.9298 54.82 60.5898 52.27 62.7898 52.22H62.8498C62.9698 52.22 63.0898 52.22 63.2198 52.22C65.6398 52.3 66.7898 53.46 66.8398 55.89C66.8598 56.61 66.7698 57.32 66.5798 57.99C65.9998 60.09 64.5898 61.47 62.9698 61.51H62.9098Z" fill="#203F7C"/>
<path d="M39.9799 54.71C39.9299 56.8 38.5399 58.48 36.8499 58.44C36.0899 58.43 35.41 58.06 34.88 57.48C34.7 56.86 34.6 56.18 34.62 55.47C34.68 52.61 36.45 51.6 38.69 51.53C39.5 52.23 40.0099 53.4 39.9799 54.72" fill="white"/>
<path d="M42.62 60.77C42.6 61.48 42.13 62.05 41.56 62.04C40.99 62.03 40.54 61.44 40.55 60.73C40.57 60.02 41.04 59.46 41.61 59.47C42.18 59.48 42.63 60.07 42.62 60.78V60.77Z" fill="white"/>
<path d="M62.8698 55.03C62.8198 57.13 61.4298 58.8 59.7398 58.76C58.9798 58.75 58.2999 58.38 57.7699 57.8C57.5899 57.18 57.4898 56.5 57.5098 55.79C57.5698 52.93 59.3499 51.92 61.5799 51.85C62.3899 52.55 62.8998 53.72 62.8698 55.04" fill="white"/>
<path d="M65.72 60.77C65.7 61.48 65.23 62.05 64.66 62.04C64.09 62.03 63.6401 61.44 63.6501 60.73C63.6601 60.02 64.1401 59.46 64.7101 59.47C65.2801 59.48 65.73 60.07 65.72 60.78V60.77Z" fill="white"/>
<path d="M47.0498 61.78C47.0498 61.78 46.4298 57.05 45.6698 55.63C43.7598 52.05 41.1898 50.95 38.7698 50.95C38.6398 50.95 38.5098 50.95 38.3698 50.96C38.4998 50.96 38.6298 50.95 38.7698 50.95C41.1998 50.95 43.7698 52.04 45.6798 55.63C46.4198 57.04 47.0298 61.64 47.0498 61.78Z" fill="#D6D6D6"/>
<path d="M45.6698 62.38C45.4198 61.03 45.0798 59.52 44.7098 58.81C44.6398 58.68 44.5698 58.55 44.4998 58.43C44.7098 57.74 44.8298 57 44.8098 56.22C44.7598 54.45 42.6498 51.57 39.8798 51.51H39.8198C39.6798 51.51 39.5398 51.51 39.4098 51.51C39.1898 51.51 38.9598 51.53 38.7498 51.56C38.7398 51.55 38.7198 51.54 38.7098 51.52C36.6998 51.58 35.0498 52.41 34.7098 54.67C33.7598 54.98 32.9098 55.39 32.2398 55.76C32.1598 55.55 32.0898 55.33 32.0198 55.12C31.8698 54.64 31.7198 54.13 31.5898 53.6C31.6398 53.56 34.8098 51.13 38.3898 50.96C38.5198 50.96 38.6498 50.95 38.7898 50.95C41.2098 50.95 43.7798 52.04 45.6898 55.63C46.4498 57.05 47.0698 61.78 47.0698 61.78C46.5998 62 46.1398 62.21 45.6898 62.38" fill="#E2E1E1"/>
<path d="M44.49 58.44C44.23 57.99 43.96 57.58 43.68 57.21C43.73 56.86 43.75 56.49 43.74 56.13C43.7 54.82 42.04 52.27 39.85 52.22H39.78C39.66 52.22 39.54 52.22 39.42 52.22C39.38 52.22 39.33 52.22 39.29 52.22C39.12 51.97 38.93 51.75 38.72 51.56C38.94 51.54 39.16 51.52 39.38 51.51C39.52 51.51 39.65 51.51 39.79 51.51H39.85C42.62 51.57 44.73 54.46 44.78 56.22C44.8 57 44.69 57.75 44.47 58.43" fill="#45B5D9"/>
<path d="M43.6801 57.21C42.5601 55.72 41.28 54.88 39.97 54.47C39.95 53.62 39.7 52.85 39.29 52.23C39.33 52.23 39.38 52.23 39.42 52.23C39.54 52.23 39.6601 52.23 39.7801 52.23H39.85C42.04 52.28 43.7001 54.83 43.7401 56.14C43.7501 56.51 43.7301 56.87 43.6801 57.22" fill="#274278"/>
<path d="M34.6799 54.67C35.0299 52.41 36.6699 51.58 38.6799 51.52C38.6899 51.53 38.7099 51.54 38.7199 51.56C38.9299 51.75 39.1199 51.97 39.2899 52.22C39.6999 52.84 39.9499 53.61 39.9699 54.46C39.2499 54.23 38.5099 54.13 37.7899 54.13C36.6999 54.13 35.6299 54.35 34.6799 54.67Z" fill="#E2E1E1"/>
<path d="M56.9698 62.38C56.5198 62.2 56.0598 62 55.5898 61.78C56.0598 62 56.5098 62.2 56.9698 62.38Z" fill="#E2E1E1"/>
<path d="M55.5999 61.78C55.6199 61.64 56.2298 57.03 56.9698 55.63C57.1998 55.19 57.4399 54.79 57.6899 54.43C57.4399 54.79 57.1998 55.19 56.9698 55.62C56.2098 57.04 55.5999 61.77 55.5999 61.77" fill="#D6D6D6"/>
<path d="M56.9698 62.38C56.5198 62.2 56.0598 62 55.5898 61.78C55.5898 61.78 56.2098 57.05 56.9598 55.63C57.1898 55.2 57.4298 54.8 57.6798 54.44C57.5698 54.83 57.4998 55.28 57.4898 55.79C57.4798 56.5 57.5698 57.18 57.7498 57.8C57.8398 57.9 57.9298 57.99 58.0198 58.07C58.0498 58.2 58.0898 58.32 58.1298 58.44C58.0598 58.56 57.9898 58.69 57.9198 58.82C57.5498 59.52 57.2098 61.03 56.9598 62.39" fill="#E2E1E1"/>
<path d="M58.1501 58.44C58.1101 58.32 58.08 58.19 58.04 58.07C58.11 58.13 58.1801 58.19 58.2601 58.25C58.2201 58.32 58.1801 58.38 58.1401 58.45" fill="#45B5D9"/>
<path d="M70.62 55.19C70.78 54.69 70.93 54.16 71.07 53.6C70.93 54.15 70.77 54.68 70.61 55.19M60.02 52.08C61.26 51.26 62.59 50.95 63.88 50.95C64.01 50.95 64.15 50.95 64.28 50.96C64.15 50.96 64.02 50.95 63.88 50.95C62.6 50.95 61.27 51.26 60.03 52.07" fill="#D6D6D6"/>
<path d="M70.43 55.76C69.7 55.36 68.76 54.92 67.72 54.59C67.17 52.4 65.4 51.57 63.25 51.51C63.11 51.51 62.98 51.51 62.84 51.51H62.78C62.21 51.52 61.67 51.65 61.17 51.87C60.77 51.91 60.39 51.98 60.03 52.08C61.28 51.26 62.6 50.96 63.88 50.96C64.01 50.96 64.15 50.96 64.28 50.97C67.87 51.14 71.03 53.58 71.08 53.61C70.94 54.16 70.79 54.69 70.63 55.2C70.57 55.39 70.5 55.59 70.44 55.77" fill="#E2E1E1"/>
<path d="M67.7199 54.6C67.3599 54.49 66.9899 54.39 66.5999 54.32C66.1499 52.96 65.0399 52.28 63.2199 52.22C63.0999 52.22 62.9799 52.22 62.8499 52.22H62.7899C62.5299 52.22 62.28 52.27 62.03 52.34C61.89 52.16 61.7399 52 61.5699 51.85C61.4299 51.85 61.2899 51.86 61.1599 51.87C61.6599 51.66 62.2 51.53 62.77 51.51H62.83C62.97 51.51 63.0999 51.51 63.2399 51.51C65.3799 51.57 67.16 52.4 67.71 54.59" fill="#45B5D9"/>
<path d="M62.84 54.41C62.76 53.61 62.46 52.88 62.03 52.33C62.28 52.26 62.53 52.22 62.79 52.21H62.85C62.97 52.21 63.09 52.21 63.22 52.21C65.04 52.27 66.15 52.94 66.6 54.31C66.03 54.2 65.44 54.13 64.85 54.13C64.19 54.13 63.51 54.21 62.85 54.4" fill="#274278"/>
<path d="M58.2598 58.24C58.1798 58.19 58.1098 58.13 58.0398 58.06C57.9498 57.98 57.8599 57.89 57.7699 57.79C57.5899 57.17 57.4898 56.49 57.5098 55.78C57.5198 55.27 57.5899 54.83 57.6999 54.43C58.4199 53.39 59.1999 52.62 60.0199 52.08C60.3799 51.97 60.7598 51.9 61.1598 51.87C61.2998 51.86 61.4298 51.85 61.5698 51.85C61.7398 51.99 61.8899 52.16 62.0299 52.34C62.4599 52.9 62.7499 53.62 62.8399 54.42C61.1999 54.89 59.5898 56.03 58.2598 58.25" fill="#E2E1E1"/>
<path d="M47.0499 61.78C46.9499 61.31 46.8499 60.85 46.7399 60.38C46.6399 59.92 46.5399 59.45 46.4199 58.98C46.3099 58.52 46.1899 58.06 46.0499 57.61C45.9199 57.14 45.7699 56.73 45.5999 56.3C45.4999 56.1 45.4099 55.83 45.2999 55.68L44.9299 55.09C44.6599 54.71 44.3999 54.33 44.0899 54C43.9399 53.82 43.7899 53.66 43.6199 53.5C43.4599 53.34 43.2999 53.18 43.1199 53.05C42.9499 52.91 42.7799 52.76 42.5899 52.65C42.4099 52.52 42.2199 52.4 42.0199 52.3C41.6399 52.08 41.2199 51.93 40.7999 51.79C40.3799 51.66 39.9399 51.58 39.4999 51.54C39.0599 51.51 38.6099 51.5 38.1699 51.55C37.7299 51.58 37.2799 51.67 36.8399 51.77C35.9599 51.98 35.0999 52.29 34.2699 52.69C33.8599 52.89 33.4499 53.1 33.0599 53.34C32.6699 53.58 32.2699 53.83 31.9299 54.09L32.1399 53.46L32.4899 54.7C32.5999 55.12 32.7599 55.51 32.8999 55.92C33.0399 56.32 33.1899 56.73 33.3699 57.11C33.5499 57.49 33.6899 57.9 33.9199 58.26C34.1299 58.62 34.2999 59.02 34.5599 59.35C34.8099 59.68 35.0099 60.06 35.3099 60.35C35.5899 60.66 35.8499 60.99 36.1799 61.24L36.6499 61.65L37.1699 61.98C37.4999 62.23 37.8899 62.37 38.2699 62.55C38.6499 62.72 39.0599 62.79 39.4599 62.92C39.8699 62.97 40.2899 63.06 40.7099 63.07C41.1299 63.06 41.5599 63.11 41.9899 63.05C42.4199 63 42.8499 63 43.2699 62.9C43.6899 62.8 44.1299 62.76 44.5399 62.62C44.9499 62.49 45.3799 62.39 45.7899 62.24L47.0399 61.79L47.0499 61.78ZM47.0499 61.78L45.8799 62.39C45.4899 62.59 45.0599 62.73 44.6499 62.91C44.2399 63.1 43.7999 63.18 43.3799 63.32C42.9599 63.47 42.5099 63.52 42.0699 63.62C41.6299 63.73 41.1698 63.7 40.7198 63.75C40.2698 63.76 39.8099 63.71 39.3499 63.68C38.8999 63.57 38.4299 63.52 37.9999 63.35C37.5699 63.18 37.1198 63.04 36.7198 62.78L36.1199 62.43L35.5699 62C35.1799 61.73 34.8799 61.38 34.5499 61.05C34.2099 60.73 33.9699 60.33 33.6899 59.97C33.3899 59.61 33.1999 59.2 32.9599 58.81C32.7099 58.42 32.5399 58 32.3399 57.6C32.1399 57.19 31.9699 56.77 31.8199 56.34C31.6699 55.92 31.4899 55.5 31.3799 55.06L30.9999 53.77L30.8899 53.39L31.2198 53.14C31.6398 52.82 32.0399 52.56 32.4799 52.31C32.9099 52.06 33.3499 51.83 33.7999 51.62C34.6999 51.2 35.6399 50.86 36.6199 50.64C37.1099 50.53 37.6099 50.46 38.1199 50.44C38.6299 50.4 39.1399 50.43 39.6499 50.48C40.1599 50.55 40.6699 50.65 41.1499 50.82C41.3899 50.91 41.6399 50.99 41.8699 51.11C42.0999 51.22 42.3299 51.34 42.5499 51.48C42.7699 51.61 42.9799 51.75 43.1799 51.91C43.3899 52.05 43.5799 52.23 43.7599 52.4C43.9499 52.57 44.1199 52.75 44.2899 52.93C44.4599 53.11 44.6299 53.3 44.7699 53.5C45.0799 53.89 45.3299 54.32 45.5899 54.74L45.9299 55.39C46.0699 55.66 46.1099 55.85 46.2099 56.08C46.3499 56.55 46.4799 57.06 46.5499 57.52C46.6399 57.99 46.7199 58.47 46.7799 58.94C46.9099 59.89 47.0199 60.85 47.0799 61.8L47.0499 61.78Z" fill="#101010"/>
<path d="M55.6 61.78C55.66 60.83 55.7601 59.87 55.9001 58.92C55.9601 58.45 56.0401 57.97 56.1301 57.5C56.2001 57.04 56.33 56.52 56.47 56.06C56.56 55.83 56.6101 55.63 56.7501 55.37L57.1 54.7199C57.35 54.2999 57.61 53.87 57.92 53.48C58.07 53.28 58.2301 53.0899 58.4001 52.9099C58.5701 52.7199 58.7401 52.54 58.9301 52.38C59.1101 52.21 59.3001 52.04 59.5101 51.89C59.7101 51.73 59.9201 51.58 60.1401 51.46C60.3501 51.32 60.5801 51.2 60.8101 51.09C61.0401 50.97 61.2801 50.89 61.5201 50.8C62.0101 50.63 62.5101 50.53 63.0201 50.46C63.5301 50.41 64.04 50.38 64.55 50.42C65.06 50.44 65.56 50.52 66.05 50.62C67.03 50.84 67.9801 51.1799 68.8801 51.5999C69.3301 51.8099 69.7701 52.0399 70.1901 52.2899C70.6201 52.5399 71.0201 52.81 71.4501 53.12L71.7801 53.37L71.67 53.75L71.29 55.0399C71.17 55.4799 71 55.89 70.85 56.32C70.7 56.75 70.5301 57.17 70.3301 57.58C70.1301 57.99 69.9601 58.4099 69.7101 58.7899C69.4601 59.1799 69.27 59.59 68.98 59.95C68.69 60.31 68.4601 60.71 68.1201 61.03C67.8001 61.36 67.49 61.71 67.11 61.98L66.5601 62.4099L65.9501 62.76C65.5601 63.02 65.1101 63.16 64.6801 63.33C64.2401 63.5 63.7701 63.5499 63.3301 63.6599C62.8701 63.6899 62.4101 63.74 61.9601 63.73C61.5101 63.69 61.05 63.7099 60.61 63.5999C60.17 63.4999 59.72 63.46 59.3 63.3C58.87 63.16 58.4401 63.07 58.0301 62.89C57.6201 62.71 57.19 62.57 56.8 62.37L55.6301 61.76L55.6 61.78ZM55.6 61.78L56.8401 62.23C57.2501 62.38 57.6801 62.48 58.0901 62.61C58.5001 62.75 58.94 62.79 59.36 62.89C59.78 63 60.2201 62.9899 60.6401 63.0399C61.0701 63.0999 61.49 63.04 61.92 63.06C62.34 63.04 62.76 62.9599 63.17 62.9099C63.57 62.7799 63.98 62.7099 64.35 62.5399C64.73 62.3599 65.1201 62.2199 65.4501 61.9699L65.97 61.64L66.4401 61.23C66.7701 60.98 67.0301 60.65 67.3101 60.34C67.6101 60.05 67.8101 59.67 68.0601 59.34C68.3201 59.01 68.4901 58.61 68.7001 58.25C68.9301 57.89 69.0701 57.4899 69.2401 57.0999C69.4301 56.7199 69.5701 56.3199 69.7101 55.9099C69.8501 55.5099 70.0101 55.11 70.1201 54.69L70.48 53.45L70.6901 54.08C70.3501 53.83 69.94 53.57 69.55 53.33C69.16 53.09 68.7501 52.88 68.3401 52.68C67.5101 52.28 66.6501 51.96 65.7701 51.76C65.3301 51.66 64.8901 51.5699 64.4401 51.5399C64.0001 51.4899 63.55 51.5 63.11 51.53C62.67 51.57 62.2301 51.65 61.8101 51.78C61.3901 51.91 60.9701 52.0599 60.5901 52.2899C60.3901 52.3899 60.2001 52.51 60.0201 52.64C59.8301 52.76 59.65 52.8999 59.48 53.0399C59.3 53.1799 59.14 53.34 58.98 53.49C58.81 53.64 58.6601 53.81 58.5101 53.99C58.2001 54.33 57.93 54.7 57.67 55.08L57.3 55.67C57.2 55.82 57.1001 56.0799 57.0001 56.2899C56.8301 56.7299 56.6801 57.1299 56.5601 57.5999C56.4201 58.0499 56.3001 58.5099 56.1901 58.9699C56.0701 59.4299 55.9701 59.9 55.8701 60.37C55.7601 60.84 55.6601 61.3 55.5601 61.77L55.6 61.78Z" fill="#101010"/>
<path d="M60.21 71.69C60.21 74.01 54.6099 76.5 51.3799 76.5C48.1499 76.5 42.1699 74.01 42.1699 71.69C42.1699 69.37 48.17 62.67 51.4 62.67C54.63 62.67 60.21 69.37 60.21 71.69Z" fill="#FDFDFE"/>
<path d="M51.17 68.32C51.1 68.48 50.7801 68.49 50.4501 68.34C50.1301 68.2 49.92 67.95 49.99 67.79C50.06 67.64 50.3801 67.62 50.7101 67.77C51.0401 67.91 51.24 68.16 51.17 68.32Z" fill="#010101"/>
<path d="M51.5501 68.32C51.6201 68.48 51.9401 68.49 52.2701 68.34C52.5901 68.2 52.8001 67.95 52.7301 67.79C52.6601 67.64 52.3401 67.62 52.0101 67.77C51.6801 67.91 51.4801 68.16 51.5501 68.32Z" fill="#010101"/>
<path d="M52.27 65.91C51.92 65.8 51.7099 65.81 51.3699 65.81V65.91L51.3499 65.81C51.0199 65.81 50.82 65.81 50.46 65.92C49.8 66.12 49.3499 66.9 49.4899 67.6C49.5399 67.87 49.86 68.28 50.19 68.28C50.38 68.28 50.4799 68.15 50.5499 68.07L50.59 68.01C50.59 68.01 50.66 68.06 50.82 68.37C50.88 68.5 50.91 68.59 50.94 68.67C51.01 68.89 51.07 68.94 51.38 68.94C51.68 68.94 51.73 68.88 51.81 68.67C51.83 68.6 51.8699 68.5 51.9299 68.37C52.0799 68.06 52.14 68.01 52.14 68.01L52.2 68.08C52.27 68.16 52.37 68.29 52.56 68.29C52.88 68.29 53.2 67.89 53.26 67.61C53.4 66.91 52.9499 66.13 52.2899 65.93" fill="#262626"/>
<path d="M51.3599 67.22C50.9599 67.22 49.95 67.17 49.95 66.84C49.95 66.02 50.9599 65.97 51.3499 65.97C51.7399 65.97 52.7299 65.99 52.7299 66.84C52.7299 67.17 51.7499 67.22 51.3599 67.22Z" fill="#797575"/>
<path d="M51.2 38.76C51.5 38.77 52.19 38.55 52.8 39.36C53.4 40.18 53.4899 40.89 53.5399 41.88C53.5899 42.88 53.8199 44.81 53.5399 45.3C53.2699 45.8 53.54 45.9 53.28 47.01C53.02 48.11 52.77 49.69 52.73 50.54C52.69 51.39 52.77 51.21 52.69 52.25C52.62 53.28 52.29 55.3901 52.54 55.7801C52.79 56.1701 52.83 58.54 52.76 58.93C52.69 59.32 51.63 62.01 51.2 62.06C50.77 62.11 49.76 59.53 49.76 58.93C49.76 58.33 49.59 56.7301 49.81 56.0201C50.02 55.3101 50.17 55.93 50.17 54.5C50.17 53.07 50.5 50.11 50.11 49.95C49.71 49.79 50.1799 48.97 49.6599 47.66C49.1399 46.35 49 42.89 48.93 41.89C48.86 40.9 49.62 38.69 51.21 38.76H51.2Z" fill="#FDFDFE"/>
<path d="M54.34 70.66C53.97 71.01 53.05 71.61 51.37 71.61C49.69 71.61 48.84 70.88 48.5 70.67C48.2 70.49 48.28 70.58 48.62 70.67C48.89 70.74 49.34 70.81 49.89 70.74C50.66 70.64 51.37 70.1 51.37 70.1C51.37 70.1 52 70.61 52.78 70.74C53.5 70.86 53.98 70.76 54.23 70.67C54.52 70.57 54.54 70.47 54.34 70.66Z" fill="#C1C1C0"/>
<path d="M51.3701 71.61C49.7001 71.61 48.8401 70.88 48.5001 70.67C48.3801 70.6 48.3201 70.57 48.3101 70.57C48.3201 70.57 48.43 70.62 48.61 70.67C48.8 70.72 49.0801 70.77 49.4301 70.77C49.5701 70.77 49.7301 70.77 49.8901 70.74C50.6601 70.64 51.3701 70.1 51.3701 70.1C51.3701 70.1 52.0001 70.61 52.7801 70.74C53.0201 70.78 53.2401 70.8 53.4301 70.8C53.8001 70.8 54.0701 70.74 54.2401 70.68C54.3201 70.65 54.38 70.62 54.42 70.6C54.4 70.61 54.38 70.64 54.35 70.66C53.98 71.01 53.0601 71.61 51.3801 71.61" fill="#AFB0B0"/>
<path d="M54.4099 70.6L54.4699 70.56C54.4699 70.56 54.4499 70.58 54.4099 70.6Z" fill="#AFB0B0"/>
<path d="M54.8498 69.19C54.7998 69.26 55.4498 69.71 54.4698 70.39C54.1298 70.62 53.8398 70.75 53.3098 70.72C53.0398 70.7 52.7698 70.66 52.5298 70.58C52.2898 70.51 52.0798 70.4 51.9198 70.29C51.8398 70.23 51.7698 70.18 51.7098 70.12C51.6498 70.07 51.5998 70.01 51.5698 69.98C51.5098 69.9 51.4698 69.86 51.4598 69.85L51.4898 68.91H51.2398L51.2598 69.85C51.2598 69.85 51.2198 69.9 51.1498 69.98C51.1098 70.02 51.0698 70.07 51.0098 70.12C50.9498 70.17 50.8798 70.23 50.7998 70.29C50.6298 70.4 50.4298 70.5 50.1898 70.58C49.9498 70.65 49.6798 70.7 49.4098 70.72C48.8698 70.75 48.5798 70.62 48.2498 70.39C47.2698 69.72 47.9198 69.26 47.8698 69.19C47.8198 69.12 47.3398 69.52 47.3798 69.59C47.4298 69.66 47.6498 70.08 47.7198 70.15C48.6898 71.22 49.9798 70.82 50.2298 70.76C50.4898 70.7 50.7298 70.6 50.9098 70.49C51.0098 70.43 51.0898 70.38 51.1598 70.32C51.2298 70.27 51.2898 70.21 51.3398 70.17L51.3598 70.15L51.3798 70.17C51.3798 70.17 51.4798 70.27 51.5598 70.32C51.6298 70.38 51.7098 70.44 51.7998 70.49C51.9898 70.6 52.2298 70.7 52.4898 70.76C52.7498 70.82 54.0298 71.22 54.9998 70.15C55.0698 70.07 55.2998 69.66 55.3398 69.59C55.3898 69.52 54.8998 69.13 54.8498 69.19Z" fill="#231F20"/>
<path d="M38.8498 33.51C39.5598 34.41 40.6098 38.64 47.2898 37.3C51.1298 36.54 54.5798 37.27 55.0298 38.07C55.4798 38.87 54.6898 40.03 54.6898 40.03C54.6898 40.03 56.3198 39.29 56.8298 38.35C57.6098 36.94 57.0098 34.97 56.3698 34.24L57.1998 34.61C57.7698 35.31 60.0098 34.72 60.0698 34.71C60.5098 34.61 61.7498 34.21 63.4598 34.41C65.1698 34.61 66.6098 36.67 66.6098 36.67C66.6098 36.67 65.6598 32.02 62.0698 29.59C61.2698 29.05 58.1698 27.99 56.5898 28.66C54.6298 29.49 52.0798 29.52 52.0798 29.52C52.0798 29.52 55.1998 28.67 56.3598 27.33C58.4198 24.94 62.2598 24.64 62.2598 24.64C62.2598 24.64 60.0398 23.79 57.2198 23.84C54.3998 23.9 51.2498 24.15 48.4298 25.8C46.3098 27.04 45.3098 28.36 45.3098 28.36L47.1598 24.39C47.1598 24.39 45.6498 24.47 43.1698 25.8C40.0398 27.48 39.5198 29.83 38.8198 32.63V33.52L38.8498 33.51Z" fill="#FDFDFE"/>
<path d="M33.8799 38.74C31.9199 40.69 30.1099 42.9 29.6199 42.54C29.6199 42.54 29.0399 40.09 27.8199 38.29C27.5399 37.88 27.2899 37.48 27.0899 37.11C26.1199 34.54 27.4499 33.2 29.1799 32.69C32.1599 31.82 33.7299 33.9 33.8799 38.74Z" fill="#E48F8C"/>
<path d="M68.72 38.74C70.68 40.69 72.53 42.9 73.01 42.54C73.01 42.54 73.59 40.09 74.81 38.29C75.1 37.88 75.34 37.48 75.54 37.11C76.51 34.54 75.18 33.2 73.46 32.69C70.48 31.82 68.87 33.9 68.72 38.74Z" fill="#E48F8C"/>
</svg>
