<svg width="102" height="102" viewBox="0 0 102 102" fill="none" xmlns="http://www.w3.org/2000/svg">
<path d="M92.8899 0.419983H9.29987C4.51156 0.419983 0.629883 4.30172 0.629883 9.09003V92.68C0.629883 97.4683 4.51156 101.35 9.29987 101.35H92.8899C97.6782 101.35 101.56 97.4683 101.56 92.68V9.09003C101.56 4.30172 97.6782 0.419983 92.8899 0.419983Z" fill="#24B999"/>
<path d="M51.0998 72.75C51.0498 72.75 50.9898 72.75 50.9398 72.75H50.8998C42.9298 72.64 27.1698 65.41 25.7198 55.4C25.6498 54.93 25.6098 54.43 25.6098 53.93C25.6098 51.56 25.9098 49.22 26.4898 46.96C24.9798 44.96 23.7698 41.84 21.5498 34.37C21.5398 34.33 21.5298 34.31 21.5198 34.29C21.2798 33.62 21.6098 32.88 22.2698 32.6C22.4398 32.53 22.6198 32.49 22.7998 32.49C23.0198 32.49 23.2298 32.54 23.4198 32.64C23.6698 32.76 23.8698 32.96 24.0098 33.22C24.0498 33.29 24.1098 33.37 24.1898 33.45C24.1898 33.45 24.1998 33.45 24.1998 33.46C24.3698 33.61 24.7098 33.85 25.3598 34.08C25.4998 34.13 25.6399 34.17 25.7799 34.21L25.4498 35.52L25.8198 34.22C25.9598 34.26 26.1098 34.3 26.2598 34.33C26.2598 34.33 26.2798 34.33 26.2898 34.33C26.6098 34.4 26.9498 34.47 27.3098 34.52C27.3098 34.52 27.3098 34.52 27.3198 34.52C27.5098 34.55 27.6699 34.57 27.8399 34.59H27.9498C28.0998 34.62 28.2398 34.64 28.3798 34.65H28.5098C28.6598 34.68 28.8198 34.69 28.9698 34.7H29.0498C29.4198 34.73 29.7898 34.75 30.1498 34.77C30.3598 34.77 30.5298 34.78 30.7098 34.79C30.9898 34.79 31.2498 34.79 31.5098 34.79C32.3898 34.79 33.1298 34.76 33.5698 34.74C34.3698 34.01 36.5598 32.18 39.6298 31.14C43.7198 29.75 47.1098 29.1 50.6298 29.01C50.6898 29.01 50.8899 29 51.0299 29H51.1698C51.3098 29 51.5098 29 51.5698 29.01C55.0898 29.1 58.4798 29.76 62.5698 31.14C65.6398 32.18 67.8298 34.01 68.6298 34.74C69.0698 34.76 69.7998 34.79 70.6798 34.79C70.9398 34.79 71.2198 34.79 71.4998 34.79C71.6498 34.79 71.8098 34.79 71.9698 34.78H72.0498C72.2298 34.78 72.3998 34.77 72.5698 34.76C72.7698 34.75 72.9398 34.74 73.1098 34.73L73.3098 34.71C73.4198 34.71 73.5298 34.69 73.6298 34.68L73.8598 34.66C73.9598 34.65 74.0598 34.64 74.1598 34.63L74.3798 34.6C74.4898 34.59 74.5898 34.57 74.6998 34.56L74.8898 34.53C75.0598 34.5 75.2198 34.48 75.3798 34.45L75.4898 34.43C75.6198 34.4 75.7398 34.38 75.8498 34.35L76.0098 34.31C76.1098 34.29 76.2098 34.26 76.2998 34.24L76.4598 34.19C76.5498 34.16 76.6398 34.14 76.7298 34.11L76.8598 34.07C76.9598 34.03 77.0598 34 77.1598 33.96L77.2298 33.93C77.3298 33.89 77.4299 33.84 77.5299 33.79L77.5899 33.76C77.6599 33.72 77.7199 33.68 77.7799 33.64L77.8498 33.59C77.8898 33.56 77.9298 33.53 77.9698 33.5L78.0198 33.46C78.0198 33.46 78.0798 33.4 78.0998 33.37L78.1398 33.33C78.1398 33.33 78.1898 33.26 78.1898 33.25C78.4298 32.78 78.8998 32.51 79.3898 32.51C79.5598 32.51 79.7298 32.54 79.8898 32.61C80.5398 32.87 80.8798 33.58 80.6798 34.25C78.4298 41.8 77.2198 44.96 75.6998 46.97C76.2798 49.23 76.5698 51.57 76.5698 53.95C76.5698 54.29 76.5498 54.64 76.5198 54.97C76.5098 55.1 76.4898 55.22 76.4798 55.34C75.9098 59.8 72.5898 64.17 67.1498 67.63C62.3798 70.66 56.6299 72.58 51.7799 72.75C51.7799 72.75 51.4298 72.77 51.3998 72.77C51.3998 72.77 51.0898 72.77 51.0798 72.77L51.0998 72.75Z" fill="#2F150C"/>
<path d="M22.8298 33.93C25.1698 41.76 26.3597 44.79 27.9797 46.64C27.3497 48.86 26.9598 51.3 26.9598 53.92C26.9598 54.35 26.9897 54.77 27.0497 55.2C28.3497 64.19 43.0197 71.28 50.9097 71.39C50.9697 71.39 51.0298 71.39 51.0898 71.39H51.3898H51.3497C51.4797 71.39 51.6097 71.38 51.7397 71.37C60.8497 71.05 74.0098 64.01 75.1498 55.15C75.1598 55.04 75.1798 54.93 75.1898 54.82C75.2198 54.52 75.2297 54.22 75.2297 53.92C75.2297 51.29 74.8597 48.85 74.2197 46.63C75.8397 44.77 77.0398 41.73 79.3898 33.84C79.3398 33.95 79.2698 34.05 79.1998 34.14C79.1798 34.17 79.1498 34.2 79.1298 34.23C79.0698 34.3 79.0198 34.36 78.9498 34.42C78.9198 34.45 78.8797 34.48 78.8497 34.51C78.7797 34.57 78.7098 34.62 78.6398 34.68C78.5998 34.71 78.5698 34.73 78.5298 34.76C78.4398 34.82 78.3498 34.87 78.2498 34.93C78.2198 34.95 78.1897 34.96 78.1597 34.98C78.0297 35.05 77.8998 35.11 77.7498 35.18C77.7298 35.19 77.6997 35.2 77.6697 35.21C77.5497 35.26 77.4298 35.31 77.3098 35.35C77.2598 35.37 77.2098 35.39 77.1498 35.4C77.0498 35.43 76.9398 35.47 76.8298 35.5C76.7698 35.52 76.7098 35.54 76.6498 35.55C76.5398 35.58 76.4298 35.61 76.3198 35.63C76.2598 35.64 76.1998 35.66 76.1398 35.67C76.0098 35.7 75.8797 35.73 75.7397 35.75C75.6997 35.75 75.6597 35.77 75.6097 35.78C75.4397 35.81 75.2598 35.84 75.0898 35.87C75.0198 35.88 74.9498 35.89 74.8798 35.9C74.7698 35.92 74.6497 35.93 74.5397 35.95C74.4597 35.96 74.3797 35.97 74.2997 35.98C74.1897 35.99 74.0897 36 73.9797 36.02C73.8997 36.02 73.8197 36.04 73.7397 36.04C73.6297 36.05 73.5098 36.06 73.3998 36.07C73.3298 36.07 73.2598 36.08 73.1898 36.09C73.0098 36.1 72.8298 36.11 72.6498 36.12C72.6498 36.12 72.6298 36.12 72.6198 36.12C72.4398 36.12 72.2598 36.14 72.0798 36.14C72.0498 36.14 72.0197 36.14 71.9897 36.14C71.8297 36.14 71.6598 36.15 71.4998 36.15C69.5698 36.19 68.0598 36.08 68.0598 36.08L67.9598 36.02C67.9598 36.02 65.6697 33.65 62.1097 32.44C58.2597 31.14 54.9597 30.46 51.4897 30.38C51.4897 30.38 51.2298 30.37 51.0898 30.37H51.0397C50.8997 30.37 50.6398 30.38 50.6398 30.38C47.1798 30.47 43.8698 31.14 40.0198 32.44C36.4598 33.65 34.1697 36.02 34.1697 36.02L34.0698 36.08C34.0698 36.08 32.5698 36.19 30.6498 36.15C30.4698 36.15 30.2897 36.15 30.0997 36.13C30.0997 36.13 30.0798 36.13 30.0698 36.13C29.6898 36.12 29.2997 36.1 28.9097 36.07C28.8897 36.07 28.8598 36.07 28.8398 36.07C28.6798 36.06 28.5097 36.04 28.3497 36.03C28.3097 36.03 28.2597 36.03 28.2197 36.02C28.0697 36 27.9098 35.99 27.7598 35.97C27.7198 35.97 27.6798 35.97 27.6398 35.96C27.4598 35.94 27.2797 35.91 27.1097 35.89H27.0898C26.6998 35.83 26.3198 35.76 25.9498 35.67C25.9498 35.67 25.9297 35.67 25.9197 35.67C25.7497 35.63 25.5797 35.59 25.4197 35.54C25.3997 35.54 25.3898 35.54 25.3698 35.53C25.1998 35.48 25.0398 35.43 24.8898 35.38C24.2298 35.15 23.6698 34.86 23.2598 34.49C23.0598 34.3 22.8898 34.1 22.7798 33.87C22.7798 33.87 22.7798 33.88 22.7798 33.89C22.7798 33.89 22.7798 33.88 22.7698 33.87C22.7698 33.88 22.7897 33.91 22.7997 33.96L22.8298 33.93Z" fill="#2F150C"/>
<path d="M34.1598 37.18C34.1598 37.18 32.8998 40.3 31.4698 42.99C30.1798 45.43 28.7398 47.52 27.9698 46.63C26.3498 44.78 25.1498 41.73 22.7998 33.83C23.7298 35.65 27.7098 36.09 30.6898 36.15L34.1598 37.17V37.18Z" fill="#3F3D36"/>
<path d="M68.0398 37.18C68.0398 37.18 69.2998 40.3 70.7298 42.99C72.0198 45.43 73.4598 47.52 74.2298 46.63C75.8498 44.78 77.0498 41.73 79.3998 33.83C78.4698 35.65 74.4898 36.09 71.5098 36.15L68.0398 37.17V37.18Z" fill="#3F3D36"/>
<path d="M75.2397 53.92C75.2397 54.22 75.2298 54.52 75.1998 54.82C75.1898 54.93 75.1797 55.04 75.1597 55.15C73.9997 64.13 60.5198 71.24 51.3998 71.39C51.2998 71.39 51.1997 71.39 51.0997 71.39C43.2597 71.39 28.3698 64.25 27.0598 55.2C26.9998 54.78 26.9697 54.35 26.9697 53.92C26.9697 48.47 28.5998 43.81 30.7698 40.34C31.8598 38.6 33.0898 37.15 34.3198 36.05C34.4698 35.92 34.6098 35.79 34.7598 35.67C36.2198 34.47 37.9397 33.52 40.1697 32.83C42.5497 32.1 45.4898 31.66 49.2598 31.56C49.8498 31.54 50.4697 31.54 51.0997 31.54C59.0697 31.54 64.1598 33.04 67.4398 35.67C71.3098 38.78 75.2397 45.4 75.2397 53.92Z" fill="#7C4D2C"/>
<path d="M51.0997 71.4C47.5097 71.4 42.1598 69.46 37.7798 66.58C32.7498 63.27 29.5798 59.17 29.0698 55.32C29.0198 54.94 28.9897 54.56 28.9897 54.16C28.9897 46.45 34.4797 37.11 36.1697 35.6C37.5197 34.4 44.3097 31.54 51.0997 31.54C57.4997 31.54 64.5997 34.36 66.0397 35.62C67.7797 37.14 73.2098 46.48 73.2098 54.16C73.2098 54.44 73.1997 54.72 73.1797 54.99C73.1697 55.09 73.1598 55.2 73.1498 55.3C72.0998 64.27 59.2098 71.25 51.3698 71.39H51.4097H51.1097" fill="#975F39"/>
<path d="M61.9999 41.46C56.6899 41.46 52.2499 45.17 51.1299 50.14C50.0099 45.18 45.5699 41.46 40.2599 41.46C34.0999 41.46 29.1099 46.45 29.1099 52.61C29.1099 58.77 34.0999 63.76 40.2599 63.76C43.2099 63.76 45.8899 62.61 47.8899 60.74C48.3899 62.13 49.5199 63.27 49.8099 63.79C50.0199 64.17 51.1099 65.99 51.1099 65.99C51.1099 65.99 52.1999 64.18 52.4099 63.79C52.7099 63.25 53.9299 62.21 54.4099 60.79C56.3999 62.64 59.0599 63.77 61.9899 63.77C68.1399 63.77 73.1399 58.78 73.1399 52.62C73.1399 46.46 68.1499 41.47 61.9899 41.47" fill="#E2C5AA"/>
<path d="M63.34 61.39C61.13 61.39 59.0199 60.65 57.4099 59.31C56.6999 58.72 55.7799 58.41 54.8199 58.41C54.5099 58.41 54.2 58.44 53.89 58.51C52.64 58.79 51.6399 59.62 51.2299 60.71C51.2199 60.75 51.1999 60.79 51.1699 60.83C51.1299 60.75 51.0899 60.67 51.0599 60.59C50.6199 59.52 49.6099 58.72 48.3699 58.46C48.0799 58.4 47.7799 58.37 47.4899 58.37C46.5399 58.37 45.61 58.69 44.89 59.29C43.27 60.65 41.1499 61.4 38.9199 61.4C34.1099 61.4 30.1899 57.91 30.1899 53.63C30.1899 49.35 34.0999 45.86 38.9199 45.86C42.9599 45.86 46.5399 48.4 47.4299 51.91C47.8199 53.45 49.3599 57.58 51.1299 57.58C52.8999 57.58 54.44 53.45 54.83 51.91C55.72 48.41 59.3 45.86 63.34 45.86C68.15 45.86 72.0699 49.35 72.0699 53.63C72.0699 57.91 68.15 61.4 63.34 61.4" fill="#FFF8F3"/>
<path d="M35.7998 43.43C35.7998 43.43 35.8098 43.39 35.8498 43.33C35.8898 43.26 35.9298 43.16 36.0198 43.05C36.0898 42.93 36.1998 42.79 36.3198 42.64C36.4498 42.5 36.5898 42.32 36.7898 42.17C36.8798 42.09 36.9798 42.01 37.0798 41.93C37.1898 41.86 37.2998 41.78 37.4198 41.7C37.5298 41.62 37.6698 41.56 37.7998 41.49C37.9398 41.42 38.0698 41.35 38.2198 41.3C38.5198 41.2 38.8298 41.08 39.1598 41.04C39.4898 40.96 39.8398 40.9699 40.1798 40.9699C40.5198 40.9699 40.8598 41.05 41.1898 41.11C41.5098 41.21 41.8198 41.32 42.1098 41.43C42.3798 41.58 42.6398 41.73 42.8798 41.88C43.1098 42.04 43.3098 42.22 43.4898 42.38C43.5798 42.46 43.6598 42.54 43.7398 42.62C43.8098 42.7 43.8798 42.79 43.9398 42.86C44.0598 43.01 44.1598 43.15 44.2398 43.26C44.3998 43.49 44.4798 43.62 44.4798 43.62C44.4798 43.62 44.3198 43.57 44.0698 43.46C43.9498 43.41 43.7898 43.35 43.6298 43.26C43.4698 43.18 43.2698 43.1 43.0598 43.03C42.8498 42.96 42.6398 42.85 42.4098 42.77C42.1698 42.71 41.9298 42.63 41.6898 42.55C41.4398 42.5 41.1798 42.45 40.9298 42.38C40.7998 42.37 40.6698 42.36 40.5298 42.34C40.3998 42.33 40.2698 42.3 40.1298 42.31C39.8698 42.31 39.5998 42.29 39.3398 42.33C39.2098 42.35 39.0798 42.33 38.9498 42.37C38.8198 42.39 38.6998 42.42 38.5698 42.43C38.4398 42.44 38.3198 42.49 38.1998 42.52C38.0798 42.55 37.9598 42.57 37.8498 42.61C37.6198 42.68 37.3898 42.75 37.1898 42.83C36.9798 42.9 36.7998 42.99 36.6298 43.05C36.4698 43.13 36.3098 43.19 36.1898 43.25C36.0698 43.31 35.9698 43.35 35.9098 43.39C35.8398 43.42 35.8098 43.44 35.8098 43.44L35.7998 43.43Z" fill="#565656"/>
<path d="M66.3299 43.43C66.3299 43.43 66.2899 43.41 66.2299 43.38C66.1699 43.35 66.0699 43.3 65.9499 43.24C65.8299 43.18 65.6699 43.12 65.5099 43.04C65.3399 42.98 65.1599 42.89 64.9499 42.82C64.7499 42.74 64.5299 42.67 64.2899 42.6C64.1799 42.56 64.0599 42.54 63.9399 42.51C63.8199 42.49 63.6999 42.44 63.5699 42.42C63.4399 42.4 63.3199 42.38 63.1899 42.36C63.0699 42.33 62.9299 42.34 62.7999 42.32C62.5399 42.28 62.2799 42.3 62.0099 42.3C61.8799 42.29 61.7499 42.32 61.6099 42.33C61.4799 42.35 61.3499 42.36 61.2099 42.37C60.9599 42.43 60.6999 42.48 60.4399 42.54C60.1999 42.62 59.9498 42.7 59.7198 42.77C59.4898 42.85 59.2799 42.95 59.0699 43.02C58.8599 43.1 58.6599 43.17 58.4999 43.25C58.3399 43.33 58.1799 43.39 58.0599 43.45C57.8099 43.55 57.6499 43.61 57.6499 43.61C57.6499 43.61 57.7299 43.47 57.8899 43.25C57.9699 43.14 58.0699 43 58.1899 42.85C58.2499 42.78 58.3199 42.69 58.3899 42.61C58.4699 42.53 58.5599 42.46 58.6399 42.37C58.8199 42.21 59.0199 42.03 59.2499 41.87C59.4899 41.72 59.7499 41.57 60.0199 41.42C60.3099 41.3 60.6199 41.19 60.9399 41.1C61.2699 41.05 61.5999 40.97 61.9499 40.96C62.2899 40.96 62.6399 40.96 62.9599 41.03C63.2899 41.07 63.6099 41.19 63.8999 41.29C64.0499 41.34 64.1899 41.41 64.3199 41.48C64.4499 41.55 64.5899 41.61 64.6999 41.69C64.8199 41.77 64.9299 41.85 65.0399 41.92C65.1399 42 65.2399 42.09 65.3299 42.16C65.5199 42.32 65.6599 42.49 65.7999 42.63C65.9199 42.78 66.0299 42.92 66.0999 43.04C66.1799 43.15 66.2299 43.26 66.2699 43.32C66.2999 43.39 66.3199 43.42 66.3199 43.42L66.3299 43.43Z" fill="#565656"/>
<path d="M47.0199 57.9C39.6599 61.41 34.4799 59.14 32.1499 50.05C32.1499 50.05 40.9999 43.18 45.6999 51.99C46.4299 53.36 47.0199 57.9 47.0199 57.9Z" fill="white"/>
<path d="M39.9098 58.48C37.8698 58.44 36.1498 56.82 35.4998 54.57C35.2998 53.89 35.1898 53.14 35.2098 52.36C35.2698 49.23 37.2198 48.11 39.6698 48.04C39.8198 48.04 39.9798 48.03 40.1298 48.04C42.7998 48.1 44.8198 50.87 44.8698 52.57C44.9598 55.89 42.5798 58.54 39.9198 58.49" fill="#FFD10F"/>
<path d="M39.9098 58.48V58.31C38.9398 58.29 38.0398 57.89 37.2998 57.23C36.5598 56.56 35.9798 55.62 35.6598 54.52C35.4798 53.9 35.3798 53.23 35.3798 52.53C35.3798 52.48 35.3798 52.42 35.3798 52.36C35.4098 50.83 35.8998 49.82 36.6598 49.18C37.4198 48.53 38.4798 48.24 39.6798 48.21C39.8098 48.21 39.9398 48.21 40.0698 48.21H40.1298C41.3998 48.24 42.5398 48.92 43.3598 49.8C44.1798 50.68 44.6798 51.78 44.6998 52.57C44.6998 52.63 44.6998 52.69 44.6998 52.75C44.6998 54.31 44.1398 55.71 43.2698 56.71C42.3998 57.71 41.2298 58.32 39.9898 58.32H39.9098V58.49V58.66H39.9898C41.3398 58.66 42.5998 58 43.5298 56.93C44.4498 55.87 45.0398 54.39 45.0398 52.75C45.0398 52.69 45.0398 52.63 45.0398 52.56C45.0098 51.64 44.4798 50.51 43.6098 49.57C42.7398 48.63 41.5298 47.9 40.1398 47.87H40.0698C39.9298 47.87 39.7998 47.87 39.6698 47.87C38.4198 47.91 37.2798 48.21 36.4398 48.92C35.5998 49.64 35.0798 50.75 35.0398 52.35C35.0398 52.41 35.0398 52.46 35.0398 52.52C35.0398 53.25 35.1398 53.96 35.3398 54.61C35.6798 55.76 36.2898 56.75 37.0798 57.47C37.8698 58.19 38.8498 58.62 39.9198 58.64V58.47" fill="#2B2411"/>
<path d="M39.9298 57.63C38.3798 57.6 37.0198 56.27 36.4698 54.26C36.2898 53.61 36.2098 52.94 36.2198 52.24C36.2698 49.9 37.3799 48.78 39.6999 48.71C39.8099 48.71 39.9298 48.71 40.0498 48.71H40.1098C42.2098 48.76 43.8098 51.21 43.8498 52.47C43.8898 53.99 43.3799 55.44 42.4599 56.45C41.7499 57.22 40.8798 57.65 39.9898 57.65H39.9298" fill="#4D2A10"/>
<path d="M55.2397 57.9C62.5997 61.41 67.7797 59.14 70.1097 50.05C70.1097 50.05 61.2598 43.18 56.5598 51.99C55.8298 53.36 55.2397 57.9 55.2397 57.9Z" fill="white"/>
<path d="M62.3496 58.48C64.3896 58.44 66.1097 56.82 66.7597 54.57C66.9597 53.89 67.0597 53.14 67.0497 52.36C66.9897 49.23 65.0397 48.11 62.5897 48.04C62.4297 48.04 62.2797 48.03 62.1297 48.04C59.4597 48.1 57.4397 50.87 57.3897 52.57C57.2997 55.89 59.6797 58.54 62.3397 58.49" fill="#FFD10F"/>
<path d="M62.3497 58.48V58.65C63.4197 58.63 64.3998 58.19 65.1898 57.48C65.9798 56.76 66.5897 55.77 66.9297 54.62C67.1197 53.97 67.2297 53.27 67.2297 52.54C67.2297 52.48 67.2297 52.43 67.2297 52.37C67.1997 50.77 66.6798 49.65 65.8398 48.94C64.9998 48.23 63.8597 47.93 62.6097 47.89C62.4797 47.89 62.3498 47.89 62.2098 47.89H62.1398C60.7498 47.92 59.5397 48.66 58.6697 49.59C57.8097 50.53 57.2697 51.67 57.2397 52.58C57.2397 52.64 57.2397 52.7 57.2397 52.77C57.2397 54.41 57.8298 55.88 58.7498 56.95C59.6698 58.02 60.9397 58.68 62.2897 58.68H62.3698V58.51V58.34H62.2897C61.0497 58.34 59.8798 57.74 59.0098 56.73C58.1398 55.73 57.5798 54.33 57.5798 52.77C57.5798 52.71 57.5798 52.65 57.5798 52.59C57.5998 51.8 58.0997 50.71 58.9197 49.82C59.7397 48.93 60.8798 48.25 62.1498 48.23H62.2098C62.3398 48.23 62.4697 48.23 62.5997 48.23C63.8097 48.26 64.8598 48.56 65.6198 49.2C66.3798 49.85 66.8598 50.85 66.8998 52.38C66.8998 52.43 66.8998 52.49 66.8998 52.55C66.8998 53.25 66.7998 53.92 66.6198 54.54C66.2998 55.64 65.7197 56.58 64.9797 57.25C64.2397 57.92 63.3397 58.31 62.3597 58.33V58.5" fill="#2B2411"/>
<path d="M62.2699 57.63C61.3899 57.63 60.5099 57.21 59.7999 56.43C58.8799 55.42 58.3699 53.97 58.4099 52.45C58.4399 51.19 60.04 48.74 62.15 48.69H62.21C62.33 48.69 62.4499 48.69 62.5599 48.69C64.8899 48.76 65.9999 49.88 66.0399 52.22C66.0599 52.92 65.9699 53.59 65.7899 54.23C65.2299 56.25 63.8699 57.58 62.3199 57.61H62.2599" fill="#4D2A10"/>
<path d="M40.2297 51.11C40.1897 53.12 38.8397 54.73 37.2297 54.7C36.4997 54.68 35.5897 54.28 35.0797 53.72C34.8997 53.12 34.8897 52.36 34.9097 51.68C34.9697 48.94 36.8497 48.12 38.9997 48.06C39.7697 48.73 40.2597 49.85 40.2397 51.12" fill="white"/>
<path d="M42.7699 56.93C42.7499 57.61 42.2999 58.16 41.7499 58.14C41.1999 58.13 40.77 57.57 40.78 56.88C40.79 56.2 41.2499 55.65 41.7999 55.67C42.3499 55.68 42.7799 56.24 42.7699 56.93Z" fill="white"/>
<path d="M62.2198 51.41C62.1798 53.42 60.8299 55.03 59.2099 55C58.4799 54.99 57.8299 54.64 57.3199 54.07C57.1399 53.47 57.0499 52.81 57.0699 52.13C57.1299 49.39 58.8299 48.41 60.9799 48.35C61.7499 49.02 62.2398 50.15 62.2198 51.41Z" fill="white"/>
<path d="M64.9599 56.93C64.9499 57.61 64.4899 58.16 63.9399 58.14C63.3899 58.13 62.9599 57.57 62.9699 56.88C62.9799 56.2 63.4399 55.65 63.9899 55.67C64.5399 55.68 64.9699 56.24 64.9599 56.93Z" fill="white"/>
<path d="M45.6999 58.48C46.1299 58.31 46.5699 58.12 47.0199 57.9C47.0199 57.9 46.4299 53.36 45.6999 51.99C44.1699 49.12 42.1999 47.92 40.2499 47.59C42.2099 47.91 44.1699 49.12 45.6999 51.98C46.4299 53.35 47.0199 57.89 47.0199 57.89C46.5699 58.11 46.1299 58.3 45.6999 58.47M32.5799 51.55C32.4199 51.07 32.2799 50.57 32.1499 50.05C32.2899 50.57 32.4299 51.07 32.5799 51.55Z" fill="#E2DDDA"/>
<path d="M45.6999 58.48C45.4599 57.18 45.1299 55.73 44.7699 55.05C44.7399 55 44.7099 54.94 44.6799 54.89C44.9099 54.22 45.0299 53.5 45.0299 52.75C45.0299 52.69 45.0299 52.63 45.0299 52.56C44.9999 51.64 44.4699 50.51 43.5999 49.57C42.7299 48.63 41.5199 47.9 40.1299 47.87H40.0599C39.9199 47.87 39.7899 47.87 39.6599 47.87C38.9899 47.89 38.3499 47.98 37.7699 48.18C36.3099 48.48 35.1599 49.31 34.9399 51.14C34.1099 51.43 33.3699 51.79 32.7699 52.12C32.6999 51.93 32.6399 51.75 32.5799 51.55C32.4299 51.07 32.2799 50.57 32.1499 50.05C32.2099 50.01 35.4699 47.5 39.0699 47.5C39.4599 47.5 39.8499 47.53 40.2499 47.59C42.2099 47.91 44.1699 49.12 45.6999 51.99C46.4299 53.36 47.0199 57.9 47.0199 57.9C46.5699 58.11 46.1299 58.31 45.6999 58.48Z" fill="#E2E1E1"/>
<path d="M44.4497 54.49C44.2397 54.13 44.0097 53.8 43.7797 53.5C43.8297 53.16 43.8497 52.81 43.8397 52.46C43.8097 51.2 42.2097 48.75 40.0997 48.7H40.0397C39.9197 48.7 39.7997 48.7 39.6897 48.7C39.6497 48.7 39.6097 48.7 39.5697 48.7C39.4597 48.52 39.3297 48.36 39.1797 48.22C39.3397 48.21 39.4997 48.2 39.6697 48.19C39.7997 48.19 39.9297 48.19 40.0597 48.19H40.1197C41.3897 48.22 42.5297 48.9 43.3497 49.78C44.1697 50.66 44.6697 51.76 44.6897 52.55C44.6897 52.61 44.6897 52.67 44.6897 52.73C44.6897 53.34 44.5997 53.93 44.4497 54.48" fill="#E6BE2B"/>
<path d="M44.6797 54.89C44.5997 54.75 44.5298 54.62 44.4498 54.49C44.6098 53.94 44.6898 53.36 44.6898 52.74C44.6898 52.68 44.6898 52.62 44.6898 52.56C44.6698 51.77 44.1697 50.68 43.3497 49.79C42.5297 48.9 41.3898 48.22 40.1198 48.2H40.0598C39.9298 48.2 39.7997 48.2 39.6697 48.2C39.4997 48.2 39.3397 48.21 39.1797 48.23C39.1197 48.17 39.0497 48.1 38.9797 48.04C38.5597 48.05 38.1498 48.09 37.7598 48.17C38.3398 47.97 38.9798 47.88 39.6498 47.86C39.7798 47.86 39.9097 47.86 40.0497 47.86H40.1198C41.5098 47.89 42.7198 48.63 43.5898 49.56C44.4498 50.5 44.9898 51.64 45.0198 52.55C45.0198 52.61 45.0198 52.67 45.0198 52.74C45.0198 53.5 44.8897 54.22 44.6697 54.88" fill="#302919"/>
<path d="M43.7898 53.5C42.7098 52.07 41.4798 51.26 40.2298 50.87C40.2098 50.05 39.9698 49.31 39.5698 48.72C39.6098 48.72 39.6498 48.72 39.6898 48.72C39.7998 48.72 39.9198 48.72 40.0398 48.72H40.0998C42.1998 48.77 43.7998 51.22 43.8398 52.48C43.8498 52.83 43.8298 53.18 43.7798 53.52" fill="#4E2F18"/>
<path d="M34.9399 51.14C35.1599 49.31 36.31 48.48 37.77 48.18C38.16 48.1 38.5699 48.06 38.9899 48.05C39.0599 48.11 39.1299 48.17 39.1899 48.24C39.3299 48.39 39.46 48.55 39.58 48.72C39.97 49.31 40.2099 50.06 40.2399 50.87C39.5399 50.65 38.84 50.56 38.15 50.56C37.03 50.56 35.93 50.8 34.96 51.14" fill="#E2E1E1"/>
<path d="M56.5598 58.48C56.1298 58.31 55.6897 58.12 55.2397 57.9C55.2397 57.9 55.8298 53.36 56.5598 51.99C56.7798 51.57 57.0198 51.19 57.2598 50.84C57.0198 51.19 56.7898 51.57 56.5698 51.99C55.8398 53.36 55.2498 57.9 55.2498 57.9C55.6998 58.11 56.1398 58.31 56.5698 58.48M59.4897 48.58C60.3097 48.04 61.1598 47.74 62.0098 47.59C61.1598 47.73 60.3097 48.04 59.4897 48.58Z" fill="#E2DDDA"/>
<path d="M56.5598 58.48C56.1298 58.31 55.6897 58.12 55.2397 57.9C55.2397 57.9 55.8298 53.36 56.5598 51.99C56.7798 51.57 57.0198 51.19 57.2498 50.84C57.1498 51.22 57.0798 51.65 57.0698 52.13C57.0498 52.81 57.1398 53.46 57.3198 54.07C57.3298 54.08 57.3397 54.1 57.3497 54.11C57.4097 54.38 57.4798 54.64 57.5598 54.89C57.5298 54.94 57.4997 55 57.4697 55.05C57.1097 55.73 56.7797 57.18 56.5397 58.48M69.4797 52.12C68.8197 51.76 67.9898 51.36 67.0598 51.06C66.8398 50.13 66.4098 49.43 65.8198 48.92C64.9798 48.21 63.8398 47.91 62.5898 47.87C62.4598 47.87 62.3298 47.87 62.1898 47.87H62.1198C61.3698 47.89 60.6798 48.11 60.0598 48.45C59.8598 48.49 59.6697 48.53 59.4797 48.59C60.2997 48.05 61.1498 47.75 61.9998 47.6C62.3998 47.53 62.7897 47.51 63.1797 47.51C66.7797 47.51 70.0397 50.02 70.0997 50.06C69.9697 50.56 69.8398 51.03 69.6898 51.49C69.6198 51.71 69.5497 51.92 69.4697 52.13" fill="#E2E1E1"/>
<path d="M66.6898 50.94C66.3998 50.86 66.1098 50.78 65.8098 50.72C65.3698 49.41 64.3098 48.76 62.5598 48.71C62.4498 48.71 62.3298 48.71 62.2098 48.71H62.1498C61.8998 48.71 61.6597 48.75 61.4197 48.82C61.2997 48.66 61.1698 48.52 61.0198 48.39C61.3698 48.28 61.7498 48.21 62.1298 48.2H62.1898C62.3198 48.2 62.4498 48.2 62.5798 48.2C63.7898 48.23 64.8397 48.53 65.5997 49.17C66.0897 49.59 66.4697 50.16 66.6797 50.93" fill="#E6BE2B"/>
<path d="M57.5699 54.89C57.4899 54.64 57.4099 54.38 57.3599 54.11C57.4999 54.26 57.6399 54.39 57.7999 54.5C57.7299 54.62 57.6499 54.76 57.5799 54.89M67.0699 51.06C66.9399 51.02 66.8199 50.98 66.6899 50.95C66.4799 50.18 66.0999 49.61 65.6099 49.19C64.8499 48.54 63.7899 48.25 62.5899 48.22C62.4599 48.22 62.3299 48.22 62.1999 48.22H62.1399C61.7599 48.22 61.3899 48.29 61.0299 48.41C61.0199 48.4 60.9999 48.38 60.9899 48.37C60.6699 48.37 60.3699 48.41 60.0699 48.46C60.6899 48.12 61.3799 47.9 62.1299 47.88H62.1999C62.3399 47.88 62.4699 47.88 62.5999 47.88C63.8499 47.92 64.9899 48.22 65.8299 48.93C66.4199 49.43 66.8599 50.14 67.0699 51.07" fill="#302919"/>
<path d="M62.1997 50.82C62.1197 50.05 61.8397 49.36 61.4297 48.82C61.6597 48.75 61.9097 48.71 62.1597 48.71H62.2197C62.3397 48.71 62.4597 48.71 62.5697 48.71C64.3197 48.76 65.3797 49.41 65.8197 50.72C65.2697 50.62 64.7097 50.55 64.1297 50.55C63.4897 50.55 62.8497 50.63 62.1997 50.81" fill="#4E2F18"/>
<path d="M57.7999 54.5C57.6399 54.39 57.4999 54.26 57.3599 54.11C57.3499 54.1 57.3399 54.08 57.3299 54.07C57.1499 53.47 57.0599 52.81 57.0799 52.13C57.0899 51.65 57.1499 51.22 57.2599 50.84C57.9499 49.83 58.7099 49.1 59.4999 48.58C59.6899 48.52 59.8799 48.48 60.0799 48.44C60.3699 48.39 60.6799 48.36 60.9999 48.35C61.0099 48.36 61.0299 48.37 61.0399 48.39C61.1899 48.52 61.3199 48.66 61.4399 48.82C61.8499 49.36 62.1299 50.05 62.2099 50.82C60.6299 51.27 59.0899 52.37 57.8099 54.5" fill="#E2E1E1"/>
<path d="M47.0198 57.9C46.9298 57.45 46.8297 57 46.7297 56.55C46.6297 56.1 46.5297 55.65 46.4197 55.21C46.3197 54.76 46.1998 54.33 46.0698 53.89C45.9498 53.44 45.7998 53.05 45.6398 52.63C45.5398 52.43 45.4497 52.18 45.3497 52.04L44.9897 51.47C44.7297 51.11 44.4797 50.74 44.1797 50.42C44.0397 50.25 43.8897 50.09 43.7297 49.94C43.5797 49.78 43.4198 49.63 43.2498 49.5C43.0798 49.36 42.9197 49.22 42.7397 49.11C42.5597 48.99 42.3898 48.87 42.1898 48.78C41.8198 48.57 41.4198 48.42 41.0198 48.29C40.6098 48.17 40.1998 48.09 39.7698 48.05C39.3498 48.02 38.9197 48.01 38.4897 48.05C38.0597 48.08 37.6398 48.17 37.2098 48.26C36.3698 48.46 35.5397 48.76 34.7397 49.15C34.3397 49.34 33.9498 49.55 33.5698 49.78C33.1998 50 32.8097 50.25 32.4797 50.49L32.6898 49.89L33.0298 51.08C33.1298 51.48 33.2797 51.86 33.4197 52.25C33.5597 52.64 33.6998 53.02 33.8798 53.39C34.0598 53.75 34.1898 54.15 34.3998 54.49C34.6098 54.83 34.7598 55.22 35.0098 55.54C35.2498 55.85 35.4497 56.22 35.7297 56.5C35.9997 56.79 36.2498 57.11 36.5598 57.35L37.0098 57.74L37.5098 58.06C37.8298 58.3 38.2098 58.43 38.5698 58.6C38.9298 58.77 39.3298 58.83 39.7098 58.96C40.1098 59.01 40.5097 59.09 40.9097 59.11C41.3197 59.11 41.7298 59.15 42.1398 59.1C42.5498 59.05 42.9698 59.05 43.3698 58.95C43.7798 58.86 44.1898 58.81 44.5898 58.68C44.9898 58.56 45.3997 58.46 45.7997 58.32L46.9998 57.89L47.0198 57.9ZM47.0198 57.9L45.8898 58.48C45.5098 58.67 45.1098 58.81 44.7098 58.97C44.3198 59.15 43.8997 59.23 43.4897 59.37C43.0797 59.52 42.6497 59.56 42.2297 59.65C41.7997 59.75 41.3597 59.73 40.9297 59.77C40.4897 59.78 40.0497 59.73 39.6097 59.7C39.1797 59.6 38.7298 59.55 38.3098 59.38C37.8898 59.22 37.4598 59.08 37.0898 58.83L36.5098 58.49L35.9797 58.08C35.6097 57.82 35.3098 57.49 35.0098 57.17C34.6798 56.86 34.4497 56.48 34.1797 56.13C33.8997 55.78 33.7097 55.38 33.4797 55.02C33.2397 54.65 33.0698 54.24 32.8798 53.85C32.6798 53.46 32.5298 53.05 32.3798 52.64C32.2298 52.23 32.0698 51.83 31.9598 51.41L31.5898 50.17L31.4797 49.8L31.7897 49.56C32.1997 49.25 32.5798 49 32.9998 48.76C33.4098 48.52 33.8298 48.3 34.2598 48.1C35.1198 47.69 36.0297 47.37 36.9697 47.16C37.4397 47.06 37.9297 46.98 38.4197 46.96C38.9097 46.92 39.3998 46.95 39.8898 47C40.3798 47.06 40.8698 47.17 41.3298 47.32C41.5598 47.4 41.7998 47.48 42.0198 47.6C42.2398 47.7 42.4597 47.82 42.6697 47.95C42.8797 48.07 43.0798 48.21 43.2698 48.36C43.4698 48.5 43.6498 48.66 43.8298 48.83C44.0198 48.99 44.1798 49.17 44.3398 49.34C44.5098 49.52 44.6597 49.7 44.7997 49.89C45.0997 50.26 45.3398 50.67 45.5898 51.08L45.9197 51.7C46.0597 51.95 46.0998 52.14 46.1898 52.37C46.3198 52.82 46.4498 53.31 46.5198 53.76C46.6098 54.22 46.6797 54.67 46.7397 55.13C46.8697 56.04 46.9698 56.96 47.0198 57.88V57.9Z" fill="#2B180F"/>
<path d="M55.2399 57.9C55.2999 56.98 55.39 56.07 55.52 55.15C55.58 54.69 55.6499 54.24 55.7399 53.78C55.8099 53.33 55.9399 52.84 56.0699 52.39C56.1599 52.17 56.21 51.98 56.34 51.72L56.6699 51.1C56.9099 50.69 57.16 50.29 57.46 49.91C57.6 49.71 57.7499 49.53 57.9199 49.36C58.0799 49.18 58.2399 49.01 58.4299 48.85C58.6099 48.68 58.7899 48.52 58.9899 48.38C59.1799 48.23 59.38 48.09 59.59 47.97C59.8 47.83 60.0099 47.72 60.2399 47.62C60.4599 47.5 60.6999 47.42 60.9299 47.34C61.3999 47.18 61.8799 47.08 62.3699 47.02C62.8599 46.97 63.35 46.95 63.84 46.98C64.33 47 64.8099 47.08 65.2899 47.18C66.2299 47.39 67.1399 47.71 67.9999 48.12C68.4299 48.32 68.8499 48.54 69.2599 48.78C69.6799 49.02 70.0599 49.28 70.4699 49.58L70.7899 49.82L70.6799 50.19L70.3099 51.43C70.1999 51.85 70.04 52.25 69.89 52.66C69.74 53.07 69.59 53.47 69.39 53.87C69.2 54.26 69.0399 54.67 68.7899 55.04C68.5499 55.41 68.37 55.81 68.08 56.15C67.8 56.49 67.5799 56.88 67.2499 57.19C66.9399 57.51 66.65 57.85 66.28 58.1L65.7499 58.51L65.1699 58.85C64.7899 59.1 64.36 59.24 63.95 59.4C63.53 59.57 63.08 59.61 62.65 59.72C62.21 59.75 61.77 59.8 61.33 59.79C60.9 59.75 60.46 59.77 60.03 59.67C59.61 59.58 59.17 59.53 58.77 59.39C58.36 59.25 57.9399 59.17 57.5499 58.99C57.1499 58.82 56.7499 58.69 56.3699 58.5L55.2399 57.92V57.9ZM55.2399 57.9L56.4399 58.33C56.8399 58.48 57.25 58.57 57.65 58.69C58.05 58.82 58.4599 58.87 58.8699 58.96C59.2799 59.06 59.6899 59.06 60.0999 59.11C60.5099 59.16 60.92 59.11 61.33 59.12C61.74 59.1 62.13 59.02 62.53 58.97C62.91 58.84 63.3099 58.78 63.6699 58.61C64.0299 58.44 64.4099 58.31 64.7299 58.07L65.2299 57.75L65.6799 57.36C65.9899 57.12 66.2399 56.8 66.5099 56.51C66.7899 56.23 66.9899 55.86 67.2299 55.55C67.4799 55.23 67.64 54.85 67.84 54.5C68.05 54.16 68.1899 53.76 68.3599 53.4C68.5399 53.03 68.6799 52.65 68.8099 52.26C68.9499 51.87 69.1 51.49 69.2 51.09L69.5399 49.9L69.7499 50.5C69.4199 50.26 69.0299 50.01 68.6599 49.79C68.2799 49.56 67.8899 49.35 67.4899 49.16C66.6999 48.77 65.87 48.47 65.02 48.27C64.6 48.18 64.1699 48.09 63.7399 48.06C63.3099 48.01 62.89 48.02 62.46 48.06C62.04 48.1 61.62 48.17 61.21 48.3C60.81 48.43 60.4099 48.58 60.0399 48.79C59.8499 48.88 59.6699 49 59.4899 49.12C59.3099 49.23 59.1399 49.37 58.9699 49.51C58.7999 49.64 58.6399 49.79 58.4899 49.95C58.3299 50.1 58.1799 50.26 58.0399 50.43C57.7399 50.75 57.4899 51.12 57.2299 51.48L56.8799 52.05C56.7799 52.19 56.69 52.45 56.59 52.64C56.43 53.06 56.2799 53.45 56.1599 53.9C56.0299 54.34 55.9099 54.78 55.8099 55.22C55.6999 55.66 55.5999 56.11 55.4999 56.56C55.3999 57.01 55.3 57.46 55.21 57.91L55.2399 57.9Z" fill="#2B180F"/>
<path d="M68.0898 36.09L67.9898 36.03C67.9898 36.03 65.6998 33.66 62.1398 32.45C58.2898 31.15 54.9898 30.47 51.5198 30.39C51.5198 30.39 51.2598 30.38 51.1198 30.38H51.0698C50.9298 30.38 50.6698 30.39 50.6698 30.39C47.2098 30.48 43.8998 31.15 40.0498 32.45C36.4898 33.66 34.1998 36.03 34.1998 36.03L34.0998 36.09C34.0998 36.09 24.3198 36.84 22.7898 33.84C22.8498 34.01 24.1198 37.51 27.6098 40.78C29.6898 42.74 35.5998 47.65 39.4698 48.69C46.9398 50.69 50.2898 55.61 51.0098 58.29L51.0898 59.75L51.1698 58.29C51.8898 55.61 55.2398 50.69 62.7098 48.69C66.5798 47.65 72.4898 42.74 74.5698 40.78C78.0598 37.51 79.3298 34.01 79.3898 33.84C77.8598 36.84 68.0798 36.09 68.0798 36.09H68.0898Z" fill="#724E34"/>
<path d="M75.2599 36.21C74.7399 36.86 74.1399 37.53 73.4299 38.19C71.7199 39.8 67.94 42.92 64.78 44.64C64 45.06 63.2699 45.4 62.5999 45.61C62.5499 45.62 62.51 45.64 62.46 45.65H62.4199C62.4199 45.65 62.3399 45.69 62.2999 45.7C56.4699 47.26 52.9699 50.45 51.1099 53.24C49.2499 50.45 45.7499 47.27 39.9199 45.7C39.8799 45.69 39.8399 45.68 39.7999 45.66C39.1699 45.48 38.4599 45.17 37.7199 44.78C34.4999 43.1 30.5499 39.84 28.7899 38.19C28.0799 37.53 27.47 36.85 26.96 36.2C28.26 36.4 29.79 36.49 31.53 36.49C33.08 36.49 34.2099 36.41 34.2599 36.4L34.6799 36.37L35.3099 35.97L35.45 35.82C35.45 35.82 37.5299 33.72 40.6299 32.67C44.4199 31.38 47.5399 30.78 50.7499 30.69H50.7899C50.7899 30.69 50.9499 30.68 51.0599 30.68H51.2C51.3 30.68 51.4599 30.68 51.4699 30.68H51.5099C54.7199 30.76 57.8399 31.37 61.6299 32.66C64.7299 33.71 66.7899 35.79 66.8099 35.81L66.95 35.95L67.58 36.35L67.9999 36.38C67.9999 36.38 69.1699 36.47 70.7299 36.47C72.4699 36.47 73.9999 36.37 75.2999 36.18L75.2599 36.21Z" fill="#63432D"/>
<path d="M51.9999 62.08C51.8499 62.34 51.0999 63.6 51.0999 63.6V55.68C51.0999 55.68 51.9099 55.89 53.0999 57.86C54.3699 59.95 52.3299 61.49 51.9999 62.09V62.08Z" fill="#3F3D36"/>
<path d="M51.0999 55.67V63.59C51.0999 63.59 50.3499 62.34 50.1999 62.07C49.8599 61.47 47.8799 59.65 49.0999 57.84C50.3699 55.95 51.0999 55.66 51.0999 55.66V55.67Z" fill="#494740"/>
<path d="M50.4899 58.42C50.4099 58.55 50.1599 58.44 49.9199 58.17C49.6799 57.9 49.5599 57.58 49.6399 57.45C49.7199 57.32 49.9699 57.43 50.2099 57.7C50.4399 57.97 50.5699 58.29 50.4899 58.42Z" fill="#191919"/>
<path d="M51.8498 58.42C51.9298 58.55 52.1798 58.44 52.4198 58.17C52.6598 57.9 52.7799 57.58 52.6999 57.45C52.6199 57.32 52.3699 57.43 52.1299 57.7C51.8899 57.97 51.7699 58.29 51.8399 58.42H51.8498Z" fill="#191919"/>
<path d="M39.9297 45.67H39.7797C39.1497 45.49 38.4397 45.18 37.6997 44.79C37.8997 44.18 38.2897 43.77 38.7497 43.77C39.3997 43.77 39.9297 44.62 39.9297 45.67Z" fill="#4F3320"/>
<path d="M42.4298 45.67H40.0698C40.0698 44.62 40.5998 43.77 41.2498 43.77C41.8998 43.77 42.4298 44.62 42.4298 45.67Z" fill="#4F3320"/>
<path d="M44.9398 45.67H42.5798C42.5798 44.62 43.1098 43.77 43.7598 43.77C44.4098 43.77 44.9398 44.62 44.9398 45.67Z" fill="#4F3320"/>
<path d="M47.4398 45.67H45.0798C45.0798 44.62 45.6098 43.77 46.2598 43.77C46.9098 43.77 47.4398 44.62 47.4398 45.67Z" fill="#4F3320"/>
<path d="M49.9398 45.67H47.5798C47.5798 44.62 48.1098 43.77 48.7598 43.77C49.4098 43.77 49.9398 44.62 49.9398 45.67Z" fill="#4F3320"/>
<path d="M52.4498 45.67H50.0898C50.0898 44.62 50.6198 43.77 51.2698 43.77C51.9198 43.77 52.4498 44.62 52.4498 45.67Z" fill="#4F3320"/>
<path d="M54.9498 45.67H52.5898C52.5898 44.62 53.1198 43.77 53.7698 43.77C54.4198 43.77 54.9498 44.62 54.9498 45.67Z" fill="#4F3320"/>
<path d="M57.4498 45.67H55.0898C55.0898 44.62 55.6198 43.77 56.2698 43.77C56.9198 43.77 57.4498 44.62 57.4498 45.67Z" fill="#4F3320"/>
<path d="M59.9498 45.67H57.5898C57.5898 44.62 58.1198 43.77 58.7698 43.77C59.4198 43.77 59.9498 44.62 59.9498 45.67Z" fill="#4F3320"/>
<path d="M62.4599 45.67H60.0999C60.0999 44.62 60.6299 43.77 61.2799 43.77C61.9299 43.77 62.4599 44.62 62.4599 45.67Z" fill="#4F3320"/>
<path d="M64.7698 44.65C63.9898 45.07 63.2598 45.41 62.5898 45.62C62.5998 44.59 63.1298 43.77 63.7698 43.77C64.1898 43.77 64.5598 44.12 64.7698 44.65Z" fill="#4F3320"/>
<path d="M51.1097 47.52H48.7498C48.7498 46.47 49.2797 45.62 49.9297 45.62C50.5797 45.62 51.1097 46.47 51.1097 47.52Z" fill="#4F3320"/>
<path d="M47.2699 49.18C46.6899 48.74 46.0599 48.32 45.3799 47.92C45.5799 47.67 45.8299 47.52 46.0999 47.52C46.6999 47.52 47.1999 48.24 47.2699 49.18Z" fill="#4F3320"/>
<path d="M49.78 49.42H47.58C47.53 49.38 47.4799 49.34 47.4199 49.3C47.4599 48.31 47.9699 47.52 48.5999 47.52C49.2299 47.52 49.78 48.37 49.78 49.42Z" fill="#4F3320"/>
<path d="M52.28 49.42H49.9199C49.9199 48.37 50.4499 47.52 51.0999 47.52C51.7499 47.52 52.28 48.37 52.28 49.42Z" fill="#4F3320"/>
<path d="M54.7797 49.28C54.7197 49.32 54.6597 49.37 54.5897 49.42H52.4097C52.4097 48.37 52.9397 47.52 53.5897 47.52C54.2397 47.52 54.7197 48.29 54.7697 49.28H54.7797Z" fill="#4F3320"/>
<path d="M56.8199 47.91C56.1399 48.31 55.5199 48.72 54.9399 49.16C55.0199 48.23 55.5099 47.52 56.1099 47.52C56.3799 47.52 56.6299 47.67 56.8199 47.91Z" fill="#4F3320"/>
<path d="M50.9598 51.32H49.6198C49.3398 51.02 49.0497 50.72 48.7297 50.42C48.9297 49.82 49.3198 49.42 49.7698 49.42C50.4198 49.42 50.9498 50.27 50.9498 51.32H50.9598Z" fill="#4F3320"/>
<path d="M53.3499 50.51C53.0699 50.78 52.7999 51.05 52.5499 51.32H51.0999C51.0999 50.27 51.6299 49.42 52.2799 49.42C52.7499 49.42 53.1599 49.86 53.3499 50.51Z" fill="#4F3320"/>
<path d="M51.9799 51.99C51.6499 52.4 51.35 52.8 51.09 53.19C50.82 52.79 50.5299 52.38 50.1899 51.97C50.4099 51.56 50.72 51.31 51.08 51.31C51.44 51.31 51.7599 51.57 51.9799 51.98V51.99Z" fill="#4F3320"/>
<path d="M43.5498 47C42.9198 46.71 42.2598 46.45 41.5498 46.2C41.7598 45.83 42.0698 45.6 42.4098 45.6C42.9498 45.6 43.4098 46.19 43.5498 46.99V47Z" fill="#4F3320"/>
<path d="M46.0997 47.51H44.5798C44.3198 47.37 44.0398 47.23 43.7598 47.1C43.8798 46.25 44.3497 45.61 44.9197 45.61C45.5697 45.61 46.0997 46.46 46.0997 47.51Z" fill="#4F3320"/>
<path d="M48.5997 47.51H46.2397C46.2397 46.46 46.7697 45.61 47.4197 45.61C48.0697 45.61 48.5997 46.46 48.5997 47.51Z" fill="#4F3320"/>
<path d="M53.5997 47.51H51.2397C51.2397 46.46 51.7697 45.61 52.4197 45.61C53.0697 45.61 53.5997 46.46 53.5997 47.51Z" fill="#4F3320"/>
<path d="M56.1097 47.51H53.7498C53.7498 46.46 54.2797 45.61 54.9297 45.61C55.5797 45.61 56.1097 46.46 56.1097 47.51Z" fill="#4F3320"/>
<path d="M58.5698 47.03C58.2398 47.19 57.9097 47.34 57.5997 47.51H56.2397C56.2397 46.46 56.7697 45.61 57.4197 45.61C57.9697 45.61 58.4298 46.21 58.5598 47.03H58.5698Z" fill="#4F3320"/>
<path d="M60.7598 46.16C60.0698 46.39 59.4198 46.65 58.8098 46.92C58.9598 46.16 59.4098 45.61 59.9298 45.61C60.2498 45.61 60.5498 45.82 60.7598 46.16Z" fill="#4F3320"/>
<path d="M51.1798 43.77H48.8198C48.8198 42.72 49.3498 41.87 49.9998 41.87C50.6498 41.87 51.1798 42.72 51.1798 43.77Z" fill="#4F3320"/>
<path d="M53.6898 43.77H51.3298C51.3298 42.72 51.8598 41.87 52.5098 41.87C53.1598 41.87 53.6898 42.72 53.6898 43.77Z" fill="#4F3320"/>
<path d="M56.1898 43.77H53.8298C53.8298 42.72 54.3598 41.87 55.0098 41.87C55.6598 41.87 56.1898 42.72 56.1898 43.77Z" fill="#4F3320"/>
<path d="M58.6898 43.77H56.3298C56.3298 42.72 56.8598 41.87 57.5098 41.87C58.1598 41.87 58.6898 42.72 58.6898 43.77Z" fill="#4F3320"/>
<path d="M61.1898 43.77H58.8298C58.8298 42.72 59.3598 41.87 60.0098 41.87C60.6598 41.87 61.1898 42.72 61.1898 43.77Z" fill="#4F3320"/>
<path d="M63.6998 43.77H61.3398C61.3398 42.72 61.8698 41.87 62.5198 41.87C63.1698 41.87 63.6998 42.72 63.6998 43.77Z" fill="#4F3320"/>
<path d="M66.1998 43.77H63.8398C63.8398 42.72 64.3698 41.87 65.0198 41.87C65.6698 41.87 66.1998 42.72 66.1998 43.77Z" fill="#4F3320"/>
<path d="M68.3198 42.37C67.6698 42.84 66.9998 43.3 66.3398 43.72C66.3498 42.69 66.8798 41.87 67.5198 41.87C67.8298 41.87 68.1098 42.06 68.3198 42.37Z" fill="#4F3320"/>
<path d="M36.1799 43.77H35.9399C35.3299 43.38 34.7099 42.97 34.1099 42.53C34.3299 42.12 34.6499 41.86 35.0099 41.86C35.6599 41.86 36.1899 42.71 36.1899 43.76L36.1799 43.77Z" fill="#4F3320"/>
<path d="M38.6898 43.77H36.3298C36.3298 42.72 36.8598 41.87 37.5098 41.87C38.1598 41.87 38.6898 42.72 38.6898 43.77Z" fill="#4F3320"/>
<path d="M41.1898 43.77H38.8298C38.8298 42.72 39.3598 41.87 40.0098 41.87C40.6598 41.87 41.1898 42.72 41.1898 43.77Z" fill="#4F3320"/>
<path d="M43.6898 43.77H41.3298C41.3298 42.72 41.8598 41.87 42.5098 41.87C43.1598 41.87 43.6898 42.72 43.6898 43.77Z" fill="#4F3320"/>
<path d="M46.1898 43.77H43.8298C43.8298 42.72 44.3598 41.87 45.0098 41.87C45.6598 41.87 46.1898 42.72 46.1898 43.77Z" fill="#4F3320"/>
<path d="M48.6998 43.77H46.3398C46.3398 42.72 46.8698 41.87 47.5198 41.87C48.1698 41.87 48.6998 42.72 48.6998 43.77Z" fill="#4F3320"/>
<path d="M52.4298 41.87H50.0698C50.0698 40.82 50.5998 39.97 51.2498 39.97C51.8998 39.97 52.4298 40.82 52.4298 41.87Z" fill="#4F3320"/>
<path d="M54.9298 41.87H52.5698C52.5698 40.82 53.0998 39.97 53.7498 39.97C54.3998 39.97 54.9298 40.82 54.9298 41.87Z" fill="#4F3320"/>
<path d="M57.4298 41.87H55.0698C55.0698 40.82 55.5998 39.97 56.2498 39.97C56.8998 39.97 57.4298 40.82 57.4298 41.87Z" fill="#4F3320"/>
<path d="M59.9298 41.87H57.5698C57.5698 40.82 58.0998 39.97 58.7498 39.97C59.3998 39.97 59.9298 40.82 59.9298 41.87Z" fill="#4F3320"/>
<path d="M62.4398 41.87H60.0798C60.0798 40.82 60.6098 39.97 61.2598 39.97C61.9098 39.97 62.4398 40.82 62.4398 41.87Z" fill="#4F3320"/>
<path d="M64.9398 41.87H62.5798C62.5798 40.82 63.1098 39.97 63.7598 39.97C64.4098 39.97 64.9398 40.82 64.9398 41.87Z" fill="#4F3320"/>
<path d="M67.4398 41.87H65.0798C65.0798 40.82 65.6098 39.97 66.2598 39.97C66.9098 39.97 67.4398 40.82 67.4398 41.87Z" fill="#4F3320"/>
<path d="M69.8698 41.21C69.5898 41.43 69.2998 41.65 68.9998 41.87H67.5798C67.5798 40.82 68.1098 39.97 68.7598 39.97C69.2698 39.97 69.6998 40.49 69.8698 41.21Z" fill="#4F3320"/>
<path d="M71.3998 39.98C71.0398 40.28 70.6498 40.59 70.2498 40.92C70.4498 40.35 70.8298 39.97 71.2698 39.97C71.3098 39.97 71.3598 39.97 71.3998 39.98Z" fill="#4F3320"/>
<path d="M32.3499 41.23C31.8399 40.83 31.3399 40.43 30.8899 40.05C30.9999 40 31.1199 39.97 31.2399 39.97C31.7499 39.97 32.1899 40.5 32.3499 41.23Z" fill="#4F3320"/>
<path d="M34.9198 41.87H33.1898C32.9898 41.72 32.7898 41.57 32.5898 41.42C32.7198 40.59 33.1798 39.97 33.7398 39.97C34.3898 39.97 34.9198 40.82 34.9198 41.87Z" fill="#4F3320"/>
<path d="M37.4298 41.87H35.0698C35.0698 40.82 35.5998 39.97 36.2498 39.97C36.8998 39.97 37.4298 40.82 37.4298 41.87Z" fill="#4F3320"/>
<path d="M39.9298 41.87H37.5698C37.5698 40.82 38.0998 39.97 38.7498 39.97C39.3998 39.97 39.9298 40.82 39.9298 41.87Z" fill="#4F3320"/>
<path d="M42.4298 41.87H40.0698C40.0698 40.82 40.5998 39.97 41.2498 39.97C41.8998 39.97 42.4298 40.82 42.4298 41.87Z" fill="#4F3320"/>
<path d="M44.9298 41.87H42.5698C42.5698 40.82 43.0998 39.97 43.7498 39.97C44.3998 39.97 44.9298 40.82 44.9298 41.87Z" fill="#4F3320"/>
<path d="M47.4398 41.87H45.0798C45.0798 40.82 45.6098 39.97 46.2598 39.97C46.9098 39.97 47.4398 40.82 47.4398 41.87Z" fill="#4F3320"/>
<path d="M49.9398 41.87H47.5798C47.5798 40.82 48.1098 39.97 48.7598 39.97C49.4098 39.97 49.9398 40.82 49.9398 41.87Z" fill="#4F3320"/>
<path d="M51.1598 39.97H48.7998C48.7998 38.92 49.3298 38.07 49.9798 38.07C50.6298 38.07 51.1598 38.92 51.1598 39.97Z" fill="#4F3320"/>
<path d="M53.6598 39.97H51.2998C51.2998 38.92 51.8298 38.07 52.4798 38.07C53.1298 38.07 53.6598 38.92 53.6598 39.97Z" fill="#4F3320"/>
<path d="M56.1598 39.97H53.7998C53.7998 38.92 54.3298 38.07 54.9798 38.07C55.6298 38.07 56.1598 38.92 56.1598 39.97Z" fill="#4F3320"/>
<path d="M58.6698 39.97H56.3098C56.3098 38.92 56.8398 38.07 57.4898 38.07C58.1398 38.07 58.6698 38.92 58.6698 39.97Z" fill="#4F3320"/>
<path d="M61.1698 39.97H58.8098C58.8098 38.92 59.3398 38.07 59.9998 38.07H60.0198C60.6598 38.09 61.1798 38.93 61.1798 39.97H61.1698Z" fill="#4F3320"/>
<path d="M63.6698 39.97H61.3098C61.3098 38.92 61.8398 38.07 62.4898 38.07C63.1398 38.07 63.6698 38.92 63.6698 39.97Z" fill="#4F3320"/>
<path d="M66.1798 39.97H63.8198C63.8198 38.92 64.3498 38.07 64.9998 38.07C65.6498 38.07 66.1798 38.92 66.1798 39.97Z" fill="#4F3320"/>
<path d="M68.6798 39.97H66.3098C66.3098 38.92 66.8398 38.07 67.4998 38.07H67.5198C68.1598 38.09 68.6798 38.93 68.6798 39.97Z" fill="#4F3320"/>
<path d="M71.1798 39.97H68.8198C68.8198 38.92 69.3498 38.07 69.9998 38.07H70.0198C70.6598 38.09 71.1798 38.93 71.1798 39.97Z" fill="#4F3320"/>
<path d="M73.1898 38.42C72.7098 38.86 72.0998 39.4 71.4098 39.97H71.3198C71.3198 38.92 71.8498 38.07 72.4998 38.07H72.5198C72.7698 38.07 72.9998 38.21 73.1798 38.42H73.1898Z" fill="#4F3320"/>
<path d="M31.15 39.97H30.78C30.17 39.46 29.6199 38.98 29.1699 38.58C29.3799 38.27 29.6599 38.07 29.9699 38.07C30.6199 38.07 31.15 38.92 31.15 39.97Z" fill="#4F3320"/>
<path d="M33.6598 39.97H31.2998C31.2998 38.92 31.8298 38.07 32.4798 38.07C33.1298 38.07 33.6598 38.92 33.6598 39.97Z" fill="#4F3320"/>
<path d="M36.1598 39.97H33.7998C33.7998 38.92 34.3298 38.07 34.9798 38.07C35.6298 38.07 36.1598 38.92 36.1598 39.97Z" fill="#4F3320"/>
<path d="M38.6598 39.97H36.2998C36.2998 38.92 36.8298 38.07 37.4798 38.07C38.1298 38.07 38.6598 38.92 38.6598 39.97Z" fill="#4F3320"/>
<path d="M41.1598 39.97H38.7998C38.7998 38.92 39.3298 38.07 39.9798 38.07C40.6298 38.07 41.1598 38.92 41.1598 39.97Z" fill="#4F3320"/>
<path d="M43.6698 39.97H41.3098C41.3098 38.92 41.8398 38.07 42.4898 38.07H42.5098C43.1498 38.09 43.6698 38.93 43.6698 39.97Z" fill="#4F3320"/>
<path d="M46.1698 39.97H43.8098C43.8098 38.92 44.3398 38.07 44.9898 38.07H45.0098C45.6498 38.09 46.1698 38.93 46.1698 39.97Z" fill="#4F3320"/>
<path d="M48.6798 39.97H46.3198C46.3198 38.92 46.8498 38.07 47.4998 38.07H47.5198C48.1598 38.09 48.6798 38.93 48.6798 39.97Z" fill="#4F3320"/>
<path d="M52.3597 38.07H49.9998C49.9998 37.02 50.5297 36.17 51.1797 36.17C51.8297 36.17 52.3597 37.02 52.3597 38.07Z" fill="#4F3320"/>
<path d="M54.8698 38.07H52.5098C52.5098 37.02 53.0398 36.17 53.6898 36.17C54.3398 36.17 54.8698 37.02 54.8698 38.07Z" fill="#4F3320"/>
<path d="M57.3698 38.07H55.0098C55.0098 37.02 55.5398 36.17 56.1898 36.17C56.8398 36.17 57.3698 37.02 57.3698 38.07Z" fill="#4F3320"/>
<path d="M59.8698 38.07H57.5098C57.5098 37.02 58.0398 36.17 58.6898 36.17C59.3398 36.17 59.8698 37.02 59.8698 38.07Z" fill="#4F3320"/>
<path d="M62.3798 38.07H60.0198C60.0198 37.02 60.5498 36.17 61.1998 36.17C61.8498 36.17 62.3798 37.02 62.3798 38.07Z" fill="#4F3320"/>
<path d="M64.8798 38.07H62.5198C62.5198 37.02 63.0498 36.17 63.6998 36.17C64.3498 36.17 64.8798 37.02 64.8798 38.07Z" fill="#4F3320"/>
<path d="M67.3798 38.07H65.0198C65.0198 37.02 65.5498 36.17 66.1998 36.17C66.8498 36.17 67.3798 37.02 67.3798 38.07Z" fill="#4F3320"/>
<path d="M69.8798 38.07H67.5198C67.5198 37.37 67.7497 36.77 68.0997 36.44C68.3197 36.45 68.7597 36.48 69.3597 36.5C69.6797 36.84 69.8798 37.42 69.8798 38.08V38.07Z" fill="#4F3320"/>
<path d="M72.3898 38.07H70.0298C70.0298 37.42 70.2297 36.86 70.5397 36.51H70.6998C71.1098 36.51 71.4998 36.51 71.8798 36.5C72.1898 36.84 72.3998 37.42 72.3998 38.07H72.3898Z" fill="#4F3320"/>
<path d="M74.6498 36.93C74.3198 37.31 73.9498 37.69 73.5598 38.07H72.5198C72.5198 37.38 72.7498 36.77 73.0898 36.44C73.4798 36.42 73.8498 36.39 74.1998 36.35C74.3798 36.48 74.5298 36.68 74.6398 36.93H74.6498Z" fill="#4F3320"/>
<path d="M29.8599 38.07H28.6299C28.2899 37.74 27.9599 37.41 27.6699 37.08C27.7799 36.77 27.95 36.53 28.15 36.37C28.51 36.4 28.8899 36.43 29.2899 36.45C29.6299 36.78 29.8499 37.38 29.8499 38.07H29.8599Z" fill="#4F3320"/>
<path d="M32.3597 38.07H29.9998C29.9998 37.42 30.1998 36.84 30.5198 36.5C30.8398 36.5 31.1798 36.5 31.5098 36.5C31.6298 36.5 31.7397 36.5 31.8497 36.5C32.1597 36.84 32.3597 37.42 32.3597 38.06V38.07Z" fill="#4F3320"/>
<path d="M34.8597 38.07H32.4998C32.4998 37.41 32.7098 36.83 33.0298 36.49C33.7498 36.47 34.1997 36.43 34.2297 36.43H34.2598C34.6198 36.75 34.8597 37.37 34.8597 38.07Z" fill="#4F3320"/>
<path d="M37.3698 38.07H35.0098C35.0098 37.02 35.5398 36.17 36.1898 36.17C36.8398 36.17 37.3698 37.02 37.3698 38.07Z" fill="#4F3320"/>
<path d="M39.8698 38.07H37.5098C37.5098 37.02 38.0398 36.17 38.6898 36.17C39.3398 36.17 39.8698 37.02 39.8698 38.07Z" fill="#4F3320"/>
<path d="M42.3698 38.07H40.0098C40.0098 37.02 40.5398 36.17 41.1898 36.17C41.8398 36.17 42.3698 37.02 42.3698 38.07Z" fill="#4F3320"/>
<path d="M44.8698 38.07H42.5098C42.5098 37.02 43.0398 36.17 43.6898 36.17C44.3398 36.17 44.8698 37.02 44.8698 38.07Z" fill="#4F3320"/>
<path d="M47.3798 38.07H45.0198C45.0198 37.02 45.5498 36.17 46.1998 36.17C46.8498 36.17 47.3798 37.02 47.3798 38.07Z" fill="#4F3320"/>
<path d="M49.8798 38.07H47.5198C47.5198 37.02 48.0498 36.17 48.6998 36.17C49.3498 36.17 49.8798 37.02 49.8798 38.07Z" fill="#4F3320"/>
<path d="M51.0197 36.17H48.6597C48.6597 35.12 49.1897 34.27 49.8397 34.27C50.4897 34.27 51.0197 35.12 51.0197 36.17Z" fill="#4F3320"/>
<path d="M53.5197 36.17H51.1597C51.1597 35.12 51.6897 34.27 52.3397 34.27C52.9897 34.27 53.5197 35.12 53.5197 36.17Z" fill="#4F3320"/>
<path d="M56.03 36.17H53.6699C53.6699 35.12 54.1999 34.27 54.8499 34.27C55.4999 34.27 56.03 35.12 56.03 36.17Z" fill="#4F3320"/>
<path d="M58.53 36.17H56.1699C56.1699 35.12 56.6999 34.27 57.3499 34.27C57.9999 34.27 58.53 35.12 58.53 36.17Z" fill="#4F3320"/>
<path d="M61.03 36.17H58.6699C58.6699 35.12 59.1999 34.27 59.8499 34.27C60.4999 34.27 61.03 35.12 61.03 36.17Z" fill="#4F3320"/>
<path d="M63.53 36.17H61.1699C61.1699 35.12 61.6999 34.27 62.3499 34.27C62.9999 34.27 63.53 35.12 63.53 36.17Z" fill="#4F3320"/>
<path d="M66.0397 36.17H63.6797C63.6797 35.16 64.1697 34.34 64.7797 34.28C65.1697 34.53 65.5097 34.78 65.7897 35C65.9497 35.32 66.0397 35.73 66.0397 36.17Z" fill="#4F3320"/>
<path d="M67.1897 36.17H66.1797C66.1797 35.9 66.2197 35.64 66.2797 35.4C66.5997 35.67 66.7697 35.85 66.7797 35.86L66.9197 36L67.1997 36.18L67.1897 36.17Z" fill="#4F3320"/>
<path d="M36.0198 36.17H34.9998L35.2698 36L35.4097 35.85C35.4097 35.85 35.5897 35.67 35.9097 35.39C35.9697 35.63 36.0098 35.89 36.0098 36.17H36.0198Z" fill="#4F3320"/>
<path d="M38.5197 36.17H36.1597C36.1597 35.72 36.2497 35.31 36.4197 34.99C36.6997 34.77 37.0397 34.53 37.4197 34.28C38.0297 34.34 38.5197 35.16 38.5197 36.17Z" fill="#4F3320"/>
<path d="M41.03 36.17H38.6699C38.6699 35.12 39.1999 34.27 39.8499 34.27C40.4999 34.27 41.03 35.12 41.03 36.17Z" fill="#4F3320"/>
<path d="M43.53 36.17H41.1699C41.1699 35.12 41.6999 34.27 42.3499 34.27C42.9999 34.27 43.53 35.12 43.53 36.17Z" fill="#4F3320"/>
<path d="M46.03 36.17H43.6699C43.6699 35.12 44.1999 34.27 44.8499 34.27C45.4999 34.27 46.03 35.12 46.03 36.17Z" fill="#4F3320"/>
<path d="M48.53 36.17H46.1699C46.1699 35.12 46.6999 34.27 47.3499 34.27C47.9999 34.27 48.53 35.12 48.53 36.17Z" fill="#4F3320"/>
<path d="M52.2599 34.27H49.8999C49.8999 33.22 50.4299 32.37 51.0799 32.37C51.7299 32.37 52.2599 33.22 52.2599 34.27Z" fill="#4F3320"/>
<path d="M54.7697 34.27H52.4097C52.4097 33.22 52.9397 32.37 53.5897 32.37C54.2397 32.37 54.7697 33.22 54.7697 34.27Z" fill="#4F3320"/>
<path d="M57.2697 34.27H54.9097C54.9097 33.22 55.4397 32.37 56.0897 32.37C56.7397 32.37 57.2697 33.22 57.2697 34.27Z" fill="#4F3320"/>
<path d="M59.7697 34.26H57.4097C57.4097 33.21 57.9397 32.36 58.5897 32.36H58.6097C59.2597 32.37 59.7797 33.22 59.7797 34.26H59.7697Z" fill="#4F3320"/>
<path d="M62.2697 34.27H59.9097C59.9097 33.39 60.2797 32.66 60.7797 32.44C61.0497 32.52 61.3197 32.62 61.5897 32.71C61.6697 32.74 61.7497 32.76 61.8297 32.79C62.0997 33.14 62.2797 33.67 62.2797 34.27H62.2697Z" fill="#4F3320"/>
<path d="M64.7597 34.27H62.4097C62.4097 33.83 62.4997 33.44 62.6497 33.12C63.4497 33.47 64.1597 33.88 64.7497 34.27H64.7597Z" fill="#4F3320"/>
<path d="M39.7697 34.27H37.4297C38.0197 33.88 38.7197 33.48 39.5197 33.12C39.6697 33.44 39.7597 33.84 39.7597 34.27H39.7697Z" fill="#4F3320"/>
<path d="M42.2697 34.27H39.9097C39.9097 33.67 40.0797 33.14 40.3497 32.79C40.4297 32.76 40.5197 32.73 40.5997 32.7C40.8697 32.61 41.1397 32.52 41.3997 32.44C41.8997 32.66 42.2597 33.4 42.2597 34.27H42.2697Z" fill="#4F3320"/>
<path d="M44.7697 34.27H42.4097C42.4097 33.22 42.9397 32.37 43.5897 32.37C44.2397 32.37 44.7697 33.22 44.7697 34.27Z" fill="#4F3320"/>
<path d="M47.2697 34.27H44.9097C44.9097 33.22 45.4397 32.37 46.0897 32.37C46.7397 32.37 47.2697 33.22 47.2697 34.27Z" fill="#4F3320"/>
<path d="M49.78 34.27H47.4199C47.4199 33.22 47.9499 32.37 48.5999 32.37C49.2499 32.37 49.78 33.22 49.78 34.27Z" fill="#4F3320"/>
<path d="M50.9599 32.36H48.5999C48.5999 31.72 48.7999 31.15 49.0999 30.81C49.5299 30.77 49.9499 30.75 50.3799 30.73C50.7199 31.06 50.9499 31.67 50.9499 32.36H50.9599Z" fill="#4F3320"/>
<path d="M53.4599 32.36H51.0999C51.0999 31.67 51.3299 31.06 51.6799 30.73C52.1099 30.74 52.5299 30.77 52.9599 30.8C53.2699 31.14 53.4698 31.72 53.4698 32.36H53.4599Z" fill="#4F3320"/>
<path d="M55.9599 32.36H53.5999C53.5999 31.78 53.7699 31.25 54.0299 30.9C54.5799 30.96 55.1299 31.04 55.6999 31.14C55.8699 31.47 55.9698 31.89 55.9698 32.36H55.9599Z" fill="#4F3320"/>
<path d="M58.4698 32.36H56.1099C56.1099 31.95 56.1899 31.57 56.3299 31.26C57.0099 31.39 57.6999 31.55 58.4099 31.73C58.4499 31.93 58.4799 32.14 58.4799 32.35L58.4698 32.36Z" fill="#4F3320"/>
<path d="M60.5599 32.36H58.6099C58.6099 32.17 58.6299 31.98 58.6599 31.8C59.2799 31.97 59.9099 32.15 60.5599 32.36Z" fill="#4F3320"/>
<path d="M43.4698 32.36H41.6399C42.2499 32.16 42.8399 31.99 43.4199 31.83C43.4499 32 43.4698 32.17 43.4698 32.36Z" fill="#4F3320"/>
<path d="M45.9698 32.36H43.6099C43.6099 32.15 43.6299 31.95 43.6699 31.77C44.3899 31.58 45.0799 31.42 45.7599 31.28C45.8899 31.59 45.9698 31.96 45.9698 32.36Z" fill="#4F3320"/>
<path d="M48.4698 32.36H46.1099C46.1099 31.91 46.2099 31.49 46.3699 31.17C46.9399 31.07 47.4999 30.98 48.0499 30.92C48.3099 31.27 48.4698 31.79 48.4698 32.37V32.36Z" fill="#4F3320"/>
</svg>
