<svg width="102" height="102" viewBox="0 0 102 102" fill="none" xmlns="http://www.w3.org/2000/svg">
<path d="M92.48 0.650024H8.89001C4.10171 0.650024 0.219971 4.53173 0.219971 9.32004V92.91C0.219971 97.6983 4.10171 101.58 8.89001 101.58H92.48C97.2683 101.58 101.15 97.6983 101.15 92.91V9.32004C101.15 4.53173 97.2683 0.650024 92.48 0.650024Z" fill="#E57D25"/>
<path d="M50.42 83.75C49.92 83.75 49.43 83.43 49.21 82.95C49.18 82.89 48.97 82.43 48.85 81.81C48.83 81.81 48.82 81.81 48.8 81.81C48.31 81.81 47.89 81.71 47.82 81.69C47.25 81.55 46.83 81.03 46.85 80.45C46.87 79.87 47.25 79.38 47.83 79.27C47.83 79.27 47.99 79.21 48.07 79.1C47.99 78.89 47.74 78.49 47.56 78.21C47.47 78.06 47.37 77.91 47.28 77.76C40.29 76.3 30.37 70.54 27.75 62.97C26.53 64.3 24.57 65.05 22.33 65.05C22.18 65.05 22.02 65.05 21.86 65.04C16.9 64.81 14.74 62.61 13.9 61.32C13.06 60.03 12.74 59.02 12.74 57.62C12.74 55.85 13.52 55.01 15.15 53.91C15.25 53.79 15.38 53.69 15.53 53.62C15.65 53.5533 15.7833 53.4767 15.93 53.39C16.17 53.25 16.66 52.97 17.82 52.3C20.09 50.99 22.33 49.1 23.68 47.36C24.66 46.08 26.72 43.99 28.53 42.15C29.54 41.13 30.49 40.16 30.99 39.59C31.71 38.78 32.63 38.23 33.45 37.86C33.4 37.54 33.34 37.23 33.28 36.92C32.86 35 32.09 33.23 30.97 31.64C30.42 30.85 29.77 30.1 29.05 29.4C28.44 28.81 27.75 28.25 26.98 27.74C25.52 26.76 23.8 25.91 21.72 25.15C20.57 24.73 19.5 24.4 18.57 24.12C18.03 23.95 17.56 23.81 17.16 23.67C15.85 23.23 15.26 22.08 15.27 21.21C15.28 20.47 15.7 19.86 16.35 19.67C18.9 18.89 21.39 18.49 23.74 18.49C23.96 18.49 24.19 18.49 24.4 18.5C26.89 18.58 29.27 19.11 31.48 20.08C33.71 21.05 35.8 22.49 37.69 24.34C39.19 25.8 40.56 27.54 41.79 29.5C42.81 31.13 43.58 32.69 44.14 33.96C44.52 33.39 45.03 32.87 45.77 32.43C47.2 31.56 48.16 31.47 48.34 31.46C48.36 31.46 48.39 31.46 48.41 31.46C48.78 31.46 49.13 31.62 49.37 31.91C50.73 31.3 52.15 31.18 53.4 31.15C53.45 31.15 53.51 31.15 53.56 31.15C55.12 31.15 56.31 31.65 56.44 31.7C56.96 31.93 57.27 32.48 57.18 33.05C57.09 33.61 56.63 34.04 56.06 34.09C55.97 34.09 55.84 34.12 55.69 34.16C56.08 34.32 56.41 34.49 56.61 34.65C56.87 34.85 57.12 35.07 57.35 35.33C57.9 33.91 58.84 31.78 60.26 29.51C61.49 27.55 62.87 25.81 64.36 24.35C66.25 22.5 68.34 21.06 70.57 20.09C72.78 19.12 75.16 18.59 77.64 18.51C77.86 18.51 78.08 18.5 78.31 18.5C80.66 18.5 83.14 18.9 85.69 19.68C86.33 19.88 86.76 20.48 86.77 21.22C86.78 22.09 86.2 23.24 84.88 23.68C84.47 23.82 84 23.96 83.45 24.13C82.52 24.42 81.46 24.74 80.31 25.16C78.23 25.92 76.51 26.77 75.05 27.75C74.28 28.26 73.59 28.82 72.98 29.41C72.26 30.1 71.62 30.86 71.06 31.65C69.95 33.23 69.17 35.01 68.75 36.93C68.66 37.35 68.59 37.77 68.53 38.2C69.24 38.59 69.84 39.06 70.32 39.6C70.82 40.16 71.76 41.12 72.76 42.14C74.58 43.99 76.64 46.09 77.63 47.37C78.97 49.11 81.21 51 83.48 52.31L84.42 52.85C84.92 53.12 85.39 53.38 85.81 53.65C85.85 53.67 85.88 53.69 85.91 53.71L85.94 53.73C86.04 53.79 86.13 53.85 86.22 53.91C87.87 55.02 88.66 55.86 88.66 57.63C88.66 59.03 88.35 60.04 87.5 61.33C86.66 62.62 84.5 64.83 79.54 65.05C79.38 65.05 79.23 65.06 79.07 65.06C76.82 65.06 74.85 64.29 73.63 62.95C72.4 66.85 69.48 69.87 67.04 71.82C63.66 74.52 59.45 76.59 55.36 77.56C54.8 79.41 53.17 80.75 52.19 81.57C51.99 81.74 51.74 81.94 51.64 82.04C51.61 82.11 51.6 82.17 51.59 82.2C51.8 82.82 51.47 83.42 50.87 83.68C50.73 83.74 50.58 83.77 50.44 83.77L50.42 83.75Z" fill="#2F150C"/>
<path d="M85.5 54.9301C85.4 54.8601 85.28 54.7901 85.17 54.7201C85.17 54.7201 85.17 54.7201 85.16 54.7201C85.16 54.7201 85.16 54.7201 85.15 54.7201C84.74 54.4701 84.29 54.2001 83.8 53.9401C83.55 53.7901 83.24 53.6101 82.84 53.3901C80.52 52.0501 78.12 50.0801 76.62 48.1301C75.12 46.1801 70.77 42.0001 69.37 40.4301C68.78 39.7701 67.99 39.2901 67.18 38.9501C67.24 38.2401 67.34 37.4701 67.51 36.6701C67.91 34.8601 68.66 32.8801 70.02 30.9401C70.6 30.1201 71.28 29.3101 72.09 28.5201C72.79 27.8401 73.54 27.2501 74.33 26.7201C76.13 25.5101 78.08 24.6401 79.86 24.0001C81.71 23.3201 83.37 22.8801 84.45 22.5101C85.55 22.1401 85.68 21.0001 85.29 20.8801C82.49 20.0201 79.95 19.6901 77.65 19.7601C75.18 19.8401 72.98 20.3801 71.04 21.2301C68.76 22.2301 66.83 23.6501 65.21 25.2401C63.62 26.8001 62.33 28.5201 61.29 30.1701C59.26 33.4101 58.25 36.3601 57.99 37.1801C57.68 37.1201 57.37 37.0601 57.04 37.0001C56.73 36.5001 56.33 36.0201 55.82 35.6301C55.42 35.3201 53.87 34.7301 53.09 35.1101C52.11 35.5701 50.84 35.6001 50.84 35.6001C50.84 35.6001 52.39 35.1201 52.98 34.3601C54.01 33.0101 55.92 32.8401 55.92 32.8401C55.92 32.8401 54.81 32.3601 53.41 32.3901C52.01 32.4201 50.43 32.5601 49.02 33.4901C47.96 34.1901 47.47 34.9301 47.47 34.9301L48.39 32.7001C48.39 32.7001 47.63 32.7401 46.4 33.4901C44.97 34.3601 44.63 35.5301 44.32 36.9301C44.2 36.9501 44.07 36.9701 43.95 36.9901C43.62 35.9801 42.61 33.2001 40.7 30.1501C39.67 28.5001 38.38 26.7801 36.79 25.2201C35.17 23.6301 33.23 22.2101 30.96 21.2101C29.02 20.3601 26.81 19.8101 24.34 19.7401C22.04 19.6701 19.5 20.0001 16.7 20.8601C16.32 20.9801 16.45 22.1201 17.54 22.4901C18.62 22.8601 20.28 23.3001 22.13 23.9801C23.91 24.6301 25.86 25.4901 27.66 26.7001C28.45 27.2301 29.2 27.8201 29.9 28.5001C30.71 29.2901 31.4 30.1001 31.97 30.9201C33.33 32.8601 34.08 34.8401 34.48 36.6501C34.63 37.3601 34.73 38.0401 34.79 38.6701C33.76 39.0001 32.66 39.5601 31.9 40.4101C30.5 41.9801 26.15 46.1601 24.65 48.1101C23.15 50.0601 20.75 52.0301 18.43 53.3701C16.11 54.7101 16.5 54.4901 16.11 54.7101C16.06 54.7401 16.06 54.7601 16.08 54.7901C16.01 54.8401 15.93 54.8901 15.86 54.9301C14.28 55.9801 13.98 56.5101 13.98 57.6201C13.98 58.7301 14.19 59.4901 14.94 60.6401C15.69 61.7901 17.57 63.6001 21.91 63.8001C24.17 63.9001 25.98 63.1401 26.95 61.9801C27.43 61.4001 27.92 60.5201 28.34 59.5001C28.35 59.8301 28.37 60.1501 28.41 60.4701C29.49 68.6501 40.54 75.3001 48.06 76.6401C48.58 77.6501 49.52 78.6501 49.28 79.4001C49.01 80.2601 48.11 80.4901 48.11 80.4901C48.11 80.4901 48.85 80.6801 49.38 80.4701C49.67 80.3601 49.9 80.1701 50.08 79.9601C50.22 79.7901 50.33 79.6101 50.41 79.4501C50.42 79.4301 50.43 79.4001 50.44 79.3801C50.21 79.9401 49.96 80.6701 49.99 81.0701C50.04 81.7901 50.34 82.4301 50.34 82.4301C50.34 82.4301 50.22 81.9301 50.56 81.3401C50.9 80.7501 53.61 79.2401 54.18 77.0301C54.22 76.8701 54.25 76.6801 54.27 76.5001C62.31 74.8801 71.94 68.3701 72.87 60.4201C72.89 60.3101 72.9 60.2001 72.9 60.0901C72.92 59.8301 72.93 59.5701 72.94 59.3101C73.38 60.4101 73.9 61.3701 74.41 61.9801C75.39 63.1501 77.2 63.9101 79.45 63.8001C83.79 63.6001 85.67 61.7901 86.42 60.6401C87.17 59.4901 87.38 58.7301 87.38 57.6201C87.38 56.5101 87.07 55.9901 85.5 54.9301Z" fill="#2F150C"/>
<path d="M15.86 54.9301C14.28 55.9801 13.98 56.5101 13.98 57.6201C13.98 58.7301 14.19 59.4901 14.94 60.6401C15.69 61.7901 17.57 63.6001 21.91 63.8001C24.17 63.9001 25.98 63.1401 26.95 61.9801C27.96 60.7801 28.99 58.2801 29.36 55.9101C29.73 53.5401 29.36 50.8301 29.85 50.6101C30.33 50.3901 31.16 48.8901 27.56 49.9401C23.96 50.9901 18.52 53.1501 15.86 54.9301Z" fill="#D69891"/>
<path d="M27.41 51.4801C26.44 52.2301 26.59 52.3501 25.91 52.7101C25.24 53.0701 24.3401 53.2201 24.3401 53.2201C24.3401 53.2201 24.7901 53.7001 25.3701 53.7701C25.9501 53.8401 26.8101 53.5201 26.8101 53.5201C26.8101 53.5201 25.5301 53.5801 25.7601 55.9601C25.8501 56.9201 26.2101 57.0801 26.2101 57.0801C26.2101 57.0801 26.5101 55.9501 26.8801 55.3701C27.2501 54.8001 27.6301 54.3701 27.6301 54.3701C27.6301 54.3701 28.1501 54.9601 28.0801 55.8101C28.0101 56.6601 27.72 57.0801 27.72 57.0801C27.72 57.0801 29.0401 56.4801 29.4501 55.1201C30.0301 53.2001 30.0501 50.3201 29.7501 50.3401C28.3901 50.4601 27.41 51.4801 27.41 51.4801Z" fill="#483C2C"/>
<path d="M85.4999 54.9301C87.0699 55.9801 87.3799 56.5101 87.3799 57.6201C87.3799 58.7301 87.1698 59.4901 86.4198 60.6401C85.6698 61.7901 83.7899 63.6001 79.4499 63.8001C77.1899 63.9001 75.3798 63.1401 74.4098 61.9801C73.4098 60.7801 72.3699 58.2801 71.9999 55.9101C71.6299 53.5401 71.9999 50.8301 71.5099 50.6101C71.0299 50.3901 70.1999 48.8901 73.7999 49.9401C77.3999 50.9901 82.8399 53.1501 85.4999 54.9301Z" fill="#D69891"/>
<path d="M74.0599 51.4801C75.0299 52.2301 74.8799 52.3501 75.5599 52.7101C76.2299 53.0701 77.1299 53.2201 77.1299 53.2201C77.1299 53.2201 76.6799 53.7001 76.0999 53.7701C75.5199 53.8401 74.6599 53.5201 74.6599 53.5201C74.6599 53.5201 75.9399 53.5801 75.7099 55.9601C75.6199 56.9201 75.2599 57.0801 75.2599 57.0801C75.2599 57.0801 74.9599 55.9501 74.5899 55.3701C74.2199 54.8001 73.8399 54.3701 73.8399 54.3701C73.8399 54.3701 73.3199 54.9601 73.3899 55.8101C73.4599 56.6601 73.7599 57.0801 73.7599 57.0801C73.7599 57.0801 72.4399 56.4801 72.0299 55.1201C71.4499 53.2001 71.4299 50.3201 71.7299 50.3401C73.0899 50.4601 74.0699 51.4801 74.0699 51.4801H74.0599Z" fill="#483C2C"/>
<path d="M85.16 54.71C84.77 54.49 85.16 54.71 82.84 53.37C80.52 52.03 78.12 50.06 76.62 48.11C75.12 46.16 70.77 41.98 69.37 40.41C67.97 38.84 65.45 38.28 64.25 38.24C64.25 38.24 62.75 38.14 60.36 38.22C57.85 37.14 54.68 36.36 50.67 36.4H50.62C46.61 36.37 43.44 37.14 40.93 38.22C38.53 38.13 37.04 38.24 37.04 38.24C35.84 38.28 33.32 38.83 31.92 40.41C30.52 41.98 26.17 46.16 24.67 48.11C23.17 50.06 20.77 52.03 18.45 53.37C16.13 54.71 16.52 54.49 16.13 54.71C15.66 54.97 19.05 55.16 22.57 53.81C25.81 52.57 27.66 51.58 29.51 50.73C29.06 52.3 36.54 71.36 42.19 72.96C46.39 74.15 46.6 75.65 50.43 75.65H50.45H50.53H50.6H50.66H50.7199H50.79H50.87H50.89C54.72 75.65 54.92 74.15 59.13 72.96C64.78 71.36 72.26 52.3 71.81 50.73C73.66 51.58 75.5 52.57 78.75 53.81C82.27 55.16 85.67 54.97 85.19 54.71" fill="#77502F"/>
<path d="M24.34 19.7401C24.34 21.4701 23.34 23.3701 22.13 23.9801C20.28 23.3001 18.62 22.8601 17.54 22.4901C16.44 22.1201 16.32 20.9801 16.7 20.8601C19.5 20.0001 22.04 19.6701 24.34 19.7401Z" fill="#E5D1AE"/>
<path d="M30.96 21.21C30.92 23.5 29.51 25.77 27.67 26.7C25.87 25.49 23.91 24.62 22.14 23.98C23.34 23.37 24.34 21.47 24.35 19.74C26.82 19.82 29.02 20.36 30.97 21.21H30.96Z" fill="#D8C4A6"/>
<path d="M36.7899 25.2201C36.7899 27.9601 35.0999 29.9501 31.9699 30.9201C31.3999 30.1001 30.71 29.2901 29.9 28.5001C29.2 27.8201 28.4499 27.2301 27.6599 26.7001C29.4999 25.7701 30.92 23.5101 30.95 21.2101C33.23 22.2101 35.16 23.6301 36.78 25.2201H36.7899Z" fill="#E5D1AE"/>
<path d="M40.71 30.1501C40.71 32.8901 37.63 35.6801 34.49 36.6501C34.1 34.8401 33.34 32.8601 31.98 30.9201C35.11 29.9501 36.8 27.9601 36.8 25.2201C38.39 26.7801 39.68 28.5001 40.71 30.1501Z" fill="#D8C4A6"/>
<path d="M44.08 37.39C44.08 37.39 40.68 38.62 39.64 39.22C35.89 41.43 34.61 43.38 34.54 43.49C34.57 43.37 35.3 40.4 34.47 36.65C37.62 35.68 40.69 32.89 40.69 30.15C43.09 33.98 44.06 37.39 44.06 37.39H44.08Z" fill="#E5D1AE"/>
<path d="M77.6499 19.7401C77.6499 21.4701 78.6599 23.3701 79.8599 23.9801C81.7099 23.3001 83.3699 22.8601 84.4499 22.4901C85.5499 22.1201 85.6799 20.9801 85.2899 20.8601C82.4899 20.0001 79.9499 19.6701 77.6499 19.7401Z" fill="#E5D1AE"/>
<path d="M71.04 21.22C71.07 23.52 72.4901 25.78 74.3301 26.71C76.1301 25.5 78.08 24.63 79.86 23.99C78.66 23.38 77.6601 21.48 77.6501 19.75C75.1801 19.83 72.98 20.37 71.04 21.22Z" fill="#D8C4A6"/>
<path d="M65.21 25.2201C65.21 27.9601 66.89 29.9501 70.02 30.9201C70.6 30.1001 71.28 29.2901 72.09 28.5001C72.79 27.8201 73.54 27.2301 74.33 26.7001C72.49 25.7701 71.0699 23.5101 71.0399 21.2101C68.7599 22.2101 66.83 23.6301 65.21 25.2201Z" fill="#E5D1AE"/>
<path d="M61.29 30.1501C61.29 32.8901 64.3701 35.6801 67.5101 36.6501C67.9101 34.8401 68.6601 32.8601 70.0201 30.9201C66.8901 29.9501 65.2101 27.9601 65.2101 25.2201C63.6201 26.7801 62.33 28.5001 61.29 30.1501Z" fill="#D8C4A6"/>
<path d="M57.9199 37.4C57.9199 37.4 61.3199 38.63 62.3499 39.23C66.0999 41.44 67.38 43.39 67.45 43.5C67.42 43.38 66.6899 40.41 67.5099 36.66C64.3599 35.69 61.2899 32.9 61.2899 30.16C58.8899 33.99 57.9199 37.4 57.9199 37.4Z" fill="#E5D1AE"/>
<path d="M72.9501 59.1701C72.9501 59.4801 72.93 59.7801 72.91 60.0801C72.91 60.1901 72.8901 60.3001 72.8801 60.4101C71.8201 69.5101 59.35 76.7201 50.92 76.8801C50.83 76.8801 50.7401 76.8801 50.6401 76.8801C43.4001 76.8801 29.63 69.6401 28.42 60.4601C28.36 60.0301 28.3401 59.6001 28.3401 59.1601C28.3401 50.5301 31.77 44.0301 35.54 40.6601C38.41 38.0901 42.8201 36.4701 50.6501 36.4701C58.0101 36.4701 62.8501 38.1301 65.7601 40.6601C69.5701 43.9801 72.9601 50.5301 72.9601 59.1601" fill="#77502F"/>
<path d="M50.64 76.7601C47.33 76.7601 42.38 74.8001 38.33 71.8901C33.68 68.5501 30.75 64.4001 30.28 60.5101C30.23 60.1301 30.21 59.7401 30.21 59.3401C30.21 51.5501 35.2599 42.1201 36.8499 40.5801C38.0899 39.3801 44.37 36.4801 50.64 36.4801C56.56 36.4801 63.13 39.3501 64.45 40.6001C66.09 42.1501 71.08 51.5701 71.08 59.3401C71.08 59.6201 71.0699 59.9101 71.0499 60.1801C71.0499 60.2801 71.03 60.3901 71.02 60.4901C70.05 69.5501 58.13 76.6101 50.89 76.7501H50.9199H50.64" fill="#8C6237"/>
<path d="M32.5 56.0901C32.5 56.0901 36.81 65.0001 40.51 65.0001C43.34 65.0001 46.87 63.5501 46.87 63.5501C46.87 63.5501 48.37 48.7001 40.18 48.2301C36.49 48.0201 32.5 56.0901 32.5 56.0901Z" fill="#77502F"/>
<path d="M68.8501 56.0901C68.8501 56.0901 64.5401 65.0001 60.8501 65.0001C58.0201 65.0001 54.4901 63.5501 54.4901 63.5501C54.4901 63.5501 52.9901 48.7001 61.1801 48.2301C64.8701 48.0201 68.8601 56.0901 68.8601 56.0901" fill="#77502F"/>
<path d="M69.27 54.3601C67.88 53.4801 64.25 52.6001 61.65 52.8101C57.34 53.1701 55.06 54.7601 53.86 57.9301C52.93 60.3801 53.31 62.2001 53.84 62.9401C54.37 63.6801 55.82 65.3001 58.18 65.4701C60.54 65.6401 64.52 65.7701 66.96 64.2001C69.4 62.6301 70.29 61.0501 70.37 59.4001C70.44 57.7501 69.28 54.3501 69.28 54.3501" fill="#FFFDFA"/>
<path d="M32 54.3601C33.39 53.4801 37.02 52.6001 39.62 52.8101C43.93 53.1701 46.21 54.7601 47.41 57.9301C48.35 60.3801 47.96 62.2001 47.43 62.9401C46.9 63.6801 45.45 65.3001 43.09 65.4701C40.73 65.6401 36.75 65.7701 34.31 64.2001C31.87 62.6301 30.98 61.0501 30.9 59.4001C30.83 57.7501 31.99 54.3501 31.99 54.3501" fill="#FFFDFA"/>
<path d="M36.49 50.1801C36.49 50.1801 36.5 50.1401 36.54 50.0801C36.57 50.0201 36.62 49.9201 36.69 49.8201C36.76 49.7101 36.85 49.5801 36.97 49.4401C37.09 49.3101 37.23 49.1401 37.4 49.0001C37.48 48.9301 37.57 48.8501 37.67 48.7701C37.77 48.7001 37.88 48.6301 37.99 48.5601C38.1 48.4801 38.22 48.4301 38.35 48.3601C38.47 48.3001 38.6 48.2301 38.74 48.1801C39.01 48.0801 39.3 47.9801 39.61 47.9401C39.91 47.8701 40.23 47.8701 40.55 47.8701C40.87 47.8701 41.17 47.9501 41.48 48.0001C41.77 48.0901 42.06 48.1901 42.33 48.3001C42.58 48.4401 42.82 48.5801 43.04 48.7101C43.25 48.8601 43.43 49.0301 43.6 49.1701C43.68 49.2501 43.76 49.3201 43.83 49.3901C43.9 49.4601 43.96 49.5401 44.01 49.6101C44.13 49.7501 44.22 49.8801 44.29 49.9801C44.44 50.1901 44.51 50.3201 44.51 50.3201C44.51 50.3201 44.36 50.2701 44.13 50.1701C44.01 50.1201 43.87 50.0601 43.72 49.9901C43.57 49.9101 43.39 49.8501 43.2 49.7801C43.01 49.7101 42.81 49.6201 42.6 49.5401C42.38 49.4801 42.16 49.4101 41.93 49.3301C41.7 49.2801 41.46 49.2401 41.22 49.1801C41.1 49.1701 40.98 49.1601 40.85 49.1401C40.73 49.1301 40.61 49.1001 40.49 49.1101C40.25 49.1101 40 49.1001 39.76 49.1301C39.64 49.1501 39.52 49.1301 39.4 49.1701C39.28 49.1901 39.17 49.2101 39.05 49.2301C38.93 49.2401 38.82 49.2901 38.71 49.3101C38.6 49.3401 38.49 49.3601 38.38 49.4001C38.17 49.4701 37.96 49.5301 37.77 49.6001C37.58 49.6601 37.41 49.7401 37.25 49.8001C37.1 49.8801 36.96 49.9301 36.85 49.9801C36.73 50.0301 36.65 50.0801 36.58 50.1101C36.52 50.1401 36.48 50.1601 36.48 50.1601L36.49 50.1801Z" fill="#473B2B"/>
<path d="M64.9299 50.1801C64.9299 50.1801 64.8999 50.1601 64.8299 50.1301C64.7699 50.1001 64.6799 50.0601 64.5599 50.0001C64.4499 49.9401 64.2999 49.8901 64.1599 49.8201C63.9999 49.7601 63.8299 49.6801 63.6399 49.6201C63.4499 49.5401 63.2499 49.4801 63.0299 49.4201C62.9199 49.3801 62.8099 49.3601 62.6999 49.3301C62.5899 49.3101 62.4799 49.2601 62.3599 49.2501C62.2399 49.2301 62.1299 49.2101 62.0099 49.1901C61.8899 49.1601 61.7699 49.1701 61.6499 49.1501C61.4099 49.1201 61.1599 49.1301 60.9199 49.1301C60.7999 49.1201 60.6799 49.1501 60.5499 49.1601C60.4299 49.1801 60.3099 49.1801 60.1899 49.2001C59.9499 49.2601 59.7199 49.3001 59.4799 49.3501C59.2599 49.4301 59.0299 49.5001 58.8099 49.5601C58.5999 49.6401 58.3999 49.7301 58.2099 49.8001C58.0199 49.8701 57.8399 49.9301 57.6899 50.0101C57.5399 50.0801 57.3999 50.1401 57.2799 50.1901C57.0499 50.2901 56.8999 50.3401 56.8999 50.3401C56.8999 50.3401 56.9699 50.2101 57.1199 50.0001C57.1899 49.9001 57.2899 49.7701 57.3999 49.6301C57.4599 49.5601 57.5199 49.4801 57.5799 49.4101C57.6499 49.3401 57.7299 49.2701 57.8099 49.1901C57.9799 49.0401 58.1599 48.8801 58.3699 48.7301C58.5899 48.5901 58.8299 48.4501 59.0799 48.3201C59.3499 48.2101 59.6299 48.1101 59.9299 48.0201C60.2399 47.9701 60.5499 47.9001 60.8599 47.8901C61.1799 47.8901 61.4899 47.8901 61.7999 47.9601C62.1099 48.0001 62.3999 48.1001 62.6699 48.2001C62.8099 48.2501 62.9299 48.3201 63.0599 48.3801C63.1799 48.4501 63.3099 48.5001 63.4199 48.5801C63.5299 48.6501 63.6299 48.7201 63.7399 48.7901C63.8399 48.8601 63.9199 48.9401 64.0099 49.0201C64.1799 49.1601 64.3199 49.3301 64.4399 49.4601C64.5599 49.6001 64.6498 49.7301 64.7198 49.8401C64.7898 49.9501 64.8399 50.0401 64.8699 50.1001C64.8999 50.1601 64.9199 50.2001 64.9199 50.2001L64.9299 50.1801Z" fill="#473B2B"/>
<path d="M46.8699 63.5501C40.0699 66.7901 35.2799 64.6901 33.1299 56.2901C33.1299 56.2901 41.3099 49.9401 45.6499 58.0801C46.3199 59.3401 46.8699 63.5401 46.8699 63.5401" fill="white"/>
<path d="M40.2999 64.08C38.4099 64.04 36.8299 62.5401 36.2199 60.4601C36.0299 59.8301 35.94 59.1301 35.95 58.4201C36.01 55.5301 37.81 54.4901 40.08 54.4301C40.22 54.4301 40.36 54.4301 40.5 54.4301C42.97 54.4801 44.84 57.0401 44.88 58.6201C44.96 61.6901 42.7599 64.1401 40.2999 64.0901" fill="#ECB61E"/>
<path d="M44.23 37.83C44.59 38.34 45.11 40.72 48.45 39.97C50.36 39.54 52.08 39.95 52.31 40.4C52.53 40.85 52.14 41.51 52.14 41.51C52.14 41.51 52.95 41.09 53.21 40.56C53.6 39.76 53.3 38.66 52.98 38.25L53.39 38.46C53.67 38.85 54.79 38.52 54.82 38.52C55.04 38.46 55.66 38.24 56.51 38.35C57.36 38.46 58.08 39.62 58.08 39.62C58.08 39.62 57.61 37 55.81 35.63C55.41 35.32 53.86 34.73 53.08 35.11C52.1 35.57 50.83 35.6 50.83 35.6C50.83 35.6 52.38 35.12 52.97 34.36C54 33.01 55.91 32.84 55.91 32.84C55.91 32.84 54.8 32.36 53.4 32.39C52 32.42 50.42 32.56 49.01 33.49C47.95 34.19 47.46 34.93 47.46 34.93L48.38 32.7C48.38 32.7 47.62 32.74 46.39 33.49C44.83 34.44 44.57 35.76 44.22 37.34V37.84L44.23 37.83Z" fill="#483C2C"/>
<path d="M40.3101 60.4301C38.8801 60.4301 37.6201 60.0501 37.1101 59.4901C36.9401 59.3101 36.8701 59.1201 36.8801 58.9301C36.9201 58.2801 37.9401 57.9601 40.1001 57.9401C40.2101 57.9401 40.3201 57.9401 40.4201 57.9401H40.4801C42.4201 57.9501 43.9001 58.6401 43.9301 58.9901C43.9601 59.4201 43.5001 59.8201 42.6401 60.1001C41.9901 60.3201 41.1801 60.4401 40.3601 60.4401H40.3001" fill="#6C5221"/>
<path d="M54.46 63.5501C61.26 66.7901 66.05 64.6901 68.2 56.2901C68.2 56.2901 60.0199 49.9401 55.6799 58.0801C55.0099 59.3401 54.46 63.5401 54.46 63.5401" fill="white"/>
<path d="M61.0299 64.08C62.9199 64.04 64.4998 62.5401 65.1098 60.4601C65.2998 59.8301 65.3899 59.1301 65.3799 58.4201C65.3199 55.5301 63.5199 54.4901 61.2499 54.4301C61.1099 54.4301 60.9699 54.4301 60.8299 54.4301C58.3699 54.4801 56.4999 57.0401 56.4499 58.6201C56.3699 61.6901 58.5699 64.1401 61.0299 64.0901" fill="#ECB61E"/>
<path d="M60.9601 60.4301C60.1501 60.4301 59.33 60.3101 58.68 60.0901C57.82 59.8101 57.3601 59.4001 57.3901 58.9801C57.4201 58.6301 58.9 57.9401 60.85 57.9301H60.9001C61.0101 57.9301 61.12 57.9301 61.22 57.9301C63.37 57.9501 64.39 58.2601 64.44 58.9201C64.45 59.1201 64.3801 59.3001 64.2101 59.4801C63.6901 60.0401 62.44 60.4101 61.01 60.4201H60.95" fill="#6C5221"/>
<path d="M40.5899 57.2701C40.5499 59.1301 39.3099 60.62 37.8099 60.58C37.1399 60.56 36.5299 60.2401 36.0599 59.7201C35.8999 59.1701 35.8099 58.5601 35.8299 57.9301C35.8799 55.3901 37.4599 54.4901 39.4399 54.4301C40.1499 55.0501 40.6099 56.0901 40.5899 57.2601" fill="white"/>
<path d="M42.9401 62.65C42.9301 63.28 42.5101 63.78 42.0001 63.77C41.4901 63.77 41.0901 63.24 41.1101 62.61C41.1201 61.98 41.5401 61.48 42.0501 61.49C42.5601 61.5 42.9601 62.02 42.9401 62.65Z" fill="white"/>
<path d="M60.92 57.5501C60.88 59.4101 59.64 60.9001 58.14 60.8601C57.47 60.8501 56.86 60.5201 56.39 60.0001C56.23 59.4501 56.14 58.8401 56.16 58.2101C56.21 55.6701 57.79 54.7701 59.77 54.7101C60.48 55.3301 60.94 56.3701 60.92 57.5401" fill="white"/>
<path d="M63.4499 62.65C63.4299 63.28 63.0099 63.78 62.5099 63.77C61.9999 63.77 61.5999 63.24 61.6199 62.61C61.6399 61.98 62.0499 61.48 62.5599 61.49C63.0699 61.5 63.4699 62.02 63.4499 62.65Z" fill="white"/>
<path d="M45.6401 64.08C46.0401 63.92 46.4501 63.74 46.8601 63.55C46.8601 63.55 46.3101 59.3501 45.6401 58.0901C43.9401 54.9101 41.6601 53.9401 39.5101 53.9401C39.2301 53.9401 38.9501 53.9601 38.6701 53.9901C38.9401 53.9601 39.2301 53.9401 39.5101 53.9401C41.6601 53.9401 43.9501 54.9101 45.6401 58.0901C46.3101 59.3601 46.8601 63.5601 46.8601 63.5601C46.4401 63.7601 46.0401 63.9401 45.6401 64.0901M33.4901 57.58C33.3601 57.17 33.2401 56.74 33.1201 56.3C33.1201 56.3 33.5401 55.97 34.2601 55.55C33.5501 55.96 33.1201 56.3 33.1201 56.3C33.2301 56.75 33.3501 57.17 33.4901 57.58Z" fill="#E2E0DE"/>
<path d="M45.6399 64.08C45.4199 62.88 45.1199 61.54 44.7799 60.91C44.7199 60.8 44.6599 60.68 44.5999 60.57C44.7899 59.96 44.8899 59.3 44.8699 58.6C44.8299 57.03 42.9599 54.47 40.4899 54.41C40.4699 54.41 40.4399 54.41 40.4199 54.41C40.2999 54.41 40.1899 54.41 40.0699 54.41C39.8699 54.41 39.6699 54.43 39.4799 54.45C39.4699 54.44 39.4599 54.43 39.4399 54.42C37.6499 54.47 36.1899 55.21 35.8799 57.22C35.0399 57.5 34.2799 57.86 33.6899 58.19C33.6199 57.99 33.5499 57.78 33.4799 57.56C33.3499 57.15 33.2299 56.72 33.1099 56.28C33.1099 56.28 33.5399 55.95 34.2499 55.53C35.2799 54.93 36.8899 54.16 38.6699 53.96C38.9399 53.93 39.2199 53.91 39.5099 53.91C41.6599 53.91 43.9399 54.88 45.6399 58.06C46.3099 59.32 46.8599 63.52 46.8599 63.52C46.4399 63.72 46.0399 63.9 45.6399 64.05" fill="#E2E1E1"/>
<path d="M44.6 60.58C44.35 60.14 44.08 59.7501 43.81 59.3901C43.9 59.2601 43.95 59.1201 43.94 58.9801C43.92 58.7901 43.47 58.4901 42.75 58.2701C42.06 57.6801 41.33 57.2901 40.6 57.0601C40.57 56.0001 40.14 55.0701 39.49 54.4801C39.68 54.4601 39.88 54.4401 40.08 54.4401C40.2 54.4401 40.31 54.4401 40.43 54.4401C40.45 54.4401 40.48 54.4401 40.5 54.4401C42.97 54.4901 44.84 57.0501 44.88 58.6301C44.9 59.3201 44.8 59.9901 44.61 60.6001" fill="#D7A72D"/>
<path d="M43.81 59.39C43.47 58.95 43.11 58.58 42.75 58.26C43.47 58.49 43.92 58.78 43.94 58.97C43.94 59.11 43.91 59.25 43.81 59.38" fill="#6A5326"/>
<path d="M35.8901 57.2401C36.2001 55.2401 37.6501 54.5001 39.4501 54.4401C39.4601 54.4501 39.4701 54.4601 39.4901 54.4701C40.1401 55.0501 40.5601 55.99 40.6001 57.05C39.9501 56.85 39.3001 56.7601 38.6601 56.7601C37.6901 56.7601 36.7501 56.9601 35.8901 57.2401Z" fill="#E2E1E1"/>
<path d="M55.6799 64.08C55.2799 63.92 54.87 63.75 54.46 63.55C54.46 63.55 55.0099 59.35 55.6799 58.08C55.8899 57.69 56.1 57.3401 56.33 57.0201C56.11 57.3401 55.8999 57.69 55.6899 58.08C55.0199 59.34 54.4699 63.5401 54.4699 63.5401C54.8899 63.7401 55.2899 63.9201 55.6899 64.0701M67.8199 57.6401C67.9599 57.2101 68.09 56.76 68.2 56.3C68.08 56.77 67.9499 57.2101 67.8199 57.6401ZM58.3799 54.9401C59.4899 54.2101 60.6599 53.9401 61.8099 53.9401C62.0899 53.9401 62.37 53.9601 62.65 53.9901C62.38 53.9601 62.0899 53.9401 61.8099 53.9401C60.6699 53.9401 59.49 54.2101 58.39 54.9401" fill="#E2E0DE"/>
<path d="M55.6799 64.08C55.2799 63.92 54.87 63.74 54.46 63.55C54.46 63.55 55.0099 59.3501 55.6799 58.0901C55.8899 57.7001 56.0999 57.3501 56.3199 57.0301C56.2199 57.3801 56.16 57.7801 56.15 58.2301C56.14 58.8601 56.2199 59.4601 56.3799 60.0201C56.4599 60.1101 56.5399 60.1801 56.6199 60.2601C56.6499 60.3701 56.68 60.4801 56.71 60.5901C56.65 60.7001 56.59 60.8101 56.52 60.9301C56.19 61.5501 55.8899 62.9001 55.6699 64.1001M67.6299 58.2101C66.9799 57.8501 66.1499 57.4601 65.2199 57.1801C64.7299 55.2301 63.1599 54.5001 61.2499 54.4401C61.1299 54.4401 61.02 54.4401 60.9 54.4401C60.88 54.4401 60.8499 54.4401 60.8199 54.4401C60.3199 54.4501 59.84 54.5701 59.39 54.7601C59.03 54.7901 58.6899 54.8501 58.3799 54.9501C59.4799 54.2201 60.6599 53.9501 61.7999 53.9501C62.0799 53.9501 62.36 53.9701 62.64 54.0001C64.42 54.2001 66.0399 54.9701 67.0599 55.5701C67.7699 55.9801 68.1899 56.3101 68.1899 56.3101C68.0699 56.7801 67.9399 57.2201 67.8099 57.6501C67.7499 57.8401 67.6899 58.0301 67.6199 58.2201" fill="#E2E1E1"/>
<path d="M56.7198 60.58C56.6898 60.47 56.6499 60.36 56.6299 60.25C56.6899 60.31 56.7599 60.36 56.8299 60.41C56.7999 60.47 56.7599 60.52 56.7299 60.58M65.2198 57.17C64.4298 56.93 63.5599 56.76 62.6699 56.76C62.0799 56.76 61.4799 56.83 60.8899 57C60.7899 56.06 60.3699 55.24 59.7699 54.72C59.6499 54.72 59.5199 54.73 59.3999 54.74C59.8399 54.55 60.3199 54.43 60.8299 54.42C60.8599 54.42 60.8799 54.42 60.9099 54.42C61.0299 54.42 61.1399 54.42 61.2599 54.42C63.1599 54.48 64.7299 55.21 65.2299 57.16" fill="#D7A72D"/>
<path d="M56.83 60.4101C56.76 60.3601 56.7 60.3101 56.63 60.2501C56.55 60.1801 56.47 60.1001 56.39 60.0101C56.23 59.4601 56.14 58.8501 56.16 58.2201C56.16 57.7701 56.23 57.3701 56.33 57.0201C56.97 56.0901 57.66 55.4201 58.39 54.9401C58.71 54.8401 59.05 54.7801 59.4 54.7501C59.52 54.7401 59.64 54.7301 59.77 54.7301C60.37 55.2501 60.79 56.0701 60.89 57.0101C59.44 57.4301 58.01 58.4401 56.83 60.4101Z" fill="#E2E1E1"/>
<path d="M46.87 63.55C46.79 63.13 46.69 62.72 46.6 62.3C46.51 61.89 46.42 61.4701 46.32 61.0601C46.22 60.6501 46.11 60.2401 46 59.8401C45.89 59.4301 45.75 59.0701 45.6 58.6801C45.51 58.5001 45.43 58.2601 45.34 58.1301L45.01 57.61C44.77 57.27 44.54 56.9401 44.26 56.6401C44.13 56.4801 43.99 56.3301 43.85 56.2001C43.71 56.0601 43.56 55.92 43.4 55.8C43.25 55.67 43.09 55.5401 42.92 55.4401C42.76 55.3201 42.59 55.2201 42.41 55.1301C42.07 54.9301 41.7 54.8001 41.33 54.6801C40.96 54.5601 40.57 54.5001 40.18 54.4601C39.79 54.4301 39.39 54.4201 39 54.4601C38.61 54.4901 38.21 54.5701 37.82 54.6501C37.04 54.8401 36.27 55.1101 35.54 55.4701C35.17 55.6501 34.81 55.84 34.46 56.05C34.12 56.26 33.76 56.4801 33.45 56.7101L33.64 56.1501L33.95 57.2501C34.04 57.6201 34.19 57.97 34.31 58.33C34.43 58.69 34.57 59.0501 34.73 59.3901C34.89 59.7301 35.02 60.0901 35.21 60.4101C35.4 60.7301 35.55 61.0901 35.78 61.3801C36 61.6701 36.18 62.01 36.45 62.27C36.7 62.54 36.93 62.8401 37.22 63.0601L37.64 63.4201L38.1 63.7201C38.4 63.9401 38.74 64.0701 39.08 64.2201C39.41 64.3701 39.78 64.43 40.13 64.55C40.5 64.6 40.87 64.6701 41.24 64.6901C41.62 64.6901 42 64.7201 42.38 64.6801C42.75 64.6301 43.14 64.6401 43.52 64.5401C43.89 64.4501 44.28 64.4101 44.65 64.2901C45.02 64.1801 45.4 64.0901 45.76 63.9501L46.87 63.55ZM46.87 63.55L45.83 64.0901C45.48 64.2701 45.11 64.39 44.74 64.55C44.38 64.72 43.99 64.8001 43.61 64.9201C43.23 65.0601 42.83 65.1001 42.44 65.1801C42.05 65.2801 41.64 65.2501 41.24 65.2901C40.83 65.2901 40.43 65.2501 40.02 65.2301C39.62 65.1301 39.2 65.0901 38.82 64.9401C38.43 64.7901 38.04 64.6601 37.69 64.4301L37.15 64.1201L36.66 63.7401C36.31 63.5001 36.05 63.1901 35.76 62.8901C35.46 62.6001 35.25 62.2501 34.99 61.9301C34.73 61.6101 34.56 61.2401 34.34 60.9001C34.12 60.5601 33.97 60.1801 33.79 59.8201C33.61 59.4601 33.47 59.0801 33.33 58.7101C33.19 58.3301 33.04 57.96 32.94 57.58L32.6 56.4301L32.5 56.0901L32.79 55.8701C33.16 55.5901 33.52 55.3501 33.9 55.1301C34.28 54.9101 34.67 54.7 35.07 54.52C35.86 54.14 36.71 53.8501 37.58 53.6501C38.02 53.5601 38.46 53.4901 38.91 53.4701C39.36 53.4301 39.82 53.4601 40.27 53.5001C40.72 53.5601 41.17 53.65 41.6 53.8C41.82 53.88 42.03 53.9501 42.23 54.0601C42.44 54.1601 42.64 54.2601 42.83 54.3801C43.03 54.4901 43.21 54.6201 43.39 54.7601C43.57 54.8901 43.74 55.0401 43.91 55.1901C44.08 55.3401 44.23 55.5001 44.38 55.6601C44.53 55.8201 44.68 55.9901 44.8 56.1701C45.08 56.5201 45.3 56.89 45.53 57.27L45.84 57.8501C45.96 58.0901 46 58.2601 46.09 58.4601C46.21 58.8701 46.33 59.3301 46.39 59.7401C46.47 60.1601 46.54 60.5801 46.59 61.0001C46.71 61.8401 46.8 62.6901 46.85 63.5401L46.87 63.55Z" fill="#483C2C"/>
<path d="M54.46 63.55C54.51 62.7 54.5999 61.86 54.7199 61.01C54.7799 60.59 54.8399 60.17 54.9299 59.75C54.9999 59.34 55.1099 58.88 55.2299 58.47C55.3099 58.26 55.3499 58.09 55.4799 57.86L55.7899 57.28C56.0199 56.91 56.24 56.53 56.52 56.18C56.65 56 56.79 55.83 56.95 55.67C57.1 55.5 57.2499 55.34 57.4199 55.2C57.5799 55.05 57.7499 54.9 57.9299 54.77C58.1099 54.63 58.2899 54.5 58.4899 54.39C58.6799 54.27 58.88 54.16 59.09 54.07C59.29 53.96 59.5099 53.89 59.7199 53.81C60.1499 53.66 60.5999 53.57 61.0499 53.51C61.4999 53.46 61.9599 53.44 62.4099 53.48C62.8599 53.5 63.3099 53.57 63.7399 53.66C64.6099 53.86 65.4499 54.15 66.2499 54.53C66.6499 54.72 67.0399 54.92 67.4199 55.14C67.7999 55.36 68.16 55.6 68.53 55.88L68.8199 56.1L68.7199 56.44L68.3799 57.59C68.2799 57.98 68.1199 58.35 67.9899 58.72C67.8599 59.1 67.71 59.47 67.53 59.83C67.35 60.19 67.1999 60.56 66.9799 60.91C66.7599 61.25 66.59 61.62 66.33 61.94C66.07 62.26 65.8599 62.61 65.5599 62.9C65.2699 63.2 64.9999 63.51 64.6599 63.75L64.1699 64.13L63.6299 64.44C63.2799 64.67 62.8799 64.8 62.4999 64.95C62.1199 65.1 61.6999 65.14 61.2999 65.24C60.8899 65.26 60.49 65.31 60.08 65.3C59.68 65.26 59.2699 65.28 58.8799 65.19C58.4899 65.1 58.09 65.06 57.71 64.93C57.33 64.8 56.95 64.72 56.58 64.56C56.21 64.41 55.8399 64.28 55.4899 64.1L54.45 63.56L54.46 63.55ZM54.46 63.55L55.5599 63.95C55.9299 64.08 56.3099 64.18 56.6699 64.29C57.0399 64.41 57.4299 64.45 57.7999 64.54C58.1699 64.63 58.5599 64.63 58.9399 64.68C59.3199 64.73 59.6999 64.68 60.0699 64.69C60.4399 64.67 60.8099 64.6 61.1799 64.55C61.5299 64.43 61.8999 64.37 62.2399 64.22C62.5699 64.07 62.9199 63.94 63.2199 63.72L63.6799 63.42L64.0999 63.06C64.3899 62.84 64.6199 62.54 64.8699 62.27C65.1299 62.01 65.3099 61.68 65.5399 61.38C65.7699 61.09 65.9199 60.73 66.1099 60.41C66.3099 60.09 66.43 59.73 66.59 59.39C66.76 59.05 66.8899 58.69 67.0099 58.33C67.1299 57.97 67.2799 57.62 67.3699 57.25L67.6799 56.15L67.8699 56.71C67.5599 56.49 67.2099 56.26 66.8599 56.05C66.5099 55.84 66.1499 55.65 65.7899 55.47C65.0599 55.11 64.2899 54.84 63.5099 54.65C63.1199 54.56 62.72 54.49 62.33 54.46C61.93 54.42 61.54 54.43 61.15 54.46C60.76 54.5 60.3699 54.57 59.9999 54.68C59.6299 54.8 59.2599 54.93 58.9199 55.13C58.7399 55.22 58.5699 55.32 58.4099 55.44C58.2399 55.54 58.0899 55.67 57.9399 55.8C57.7799 55.92 57.6299 56.06 57.4899 56.2C57.3399 56.34 57.2099 56.49 57.0699 56.64C56.7899 56.94 56.5599 57.28 56.3199 57.61L55.9899 58.13C55.8999 58.26 55.8199 58.5 55.7299 58.68C55.5799 59.07 55.45 59.43 55.33 59.84C55.21 60.24 55.1099 60.65 55.0099 61.06C54.9099 61.47 54.8199 61.89 54.7299 62.3C54.6299 62.72 54.54 63.13 54.46 63.55Z" fill="#483C2C"/>
<path d="M55.7 67.33C53.92 66.18 52.6399 63.8 50.9199 63.78C49.1999 63.8 47.92 66.19 46.14 67.33C44.1 68.64 41.6599 68.84 41.6599 70.82C41.6599 72.8 43.8799 73.87 45.8099 74.76C47.6299 75.59 49.1399 76.21 50.9099 76.24C52.6799 76.21 54.1899 75.59 56.0099 74.76C57.9499 73.87 60.1599 72.72 60.1599 70.82C60.1599 68.92 57.7199 68.64 55.6799 67.33H55.7Z" fill="#EFEFEF"/>
<path d="M48.6499 67.24C48.0299 67.48 47.6099 67.79 47.3199 68.11C46.9399 68.54 46.8399 69.06 47.7699 69.32C48.6999 69.58 49.5299 70.02 49.7799 70.25C50.0399 70.48 50.2499 70.69 50.2099 70.22C50.1799 69.75 50.3299 69.52 49.8399 69.21C49.3499 68.9 48.9299 68.68 48.2599 68.53C47.5899 68.38 47.7399 68.45 47.7399 68.2C47.7399 67.95 48.6499 67.24 48.6499 67.24Z" fill="#483C2C"/>
<path d="M48.0801 73.5601C47.6601 74.8901 47.5801 75.3601 47.8601 76.1601C48.2601 77.3301 49.5601 78.5401 49.2901 79.4001C49.0201 80.2601 48.1201 80.4901 48.1201 80.4901C48.1201 80.4901 48.8601 80.6801 49.3901 80.4701C49.6801 80.3601 49.9101 80.1701 50.0901 79.9601C50.2301 79.7901 50.3401 79.6101 50.4201 79.4501C50.5901 79.0901 50.8001 78.5901 50.8001 78.5901C50.8001 78.5901 49.9601 80.3501 50.0101 81.0701C50.0601 81.7901 50.3601 82.4301 50.3601 82.4301C50.3601 82.4301 50.2401 81.9301 50.5801 81.3401C50.9201 80.7501 53.6301 79.2401 54.2001 77.0301C54.5001 75.8701 54.1301 73.9301 53.9301 73.6501C53.7201 73.3701 48.1101 73.5501 48.1101 73.5501L48.0801 73.5601Z" fill="#EFEFEF"/>
<path d="M55.2401 71.4201C55.1501 71.5201 55.0401 71.6401 54.9001 71.7601C54.7701 71.8801 54.6 72.0101 54.41 72.0901C54.31 72.1301 54.2001 72.1701 54.0901 72.1901C54.0301 72.2001 53.97 72.2101 53.91 72.2201C53.85 72.2201 53.79 72.2401 53.72 72.2401C53.46 72.2701 53.1901 72.2801 52.9001 72.2901C52.3301 72.3101 51.72 72.3301 51.1 72.3301C51.04 72.3301 50.98 72.3301 50.91 72.3301C50.84 72.3301 50.79 72.3301 50.72 72.3301C50.11 72.3301 49.5001 72.3101 48.9301 72.2901C48.6501 72.2701 48.37 72.2601 48.11 72.2401C48.05 72.2401 47.9901 72.2201 47.9301 72.2201C47.8701 72.2201 47.8101 72.2001 47.7501 72.1901C47.6401 72.1701 47.5301 72.1301 47.4301 72.0901C47.2301 72.0001 47.0701 71.8801 46.9401 71.7601C46.8101 71.6301 46.69 71.5101 46.6 71.4201C46.42 71.2201 46.3101 71.1101 46.3101 71.1101C46.3101 71.1101 46.3901 71.2401 46.5301 71.4701C46.6101 71.5801 46.7001 71.7201 46.8201 71.8701C46.9401 72.0201 47.1001 72.1801 47.3201 72.3001C47.4301 72.3601 47.5401 72.4101 47.6801 72.4601C47.7401 72.4801 47.8001 72.5001 47.8701 72.5101C47.9401 72.5301 48.0001 72.5401 48.0701 72.5501C48.3401 72.6001 48.62 72.6401 48.91 72.6701C49.49 72.7301 50.11 72.7601 50.73 72.7601C50.8 72.7601 50.86 72.7601 50.92 72.7601C50.98 72.7601 51.05 72.7601 51.11 72.7601C51.73 72.7601 52.3501 72.7201 52.9301 72.6701C53.2201 72.6401 53.5001 72.6001 53.7701 72.5501C53.8401 72.5401 53.9 72.5201 53.97 72.5101C54.04 72.4901 54.1 72.4801 54.16 72.4601C54.29 72.4101 54.4101 72.3601 54.5201 72.3001C54.7401 72.1801 54.8901 72.0101 55.0201 71.8701C55.1401 71.7201 55.2301 71.5801 55.3101 71.4701C55.4501 71.2401 55.5301 71.1101 55.5301 71.1101C55.5301 71.1101 55.4201 71.2201 55.2401 71.4201Z" fill="#483C2C"/>
<path d="M53.1799 67.24C53.7999 67.48 54.2299 67.79 54.5099 68.11C54.8899 68.54 54.9899 69.06 54.0599 69.32C53.1299 69.58 52.2998 70.02 52.0398 70.25C51.7798 70.48 51.5799 70.69 51.6199 70.22C51.6499 69.75 51.4999 69.52 51.9899 69.21C52.4799 68.9 52.8999 68.68 53.5699 68.53C54.2399 68.38 54.0899 68.45 54.0899 68.2C54.0899 67.95 53.1799 67.24 53.1799 67.24Z" fill="#483C2C"/>
</svg>
