<svg width="102" height="102" viewBox="0 0 102 102" fill="none" xmlns="http://www.w3.org/2000/svg">
<path d="M92.87 0.190002H9.28C4.49169 0.190002 0.609985 4.07168 0.609985 8.85999V92.45C0.609985 97.2383 4.49169 101.12 9.28 101.12H92.87C97.6583 101.12 101.54 97.2383 101.54 92.45V8.85999C101.54 4.07168 97.6583 0.190002 92.87 0.190002Z" fill="#DBBD64"/>
<path d="M51.7301 79.42C51.5901 79.42 51.44 79.42 51.3 79.41H51.2601H51.24C51.08 79.42 50.9401 79.43 50.7901 79.43C47.9001 79.43 44.3801 77.62 42.1001 75.78C35.2901 72.92 27.07 66.84 26.05 59.02C25.98 58.52 25.9501 57.99 25.9501 57.45C25.9501 52.34 28.12 46.91 30.11 43.02C29.42 42.28 28.5801 41.81 27.6001 41.62C27.1901 41.54 26.7901 41.43 26.4301 41.29C26.1901 41.2 25.96 41.09 25.74 40.97C25.52 40.85 25.3101 40.72 25.1201 40.57C24.9301 40.43 24.74 40.27 24.58 40.1C24.42 39.94 24.2601 39.76 24.1201 39.57C22.9401 38.01 22.6701 35.71 23.3501 33.08C23.6201 32.05 24.0001 31.03 24.3701 30.05C24.7901 28.94 25.1801 27.89 25.3401 27C25.3601 26.88 25.3801 26.76 25.3901 26.64C25.4101 26.42 25.4201 26.22 25.4001 26.05C25.4001 25.97 25.3801 25.89 25.3701 25.82C25.0101 24.19 25.68 23.32 26.11 22.94C26.57 22.53 27.1901 22.31 27.8901 22.31C29.0101 22.31 30.3501 22.87 31.7601 23.94C35.1601 26.5 36.4501 32.25 36.0901 35.41C38.6601 34.18 43.7001 32.1 49.2201 31.7C49.7501 30.02 50.17 29.3 51.11 29.26C51.13 29.26 51.1501 29.26 51.1701 29.26C52.1801 29.26 52.5901 30.06 53.0901 31.73C58.4201 32.2 63.5701 34.31 66.1401 35.52C66.1401 35.42 66.1401 35.31 66.1201 35.19C65.6801 32.08 66.9501 26.14 70.4201 23.52C71.8301 22.45 73.1701 21.89 74.2901 21.89C74.9901 21.89 75.6101 22.11 76.0701 22.52C76.7201 23.09 77.0101 23.98 76.8701 25.01C76.8501 25.13 76.83 25.26 76.8 25.38C76.58 26.37 77.2 28.02 77.8 29.62C78.17 30.6 78.5501 31.62 78.8101 32.65C79.4401 35.07 79.2501 37.25 78.2901 38.79C77.4901 40.05 76.24 40.86 74.55 41.19C73.47 41.4 72.56 41.95 71.83 42.82C73.85 46.75 76.08 52.26 76.08 57.43C76.08 57.79 76.0601 58.16 76.0401 58.52C76.0301 58.65 76.0101 58.79 76.0001 58.92C75.0601 67.05 67.0301 73.08 60.3501 75.82C58.0801 77.63 54.59 79.41 51.74 79.41L51.7301 79.42Z" fill="#2F150C"/>
<path d="M26.6401 27.22C26.3101 29.06 25.1901 31.2601 24.6301 33.4001C24.1501 35.2701 24.1001 37.35 25.1701 38.76C25.2701 38.89 25.3801 39.02 25.5101 39.14C25.6301 39.26 25.7701 39.38 25.9101 39.48C26.0501 39.59 26.2101 39.6901 26.3801 39.7801C26.5501 39.8701 26.7301 39.9501 26.9201 40.0301C27.2101 40.1401 27.5201 40.23 27.8701 40.3C29.7801 40.68 30.9901 41.8301 31.7001 42.8401C29.6101 46.7801 27.2901 52.3 27.2901 57.43C27.2901 57.9 27.3201 58.37 27.3801 58.83C28.2801 65.78 35.7601 71.7 42.8001 74.61C45.0401 76.46 48.6001 78.24 51.1401 78.07C51.1801 78.07 51.2201 78.07 51.2601 78.06C51.3001 78.06 51.3401 78.06 51.3801 78.07C53.9001 78.24 57.4101 76.49 59.6501 74.66C66.8501 71.76 73.8501 65.7901 74.6601 58.7701C74.6701 58.6501 74.6901 58.53 74.7001 58.41C74.7301 58.08 74.7401 57.76 74.7401 57.42C74.7401 52.23 72.3701 46.64 70.2601 42.7C70.9501 41.62 72.1901 40.29 74.2801 39.88C77.9601 39.16 78.2501 35.82 77.5101 32.98C76.7701 30.13 75.0301 27.1701 75.4901 25.0901C75.5101 25.0001 75.5301 24.91 75.5401 24.83C75.6201 24.23 75.4901 23.78 75.1701 23.5C74.5201 22.92 73.0801 23.15 71.2001 24.57C68.3101 26.75 67.0001 32.13 67.4101 34.99C67.5601 36.03 67.2401 36.75 66.6901 37.26C65.0701 36.43 58.5501 33.29 52.0501 32.97C51.6201 31.46 51.2901 30.56 51.1401 30.57C50.9701 30.57 50.6201 31.4701 50.1901 32.9601C42.9701 33.2101 36.3701 36.67 35.1401 37.35C34.7801 36.87 34.6001 36.2401 34.7201 35.4001C35.1301 32.5401 33.8201 27.16 30.9301 24.98C29.0501 23.57 27.6101 23.33 26.9601 23.91C26.6101 24.22 26.4801 24.77 26.6401 25.5C26.6701 25.63 26.6901 25.7601 26.7001 25.9001C26.7201 26.1701 26.7201 26.46 26.6901 26.75C26.6701 26.9 26.6501 27.05 26.6201 27.2L26.6401 27.22Z" fill="#2F150C"/>
<path d="M74.29 39.89C77.97 39.17 78.26 35.83 77.52 32.99C76.78 30.14 75.04 27.18 75.5 25.1C75.66 24.37 75.54 23.82 75.18 23.51C74.53 22.93 73.09 23.16 71.21 24.58C68.32 26.76 67.01 32.14 67.42 35C67.57 36.04 67.25 36.76 66.7 37.27C64.99 36.39 57.85 32.95 51.02 32.95C43.49 32.95 36.44 36.65 35.16 37.36C34.8 36.88 34.62 36.25 34.74 35.41C35.15 32.55 33.84 27.17 30.95 24.99C29.07 23.58 27.63 23.34 26.98 23.92C26.63 24.23 26.5 24.78 26.66 25.51C27.12 27.58 25.38 30.5501 24.64 33.4001C23.9 36.2501 24.19 39.58 27.87 40.3C29.78 40.68 30.99 41.8301 31.7 42.8401C29.61 46.7801 27.29 52.3 27.29 57.43C27.29 57.9 27.32 58.37 27.38 58.83C28.67 68.74 43.31 76.55 51.02 76.55C51.12 76.55 51.22 76.55 51.32 76.55C60.29 76.38 73.54 68.6101 74.68 58.7801C74.69 58.6601 74.71 58.54 74.72 58.42C74.75 58.09 74.76 57.77 74.76 57.43C74.76 52.24 72.39 46.6501 70.28 42.7101C70.97 41.6301 72.21 40.3 74.3 39.89" fill="#C9C9C9"/>
<path d="M27.86 40.3C24.18 39.58 23.89 36.24 24.63 33.4C25.37 30.55 27.11 27.59 26.65 25.51C26.49 24.78 26.61 24.23 26.97 23.92C27.74 23.96 28.79 24.49 29.99 25.64C32.61 28.14 33.27 33.64 32.54 36.43C31.8 39.23 31.54 41.02 27.87 40.3H27.86Z" fill="#EDB2B2"/>
<path d="M74.29 39.89C77.97 39.17 78.26 35.83 77.52 32.99C76.78 30.14 75.04 27.18 75.5 25.1C75.66 24.37 75.54 23.82 75.18 23.51C74.41 23.55 73.36 24.08 72.16 25.23C69.54 27.73 68.88 33.23 69.61 36.02C70.35 38.82 70.61 40.61 74.28 39.89H74.29Z" fill="#EDB2B2"/>
<path d="M51.02 76.55C47.49 76.55 42.23 74.43 37.92 71.28C32.98 67.66 29.86 63.17 29.36 58.96C29.31 58.54 29.28 58.12 29.28 57.69C29.28 49.26 34.62 39.06 36.34 37.38C37.65 36.11 44.34 32.94 51.01 32.94C57.3 32.94 64.31 36.07 65.7 37.4C67.47 39.1 72.75 49.28 72.75 57.69C72.75 58 72.74 58.3 72.72 58.6C72.72 58.71 72.7 58.83 72.69 58.94C71.66 68.75 58.99 76.39 51.28 76.54H51.32H51.02" fill="#D8D8D8"/>
<path d="M31.72 53.8C31.72 53.8 36.31 63.2801 40.23 63.2801C43.24 63.2801 47 61.74 47 61.74C47 61.74 48.6 45.95 39.88 45.44C35.96 45.21 31.71 53.8 31.71 53.8" fill="#C9C9C9"/>
<path d="M70.39 53.8C70.39 53.8 65.8 63.2801 61.88 63.2801C58.87 63.2801 55.1099 61.74 55.1099 61.74C55.1099 61.74 53.51 45.95 62.23 45.44C66.15 45.21 70.3999 53.8 70.3999 53.8" fill="#C9C9C9"/>
<path d="M35.97 47.52C35.97 47.52 35.98 47.48 36.02 47.42C36.05 47.36 36.1 47.25 36.18 47.14C36.25 47.02 36.35 46.89 36.48 46.74C36.61 46.6 36.75 46.42 36.94 46.27C37.03 46.19 37.13 46.11 37.23 46.03C37.34 45.96 37.45 45.88 37.57 45.8C37.68 45.71 37.82 45.66 37.95 45.59C38.08 45.53 38.22 45.45 38.36 45.4C38.65 45.3 38.96 45.19 39.29 45.14C39.61 45.07 39.95 45.07 40.29 45.07C40.63 45.07 40.96 45.15 41.28 45.2C41.59 45.3 41.9 45.4 42.18 45.52C42.45 45.66 42.7 45.81 42.94 45.95C43.17 46.11 43.36 46.29 43.54 46.44C43.63 46.52 43.71 46.59 43.79 46.67C43.86 46.75 43.93 46.83 43.99 46.91C44.11 47.06 44.21 47.2 44.29 47.31C44.45 47.53 44.53 47.67 44.53 47.67C44.53 47.67 44.37 47.62 44.13 47.52C44.01 47.47 43.86 47.41 43.69 47.33C43.53 47.25 43.34 47.18 43.13 47.1C42.93 47.03 42.72 46.93 42.49 46.85C42.26 46.78 42.02 46.71 41.78 46.63C41.53 46.58 41.28 46.53 41.03 46.47C40.9 46.46 40.77 46.45 40.64 46.43C40.51 46.42 40.38 46.39 40.25 46.4C39.99 46.4 39.73 46.38 39.48 46.42C39.35 46.44 39.22 46.42 39.1 46.46C38.97 46.48 38.85 46.51 38.73 46.52C38.6 46.54 38.49 46.58 38.37 46.61C38.25 46.64 38.13 46.66 38.02 46.7C37.79 46.77 37.57 46.84 37.38 46.92C37.18 46.99 37 47.07 36.83 47.14C36.67 47.22 36.52 47.27 36.4 47.34C36.28 47.4 36.18 47.44 36.12 47.47C36.05 47.5 36.02 47.52 36.02 47.52H35.97Z" fill="#565656"/>
<path d="M65.99 47.52C65.99 47.52 65.95 47.5 65.89 47.47C65.82 47.44 65.73 47.39 65.61 47.34C65.49 47.28 65.34 47.22 65.18 47.14C65.01 47.08 64.83 46.99 64.63 46.92C64.43 46.84 64.21 46.77 63.99 46.7C63.88 46.66 63.76 46.64 63.64 46.61C63.52 46.59 63.4 46.54 63.28 46.52C63.16 46.5 63.03 46.48 62.91 46.46C62.79 46.43 62.66 46.44 62.53 46.42C62.27 46.38 62.01 46.4 61.76 46.4C61.63 46.4 61.5 46.42 61.37 46.43C61.24 46.45 61.11 46.45 60.98 46.47C60.73 46.53 60.47 46.58 60.23 46.63C59.99 46.71 59.75 46.79 59.52 46.85C59.29 46.93 59.08 47.03 58.88 47.1C58.67 47.17 58.48 47.24 58.32 47.33C58.16 47.41 58.01 47.47 57.89 47.52C57.64 47.62 57.49 47.67 57.49 47.67C57.49 47.67 57.57 47.53 57.73 47.31C57.81 47.2 57.91 47.06 58.03 46.91C58.09 46.84 58.15 46.75 58.23 46.67C58.31 46.59 58.39 46.52 58.48 46.44C58.66 46.28 58.85 46.1 59.08 45.95C59.32 45.81 59.57 45.66 59.84 45.52C60.12 45.4 60.43 45.29 60.74 45.2C61.06 45.15 61.39 45.07 61.73 45.07C62.07 45.07 62.4 45.07 62.73 45.14C63.06 45.18 63.36 45.29 63.66 45.4C63.81 45.45 63.94 45.53 64.07 45.59C64.2 45.66 64.33 45.72 64.45 45.8C64.56 45.88 64.68 45.95 64.79 46.03C64.89 46.11 64.99 46.19 65.08 46.27C65.27 46.42 65.41 46.6 65.54 46.74C65.66 46.89 65.76 47.02 65.84 47.14C65.92 47.25 65.97 47.36 66 47.42C66.03 47.49 66.05 47.52 66.05 47.52H65.99Z" fill="#565656"/>
<path d="M47.01 61.74C39.78 65.19 34.68 62.96 32.39 54.02C32.39 54.02 41.09 47.27 45.71 55.93C46.43 57.27 47.01 61.74 47.01 61.74Z" fill="white"/>
<path d="M40.02 62.3C38.01 62.26 36.33 60.67 35.68 58.46C35.48 57.79 35.38 57.05 35.4 56.29C35.47 53.21 37.38 52.12 39.79 52.04C39.94 52.04 40.09 52.04 40.24 52.04C42.86 52.1 44.85 54.82 44.9 56.49C44.99 59.76 42.65 62.36 40.03 62.31" fill="#964C22"/>
<path d="M40.04 61.47C38.52 61.44 37.18 60.14 36.64 58.15C36.46 57.52 36.38 56.85 36.4 56.17C36.45 53.88 37.53 52.77 39.82 52.7C39.93 52.7 40.05 52.7 40.16 52.7H40.22C42.29 52.75 43.86 55.16 43.89 56.4C43.93 57.89 43.43 59.32 42.52 60.31C41.82 61.07 40.96 61.49 40.09 61.49H40.03" fill="#382210"/>
<path d="M55.08 61.74C62.31 65.19 67.41 62.96 69.7 54.02C69.7 54.02 61 47.27 56.38 55.93C55.66 57.27 55.08 61.74 55.08 61.74Z" fill="white"/>
<path d="M62.07 62.3C64.08 62.26 65.76 60.67 66.41 58.46C66.61 57.79 66.71 57.05 66.69 56.29C66.63 53.21 64.71 52.12 62.3 52.04C62.15 52.04 62 52.04 61.85 52.04C59.23 52.1 57.24 54.82 57.19 56.49C57.1 59.76 59.44 62.36 62.06 62.31" fill="#964C22"/>
<path d="M61.99 61.48C61.12 61.48 60.26 61.06 59.56 60.3C58.65 59.31 58.15 57.89 58.19 56.39C58.22 55.15 59.8 52.74 61.87 52.69H61.93C62.05 52.69 62.16 52.69 62.28 52.69C64.57 52.76 65.65 53.87 65.7 56.16C65.71 56.84 65.63 57.51 65.46 58.14C64.91 60.13 63.58 61.43 62.05 61.46H61.99" fill="#382210"/>
<path d="M40.33 55.06C40.29 57.04 38.9701 58.62 37.3801 58.58C36.6601 58.57 36.02 58.22 35.52 57.67C35.35 57.08 35.26 56.43 35.27 55.77C35.33 53.07 37 52.11 39.11 52.05C39.87 52.71 40.35 53.82 40.33 55.06Z" fill="white"/>
<path d="M59.8101 64.63C58.9001 63.38 55.3101 60.88 55.3101 60.88C55.3101 60.88 52.5301 58.32 51.2601 58.29C49.9901 58.32 47.2101 60.88 47.2101 60.88C47.2101 60.88 43.6201 63.38 42.7101 64.63C41.8001 65.87 40.1501 69.88 40.7301 72.07C41.3101 74.26 47.3501 78.33 51.1301 78.08C51.1701 78.08 51.2101 78.08 51.2501 78.08C51.2901 78.08 51.3301 78.08 51.3701 78.08C55.1601 78.33 61.2001 74.26 61.7701 72.07C62.3501 69.88 60.6901 65.88 59.7901 64.63" fill="#C9C9C9"/>
<path d="M43.96 68.29C44.18 69.5 45.37 70.85 46 70.74C46.63 70.62 46.93 69.4 46.7 68.19C46.48 66.98 45.33 65.78 44.7 65.9C44.07 66.02 43.74 67.09 43.96 68.29Z" fill="#5B5C5C"/>
<path d="M58.66 68.5C58.23 69.65 56.9 70.81 56.3 70.59C55.7 70.36 55.49 69.23 55.92 68.09C56.35 66.94 57.74 65.8 58.34 66.02C58.94 66.24 59.08 67.36 58.65 68.5H58.66Z" fill="#5B5C5C"/>
<path d="M47.66 66.7C47.66 66.7 47.43 66.47 47.07 66.17C46.98 66.09 46.88 66.02 46.78 65.93C46.67 65.85 46.56 65.76 46.44 65.69C46.32 65.61 46.19 65.53 46.06 65.46C45.93 65.38 45.79 65.33 45.65 65.27C45.51 65.22 45.37 65.18 45.23 65.15C45.09 65.15 44.94 65.09 44.81 65.12C44.74 65.12 44.67 65.12 44.61 65.12C44.54 65.12 44.48 65.15 44.42 65.16C44.36 65.18 44.3 65.19 44.24 65.2C44.18 65.21 44.13 65.24 44.08 65.26C43.98 65.31 43.87 65.34 43.79 65.38C43.71 65.43 43.64 65.48 43.58 65.51C43.46 65.58 43.39 65.62 43.39 65.62C43.39 65.62 43.44 65.56 43.54 65.46C43.59 65.41 43.65 65.35 43.72 65.28C43.79 65.21 43.89 65.15 44 65.09C44.05 65.06 44.11 65.01 44.17 64.99C44.23 64.97 44.3 64.94 44.37 64.92C44.44 64.9 44.51 64.86 44.58 64.85C44.66 64.84 44.73 64.83 44.81 64.82C44.97 64.79 45.13 64.82 45.3 64.83C45.46 64.86 45.63 64.9 45.79 64.96C45.94 65.03 46.1 65.09 46.24 65.18C46.39 65.26 46.51 65.36 46.63 65.45C46.76 65.54 46.86 65.65 46.96 65.74C47.06 65.84 47.15 65.94 47.23 66.03C47.39 66.22 47.5 66.39 47.57 66.5C47.65 66.62 47.68 66.69 47.68 66.69L47.66 66.7Z" fill="#5B5C5C"/>
<path d="M54.8201 66.7C54.8201 66.7 54.8501 66.63 54.9301 66.51C55.0101 66.39 55.1201 66.22 55.2701 66.04C55.3501 65.94 55.4401 65.85 55.5401 65.75C55.6401 65.66 55.7501 65.55 55.8701 65.46C55.9901 65.37 56.1201 65.27 56.2601 65.19C56.4001 65.1 56.5501 65.04 56.7101 64.97C56.8701 64.91 57.0301 64.87 57.2001 64.84C57.3701 64.83 57.5301 64.8 57.6901 64.83C57.7701 64.84 57.8501 64.85 57.9201 64.86C57.9901 64.87 58.0601 64.91 58.1301 64.93C58.2001 64.95 58.26 64.98 58.33 65C58.39 65.03 58.4401 65.07 58.5001 65.1C58.6001 65.17 58.7001 65.22 58.7801 65.29C58.8501 65.36 58.9101 65.42 58.9601 65.47C59.0601 65.57 59.11 65.63 59.11 65.63C59.11 65.63 59.0401 65.59 58.9201 65.52C58.8601 65.48 58.7901 65.44 58.7101 65.39C58.6301 65.35 58.5201 65.32 58.4201 65.27C58.3701 65.25 58.3101 65.22 58.2601 65.21C58.2001 65.2 58.14 65.18 58.08 65.17C58.02 65.17 57.9501 65.14 57.8901 65.13C57.8201 65.13 57.7501 65.13 57.6901 65.13C57.5501 65.11 57.4101 65.15 57.2701 65.16C57.1301 65.19 56.9801 65.23 56.8501 65.28C56.7101 65.34 56.5701 65.39 56.4401 65.47C56.3101 65.54 56.1801 65.62 56.0601 65.7C55.9401 65.78 55.8301 65.87 55.7201 65.94C55.6201 66.03 55.5101 66.1 55.4301 66.18C55.0701 66.48 54.8401 66.71 54.8401 66.71L54.8201 66.7Z" fill="#5B5C5C"/>
<path d="M44.45 68.77C44.67 69.98 45.37 70.85 46 70.74C46.63 70.62 46.96 69.55 46.74 68.35C46.52 67.15 45.82 66.26 45.19 66.38C44.56 66.5 44.23 67.57 44.45 68.77Z" fill="#281818"/>
<path d="M58.0999 68.9001C57.6699 70.0501 56.8299 70.79 56.2299 70.57C55.6299 70.34 55.49 69.23 55.92 68.08C56.35 66.93 57.1899 66.18 57.7899 66.41C58.3899 66.64 58.5299 67.7501 58.0999 68.9001Z" fill="#281818"/>
<path d="M44.6 72.07C44.6 72.07 44.57 72.13 44.54 72.25C44.51 72.37 44.49 72.55 44.53 72.76C44.57 72.98 44.69 73.22 44.91 73.43C45.13 73.64 45.43 73.82 45.78 73.96C46.48 74.25 47.38 74.38 48.33 74.47C48.57 74.49 48.81 74.5 49.06 74.52C49.17 74.52 49.34 74.54 49.48 74.6C49.61 74.65 49.72 74.72 49.84 74.79C50.28 75.06 50.69 75.41 51.13 75.56C51.24 75.6 51.32 75.61 51.42 75.58C51.52 75.55 51.62 75.5 51.72 75.44C51.92 75.31 52.12 75.14 52.32 74.99C52.52 74.83 52.73 74.67 52.99 74.56C53.06 74.53 53.12 74.51 53.2 74.49C53.28 74.47 53.35 74.47 53.4 74.47C53.52 74.47 53.64 74.45 53.76 74.44C54.71 74.34 55.6 74.17 56.29 73.87C56.64 73.72 56.93 73.52 57.16 73.33C57.39 73.12 57.54 72.9 57.63 72.7C57.72 72.5 57.76 72.32 57.78 72.2C57.79 72.08 57.8 72.02 57.8 72.02C57.8 72.02 57.8 72.09 57.8 72.21C57.79 72.33 57.78 72.51 57.7 72.73C57.62 72.95 57.48 73.2 57.26 73.44C57.04 73.68 56.73 73.89 56.38 74.07C55.67 74.43 54.76 74.65 53.79 74.76C53.67 74.77 53.55 74.79 53.42 74.8C53.36 74.8 53.3 74.8 53.26 74.82C53.21 74.83 53.16 74.85 53.11 74.87C52.91 74.96 52.71 75.11 52.52 75.27C52.32 75.43 52.13 75.6 51.9 75.74C51.78 75.82 51.66 75.89 51.51 75.93C51.47 75.94 51.43 75.95 51.39 75.95C51.35 75.95 51.29 75.95 51.26 75.95C51.18 75.94 51.1 75.93 51.03 75.9C50.48 75.7 50.1 75.34 49.68 75.08C49.58 75.02 49.47 74.95 49.37 74.91C49.27 74.87 49.2 74.85 49.06 74.84C48.81 74.82 48.56 74.81 48.32 74.78C47.35 74.69 46.44 74.49 45.72 74.16C45.36 73.99 45.05 73.78 44.83 73.54C44.61 73.29 44.5 73.02 44.48 72.78C44.45 72.55 44.5 72.37 44.54 72.25C44.58 72.13 44.62 72.08 44.62 72.08L44.6 72.07Z" fill="#5B5C5C"/>
<path d="M42.83 60.78C42.82 61.45 42.37 61.99 41.83 61.98C41.29 61.97 40.8701 61.42 40.8801 60.74C40.8901 60.07 41.3401 59.54 41.8801 59.55C42.4201 59.56 42.84 60.11 42.83 60.79V60.78Z" fill="white"/>
<path d="M61.95 55.36C61.91 57.34 60.59 58.92 59 58.89C58.28 58.87 57.64 58.53 57.14 57.98C56.96 57.39 56.88 56.75 56.89 56.08C56.95 53.38 58.62 52.42 60.73 52.36C61.49 53.02 61.97 54.13 61.95 55.37" fill="white"/>
<path d="M64.64 60.78C64.63 61.45 64.18 61.99 63.64 61.98C63.1 61.97 62.68 61.42 62.69 60.74C62.7 60.07 63.15 59.54 63.69 59.55C64.23 59.56 64.65 60.11 64.64 60.79V60.78Z" fill="white"/>
<path d="M45.71 55.93C44.04 52.79 41.83 51.68 39.69 51.53C41.83 51.68 44.03 52.79 45.71 55.93ZM32.8 55.45C32.65 54.99 32.52 54.51 32.39 54.02C32.52 54.52 32.66 55 32.8 55.46" fill="#B9B8B8"/>
<path d="M45.65 62.03C45.42 60.83 45.12 59.55 44.79 58.94C44.73 58.82 44.66 58.7 44.59 58.58C44.79 57.93 44.9 57.23 44.88 56.49C44.84 54.82 42.85 52.09 40.22 52.04H40.15C40.02 52.04 39.9 52.04 39.77 52.04C39.56 52.04 39.35 52.06 39.14 52.08C39.13 52.07 39.11 52.06 39.1 52.05C37.2 52.11 35.65 52.89 35.32 55.02C34.42 55.32 33.62 55.7 32.99 56.05C32.92 55.85 32.85 55.65 32.79 55.45C32.64 54.99 32.51 54.51 32.38 54.01C32.43 53.97 35.64 51.5 39.18 51.5C39.35 51.5 39.52 51.5 39.68 51.52C41.82 51.67 44.02 52.78 45.7 55.92C46.25 56.95 46.72 59.81 46.91 61.09C46.63 61.29 46.17 61.62 45.65 62.02" fill="#E2E1E1"/>
<path d="M44.6 58.58C44.35 58.15 44.1 57.77 43.83 57.42C43.88 57.08 43.9 56.74 43.89 56.4C43.86 55.16 42.28 52.75 40.22 52.7H40.16C40.05 52.7 39.93 52.7 39.82 52.7C39.78 52.7 39.74 52.7 39.7 52.7C39.54 52.46 39.36 52.25 39.16 52.07C39.36 52.05 39.57 52.03 39.79 52.03C39.92 52.03 40.04 52.03 40.17 52.03H40.24C42.86 52.09 44.85 54.81 44.9 56.48C44.92 57.22 44.82 57.92 44.61 58.57" fill="#8F4D27"/>
<path d="M43.8299 57.42C42.7699 56.02 41.5599 55.22 40.3299 54.83C40.3099 54.03 40.0699 53.3 39.6899 52.72C39.7299 52.72 39.7699 52.72 39.8099 52.72C39.9199 52.72 40.0399 52.72 40.1499 52.72H40.2099C42.2799 52.77 43.8499 55.18 43.8799 56.42C43.8799 56.77 43.8699 57.11 43.8199 57.44" fill="#3C2819"/>
<path d="M35.33 55.03C35.66 52.9 37.21 52.11 39.11 52.06C39.12 52.07 39.14 52.08 39.15 52.09C39.35 52.27 39.53 52.48 39.69 52.72C40.07 53.3 40.31 54.03 40.33 54.83C39.65 54.61 38.95 54.52 38.27 54.52C37.24 54.52 36.23 54.73 35.33 55.03Z" fill="#E2E1E1"/>
<path d="M45.71 62.31C45.69 62.22 45.68 62.12 45.66 62.03C46.18 61.63 46.64 61.3 46.92 61.1C46.98 61.5 47.01 61.74 47.01 61.74C46.57 61.95 46.13 62.14 45.71 62.31Z" fill="#B9B8B8"/>
<path d="M55.22 60.8C55.43 59.42 55.88 56.88 56.38 55.93C56.6 55.52 56.83 55.14 57.06 54.8C56.82 55.14 56.6 55.52 56.38 55.93C55.87 56.89 55.43 59.42 55.22 60.8Z" fill="#B9B8B8"/>
<path d="M56.49 61.74C55.81 61.24 55.31 60.89 55.31 60.89C55.31 60.89 55.28 60.86 55.21 60.8C55.42 59.42 55.86 56.88 56.37 55.93C56.59 55.52 56.82 55.15 57.05 54.8C56.95 55.17 56.89 55.59 56.87 56.07C56.86 56.73 56.94 57.38 57.12 57.97C57.2 58.06 57.29 58.15 57.37 58.23C57.4 58.35 57.43 58.47 57.47 58.58C57.4 58.7 57.34 58.82 57.27 58.94C56.97 59.5 56.69 60.63 56.47 61.74" fill="#E2E1E1"/>
<path d="M57.49 58.58C57.45 58.46 57.42 58.35 57.39 58.23C57.46 58.29 57.53 58.35 57.6 58.4C57.56 58.46 57.53 58.52 57.49 58.58Z" fill="#8F4D27"/>
<path d="M69.3 55.42C69.44 54.97 69.57 54.51 69.7 54.02C69.58 54.5 69.44 54.97 69.3 55.42ZM59.26 52.58C60.28 51.9 61.37 51.6 62.43 51.53C61.37 51.6 60.29 51.91 59.27 52.58" fill="#B9B8B8"/>
<path d="M69.09 56.06C68.4 55.68 67.52 55.26 66.53 54.96C66.01 52.89 64.33 52.11 62.31 52.05C62.18 52.05 62.06 52.05 61.93 52.05H61.86C61.32 52.06 60.81 52.19 60.34 52.39C59.96 52.42 59.6 52.49 59.26 52.59C60.28 51.92 61.36 51.61 62.42 51.54C62.58 51.53 62.74 51.52 62.89 51.52C66.44 51.52 69.65 54 69.69 54.03C69.57 54.51 69.43 54.98 69.29 55.43C69.22 55.65 69.15 55.86 69.08 56.07" fill="#E2E1E1"/>
<path d="M66.53 54.95C66.19 54.85 65.84 54.75 65.48 54.68C65.05 53.39 64.01 52.75 62.29 52.7C62.17 52.7 62.06 52.7 61.94 52.7H61.88C61.63 52.7 61.39 52.75 61.16 52.81C61.03 52.64 60.88 52.48 60.73 52.35C60.6 52.35 60.47 52.36 60.34 52.37C60.81 52.17 61.32 52.04 61.86 52.03H61.93C62.06 52.03 62.18 52.03 62.31 52.03C64.33 52.09 66.01 52.87 66.53 54.94" fill="#8F4D27"/>
<path d="M61.92 54.78C61.84 54.02 61.56 53.34 61.16 52.81C61.39 52.74 61.63 52.7 61.88 52.7H61.94C62.06 52.7 62.17 52.7 62.29 52.7C64.01 52.76 65.05 53.39 65.48 54.68C64.94 54.57 64.39 54.51 63.82 54.51C63.19 54.51 62.56 54.59 61.93 54.77" fill="#3C2819"/>
<path d="M56.38 62.31C55.95 62.14 55.52 61.95 55.08 61.74C55.08 61.74 55.13 61.36 55.22 60.8C55.28 60.86 55.32 60.89 55.32 60.89C55.32 60.89 55.82 61.24 56.5 61.74C56.46 61.93 56.43 62.12 56.39 62.31" fill="#B9B8B8"/>
<path d="M57.6 58.4C57.53 58.35 57.46 58.29 57.39 58.23C57.3 58.15 57.22 58.07 57.14 57.97C56.96 57.38 56.88 56.74 56.89 56.07C56.9 55.59 56.96 55.17 57.07 54.8C57.75 53.81 58.49 53.09 59.27 52.58C59.61 52.48 59.97 52.41 60.35 52.38C60.48 52.37 60.61 52.36 60.74 52.36C60.9 52.5 61.04 52.65 61.17 52.82C61.57 53.34 61.85 54.03 61.93 54.79C60.38 55.23 58.86 56.31 57.61 58.41" fill="#E2E1E1"/>
<path d="M47.01 61.74C46.92 61.3 46.82 60.86 46.72 60.42C46.62 59.98 46.53 59.54 46.42 59.1C46.32 58.67 46.2 58.23 46.08 57.8C45.96 57.36 45.82 56.98 45.66 56.56C45.57 56.37 45.48 56.12 45.38 55.98L45.03 55.42C44.78 55.06 44.53 54.71 44.23 54.39C44.09 54.22 43.95 54.06 43.79 53.92C43.64 53.77 43.49 53.62 43.32 53.49C43.16 53.35 42.99 53.22 42.81 53.11C42.64 52.99 42.46 52.8701 42.27 52.7801C41.91 52.5701 41.51 52.43 41.12 52.3C40.72 52.18 40.31 52.1 39.9 52.06C39.48 52.03 39.06 52.02 38.64 52.06C38.22 52.09 37.8 52.18 37.39 52.27C36.56 52.47 35.75 52.76 34.97 53.14C34.58 53.33 34.2 53.54 33.82 53.76C33.45 53.98 33.07 54.22 32.75 54.46L32.95 53.87L33.28 55.04C33.38 55.44 33.53 55.81 33.66 56.19C33.79 56.57 33.93 56.95 34.11 57.31C34.28 57.67 34.42 58.06 34.63 58.39C34.83 58.73 34.99 59.11 35.23 59.42C35.47 59.73 35.66 60.09 35.94 60.37C36.21 60.66 36.45 60.97 36.76 61.21L37.2 61.6L37.69 61.92C38.01 62.15 38.37 62.29 38.73 62.45C39.09 62.61 39.48 62.68 39.85 62.81C40.24 62.86 40.63 62.94 41.03 62.96C41.43 62.95 41.83 63 42.24 62.94C42.64 62.89 43.05 62.89 43.45 62.79C43.85 62.7 44.26 62.65 44.65 62.52C45.04 62.4 45.44 62.3 45.83 62.16L47.01 61.74ZM47.01 61.74L45.9 62.31C45.53 62.5 45.13 62.63 44.74 62.79C44.35 62.97 43.94 63.05 43.54 63.19C43.14 63.34 42.72 63.38 42.3 63.47C41.88 63.57 41.45 63.55 41.02 63.59C40.59 63.59 40.16 63.55 39.72 63.52C39.3 63.41 38.85 63.37 38.45 63.21C38.04 63.05 37.62 62.91 37.25 62.67L36.68 62.34L36.16 61.94C35.79 61.68 35.51 61.36 35.2 61.04C34.88 60.74 34.65 60.36 34.38 60.02C34.1 59.68 33.92 59.29 33.69 58.92C33.45 58.55 33.29 58.16 33.1 57.77C32.91 57.38 32.76 56.98 32.61 56.58C32.47 56.18 32.3 55.78 32.19 55.37L31.83 54.15L31.72 53.79L32.03 53.56C32.43 53.26 32.81 53.01 33.22 52.77C33.62 52.53 34.04 52.32 34.46 52.12C35.31 51.72 36.2 51.41 37.13 51.19C37.6 51.09 38.07 51.02 38.55 51C39.03 50.96 39.51 50.9901 39.99 51.0301C40.47 51.0901 40.95 51.19 41.41 51.35C41.64 51.43 41.87 51.51 42.09 51.62C42.31 51.72 42.52 51.83 42.73 51.97C42.94 52.09 43.14 52.23 43.33 52.38C43.53 52.52 43.71 52.68 43.88 52.84C44.06 53 44.22 53.17 44.38 53.34C44.54 53.51 44.7 53.69 44.83 53.88C45.12 54.25 45.36 54.65 45.6 55.05L45.93 55.66C46.06 55.91 46.1 56.1 46.19 56.31C46.32 56.75 46.44 57.24 46.51 57.67C46.6 58.12 46.67 58.57 46.73 59.01C46.86 59.91 46.95 60.81 47.01 61.71V61.74Z" fill="#5B5C5C"/>
<path d="M55.08 61.74C55.14 60.84 55.23 59.94 55.36 59.04C55.42 58.59 55.49 58.14 55.58 57.7C55.65 57.26 55.7701 56.78 55.9001 56.34C55.9901 56.12 56.0301 55.94 56.1601 55.69L56.4901 55.08C56.7301 54.68 56.9701 54.28 57.2601 53.91C57.4001 53.72 57.5501 53.54 57.7101 53.37C57.8701 53.19 58.0301 53.02 58.2101 52.87C58.3801 52.71 58.5601 52.54 58.7601 52.41C58.9501 52.26 59.15 52.12 59.36 52C59.56 51.87 59.7801 51.76 60.0001 51.65C60.2101 51.54 60.4501 51.46 60.6701 51.38C61.1301 51.22 61.6101 51.12 62.0901 51.06C62.5701 51.01 63.0601 50.99 63.5301 51.03C64.0101 51.05 64.4801 51.12 64.9501 51.22C65.8801 51.43 66.7701 51.74 67.6201 52.15C68.0401 52.35 68.46 52.57 68.86 52.8C69.27 53.04 69.65 53.29 70.05 53.59L70.36 53.82L70.2501 54.18L69.8901 55.4C69.7801 55.81 69.6201 56.21 69.4701 56.61C69.3301 57.01 69.1701 57.41 68.9801 57.8C68.7901 58.19 68.6301 58.58 68.3901 58.95C68.1501 59.32 67.9801 59.71 67.7001 60.05C67.4301 60.39 67.2101 60.77 66.8801 61.07C66.5801 61.39 66.2901 61.71 65.9201 61.97L65.4001 62.37L64.83 62.7C64.46 62.94 64.0401 63.08 63.6301 63.24C63.2201 63.4 62.78 63.45 62.36 63.55C61.93 63.58 61.4901 63.63 61.0601 63.62C60.6301 63.58 60.2001 63.6 59.7801 63.5C59.3601 63.41 58.9401 63.37 58.5401 63.22C58.1401 63.09 57.7301 63 57.3401 62.82C56.9501 62.66 56.5501 62.52 56.1801 62.34L55.0701 61.77L55.08 61.74ZM55.08 61.74L56.2501 62.16C56.6401 62.3 57.0401 62.4 57.4301 62.52C57.8201 62.65 58.2301 62.69 58.6301 62.79C59.0301 62.89 59.4401 62.89 59.8401 62.94C60.2401 62.99 60.65 62.94 61.05 62.96C61.45 62.94 61.8401 62.86 62.2301 62.81C62.6001 62.68 63.0001 62.62 63.3501 62.45C63.7101 62.29 64.0701 62.15 64.3901 61.92L64.8801 61.6L65.3201 61.21C65.6301 60.97 65.8701 60.66 66.1401 60.37C66.4201 60.09 66.6101 59.74 66.8501 59.42C67.0901 59.11 67.2501 58.73 67.4501 58.39C67.6601 58.05 67.7901 57.67 67.9601 57.31C68.1401 56.95 68.2801 56.57 68.4101 56.19C68.5401 55.81 68.6901 55.44 68.7901 55.04L69.1201 53.87L69.3201 54.46C69.0001 54.22 68.6201 53.98 68.2501 53.76C67.8801 53.54 67.5 53.33 67.11 53.14C66.33 52.76 65.5201 52.47 64.6901 52.27C64.2701 52.18 63.8601 52.09 63.4401 52.06C63.0201 52.01 62.6001 52.02 62.1801 52.06C61.7601 52.1 61.3501 52.17 60.9601 52.3C60.5601 52.43 60.1701 52.57 59.8101 52.78C59.6201 52.87 59.4401 52.99 59.2701 53.11C59.0901 53.22 58.9301 53.36 58.7601 53.49C58.5901 53.62 58.4401 53.77 58.2901 53.92C58.1301 54.07 57.9901 54.23 57.8501 54.39C57.5601 54.71 57.31 55.07 57.05 55.42L56.7001 55.98C56.6001 56.12 56.5101 56.37 56.4201 56.56C56.2601 56.97 56.1201 57.36 56.0001 57.8C55.8701 58.23 55.7601 58.66 55.6501 59.1C55.5401 59.54 55.4501 59.98 55.3501 60.42C55.2501 60.86 55.1501 61.3 55.0601 61.74H55.08Z" fill="#5B5C5C"/>
<path d="M55.68 61.95C55.68 64.52 53.6 66.61 51.03 66.61C48.46 66.61 46.38 64.52 46.38 61.95C46.38 59.38 48.46 57.29 51.03 57.29C53.6 57.29 55.68 59.38 55.68 61.95Z" fill="#AEADAE"/>
<path d="M51.15 65.06C60.28 64.89 52.04 30.53 51.15 30.57C50.11 30.62 41.87 65.23 51.15 65.06Z" fill="white"/>
</svg>
