<svg width="102" height="102" viewBox="0 0 102 102" fill="none" xmlns="http://www.w3.org/2000/svg">
<path d="M92.48 0.190002H8.89001C4.10171 0.190002 0.219971 4.07168 0.219971 8.85999V92.45C0.219971 97.2383 4.10171 101.12 8.89001 101.12H92.48C97.2683 101.12 101.15 97.2383 101.15 92.45V8.85999C101.15 4.07168 97.2683 0.190002 92.48 0.190002Z" fill="#E57D25"/>
<path d="M50.8499 81.76C50.0199 81.76 49.1999 81.65 48.3899 81.46C48.3199 81.46 48.2499 81.44 48.1799 81.43C48.1299 81.42 48.0899 81.41 48.0499 81.39C48.0499 81.39 47.9599 81.36 47.9399 81.36C47.7099 81.29 47.4899 81.21 47.2399 81.12C46.7599 80.94 46.3099 80.73 45.8899 80.49L45.4999 80.29C44.7599 79.9 43.9199 79.47 42.6799 78.94C42.5899 78.9 42.4999 78.86 42.4099 78.82C41.8899 78.59 41.3499 78.34 40.8099 78.07C40.3199 77.9 39.7399 77.81 39.1299 77.72C38.3499 77.6 37.5499 77.48 36.7399 77.18C33.8799 76.11 30.6799 74.62 28.5699 71.65C28.2799 71.24 28.0099 70.8 27.7799 70.36C27.7299 70.27 27.6999 70.18 27.6699 70.09C26.6099 67.82 26.3199 65.05 26.8099 61.63C26.9899 60.39 27.0399 59.36 27.0899 58.36C27.1699 56.73 27.2499 55.17 27.8499 53.1C25.7199 49.79 26.3799 47.76 26.9199 46.11C27.1199 45.49 27.2999 44.96 27.3099 44.39C27.3099 44.13 27.2799 43.86 27.2099 43.58C26.7799 41.89 26.4499 40.27 26.2099 38.75C24.7399 29.55 26.6999 24.69 28.5999 22.24C30.0599 20.36 31.9999 19.28 33.9099 19.28C34.1599 19.28 34.4099 19.3 34.6399 19.34C42.7599 20.64 45.3499 29.2 47.0699 34.87C47.5299 36.4 48.0099 37.98 48.4399 38.76C48.4599 38.76 48.4799 38.76 48.5099 38.76C48.5399 38.76 48.5799 38.76 48.6099 38.76C49.2099 38.73 49.7599 38.72 50.2199 38.72C50.3399 38.72 50.4699 38.72 50.5799 38.72C50.5799 38.72 50.7199 38.72 50.7299 38.72H50.8999H50.9899C51.0899 38.72 51.2799 38.73 51.5199 38.75H51.7399C52.0499 38.78 52.5699 38.81 52.8799 38.83C53.3199 38.06 53.8399 36.33 54.2699 34.9C55.9899 29.23 58.5799 20.66 66.6999 19.36C66.9399 19.32 67.1799 19.3 67.4199 19.3C69.3299 19.3 71.2699 20.38 72.7299 22.26C74.6399 24.72 77.3699 30.76 74.1199 43.61C73.8899 44.51 74.1199 45.22 74.4199 46.12C74.9599 47.77 75.6199 49.81 73.4899 53.11C74.0899 55.18 74.1699 56.73 74.2499 58.36C74.2999 59.36 74.3499 60.39 74.5299 61.63C75.0799 65.46 74.6499 68.5 73.2399 70.92C73.0799 71.19 72.9099 71.45 72.6899 71.75C70.5699 74.79 67.6099 76.2 64.9799 77.18C64.1099 77.51 63.2399 77.66 62.3999 77.82C61.6699 77.95 60.9699 78.08 60.3699 78.31C60.3099 78.33 60.2499 78.36 60.1999 78.38C59.8699 78.53 59.5099 78.7 59.1499 78.85L59.0899 78.88C57.7299 79.45 56.8399 79.93 56.1199 80.32C55.2099 80.82 54.4899 81.21 53.4299 81.46C53.3299 81.48 53.2299 81.5 53.1299 81.5C52.3799 81.67 51.6099 81.76 50.8299 81.76H50.8099H50.8499Z" fill="#2F150C"/>
<path d="M71.74 23.04C70.21 21.08 68.32 20.39 66.92 20.62C56.47 22.29 55.99 37.9 53.5 40.12C53.47 40.12 53.3899 40.13 53.1599 40.12C53.1599 40.12 52.11 40.07 51.46 40.04C51.22 40.03 51.0399 40.02 50.9699 40.01C50.9399 40.01 50.91 40.01 50.88 40.01C50.79 40.01 50.72 40.01 50.69 40.01C50.57 40.01 50.42 40.01 50.24 40.01C49.78 40.01 49.25 40.03 48.68 40.05C48.32 40.1 48.19 40.06 47.87 40.12C47.83 40.08 47.79 40.05 47.75 40.01C45.36 37.43 44.74 22.27 34.45 20.63C33.05 20.4 31.16 21.09 29.63 23.05C27.6 25.66 26.21 30.54 27.49 38.57C27.72 40.04 28.0499 41.61 28.4699 43.3C28.5699 43.71 28.6099 44.09 28.5999 44.44C28.5399 47.01 26.16 48.53 29.26 52.91C28.12 56.43 28.58 58.31 28.08 61.83C27.59 65.3 27.97 67.86 28.95 69.8C28.94 69.8 28.9199 69.78 28.9099 69.77C29.1299 70.18 29.36 70.56 29.62 70.91C31.44 73.47 34.21 74.87 37.19 75.99C38.54 76.49 40.04 76.43 41.32 76.9C41.85 77.17 42.39 77.42 42.93 77.65C43.02 77.69 43.1 77.73 43.19 77.76C44.72 78.42 45.69 78.95 46.51 79.37C46.87 79.58 47.27 79.77 47.7 79.93C47.9 80.01 48.09 80.08 48.3 80.14C48.36 80.16 48.43 80.18 48.49 80.19C48.49 80.19 48.49 80.19 48.5 80.18C49.23 80.37 50.0199 80.48 50.8499 80.49C51.6499 80.49 52.41 80.38 53.13 80.2C53.13 80.2 53.14 80.22 53.15 80.23C54.81 79.83 55.56 78.99 58.62 77.71C58.63 77.71 58.65 77.7 58.67 77.69C59.01 77.54 59.36 77.39 59.7 77.23C59.78 77.2 59.86 77.16 59.95 77.13C61.4 76.59 63.04 76.57 64.56 76C67.5 74.9 69.94 73.52 71.67 71.03C71.84 70.79 72.0099 70.55 72.1599 70.3C73.3299 68.31 73.82 65.61 73.29 61.84C72.78 58.32 73.25 56.43 72.11 52.92C75.64 47.93 72.0599 46.65 72.9099 43.31C75.6699 32.42 74.16 26.15 71.75 23.07L71.74 23.04Z" fill="#2F150C"/>
<path d="M39.32 67.62C34.96 67.62 31.51 67.62 31.51 59.81C31.51 55.96 35.21 53.08 38.52 53.08C38.78 53.08 39.04 53.1 39.28 53.14C43.46 53.8 46.46 57.91 46.95 61.51C47.16 63.01 46.81 64.29 45.93 65.3C44.64 66.77 42.23 67.62 39.32 67.62Z" fill="#F8D089"/>
<path d="M72.0999 52.89C73.2399 56.4 72.77 58.28 73.28 61.81C73.82 65.58 73.32 68.28 72.15 70.27C70.46 73.16 67.37 74.57 64.01 75.66C62.53 76.14 60.92 76.16 59.52 76.62C55.49 77.92 54.7299 78.87 52.9099 79.25C52.3499 79.37 51.68 79.44 50.78 79.45H50.7H50.61C49.65 79.45 48.96 79.37 48.38 79.23C48.32 79.22 48.25 79.2 48.2 79.19C46.58 78.77 45.68 77.85 41.87 76.62C40.46 76.17 38.86 76.15 37.37 75.67C34.06 74.59 31.01 73.2 29.3 70.4C29.22 70.26 29.15 70.13 29.07 69.99C28.02 68.03 27.5899 65.41 28.0999 61.82C28.6099 58.3 28.15 56.42 29.28 52.9C26.18 48.52 28.56 47 28.62 44.43C28.62 44.07 28.59 43.7 28.49 43.29C28.07 41.61 27.74 40.04 27.51 38.56C26.23 30.53 27.62 25.66 29.65 23.04C31.18 21.08 33.0699 20.39 34.4699 20.62C44.7599 22.26 45.38 37.43 47.77 40C47.81 40.04 47.85 40.08 47.89 40.11C47.89 40.11 48.84 40.05 49.68 40.01C50.09 39.99 50.48 39.98 50.71 39.99C50.8 39.99 51.03 40.01 51.33 40.03C52.16 40.08 53.48 40.16 53.51 40.13C56.01 37.97 56.47 22.3 66.94 20.62C68.33 20.4 70.23 21.08 71.76 23.04C74.16 26.13 75.67 32.39 72.92 43.28C72.08 46.62 75.65 47.9 72.12 52.89" fill="#A38667"/>
<path d="M50.59 79.57C47.17 79.57 42.07 77.69 37.89 74.88C33.1 71.66 30.07 67.67 29.59 63.92C29.54 63.55 29.52 63.17 29.52 62.79C29.52 55.29 34.7 46.22 36.37 44.72C37.63 43.59 44.12 40.77 50.6 40.77C56.7 40.77 63.49 43.55 64.84 44.74C66.56 46.25 71.68 55.31 71.68 62.79C71.68 63.06 71.67 63.34 71.64 63.6C71.64 63.7 71.62 63.8 71.61 63.9C70.61 72.63 58.32 79.42 50.85 79.57H50.89H50.6" fill="#CCA986"/>
<path d="M50.8599 70.8C47.1899 70.84 44.1299 73.3 44.1299 75.83C44.1299 78.36 47.1399 80.45 50.8599 80.48C54.5799 80.45 57.5899 78.38 57.5899 75.83C57.5899 73.28 54.5299 70.84 50.8599 70.8Z" fill="#F4EDEA"/>
<path d="M50.8199 76.34C50.3899 77.55 49.3999 79.01 48.4999 80.18C48.4399 80.16 48.3699 80.14 48.3099 80.13C46.8799 79.7 45.92 78.92 43.2 77.75C42.76 77.56 42.3699 77.38 41.8199 77.09C40.4499 76.38 38.73 76.54 37.2 75.97C33.8 74.7 30.6799 73.06 28.9199 69.75C32.3699 72.33 39.1599 76.31 46.3599 74.35C49.0399 73.62 50.3499 73.81 50.8199 74.49C51.1299 74.93 51.0799 75.59 50.8199 76.33" fill="#F4EDEA"/>
<path d="M72.5001 69.62C70.7601 73.03 68.0101 74.7 64.5601 75.98C63.0401 76.55 61.3901 76.57 59.9501 77.11C59.4901 77.28 59.0101 77.53 58.6301 77.69C55.5701 78.97 54.8201 79.81 53.1601 80.21C52.2501 79.03 51.2501 77.56 50.8201 76.33C50.5601 75.58 50.5101 74.93 50.8201 74.49C51.3001 73.82 52.6101 73.64 55.2701 74.36C62.6201 76.36 69.1101 72.18 72.4901 69.61" fill="#F4EDEA"/>
<path d="M51.2701 73.18C51.4001 73.51 51.9501 73.5 52.5201 73.15C53.0801 72.8 53.4301 72.24 53.3101 71.91C53.1801 71.58 52.6301 71.59 52.0601 71.95C51.5001 72.3 51.1501 72.86 51.2701 73.19V73.18Z" fill="#101011"/>
<path d="M50.4699 73.18C50.3399 73.52 49.7799 73.5 49.2199 73.15C48.6599 72.8 48.2999 72.24 48.4299 71.91C48.5599 71.58 49.1199 71.59 49.6799 71.95C50.2399 72.3 50.5999 72.86 50.4699 73.19V73.18Z" fill="#101011"/>
<path d="M54.7001 50.3C54.7001 50.3 54.6401 48.59 53.5501 47.85C52.4601 47.12 51.2101 46.22 50.7301 45.35C50.6901 45.28 50.6501 45.2 50.6201 45.1C50.2001 43.98 49.9401 41.15 50.1701 40.08C50.1701 40.05 50.1801 40.03 50.1901 40.01C50.5101 40 50.8101 39.99 50.9901 39.99C51.0601 39.99 51.2401 40 51.4801 40.02C52.1301 40.06 53.1601 40.12 53.1801 40.1C53.6701 40.14 53.4901 40.04 53.5601 40.21C53.8901 40.99 53.7601 42.64 53.1301 43.59C52.4901 44.55 52.1301 45.11 52.6701 45.72C53.2101 46.34 54.3701 47.67 54.5401 48.27C54.7101 48.86 54.7101 50.29 54.7101 50.29L54.7001 50.3Z" fill="#1A191A"/>
<path d="M50.44 45.48C49.93 46.31 48.75 47.08 47.72 47.72C46.78 48.3 46.51 49.77 46.47 50.01C46.49 49.79 46.63 48.57 46.82 48.05C47.03 47.47 48.18 46.25 48.71 45.68C49.24 45.11 48.98 44.52 48.52 43.52C48.06 42.51 47.87 40.1 47.87 40.1C48.19 40.04 48.32 40.07 48.68 40.03C49.51 39.99 50.29 39.98 50.84 39.99C50.91 39.99 51.24 40.01 51.48 40.02C51.48 40.17 51.46 40.49 51.48 40.56C51.58 41.74 50.96 44.65 50.45 45.48H50.44Z" fill="#1A191A"/>
<path d="M60.96 73.85C61.34 73.9 61.45 73.62 61.5 73.57C61.55 73.52 61.71 72.96 61.73 72.67C61.75 72.39 61.94 72.41 61.65 72.27C61.36 72.13 60.77 72.34 60.77 72.44C60.77 72.55 60.49 73.33 60.49 73.33L60.96 73.84V73.85Z" fill="#231F20"/>
<path d="M59.5599 69.48C59.5599 69.48 59.3599 69.58 59.3099 69.67C59.2599 69.76 59.2199 69.88 59.3099 69.98C59.3999 70.08 59.5199 70.14 59.6499 70.1C59.7799 70.07 59.8799 69.99 59.8799 69.89C59.8799 69.79 59.8099 69.67 59.8099 69.67L59.5599 69.48Z" fill="#231F20"/>
<path d="M41.95 69.33C41.95 69.33 41.75 69.43 41.7 69.52C41.65 69.61 41.61 69.73 41.7 69.83C41.79 69.93 41.91 69.99 42.04 69.95C42.17 69.91 42.27 69.84 42.27 69.73C42.27 69.62 42.2 69.52 42.2 69.52L41.95 69.33Z" fill="#231F20"/>
<path d="M40.05 69.79C40.05 69.79 39.6 70.02 39.47 70.22C39.35 70.43 39.26 70.7 39.47 70.93C39.68 71.16 39.96 71.29 40.25 71.21C40.54 71.13 40.79 70.96 40.79 70.72C40.79 70.48 40.63 70.22 40.63 70.22L40.05 69.79Z" fill="#231F20"/>
<path d="M36.7099 71.86C36.7099 71.86 36.3499 72.04 36.2599 72.2C36.1599 72.36 36.0999 72.57 36.2599 72.76C36.4199 72.95 36.6399 73.04 36.8699 72.98C37.0999 72.92 37.2899 72.78 37.2899 72.59C37.2899 72.4 37.1599 72.2 37.1599 72.2L36.7099 71.86Z" fill="#231F20"/>
<path d="M63.7399 70.52C63.7399 70.52 63.3799 70.7 63.2899 70.86C63.1899 71.02 63.1299 71.23 63.2899 71.42C63.4499 71.61 63.67 71.7 63.9 71.64C64.13 71.58 64.32 71.45 64.32 71.25C64.32 71.05 64.19 70.86 64.19 70.86L63.7399 70.52Z" fill="#231F20"/>
<path d="M65.9001 71.18C65.9001 71.18 65.5401 71.36 65.4501 71.52C65.3501 71.68 65.2901 71.89 65.4501 72.08C65.6101 72.27 65.8401 72.37 66.0601 72.3C66.2901 72.24 66.4801 72.11 66.4801 71.91C66.4801 71.71 66.35 71.52 66.35 71.52L65.9001 71.18Z" fill="#231F20"/>
<path d="M39.8301 72.01C39.8301 72.01 39.3201 72.26 39.1801 72.5C39.0401 72.73 38.9501 73.04 39.1801 73.3C39.4101 73.57 39.7301 73.71 40.0601 73.61C40.3901 73.52 40.67 73.33 40.67 73.05C40.67 72.77 40.48 72.49 40.48 72.49L39.8301 72V72.01Z" fill="#231F20"/>
<path d="M34.25 72.5C34.17 72.71 33.73 72.73 33.28 72.55C32.83 72.37 32.53 72.0501 32.62 71.8401C32.7 71.6301 33.14 71.61 33.59 71.79C34.04 71.97 34.34 72.29 34.25 72.5Z" fill="#231F20"/>
<path d="M69.4001 70.04C69.5001 70.25 69.2201 70.58 68.7901 70.79C68.3501 71 67.9101 71 67.8201 70.79C67.7201 70.58 68.0001 70.25 68.4301 70.04C68.8701 69.83 69.3101 69.82 69.4001 70.04Z" fill="#231F20"/>
<path d="M46.78 41.39C46.46 41.95 46.03 42.22 45.59 42.57C44.35 43.56 43.86 44.78 43.05 45.34C42.25 45.89 40.25 45.39 38.5 45.87C36.74 46.35 33.88 48.7299 32.2 48.9699C31.13 49.1199 30.23 48.74 29.16 45.44C28.66 43.89 28.28 42.02 28.14 39.92C26.97 32.37 28.24 27.78 30.1 25.33C31.5 23.49 33.23 22.84 34.51 23.05C44.08 24.62 44.52 39.31 46.79 41.38L46.78 41.39Z" fill="white"/>
<path d="M54.5701 41.39C54.8901 41.95 55.3201 42.22 55.7601 42.57C57.0001 43.56 57.3401 44.74 58.1401 45.29C58.9501 45.84 61.1001 45.39 62.8701 45.87C64.6301 46.35 67.5001 48.7299 69.1801 48.9699C70.2501 49.1199 71.15 48.74 72.23 45.44C72.74 43.89 73.1201 42.02 73.2501 39.92C74.4201 32.37 73.15 27.78 71.29 25.33C69.89 23.49 68.1501 22.84 66.8701 23.05C57.2801 24.62 56.8501 39.31 54.5701 41.38V41.39Z" fill="white"/>
<path d="M59.2399 76.01C59.2399 76.01 59.3699 75.49 59.4599 74.9C59.5499 74.29 59.6099 73.61 59.4599 73.35C59.1699 72.84 56.3699 72.06 55.0499 70.46C53.7299 68.86 53.7699 65.76 54.0299 64.08L54.4399 63.2C54.4099 64.86 54.4999 66.12 54.5299 66.49C54.5299 66.56 54.5099 66.6 54.5099 66.6C54.6699 66.68 54.8399 66.75 54.9899 66.82C55.2699 68.13 55.7099 69.53 56.1699 70.22C57.0499 71.52 59.6999 72.78 59.7399 73.71C59.7599 74.08 59.6799 74.51 59.5799 74.91C59.4299 75.52 59.2199 76.03 59.2199 76.03" fill="#302A13"/>
<path d="M42.2299 76.01C42.2299 76.01 42.0199 75.49 41.8599 74.88C41.7599 74.49 41.6899 74.06 41.6999 73.7C41.7399 72.77 44.3999 71.51 45.2699 70.21C45.7399 69.51 46.2099 68.03 46.4799 66.69C46.5499 66.66 46.6199 66.63 46.6899 66.59C46.6899 66.51 46.8499 64.88 46.7799 62.69L47.4299 64.07C47.6899 65.75 47.7299 68.85 46.4099 70.45C45.0899 72.05 42.2899 72.83 41.9999 73.34C41.8599 73.6 41.9099 74.27 41.9999 74.88C42.0899 75.48 42.2199 76.01 42.2199 76.01" fill="#302A13"/>
<path d="M53.9799 67.7C53.9799 67.7 54.0599 67.92 54.0999 68.28C54.1199 68.46 54.1399 68.66 54.1299 68.89C54.1299 69.11 54.0999 69.35 54.0599 69.59C54.0299 69.71 54.0099 69.83 53.9799 69.94C53.9499 70.05 53.9099 70.17 53.8699 70.27C53.8299 70.38 53.7899 70.48 53.7299 70.57C53.6799 70.66 53.64 70.75 53.59 70.82C53.54 70.9 53.49 70.96 53.45 71.02C53.4 71.07 53.3599 71.12 53.3199 71.16C53.2499 71.23 53.21 71.28 53.21 71.28C53.21 71.28 53.24 71.23 53.28 71.14C53.3 71.09 53.3299 71.04 53.3599 70.98C53.3899 70.92 53.42 70.84 53.46 70.76C53.5 70.68 53.5199 70.59 53.5599 70.5C53.5999 70.41 53.6199 70.31 53.6599 70.21C53.6999 70.11 53.7099 70 53.7499 69.89C53.7799 69.78 53.7999 69.67 53.8199 69.56C53.8399 69.45 53.8599 69.33 53.8799 69.23C53.8799 69.12 53.9099 69.01 53.9199 68.9C53.9399 68.68 53.9599 68.48 53.9699 68.31C53.9899 67.96 53.9999 67.73 53.9999 67.73L53.9799 67.7Z" fill="#272626"/>
<path d="M47.47 67.7C47.47 67.7 47.4701 67.93 47.5001 68.28C47.5001 68.45 47.53 68.65 47.55 68.87C47.55 68.98 47.5801 69.09 47.5901 69.2C47.6101 69.31 47.6301 69.43 47.6501 69.53C47.6701 69.64 47.69 69.76 47.72 69.86C47.75 69.97 47.77 70.08 47.8 70.18C47.83 70.28 47.8601 70.38 47.9001 70.47C47.9401 70.56 47.9601 70.65 48.0001 70.73C48.0301 70.81 48.0601 70.88 48.0901 70.95C48.1201 71.01 48.15 71.07 48.17 71.11C48.22 71.2 48.2401 71.25 48.2401 71.25C48.2401 71.25 48.2001 71.21 48.1301 71.13C48.0901 71.09 48.0501 71.05 48.0001 70.99C47.9601 70.93 47.91 70.86 47.86 70.79C47.81 70.72 47.76 70.63 47.72 70.54C47.67 70.45 47.6201 70.35 47.5801 70.24C47.5301 70.14 47.5 70.02 47.47 69.91C47.43 69.8 47.4101 69.68 47.3901 69.56C47.3501 69.33 47.3201 69.09 47.3201 68.86C47.3201 68.63 47.32 68.43 47.35 68.25C47.39 67.89 47.47 67.67 47.47 67.67V67.7Z" fill="#272626"/>
<path d="M31.8799 58.88C31.8799 58.88 36.3299 68.07 40.1399 68.07C43.0599 68.07 46.6999 66.58 46.6999 66.58C46.6999 66.58 48.2499 51.27 39.7999 50.78C35.9999 50.56 31.8799 58.89 31.8799 58.89" fill="#A38667"/>
<path d="M69.3699 58.88C69.3699 58.88 64.9199 68.07 61.1199 68.07C58.1999 68.07 54.5599 66.58 54.5599 66.58C54.5599 66.58 53.0099 51.27 61.4599 50.78C65.2599 50.56 69.3799 58.89 69.3799 58.89" fill="#A38667"/>
<path d="M55.9401 52.88C55.9401 52.88 54.35 55.6699 54.16 57.4699C53.98 59.2699 53.9201 61.14 54.9301 63.07C55.9301 65 57.1501 57.91 57.5901 57.43C58.0301 56.95 57.3701 56.62 57.0501 56.1C56.7301 55.58 56.1801 54.46 56.2401 53.93C56.3001 53.4 56.41 53.24 56.35 53.04C56.29 52.84 55.9501 52.88 55.9501 52.88" fill="#1A191A"/>
<path d="M45.4301 52.88C45.4301 52.88 47.0301 55.6699 47.2101 57.4699C47.3901 59.2699 47.4501 61.14 46.4401 63.07C45.4401 65 44.2301 57.91 43.7801 57.43C43.3401 56.95 44.0101 56.62 44.3201 56.1C44.6401 55.58 45.2001 54.46 45.1301 53.93C45.0701 53.4 44.9601 53.24 45.0201 53.04C45.0901 52.84 45.4201 52.88 45.4201 52.88" fill="#1A191A"/>
<path d="M36 52.8C36 52.8 36.01 52.76 36.05 52.7C36.08 52.64 36.13 52.54 36.2 52.43C36.27 52.31 36.37 52.19 36.49 52.04C36.62 51.9 36.75 51.73 36.93 51.59C37.02 51.51 37.11 51.43 37.21 51.36C37.32 51.29 37.43 51.22 37.54 51.14C37.65 51.06 37.78 51 37.91 50.93C38.04 50.87 38.17 50.79 38.31 50.75C38.59 50.65 38.89 50.54 39.21 50.51C39.53 50.44 39.85 50.44 40.18 50.44C40.51 50.44 40.82 50.52 41.14 50.57C41.44 50.66 41.74 50.77 42.01 50.88C42.27 51.02 42.52 51.16 42.75 51.3C42.97 51.45 43.15 51.62 43.33 51.78C43.41 51.86 43.5 51.93 43.57 52C43.64 52.08 43.7 52.16 43.76 52.23C43.88 52.37 43.97 52.51 44.05 52.62C44.2 52.84 44.28 52.96 44.28 52.96C44.28 52.96 44.13 52.91 43.89 52.81C43.77 52.76 43.62 52.7 43.47 52.62C43.32 52.54 43.13 52.47 42.93 52.4C42.73 52.33 42.53 52.23 42.31 52.16C42.08 52.1 41.85 52.02 41.62 51.94C41.38 51.89 41.13 51.84 40.89 51.78C40.76 51.77 40.64 51.76 40.51 51.74C40.39 51.73 40.26 51.7 40.14 51.71C39.89 51.71 39.63 51.69 39.39 51.73C39.27 51.75 39.14 51.73 39.02 51.77C38.9 51.79 38.78 51.82 38.66 51.83C38.54 51.84 38.43 51.89 38.31 51.91C38.19 51.94 38.08 51.96 37.97 52C37.75 52.07 37.54 52.13 37.35 52.21C37.15 52.28 36.98 52.36 36.81 52.42C36.66 52.5 36.51 52.55 36.39 52.61C36.27 52.66 36.18 52.71 36.12 52.74C36.06 52.77 36.02 52.79 36.02 52.79L36 52.8Z" fill="#302A13"/>
<path d="M33.01 60.46C33.01 59.91 32.11 59.67 32.26 59.17C33.09 56.39 35.97 54.46 38.6 54.46C38.84 54.46 39.08 54.48 39.31 54.51C43.22 55.12 46.04 58.98 46.5 62.35C46.69 63.76 46.37 64.95 45.54 65.9C44.33 67.28 33.01 67.77 33.01 60.46Z" fill="white"/>
<path d="M68.1501 60.46C68.1501 59.91 69.0501 59.67 68.9001 59.17C68.0701 56.39 65.19 54.46 62.56 54.46C62.32 54.46 62.08 54.48 61.85 54.51C57.94 55.12 55.12 58.98 54.66 62.35C54.47 63.76 54.79 64.95 55.62 65.9C56.83 67.28 68.1501 67.77 68.1501 60.46Z" fill="white"/>
<path d="M65.1 52.8C65.1 52.8 65.0601 52.78 65.0001 52.75C64.9401 52.72 64.85 52.68 64.73 52.62C64.62 52.56 64.4701 52.51 64.3101 52.43C64.1501 52.37 63.9701 52.29 63.7701 52.22C63.5801 52.14 63.3601 52.08 63.1501 52.01C63.0401 51.97 62.9201 51.95 62.8101 51.92C62.6901 51.9 62.5801 51.85 62.4601 51.84C62.3401 51.82 62.22 51.8 62.1 51.78C61.98 51.75 61.85 51.76 61.73 51.74C61.48 51.7 61.23 51.72 60.98 51.72C60.85 51.72 60.73 51.74 60.61 51.75C60.48 51.77 60.36 51.77 60.23 51.79C59.99 51.85 59.7401 51.9 59.5001 51.95C59.2701 52.03 59.0401 52.1 58.8101 52.17C58.5901 52.25 58.3901 52.34 58.1901 52.41C57.9901 52.48 57.8001 52.55 57.6501 52.63C57.5001 52.71 57.35 52.77 57.23 52.82C56.99 52.92 56.8401 52.97 56.8401 52.97C56.8401 52.97 56.9101 52.84 57.0701 52.63C57.1501 52.52 57.24 52.39 57.36 52.24C57.42 52.17 57.48 52.09 57.55 52.01C57.62 51.94 57.71 51.87 57.79 51.79C57.96 51.64 58.1501 51.46 58.3701 51.31C58.6001 51.17 58.85 51.02 59.11 50.89C59.39 50.77 59.68 50.67 59.98 50.58C60.3 50.53 60.6101 50.45 60.9401 50.45C61.2701 50.45 61.59 50.45 61.91 50.52C62.23 50.56 62.5201 50.66 62.8101 50.76C62.9501 50.81 63.0801 50.88 63.2101 50.94C63.3401 51.01 63.4701 51.07 63.5801 51.15C63.6901 51.22 63.8 51.3 63.91 51.37C64.01 51.45 64.1001 51.53 64.1901 51.6C64.3701 51.74 64.5101 51.92 64.6301 52.05C64.7501 52.19 64.85 52.32 64.92 52.44C64.99 52.55 65.0401 52.65 65.0701 52.71C65.1101 52.77 65.1201 52.81 65.1201 52.81L65.1 52.8Z" fill="#302A13"/>
<path d="M46.7 66.58C39.69 69.92 34.75 67.75 32.53 59.1C32.53 59.1 40.96 52.55 45.44 60.95C46.14 62.25 46.7 66.59 46.7 66.59" fill="white"/>
<path d="M39.9199 67.13C37.9699 67.08 36.3399 65.55 35.7099 63.4C35.5199 62.75 35.4199 62.03 35.4299 61.29C35.4899 58.31 37.3499 57.24 39.6899 57.17C39.8299 57.17 39.9799 57.17 40.1299 57.17C42.6699 57.22 44.5999 59.87 44.6399 61.49C44.7199 64.66 42.4599 67.18 39.9199 67.13Z" fill="#F9BE39"/>
<path d="M39.94 66.33C38.46 66.29 37.17 65.03 36.64 63.11C36.47 62.5 36.39 61.85 36.4 61.19C36.45 58.97 37.4999 57.9 39.7199 57.83C39.8299 57.83 39.94 57.83 40.05 57.83H40.11C42.11 57.88 43.64 60.21 43.67 61.41C43.71 62.86 43.22 64.24 42.34 65.2C41.67 65.93 40.83 66.34 39.99 66.34H39.93" fill="#884C21"/>
<path d="M54.53 66.58C61.54 69.92 66.48 67.75 68.7 59.1C68.7 59.1 60.27 52.55 55.79 60.95C55.09 62.25 54.53 66.59 54.53 66.59" fill="white"/>
<path d="M61.2999 67.13C63.2499 67.08 64.8799 65.55 65.5099 63.4C65.6999 62.75 65.7999 62.03 65.7899 61.29C65.7299 58.31 63.87 57.24 61.53 57.17C61.39 57.17 61.24 57.17 61.09 57.17C58.55 57.22 56.6199 59.87 56.5799 61.49C56.4999 64.66 58.7599 67.18 61.2999 67.13Z" fill="#F9BE39"/>
<path d="M61.2299 66.33C60.3899 66.33 59.5499 65.92 58.8799 65.19C57.9999 64.23 57.5199 62.85 57.5499 61.4C57.5799 60.2 59.1099 57.87 61.1199 57.82H61.1699C61.2799 57.82 61.3899 57.82 61.4999 57.82C63.7199 57.89 64.7699 58.96 64.8199 61.18C64.8299 61.84 64.7599 62.49 64.5899 63.1C64.0599 65.02 62.7599 66.29 61.2899 66.32H61.2299" fill="#884C21"/>
<path d="M40.2299 60.11C40.1899 62.03 38.9099 63.56 37.3699 63.53C36.6699 63.52 36.0499 63.19 35.5699 62.65C35.3999 62.08 35.3199 61.45 35.3299 60.81C35.3799 58.19 37.0099 57.26 39.0599 57.2C39.7999 57.84 40.2699 58.91 40.2399 60.12" fill="white"/>
<path d="M42.65 65.66C42.64 66.31 42.1999 66.83 41.6799 66.82C41.1599 66.81 40.7499 66.27 40.7599 65.62C40.7799 64.97 41.2099 64.45 41.7299 64.46C42.2499 64.47 42.66 65.01 42.65 65.66Z" fill="white"/>
<path d="M61.1801 60.4C61.1401 62.32 59.8601 63.85 58.3201 63.82C57.6201 63.8 57.0001 63.47 56.5201 62.93C56.3501 62.36 56.2701 61.73 56.2801 61.09C56.3301 58.47 57.9601 57.54 60.0101 57.48C60.7501 58.12 61.2201 59.19 61.1901 60.4" fill="white"/>
<path d="M63.7999 65.66C63.7799 66.31 63.3499 66.83 62.8299 66.82C62.3099 66.81 61.8899 66.27 61.9099 65.62C61.9299 64.97 62.3599 64.45 62.8799 64.46C63.3999 64.47 63.8099 65.01 63.7999 65.66Z" fill="white"/>
<path d="M45.4399 67.13C45.7799 66.99 46.1399 66.84 46.4899 66.68C46.1299 66.85 45.7799 67 45.4399 67.13Z" fill="#BC9D7F"/>
<path d="M46.36 64.44C46.13 63.15 45.8 61.64 45.44 60.95C43.69 57.67 41.34 56.67 39.12 56.67C35.66 56.67 32.53 59.1 32.53 59.1C32.61 59.4 32.68 59.69 32.77 59.98C32.69 59.69 32.61 59.4 32.53 59.1C32.53 59.1 35.67 56.67 39.13 56.67C41.35 56.67 43.7 57.67 45.46 60.95C45.82 61.64 46.15 63.15 46.38 64.44" fill="#E2E1E1"/>
<path d="M45.44 67.13C45.21 65.9 44.9 64.51 44.56 63.87C44.5 63.75 44.43 63.64 44.37 63.52C44.57 62.89 44.67 62.21 44.65 61.49C44.6 59.87 42.68 57.23 40.14 57.17H40.07C39.95 57.17 39.82 57.17 39.7 57.17C39.49 57.17 39.29 57.19 39.09 57.21C39.08 57.21 39.06 57.19 39.05 57.18C37.21 57.23 35.7 58 35.38 60.06C34.51 60.35 33.74 60.72 33.12 61.06C33.05 60.84 32.97 60.62 32.9 60.4C32.85 60.26 32.81 60.11 32.77 59.97C32.69 59.68 32.61 59.39 32.53 59.09C32.53 59.09 35.66 56.66 39.12 56.66C41.34 56.66 43.69 57.66 45.44 60.94C45.8 61.63 46.13 63.14 46.36 64.43C46.57 65.6 46.69 66.58 46.69 66.58C46.62 66.61 46.55 66.64 46.48 66.68C46.12 66.84 45.77 67 45.43 67.13" fill="#E2E1E1"/>
<path d="M44.36 63.52C44.12 63.1 43.8701 62.73 43.6201 62.39C43.6701 62.06 43.6801 61.73 43.6801 61.4C43.6501 60.2 42.1201 57.87 40.1201 57.82H40.0601C39.9501 57.82 39.84 57.82 39.73 57.82C39.69 57.82 39.65 57.82 39.61 57.82C39.46 57.59 39.2801 57.39 39.0901 57.21C39.2901 57.19 39.4901 57.17 39.7001 57.17C39.8201 57.17 39.9501 57.17 40.0701 57.17H40.1401C42.6801 57.22 44.6101 59.87 44.6501 61.49C44.6701 62.21 44.5701 62.89 44.3701 63.52" fill="#E2AE42"/>
<path d="M43.6199 62.39C42.5899 61.03 41.4199 60.26 40.2299 59.88C40.1999 59.1 39.9799 58.39 39.6099 57.83C39.6499 57.83 39.6899 57.83 39.7299 57.83C39.8399 57.83 39.9499 57.83 40.0599 57.83H40.1199C42.1199 57.88 43.6499 60.21 43.6799 61.41C43.6799 61.74 43.6699 62.08 43.6199 62.4" fill="#844E27"/>
<path d="M35.3799 60.08C35.6999 58.01 37.1999 57.25 39.0499 57.2C39.0599 57.21 39.0799 57.22 39.0899 57.23C39.2799 57.4 39.4599 57.61 39.6099 57.84C39.9799 58.4 40.2099 59.11 40.2299 59.89C39.5599 59.68 38.8899 59.59 38.2299 59.59C37.2299 59.59 36.2599 59.79 35.3799 60.08Z" fill="#E2E1E1"/>
<path d="M55.79 67.13C55.54 67.03 55.27 66.92 55.01 66.8C55.27 66.92 55.53 67.03 55.79 67.13Z" fill="#BC9D7F"/>
<path d="M54.54 66.48C54.58 66.21 54.6801 65.46 54.8401 64.58C54.6901 65.46 54.58 66.21 54.54 66.48ZM68.3 60.49C68.36 60.29 68.4301 60.08 68.4901 59.88C68.4301 60.09 68.37 60.3 68.3 60.49Z" fill="#9A8165"/>
<path d="M68.4901 59.88C68.5601 59.63 68.6301 59.36 68.7001 59.1C68.7001 59.1 65.57 56.67 62.11 56.67C65.57 56.67 68.7101 59.1 68.7101 59.1C68.6401 59.36 68.5701 59.62 68.4901 59.88Z" fill="#E2E1E1"/>
<path d="M55.79 67.13C55.54 67.03 55.27 66.92 55.01 66.8C54.85 66.73 54.69 66.66 54.53 66.58C54.53 66.58 54.53 66.54 54.54 66.47C54.58 66.2 54.68 65.45 54.84 64.57C55.07 63.25 55.41 61.65 55.79 60.94C56 60.54 56.22 60.18 56.45 59.85C56.35 60.21 56.29 60.62 56.28 61.08C56.27 61.72 56.35 62.35 56.52 62.92C56.6 63.01 56.68 63.09 56.77 63.17C56.8 63.29 56.83 63.4 56.87 63.51C56.81 63.62 56.74 63.74 56.68 63.86C56.34 64.5 56.03 65.89 55.8 67.12M68.11 61.07C67.44 60.7 66.58 60.3 65.63 60C65.12 57.99 63.5 57.24 61.54 57.18C61.42 57.18 61.29 57.18 61.17 57.18H61.1C60.58 57.19 60.09 57.31 59.63 57.51C59.26 57.54 58.92 57.6 58.59 57.7C59.73 56.95 60.94 56.67 62.12 56.67C65.58 56.67 68.71 59.1 68.71 59.1C68.64 59.36 68.57 59.62 68.5 59.88C68.44 60.09 68.38 60.3 68.31 60.49C68.25 60.69 68.18 60.88 68.12 61.07" fill="#E2E1E1"/>
<path d="M56.86 63.52C56.82 63.41 56.79 63.29 56.76 63.18C56.82 63.24 56.89 63.29 56.96 63.34C56.92 63.4 56.89 63.46 56.85 63.52M65.62 60C65.29 59.9 64.95 59.81 64.6 59.74C64.18 58.49 63.17 57.87 61.51 57.82C61.4 57.82 61.28 57.82 61.18 57.82H61.13C60.89 57.82 60.66 57.87 60.43 57.93C60.3 57.76 60.16 57.61 60.01 57.48C59.88 57.48 59.76 57.49 59.63 57.5C60.09 57.3 60.58 57.18 61.1 57.17H61.17C61.29 57.17 61.42 57.17 61.54 57.17C63.5 57.23 65.12 57.99 65.63 59.99" fill="#E2AE42"/>
<path d="M61.1599 59.83C61.0799 59.1 60.8199 58.44 60.4199 57.92C60.6499 57.86 60.8799 57.82 61.1199 57.81H61.1699C61.2799 57.81 61.3899 57.81 61.4999 57.81C63.1699 57.86 64.18 58.48 64.59 59.73C64.07 59.63 63.5299 59.57 62.9799 59.57C62.3699 59.57 61.76 59.64 61.15 59.82" fill="#844E27"/>
<path d="M56.9701 63.34C56.9001 63.29 56.8301 63.23 56.7701 63.18C56.6801 63.1 56.6001 63.02 56.5201 62.93C56.3501 62.36 56.2701 61.73 56.2801 61.09C56.2801 60.63 56.3501 60.22 56.4501 59.86C57.1101 58.9 57.8301 58.2 58.5801 57.7C58.9101 57.6 59.2601 57.54 59.6201 57.51C59.7501 57.51 59.8701 57.49 60.0001 57.49C60.1501 57.62 60.2901 57.77 60.4201 57.94C60.8101 58.45 61.0801 59.11 61.1601 59.85C59.6601 60.28 58.1901 61.32 56.9701 63.36" fill="#E2E1E1"/>
<path d="M46.6999 66.58C46.6099 66.15 46.5199 65.72 46.4199 65.3C46.3299 64.88 46.2399 64.45 46.1299 64.02C46.0299 63.6 45.9199 63.18 45.7999 62.76C45.6799 62.33 45.5499 61.96 45.3899 61.56C45.2999 61.38 45.2099 61.13 45.1199 61L44.7799 60.46C44.5399 60.12 44.2899 59.77 44.0099 59.46C43.8699 59.3 43.7299 59.14 43.5799 59C43.4299 58.86 43.2799 58.71 43.1199 58.58C42.9599 58.45 42.7999 58.32 42.6299 58.21C42.4699 58.09 42.2899 57.98 42.1099 57.89C41.7599 57.68 41.3799 57.55 40.9899 57.42C40.6099 57.3 40.2099 57.23 39.8099 57.19C39.3999 57.16 38.9999 57.15 38.5899 57.19C38.1799 57.22 37.7799 57.3 37.3699 57.39C36.5699 57.58 35.7799 57.87 35.0199 58.23C34.6399 58.41 34.2699 58.61 33.9099 58.83C33.5599 59.05 33.1899 59.28 32.8699 59.51L33.0699 58.93L33.3899 60.07C33.4899 60.45 33.6299 60.82 33.7599 61.18C33.8899 61.55 34.0199 61.92 34.1899 62.27C34.3599 62.62 34.4899 62.99 34.6899 63.32C34.8899 63.65 35.0399 64.02 35.2799 64.32C35.5099 64.62 35.6998 64.97 35.9698 65.24C36.2298 65.52 36.4599 65.82 36.7599 66.05L37.1899 66.42L37.6699 66.73C37.9799 66.96 38.3299 67.09 38.6699 67.25C39.0199 67.41 39.3999 67.47 39.7599 67.59C40.1399 67.64 40.5199 67.72 40.9099 67.73C41.2999 67.73 41.6899 67.77 42.0799 67.71C42.4699 67.66 42.8699 67.66 43.2499 67.57C43.6399 67.48 44.0399 67.44 44.4199 67.31C44.7999 67.19 45.1899 67.1 45.5699 66.96L46.7099 66.55L46.6999 66.58ZM46.6999 66.58L45.6199 67.13C45.2599 67.31 44.8699 67.44 44.4999 67.6C44.1199 67.77 43.7199 67.85 43.3299 67.98C42.9399 68.12 42.5299 68.16 42.1299 68.25C41.7299 68.35 41.3099 68.32 40.8899 68.36C40.4699 68.36 40.0499 68.32 39.6299 68.3C39.2199 68.2 38.7899 68.16 38.3999 68C37.9999 67.84 37.5899 67.71 37.2299 67.48L36.6799 67.16L36.1699 66.77C35.8199 66.52 35.5399 66.2 35.2399 65.9C34.9299 65.61 34.7099 65.24 34.4499 64.91C34.1799 64.58 33.9999 64.2 33.7799 63.85C33.5499 63.5 33.3999 63.11 33.2099 62.74C33.0199 62.36 32.8799 61.98 32.7399 61.59C32.5999 61.2 32.4399 60.82 32.3299 60.42L31.9799 59.24L31.8799 58.89L32.1799 58.66C32.5699 58.37 32.9399 58.13 33.3299 57.9C33.7199 57.67 34.1299 57.46 34.5399 57.27C35.3599 56.88 36.2299 56.58 37.1199 56.37C37.5699 56.27 38.0299 56.21 38.4899 56.18C38.9499 56.14 39.4199 56.17 39.8899 56.22C40.3599 56.28 40.8199 56.38 41.2599 56.53C41.4799 56.61 41.6999 56.68 41.9099 56.8C42.1299 56.9 42.3299 57 42.5299 57.13C42.7299 57.25 42.9199 57.38 43.1099 57.53C43.2999 57.66 43.4699 57.82 43.6399 57.98C43.8199 58.13 43.9699 58.3 44.1299 58.47C44.2899 58.64 44.4399 58.81 44.5699 58.99C44.8499 59.35 45.0799 59.74 45.3199 60.12L45.6399 60.71C45.7699 60.95 45.8099 61.13 45.8899 61.34C46.0199 61.77 46.1299 62.24 46.1999 62.66C46.2799 63.09 46.3499 63.53 46.4099 63.97C46.5399 64.84 46.6299 65.71 46.6799 66.59L46.6999 66.58Z" fill="#302A13"/>
<path d="M54.53 66.58C54.58 65.7 54.67 64.83 54.8 63.96C54.86 63.52 54.93 63.09 55.01 62.65C55.08 62.23 55.2 61.76 55.32 61.33C55.41 61.12 55.45 60.94 55.57 60.7L55.89 60.11C56.13 59.72 56.36 59.33 56.64 58.98C56.77 58.79 56.92 58.62 57.08 58.46C57.23 58.29 57.39 58.12 57.57 57.97C57.74 57.81 57.91 57.65 58.1 57.52C58.28 57.38 58.47 57.24 58.68 57.12C58.88 56.99 59.09 56.89 59.3 56.79C59.51 56.68 59.73 56.6 59.95 56.52C60.39 56.37 60.86 56.27 61.32 56.21C61.79 56.16 62.26 56.14 62.72 56.17C63.18 56.19 63.64 56.26 64.09 56.36C64.99 56.57 65.85 56.87 66.67 57.26C67.08 57.45 67.48 57.67 67.88 57.89C68.28 58.12 68.64 58.36 69.03 58.65L69.33 58.88L69.23 59.23L68.88 60.41C68.77 60.81 68.62 61.19 68.47 61.58C68.33 61.97 68.18 62.36 68 62.73C67.82 63.1 67.66 63.49 67.43 63.84C67.2 64.19 67.03 64.57 66.76 64.9C66.5 65.23 66.28 65.6 65.97 65.89C65.67 66.2 65.39 66.51 65.04 66.76L64.54 67.15L63.98 67.47C63.62 67.7 63.21 67.83 62.81 67.99C62.41 68.15 61.98 68.19 61.58 68.29C61.16 68.32 60.74 68.36 60.32 68.35C59.9 68.31 59.48 68.33 59.08 68.24C58.67 68.15 58.26 68.11 57.88 67.97C57.49 67.84 57.09 67.76 56.71 67.59C56.34 67.43 55.95 67.3 55.59 67.12L54.51 66.57L54.53 66.58ZM54.53 66.58L55.67 66.99C56.05 67.13 56.44 67.22 56.82 67.34C57.2 67.47 57.6 67.51 57.99 67.6C58.37 67.7 58.78 67.69 59.16 67.74C59.55 67.79 59.94 67.74 60.33 67.76C60.72 67.74 61.1 67.67 61.48 67.62C61.84 67.5 62.22 67.43 62.56 67.28C62.91 67.12 63.26 66.99 63.57 66.76L64.05 66.45L64.48 66.08C64.78 65.85 65.02 65.55 65.28 65.27C65.55 65 65.74 64.66 65.97 64.35C66.2 64.05 66.36 63.68 66.56 63.35C66.76 63.02 66.89 62.65 67.06 62.3C67.23 61.95 67.37 61.59 67.49 61.21C67.62 60.84 67.77 60.48 67.86 60.1L68.18 58.96L68.38 59.54C68.07 59.31 67.7 59.07 67.34 58.86C66.98 58.64 66.61 58.44 66.23 58.26C65.47 57.9 64.68 57.61 63.88 57.42C63.47 57.33 63.07 57.25 62.66 57.22C62.25 57.17 61.84 57.18 61.44 57.22C61.04 57.26 60.64 57.33 60.26 57.45C59.87 57.57 59.49 57.71 59.14 57.92C58.96 58.01 58.78 58.12 58.62 58.24C58.45 58.35 58.29 58.48 58.13 58.61C57.97 58.74 57.81 58.88 57.67 59.03C57.52 59.17 57.38 59.33 57.24 59.49C56.96 59.8 56.71 60.15 56.47 60.49L56.13 61.03C56.04 61.17 55.95 61.41 55.86 61.59C55.71 61.99 55.57 62.36 55.45 62.79C55.33 63.21 55.22 63.63 55.12 64.05C55.01 64.47 54.92 64.9 54.83 65.33C54.73 65.76 54.64 66.18 54.55 66.61L54.53 66.58Z" fill="#302A13"/>
<path d="M47.7802 73.8C47.7802 73.8 47.7501 73.87 47.7101 73.87C47.6701 73.87 47.6401 73.84 47.6401 73.8C47.6401 73.76 47.6701 73.73 47.7101 73.73C47.7501 73.73 47.7802 73.76 47.7802 73.8Z" fill="#231F20"/>
<path d="M48.8499 73.35C48.8499 73.35 48.82 73.42 48.78 73.42C48.74 73.42 48.71 73.39 48.71 73.35C48.71 73.31 48.74 73.28 48.78 73.28C48.82 73.28 48.8499 73.31 48.8499 73.35Z" fill="#231F20"/>
<path d="M48.62 74.55C48.62 74.55 48.59 74.62 48.55 74.62C48.51 74.62 48.48 74.59 48.48 74.55C48.48 74.51 48.51 74.48 48.55 74.48C48.59 74.48 48.62 74.51 48.62 74.55Z" fill="#231F20"/>
<path d="M49.5999 74.02C49.5999 74.02 49.57 74.09 49.53 74.09C49.49 74.09 49.46 74.06 49.46 74.02C49.46 73.98 49.49 73.95 49.53 73.95C49.57 73.95 49.5999 73.98 49.5999 74.02Z" fill="#231F20"/>
<path d="M52.12 73.8C52.12 73.8 52.09 73.87 52.05 73.87C52.01 73.87 51.98 73.84 51.98 73.8C51.98 73.76 52.01 73.73 52.05 73.73C52.09 73.73 52.12 73.76 52.12 73.8Z" fill="#231F20"/>
<path d="M53.2001 73.35C53.2001 73.35 53.1701 73.42 53.1301 73.42C53.0901 73.42 53.0601 73.39 53.0601 73.35C53.0601 73.31 53.0901 73.28 53.1301 73.28C53.1701 73.28 53.2001 73.31 53.2001 73.35Z" fill="#231F20"/>
<path d="M53.6599 75.55C53.7999 75.48 53.9 75.43 53.95 75.4C53.98 75.4 53.9799 75.4 53.9899 75.39C53.9899 75.41 53.9699 75.52 53.6699 75.55" fill="#C9C3C2"/>
<path d="M53.4301 75.56C53.2201 75.56 52.94 75.53 52.54 75.47C51.84 75.35 50.9301 74.54 50.8401 74.46C50.9401 74.52 51.8601 75.14 52.5701 75.25C53.3401 75.38 53.69 75.4 53.85 75.4C53.9 75.4 53.9201 75.4 53.9401 75.4C53.8901 75.43 53.7901 75.48 53.6501 75.55C53.5901 75.55 53.51 75.56 53.42 75.56" fill="#C9C3C2"/>
<path d="M50.8101 74.48L50.8401 74.46C50.8401 74.46 50.8401 74.46 50.8101 74.48Z" fill="#C9C3C2"/>
<path d="M48.54 75.54C48.19 75.54 47.98 75.46 47.98 75.46C47.98 75.46 48.96 75.46 49.89 75.02C50.44 74.76 50.73 74.55 50.82 74.49C50.7 74.59 50.2 75.02 49.62 75.29C49.2 75.49 48.83 75.54 48.55 75.54" fill="#C9C3C2"/>
<path d="M50.8201 74.49C50.8201 74.49 50.8201 74.49 50.8201 74.47C50.8401 74.46 50.85 74.45 50.85 74.45C50.85 74.45 50.8401 74.48 50.8301 74.49" fill="#AEA8A7"/>
<path d="M50.76 76.3C49.16 76.3 47.98 75.45 47.98 75.45C47.98 75.45 48.19 75.53 48.54 75.53C48.82 75.53 49.19 75.48 49.61 75.28C50.2 75 50.7 74.58 50.81 74.48C50.81 74.48 50.81 74.48 50.81 74.5C50.5 74.93 50.54 75.58 50.79 76.31H50.74" fill="#AEA8A7"/>
<path d="M50.8099 76.3C50.5599 75.57 50.5199 74.92 50.8299 74.49C50.8299 74.49 50.8499 74.47 50.8499 74.46C50.9399 74.54 51.8399 75.35 52.5499 75.47C52.9399 75.53 53.2299 75.56 53.4399 75.56C53.5299 75.56 53.6099 75.56 53.6699 75.55C53.1299 75.81 51.9699 76.3 50.8199 76.31M53.6599 75.55C53.7999 75.48 53.8999 75.43 53.9499 75.4C53.9499 75.4 53.7999 75.48 53.6599 75.55ZM53.9499 75.4L53.9899 75.38C53.9899 75.38 53.9899 75.39 53.9499 75.4Z" fill="#AEA8A7"/>
<path d="M52.9601 74.55C52.9601 74.55 52.9301 74.62 52.8901 74.62C52.8501 74.62 52.8201 74.59 52.8201 74.55C52.8201 74.51 52.8501 74.48 52.8901 74.48C52.9301 74.48 52.9601 74.51 52.9601 74.55Z" fill="#231F20"/>
<path d="M53.9401 74.03C53.9401 74.03 53.9101 74.1 53.8701 74.1C53.8301 74.1 53.8 74.07 53.8 74.03C53.8 73.99 53.8301 73.96 53.8701 73.96C53.9101 73.96 53.9401 73.99 53.9401 74.03Z" fill="#231F20"/>
<path d="M42.0801 71.74C42.6401 71.87 43.1901 72 43.7501 72.14C44.0301 72.2 44.3101 72.27 44.5801 72.35C44.8501 72.44 45.1201 72.52 45.3901 72.64C45.1001 72.62 44.82 72.55 44.54 72.5C44.26 72.43 43.99 72.34 43.72 72.26C43.17 72.1 42.6301 71.93 42.0801 71.77V71.74Z" fill="#212120"/>
<path d="M39.8101 74.38L42.23 73.84C42.64 73.75 43.0401 73.65 43.4501 73.58C43.8601 73.51 44.2701 73.44 44.6801 73.39C44.2801 73.53 43.88 73.62 43.48 73.72C43.07 73.81 42.6701 73.88 42.2601 73.95L39.8101 74.39V74.38Z" fill="#212120"/>
<path d="M42.1599 75.86L43.7499 74.89C44.0099 74.73 44.2699 74.56 44.5499 74.41C44.8199 74.27 45.1 74.12 45.39 74.01C45.14 74.21 44.8799 74.37 44.6199 74.54C44.3599 74.7 44.0799 74.84 43.8099 74.99L42.1699 75.87L42.1599 75.86Z" fill="#212120"/>
<path d="M59.7399 71.75C59.1899 71.92 58.6499 72.08 58.0999 72.24C57.8299 72.32 57.55 72.41 57.28 72.48C57 72.54 56.7199 72.6 56.4399 72.64C56.6999 72.51 56.9799 72.43 57.2499 72.34C57.5199 72.26 57.8 72.2 58.08 72.13C58.64 71.99 59.1899 71.86 59.7499 71.73L59.7399 71.75Z" fill="#212120"/>
<path d="M61.9999 74.4L59.5499 73.96C59.1399 73.88 58.7299 73.82 58.3299 73.73C57.9299 73.63 57.5199 73.54 57.1299 73.42C57.5499 73.45 57.9499 73.52 58.3599 73.59C58.7699 73.66 59.1699 73.76 59.5799 73.85L61.9999 74.39V74.4Z" fill="#212120"/>
<path d="M59.65 75.87L58.0099 74.99C57.7399 74.85 57.46 74.7 57.2 74.54C56.94 74.38 56.6699 74.21 56.4199 74.02C56.7099 74.12 56.9799 74.27 57.2599 74.41C57.5299 74.56 57.7899 74.73 58.0599 74.89L59.65 75.86V75.87Z" fill="#212120"/>
<path d="M52.83 48.12C52.61 48.09 52.39 47.87 52.41 48.12C52.44 48.36 52.35 48.5 52.83 48.58C53.3 48.67 53.42 48.81 53.86 48.74C54.3 48.67 54.53 48.59 54.46 48.38C54.39 48.17 54.25 48.06 54.03 47.81C53.8 47.56 53.39 47.68 53.25 47.63C53.11 47.58 52.92 47.72 52.89 47.81C52.86 47.89 52.84 48.12 52.84 48.12H52.83Z" fill="#231F20"/>
<path d="M39.1199 48.13C39.2499 47.98 39.3699 47.92 39.7699 47.86C40.1799 47.79 40.3599 47.91 40.5699 48C40.7699 48.09 40.8799 47.88 40.5699 48.49C40.2499 49.1 40.2199 49.21 39.7699 49.19C39.3199 49.17 39.11 49.19 39.03 48.94C38.95 48.69 39.1199 48.14 39.1199 48.14V48.13Z" fill="#231F20"/>
<path d="M55.8099 47.23C56.0699 47.04 56.1099 46.94 56.6199 47.07C57.1399 47.2 57.5099 47.15 57.6999 47.62C57.8799 48.09 57.7699 48.74 57.6999 48.93C57.6299 49.12 57.2899 49.54 57.0299 49.33C56.7699 49.12 56.4998 48.76 56.1698 48.55C55.8398 48.34 55.6998 48.34 55.6598 48.08C55.6198 47.82 55.8099 47.23 55.8099 47.23Z" fill="#231F20"/>
<path d="M58.6899 45.14C59.0599 45.27 59.8399 45.75 60.0599 45.88C60.2799 46.01 60.3699 46.15 60.5499 46.49C60.7299 46.82 61.0399 47.09 60.5499 47.16C60.0599 47.23 60.0299 47.3 59.4299 46.97C58.8399 46.64 58.9499 46.65 58.6899 46.18C58.4299 45.71 58.4299 46.01 58.4299 45.71C58.4299 45.41 58.6899 45.14 58.6899 45.14Z" fill="#231F20"/>
<path d="M61.6899 48.1C61.4699 48.04 61.0799 47.95 61.1299 48.2C61.1799 48.45 61.1799 48.72 61.5499 49.01C61.9199 49.3 61.9898 49.38 62.3598 49.38C62.7298 49.38 62.9099 49.68 62.8399 49.3C62.7699 48.93 62.6899 48.99 62.4299 48.74C62.1699 48.49 61.6899 48.1 61.6899 48.1Z" fill="#231F20"/>
<path d="M66.3999 53.75C66.3099 53.51 66.3199 53.42 65.9599 53.59C65.6099 53.76 65.3699 54.27 65.3499 54.54C65.3199 54.8 65.3499 54.93 65.5399 55.2C65.7299 55.47 65.7599 55.73 66.0199 55.44C66.2799 55.15 66.6299 54.71 66.6499 54.51C66.6699 54.31 66.8599 54.31 66.7799 54.18C66.7099 54.05 66.3999 53.76 66.3999 53.76V53.75Z" fill="#231F20"/>
<path d="M33.2401 53.4C33.3001 53.15 33.2801 53.06 33.6501 53.18C34.0201 53.3 34.3201 53.78 34.3801 54.04C34.4401 54.3 34.4301 54.4199 34.2801 54.7199C34.1301 55.0199 34.1301 55.27 33.8401 55.02C33.5401 54.77 33.1401 54.38 33.1001 54.18C33.0501 53.98 32.8701 54.01 32.9201 53.87C32.9801 53.73 33.2401 53.4 33.2401 53.4Z" fill="#231F20"/>
<path d="M68.2401 54.04C68.3001 53.79 68.2801 53.7 68.6501 53.82C69.0201 53.94 69.3201 54.42 69.3801 54.68C69.4401 54.94 69.4301 55.06 69.2801 55.36C69.1301 55.66 69.1301 55.91 68.8401 55.66C68.5501 55.41 68.1401 55.02 68.0901 54.82C68.0401 54.63 67.8601 54.65 67.9201 54.51C67.9801 54.37 68.2401 54.04 68.2401 54.04Z" fill="#231F20"/>
<path d="M32.13 55.82C32.13 55.82 31.8 56.02 31.71 56.21C31.62 56.4 31.56 56.64 31.71 56.85C31.86 57.06 32.07 57.17 32.29 57.1C32.5 57.03 32.68 56.88 32.68 56.66C32.68 56.44 32.56 56.22 32.56 56.22L32.14 55.83L32.13 55.82Z" fill="#231F20"/>
<path d="M44.97 47.71C44.97 47.96 44.9501 48.34 44.4401 48.28C44.3101 48.26 44.0201 48.52 43.8701 48.52C43.3501 48.52 43.0801 48.06 43.0801 47.71C43.0801 47.57 43.2301 47.28 43.3401 47.18C43.5101 47.02 43.7001 46.73 44.0201 46.73C44.5401 46.73 44.9601 47.36 44.9601 47.71H44.97Z" fill="#231F20"/>
<path d="M55.4399 45.51C55.4399 45.71 55.0899 45.88 54.6499 45.88C54.2099 45.88 53.8599 45.72 53.8599 45.51C53.8599 45.3 54.2099 45.14 54.6499 45.14C55.0899 45.14 55.4399 45.31 55.4399 45.51Z" fill="#231F20"/>
<path d="M54.55 74.03C54.48 73.94 54.4001 73.88 54.3301 73.84C54.2601 73.79 54.21 73.78 54.17 73.76C54.13 73.74 54.11 73.73 54.11 73.73C54.11 73.73 54.13 73.73 54.16 73.76C54.2 73.78 54.25 73.8 54.31 73.85C54.37 73.89 54.4501 73.95 54.5201 74.04C54.5901 74.13 54.65 74.26 54.66 74.41C54.66 74.56 54.6101 74.72 54.5201 74.86C54.4301 75 54.31 75.11 54.18 75.2C53.91 75.38 53.58 75.47 53.25 75.47C53.09 75.47 52.9201 75.46 52.7601 75.42C52.6001 75.39 52.45 75.33 52.3 75.28C52.16 75.22 52.0201 75.15 51.8901 75.07C51.7601 75 51.65 74.91 51.54 74.84C51.33 74.68 51.17 74.52 51.06 74.41C50.98 74.33 50.9201 74.27 50.9001 74.25L50.9601 72.96H50.72L50.7801 74.24C50.7801 74.24 50.71 74.32 50.62 74.41C50.51 74.53 50.3501 74.68 50.1401 74.84C50.0301 74.91 49.92 75 49.79 75.07C49.66 75.15 49.53 75.22 49.38 75.28C49.24 75.34 49.08 75.39 48.92 75.42C48.76 75.46 48.6 75.47 48.44 75.47C48.11 75.47 47.7801 75.38 47.5101 75.2C47.3701 75.11 47.26 75 47.17 74.86C47.08 74.72 47.0301 74.57 47.0301 74.41C47.0301 74.26 47.09 74.13 47.16 74.04C47.23 73.95 47.31 73.89 47.37 73.85C47.43 73.8 47.4901 73.78 47.5201 73.76C47.5601 73.74 47.5801 73.73 47.5801 73.73C47.5801 73.73 47.5601 73.73 47.5201 73.76C47.4801 73.78 47.43 73.8 47.36 73.84C47.3 73.88 47.2101 73.93 47.1401 74.03C47.0701 74.12 46.99 74.25 46.99 74.42C46.98 74.59 47.03 74.77 47.12 74.92C47.21 75.07 47.33 75.2 47.47 75.3C47.75 75.5 48.09 75.62 48.43 75.64C48.6 75.64 48.77 75.64 48.94 75.61C49.11 75.59 49.27 75.54 49.43 75.49C49.58 75.44 49.73 75.37 49.87 75.3C50.01 75.23 50.13 75.15 50.24 75.07C50.47 74.91 50.6401 74.76 50.7601 74.65L50.8301 74.58L50.9001 74.65C51.0201 74.76 51.2 74.92 51.42 75.07C51.53 75.14 51.66 75.23 51.79 75.3C51.93 75.37 52.07 75.44 52.23 75.49C52.38 75.54 52.55 75.59 52.72 75.61C52.89 75.64 53.06 75.64 53.23 75.64C53.57 75.61 53.91 75.5 54.19 75.3C54.33 75.19 54.45 75.07 54.54 74.92C54.63 74.77 54.68 74.59 54.67 74.42C54.67 74.25 54.5901 74.12 54.5101 74.03H54.55Z" fill="#231F20"/>
<path d="M53.32 70.59C53.04 69.9 50.91 70.54 50.91 70.54H50.82C50.82 70.54 48.7 69.9 48.41 70.59C48.31 70.82 47.85 71.42 48.01 71.73C48.44 72.56 48.87 72.05 48.97 71.93C49.03 71.86 49.1 71.82 49.17 71.82C49.43 71.82 49.6601 72.31 49.9001 72.83L49.97 72.98C50.07 73.18 50.09 73.38 50.1 73.55C50.14 73.9 50.1501 74.11 50.7801 74.11H50.86H50.93C51.55 74.11 51.58 73.9 51.61 73.55C51.63 73.38 51.65 73.18 51.75 72.98L51.82 72.83C52.06 72.31 52.29 71.82 52.55 71.82C52.62 71.82 52.69 71.86 52.75 71.93C52.85 72.04 53.2701 72.56 53.7101 71.73C53.8701 71.42 53.41 70.83 53.31 70.59" fill="#231F20"/>
<path d="M50.86 71.6C50.1 71.6 49.49 71.43 49.49 71.22C49.49 71.01 50.1 70.84 50.86 70.84C51.62 70.84 52.23 71.01 52.23 71.22C52.23 71.43 51.62 71.6 50.86 71.6Z" fill="#F4EDEA"/>
</svg>
