<svg width="101" height="102" viewBox="0 0 101 102" fill="none" xmlns="http://www.w3.org/2000/svg">
<path d="M92.26 0.880005H8.67C3.88169 0.880005 0 4.7617 0 9.55001V93.14C0 97.9283 3.88169 101.81 8.67 101.81H92.26C97.0483 101.81 100.93 97.9283 100.93 93.14V9.55001C100.93 4.7617 97.0483 0.880005 92.26 0.880005Z" fill="#24B999"/>
<path d="M50.6101 82.53C44.5001 82.53 33.1001 76.94 30.4001 67.63C30.3101 67.77 30.2301 67.91 30.1401 68.03C29.0201 69.62 27.1101 70.54 24.9001 70.54C24.7501 70.54 24.6001 70.54 24.4501 70.53C19.8401 70.27 17.8501 67.88 17.0801 66.48C16.3201 65.09 16.0501 64.08 16.0501 62.61C16.0501 60.98 16.5601 60.07 18.2401 58.73C18.3301 58.61 18.4401 58.5 18.5601 58.42L20.6501 57C22.6901 55.61 24.7201 53.59 25.9401 51.72C26.8001 50.38 28.5901 48.23 30.1901 46.29C28.2701 45.5 26.7901 44.13 25.7701 42.19C24.9101 40.56 24.3601 38.48 24.1501 36C24.1301 35.72 24.0901 35.45 24.0601 35.2C23.9401 34.18 23.7801 33.37 23.5701 32.59C23.0201 30.58 22.1601 29.03 21.0001 27.99C19.4601 26.61 17.7501 26.46 17.0801 26.46C16.9001 26.46 16.7801 26.47 16.7501 26.47C16.7001 26.47 16.6501 26.47 16.6001 26.47C16.0801 26.47 15.6101 26.16 15.4101 25.67C15.1901 25.13 15.3501 24.52 15.8101 24.17C16.0201 24.01 17.9001 22.62 20.8301 22.62C21.5401 22.62 22.2601 22.7 22.9701 22.87C23.7601 23.06 24.4901 23.3 25.2201 23.62C27.6601 24.72 29.5301 26.59 30.7901 29.19C31.7001 31.06 32.1101 32.92 32.4101 34.28C32.4801 34.6 32.5501 34.89 32.6101 35.15C32.6401 35.31 32.6701 35.39 32.7001 35.47L32.8301 35.9C33.2201 37.27 33.5901 38.17 35.0301 38.2H35.3501C38.0701 38.27 39.9201 38.45 41.2301 38.78C42.4401 37.02 43.9101 35.95 45.5301 35.65C45.6701 35.62 45.8101 35.6 45.9401 35.58C45.8901 35.34 45.9101 35.08 46.0101 34.84C46.2101 34.35 46.6801 34.04 47.2001 34.04C47.2301 34.04 47.2701 34.04 47.3001 34.04C48.3601 34.12 50.9401 34.35 51.8801 34.77C53.5001 35.48 54.5201 36.26 54.9701 37.14C55.1701 37.12 55.3701 37.11 55.5701 37.11C57.1301 37.11 58.6101 37.67 59.6301 38.64C59.6401 38.65 59.6501 38.66 59.6601 38.67C60.9301 38.41 62.6601 38.26 65.1201 38.19H65.4701C66.9001 38.16 67.2601 37.25 67.6501 35.87L67.8101 35.31L67.8601 35.11C67.9301 34.85 68.0001 34.54 68.0801 34.19C68.3801 32.85 68.7901 31.01 69.6701 29.18C70.9301 26.57 72.8001 24.7 75.2301 23.61C75.9501 23.3 76.7001 23.04 77.4701 22.86C78.1901 22.69 78.9101 22.61 79.6201 22.61C82.6601 22.61 84.5701 24.11 84.6501 24.18C85.1001 24.54 85.2601 25.15 85.0301 25.69C84.8301 26.17 84.3601 26.48 83.8501 26.48C83.8001 26.48 83.7401 26.48 83.6901 26.48C83.6601 26.48 83.5401 26.47 83.3601 26.47C82.7001 26.47 80.9801 26.62 79.4401 28C78.2801 29.04 77.4201 30.58 76.8701 32.6C76.6501 33.38 76.5001 34.18 76.3901 35.08C76.3601 35.29 76.3401 35.47 76.3201 35.66L76.2801 36.06C76.0701 38.5 75.5201 40.58 74.6601 42.22C73.7401 43.97 72.4301 45.26 70.7501 46.08L70.8301 46.18C72.4601 48.15 74.3201 50.38 75.2101 51.75C76.4101 53.61 78.4301 55.63 80.4901 57.03L81.6201 57.8C81.8501 57.95 82.0901 58.11 82.3201 58.28L82.5801 58.46C82.6601 58.51 82.7301 58.57 82.7901 58.63L82.9701 58.76C84.6601 60.1 85.1701 61.01 85.1701 62.65C85.1701 64.13 84.9001 65.15 84.1501 66.52C83.3701 67.93 81.3701 70.32 76.7801 70.57C76.6301 70.57 76.4801 70.58 76.3301 70.58C74.1001 70.58 72.1901 69.66 71.0801 68.07C71.0001 67.96 70.9201 67.84 70.8501 67.71C68.3301 76.77 58.0601 82.4 50.9001 82.57C50.8901 82.57 50.6401 82.57 50.6301 82.57L50.6101 82.53Z" fill="#281D18"/>
<path d="M19.0501 59.73C17.6201 60.87 17.3401 61.43 17.3401 62.61C17.3401 63.79 17.5301 64.62 18.2101 65.86C18.8901 67.08 20.6001 69.03 24.5301 69.25C26.5701 69.36 28.2201 68.55 29.1001 67.3C30.0101 66 30.9501 63.34 31.2901 60.78C31.6201 58.24 31.2901 55.33 31.7301 55.1C32.1701 54.87 32.9201 53.26 29.6601 54.37C26.4001 55.5 21.4601 57.84 19.0601 59.74L19.0501 59.73Z" fill="#D69891"/>
<path d="M82.1601 59.73C83.5901 60.87 83.8701 61.44 83.8701 62.61C83.8701 63.78 83.6901 64.62 83.0101 65.86C82.3301 67.08 80.6101 69.03 76.7001 69.25C74.6501 69.36 73.0001 68.55 72.1201 67.3C71.2101 66 70.2801 63.34 69.9401 60.78C69.6001 58.24 69.9401 55.33 69.4901 55.1C69.0401 54.87 68.3001 53.26 71.5601 54.37C74.8201 55.5 79.7601 57.84 82.1601 59.74V59.73Z" fill="#D69891"/>
<path d="M81.8601 59.4999C81.5101 59.2699 81.8601 59.4999 79.7501 58.0699C77.6401 56.6399 75.4601 54.5199 74.1201 52.4299C72.7601 50.3399 68.8101 45.8499 67.5401 44.1599C66.2801 42.4699 63.9901 41.8799 62.9001 41.8399C62.9001 41.8399 61.5401 41.7299 59.3601 41.8199C57.1001 40.6599 54.2301 39.8299 50.5801 39.8599H50.5401C46.9101 39.8299 44.0401 40.6599 41.7501 41.8199C39.5801 41.7199 38.2201 41.8399 38.2201 41.8399C37.1301 41.8899 34.8501 42.4699 33.5801 44.1599C32.3101 45.8499 28.3601 50.3399 27.0101 52.4299C25.6501 54.5199 23.4801 56.6399 21.3701 58.0699C19.2601 59.4999 19.6201 59.2699 19.2601 59.4999C18.8301 59.7799 21.9101 59.9699 25.1001 58.5299C28.0401 57.1999 28.9601 56.1299 30.6301 55.2199C30.2201 56.9199 37.7601 77.3799 42.8901 79.0999C46.7001 80.3699 46.8801 80.6199 50.3501 80.6199C50.3701 80.6199 50.3701 80.6199 50.3701 80.6199C50.3901 80.6199 50.4201 80.6199 50.4501 80.6199C50.4501 80.6199 50.4901 80.6199 50.5101 80.6199C50.5201 80.6199 50.5501 80.6199 50.5601 80.6199C50.5701 80.6199 50.5901 80.6199 50.6201 80.6199C50.6301 80.6199 50.6501 80.6199 50.6801 80.6199C50.6801 80.6199 50.7301 80.6199 50.7501 80.6199C50.7501 80.6199 50.7501 80.6199 50.7601 80.6199C54.2401 80.6199 54.4201 80.3699 58.2401 79.0999C63.3501 77.3799 70.9001 56.9199 70.5001 55.2199C72.1701 56.1299 73.08 57.1999 76.0201 58.5299C79.2201 59.9699 82.2801 59.7799 81.8601 59.4999Z" fill="#774930"/>
<path d="M43.1301 42.37C43.1301 44.28 39.4301 45.83 34.8701 45.83C31.7201 45.83 28.6801 44.98 26.9001 41.6C26.1501 40.19 25.6301 38.33 25.4201 35.89C25.3901 35.55 25.3501 35.23 25.3101 34.91C25.1901 33.92 25.0101 33.04 24.7901 32.25C24.1001 29.72 23.0101 28.08 21.8401 27.03C19.4401 24.88 16.7401 25.17 16.5701 25.2C16.7101 25.09 19.1401 23.31 22.6501 24.13C23.3901 24.3 24.0601 24.53 24.6701 24.8C27.1801 25.92 28.6601 27.81 29.6001 29.75C30.6601 31.94 31.0101 34.19 31.3301 35.46C31.3601 35.62 31.4101 35.76 31.4401 35.88C31.8001 37.03 32.1901 39.43 34.9601 39.49C35.0701 39.49 35.1701 39.49 35.2901 39.49C41.9101 39.66 43.1201 40.48 43.1201 42.35L43.1301 42.37Z" fill="#D1A161"/>
<path d="M29.6101 29.75C28.4101 31.25 26.5401 32.21 24.8101 32.25C24.1201 29.72 23.0301 28.08 21.8601 27.03C22.9001 26.69 24.0001 25.85 24.6901 24.8C27.2001 25.92 28.6801 27.81 29.6201 29.75H29.6101Z" fill="#B98D56"/>
<path d="M35.3001 39.5C33.2701 41.48 29.3701 42.37 26.9101 41.59C26.1601 40.18 25.6401 38.32 25.4301 35.88C25.4301 35.88 27.7901 37.21 31.3401 35.46C31.3701 35.62 31.4201 35.76 31.4501 35.88C31.8101 37.03 32.2001 39.43 34.9701 39.49C35.0801 39.49 35.1801 39.49 35.3001 39.49V39.5Z" fill="#B98D56"/>
<path d="M57.29 42.36C57.29 44.26 61 45.81 65.55 45.81C68.7 45.81 71.74 44.97 73.52 41.59C74.27 40.18 74.79 38.32 75 35.88C75.04 35.54 75.06 35.22 75.11 34.9C75.23 33.91 75.4 33.04 75.63 32.24C76.32 29.71 77.41 28.07 78.58 27.02C80.97 24.87 83.68 25.16 83.85 25.19C83.71 25.08 81.29 23.3 77.77 24.12C77.04 24.29 76.37 24.52 75.76 24.79C73.25 25.91 71.77 27.8 70.83 29.74C69.78 31.93 69.43 34.19 69.1 35.46C69.06 35.62 69.03 35.76 68.99 35.88C68.63 37.03 68.24 39.43 65.48 39.49C65.37 39.49 65.26 39.49 65.14 39.49C58.51 39.66 57.3 40.47 57.3 42.35L57.29 42.36Z" fill="#D1A161"/>
<path d="M70.8101 29.75C72.0101 31.25 73.8901 32.22 75.6201 32.25C76.3101 29.72 77.4001 28.08 78.5701 27.03C77.5201 26.69 76.4301 25.85 75.7401 24.8C73.2301 25.92 71.7501 27.81 70.8101 29.75Z" fill="#B98D56"/>
<path d="M65.1301 39.5C67.1501 41.48 71.0601 42.37 73.5101 41.59C74.2601 40.18 74.7801 38.32 74.9901 35.88C74.9901 35.88 72.6301 37.21 69.0801 35.46C69.0401 35.62 69.0101 35.76 68.9701 35.88C68.6101 37.03 68.2201 39.43 65.4601 39.49C65.3501 39.49 65.2401 39.49 65.1201 39.49L65.1301 39.5Z" fill="#B98D56"/>
<path d="M70.1001 63.58C70.1001 63.91 70.0701 64.25 70.0601 64.56C70.0601 64.68 70.0501 64.82 70.0401 64.93C69.0901 74.69 58.2001 81.07 50.8501 81.24C50.7501 81.24 50.6801 81.24 50.6101 81.24C44.2701 81.24 32.2401 74.82 31.1801 64.96C31.1301 64.5 31.1101 64.04 31.1101 63.57C31.1101 54.32 34.1101 47.34 37.4001 43.72C39.9101 40.96 43.7601 39.22 50.6101 39.22C57.0401 39.22 61.2501 41 63.8101 43.72C67.1401 47.28 70.1101 54.31 70.1101 63.57L70.1001 63.58Z" fill="#774930"/>
<path d="M50.61 80.01C45.15 80.01 33.49 72.88 32.48 63.53C32.43 63.13 32.41 62.72 32.41 62.3C32.41 53.11 35.49 46.47 38.37 43.31C40.9 40.53 44.79 39.23 50.61 39.23C56.43 39.23 60.32 40.61 62.85 43.31C65.72 46.38 68.8 52.97 68.8 62.29C68.8 62.58 68.8 62.88 68.77 63.17L68.75 63.51C68.35 67.63 65.96 71.72 62.03 75.07C58.51 78.02 54.24 79.91 50.83 80C50.8 80 50.62 80 50.62 80L50.61 80.01Z" fill="#845535"/>
<path d="M56.3301 66.46C56.3301 65.58 55.6701 64.86 54.8601 64.86C54.0501 64.86 52.0701 66.44 51.3601 66.44C51.2201 66.44 50.9301 66.45 50.9301 66.45C50.7901 66.45 50.6501 66.45 50.5101 66.45C49.8001 66.45 47.8101 64.87 47.0101 64.87C46.2101 64.87 45.5501 65.59 45.5501 66.48C45.5501 66.68 40.6101 70.1 40.6101 72.49C40.6101 75.84 44.3301 79.19 50.5101 79.19C50.6501 79.19 50.7901 79.19 50.9301 79.19C51.0701 79.19 51.2201 79.19 51.3601 79.19C57.5401 79.19 61.2601 75.83 61.2601 72.49C61.2601 70.09 56.3201 66.68 56.3201 66.46H56.3301Z" fill="#D69891"/>
<path d="M60.6501 48.28C60.6501 48.28 60.6001 48.03 60.4901 47.67C60.3101 47.08 59.9801 46.22 59.4501 45.73C58.5901 44.93 57.3601 46.14 56.1501 46.07C55.6701 46.04 55.1201 45.82 54.6501 45.58C54.9301 45.86 55.1801 46.24 55.3401 46.71C55.4401 46.99 55.4901 47.31 55.4901 47.67C55.4901 48.63 55.1601 49.44 54.7801 50.04C54.7801 50.04 54.7801 50.05 54.7801 50.06C54.4201 50.67 53.9801 51.06 53.8401 51.19C54.0201 50.99 54.5301 50.32 54.0801 48.89C53.4401 46.77 52.1101 46.06 52.1101 46.06C52.1101 46.06 51.9701 46.47 51.8401 46.84C51.7701 47.04 51.6801 47.24 51.6101 47.35C51.5601 47.43 51.5001 47.5 51.4701 47.58C50.1701 49.5 49.5401 49.4 49.3301 50.34C49.3101 50.39 49.3101 50.43 49.3001 50.48C49.0201 52.17 50.1401 52.66 50.2701 52.71C50.1901 52.69 49.6401 52.55 48.9301 52.2C47.2901 51.4 44.7201 49.34 45.9501 44.81C45.9701 44.77 45.9801 44.72 46.0001 44.68C46.3001 43.78 47.1301 43.08 47.7001 42.68C48.0501 42.43 48.3001 42.31 48.3001 42.31C48.3001 42.31 48.4901 41.56 46.4201 42.09C45.2301 42.4 44.1101 40.79 42.9001 40.78C41.7601 40.78 41.0201 41.97 40.9301 42.12C40.9601 42.04 41.0801 41.68 41.3101 41.18C41.9601 39.8 43.4001 37.38 45.7101 36.97C46.4401 36.84 47.0701 36.78 47.6301 36.8C48.4001 36.84 49.0301 37.04 49.6101 37.45C49.6401 37.47 49.6701 37.49 49.7001 37.51L48.1601 36.22L47.1501 35.38C47.1501 35.38 50.4701 35.63 51.3101 36.01C54.8401 37.56 53.7501 38.77 53.7501 38.77C55.3601 38.18 57.4301 38.43 58.6901 39.63C61.9701 42.77 60.6301 48.32 60.6301 48.32L60.6501 48.28Z" fill="#5A3712"/>
<path d="M51.41 73.44H50.45C43.74 73.21 43.54 69.61 43.54 69.61C43.54 71.92 46.58 73.74 50.45 73.74H51.41C55.29 73.74 58.32 71.92 58.32 69.61C58.32 69.61 57.67 73.49 51.41 73.44Z" fill="#5A3712"/>
<path d="M46.42 66.5C46.65 66.26 47.37 65.71 47.75 66.5C48.12 67.3 48 68.56 47.64 68.52C47.28 68.47 45.85 67.9 46.04 67.35C46.25 66.78 46.27 66.68 46.42 66.51V66.5Z" fill="#89615C"/>
<path d="M55.4301 66.69C55.2201 66.45 54.5001 65.89 54.1201 66.69C53.7401 67.48 53.8501 68.75 54.2201 68.71C54.5901 68.66 56.0101 68.09 55.8101 67.52C55.6101 66.95 55.5801 66.85 55.4301 66.69Z" fill="#89615C"/>
<path d="M47.97 67.9299C47.99 68.4599 47.85 68.9099 47.63 68.8899C47.52 68.8599 47.31 68.81 47.08 68.71C46.55 68.48 45.9 68.0899 46.04 67.6999C46.24 67.1299 46.27 67.0299 46.41 66.8599C46.61 66.6499 47.2 66.1899 47.6 66.6499C47.65 66.6999 47.7 66.7899 47.74 66.8599C47.85 67.0999 47.91 67.3799 47.94 67.6499C47.96 67.7499 47.96 67.8399 47.96 67.9299H47.97Z" fill="#2D2E2D"/>
<path d="M54.71 68.9C54.51 68.99 54.33 69.04 54.23 69.05C54.01 69.08 53.89 68.65 53.89 68.12C53.89 67.97 53.89 67.8 53.94 67.64C53.95 67.53 53.98 67.41 54.01 67.31H54.03L54.08 67.13C54.08 67.1 54.1 67.06 54.13 67.02C54.17 66.93 54.2 66.87 54.25 66.82C54.66 66.34 55.25 66.82 55.44 67.02C55.59 67.2 55.63 67.3 55.82 67.86C55.97 68.26 55.25 68.68 54.71 68.89V68.9Z" fill="#2D2E2D"/>
<path d="M54.2401 66.83C54.1901 66.88 54.1601 66.94 54.1201 67.03C54.0901 67.07 54.0801 67.11 54.0701 67.14L54.0201 67.31H54.0001C53.9801 67.42 53.9501 67.54 53.9301 67.65C53.9301 67.8 53.9001 67.96 53.8801 68.13C53.6401 69.72 52.4301 70.96 50.9501 70.96C49.4701 70.96 48.1401 69.62 47.9701 67.93C47.9701 67.84 47.9501 67.74 47.9501 67.65C47.9201 67.37 47.8501 67.1 47.7501 66.86C47.7001 66.79 47.6601 66.7 47.6101 66.65C47.4101 66.83 46.9901 67.22 46.9901 67.75C46.9901 68.09 47.0201 68.41 47.0901 68.72C47.5001 70.64 49.1101 72.04 50.9601 72.04C52.8101 72.04 54.1901 70.73 54.7101 68.91C54.8101 68.56 54.8901 68.17 54.9101 67.76C54.9501 67.26 54.4101 66.95 54.2401 66.83Z" fill="#E9B320"/>
<path d="M35.63 58.9799C35.63 58.9799 38.94 65.8299 41.78 65.8299C43.95 65.8299 46.67 64.7199 46.67 64.7199C46.67 64.7199 47.82 53.3099 41.53 52.9499C38.7 52.7899 35.63 58.99 35.63 58.99" fill="#774930"/>
<path d="M38.7 54.4399C38.7 54.4399 38.6999 54.4099 38.7299 54.3699C38.7599 54.3199 38.7899 54.2499 38.8499 54.1699C38.8999 54.0799 38.98 53.9899 39.07 53.8799C39.16 53.7799 39.27 53.6499 39.4 53.5399C39.46 53.4799 39.53 53.4199 39.61 53.3699C39.69 53.3199 39.7699 53.2599 39.8499 53.2099C39.9299 53.1499 40.0299 53.1099 40.1199 53.0599C40.2199 53.0099 40.3099 52.9599 40.4199 52.9199C40.6299 52.8499 40.85 52.7699 41.09 52.7399C41.32 52.6899 41.57 52.6899 41.81 52.6899C42.05 52.6899 42.29 52.7499 42.52 52.7899C42.75 52.8599 42.9699 52.9399 43.1699 53.0199C43.3699 53.1199 43.55 53.2299 43.72 53.3399C43.88 53.4499 44.02 53.5799 44.15 53.6999C44.21 53.7599 44.27 53.8099 44.33 53.8699C44.38 53.9299 44.43 53.9899 44.47 54.0399C44.56 54.1499 44.6299 54.2499 44.6899 54.3299C44.8099 54.4899 44.86 54.5899 44.86 54.5899C44.86 54.5899 44.75 54.5499 44.57 54.4799C44.48 54.4399 44.3699 54.3999 44.2599 54.3399C44.1399 54.2799 44.01 54.2299 43.86 54.1799C43.71 54.1299 43.56 54.0599 43.4 53.9999C43.23 53.9499 43.0599 53.8999 42.8899 53.8399C42.7099 53.7999 42.5299 53.7699 42.3499 53.7199C42.2599 53.7199 42.16 53.7099 42.07 53.6899C41.98 53.6899 41.89 53.6599 41.79 53.6699C41.6 53.6699 41.4199 53.6599 41.2299 53.6799C41.1399 53.6899 41.04 53.6799 40.95 53.7099C40.86 53.7299 40.77 53.7399 40.68 53.7599C40.59 53.7699 40.4999 53.8099 40.4199 53.8199C40.3299 53.8399 40.2499 53.8599 40.1699 53.8899C39.9999 53.9399 39.85 53.9899 39.7 54.0499C39.55 54.0999 39.4199 54.1599 39.2999 54.2099C39.1799 54.2699 39.07 54.3099 38.99 54.3499C38.9 54.3899 38.83 54.4199 38.79 54.4499C38.74 54.4699 38.72 54.4899 38.72 54.4899L38.7 54.4399Z" fill="#281A15"/>
<path d="M46.67 64.7099C41.44 67.1999 37.77 65.5899 36.11 59.1299C36.11 59.1299 42.4 54.2499 45.73 60.5099C46.25 61.4799 46.67 64.7099 46.67 64.7099Z" fill="white"/>
<path d="M41.62 65.1199C40.17 65.0899 38.95 63.94 38.49 62.34C38.35 61.85 38.27 61.32 38.29 60.77C38.34 58.55 39.72 57.75 41.46 57.7C41.57 57.7 41.68 57.7 41.79 57.7C43.68 57.74 45.12 59.71 45.15 60.92C45.21 63.28 43.52 65.1599 41.63 65.1199" fill="#995F26"/>
<path d="M41.63 64.5199C40.53 64.4899 39.57 63.5499 39.17 62.1199C39.04 61.6599 38.98 61.1799 38.99 60.6899C39.02 59.0299 39.81 58.2399 41.46 58.1799C41.54 58.1799 41.63 58.1799 41.71 58.1799H41.76C43.25 58.2099 44.39 59.9499 44.41 60.8499C44.44 61.9299 44.08 62.9599 43.42 63.6699C42.92 64.2199 42.3 64.5199 41.67 64.5199H41.63Z" fill="#3D2E14"/>
<path d="M41.85 59.89C41.82 61.32 40.86 62.46 39.72 62.44C39.2 62.43 38.73 62.18 38.38 61.78C38.25 61.35 38.19 60.89 38.2 60.41C38.24 58.46 39.45 57.77 40.98 57.72C41.53 58.2 41.88 59 41.86 59.89" fill="white"/>
<path d="M43.65 64.0199C43.65 64.4999 43.32 64.8899 42.93 64.8799C42.54 64.8799 42.23 64.4699 42.24 63.9899C42.24 63.5099 42.57 63.1199 42.96 63.1299C43.35 63.1299 43.66 63.5399 43.65 64.0199Z" fill="white"/>
<path d="M46.67 64.71C46.67 64.71 46.25 61.48 45.73 60.51C44.59 58.38 43.12 57.54 41.66 57.36C43.11 57.54 44.59 58.38 45.73 60.51C46.24 61.47 46.66 64.61 46.67 64.71ZM36.4 60.17C36.29 59.84 36.2 59.49 36.1 59.14C36.19 59.5 36.29 59.84 36.4 60.17Z" fill="#735245"/>
<path d="M45.73 65.1199C45.56 64.1999 45.33 63.1699 45.07 62.6899C45.02 62.5999 44.98 62.5199 44.93 62.4299C45.08 61.9599 45.15 61.4499 45.14 60.9199C45.11 59.7099 43.67 57.7399 41.78 57.6999C41.76 57.6999 41.74 57.6999 41.73 57.6999C41.64 57.6999 41.55 57.6999 41.46 57.6999C41.31 57.6999 41.16 57.7099 41.01 57.7299C41.01 57.7299 40.99 57.7099 40.98 57.7099C39.6 57.7499 38.48 58.3199 38.25 59.8599C37.6 60.0699 37.02 60.3499 36.56 60.5999C36.51 60.4599 36.46 60.3099 36.41 60.1599C36.3 59.8299 36.21 59.4899 36.11 59.1299C36.15 59.0999 38.47 57.3199 41.02 57.3199C41.23 57.3199 41.45 57.3299 41.66 57.3599C43.11 57.5399 44.59 58.3799 45.73 60.5099C46.25 61.4799 46.67 64.7099 46.67 64.7099C46.35 64.8599 46.04 64.9999 45.73 65.1199Z" fill="#E2E1E1"/>
<path d="M44.93 62.4299C44.75 62.1199 44.57 61.84 44.38 61.59C44.41 61.35 44.43 61.1 44.42 60.85C44.4 59.96 43.26 58.2199 41.77 58.1799H41.72C41.64 58.1799 41.55 58.1799 41.47 58.1799C41.44 58.1799 41.41 58.1799 41.38 58.1799C41.27 58.0099 41.14 57.8599 40.99 57.7299C41.14 57.7099 41.29 57.7 41.44 57.7C41.53 57.7 41.62 57.7 41.71 57.7C41.73 57.7 41.75 57.7 41.76 57.7C43.65 57.74 45.09 59.71 45.12 60.92C45.13 61.45 45.06 61.9599 44.91 62.4299" fill="#925E2B"/>
<path d="M44.37 61.5899C43.6 60.5799 42.73 59.9999 41.84 59.7199C41.82 59.1399 41.65 58.6099 41.38 58.1899C41.41 58.1899 41.44 58.1899 41.47 58.1899C41.55 58.1899 41.64 58.1899 41.72 58.1899H41.77C43.26 58.2199 44.4 59.9599 44.42 60.8599C44.42 61.1099 44.42 61.3599 44.38 61.5999" fill="#41321C"/>
<path d="M38.24 59.86C38.48 58.32 39.6 57.75 40.97 57.71C40.97 57.71 40.99 57.7299 41 57.7299C41.15 57.8599 41.28 58.0099 41.39 58.1799C41.67 58.5999 41.84 59.13 41.85 59.71C41.36 59.55 40.85 59.49 40.36 59.49C39.62 59.49 38.89 59.64 38.24 59.86Z" fill="#E2E1E1"/>
<path d="M46.67 64.7099C46.61 64.3899 46.53 64.0699 46.46 63.7499C46.39 63.4299 46.32 63.1099 46.24 62.7999C46.17 62.4799 46.08 62.1699 45.99 61.8599C45.9 61.5399 45.8 61.2599 45.69 60.9699C45.62 60.8299 45.56 60.6499 45.49 60.5499L45.24 60.1499C45.06 59.8899 44.88 59.6299 44.66 59.3999C44.56 59.2799 44.46 59.1699 44.34 59.0599C44.23 58.9499 44.12 58.8399 44 58.7499C43.88 58.6499 43.76 58.5499 43.63 58.4699C43.51 58.3799 43.38 58.2999 43.24 58.2299C42.98 58.0799 42.69 57.9699 42.41 57.8799C42.12 57.7899 41.82 57.7399 41.53 57.7099C41.23 57.6899 40.93 57.6799 40.62 57.7099C40.32 57.7299 40.01 57.7899 39.71 57.8599C39.11 57.9999 38.52 58.2199 37.96 58.4899C37.68 58.6299 37.4 58.7699 37.13 58.9399C36.87 59.0999 36.59 59.2699 36.36 59.4499L36.51 59.0199L36.75 59.8699C36.82 60.1599 36.93 60.4299 37.03 60.6999C37.12 60.9799 37.22 61.2499 37.35 61.5099C37.47 61.7699 37.57 62.0499 37.72 62.2899C37.87 62.5399 37.98 62.8099 38.16 63.0299C38.33 63.2499 38.47 63.5099 38.67 63.7099C38.86 63.9199 39.04 64.1399 39.26 64.3099L39.58 64.5899L39.94 64.8199C40.17 64.9899 40.43 65.0899 40.69 65.1999C40.95 65.3199 41.23 65.3599 41.5 65.4499C41.78 65.4899 42.07 65.5399 42.35 65.5599C42.64 65.5599 42.93 65.5899 43.22 65.5499C43.51 65.5099 43.81 65.5199 44.1 65.4399C44.39 65.3699 44.69 65.3399 44.97 65.2499C45.26 65.1599 45.54 65.0899 45.83 64.9899L46.68 64.6899L46.67 64.7099ZM46.67 64.7099L45.87 65.1199C45.6 65.2599 45.31 65.3499 45.03 65.4699C44.75 65.5999 44.45 65.6599 44.16 65.7599C43.87 65.8599 43.57 65.8899 43.27 65.9599C42.97 66.0299 42.65 66.0199 42.35 66.0499C42.04 66.0499 41.73 66.0199 41.41 65.9999C41.11 65.9199 40.78 65.8899 40.49 65.7699C40.19 65.6499 39.89 65.5599 39.62 65.3799L39.21 65.1399L38.83 64.8499C38.57 64.6699 38.36 64.4299 38.14 64.1999C37.9 63.9799 37.74 63.7099 37.55 63.4599C37.35 63.2099 37.22 62.9299 37.05 62.6699C36.88 62.4099 36.76 62.1199 36.63 61.8399C36.49 61.5599 36.38 61.2699 36.28 60.9799C36.17 60.6899 36.06 60.3999 35.98 60.1099L35.72 59.2299L35.64 58.9699L35.86 58.7999C36.15 58.5799 36.42 58.3999 36.72 58.2299C37.01 58.0599 37.31 57.8999 37.62 57.7599C38.23 57.4699 38.88 57.2399 39.55 57.0899C39.89 57.0199 40.23 56.9699 40.58 56.9499C40.93 56.9199 41.28 56.9499 41.62 56.9799C41.97 57.0199 42.31 57.0999 42.64 57.2099C42.8 57.2699 42.97 57.3199 43.13 57.4099C43.29 57.4799 43.44 57.5599 43.59 57.6599C43.74 57.7499 43.88 57.8499 44.02 57.9499C44.16 58.0499 44.29 58.1699 44.42 58.2799C44.55 58.3899 44.67 58.5199 44.78 58.6399C44.9 58.7599 45.01 58.8899 45.11 59.0299C45.32 59.2999 45.5 59.5899 45.67 59.8699L45.91 60.3099C46.01 60.4899 46.03 60.6199 46.1 60.7799C46.19 61.0999 46.28 61.4499 46.33 61.7599C46.39 62.0799 46.44 62.4099 46.49 62.7299C46.58 63.3799 46.65 64.0299 46.69 64.6799L46.67 64.7099Z" fill="#281D18"/>
<path d="M66.27 58.9801C66.27 58.9801 62.96 65.8301 60.12 65.8301C57.95 65.8301 55.23 64.7201 55.23 64.7201C55.23 64.7201 54.08 53.3101 60.37 52.9501C63.2 52.7901 66.27 58.9901 66.27 58.9901" fill="#774930"/>
<path d="M63.0901 54.44C63.0901 54.44 63.0701 54.43 63.0201 54.4C62.9701 54.38 62.9001 54.34 62.8201 54.3C62.7401 54.26 62.6201 54.22 62.5101 54.16C62.3901 54.11 62.2601 54.05 62.1101 54C61.9701 53.94 61.8101 53.89 61.6401 53.84C61.5601 53.81 61.4701 53.79 61.3901 53.77C61.3001 53.75 61.2201 53.72 61.1301 53.71C61.0401 53.7 60.9501 53.68 60.8601 53.66C60.7701 53.64 60.6801 53.65 60.5801 53.63C60.4001 53.6 60.2101 53.61 60.0201 53.62C59.9301 53.62 59.8301 53.63 59.7401 53.64C59.6501 53.65 59.5501 53.66 59.4601 53.67C59.2801 53.72 59.1001 53.75 58.9201 53.79C58.7501 53.85 58.5801 53.9 58.4101 53.95C58.2401 54.01 58.0901 54.08 57.9501 54.13C57.8001 54.18 57.6601 54.23 57.5501 54.29C57.4301 54.35 57.3201 54.39 57.2401 54.43C57.0601 54.5 56.9501 54.54 56.9501 54.54C56.9501 54.54 57.0101 54.44 57.1201 54.28C57.1801 54.2 57.2501 54.1 57.3401 53.99C57.3901 53.94 57.4301 53.88 57.4801 53.82C57.5401 53.77 57.6001 53.71 57.6601 53.65C57.7901 53.54 57.9301 53.41 58.0901 53.29C58.2601 53.19 58.4401 53.08 58.6401 52.97C58.8401 52.89 59.0601 52.81 59.2901 52.74C59.5201 52.7 59.7601 52.65 60.0001 52.64C60.2401 52.64 60.4901 52.64 60.7201 52.69C60.9601 52.72 61.1801 52.8 61.3901 52.87C61.5001 52.91 61.5901 52.96 61.6901 53.01C61.7801 53.06 61.8801 53.1 61.9601 53.16C62.0401 53.22 62.1301 53.27 62.2001 53.32C62.2701 53.38 62.3401 53.44 62.4101 53.49C62.5501 53.6 62.6501 53.73 62.7401 53.83C62.8301 53.94 62.9001 54.03 62.9601 54.12C63.0201 54.2 63.0501 54.27 63.0801 54.32C63.1001 54.37 63.1101 54.39 63.1101 54.39L63.0901 54.44Z" fill="#281A15"/>
<path d="M55.2101 64.7101C60.4401 67.2001 64.1201 65.59 65.7701 59.13C65.7701 59.13 59.4801 54.25 56.1501 60.51C55.6301 61.48 55.2101 64.7101 55.2101 64.7101Z" fill="white"/>
<path d="M60.2601 65.1199C61.7101 65.0899 62.9301 63.94 63.3901 62.34C63.5301 61.85 63.6101 61.32 63.5901 60.77C63.5401 58.55 62.1601 57.75 60.4201 57.7C60.3101 57.7 60.2001 57.7 60.0901 57.7C58.2001 57.74 56.7601 59.71 56.7301 60.92C56.6701 63.28 58.3601 65.1599 60.2501 65.1199" fill="#995F26"/>
<path d="M60.2101 64.5201C59.5801 64.5201 58.9601 64.2201 58.4601 63.6701C57.8101 62.9601 57.4401 61.9301 57.4701 60.8501C57.4901 59.9601 58.6301 58.2201 60.1301 58.1801H60.1701C60.2501 58.1801 60.3401 58.1801 60.4201 58.1801C62.0701 58.2301 62.8601 59.0301 62.8901 60.6901C62.9001 61.1801 62.8401 61.6601 62.7101 62.1201C62.3201 63.5501 61.3501 64.4901 60.2501 64.5201H60.2101Z" fill="#3D2E14"/>
<path d="M60.17 60.1001C60.14 61.5301 59.19 62.6701 58.04 62.6501C57.52 62.6401 57.06 62.3901 56.7 61.9901C56.57 61.5601 56.51 61.1001 56.52 60.6201C56.56 58.6701 57.77 57.9801 59.3 57.9301C59.85 58.4101 60.2 59.2101 60.18 60.1001" fill="white"/>
<path d="M62.1201 64.0201C62.1201 64.5001 61.7901 64.8901 61.4001 64.8801C61.0101 64.8801 60.7001 64.4701 60.7101 63.9901C60.7101 63.5101 61.0401 63.1201 61.4301 63.1301C61.8201 63.1301 62.1301 63.5401 62.1201 64.0201Z" fill="white"/>
<path d="M55.2101 64.71C55.2101 64.71 55.2101 64.68 55.2201 64.63C55.2201 64.68 55.2101 64.71 55.2101 64.71Z" fill="#876050"/>
<path d="M55.23 64.6301C55.3 64.1201 55.69 61.3901 56.16 60.5101C56.32 60.2101 56.48 59.9401 56.65 59.6901C56.48 59.9401 56.31 60.2101 56.16 60.5101C55.69 61.3901 55.3 64.1301 55.23 64.6301Z" fill="#735245"/>
<path d="M56.1501 65.1199C55.8401 64.9999 55.5301 64.86 55.2101 64.71C55.2101 64.71 55.2101 64.68 55.2201 64.63C55.2901 64.13 55.6801 61.3899 56.1501 60.5099C56.3101 60.2099 56.4701 59.94 56.6401 59.7C56.5601 59.97 56.5201 60.2699 56.5101 60.6199C56.5001 61.0999 56.5601 61.57 56.6901 61.99C56.7501 62.06 56.8101 62.12 56.8701 62.17C56.8901 62.26 56.9201 62.34 56.9401 62.42C56.8901 62.5 56.8401 62.5899 56.8001 62.6799C56.5501 63.1599 56.3101 64.19 56.1401 65.11" fill="#E2E1E1"/>
<path d="M56.96 62.4301C56.93 62.3501 56.91 62.2601 56.89 62.1801C56.94 62.2201 56.99 62.2601 57.04 62.3001C57.01 62.3401 56.99 62.3901 56.96 62.4301Z" fill="#925E2B"/>
<path d="M58.23 58.09C58.87 57.67 59.55 57.44 60.22 57.36C59.55 57.44 58.88 57.67 58.24 58.09" fill="#735245"/>
<path d="M65.33 60.61C64.83 60.34 64.19 60.03 63.48 59.82C63.1 58.32 61.89 57.76 60.43 57.72C60.34 57.72 60.25 57.72 60.16 57.72C60.14 57.72 60.13 57.72 60.11 57.72C59.72 57.72 59.35 57.82 59.01 57.96C58.74 57.98 58.48 58.03 58.23 58.11C58.87 57.69 59.55 57.46 60.21 57.38C60.43 57.35 60.64 57.34 60.85 57.34C63.41 57.34 65.73 59.12 65.76 59.15C65.67 59.51 65.57 59.86 65.46 60.19C65.41 60.34 65.37 60.48 65.32 60.62" fill="#E2E1E1"/>
<path d="M63.48 59.81C63.23 59.73 62.98 59.67 62.72 59.62C62.41 58.69 61.66 58.23 60.41 58.19C60.33 58.19 60.24 58.19 60.16 58.19H60.12C59.94 58.19 59.77 58.22 59.6 58.27C59.5 58.15 59.4 58.04 59.29 57.94C59.19 57.94 59.1 57.94 59.01 57.96C59.35 57.81 59.72 57.72 60.11 57.72C60.13 57.72 60.15 57.72 60.16 57.72C60.25 57.72 60.34 57.72 60.43 57.72C61.89 57.76 63.1 58.33 63.48 59.82" fill="#925E2B"/>
<path d="M60.16 59.6801C60.1 59.1301 59.9 58.6401 59.61 58.2601C59.78 58.2101 59.95 58.1801 60.13 58.1801H60.17C60.25 58.1801 60.34 58.1801 60.42 58.1801C61.66 58.2201 62.42 58.6801 62.73 59.6101C62.34 59.5301 61.94 59.4901 61.53 59.4901C61.08 59.4901 60.62 59.5501 60.16 59.6801Z" fill="#41321C"/>
<path d="M57.03 62.3001C56.98 62.2601 56.93 62.2201 56.88 62.1801C56.82 62.1201 56.75 62.0601 56.7 62.0001C56.57 61.5701 56.51 61.1101 56.52 60.6301C56.52 60.2901 56.57 59.9801 56.65 59.7101C57.14 58.9901 57.68 58.4701 58.24 58.1001C58.48 58.0301 58.74 57.9801 59.02 57.9501C59.11 57.9501 59.21 57.9401 59.3 57.9301C59.41 58.0301 59.52 58.1401 59.61 58.2601C59.9 58.6401 60.1 59.1301 60.16 59.6801C59.04 60.0001 57.94 60.7801 57.03 62.2901" fill="#E2E1E1"/>
<path d="M55.2101 64.71C55.2501 64.06 55.3201 63.41 55.4101 62.76C55.4501 62.44 55.5001 62.11 55.5701 61.79C55.6201 61.47 55.7101 61.12 55.8001 60.81C55.8701 60.65 55.9001 60.52 55.9901 60.34L56.2301 59.9C56.4001 59.61 56.5801 59.32 56.7901 59.06C56.8901 58.92 57.0001 58.79 57.1201 58.67C57.2301 58.54 57.3501 58.42 57.4801 58.31C57.6101 58.19 57.7301 58.08 57.8801 57.98C58.0201 57.87 58.1601 57.77 58.3101 57.69C58.4601 57.59 58.6101 57.51 58.7701 57.44C58.9301 57.36 59.0901 57.3 59.2601 57.24C59.5901 57.13 59.9401 57.05 60.2801 57.01C60.6301 56.97 60.9801 56.96 61.3201 56.98C61.6701 57 62.0101 57.05 62.3501 57.12C63.0201 57.27 63.6601 57.5 64.2801 57.79C64.5901 57.93 64.8901 58.09 65.1801 58.26C65.4801 58.43 65.7501 58.61 66.0401 58.83L66.2701 59L66.1901 59.26L65.9301 60.14C65.8501 60.44 65.7401 60.72 65.6301 61.01C65.5301 61.3 65.4201 61.59 65.2801 61.87C65.1401 62.15 65.0301 62.43 64.8601 62.7C64.6901 62.96 64.5601 63.25 64.3601 63.49C64.1601 63.74 64.0001 64.01 63.7701 64.23C63.5501 64.46 63.3401 64.7 63.0801 64.88L62.7001 65.17L62.2901 65.41C62.0201 65.58 61.7201 65.68 61.4201 65.8C61.1201 65.92 60.8001 65.95 60.5001 66.03C60.1901 66.05 59.8701 66.09 59.5601 66.08C59.2501 66.05 58.9401 66.07 58.6401 65.99C58.3401 65.92 58.0301 65.89 57.7401 65.79C57.4501 65.69 57.1501 65.63 56.8701 65.5C56.5901 65.38 56.3001 65.28 56.0301 65.15L55.2301 64.74L55.2101 64.71ZM55.2101 64.71L56.0601 65.01C56.3401 65.11 56.6301 65.18 56.9201 65.27C57.2001 65.37 57.5001 65.4 57.7901 65.46C58.0801 65.53 58.3801 65.53 58.6701 65.57C58.9601 65.61 59.2501 65.57 59.5401 65.58C59.8301 65.57 60.1101 65.51 60.3901 65.47C60.6601 65.38 60.9401 65.33 61.2001 65.22C61.4601 65.1 61.7201 65 61.9501 64.84L62.3001 64.61L62.6201 64.33C62.8401 64.16 63.0201 63.93 63.2101 63.73C63.4101 63.53 63.5501 63.27 63.7201 63.05C63.8901 62.83 64.0101 62.55 64.1601 62.31C64.3101 62.07 64.4101 61.79 64.5301 61.53C64.6601 61.27 64.7601 61 64.8501 60.72C64.9501 60.45 65.0501 60.17 65.1301 59.89L65.3701 59.04L65.5201 59.47C65.2901 59.3 65.0101 59.12 64.7501 58.96C64.4801 58.8 64.2101 58.65 63.9201 58.51C63.3601 58.24 62.7701 58.02 62.1701 57.88C61.8701 57.81 61.5701 57.75 61.2601 57.73C60.9601 57.7 60.6501 57.7 60.3501 57.73C60.0501 57.76 59.7501 57.81 59.4701 57.9C59.1801 57.99 58.9001 58.09 58.6401 58.25C58.5001 58.32 58.3801 58.4 58.2501 58.49C58.1201 58.57 58.0001 58.67 57.8801 58.77C57.7601 58.86 57.6501 58.97 57.5401 59.08C57.4201 59.18 57.3201 59.3 57.2201 59.42C57.0101 59.65 56.8301 59.91 56.6401 60.17L56.3901 60.57C56.3201 60.67 56.2501 60.85 56.1901 60.99C56.0801 61.29 55.9701 61.56 55.8901 61.88C55.8001 62.19 55.7101 62.5 55.6401 62.82C55.5601 63.13 55.4901 63.45 55.4201 63.77C55.3501 64.09 55.2801 64.41 55.2101 64.73V64.71Z" fill="#281D18"/>
</svg>
