<svg width="102" height="102" viewBox="0 0 102 102" fill="none" xmlns="http://www.w3.org/2000/svg">
<path d="M93.06 0.650024H9.47005C4.68174 0.650024 0.800049 4.53173 0.800049 9.32004V92.91C0.800049 97.6983 4.68174 101.58 9.47005 101.58H93.06C97.8484 101.58 101.73 97.6983 101.73 92.91V9.32004C101.73 4.53173 97.8484 0.650024 93.06 0.650024Z" fill="#DBBD64"/>
<path d="M51.44 79.8801C47.39 79.8801 41.72 77.9501 36.98 74.9501C36.53 74.6801 36.08 74.3901 35.66 74.0801C30.66 70.5801 27.59 66.3501 27.02 62.1501C26.95 61.6801 26.92 61.1701 26.92 60.6701C26.92 60.3701 26.92 60.0601 26.93 59.7501C25.69 58.7101 23.94 56.9001 23.1 54.5001C22.77 53.5601 22.15 53.1201 20.98 52.3501C18.82 50.9401 15.87 49.0001 14.41 41.6301C12.55 32.2201 15.51 26.6901 16.96 24.6701C17.16 24.3101 17.82 23.2201 18.97 22.6601C19.08 22.6001 19.17 22.5601 19.27 22.5301C19.59 22.4101 19.94 22.3501 20.29 22.3501C20.39 22.3501 20.5 22.3501 20.61 22.3701C22.48 22.4601 23.79 23.8601 25.43 25.8201C29.01 29.9001 32.03 32.6501 33.93 33.5601L34.06 33.6201C35.23 34.1501 37.55 34.7901 39.61 35.3601C41.68 35.9301 43.5001 36.4401 44.5701 36.9101C46.6101 36.5901 48.87 36.4301 51.45 36.4301C53.73 36.4301 55.86 36.5801 57.8 36.8701C58.87 36.4101 60.65 35.9201 62.67 35.3601C64.75 34.7801 67.11 34.1301 68.29 33.5801C70.18 32.7001 73.22 29.9401 76.85 25.8001C77.97 24.5301 78.94 23.6501 79.83 23.1101C80.59 22.6001 81.34 22.3601 82.14 22.3601C82.49 22.3601 82.84 22.4101 83.2 22.5101C83.43 22.5701 83.81 22.7201 84.4 23.2801C84.97 23.7601 85.3501 24.3101 85.4601 24.5001C86.9401 26.4901 90.0301 32.0301 88.1301 41.6401C86.6701 49.0101 83.72 50.9501 81.56 52.3601C80.39 53.1301 79.76 53.5701 79.44 54.5101C78.68 56.6801 77.2 58.3601 75.94 59.4801C75.96 59.8901 75.96 60.2901 75.96 60.6801C75.96 61.0301 75.95 61.3701 75.92 61.7101C75.92 61.8201 75.9 61.9301 75.89 62.0501V62.0901C75.33 66.6901 72.09 71.1801 66.76 74.7401C62.06 77.8801 56.45 79.8101 51.76 79.8901H51.45L51.44 79.8801Z" fill="#2F150C"/>
<path d="M15.6801 41.3801C17.8001 52.0901 22.9801 50.2001 24.3201 54.0701C25.0801 56.2401 26.7501 58 28.2501 59.15C28.2301 59.65 28.2101 60.16 28.2101 60.68C28.2101 61.12 28.2401 61.56 28.3001 61.99C28.8801 66.26 32.2301 70.1201 36.4101 73.0401C36.7901 73.3301 37.2001 73.6 37.6401 73.86C42.2901 76.8 47.6901 78.6001 51.4301 78.6001C51.5301 78.6001 51.6201 78.6001 51.7201 78.6001C60.5001 78.4401 73.4601 71.1501 74.5801 61.9501C74.5901 61.8401 74.6101 61.72 74.6201 61.61C74.6501 61.31 74.6601 61.0001 74.6601 60.6901C74.6601 60.0901 74.6401 59.4901 74.6101 58.9101C76.0201 57.7601 77.5101 56.1 78.2101 54.09C79.5601 50.22 84.7401 52.11 86.8501 41.4C88.5301 32.91 86.1501 27.61 84.3701 25.24C84.3701 25.24 84.0501 24.7 83.5301 24.28C83.2301 23.99 82.9801 23.8301 82.8401 23.7901C81.9801 23.5501 81.2501 23.74 80.5201 24.24C79.7901 24.68 78.9201 25.4401 77.8201 26.6901C75.6901 29.1201 71.6301 33.4901 68.8301 34.7901C66.3301 35.9501 59.7501 37.32 57.9801 38.24C56.0501 37.92 53.8801 37.7501 51.4401 37.7501C48.7001 37.7501 46.3701 37.94 44.3601 38.28C42.7401 37.36 36.0701 35.98 33.4901 34.81C33.4501 34.79 33.4001 34.7701 33.3601 34.7501C30.5601 33.4101 26.5501 29.0901 24.4401 26.6901C22.9801 24.9401 21.8701 23.7401 20.5101 23.6901C20.2201 23.6601 19.9501 23.6901 19.7001 23.7901C19.6601 23.8001 19.6101 23.8201 19.5601 23.8501C18.6001 24.3101 18.0701 25.3801 18.0701 25.3801C16.3001 27.8201 14.0401 33.0801 15.6901 41.4101L15.6801 41.3801Z" fill="#2F150C"/>
<path d="M82.85 23.7602C79.61 22.8702 78.14 28.0101 72.11 32.9001C66.88 37.1401 57.53 37.3902 57.78 38.7902C56.16 38.3102 53.11 38.0701 51.41 38.0601C51.37 38.0601 51.32 38.0601 51.28 38.0601C51.24 38.0601 51.19 38.0601 51.15 38.0601C49.45 38.0701 46.39 38.3202 44.78 38.7902C45.03 37.3802 35.68 37.1401 30.45 32.9001C24.41 28.0101 22.95 22.8602 19.71 23.7602C18.79 24.0102 13.38 29.6702 15.7 41.3802C17.82 52.0902 23 50.2002 24.34 54.0702C25.6 57.6802 29.38 60.1601 30.71 60.5601C29.97 60.7201 32.34 69.7001 43.07 70.5801C48.19 71.0001 47.71 73.1801 51.15 73.2201C51.19 73.2201 51.24 73.2201 51.28 73.2201C51.32 73.2201 51.37 73.2201 51.41 73.2201C53.77 73.1901 54.1 72.0502 55.85 71.2602C56.65 70.9002 57.9 70.7801 59.49 70.5801C70.24 69.2601 72.59 60.7301 71.85 60.5601C73.18 60.1601 76.96 57.6802 78.22 54.0702C79.57 50.2002 84.75 52.0902 86.86 41.3802C89.18 29.6702 83.77 24.0202 82.85 23.7602Z" fill="#D69891"/>
<path d="M18.0601 25.3501C18.8101 24.6101 19.6401 24.3201 20.9201 25.6001C22.2001 26.8801 26.7101 31.9401 27.9501 33.1301C29.6401 34.7501 35.0901 38.4801 35.8701 39.0401C36.6501 39.6001 37.8101 41.2401 37.6001 43.1701C37.4701 44.3901 41.4401 43.0301 42.9001 41.6601C43.5501 41.0501 44.9801 39.0301 44.7001 38.5301C44.1801 37.6301 36.2401 36.0601 33.4401 34.7601C30.6401 33.4601 26.5801 29.0901 24.4401 26.6601C22.1101 24.0101 20.7501 23.3501 19.7001 23.7601C18.6501 24.1701 18.0701 25.3501 18.0701 25.3501H18.0601Z" fill="#F3C899"/>
<path d="M84.37 25.2201C83.62 24.4801 82.61 24.3201 81.33 25.6001C80.05 26.8801 75.54 31.9401 74.3 33.1301C72.61 34.7501 67.16 38.4801 66.38 39.0401C65.6 39.6001 64.44 41.2401 64.65 43.1701C64.78 44.3901 60.81 43.0301 59.35 41.6601C58.69 41.0501 57.26 39.0301 57.55 38.5301C58.07 37.6301 66.01 36.0601 68.81 34.7601C71.61 33.4601 75.67 29.0901 77.8 26.6601C80.13 24.0101 81.44 23.5301 82.54 23.7601C83.62 23.9801 84.35 25.2101 84.35 25.2101L84.37 25.2201Z" fill="#F3C899"/>
<path d="M74.6601 60.6701C74.6601 60.9801 74.6501 61.2901 74.6201 61.5901C74.6201 61.7001 74.6001 61.8201 74.5801 61.9301C73.4701 71.1301 60.5001 78.4201 51.7201 78.5801C51.6201 78.5801 51.5301 78.5801 51.4301 78.5801C43.8901 78.5801 29.5601 71.2601 28.3001 61.9801C28.2401 61.5501 28.2101 61.1101 28.2101 60.6701C28.2101 51.9401 31.7801 45.3701 35.7101 41.9701C38.7001 39.3701 43.2901 37.7301 51.4301 37.7301C59.0901 37.7301 64.1201 39.4101 67.1501 41.9701C71.1201 45.3301 74.6501 51.9401 74.6501 60.6701" fill="#F3C899"/>
<path d="M51.44 77.3901C47.99 77.3901 42.84 75.4601 38.62 72.5901C33.78 69.3001 30.73 65.2201 30.24 61.3901C30.19 61.0101 30.16 60.6301 30.16 60.2401C30.16 52.5701 35.42 43.2801 37.07 41.7701C38.36 40.5901 44.9 37.7301 51.43 37.7301C57.59 37.7301 64.42 40.5501 65.8 41.7901C67.5 43.3201 72.7 52.5901 72.7 60.2401C72.7 60.5201 72.69 60.8001 72.67 61.0701C72.67 61.1701 72.65 61.2701 72.64 61.3801C71.63 70.3001 59.23 77.2501 51.68 77.3901H51.72H51.43" fill="#FED4A9"/>
<path d="M32.5601 58.1302C32.5601 58.1302 37.0501 67.4102 40.8901 67.4102C43.8301 67.4102 47.5101 65.9002 47.5101 65.9002C47.5101 65.9002 49.0701 50.4502 40.5501 49.9502C36.7101 49.7302 32.5601 58.1302 32.5601 58.1302Z" fill="#F3C899"/>
<path d="M70.3901 58.1302C70.3901 58.1302 65.9001 67.4102 62.0601 67.4102C59.1201 67.4102 55.4401 65.9002 55.4401 65.9002C55.4401 65.9002 53.8801 50.4502 62.4001 49.9502C66.2401 49.7302 70.3901 58.1302 70.3901 58.1302Z" fill="#F3C899"/>
<path d="M62.76 67.0501C66.85 67.0501 70.4 55.4001 70.66 57.9601C70.66 58.0401 70.63 66.9801 70.62 67.0601C69.77 72.0201 64.98 75.4801 57.09 76.4501C56.59 76.5101 56.02 76.8201 55.41 77.2101C54.09 75.5801 55.55 69.7101 55.55 68.0201C55.55 65.4401 58.67 67.0401 62.76 67.0401" fill="white"/>
<path d="M40.4601 67.0501C36.3701 67.0501 32.8201 55.4001 32.5601 57.9601C32.5601 58.0401 32.5901 66.9801 32.6001 67.0601C33.4501 72.0201 38.2401 75.4801 46.1301 76.4501C46.6301 76.5101 47.2001 76.8201 47.8101 77.2101C49.1301 75.5801 47.6701 69.7101 47.6701 68.0201C47.6701 65.4401 44.5501 67.0401 40.4601 67.0401" fill="white"/>
<path d="M46.53 61.6602C47.17 62.5802 47.98 64.9802 47.98 66.2902C47.98 67.6002 48 68.6002 47.47 69.6402C46.62 71.3002 45.33 73.0801 45.12 73.6501C44.6 75.0601 46.17 76.1402 46.17 76.1402C46.17 76.1402 43.28 75.5801 44.63 72.2101C44.98 71.3301 45.22 70.9102 45.42 70.3202C45.83 69.0702 46.53 61.6602 46.53 61.6602Z" fill="#FED4A9"/>
<path d="M56.34 61.6602C55.7 62.5802 54.89 64.9802 54.89 66.2902C54.89 67.6002 54.87 68.6002 55.4 69.6402C56.25 71.3002 57.54 73.0801 57.75 73.6501C58.27 75.0601 56.7 76.1402 56.7 76.1402C56.7 76.1402 59.59 75.5801 58.24 72.2101C57.89 71.3301 57.65 70.9102 57.45 70.3202C57.04 69.0702 56.34 61.6602 56.34 61.6602Z" fill="#FED4A9"/>
<path d="M36.87 51.9801C36.87 51.9801 36.88 51.9401 36.92 51.8801C36.95 51.8201 37 51.7201 37.08 51.6101C37.15 51.4901 37.25 51.3601 37.37 51.2201C37.5 51.0801 37.64 50.9101 37.82 50.7601C37.91 50.6801 38 50.6001 38.1 50.5201C38.21 50.4501 38.32 50.3701 38.43 50.3001C38.54 50.2201 38.67 50.1601 38.8 50.0901C38.93 50.0301 39.06 49.9501 39.2 49.9001C39.49 49.8001 39.78 49.6901 40.11 49.6501C40.43 49.5801 40.76 49.5801 41.09 49.5801C41.42 49.5801 41.74 49.6601 42.06 49.7101C42.37 49.8001 42.66 49.9101 42.94 50.0201C43.2 50.1601 43.45 50.3101 43.68 50.4501C43.9 50.6001 44.09 50.7801 44.26 50.9301C44.35 51.0101 44.43 51.0801 44.5 51.1501C44.57 51.2301 44.63 51.3101 44.69 51.3801C44.81 51.5201 44.9 51.6601 44.98 51.7701C45.14 51.9901 45.21 52.1201 45.21 52.1201C45.21 52.1201 45.06 52.0701 44.82 51.9701C44.7 51.9201 44.55 51.8601 44.39 51.7801C44.23 51.7001 44.05 51.6301 43.85 51.5601C43.65 51.4901 43.45 51.3901 43.22 51.3101C42.99 51.2501 42.76 51.1701 42.53 51.0901C42.29 51.0401 42.04 50.9901 41.79 50.9301C41.66 50.9201 41.54 50.9101 41.41 50.8901C41.28 50.8801 41.16 50.8501 41.03 50.8601C40.78 50.8601 40.52 50.8401 40.27 50.8801C40.15 50.9001 40.02 50.8801 39.9 50.9201C39.78 50.9401 39.66 50.9701 39.53 50.9801C39.41 50.9901 39.29 51.0401 39.18 51.0601C39.06 51.0901 38.95 51.1101 38.84 51.1501C38.62 51.2201 38.4 51.2801 38.21 51.3601C38.01 51.4301 37.83 51.5101 37.67 51.5701C37.52 51.6501 37.36 51.7001 37.25 51.7601C37.13 51.8201 37.04 51.8601 36.97 51.8901C36.91 51.9201 36.87 51.9401 36.87 51.9401V51.9801Z" fill="#462A14"/>
<path d="M66.23 51.9801C66.23 51.9801 66.2 51.9601 66.13 51.9301C66.07 51.9001 65.97 51.8601 65.85 51.8001C65.74 51.7401 65.58 51.6901 65.43 51.6101C65.26 51.5501 65.09 51.4701 64.89 51.4001C64.7 51.3201 64.48 51.2601 64.26 51.1901C64.15 51.1501 64.03 51.1301 63.92 51.1001C63.8 51.0801 63.69 51.0301 63.57 51.0201C63.45 51.0001 63.33 50.9801 63.2 50.9601C63.08 50.9301 62.95 50.9401 62.83 50.9201C62.58 50.8801 62.33 50.9001 62.07 50.9001C61.94 50.8901 61.82 50.9201 61.69 50.9301C61.56 50.9501 61.44 50.9601 61.31 50.9701C61.06 51.0301 60.82 51.0801 60.57 51.1301C60.34 51.2101 60.1 51.2801 59.88 51.3501C59.66 51.4301 59.45 51.5201 59.25 51.6001C59.05 51.6701 58.86 51.7401 58.7 51.8201C58.54 51.9001 58.39 51.9601 58.27 52.0101C58.03 52.1101 57.87 52.1601 57.87 52.1601C57.87 52.1601 57.94 52.0301 58.1 51.8101C58.18 51.7001 58.27 51.5701 58.39 51.4201C58.45 51.3501 58.51 51.2701 58.58 51.1901C58.66 51.1201 58.74 51.0401 58.82 50.9601C59 50.8101 59.18 50.6301 59.4 50.4801C59.63 50.3401 59.88 50.1901 60.14 50.0501C60.42 49.9401 60.71 49.8301 61.02 49.7401C61.34 49.6901 61.66 49.6101 61.99 49.6101C62.32 49.6101 62.65 49.6101 62.97 49.6801C63.29 49.7201 63.59 49.8301 63.88 49.9301C64.02 49.9801 64.15 50.0501 64.28 50.1201C64.41 50.1901 64.54 50.2401 64.65 50.3301C64.76 50.4101 64.87 50.4801 64.98 50.5501C65.08 50.6301 65.17 50.7101 65.26 50.7901C65.44 50.9401 65.58 51.1101 65.71 51.2501C65.83 51.4001 65.93 51.5301 66 51.6401C66.08 51.7501 66.12 51.8501 66.16 51.9101C66.19 51.9701 66.21 52.0101 66.21 52.0101L66.23 51.9801Z" fill="#462A14"/>
<path d="M34.0601 58.4202C38.2101 49.1602 46.4601 56.7902 45.4101 58.7502C44.0701 61.2502 34.0601 58.4202 34.0601 58.4202Z" fill="white"/>
<path d="M68.48 58.4202C64.33 49.1602 56.0801 56.7902 57.1301 58.7502C58.4701 61.2502 68.48 58.4202 68.48 58.4202Z" fill="white"/>
<path d="M47.5101 65.9001C40.4301 69.2701 35.4501 67.0901 33.2001 58.3501C33.2001 58.3501 41.7101 51.7401 46.2401 60.2201C46.9401 61.5401 47.5101 65.9101 47.5101 65.9101" fill="white"/>
<path d="M40.67 66.4502C38.7 66.4102 37.06 64.8502 36.42 62.6902C36.22 62.0302 36.13 61.3102 36.14 60.5702C36.2 57.5602 38.07 56.4802 40.43 56.4202C40.58 56.4202 40.73 56.4202 40.87 56.4202C43.43 56.4802 45.38 59.1402 45.43 60.7802C45.52 63.9802 43.23 66.5302 40.66 66.4702" fill="#64413F"/>
<path d="M40.69 65.6401C39.2 65.6101 37.89 64.3301 37.36 62.3901C37.19 61.7701 37.11 61.1201 37.12 60.4501C37.16 58.2001 38.23 57.12 40.47 57.05C40.58 57.05 40.69 57.05 40.81 57.05H40.87C42.89 57.1 44.43 59.4501 44.46 60.6601C44.5 62.1201 44.01 63.5201 43.12 64.4901C42.44 65.2301 41.6 65.6401 40.75 65.6401H40.69Z" fill="#4F3231"/>
<path d="M55.42 65.9001C62.5 69.2701 67.48 67.0901 69.73 58.3501C69.73 58.3501 61.22 51.7401 56.69 60.2201C55.99 61.5401 55.42 65.9101 55.42 65.9101" fill="white"/>
<path d="M62.26 66.4502C64.23 66.4102 65.87 64.8502 66.51 62.6902C66.71 62.0302 66.8 61.3102 66.79 60.5702C66.73 57.5602 64.86 56.4802 62.5 56.4202C62.35 56.4202 62.21 56.4202 62.06 56.4202C59.49 56.4802 57.55 59.1402 57.5 60.7802C57.41 63.9802 59.7 66.5302 62.27 66.4702" fill="#64413F"/>
<path d="M62.18 65.6401C61.33 65.6401 60.49 65.2301 59.81 64.4901C58.92 63.5201 58.43 62.1301 58.47 60.6701C58.5 59.4601 60.0401 57.1001 62.0701 57.0601H62.12C62.23 57.0601 62.3501 57.0601 62.4601 57.0601C64.7001 57.1301 65.76 58.2101 65.81 60.4501C65.82 61.1201 65.7401 61.7701 65.5701 62.3901C65.0401 64.3301 63.73 65.6101 62.24 65.6401H62.18Z" fill="#4F3231"/>
<path d="M40.9801 59.3601C40.9401 61.3001 39.6501 62.8402 38.0901 62.8102C37.3901 62.7902 36.7601 62.4602 36.2701 61.9202C36.1001 61.3402 36.0101 60.7102 36.0301 60.0602C36.0901 57.4202 37.7201 56.4802 39.7901 56.4202C40.5301 57.0602 41.0101 58.1501 40.9801 59.3601Z" fill="white"/>
<path d="M43.4301 64.9601C43.4201 65.6201 42.9801 66.1401 42.4501 66.1301C41.9201 66.1201 41.5101 65.5802 41.5201 64.9202C41.5301 64.2602 41.9701 63.7401 42.5001 63.7501C43.0301 63.7601 43.4401 64.3001 43.4301 64.9601Z" fill="white"/>
<path d="M62.13 59.6501C62.09 61.5901 60.8 63.1301 59.24 63.1001C58.54 63.0801 57.91 62.7501 57.42 62.2101C57.25 61.6301 57.16 61.0001 57.18 60.3501C57.24 57.7101 58.88 56.7701 60.94 56.7101C61.68 57.3501 62.16 58.4401 62.13 59.6501Z" fill="white"/>
<path d="M64.77 64.9601C64.76 65.6201 64.32 66.1401 63.79 66.1301C63.26 66.1201 62.85 65.5802 62.86 64.9202C62.87 64.2602 63.31 63.7401 63.84 63.7501C64.37 63.7601 64.78 64.3001 64.77 64.9601Z" fill="white"/>
<path d="M46.88 62.2601C46.69 61.4201 46.47 60.6501 46.24 60.2201C45.96 59.7001 45.67 59.2401 45.37 58.8301C45.67 59.2401 45.97 59.7001 46.24 60.2201C46.47 60.6601 46.69 61.4301 46.88 62.2601Z" fill="#DCB68F"/>
<path d="M33.6401 59.8401C33.4801 59.3601 33.3401 58.8601 33.2101 58.3401C33.3401 58.8601 33.4901 59.3601 33.6401 59.8401Z" fill="#E2E1E1"/>
<path d="M46.24 66.4501C46.66 66.2801 47.08 66.1001 47.51 65.8901C47.51 65.8901 47.25 63.9301 46.88 62.2501C47.26 63.9401 47.51 65.8901 47.51 65.8901C47.08 66.1001 46.65 66.2801 46.24 66.4501Z" fill="#E3BF9D"/>
<path d="M46.2401 66.4501C46.0101 65.2001 45.6901 63.8001 45.3501 63.1501C45.2901 63.0301 45.2201 62.9101 45.1601 62.8001C45.3601 62.1701 45.4601 61.4801 45.4401 60.7501C45.4001 59.1101 43.4501 56.4501 40.8801 56.3901C40.8601 56.3901 40.8301 56.3901 40.8101 56.3901C40.6901 56.3901 40.5601 56.3901 40.4401 56.3901C40.2301 56.3901 40.0301 56.4101 39.8301 56.4301C39.8201 56.4201 39.8001 56.4101 39.7901 56.4001C37.9301 56.4601 36.4101 57.2201 36.0901 59.3101C35.2101 59.6001 34.4301 59.9701 33.8101 60.3201C33.7501 60.1601 33.7001 59.9901 33.6401 59.8301C33.4901 59.3501 33.3401 58.8501 33.2101 58.3301C33.2601 58.2901 36.0101 56.1801 39.1901 55.9101C39.4101 55.8901 39.6301 55.8801 39.8601 55.8801C41.7501 55.8801 43.7301 56.6001 45.3701 58.8101C45.6701 59.2201 45.9601 59.6801 46.2401 60.2001C46.4701 60.6401 46.6901 61.4101 46.8801 62.2401C47.2601 63.9301 47.5101 65.8801 47.5101 65.8801C47.0801 66.0901 46.6501 66.2701 46.2401 66.4401" fill="#E2E1E1"/>
<path d="M45.1601 62.8102C44.9201 62.3902 44.6701 62.0102 44.4101 61.6702C44.4601 61.3402 44.4801 61.0102 44.4701 60.6702C44.4401 59.4602 42.9001 57.1002 40.8801 57.0602H40.8201C40.7101 57.0602 40.5901 57.0602 40.4801 57.0602C40.4401 57.0602 40.4001 57.0602 40.3601 57.0602C40.2101 56.8302 40.0301 56.6202 39.8401 56.4502C40.0401 56.4302 40.2401 56.4102 40.4501 56.4102C40.5701 56.4102 40.7001 56.4102 40.8201 56.4102C40.8401 56.4102 40.8701 56.4102 40.8901 56.4102C43.4501 56.4702 45.4001 59.1301 45.4501 60.7701C45.4701 61.4901 45.3701 62.1802 45.1701 62.8202" fill="#624341"/>
<path d="M44.4101 61.6701C43.3701 60.3001 42.1901 59.5201 40.9801 59.1401C40.9601 58.3601 40.7301 57.6401 40.3501 57.0701C40.3901 57.0701 40.4301 57.0701 40.4701 57.0701C40.5801 57.0701 40.6901 57.0701 40.8101 57.0701H40.8701C42.8901 57.1201 44.4301 59.4701 44.4601 60.6801C44.4601 61.0201 44.4501 61.3501 44.4001 61.6801" fill="#513635"/>
<path d="M36.0901 59.3301C36.4101 57.2401 37.9301 56.4702 39.7901 56.4202C39.8001 56.4302 39.8201 56.4402 39.8301 56.4502C40.0301 56.6302 40.2001 56.8302 40.3501 57.0602C40.7201 57.6302 40.9601 58.3502 40.9801 59.1302C40.3101 58.9202 39.6301 58.8301 38.9701 58.8301C37.9601 58.8301 36.9801 59.0301 36.0901 59.3301Z" fill="#E2E1E1"/>
<path d="M56.0901 62.0801C56.2701 61.3101 56.4701 60.6201 56.6901 60.2101C56.9001 59.8101 57.1301 59.4401 57.3601 59.1001C57.1301 59.4401 56.9101 59.8001 56.6901 60.2001C56.4701 60.6001 56.2701 61.3001 56.0901 62.0601" fill="#DCB68F"/>
<path d="M56.69 66.4501C56.27 66.2901 55.85 66.1001 55.42 65.8901C55.42 65.8901 55.6901 63.7901 56.1001 62.0701C55.7001 63.7901 55.42 65.8901 55.42 65.8901C55.85 66.1001 56.28 66.2801 56.69 66.4501Z" fill="#E3BF9D"/>
<path d="M56.69 66.4501C56.27 66.2901 55.85 66.1001 55.42 65.8901C55.42 65.8901 55.6901 63.7901 56.1001 62.0701C56.2801 61.3001 56.48 60.6101 56.7 60.2101C56.91 59.8101 57.14 59.4401 57.37 59.1101C57.27 59.4701 57.21 59.8901 57.2 60.3501C57.19 61.0001 57.27 61.6301 57.44 62.2101C57.52 62.3001 57.6 62.3801 57.69 62.4601C57.72 62.5801 57.75 62.6901 57.79 62.8101C57.73 62.9201 57.6601 63.0401 57.6001 63.1601C57.2601 63.8101 56.9401 65.2101 56.7101 66.4601" fill="#E2E1E1"/>
<path d="M69.5901 58.8401C69.6401 58.6801 69.6801 58.5101 69.7201 58.3401C69.6801 58.5101 69.6301 58.6701 69.5901 58.8401Z" fill="#DCB68F"/>
<path d="M69.29 59.8301C69.39 59.5101 69.49 59.1801 69.59 58.8401C69.5 59.1801 69.4 59.5101 69.29 59.8301Z" fill="#E2E1E1"/>
<path d="M59.5 56.9301C60.65 56.1701 61.88 55.8901 63.06 55.8901C61.87 55.8901 60.65 56.1701 59.5 56.9301Z" fill="#E2E1E1"/>
<path d="M69.12 60.3401C68.45 59.9701 67.58 59.5602 66.61 59.2602C66.1 57.2302 64.46 56.4702 62.48 56.4102C62.36 56.4102 62.23 56.4102 62.11 56.4102C62.09 56.4102 62.06 56.4102 62.04 56.4102C61.52 56.4202 61.02 56.5401 60.55 56.7401C60.18 56.7701 59.83 56.8402 59.5 56.9402C60.65 56.1802 61.88 55.9001 63.06 55.9001C63.28 55.9001 63.51 55.9101 63.73 55.9301C66.92 56.2001 69.67 58.3202 69.71 58.3502C69.67 58.5202 69.62 58.6802 69.58 58.8502C69.49 59.1902 69.39 59.5201 69.28 59.8401C69.22 60.0101 69.17 60.1801 69.11 60.3401" fill="#E2E1E1"/>
<path d="M57.7701 62.8102C57.7301 62.7002 57.7 62.5801 57.67 62.4601C57.74 62.5201 57.8 62.5701 57.87 62.6201C57.83 62.6801 57.8 62.7401 57.76 62.8001M66.62 59.2602C66.29 59.1602 65.94 59.0702 65.59 59.0002C65.17 57.7402 64.15 57.1102 62.47 57.0602C62.36 57.0602 62.2401 57.0602 62.1301 57.0602H62.08C61.84 57.0602 61.6001 57.1002 61.3801 57.1702C61.2501 57.0002 61.1101 56.8502 60.9601 56.7202C60.8301 56.7202 60.7 56.7301 60.58 56.7401C61.04 56.5401 61.5401 56.4202 62.0701 56.4102C62.0901 56.4102 62.12 56.4102 62.14 56.4102C62.26 56.4102 62.39 56.4102 62.51 56.4102C64.49 56.4702 66.13 57.2302 66.64 59.2602" fill="#624341"/>
<path d="M62.11 59.0901C62.03 58.3501 61.76 57.6801 61.37 57.1701C61.6 57.1101 61.83 57.0701 62.07 57.0601H62.12C62.23 57.0601 62.35 57.0601 62.46 57.0601C64.14 57.1101 65.16 57.7401 65.58 59.0001C65.06 58.9001 64.51 58.8401 63.96 58.8401C63.35 58.8401 62.73 58.9201 62.11 59.0901Z" fill="#513635"/>
<path d="M57.88 62.6301C57.81 62.5801 57.74 62.5201 57.68 62.4701C57.59 62.3901 57.51 62.3101 57.43 62.2201C57.26 61.6401 57.17 61.0101 57.19 60.3601C57.19 59.8901 57.26 59.4801 57.36 59.1201C58.02 58.1501 58.75 57.4501 59.51 56.9501C59.84 56.8501 60.19 56.7901 60.56 56.7501C60.69 56.7401 60.81 56.7301 60.94 56.7301C61.09 56.8601 61.23 57.0101 61.36 57.1801C61.76 57.7001 62.02 58.3601 62.1 59.1001C60.58 59.5401 59.1 60.5801 57.87 62.6401" fill="#E2E1E1"/>
<path d="M47.5101 65.9001C47.4201 65.4701 47.3201 65.0401 47.2301 64.6001C47.1301 64.1701 47.0401 63.7401 46.9401 63.3101C46.8401 62.8801 46.7301 62.4601 46.6001 62.0401C46.4801 61.6101 46.3401 61.2301 46.1901 60.8301C46.1001 60.6401 46.0101 60.4001 45.9201 60.2601L45.5701 59.7201C45.3201 59.3701 45.0801 59.0201 44.7901 58.7101C44.6501 58.5501 44.5101 58.3901 44.3601 58.2501C44.2101 58.1001 44.0601 57.9601 43.9001 57.8301C43.7401 57.7001 43.5801 57.5601 43.4001 57.4601C43.2301 57.3401 43.0601 57.2301 42.8701 57.1401C42.5201 56.9301 42.1301 56.7901 41.7401 56.6701C41.3501 56.5501 40.9501 56.4801 40.5401 56.4401C40.1301 56.4101 39.7201 56.4001 39.3101 56.4401C38.9001 56.4701 38.4901 56.5501 38.0801 56.6401C37.2701 56.8301 36.4701 57.1201 35.7101 57.4901C35.3301 57.6801 34.9501 57.8801 34.5901 58.0901C34.2301 58.3001 33.8601 58.5401 33.5401 58.7801L33.7401 58.2001L34.0701 59.3501C34.1701 59.7401 34.3201 60.1001 34.4501 60.4801C34.5801 60.8501 34.7201 61.2301 34.8901 61.5801C35.0601 61.9301 35.1901 62.3101 35.3901 62.6401C35.5901 62.9701 35.7401 63.3401 35.9801 63.6501C36.2101 63.9501 36.4001 64.3101 36.6801 64.5701C36.9401 64.8501 37.1801 65.1601 37.4801 65.3901L37.9101 65.7701L38.3901 66.0801C38.7001 66.3101 39.0601 66.4401 39.4101 66.6001C39.7601 66.7601 40.1401 66.8201 40.5101 66.9501C40.8901 67.0001 41.2801 67.0801 41.6701 67.0901C42.0601 67.0901 42.4601 67.1301 42.8501 67.0801C43.2401 67.0301 43.6501 67.0301 44.0301 66.9301C44.4201 66.8401 44.8201 66.8001 45.2001 66.6701C45.5801 66.5501 45.9801 66.4601 46.3601 66.3201L47.5101 65.9101V65.9001ZM47.5101 65.9001L46.4301 66.4601C46.0701 66.6401 45.6801 66.7801 45.3001 66.9401C44.9201 67.1101 44.5201 67.1901 44.1201 67.3301C43.7301 67.4701 43.3101 67.5101 42.9101 67.6001C42.5001 67.7001 42.0801 67.6801 41.6601 67.7201C41.2401 67.7301 40.8201 67.6801 40.3901 67.6501C39.9801 67.5501 39.5401 67.5101 39.1401 67.3501C38.7401 67.1901 38.3301 67.0601 37.9601 66.8201L37.4001 66.5001L36.8901 66.1001C36.5301 65.8501 36.2501 65.5301 35.9501 65.2201C35.6301 64.9201 35.4201 64.5601 35.1501 64.2201C34.8801 63.8901 34.7001 63.5001 34.4701 63.1501C34.2401 62.7901 34.0801 62.4001 33.9001 62.0301C33.7101 61.6501 33.5601 61.2601 33.4201 60.8701C33.2801 60.4801 33.1201 60.0901 33.0101 59.6901L32.6601 58.5001L32.5601 58.1401L32.8601 57.9101C33.2501 57.6201 33.6201 57.3701 34.0201 57.1401C34.4101 56.9101 34.8201 56.7001 35.2401 56.5001C36.0701 56.1101 36.9401 55.8001 37.8501 55.5901C38.3101 55.4901 38.7701 55.4201 39.2401 55.4001C39.7101 55.3601 40.1801 55.3901 40.6501 55.4401C41.1201 55.5001 41.5901 55.6001 42.0401 55.7501C42.2601 55.8301 42.4901 55.9001 42.7001 56.0201C42.9201 56.1201 43.1301 56.2301 43.3201 56.3601C43.5301 56.4801 43.7201 56.6101 43.9001 56.7601C44.0901 56.8901 44.2701 57.0501 44.4401 57.2101C44.6201 57.3601 44.7801 57.5301 44.9301 57.7001C45.0901 57.8701 45.2401 58.0401 45.3701 58.2301C45.6601 58.5901 45.8901 58.9801 46.1301 59.3701L46.4501 59.9701C46.5801 60.2201 46.6201 60.4001 46.7101 60.6101C46.8401 61.0401 46.9601 61.5101 47.0301 61.9401C47.1101 62.3801 47.1801 62.8201 47.2401 63.2601C47.3701 64.1401 47.4601 65.0201 47.5101 65.9001Z" fill="#462A14"/>
<path d="M55.42 65.9001C55.47 65.0201 55.57 64.1401 55.69 63.2601C55.75 62.8201 55.82 62.3801 55.9 61.9401C55.97 61.5101 56.09 61.0401 56.22 60.6101C56.31 60.4001 56.35 60.2101 56.48 59.9701L56.8 59.3701C57.03 58.9801 57.27 58.5901 57.56 58.2301C57.69 58.0401 57.84 57.8701 58 57.7001C58.15 57.5301 58.3101 57.3601 58.4901 57.2101C58.6601 57.0501 58.83 56.8901 59.03 56.7601C59.22 56.6101 59.41 56.4801 59.61 56.3601C59.81 56.2301 60.02 56.1201 60.23 56.0201C60.44 55.9101 60.67 55.8301 60.89 55.7501C61.34 55.6001 61.81 55.5001 62.28 55.4401C62.75 55.3901 63.22 55.3701 63.69 55.4001C64.16 55.4201 64.62 55.4901 65.08 55.5901C65.99 55.8001 66.86 56.1001 67.69 56.5001C68.11 56.7001 68.51 56.9101 68.91 57.1401C69.31 57.3701 69.6801 57.6201 70.0701 57.9101L70.37 58.1401L70.2701 58.5001L69.92 59.6901C69.81 60.0901 69.65 60.4801 69.51 60.8701C69.37 61.2601 69.22 61.6501 69.03 62.0301C68.84 62.4101 68.6901 62.7901 68.4601 63.1501C68.2301 63.5101 68.06 63.8901 67.78 64.2201C67.51 64.5501 67.3 64.9201 66.98 65.2201C66.68 65.5301 66.4 65.8501 66.04 66.1001L65.53 66.5001L64.97 66.8201C64.61 67.0601 64.19 67.1901 63.79 67.3501C63.39 67.5101 62.95 67.5501 62.54 67.6501C62.11 67.6801 61.6901 67.7301 61.2701 67.7201C60.8501 67.6801 60.4301 67.7001 60.0201 67.6001C59.6101 67.5101 59.2 67.4701 58.81 67.3301C58.42 67.2001 58.01 67.1201 57.64 66.9401C57.26 66.7801 56.87 66.6501 56.51 66.4601L55.43 65.9001H55.42ZM55.42 65.9001L56.5701 66.3101C56.9501 66.4501 57.35 66.5401 57.73 66.6601C58.11 66.7901 58.52 66.8301 58.9 66.9201C59.29 67.0201 59.69 67.0201 60.08 67.0701C60.47 67.1201 60.87 67.0701 61.26 67.0801C61.65 67.0601 62.03 66.9801 62.42 66.9401C62.79 66.8201 63.1701 66.7501 63.5201 66.5901C63.8701 66.4301 64.23 66.3001 64.54 66.0701L65.0201 65.7601L65.45 65.3801C65.75 65.1501 65.99 64.8401 66.25 64.5601C66.52 64.2901 66.71 63.9401 66.95 63.6401C67.19 63.3401 67.34 62.9701 67.54 62.6301C67.74 62.3001 67.88 61.9201 68.04 61.5701C68.21 61.2201 68.35 60.8501 68.48 60.4701C68.61 60.1001 68.76 59.7301 68.86 59.3401L69.19 58.1901L69.39 58.7701C69.07 58.5401 68.7 58.3001 68.34 58.0801C67.98 57.8601 67.6 57.6601 67.22 57.4801C66.46 57.1101 65.6601 56.8201 64.8501 56.6301C64.4401 56.5401 64.03 56.4601 63.62 56.4301C63.21 56.3801 62.8 56.3901 62.39 56.4301C61.98 56.4701 61.58 56.5401 61.19 56.6601C60.8 56.7801 60.42 56.9201 60.06 57.1301C59.88 57.2201 59.7 57.3301 59.53 57.4501C59.35 57.5601 59.19 57.6901 59.03 57.8201C58.86 57.9501 58.7101 58.0901 58.5701 58.2401C58.4201 58.3801 58.27 58.5401 58.14 58.7001C57.85 59.0101 57.61 59.3601 57.36 59.7101L57.0201 60.2501C56.9301 60.3901 56.8401 60.6301 56.7401 60.8201C56.5901 61.2201 56.45 61.6001 56.33 62.0301C56.2 62.4501 56.0901 62.8701 55.9901 63.3001C55.8801 63.7301 55.79 64.1601 55.7 64.5901C55.6 65.0201 55.51 65.4501 55.42 65.8901V65.9001Z" fill="#462A14"/>
<path d="M56.1501 70.2001C55.1001 68.3901 53.9001 60.7501 51.4401 60.7501C48.9801 60.7501 47.7701 68.3901 46.7301 70.2001C45.8801 71.6701 44.9301 72.5201 44.9301 73.7701C44.9301 75.2701 46.1301 75.6801 47.3501 76.4601C48.4001 77.1301 49.3201 78.2701 51.3801 78.2701H51.4501H51.5201C53.5901 78.2701 54.6101 77.2701 55.6601 76.6001C56.8801 75.8201 57.9701 75.2701 57.9701 73.7701C57.9701 72.5201 57.0201 71.6701 56.1701 70.2001" fill="white"/>
<path d="M54.42 74.2701C54.42 74.8601 53.77 75.3901 53.03 75.7201C52.52 75.9401 51.96 76.0801 51.53 76.0801C51.1 76.0801 50.54 75.9501 50.03 75.7301C49.28 75.4001 48.63 74.8801 48.63 74.2801C48.63 73.2801 50.46 72.4801 51.53 72.4801C52.6 72.4801 54.42 73.2901 54.42 74.2801" fill="#B3576F"/>
<path d="M51.44 77.2002C50.93 77.2002 50.28 77.0402 49.68 76.7602C48.8 76.3502 48.03 75.7002 48.03 74.9702C48.03 74.4802 48.37 74.0302 48.85 73.6702C48.71 73.8602 48.63 74.0601 48.63 74.2701C48.63 74.8601 49.28 75.3902 50.03 75.7202C50.54 75.9402 51.09 76.0702 51.53 76.0702C51.97 76.0702 52.52 75.9401 53.03 75.7101C53.78 75.3801 54.42 74.8602 54.42 74.2602C54.42 74.1502 54.4 74.0401 54.35 73.9301C54.66 74.2401 54.85 74.5901 54.85 74.9601C54.85 75.6901 54.09 76.3401 53.21 76.7401C52.61 77.0201 51.95 77.1801 51.44 77.1801" fill="#CFCDCC"/>
<path d="M51.52 76.0801C51.09 76.0801 50.53 75.9501 50.02 75.7301C49.27 75.4001 48.62 74.8801 48.62 74.2801C48.62 74.0701 48.7 73.8601 48.84 73.6801C49.58 73.1201 50.68 72.7501 51.43 72.7501C52.3 72.7501 53.62 73.2401 54.34 73.9501C54.38 74.0601 54.41 74.1701 54.41 74.2801C54.41 74.8701 53.76 75.4001 53.02 75.7301C52.51 75.9501 51.95 76.0901 51.52 76.0901" fill="#9F596B"/>
<path d="M54.9301 71.1201C53.9501 71.1201 52.3801 71.4201 51.7001 72.1201C51.6201 72.2001 51.5801 72.2801 51.5401 72.3701C51.5201 72.1701 51.4601 71.9601 51.2801 71.7701C50.6301 71.0701 49.3601 70.5801 48.4201 70.5801C47.0101 70.5801 46.5701 71.3601 46.5701 72.2201C46.5701 73.0801 46.7101 75.0401 48.1201 75.0001C49.9501 74.9501 51.2401 73.9501 51.4901 73.1201C51.4901 73.1801 51.5001 73.2401 51.5001 73.2901C51.5001 74.1601 53.5201 75.1201 55.0001 75.1201C56.4801 75.1201 56.8001 73.4101 56.8001 72.5401C56.8001 71.6701 56.3901 71.1101 54.9101 71.1101L54.9301 71.1201Z" fill="white"/>
<path d="M51.3501 72.1601C51.3501 72.4001 51 72.2101 50.66 72.2101C50.32 72.2101 50.05 72.0101 50.05 71.7701C50.05 71.5301 50.32 71.3301 50.66 71.3301C51 71.3301 51.3501 71.9101 51.3501 72.1601Z" fill="#0E0E0E"/>
<path d="M51.55 72.1601C51.55 72.4001 51.9001 72.2101 52.2401 72.2101C52.5801 72.2101 52.8501 72.0101 52.8501 71.7701C52.8501 71.5301 52.5801 71.3301 52.2401 71.3301C51.9001 71.3301 51.55 71.9101 51.55 72.1601Z" fill="#0E0E0E"/>
<path d="M55.68 74.4202C55.68 74.3102 55.65 74.2202 55.62 74.1402C55.6 74.0602 55.57 74.0102 55.55 73.9702C55.56 74.0102 55.59 74.0602 55.61 74.1402C55.63 74.2202 55.65 74.3102 55.65 74.4102C55.65 74.4602 55.65 74.5202 55.64 74.5802C55.62 74.6302 55.61 74.7002 55.57 74.7502C55.5 74.8602 55.38 74.9402 55.24 74.9802C55.1 75.0202 54.94 75.0302 54.78 75.0302C54.45 75.0202 54.1 74.9502 53.77 74.8402C53.1 74.6302 52.47 74.2902 52.07 73.9602C51.97 73.8802 51.88 73.8002 51.82 73.7202C51.75 73.6402 51.7 73.5702 51.66 73.5102C51.58 73.3902 51.58 73.3202 51.57 73.3202V72.4502H51.32V73.3502C51.32 73.3502 51.28 73.4302 51.24 73.5102C51.2 73.5702 51.15 73.6402 51.08 73.7202C51.01 73.8002 50.93 73.8802 50.83 73.9602C50.43 74.2902 49.8 74.6202 49.13 74.8202C48.8 74.9202 48.45 74.9802 48.12 74.9902C47.96 74.9902 47.8 74.9702 47.66 74.9202C47.52 74.8802 47.4 74.7902 47.34 74.6802C47.27 74.5702 47.26 74.4502 47.26 74.3402C47.26 74.2302 47.29 74.1402 47.3 74.0702C47.32 73.9902 47.34 73.9402 47.36 73.9002C47.37 73.8602 47.38 73.8402 47.38 73.8402C47.38 73.8402 47.38 73.8602 47.36 73.9002C47.35 73.9402 47.32 73.9902 47.3 74.0702C47.28 74.1402 47.25 74.2402 47.24 74.3402C47.24 74.4502 47.24 74.5802 47.31 74.7002C47.37 74.8202 47.5 74.9202 47.65 74.9802C47.8 75.0402 47.96 75.0602 48.13 75.0702C48.47 75.0702 48.83 75.0302 49.17 74.9402C49.87 74.7702 50.53 74.4602 50.97 74.1302C51.08 74.0502 51.18 73.9702 51.26 73.8802C51.34 73.8002 51.41 73.7202 51.45 73.6502C51.5 73.7202 51.56 73.8002 51.64 73.8802C51.72 73.9602 51.82 74.0502 51.93 74.1302C52.37 74.4602 53.03 74.7802 53.73 74.9602C54.08 75.0502 54.44 75.1102 54.78 75.1102C54.95 75.1102 55.11 75.0802 55.26 75.0302C55.41 74.9802 55.54 74.8802 55.61 74.7602C55.65 74.7002 55.66 74.6402 55.68 74.5802C55.68 74.5202 55.69 74.4602 55.68 74.4002V74.4202Z" fill="#462A14"/>
<path d="M53.02 75.7202C52.51 75.9402 51.95 76.0801 51.52 76.0801C51.09 76.0801 50.54 75.9502 50.03 75.7302C50.13 75.3202 50.5 75.0201 50.94 75.0201C51.16 75.0201 51.37 75.1002 51.53 75.2302C51.69 75.1002 51.89 75.0201 52.11 75.0201C52.55 75.0201 52.92 75.3202 53.02 75.7302V75.7202Z" fill="#ED7693"/>
<path d="M53.78 70.4701C53.55 70.0901 52.6 69.6301 51.43 69.6301C50.26 69.6301 49.36 70.0801 49.13 70.4701C48.9 70.8601 48.74 71.0401 48.88 71.4101C49.02 71.7801 49.73 72.0601 50 72.0001C50.27 71.9301 50.42 71.5201 50.68 71.5701C50.95 71.6201 50.94 71.9101 51.1 72.2601C51.25 72.5901 51.3 72.6101 51.45 72.6001C51.6 72.6001 51.65 72.5801 51.8 72.2601C51.96 71.9101 51.96 71.6201 52.22 71.5701C52.49 71.5201 52.63 71.9301 52.9 72.0001C53.17 72.0701 53.88 71.7901 54.02 71.4101C54.16 71.0301 54.01 70.8601 53.77 70.4701H53.78Z" fill="#4F3231"/>
</svg>
