<svg width="102" height="101" viewBox="0 0 102 101" fill="none" xmlns="http://www.w3.org/2000/svg">
<path d="M92.87 0H9.28C4.49169 0 0.609985 3.88169 0.609985 8.67V92.26C0.609985 97.0483 4.49169 100.93 9.28 100.93H92.87C97.6583 100.93 101.54 97.0483 101.54 92.26V8.67C101.54 3.88169 97.6583 0 92.87 0Z" fill="#DBBD64"/>
<path d="M51.41 88.1101C50.72 88.1101 50.17 87.5601 50.16 86.8701C50.16 86.2001 50.67 85.6501 51.34 85.6101C51.36 85.6101 51.41 85.6101 51.42 85.6101C52.1 85.6101 52.67 86.1601 52.68 86.8401C52.68 87.5301 52.16 88.0901 51.47 88.1101C51.47 88.1101 51.42 88.1101 51.41 88.1101Z" fill="#2F150C"/>
<path d="M51.17 88.11C51.17 88.11 51.08 88.11 51.03 88.11C43.63 88.02 29.04 80.64 27.71 70.3601C27.65 69.8901 27.61 69.39 27.61 68.88C27.61 65.52 28.58 61.66 30.51 57.41C29.93 57.27 29.11 57.13 27.82 56.96C24.36 56.51 21.84 53.9901 21.37 53.4901C20.99 53.0901 20.76 52.44 20.09 50.44C19.52 48.74 18.81 46.6301 18.01 45.0201C16.9 42.7901 15.55 39.9501 15.18 38.9901C14.53 37.2801 15 36.26 15.34 35.8C15.73 35.28 16.3 34.9901 16.91 34.9901C17.16 34.9901 17.4 35.04 17.64 35.14C17.96 35.28 18.17 35.47 18.35 35.64C18.78 36.03 19.91 37.08 25.77 38.48C28.33 39.09 30.33 40.6 31.88 42.42C31.87 42.38 31.86 42.34 31.85 42.3C31.74 41.8 31.87 41.3601 32.26 40.9701C31.95 39.4101 31.67 37.89 31.42 36.41C30.9 36.22 30.58 35.8801 30.47 35.3801C30.34 34.8201 30.53 34.3301 31.04 33.9001C30.81 32.2401 30.62 30.64 30.49 29.13C30.01 28.89 29.82 28.5 29.75 28.16C29.65 27.61 29.84 27.1501 30.32 26.7701C30.23 25.0001 30.21 23.34 30.28 21.81C29.86 21.46 29.78 21.02 29.77 20.79C29.76 20.46 29.85 19.94 30.45 19.53C30.79 16.45 31.52 13.97 32.64 12.14C32.64 12.12 32.66 12.11 32.67 12.09C32.89 11.74 33.1 11.43 33.33 11.15C33.4 11.07 33.47 11 33.56 10.93C33.9 10.68 34.25 10.55 34.6 10.55C34.73 10.55 34.86 10.57 34.98 10.6C35.04 10.62 35.09 10.64 35.15 10.66C35.17 10.66 35.19 10.68 35.21 10.69C35.39 10.78 35.56 10.91 35.68 11.07C35.9 11.35 36.2 11.96 35.73 12.87L35.71 12.91C35.11 14.11 34.51 16.17 34.94 19.33C35.49 19.69 35.58 20.21 35.58 20.47C35.58 20.47 35.58 20.49 35.58 20.5C35.58 20.71 35.53 21.02 35.31 21.32C35.57 22.44 35.96 23.84 36.48 25.56C37.15 25.72 37.55 26.1 37.66 26.69C37.75 27.18 37.6 27.6001 37.23 27.9501C37.63 29.1801 38.09 30.5701 38.64 32.2201C39.21 32.4001 39.57 32.75 39.69 33.28C39.77 33.61 39.75 34.0401 39.41 34.4701C39.65 35.1801 40.69 38.2101 40.96 38.9901C41.59 39.2101 41.83 39.64 41.91 40.01C41.98 40.32 41.97 40.72 41.68 41.12C42.21 42.69 42.61 43.92 42.94 44.96C43.37 45.08 43.68 45.3001 43.86 45.6301C46.17 45.0101 48.4 44.6701 50.52 44.6101C50.73 44.6101 50.94 44.6 51.15 44.6C51.36 44.6 51.55 44.6001 51.76 44.6101C53.81 44.6701 56.05 45.03 58.42 45.68C58.6 45.33 58.91 45.0901 59.36 44.9701C59.69 43.9301 60.09 42.6901 60.62 41.1301C60.33 40.7301 60.32 40.3301 60.39 40.0201C60.47 39.6501 60.72 39.22 61.34 39C61.61 38.21 62.65 35.19 62.89 34.48C62.55 34.05 62.53 33.6301 62.61 33.2901C62.73 32.7601 63.08 32.4 63.66 32.23C64.22 30.58 64.68 29.19 65.07 27.96C64.7 27.61 64.56 27.2 64.64 26.72C64.75 26.12 65.15 25.74 65.82 25.58C66.34 23.86 66.73 22.46 66.99 21.34C66.77 21.04 66.72 20.73 66.72 20.52C66.72 20.51 66.72 20.5 66.72 20.48C66.72 20.22 66.81 19.7 67.36 19.34C67.78 16.17 67.18 14.11 66.58 12.91V12.89C66.06 11.93 66.43 11.3 66.65 11.05C66.69 11 66.73 10.96 66.78 10.92C66.88 10.83 66.99 10.75 67.12 10.7C67.18 10.68 67.26 10.64 67.32 10.63C67.44 10.6 67.57 10.58 67.7 10.58C68.05 10.58 68.4 10.71 68.74 10.96C68.82 11.02 68.9 11.1 68.97 11.18C69.19 11.46 69.41 11.77 69.63 12.12C69.63 12.14 69.65 12.15 69.66 12.16C70.78 13.99 71.52 16.48 71.85 19.55C72.45 19.96 72.54 20.48 72.53 20.81C72.53 21.04 72.44 21.48 72.02 21.83C72.09 23.35 72.08 25.0201 71.98 26.7901C72.46 27.1701 72.65 27.63 72.55 28.17C72.49 28.51 72.3 28.9 71.81 29.14C71.68 30.66 71.5 32.26 71.26 33.91C71.76 34.33 71.95 34.83 71.83 35.39C71.72 35.89 71.4 36.23 70.88 36.42C70.64 37.9 70.36 39.42 70.04 40.98C70.43 41.37 70.57 41.8101 70.45 42.3101C70.45 42.3501 70.43 42.39 70.42 42.43C71.97 40.61 73.98 39.1101 76.53 38.4901C82.39 37.0901 83.53 36.0401 83.95 35.6501C84.13 35.4801 84.34 35.2901 84.66 35.1501C84.9 35.0501 85.14 35 85.39 35C86 35 86.57 35.29 86.95 35.8C87.29 36.26 87.77 37.2801 87.12 38.9901C86.76 39.9501 85.4 42.7901 84.29 45.0201C83.49 46.6301 82.78 48.74 82.21 50.44C81.54 52.44 81.31 53.0901 80.93 53.4901C80.46 53.9901 77.95 56.5 74.49 56.96C73.19 57.13 72.38 57.27 71.8 57.41C73.72 61.66 74.7 65.51 74.7 68.88C74.7 69.22 74.69 69.5701 74.66 69.9101C74.65 70.0401 74.64 70.1601 74.62 70.2901C73.43 80.6001 60.01 87.83 51.66 88.1H51.6C51.54 88.1 51.47 88.11 51.41 88.11H51.14H51.17ZM69.49 43.64C69.6 43.49 69.71 43.34 69.82 43.19C69.74 43.24 69.66 43.2801 69.56 43.3101C69.54 43.4201 69.51 43.53 69.49 43.64ZM32.51 43.19C32.62 43.34 32.73 43.49 32.84 43.64C32.82 43.53 32.79 43.4201 32.77 43.3101C32.68 43.2801 32.59 43.24 32.51 43.19Z" fill="#2F150C"/>
<path d="M85.17 36.31C84.56 36.57 84.51 37.88 76.84 39.71C70.74 41.17 68.05 48.54 67.21 51.51C66.92 51.06 66.68 50.7 66.52 50.47C66.67 49.93 66.86 49.21 67.08 48.36C67.49 48.36 67.74 48.29 67.76 48.17C67.79 48.05 67.59 47.89 67.24 47.72C67.62 46.21 68.07 44.33 68.52 42.24C68.95 42.24 69.22 42.17 69.25 42.04C69.28 41.91 69.06 41.74 68.67 41.54C69.07 39.61 69.47 37.51 69.81 35.34C70.29 35.34 70.6 35.27 70.63 35.12C70.66 34.97 70.4 34.76 69.93 34.54C70.24 32.43 70.5 30.27 70.66 28.14C71.06 28.13 71.32 28.06 71.34 27.95C71.36 27.82 71.12 27.66 70.7 27.49C70.84 25.26 70.87 23.08 70.74 21.05C71.07 20.99 71.29 20.9 71.29 20.77C71.29 20.63 71.06 20.49 70.68 20.39C70.42 17.4 69.78 14.76 68.6 12.82V12.8C68.41 12.51 68.22 12.23 68.01 11.97C67.88 11.87 67.75 11.82 67.67 11.84H67.64V11.86L67.63 11.88C67.56 11.95 67.6 12.13 67.71 12.33L67.73 12.37C68.51 13.92 69.17 16.46 68.52 20.26C68.2 20.32 68 20.41 68 20.54C68 20.65 68.16 20.76 68.41 20.86C68.1 22.41 67.52 24.46 66.8 26.76C66.27 26.76 65.93 26.82 65.9 26.96C65.88 27.09 66.14 27.26 66.59 27.44C66 29.32 65.32 31.35 64.63 33.39C64.18 33.39 63.9 33.47 63.86 33.61C63.83 33.74 64.03 33.91 64.39 34.1C63.69 36.16 62.98 38.21 62.33 40.14C61.93 40.15 61.68 40.21 61.65 40.34C61.62 40.46 61.8 40.61 62.11 40.78C61.43 42.79 60.82 44.63 60.36 46.16C59.88 46.16 59.59 46.22 59.56 46.35C59.53 46.48 59.76 46.65 60.16 46.84C60.09 47.07 60.03 47.29 59.97 47.49C57.53 46.69 54.63 45.99 51.76 45.91C51.57 45.91 51.38 45.91 51.2 45.91C51 45.91 50.8 45.91 50.6 45.91C47.64 45.99 44.79 46.65 42.4 47.43C42.35 47.24 42.29 47.04 42.23 46.83C42.63 46.64 42.85 46.46 42.83 46.34C42.8 46.21 42.51 46.15 42.03 46.15C41.57 44.63 40.96 42.78 40.28 40.77C40.6 40.6 40.77 40.45 40.74 40.33C40.71 40.21 40.46 40.14 40.06 40.13C39.41 38.2 38.7 36.15 38 34.09C38.36 33.9 38.56 33.73 38.53 33.6C38.5 33.46 38.21 33.39 37.76 33.38C37.07 31.34 36.39 29.31 35.8 27.43C36.25 27.26 36.51 27.09 36.49 26.95C36.46 26.81 36.12 26.75 35.59 26.75C34.87 24.45 34.29 22.39 33.98 20.85C34.23 20.75 34.39 20.64 34.39 20.53C34.39 20.4 34.19 20.31 33.87 20.25C33.22 16.45 33.87 13.92 34.66 12.36L34.68 12.32C34.79 12.12 34.82 11.94 34.75 11.87V11.85H34.73L34.7 11.83C34.62 11.81 34.5 11.86 34.36 11.96C34.15 12.22 33.96 12.5 33.78 12.79V12.81C32.58 14.75 31.94 17.39 31.68 20.38C31.31 20.49 31.07 20.63 31.07 20.76C31.07 20.89 31.29 20.99 31.62 21.04C31.48 23.07 31.51 25.26 31.66 27.48C31.24 27.65 31 27.81 31.02 27.94C31.04 28.06 31.3 28.12 31.7 28.13C31.86 30.26 32.11 32.42 32.43 34.53C31.96 34.75 31.69 34.96 31.73 35.11C31.76 35.26 32.07 35.33 32.55 35.33C32.89 37.5 33.28 39.6 33.69 41.53C33.3 41.72 33.08 41.9 33.11 42.03C33.14 42.16 33.41 42.22 33.84 42.23C34.29 44.33 34.74 46.2 35.12 47.71C34.77 47.89 34.57 48.05 34.6 48.16C34.63 48.28 34.88 48.34 35.28 48.35C35.5 49.2 35.69 49.91 35.84 50.46C35.68 50.7 35.44 51.05 35.15 51.5C34.3 48.53 31.61 41.16 25.52 39.7C17.85 37.87 17.8 36.56 17.19 36.3C16.92 36.18 16.6 36.27 16.38 36.56C16.11 36.92 16.01 37.58 16.38 38.56C16.69 39.37 17.88 41.89 19.16 44.47C20.66 47.49 21.83 52.14 22.3 52.63C23.17 53.56 25.36 55.37 28 55.71C30.4 56.02 31.37 56.26 32.24 56.7C30.52 60.23 28.88 64.69 28.88 68.87C28.88 69.31 28.91 69.75 28.97 70.18C30.17 79.44 43.78 86.75 51.06 86.84C51.1 86.84 51.15 86.84 51.19 86.84H51.44C51.52 86.84 51.59 86.83 51.67 86.83C60.1 86.56 72.37 79.29 73.43 70.13C73.44 70.02 73.45 69.9 73.46 69.79C73.48 69.48 73.5 69.18 73.5 68.86C73.5 64.68 71.86 60.22 70.14 56.69C71.01 56.25 71.98 56.01 74.38 55.7C77.02 55.35 79.21 53.54 80.08 52.62C80.55 52.12 81.73 47.47 83.22 44.46C84.5 41.88 85.69 39.35 86 38.54C86.37 37.57 86.27 36.9 86 36.54C85.79 36.25 85.46 36.17 85.19 36.28L85.17 36.31Z" fill="#2F150C"/>
<path d="M18.01 39.17C17.77 39.48 17.69 40.05 18.01 40.89C18.29 41.59 19.35 43.77 20.5 46C21.87 47.97 22.41 50.6 24.51 52.41C28.66 55.98 31.89 55.73 31.89 55.73C31.89 55.73 31.99 51.89 28.95 47.86C25.95 43.89 20.16 42.59 18 39.18L18.01 39.17Z" fill="#EFEFEF"/>
<path d="M73.48 68.89C73.48 69.2 73.47 69.51 73.44 69.82C73.44 69.93 73.42 70.05 73.41 70.16C72.34 79.39 59.88 86.71 51.45 86.87C51.36 86.87 51.27 86.87 51.17 86.87C43.92 86.87 30.16 79.52 28.95 70.21C28.89 69.78 28.86 69.34 28.86 68.9C28.86 60.14 36.06 50.13 36.06 50.13C36.06 50.13 43.34 45.88 51.17 45.88C58.53 45.88 66.27 50.13 66.27 50.13C66.27 50.13 73.47 60.14 73.47 68.9" fill="#A05827"/>
<path d="M51.17 86.86C47.85 86.86 42.91 84.87 38.86 81.9C34.21 78.5 31.28 74.28 30.81 70.32C30.76 69.93 30.74 69.53 30.74 69.13C30.74 61.2 36.19 51.96 37.38 50.04C38.86 49.17 44.9 45.87 51.18 45.87C57.09 45.87 63.41 49.18 64.99 50.06C66.2 52.02 71.62 61.23 71.62 69.13C71.62 69.42 71.61 69.71 71.59 69.99C71.59 70.1 71.57 70.2 71.56 70.31C70.59 79.54 58.68 86.71 51.43 86.86H51.47H51.19" fill="#BF7030"/>
<path d="M40.68 54.1001C41.17 54.7101 40.56 58.8601 42.55 60.8401C44.54 62.8201 49.0901 66.0101 49.2001 71.4301C49.3101 76.8501 48.2 79.4701 46.6 78.7601C42.55 76.9501 38.74 77.6801 35.81 74.7001C34.3 73.1601 33.02 71.3501 32.21 66.9701C31.51 63.1701 36.3001 48.6801 40.6701 54.1101" fill="#EFEFEF"/>
<path d="M61.6501 54.1001C61.1601 54.7101 61.7701 58.8601 59.7801 60.8401C57.7901 62.8201 53.2401 66.0101 53.1301 71.4301C53.0201 76.8501 54.1301 79.4701 55.7301 78.7601C59.7801 76.9501 63.59 77.6801 66.52 74.7001C68.03 73.1601 69.3101 71.3601 70.1201 66.9701C70.8201 63.1701 66.0301 48.6801 61.6601 54.1101" fill="#EFEFEF"/>
<path d="M37.02 59.56C37.02 59.56 37.03 59.52 37.06 59.46C37.09 59.4 37.14 59.3 37.21 59.2C37.28 59.09 37.37 58.96 37.49 58.82C37.61 58.69 37.75 58.52 37.92 58.38C38.01 58.31 38.09 58.23 38.19 58.15C38.29 58.08 38.4 58.01 38.51 57.94C38.62 57.86 38.74 57.81 38.86 57.74C38.98 57.68 39.11 57.61 39.25 57.56C39.52 57.46 39.81 57.36 40.12 57.32C40.42 57.25 40.74 57.25 41.06 57.25C41.38 57.25 41.69 57.33 41.99 57.38C42.28 57.47 42.57 57.57 42.84 57.68C43.09 57.82 43.33 57.96 43.55 58.09C43.76 58.24 43.94 58.41 44.11 58.55C44.19 58.63 44.27 58.7 44.34 58.77C44.41 58.84 44.47 58.92 44.52 58.99C44.64 59.13 44.73 59.26 44.8 59.36C44.95 59.57 45.02 59.7 45.02 59.7C45.02 59.7 44.87 59.65 44.64 59.55C44.52 59.5 44.38 59.44 44.23 59.37C44.08 59.29 43.9 59.23 43.71 59.16C43.52 59.09 43.32 59 43.11 58.92C42.89 58.86 42.67 58.79 42.44 58.71C42.21 58.66 41.97 58.62 41.73 58.56C41.61 58.55 41.49 58.54 41.37 58.52C41.25 58.51 41.13 58.48 41.01 58.49C40.77 58.49 40.52 58.48 40.28 58.51C40.16 58.53 40.04 58.51 39.92 58.55C39.8 58.57 39.69 58.59 39.57 58.61C39.45 58.62 39.34 58.67 39.23 58.69C39.12 58.72 39.01 58.74 38.9 58.78C38.69 58.85 38.48 58.91 38.29 58.98C38.1 59.04 37.93 59.12 37.77 59.18C37.62 59.26 37.48 59.31 37.37 59.36C37.26 59.41 37.17 59.46 37.11 59.49C37.05 59.52 37.01 59.54 37.01 59.54L37.02 59.56Z" fill="#4E2A14"/>
<path d="M65.24 59.56C65.24 59.56 65.21 59.54 65.14 59.51C65.08 59.48 64.99 59.44 64.88 59.38C64.77 59.32 64.62 59.27 64.48 59.2C64.32 59.14 64.15 59.06 63.96 59C63.77 58.92 63.57 58.86 63.35 58.8C63.25 58.76 63.13 58.74 63.02 58.71C62.91 58.69 62.8 58.64 62.68 58.63C62.56 58.61 62.45 58.59 62.33 58.57C62.21 58.54 62.09 58.55 61.97 58.53C61.73 58.5 61.49 58.51 61.24 58.51C61.12 58.5 61 58.53 60.88 58.54C60.76 58.56 60.64 58.56 60.52 58.58C60.28 58.64 60.04 58.68 59.81 58.73C59.58 58.81 59.36 58.88 59.14 58.94C58.93 59.01 58.73 59.11 58.54 59.18C58.35 59.25 58.17 59.31 58.02 59.39C57.87 59.46 57.73 59.52 57.61 59.57C57.38 59.67 57.23 59.72 57.23 59.72C57.23 59.72 57.3 59.59 57.45 59.38C57.53 59.28 57.62 59.15 57.73 59.01C57.79 58.94 57.84 58.86 57.91 58.79C57.98 58.72 58.06 58.65 58.14 58.57C58.31 58.42 58.49 58.26 58.7 58.11C58.92 57.97 59.16 57.83 59.41 57.7C59.68 57.59 59.96 57.49 60.26 57.4C60.56 57.35 60.87 57.28 61.19 57.27C61.51 57.27 61.82 57.27 62.13 57.34C62.44 57.38 62.73 57.48 63 57.58C63.14 57.63 63.26 57.7 63.39 57.76C63.51 57.82 63.64 57.88 63.74 57.96C63.85 58.03 63.95 58.1 64.06 58.17C64.16 58.24 64.25 58.32 64.33 58.4C64.5 58.54 64.64 58.71 64.76 58.84C64.88 58.98 64.97 59.11 65.04 59.22C65.11 59.33 65.16 59.42 65.19 59.48C65.22 59.54 65.23 59.58 65.23 59.58L65.24 59.56Z" fill="#4E2A14"/>
<path d="M47.39 72.93C40.59 76.17 35.8 74.07 33.64 65.67C33.64 65.67 41.82 59.32 46.16 67.46C46.83 68.72 47.38 72.92 47.38 72.92" fill="white"/>
<path d="M40.82 73.4701C38.93 73.4301 37.35 71.9301 36.74 69.8501C36.55 69.2201 36.46 68.5201 36.47 67.8101C36.53 64.9201 38.33 63.8901 40.6 63.8201C40.74 63.8201 40.88 63.8201 41.02 63.8201C43.48 63.8701 45.35 66.4301 45.4 68.0101C45.48 71.0801 43.28 73.5301 40.82 73.4801" fill="#925A24"/>
<path d="M40.84 72.6901C39.41 72.6601 38.15 71.4301 37.64 69.5701C37.47 68.9701 37.4 68.3501 37.41 67.7101C37.45 65.5501 38.48 64.5201 40.63 64.4501C40.74 64.4501 40.85 64.4501 40.95 64.4501H41.01C42.95 64.5001 44.43 66.7601 44.46 67.9201C44.5 69.3201 44.03 70.6601 43.17 71.5901C42.52 72.3001 41.71 72.6901 40.89 72.6901H40.83" fill="#341E10"/>
<path d="M54.99 72.93C61.79 76.17 66.58 74.07 68.74 65.67C68.74 65.67 60.56 59.32 56.22 67.46C55.55 68.72 55 72.92 55 72.92" fill="white"/>
<path d="M61.56 73.4701C63.45 73.4301 65.03 71.9301 65.64 69.8501C65.83 69.2201 65.92 68.5201 65.91 67.8101C65.85 64.9201 64.05 63.8901 61.78 63.8201C61.64 63.8201 61.5 63.8201 61.36 63.8201C58.9 63.8701 57.03 66.4301 56.98 68.0101C56.9 71.0801 59.1 73.5301 61.56 73.4801" fill="#925A24"/>
<path d="M61.4801 72.6901C60.6601 72.6901 59.8501 72.3001 59.2001 71.5801C58.3501 70.6501 57.88 69.3101 57.91 67.9101C57.94 66.7501 59.42 64.4801 61.37 64.4401H61.4201C61.5301 64.4401 61.64 64.4401 61.74 64.4401C63.89 64.5101 64.91 65.5401 64.96 67.7001C64.97 68.3401 64.9001 68.9701 64.7301 69.5601C64.2201 71.4301 62.96 72.6501 61.53 72.6801H61.4801" fill="#341E10"/>
<path d="M41.1199 66.6501C41.0799 68.5101 39.8399 70.0001 38.3399 69.9601C37.6599 69.9501 37.0599 69.6201 36.5899 69.1001C36.4299 68.5501 36.3399 67.9401 36.3599 67.3101C36.4099 64.7701 37.99 63.8701 39.97 63.8101C40.69 64.4301 41.1399 65.4701 41.1099 66.6401" fill="white"/>
<path d="M43.47 72.04C43.46 72.67 43.04 73.17 42.53 73.16C42.02 73.16 41.62 72.63 41.64 72C41.65 71.37 42.07 70.87 42.58 70.88C43.09 70.89 43.48 71.41 43.47 72.04Z" fill="white"/>
<path d="M61.44 66.93C61.4 68.79 60.16 70.28 58.66 70.24C57.98 70.23 57.38 69.9 56.91 69.38C56.75 68.83 56.66 68.22 56.68 67.59C56.73 65.05 58.31 64.15 60.29 64.09C61 64.71 61.46 65.75 61.43 66.92" fill="white"/>
<path d="M63.97 72.04C63.96 72.67 63.54 73.17 63.03 73.16C62.52 73.16 62.12 72.63 62.14 72C62.15 71.37 62.57 70.87 63.08 70.88C63.59 70.89 63.98 71.41 63.97 72.04Z" fill="white"/>
<path d="M46.17 73.4701C45.95 72.2701 45.65 70.9301 45.31 70.3001C45.25 70.1901 45.19 70.07 45.12 69.96C45.31 69.35 45.41 68.69 45.39 67.99C45.35 66.42 43.48 63.86 41.01 63.8C40.99 63.8 40.96 63.8 40.94 63.8C40.82 63.8 40.7 63.8 40.59 63.8C40.39 63.8 40.19 63.82 40 63.84C39.99 63.83 39.98 63.8201 39.96 63.8101C38.17 63.8601 36.71 64.6001 36.4 66.6101C35.56 66.8901 34.8 67.2501 34.21 67.5801C34.14 67.3801 34.07 67.17 34 66.96C33.87 66.55 33.75 66.1101 33.63 65.6601C33.68 65.6201 36.7 63.3 40.02 63.3C40.28 63.3 40.54 63.31 40.81 63.35C42.72 63.57 44.66 64.66 46.15 67.46C46.82 68.72 47.37 72.92 47.37 72.92C46.95 73.12 46.55 73.3 46.15 73.45" fill="#E2E1E1"/>
<path d="M44.41 68.8701C43.41 67.5501 42.28 66.8001 41.12 66.4401C41.1 65.6901 40.88 65.0001 40.52 64.4501C40.56 64.4501 40.6 64.4501 40.63 64.4501C40.74 64.4501 40.85 64.4501 40.95 64.4501H41.01C42.95 64.5001 44.43 66.7601 44.46 67.9201C44.46 68.2501 44.45 68.5701 44.4 68.8801" fill="#382418"/>
<path d="M36.42 66.6201C36.73 64.6201 38.18 63.8801 39.98 63.8201C39.99 63.8301 40 63.8401 40.02 63.8501C40.21 64.0201 40.38 64.2201 40.52 64.4401C40.88 64.9901 41.1 65.6801 41.12 66.4301C40.48 66.2301 39.82 66.1401 39.18 66.1401C38.21 66.1401 37.27 66.3401 36.42 66.6201Z" fill="#E2E1E1"/>
<path d="M56.21 73.47C55.81 73.31 55.4 73.14 54.99 72.94C54.99 72.94 55.54 68.74 56.21 67.47C55.54 68.73 54.99 72.93 54.99 72.93C55.4 73.13 55.81 73.31 56.21 73.46" fill="#D9D7D7"/>
<path d="M56.21 73.47C55.81 73.31 55.4 73.13 54.99 72.94C54.99 72.94 55.54 68.74 56.21 67.48C56.42 67.1 56.63 66.74 56.85 66.42C56.75 66.77 56.69 67.17 56.69 67.61C56.68 68.24 56.76 68.84 56.92 69.4C57 69.49 57.08 69.57 57.16 69.64C57.19 69.75 57.22 69.86 57.25 69.97C57.19 70.08 57.13 70.19 57.06 70.31C56.73 70.93 56.43 72.28 56.21 73.48" fill="#E2E1E1"/>
<path d="M57.25 69.96C57.22 69.85 57.18 69.74 57.16 69.63C57.22 69.69 57.29 69.74 57.36 69.79C57.33 69.85 57.29 69.9 57.26 69.96" fill="#8C5929"/>
<path d="M68.36 66.97C68.49 66.56 68.61 66.12 68.73 65.67C68.61 66.12 68.49 66.55 68.36 66.97ZM58.91 64.32C59.76 63.76 60.66 63.47 61.55 63.36C60.66 63.46 59.77 63.75 58.92 64.32" fill="#D9D7D7"/>
<path d="M68.16 67.5901C67.51 67.2301 66.68 66.8401 65.75 66.5601C65.26 64.6101 63.69 63.8801 61.78 63.8201C61.66 63.8201 61.54 63.8201 61.43 63.8201C61.41 63.8201 61.38 63.8201 61.36 63.8201C60.86 63.8301 60.38 63.9501 59.93 64.1401C59.57 64.1701 59.23 64.2301 58.92 64.3301C59.77 63.7701 60.67 63.4801 61.55 63.3701C61.81 63.3401 62.08 63.3201 62.34 63.3201C65.67 63.3201 68.68 65.6401 68.73 65.6801C68.61 66.1301 68.49 66.5601 68.36 66.9801C68.29 67.1901 68.22 67.4001 68.15 67.6001" fill="#E2E1E1"/>
<path d="M65.7499 66.5501C65.4299 66.4501 65.0999 66.3701 64.7599 66.3001C64.3599 65.0901 63.3799 64.4901 61.7599 64.4401C61.6499 64.4401 61.5399 64.4401 61.4399 64.4401H61.39C61.16 64.4401 60.9299 64.4801 60.7199 64.5401C60.5999 64.3801 60.4599 64.2401 60.3099 64.1101C60.1899 64.1101 60.0599 64.1201 59.9399 64.1301C60.3799 63.9401 60.8599 63.8201 61.3699 63.8101C61.3899 63.8101 61.4199 63.8101 61.4399 63.8101C61.5599 63.8101 61.6799 63.8101 61.7899 63.8101C63.6899 63.8701 65.2599 64.6001 65.7599 66.5501" fill="#8C5929"/>
<path d="M61.42 66.3901C61.34 65.6801 61.09 65.0401 60.7 64.5401C60.92 64.4801 61.1399 64.4401 61.3699 64.4401H61.42C61.53 64.4401 61.6399 64.4401 61.7399 64.4401C63.3599 64.4901 64.3399 65.0901 64.7399 66.3001C64.2399 66.2001 63.7099 66.1401 63.1799 66.1401C62.5899 66.1401 61.9899 66.2101 61.3999 66.3801" fill="#382418"/>
<path d="M57.35 69.79C57.28 69.74 57.22 69.69 57.15 69.63C57.07 69.56 56.99 69.48 56.91 69.39C56.75 68.84 56.66 68.23 56.68 67.6C56.68 67.15 56.75 66.76 56.84 66.41C57.48 65.48 58.18 64.8 58.9 64.32C59.22 64.22 59.56 64.16 59.91 64.13C60.03 64.12 60.15 64.11 60.28 64.11C60.43 64.24 60.56 64.38 60.69 64.54C61.07 65.04 61.33 65.68 61.41 66.39C59.95 66.81 58.53 67.82 57.34 69.79" fill="#E2E1E1"/>
<path d="M47.39 72.9301C47.31 72.5101 47.21 72.1001 47.12 71.6901C47.03 71.2801 46.94 70.8601 46.84 70.4501C46.74 70.0401 46.64 69.6301 46.52 69.2301C46.41 68.8201 46.27 68.4601 46.12 68.0701C46.03 67.8901 45.95 67.6501 45.86 67.5201L45.53 67.0001C45.29 66.6601 45.06 66.3301 44.78 66.0301C44.65 65.8701 44.51 65.7301 44.37 65.5901C44.23 65.4501 44.08 65.3101 43.92 65.1901C43.77 65.0601 43.61 64.9301 43.44 64.8301C43.28 64.7101 43.11 64.6101 42.93 64.5201C42.59 64.3201 42.22 64.1901 41.85 64.0701C41.48 63.9501 41.09 63.8901 40.7 63.8501C40.31 63.8201 39.91 63.8101 39.52 63.8501C39.13 63.8801 38.73 63.9601 38.34 64.0401C37.56 64.2301 36.79 64.5001 36.06 64.8601C35.69 65.0401 35.33 65.2301 34.98 65.4401C34.64 65.6501 34.28 65.8701 33.97 66.1001L34.16 65.5401L34.47 66.6401C34.56 67.0101 34.71 67.3601 34.83 67.7201C34.95 68.0801 35.08 68.4401 35.25 68.7801C35.41 69.1201 35.54 69.4801 35.73 69.8001C35.92 70.1201 36.07 70.4801 36.3 70.7701C36.52 71.0601 36.7 71.4001 36.97 71.6601C37.22 71.9301 37.45 72.2301 37.74 72.4501L38.16 72.8101L38.62 73.1101C38.92 73.3301 39.26 73.4601 39.6 73.6101C39.93 73.7601 40.3 73.8201 40.65 73.9401C41.02 73.9901 41.39 74.0601 41.76 74.0801C42.14 74.0801 42.52 74.1101 42.89 74.0701C43.27 74.0201 43.65 74.0301 44.03 73.9301C44.4 73.8401 44.79 73.8001 45.16 73.6801C45.53 73.5701 45.91 73.4801 46.27 73.3401L47.38 72.9401L47.39 72.9301ZM47.39 72.9301L46.35 73.4701C46 73.6501 45.63 73.7701 45.26 73.9301C44.9 74.1001 44.51 74.1801 44.13 74.3001C43.75 74.4301 43.35 74.4701 42.96 74.5601C42.57 74.6501 42.16 74.6301 41.76 74.6701C41.36 74.6701 40.95 74.6301 40.54 74.6101C40.14 74.5101 39.72 74.4701 39.34 74.3201C38.96 74.1701 38.56 74.0401 38.21 73.8101L37.67 73.5001L37.18 73.1201C36.84 72.8801 36.57 72.5701 36.28 72.2801C35.98 71.9901 35.77 71.6401 35.51 71.3201C35.25 71.0001 35.08 70.6301 34.86 70.2901C34.64 69.9501 34.49 69.5701 34.31 69.2101C34.13 68.8501 33.99 68.4701 33.85 68.1001C33.71 67.7201 33.56 67.3501 33.46 66.9701L33.12 65.8201L33.02 65.4801L33.31 65.2601C33.69 64.9801 34.04 64.7401 34.43 64.5201C34.81 64.3001 35.2 64.0901 35.6 63.9101C36.4 63.5301 37.24 63.2401 38.11 63.0401C38.55 62.9501 38.99 62.8801 39.44 62.8601C39.89 62.8201 40.35 62.8501 40.8 62.8901C41.25 62.9501 41.7 63.0401 42.13 63.1901C42.35 63.2701 42.56 63.3401 42.77 63.4501C42.98 63.5501 43.18 63.6501 43.37 63.7701C43.57 63.8801 43.75 64.0101 43.93 64.1501C44.12 64.2801 44.28 64.4301 44.45 64.5801C44.62 64.7301 44.77 64.8901 44.92 65.0501C45.07 65.2101 45.22 65.3801 45.35 65.5601C45.63 65.9101 45.85 66.2801 46.08 66.6601L46.39 67.2401C46.51 67.4801 46.55 67.6501 46.64 67.8601C46.76 68.2701 46.88 68.7301 46.94 69.1401C47.02 69.5601 47.09 69.9801 47.14 70.4101C47.26 71.2501 47.35 72.1001 47.4 72.9501L47.39 72.9301Z" fill="#4E2A14"/>
<path d="M54.99 72.93C55.04 72.08 55.13 71.24 55.25 70.39C55.31 69.97 55.37 69.55 55.45 69.12C55.52 68.71 55.63 68.25 55.75 67.84C55.83 67.63 55.87 67.46 56 67.22L56.31 66.64C56.54 66.27 56.76 65.89 57.04 65.54C57.17 65.36 57.31 65.19 57.47 65.03C57.62 64.87 57.77 64.7 57.94 64.56C58.1 64.41 58.27 64.26 58.46 64.13C58.64 63.99 58.82 63.86 59.02 63.75C59.21 63.63 59.41 63.52 59.62 63.43C59.82 63.32 60.04 63.25 60.25 63.17C60.68 63.02 61.13 62.93 61.58 62.87C62.03 62.82 62.49 62.8 62.94 62.84C63.39 62.86 63.84 62.93 64.27 63.02C65.14 63.22 65.98 63.51 66.78 63.89C67.18 64.08 67.57 64.28 67.95 64.5C68.33 64.72 68.69 64.96 69.06 65.24L69.35 65.46L69.25 65.8L68.91 66.95C68.81 67.34 68.65 67.71 68.52 68.08C68.39 68.46 68.24 68.83 68.06 69.19C67.88 69.55 67.73 69.92 67.51 70.27C67.29 70.61 67.12 70.98 66.86 71.3C66.6 71.62 66.4 71.97 66.09 72.26C65.8 72.56 65.53 72.87 65.19 73.1L64.7 73.48L64.16 73.79C63.81 74.02 63.41 74.15 63.03 74.3C62.65 74.45 62.23 74.49 61.83 74.59C61.42 74.61 61.02 74.66 60.61 74.65C60.21 74.61 59.8 74.63 59.41 74.54C59.02 74.45 58.62 74.41 58.24 74.28C57.86 74.15 57.48 74.07 57.11 73.91C56.75 73.76 56.37 73.63 56.02 73.45L54.98 72.91L54.99 72.93ZM54.99 72.93L56.09 73.33C56.46 73.46 56.84 73.56 57.2 73.67C57.57 73.79 57.95 73.83 58.33 73.92C58.7 74.01 59.09 74.01 59.47 74.06C59.85 74.11 60.23 74.06 60.6 74.07C60.97 74.05 61.34 73.98 61.71 73.93C62.06 73.81 62.43 73.75 62.76 73.6C63.09 73.45 63.44 73.32 63.74 73.1L64.2 72.8L64.62 72.44C64.91 72.22 65.14 71.92 65.39 71.65C65.65 71.39 65.83 71.06 66.06 70.76C66.29 70.47 66.44 70.11 66.63 69.79C66.83 69.47 66.95 69.11 67.11 68.77C67.28 68.43 67.41 68.08 67.53 67.71C67.66 67.35 67.8 67 67.89 66.63L68.2 65.53L68.39 66.09C68.09 65.87 67.73 65.64 67.38 65.43C67.03 65.22 66.67 65.03 66.3 64.85C65.57 64.49 64.8 64.22 64.02 64.03C63.63 63.94 63.24 63.86 62.84 63.84C62.45 63.79 62.05 63.81 61.66 63.84C61.27 63.88 60.88 63.95 60.51 64.06C60.14 64.18 59.77 64.31 59.43 64.51C59.25 64.6 59.09 64.7 58.92 64.82C58.75 64.92 58.6 65.05 58.44 65.18C58.28 65.3 58.14 65.44 57.99 65.58C57.84 65.72 57.7 65.87 57.57 66.02C57.29 66.32 57.06 66.66 56.82 66.99L56.49 67.51C56.4 67.64 56.31 67.88 56.22 68.06C56.07 68.45 55.94 68.81 55.83 69.22C55.71 69.62 55.6 70.03 55.51 70.44C55.41 70.85 55.32 71.27 55.23 71.68C55.14 72.09 55.04 72.51 54.96 72.92L54.99 72.93Z" fill="#4E2A14"/>
<path d="M33.8901 55.72C33.8901 55.72 33.7501 55.65 33.5401 55.51C33.4401 55.43 33.3001 55.36 33.1601 55.29C33.0901 55.25 33.0201 55.21 32.9401 55.17C32.8601 55.13 32.7701 55.09 32.6801 55.04C32.5101 54.95 32.3101 54.86 32.1201 54.77C31.9201 54.68 31.7101 54.58 31.4901 54.48C31.3801 54.43 31.2701 54.38 31.1501 54.33C31.0401 54.28 30.92 54.23 30.8 54.17C30.57 54.06 30.32 53.95 30.08 53.83C29.84 53.7 29.59 53.58 29.36 53.44C29.12 53.31 28.8901 53.15 28.6701 53C28.4501 52.84 28.2401 52.69 28.0601 52.51C27.9701 52.42 27.8801 52.34 27.7901 52.26C27.7101 52.17 27.6301 52.08 27.5601 52C27.4101 51.84 27.2901 51.67 27.2001 51.51C27.1001 51.36 27.0301 51.22 26.9701 51.1C26.8601 50.86 26.8201 50.72 26.8201 50.72C26.8201 50.72 26.9701 50.77 27.1901 50.88C27.3001 50.94 27.4401 50.99 27.5901 51.06C27.7401 51.13 27.9101 51.2 28.1001 51.27C28.2801 51.35 28.4801 51.43 28.6901 51.51C28.8901 51.6 29.1201 51.68 29.3401 51.78C29.8001 51.97 30.2901 52.18 30.7801 52.42C31.0301 52.55 31.2701 52.67 31.5101 52.82C31.7501 52.96 31.9801 53.12 32.2001 53.28C32.4201 53.45 32.62 53.62 32.8 53.8C32.98 53.98 33.1401 54.16 33.2701 54.35C33.3401 54.44 33.4001 54.53 33.4601 54.61C33.5101 54.7 33.56 54.79 33.61 54.87C33.7 55.03 33.7601 55.18 33.7901 55.3C33.8701 55.54 33.8901 55.69 33.8901 55.69V55.72Z" fill="#4E2A14"/>
<path d="M31.89 53.23C31.89 53.23 31.87 53.22 31.84 53.19C31.81 53.16 31.75 53.13 31.7 53.08C31.65 53.02 31.57 52.98 31.51 52.94C31.45 52.9 31.36 52.86 31.28 52.82C31.21 52.77 31.11 52.73 31.03 52.69C30.94 52.64 30.86 52.6 30.76 52.54C30.67 52.49 30.57 52.43 30.47 52.36C30.37 52.29 30.27 52.22 30.18 52.15C29.78 51.85 29.39 51.4 29.2 50.95C29.15 50.84 29.12 50.73 29.09 50.63C29.06 50.53 29.05 50.44 29.04 50.37C29.04 50.3 29.04 50.23 29.04 50.19C29.04 50.15 29.04 50.13 29.04 50.13C29.04 50.13 29.06 50.13 29.1 50.14C29.14 50.14 29.21 50.15 29.27 50.17C29.33 50.19 29.42 50.2 29.51 50.22C29.6 50.24 29.69 50.26 29.8 50.28C30 50.33 30.22 50.4 30.45 50.5C30.68 50.6 30.91 50.74 31.14 50.91C31.36 51.09 31.58 51.3 31.74 51.56C31.83 51.68 31.89 51.83 31.95 51.95C32 52.09 32.04 52.22 32.06 52.36C32.06 52.43 32.08 52.49 32.08 52.55C32.08 52.61 32.08 52.68 32.07 52.73C32.07 52.84 32.04 52.94 32 53C31.97 53.07 31.94 53.12 31.92 53.16C31.9 53.2 31.89 53.22 31.89 53.22V53.23Z" fill="#4E2A14"/>
<path d="M31.9 50.73C31.9 50.73 31.79 50.73 31.61 50.7C31.52 50.68 31.41 50.67 31.31 50.66C31.2 50.66 31.09 50.63 30.96 50.62C30.84 50.61 30.7 50.59 30.56 50.57C30.43 50.55 30.27 50.54 30.13 50.51C29.97 50.49 29.82 50.46 29.65 50.42C29.49 50.39 29.31 50.34 29.14 50.28C28.96 50.22 28.78 50.16 28.61 50.07C28.52 50.03 28.43 49.98 28.35 49.93C28.27 49.88 28.18 49.83 28.1 49.77C27.94 49.66 27.8 49.53 27.68 49.39C27.55 49.26 27.46 49.11 27.38 48.98C27.3 48.85 27.25 48.71 27.21 48.59C27.16 48.48 27.15 48.36 27.13 48.27C27.1 48.09 27.1 47.98 27.1 47.98C27.1 47.98 27.21 48.01 27.37 48.08C27.45 48.11 27.54 48.15 27.65 48.19C27.76 48.22 27.86 48.28 27.98 48.31C28.1 48.34 28.22 48.4 28.35 48.43C28.47 48.47 28.61 48.51 28.74 48.54C29.01 48.61 29.3 48.7 29.62 48.8C29.78 48.86 29.94 48.91 30.11 48.98C30.27 49.04 30.44 49.13 30.6 49.21C30.76 49.3 30.91 49.39 31.05 49.5C31.19 49.6 31.31 49.72 31.41 49.83C31.51 49.94 31.6 50.06 31.67 50.17C31.75 50.28 31.78 50.37 31.81 50.46C31.88 50.62 31.9 50.73 31.9 50.73Z" fill="#4E2A14"/>
<path d="M30.4699 49.3701C30.4699 49.3701 30.3499 49.3501 30.1499 49.2901C30.0499 49.2601 29.9299 49.2301 29.7999 49.1901C29.6699 49.1501 29.5299 49.1001 29.3799 49.0501C29.0699 48.9401 28.7199 48.8001 28.3599 48.6301C28.1799 48.5401 27.9899 48.4401 27.8099 48.3301C27.6199 48.2201 27.4399 48.1001 27.2599 47.9701C27.0799 47.8301 26.8999 47.7001 26.7399 47.5501C26.5699 47.4001 26.4199 47.2401 26.2699 47.0701C26.1299 46.9001 26 46.7301 25.89 46.5501C25.79 46.3701 25.6899 46.2001 25.6299 46.0301C25.5599 45.8601 25.5099 45.7001 25.4799 45.5501C25.4499 45.4001 25.4299 45.2801 25.4299 45.1701C25.4299 44.9501 25.4399 44.8301 25.4399 44.8301C25.4399 44.8301 25.55 44.9001 25.7 45.0301C25.77 45.0901 25.8799 45.1601 25.9799 45.2401C26.0799 45.3201 26.1999 45.4001 26.3299 45.4801C26.4499 45.5701 26.5999 45.6501 26.7299 45.7501C26.8699 45.8401 27.0199 45.9401 27.1799 46.0401C27.2599 46.0901 27.34 46.1401 27.42 46.2001C27.5 46.2501 27.5899 46.3001 27.6599 46.3601C27.8199 46.4701 27.9899 46.5901 28.1599 46.7101C28.3299 46.8301 28.4899 46.9501 28.6599 47.0901C28.8199 47.2201 28.9799 47.3501 29.1299 47.4901C29.4299 47.7701 29.6999 48.0501 29.9099 48.3301C30.1199 48.6001 30.2799 48.8701 30.3499 49.0601C30.4299 49.2501 30.4699 49.3701 30.4699 49.3701Z" fill="#4E2A14"/>
<path d="M31.9 55.72C31.9 55.72 28.67 55.98 24.52 52.4C22.42 50.59 21.88 47.96 20.51 45.99C19.36 43.76 18.3 41.58 18.02 40.88C17.69 40.04 17.78 39.46 18.02 39.16C20.18 42.58 25.98 43.88 28.97 47.84C32.02 51.88 31.91 55.71 31.91 55.71L31.9 55.72ZM35.45 52.75C35.45 52.75 33.17 41.54 25.5 39.71C17.83 37.88 17.78 36.57 17.17 36.31C16.9 36.19 16.58 36.28 16.36 36.57C16.09 36.93 15.99 37.59 16.36 38.57C16.67 39.38 17.86 41.9 19.14 44.48C20.64 47.5 21.81 52.15 22.28 52.64C23.15 53.57 25.34 55.38 27.98 55.72C30.62 56.07 31.52 56.31 32.48 56.85C33.44 57.39 35.75 53.18 35.46 52.75H35.45Z" fill="#A05827"/>
<path d="M55.73 77.59C54.54 76.82 53.57 77.04 52.54 77.26C52.04 77.37 51.52 77.48 50.95 77.47C50.38 77.47 49.87 77.37 49.36 77.26C48.33 77.04 47.36 76.82 46.17 77.59C44.13 78.91 43.88 79.1 43.88 81.08C43.88 83.06 43.91 84.13 45.85 85.02C47.67 85.85 49.18 86.47 50.95 86.5C52.72 86.47 54.23 85.85 56.05 85.02C57.99 84.13 58.02 82.98 58.02 81.08C58.02 79.18 57.77 78.9 55.73 77.59Z" fill="#EFEFEF"/>
<path d="M42.7999 50.29C41.7499 51.34 39.83 53.26 36.16 51.67C36.16 51.67 27.58 22.88 33.73 12.8V12.78C33.92 12.49 34.11 12.21 34.32 11.95C34.45 11.85 34.58 11.8 34.66 11.82H34.69V11.84L34.7 11.86C34.77 11.93 34.73 12.11 34.63 12.31L34.6099 12.35C33.8199 13.91 33.1599 16.46 33.8299 20.28C35.1099 27.6 43.8399 49.24 42.7999 50.28V50.29Z" fill="#262626"/>
<path d="M54.49 81.94C54.49 82.51 53.21 83.56 52.49 83.87C52 84.09 51.46 84.21 51.05 84.21C50.64 84.21 50.1 84.08 49.61 83.87C48.89 83.55 47.75 82.44 47.75 81.87C47.75 80.91 50.02 80.75 51.04 80.75C52.06 80.75 54.48 80.98 54.48 81.94H54.49Z" fill="#723648"/>
<path d="M54.96 78.7601C53.82 78.7601 52 79.0501 51.21 79.7201C51.14 79.7801 51.1 79.8401 51.06 79.9001C50.86 79.8201 50.7 79.7601 50.64 79.7001C49.85 79.0301 48.3 78.5601 47.15 78.5601C45.43 78.5601 44.9 79.3101 44.9 80.1401C44.9 80.9701 48.51 82.1601 50.23 82.1601C50.71 82.1601 51.27 82.1401 51.82 82.1001C52.07 82.1601 52.4 82.1901 52.83 82.1901C54.55 82.1901 57.15 80.9601 57.15 80.1301C57.15 79.3001 56.68 78.7501 54.96 78.7501V78.7601Z" fill="#EFEFEF"/>
<path d="M52.49 83.8701C52 84.0901 51.46 84.2101 51.05 84.2101C50.64 84.2101 50.1 84.0801 49.61 83.8701C49.71 83.4801 50.06 83.1801 50.48 83.1801C50.7 83.1801 50.89 83.2601 51.05 83.3801C51.21 83.2601 51.4 83.1801 51.61 83.1801C52.03 83.1801 52.39 83.4701 52.49 83.8601V83.8701Z" fill="#D36683"/>
<path d="M45.03 79.54C45.03 79.54 45.01 79.6 45.01 79.7C45 79.81 45.01 79.96 45.07 80.15C45.14 80.33 45.25 80.55 45.45 80.73C45.54 80.83 45.67 80.91 45.78 81C45.91 81.08 46.05 81.16 46.2 81.24C46.36 81.3 46.52 81.37 46.69 81.44C46.86 81.49 47.05 81.55 47.23 81.6C47.42 81.66 47.62 81.68 47.81 81.73C47.91 81.75 48.0099 81.77 48.1099 81.79C48.2099 81.8 48.32 81.82 48.42 81.83C48.63 81.86 48.84 81.89 49.06 81.92C49.28 81.94 49.5 81.95 49.72 81.97C50.17 82.02 50.6199 82 51.0799 82.02C51.5399 82.04 51.99 82.04 52.44 82.02C52.89 82 53.33 81.97 53.75 81.91C54.59 81.8 55.38 81.65 56 81.38C56.31 81.25 56.5799 81.1 56.7999 80.93C57.0099 80.76 57.16 80.57 57.26 80.4C57.35 80.23 57.4 80.08 57.42 79.97C57.44 79.86 57.45 79.81 57.45 79.81C57.45 79.81 57.45 79.87 57.44 79.97C57.44 80.02 57.42 80.09 57.41 80.17C57.4 80.25 57.36 80.33 57.32 80.43C57.23 80.61 57.09 80.83 56.88 81.02C56.67 81.21 56.3999 81.39 56.0799 81.54C55.4499 81.84 54.6499 82.05 53.7999 82.17C53.3699 82.23 52.93 82.27 52.47 82.3C52.02 82.33 51.55 82.34 51.09 82.32C50.63 82.3 50.17 82.3 49.72 82.25C49.49 82.23 49.2699 82.21 49.0499 82.19C48.8299 82.16 48.61 82.12 48.4 82.09C48.19 82.06 47.9699 82.03 47.7699 81.97C47.5699 81.92 47.37 81.88 47.18 81.81C46.99 81.74 46.81 81.68 46.63 81.62C46.46 81.54 46.29 81.46 46.13 81.39C45.98 81.29 45.8399 81.21 45.7099 81.11C45.5899 81 45.46 80.91 45.38 80.79C45.19 80.58 45.08 80.34 45.03 80.14C44.99 79.94 44.99 79.78 45.01 79.67C45.03 79.56 45.0499 79.51 45.0499 79.51L45.03 79.54Z" fill="#492F2A"/>
<path d="M51.61 79.56C51.61 79.56 52.72 79.19 53.94 78.38C55.01 77.66 54.47 77.39 54.47 77.05C54.47 76.63 53.47 76.66 52.24 77.47C51.31 78.08 51.6 79.56 51.6 79.56" fill="#010101"/>
<path d="M51.1 82.14H50.79V79.39H51.1V82.14Z" fill="#492F2A"/>
<path d="M51 77.4701C51 77.4701 50.96 77.4701 50.95 77.4701C50.93 77.4701 50.91 77.4701 50.9 77.4701C50.36 77.4701 49.85 77.3701 49.37 77.2601C49.13 77.2101 48.88 77.1501 48.64 77.1201C49.04 75.8601 49.26 73.9501 49.21 71.4201C49.19 70.6701 49.09 69.9501 48.92 69.2801C48.92 69.2501 48.92 69.2201 48.93 69.1901C49.01 68.8901 49.94 68.8301 50.66 68.8301C50.85 68.8301 51.02 68.8301 51.16 68.8301C51.27 68.8301 51.41 68.8301 51.56 68.8301C52.33 68.8301 53.44 68.9001 53.42 69.2201C53.24 69.9101 53.14 70.6401 53.12 71.4101C53.1 72.2101 53.12 72.9501 53.15 73.6301C53.16 74.0401 53.19 74.4501 53.25 74.8501C53.33 75.6101 53.45 76.2701 53.61 76.8201C53.32 76.8901 52.98 77.0201 52.61 77.2301C52.58 77.2301 52.56 77.2401 52.53 77.2501C52.04 77.3501 51.54 77.4601 51 77.4601" fill="#EC883E"/>
<path d="M48.63 77.12C48.39 77.08 48.15 77.06 47.91 77.06C47.86 77.06 47.8 77.06 47.75 77.06C47.95 76.79 48.67 75.96 48.94 74.92C49.47 72.89 48.87 69.96 48.91 69.29C49.08 69.96 49.18 70.67 49.2 71.43C49.25 73.95 49.04 75.87 48.63 77.13" fill="#EC883E"/>
<path d="M54.36 76.85C54.28 76.81 54.17 76.78 54.04 76.78C53.92 76.78 53.78 76.8 53.62 76.84C53.47 76.29 53.35 75.63 53.26 74.87C53.26 74.87 53.26 74.87 53.26 74.88C53.38 75.76 54 76.48 54.36 76.85ZM53.16 73.64C53.13 72.96 53.11 72.22 53.13 71.42C53.15 70.65 53.25 69.92 53.43 69.23C53.37 70.02 53.1 71.82 53.16 73.64Z" fill="#EC883E"/>
<path d="M50.95 77.55C49.79 77.51 48.1 77.14 47.78 77.14C47.76 77.14 47.74 77.14 47.73 77.14C47.73 77.14 47.72 77.14 47.71 77.14C47.69 77.14 47.71 77.11 47.75 77.05C47.8 77.05 47.86 77.05 47.91 77.05C48.15 77.05 48.39 77.08 48.63 77.11C48.87 77.15 49.11 77.2 49.36 77.25C49.85 77.35 50.35 77.46 50.89 77.46C50.91 77.46 50.93 77.46 50.94 77.46C50.96 77.46 50.98 77.46 50.99 77.46C51.53 77.46 52.04 77.36 52.52 77.25C52.55 77.25 52.57 77.24 52.6 77.23C52.51 77.28 52.41 77.34 52.32 77.4C51.82 77.47 51.33 77.52 50.94 77.53" fill="#EC883E"/>
<path d="M54.62 77.1201C54.62 77.1201 54.53 77.1001 54.48 77.0901C54.48 77.0801 54.48 77.0601 54.48 77.0501C54.48 77.0101 54.48 76.9801 54.46 76.9501C54.56 77.0501 54.63 77.1101 54.62 77.1201Z" fill="#EC883E"/>
<path d="M54.62 77.12C54.62 77.12 54.62 77.12 54.6 77.12C54.6 77.12 54.58 77.12 54.55 77.12C54.53 77.12 54.51 77.12 54.48 77.12C54.48 77.12 54.48 77.11 54.48 77.1C54.53 77.1 54.57 77.12 54.62 77.13" fill="#EC883E"/>
<path d="M52.33 77.41C52.43 77.35 52.52 77.29 52.61 77.24C52.98 77.03 53.32 76.9 53.61 76.83C53.77 76.79 53.9101 76.77 54.0301 76.77C54.1701 76.77 54.2801 76.79 54.3501 76.84C54.3901 76.88 54.4201 76.91 54.4501 76.94C54.4601 76.97 54.4701 77 54.4701 77.04C54.4701 77.05 54.4701 77.07 54.4701 77.08C54.4701 77.08 54.4701 77.09 54.4701 77.1C54.1401 77.12 53.2301 77.28 52.3201 77.4" fill="#EC883E"/>
<path d="M50.46 79.6001C49.62 79.3201 49.57 79.3801 48.13 78.4201C47.06 77.7101 47.6 77.4301 47.6 77.0901C47.6 76.6701 48.6 76.7001 49.83 77.5101C50.76 78.1201 50.47 79.6001 50.47 79.6001H50.46Z" fill="#010101"/>
<path d="M50.96 76.8C49.69 76.8 46.44 75.14 47.49 78.1C47.64 78.52 47.65 77.68 48.07 77.68C48.64 77.67 49.27 78.23 49.66 78.45C49.9 78.59 49.53 79.88 50.91 79.9C50.94 79.9 50.97 79.9 51 79.9C52.42 79.9 52.04 78.59 52.28 78.45C52.67 78.23 53.3 77.67 53.87 77.68C54.3 77.68 54.45 78.53 54.6 78.12C55.65 75.18 52.24 76.78 50.94 76.8H50.96Z" fill="#4E2A14"/>
<path d="M42.8 46.3C42.78 46.22 40.92 46.56 38.65 47.08C36.39 47.59 34.57 48.08 34.57 48.17C34.49 47.83 36.27 47.13 38.54 46.62C40.81 46.11 42.72 45.96 42.79 46.31L42.8 46.3Z" fill="#333333"/>
<path d="M42.8 46.3101C42.87 46.6501 41.09 47.3501 38.83 47.8601C36.56 48.3801 34.6501 48.52 34.5701 48.17C34.5901 48.26 36.4501 47.91 38.7201 47.39C40.9801 46.88 42.8 46.39 42.8 46.3V46.3101Z" fill="#262626"/>
<path d="M42.8 46.3C42.8 46.39 40.9801 46.88 38.7201 47.39C36.4501 47.91 34.5901 48.25 34.5701 48.17C34.5701 48.08 36.3901 47.59 38.6501 47.08C40.9201 46.57 42.78 46.22 42.8 46.3Z" fill="#333333"/>
<path d="M42.8 46.3C42.8 46.39 40.9801 46.88 38.7201 47.39C36.4501 47.91 34.5901 48.25 34.5701 48.17C34.5701 48.08 36.3901 47.59 38.6501 47.08C40.9201 46.57 42.78 46.22 42.8 46.3Z" fill="#262626"/>
<path d="M40.71 40.3C40.79 40.64 39.14 41.3101 37.04 41.7901C34.93 42.2701 33.16 42.37 33.08 42.03C33.1 42.11 34.82 41.8 36.93 41.32C39.02 40.85 40.71 40.39 40.71 40.3Z" fill="#262626"/>
<path d="M40.7099 40.3001C40.6899 40.2201 38.9699 40.5401 36.8599 41.0101C34.7699 41.4801 33.0799 41.9401 33.0799 42.0201C32.9999 41.6801 34.65 41.0101 36.75 40.5301C38.86 40.0501 40.63 39.9401 40.7 40.2901L40.7099 40.3001Z" fill="#333333"/>
<path d="M40.71 40.3C40.71 40.39 39.02 40.84 36.93 41.32C34.82 41.8 33.1 42.12 33.08 42.03C33.08 41.94 34.77 41.49 36.86 41.02C38.97 40.54 40.69 40.22 40.71 40.31V40.3Z" fill="#262626"/>
<path d="M38.4899 33.5701C38.4699 33.5001 36.9399 33.7801 35.0699 34.2001C33.2099 34.6201 31.7099 35.0201 31.7099 35.1001C31.6299 34.7601 33.0899 34.1301 34.9599 33.7101C36.8299 33.2901 38.4199 33.2201 38.4899 33.5601V33.5701Z" fill="#333333"/>
<path d="M38.49 33.5701C38.57 33.9101 37.11 34.5301 35.24 34.9601C33.37 35.3901 31.78 35.4501 31.71 35.1101C31.73 35.1801 33.26 34.9001 35.13 34.4801C36.99 34.0601 38.49 33.6501 38.49 33.5701Z" fill="#262626"/>
<path d="M38.49 33.5701C38.49 33.6501 36.99 34.0501 35.13 34.4801C33.25 34.9001 31.72 35.1901 31.71 35.1101C31.71 35.0301 33.21 34.6301 35.07 34.2101C36.94 33.7901 38.48 33.5001 38.49 33.5801V33.5701Z" fill="#262626"/>
<path d="M36.4501 26.93C36.4501 26.93 35.2101 27.06 33.7101 27.34C32.2101 27.62 31.0001 27.88 31.0001 27.94C30.9501 27.67 32.1301 27.22 33.6301 26.94C35.1301 26.66 36.4001 26.66 36.4501 26.93Z" fill="#333333"/>
<path d="M36.45 26.9301C36.5 27.2001 35.32 27.6401 33.82 27.9201C32.32 28.2001 31.05 28.2001 31 27.9401C31 27.9901 32.24 27.8001 33.74 27.5201C35.24 27.2401 36.45 26.9801 36.45 26.9301Z" fill="#262626"/>
<path d="M36.45 26.9301C36.45 26.9301 35.24 27.2501 33.74 27.5201C32.24 27.8001 31.01 27.9801 31 27.9401C31 27.8901 32.21 27.6201 33.71 27.3401C35.21 27.0601 36.44 26.8801 36.45 26.9301Z" fill="#262626"/>
<path d="M34.35 20.5101C34.35 20.4401 33.61 20.4301 32.69 20.5001C31.78 20.5701 31.04 20.6901 31.04 20.7601C31.04 20.5201 31.76 20.2701 32.68 20.2001C33.59 20.1301 34.34 20.2701 34.35 20.5101Z" fill="#333333"/>
<path d="M34.35 20.52C34.35 20.76 33.62 21.01 32.71 21.08C31.8 21.15 31.05 21 31.04 20.76C31.04 20.84 31.78 20.84 32.7 20.77C33.61 20.7 34.35 20.59 34.35 20.52Z" fill="#262626"/>
<path d="M34.35 20.51C34.35 20.59 33.61 20.7 32.7 20.77C31.79 20.84 31.05 20.83 31.04 20.76C31.04 20.69 31.78 20.57 32.69 20.5C33.6 20.43 34.35 20.44 34.35 20.51Z" fill="#262626"/>
<path d="M84.3301 39.17C84.5701 39.48 84.6501 40.05 84.3301 40.89C84.0501 41.59 82.9901 43.77 81.8401 46C80.4701 47.97 79.9301 50.6 77.8301 52.41C73.6801 55.98 70.4501 55.73 70.4501 55.73C70.4501 55.73 70.3501 51.89 73.3901 47.86C76.3801 43.9 82.1801 42.6 84.3401 39.18L84.3301 39.17Z" fill="#EFEFEF"/>
<path d="M68.45 55.72C68.45 55.72 68.4799 55.57 68.5499 55.33C68.5799 55.21 68.6399 55.06 68.7299 54.9C68.7699 54.82 68.8199 54.73 68.8799 54.64C68.9399 54.55 68.9999 54.47 69.0699 54.38C69.1999 54.19 69.3599 54.02 69.5399 53.83C69.7199 53.65 69.93 53.48 70.14 53.31C70.36 53.15 70.5899 52.99 70.8299 52.85C71.0699 52.7 71.3199 52.58 71.5599 52.45C72.0499 52.21 72.5399 51.99 72.9999 51.81C73.2199 51.71 73.4499 51.63 73.6499 51.54C73.8599 51.46 74.0599 51.38 74.2399 51.3C74.4299 51.23 74.5899 51.15 74.7499 51.08C74.9099 51.02 75.0499 50.96 75.1499 50.9C75.3699 50.79 75.5199 50.74 75.5199 50.74C75.5199 50.74 75.4799 50.88 75.3699 51.12C75.3199 51.24 75.24 51.38 75.14 51.53C75.04 51.68 74.9199 51.85 74.7799 52.02C74.7099 52.1 74.6299 52.19 74.5499 52.28C74.4599 52.36 74.3699 52.44 74.2799 52.53C74.0899 52.7 73.89 52.86 73.67 53.02C73.45 53.17 73.2199 53.33 72.9799 53.46C72.7399 53.6 72.4999 53.72 72.2599 53.85C72.0199 53.97 71.7699 54.08 71.5399 54.19C71.4199 54.25 71.2999 54.3 71.1899 54.35C71.0799 54.4 70.9699 54.46 70.8499 54.5C70.6299 54.6 70.4199 54.69 70.2199 54.79C70.0199 54.89 69.8299 54.97 69.6599 55.06C69.5699 55.1 69.4899 55.15 69.3999 55.19C69.3199 55.23 69.2499 55.27 69.1799 55.31C69.0399 55.38 68.8999 55.45 68.7999 55.53C68.5899 55.67 68.45 55.74 68.45 55.74V55.72Z" fill="#4E2A14"/>
<path d="M70.44 53.24C70.44 53.24 70.43 53.22 70.41 53.18C70.39 53.14 70.35 53.09 70.33 53.02C70.3 52.96 70.27 52.87 70.26 52.75C70.26 52.7 70.25 52.63 70.25 52.57C70.25 52.51 70.25 52.45 70.27 52.38C70.28 52.24 70.33 52.12 70.38 51.97C70.44 51.84 70.5 51.7 70.59 51.58C70.75 51.32 70.97 51.11 71.19 50.93C71.42 50.75 71.65 50.62 71.88 50.52C72.1 50.42 72.33 50.35 72.53 50.3C72.63 50.28 72.73 50.25 72.82 50.24C72.9 50.22 72.99 50.21 73.06 50.19C73.12 50.17 73.19 50.17 73.23 50.16C73.27 50.16 73.29 50.15 73.29 50.15C73.29 50.15 73.29 50.17 73.29 50.21C73.29 50.25 73.29 50.32 73.29 50.39C73.29 50.47 73.27 50.56 73.24 50.65C73.22 50.75 73.18 50.86 73.13 50.97C72.94 51.42 72.55 51.86 72.15 52.17C72.05 52.25 71.95 52.32 71.86 52.38C71.76 52.44 71.67 52.5 71.57 52.56C71.47 52.61 71.39 52.66 71.3 52.71C71.22 52.76 71.12 52.8 71.05 52.84C70.97 52.89 70.88 52.93 70.82 52.96C70.76 53 70.68 53.04 70.63 53.1C70.58 53.15 70.52 53.19 70.49 53.21C70.46 53.24 70.44 53.25 70.44 53.25V53.24Z" fill="#4E2A14"/>
<path d="M70.43 50.74C70.43 50.74 70.46 50.63 70.52 50.47C70.55 50.39 70.59 50.29 70.66 50.18C70.73 50.08 70.82 49.95 70.92 49.84C71.02 49.73 71.15 49.61 71.28 49.51C71.42 49.4 71.57 49.31 71.73 49.22C71.89 49.14 72.05 49.05 72.22 48.99C72.39 48.92 72.55 48.87 72.71 48.81C73.03 48.71 73.32 48.63 73.59 48.56C73.72 48.52 73.86 48.49 73.98 48.45C74.11 48.42 74.22 48.37 74.35 48.33C74.47 48.29 74.58 48.24 74.68 48.21C74.79 48.18 74.88 48.13 74.96 48.1C75.12 48.04 75.23 48 75.23 48C75.23 48 75.23 48.11 75.2 48.29C75.18 48.38 75.17 48.5 75.12 48.61C75.07 48.73 75.03 48.87 74.95 49C74.87 49.13 74.78 49.28 74.65 49.41C74.53 49.55 74.39 49.67 74.23 49.79C74.15 49.85 74.07 49.9 73.98 49.95C73.9 50 73.81 50.05 73.72 50.09C73.54 50.18 73.36 50.24 73.19 50.3C73.02 50.35 72.84 50.4 72.68 50.44C72.51 50.48 72.36 50.51 72.2 50.53C72.05 50.56 71.9 50.57 71.76 50.59C71.62 50.61 71.48 50.62 71.36 50.64C71.23 50.65 71.12 50.67 71.01 50.68C70.9 50.68 70.79 50.7 70.71 50.72C70.54 50.75 70.42 50.75 70.42 50.75L70.43 50.74Z" fill="#4E2A14"/>
<path d="M71.86 49.3701C71.86 49.3701 71.89 49.2501 71.98 49.0601C72.06 48.8701 72.21 48.6001 72.42 48.3301C72.63 48.0501 72.9 47.7601 73.2 47.4901C73.35 47.3501 73.51 47.2201 73.67 47.0901C73.83 46.9601 74 46.8401 74.17 46.7101C74.34 46.5901 74.51 46.4701 74.67 46.3601C74.75 46.3001 74.83 46.2501 74.91 46.2001C74.99 46.1501 75.06 46.0901 75.15 46.0401C75.31 45.9401 75.46 45.8401 75.6 45.7501C75.74 45.6501 75.88 45.5701 76 45.4801C76.13 45.4001 76.25 45.3101 76.35 45.2401C76.46 45.1601 76.56 45.1001 76.63 45.0301C76.78 44.9101 76.89 44.8301 76.89 44.8301C76.89 44.8301 76.91 44.9501 76.9 45.1701C76.9 45.2801 76.89 45.4101 76.85 45.5501C76.82 45.7001 76.77 45.8601 76.7 46.0301C76.64 46.2101 76.54 46.3701 76.44 46.5501C76.33 46.7201 76.2 46.9001 76.06 47.0701C75.92 47.2401 75.76 47.4001 75.59 47.5501C75.42 47.7101 75.24 47.8401 75.07 47.9701C74.89 48.0901 74.7 48.2201 74.52 48.3301C74.34 48.4401 74.15 48.5401 73.97 48.6301C73.61 48.8101 73.26 48.9401 72.95 49.0501C72.79 49.1001 72.65 49.1501 72.53 49.1901C72.4 49.2301 72.28 49.2601 72.18 49.2901C71.98 49.3501 71.86 49.3701 71.86 49.3701Z" fill="#4E2A14"/>
<path d="M73.38 47.85C76.37 43.89 82.17 42.59 84.33 39.17C84.57 39.48 84.65 40.05 84.33 40.89C84.05 41.59 82.99 43.77 81.84 46C80.47 47.97 79.93 50.6 77.83 52.41C73.68 55.98 70.45 55.73 70.45 55.73C70.45 55.73 70.35 51.89 73.39 47.86L73.38 47.85ZM69.86 56.86C70.82 56.32 71.72 56.08 74.36 55.73C77 55.38 79.19 53.57 80.06 52.65C80.53 52.15 81.71 47.5 83.2 44.49C84.48 41.91 85.67 39.38 85.98 38.57C86.35 37.6 86.25 36.93 85.98 36.57C85.77 36.28 85.44 36.2 85.17 36.31C84.56 36.57 84.51 37.88 76.84 39.71C69.17 41.54 66.89 52.75 66.89 52.75C66.6 53.18 68.91 57.39 69.86 56.85V56.86Z" fill="#A05827"/>
<path d="M59.53 50.29C60.58 51.34 62.5001 53.26 66.1701 51.67C66.1701 51.67 74.75 22.88 68.6 12.8V12.78C68.41 12.49 68.2201 12.21 68.0101 11.95C67.8801 11.85 67.7501 11.8 67.6701 11.82H67.6401V11.84L67.63 11.86C67.56 11.93 67.6 12.11 67.71 12.31L67.7301 12.35C68.5201 13.91 69.1801 16.46 68.5101 20.28C67.2301 27.6 58.5001 49.24 59.5401 50.28L59.53 50.29Z" fill="#262626"/>
<path d="M59.53 46.31C59.55 46.23 61.41 46.57 63.68 47.09C65.94 47.6 67.76 48.09 67.76 48.18C67.84 47.84 66.06 47.14 63.79 46.63C61.52 46.12 59.61 45.97 59.54 46.32L59.53 46.31Z" fill="#333333"/>
<path d="M59.5301 46.3101C59.4601 46.6501 61.2401 47.3501 63.5001 47.8601C65.7701 48.3801 67.6801 48.52 67.7601 48.17C67.7401 48.26 65.8801 47.91 63.6101 47.39C61.3501 46.88 59.5301 46.39 59.5301 46.3V46.3101Z" fill="#262626"/>
<path d="M59.53 46.31C59.53 46.4 61.35 46.89 63.61 47.4C65.88 47.92 67.74 48.26 67.76 48.18C67.76 48.09 65.94 47.6 63.68 47.09C61.41 46.58 59.55 46.23 59.53 46.31Z" fill="#333333"/>
<path d="M59.53 46.31C59.53 46.4 61.35 46.89 63.61 47.4C65.88 47.92 67.74 48.26 67.76 48.18C67.76 48.09 65.94 47.6 63.68 47.09C61.41 46.58 59.55 46.23 59.53 46.31Z" fill="#262626"/>
<path d="M61.62 40.3C61.54 40.64 63.19 41.3101 65.29 41.7901C67.4 42.2701 69.17 42.37 69.24 42.03C69.22 42.11 67.5 41.8 65.39 41.32C63.3 40.85 61.61 40.39 61.61 40.3H61.62Z" fill="#262626"/>
<path d="M61.62 40.3001C61.64 40.2201 63.36 40.5401 65.47 41.0101C67.56 41.4801 69.25 41.9401 69.25 42.0201C69.33 41.6801 67.68 41.0101 65.58 40.5301C63.47 40.0501 61.7 39.9401 61.63 40.2901L61.62 40.3001Z" fill="#333333"/>
<path d="M61.62 40.3C61.62 40.39 63.31 40.84 65.4 41.32C67.51 41.8 69.23 42.12 69.25 42.03C69.25 41.94 67.56 41.49 65.47 41.02C63.36 40.54 61.64 40.22 61.62 40.31V40.3Z" fill="#262626"/>
<path d="M63.84 33.5801C63.86 33.5101 65.39 33.7901 67.26 34.2101C69.12 34.6301 70.62 35.0301 70.62 35.1101C70.7 34.7701 69.24 34.1401 67.37 33.7201C65.5 33.3001 63.91 33.2301 63.84 33.5701V33.5801Z" fill="#333333"/>
<path d="M63.8401 33.5801C63.7601 33.9201 65.2201 34.5401 67.0901 34.9701C68.9601 35.4001 70.55 35.4601 70.62 35.1201C70.6 35.1901 69.0701 34.9101 67.2001 34.4901C65.3401 34.0701 63.8401 33.6601 63.8401 33.5801Z" fill="#262626"/>
<path d="M63.84 33.5801C63.84 33.6601 65.34 34.0601 67.2 34.4901C69.08 34.9101 70.61 35.2001 70.62 35.1201C70.62 35.0401 69.12 34.6401 67.26 34.2201C65.39 33.8001 63.85 33.5101 63.84 33.5901V33.5801Z" fill="#262626"/>
<path d="M65.88 26.93C65.88 26.93 67.12 27.06 68.62 27.34C70.12 27.62 71.33 27.88 71.33 27.94C71.38 27.67 70.2 27.22 68.7 26.94C67.2 26.66 65.93 26.66 65.88 26.93Z" fill="#333333"/>
<path d="M65.88 26.9301C65.83 27.2001 67.01 27.6401 68.51 27.9201C70.01 28.2001 71.2799 28.2001 71.3299 27.9401C71.3299 27.9901 70.0899 27.8001 68.5899 27.5201C67.0899 27.2401 65.88 26.9801 65.88 26.9301Z" fill="#262626"/>
<path d="M65.88 26.9301C65.88 26.9301 67.09 27.2501 68.59 27.5201C70.09 27.8001 71.32 27.9901 71.33 27.9401C71.33 27.8901 70.12 27.6201 68.62 27.3401C67.12 27.0601 65.89 26.8801 65.88 26.9301Z" fill="#262626"/>
<path d="M67.98 20.5101C67.98 20.4401 68.72 20.4301 69.64 20.5001C70.55 20.5701 71.29 20.6901 71.29 20.7601C71.29 20.5201 70.57 20.2701 69.65 20.2001C68.74 20.1301 67.99 20.2701 67.98 20.5101Z" fill="#333333"/>
<path d="M67.98 20.52C67.98 20.76 68.71 21.01 69.62 21.08C70.53 21.15 71.28 21 71.29 20.76C71.29 20.84 70.55 20.84 69.64 20.77C68.73 20.7 67.99 20.59 67.99 20.52H67.98Z" fill="#262626"/>
<path d="M67.98 20.51C67.98 20.59 68.72 20.7 69.63 20.77C70.54 20.84 71.28 20.83 71.28 20.76C71.28 20.69 70.54 20.57 69.63 20.5C68.72 20.43 67.97 20.44 67.97 20.51H67.98Z" fill="#262626"/>
</svg>
