<svg width="102" height="102" viewBox="0 0 102 102" fill="none" xmlns="http://www.w3.org/2000/svg">
<path d="M92.48 0.530029H8.89001C4.10171 0.530029 0.219971 4.41173 0.219971 9.20004V92.79C0.219971 97.5783 4.10171 101.46 8.89001 101.46H92.48C97.2683 101.46 101.15 97.5783 101.15 92.79V9.20004C101.15 4.41173 97.2683 0.530029 92.48 0.530029Z" fill="#E57D25"/>
<path d="M50.5601 78.75C50.5601 78.75 50.5301 78.75 50.5201 78.75C45.2501 78.68 36.7501 75.34 31.0301 69.79C30.8301 69.86 30.6201 69.89 30.4001 69.89C29.2601 69.89 28.5801 68.97 28.0801 68.3C27.9401 68.11 27.8001 67.92 27.6901 67.8C27.6301 67.73 27.4301 67.52 26.8901 67.52C26.4601 67.52 26.0801 67.65 26.0801 67.65C25.9301 67.7 25.7801 67.73 25.6201 67.73C25.2201 67.73 24.8301 67.55 24.5701 67.23C24.2101 66.78 24.1701 66.15 24.4901 65.67C24.4901 65.66 24.6201 65.47 24.8301 65.18C23.6101 63.95 22.7301 62.6 22.6901 62.53C22.4301 62.12 22.4101 61.61 22.6301 61.19C21.8601 60.24 21.3801 59.33 21.3001 59.16C21.0301 58.63 21.1401 57.99 21.5701 57.58C21.8301 57.34 22.1601 57.21 22.4901 57.21C22.7201 57.21 22.95 57.27 23.16 57.39C23.16 57.39 23.61 57.63 24.16 57.63C24.44 57.63 24.7001 57.57 24.9401 57.45C25.0501 57.39 25.2801 57.16 25.4501 56.98C25.5501 55.69 25.7701 54.32 26.1301 52.89C25.1401 53.24 24.1601 53.42 23.1701 53.42C18.4501 53.42 14.4601 49.19 13.4601 43.14C12.3701 36.56 14.9701 27.56 25.8601 23.86C27.0001 23.47 28.5801 23.26 30.3101 23.26C36.0901 23.26 43.3401 25.66 45.5901 32.3C46.8701 32.14 48.4701 32.1 49.7501 32.1C50.2701 32.1 50.6301 32.1 50.7101 32.1C50.7601 32.1 51.1201 32.1 51.6401 32.1C52.9201 32.1 54.5201 32.14 55.8001 32.3C58.0501 25.66 65.3001 23.26 71.0801 23.26C72.8101 23.26 74.3901 23.47 75.5301 23.86C86.4301 27.56 89.0201 36.56 87.9301 43.15C86.9301 49.2 82.94 53.42 78.22 53.42C77.23 53.42 76.2401 53.24 75.2601 52.89C75.4901 53.81 75.66 54.71 75.79 55.58C76.03 55.77 76.2301 55.99 76.4301 56.2C76.6101 56.39 76.8701 56.67 77.0001 56.73C77.2401 56.85 77.5001 56.91 77.7801 56.91C78.3401 56.91 78.79 56.67 78.79 56.67C79 56.55 79.2301 56.49 79.4501 56.49C79.7801 56.49 80.1201 56.62 80.3701 56.86C80.8001 57.27 80.9101 57.92 80.6401 58.45C80.5501 58.62 80.0701 59.53 79.3001 60.49C79.5101 60.91 79.5001 61.41 79.2401 61.82C79.1901 61.89 78.32 63.24 77.1 64.47C77.31 64.76 77.4301 64.95 77.4401 64.96C77.7501 65.45 77.72 66.08 77.35 66.53C77.09 66.85 76.7001 67.03 76.3101 67.03C76.1501 67.03 75.9901 67 75.8301 66.94C75.8301 66.94 75.4601 66.81 75.0301 66.81C74.4901 66.81 74.29 67.02 74.23 67.09C74.11 67.21 73.9801 67.4 73.8301 67.59C73.3301 68.26 72.6501 69.18 71.5101 69.18C71.4401 69.18 71.3601 69.18 71.2801 69.17C66.2701 74.65 57.9101 78.63 51.0201 78.76H50.7001C50.7001 78.76 50.5901 78.76 50.5801 78.76L50.5601 78.75Z" fill="#2F150C"/>
<path d="M75.0801 25.1199C71.1601 23.7799 58.8901 24.41 56.7401 33.83C55.0101 33.34 50.7101 33.44 50.6801 33.44C50.6501 33.44 46.3501 33.34 44.6201 33.83C42.4801 24.41 30.2102 23.7899 26.2802 25.1199C6.05015 31.9999 15.5402 59.4599 28.3402 50.1799C27.4902 52.5599 26.8701 55.0899 26.7501 57.5499C26.3701 57.9299 25.9802 58.42 25.5302 58.64C23.9802 59.41 22.4801 58.5499 22.4801 58.5499C22.4801 58.5499 23.7901 61.1099 25.5501 61.9799C24.6601 62.1099 23.8101 61.7999 23.8101 61.7999C23.8101 61.7999 25.0801 63.78 26.6301 65.01C26.0101 65.77 25.6001 66.4 25.6001 66.4C25.6001 66.4 27.5201 65.67 28.6601 66.89C29.4301 67.72 30.0901 69.3799 31.1901 68.0599C36.4501 73.6199 45.1501 77.3599 50.5601 77.4099C50.5601 77.4099 50.5701 77.4099 50.5801 77.4099H50.6601C50.7601 77.4099 50.8601 77.4099 50.9601 77.4099C57.4001 77.2899 66.0201 73.3399 70.8801 67.5499C71.8601 68.4699 72.4901 66.9499 73.2201 66.1699C74.3601 64.9499 76.2802 65.6799 76.2802 65.6799C76.2802 65.6799 75.8801 65.0599 75.2501 64.2899C76.8001 63.0599 78.0701 61.08 78.0701 61.08C78.0701 61.08 77.2301 61.4 76.3401 61.26C78.1001 60.39 79.4101 57.83 79.4101 57.83C79.4101 57.83 77.9101 58.6999 76.3601 57.9199C75.6601 57.5699 75.0901 56.5499 74.5001 56.3699C74.2701 54.2799 73.7201 52.1699 73.0101 50.1699C85.8101 59.4599 95.3001 31.9899 75.0701 25.1199H75.0801Z" fill="#2F150C"/>
<path d="M31.2501 62.3299C30.9901 62.2299 30.7101 62.2098 30.4401 62.2298C30.3701 61.9198 30.2801 61.6399 30.1601 61.3899C29.7101 60.4499 29.3301 59.9599 28.9901 59.7499C28.9901 59.4299 28.9501 59.1098 28.8301 58.7898C27.6001 55.3198 26.7702 58.0199 25.5302 58.6299C23.9802 59.3999 22.4801 58.5398 22.4801 58.5398C22.4801 58.5398 23.7901 61.0998 25.5501 61.9698C24.6601 62.0998 23.8101 61.7898 23.8101 61.7898C23.8101 61.7898 25.0801 63.7699 26.6301 64.9999C26.0101 65.7599 25.6001 66.3899 25.6001 66.3899C25.6001 66.3899 27.5201 65.6599 28.6601 66.8799C29.5901 67.8899 30.3601 70.1098 31.9401 66.7898C32.6101 65.3798 32.5301 62.8099 31.2401 62.3299H31.2501Z" fill="#979FA4"/>
<path d="M70.66 61.6099C70.92 61.5099 71.2 61.4899 71.47 61.5099C71.54 61.2099 71.6301 60.9199 71.7501 60.6799C72.2001 59.7399 72.5801 59.2399 72.9201 59.0399C72.9201 58.7199 72.9601 58.3999 73.0701 58.0799C74.3001 54.6199 75.1401 57.3099 76.3701 57.9199C77.9201 58.6999 79.4201 57.8299 79.4201 57.8299C79.4201 57.8299 78.1101 60.3999 76.3501 61.2599C77.2401 61.3899 78.0801 61.0799 78.0801 61.0799C78.0801 61.0799 76.8101 63.0599 75.2601 64.2899C75.8801 65.0499 76.2901 65.6799 76.2901 65.6799C76.2901 65.6799 74.3701 64.9499 73.2301 66.1699C72.2901 67.1799 71.5301 69.3999 69.9501 66.0799C69.2801 64.6699 69.36 62.0999 70.66 61.6199V61.6099Z" fill="#979FA4"/>
<path d="M74.6302 58.38C74.6302 58.71 74.6203 59.04 74.5903 59.36C74.5803 59.48 74.5702 59.6 74.5502 59.72C73.4002 69.49 60.0302 77.24 50.9702 77.4C50.8702 77.4 50.7702 77.4 50.6702 77.4C42.8902 77.4 28.1102 69.62 26.8102 59.76C26.7502 59.3 26.7202 58.84 26.7202 58.37C26.7202 49.1 34.4503 38.5 34.4503 38.5C34.4503 38.5 42.2602 34 50.6702 34C58.5802 34 66.8903 38.5 66.8903 38.5C66.8903 38.5 74.6202 49.1 74.6202 58.37" fill="#979FA4"/>
<path d="M50.6802 73.56C47.1202 73.56 41.8103 71.64 37.4603 68.78C32.4703 65.5 29.3203 61.42 28.8203 57.61C28.7703 57.23 28.7402 56.85 28.7402 56.46C28.7402 48.81 34.5902 39.9 35.8702 38.04C37.4602 37.2 43.9502 34.02 50.6802 34.02C57.0302 34.02 63.8103 37.21 65.5103 38.06C66.8103 39.95 72.6202 48.83 72.6202 56.46C72.6202 56.74 72.6103 57.02 72.5903 57.29C72.5803 57.39 72.5702 57.49 72.5602 57.59C71.5202 66.49 58.7303 73.41 50.9503 73.56H50.9902H50.6902" fill="#ADB5BC"/>
<path d="M31.2102 55.06C31.2102 55.06 35.8402 64.63 39.8002 64.63C42.8402 64.63 46.6302 63.07 46.6302 63.07C46.6302 63.07 48.2402 47.13 39.4502 46.62C35.4902 46.39 31.2102 55.06 31.2102 55.06Z" fill="#979FA4"/>
<path d="M70.2301 55.06C70.2301 55.06 65.6101 64.63 61.6401 64.63C58.6001 64.63 54.8101 63.07 54.8101 63.07C54.8101 63.07 53.2001 47.13 61.9901 46.62C65.9501 46.39 70.2301 55.06 70.2301 55.06Z" fill="#979FA4"/>
<path d="M74.5601 59.7199C73.4101 69.4899 60.04 77.24 50.98 77.4C50.88 77.4 50.7801 77.4 50.6801 77.4C42.9001 77.4 28.1201 69.62 26.8201 59.76C30.3501 59.35 32.2301 60.75 40.8901 64.75C42.2101 65.36 43.1901 66.5899 46.4001 65.2999C48.9701 64.2599 50.49 64.63 50.85 64.63C50.94 64.63 50.98 64.63 50.98 64.63C50.98 64.63 52.2401 64.17 55.4501 65.45C58.6601 66.74 59.7501 65.3499 61.0701 64.7399C69.2401 60.9599 71.37 59.51 74.55 59.7" fill="#E9E9EA"/>
<path d="M50.6801 76.1199C46.8101 76.1199 41.3301 74.1499 36.7001 71.1099C33.7101 69.1399 28.6501 65.09 27.6001 59.7C27.7201 59.7 27.8301 59.7 27.9501 59.7C30.0601 59.7 31.8801 60.56 36.2601 62.65C37.5101 63.24 38.9201 63.9199 40.6001 64.6899C40.8101 64.7899 41.0101 64.9 41.2301 65.03C41.9201 65.43 42.7001 65.8699 43.9201 65.8699C44.7301 65.8699 45.6301 65.6699 46.6601 65.2499C47.7901 64.7899 48.8501 64.5699 49.8201 64.5699C50.1301 64.5699 50.3801 64.5899 50.5501 64.6099C50.6801 64.6199 50.7701 64.6299 50.8401 64.6299H50.9401H50.9701H51.1201L51.2101 64.59C51.2101 64.59 51.3701 64.5499 51.6801 64.5499C52.3001 64.5499 53.4201 64.7 55.1801 65.4C56.1501 65.79 57.0101 65.9799 57.8101 65.9799C59.1001 65.9799 59.9701 65.4599 60.6701 65.0499C60.9101 64.9099 61.1301 64.7799 61.3501 64.6699C63.0301 63.8999 64.4401 63.2299 65.6801 62.6299C69.9101 60.6199 71.7602 59.7399 73.7802 59.6799C72.1002 69.0299 59.2001 75.94 50.9601 76.09H50.6801" fill="white"/>
<path d="M35.5 48.72C35.5 48.72 35.51 48.68 35.55 48.62C35.59 48.56 35.63 48.46 35.71 48.34C35.78 48.22 35.89 48.09 36.01 47.93C36.14 47.79 36.28 47.61 36.47 47.46C36.56 47.38 36.66 47.3 36.76 47.22C36.87 47.15 36.98 47.07 37.1 46.99C37.21 46.9 37.35 46.85 37.48 46.78C37.61 46.72 37.75 46.64 37.9 46.59C38.19 46.49 38.5 46.38 38.83 46.33C39.16 46.26 39.5 46.26 39.84 46.26C40.18 46.26 40.51 46.34 40.84 46.4C41.16 46.5 41.46 46.6 41.75 46.73C42.02 46.87 42.28 47.02 42.52 47.17C42.75 47.33 42.94 47.51 43.12 47.67C43.21 47.75 43.29 47.82 43.37 47.9C43.45 47.98 43.51 48.06 43.57 48.14C43.69 48.29 43.79 48.43 43.87 48.54C44.03 48.76 44.11 48.9 44.11 48.9C44.11 48.9 43.95 48.85 43.7 48.75C43.58 48.7 43.42 48.64 43.26 48.56C43.1 48.48 42.9 48.41 42.7 48.33C42.5 48.26 42.28 48.16 42.05 48.08C41.82 48.01 41.58 47.94 41.34 47.86C41.09 47.81 40.83 47.76 40.58 47.7C40.45 47.69 40.32 47.68 40.19 47.66C40.06 47.65 39.93 47.62 39.8 47.63C39.54 47.63 39.28 47.61 39.02 47.65C38.89 47.67 38.76 47.65 38.63 47.69C38.5 47.71 38.38 47.74 38.25 47.76C38.12 47.77 38.01 47.82 37.88 47.84C37.76 47.87 37.64 47.9 37.52 47.94C37.29 48.01 37.07 48.08 36.87 48.16C36.66 48.23 36.48 48.31 36.31 48.38C36.15 48.46 35.99 48.52 35.88 48.58C35.76 48.64 35.66 48.68 35.6 48.71C35.53 48.74 35.5 48.76 35.5 48.76V48.72Z" fill="#565656"/>
<path d="M66.0202 48.72C66.0202 48.72 65.9802 48.7 65.9202 48.67C65.8602 48.64 65.7602 48.59 65.6402 48.54C65.5202 48.48 65.3702 48.42 65.2002 48.34C65.0302 48.28 64.8502 48.19 64.6402 48.12C64.4402 48.04 64.2202 47.97 63.9902 47.9C63.8802 47.86 63.7602 47.83 63.6402 47.8C63.5202 47.78 63.4002 47.73 63.2702 47.72C63.1402 47.7 63.0202 47.68 62.8902 47.65C62.7702 47.62 62.6302 47.63 62.5002 47.61C62.2402 47.57 61.9802 47.59 61.7202 47.59C61.5902 47.58 61.4602 47.61 61.3302 47.62C61.2002 47.64 61.0702 47.65 60.9402 47.66C60.6902 47.72 60.4302 47.77 60.1802 47.82C59.9402 47.9 59.7002 47.98 59.4702 48.04C59.2402 48.12 59.0302 48.22 58.8202 48.29C58.6102 48.36 58.4202 48.43 58.2602 48.52C58.1002 48.6 57.9502 48.66 57.8202 48.71C57.5702 48.81 57.4102 48.86 57.4102 48.86C57.4102 48.86 57.4902 48.73 57.6502 48.5C57.7302 48.39 57.8302 48.25 57.9502 48.1C58.0102 48.03 58.0702 47.94 58.1502 47.86C58.2302 47.79 58.3102 47.71 58.4002 47.63C58.5802 47.47 58.7802 47.29 59.0002 47.13C59.2402 46.98 59.4902 46.84 59.7702 46.69C60.0502 46.57 60.3602 46.46 60.6802 46.36C61.0102 46.31 61.3402 46.23 61.6802 46.22C62.0202 46.22 62.3602 46.22 62.6902 46.29C63.0202 46.33 63.3302 46.44 63.6202 46.55C63.7702 46.6 63.9002 46.68 64.0402 46.74C64.1702 46.81 64.3002 46.87 64.4202 46.95C64.5402 47.03 64.6502 47.1 64.7602 47.18C64.8602 47.26 64.9602 47.34 65.0502 47.42C65.2402 47.57 65.3802 47.75 65.5102 47.89C65.6302 48.04 65.7402 48.17 65.8102 48.3C65.8902 48.41 65.9402 48.51 65.9702 48.58C66.0002 48.65 66.0202 48.68 66.0202 48.68V48.72Z" fill="#565656"/>
<path d="M46.6401 63.0699C39.3401 66.5499 34.2001 64.2999 31.8801 55.2799C31.8801 55.2799 40.6601 48.4599 45.3201 57.1999C46.0401 58.5599 46.6301 63.0699 46.6301 63.0699" fill="white"/>
<path d="M39.5802 63.65C37.5502 63.6 35.8502 62 35.2002 59.77C35.0002 59.09 34.8902 58.35 34.9202 57.58C34.9802 54.47 36.9102 53.3699 39.3502 53.2899C39.5002 53.2899 39.6602 53.2899 39.8102 53.2899C42.4502 53.3499 44.4602 56.1 44.5102 57.78C44.6002 61.08 42.2402 63.71 39.5902 63.65" fill="#32C5F4"/>
<path d="M39.6002 62.8099C38.0702 62.7699 36.7102 61.46 36.1702 59.46C35.9902 58.82 35.9102 58.15 35.9302 57.46C35.9702 55.14 37.0703 54.03 39.3803 53.96C39.4903 53.96 39.6102 53.96 39.7302 53.96H39.7902C41.8702 54.01 43.4703 56.4399 43.5003 57.6899C43.5403 59.1999 43.0302 60.64 42.1202 61.64C41.4202 62.4 40.5502 62.83 39.6702 62.83H39.6102" fill="#203F7C"/>
<path d="M54.79 63.07C62.09 66.55 67.23 64.3 69.55 55.28C69.55 55.28 60.77 48.46 56.1 57.21C55.38 58.57 54.79 63.07 54.79 63.07Z" fill="white"/>
<path d="M61.8403 63.65C63.8703 63.6 65.5702 62 66.2202 59.77C66.4202 59.09 66.5202 58.35 66.5002 57.58C66.4402 54.47 64.5102 53.3699 62.0702 53.2899C61.9202 53.2899 61.7702 53.2899 61.6102 53.2899C58.9602 53.3499 56.9602 56.1 56.9102 57.78C56.8202 61.08 59.1803 63.71 61.8303 63.65" fill="#32C5F4"/>
<path d="M61.7602 62.8099C60.8802 62.8099 60.0102 62.3899 59.3102 61.6199C58.4002 60.6199 57.8902 59.1799 57.9302 57.6699C57.9602 56.4199 59.5502 53.9899 61.6402 53.9399H61.7002C61.8202 53.9399 61.9302 53.9399 62.0502 53.9399C64.3602 54.0099 65.4602 55.1299 65.5002 57.4399C65.5202 58.1299 65.4302 58.7999 65.2602 59.4399C64.7102 61.4399 63.3602 62.7599 61.8202 62.7899H61.7602" fill="#203F7C"/>
<path d="M39.9001 56.33C39.8601 58.32 38.5201 59.92 36.9201 59.89C36.2001 59.88 35.5501 59.5299 35.0501 58.9699C34.8701 58.3799 34.7801 57.7299 34.8001 57.0499C34.8601 54.3299 36.5501 53.3599 38.6801 53.2899C39.4501 53.9499 39.9301 55.07 39.9101 56.33" fill="white"/>
<path d="M42.4201 62.11C42.4101 62.79 41.9501 63.33 41.4101 63.32C40.8601 63.31 40.4301 62.75 40.4501 62.07C40.4601 61.39 40.9201 60.85 41.4601 60.86C42.0001 60.87 42.4301 61.43 42.4201 62.11Z" fill="white"/>
<path d="M61.7201 56.6299C61.6801 58.6299 60.3502 60.2199 58.7402 60.1899C58.0202 60.1699 57.3702 59.83 56.8702 59.27C56.6902 58.68 56.6002 58.0299 56.6202 57.3499C56.6802 54.6299 58.3702 53.66 60.5002 53.59C61.2702 54.26 61.7502 55.3699 61.7302 56.6299" fill="white"/>
<path d="M64.4301 62.11C64.4201 62.79 63.9601 63.33 63.4201 63.32C62.8801 63.31 62.4401 62.75 62.4601 62.07C62.4701 61.39 62.9301 60.85 63.4701 60.86C64.0201 60.87 64.4401 61.43 64.4301 62.11Z" fill="white"/>
<path d="M45.3201 63.65C45.7501 63.48 46.1901 63.29 46.6301 63.08C46.1801 63.29 45.7501 63.49 45.3201 63.65Z" fill="#A1A7AE"/>
<path d="M46.6401 63.07C46.6401 63.07 46.0501 58.56 45.3301 57.2C43.5101 53.79 41.0601 52.74 38.7501 52.74C35.1501 52.74 31.8901 55.27 31.8901 55.27C32.0101 55.74 32.1402 56.19 32.2802 56.62C32.1402 56.18 32.0201 55.74 31.8901 55.27C31.8901 55.27 35.1501 52.74 38.7601 52.74C41.0701 52.74 43.5201 53.78 45.3401 57.2C46.0501 58.54 46.6301 62.94 46.6501 63.06" fill="#8F969A"/>
<path d="M45.3201 63.65C45.0801 62.36 44.7601 60.92 44.4001 60.25C44.3301 60.13 44.2701 60.01 44.2001 59.89C44.4101 59.24 44.5101 58.53 44.4901 57.78C44.4401 56.09 42.4401 53.34 39.7901 53.29H39.7201C39.5901 53.29 39.4701 53.29 39.3401 53.29C39.1301 53.29 38.9101 53.31 38.7101 53.33C38.7001 53.32 38.6801 53.31 38.6701 53.3C36.7501 53.36 35.1801 54.15 34.8501 56.3C33.9501 56.6 33.1301 56.98 32.4901 57.34C32.4101 57.11 32.3301 56.88 32.2601 56.64C32.1201 56.2 32.0001 55.76 31.8701 55.29C31.8701 55.29 35.1301 52.76 38.7301 52.76C41.0401 52.76 43.4901 53.8 45.3101 57.22C46.0301 58.58 46.6201 63.09 46.6201 63.09C46.1701 63.3 45.7401 63.49 45.3101 63.66" fill="#E2E1E1"/>
<path d="M44.2002 59.88C43.9502 59.45 43.6902 59.06 43.4302 58.71C43.4802 58.37 43.5002 58.03 43.4902 57.67C43.4602 56.42 41.8702 53.99 39.7802 53.94H39.7202C39.6002 53.94 39.4902 53.94 39.3702 53.94C39.3302 53.94 39.2902 53.94 39.2502 53.94C39.1002 53.7 38.9102 53.49 38.7102 53.31C38.9202 53.29 39.1302 53.27 39.3402 53.27C39.4702 53.27 39.5902 53.27 39.7202 53.27H39.7902C42.4302 53.33 44.4402 56.08 44.4902 57.76C44.5102 58.51 44.4102 59.22 44.2002 59.87" fill="#45B5D9"/>
<path d="M43.4302 58.71C42.3502 57.29 41.1403 56.49 39.8903 56.1C39.8703 55.29 39.6302 54.55 39.2402 53.97C39.2802 53.97 39.3202 53.97 39.3602 53.97C39.4702 53.97 39.5903 53.97 39.7103 53.97H39.7703C41.8503 54.02 43.4502 56.45 43.4802 57.7C43.4902 58.05 43.4702 58.4 43.4202 58.74" fill="#274278"/>
<path d="M34.8501 56.2999C35.1801 54.1499 36.7401 53.3499 38.6701 53.2999C38.6801 53.3099 38.6901 53.32 38.7101 53.33C38.9101 53.51 39.1001 53.73 39.2501 53.96C39.6401 54.55 39.8801 55.29 39.9001 56.09C39.2101 55.87 38.5101 55.78 37.8201 55.78C36.7801 55.78 35.7701 55.9899 34.8501 56.2899" fill="#E2E1E1"/>
<path d="M56.1 63.65C55.67 63.48 55.23 63.29 54.79 63.08C54.79 63.08 54.79 63.04 54.8 62.97C54.8 63.04 54.79 63.08 54.79 63.08C55.24 63.29 55.67 63.49 56.1 63.65Z" fill="#A1A7AE"/>
<path d="M54.8 62.96C54.9 62.25 55.44 58.44 56.1 57.2C56.32 56.78 56.55 56.4099 56.79 56.0599C56.56 56.4099 56.32 56.78 56.1 57.2C55.45 58.43 54.9 62.26 54.8 62.96Z" fill="#8F969A"/>
<path d="M56.1 63.64C55.67 63.47 55.23 63.2799 54.79 63.0699C54.79 63.0699 54.79 63.03 54.8 62.96C54.9 62.26 55.44 58.44 56.1 57.2C56.32 56.79 56.55 56.4099 56.79 56.0599C56.69 56.4399 56.6301 56.86 56.6201 57.34C56.6001 58.01 56.6901 58.6599 56.8701 59.2599C56.9501 59.3499 57.0401 59.44 57.1301 59.52C57.1601 59.64 57.19 59.7599 57.23 59.8799C57.16 59.9999 57.1001 60.1199 57.0301 60.2399C56.6701 60.9099 56.35 62.35 56.11 63.64" fill="#E2E1E1"/>
<path d="M57.2101 59.88C57.1701 59.76 57.1401 59.65 57.1101 59.52C57.1801 59.58 57.2501 59.64 57.3201 59.69C57.2801 59.75 57.2501 59.81 57.2101 59.87" fill="#45B5D9"/>
<path d="M59 53.82C60.19 53.04 61.45 52.74 62.68 52.74C62.97 52.74 63.26 52.76 63.54 52.79C63.26 52.76 62.97 52.74 62.69 52.74C61.47 52.74 60.2 53.03 59.01 53.82" fill="#8F969A"/>
<path d="M68.9202 57.34C68.2202 56.95 67.3303 56.54 66.3403 56.23C65.8103 54.14 64.1203 53.35 62.0803 53.29C61.9503 53.29 61.8303 53.29 61.7003 53.29H61.6302C61.0902 53.3 60.5702 53.43 60.1002 53.63C59.7202 53.66 59.3503 53.73 59.0103 53.83C60.2003 53.05 61.4602 52.75 62.6902 52.75C62.9802 52.75 63.2602 52.77 63.5402 52.8C66.7602 53.14 69.5002 55.25 69.5502 55.28C69.4102 55.82 69.2602 56.34 69.1002 56.83C69.0502 57 68.9902 57.17 68.9302 57.34" fill="#E2E1E1"/>
<path d="M66.3401 56.22C65.9901 56.12 65.6401 56.02 65.2701 55.95C64.8301 54.65 63.79 54.01 62.05 53.95C61.94 53.95 61.8201 53.95 61.7001 53.95H61.6401C61.3901 53.95 61.15 54 60.92 54.06C60.79 53.89 60.64 53.73 60.48 53.59C60.35 53.59 60.2201 53.6 60.0801 53.61C60.5601 53.41 61.07 53.28 61.61 53.27H61.6801C61.8101 53.27 61.9301 53.27 62.0601 53.27C64.1001 53.33 65.7901 54.12 66.3201 56.21" fill="#45B5D9"/>
<path d="M61.6902 56.0399C61.6102 55.2799 61.3302 54.5899 60.9202 54.0599C61.1502 53.9899 61.3902 53.95 61.6402 53.95H61.7002C61.8202 53.95 61.9302 53.95 62.0502 53.95C63.7902 54.01 64.8402 54.65 65.2702 55.95C64.7302 55.84 64.1702 55.78 63.6002 55.78C62.9702 55.78 62.3302 55.8599 61.6902 56.0399Z" fill="#274278"/>
<path d="M57.3302 59.6999C57.2602 59.6499 57.1902 59.5899 57.1202 59.5299C57.0302 59.4499 56.9402 59.3699 56.8602 59.2699C56.6802 58.6799 56.5902 58.0299 56.6102 57.3499C56.6202 56.8699 56.6802 56.4399 56.7802 56.0699C57.4602 55.0699 58.2102 54.3499 59.0002 53.8299C59.3402 53.7299 59.7102 53.6599 60.0902 53.6299C60.2202 53.6199 60.3502 53.6099 60.4902 53.6099C60.6502 53.7499 60.7902 53.8999 60.9302 54.0799C61.3402 54.6099 61.6102 55.2999 61.7002 56.0599C60.1302 56.5099 58.6002 57.5899 57.3302 59.7099" fill="#E2E1E1"/>
<path d="M46.6402 63.07C46.5502 62.62 46.4502 62.18 46.3502 61.73C46.2502 61.29 46.1602 60.84 46.0502 60.4C45.9502 59.96 45.8302 59.52 45.7002 59.09C45.5802 58.64 45.4402 58.26 45.2802 57.84C45.1802 57.65 45.0902 57.39 45.0002 57.25L44.6402 56.69C44.3902 56.33 44.1302 55.97 43.8402 55.65C43.7002 55.48 43.5602 55.32 43.3902 55.18C43.2402 55.03 43.0802 54.88 42.9102 54.74C42.7402 54.6 42.5802 54.4699 42.4002 54.3499C42.2302 54.2299 42.0502 54.11 41.8602 54.02C41.4902 53.81 41.1002 53.66 40.7002 53.53C40.3002 53.41 39.8802 53.3299 39.4602 53.2899C39.0402 53.2599 38.6202 53.2499 38.1902 53.2899C37.7602 53.3199 37.3402 53.41 36.9202 53.5C36.0802 53.7 35.2602 54 34.4702 54.38C34.0802 54.57 33.6902 54.78 33.3102 55C32.9402 55.22 32.5602 55.47 32.2302 55.71L32.4302 55.11L32.7702 56.2899C32.8702 56.6899 33.0202 57.07 33.1602 57.45C33.2902 57.84 33.4302 58.22 33.6102 58.58C33.7802 58.95 33.9202 59.33 34.1302 59.67C34.3402 60.02 34.5002 60.4 34.7402 60.71C34.9802 61.03 35.1802 61.3899 35.4602 61.6599C35.7302 61.9499 35.9802 62.27 36.2902 62.5L36.7402 62.89L37.2402 63.21C37.5602 63.44 37.9302 63.58 38.2902 63.75C38.6502 63.92 39.0402 63.98 39.4202 64.11C39.8202 64.16 40.2102 64.24 40.6102 64.26C41.0102 64.25 41.4202 64.3 41.8302 64.24C42.2402 64.19 42.6502 64.19 43.0502 64.09C43.4502 64 43.8702 63.96 44.2602 63.82C44.6602 63.7 45.0602 63.6 45.4602 63.45L46.6502 63.03L46.6402 63.07ZM46.6402 63.07L45.5202 63.65C45.1402 63.84 44.7402 63.97 44.3502 64.14C43.9602 64.32 43.5402 64.3999 43.1402 64.5399C42.7402 64.6799 42.3102 64.73 41.8902 64.82C41.4702 64.92 41.0302 64.9 40.6002 64.94C40.1702 64.95 39.7302 64.9 39.2902 64.87C38.8602 64.76 38.4202 64.72 38.0002 64.56C37.5902 64.4 37.1602 64.26 36.7902 64.02L36.2102 63.68L35.6802 63.27C35.3102 63.01 35.0202 62.68 34.7102 62.36C34.3802 62.06 34.1602 61.68 33.8802 61.33C33.6002 60.99 33.4202 60.5899 33.1802 60.2199C32.9402 59.8499 32.7802 59.45 32.5902 59.06C32.4002 58.67 32.2402 58.27 32.1002 57.86C31.9502 57.46 31.7902 57.06 31.6802 56.64L31.3102 55.4099L31.2002 55.0399L31.5102 54.81C31.9102 54.51 32.2902 54.26 32.7102 54.02C33.1202 53.78 33.5302 53.56 33.9602 53.36C34.8102 52.96 35.7202 52.64 36.6502 52.42C37.1202 52.32 37.6002 52.25 38.0802 52.23C38.5602 52.19 39.0502 52.22 39.5302 52.27C40.0202 52.33 40.5002 52.43 40.9602 52.59C41.1902 52.67 41.4302 52.75 41.6402 52.86C41.8602 52.96 42.0802 53.07 42.2802 53.21C42.4902 53.33 42.6902 53.47 42.8802 53.62C43.0802 53.76 43.2602 53.92 43.4302 54.09C43.6102 54.25 43.7802 54.4199 43.9402 54.5999C44.1102 54.7699 44.2602 54.95 44.4002 55.15C44.7002 55.52 44.9402 55.93 45.1802 56.33L45.5102 56.95C45.6402 57.2 45.6802 57.39 45.7702 57.61C45.9002 58.05 46.0202 58.54 46.1002 58.98C46.1902 59.43 46.2602 59.88 46.3202 60.34C46.4502 61.24 46.5402 62.15 46.6002 63.06L46.6402 63.07Z" fill="#5B5C5C"/>
<path d="M54.79 63.07C54.85 62.16 54.94 61.2499 55.07 60.3499C55.13 59.8899 55.2 59.44 55.29 58.99C55.36 58.55 55.48 58.06 55.62 57.62C55.71 57.4 55.75 57.21 55.88 56.96L56.21 56.34C56.45 55.94 56.69 55.5299 56.99 55.1599C57.13 54.9699 57.28 54.79 57.45 54.61C57.61 54.43 57.77 54.2599 57.96 54.0999C58.14 53.9399 58.32 53.77 58.51 53.63C58.7 53.48 58.9 53.3399 59.11 53.2199C59.31 53.0899 59.53 52.98 59.75 52.87C59.96 52.76 60.2 52.6799 60.43 52.5999C60.9 52.4399 61.37 52.34 61.86 52.28C62.35 52.23 62.84 52.2 63.32 52.24C63.81 52.26 64.28 52.33 64.75 52.43C65.69 52.64 66.59 52.96 67.44 53.37C67.87 53.57 68.29 53.79 68.69 54.03C69.1 54.27 69.48 54.52 69.89 54.82L70.2 55.05L70.09 55.42L69.72 56.65C69.61 57.07 69.45 57.46 69.3 57.87C69.16 58.28 69 58.68 68.81 59.07C68.62 59.46 68.46 59.86 68.22 60.23C67.99 60.6 67.8 60.99 67.52 61.34C67.25 61.69 67.02 62.06 66.7 62.37C66.4 62.69 66.1 63.02 65.73 63.28L65.2 63.69L64.62 64.03C64.24 64.27 63.82 64.41 63.41 64.57C63 64.73 62.55 64.78 62.12 64.88C61.68 64.91 61.25 64.96 60.81 64.95C60.38 64.91 59.94 64.93 59.52 64.83C59.1 64.74 58.67 64.69 58.27 64.55C57.86 64.41 57.45 64.33 57.06 64.15C56.67 63.98 56.27 63.8499 55.89 63.6599L54.77 63.08L54.79 63.07ZM54.79 63.07L55.98 63.49C56.38 63.63 56.78 63.73 57.18 63.86C57.57 63.99 57.99 64.03 58.39 64.13C58.79 64.23 59.21 64.23 59.61 64.28C60.02 64.33 60.42 64.28 60.83 64.3C61.23 64.28 61.63 64.2 62.02 64.15C62.4 64.02 62.79 63.9599 63.15 63.7899C63.51 63.6299 63.88 63.49 64.2 63.25L64.69 62.93L65.14 62.5399C65.45 62.2999 65.7 61.98 65.97 61.7C66.25 61.42 66.45 61.06 66.69 60.75C66.93 60.44 67.09 60.06 67.3 59.71C67.51 59.37 67.65 58.98 67.82 58.62C68 58.26 68.14 57.88 68.27 57.49C68.41 57.11 68.56 56.73 68.66 56.33L69 55.15L69.2 55.75C68.87 55.51 68.49 55.2599 68.12 55.0399C67.74 54.8199 67.36 54.61 66.96 54.42C66.17 54.04 65.35 53.7399 64.51 53.5399C64.09 53.4499 63.67 53.36 63.24 53.33C62.82 53.28 62.39 53.29 61.97 53.33C61.55 53.37 61.14 53.44 60.73 53.57C60.33 53.7 59.93 53.84 59.57 54.06C59.38 54.15 59.2 54.26 59.03 54.39C58.85 54.5 58.68 54.64 58.52 54.78C58.35 54.91 58.19 55.0599 58.04 55.2199C57.88 55.3599 57.73 55.53 57.59 55.69C57.29 56.01 57.04 56.37 56.78 56.73L56.43 57.2899C56.33 57.4299 56.24 57.69 56.15 57.88C55.99 58.3 55.85 58.68 55.73 59.13C55.6 59.56 55.49 60 55.38 60.44C55.27 60.88 55.17 61.33 55.08 61.77C54.98 62.22 54.88 62.66 54.79 63.11V63.07Z" fill="#5B5C5C"/>
<path d="M75.0801 25.1199C71.1601 23.7799 58.8901 24.41 56.7401 33.83C55.0101 33.34 50.7101 33.44 50.6801 33.44C50.6501 33.44 46.3501 33.34 44.6201 33.83C42.4801 24.41 30.2102 23.7899 26.2802 25.1199C5.89016 32.0499 15.6801 59.89 28.6301 49.96C28.0601 51.71 37.7301 36.45 50.6701 36.77C64.1001 37.11 73.2801 51.71 72.7201 49.96C85.6701 59.89 95.4601 32.0499 75.0701 25.1199H75.0801Z" fill="#979FA4"/>
<path d="M50.6702 77.4099H50.5902C49.4602 77.3899 48.0102 76.75 47.2102 75.71C48.4502 75.98 49.6202 76.1299 50.6802 76.1299H50.9602C52.0002 76.1099 53.1002 75.9799 54.2502 75.7599C53.4902 76.9399 51.9702 77.4099 50.6702 77.4199" fill="#C2C0C0"/>
<path d="M50.6802 76.1199C49.6302 76.1199 48.4602 75.98 47.2102 75.7C46.6002 74.91 46.3802 73.8799 47.0002 72.7199C47.1702 72.8299 47.3502 72.9299 47.5502 72.9999C47.7602 73.0799 47.9802 73.12 48.2002 73.15C48.2902 73.15 48.3702 73.1599 48.4602 73.1599C48.5902 73.1599 48.7202 73.1599 48.8502 73.1299C48.9602 73.1199 49.0602 73.0999 49.1502 73.0699C49.2502 73.0499 49.3402 73.0199 49.4302 72.9799C49.6102 72.9199 49.7802 72.84 49.9302 72.77C50.0702 72.69 50.2102 72.6199 50.3202 72.5399C50.4302 72.4699 50.5302 72.4 50.6102 72.34L50.6601 72.2999L50.7102 72.34C50.7902 72.4 50.8902 72.4599 51.0002 72.5399C51.1102 72.6199 51.2502 72.69 51.4002 72.77C51.5502 72.84 51.7102 72.9199 51.9002 72.9799C51.9902 73.0099 52.0802 73.0399 52.1802 73.0699C52.2802 73.0999 52.3802 73.1199 52.4802 73.1299C52.6102 73.1499 52.7402 73.1599 52.8702 73.1599C52.9602 73.1599 53.0402 73.16 53.1302 73.15C53.3502 73.12 53.5702 73.0799 53.7802 72.9999C54.0502 72.8999 54.3102 72.7499 54.5302 72.5699C54.9102 73.9599 54.7202 74.9999 54.2402 75.7399C53.0902 75.9599 51.9902 76.0899 50.9502 76.1099H50.6702" fill="#CFCDCC"/>
<path d="M81.3601 32.4599C86.2201 37.4599 85.3201 43.7799 82.3601 47.0599C79.4001 50.3399 71.8401 46.8799 71.3501 45.4599C71.3501 45.4599 67.9401 40.9899 66.1801 39.3799C63.6501 37.0699 62.3701 36.3799 62.3701 36.3799C74.5501 23.3599 80.5101 31.5799 81.3601 32.4599Z" fill="#ED9DB2"/>
<path d="M20.2601 32.63C15.4001 37.63 16.3001 43.95 19.2601 47.23C22.2201 50.5 29.7801 47.05 30.2701 45.62C30.2701 45.62 33.6801 41.15 35.4501 39.54C37.9801 37.23 39.2601 36.54 39.2601 36.54C27.0801 23.52 21.1201 31.74 20.2701 32.63H20.2601Z" fill="#ED9DB2"/>
<path d="M56.5001 70.61C56.5001 70.61 56.4701 70.55 56.4401 70.52C56.3701 70.45 56.2501 70.4 56.1201 70.36C55.8701 70.28 55.61 70.25 55.61 70.25V70.47C55.61 70.47 55.5801 71.08 55.4301 71.35C55.2801 71.63 55.0501 71.93 54.7601 72.19C54.4701 72.46 54.11 72.68 53.72 72.8C53.53 72.86 53.3201 72.89 53.1301 72.9C52.9301 72.9 52.73 72.89 52.55 72.84C52.46 72.82 52.3701 72.8 52.2801 72.77C52.1901 72.75 52.1101 72.71 52.0301 72.68C51.8701 72.62 51.7301 72.53 51.5901 72.46C51.4601 72.38 51.3401 72.31 51.2401 72.23C51.1401 72.15 51.0501 72.09 50.9901 72.03C50.9001 71.95 50.84 71.9 50.8 71.87L50.8901 70.98H50.4401L50.5301 71.87C50.5301 71.87 50.44 71.95 50.35 72.03C50.28 72.09 50.19 72.15 50.1 72.23C50 72.31 49.8801 72.38 49.7501 72.46C49.6201 72.53 49.4701 72.62 49.3101 72.68C49.2301 72.72 49.1501 72.75 49.0601 72.77C48.9801 72.8 48.89 72.83 48.79 72.84C48.61 72.89 48.4101 72.9 48.2101 72.9C48.0101 72.89 47.81 72.86 47.61 72.8C47.22 72.68 46.8601 72.46 46.5701 72.19C46.2801 71.93 46.0501 71.63 45.9001 71.35C45.7501 71.07 45.73 70.47 45.73 70.47V70.25C45.73 70.25 45.65 70.25 45.54 70.28C45.48 70.29 45.42 70.31 45.35 70.33C45.28 70.36 45.2101 70.38 45.1501 70.42C45.1201 70.44 45.08 70.46 45.05 70.48L44.97 70.55L44.9001 70.63L44.85 70.71L44.8201 70.78V70.84L44.85 70.79L44.8901 70.73L44.9501 70.67C44.9501 70.67 44.9901 70.63 45.0201 70.61L45.11 70.56C45.11 70.56 45.1701 70.54 45.2101 70.53C45.2701 70.5 45.34 70.5 45.41 70.48C45.47 70.48 45.5301 70.48 45.5801 70.47C45.6201 70.47 45.66 70.57 45.66 70.64C45.66 70.83 45.72 71.1 45.86 71.39C46 71.68 46.2001 72.01 46.4901 72.3C46.7701 72.59 47.1401 72.86 47.5601 73.01C47.7701 73.09 47.9901 73.13 48.2101 73.16C48.4301 73.18 48.65 73.18 48.86 73.14C48.97 73.13 49.07 73.11 49.16 73.08C49.26 73.06 49.3501 73.03 49.4401 72.99C49.6201 72.93 49.7901 72.85 49.9401 72.78C50.0801 72.7 50.2201 72.63 50.3301 72.55C50.4401 72.48 50.5401 72.41 50.6201 72.35L50.67 72.31L50.72 72.35C50.8 72.41 50.9001 72.47 51.0101 72.55C51.1201 72.63 51.26 72.7 51.41 72.78C51.56 72.85 51.72 72.93 51.91 72.99C52 73.02 52.0901 73.05 52.1901 73.08C52.2901 73.11 52.3901 73.13 52.4901 73.14C52.7001 73.18 52.9201 73.18 53.1401 73.16C53.3601 73.13 53.58 73.09 53.79 73.01C54.21 72.86 54.57 72.59 54.86 72.3C55.15 72.01 55.3501 71.68 55.4901 71.39C55.6201 71.09 55.6901 70.83 55.6901 70.64C55.6901 70.57 55.9101 70.45 56.0801 70.47C56.2001 70.48 56.3201 70.51 56.4001 70.55C56.4401 70.57 56.47 70.6 56.48 70.62" fill="#5B5C5C"/>
<path d="M54.5202 66.5499C54.3402 63.9099 52.9502 61.2899 50.7202 61.2899H50.6702H50.6302C48.4002 61.2899 47.0102 63.9099 46.8302 66.5499C46.6902 68.5999 46.9302 68.87 47.1502 69.58C47.3702 70.32 48.3502 70.21 49.2402 70.39C49.9302 70.53 49.6502 71.1699 50.6602 71.1699H50.7002C51.7102 71.1699 51.4302 70.53 52.1202 70.39C53.0102 70.21 53.9902 70.31 54.2102 69.58C54.4202 68.87 54.6702 68.5999 54.5302 66.5499" fill="#5B5C5C"/>
<path d="M49.4302 70.45C49.3102 70.42 49.1002 70.35 48.8002 70.35C48.5702 70.35 48.3602 70.31 48.1802 70.24C48.5102 70.29 48.8802 70.32 49.2402 70.39C49.3102 70.41 49.3802 70.43 49.4302 70.45Z" fill="#686564"/>
<path d="M49.5002 70.4599C49.5002 70.4599 49.4602 70.4599 49.4302 70.4499C49.3802 70.4299 49.3102 70.4099 49.2402 70.3899C48.8802 70.3199 48.5102 70.2899 48.1802 70.2399C47.9102 70.1299 47.7202 69.9499 47.7202 69.7499C47.7202 69.4199 48.2002 69.1499 48.7902 69.1499C49.3802 69.1499 49.5903 69.9699 49.5903 70.3099C49.5903 70.4299 49.5602 70.4698 49.5002 70.4698" fill="#343535"/>
<path d="M51.9001 70.46C51.9601 70.43 52.0301 70.41 52.1101 70.39C52.5001 70.31 52.9001 70.29 53.2501 70.22C53.0701 70.3 52.8401 70.34 52.6001 70.34C52.2301 70.34 52.0101 70.45 51.9001 70.45" fill="#686564"/>
<path d="M51.8901 70.4599C51.8301 70.4599 51.8 70.4199 51.8 70.2999C51.8 69.9699 52 69.1399 52.6 69.1399C53.2 69.1399 53.67 69.4099 53.67 69.7399C53.67 69.9299 53.5101 70.1098 53.2501 70.2198C52.9001 70.2798 52.5 70.3099 52.11 70.3899C52.03 70.4099 51.9601 70.4299 51.9001 70.4599" fill="#343535"/>
<path d="M52.6902 64.15C52.2602 64.15 51.4703 63.61 50.7603 63.61C50.0503 63.61 49.3102 64.07 48.8802 64.07C48.6602 64.07 48.5303 63.96 48.5303 63.61C48.5303 62.58 49.7002 61.75 50.7302 61.75C51.7602 61.75 53.0002 62.69 53.0002 63.72C53.0002 64.04 52.8902 64.15 52.6902 64.15Z" fill="white"/>
</svg>
