<svg width="102" height="101" viewBox="0 0 102 101" fill="none" xmlns="http://www.w3.org/2000/svg">
<path d="M93.06 0H9.47005C4.68174 0 0.800049 3.88169 0.800049 8.67V92.26C0.800049 97.0483 4.68174 100.93 9.47005 100.93H93.06C97.8484 100.93 101.73 97.0483 101.73 92.26V8.67C101.73 3.88169 97.8484 0 93.06 0Z" fill="#DBBD64"/>
<path d="M36.0701 86.9C35.1201 86.9 34.1701 86.67 33.3101 86.25C32.2601 85.74 31.2501 84.88 30.4101 83.78C29.5901 82.71 28.9101 81.39 28.4301 79.96C27.9101 78.38 27.6501 76.79 27.6701 75.25C27.6901 74.27 27.8101 73.42 28.0401 72.64C28.3401 71.61 28.8201 70.7501 29.4701 70.0801C29.8501 69.6901 30.2901 69.37 30.7701 69.13C31.2401 68.9 31.7601 68.75 32.3101 68.68C32.5401 68.65 32.7901 68.63 33.0401 68.63C33.7001 68.63 34.3901 68.7401 35.2001 68.9701C35.2101 68.9701 35.2801 68.99 35.2801 68.99C35.6901 69.12 36.1601 69.27 36.6101 69.53C37.0201 69.76 37.4201 70.0301 37.7901 70.3301C38.5001 70.9001 39.1301 71.5501 39.6601 72.1101C39.9701 72.4401 40.2601 72.7601 40.5601 73.0801C41.3301 73.9301 42.0701 74.7301 42.8501 75.4101C43.3901 75.8801 43.9101 76.2401 44.4101 76.4701C44.7601 76.6301 45.1401 76.7201 45.4701 76.7201C45.5701 76.7201 45.6601 76.72 45.7501 76.7C45.7801 76.7 45.8101 76.7001 45.8501 76.6901C45.8801 76.6901 45.9901 76.66 46.0501 76.64L46.1601 76.6101L46.2601 76.57C46.2601 76.57 46.3301 76.54 46.3601 76.53C46.3801 76.52 46.4001 76.51 46.4301 76.5C46.6001 76.42 46.7801 76.3 46.9801 76.14C47.3101 75.87 47.6101 75.5 47.9201 75C48.4901 74.05 48.8301 73.03 49.0601 72.25C49.3301 71.32 49.5001 70.49 49.6201 69.88C49.6501 69.7 49.6801 69.5301 49.7101 69.3701C49.1801 69.2601 48.6801 69.0601 48.3001 68.6501C48.0401 68.3701 47.7301 67.8801 47.7701 67.1201C47.7701 66.6901 47.8901 66.22 48.1001 65.7C48.2801 65.27 48.3601 64.91 48.3701 64.53C48.3501 64 48.2001 63.34 48.0001 62.43C47.7701 61.43 47.4601 60.0601 47.1701 58.1501C47.1201 57.8101 47.0901 57.49 47.0601 57.17C47.0301 56.84 47.0001 56.5301 46.9501 56.2401L46.9301 56.14C46.9001 55.94 46.8601 55.7401 46.8301 55.5401C46.7901 55.3001 46.7401 55.0601 46.7001 54.8301C43.9101 53.5901 33.2201 48.3601 32.3001 40.7401C32.2501 40.3401 32.2201 39.91 32.2201 39.46C32.2201 36.58 32.5901 33.8301 33.3101 31.2901C31.8601 30.1001 29.1701 27.89 26.8101 25.94C24.5101 24.04 24.1401 22.57 24.2101 20.17C24.3201 16.4 26.2201 14.17 29.4201 14.05C29.4701 14.05 29.5201 14.05 29.5701 14.05C33.5001 14.05 36.2301 19.41 36.8701 21.29C36.9901 21.65 37.2601 22.24 37.6501 23.03C37.8801 22.77 38.1201 22.53 38.3601 22.29C41.1401 19.59 45.3801 18.27 51.3301 18.27C58.5301 18.27 62.3501 20.45 64.2801 22.28C64.5001 22.49 64.7201 22.71 64.9301 22.94C65.3801 22.04 65.5801 21.55 65.6701 21.29C66.3101 19.41 69.0401 14.05 72.9701 14.05C73.0201 14.05 73.0701 14.05 73.1201 14.05C76.3201 14.16 78.2201 16.39 78.3301 20.17C78.4001 22.56 78.0301 24.04 75.7301 25.94C73.3501 27.91 70.6501 30.13 69.3301 31.21C70.0601 33.77 70.4301 36.54 70.4301 39.46C70.4301 39.75 70.4201 40.05 70.4001 40.35L70.3701 40.66C69.6601 47.29 61.4801 52.8301 55.8001 55.1301C55.7701 55.2701 55.7501 55.41 55.7201 55.55C55.6901 55.73 55.6601 55.91 55.6301 56.1L55.6101 56.23C55.5601 56.52 55.5301 56.84 55.5001 57.17C55.4701 57.49 55.4401 57.82 55.3901 58.17C55.1001 60.07 54.7901 61.44 54.5601 62.44C54.3501 63.35 54.2001 64.0101 54.1801 64.5401C54.1901 64.9301 54.2701 65.28 54.4501 65.71C54.6601 66.23 54.7701 66.7 54.7801 67.13C54.8201 67.89 54.5101 68.39 54.2501 68.67C53.7801 69.17 53.1101 69.37 52.4301 69.45C52.3801 69.73 52.3201 70.05 52.2501 70.42C52.1101 71.1 51.9201 72.0001 51.6001 73.0401C51.2901 74.0301 50.8801 75.2101 50.1401 76.4101C49.6501 77.1701 49.1701 77.73 48.6201 78.18C48.2501 78.48 47.8901 78.71 47.5101 78.88C47.3801 78.95 47.2501 78.99 47.1601 79.03L47.0001 79.09L46.9501 79.11C46.9501 79.11 46.9001 79.13 46.8801 79.13L46.7101 79.17C46.5601 79.21 46.3801 79.26 46.1501 79.29C45.9401 79.32 45.7201 79.34 45.5001 79.34C44.7901 79.34 44.0601 79.17 43.3301 78.84C42.5901 78.48 41.8901 78 41.1701 77.35C40.2801 76.55 39.4801 75.65 38.7001 74.78C38.4201 74.46 38.1401 74.1501 37.8501 73.8301C37.3801 73.3201 36.8301 72.7401 36.2401 72.2601C35.9801 72.0401 35.7001 71.85 35.4101 71.68C35.1701 71.54 34.8901 71.44 34.5601 71.34H34.5201C33.9301 71.15 33.4401 71.07 33.0001 71.07C32.8701 71.07 32.7401 71.07 32.6201 71.09C32.3201 71.13 32.0501 71.2 31.8101 71.31C31.5801 71.42 31.3701 71.57 31.1701 71.77C30.7901 72.15 30.5001 72.6701 30.3001 73.3301C30.1201 73.9101 30.0201 74.56 30.0001 75.32C29.9701 76.6 30.1701 77.93 30.6001 79.28C30.9801 80.47 31.5401 81.58 32.2001 82.46C32.8101 83.29 33.5601 83.95 34.3001 84.32C35.0301 84.69 35.7001 84.77 36.1401 84.77C36.1801 84.77 36.2201 84.77 36.2601 84.77C36.7101 84.75 37.1501 84.67 37.5801 84.53C37.6901 84.5 37.7601 84.47 37.8201 84.44C37.8701 84.42 37.9101 84.4 37.9501 84.39L38.0801 84.34C38.2001 84.29 38.3301 84.27 38.4601 84.27C38.8901 84.27 39.2901 84.53 39.4501 84.95C39.6601 85.5 39.3901 86.11 38.8401 86.32C38.8401 86.32 38.6301 86.4 38.6101 86.41C38.5101 86.45 38.3801 86.5 38.2301 86.55C37.6301 86.76 37.0001 86.88 36.3401 86.92C36.2401 86.92 36.1601 86.92 36.0701 86.92V86.9Z" fill="#2F150C"/>
<path d="M27.4801 25.1001C30.1001 27.2701 33.1301 29.7501 34.5201 30.9001C33.7401 33.3701 33.2701 36.2301 33.2701 39.4501C33.2701 39.8401 33.2901 40.2201 33.3401 40.6001C34.0801 46.7401 42.4301 51.9001 47.6201 54.0701C47.7001 54.4901 47.7801 54.9101 47.8601 55.3501C47.9001 55.5801 47.9401 55.8201 47.9801 56.0601C48.0901 56.6801 48.1001 57.3501 48.2001 57.9901C48.7601 61.6801 49.3901 63.2401 49.4201 64.5301C49.4101 65.0401 49.3101 65.5301 49.0701 66.1101C48.9001 66.5401 48.8201 66.8801 48.8201 67.1701C48.7601 68.2601 49.8501 68.4201 50.9301 68.4301C50.9301 68.4401 50.9301 68.4601 50.9301 68.4701C50.8701 68.8501 50.7901 69.4001 50.6601 70.0901C50.5301 70.7901 50.3501 71.6301 50.0801 72.5701C49.8001 73.5101 49.4301 74.5601 48.8201 75.5801C48.5101 76.0801 48.1401 76.5801 47.6601 76.9801C47.4201 77.1801 47.1601 77.3601 46.8701 77.4901C46.8001 77.5301 46.7301 77.5601 46.6501 77.5801L46.5401 77.6201H46.5101V77.6301H46.4901L46.4301 77.6501C46.2601 77.6901 46.0901 77.7501 45.9401 77.7601C45.3101 77.8701 44.6101 77.7401 43.9701 77.4501C43.3301 77.1501 42.7301 76.7201 42.1601 76.2201C41.0301 75.2301 40.0101 74.0201 38.9001 72.8401C38.3501 72.2501 37.7701 71.6701 37.1301 71.1501C36.8101 70.8901 36.4601 70.6501 36.1001 70.4501C35.7301 70.2401 35.3201 70.1101 34.9401 69.9901C34.1401 69.7601 33.3001 69.6201 32.4701 69.7301C32.0501 69.7801 31.6401 69.9001 31.2701 70.0801C30.8901 70.2601 30.5501 70.5201 30.2601 70.8101C29.6801 71.4101 29.3101 72.1601 29.0901 72.9301C28.8601 73.7001 28.7801 74.4901 28.7601 75.2601C28.7401 76.8001 29.0201 78.2801 29.4701 79.6201C29.9201 80.9601 30.5401 82.1501 31.2901 83.1301C32.0301 84.1101 32.9101 84.8601 33.8101 85.3001C34.7101 85.7501 35.6001 85.8701 36.3101 85.8401C37.0301 85.8001 37.5701 85.6501 37.9301 85.5201C38.1101 85.4601 38.2401 85.4001 38.3401 85.3701C38.4301 85.3301 38.4801 85.3101 38.4801 85.3101C38.4801 85.3101 38.4301 85.3301 38.3401 85.3601C38.2501 85.3901 38.1101 85.4501 37.9301 85.5101C37.5701 85.6301 37.0201 85.7801 36.3101 85.8101C35.6001 85.8301 34.7201 85.7001 33.8401 85.2501C32.9501 84.8101 32.0901 84.0601 31.3701 83.0801C30.6401 82.1001 30.0401 80.9101 29.6101 79.5801C29.1901 78.2501 28.9301 76.7801 28.9601 75.2701C28.9801 74.5101 29.0801 73.7401 29.3001 73.0001C29.5201 72.2601 29.8801 71.5401 30.4401 70.9901C30.7101 70.7201 31.0301 70.4801 31.3801 70.3201C31.7301 70.1601 32.1201 70.0601 32.5101 70.0101C33.2901 69.9101 34.1001 70.0601 34.8601 70.2801C35.2501 70.4101 35.6201 70.5301 35.9601 70.7301C36.3001 70.9301 36.6301 71.1501 36.9401 71.4101C37.5601 71.9201 38.1101 72.5001 38.6601 73.0801C39.7401 74.2601 40.7501 75.4901 41.9101 76.5301C42.4901 77.0501 43.1101 77.5101 43.8101 77.8401C44.5101 78.1601 45.2801 78.3301 46.0401 78.2101C46.2401 78.1901 46.4001 78.1401 46.5701 78.1001L46.6301 78.0801H46.6501L46.6801 78.0701H46.7101L46.8401 78.0101C46.9301 77.9801 47.0101 77.9501 47.0901 77.9001C47.4201 77.7501 47.7201 77.5501 47.9901 77.3301C48.5301 76.8901 48.9401 76.3601 49.2801 75.8201C49.9401 74.7401 50.3301 73.6601 50.6301 72.7001C50.9201 71.7401 51.1101 70.8801 51.2601 70.1801C51.4001 69.4701 51.4901 68.9201 51.5601 68.5401C51.5601 68.4901 51.5701 68.4501 51.5801 68.4001C52.6901 68.4001 53.8501 68.2601 53.7801 67.1401C53.7801 66.8501 53.7001 66.5101 53.5301 66.0801C53.3001 65.5101 53.1901 65.0201 53.1801 64.5001C53.2101 63.2101 53.8301 61.6501 54.4001 57.9601C54.5001 57.3101 54.5101 56.6301 54.6201 56.0101C54.6601 55.7801 54.7001 55.5501 54.7401 55.3301C54.8001 54.9901 54.8601 54.6601 54.9301 54.3301C60.2001 52.3301 68.6901 46.9201 69.3701 40.5501C69.3701 40.4501 69.3901 40.3501 69.4001 40.2501C69.4201 39.9801 69.4301 39.7101 69.4301 39.4401C69.4301 36.2001 68.9601 33.3101 68.1701 30.8201C69.6101 29.6401 72.5601 27.2201 75.1101 25.1001C77.1301 23.4301 77.3801 22.2701 77.3201 20.1801C77.2601 18.1001 76.5201 15.2101 73.1401 15.0901C69.7501 14.9701 67.2201 20.1601 66.7301 21.6101C66.4801 22.3401 65.8001 23.6901 65.1901 24.8301C64.6801 24.1501 64.1501 23.5501 63.6001 23.0201C61.3201 20.8601 57.3401 19.3001 51.3801 19.3001C45.0501 19.3001 41.4101 20.8301 39.1601 23.0201C38.5901 23.5701 38.0401 24.2101 37.5201 24.9301C36.9001 23.7601 36.1801 22.3601 35.9301 21.6101C35.4301 20.1701 32.9001 14.9701 29.5201 15.0901C26.1301 15.2101 25.4001 18.0901 25.3401 20.1801C25.2801 22.2601 25.5301 23.4301 27.5501 25.1001H27.4801Z" fill="#2F150C"/>
<path d="M77.2801 20.1801C77.2201 18.1001 76.4801 15.2101 73.1001 15.0901C69.7101 14.9701 67.1801 20.1601 66.6901 21.6101C66.4401 22.3401 65.7601 23.6901 65.1501 24.8301C64.6401 24.1501 64.1101 23.5501 63.5601 23.0201C61.2801 20.8601 57.3001 19.3001 51.3401 19.3001C45.0101 19.3001 41.3701 20.8301 39.1201 23.0201C38.5501 23.5701 38.0001 24.2101 37.4801 24.9301C36.8601 23.7601 36.1401 22.3601 35.8901 21.6101C35.3901 20.1701 32.8601 14.9701 29.4801 15.0901C26.0901 15.2101 25.3601 18.0901 25.3001 20.1801C25.2401 22.2601 25.4901 23.4301 27.5101 25.1001C30.1301 27.2701 33.1601 29.7501 34.5501 30.9001C33.7701 33.3701 33.3001 36.2301 33.3001 39.4501C33.3001 39.8401 33.3201 40.2201 33.3701 40.6001C34.3501 48.7401 48.7401 55.1701 51.3501 55.1701C51.4301 55.1701 51.5001 55.1701 51.5801 55.1701C55.0901 55.1701 68.4901 48.6401 69.3501 40.5601C69.3501 40.4601 69.3701 40.3601 69.3801 40.2601C69.4001 39.9901 69.4101 39.7201 69.4101 39.4501C69.4101 36.2101 68.9401 33.3201 68.1501 30.8301C69.5901 29.6501 72.5401 27.2301 75.0901 25.1101C77.1101 23.4401 77.3601 22.2801 77.3001 20.1901" fill="#E2E2E2"/>
<path d="M51.3201 54.95C48.9901 54.95 35.0501 48.65 34.1401 41.01C34.1001 40.67 34.0701 40.32 34.0701 39.95C34.0701 33.4 36.1601 27.45 39.6601 24.03C42.0801 21.67 45.8901 20.52 51.3201 20.52C57.9101 20.52 61.3001 22.43 62.9901 24.04C66.4801 27.36 68.5701 33.31 68.5701 39.95C68.5701 40.19 68.5701 40.45 68.5401 40.71L68.5101 41C67.6901 48.67 54.5801 54.95 51.5501 54.95H51.3201Z" fill="#F4F4F4"/>
<path d="M40.17 44.5601C40.17 44.5601 43.73 45.39 44.54 45.82C46.41 46.81 46.52 48.3501 46.66 49.1101C46.8 49.8701 47.89 47.5701 48.97 45.9501C50.05 44.3301 49.64 43.3 49.64 43.3L40.16 44.5601" fill="#635A4E"/>
<path d="M62.3701 44.5601C62.3701 44.5601 58.8101 45.39 58.0001 45.82C56.1301 46.81 56.0201 48.3501 55.8801 49.1101C55.7401 49.8701 54.6501 47.5701 53.5701 45.9501C52.4901 44.3301 52.9001 43.3 52.9001 43.3L62.3801 44.5601" fill="#635A4E"/>
<path d="M34.8301 37.29C34.8301 37.29 38.5501 44.98 41.7401 44.98C44.1801 44.98 47.2301 43.73 47.2301 43.73C47.2301 43.73 48.5201 30.91 41.4501 30.5C38.2701 30.32 34.8201 37.29 34.8201 37.29" fill="#635A4E"/>
<path d="M67.8301 37.29C67.8301 37.29 64.1101 44.98 60.9201 44.98C58.4801 44.98 55.4301 43.73 55.4301 43.73C55.4301 43.73 54.1401 30.91 61.2101 30.5C64.3901 30.32 67.8401 37.29 67.8401 37.29" fill="#635A4E"/>
<path d="M38.28 32.19C38.28 32.19 38.32 32.06 38.44 31.87C38.5 31.77 38.58 31.66 38.68 31.53C38.78 31.41 38.9 31.27 39.05 31.14C39.12 31.07 39.2 31 39.28 30.94C39.37 30.88 39.46 30.81 39.55 30.75C39.64 30.68 39.75 30.63 39.86 30.57C39.97 30.52 40.08 30.45 40.2 30.41C40.44 30.32 40.69 30.23 40.96 30.2C41.23 30.14 41.5 30.14 41.78 30.14C42.06 30.14 42.33 30.21 42.59 30.25C42.85 30.33 43.1 30.42 43.33 30.52C43.55 30.64 43.76 30.77 43.95 30.89C44.13 31.02 44.29 31.17 44.43 31.3C44.5 31.37 44.57 31.43 44.63 31.49C44.69 31.56 44.74 31.63 44.79 31.69C44.89 31.81 44.96 31.93 45.03 32.02C45.15 32.21 45.21 32.32 45.21 32.32C45.21 32.32 45.08 32.28 44.87 32.2C44.77 32.16 44.64 32.12 44.51 32.05C44.38 31.99 44.22 31.93 44.05 31.88C43.88 31.82 43.71 31.75 43.53 31.69C43.34 31.64 43.15 31.59 42.96 31.52C42.76 31.48 42.56 31.45 42.36 31.4C42.15 31.4 41.95 31.34 41.74 31.35C41.53 31.35 41.33 31.34 41.12 31.36C41.02 31.37 40.91 31.36 40.82 31.39C40.72 31.41 40.62 31.43 40.52 31.44C40.32 31.48 40.13 31.52 39.95 31.57C39.77 31.62 39.59 31.67 39.43 31.73C39.26 31.78 39.12 31.85 38.98 31.89C38.85 31.95 38.72 31.99 38.63 32.04C38.43 32.13 38.31 32.18 38.31 32.18L38.28 32.19Z" fill="#23180E"/>
<path d="M64.2501 32.19C64.2501 32.19 64.1301 32.14 63.9301 32.05C63.8301 32 63.7001 31.96 63.5801 31.9C63.4401 31.85 63.2901 31.79 63.1201 31.74C62.9601 31.68 62.7801 31.63 62.6001 31.58C62.4201 31.53 62.2201 31.49 62.0301 31.45C61.9301 31.44 61.8301 31.42 61.7301 31.4C61.6301 31.38 61.5301 31.39 61.4201 31.37C61.2201 31.34 61.0101 31.36 60.8001 31.36C60.5901 31.36 60.3901 31.41 60.1801 31.41C59.9801 31.46 59.7801 31.49 59.5801 31.53C59.3901 31.59 59.1901 31.65 59.0101 31.7C58.8301 31.76 58.6601 31.84 58.4901 31.89C58.3201 31.95 58.1601 32 58.0301 32.06C57.9001 32.12 57.7701 32.17 57.6701 32.21C57.4601 32.29 57.3301 32.32 57.3301 32.32C57.3301 32.32 57.3901 32.21 57.5101 32.02C57.5701 31.93 57.6501 31.81 57.7501 31.69C57.8001 31.63 57.8501 31.56 57.9101 31.49C57.9701 31.43 58.0401 31.36 58.1101 31.3C58.2501 31.17 58.4101 31.02 58.5901 30.89C58.7801 30.77 58.9901 30.64 59.2101 30.52C59.4401 30.42 59.6901 30.33 59.9501 30.25C60.2201 30.2 60.4901 30.14 60.7601 30.14C61.0401 30.14 61.3201 30.14 61.5801 30.2C61.8501 30.24 62.1001 30.33 62.3401 30.41C62.4601 30.45 62.5701 30.51 62.6801 30.57C62.7901 30.63 62.8901 30.68 62.9901 30.75C63.0801 30.82 63.1701 30.88 63.2601 30.94C63.3401 31.01 63.4201 31.08 63.4901 31.14C63.6401 31.27 63.7501 31.41 63.8601 31.53C63.9601 31.66 64.0401 31.77 64.1001 31.87C64.2201 32.06 64.2601 32.19 64.2601 32.19H64.2501Z" fill="#23180E"/>
<path d="M47.2301 43.7401C41.3601 46.5401 37.2301 44.7301 35.3601 37.4701C35.3601 37.4701 42.4201 31.9901 46.1701 39.0201C46.7501 40.1101 47.2201 43.7401 47.2201 43.7401" fill="white"/>
<path d="M41.56 44.2001C39.93 44.1601 38.56 42.8701 38.04 41.0801C37.88 40.5301 37.8 39.9401 37.81 39.3201C37.86 36.8201 39.41 35.9301 41.37 35.8701C41.49 35.8701 41.61 35.8701 41.74 35.8701C43.87 35.9201 45.48 38.1301 45.52 39.4801C45.59 42.1301 43.69 44.2501 41.57 44.2001" fill="#673E17"/>
<path d="M41.5801 43.52C40.3401 43.49 39.2601 42.43 38.8201 40.83C38.6801 40.32 38.6101 39.78 38.6201 39.22C38.6601 37.36 39.5401 36.46 41.4001 36.4C41.4901 36.4 41.5901 36.4 41.6801 36.4H41.7301C43.4101 36.44 44.6901 38.39 44.7101 39.4C44.7401 40.61 44.3401 41.77 43.6001 42.57C43.0401 43.18 42.3401 43.52 41.6301 43.52H41.5801Z" fill="#261A0F"/>
<path d="M55.41 43.7401C61.28 46.5401 65.41 44.7301 67.28 37.4701C67.28 37.4701 60.22 31.9901 56.47 39.0201C55.89 40.1101 55.42 43.7401 55.42 43.7401" fill="white"/>
<path d="M61.08 44.2001C62.71 44.1601 64.0801 42.8701 64.6001 41.0801C64.7601 40.5301 64.84 39.9401 64.83 39.3201C64.78 36.8201 63.23 35.9301 61.27 35.8701C61.15 35.8701 61.03 35.8701 60.9 35.8701C58.77 35.9201 57.16 38.1301 57.12 39.4801C57.05 42.1301 58.9501 44.2501 61.0701 44.2001" fill="#673E17"/>
<path d="M61.01 43.52C60.31 43.52 59.61 43.18 59.04 42.57C58.3 41.77 57.9 40.61 57.93 39.4C57.95 38.4 59.23 36.44 60.92 36.4H60.97C61.06 36.4 61.16 36.4 61.25 36.4C63.11 36.46 63.99 37.35 64.03 39.21C64.04 39.77 63.98 40.31 63.83 40.82C63.39 42.43 62.3001 43.49 61.0701 43.52H61.0201" fill="#261A0F"/>
<path d="M41.82 38.32C41.79 39.92 40.71 41.21 39.42 41.18C38.84 41.17 38.31 40.89 37.91 40.44C37.77 39.96 37.7 39.44 37.71 38.9C37.76 36.71 39.12 35.93 40.83 35.88C41.45 36.41 41.84 37.31 41.82 38.32Z" fill="white"/>
<path d="M43.8401 42.96C43.8301 43.5 43.4701 43.94 43.0301 43.93C42.5901 43.93 42.2501 43.47 42.2601 42.93C42.2701 42.39 42.6301 41.95 43.0701 41.96C43.5101 41.96 43.8501 42.42 43.8401 42.96Z" fill="white"/>
<path d="M60.9801 38.5601C60.9501 40.1701 59.8701 41.4501 58.5801 41.4201C58.0001 41.4101 57.4701 41.1301 57.0701 40.6801C56.9301 40.2001 56.8601 39.6801 56.8701 39.1401C56.9201 36.9501 58.2801 36.1701 59.9901 36.1201C60.6101 36.6501 61.0001 37.5501 60.9801 38.5601Z" fill="white"/>
<path d="M63.1601 42.96C63.1501 43.5 62.7901 43.94 62.3501 43.93C61.9101 43.93 61.57 43.47 61.58 42.93C61.59 42.39 61.95 41.95 62.39 41.96C62.83 41.96 63.1701 42.42 63.1601 42.96Z" fill="white"/>
<path d="M46.1801 44.2001C46.5301 44.0601 46.8801 43.9101 47.2401 43.7401C46.8801 43.9101 46.5301 44.0701 46.1801 44.2001Z" fill="#625A4F"/>
<path d="M47.2301 43.7401C47.2301 43.7401 46.7601 40.1101 46.1801 39.0201C44.7101 36.2701 42.7401 35.4401 40.8901 35.4401C42.7501 35.4401 44.7201 36.2801 46.1801 39.0201C46.7501 40.1001 47.2201 43.6301 47.2301 43.7401ZM35.6801 38.5901C35.5701 38.2301 35.4601 37.8601 35.3601 37.4801C35.4601 37.8701 35.5701 38.2401 35.6801 38.5901Z" fill="#625A4F"/>
<path d="M46.1801 44.2001C45.9901 43.1701 45.7301 42.0001 45.4401 41.4601C45.3901 41.3601 45.3301 41.2601 45.2801 41.1701C45.4501 40.6401 45.5301 40.0701 45.5101 39.4701C45.4701 38.1101 43.8601 35.9001 41.7301 35.8601C41.7101 35.8601 41.6901 35.8601 41.6801 35.8601C41.5801 35.8601 41.4701 35.8601 41.3701 35.8601C41.2001 35.8601 41.0301 35.8801 40.8601 35.9001C40.8501 35.9001 40.8401 35.8801 40.8301 35.8701C39.2801 35.9201 38.0301 36.5501 37.7601 38.2801C37.0301 38.5201 36.3801 38.8301 35.8701 39.1101C35.8101 38.9401 35.7501 38.7601 35.6901 38.5701C35.5801 38.2101 35.4701 37.8401 35.3701 37.4601C35.3701 37.4601 35.4201 37.4201 35.5201 37.3501C36.1201 36.9201 38.3801 35.4401 40.8501 35.4301H40.8801C42.7401 35.4301 44.7101 36.2701 46.1701 39.0101C46.7501 40.1001 47.2201 43.7301 47.2201 43.7301C46.8601 43.9001 46.5101 44.0501 46.1601 44.1901" fill="#E2E1E1"/>
<path d="M45.2801 41.1701C45.0801 40.8201 44.8701 40.5101 44.6601 40.2301C44.7001 39.9601 44.7101 39.6801 44.7101 39.4001C44.6801 38.4001 43.4101 36.4401 41.7301 36.4001H41.6801C41.5901 36.4001 41.4901 36.4001 41.4001 36.4001C41.3701 36.4001 41.3301 36.4001 41.3001 36.4001C41.1701 36.2101 41.0301 36.0401 40.8701 35.8901C41.0401 35.8701 41.2101 35.8601 41.3801 35.8501C41.4801 35.8501 41.5901 35.8501 41.6901 35.8501C41.7101 35.8501 41.7301 35.8501 41.7401 35.8501C43.8701 35.9001 45.4801 38.1101 45.5201 39.4601C45.5401 40.0601 45.4501 40.6301 45.2901 41.1601" fill="#67411D"/>
<path d="M44.66 40.23C43.8 39.09 42.8201 38.44 41.8201 38.13C41.8001 37.48 41.61 36.88 41.3 36.41C41.33 36.41 41.37 36.41 41.4 36.41C41.49 36.41 41.59 36.41 41.68 36.41H41.73C43.41 36.45 44.6901 38.4 44.7101 39.41C44.7101 39.69 44.71 39.97 44.66 40.24" fill="#2D2219"/>
<path d="M37.76 38.29C38.03 36.56 39.28 35.92 40.83 35.88C40.84 35.88 40.85 35.9 40.86 35.91C41.02 36.06 41.17 36.23 41.29 36.42C41.6 36.89 41.79 37.49 41.81 38.14C41.25 37.96 40.69 37.89 40.14 37.89C39.3 37.89 38.49 38.06 37.75 38.3" fill="#E2E1E1"/>
<path d="M57.51 50.0701C57.38 50.2201 57.21 50.3901 57.01 50.5801C56.81 50.7601 56.57 50.9401 56.28 51.0701C56.14 51.1301 55.97 51.1901 55.81 51.2201C55.72 51.2401 55.63 51.2501 55.54 51.2701C55.45 51.2801 55.36 51.2901 55.26 51.3001C54.88 51.3401 54.47 51.3601 54.05 51.3801C53.2 51.4201 52.3 51.4401 51.39 51.4401C51.3 51.4401 51.2 51.4401 51.11 51.4401C51.02 51.4401 50.92 51.4401 50.83 51.4401C49.93 51.4401 49.02 51.4201 48.17 51.3801C47.75 51.3601 47.3401 51.3401 46.9601 51.3001C46.8601 51.3001 46.77 51.2801 46.68 51.2701C46.6 51.2601 46.51 51.2401 46.41 51.2201C46.25 51.1801 46.09 51.1301 45.94 51.0701C45.65 50.9401 45.4101 50.7601 45.2101 50.5801C45.0101 50.3901 44.85 50.2201 44.72 50.0701C44.45 49.7801 44.29 49.6101 44.29 49.6101C44.29 49.6101 44.41 49.8101 44.62 50.1401C44.73 50.3101 44.86 50.5101 45.04 50.7301C45.22 50.9501 45.46 51.1901 45.78 51.3701C45.94 51.4601 46.11 51.5401 46.3 51.6001C46.39 51.6301 46.48 51.6601 46.58 51.6801C46.68 51.7001 46.78 51.7201 46.87 51.7401C47.26 51.8101 47.68 51.8701 48.11 51.9101C48.97 52.0001 49.88 52.0401 50.8 52.0501C50.9 52.0501 50.99 52.0501 51.08 52.0501C51.17 52.0501 51.27 52.0501 51.36 52.0501C52.28 52.0401 53.19 52.0001 54.05 51.9101C54.48 51.8701 54.89 51.8101 55.29 51.7401C55.39 51.7201 55.48 51.7001 55.58 51.6801C55.68 51.6601 55.78 51.6301 55.86 51.6001C56.05 51.5301 56.2201 51.4601 56.3801 51.3701C56.7001 51.1901 56.94 50.9501 57.12 50.7301C57.3 50.5101 57.43 50.3001 57.55 50.1401C57.77 49.8001 57.8801 49.6101 57.8801 49.6101C57.8801 49.6101 57.7301 49.7801 57.4601 50.0701H57.51Z" fill="#483C2C"/>
<path d="M56.46 44.2C56.12 44.07 55.76 43.91 55.4 43.74C55.4 43.74 55.4 43.71 55.41 43.65C55.41 43.71 55.4 43.74 55.4 43.74C55.76 43.91 56.11 44.06 56.46 44.2Z" fill="#625A4F"/>
<path d="M55.42 43.6501C55.5 43.0901 55.9401 40.0101 56.4601 39.0201C56.6401 38.6901 56.8201 38.3801 57.0201 38.1001C56.8301 38.3801 56.64 38.6801 56.47 39.0101C55.94 40.0001 55.5 43.0801 55.43 43.6401" fill="#625A4F"/>
<path d="M56.46 44.2001C56.11 44.0601 55.76 43.9101 55.4 43.7401C55.4 43.7401 55.4 43.7101 55.41 43.6501C55.49 43.0901 55.93 40.0101 56.45 39.0201C56.63 38.6901 56.81 38.3801 57 38.1101C56.92 38.4101 56.87 38.7501 56.86 39.1401C56.85 39.6801 56.92 40.2001 57.06 40.6801C57.13 40.7501 57.19 40.8201 57.27 40.8901C57.29 40.9901 57.32 41.0801 57.35 41.1801C57.3 41.2701 57.24 41.3701 57.19 41.4701C56.9 42.0101 56.64 43.1701 56.45 44.2001" fill="#E2E1E1"/>
<path d="M57.36 41.17C57.33 41.08 57.3 40.98 57.28 40.88C57.33 40.93 57.39 40.97 57.45 41.02C57.42 41.07 57.39 41.12 57.36 41.17Z" fill="#67411D"/>
<path d="M66.92 38.7101C67.05 38.3201 67.17 37.9001 67.28 37.4701C67.28 37.4701 67.23 37.4301 67.14 37.3601C67.23 37.4301 67.29 37.4701 67.29 37.4701C67.18 37.9001 67.06 38.3101 66.93 38.7101M58.8 36.3001C59.76 35.6701 60.77 35.4401 61.76 35.4401C60.78 35.4401 59.76 35.6701 58.81 36.3001" fill="#625A4F"/>
<path d="M66.7701 39.1201C66.2101 38.8101 65.4901 38.4701 64.6901 38.2301C64.2601 36.5501 62.9101 35.9201 61.2701 35.8701C61.1701 35.8701 61.0601 35.8701 60.9601 35.8701C60.9401 35.8701 60.9201 35.8701 60.9101 35.8701C60.4701 35.8701 60.0601 35.9801 59.6801 36.1401C59.3701 36.1701 59.0801 36.2201 58.8101 36.3001C59.7701 35.6701 60.7801 35.4401 61.7601 35.4401H61.7901C64.2701 35.4501 66.5501 36.9501 67.1301 37.3701C67.2201 37.4401 67.2701 37.4801 67.2701 37.4801C67.1601 37.9101 67.0401 38.3201 66.9101 38.7201C66.8601 38.8601 66.8201 39.0001 66.7701 39.1301" fill="#E2E1E1"/>
<path d="M64.7 38.2301C64.42 38.1501 64.14 38.0701 63.84 38.0101C63.49 36.9601 62.65 36.4501 61.25 36.4001C61.16 36.4001 61.06 36.4001 60.97 36.4001H60.92C60.72 36.4001 60.53 36.4401 60.34 36.4901C60.23 36.3501 60.1201 36.2301 59.9901 36.1201C59.8801 36.1201 59.78 36.1201 59.67 36.1401C60.05 35.9801 60.47 35.8801 60.9 35.8701C60.92 35.8701 60.94 35.8701 60.95 35.8701C61.05 35.8701 61.16 35.8701 61.26 35.8701C62.9 35.9201 64.26 36.5501 64.68 38.2301" fill="#67411D"/>
<path d="M60.9601 38.09C60.8901 37.48 60.6701 36.92 60.3401 36.49C60.5301 36.44 60.7201 36.4 60.9201 36.4H60.9701C61.0601 36.4 61.1601 36.4 61.2501 36.4C62.6501 36.44 63.4901 36.96 63.8401 38.01C63.4001 37.92 62.9501 37.87 62.4901 37.87C61.9801 37.87 61.4701 37.93 60.9501 38.08" fill="#2D2219"/>
<path d="M57.4501 41.0201C57.3901 40.9801 57.3401 40.9301 57.2801 40.8801C57.2101 40.8201 57.1401 40.7501 57.0701 40.6701C56.9301 40.1901 56.8601 39.6701 56.8701 39.1301C56.8701 38.7401 56.9301 38.4001 57.0101 38.1001C57.5601 37.3001 58.1601 36.7101 58.7901 36.3001C59.0601 36.2201 59.3601 36.1601 59.6601 36.1401C59.7601 36.1401 59.8701 36.1301 59.9801 36.1201C60.1101 36.2301 60.2201 36.3501 60.3301 36.4901C60.6601 36.9201 60.8801 37.4701 60.9501 38.0901C59.6901 38.4501 58.4601 39.3201 57.4401 41.0301" fill="#E2E1E1"/>
<path d="M47.2301 43.7401C47.1601 43.3801 47.0801 43.0201 47.0001 42.6701C46.9201 42.3101 46.8401 41.9501 46.7601 41.6001C46.6801 41.2501 46.5801 40.8901 46.4801 40.5501C46.3801 40.1901 46.2701 39.8801 46.1401 39.5501C46.0601 39.4001 45.9901 39.1901 45.9101 39.0801L45.6201 38.6301C45.4101 38.3401 45.2101 38.0501 44.9701 37.7901C44.8601 37.6601 44.7401 37.5301 44.6101 37.4101C44.4901 37.2901 44.3601 37.1701 44.2301 37.0601C44.1001 36.9501 43.9601 36.8401 43.8201 36.7501C43.6801 36.6501 43.5401 36.5601 43.3801 36.4801C43.0901 36.3101 42.7701 36.1901 42.4501 36.0901C42.1301 35.9901 41.7901 35.9301 41.4601 35.9001C41.1201 35.8801 40.7801 35.8701 40.4401 35.9001C40.1001 35.9301 39.7601 35.9901 39.4201 36.0701C38.7501 36.2301 38.0901 36.4701 37.4501 36.7801C37.1301 36.9301 36.8201 37.1001 36.5201 37.2801C36.2201 37.4601 35.9101 37.6601 35.6501 37.8501L35.8101 37.3701L36.0801 38.3201C36.1601 38.6401 36.2801 38.9401 36.3901 39.2501C36.5001 39.5601 36.6101 39.8701 36.7501 40.1601C36.8901 40.4501 37.0001 40.7701 37.1701 41.0401C37.3401 41.3201 37.4601 41.6201 37.6601 41.8701C37.8501 42.1201 38.0101 42.4101 38.2401 42.6401C38.4601 42.8701 38.6501 43.1301 38.9001 43.3201L39.2601 43.6301L39.6601 43.8901C39.9201 44.0801 40.2101 44.1901 40.5001 44.3201C40.7901 44.4501 41.1101 44.5001 41.4101 44.6101C41.7301 44.6501 42.0501 44.7201 42.3701 44.7301C42.6901 44.7301 43.0201 44.7601 43.3501 44.7201C43.6701 44.6801 44.0101 44.6801 44.3301 44.6001C44.6501 44.5301 44.9901 44.4901 45.3001 44.3801C45.6201 44.2801 45.9401 44.2001 46.2601 44.0901L47.2101 43.7501L47.2301 43.7401ZM47.2301 43.7401L46.3301 44.2001C46.0301 44.3501 45.7001 44.4601 45.3901 44.5901C45.0801 44.7301 44.7401 44.8001 44.4201 44.9101C44.1001 45.0301 43.7501 45.0601 43.4101 45.1401C43.0701 45.2201 42.7201 45.2001 42.3701 45.2401C42.0201 45.2401 41.6701 45.2101 41.3201 45.1801C40.9801 45.0901 40.6201 45.0601 40.2901 44.9301C39.9601 44.8001 39.6101 44.6901 39.3101 44.4901L38.8501 44.2201L38.4301 43.8901C38.1301 43.6801 37.9001 43.4201 37.6501 43.1601C37.3901 42.9101 37.2101 42.6101 36.9901 42.3301C36.7601 42.0601 36.6201 41.7401 36.4301 41.4401C36.2401 41.1401 36.1101 40.8201 35.9501 40.5101C35.7901 40.2001 35.6701 39.8701 35.5501 39.5501C35.4301 39.2301 35.3001 38.9001 35.2101 38.5701L34.9201 37.5801L34.8301 37.2901L35.0801 37.1001C35.4001 36.8601 35.7101 36.6501 36.0401 36.4601C36.3701 36.2701 36.7001 36.0901 37.0501 35.9301C37.7401 35.6101 38.4601 35.3501 39.2101 35.1801C39.5901 35.1001 39.9701 35.0401 40.3601 35.0201C40.7501 34.9901 41.1401 35.0101 41.5301 35.0501C41.9201 35.1001 42.3101 35.1801 42.6801 35.3101C42.8701 35.3801 43.0501 35.4401 43.2301 35.5301C43.4101 35.6101 43.5801 35.7001 43.7501 35.8101C43.9201 35.9101 44.0801 36.0201 44.2301 36.1401C44.3901 36.2501 44.5301 36.3801 44.6801 36.5101C44.8301 36.6401 44.9601 36.7801 45.0901 36.9201C45.2201 37.0601 45.3501 37.2001 45.4601 37.3601C45.7001 37.6601 45.8901 37.9801 46.0901 38.3101L46.3601 38.8101C46.4701 39.0101 46.5001 39.1601 46.5701 39.3401C46.6801 39.7001 46.7701 40.0901 46.8301 40.4501C46.9001 40.8101 46.9601 41.1801 47.0101 41.5401C47.1201 42.2701 47.1901 43.0001 47.2401 43.7301L47.2301 43.7401Z" fill="#23180E"/>
<path d="M55.41 43.7401C55.46 43.0101 55.53 42.2801 55.64 41.5501C55.69 41.1901 55.75 40.8201 55.82 40.4601C55.88 40.1001 55.98 39.7101 56.08 39.3501C56.15 39.1701 56.19 39.0201 56.29 38.8201L56.56 38.3201C56.75 38.0001 56.95 37.6701 57.19 37.3701C57.3 37.2101 57.43 37.0701 57.56 36.9301C57.69 36.7901 57.82 36.6501 57.97 36.5201C58.11 36.3901 58.25 36.2601 58.42 36.1501C58.57 36.0301 58.73 35.9201 58.9 35.8201C59.06 35.7101 59.24 35.6201 59.42 35.5401C59.59 35.4501 59.78 35.3801 59.97 35.3201C60.34 35.1901 60.73 35.1101 61.12 35.0601C61.51 35.0201 61.9 35.0001 62.29 35.0301C62.68 35.0501 63.06 35.1101 63.44 35.1901C64.19 35.3601 64.92 35.6201 65.6 35.9401C65.94 36.1001 66.28 36.2801 66.61 36.4701C66.94 36.6601 67.25 36.8701 67.57 37.1101L67.82 37.3001L67.73 37.5901L67.44 38.5801C67.35 38.9101 67.22 39.2301 67.1 39.5601C66.98 39.8901 66.86 40.2101 66.7 40.5201C66.55 40.8301 66.42 41.1501 66.22 41.4501C66.03 41.7401 65.88 42.0601 65.66 42.3401C65.44 42.6201 65.26 42.9201 65 43.1701C64.75 43.4301 64.52 43.6901 64.22 43.9001L63.8 44.2301L63.33 44.5001C63.03 44.7001 62.69 44.8101 62.35 44.9401C62.02 45.0701 61.66 45.1101 61.32 45.1901C60.97 45.2101 60.62 45.2501 60.27 45.2501C59.92 45.2201 59.57 45.2401 59.23 45.1501C58.89 45.0701 58.55 45.0401 58.22 44.9201C57.89 44.8101 57.56 44.7401 57.25 44.6001C56.94 44.4701 56.61 44.3601 56.31 44.2101L55.41 43.7501V43.7401ZM55.41 43.7401L56.36 44.0801C56.68 44.2001 57 44.2701 57.32 44.3701C57.64 44.4801 57.97 44.5101 58.29 44.5901C58.61 44.6701 58.95 44.6701 59.27 44.7101C59.6 44.7501 59.92 44.7101 60.25 44.7201C60.57 44.7101 60.89 44.6401 61.21 44.6001C61.51 44.5001 61.83 44.4501 62.12 44.3101C62.41 44.1801 62.71 44.0701 62.96 43.8801L63.36 43.6201L63.72 43.3101C63.97 43.1201 64.17 42.8601 64.39 42.6301C64.62 42.4101 64.77 42.1201 64.97 41.8601C65.17 41.6101 65.29 41.3001 65.46 41.0301C65.63 40.7601 65.74 40.4401 65.88 40.1501C66.02 39.8601 66.14 39.5501 66.24 39.2401C66.35 38.9301 66.47 38.6301 66.55 38.3101L66.82 37.3601L66.98 37.8401C66.72 37.6501 66.41 37.4501 66.11 37.2701C65.81 37.0901 65.5 36.9201 65.18 36.7701C64.55 36.4601 63.89 36.2201 63.21 36.0601C62.87 35.9901 62.53 35.9201 62.19 35.8901C61.85 35.8501 61.51 35.8601 61.17 35.8901C60.83 35.9201 60.5 35.9801 60.18 36.0801C59.86 36.1801 59.54 36.3001 59.24 36.4701C59.09 36.5401 58.94 36.6401 58.8 36.7401C58.65 36.8301 58.52 36.9401 58.39 37.0501C58.25 37.1501 58.13 37.2701 58.01 37.4001C57.88 37.5201 57.76 37.6501 57.65 37.7801C57.41 38.0401 57.21 38.3301 57 38.6201L56.72 39.0701C56.64 39.1801 56.57 39.3901 56.49 39.5401C56.36 39.8801 56.25 40.1901 56.15 40.5401C56.05 40.8901 55.95 41.2401 55.87 41.5901C55.78 41.9401 55.7 42.3001 55.63 42.6601C55.55 43.0201 55.47 43.3801 55.4 43.7301L55.41 43.7401Z" fill="#23180E"/>
<path d="M51.6001 67.9601C51.6001 67.9601 51.5701 68.1601 51.5101 68.5401C51.4501 68.9201 51.3501 69.4701 51.2101 70.1801C51.0701 70.8901 50.8801 71.7401 50.5801 72.7001C50.2801 73.6601 49.8901 74.7401 49.2301 75.8201C48.8901 76.3501 48.4801 76.8901 47.9401 77.3301C47.6701 77.5501 47.3701 77.7501 47.0401 77.9001C46.9601 77.9401 46.8701 77.9701 46.7901 78.0101L46.6601 78.0601H46.6301L46.6001 78.0801H46.5801L46.5201 78.1001C46.3501 78.1401 46.1901 78.1901 45.9901 78.2101C45.2301 78.3301 44.4601 78.1601 43.7601 77.8401C43.0701 77.5101 42.4401 77.0401 41.8601 76.5301C40.7001 75.4901 39.7001 74.2601 38.6101 73.0801C38.0701 72.4901 37.5101 71.9101 36.8901 71.4101C36.5801 71.1501 36.2601 70.9301 35.9101 70.7301C35.5701 70.5301 35.2001 70.4101 34.8101 70.2801C34.0501 70.0601 33.2401 69.9101 32.4601 70.0101C32.0701 70.0601 31.6901 70.1601 31.3301 70.3201C30.9801 70.4901 30.6601 70.7201 30.3901 70.9901C29.8401 71.5401 29.4801 72.2601 29.2501 73.0001C29.0201 73.7401 28.9301 74.5101 28.9101 75.2701C28.8701 76.7901 29.1401 78.2501 29.5601 79.5801C29.9901 80.9101 30.5901 82.1001 31.3201 83.0801C32.0401 84.0601 32.9101 84.8101 33.7901 85.2501C34.6701 85.7001 35.5601 85.8301 36.2601 85.8101C36.9701 85.7801 37.5201 85.6301 37.8801 85.5101C38.0601 85.4501 38.2001 85.3901 38.2901 85.3601C38.3801 85.3201 38.4301 85.3101 38.4301 85.3101C38.4301 85.3101 38.3801 85.3301 38.2901 85.3701C38.2001 85.4001 38.0601 85.4701 37.8801 85.5201C37.5201 85.6401 36.9701 85.8001 36.2601 85.8401C35.5501 85.8701 34.6601 85.7501 33.7601 85.3001C32.8601 84.8601 31.9801 84.1101 31.2401 83.1301C30.4901 82.1501 29.8701 80.9601 29.4201 79.6201C28.9801 78.2801 28.7001 76.8001 28.7101 75.2601C28.7301 74.4901 28.8101 73.7001 29.0401 72.9301C29.2601 72.1601 29.6301 71.4101 30.2101 70.8101C30.5001 70.5101 30.8401 70.2601 31.2201 70.0801C31.6001 69.9001 32.0101 69.7901 32.4201 69.7301C33.2601 69.6201 34.0901 69.7601 34.8901 69.9901C35.2701 70.1101 35.6901 70.2401 36.0501 70.4501C36.4201 70.6501 36.7601 70.8901 37.0801 71.1501C37.7301 71.6701 38.3001 72.2501 38.8501 72.8401C39.9501 74.0101 40.9701 75.2301 42.1101 76.2201C42.6701 76.7201 43.2801 77.1501 43.9201 77.4501C44.5601 77.7401 45.2501 77.8701 45.8901 77.7601C46.0401 77.7501 46.2101 77.6901 46.3801 77.6501L46.4401 77.6301H46.4601H46.4901L46.6001 77.5801C46.6801 77.5501 46.7501 77.5201 46.8201 77.4901C47.1101 77.3601 47.3701 77.1801 47.6101 76.9801C48.0901 76.5801 48.4601 76.0801 48.7701 75.5801C49.3801 74.5601 49.7501 73.5101 50.0301 72.5701C50.3001 71.6301 50.4801 70.7901 50.6101 70.0901C50.7401 69.3901 50.8301 68.8401 50.8801 68.4701C50.9401 68.0901 50.9701 67.8901 50.9701 67.8901C50.9901 67.7301 51.1501 67.6101 51.3101 67.6401C51.4701 67.6601 51.5901 67.8201 51.5601 67.9801L51.6001 67.9601Z" fill="#EE3052"/>
<path d="M54.69 55.3301C54.57 56.0101 54.45 56.7001 54.35 57.4101C53.54 62.9901 52.61 63.9401 53.48 66.0801C54.35 68.2201 52.84 68.4001 51.45 68.4001C51.39 68.4001 51.33 68.4001 51.28 68.3901C51.22 68.3901 51.17 68.4001 51.11 68.4001C49.72 68.4001 48.21 68.2201 49.08 66.0801C49.95 63.9401 49.0201 62.9901 48.2101 57.4101C48.1101 56.7001 47.99 56.0001 47.87 55.3301C47.04 50.6801 45.92 46.7901 46.12 43.8201C46.35 40.4101 49.68 38.4501 51.28 38.5301C52.89 38.4601 56.22 40.4201 56.45 43.8201C56.65 46.7901 55.53 50.6801 54.7 55.3301H54.69Z" fill="#635A4E"/>
<path d="M54.3501 57.97C53.5401 63.27 52.6101 64.17 53.4801 66.2C54.3501 68.23 52.8401 68.4 51.4501 68.4C51.3901 68.4 51.3301 68.4 51.2801 68.39C51.2201 68.39 51.1701 68.4 51.1101 68.4C49.7201 68.4 48.2101 68.23 49.0801 66.2C49.9501 64.17 49.0201 63.27 48.2101 57.97C48.1101 57.3 48.1001 56.6 47.9801 55.95C49.0501 55.56 50.0901 55.38 51.2901 55.38C52.4901 55.38 53.5301 55.55 54.6001 55.95C54.4801 56.59 54.4701 57.29 54.3701 57.97H54.3501Z" fill="#5B5C5C"/>
<path d="M51.76 67.8801C51.76 67.8801 51.79 66.7001 52.5 66.5701C53.21 66.4401 53.55 66.7201 53.18 66.9801C52.81 67.2401 52.43 67.2401 52.3 67.5401C52.18 67.8401 52.18 68.2101 51.76 67.8801Z" fill="#050606"/>
<path d="M50.8001 67.85C50.8001 67.85 50.7401 66.67 50.0301 66.56C49.3101 66.44 48.9801 66.74 49.3601 66.99C49.7401 67.24 50.1201 67.23 50.2501 67.53C50.3801 67.82 50.3801 68.2 50.8001 67.86V67.85Z" fill="#050606"/>
<path d="M34.8001 27.99C33.2301 26.7 31.0001 24.87 29.0201 23.23C27.6801 22.12 27.6401 21.73 27.6901 20.26C27.7701 17.59 28.9201 17.55 29.5401 17.53H29.5701C30.9901 17.53 33.0001 20.73 33.5701 22.41C33.9401 23.48 34.9401 25.41 35.6701 26.74L34.8001 27.99Z" fill="#E48F8C"/>
<path d="M66.8801 26.73C67.6001 25.4 68.6101 23.47 68.9801 22.4C69.5501 20.72 71.5601 17.52 72.9801 17.52H73.0101C73.6301 17.54 74.7801 17.58 74.8601 20.26C74.9001 21.74 74.8601 22.13 73.5301 23.23C71.5501 24.86 69.3201 26.7 67.7501 27.99L66.8801 26.74V26.73Z" fill="#E48F8C"/>
</svg>
