<svg width="102" height="101" viewBox="0 0 102 101" fill="none" xmlns="http://www.w3.org/2000/svg">
<path d="M92.67 0H9.08002C4.29171 0 0.410034 3.88169 0.410034 8.67V92.26C0.410034 97.0483 4.29171 100.93 9.08002 100.93H92.67C97.4584 100.93 101.34 97.0483 101.34 92.26V8.67C101.34 3.88169 97.4584 0 92.67 0Z" fill="#94A4A5"/>
<path d="M51.1 75.78C46.94 75.78 41.6 74.54 37.13 72.54C25.61 69.64 23.82 62.05 24.69 51.53C24.84 49.65 25.17 47.84 25.66 46.12C22.55 43.91 20.67 40.26 20.59 36.12C20.46 29.24 25.95 23.54 32.83 23.4C32.91 23.4 32.99 23.4 33.08 23.4C37.71 23.4 41.91 25.95 44.06 29.98C46.17 29.59 48.42 29.39 50.78 29.39H51.08H51.36C53.69 29.39 55.92 29.58 58.01 29.97C60.17 25.94 64.36 23.4 68.99 23.4C69.07 23.4 69.15 23.4 69.24 23.4C72.57 23.46 75.68 24.82 77.99 27.22C80.3 29.62 81.54 32.78 81.47 36.11C81.39 40.21 79.54 43.85 76.47 46.06C76.97 47.79 77.3 49.62 77.45 51.51C77.67 54.12 77.69 56.34 77.52 58.29C77.52 58.3 77.52 58.32 77.52 58.33C77.52 58.37 77.52 58.39 77.52 58.43C77.51 58.57 77.49 58.71 77.48 58.85C77.48 58.88 77.48 58.92 77.47 58.95C76.72 65.84 73.21 70.03 66.46 72.12C61.98 74.31 56.38 75.66 51.46 75.76H51.12L51.1 75.78Z" fill="#2F150C"/>
<path d="M27.31 45.52C26.66 47.47 26.26 49.53 26.08 51.65C25.19 62.41 27.4 68.7 37.59 71.21C42.27 73.32 47.43 74.37 51.1 74.37C51.21 74.37 51.31 74.37 51.41 74.37C55.84 74.29 61.27 73.11 65.91 70.83C72.6 68.8 75.4 64.85 76.05 58.75V58.72C76.07 58.59 76.08 58.47 76.1 58.34C76.1 58.31 76.1 58.27 76.1 58.24C76.27 56.26 76.23 54.07 76.03 51.65C75.85 49.52 75.45 47.44 74.79 45.48C78.03 43.6 79.97 40.12 80.05 36.1C80.17 29.98 75.31 24.93 69.19 24.81C64.53 24.72 60.5 27.52 58.79 31.57C56.55 31.08 54.08 30.81 51.35 30.81C51.25 30.81 51.16 30.81 51.06 30.81C50.96 30.81 50.87 30.81 50.77 30.81C48.01 30.81 45.52 31.09 43.26 31.59C41.55 27.54 37.52 24.73 32.85 24.82C26.73 24.94 21.87 29.99 21.99 36.11C22.07 40.16 24.03 43.66 27.31 45.53V45.52Z" fill="#2F150C"/>
<path d="M73.9 43.1101C76.06 41.7201 77.47 39.4801 77.75 36.8001C77.77 36.5601 77.78 36.3101 77.78 36.0601C77.78 31.1701 73.82 27.2101 68.93 27.2101C67.37 27.2101 65.91 27.6101 64.64 28.3201C63.08 29.2901 61.81 30.7001 61.02 32.2901C61 32.2901 60.08 34.7001 60.08 36.0601C60.08 40.9401 64.04 44.9101 68.92 44.9101C70.8 44.9101 73.91 43.1801 73.88 43.1101H73.9Z" fill="#D69891"/>
<path d="M28.13 43.1101C25.97 41.7201 24.56 39.4801 24.28 36.8001C24.26 36.5601 24.25 36.3101 24.25 36.0601C24.25 31.1701 28.21 27.2101 33.09 27.2101C34.65 27.2101 36.11 27.6101 37.38 28.3201C38.94 29.2901 40.21 30.7001 41 32.2901C41.02 32.2901 41.94 34.7001 41.94 36.0601C41.94 40.9401 37.98 44.9101 33.09 44.9101C31.21 44.9101 28.1 43.1801 28.13 43.1101Z" fill="#D69891"/>
<path d="M73.54 43.2101C75.87 41.7201 77.49 39.0301 77.55 36.0501C77.64 31.3101 73.88 27.4001 69.14 27.3101C65.71 27.2401 62.6 29.5801 61.17 32.4601C60.61 32.3201 58.98 31.8701 58.64 31.9001C60.26 27.6701 64.4 24.7101 69.19 24.8101C75.3 24.9301 80.17 29.9801 80.05 36.1001C79.97 40.2001 77.96 43.7501 74.61 45.5901C74.48 44.7701 73.88 44.0301 73.54 43.2101Z" fill="#77502F"/>
<path d="M28.49 43.2101C26.16 41.7201 24.54 39.0301 24.48 36.0501C24.39 31.3101 28.15 27.4001 32.89 27.3101C36.32 27.2401 39.43 29.5801 40.86 32.4601C41.42 32.3201 43.06 31.8701 43.4 31.9001C41.77 27.6701 37.64 24.7101 32.85 24.8101C26.73 24.9301 21.87 29.9801 21.99 36.1001C22.07 40.2001 24.08 43.7501 27.43 45.5901C27.56 44.7701 28.16 44.0301 28.5 43.2101H28.49Z" fill="#77502F"/>
<path d="M76.0299 51.6501C75.0999 40.4201 67.7599 30.8 51.3399 30.8C51.2399 30.8 51.1499 30.8 51.0499 30.8C50.9499 30.8 50.86 30.8 50.76 30.8C34.34 30.8 27 40.4101 26.07 51.6501C25.18 62.4101 27.3899 68.7 37.5799 71.21C42.2599 73.32 47.4199 74.3701 51.0899 74.3701C51.1999 74.3701 51.2999 74.3701 51.3999 74.3701C55.8299 74.2901 61.2599 73.1101 65.8999 70.8301C72.5899 68.8001 75.39 64.85 76.04 58.75V58.7201C76.06 58.5901 76.0699 58.47 76.0899 58.34C76.0899 58.31 76.0899 58.2701 76.0899 58.2401C76.2599 56.2601 76.2199 54.0701 76.0199 51.6501" fill="#77502F"/>
<path d="M51.1 74.3701C47.24 74.3701 42.23 73.1501 38.04 71.1701L37.95 71.1301L37.86 71.1101C29 68.8301 26.2 63.8001 27.14 51.8601C27.61 45.9001 29.76 40.8601 33.36 37.3001C37.49 33.2101 43.35 31.1401 50.78 31.1401H51.07H51.36C58.79 31.1401 64.65 33.2101 68.78 37.3001C72.38 40.8601 74.53 45.9001 75 51.8601C75.2 54.4501 75.23 56.6401 75.07 58.5501V58.6301C75.06 58.7701 75.05 58.8901 75.03 59.0001V59.0401C74.38 65.3701 71.56 68.8601 65.61 70.7401L65.53 70.7701L65.45 70.8101C61.26 72.9601 56.01 74.2901 51.4 74.3801H51.11" fill="#8C6237"/>
<path d="M30.2 53.1001C30.2 53.1001 35.0399 63.1101 39.1899 63.1101C42.3599 63.1101 46.3299 61.4801 46.3299 61.4801C46.3299 61.4801 48.0199 44.8101 38.8199 44.2801C34.6799 44.0401 30.2 53.1001 30.2 53.1001Z" fill="#77502F"/>
<path d="M71.0099 53.1001C71.0099 53.1001 66.1699 63.1101 62.0299 63.1101C58.8599 63.1101 54.8799 61.4801 54.8799 61.4801C54.8799 61.4801 53.2 44.8101 62.3899 44.2801C66.5299 44.0401 71.0099 53.1001 71.0099 53.1001Z" fill="#77502F"/>
<path d="M34.7099 46.47C34.7099 46.47 34.7199 46.43 34.7599 46.36C34.7999 46.29 34.8499 46.19 34.9299 46.07C35.0099 45.94 35.1199 45.8 35.2499 45.65C35.3899 45.5 35.5399 45.32 35.7299 45.16C35.8199 45.08 35.9299 44.99 36.0299 44.91C36.1499 44.83 36.2599 44.75 36.3799 44.67C36.4999 44.58 36.6399 44.52 36.7799 44.45C36.9199 44.38 37.0599 44.3 37.2099 44.25C37.5199 44.14 37.8399 44.02 38.1899 43.98C38.5299 43.9 38.8899 43.91 39.2399 43.9C39.5899 43.9 39.9399 43.99 40.2799 44.04C40.6099 44.14 40.9299 44.25 41.2299 44.38C41.5099 44.53 41.7799 44.69 42.0299 44.84C42.2699 45.01 42.4699 45.2 42.6599 45.36C42.7499 45.45 42.8399 45.52 42.9199 45.6C42.9999 45.68 43.0599 45.77 43.1299 45.85C43.2599 46.01 43.3599 46.15 43.4499 46.27C43.6199 46.5 43.6999 46.65 43.6999 46.65C43.6999 46.65 43.5399 46.6 43.2699 46.49C43.1399 46.43 42.9799 46.37 42.8099 46.29C42.6499 46.2 42.4399 46.13 42.2199 46.05C41.9999 45.97 41.7799 45.87 41.5399 45.78C41.2899 45.71 41.0399 45.63 40.7899 45.55C40.5299 45.49 40.2599 45.45 39.9899 45.38C39.8499 45.37 39.7199 45.36 39.5799 45.34C39.4499 45.33 39.3099 45.29 39.1699 45.31C38.8899 45.31 38.6199 45.29 38.3499 45.33C38.2199 45.35 38.0799 45.33 37.9499 45.37C37.8199 45.4 37.6899 45.42 37.5499 45.44C37.4199 45.45 37.2999 45.51 37.1699 45.53C37.0499 45.56 36.9199 45.59 36.7999 45.63C36.5599 45.7 36.3299 45.77 36.1199 45.86C35.8999 45.93 35.7099 46.02 35.5299 46.09C35.3699 46.17 35.1999 46.23 35.0799 46.3C34.9499 46.36 34.8499 46.41 34.7799 46.44C34.7099 46.47 34.6699 46.49 34.6699 46.49L34.7099 46.47Z" fill="#38281C"/>
<path d="M66.38 46.4701C66.38 46.4701 66.34 46.4501 66.27 46.4201C66.2 46.3901 66.1 46.3401 65.97 46.2801C65.85 46.2201 65.68 46.1601 65.52 46.0701C65.34 46.0001 65.15 45.9101 64.93 45.8401C64.72 45.7601 64.49 45.6801 64.25 45.6101C64.13 45.5701 64 45.5401 63.88 45.5101C63.75 45.4901 63.63 45.4301 63.5 45.4201C63.37 45.4001 63.24 45.3801 63.11 45.3501C62.98 45.3201 62.84 45.3301 62.71 45.3101C62.44 45.2701 62.16 45.2901 61.89 45.2901C61.75 45.2801 61.62 45.3101 61.48 45.3201C61.35 45.3401 61.21 45.3501 61.07 45.3601C60.8 45.4301 60.53 45.4801 60.27 45.5301C60.02 45.6201 59.77 45.6901 59.52 45.7601C59.28 45.8401 59.06 45.9501 58.84 46.0301C58.62 46.1101 58.42 46.1801 58.25 46.2701C58.08 46.3501 57.92 46.4201 57.79 46.4701C57.53 46.5801 57.37 46.6301 57.37 46.6301C57.37 46.6301 57.45 46.4901 57.62 46.2501C57.7 46.1301 57.81 45.9901 57.94 45.8301C58 45.7501 58.07 45.6601 58.15 45.5801C58.23 45.5001 58.32 45.4201 58.41 45.3401C58.6 45.1801 58.8 44.9901 59.04 44.8201C59.29 44.6701 59.56 44.5101 59.84 44.3601C60.14 44.2401 60.46 44.1201 60.79 44.0201C61.13 43.9601 61.48 43.8801 61.83 43.8801C62.19 43.8801 62.54 43.8801 62.88 43.9601C63.23 44.0001 63.55 44.1201 63.86 44.2301C64.01 44.2801 64.15 44.3601 64.29 44.4301C64.43 44.5001 64.57 44.5601 64.69 44.6501C64.81 44.7301 64.93 44.8101 65.04 44.8901C65.15 44.9701 65.25 45.0601 65.34 45.1401C65.54 45.3001 65.68 45.4801 65.82 45.6301C65.95 45.7901 66.05 45.9301 66.13 46.0501C66.21 46.1701 66.27 46.2701 66.3 46.3401C66.34 46.4101 66.35 46.4501 66.35 46.4501L66.38 46.4701Z" fill="#38281C"/>
<path d="M46.3499 61.4801C38.7099 65.1201 33.3399 62.7601 30.9199 53.3301C30.9199 53.3301 40.0999 46.2001 44.9799 55.3401C45.7399 56.7601 46.3499 61.4701 46.3499 61.4701" fill="white"/>
<path d="M38.98 62.0801C36.86 62.0301 35.08 60.3601 34.4 58.0201C34.19 57.3101 34.08 56.5301 34.1 55.7301C34.17 52.4801 36.19 51.3201 38.73 51.2501C38.89 51.2501 39.05 51.2501 39.2 51.2501C41.97 51.3101 44.07 54.1901 44.12 55.9501C44.21 59.4001 41.74 62.1501 38.98 62.0901" fill="#64413F"/>
<path d="M39 61.2001C37.39 61.1601 35.98 59.7901 35.41 57.7001C35.22 57.0301 35.14 56.3301 35.15 55.6101C35.2 53.1901 36.34 52.0201 38.76 51.9501C38.88 51.9501 39.01 51.9501 39.12 51.9501H39.19C41.37 52.0001 43.03 54.5401 43.07 55.8501C43.11 57.4301 42.58 58.9301 41.62 59.9801C40.89 60.7801 39.98 61.2201 39.06 61.2201H39" fill="#4F3231"/>
<path d="M54.88 61.4801C62.51 65.1201 67.89 62.7601 70.31 53.3301C70.31 53.3301 61.13 46.2001 56.25 55.3401C55.49 56.7601 54.88 61.4701 54.88 61.4701" fill="white"/>
<path d="M62.26 62.0801C64.38 62.0301 66.1599 60.3601 66.8399 58.0201C67.0499 57.3101 67.16 56.5301 67.14 55.7301C67.07 52.4801 65.05 51.3201 62.51 51.2501C62.35 51.2501 62.1899 51.2501 62.0299 51.2501C59.2699 51.3101 57.1699 54.1901 57.1199 55.9501C57.0299 59.4001 59.5 62.1501 62.26 62.0901" fill="#64413F"/>
<path d="M62.17 61.2001C61.26 61.2001 60.3399 60.7601 59.6099 59.9601C58.6499 58.9201 58.1199 57.4101 58.1599 55.8301C58.1899 54.5201 59.8599 51.9801 62.0499 51.9301H62.1099C62.2299 51.9301 62.3499 51.9301 62.4699 51.9301C64.8799 52.0101 66.0299 53.1701 66.0799 55.5901C66.0899 56.3101 66.01 57.0101 65.82 57.6801C65.24 59.7801 63.8299 61.1501 62.2199 61.1901H62.1599" fill="#4F3231"/>
<path d="M39.3099 54.4301C39.2599 56.5201 37.8699 58.1901 36.1899 58.1501C35.4299 58.1301 34.7499 57.7701 34.2299 57.1901C34.0499 56.5701 33.9499 55.8901 33.9699 55.1801C34.0299 52.3301 35.7999 51.3201 38.0299 51.2501C38.8299 51.9501 39.3399 53.1101 39.3199 54.4201" fill="white"/>
<path d="M41.95 60.4701C41.94 61.1801 41.4599 61.7401 40.8999 61.7301C40.3299 61.7201 39.8799 61.1301 39.8999 60.4301C39.9099 59.7201 40.3899 59.1601 40.9599 59.1701C41.5299 59.1801 41.9699 59.7601 41.9599 60.4701H41.95Z" fill="white"/>
<path d="M62.13 54.7501C62.08 56.8401 60.69 58.5101 59.01 58.4701C58.25 58.4501 57.5699 58.0901 57.0499 57.5101C56.8599 56.8901 56.77 56.2101 56.79 55.5001C56.85 52.6501 58.62 51.6401 60.85 51.5701C61.65 52.2601 62.16 53.4301 62.14 54.7401" fill="white"/>
<path d="M59.0699 68.7001C59.0699 71.6201 55.6599 73.9901 51.0499 73.9901C46.4399 73.9901 43.1899 71.4801 43.1899 68.5501C43.1899 65.6201 46.4299 61.7301 51.0399 61.7301C55.6499 61.7301 59.0699 65.7701 59.0699 68.7001Z" fill="#7A5230"/>
<path d="M64.9699 60.4701C64.9499 61.1801 64.4799 61.7401 63.9099 61.7301C63.3399 61.7201 62.8899 61.1301 62.9099 60.4301C62.9299 59.7201 63.3999 59.1601 63.9699 59.1701C64.5399 59.1801 64.9899 59.7601 64.9699 60.4701Z" fill="white"/>
<path d="M46.3399 61.3701C46.2499 60.6601 45.6699 56.6401 44.9799 55.3401C43.0699 51.7701 40.5099 50.6801 38.0899 50.6801C37.8799 50.6801 37.6699 50.6801 37.4599 50.7001C37.6699 50.6801 37.8799 50.6801 38.0999 50.6801C40.5099 50.6801 43.0799 51.7701 44.9799 55.3401C45.6699 56.6301 46.2399 60.6501 46.3399 61.3701Z" fill="#745134"/>
<path d="M44.9799 62.08C44.7299 60.73 44.3899 59.22 44.0199 58.52C43.9499 58.39 43.8799 58.27 43.8099 58.14C44.0199 57.46 44.1399 56.71 44.1099 55.93C44.0599 54.17 41.9599 51.29 39.1899 51.23C39.1699 51.23 39.1499 51.23 39.1299 51.23C38.9899 51.23 38.8599 51.23 38.7199 51.23C38.4899 51.23 38.2699 51.25 38.0599 51.28C38.0499 51.27 38.0299 51.26 38.0199 51.24C36.0099 51.3 34.3799 52.13 34.0299 54.38C33.0799 54.69 32.2399 55.09 31.5699 55.46C31.4999 55.26 31.4299 55.06 31.3699 54.85C31.2099 54.36 31.0699 53.85 30.9299 53.31C30.9799 53.27 33.9899 50.95 37.4699 50.69C37.6799 50.67 37.8899 50.67 38.0999 50.67C40.5199 50.67 43.0799 51.76 44.9899 55.33C45.6799 56.62 46.2499 60.65 46.3499 61.36C46.3599 61.43 46.3599 61.47 46.3599 61.47C45.8899 61.69 45.4399 61.89 44.9899 62.07" fill="#E2E1E1"/>
<path d="M43.8099 58.1501C43.5499 57.7001 43.2799 57.2901 42.9999 56.9201C43.0499 56.5701 43.0699 56.2101 43.0599 55.8401C43.0199 54.5301 41.3599 51.9901 39.1799 51.9401H39.1099C38.9899 51.9401 38.8699 51.9401 38.7499 51.9401C38.7099 51.9401 38.6699 51.9401 38.6199 51.9401C38.4599 51.6901 38.2699 51.4701 38.0599 51.2801C38.2699 51.2601 38.4899 51.2401 38.7199 51.2301C38.8599 51.2301 38.9899 51.2301 39.1299 51.2301C39.1499 51.2301 39.1699 51.2301 39.1899 51.2301C41.9599 51.2901 44.0599 54.1701 44.1099 55.9301C44.1299 56.7101 44.0199 57.4501 43.8099 58.1401" fill="#624341"/>
<path d="M43 56.9201C41.88 55.4401 40.6 54.6001 39.31 54.1901C39.28 53.3501 39.03 52.5701 38.63 51.9601C38.67 51.9601 38.71 51.9601 38.76 51.9601C38.88 51.9601 39.01 51.9601 39.12 51.9601H39.19C41.37 52.0101 43.03 54.5501 43.07 55.8601C43.07 56.2301 43.06 56.5901 43.01 56.9401" fill="#513635"/>
<path d="M34.03 54.4001C34.38 52.1501 36.01 51.3201 38.02 51.2601C38.03 51.2701 38.05 51.2801 38.06 51.3001C38.27 51.4901 38.46 51.7101 38.62 51.9601C39.02 52.5701 39.27 53.3501 39.3 54.1901C38.57 53.9601 37.85 53.8601 37.13 53.8601C36.04 53.8601 34.98 54.0801 34.03 54.4001Z" fill="#E2E1E1"/>
<path d="M56.25 62.0801C55.8 61.9101 55.34 61.7101 54.88 61.4801C54.88 61.4801 54.88 61.4801 54.88 61.4701C55.35 61.7001 55.8 61.9001 56.25 62.0801Z" fill="#86613B"/>
<path d="M54.88 61.47C54.92 61.2 55.52 56.72 56.25 55.34C56.48 54.91 56.72 54.51 56.97 54.15C56.72 54.52 56.48 54.91 56.25 55.35C55.51 56.73 54.91 61.24 54.88 61.47Z" fill="#745134"/>
<path d="M56.25 62.08C55.8 61.9 55.35 61.7 54.88 61.48C54.91 61.24 55.51 56.73 56.25 55.35C56.48 54.92 56.72 54.52 56.97 54.16C56.86 54.55 56.79 55 56.78 55.5C56.77 56.2 56.86 56.88 57.04 57.51C57.13 57.61 57.22 57.7 57.31 57.78C57.34 57.91 57.38 58.03 57.42 58.15C57.35 58.27 57.28 58.4 57.21 58.53C56.84 59.23 56.5 60.74 56.25 62.09" fill="#E2E1E1"/>
<path d="M57.42 58.15C57.38 58.03 57.3499 57.9 57.3099 57.78C57.3799 57.84 57.4499 57.9 57.5299 57.96C57.4899 58.02 57.4499 58.09 57.4099 58.16" fill="#624341"/>
<path d="M59.29 51.8101C60.53 50.9901 61.86 50.6901 63.13 50.6901C63.35 50.6901 63.57 50.6901 63.79 50.7201C63.57 50.7001 63.35 50.6901 63.13 50.6901C61.85 50.6901 60.53 50.9901 59.29 51.8101Z" fill="#745134"/>
<path d="M69.66 55.4801C68.93 55.0801 68 54.6401 66.96 54.3201C66.41 52.1301 64.64 51.3101 62.51 51.2501C62.37 51.2501 62.24 51.2501 62.1 51.2501C62.08 51.2501 62.05 51.2501 62.03 51.2501C61.47 51.2601 60.93 51.3901 60.43 51.6101C60.03 51.6401 59.65 51.7101 59.29 51.8201C60.53 51.0001 61.85 50.7001 63.13 50.7001C63.35 50.7001 63.57 50.7001 63.79 50.7301C67.26 51.0001 70.26 53.3101 70.31 53.3501C70.17 53.9001 70.02 54.4201 69.86 54.9201C69.79 55.1201 69.73 55.3101 69.66 55.5001" fill="#E2E1E1"/>
<path d="M66.9599 54.3201C66.5999 54.2101 66.2299 54.1101 65.8499 54.0401C65.3999 52.6801 64.3 52.0101 62.4799 51.9501C62.3599 51.9501 62.2299 51.9501 62.1199 51.9501H62.0599C61.7999 51.9501 61.5499 52.0001 61.2999 52.0701C61.1599 51.8901 61.0099 51.7301 60.8399 51.5801C60.6999 51.5801 60.5599 51.5901 60.4299 51.6001C60.9299 51.3901 61.4699 51.2601 62.0299 51.2401C62.0499 51.2401 62.0699 51.2401 62.0999 51.2401C62.2399 51.2401 62.3699 51.2401 62.5099 51.2401C64.6499 51.3001 66.4099 52.1301 66.9599 54.3101" fill="#624341"/>
<path d="M62.0999 54.1301C62.0099 53.3301 61.7199 52.6101 61.2999 52.0501C61.5499 51.9801 61.7999 51.9401 62.0599 51.9301H62.1199C62.2399 51.9301 62.3599 51.9301 62.4799 51.9301C64.3 51.9901 65.3999 52.6601 65.8499 54.0201C65.2899 53.9101 64.6999 53.8401 64.0999 53.8401C63.4399 53.8401 62.7699 53.9201 62.0999 54.1101" fill="#513635"/>
<path d="M57.54 57.9501C57.46 57.9001 57.39 57.8401 57.32 57.7701C57.23 57.6901 57.1399 57.6001 57.0499 57.5001C56.8599 56.8801 56.77 56.2001 56.79 55.4901C56.8 54.9901 56.86 54.5401 56.98 54.1501C57.7 53.1001 58.4799 52.3401 59.2999 51.8001C59.6599 51.6901 60.04 51.6201 60.44 51.5901C60.58 51.5801 60.71 51.5701 60.85 51.5701C61.01 51.7101 61.17 51.8801 61.31 52.0601C61.74 52.6201 62.0199 53.3401 62.1099 54.1401C60.4799 54.6101 58.8699 55.7401 57.5499 57.9601" fill="#E2E1E1"/>
<path d="M46.35 61.4801C46.26 61.0101 46.15 60.5501 46.05 60.0801C45.95 59.6201 45.85 59.1501 45.73 58.6901C45.62 58.2301 45.5 57.7701 45.37 57.3201C45.24 56.8501 45.09 56.4501 44.92 56.0201C44.82 55.8201 44.72 55.5501 44.63 55.4101L44.26 54.8201C43.99 54.4401 43.73 54.0701 43.42 53.7301C43.28 53.5501 43.12 53.3901 42.96 53.2301C42.8 53.0701 42.64 52.9101 42.46 52.7801C42.29 52.6301 42.12 52.4901 41.92 52.3801C41.74 52.2501 41.55 52.1301 41.35 52.0301C40.97 51.8101 40.55 51.6601 40.13 51.5201C39.71 51.3901 39.28 51.3101 38.84 51.2701C38.4 51.2401 37.96 51.2301 37.51 51.2701C37.07 51.3001 36.62 51.3901 36.19 51.4901C35.31 51.7001 34.46 52.0101 33.63 52.4101C33.22 52.6101 32.81 52.8301 32.42 53.0601C32.03 53.2901 31.63 53.5501 31.29 53.8001L31.5 53.1701L31.85 54.4101C31.96 54.8301 32.12 55.2201 32.26 55.6201C32.4 56.0201 32.55 56.4301 32.73 56.8001C32.91 57.1801 33.06 57.5901 33.28 57.9401C33.49 58.3001 33.66 58.7001 33.92 59.0301C34.17 59.3601 34.37 59.7401 34.67 60.0301C34.95 60.3301 35.21 60.6601 35.53 60.9101L36 61.3201L36.52 61.6501C36.85 61.9001 37.24 62.0401 37.61 62.2101C37.99 62.3801 38.4 62.4501 38.79 62.5801C39.2 62.6301 39.62 62.7201 40.04 62.7401C40.46 62.7301 40.89 62.7801 41.32 62.7201C41.74 62.6701 42.18 62.6701 42.6 62.5601C43.02 62.4601 43.46 62.4201 43.87 62.2801C44.28 62.1501 44.71 62.0501 45.12 61.9001L46.36 61.4601L46.35 61.4801ZM46.35 61.4801L45.18 62.0901C44.79 62.2901 44.37 62.4301 43.96 62.6001C43.55 62.7901 43.12 62.8801 42.69 63.0201C42.27 63.1701 41.82 63.2201 41.38 63.3101C40.94 63.4201 40.48 63.3901 40.03 63.4401C39.57 63.4501 39.12 63.4001 38.66 63.3701C38.22 63.2601 37.75 63.2101 37.32 63.0401C36.89 62.8701 36.44 62.7301 36.05 62.4701L35.45 62.1201L34.9 61.6901C34.51 61.4201 34.21 61.0701 33.89 60.7401C33.55 60.4201 33.32 60.0201 33.02 59.6601C32.73 59.3001 32.54 58.8901 32.29 58.5001C32.04 58.1101 31.87 57.7001 31.67 57.2901C31.46 56.8801 31.31 56.4601 31.15 56.0401C31 55.6201 30.82 55.2001 30.71 54.7701L30.33 53.4801L30.22 53.1001L30.55 52.8501C30.97 52.5301 31.37 52.2701 31.8 52.0201C32.23 51.7701 32.66 51.5401 33.11 51.3301C34 50.9101 34.94 50.5801 35.92 50.3501C36.41 50.2501 36.91 50.1701 37.42 50.1501C37.92 50.1101 38.44 50.1401 38.94 50.1901C39.45 50.2501 39.95 50.3601 40.44 50.5301C40.68 50.6201 40.92 50.7001 41.15 50.8201C41.38 50.9301 41.61 51.0401 41.82 51.1801C42.04 51.3101 42.25 51.4501 42.45 51.6101C42.66 51.7601 42.85 51.9201 43.03 52.1001C43.22 52.2601 43.39 52.4501 43.56 52.6301C43.73 52.8101 43.89 53.0001 44.04 53.2001C44.35 53.5901 44.6 54.0101 44.86 54.4301L45.21 55.0801C45.35 55.3401 45.39 55.5401 45.49 55.7701C45.63 56.2301 45.76 56.7401 45.83 57.2101C45.92 57.6801 45.99 58.1601 46.06 58.6301C46.2 59.5801 46.3 60.5301 46.35 61.4801Z" fill="#38281D"/>
<path d="M54.88 61.4801C54.94 60.5301 55.04 59.5801 55.17 58.6301C55.24 58.1601 55.31 57.6801 55.4 57.2101C55.47 56.7501 55.6 56.2301 55.74 55.7701C55.83 55.5401 55.88 55.3401 56.02 55.0801L56.36 54.4301C56.62 54.0101 56.87 53.5901 57.18 53.2001C57.32 53.0001 57.49 52.8101 57.66 52.6301C57.83 52.4501 58 52.2601 58.19 52.1001C58.37 51.9301 58.56 51.7601 58.77 51.6101C58.97 51.4501 59.18 51.3101 59.4 51.1801C59.62 51.0401 59.84 50.9201 60.08 50.8201C60.3 50.7001 60.55 50.6201 60.79 50.5301C61.27 50.3601 61.78 50.2601 62.29 50.1901C62.8 50.1401 63.31 50.1101 63.81 50.1501C64.31 50.1701 64.82 50.2501 65.31 50.3501C66.29 50.5701 67.23 50.9001 68.12 51.3301C68.57 51.5401 69.01 51.7701 69.43 52.0201C69.86 52.2701 70.26 52.5301 70.68 52.8501L71.01 53.1001L70.89 53.4801L70.51 54.7701C70.39 55.2001 70.22 55.6201 70.07 56.0401C69.92 56.4601 69.76 56.8801 69.55 57.2901C69.35 57.7001 69.18 58.1101 68.93 58.5001C68.68 58.8801 68.49 59.3001 68.2 59.6601C67.91 60.0201 67.68 60.4201 67.34 60.7401C67.02 61.0701 66.71 61.4201 66.33 61.6901L65.78 62.1201L65.18 62.4701C64.79 62.7301 64.34 62.8701 63.91 63.0401C63.48 63.2101 63.01 63.2601 62.56 63.3701C62.1 63.4001 61.65 63.4501 61.19 63.4401C60.74 63.4001 60.28 63.4201 59.84 63.3101C59.4 63.2101 58.95 63.1701 58.53 63.0201C58.11 62.8801 57.67 62.7901 57.26 62.6001C56.85 62.4301 56.43 62.2801 56.04 62.0901L54.87 61.4801H54.88ZM54.88 61.4801L56.12 61.9201C56.53 62.0701 56.96 62.1701 57.37 62.3001C57.78 62.4401 58.22 62.4801 58.63 62.5801C59.05 62.6901 59.49 62.6801 59.91 62.7401C60.33 62.8001 60.76 62.7401 61.18 62.7601C61.6 62.7401 62.01 62.6601 62.43 62.6001C62.83 62.4701 63.24 62.4001 63.61 62.2301C63.99 62.0601 64.37 61.9101 64.71 61.6701L65.23 61.3401L65.7 60.9301C66.03 60.6801 66.29 60.3501 66.57 60.0501C66.86 59.7601 67.07 59.3801 67.32 59.0501C67.58 58.7201 67.74 58.3201 67.96 57.9601C68.18 57.6101 68.32 57.2001 68.5 56.8201C68.69 56.4401 68.83 56.0401 68.97 55.6401C69.11 55.2401 69.27 54.8401 69.38 54.4301L69.73 53.1901L69.94 53.8201C69.6 53.5701 69.2 53.3101 68.81 53.0801C68.42 52.8401 68.01 52.6301 67.6 52.4301C66.78 52.0301 65.92 51.7201 65.05 51.5101C64.61 51.4101 64.17 51.3201 63.73 51.2901C63.29 51.2401 62.84 51.2501 62.4 51.2901C61.96 51.3301 61.53 51.4101 61.11 51.5401C60.69 51.6701 60.28 51.8201 59.89 52.0501C59.69 52.1501 59.5 52.2701 59.32 52.4001C59.13 52.5201 58.96 52.6601 58.79 52.8001C58.61 52.9301 58.45 53.0901 58.29 53.2501C58.13 53.4001 57.97 53.5701 57.82 53.7501C57.51 54.0901 57.25 54.4601 56.98 54.8401L56.61 55.4301C56.51 55.5801 56.41 55.8401 56.31 56.0401C56.15 56.4801 55.99 56.8801 55.87 57.3401C55.74 57.7901 55.62 58.2501 55.51 58.7101C55.39 59.1701 55.3 59.6401 55.19 60.1001C55.08 60.5701 54.98 61.0301 54.89 61.5001L54.88 61.4801Z" fill="#38281D"/>
<path d="M51.13 72.1101C50.49 72.1101 49.68 71.9101 48.92 71.5601C47.81 71.0501 46.85 70.2401 46.85 69.3201C46.85 69.2701 46.85 69.2201 46.86 69.1701C47.38 69.4601 47.98 69.5801 48.56 69.5801C49.85 69.5801 51.04 68.9701 51.11 68.2401C51.19 69.0301 51.96 69.5901 53.43 69.5901C53.66 69.5901 53.91 69.5801 54.18 69.5501C54.77 69.4901 55.15 69.2401 55.34 68.9101C55.38 69.0401 55.4 69.1801 55.4 69.3201C55.4 70.2401 54.45 71.0501 53.34 71.5601C52.59 71.9101 51.76 72.1101 51.12 72.1101M51.1 68.0201C51.1 68.0201 51.09 67.9701 51.08 67.9401C51.04 67.8401 51.04 67.7201 51.03 67.5901C51.05 67.7501 51.08 67.9001 51.09 68.0101" fill="#6A492F"/>
<path d="M54.75 68.8901C54.75 69.6301 53.94 70.2901 53 70.7001C52.36 70.9801 51.66 71.1501 51.12 71.1501C50.58 71.1501 49.89 70.9901 49.25 70.7101C48.31 70.3001 47.49 69.6401 47.49 68.8901C47.49 67.6401 49.79 66.6301 51.12 66.6301C52.45 66.6301 54.75 67.6401 54.75 68.8901Z" fill="#5E2A3D"/>
<path d="M51.1 68.1C51.1 69.1 52.12 69.77 54.18 69.55C56.98 69.24 54.97 64.96 51.36 66.74C50.79 67.02 51.1 67.76 51.1 68.1Z" fill="#7A5230"/>
<path d="M51.08 67.94C51.63 69.61 46.34 71.02 46.34 67.17C46.34 66.17 49.73 65.91 50.68 66.72C51.16 67.12 50.97 67.62 51.08 67.94Z" fill="#7A5230"/>
<path d="M53.01 70.7001C52.37 70.9801 51.67 71.1501 51.13 71.1501C50.59 71.1501 49.9 70.9901 49.26 70.7101C49.39 70.2001 49.85 69.8101 50.4 69.8101C50.68 69.8101 50.93 69.9101 51.14 70.0701C51.34 69.9101 51.6 69.8101 51.87 69.8101C52.43 69.8101 52.89 70.1901 53.02 70.7001H53.01Z" fill="#C15672"/>
<path d="M51.24 64.8C51.24 64.8 51.16 64.8 51.12 64.8C51.08 64.8 51.04 64.8 51 64.8C49.97 64.8 48.02 65.16 48.17 66.18C48.4 67.81 50.63 66.82 50.63 66.82C50.63 66.82 50.71 67.6 51.09 67.6H51.13H51.17C51.54 67.6 51.63 66.82 51.63 66.82C51.63 66.82 53.86 67.81 54.09 66.18C54.23 65.16 52.29 64.8 51.26 64.8" fill="#38281D"/>
<path d="M52.5299 65.4101C52.5299 65.5901 51.8899 65.7501 51.0999 65.7501C50.3099 65.7501 49.6699 65.6001 49.6699 65.4101C49.6699 65.2201 50.3599 64.9601 51.1499 64.9601C51.9399 64.9601 52.5299 65.2201 52.5299 65.4101Z" fill="#F7F7F7"/>
<path d="M51.0999 65.7401C50.3099 65.7401 49.6699 65.5901 49.6699 65.4001C49.6699 65.2101 50.3599 64.9501 51.1499 64.9501C51.9399 64.9501 52.5299 65.2101 52.5299 65.4001C52.5299 65.5901 51.8899 65.7401 51.0999 65.7401Z" fill="#F7F8F8"/>
<path d="M55.27 68.7801C55.21 68.6501 55.14 68.6101 55.14 68.6001C55.14 68.6001 55.2 68.6601 55.25 68.7801C55.27 68.8401 55.28 68.9301 55.25 69.0101C55.21 69.0901 55.13 69.1701 55.03 69.2301C54.63 69.4701 53.99 69.5401 53.38 69.4901C53.07 69.4601 52.77 69.4001 52.5 69.3101C52.23 69.2201 51.99 69.1101 51.8 68.9801C51.61 68.8601 51.48 68.7301 51.39 68.6401C51.31 68.5501 51.26 68.4901 51.26 68.4901L51.29 67.4801H50.95L50.98 68.4901C50.98 68.4901 50.93 68.5401 50.86 68.6401C50.81 68.6901 50.77 68.7501 50.7 68.8001C50.63 68.8601 50.55 68.9201 50.47 68.9901C50.28 69.1201 50.05 69.2301 49.78 69.3201C49.51 69.4101 49.2 69.4601 48.89 69.4801C48.28 69.5201 47.64 69.4101 47.24 69.1901C47.13 69.1401 47.05 69.0701 47 68.9901C46.94 68.9201 46.93 68.8301 46.94 68.7601C46.95 68.7001 46.98 68.6501 47.01 68.6201L47.04 68.5701L47 68.6101C47 68.6101 46.94 68.6801 46.92 68.7501C46.9 68.8201 46.91 68.9101 46.97 68.9901C47.02 69.0701 47.11 69.1501 47.21 69.2201C47.62 69.4801 48.26 69.6301 48.9 69.6401C49.22 69.6401 49.54 69.6101 49.84 69.5301C50.14 69.4501 50.4 69.3401 50.62 69.2101C50.73 69.1401 50.82 69.0801 50.9 69.0101C50.98 68.9501 51.04 68.8801 51.1 68.8301L51.14 68.7901L51.18 68.8301C51.29 68.9301 51.45 69.0701 51.67 69.1901C51.89 69.3101 52.16 69.4201 52.45 69.4901C52.74 69.5601 53.07 69.6101 53.39 69.6101C54.03 69.6101 54.68 69.5101 55.08 69.2301C55.18 69.1601 55.26 69.0701 55.29 68.9801C55.33 68.8801 55.31 68.7901 55.29 68.7301L55.27 68.7801Z" fill="#38281D"/>
</svg>
