<svg width="101" height="102" viewBox="0 0 101 102" fill="none" xmlns="http://www.w3.org/2000/svg">
<path d="M92.28 0.419983H8.69C3.90169 0.419983 0.0200195 4.30172 0.0200195 9.09003V92.68C0.0200195 97.4683 3.90169 101.35 8.69 101.35H92.28C97.0683 101.35 100.95 97.4683 100.95 92.68V9.09003C100.95 4.30172 97.0683 0.419983 92.28 0.419983Z" fill="#94A4A5"/>
<path d="M50.42 79.07C50.36 79.07 50.29 79.07 50.23 79.06C50.02 79.06 49.81 79.06 49.62 79.04H49.49C49.38 79.02 49.27 79.02 49.17 79.01C49.16 79.01 49.14 79.01 49.13 79.01C48.44 78.96 47.74 78.86 47.03 78.71C46.96 78.7 46.89 78.68 46.82 78.67C43.37 77.98 39.55 76.45 36.04 74.36C35.03 73.77 33.99 73.09 32.89 72.27C31.86 71.51 30.86 70.68 29.93 69.81C29.16 69.45 28.45 69 27.81 68.49C26.56 67.45 25.64 66.18 24.99 64.59C24.84 64.25 24.72 63.9 24.62 63.6C24.33 62.73 24.12 61.73 23.98 60.65C23.78 59.64 23.7 56.49 23.7 55.31C23.7 55.31 23.7 54.68 23.7 54.66C23.72 54.1 23.74 53.71 23.78 53.4C23.83 51.68 23.97 49.63 24.63 47.18C23.34 45.14 22.79 43.45 23 42.13C22.17 39.93 18.86 30.25 22.55 25.13C22.63 25.03 24.36 22.69 27.89 22.69C29.51 22.69 31.25 23.19 33.06 24.17C35.91 25.72 38.6 27.94 40.43 30.22C41.21 29.98 41.98 29.77 42.77 29.6C43.14 29.52 43.63 29.41 44.17 29.33C45.53 29.09 46.97 28.95 48.47 28.9C48.49 28.9 48.53 28.9 48.54 28.9C49.13 28.9 49.62 29.1 50.03 29.3C50.16 29.3 50.29 29.3 50.42 29.3C50.61 29.3 50.8 29.3 50.99 29.3C51.39 29.1 51.9 28.9 52.49 28.9C52.5 28.9 52.54 28.9 52.56 28.9C56.18 29.03 58.79 29.65 60.61 30.22C62.45 27.96 65.12 25.76 67.94 24.23C69.74 23.25 71.48 22.75 73.11 22.75C76.64 22.75 78.38 25.09 78.45 25.19C82.14 30.31 78.83 39.99 78 42.19C78.2 43.5 77.66 45.17 76.4 47.18C77.15 49.94 77.25 52.3 77.27 54.49C77.29 54.58 77.3 54.68 77.3 54.77V55.24C77.36 55.92 77.38 56.51 77.38 57.06C77.38 57.49 77.37 57.87 77.34 58.24C77.34 58.32 77.32 58.4 77.32 58.48C77.32 58.53 77.3 58.68 77.3 58.7C77.28 58.89 77.24 59.08 77.21 59.26L77.19 59.37C76.82 64.46 74.96 67.81 71.52 69.61C70.7 70.43 69.81 71.23 68.87 71.97C67.74 72.85 66.59 73.65 65.43 74.35C62.15 76.34 58.6 77.78 55.17 78.52C55.13 78.53 55.1 78.54 55.06 78.55C53.52 78.87 52.08 79.04 50.78 79.06C50.72 79.06 50.66 79.07 50.6 79.07H50.44H50.42Z" fill="#2F150C"/>
<path d="M77.2799 26.04C77.2799 26.04 74.5399 22.27 68.6199 25.5C65.3499 27.28 62.6499 29.77 61.1199 31.92C59.1499 31.23 56.4099 30.49 52.5199 30.35C52.1099 30.34 51.7099 30.56 51.3099 30.76C51.0199 30.75 50.7299 30.74 50.4299 30.74C50.1899 30.74 49.9599 30.75 49.7199 30.75C49.3199 30.56 48.9199 30.34 48.5199 30.35C46.9699 30.4 45.6099 30.55 44.4099 30.76C43.9499 30.83 43.5099 30.92 43.0899 31.01C41.8499 31.28 40.8099 31.6 39.9199 31.92C38.3899 29.75 35.6799 27.24 32.3799 25.45C26.4599 22.22 23.7199 25.99 23.7199 25.99C20.0499 31.08 24.4999 42.04 24.4999 42.04C23.9999 43.43 25.3999 45.79 26.1999 46.96C25.4799 49.36 25.2699 51.38 25.2199 53.54C25.1799 53.79 25.1599 54.21 25.1399 54.73V55.32C25.1399 57.27 25.2799 60 25.3999 60.43C25.5299 61.46 25.7299 62.38 25.9899 63.18C26.0899 63.48 26.1899 63.77 26.3099 64.04C26.9099 65.51 27.7399 66.58 28.7199 67.39C29.3499 67.9 30.0299 68.3 30.7499 68.62C31.6899 69.51 32.6899 70.35 33.7499 71.13C34.7299 71.85 35.7399 72.53 36.7899 73.14C40.2199 75.18 43.9099 76.63 47.0899 77.27C47.1499 77.28 47.2199 77.3 47.2899 77.31C47.9699 77.45 48.6299 77.54 49.2599 77.59C49.4099 77.59 49.5599 77.61 49.7199 77.62C49.9299 77.63 50.1499 77.64 50.3799 77.64H50.4299L50.4499 77.65H50.6099C50.6599 77.64 50.7199 77.64 50.7699 77.64C52.0399 77.62 53.3899 77.45 54.7799 77.16H54.7999L54.8599 77.14C58.0999 76.45 61.5499 75.06 64.6999 73.14C65.8399 72.45 66.9499 71.68 67.9999 70.86C68.9499 70.11 69.8499 69.3 70.6799 68.45C70.7499 68.42 70.8099 68.38 70.8799 68.35C73.4699 67 75.4199 64.49 75.7899 59.21C75.8299 58.98 75.8699 58.76 75.8999 58.53C75.9099 58.4 75.9299 58.27 75.9399 58.14C75.9699 57.79 75.9799 57.44 75.9799 57.08C75.9799 56.5 75.9499 55.91 75.8999 55.32V54.79C75.8999 54.79 75.8799 54.79 75.8699 54.78C75.8499 52.12 75.7299 49.8 74.8699 46.96C75.6699 45.77 77.0199 43.47 76.5299 42.1C76.5299 42.1 80.9899 31.13 77.3099 26.05L77.2799 26.04Z" fill="#2F150C"/>
<path d="M75.9401 57.07C75.9401 57.43 75.9301 57.78 75.9001 58.13C75.8901 58.26 75.8701 58.39 75.8601 58.52C75.8301 58.75 75.7901 58.97 75.7501 59.2C75.3801 64.49 73.4301 66.99 70.8401 68.34C70.7701 68.37 70.7101 68.41 70.6401 68.44C69.8101 69.29 68.9101 70.1 67.9601 70.85C66.9101 71.67 65.8001 72.44 64.6601 73.13C61.5001 75.05 58.0601 76.44 54.8201 77.13H54.7601L54.7401 77.15C53.3501 77.44 52.0001 77.61 50.7301 77.63C50.6801 77.63 50.6201 77.63 50.5701 77.64H50.3401C50.1101 77.63 49.8901 77.62 49.6801 77.61C49.5201 77.6 49.3701 77.59 49.2201 77.58C48.5901 77.53 47.9301 77.44 47.2501 77.3C47.1801 77.3 47.1101 77.27 47.0501 77.26C43.8701 76.62 40.1801 75.17 36.7501 73.13C35.7001 72.52 34.6901 71.84 33.7101 71.12C32.6501 70.34 31.6501 69.5 30.7101 68.61C29.9901 68.29 29.3101 67.89 28.6801 67.38C27.7001 66.57 26.8701 65.5001 26.2701 64.0301C26.1501 63.7601 26.0501 63.47 25.9501 63.17C25.6901 62.37 25.4901 61.45 25.3601 60.42C25.2401 59.99 25.1001 57.26 25.1001 55.31V54.72C25.1201 54.2 25.1401 53.7801 25.1801 53.5301C25.2401 51.2301 25.4601 49.09 26.3001 46.49C24.1101 45.13 35.6301 30.77 36.7401 33.08C37.9801 32.73 39.8801 31.7 43.0501 31C43.4701 30.91 43.9101 30.82 44.3701 30.75C45.5801 30.54 46.9401 30.3901 48.4801 30.3401C48.8801 30.3301 49.2801 30.55 49.6801 30.74C49.9201 30.74 50.1501 30.73 50.3901 30.73C50.6901 30.73 50.9801 30.74 51.2701 30.75C51.6701 30.55 52.0701 30.3301 52.4801 30.3401C59.1201 30.5701 62.4101 32.56 64.2301 33.08C65.3401 30.77 76.8501 45.13 74.6701 46.49C75.6801 49.62 75.8001 52.09 75.8101 54.97C75.8801 55.67 75.9201 56.37 75.9201 57.06" fill="#D3AA7F"/>
<path d="M64.6802 34.02C64.5402 33.93 64.0502 33.84 64.0502 33.84C63.6002 33.71 63.0902 33.51 62.5002 33.28C60.5102 32.5 57.5002 31.31 52.4902 31.14C52.3202 31.14 52.0602 31.27 51.8102 31.39C51.4302 31.57 51.0102 31.78 50.5202 31.8C50.0302 31.78 49.6002 31.57 49.2302 31.39C48.9802 31.26 48.7102 31.14 48.5402 31.14C43.5402 31.31 40.5302 32.5 38.5302 33.28C37.9402 33.51 37.4302 33.71 36.9802 33.84C36.9802 33.84 36.4802 33.93 36.3502 34.02C33.1702 36.08 29.0202 42.79 27.2802 46.16C27.2102 46.3 27.0902 46.74 27.0902 46.74C25.9802 50.17 25.9902 52.82 26.0002 56.18C26.0002 56.53 26.0002 56.89 26.0002 57.25C26.0002 67.49 30.8902 68.32 36.5502 69.28C38.0502 69.54 39.6002 69.8 41.0302 70.26C43.4702 71.05 44.8902 71.74 45.9302 72.25C47.4302 72.98 48.2002 73.35 50.5202 73.37C52.8302 73.36 53.6102 72.98 55.1002 72.25C56.1402 71.74 57.5602 71.05 60.0102 70.26C61.4402 69.79 62.9902 69.53 64.4902 69.28C70.1602 68.32 75.0402 67.49 75.0402 57.25C75.0402 56.88 75.0402 56.53 75.0402 56.18C75.0502 52.82 75.0602 50.17 73.9502 46.74C73.9502 46.74 73.8302 46.29 73.7602 46.16C72.0202 42.79 67.8002 36.17 64.6902 34.02" fill="#EDC494"/>
<path d="M29.6702 53.16C29.6702 53.16 34.6002 63.36 38.8302 63.36C42.0702 63.36 46.1102 61.7 46.1102 61.7C46.1102 61.7 47.8302 44.71 38.4602 44.17C34.2402 43.92 29.6802 53.16 29.6802 53.16" fill="#D3AA7F"/>
<path d="M40.5601 50.13C40.5601 50.13 48.6601 51.01 48.5901 61.78C48.5901 61.78 48.5201 64.21 46.7801 63.69C45.0501 63.17 40.55 50.13 40.55 50.13" fill="white"/>
<path d="M50.7502 76.81H49.7002C49.4802 76.81 49.2702 76.79 49.0702 76.78C48.9202 76.78 48.7802 76.76 48.6302 76.76C48.0402 76.71 47.4102 76.63 46.7602 76.5C46.6902 76.49 46.6302 76.47 46.5702 76.46C43.5502 75.87 40.0602 74.51 36.8002 72.61C35.8102 72.04 34.8502 71.4 33.9202 70.73C32.9102 70 31.9702 69.22 31.0802 68.39C30.4002 68.09 29.7502 67.72 29.1502 67.24C27.5902 65.97 26.4302 63.99 26.0102 60.75C25.8802 60.32 25.7402 57.46 25.7602 55.63C26.6302 55.52 27.5302 55.35 27.6902 55.11C28.0102 54.64 27.8502 54.18 28.3602 53.82C28.3602 53.82 28.0402 60.76 29.5102 62.49C30.9702 64.24 33.4502 66.31 36.2802 66.91C36.2802 66.91 38.7102 69.11 40.4102 69.09C42.1202 69.06 45.5102 67.87 46.7702 67.86C48.0402 67.84 50.6302 68.3 50.6302 68.3L50.7402 76.81" fill="white"/>
<path d="M30.3802 57.3C30.3802 57.3 28.7402 66 43.1002 66.25L46.1002 64.04L30.3702 57.29L30.3802 57.3Z" fill="white"/>
<path d="M29.2902 51.44C29.2902 51.44 27.8502 65.93 42.5302 64.18C42.5302 64.18 44.6602 64.41 43.4702 65.43C42.5102 66.25 40.8102 67.88 42.3602 69.33C42.7102 69.66 41.9902 67.43 45.3302 66.54C46.1802 66.31 46.6502 66.6 46.9402 66.89C47.2502 67.19 47.3502 67.49 47.4902 67.2C48.6002 64.84 48.9702 43.02 29.3002 51.44" fill="#1B170D"/>
<path d="M71.2501 53.16C71.2501 53.16 66.3201 63.36 62.0901 63.36C58.8601 63.36 54.8101 61.7 54.8101 61.7C54.8101 61.7 53.0901 44.71 62.4601 44.17C66.6801 43.92 71.2401 53.16 71.2401 53.16" fill="#D3AA7F"/>
<path d="M34.24 46.4C34.24 46.4 34.25 46.36 34.29 46.29C34.33 46.22 34.38 46.11 34.46 45.99C34.54 45.86 34.65 45.72 34.78 45.56C34.92 45.41 35.07 45.22 35.27 45.06C35.37 44.98 35.47 44.89 35.58 44.8C35.7 44.72 35.82 44.64 35.94 44.56C36.06 44.47 36.2 44.41 36.34 44.33C36.48 44.26 36.63 44.18 36.78 44.13C37.1 44.02 37.42 43.9 37.78 43.85C38.13 43.77 38.49 43.77 38.85 43.77C39.21 43.77 39.57 43.86 39.91 43.92C40.25 44.02 40.58 44.14 40.88 44.26C41.17 44.42 41.45 44.58 41.7 44.73C41.94 44.9 42.15 45.09 42.34 45.26C42.44 45.35 42.53 45.43 42.61 45.51C42.69 45.6 42.76 45.69 42.82 45.76C42.95 45.92 43.06 46.07 43.14 46.19C43.31 46.43 43.39 46.58 43.39 46.58C43.39 46.58 43.22 46.52 42.96 46.41C42.83 46.36 42.66 46.29 42.49 46.21C42.32 46.12 42.11 46.05 41.89 45.97C41.67 45.89 41.44 45.78 41.2 45.7C40.95 45.63 40.69 45.55 40.44 45.46C40.17 45.4 39.9 45.36 39.63 45.28C39.49 45.27 39.35 45.26 39.22 45.24C39.08 45.23 38.94 45.19 38.8 45.21C38.52 45.21 38.24 45.19 37.97 45.23C37.83 45.25 37.69 45.23 37.56 45.27C37.42 45.3 37.29 45.32 37.16 45.34C37.03 45.35 36.9 45.41 36.77 45.43C36.64 45.46 36.51 45.49 36.39 45.53C36.15 45.61 35.91 45.68 35.7 45.76C35.48 45.83 35.28 45.92 35.1 45.99C34.93 46.08 34.76 46.13 34.64 46.2C34.51 46.26 34.41 46.31 34.34 46.34C34.27 46.38 34.23 46.39 34.23 46.39L34.24 46.4Z" fill="#302A13"/>
<path d="M66.5201 46.4C66.5201 46.4 66.48 46.38 66.41 46.35C66.34 46.32 66.24 46.27 66.11 46.21C65.99 46.14 65.8201 46.08 65.6501 46C65.4701 45.93 65.27 45.84 65.05 45.77C64.84 45.68 64.6 45.61 64.36 45.54C64.24 45.5 64.11 45.47 63.98 45.44C63.85 45.41 63.7301 45.36 63.5901 45.35C63.4501 45.33 63.3201 45.31 63.1901 45.28C63.0601 45.25 62.9201 45.26 62.7801 45.24C62.5001 45.2 62.2201 45.21 61.9501 45.22C61.8101 45.21 61.6701 45.24 61.5301 45.25C61.3901 45.27 61.25 45.28 61.11 45.29C60.84 45.36 60.57 45.41 60.3 45.47C60.04 45.56 59.79 45.64 59.54 45.71C59.3 45.8 59.07 45.9 58.85 45.98C58.63 46.06 58.4201 46.13 58.2501 46.22C58.0801 46.31 57.9201 46.37 57.7801 46.43C57.5101 46.54 57.3401 46.59 57.3401 46.59C57.3401 46.59 57.4201 46.44 57.5901 46.2C57.6801 46.08 57.78 45.93 57.91 45.77C57.98 45.69 58.0401 45.6 58.1201 45.52C58.2001 45.44 58.3001 45.36 58.3901 45.27C58.5801 45.11 58.7901 44.91 59.0301 44.74C59.2801 44.58 59.56 44.42 59.85 44.27C60.15 44.14 60.4801 44.03 60.8201 43.93C61.1701 43.87 61.5201 43.79 61.8801 43.78C62.2501 43.78 62.6101 43.78 62.9501 43.86C63.3001 43.9 63.6301 44.02 63.9501 44.14C64.1101 44.19 64.2501 44.27 64.3901 44.34C64.5301 44.41 64.67 44.48 64.79 44.57C64.92 44.65 65.0401 44.73 65.1501 44.81C65.2601 44.9 65.3601 44.99 65.4601 45.07C65.6601 45.23 65.8101 45.42 65.9501 45.57C66.0801 45.73 66.1901 45.87 66.2701 46C66.3501 46.12 66.4101 46.23 66.4401 46.3C66.4801 46.37 66.4901 46.41 66.4901 46.41L66.5201 46.4Z" fill="#302A13"/>
<path d="M60.4101 50.19C60.4101 50.19 52.3101 51.07 52.3801 61.84C52.3801 61.84 52.4501 64.27 54.1801 63.75C55.9201 63.23 60.4101 50.19 60.4101 50.19Z" fill="white"/>
<path d="M50.23 76.87H51.28C51.5 76.87 51.71 76.85 51.91 76.84C52.06 76.83 52.2 76.82 52.35 76.81C52.94 76.76 53.57 76.68 54.22 76.55C54.29 76.54 54.35 76.52 54.41 76.51C57.43 75.92 60.93 74.56 64.18 72.66C65.18 72.09 66.13 71.45 67.06 70.78C68.07 70.05 69.01 69.27 69.9 68.44C70.58 68.14 71.23 67.77 71.83 67.29C73.39 66.02 74.55 64.04 74.97 60.8C75.1 60.37 75.24 57.51 75.22 55.68C74.35 55.57 73.45 55.4 73.29 55.16C72.97 54.69 73.13 54.23 72.62 53.87C72.62 53.87 72.94 60.81 71.47 62.54C70.01 64.29 67.53 66.36 64.7 66.96C64.7 66.96 62.27 69.16 60.57 69.14C58.86 69.11 55.47 67.92 54.21 67.91C52.94 67.89 50.36 68.35 50.36 68.35L50.25 76.86" fill="white"/>
<path d="M70.6001 57.36C70.6001 57.36 72.2501 66.06 57.8801 66.31L54.8801 64.1L70.6101 57.35L70.6001 57.36Z" fill="white"/>
<path d="M71.6802 51.5C71.6802 51.5 73.1202 65.99 58.4402 64.24C58.4402 64.24 56.3102 64.47 57.5002 65.49C58.4602 66.31 60.1602 67.94 58.6102 69.39C58.2602 69.72 58.9802 67.49 55.6402 66.6C54.7902 66.37 54.3203 66.66 54.0303 66.95C53.7203 67.25 53.6202 67.55 53.4802 67.26C52.3702 64.9 52.0002 43.08 71.6702 51.5" fill="#1B170D"/>
<path d="M46.1001 61.7C38.3201 65.41 32.8401 63.01 30.3701 53.4C30.3701 53.4 39.7301 46.13 44.7001 55.45C45.4701 56.9 46.1001 61.7 46.1001 61.7Z" fill="white"/>
<path d="M38.5803 62.31C36.4203 62.26 34.6102 60.55 33.9102 58.17C33.7002 57.45 33.5902 56.66 33.6102 55.83C33.6802 52.52 35.7303 51.34 38.3303 51.26C38.4903 51.26 38.6502 51.25 38.8102 51.26C41.6302 51.32 43.7703 54.25 43.8203 56.05C43.9203 59.57 41.4003 62.37 38.5803 62.31Z" fill="#ECB61E"/>
<path d="M38.6002 61.41C36.9602 61.37 35.5302 59.97 34.9402 57.84C34.7502 57.16 34.6602 56.45 34.6702 55.71C34.7202 53.24 35.8902 52.05 38.3502 51.98C38.4702 51.98 38.6002 51.98 38.7202 51.98H38.7902C41.0102 52.03 42.7002 54.62 42.7402 55.95C42.7802 57.56 42.2502 59.09 41.2702 60.16C40.5202 60.97 39.5902 61.42 38.6602 61.42H38.6002" fill="#6C5221"/>
<path d="M54.79 61.7C62.57 65.41 68.0501 63.01 70.5201 53.4C70.5201 53.4 61.1601 46.13 56.1901 55.45C55.4201 56.9 54.79 61.7 54.79 61.7Z" fill="white"/>
<path d="M62.3102 62.31C64.4702 62.26 66.2802 60.55 66.9802 58.17C67.2002 57.45 67.3002 56.66 67.2802 55.83C67.2102 52.52 65.1502 51.34 62.5602 51.26C62.4002 51.26 62.2302 51.25 62.0702 51.26C59.2502 51.32 57.1102 54.25 57.0602 56.05C56.9702 59.57 59.4802 62.37 62.3002 62.31" fill="#ECB61E"/>
<path d="M62.2202 61.42C61.2902 61.42 60.3602 60.97 59.6102 60.15C58.6402 59.09 58.1003 57.55 58.1403 55.95C58.1703 54.62 59.8702 52.03 62.1002 51.98H62.1602C62.2802 51.98 62.4103 51.98 62.5303 51.98C64.9903 52.06 66.1603 53.24 66.2103 55.71C66.2303 56.45 66.1403 57.16 65.9503 57.84C65.3603 59.98 63.9302 61.38 62.2902 61.41H62.2302" fill="#6C5221"/>
<path d="M38.92 54.51C38.88 56.64 37.45 58.33 35.74 58.3C34.97 58.29 34.27 57.92 33.74 57.32C33.55 56.69 33.46 55.99 33.47 55.28C33.53 52.38 35.33 51.35 37.6 51.28C38.42 51.99 38.94 53.18 38.91 54.51" fill="white"/>
<path d="M41.6101 60.67C41.5901 61.39 41.1102 61.97 40.5302 61.96C39.9502 61.95 39.4901 61.35 39.5101 60.63C39.5201 59.91 40.0102 59.33 40.5902 59.35C41.1702 59.36 41.6201 59.96 41.6101 60.68V60.67Z" fill="white"/>
<path d="M62.1803 54.84C62.1303 56.97 60.7103 58.66 59.0003 58.63C58.2303 58.62 57.5303 58.25 57.0003 57.65C56.8103 57.02 56.7202 56.32 56.7302 55.61C56.7902 52.71 58.5903 51.67 60.8703 51.61C61.6903 52.32 62.2103 53.51 62.1803 54.84Z" fill="white"/>
<path d="M54.9001 68.12C54.2301 67.6 53.3001 67.05 53.0901 66.94C53.0001 66.89 51.3601 68.05 50.4601 68.06C49.5601 68.05 48.0701 66.89 47.9801 66.94C47.7801 67.05 46.6701 67.6 46.0101 68.12C45.3401 68.64 44.3301 70.25 44.2001 71.63C44.0601 73.06 44.5001 73.65 44.8101 74.25C45.1101 74.84 48.9401 76.22 50.4501 76.23C51.9701 76.22 55.8001 74.72 56.1001 74.13C56.4101 73.53 56.6701 73.11 56.6701 71.69C56.6601 70.3 55.5701 68.64 54.9001 68.12Z" fill="white"/>
<path d="M65.0701 60.67C65.0601 61.39 64.5701 61.97 64.0001 61.96C63.4201 61.95 62.9601 61.35 62.9801 60.63C62.9901 59.91 63.4701 59.33 64.0501 59.35C64.6301 59.36 65.0801 59.96 65.0701 60.68V60.67Z" fill="white"/>
<path d="M44.7003 62.31C45.1603 62.13 45.6202 61.92 46.1002 61.7C46.1002 61.7 45.4703 56.9 44.7003 55.45C42.7603 51.81 40.1402 50.7 37.6802 50.7C36.0502 50.7 34.4803 51.19 33.2103 51.75C34.4703 51.19 36.0402 50.7 37.6802 50.7C40.1402 50.7 42.7503 51.81 44.7003 55.45C45.4703 56.9 46.1002 61.7 46.1002 61.7C45.6202 61.93 45.1603 62.13 44.7003 62.31ZM30.6802 54.47C30.6202 54.28 30.5703 54.08 30.5103 53.88C30.5603 54.08 30.6202 54.28 30.6802 54.47Z" fill="#221F17"/>
<path d="M44.7001 62.31C44.4501 60.94 44.1001 59.4 43.7201 58.69C43.6501 58.56 43.5801 58.43 43.5101 58.31C43.7301 57.62 43.8401 56.86 43.8201 56.06C43.7701 54.26 41.6301 51.33 38.8101 51.27H38.7101C38.5801 51.27 38.4601 51.27 38.3301 51.27C38.1001 51.27 37.8801 51.29 37.6501 51.32C37.6401 51.31 37.6201 51.3 37.6101 51.28C35.5701 51.34 33.9001 52.19 33.5501 54.48C32.5901 54.8 31.7201 55.21 31.0401 55.59C30.9101 55.24 30.8001 54.87 30.6901 54.5V54.49C30.6301 54.3 30.5801 54.1 30.5201 53.9C30.4701 53.74 30.4301 53.58 30.3901 53.42C30.3901 53.42 30.3901 53.42 30.4001 53.41C30.5901 53.27 31.6601 52.48 33.2001 51.79C33.2001 51.79 33.2001 51.79 33.2101 51.79C34.4701 51.23 36.0401 50.74 37.6801 50.74C40.1401 50.74 42.7501 51.85 44.7001 55.49C45.4701 56.94 46.1001 61.74 46.1001 61.74C45.6201 61.97 45.1601 62.17 44.7001 62.35" fill="#E2E1E1"/>
<path d="M43.5101 58.3C43.2401 57.84 42.9701 57.43 42.6801 57.05C42.7301 56.69 42.7601 56.32 42.7401 55.95C42.7001 54.62 41.0101 52.03 38.7901 51.98H38.7201C38.5901 51.98 38.4701 51.98 38.3501 51.98C38.3101 51.98 38.2601 51.98 38.2201 51.98C38.0501 51.73 37.8601 51.5 37.6401 51.31C37.8601 51.29 38.0901 51.27 38.3201 51.26C38.4501 51.26 38.5701 51.26 38.7001 51.26H38.8001C41.6201 51.32 43.7601 54.25 43.8101 56.05C43.8301 56.85 43.7201 57.6 43.5001 58.3" fill="#D7A72D"/>
<path d="M42.6902 57.05C41.5502 55.54 40.2502 54.68 38.9302 54.26C38.9002 53.4 38.6502 52.61 38.2402 51.99C38.2802 51.99 38.3302 51.99 38.3702 51.99C38.4902 51.99 38.6202 51.99 38.7402 51.99H38.8102C41.0302 52.04 42.7203 54.63 42.7603 55.96C42.7703 56.34 42.7503 56.7 42.7003 57.06" fill="#6A5326"/>
<path d="M33.55 54.48C33.9 52.19 35.57 51.34 37.61 51.28C37.62 51.29 37.6401 51.3 37.6501 51.32C37.8601 51.51 38.06 51.74 38.23 51.99C38.64 52.62 38.9 53.4 38.92 54.26C38.18 54.03 37.4401 53.93 36.7101 53.93C35.6001 53.93 34.52 54.16 33.55 54.47" fill="#E2E1E1"/>
<path d="M54.8401 61.31C54.8401 61.31 54.8401 61.3 54.8401 61.29C54.8401 61.29 54.8401 61.3 54.8401 61.31ZM54.85 61.25C55.03 60.02 55.5601 56.63 56.1801 55.45C56.4201 55.01 56.66 54.6 56.91 54.24C56.66 54.61 56.4201 55.01 56.1801 55.45C55.5501 56.62 55.0201 60.02 54.8401 61.25M69.9601 55.29C70.1601 54.7 70.3401 54.06 70.5201 53.4C70.5201 53.4 67.0501 50.7 63.2101 50.7C61.9101 50.7 60.56 51.01 59.3 51.85C60.56 51.02 61.91 50.7 63.22 50.7C67.06 50.7 70.5301 53.4 70.5301 53.4C70.3601 54.06 70.18 54.7 69.97 55.29" fill="#221F17"/>
<path d="M56.1901 62.31C55.7301 62.13 55.27 61.93 54.79 61.7C54.79 61.7 54.8101 61.56 54.8401 61.32C54.8401 61.32 54.8401 61.3 54.8401 61.29C54.8401 61.27 54.8401 61.26 54.8401 61.24C55.0201 60.01 55.5501 56.62 56.1801 55.44C56.4101 55 56.66 54.6 56.91 54.23C56.8 54.63 56.73 55.08 56.72 55.59C56.71 56.31 56.8001 57 56.9901 57.63C57.0801 57.73 57.1701 57.82 57.2701 57.9C57.3001 58.03 57.3401 58.15 57.3801 58.28C57.3101 58.41 57.24 58.53 57.17 58.66C56.79 59.38 56.4501 60.92 56.1901 62.28M69.85 55.58C69.11 55.17 68.16 54.72 67.1 54.4C66.54 52.17 64.7401 51.33 62.5601 51.27C62.4301 51.27 62.3001 51.27 62.1801 51.27H62.0801C61.5001 51.28 60.9601 51.42 60.4501 51.63C60.0501 51.67 59.65 51.74 59.29 51.85C60.56 51.02 61.9001 50.7 63.2001 50.7C67.0401 50.7 70.5101 53.4 70.5101 53.4C70.3401 54.06 70.1601 54.7 69.9501 55.29C69.9101 55.39 69.88 55.49 69.85 55.59" fill="#E2E1E1"/>
<path d="M57.38 58.3C57.34 58.17 57.3 58.05 57.27 57.92C57.34 57.98 57.42 58.05 57.49 58.1C57.45 58.16 57.41 58.23 57.38 58.3ZM67.1 54.4C66.73 54.29 66.36 54.19 65.96 54.11C65.5 52.72 64.38 52.04 62.53 51.98C62.41 51.98 62.28 51.98 62.16 51.98H62.1C61.84 51.98 61.58 52.03 61.33 52.1C61.19 51.92 61.03 51.75 60.86 51.61C60.72 51.61 60.58 51.62 60.44 51.63C60.95 51.42 61.5 51.28 62.07 51.27H62.17C62.3 51.27 62.42 51.27 62.55 51.27C64.72 51.33 66.53 52.18 67.09 54.4" fill="#D7A72D"/>
<path d="M62.1501 54.21C62.0601 53.4 61.7701 52.66 61.3301 52.1C61.5801 52.03 61.83 51.99 62.1 51.98H62.16C62.28 51.98 62.4101 51.98 62.5301 51.98C64.3801 52.04 65.5001 52.72 65.9601 54.11C65.3801 54 64.7901 53.93 64.1801 53.93C63.5101 53.93 62.8201 54.01 62.1501 54.21Z" fill="#6A5326"/>
<path d="M57.5003 58.1C57.4203 58.04 57.3503 57.98 57.2803 57.92C57.1803 57.84 57.0903 57.74 57.0003 57.65C56.8103 57.02 56.7202 56.32 56.7302 55.61C56.7402 55.1 56.8102 54.65 56.9202 54.25C57.6502 53.19 58.4503 52.41 59.2803 51.86C59.6403 51.75 60.0303 51.68 60.4403 51.64C60.5803 51.63 60.7202 51.62 60.8602 51.62C61.0302 51.76 61.1803 51.93 61.3303 52.11C61.7603 52.68 62.0603 53.41 62.1503 54.22C60.4803 54.7 58.8503 55.85 57.5003 58.11" fill="#E2E1E1"/>
<path d="M46.1002 61.7C46.0002 61.22 45.9002 60.75 45.7902 60.27C45.6902 59.8 45.5902 59.32 45.4702 58.86C45.3602 58.39 45.2402 57.92 45.1002 57.46C44.9702 56.98 44.8202 56.57 44.6502 56.13C44.5502 55.93 44.4502 55.65 44.3502 55.5L43.9702 54.9C43.7002 54.52 43.4302 54.13 43.1102 53.79C42.9602 53.61 42.8102 53.44 42.6302 53.28C42.4702 53.12 42.3002 52.95 42.1202 52.82C41.9402 52.67 41.7702 52.53 41.5802 52.41C41.3902 52.28 41.2002 52.16 41.0002 52.06C40.6102 51.83 40.1902 51.68 39.7602 51.54C39.3302 51.41 38.8902 51.33 38.4402 51.29C37.9902 51.26 37.5402 51.25 37.0902 51.29C36.6402 51.33 36.1902 51.42 35.7402 51.51C34.8502 51.72 33.9702 52.04 33.1302 52.45C32.7102 52.65 32.3002 52.88 31.9002 53.12C31.5102 53.36 31.1002 53.62 30.7502 53.87L30.9702 53.23L31.3302 54.49C31.4302 54.91 31.6002 55.32 31.7402 55.73C31.8802 56.14 32.0302 56.55 32.2202 56.94C32.4102 57.33 32.5502 57.75 32.7802 58.11C33.0002 58.48 33.1702 58.88 33.4302 59.21C33.6902 59.55 33.9002 59.93 34.2002 60.23C34.4902 60.54 34.7502 60.88 35.0802 61.13L35.5602 61.54L36.0902 61.88C36.4302 62.13 36.8302 62.28 37.2102 62.45C37.5902 62.63 38.0202 62.7 38.4202 62.83C38.8402 62.88 39.2602 62.97 39.6902 62.99C40.1202 62.98 40.5502 63.03 40.9902 62.98C41.4302 62.93 41.8702 62.93 42.2902 62.82C42.7202 62.72 43.1602 62.68 43.5802 62.53C44.0002 62.4 44.4302 62.3 44.8502 62.14L46.1102 61.69L46.1002 61.7ZM46.1002 61.7L44.9102 62.32C44.5102 62.52 44.0802 62.67 43.6602 62.84C43.2402 63.03 42.8002 63.12 42.3702 63.27C41.9402 63.42 41.4902 63.47 41.0402 63.57C40.5902 63.68 40.1202 63.66 39.6602 63.7C39.1902 63.71 38.7302 63.66 38.2702 63.62C37.8202 63.51 37.3402 63.46 36.8902 63.29C36.4502 63.12 36.0002 62.97 35.6002 62.71L34.9802 62.35L34.4202 61.92C34.0302 61.65 33.7202 61.29 33.3902 60.95C33.0402 60.62 32.8002 60.22 32.5102 59.85C32.2102 59.48 32.0202 59.06 31.7702 58.67C31.5102 58.28 31.3402 57.85 31.1402 57.43C30.9302 57.02 30.7702 56.59 30.6202 56.16C30.4602 55.73 30.2902 55.3 30.1702 54.86L29.7802 53.55L29.6702 53.16L30.0002 52.91C30.4302 52.59 30.8302 52.32 31.2802 52.06C31.7202 51.81 32.1602 51.57 32.6202 51.36C33.5302 50.93 34.4902 50.59 35.4802 50.36C35.9802 50.25 36.4902 50.18 37.0102 50.15C37.5302 50.11 38.0402 50.14 38.5602 50.19C39.0802 50.26 39.5902 50.37 40.0902 50.53C40.3402 50.62 40.5802 50.7 40.8202 50.83C41.0602 50.94 41.2902 51.06 41.5102 51.2C41.7402 51.33 41.9502 51.48 42.1502 51.64C42.3602 51.79 42.5502 51.96 42.7402 52.14C42.9302 52.31 43.1102 52.49 43.2802 52.68C43.4602 52.86 43.6202 53.06 43.7702 53.26C44.0902 53.66 44.3402 54.09 44.6002 54.52L44.9502 55.18C45.0902 55.45 45.1402 55.65 45.2302 55.89C45.3702 56.36 45.5002 56.88 45.5802 57.35C45.6702 57.83 45.7502 58.31 45.8102 58.8C45.9502 59.77 46.0502 60.73 46.1102 61.7H46.1002Z" fill="#302A13"/>
<path d="M54.7902 61.7C54.8502 60.73 54.9503 59.76 55.0903 58.8C55.1503 58.32 55.2303 57.83 55.3203 57.35C55.4003 56.88 55.5302 56.35 55.6702 55.89C55.7702 55.65 55.8103 55.45 55.9503 55.18L56.3002 54.52C56.5602 54.09 56.8202 53.66 57.1302 53.26C57.2802 53.06 57.4402 52.86 57.6202 52.68C57.7902 52.49 57.9602 52.3 58.1602 52.14C58.3502 51.96 58.5402 51.79 58.7502 51.64C58.9602 51.48 59.1703 51.33 59.3903 51.2C59.6003 51.06 59.8403 50.94 60.0703 50.83C60.3003 50.7 60.5502 50.62 60.8002 50.53C61.2902 50.36 61.8103 50.25 62.3203 50.19C62.8403 50.14 63.3602 50.11 63.8702 50.15C64.3902 50.18 64.8903 50.25 65.4003 50.36C66.4003 50.59 67.3603 50.92 68.2703 51.36C68.7303 51.57 69.1702 51.81 69.6102 52.06C70.0502 52.32 70.4602 52.59 70.8802 52.91L71.2103 53.16L71.1002 53.55L70.7103 54.86C70.5903 55.3 70.4203 55.73 70.2603 56.16C70.1103 56.59 69.9402 57.02 69.7302 57.43C69.5302 57.85 69.3502 58.27 69.1002 58.67C68.8502 59.06 68.6602 59.48 68.3602 59.85C68.0602 60.22 67.8302 60.62 67.4802 60.95C67.1502 61.29 66.8403 61.64 66.4503 61.92L65.8903 62.35L65.2703 62.71C64.8703 62.97 64.4102 63.12 63.9802 63.29C63.5402 63.47 63.0602 63.51 62.6102 63.62C62.1402 63.65 61.6803 63.71 61.2103 63.7C60.7503 63.66 60.2803 63.68 59.8303 63.57C59.3803 63.47 58.9202 63.43 58.4902 63.27C58.0602 63.12 57.6203 63.03 57.2003 62.84C56.7803 62.66 56.3503 62.52 55.9503 62.32L54.7603 61.7H54.7902ZM54.7902 61.7L56.0502 62.15C56.4702 62.3 56.9003 62.41 57.3203 62.54C57.7403 62.68 58.1802 62.73 58.6102 62.83C59.0402 62.94 59.4802 62.94 59.9102 62.99C60.3402 63.04 60.7803 62.99 61.2103 63C61.6403 62.98 62.0602 62.9 62.4802 62.84C62.8802 62.71 63.3002 62.64 63.6902 62.46C64.0702 62.28 64.4702 62.14 64.8102 61.89L65.3403 61.55L65.8203 61.14C66.1503 60.89 66.4103 60.55 66.7003 60.24C67.0003 59.95 67.2102 59.56 67.4702 59.22C67.7302 58.89 67.9002 58.48 68.1202 58.12C68.3502 57.76 68.4902 57.34 68.6802 56.95C68.8702 56.57 69.0202 56.15 69.1602 55.74C69.3002 55.33 69.4703 54.93 69.5703 54.5L69.9302 53.24L70.1503 53.88C69.8003 53.63 69.3902 53.36 69.0002 53.13C68.6002 52.89 68.1903 52.67 67.7703 52.46C66.9303 52.06 66.0502 51.74 65.1602 51.52C64.7102 51.42 64.2602 51.33 63.8102 51.3C63.3602 51.25 62.9003 51.26 62.4603 51.3C62.0103 51.34 61.5703 51.42 61.1403 51.55C60.7103 51.69 60.2903 51.84 59.9003 52.07C59.7003 52.17 59.5103 52.29 59.3203 52.42C59.1303 52.54 58.9503 52.69 58.7803 52.83C58.6003 52.97 58.4303 53.13 58.2703 53.29C58.1003 53.44 57.9402 53.62 57.7902 53.8C57.4702 54.14 57.2102 54.53 56.9302 54.91L56.5502 55.51C56.4502 55.66 56.3502 55.93 56.2502 56.14C56.0802 56.58 55.9302 57 55.8002 57.47C55.6602 57.93 55.5402 58.4 55.4302 58.87C55.3102 59.34 55.2102 59.82 55.1002 60.28C54.9902 60.76 54.8902 61.23 54.7902 61.71V61.7Z" fill="#302A13"/>
<path d="M50.37 70.64L50.27 69.42H50.59L50.49 70.64H50.37Z" fill="#231F20"/>
<path d="M46.33 70.03C46.33 70.03 46.31 70.04 46.26 70.06C46.21 70.08 46.14 70.1 46.06 70.15C45.98 70.19 45.88 70.25 45.8 70.35C45.71 70.44 45.63 70.56 45.63 70.72C45.63 70.87 45.69 71.03 45.81 71.16C45.92 71.3 46.08 71.41 46.24 71.5C46.58 71.68 47 71.77 47.41 71.77C47.61 71.77 47.8201 71.76 48.0201 71.72C48.2201 71.69 48.41 71.63 48.6 71.57C48.78 71.51 48.95 71.44 49.12 71.36C49.29 71.28 49.42 71.2 49.56 71.12C49.82 70.96 50.03 70.8 50.17 70.69C50.31 70.57 50.39 70.51 50.39 70.51L50.5901 70.75C50.5901 70.75 50.5 70.81 50.35 70.93C50.2 71.04 49.97 71.2 49.69 71.35C49.55 71.43 49.39 71.51 49.22 71.58C49.05 71.65 48.86 71.72 48.66 71.77C48.47 71.82 48.26 71.87 48.05 71.89C47.84 71.92 47.62 71.92 47.41 71.91C46.98 71.89 46.55 71.77 46.19 71.57C46.02 71.47 45.86 71.34 45.75 71.19C45.64 71.04 45.57 70.86 45.58 70.7C45.59 70.54 45.6901 70.4 45.7801 70.31C45.8701 70.22 45.98 70.16 46.06 70.12C46.14 70.08 46.21 70.06 46.26 70.04C46.31 70.02 46.33 70.01 46.33 70.01V70.03Z" fill="#231F20"/>
<path d="M46.9501 70.11C46.9501 70.11 46.9101 70.19 46.8701 70.19C46.8301 70.19 46.79 70.15 46.79 70.11C46.79 70.07 46.8301 70.03 46.8701 70.03C46.9101 70.03 46.9501 70.07 46.9501 70.11Z" fill="#231F20"/>
<path d="M48.14 69.6C48.14 69.6 48.1 69.68 48.06 69.68C48.02 69.68 47.98 69.64 47.98 69.6C47.98 69.56 48.02 69.52 48.06 69.52C48.1 69.52 48.14 69.56 48.14 69.6Z" fill="#231F20"/>
<path d="M47.8802 70.94C47.8802 70.94 47.8402 71.02 47.8002 71.02C47.7602 71.02 47.7202 70.98 47.7202 70.94C47.7202 70.9 47.7602 70.86 47.8002 70.86C47.8402 70.86 47.8802 70.9 47.8802 70.94Z" fill="#231F20"/>
<path d="M48.97 70.35C48.97 70.35 48.9301 70.43 48.8901 70.43C48.8501 70.43 48.8101 70.39 48.8101 70.35C48.8101 70.3 48.8501 70.27 48.8901 70.27C48.9301 70.27 48.97 70.31 48.97 70.35Z" fill="#231F20"/>
<path d="M51.7701 70.11C51.7701 70.11 51.7301 70.19 51.6901 70.19C51.6501 70.19 51.6101 70.15 51.6101 70.11C51.6101 70.07 51.6501 70.03 51.6901 70.03C51.7301 70.03 51.7701 70.07 51.7701 70.11Z" fill="#231F20"/>
<path d="M52.9501 69.61C52.9501 69.61 52.9101 69.69 52.8701 69.69C52.8201 69.69 52.79 69.65 52.79 69.61C52.79 69.57 52.8201 69.53 52.8701 69.53C52.9101 69.53 52.9501 69.57 52.9501 69.61Z" fill="#231F20"/>
<path d="M52.7001 70.94C52.7001 70.94 52.6601 71.02 52.6201 71.02C52.5801 71.02 52.54 70.98 52.54 70.94C52.54 70.9 52.5801 70.86 52.6201 70.86C52.6601 70.86 52.7001 70.9 52.7001 70.94Z" fill="#231F20"/>
<path d="M53.7802 70.35C53.7802 70.35 53.7501 70.43 53.7001 70.43C53.6601 70.43 53.6201 70.39 53.6201 70.35C53.6201 70.31 53.6601 70.27 53.7001 70.27C53.7501 70.27 53.7802 70.31 53.7802 70.35Z" fill="#231F20"/>
<path d="M54.5301 70.03C54.5301 70.03 54.56 70.03 54.61 70.06C54.66 70.08 54.7201 70.1 54.8101 70.14C54.8901 70.18 55.0001 70.23 55.0901 70.33C55.1801 70.42 55.28 70.55 55.29 70.72C55.31 70.89 55.2401 71.07 55.1301 71.21C55.0201 71.36 54.8601 71.49 54.6901 71.59C54.3401 71.79 53.91 71.91 53.48 71.93C53.26 71.93 53.0501 71.93 52.8401 71.91C52.6301 71.89 52.42 71.84 52.23 71.79C52.03 71.74 51.84 71.67 51.67 71.6C51.5 71.53 51.3401 71.45 51.2001 71.37C50.9101 71.21 50.69 71.06 50.54 70.95C50.39 70.84 50.3 70.77 50.3 70.77L50.5001 70.53C50.5001 70.53 50.58 70.59 50.72 70.71C50.86 70.82 51.0701 70.98 51.3301 71.14C51.4701 71.22 51.6101 71.3 51.7701 71.38C51.9301 71.46 52.1 71.53 52.29 71.59C52.47 71.65 52.6701 71.7 52.8701 71.74C53.0701 71.78 53.27 71.79 53.48 71.79C53.9 71.79 54.3101 71.7 54.6501 71.52C54.8201 71.43 54.9701 71.32 55.0801 71.18C55.1901 71.05 55.2601 70.89 55.2601 70.74C55.2601 70.59 55.1801 70.46 55.0901 70.37C55.0101 70.27 54.9101 70.22 54.8201 70.17C54.7401 70.12 54.6701 70.1 54.6301 70.08C54.5801 70.07 54.5601 70.05 54.5601 70.05L54.5301 70.03Z" fill="#231F20"/>
<path d="M40.6301 67.81C41.2501 67.95 41.8601 68.1 42.4801 68.25C42.7901 68.33 43.1001 68.39 43.4001 68.48C43.7001 68.58 44.0101 68.67 44.3001 68.8C43.9801 68.78 43.6701 68.71 43.3601 68.64C43.0501 68.57 42.7501 68.47 42.4501 68.38C41.8401 68.2 41.2401 68.02 40.6301 67.83V67.81Z" fill="#212120"/>
<path d="M38.1101 70.75L40.8001 70.14C41.2501 70.04 41.7001 69.93 42.1501 69.85C42.6001 69.77 43.0601 69.69 43.5101 69.65C43.0701 69.8 42.6201 69.9 42.1701 70.01C41.7201 70.11 41.2701 70.19 40.8101 70.27L38.1001 70.76L38.1101 70.75Z" fill="#212120"/>
<path d="M40.7202 72.39L42.4802 71.32C42.7702 71.14 43.0602 70.96 43.3602 70.79C43.6702 70.63 43.9702 70.47 44.2902 70.34C44.0102 70.56 43.7202 70.74 43.4302 70.93C43.1402 71.11 42.8302 71.26 42.5302 71.43L40.7202 72.4H40.7102L40.7202 72.39Z" fill="#212120"/>
<path d="M60.2101 67.83C59.6001 68.02 59.0001 68.2 58.3901 68.38C58.0901 68.47 57.78 68.57 57.47 68.64C57.16 68.71 56.85 68.78 56.54 68.82C56.83 68.68 57.1401 68.59 57.4401 68.49C57.7401 68.4 58.05 68.33 58.36 68.26C58.98 68.11 59.5901 67.97 60.2101 67.82V67.83Z" fill="#212120"/>
<path d="M62.73 70.77L60.0201 70.28C59.5701 70.2 59.11 70.12 58.67 70.02C58.22 69.92 57.7701 69.81 57.3301 69.68C57.7901 69.71 58.2401 69.79 58.7001 69.87C59.1501 69.95 59.6 70.06 60.05 70.16L62.7401 70.77H62.73Z" fill="#212120"/>
<path d="M60.11 72.4L58.3 71.43C58 71.27 57.6901 71.11 57.4001 70.93C57.1101 70.75 56.82 70.56 56.54 70.36H56.55C56.87 70.47 57.17 70.64 57.48 70.79C57.78 70.95 58.07 71.14 58.36 71.32L60.1201 72.39H60.11V72.4Z" fill="#212120"/>
<path d="M24.4901 25.88C24.4901 25.88 28.1601 23.4 36.7701 31.13C36.7701 31.13 39.4601 34.4 38.4401 37.63C38.4401 37.63 38.1501 39.7201 33.8401 39.7801C33.8401 39.7801 30.46 42.57 29.98 43.75C29.49 44.92 28.2201 46.69 26.9401 46.88C25.6701 47.07 25.24 41.89 24.54 41.27C23.84 40.65 21.56 32 22.98 28.43C24.4 24.86 24.5001 25.88 24.5001 25.88H24.4901Z" fill="#E48F8C"/>
<path d="M26.6901 47.67C26.6901 47.67 23.8001 43.95 24.4901 42.04C24.4901 42.04 20.0301 31.07 23.7101 25.99C23.7101 25.99 26.4501 22.22 32.3701 25.45C38.2901 28.68 42.3501 34.23 40.9901 35.91C39.6201 37.59 37.3201 38.82 37.3201 38.82C37.3201 38.82 38.5401 37.96 38.2501 36.48C37.9501 35 38.1001 31.77 31.2001 28.2C24.3001 24.63 23.4501 25.97 23.0301 30.6C22.6001 35.23 24.3001 40.59 24.8901 41.57C25.4801 42.55 26.7001 47.69 26.7001 47.69L26.6901 47.67Z" fill="#D3AA7F"/>
<path d="M42.8401 32.73C42.8401 32.73 41.4601 33.89 42.0601 34.65C42.6501 35.41 43.6901 36.37 43.4101 37.44C43.1301 38.51 42.0401 42.84 43.0801 42.69C43.0801 42.69 43.4101 41.82 43.6201 41.55C43.8301 41.28 43.8801 40.89 43.8801 40.68C43.8801 40.47 44.4001 39.7 44.3701 39.46C44.3501 39.22 44.7701 37.55 44.8701 36.95C44.9701 36.35 44.8201 34.95 44.5601 34.53C44.3001 34.11 43.3101 32.5 42.8401 32.71V32.73Z" fill="#302A13"/>
<path d="M45.6502 33.83C45.4502 34.03 45.6701 34.87 45.9801 35.08C46.2901 35.29 46.6001 35.5 46.7401 35.27C46.8801 35.03 46.8101 34.54 46.7401 34.18C46.6701 33.83 46.1502 33.33 45.6502 33.83Z" fill="#302A13"/>
<path d="M48.6901 37.08C48.6901 37.08 47.1501 37.42 47.1501 37.86C47.1501 38.3 47.54 39.75 46.97 40.08C46.4 40.41 45.1801 40.36 45.4301 39.84C45.6801 39.32 45.7201 39.01 46.0001 38.78C46.2901 38.54 46.2901 38.33 46.1801 38.21C46.0701 38.09 45.6001 37.45 45.8201 37.29C46.0301 37.13 48.0501 36.7 48.4401 36.53C48.8301 36.36 50.0901 36.82 50.4501 37.07C50.8101 37.31 51.4201 37.71 51.6401 37.81C51.8501 37.9 52.4601 38.9 52.3901 39.3C52.3201 39.7 52.3201 40.22 51.8201 40.11C51.3201 39.99 50.96 39.49 51.17 39.07C51.39 38.65 51.2101 38.27 50.9901 38.08C50.7801 37.89 48.7001 37.08 48.7001 37.08H48.6901Z" fill="#302A13"/>
<path d="M47.7701 40.73C47.5901 40.84 47.2801 41.38 47.3401 41.55C47.3901 41.72 47.7501 42.14 47.9601 41.86C48.1701 41.58 48.1901 40.44 47.7701 40.73Z" fill="#302A13"/>
<path d="M42.8301 43.23C42.6301 43.57 42.1401 45.07 41.9501 45.37C41.7601 45.67 41.86 46.93 42.11 47.81C42.36 48.69 43.16 50.93 43.48 50.67C43.81 50.42 43.59 49.72 43.48 49.46C43.36 49.2 43.1301 47.1 43.1501 46.96C43.1701 46.81 42.92 46.42 42.92 46.21C42.92 46 43.6401 44.86 43.6501 44.51C43.6601 44.16 43.3301 43.65 43.3801 43.41C43.4301 43.18 43.0201 42.87 42.8201 43.22L42.8301 43.23Z" fill="#302A13"/>
<path d="M43.9001 44.4C43.7201 44.69 43.7801 46.67 44.7801 47.9C45.7701 49.13 44.7801 47.99 44.7801 47.99C44.7801 47.99 45.42 49.48 45.22 49.67C45.02 49.86 44.9601 50.36 45.2601 50.24C45.5601 50.12 45.9601 49.03 45.9601 48.78C45.9601 48.53 45.4801 46.72 45.4001 46.23C45.3201 45.74 44.4701 43.5199 43.9001 44.4099V44.4Z" fill="#302A13"/>
<path d="M46.92 45.52C46.59 45.68 47.51 48.49 47.82 48.42C48.13 48.35 47.66 48.07 47.7 47.6C47.75 47.12 48.13 44.92 46.92 45.52Z" fill="#302A13"/>
<path d="M45.4202 43.28C45.2602 43.36 45.1302 44.63 45.4202 44.42C45.7102 44.21 45.9802 43 45.4202 43.28Z" fill="#302A13"/>
<path d="M46.4001 42.71C46.2101 42.81 46.0601 44.31 46.4001 44.06C46.7401 43.81 47.0601 42.38 46.4001 42.71Z" fill="#302A13"/>
<path d="M47.4701 42.38C47.2501 42.49 47.0801 44.1999 47.4701 43.9099C47.8601 43.6199 48.2301 42 47.4701 42.38Z" fill="#302A13"/>
<path d="M47.5702 49.23C47.3802 49.37 47.8202 50.1 48.1902 49.75C48.5602 49.4 48.1002 48.83 47.5702 49.23Z" fill="#302A13"/>
<path d="M46.9601 50.53C46.8201 50.67 46.4401 51.8 46.9601 51.33C47.4801 50.86 47.28 50.83 47.38 50.67C47.48 50.51 46.9601 50.53 46.9601 50.53Z" fill="#302A13"/>
<path d="M47.5301 44.67C47.4701 44.75 47.6501 45.42 47.9101 45.43C48.1701 45.43 47.5801 45.03 47.7201 44.67C47.8601 44.31 47.7201 44.44 47.5301 44.67Z" fill="#302A13"/>
<path d="M50.0703 67.82C50.0703 68.26 49.7202 68.61 49.2902 68.61C48.8602 68.61 48.5103 68.26 48.5103 67.82C48.5103 67.38 48.8602 67.03 49.2902 67.03C49.7202 67.03 50.0703 67.38 50.0703 67.82Z" fill="#0E0E0E"/>
<path d="M52.3801 67.73C52.3801 68.16 52.03 68.52 51.6 68.52C51.17 68.52 50.8201 68.17 50.8201 67.73C50.8201 67.29 51.17 66.94 51.6 66.94C52.03 66.94 52.3801 67.29 52.3801 67.73Z" fill="#0E0E0E"/>
<path d="M52.3202 67.74C52.3202 67.74 53.7001 67.2 52.5501 66.25C51.4001 65.3 50.9702 66.09 50.4302 66.07C49.8902 66.09 49.4602 65.3 48.3102 66.25C47.1602 67.2 48.5401 67.74 48.5401 67.74C48.6101 66.83 49.6001 67.74 49.6001 68.03C49.6001 68.84 48.5401 68.03 48.5401 68.03C48.4801 68.56 48.9202 68.77 49.3102 68.96C49.6902 69.14 50.4402 69.68 50.4402 69.68C50.4402 69.68 51.1802 69.14 51.5702 68.96C51.9502 68.78 52.4002 68.56 52.3402 68.03C52.3402 68.03 51.1502 68.84 51.2802 68.03C51.3802 67.42 52.2702 66.83 52.3402 67.74H52.3202Z" fill="#E48F8C"/>
<path d="M29.6701 52.25C29.5201 52.45 28.1101 53.22 27.8601 53.38C27.6101 53.55 27.8402 53.99 27.7802 54.18C27.6002 54.66 27.1201 54.64 25.9801 55.11C25.6401 55.25 25.3501 55.31 25.1201 55.32V54.73C25.3401 54.63 25.5601 54.53 25.6901 54.47C26.0701 54.31 26.6101 54.18 26.9001 53.99C27.1901 53.79 26.9001 53.1 27.6101 52.6C28.3201 52.1 29.2901 51.44 29.2901 51.44C29.2901 51.44 29.8201 52.06 29.6701 52.25Z" fill="#1B170D"/>
<path d="M41.9702 68.31C41.9702 68.31 38.0102 69.13 37.2202 68.81C36.4302 68.5 35.6002 67.63 35.0602 67.46C34.5202 67.29 33.8502 66.55 33.0202 66.25C32.1802 65.96 30.2302 65.59 29.6802 65.5C29.1402 65.42 28.3502 64.71 27.9302 64.5C27.7302 64.39 27.1202 64.11 26.2802 64.03C26.1602 63.76 26.0602 63.47 25.9602 63.17C26.5902 63.11 27.1802 63.13 27.5202 63.35C28.5202 64 29.3102 64.92 30.0602 64.84C30.8102 64.75 33.4602 65.32 34.2302 66C35.0002 66.68 36.3902 67.05 36.8902 67.82C37.3902 68.59 41.1402 68.54 41.9602 67.81C42.8002 67.09 41.9602 68.31 41.9602 68.31H41.9702Z" fill="#1B170D"/>
<path d="M47.98 32.27C47.98 32.27 47.0601 32.36 45.5801 32.27C44.5001 32.21 43.7301 31.77 43.0701 31C43.4901 30.91 43.9301 30.82 44.3901 30.75C45.0101 31.17 45.98 31.25 47.05 31.22C48.79 31.16 47.98 32.27 47.98 32.27Z" fill="#302A13"/>
<path d="M76.49 25.93C76.49 25.93 72.82 23.45 64.21 31.18C64.21 31.18 61.52 34.44 62.54 37.68C62.54 37.68 62.83 39.77 67.14 39.83C67.14 39.83 70.52 42.63 71 43.8C71.49 44.97 72.76 46.74 74.04 46.93C75.31 47.12 75.74 41.94 76.45 41.32C77.14 40.7 79.43 32.05 78.01 28.48C76.59 24.91 76.49 25.93 76.49 25.93Z" fill="#E48F8C"/>
<path d="M74.29 47.72C74.29 47.72 77.18 44 76.49 42.09C76.49 42.09 80.95 31.12 77.27 26.04C77.27 26.04 74.53 22.27 68.61 25.5C62.69 28.73 58.63 34.27 59.99 35.96C61.36 37.64 63.66 38.87 63.66 38.87C63.66 38.87 62.44 38.01 62.73 36.53C63.03 35.05 62.88 31.82 69.78 28.25C76.68 24.68 77.53 26.02 77.95 30.65C78.38 35.28 76.68 40.64 76.09 41.62C75.5 42.6 74.28 47.74 74.28 47.74L74.29 47.72Z" fill="#D3AA7F"/>
<path d="M58.1301 32.79C58.1301 32.79 59.5101 33.95 58.9101 34.72C58.3201 35.48 57.2801 36.43 57.5601 37.51C57.8401 38.58 58.9301 42.91 57.8901 42.76C57.8901 42.76 57.5601 41.89 57.3501 41.62C57.1301 41.35 57.0901 40.96 57.0901 40.75C57.0901 40.54 56.5701 39.77 56.6001 39.53C56.6201 39.29 56.2001 37.62 56.1001 37.02C56.0101 36.42 56.1501 35.02 56.4101 34.6C56.6701 34.18 57.6601 32.57 58.1301 32.78V32.79Z" fill="#302A13"/>
<path d="M55.33 33.89C55.53 34.09 55.31 34.93 55 35.14C54.69 35.35 54.38 35.56 54.24 35.33C54.1 35.09 54.17 34.6 54.24 34.24C54.31 33.89 54.83 33.39 55.33 33.89Z" fill="#302A13"/>
<path d="M52.29 37.13C52.29 37.13 53.83 37.47 53.83 37.91C53.83 38.35 53.44 39.8 54.01 40.13C54.58 40.46 55.8 40.41 55.55 39.89C55.3 39.37 55.26 39.06 54.98 38.83C54.69 38.59 54.69 38.38 54.8 38.26C54.91 38.14 55.38 37.5001 55.16 37.3401C54.95 37.1801 52.93 36.75 52.54 36.58C52.15 36.42 50.89 36.87 50.53 37.12C50.17 37.36 49.56 37.76 49.35 37.86C49.13 37.95 48.52 38.95 48.6 39.35C48.67 39.75 48.67 40.27 49.17 40.16C49.67 40.04 50.03 39.54 49.81 39.12C49.59 38.69 49.77 38.31 49.99 38.12C50.2 37.93 52.28 37.12 52.28 37.12L52.29 37.13Z" fill="#302A13"/>
<path d="M53.2101 40.78C53.3901 40.89 53.7001 41.4299 53.6401 41.5999C53.5901 41.7699 53.2301 42.1899 53.0201 41.9099C52.8101 41.6299 52.7901 40.49 53.2101 40.78Z" fill="#302A13"/>
<path d="M58.1502 43.29C58.3502 43.63 58.8402 45.13 59.0302 45.43C59.2202 45.73 59.1202 46.99 58.8702 47.87C58.6102 48.75 57.8202 50.99 57.4902 50.73C57.1602 50.48 57.3802 49.78 57.4902 49.52C57.6102 49.26 57.8402 47.17 57.8202 47.02C57.8002 46.87 58.0502 46.48 58.0502 46.27C58.0502 46.06 57.3302 44.92 57.3202 44.57C57.3102 44.22 57.6402 43.71 57.5902 43.47C57.5402 43.24 57.9402 42.93 58.1502 43.28V43.29Z" fill="#302A13"/>
<path d="M57.08 44.46C57.26 44.75 57.2 46.73 56.2 47.96C55.21 49.19 56.2 48.05 56.2 48.05C56.2 48.05 55.56 49.54 55.76 49.73C55.96 49.92 56.02 50.42 55.72 50.3C55.42 50.18 55.02 49.09 55.02 48.84C55.02 48.59 55.5 46.78 55.58 46.29C55.66 45.8 56.51 43.5799 57.08 44.4699V44.46Z" fill="#302A13"/>
<path d="M54.0602 45.58C54.3902 45.74 53.4702 48.55 53.1602 48.48C52.8502 48.41 53.3302 48.13 53.2802 47.65C53.2302 47.18 52.8502 44.98 54.0602 45.58Z" fill="#302A13"/>
<path d="M55.5601 43.33C55.7201 43.41 55.8501 44.68 55.5601 44.47C55.2701 44.26 55.0001 43.05 55.5601 43.33Z" fill="#302A13"/>
<path d="M54.5803 42.76C54.7703 42.86 54.9203 44.36 54.5803 44.11C54.2403 43.86 53.9103 42.43 54.5803 42.76Z" fill="#302A13"/>
<path d="M53.5103 42.44C53.7303 42.55 53.9003 44.2599 53.5103 43.9699C53.1203 43.6799 52.7503 42.06 53.5103 42.44Z" fill="#302A13"/>
<path d="M53.4101 49.28C53.5901 49.42 53.1601 50.15 52.7901 49.8C52.4101 49.45 52.8801 48.88 53.4101 49.28Z" fill="#302A13"/>
<path d="M54.0101 50.58C54.1501 50.72 54.5301 51.86 54.0101 51.39C53.4901 50.92 53.6902 50.89 53.5902 50.73C53.4902 50.57 54.0101 50.59 54.0101 50.59V50.58Z" fill="#302A13"/>
<path d="M53.4502 44.72C53.5102 44.8 53.3302 45.47 53.0702 45.48C52.8102 45.48 53.4002 45.08 53.2602 44.72C53.1202 44.37 53.2602 44.49 53.4502 44.72Z" fill="#302A13"/>
<path d="M71.3102 52.3C71.4602 52.5 72.8702 53.27 73.1202 53.43C73.3702 53.6 73.1402 54.04 73.2002 54.23C73.3802 54.71 73.8602 54.69 75.0002 55.16C75.3402 55.3 75.6302 55.36 75.8602 55.37V54.78C75.6402 54.68 75.4202 54.58 75.2902 54.52C74.9102 54.36 74.3702 54.23 74.0802 54.04C73.7902 53.84 74.0802 53.15 73.3702 52.65C72.6602 52.15 71.6902 51.49 71.6902 51.49C71.6902 51.49 71.1602 52.11 71.3102 52.3Z" fill="#1B170D"/>
<path d="M59.0101 68.37C59.0101 68.37 62.9701 69.19 63.7601 68.87C64.5501 68.56 65.38 67.69 65.92 67.52C66.46 67.35 67.1301 66.61 67.9601 66.31C68.8001 66.02 70.75 65.65 71.3 65.56C71.84 65.48 72.63 64.77 73.05 64.56C73.25 64.45 73.8601 64.17 74.7001 64.09C74.8201 63.82 74.9201 63.53 75.0201 63.23C74.3901 63.17 73.8001 63.19 73.4601 63.41C72.4601 64.06 71.67 64.98 70.92 64.9C70.17 64.81 67.5301 65.38 66.7601 66.06C65.9901 66.74 64.6 67.11 64.1 67.88C63.6 68.65 59.8501 68.6 59.0201 67.87C58.1801 67.15 59.0201 68.37 59.0201 68.37H59.0101Z" fill="#1B170D"/>
<path d="M53.0001 32.33C53.0001 32.33 53.9201 32.42 55.4001 32.33C56.4801 32.27 57.25 31.83 57.91 31.06C57.49 30.97 57.0501 30.88 56.5901 30.81C55.9701 31.23 55.0001 31.31 53.9301 31.28C52.1901 31.22 53.0001 32.33 53.0001 32.33Z" fill="#302A13"/>
</svg>
