<svg width="102" height="101" viewBox="0 0 102 101" fill="none" xmlns="http://www.w3.org/2000/svg">
<path d="M93.06 0.0700073H9.47005C4.68174 0.0700073 0.800049 3.95168 0.800049 8.73999V92.33C0.800049 97.1183 4.68174 101 9.47005 101H93.06C97.8484 101 101.73 97.1183 101.73 92.33V8.73999C101.73 3.95168 97.8484 0.0700073 93.06 0.0700073Z" fill="#DBBD64"/>
<path d="M52.0501 76.9C51.8201 76.9 51.6001 76.84 51.4101 76.72C51.3701 76.72 51.3301 76.72 51.2901 76.72C50.9001 76.72 50.5101 76.55 50.2801 76.22C50.2501 76.18 50.2301 76.15 50.2101 76.11C48.6701 75.92 47.7201 75.42 46.7201 74.89C46.5201 74.79 46.3201 74.6799 46.1001 74.5699C45.1001 74.2499 44.0801 73.87 43.0601 73.41C37.5201 71.79 31.9801 69.55 30.2701 61.91C30.0701 61 29.8501 60.32 29.6501 59.72C29.2401 58.44 28.9201 57.45 29.2301 55.76C23.5301 54.82 19.0401 53.38 15.8301 51.49C15.4301 54.74 15.7201 57.71 16.6901 59.98C17.3201 61.47 19.3701 62.68 21.2501 62.67C21.8801 62.67 22.7801 62.53 23.4601 61.84C24.1801 61.11 24.5501 59.88 24.5301 58.27C24.5301 57.79 24.7901 57.35 25.2301 57.13C25.4101 57.04 25.5901 57 25.7801 57C26.0501 57 26.3301 57.09 26.5501 57.27C28.1801 58.55 27.9601 61.31 27.2201 63.46C26.1801 66.47 23.5001 69.98 19.3901 69.98C16.9901 69.98 14.5201 68.77 12.0301 66.39C10.4001 64.82 9.05007 62.5499 7.91007 59.4399C5.50007 52.8399 8.15007 34.8401 18.1001 27.5601C21.1701 25.3201 24.9401 24.13 29.0101 24.13C37.6101 24.13 45.9201 29.37 48.4501 36.35C48.5001 36.35 48.5501 36.35 48.6001 36.34C49.6301 36.21 50.6701 36.15 51.7101 36.15C52.8501 36.15 53.9801 36.22 55.0801 36.37C57.6001 29.38 65.9201 24.13 74.5301 24.13C78.6001 24.13 82.3701 25.3201 85.4401 27.5601C95.3901 34.8401 98.0401 52.8399 95.6301 59.4399C94.4901 62.5499 93.1401 64.83 91.5101 66.39C89.0201 68.77 86.5501 69.98 84.1501 69.98C80.0401 69.98 77.3601 66.46 76.3201 63.46C75.5801 61.31 75.3601 58.55 76.9901 57.27C77.2101 57.09 77.4901 57 77.7601 57C77.9501 57 78.1401 57.04 78.3101 57.13C78.7401 57.34 79.0101 57.78 79.0101 58.27C78.9901 59.88 79.3601 61.11 80.0801 61.84C80.7601 62.53 81.6601 62.67 82.2901 62.67C84.1701 62.67 86.2201 61.46 86.8501 59.98C87.8201 57.7 88.1201 54.72 87.7101 51.46C84.5001 53.37 79.9901 54.82 74.2701 55.76C74.5701 57.44 74.2501 58.45 73.8501 59.67C73.6501 60.28 73.4301 60.97 73.2301 61.9C72.1501 66.92 68.1601 70.76 61.7001 73C60.1401 73.75 58.5601 74.34 56.9901 74.77L56.7701 74.88C55.7901 75.39 54.8601 75.88 53.3701 76.08C53.3401 76.11 53.3001 76.14 53.2601 76.17C53.2201 76.2 53.1801 76.22 53.1401 76.25C52.9801 76.53 52.7001 76.75 52.3601 76.84C52.2601 76.86 52.1601 76.88 52.0601 76.88L52.0501 76.9ZM69.8401 44.36C69.9501 44.38 70.0701 44.4 70.1901 44.42L70.3801 44.46C70.6801 44.52 71.0401 44.5699 71.4101 44.5699C71.7401 44.5699 72.0301 44.5299 72.3101 44.4399C73.0401 44.2099 73.5601 43.94 74.1601 43.62C75.8601 42.72 77.6201 41.8 83.7501 41.8C83.9601 41.8 84.1801 41.8 84.4001 41.8C84.4001 41.8 84.4701 41.8 84.5101 41.8C83.3301 39.73 81.9301 38.06 80.4801 37C78.9301 35.87 77.2401 35.29 75.4601 35.29C72.0901 35.29 68.8901 37.36 66.9101 40.76C67.9701 41.74 68.9701 42.97 69.8401 44.36ZM19.7101 41.79C25.8501 41.79 27.6101 42.72 29.3101 43.61C29.9101 43.93 30.4301 44.2001 31.1601 44.4301C31.4401 44.5201 31.7401 44.5601 32.0601 44.5601C32.4301 44.5601 32.7801 44.5 33.0901 44.45C33.0901 44.45 33.4601 44.38 33.5501 44.37C34.4501 42.95 35.4701 41.6901 36.5601 40.6801C34.5801 37.3401 31.4001 35.3 28.0601 35.3C26.2801 35.3 24.5901 35.87 23.0401 37.01C21.5901 38.07 20.1901 39.7401 19.0101 41.8101C19.2601 41.8101 19.4901 41.8101 19.7101 41.8101V41.79Z" fill="#2F150C"/>
<path d="M84.6901 28.6C74.9001 21.44 59.5401 27.23 56.1801 37.01C56.1001 37.23 56.1101 37.49 56.1601 37.77C55.8101 37.73 55.4501 37.69 55.0901 37.66C54.0901 37.52 52.9601 37.43 51.7001 37.43C50.6201 37.43 49.6201 37.5 48.7101 37.62C48.2401 37.65 47.7901 37.68 47.3601 37.73C47.4101 37.47 47.4101 37.22 47.3401 37.01C43.9801 27.23 28.6201 21.44 18.8301 28.6C9.04009 35.76 6.98009 53.3 9.08009 59.04C10.1801 62.06 11.4501 64.14 12.8901 65.52C22.9101 75.12 28.6801 60.56 25.7701 58.28C25.8701 66.42 17.2401 64.51 15.5301 60.49C14.2001 57.37 14.1101 53.34 14.9001 49.39C17.7001 51.52 22.5601 53.55 30.7501 54.76C30.7301 54.84 30.7101 54.91 30.6801 54.98C30.7001 54.95 30.7101 54.92 30.7301 54.89C29.8201 57.93 30.7501 58.37 31.4801 61.66C33.0501 68.65 38.1501 70.7 43.4801 72.25C44.5201 72.71 45.5601 73.11 46.5601 73.42C48.1101 74.19 48.9701 74.8599 51.1601 74.9399C51.1501 74.9599 51.1401 74.9699 51.1401 74.9699C51.1401 74.9699 51.1701 74.9699 51.2001 74.9499C51.3101 74.9499 51.4301 74.9499 51.5501 74.9499C51.5201 75.2299 51.3301 75.4699 51.3301 75.4699C51.3301 75.4699 51.8501 75.2499 51.9301 74.9499C51.9301 74.9499 51.9401 74.9499 51.9501 74.9499C51.9701 75.2799 52.0601 75.65 52.0601 75.65C52.0601 75.65 52.0401 75.59 52.1401 75.12C52.1401 75.08 52.1801 75.0099 52.2101 74.9499C52.2601 74.9499 52.3101 74.9499 52.3501 74.9499C52.3901 75.0999 52.5001 75.2099 52.5001 75.2099C52.5001 75.2099 52.4401 75.0999 52.4401 74.9399C54.3501 74.8399 55.2301 74.29 56.5201 73.62C58.0801 73.2 59.6701 72.61 61.2201 71.86C66.1401 70.17 70.8301 67.1 72.0001 61.66C72.7001 58.39 73.6501 57.9299 72.7801 54.9699C72.7801 54.9699 72.7801 54.97 72.7801 54.98C72.7601 54.92 72.7401 54.85 72.7201 54.79C72.7201 54.79 72.7201 54.78 72.7201 54.77C80.9601 53.56 85.8301 51.51 88.6201 49.37C89.4201 53.33 89.3301 57.38 87.9901 60.51C86.2801 64.53 77.6501 66.44 77.7501 58.3C74.8501 60.58 80.6101 75.14 90.6301 65.54C92.0701 64.16 93.3401 62.08 94.4401 59.06C96.5401 53.32 94.4701 35.78 84.6901 28.62V28.6ZM81.2201 35.99C83.2701 37.49 85.0701 39.93 86.4401 42.78C85.8701 42.94 85.2501 43.05 84.5701 43.05C84.5101 43.05 84.4601 43.05 84.4001 43.05C75.6701 42.96 75.7801 44.67 72.6901 45.63C71.7301 45.93 70.8301 45.8 70.1701 45.68C69.6901 45.59 69.3201 45.5099 69.1301 45.5799C68.1001 43.8199 66.9101 42.39 65.7001 41.35C65.5801 41.25 65.4601 41.15 65.3401 41.06C68.5301 34.55 75.6401 31.91 81.2201 35.99ZM22.3001 35.99C27.8601 31.93 34.9201 34.5299 38.1401 40.9599C37.9801 41.0899 37.8301 41.22 37.6801 41.35C36.5001 42.4 35.3201 43.82 34.2901 45.56C34.0901 45.53 33.7501 45.6 33.3201 45.68C32.6501 45.8 31.7601 45.92 30.8001 45.62C27.6901 44.65 27.8301 42.93 18.9301 43.04C18.8001 43.04 18.6801 43.04 18.5501 43.03C18.0301 43 17.5401 42.91 17.0901 42.79C18.4501 39.93 20.2601 37.49 22.3101 35.99H22.3001Z" fill="#2F150C"/>
<path d="M84.6901 28.6C74.9001 21.44 59.5401 27.23 56.1801 37.01C55.6701 38.5 58.6701 41.77 58.6701 41.77C58.6701 41.77 63.9701 44.64 64.5901 42.85C67.2701 35.06 75.1501 31.54 81.2201 35.98C87.3001 40.43 91.1701 53.04 87.9901 60.48C86.2801 64.5 77.6501 66.41 77.7501 58.27C74.8501 60.55 80.6101 75.11 90.6301 65.51C92.0701 64.13 93.3401 62.05 94.4401 59.03C96.5401 53.29 94.4701 35.7499 84.6901 28.5899V28.6Z" fill="#D1A161"/>
<path d="M18.8301 28.6C28.6201 21.44 43.9801 27.23 47.3401 37.01C47.8501 38.5 44.8501 41.77 44.8501 41.77C44.8501 41.77 39.5501 44.64 38.9301 42.85C36.2501 35.06 28.3701 31.54 22.3001 35.98C16.2201 40.43 12.3501 53.04 15.5301 60.48C17.2401 64.5 25.8701 66.41 25.7701 58.27C28.6701 60.55 22.9101 75.11 12.8901 65.51C11.4501 64.13 10.1901 62.05 9.08009 59.03C6.98009 53.29 9.05009 35.7499 18.8301 28.5899V28.6Z" fill="#D1A161"/>
<path d="M91.2601 41.41C90.5301 40.67 89.6001 41.3799 88.2301 42.0699C87.2601 42.5699 86.0601 43.07 84.5701 43.05C75.6601 42.94 75.8001 44.66 72.6901 45.63C71.7301 45.93 70.8301 45.8 70.1701 45.68C69.5501 45.57 69.1201 45.46 69.0101 45.68C67.3401 45.3 64.0101 37.77 51.8101 37.87H51.7601C48.0101 37.83 45.1001 38.5099 42.8101 39.4799C37.6101 41.6899 35.6401 45.42 34.4801 45.68C34.3701 45.45 33.9401 45.57 33.3201 45.68C32.6501 45.8 31.7601 45.92 30.8001 45.62C27.6901 44.65 27.8301 42.93 18.9301 43.04C17.4401 43.06 16.2401 42.56 15.2701 42.06C13.9001 41.36 12.9701 40.66 12.2401 41.4C10.6401 43.03 9.65007 51.65 30.7801 54.75C29.8001 57.91 30.7501 58.31 31.5001 61.65C33.0901 68.76 38.3401 70.7599 43.7701 72.3199C47.8101 73.4799 48.0001 74.9499 51.6801 74.9499H51.7501H51.8201H51.8401C55.5201 74.9499 55.7101 73.4899 59.7501 72.3199C65.1801 70.7599 70.7301 67.63 72.0201 61.65C72.7401 58.31 73.7201 57.91 72.7401 54.75C93.8701 51.64 92.8801 43.02 91.2801 41.4" fill="#8C6E4C"/>
<path d="M18.9 43.0401C15.31 43.0401 13.45 40.1301 12.21 41.4001C10.61 43.0301 9.62004 51.6501 30.75 54.7501C30.73 54.8301 30.71 54.9 30.68 54.97C30.72 54.91 30.75 54.8501 30.77 54.7501C31.26 51.9601 28.78 43.0601 18.9 43.0401Z" fill="#E48F8C"/>
<path d="M84.5601 43.0401C88.1601 43.0401 90.0101 40.1301 91.2501 41.4001C92.8501 43.0301 93.8401 51.6501 72.7101 54.7501C72.7301 54.8301 72.7501 54.9 72.7801 54.97C72.7401 54.91 72.7101 54.8501 72.6901 54.7501C72.2001 51.9601 74.6801 43.0601 84.5601 43.0401Z" fill="#E48F8C"/>
<path d="M72.3801 58.1899C72.3801 58.4699 72.3701 58.75 72.3401 59.02C72.3401 59.12 72.3201 59.23 72.3101 59.33C71.3201 67.61 59.7601 74.1799 51.9401 74.3199C51.8501 74.3199 51.7701 74.3199 51.6801 74.3199C44.9601 74.3199 32.1901 67.73 31.0601 59.37C31.0001 58.98 30.9801 58.5899 30.9801 58.1899C30.9801 50.3299 34.2901 44.33 37.6601 41.35C40.4001 38.93 44.4101 37.54 51.6701 37.54C58.5001 37.54 62.9101 38.97 65.6801 41.35C69.0901 44.28 72.3601 50.3299 72.3601 58.1899" fill="#8C6E4C"/>
<path d="M51.6901 74.3199C48.6101 74.3199 44.0201 72.53 40.2701 69.87C35.9601 66.82 33.2401 63.03 32.8001 59.48C32.7501 59.13 32.7301 58.77 32.7301 58.41C32.7301 51.3 37.4101 42.68 38.8901 41.28C40.0401 40.19 45.8701 37.53 51.6901 37.53C57.1801 37.53 63.2701 40.15 64.5001 41.29C66.0201 42.71 70.6501 51.31 70.6501 58.41C70.6501 58.67 70.6501 58.9301 70.6201 59.1801C70.6201 59.2701 70.6001 59.37 70.5901 59.46C69.6901 67.74 58.6401 74.1801 51.9101 74.3101H51.9401H51.6801" fill="#9B795A"/>
<path d="M34.8601 55.0699C34.8601 55.0699 38.8601 63.4799 42.2901 63.4799C44.9101 63.4799 48.1901 62.1099 48.1901 62.1099C48.1901 62.1099 49.5801 48.09 41.9801 47.64C38.5601 47.44 34.8601 55.06 34.8601 55.06" fill="#8C6E4C"/>
<path d="M68.5801 55.0699C68.5801 55.0699 64.5801 63.4799 61.1501 63.4799C58.5301 63.4799 55.2501 62.1099 55.2501 62.1099C55.2501 62.1099 53.8601 48.09 61.4601 47.64C64.8801 47.44 68.5801 55.06 68.5801 55.06" fill="#8C6E4C"/>
<path d="M38.5701 49.49C38.5701 49.49 38.5801 49.46 38.6101 49.4C38.6401 49.34 38.6801 49.25 38.7501 49.15C38.8101 49.04 38.9001 48.9301 39.0101 48.7901C39.1201 48.6701 39.2501 48.51 39.4101 48.38C39.4901 48.31 39.5701 48.24 39.6601 48.16C39.7501 48.09 39.8501 48.03 39.9501 47.96C40.0501 47.89 40.1601 47.84 40.2801 47.77C40.4001 47.71 40.5101 47.65 40.6401 47.6C40.8901 47.51 41.1601 47.41 41.4501 47.37C41.7301 47.3 42.0301 47.3101 42.3201 47.3101C42.6101 47.3101 42.9001 47.3801 43.1801 47.4301C43.4501 47.5101 43.7201 47.61 43.9701 47.71C44.2101 47.84 44.4301 47.97 44.6301 48.1C44.8301 48.24 44.9901 48.4001 45.1501 48.5401C45.2301 48.6101 45.3001 48.68 45.3701 48.75C45.4301 48.82 45.4901 48.89 45.5401 48.96C45.6501 49.09 45.7301 49.2101 45.8001 49.3101C45.9401 49.5101 46.0101 49.63 46.0101 49.63C46.0101 49.63 45.8701 49.59 45.6601 49.49C45.5501 49.45 45.4201 49.39 45.2801 49.32C45.1401 49.25 44.9701 49.18 44.7901 49.12C44.6101 49.05 44.4301 48.97 44.2301 48.9C44.0301 48.84 43.8201 48.78 43.6101 48.7C43.3901 48.65 43.1701 48.6101 42.9501 48.5501C42.8401 48.5501 42.7201 48.53 42.6101 48.52C42.5001 48.51 42.3801 48.48 42.2701 48.49C42.0401 48.49 41.8201 48.47 41.5901 48.51C41.4801 48.53 41.3601 48.5101 41.2601 48.5401C41.1501 48.5601 41.0401 48.58 40.9301 48.6C40.8201 48.61 40.7201 48.6601 40.6201 48.6701C40.5201 48.7001 40.4101 48.72 40.3101 48.75C40.1101 48.81 39.9201 48.87 39.7501 48.94C39.5701 49 39.4201 49.07 39.2701 49.13C39.1301 49.2 39.0001 49.2501 38.9001 49.3001C38.7901 49.3501 38.7101 49.3901 38.6501 49.4201C38.5901 49.4501 38.5601 49.46 38.5601 49.46L38.5701 49.49Z" fill="#2F1E0F"/>
<path d="M64.9401 49.49C64.9401 49.49 64.9101 49.47 64.8501 49.45C64.7901 49.42 64.7101 49.38 64.6001 49.33C64.5001 49.27 64.3601 49.23 64.2301 49.16C64.0801 49.1 63.9301 49.03 63.7501 48.97C63.5801 48.9 63.3901 48.84 63.1901 48.78C63.0901 48.75 62.9901 48.72 62.8801 48.7C62.7701 48.68 62.6701 48.64 62.5601 48.63C62.4501 48.61 62.3401 48.5999 62.2301 48.5699C62.1201 48.5399 62.0101 48.55 61.9001 48.54C61.6801 48.51 61.4501 48.52 61.2201 48.52C61.1101 48.51 60.9901 48.54 60.8801 48.55C60.7701 48.57 60.6601 48.57 60.5401 48.58C60.3201 48.64 60.1001 48.68 59.8801 48.73C59.6701 48.8 59.4601 48.8701 59.2601 48.9301C59.0601 49.0001 58.8801 49.09 58.7001 49.15C58.5201 49.21 58.3501 49.27 58.2101 49.35C58.0701 49.42 57.9401 49.47 57.8301 49.52C57.6101 49.61 57.4801 49.65 57.4801 49.65C57.4801 49.65 57.5501 49.53 57.6901 49.33C57.7601 49.23 57.8401 49.11 57.9501 48.98C58.0001 48.91 58.0601 48.84 58.1201 48.77C58.1901 48.7 58.2601 48.6401 58.3401 48.5601C58.5001 48.4301 58.6601 48.27 58.8601 48.13C59.0701 48 59.2901 47.87 59.5201 47.74C59.7701 47.64 60.0301 47.54 60.3001 47.46C60.5801 47.41 60.8701 47.34 61.1601 47.34C61.4501 47.34 61.7501 47.34 62.0301 47.4C62.3201 47.44 62.5801 47.53 62.8401 47.63C62.9701 47.67 63.0801 47.74 63.2001 47.8C63.3101 47.86 63.4301 47.91 63.5301 47.99C63.6301 48.06 63.7301 48.1199 63.8201 48.1899C63.9101 48.2599 63.9901 48.33 64.0701 48.41C64.2301 48.54 64.3501 48.6999 64.4701 48.8199C64.5801 48.9499 64.6701 49.0701 64.7301 49.1801C64.8001 49.2801 64.8401 49.3701 64.8701 49.4301C64.9001 49.4901 64.9101 49.52 64.9101 49.52L64.9401 49.49Z" fill="#2F1E0F"/>
<path d="M48.1901 62.1099C41.8801 65.1699 37.4401 63.19 35.4401 55.26C35.4401 55.26 43.0301 49.2599 47.0601 56.9499C47.6801 58.1399 48.1901 62.1099 48.1901 62.1099Z" fill="white"/>
<path d="M42.0901 62.62C40.3401 62.58 38.8701 61.17 38.3101 59.21C38.1401 58.61 38.0501 57.96 38.0601 57.28C38.1201 54.55 39.7801 53.57 41.8901 53.51C42.0201 53.51 42.1501 53.51 42.2801 53.51C44.5701 53.56 46.3001 55.98 46.3401 57.46C46.4201 60.36 44.3801 62.67 42.0901 62.62Z" fill="#82471E"/>
<path d="M42.11 61.88C40.78 61.85 39.62 60.6901 39.14 58.9301C38.99 58.3701 38.91 57.78 38.93 57.17C38.97 55.13 39.92 54.15 41.91 54.09C42.01 54.09 42.11 54.09 42.21 54.09H42.27C44.07 54.13 45.45 56.27 45.47 57.37C45.5 58.7 45.07 59.96 44.28 60.84C43.67 61.51 42.92 61.88 42.16 61.88H42.11Z" fill="#683918"/>
<path d="M55.2301 62.1099C61.5401 65.1699 65.9801 63.19 67.9801 55.26C67.9801 55.26 60.3901 49.2599 56.3601 56.9499C55.7401 58.1399 55.2301 62.1099 55.2301 62.1099Z" fill="white"/>
<path d="M61.3302 62.62C63.0802 62.58 64.5502 61.17 65.1102 59.21C65.2802 58.61 65.3702 57.96 65.3602 57.28C65.3002 54.55 63.6402 53.57 61.5302 53.51C61.4002 53.51 61.2702 53.51 61.1402 53.51C58.8502 53.56 57.1202 55.98 57.0802 57.46C57.0002 60.36 59.0402 62.67 61.3302 62.62Z" fill="#82471E"/>
<path d="M61.2601 61.88C60.5001 61.88 59.7501 61.51 59.1401 60.84C58.3501 59.96 57.9101 58.7 57.9501 57.37C57.9801 56.27 59.3501 54.14 61.1601 54.1H61.2102C61.3102 54.1 61.4101 54.1 61.5101 54.1C63.5101 54.17 64.4501 55.1401 64.4901 57.1801C64.5001 57.7901 64.4301 58.3801 64.2801 58.9301C63.8001 60.6901 62.6401 61.85 61.3101 61.88H61.2601Z" fill="#683918"/>
<path d="M42.3701 56.1801C42.3301 57.9301 41.1801 59.3401 39.7901 59.3101C39.1601 59.3001 38.6001 58.99 38.1701 58.5C38.0201 57.98 37.9401 57.4001 37.9501 56.8101C38.0001 54.4201 39.4601 53.56 41.3001 53.51C41.9601 54.1 42.3801 55.0801 42.3601 56.1801" fill="white"/>
<path d="M44.55 61.26C44.54 61.85 44.15 62.33 43.68 62.32C43.21 62.32 42.8401 61.82 42.8501 61.22C42.8601 60.62 43.25 60.1501 43.72 60.1601C44.19 60.1601 44.56 60.66 44.55 61.26Z" fill="white"/>
<path d="M61.2202 56.45C61.1802 58.21 60.0301 59.61 58.6401 59.58C58.0101 59.57 57.4502 59.26 57.0202 58.77C56.8702 58.25 56.7902 57.67 56.8002 57.08C56.8502 54.69 58.3101 53.83 60.1501 53.78C60.8101 54.37 61.2302 55.35 61.2102 56.45" fill="white"/>
<path d="M63.5701 61.26C63.5601 61.85 63.1701 62.33 62.7001 62.32C62.2301 62.32 61.8601 61.82 61.8701 61.22C61.8801 60.62 62.2701 60.1501 62.7401 60.1601C63.2101 60.1601 63.5801 60.66 63.5701 61.26Z" fill="white"/>
<path d="M47.05 62.62C47.42 62.47 47.8 62.3 48.18 62.11C47.79 62.3 47.42 62.47 47.04 62.62" fill="#93755A"/>
<path d="M48.1901 62.11C48.1901 62.11 47.6801 58.15 47.0601 56.95C45.4901 53.95 43.3701 53.03 41.3701 53.03C43.3701 53.03 45.4801 53.94 47.0601 56.95C47.6701 58.13 48.1801 61.99 48.1901 62.11ZM35.4401 55.26C35.4401 55.26 36.8001 54.18 38.6801 53.53C36.8001 54.19 35.4401 55.26 35.4401 55.26Z" fill="#876C4D"/>
<path d="M47.0501 62.61C46.8401 61.48 46.5601 60.21 46.2601 59.62C46.2001 59.51 46.1501 59.4 46.0901 59.3C46.2701 58.73 46.3601 58.1 46.3401 57.45C46.3001 55.96 44.5701 53.55 42.2801 53.5H42.2201C42.1101 53.5 42.0001 53.5 41.8901 53.5C41.7001 53.5 41.5201 53.52 41.3401 53.54C41.3301 53.54 41.3201 53.52 41.3101 53.51C39.6501 53.56 38.3001 54.26 38.0101 56.15C37.2301 56.41 36.5301 56.7501 35.9801 57.0601C35.9301 56.9301 35.8901 56.8 35.8501 56.66C35.7101 56.21 35.5701 55.74 35.4501 55.25C35.4501 55.25 36.8101 54.17 38.6901 53.52C39.2401 53.33 39.8401 53.17 40.4601 53.09C40.7601 53.05 41.0701 53.03 41.3801 53.03C43.3801 53.03 45.4901 53.95 47.0701 56.95C47.6901 58.14 48.2001 62.11 48.2001 62.11C47.8101 62.3 47.4401 62.47 47.0701 62.61" fill="#E2E1E1"/>
<path d="M46.0901 59.3101C45.8801 58.9301 45.6501 58.59 45.4201 58.28C45.4601 57.98 45.4801 57.68 45.4701 57.37C45.4401 56.27 44.0701 54.14 42.2701 54.1H42.2101C42.1101 54.1 42.0101 54.1 41.9101 54.1C41.8701 54.1 41.8401 54.1 41.8001 54.1C41.6601 53.89 41.5101 53.7 41.3301 53.54C41.5101 53.52 41.6901 53.51 41.8801 53.5C41.9901 53.5 42.1001 53.5 42.2101 53.5H42.2701C44.5601 53.55 46.2901 55.97 46.3301 57.45C46.3501 58.1 46.2601 58.73 46.0801 59.3" fill="#7E4923"/>
<path d="M45.4201 58.27C44.4901 57.02 43.4401 56.32 42.3701 55.97C42.3501 55.26 42.1401 54.61 41.8101 54.09C41.8401 54.09 41.8801 54.09 41.9201 54.09C42.0201 54.09 42.1201 54.09 42.2201 54.09H42.2801C44.0801 54.13 45.4601 56.27 45.4801 57.37C45.4801 57.68 45.4801 57.98 45.4301 58.28" fill="#673C1F"/>
<path d="M38.0101 56.15C38.3001 54.26 39.6501 53.56 41.3101 53.51C41.3201 53.52 41.3301 53.53 41.3401 53.54C41.5101 53.7 41.6701 53.89 41.8101 54.1C42.1401 54.61 42.3501 55.27 42.3701 55.98C41.7701 55.79 41.1701 55.71 40.5801 55.71C39.6801 55.71 38.8001 55.89 38.0101 56.16" fill="#E2E1E1"/>
<path d="M56.3701 62.62C56.0001 62.47 55.6201 62.3 55.2301 62.11C55.2301 62.11 55.2301 62.08 55.2401 62.01C55.2401 62.08 55.2301 62.11 55.2301 62.11C55.6201 62.3 55.9901 62.47 56.3701 62.62Z" fill="#93755A"/>
<path d="M55.2401 62.01C55.3201 61.39 55.8001 58.03 56.3601 56.95C56.5501 56.59 56.7501 56.25 56.9601 55.95C56.7601 56.25 56.5601 56.59 56.3701 56.95C55.8001 58.03 55.3301 61.39 55.2501 62.01" fill="#876C4D"/>
<path d="M56.3701 62.62C56.0001 62.47 55.6201 62.3 55.2301 62.11C55.2301 62.11 55.2301 62.08 55.2401 62.01C55.3201 61.39 55.7901 58.03 56.3601 56.95C56.5501 56.59 56.7501 56.25 56.9501 55.95C56.8601 56.28 56.8101 56.66 56.8001 57.08C56.7901 57.67 56.8601 58.24 57.0201 58.77C57.0901 58.85 57.1601 58.92 57.2401 58.99C57.2701 59.1 57.2901 59.2 57.3301 59.3C57.2701 59.4 57.2101 59.51 57.1601 59.62C56.8501 60.21 56.5701 61.48 56.3701 62.61" fill="#E2E1E1"/>
<path d="M57.3301 59.3101C57.3001 59.2101 57.2701 59.1 57.2401 59C57.3001 59.05 57.3601 59.1 57.4201 59.15C57.3901 59.21 57.3601 59.2599 57.3301 59.3199" fill="#7E4923"/>
<path d="M67.6401 56.49C67.7601 56.1 67.8801 55.69 67.9801 55.27C67.9801 55.27 67.7101 55.05 67.2401 54.76C67.7101 55.06 67.9801 55.27 67.9801 55.27C67.8701 55.69 67.7601 56.1 67.6401 56.49ZM58.8801 53.98C59.9101 53.29 61.0001 53.03 62.0601 53.03C61.0001 53.03 59.9101 53.29 58.8901 53.98" fill="#876C4D"/>
<path d="M67.4501 57.0699C66.8501 56.7299 66.0801 56.36 65.2201 56.09C64.7601 54.25 63.3101 53.56 61.5401 53.51C61.4301 53.51 61.3201 53.51 61.2101 53.51H61.1501C60.6801 53.51 60.2401 53.6301 59.8301 53.8101C59.5001 53.8401 59.1901 53.89 58.8901 53.99C59.9201 53.3 61.0101 53.04 62.0601 53.04C62.2701 53.04 62.4801 53.0499 62.6901 53.0699C64.5901 53.2399 66.3101 54.16 67.2501 54.76C67.7201 55.06 67.9901 55.27 67.9901 55.27C67.8801 55.69 67.7701 56.1 67.6501 56.49C67.5901 56.69 67.5201 56.8799 67.4601 57.0699" fill="#E2E1E1"/>
<path d="M65.2101 56.09C64.9101 56 64.6101 55.92 64.2901 55.86C63.9201 54.71 63.0101 54.15 61.5101 54.1C61.4101 54.1 61.3101 54.1 61.2101 54.1H61.1601C60.9501 54.1 60.7401 54.14 60.5401 54.2C60.4301 54.05 60.3001 53.91 60.1601 53.79C60.0401 53.79 59.9301 53.7901 59.8201 53.8101C60.2301 53.6301 60.6801 53.52 61.1401 53.51H61.2001C61.3101 53.51 61.4201 53.51 61.5301 53.51C63.2901 53.56 64.7501 54.26 65.2101 56.09Z" fill="#7E4923"/>
<path d="M61.2 55.9301C61.13 55.2601 60.89 54.6499 60.54 54.1899C60.74 54.1299 60.95 54.1 61.16 54.09H61.2101C61.3101 54.09 61.41 54.09 61.51 54.09C63.01 54.14 63.92 54.7 64.29 55.85C63.82 55.76 63.34 55.7 62.84 55.7C62.29 55.7 61.74 55.7701 61.19 55.9301" fill="#673C1F"/>
<path d="M57.43 59.14C57.37 59.1 57.31 59.05 57.25 58.99C57.17 58.92 57.1 58.84 57.03 58.77C56.88 58.25 56.8 57.67 56.81 57.08C56.81 56.66 56.8701 56.28 56.9601 55.95C57.5501 55.07 58.2 54.43 58.88 53.98C59.17 53.89 59.4901 53.83 59.8201 53.8C59.9301 53.79 60.05 53.78 60.16 53.78C60.3 53.9 60.42 54.0399 60.54 54.1899C60.89 54.6599 61.13 55.2601 61.2 55.9301C59.85 56.3301 58.52 57.28 57.43 59.14Z" fill="#E2E1E1"/>
<path d="M48.1901 62.11C48.1101 61.72 48.0301 61.3299 47.9401 60.9399C47.8601 60.5499 47.7701 60.16 47.6801 59.77C47.5901 59.38 47.4901 59 47.3801 58.62C47.2801 58.23 47.1501 57.89 47.0101 57.52C46.9301 57.35 46.8501 57.13 46.7701 57.01L46.4601 56.52C46.2401 56.2 46.0201 55.8799 45.7701 55.5999C45.6501 55.4499 45.5201 55.31 45.3901 55.18C45.2601 55.05 45.1201 54.91 44.9801 54.8C44.8401 54.68 44.7001 54.5599 44.5401 54.4599C44.3901 54.3499 44.2301 54.25 44.0701 54.17C43.7501 53.98 43.4101 53.85 43.0701 53.74C42.7201 53.63 42.3601 53.57 42.0001 53.53C41.6401 53.51 41.2701 53.5 40.9001 53.53C40.5301 53.56 40.1701 53.6299 39.8101 53.7099C39.0901 53.8799 38.3801 54.1499 37.7001 54.4799C37.3601 54.6499 37.0301 54.83 36.7001 55.03C36.3801 55.23 36.0501 55.44 35.7701 55.65L35.9501 55.12L36.2401 56.16C36.3301 56.51 36.4601 56.84 36.5801 57.18C36.7001 57.52 36.8201 57.86 36.9701 58.18C37.1201 58.5 37.2401 58.84 37.4201 59.14C37.6001 59.44 37.7301 59.78 37.9501 60.05C38.1601 60.32 38.3201 60.65 38.5701 60.89C38.8001 61.15 39.0101 61.42 39.2801 61.63L39.6701 61.9699L40.1001 62.25C40.3801 62.46 40.7001 62.5799 41.0101 62.7199C41.3201 62.8599 41.6601 62.92 41.9901 63.03C42.3301 63.08 42.6701 63.15 43.0201 63.16C43.3701 63.16 43.7201 63.19 44.0701 63.15C44.4201 63.11 44.7801 63.11 45.1301 63.02C45.4801 62.94 45.8401 62.9 46.1801 62.78C46.5201 62.67 46.8701 62.5899 47.2101 62.4599L48.2401 62.0899L48.1901 62.11ZM48.1901 62.11L47.2201 62.62C46.9001 62.79 46.5501 62.91 46.2101 63.05C45.8701 63.21 45.5101 63.28 45.1601 63.4C44.8101 63.53 44.4401 63.57 44.0801 63.65C43.7201 63.74 43.3401 63.72 42.9601 63.76C42.5801 63.76 42.2101 63.7199 41.8301 63.6999C41.4601 63.6099 41.0701 63.57 40.7201 63.43C40.3601 63.29 39.9901 63.1599 39.6701 62.9499L39.1701 62.66L38.7201 62.3C38.4001 62.08 38.1501 61.78 37.8801 61.5C37.6001 61.23 37.4001 60.8999 37.1701 60.5899C36.9301 60.2899 36.7701 59.94 36.5701 59.62C36.3601 59.3 36.2201 58.9499 36.0601 58.5999C35.8901 58.2599 35.7601 57.9 35.6301 57.55C35.5001 57.19 35.3601 56.8399 35.2701 56.4799L34.9501 55.4L34.8601 55.0799L35.1301 54.87C35.4801 54.6 35.8101 54.38 36.1701 54.17C36.5201 53.96 36.8801 53.7699 37.2501 53.5899C37.9901 53.2299 38.7701 52.96 39.5801 52.77C39.9901 52.68 40.4001 52.6199 40.8201 52.5999C41.2401 52.5699 41.6601 52.6 42.0801 52.63C42.5001 52.68 42.9201 52.77 43.3201 52.91C43.5201 52.98 43.7201 53.05 43.9101 53.15C44.1001 53.24 44.2901 53.3399 44.4701 53.4599C44.6501 53.5599 44.8201 53.6899 44.9901 53.8199C45.1601 53.9399 45.3201 54.0899 45.4701 54.2299C45.6301 54.3699 45.7701 54.52 45.9101 54.68C46.0501 54.83 46.1901 54.99 46.3101 55.16C46.5701 55.49 46.7801 55.8399 46.9801 56.1999L47.2701 56.74C47.3901 56.96 47.4201 57.1299 47.5001 57.3199C47.6101 57.7099 47.7201 58.14 47.7801 58.53C47.8601 58.93 47.9201 59.3299 47.9701 59.7299C48.0801 60.5299 48.1601 61.33 48.2101 62.12L48.1901 62.11Z" fill="#2F1E0F"/>
<path d="M55.2301 62.1099C55.2801 61.3099 55.3601 60.5099 55.4701 59.7199C55.5201 59.3199 55.5801 58.92 55.6601 58.52C55.7201 58.13 55.8301 57.7 55.9401 57.31C56.0201 57.12 56.0501 56.9499 56.1701 56.7299L56.4601 56.1899C56.6701 55.8399 56.8801 55.48 57.1301 55.15C57.2501 54.98 57.3801 54.82 57.5301 54.67C57.6701 54.51 57.8101 54.3599 57.9701 54.2199C58.1201 54.0699 58.2801 53.93 58.4501 53.81C58.6201 53.68 58.7901 53.5499 58.9701 53.4499C59.1501 53.3299 59.3301 53.23 59.5301 53.14C59.7201 53.04 59.9201 52.97 60.1201 52.9C60.5201 52.76 60.9401 52.67 61.3601 52.62C61.7801 52.58 62.2001 52.5499 62.6201 52.5899C63.0401 52.6099 63.4501 52.68 63.8601 52.76C64.6701 52.95 65.4501 53.2299 66.1901 53.5799C66.5601 53.7599 66.9201 53.95 67.2701 54.16C67.6301 54.37 67.9601 54.5899 68.3001 54.8599L68.5701 55.0699L68.4801 55.39L68.1701 56.4699C68.0801 56.8399 67.9301 57.18 67.8101 57.54C67.6901 57.9 67.5501 58.2499 67.3901 58.5899C67.2201 58.9299 67.0901 59.2799 66.8801 59.6099C66.6701 59.9299 66.5201 60.2799 66.2801 60.5799C66.0401 60.8799 65.8501 61.22 65.5701 61.49C65.3001 61.77 65.0501 62.06 64.7301 62.29L64.2801 62.65L63.7801 62.9399C63.4601 63.1599 63.0901 63.28 62.7301 63.42C62.3701 63.56 61.9901 63.5999 61.6201 63.6899C61.2401 63.7099 60.8601 63.76 60.4901 63.75C60.1201 63.71 59.7401 63.73 59.3801 63.64C59.0201 63.56 58.6401 63.52 58.3001 63.39C57.9501 63.27 57.5901 63.2 57.2601 63.04C56.9201 62.9 56.5701 62.7699 56.2501 62.6099L55.2801 62.0999L55.2301 62.1099ZM55.2301 62.1099L56.2501 62.4799C56.5901 62.5999 56.9401 62.69 57.2801 62.8C57.6201 62.92 57.9801 62.96 58.3301 63.04C58.6801 63.13 59.0401 63.13 59.3901 63.17C59.7401 63.22 60.0901 63.17 60.4401 63.18C60.7901 63.16 61.1301 63.1 61.4701 63.05C61.8001 62.94 62.1401 62.88 62.4501 62.74C62.7601 62.59 63.0801 62.47 63.3601 62.27L63.7901 61.99L64.1801 61.65C64.4501 61.44 64.6601 61.16 64.8901 60.91C65.1301 60.67 65.3001 60.3499 65.5101 60.0699C65.7201 59.7899 65.8601 59.46 66.0401 59.16C66.2201 58.86 66.3401 58.5199 66.4901 58.1999C66.6501 57.8799 66.7701 57.5399 66.8801 57.1999C67.0001 56.8599 67.1301 56.53 67.2201 56.18L67.5101 55.14L67.6901 55.67C67.4101 55.46 67.0801 55.24 66.7601 55.05C66.4401 54.85 66.1001 54.67 65.7601 54.5C65.0801 54.17 64.3701 53.8999 63.6501 53.7299C63.2901 53.6499 62.9201 53.57 62.5601 53.55C62.1901 53.51 61.8301 53.52 61.4601 53.55C61.1001 53.58 60.7401 53.65 60.3901 53.76C60.0501 53.87 59.7001 53.9999 59.3901 54.1899C59.2301 54.2699 59.0701 54.3699 58.9201 54.4799C58.7601 54.5799 58.6201 54.6999 58.4801 54.8199C58.3301 54.9399 58.2001 55.0699 58.0701 55.1999C57.9301 55.3299 57.8101 55.47 57.6801 55.62C57.4201 55.9 57.2101 56.22 56.9901 56.54L56.6801 57.03C56.6001 57.15 56.5201 57.38 56.4301 57.54C56.2901 57.91 56.1701 58.25 56.0601 58.64C55.9501 59.02 55.8501 59.4 55.7601 59.79C55.6601 60.18 55.5801 60.5699 55.5001 60.9599C55.4101 61.3499 55.3301 61.74 55.2501 62.13L55.2301 62.1099Z" fill="#2F1E0F"/>
<path d="M51.7001 37.4301C46.6601 37.4301 43.3901 39.02 43.3901 39.02C43.3901 39.02 44.6001 40.26 47.3201 41.55C48.8801 42.29 49.3801 44.73 51.4601 44.73C51.5401 44.73 51.6101 44.73 51.6901 44.73C51.7701 44.73 51.8401 44.73 51.9201 44.73C54.0001 44.73 54.5001 42.29 56.0501 41.55C58.7801 40.25 59.9801 39.02 59.9801 39.02C59.9801 39.02 56.9001 37.4301 51.7001 37.4301Z" fill="#B58D6B"/>
<path d="M57.4601 68.76C58.7101 70.79 55.2101 73.11 51.6201 73.11C48.0301 73.11 45.0201 70.8601 45.9101 68.6401C47.1801 65.4801 48.1001 65.74 51.6901 65.74C55.2801 65.74 55.2301 65.15 57.4701 68.76H57.4601Z" fill="#8C6E4C"/>
<path d="M54.9101 71.51C54.9101 71.27 54.8201 71.16 54.7601 70.97C52.9201 72.12 51.7101 70.5601 51.7101 70.5601C51.7101 70.5601 50.5201 71.92 48.7901 70.97C48.7601 71.13 48.7301 71.3 48.7301 71.49C48.7301 72.79 50.2201 73.36 51.0501 74.11C51.1001 74.17 51.1401 74.23 51.1801 74.29C51.4201 74.74 51.1601 74.97 51.1601 74.97C51.1601 74.97 51.4601 74.89 51.4901 74.6C51.7401 74.98 51.3401 75.47 51.3401 75.47C51.3401 75.47 51.9401 75.21 51.9501 74.89C51.9501 75.24 52.0601 75.65 52.0601 75.65C52.0601 75.65 52.0401 75.59 52.1401 75.12C52.1601 75.02 52.3201 74.76 52.3601 74.71H52.3801C52.2601 74.97 52.5201 75.2 52.5201 75.2C52.5201 75.2 52.3301 74.84 52.6301 74.51C53.4501 73.6 54.9301 72.53 54.9301 71.51H54.9101Z" fill="#EFE2D3"/>
<path d="M55.2802 69.79C55.2502 69.73 55.2202 69.68 55.2002 69.66C55.1802 69.63 55.1702 69.62 55.1702 69.62C55.1702 69.62 55.1802 69.64 55.2002 69.67C55.2202 69.69 55.2502 69.74 55.2802 69.8C55.3002 69.87 55.3202 69.95 55.3102 70.04C55.3102 70.13 55.2702 70.23 55.2102 70.33C54.9902 70.74 54.4502 71.1 53.8702 71.23C53.7202 71.26 53.5801 71.29 53.4301 71.29C53.2901 71.29 53.1402 71.29 53.0002 71.26C52.8702 71.24 52.7402 71.2 52.6202 71.15C52.5002 71.1 52.4002 71.04 52.3102 70.98C52.2202 70.92 52.1402 70.85 52.0802 70.79C52.0202 70.73 51.9702 70.67 51.9202 70.62C51.8802 70.56 51.8002 70.5601 51.7402 70.5601L51.8202 68.84H51.6201L51.7002 70.5601C51.6402 70.5601 51.5602 70.56 51.5202 70.62C51.4802 70.67 51.4302 70.73 51.3602 70.79C51.2902 70.85 51.2202 70.92 51.1302 70.98C51.0402 71.04 50.9402 71.1 50.8202 71.15C50.7002 71.2 50.5802 71.24 50.4402 71.26C50.3002 71.28 50.1601 71.3 50.0101 71.29C49.8701 71.29 49.7202 71.27 49.5702 71.23C48.9902 71.1 48.4502 70.73 48.2302 70.33C48.1802 70.23 48.1402 70.13 48.1302 70.04C48.1202 69.95 48.1302 69.87 48.1602 69.8C48.1902 69.74 48.2102 69.69 48.2402 69.67C48.2602 69.64 48.2702 69.63 48.2702 69.63L48.2402 69.67C48.2402 69.67 48.1902 69.74 48.1602 69.8C48.1402 69.86 48.1101 69.94 48.1201 70.04C48.1201 70.14 48.1602 70.24 48.2102 70.35C48.4202 70.77 48.9602 71.17 49.5502 71.34C49.7002 71.38 49.8501 71.41 50.0101 71.42C50.1601 71.44 50.3202 71.42 50.4602 71.41C50.6102 71.39 50.7501 71.3501 50.8701 71.3101C51.0001 71.2601 51.1202 71.2 51.2202 71.14C51.3202 71.07 51.4102 70.9999 51.4802 70.9399C51.5502 70.8699 51.6102 70.81 51.6602 70.76L51.7002 70.71H51.7302L51.7702 70.76C51.7702 70.76 51.8802 70.8699 51.9502 70.9399C52.0202 70.9999 52.1102 71.07 52.2102 71.14C52.3102 71.2 52.4302 71.2601 52.5602 71.3101C52.6902 71.3601 52.8302 71.39 52.9702 71.41C53.1202 71.43 53.2702 71.44 53.4202 71.42C53.5702 71.41 53.7302 71.38 53.8802 71.34C54.4802 71.17 55.0102 70.78 55.2302 70.35C55.2802 70.24 55.3102 70.14 55.3202 70.04C55.3202 69.95 55.3002 69.86 55.2802 69.8V69.79Z" fill="#2F1E0F"/>
<path d="M52.3601 68.64C52.3601 68.64 53.2801 68.31 54.2901 67.59C55.1801 66.95 54.7301 66.71 54.7301 66.41C54.7301 66.04 53.9001 66.06 52.8801 66.78C52.1101 67.33 52.3501 68.64 52.3501 68.64H52.3601Z" fill="#2F1E0F"/>
<path d="M51.0701 68.63C51.0701 68.63 50.1501 68.31 49.1401 67.58C48.2501 66.95 48.7001 66.7 48.7001 66.4C48.7001 66.03 49.5301 66.05 50.5501 66.77C51.3201 67.32 51.0801 68.62 51.0801 68.62L51.0701 68.63Z" fill="#2F1E0F"/>
<path d="M51.7801 65.64C51.7801 65.64 51.7101 65.64 51.6801 65.64C50.6201 65.64 47.8201 64.72 48.7001 67.34C48.8201 67.71 48.9501 66.9599 49.3101 66.9499C49.7801 66.9499 50.3101 67.43 50.6301 67.63C50.8301 67.75 50.5201 68.9 51.6701 68.92H51.7501C52.9301 68.92 52.6101 67.77 52.8101 67.64C53.1301 67.44 53.6601 66.9499 54.1301 66.9599C54.4801 66.9599 54.6101 67.72 54.7401 67.35C55.6101 64.74 52.8501 65.63 51.7801 65.64Z" fill="#D69891"/>
</svg>
