<svg width="102" height="101" viewBox="0 0 102 101" fill="none" xmlns="http://www.w3.org/2000/svg">
<path d="M92.8899 0.0700073H9.29987C4.51156 0.0700073 0.629883 3.95168 0.629883 8.73999V92.33C0.629883 97.1183 4.51156 101 9.29987 101H92.8899C97.6782 101 101.56 97.1183 101.56 92.33V8.73999C101.56 3.95168 97.6782 0.0700073 92.8899 0.0700073Z" fill="#24B999"/>
<path d="M52.14 83.14C48.38 83.14 43.3799 81.54 38.7499 78.86C38.2799 78.59 37.8 78.3 37.34 78C36.37 77.38 35.44 76.72 34.58 76.04C34.39 75.89 34.21 75.74 34.03 75.59C31.59 73.57 29.69 71.41 28.4 69.15C28.08 68.6 27.7999 68.04 27.5599 67.47C27.4799 67.3 27.41 67.1101 27.34 66.9301C27.2 66.5701 27.0699 66.19 26.9399 65.75C26.8099 65.27 26.6999 64.83 26.6199 64.37C26.5799 64.18 26.55 63.97 26.52 63.76C26.51 63.7 26.4999 63.6399 26.4999 63.5699C26.4399 63.1199 26.4199 62.64 26.4199 62.15C26.4199 56.98 28.5899 51.5 30.5599 47.6C30.0899 46.65 29.99 45.53 30.28 44.37C30.42 43.81 30.5199 43.18 30.6199 42.58C30.6599 42.3 30.71 42.01 30.76 41.73C29.16 40.07 27.8299 38.07 26.9699 36.02C25.8999 33.45 25.1 29.26 25.65 26.22L25.7 25.96C26.08 23.9 27.09 18.43 32.28 17.97C32.66 17.94 33.03 17.92 33.39 17.92C35.53 17.92 37.3999 18.52 38.9399 19.7C40.7299 21.08 42.0899 23.28 42.9799 26.24C43.0199 26.39 43.0599 26.5301 43.0999 26.6801V26.72C43.1499 26.86 43.1899 27.01 43.2199 27.16L43.2499 27.28C43.3499 27.7 43.4299 28.15 43.4999 28.6L43.53 28.8C43.55 28.93 43.57 29.0501 43.58 29.1801L43.6099 29.4301C43.6299 29.6101 43.6599 29.8 43.6699 29.98C43.6799 30.1 43.69 30.2099 43.71 30.3199L43.76 30.96L43.78 31.26C43.79 31.4 43.7999 31.55 43.8099 31.7L43.83 32.01C43.83 32.15 43.8599 32.6 43.8599 32.6C43.9999 32.42 44.1899 32.27 44.4199 32.17C44.5899 32.1 44.77 32.0601 44.95 32.0601C44.97 32.0601 45 32.0601 45.02 32.0601C45.17 29.7901 45.2999 28.3999 45.3099 28.3199C45.3699 27.7399 45.7899 27.26 46.3599 27.13C46.4599 27.11 46.5699 27.09 46.6699 27.09C46.9299 27.09 47.18 27.16 47.4 27.3C48.84 23.91 50.8299 21.65 50.9399 21.53C51.1999 21.24 51.57 21.08 51.96 21.08C52.35 21.08 52.7199 21.24 52.9799 21.53C53.0899 21.65 55.0999 23.92 56.5399 27.34C56.7699 27.17 57.05 27.08 57.34 27.08C57.44 27.08 57.55 27.09 57.65 27.12C58.22 27.25 58.64 27.7299 58.7 28.3199C58.7 28.3999 58.8399 29.81 58.9899 32.11C59.1299 32.11 59.2699 32.15 59.4099 32.2C59.7499 32.33 60.0099 32.59 60.1599 32.91C60.1599 32.82 60.1799 32.45 60.1799 32.45C60.1799 32.26 60.2 32.08 60.21 31.89C60.21 31.89 60.2399 31.39 60.2499 31.24L60.27 30.98L60.3099 30.55L60.33 30.3101C60.34 30.1701 60.3599 30.03 60.3699 29.89C60.3899 29.73 60.4099 29.57 60.4299 29.41L60.46 29.16C60.48 29.04 60.5 28.91 60.51 28.78L60.5399 28.6C60.6099 28.14 60.6999 27.69 60.7999 27.26L60.82 27.16C60.91 26.78 60.99 26.48 61.07 26.2C62.73 20.68 65.95 17.88 70.64 17.88C71 17.88 71.38 17.9 71.76 17.93C77 18.39 78.0099 24.0501 78.3799 26.1801C78.5099 26.9101 78.5699 27.74 78.5499 28.64C78.5099 31.06 77.9399 33.88 77.0499 36C76.1899 38.05 74.86 40.05 73.26 41.71C73.31 42.01 73.3599 42.3 73.4099 42.6C73.5099 43.2 73.5999 43.81 73.7399 44.37C74.0399 45.58 73.8899 46.55 73.5999 47.28C75.6299 51.25 77.89 56.86 77.89 62.13C77.89 62.47 77.8799 62.8301 77.8499 63.1801C77.8499 63.1801 77.8499 63.24 77.8499 63.25C77.8399 63.38 77.8199 63.52 77.8099 63.66C77.7799 63.9 77.75 64.15 77.7 64.39C77.63 64.81 77.5299 65.25 77.4099 65.73C77.3099 66.12 77.18 66.51 77.03 66.91C76.97 67.07 76.91 67.24 76.84 67.4C76.84 67.42 76.83 67.44 76.82 67.46C76.6 68 76.35 68.5399 76.07 69.0699C74.72 71.5899 72.6999 73.96 70.0499 76.1C70.0299 76.12 69.85 76.26 69.84 76.27C68.84 77.06 67.7599 77.82 66.6199 78.52C66.2399 78.76 65.81 79.01 65.32 79.28C61.07 81.63 56.3899 83.03 52.4999 83.1H52.1699L52.14 83.14ZM60.1599 36.75C60.1299 36.12 60.1099 35.37 60.1099 34.54V34.51C60.0299 35.02 59.9199 35.75 59.7899 36.66C59.9199 36.69 60.0399 36.72 60.1599 36.74V36.75ZM43.8499 35.88L43.82 36.74C43.91 36.72 44.0099 36.7 44.1099 36.67C44.0199 36.12 43.9299 35.64 43.8599 35.23C43.8599 35.38 43.84 35.88 43.84 35.88H43.8499Z" fill="#2F150C"/>
<path d="M76.9999 26.47C76.5299 23.81 75.5698 19.69 71.5998 19.34C67.5598 18.98 64.1199 20.7 62.3399 26.65C62.2599 26.93 62.1798 27.22 62.1098 27.52C62.1098 27.55 62.0999 27.58 62.0899 27.61C61.9999 28.02 61.9198 28.43 61.8498 28.86C61.8498 28.92 61.8299 28.97 61.8199 29.03C61.7999 29.15 61.7799 29.27 61.7699 29.39C61.7599 29.47 61.7498 29.54 61.7398 29.62C61.7198 29.77 61.6999 29.92 61.6899 30.07C61.6799 30.2 61.6599 30.34 61.6499 30.47C61.6499 30.57 61.6299 30.67 61.6199 30.77C61.6199 30.88 61.5999 30.98 61.5899 31.09C61.5899 31.18 61.5799 31.27 61.5699 31.36C61.5599 31.51 61.5498 31.6501 61.5398 31.7901C61.5398 31.8501 61.5399 31.92 61.5299 31.98C61.5299 32.16 61.5099 32.34 61.5099 32.52C61.5099 32.58 61.5099 32.64 61.5099 32.7C61.5099 32.86 61.4999 33.0101 61.4999 33.1701C61.4999 33.2101 61.4999 33.2501 61.4999 33.2901C61.4999 33.7101 61.4898 34.11 61.4898 34.5C61.4898 34.5 61.4898 34.51 61.4898 34.52C61.4898 36.8 61.6598 38.52 61.6598 38.52C61.6598 38.52 60.2699 38.11 58.2799 37.72C58.6399 35.1 58.8999 33.48 58.8999 33.48C58.8999 33.48 58.4398 34.17 57.7998 35.38C57.5998 31.21 57.3299 28.46 57.3299 28.46C57.3299 28.46 56.8398 29.26 56.1798 30.64C55.0298 25.9 51.9499 22.45 51.9499 22.45C51.9499 22.45 48.9199 25.83 47.7499 30.51C47.1299 29.21 46.6698 28.46 46.6698 28.46C46.6698 28.46 46.3999 31.25 46.1999 35.47C45.4699 34.17 44.9499 33.4301 44.9499 33.4301C44.9499 33.4301 45.2499 35.07 45.6899 37.71C43.7299 38.1 42.3598 38.5 42.3598 38.5C42.3598 38.5 42.4298 37.7901 42.4798 36.6701C42.4798 36.6101 42.4798 36.53 42.4798 36.46C42.4798 36.4 42.4798 36.3501 42.4798 36.2901C42.4798 36.2101 42.4798 36.1401 42.4798 36.0601C42.4798 35.9801 42.4798 35.9 42.4798 35.82C42.4798 35.75 42.4798 35.68 42.4798 35.6C42.4798 35.45 42.4798 35.3 42.4798 35.15C42.4798 35.09 42.4798 35.04 42.4798 34.98C42.4798 34.86 42.4798 34.75 42.4798 34.63C42.4798 34.56 42.4798 34.49 42.4798 34.41C42.4798 34.29 42.4798 34.1601 42.4798 34.0401C42.4798 33.9801 42.4798 33.92 42.4798 33.86C42.4798 33.68 42.4798 33.51 42.4798 33.33C42.4798 33.26 42.4798 33.19 42.4798 33.12C42.4798 33 42.4798 32.87 42.4698 32.75C42.4698 32.67 42.4698 32.59 42.4698 32.51C42.4698 32.37 42.4599 32.23 42.4499 32.09C42.4499 31.99 42.4398 31.8901 42.4298 31.7901C42.4298 31.6501 42.4099 31.51 42.3999 31.37C42.3999 31.28 42.3899 31.18 42.3799 31.09C42.3799 30.99 42.3598 30.88 42.3498 30.78C42.3498 30.68 42.3299 30.58 42.3199 30.48C42.3099 30.37 42.2998 30.26 42.2898 30.15C42.2698 29.98 42.2498 29.8 42.2298 29.63C42.2198 29.55 42.2099 29.47 42.1999 29.39C42.1799 29.27 42.1699 29.15 42.1499 29.03C42.1499 28.97 42.1298 28.9 42.1198 28.84C42.0498 28.42 41.9699 28.01 41.8799 27.61C41.8799 27.57 41.8598 27.54 41.8598 27.5C41.8298 27.36 41.7899 27.23 41.7599 27.09C41.7199 26.94 41.6799 26.8 41.6399 26.66C40.7899 23.83 39.5599 21.95 38.0699 20.81C36.4399 19.55 34.4898 19.17 32.3698 19.35C28.5198 19.69 27.4999 23.57 27.0099 26.23C26.9899 26.32 26.9799 26.4 26.9599 26.48C26.4799 29.13 27.1499 33.01 28.1999 35.51C29.1199 37.71 30.5899 39.7501 32.2099 41.2901C31.9699 42.3501 31.8599 43.59 31.5799 44.72C31.2799 45.93 31.5598 46.8801 32.0998 47.5501C30.0098 51.5601 27.7599 57.0601 27.7599 62.1701C27.7599 62.6001 27.7799 63.04 27.8399 63.46C27.8399 63.51 27.8498 63.55 27.8598 63.6C27.8798 63.78 27.9099 63.96 27.9499 64.14C28.0299 64.56 28.1198 64.96 28.2398 65.37C28.3498 65.73 28.4698 66.09 28.5998 66.44C28.6598 66.61 28.7298 66.7701 28.7998 66.9301C29.0198 67.4501 29.2799 67.97 29.5699 68.47C30.8499 70.7 32.7099 72.7501 34.8799 74.5401C35.0499 74.6801 35.2298 74.83 35.4098 74.97C36.2598 75.64 37.1499 76.27 38.0699 76.85C38.5099 77.14 38.9698 77.4101 39.4198 77.6801C43.8598 80.2501 48.6699 81.78 52.1299 81.78C52.2299 81.78 52.3298 81.78 52.4298 81.78C56.1498 81.71 60.5799 80.37 64.6199 78.13C65.0399 77.9 65.4599 77.66 65.8699 77.4C66.9399 76.74 67.9799 76.02 68.9599 75.25C69.0199 75.2 69.0898 75.14 69.1598 75.09C71.5198 73.18 73.5199 70.94 74.8299 68.48C75.0899 67.99 75.3199 67.5 75.5299 67C75.5999 66.83 75.6598 66.66 75.7198 66.49C75.8498 66.14 75.9599 65.7901 76.0599 65.4301C76.1699 65.0201 76.2599 64.61 76.3299 64.2C76.3699 63.99 76.3998 63.7801 76.4198 63.5601C76.4298 63.4401 76.4499 63.31 76.4599 63.19V63.13C76.4899 62.82 76.4999 62.5001 76.4999 62.1801C76.4999 56.9701 74.1598 51.37 72.0398 47.34C72.4598 46.69 72.6499 45.82 72.3799 44.75C72.0999 43.62 71.9899 42.38 71.7499 41.32C73.3699 39.78 74.8399 37.7401 75.7599 35.5401C76.5499 33.6601 77.1199 31.0101 77.1499 28.6801C77.1599 27.9001 77.1199 27.15 76.9999 26.49V26.47Z" fill="#2F150C"/>
<path d="M57.9898 43.86C57.9898 52.36 55.6398 59.24 55.6398 59.24C55.6398 59.24 53.0498 52.36 53.0498 43.86C53.0498 35.36 57.3198 28.48 57.3198 28.48C57.3198 28.48 57.9898 35.36 57.9898 43.86Z" fill="#1E1E1E"/>
<path d="M45.98 43.86C45.98 52.36 48.34 59.24 48.34 59.24C48.34 59.24 50.93 52.36 50.93 43.86C50.93 35.36 46.66 28.48 46.66 28.48C46.66 28.48 45.98 35.36 45.98 43.86Z" fill="#1E1E1E"/>
<path d="M56.9198 48.9301C56.0598 57.3801 54.6698 64.1 54.6698 64.1C54.6698 64.1 52.7799 56.99 53.6399 48.54C54.4999 40.09 58.8899 33.5 58.8899 33.5C58.8899 33.5 57.7798 40.4801 56.9198 48.9301Z" fill="#4C4C4D"/>
<path d="M47.2999 48.87C48.3799 57.29 49.9399 63.97 49.9399 63.97C49.9399 63.97 51.6399 56.81 50.5599 48.39C49.4899 39.96 44.9199 33.46 44.9199 33.46C44.9199 33.46 46.2199 40.45 47.2899 48.88" fill="#4C4C4D"/>
<path d="M72.0399 47.33C74.1599 51.36 76.5 56.9601 76.5 62.1701C76.5 62.4901 76.49 62.81 76.46 63.12V63.1801C76.45 63.3001 76.4299 63.4301 76.4199 63.5501C76.3999 63.7601 76.37 63.98 76.33 64.19C76.26 64.6 76.1699 65.0101 76.0599 65.4201C75.9599 65.7801 75.8499 66.13 75.7199 66.48C75.6599 66.65 75.59 66.82 75.53 66.98C75.33 67.48 75.09 67.98 74.83 68.47C73.52 70.93 71.5199 73.17 69.1599 75.08C69.0999 75.13 69.03 75.19 68.96 75.24C67.98 76.02 66.9499 76.74 65.8699 77.39C65.4599 77.65 65.0399 77.89 64.6199 78.12C60.5799 80.36 56.1499 81.7 52.4299 81.77C52.3299 81.77 52.23 81.77 52.13 81.77C48.67 81.77 43.8599 80.2401 39.4199 77.6701C38.9599 77.4101 38.51 77.13 38.07 76.84C37.15 76.25 36.2599 75.63 35.4099 74.96C35.2299 74.82 35.06 74.68 34.88 74.53C32.71 72.74 30.84 70.69 29.57 68.46C29.28 67.96 29.0199 67.4401 28.7999 66.9201C28.7299 66.7601 28.6599 66.5901 28.5999 66.4301C28.4599 66.0801 28.3399 65.72 28.2399 65.36C28.1199 64.95 28.03 64.54 27.95 64.13C27.92 63.95 27.8899 63.77 27.8599 63.59C27.8599 63.54 27.85 63.5 27.84 63.46C27.79 63.03 27.76 62.59 27.76 62.16C27.76 57.05 30.0099 51.5501 32.0999 47.5401C31.5599 46.8701 31.28 45.92 31.58 44.71C31.86 43.59 31.98 42.34 32.21 41.28C30.59 39.74 29.12 37.69 28.2 35.5C27.15 32.99 26.49 29.12 26.96 26.47C27.43 23.81 28.3899 19.69 32.3599 19.34C36.3999 18.98 39.8399 20.7 41.6199 26.65C42.9999 31.24 42.32 38.52 42.32 38.52C42.32 38.52 47.3999 37.0301 51.9699 37.0401V37.0601H52.1199C52.9699 37.0601 53.8299 37.11 54.6799 37.21C58.3399 37.58 61.63 38.5501 61.63 38.5501C61.63 38.5501 60.95 31.2701 62.32 26.6801C64.1 20.7301 67.54 19.01 71.59 19.37C75.56 19.72 76.5199 23.85 76.9899 26.5C77.4599 29.16 76.8 33.03 75.75 35.53C74.83 37.73 73.3599 39.7701 71.7399 41.3101C71.9799 42.3701 72.0899 43.61 72.3699 44.74C72.6399 45.81 72.45 46.68 72.03 47.33" fill="#C9C9C9"/>
<path d="M52.1401 81.78C48.5201 81.78 43.1201 79.61 38.7001 76.37C33.6201 72.66 30.42 68.05 29.91 63.74C29.86 63.31 29.8301 62.8799 29.8301 62.4399C29.8301 53.7899 35.3201 43.34 37.0801 41.61C38.2301 40.49 43.49 37.92 49.3 37.23C46.3 37.83 41.5201 39.6299 37.8201 43.3199C34.5801 46.5499 33.3201 52.96 32.8301 57.53C32.5101 58.1 32.3301 58.46 32.3301 58.46C32.3301 58.46 32.4501 58.72 32.6801 59.14C32.5101 61.28 32.5201 62.72 32.5201 62.72C33.0001 62.72 33.3501 62.01 33.6301 60.86C33.6601 60.91 33.69 60.97 33.73 61.02C33.98 61.71 34.26 62.3499 34.55 62.9399C34.55 63.1499 34.55 63.26 34.55 63.26C34.6 63.26 34.6601 63.25 34.7101 63.24C36.0001 65.69 37.6801 67.21 39.7101 67.84C40.1701 68.06 40.6301 68.1801 41.0901 68.1801C41.2501 68.1801 41.4101 68.18 41.5701 68.17C41.7301 68.17 41.88 68.1801 42.04 68.1801C43.46 68.1801 45.0201 67.8401 46.7001 67.1801C47.1401 67.0101 47.58 66.82 48.04 66.6C48.05 66.5 48.3 63.94 48.04 60.84C48.41 61.64 48.5801 63.31 48.5001 65.33C48.4501 66.73 48.5001 67.61 48.5901 68.01C46.8401 69 49.1801 70.51 48.3101 70.96C46.7701 71.77 41.32 76.2099 44.97 78.1899C47.57 79.5999 49.8801 80.2999 52.1401 80.3199C54.4001 80.2999 56.7101 79.5999 59.3101 78.1899C62.9501 76.2099 57.51 71.77 55.97 70.96C55.06 70.49 57.6401 68.87 55.4501 67.89C55.5301 67.45 55.5701 66.6 55.5201 65.33C55.4401 63.15 55.6401 61.38 56.0801 60.67C56.1701 60.52 56.28 60.39 56.42 60.25C56.11 63.27 56.31 65.92 56.36 66.5C56.35 66.57 56.3401 66.62 56.3401 66.62C56.7901 66.84 57.2401 67.03 57.6801 67.2C59.3601 67.86 60.9201 68.2 62.3401 68.2C62.5001 68.2 62.6601 68.1999 62.8201 68.1899C62.9901 68.1899 63.1501 68.2 63.3201 68.2C63.7901 68.2 64.2701 68.07 64.7501 67.84C67.2201 67.04 69.1601 64.92 70.5201 61.38C70.7801 62.23 71.0901 62.74 71.4901 62.74C71.4901 62.74 71.4901 61.58 71.3801 59.79C71.8101 58.99 72.0701 58.47 72.0701 58.47C72.0701 58.47 71.7101 57.7299 71.0901 56.6899C70.5401 52.1999 69.2401 46.3599 66.1901 43.3199C62.3701 39.5199 57.4001 37.7101 54.4301 37.1801C60.2201 37.7801 65.9901 40.43 67.2501 41.64C69.0701 43.38 74.4901 53.8199 74.4901 62.4399C74.4901 62.7599 74.4801 63.07 74.4601 63.38C74.4601 63.5 74.4401 63.61 74.4301 63.72C73.3701 73.78 60.3601 81.61 52.4401 81.78H52.48H52.1801M52.1201 69.11C50.5301 69.08 49.93 67.8101 49.17 67.8101C49.08 67.8101 48.9901 67.83 48.8901 67.87C48.9901 67.41 49.0601 66.55 49.0601 65.34C49.0501 63.03 48.96 61.2 48.66 60.41C48.68 60.29 48.39 59.99 47.86 59.38C47.43 56.17 46.38 52.74 43.98 51.01C44.45 49.95 45.2501 48.77 46.2801 47.27C48.0701 44.65 51.5501 42.88 51.9901 42.28C52.4201 42.88 55.9001 44.65 57.7001 47.27C58.8001 48.88 59.6401 50.12 60.0901 51.23C58.0201 52.92 57.0301 55.92 56.5801 58.83C55.7701 59.81 55.2801 60.27 55.3201 60.41C55.0201 61.2 54.93 63.03 54.92 65.34C54.92 66.5 54.9801 67.3301 55.0701 67.8101C54.3201 67.8101 53.7101 69.07 52.1201 69.11ZM34.7101 54.51C35.3701 50.44 36.36 45.95 38.61 43.86C41.88 40.82 45.0301 39.46 47.4601 38.75C45.2001 39.67 42.4401 41.29 39.8401 43.88C37.6301 46.08 36.3401 49.76 35.5901 53.33C35.2801 53.72 34.9901 54.12 34.7101 54.52M69.1501 53.8199C68.8601 53.4399 68.5601 53.06 68.2401 52.7C67.4701 49.34 66.2001 45.95 64.1301 43.88C61.5301 41.29 58.7701 39.67 56.5101 38.75C58.9501 39.46 62.09 40.82 65.36 43.86C67.49 45.84 68.4901 49.9399 69.1501 53.8199ZM37.4501 51.34C38.1101 48.5 39.0701 45.87 40.6401 44.41C46.5701 38.89 50.7901 39.06 51.9901 38.5C53.1901 39.06 57.4101 38.89 63.3401 44.41C64.8401 45.81 65.7801 48.27 66.4401 50.96C66.0701 50.68 65.7001 50.44 65.3201 50.26C64.5901 48.69 63.3001 46.86 61.2001 44.79C58.7101 42.33 54.35 40.01 52.8 40.01C52.38 40.01 52.1701 40.1799 52.2601 40.5699C52.4001 41.1399 56.16 41.47 60.23 45.66C61.79 47.27 62.9101 48.67 63.6901 49.89H63.6501C62.7701 49.94 61.99 50.15 61.3 50.47C60.73 49.19 59.9601 47.55 58.9901 46.12C57.1601 43.45 53.3301 42.0601 52.2401 42.0601C52.1301 42.0601 52.0501 42.07 52.0001 42.1C51.9501 42.07 51.8701 42.0601 51.7501 42.0601C50.6701 42.0601 46.8301 43.44 45.0001 46.12C44.0601 47.49 43.3101 49.07 42.7501 50.33C42.1401 50.08 41.47 49.93 40.72 49.89C40.67 49.89 40.6101 49.89 40.5601 49.89C40.4701 49.89 40.38 49.89 40.29 49.9C41.07 48.68 42.2001 47.28 43.7601 45.66C47.8301 41.47 51.59 41.1399 51.73 40.5699C51.82 40.1799 51.6101 40.01 51.1901 40.01C49.6501 40.01 45.28 42.33 42.79 44.79C40.56 46.99 39.25 48.91 38.54 50.54C38.17 50.76 37.8101 51.04 37.4501 51.35M51.9901 37.78C51.9001 37.76 51.8101 37.75 51.6901 37.74C51.8101 37.69 51.9101 37.64 51.9901 37.59C52.0701 37.64 52.17 37.69 52.29 37.74C52.18 37.74 52.0801 37.76 51.9901 37.78ZM51.9901 37.09C51.9901 37.09 51.9301 37.0701 51.8901 37.0601H52.0901C52.0901 37.0601 52.0201 37.08 51.9901 37.09Z" fill="#FBFBFB"/>
<path d="M32.3298 58.46C32.3298 58.46 37.0398 68.2 41.0698 68.2C44.1598 68.2 48.0198 66.61 48.0198 66.61C48.0198 66.61 49.6598 50.4 40.7098 49.88C36.6798 49.65 32.3198 58.46 32.3198 58.46" fill="#C9C9C9"/>
<path d="M72.0299 58.46C72.0299 58.46 67.3198 68.2 63.2898 68.2C60.1998 68.2 56.3399 66.61 56.3399 66.61C56.3399 66.61 54.6999 50.4 63.6499 49.88C67.6799 49.65 72.0398 58.46 72.0398 58.46" fill="#C9C9C9"/>
<path d="M46.9601 77.73C46.9601 78.25 45.0301 77.3801 43.0901 76.5101C40.7801 75.4701 39.94 77.3201 39.43 77.6801C38.97 77.4201 38.52 77.14 38.08 76.85C37.87 75.76 41.49 74.6801 43.1 75.1501C45.08 75.7201 46.97 77.21 46.97 77.73H46.9601Z" fill="#2C2B2B"/>
<path d="M51.98 42.1C52.46 41.77 56.95 43.15 58.98 46.11C60.52 48.37 61.5601 51.17 62.0801 52.23C62.3401 52.76 62.0001 54.69 59.5901 57.21C57.2501 59.67 56.45 60.0301 56.04 60.6801C55.6 61.4001 55.4 63.16 55.48 65.34C55.64 69.39 54.89 69.09 54.91 65.34C54.92 63.03 55.0101 61.2001 55.3101 60.4101C55.2601 60.1801 56.45 59.22 58.17 56.7C59.55 54.69 60.1801 54.49 60.4001 52.38C60.2001 50.94 59.1801 49.44 57.6901 47.26C55.6701 44.3 51.49 42.43 51.98 42.1Z" fill="#2C2B2B"/>
<path d="M46.4099 75.42C46.4099 75.94 44.3599 74.46 39.5599 74.37C37.1899 74.33 35.9999 74.67 35.4099 74.97C35.2299 74.83 35.0599 74.69 34.8799 74.54C35.0699 73.49 35.7399 73.21 37.2499 73.15H37.2799C37.7599 73.13 38.3299 73.13 38.9999 73.13H39.2399C42.6299 73.13 46.3999 74.9 46.3999 75.42H46.4099Z" fill="#2C2B2B"/>
<path d="M56.74 50.27C56.74 45.91 52.73 42.48 53.08 42.48C53.43 42.48 57.97 46.04 57.97 50.4C57.97 54.16 54.07 55.33 54.2 63.73C54.25 67.1 54.32 69.83 53.93 69.83C53.37 69.83 53.78 67.1 53.66 63.73C53.37 55.23 56.75 53.61 56.75 50.27H56.74Z" fill="#2C2B2B"/>
<path d="M65.87 77.4001C65.46 77.6601 65.04 77.9001 64.62 78.1301C64.11 77.8901 63.3 75.8401 60.89 76.9201C58.95 77.7901 57.02 78.6601 57.02 78.1401C57.02 77.6201 58.9 76.1401 60.89 75.5601C62.56 75.0801 66.41 76.2601 65.86 77.4001H65.87Z" fill="#2C2B2B"/>
<path d="M69.1598 75.08C69.0998 75.13 69.0298 75.19 68.9598 75.24C68.5798 74.92 67.4998 74.33 64.4298 74.39C59.6298 74.48 57.5898 75.9599 57.5898 75.4399C57.5898 74.9199 61.3598 73.15 64.7498 73.15C65.1498 73.15 65.5198 73.15 65.8498 73.15C66.0198 73.15 66.1998 73.15 66.3698 73.16C68.3698 73.21 69.0898 73.5 69.1498 75.08H69.1598Z" fill="#2C2B2B"/>
<path d="M53.9198 50.4C53.9198 46.04 51.5399 42.73 51.8899 42.73C52.2399 42.73 54.8598 46.16 54.8598 50.52C54.8598 54.28 53.0599 55.07 52.9999 63.98C52.9799 67.35 53.2198 70.08 52.7298 70.08C52.2398 70.08 52.5799 67.35 52.4599 63.98C52.2299 57.58 53.9198 53.75 53.9198 50.41V50.4Z" fill="#2C2B2B"/>
<path d="M51.99 42.1C51.5 41.77 47.02 43.15 44.99 46.11C43.44 48.37 42.41 51.17 41.89 52.23C41.63 52.76 41.97 54.69 44.37 57.21C46.72 59.67 47.52 60.0301 47.92 60.6801C48.36 61.4001 48.5599 63.16 48.4799 65.34C48.3199 69.39 49.07 69.09 49.06 65.34C49.05 63.03 48.9599 61.2001 48.6599 60.4101C48.7099 60.1801 47.5199 59.22 45.7899 56.7C44.4099 54.69 43.78 54.49 43.56 52.38C43.76 50.94 44.78 49.44 46.27 47.26C48.29 44.3 52.4699 42.43 51.9799 42.1" fill="#2C2B2B"/>
<path d="M47.23 50.27C47.23 45.91 51.23 42.48 50.89 42.48C50.55 42.48 46 46.04 46 50.4C46 54.16 49.9 55.33 49.78 63.73C49.73 67.1 49.66 69.83 50.05 69.83C50.62 69.83 50.21 67.1 50.32 63.73C50.61 55.23 47.23 53.61 47.23 50.27Z" fill="#2C2B2B"/>
<path d="M50.0499 50.4C50.0499 46.04 52.4199 42.73 52.0799 42.73C51.7399 42.73 49.0999 46.16 49.0999 50.52C49.0999 54.28 50.8999 55.07 50.9599 63.98C50.9799 67.35 50.7399 70.08 51.2299 70.08C51.7199 70.08 51.3799 67.35 51.4999 63.98C51.7299 57.58 50.0399 53.75 50.0399 50.41L50.0499 50.4Z" fill="#2C2B2B"/>
<path d="M42.78 44.7801C34.31 53.1601 39.12 57.4201 39.71 57.4301C40.92 57.4401 34.45 55.2501 43.76 45.6601C47.83 41.4701 51.5899 41.14 51.7299 40.57C52.1699 38.75 45.9499 41.6601 42.7899 44.7901" fill="#2C2B2B"/>
<path d="M37.8098 43.3199C32.4398 48.6699 32.5098 62.73 32.5098 62.73C34.7098 62.73 33.9498 48.2 38.6098 43.86C45.6798 37.28 52.1898 38.57 52.1698 37.28C52.1598 36.37 43.6498 37.5199 37.8098 43.3199Z" fill="#2C2B2B"/>
<path d="M33.8598 47.8101C28.7698 51.6201 29.8398 62.73 29.8398 62.73C30.7298 62.75 30.7698 59.91 31.1098 56.71C31.6198 51.89 35.0898 46.8901 33.8598 47.8101Z" fill="#2C2B2B"/>
<path d="M39.8399 43.87C34.4699 49.22 34.5398 63.28 34.5398 63.28C36.7398 63.28 35.9799 48.75 40.6399 44.4C47.6999 37.82 52.3499 39.32 52.3299 38.04C52.3199 37.13 45.6799 38.06 39.8399 43.87Z" fill="#2C2B2B"/>
<path d="M61.19 44.7801C69.66 53.1601 64.85 57.4201 64.26 57.4301C63.05 57.4401 69.52 55.2501 60.22 45.6601C56.15 41.4701 52.39 41.14 52.25 40.57C51.81 38.75 58.02 41.6601 61.19 44.7901" fill="#2C2B2B"/>
<path d="M45.9999 43.32C46.9299 43.33 46.7099 40.69 49.5099 39.47C51.1699 38.74 51.9499 38.53 51.9499 38.28C51.9499 38.03 51.2099 37.75 49.0999 38.73C46.4099 39.99 45.3299 43.31 45.9899 43.32H45.9999Z" fill="#2C2B2B"/>
<path d="M66.1501 43.3199C71.5201 48.6699 71.4501 62.73 71.4501 62.73C69.2501 62.73 70.01 48.2 65.35 43.86C58.28 37.28 51.7801 38.57 51.7901 37.28C51.8001 36.37 60.3101 37.5199 66.1401 43.3199" fill="#2C2B2B"/>
<path d="M70.11 47.8101C75.2 51.6201 74.13 62.73 74.13 62.73C73.24 62.75 73.2 59.91 72.86 56.71C72.35 51.89 68.88 46.8901 70.12 47.8101H70.11Z" fill="#2C2B2B"/>
<path d="M64.1299 43.87C69.4999 49.22 69.4299 63.28 69.4299 63.28C67.2299 63.28 67.99 48.75 63.33 44.4C56.26 37.82 51.62 39.32 51.64 38.04C51.65 37.13 58.2899 38.06 64.1299 43.87Z" fill="#2C2B2B"/>
<path d="M57.97 43.32C57.04 43.33 57.26 40.69 54.46 39.47C52.8 38.74 52.02 38.53 52.02 38.28C52.02 38.03 52.75 37.75 54.86 38.73C57.56 39.99 58.64 43.31 57.97 43.32Z" fill="#2C2B2B"/>
<path d="M56.6 34.08C56.6 40.49 51.9401 47.36 51.9401 47.36C51.9401 47.36 47.29 40.49 47.29 34.08C47.29 27.67 51.9401 22.47 51.9401 22.47C51.9401 22.47 56.6 27.67 56.6 34.08Z" fill="#010101"/>
<path d="M56.6 34.08C56.6 40.49 51.9401 47.36 51.9401 47.36C51.9401 47.36 47.29 40.49 47.29 34.08C47.29 27.67 51.9401 22.47 51.9401 22.47C51.9401 22.47 56.6 27.67 56.6 34.08Z" stroke="#010101" stroke-width="0.34" stroke-miterlimit="10"/>
<path d="M56.6 35.85C56.6 42.26 51.9401 49.14 51.9401 49.14C51.9401 49.14 47.29 42.26 47.29 35.85C47.29 29.44 51.9401 24.25 51.9401 24.25C51.9401 24.25 56.6 29.45 56.6 35.85Z" fill="#191919"/>
<path d="M56.2198 36.97C56.2198 42.87 51.9299 49.2 51.9299 49.2C51.9299 49.2 47.6499 42.87 47.6499 36.97C47.6499 31.07 51.9299 26.29 51.9299 26.29C51.9299 26.29 56.2198 31.07 56.2198 36.97Z" fill="#070808"/>
<path d="M34.4398 41.46L33.6798 40.73C32.1498 39.27 30.8798 37.4399 30.0998 35.5699C29.2198 33.4699 28.5598 29.91 28.9798 27.58C29.6598 23.78 30.7398 22.15 32.7198 21.98C32.9998 21.96 33.2798 21.94 33.5398 21.94C35.5498 21.94 38.4098 22.56 40.0298 27.97C40.9798 31.12 40.8598 35.88 40.7398 38.08C39.1998 38.66 36.5898 39.85 34.7798 41.74C34.5998 41.93 34.4198 42.1299 34.2498 42.3199L34.4398 41.46Z" fill="#E48F8C"/>
<path d="M69.56 41.46L70.32 40.73C71.85 39.27 73.12 37.4399 73.9 35.5699C74.78 33.4699 75.44 29.91 75.03 27.58C74.35 23.78 73.26 22.15 71.29 21.98C71.01 21.96 70.73 21.94 70.46 21.94C68.45 21.94 65.59 22.56 63.97 27.97C63.02 31.12 63.15 35.88 63.26 38.08C64.8 38.66 67.42 39.85 69.22 41.74C69.4 41.93 69.58 42.1299 69.74 42.3199L69.55 41.46H69.56Z" fill="#E48F8C"/>
<path d="M27.83 29.0401C28.28 26.5401 29.18 22.65 32.92 22.32C36.73 21.98 39.97 23.61 41.65 29.2C42.32 31.45 42.47 34.39 42.46 36.69C42.57 34.23 42.6 29.8 41.65 26.64C39.86 20.69 36.43 18.97 32.38 19.33C28.41 19.68 27.45 23.8 26.98 26.46C26.51 29.11 27.17 32.99 28.22 35.49C28.3 35.67 28.38 35.8601 28.47 36.0401C27.81 33.8101 27.47 31.04 27.83 29.02V29.0401Z" fill="#2C2B2B"/>
<path d="M76.1599 29.0401C75.7099 26.5401 74.8099 22.65 71.0699 22.32C67.2599 21.98 64.02 23.61 62.34 29.2C61.67 31.45 61.52 34.39 61.53 36.69C61.42 34.23 61.39 29.8 62.34 26.64C64.12 20.69 67.5599 18.97 71.5999 19.33C75.5699 19.68 76.5299 23.8 76.9999 26.46C77.4699 29.11 76.8099 32.99 75.7599 35.49C75.6899 35.67 75.5999 35.8601 75.5099 36.0401C76.1699 33.8101 76.51 31.04 76.15 29.02L76.1599 29.0401Z" fill="#2C2B2B"/>
<path d="M55.9401 70.97C55.0201 70.49 57.6701 68.84 55.3401 67.86C54.4301 67.48 53.8901 69.06 52.1101 69.1C50.3301 69.06 49.7901 67.48 48.8801 67.86C46.5601 68.84 49.2001 70.48 48.2801 70.97C46.7401 71.78 41.2901 76.2199 44.9401 78.1999C47.5401 79.6099 49.8501 80.3099 52.1101 80.3299C54.3701 80.3099 56.6801 79.6099 59.2801 78.1999C62.9201 76.2199 57.4801 71.78 55.9401 70.97Z" fill="#E48F8C"/>
<path d="M49.5698 74.15C49.4598 74.11 48.5198 73.75 47.8598 72.89C47.4298 72.32 46.5198 70.93 47.3798 70.28C47.5298 70.16 47.7198 70.1 47.9198 70.1C48.6698 70.1 49.4598 71.0399 49.7698 71.4399C50.4298 72.3099 50.5198 73.3201 50.5298 73.4301L50.6098 74.52L49.5798 74.15H49.5698Z" fill="#CE8080"/>
<path d="M49.1898 71.87C49.7398 72.6 49.8098 73.48 49.8098 73.48C49.8098 73.48 48.9698 73.18 48.4198 72.46C47.8698 71.73 47.5898 71.01 47.7998 70.85C48.0098 70.69 48.6398 71.15 49.1898 71.88V71.87Z" fill="#2D2C2C"/>
<path d="M54.76 74.15C54.87 74.11 55.81 73.75 56.47 72.89C56.9 72.32 57.81 70.93 56.95 70.28C56.8 70.16 56.61 70.1 56.41 70.1C55.66 70.1 54.87 71.0399 54.56 71.4399C53.9 72.3099 53.81 73.3201 53.8 73.4301L53.72 74.52L54.75 74.15H54.76Z" fill="#CE8080"/>
<path d="M55.14 71.87C54.58 72.6 54.52 73.48 54.52 73.48C54.52 73.48 55.35 73.18 55.9 72.46C56.46 71.73 56.73 71.01 56.52 70.85C56.31 70.69 55.69 71.15 55.14 71.88V71.87Z" fill="#2D2C2C"/>
<path d="M53.86 78.0699C52.87 77.8699 52.3301 77.0699 52.3301 77.0699L52.31 77.1L52.29 77.0699C52.29 77.0699 51.7501 77.8699 50.7601 78.0699C50.2901 78.1599 49.95 78.1199 49.75 78.0699C49.54 78.0199 49.52 77.96 49.75 78.12C50.01 78.29 50.96 79.0299 52.3 79.0699C53.64 79.0299 54.59 78.29 54.85 78.12C55.09 77.97 55.07 78.0199 54.85 78.0699C54.66 78.1199 54.3101 78.1599 53.8401 78.0699" fill="#C07878"/>
<path d="M52.3098 79.0601C50.9598 79.0201 50.0198 78.28 49.7598 78.11C49.6398 78.03 49.5898 78.01 49.5898 78.01C49.5898 78.01 49.6498 78.0301 49.7598 78.0601C49.8698 78.0901 50.0298 78.11 50.2398 78.11C50.3898 78.11 50.5698 78.0901 50.7698 78.0601C51.7598 77.8601 52.2998 77.0601 52.2998 77.0601L52.3198 77.09L52.3398 77.0601C52.3398 77.0601 52.8798 77.8601 53.8698 78.0601C54.0698 78.1001 54.2498 78.11 54.3998 78.11C54.6098 78.11 54.7698 78.0801 54.8798 78.0601C54.9898 78.0301 55.0498 78.01 55.0498 78.01C55.0498 78.01 54.9898 78.03 54.8798 78.11C54.6198 78.28 53.6698 79.0201 52.3298 79.0601" fill="#C07878"/>
<path d="M57.1299 76.09C57.0899 76.01 57.0499 75.95 57.0199 75.92C56.9899 75.89 56.9699 75.87 56.9699 75.87C56.9699 75.87 56.9899 75.8901 57.0099 75.9301C57.0399 75.9601 57.0799 76.03 57.1199 76.1C57.1499 76.19 57.1699 76.29 57.1499 76.41C57.1399 76.53 57.0899 76.66 57.0099 76.79C56.6899 77.3 55.9599 77.75 55.1899 77.92C54.9899 77.96 54.7899 77.99 54.5999 77.99C54.4099 78 54.2099 77.99 54.0299 77.95C53.8499 77.92 53.6799 77.8701 53.5199 77.8101C53.3699 77.7501 53.2199 77.67 53.0999 77.6C52.9799 77.52 52.8699 77.44 52.7899 77.36C52.6999 77.28 52.6299 77.2 52.5699 77.14C52.4999 77.05 52.4499 76.99 52.4199 76.96L52.3199 75.1H52.2699L52.1699 76.96C52.1699 76.96 52.0999 77.05 52.0199 77.14C51.9599 77.2 51.8899 77.28 51.7999 77.36C51.7099 77.44 51.6099 77.52 51.4899 77.6C51.3699 77.68 51.2299 77.7501 51.0699 77.8101C50.9099 77.8701 50.7399 77.92 50.5599 77.95C50.3799 77.98 50.1899 78 49.9899 77.99C49.7999 77.99 49.5999 77.96 49.3999 77.92C48.6199 77.76 47.8899 77.31 47.5699 76.79C47.4899 76.66 47.4399 76.53 47.4299 76.41C47.4099 76.29 47.4299 76.18 47.4599 76.1C47.4999 76.02 47.5299 75.9601 47.5699 75.9301C47.5999 75.8901 47.6099 75.87 47.6099 75.87C47.6099 75.87 47.5899 75.89 47.5599 75.92C47.5299 75.95 47.4899 76.02 47.4499 76.09C47.4199 76.17 47.3899 76.28 47.3999 76.41C47.3999 76.54 47.4499 76.6701 47.5299 76.8101C47.8399 77.3501 48.5599 77.84 49.3599 78.04C49.5599 78.09 49.7699 78.13 49.9699 78.14C50.1699 78.16 50.3799 78.14 50.5699 78.12C50.7599 78.09 50.9499 78.05 51.1199 77.99C51.2899 77.93 51.4399 77.86 51.5799 77.78C51.7199 77.7 51.8399 77.61 51.9299 77.53C52.0299 77.45 52.1099 77.3701 52.1799 77.3101C52.2099 77.2701 52.2399 77.23 52.2699 77.21C52.2899 77.24 52.3199 77.2701 52.3599 77.3101C52.4299 77.3701 52.5099 77.46 52.6099 77.54C52.7099 77.62 52.8299 77.71 52.9599 77.79C53.0999 77.87 53.2499 77.94 53.4199 78C53.5899 78.06 53.7799 78.1 53.9699 78.13C54.1599 78.15 54.3699 78.17 54.5699 78.15C54.7699 78.14 54.9799 78.1 55.1799 78.05C55.9799 77.85 56.6999 77.3599 57.0099 76.8199C57.0899 76.6799 57.1299 76.55 57.1399 76.42C57.1499 76.29 57.1199 76.18 57.0899 76.1L57.1299 76.09Z" fill="#2C2B2B"/>
<path d="M36.6899 52.01C36.6899 52.01 36.6999 51.97 36.7399 51.9C36.7699 51.84 36.83 51.73 36.9 51.61C36.98 51.49 37.08 51.35 37.21 51.2C37.35 51.06 37.4899 50.88 37.6799 50.72C37.7699 50.64 37.8699 50.55 37.9799 50.47C38.0899 50.4 38.2099 50.32 38.3199 50.24C38.4399 50.15 38.57 50.09 38.71 50.02C38.85 49.96 38.9799 49.88 39.1299 49.83C39.4299 49.72 39.74 49.6099 40.08 49.5699C40.41 49.4899 40.7599 49.5 41.1099 49.49C41.4499 49.49 41.7899 49.58 42.1299 49.63C42.4499 49.73 42.7599 49.84 43.0499 49.96C43.3299 50.11 43.59 50.26 43.83 50.41C44.06 50.57 44.2599 50.76 44.4399 50.92C44.5299 51 44.62 51.08 44.7 51.16C44.78 51.24 44.84 51.33 44.9 51.4C45.03 51.55 45.12 51.6901 45.21 51.8101C45.37 52.0401 45.45 52.1801 45.45 52.1801C45.45 52.1801 45.29 52.13 45.03 52.02C44.9 51.97 44.75 51.8999 44.58 51.8199C44.42 51.7299 44.2199 51.66 44.0099 51.59C43.7999 51.51 43.5799 51.41 43.3499 51.33C43.1099 51.26 42.8699 51.19 42.6199 51.1C42.3599 51.05 42.1099 51.0001 41.8499 50.9301C41.7199 50.9201 41.58 50.91 41.45 50.89C41.32 50.88 41.1899 50.85 41.0499 50.86C40.7799 50.86 40.5199 50.84 40.2599 50.88C40.1299 50.9 39.9999 50.88 39.8699 50.92C39.7399 50.94 39.6099 50.97 39.4899 50.98C39.3599 51 39.2399 51.0399 39.1099 51.0699C38.9899 51.0999 38.8699 51.12 38.7499 51.17C38.5199 51.24 38.29 51.31 38.09 51.39C37.88 51.46 37.69 51.55 37.52 51.61C37.36 51.69 37.2 51.7501 37.08 51.8101C36.95 51.8701 36.8599 51.92 36.7899 51.95C36.7199 51.98 36.6799 52 36.6799 52L36.6899 52.01Z" fill="#121212"/>
<path d="M67.5 52.01C67.5 52.01 67.47 51.99 67.4 51.96C67.33 51.93 67.23 51.8799 67.11 51.8199C66.99 51.7599 66.83 51.7 66.67 51.62C66.49 51.56 66.31 51.47 66.1 51.4C65.9 51.32 65.67 51.2501 65.44 51.1801C65.32 51.1401 65.2 51.12 65.08 51.08C64.96 51.06 64.84 51.01 64.71 50.99C64.58 50.97 64.45 50.9501 64.33 50.9301C64.2 50.9001 64.07 50.91 63.94 50.89C63.68 50.85 63.41 50.87 63.14 50.87C63.01 50.86 62.87 50.89 62.74 50.9C62.61 50.92 62.47 50.9299 62.34 50.9399C62.08 50.9999 61.82 51.05 61.57 51.11C61.32 51.2 61.08 51.27 60.84 51.34C60.61 51.42 60.39 51.52 60.18 51.6C59.97 51.67 59.77 51.74 59.61 51.83C59.45 51.91 59.29 51.97 59.16 52.03C58.91 52.14 58.75 52.1899 58.75 52.1899C58.75 52.1899 58.83 52.0499 58.99 51.8199C59.07 51.7099 59.17 51.57 59.3 51.41C59.36 51.33 59.43 51.25 59.5 51.17C59.58 51.09 59.66 51.0201 59.76 50.9301C59.94 50.7701 60.14 50.5901 60.37 50.4301C60.61 50.2801 60.87 50.13 61.15 49.98C61.44 49.86 61.75 49.75 62.07 49.65C62.4 49.6 62.74 49.52 63.09 49.51C63.44 49.51 63.78 49.51 64.12 49.59C64.46 49.63 64.77 49.75 65.07 49.85C65.22 49.9 65.36 49.98 65.49 50.04C65.63 50.11 65.76 50.17 65.88 50.26C66 50.34 66.11 50.42 66.22 50.49C66.33 50.57 66.42 50.66 66.52 50.74C66.71 50.89 66.85 51.07 66.99 51.21C67.12 51.37 67.22 51.5 67.29 51.62C67.37 51.74 67.42 51.84 67.46 51.91C67.49 51.98 67.51 52.02 67.51 52.02L67.5 52.01Z" fill="#121212"/>
<path d="M66.12 65.63C66.11 66.32 65.6501 66.87 65.0901 66.85C64.5401 66.84 64.1 66.27 64.11 65.58C64.13 64.89 64.5801 64.35 65.1401 64.36C65.6901 64.37 66.13 64.94 66.11 65.63H66.12Z" fill="white"/>
<path d="M48.02 66.61C40.59 70.15 35.37 67.8601 33.01 58.6801C33.01 58.6801 41.94 51.7501 46.69 60.6401C47.42 62.0201 48.02 66.61 48.02 66.61Z" fill="white"/>
<path d="M56.3098 66.61C63.7398 70.15 68.9698 67.8601 71.3198 58.6801C71.3198 58.6801 62.3898 51.7501 57.6398 60.6401C56.8998 62.0201 56.2998 66.61 56.2998 66.61" fill="white"/>
<path d="M40.8399 67.2C38.7699 67.15 37.0499 65.5201 36.3799 63.2501C36.1699 62.5601 36.0699 61.8001 36.0899 61.0201C36.1599 57.8601 38.1199 56.7301 40.5999 56.6601C40.7499 56.6601 40.9099 56.6501 41.0599 56.6601C43.7499 56.7201 45.7999 59.52 45.8399 61.23C45.9299 64.58 43.5299 67.26 40.8399 67.21" fill="#D59457"/>
<path d="M40.8599 66.35C39.2999 66.31 37.9199 64.9799 37.3699 62.9399C37.1899 62.2899 37.0999 61.61 37.1199 60.9C37.1699 58.54 38.2799 57.41 40.6299 57.34C40.7499 57.34 40.8699 57.34 40.9799 57.34H41.0399C43.1599 57.39 44.7799 59.86 44.8099 61.13C44.8499 62.67 44.34 64.13 43.4 65.15C42.68 65.93 41.7999 66.36 40.9099 66.36H40.8499" fill="#23170D"/>
<path d="M63.49 67.2C65.55 67.15 67.28 65.5201 67.95 63.2501C68.15 62.5601 68.26 61.8001 68.24 61.0201C68.17 57.8601 66.21 56.7301 63.73 56.6601C63.58 56.6601 63.42 56.6501 63.27 56.6601C60.58 56.7201 58.54 59.52 58.49 61.23C58.4 64.58 60.8 67.26 63.49 67.21" fill="#D59457"/>
<path d="M63.4099 66.35C62.5199 66.35 61.6299 65.92 60.9199 65.14C59.9899 64.12 59.47 62.66 59.51 61.12C59.54 59.85 61.1599 57.38 63.2899 57.33H63.3499C63.4699 57.33 63.59 57.33 63.7 57.33C66.05 57.4 67.16 58.54 67.21 60.89C67.22 61.59 67.14 62.27 66.96 62.92C66.4 64.96 65.0299 66.3 63.4699 66.34H63.4099" fill="#23170D"/>
<path d="M41.17 59.76C41.13 61.79 39.77 63.41 38.14 63.38C37.4 63.36 36.74 63.02 36.23 62.45C36.05 61.85 35.96 61.18 35.97 60.5C36.03 57.73 37.75 56.7501 39.92 56.6801C40.7 57.3501 41.2 58.49 41.17 59.77" fill="white"/>
<path d="M43.7299 65.63C43.7199 66.32 43.2599 66.87 42.6999 66.85C42.1499 66.84 41.7099 66.27 41.7199 65.58C41.7299 64.89 42.1899 64.35 42.7499 64.36C43.2999 64.37 43.7399 64.94 43.7199 65.63H43.7299Z" fill="white"/>
<path d="M63.3599 60.0601C63.3199 62.0901 61.96 63.7101 60.33 63.6801C59.59 63.6701 58.9299 63.32 58.4199 62.75C58.2399 62.15 58.1499 61.48 58.1599 60.8C58.2199 58.03 59.9399 57.05 62.1099 56.98C62.8899 57.66 63.3899 58.7899 63.3599 60.0699" fill="white"/>
<path d="M48.0201 66.61C48.0201 66.61 47.4201 62.02 46.6901 60.64C44.8401 57.16 42.3401 56.11 39.9901 56.11C39.6701 56.11 39.35 56.13 39.04 56.16C39.36 56.13 39.6701 56.11 40.0001 56.11C42.3501 56.11 44.8401 57.17 46.7001 60.64C47.4201 62 48.0201 66.47 48.0301 66.61" fill="#B9B8B8"/>
<path d="M38.8999 56.1899C38.8999 56.1899 38.9899 56.18 39.0399 56.17C39.0399 56.17 38.9499 56.1799 38.8999 56.1899Z" fill="#302F2F"/>
<path d="M33.45 60.22C33.29 59.73 33.15 59.2199 33.01 58.6899C33.15 59.2299 33.29 59.74 33.45 60.22Z" fill="#302F2F"/>
<path d="M46.68 67.2C46.44 65.89 46.11 64.43 45.75 63.74C45.69 63.61 45.62 63.49 45.55 63.37C45.76 62.71 45.86 61.98 45.84 61.22C45.8 59.51 43.75 56.71 41.06 56.65H40.97C40.85 56.65 40.72 56.65 40.6 56.65C40.38 56.65 40.16 56.6699 39.96 56.6899C39.95 56.6799 39.93 56.67 39.92 56.66C37.96 56.72 36.37 57.53 36.04 59.71C35.12 60.01 34.3 60.41 33.64 60.77C33.58 60.59 33.51 60.4 33.45 60.21C33.29 59.72 33.15 59.2101 33.01 58.6801C33.06 58.6401 35.72 56.5901 38.9 56.1801C38.94 56.1801 38.99 56.17 39.04 56.16C39.36 56.13 39.67 56.11 39.99 56.11C42.34 56.11 44.83 57.17 46.69 60.64C47.42 62.02 48.02 66.61 48.02 66.61C47.57 66.83 47.12 67.0199 46.68 67.1899" fill="#E2E1E1"/>
<path d="M45.55 63.37C45.3 62.93 45.04 62.5301 44.76 62.1801C44.81 61.8401 44.83 61.48 44.82 61.13C44.79 59.86 43.17 57.39 41.05 57.34H40.99C40.87 57.34 40.75 57.34 40.64 57.34C40.6 57.34 40.56 57.34 40.52 57.34C40.36 57.1 40.18 56.88 39.97 56.7C40.18 56.68 40.4 56.66 40.61 56.66C40.73 56.66 40.86 56.66 40.98 56.66H41.07C43.76 56.72 45.81 59.52 45.85 61.23C45.87 61.99 45.76 62.71 45.56 63.38" fill="#C48C58"/>
<path d="M44.76 62.1801C43.67 60.7401 42.43 59.92 41.17 59.52C41.14 58.7 40.9 57.95 40.51 57.35C40.55 57.35 40.59 57.35 40.63 57.35C40.75 57.35 40.87 57.35 40.98 57.35H41.04C43.16 57.4 44.78 59.87 44.81 61.14C44.81 61.5 44.8 61.8499 44.75 62.1899" fill="#2A2017"/>
<path d="M36.03 59.72C36.37 57.53 37.96 56.72 39.91 56.67C39.92 56.68 39.94 56.69 39.95 56.7C40.15 56.88 40.34 57.1 40.5 57.34C40.89 57.94 41.13 58.69 41.16 59.51C40.45 59.29 39.75 59.1899 39.05 59.1899C37.99 59.1899 36.96 59.4 36.03 59.71" fill="#E2E1E1"/>
<path d="M57.6501 60.64C57.8701 60.22 58.11 59.83 58.35 59.48C58.11 59.84 57.8801 60.22 57.6501 60.64Z" fill="#B9B8B8"/>
<path d="M57.6398 67.2C57.1998 67.03 56.7598 66.84 56.2998 66.62C56.2998 66.62 56.2998 66.58 56.3198 66.51C56.4198 65.8 56.9698 61.91 57.6398 60.65C57.8698 60.23 58.0998 59.85 58.3398 59.49C58.2298 59.87 58.1698 60.3 58.1598 60.79C58.1498 61.48 58.2398 62.14 58.4198 62.74C58.5098 62.83 58.5898 62.92 58.6798 63C58.7098 63.12 58.7398 63.24 58.7798 63.36C58.7098 63.48 58.6398 63.6 58.5798 63.73C58.2198 64.41 57.8898 65.8799 57.6498 67.1899" fill="#E2E1E1"/>
<path d="M71.27 58.88C71.29 58.82 71.3 58.7499 71.32 58.6899C71.31 58.7499 71.29 58.82 71.27 58.88Z" fill="#B9B8B8"/>
<path d="M70.9099 60.15C71.0399 59.74 71.16 59.32 71.28 58.88C71.16 59.32 71.0399 59.75 70.9099 60.15Z" fill="#302F2F"/>
<path d="M60.5999 57.21C61.8099 56.41 63.0999 56.12 64.3399 56.12C63.0999 56.12 61.8099 56.42 60.5999 57.21Z" fill="#B9B8B8"/>
<path d="M65.4299 56.1899C65.2699 56.1699 65.12 56.15 64.96 56.14C65.12 56.15 65.2799 56.1699 65.4299 56.1899Z" fill="#302F2F"/>
<path d="M70.6899 60.78C69.9799 60.39 69.0799 59.96 68.0599 59.65C67.5199 57.53 65.8099 56.72 63.7299 56.66C63.6099 56.66 63.4799 56.66 63.3599 56.66H63.2599C62.7099 56.67 62.1899 56.8 61.7099 57.01C61.3199 57.04 60.9499 57.11 60.5999 57.21C61.8099 56.42 63.0899 56.12 64.3399 56.12C64.5399 56.12 64.7499 56.12 64.9499 56.14C65.1099 56.15 65.2699 56.1699 65.4199 56.1899C68.5999 56.6099 71.2699 58.6499 71.3099 58.6899C71.2899 58.7499 71.2799 58.82 71.2599 58.88C71.1399 59.32 71.0199 59.75 70.8899 60.15C70.8199 60.36 70.7499 60.57 70.6799 60.78" fill="#E2E1E1"/>
<path d="M58.78 63.37C58.74 63.25 58.7099 63.13 58.6799 63.01C58.7499 63.07 58.82 63.1301 58.89 63.1801C58.85 63.2401 58.81 63.31 58.78 63.37ZM68.0599 59.65C67.7099 59.54 67.3499 59.45 66.9799 59.38C66.5399 58.05 65.47 57.4 63.7 57.34C63.58 57.34 63.4599 57.34 63.3499 57.34H63.2899C63.0399 57.34 62.7899 57.39 62.5499 57.46C62.4199 57.28 62.2699 57.13 62.1099 56.99C61.9699 56.99 61.84 57 61.71 57.01C62.19 56.8 62.7199 56.68 63.2599 56.66H63.3599C63.4799 56.66 63.6099 56.66 63.7299 56.66C65.8099 56.72 67.5199 57.53 68.0599 59.65Z" fill="#C48C58"/>
<path d="M63.3298 59.47C63.2398 58.69 62.9698 57.99 62.5498 57.45C62.7898 57.38 63.0298 57.34 63.2898 57.33H63.3498C63.4698 57.33 63.5898 57.33 63.6998 57.33C65.4698 57.38 66.5398 58.04 66.9798 59.37C66.4298 59.26 65.8598 59.2 65.2798 59.2C64.6398 59.2 63.9798 59.28 63.3398 59.47" fill="#2A2017"/>
<path d="M58.9 63.1801C58.82 63.1301 58.75 63.07 58.69 63.01C58.6 62.93 58.51 62.84 58.43 62.75C58.25 62.15 58.1599 61.48 58.1699 60.8C58.1799 60.31 58.2399 59.88 58.3499 59.5C59.0499 58.48 59.8099 57.74 60.5999 57.22C60.9499 57.11 61.32 57.05 61.71 57.02C61.84 57.01 61.9699 57 62.1099 57C62.2699 57.14 62.4199 57.3 62.5499 57.47C62.9699 58.01 63.25 58.71 63.33 59.49C61.74 59.95 60.18 61.05 58.89 63.2" fill="#E2E1E1"/>
<path d="M48.0201 66.6099C47.9301 66.1599 47.83 65.7 47.72 65.25C47.62 64.8 47.53 64.34 47.41 63.9C47.3 63.45 47.1901 63.0099 47.0601 62.5699C46.9301 62.1199 46.7901 61.72 46.6301 61.3C46.5301 61.11 46.4401 60.8499 46.3401 60.6999L45.98 60.13C45.72 59.76 45.47 59.3999 45.16 59.0699C45.02 58.8999 44.8701 58.7399 44.7101 58.5899C44.5501 58.4399 44.4 58.28 44.22 58.15C44.05 58.01 43.8901 57.87 43.7001 57.76C43.5301 57.63 43.3401 57.52 43.1501 57.42C42.7801 57.21 42.37 57.06 41.97 56.93C41.56 56.8 41.14 56.7299 40.72 56.6899C40.29 56.6599 39.8601 56.6499 39.4301 56.6899C39.0001 56.7199 38.5701 56.81 38.1401 56.9C37.2901 57.1 36.4501 57.4 35.6501 57.79C35.2501 57.98 34.86 58.2 34.47 58.42C34.09 58.65 33.7001 58.89 33.3701 59.14L33.5801 58.53L33.92 59.7299C34.02 60.1299 34.1801 60.52 34.3201 60.91C34.4601 61.3 34.6001 61.69 34.7801 62.06C34.9601 62.43 35.1001 62.83 35.3101 63.17C35.5201 63.52 35.6801 63.9099 35.9301 64.2299C36.1801 64.5499 36.37 64.9199 36.66 65.1999C36.93 65.4999 37.1801 65.82 37.5001 66.06L37.9601 66.4599L38.4601 66.78C38.7901 67.02 39.1601 67.1599 39.5301 67.3299C39.9001 67.4999 40.3001 67.5699 40.6801 67.6899C41.0801 67.7399 41.4801 67.8299 41.8901 67.8399C42.3001 67.8299 42.7101 67.8799 43.1301 67.8199C43.5401 67.7699 43.9601 67.77 44.3701 67.67C44.7801 67.57 45.21 67.53 45.6 67.4C46 67.27 46.4101 67.18 46.8101 67.03L48.0201 66.5999V66.6099ZM48.0201 66.6099L46.8801 67.1999C46.5001 67.3899 46.0901 67.5299 45.6901 67.6999C45.2901 67.8799 44.8701 67.9699 44.4601 68.1099C44.0501 68.2599 43.6101 68.3 43.1901 68.4C42.7601 68.51 42.3201 68.48 41.8801 68.52C41.4401 68.53 40.99 68.4799 40.55 68.4499C40.12 68.3399 39.6601 68.3 39.2401 68.13C38.8201 67.96 38.3801 67.8199 38.0001 67.5799L37.41 67.24L36.8701 66.8199C36.5001 66.5599 36.2001 66.22 35.8901 65.9C35.5601 65.59 35.33 65.1999 35.05 64.8499C34.77 64.4999 34.5801 64.0999 34.3401 63.7299C34.0901 63.3499 33.9301 62.95 33.7401 62.55C33.5401 62.15 33.3901 61.7399 33.2401 61.3299C33.0901 60.9199 32.9201 60.5099 32.8101 60.0899L32.4401 58.8399L32.3301 58.4699L32.6501 58.2299C33.0601 57.9199 33.4501 57.67 33.8701 57.42C34.2901 57.18 34.7101 56.95 35.1501 56.75C36.0201 56.34 36.9301 56.01 37.8801 55.8C38.3601 55.7 38.8401 55.6299 39.3401 55.5999C39.8301 55.5599 40.3301 55.59 40.8201 55.63C41.3101 55.69 41.8101 55.7999 42.2801 55.9599C42.5201 56.0499 42.75 56.12 42.97 56.24C43.2 56.35 43.4201 56.4599 43.6201 56.5899C43.8401 56.7099 44.04 56.86 44.23 57.01C44.43 57.15 44.62 57.3199 44.79 57.4799C44.98 57.6399 45.1401 57.82 45.3101 58C45.4801 58.17 45.6301 58.36 45.7701 58.56C46.0701 58.94 46.3201 59.35 46.5601 59.76L46.9001 60.39C47.0401 60.65 47.07 60.84 47.17 61.06C47.3 61.51 47.4301 62.0099 47.5001 62.4599C47.5901 62.9199 47.66 63.3799 47.72 63.8399C47.85 64.7599 47.9501 65.6899 48.0101 66.6099H48.0201Z" fill="#070808"/>
<path d="M56.3098 66.61C56.3698 65.69 56.4598 64.76 56.5998 63.84C56.6598 63.38 56.7398 62.92 56.8198 62.46C56.8898 62.01 57.0198 61.5101 57.1498 61.0601C57.2398 60.8401 57.2798 60.6401 57.4198 60.3901L57.7498 59.7601C57.9998 59.3501 58.2398 58.9401 58.5398 58.5601C58.6798 58.3601 58.8398 58.1801 59.0098 58.0001C59.1698 57.8201 59.3398 57.64 59.5298 57.48C59.7098 57.31 59.8898 57.1501 60.0898 57.0101C60.2798 56.8601 60.4898 56.71 60.6998 56.59C60.9098 56.45 61.1298 56.34 61.3598 56.24C61.5798 56.12 61.8198 56.05 62.0498 55.96C62.5198 55.8 63.0098 55.6901 63.5098 55.6301C63.9998 55.5801 64.4998 55.55 64.9898 55.6C65.4798 55.62 65.9698 55.7001 66.4498 55.8001C67.3998 56.0101 68.3198 56.3401 69.1898 56.7501C69.6298 56.9501 70.0498 57.1801 70.4698 57.4201C70.8898 57.6701 71.2798 57.92 71.6898 58.23L72.0098 58.47L71.8998 58.84L71.5298 60.09C71.4198 60.51 71.2498 60.92 71.0998 61.33C70.9498 61.74 70.7998 62.1501 70.5998 62.5501C70.4098 62.9401 70.2398 63.35 69.9998 63.73C69.7598 64.11 69.5698 64.51 69.2898 64.85C69.0098 65.2 68.7798 65.5801 68.4498 65.9001C68.1398 66.2201 67.8398 66.56 67.4598 66.82L66.9198 67.24L66.3298 67.58C65.9498 67.83 65.5098 67.9701 65.0898 68.1301C64.6698 68.3001 64.2098 68.34 63.7798 68.45C63.3398 68.48 62.8898 68.5301 62.4498 68.5201C62.0098 68.4801 61.5598 68.5001 61.1298 68.4001C60.6998 68.3001 60.2698 68.26 59.8598 68.11C59.4498 67.97 59.0198 67.88 58.6298 67.7C58.2298 67.53 57.8198 67.39 57.4398 67.2L56.2998 66.61H56.3098ZM56.3098 66.61L57.5198 67.0401C57.9198 67.1901 58.3298 67.2901 58.7398 67.4101C59.1398 67.5401 59.5698 67.5901 59.9698 67.6801C60.3798 67.7801 60.8098 67.78 61.2098 67.83C61.6198 67.88 62.0398 67.83 62.4498 67.85C62.8598 67.83 63.2598 67.75 63.6598 67.7C64.0498 67.57 64.4498 67.51 64.8098 67.34C65.1698 67.17 65.5498 67.0301 65.8798 66.7901L66.3798 66.47L66.8298 66.07C67.1498 65.83 67.3998 65.5 67.6698 65.21C67.9598 64.93 68.1498 64.56 68.3998 64.24C68.6498 63.92 68.8098 63.5301 69.0198 63.1801C69.2298 62.8401 69.3698 62.44 69.5498 62.07C69.7298 61.7 69.8698 61.3101 70.0098 60.9201C70.1498 60.5301 70.2998 60.14 70.4098 59.74L70.7498 58.5401L70.9598 59.1501C70.6298 58.9001 70.2398 58.6501 69.8598 58.4301C69.4798 58.2001 69.0898 57.9901 68.6798 57.8001C67.8798 57.4101 67.0398 57.1101 66.1898 56.9101C65.7598 56.8101 65.3298 56.73 64.8998 56.7C64.4698 56.65 64.0298 56.66 63.6098 56.7C63.1798 56.74 62.7598 56.82 62.3498 56.94C61.9398 57.07 61.5398 57.2201 61.1698 57.4301C60.9798 57.5301 60.7898 57.6401 60.6198 57.7701C60.4398 57.8801 60.2698 58.0201 60.0998 58.1601C59.9198 58.2901 59.7698 58.45 59.6098 58.6C59.4498 58.75 59.2998 58.91 59.1598 59.08C58.8598 59.41 58.5998 59.7701 58.3398 60.1401L57.9798 60.71C57.8798 60.85 57.7898 61.1101 57.6898 61.3101C57.5298 61.7301 57.3798 62.13 57.2598 62.58C57.1298 63.02 57.0098 63.4701 56.9098 63.9101C56.7998 64.3601 56.6998 64.8101 56.5998 65.2601C56.4998 65.7101 56.3998 66.16 56.2998 66.62L56.3098 66.61Z" fill="#070808"/>
<path d="M76.4601 63.12V63.1801C76.4501 63.3001 76.43 63.43 76.42 63.55C76.4 63.76 76.3701 63.9799 76.3301 64.1899C75.8001 64.3599 74.17 64.72 72.88 65.62C71.37 66.67 67.99 69.9299 66.51 70.5699C65.02 71.2099 60.2001 70.83 59.9001 70.36C59.6001 69.89 60.4101 69.89 61.1401 69.83C61.8601 69.78 64.04 69.63 65.61 69.33C67.19 69.03 70.34 66.43 71.75 65.11C73.16 63.79 74.6501 63.6801 74.6501 63.6801L76.47 63.12H76.4601Z" fill="#070808"/>
<path d="M75.72 66.48C75.66 66.65 75.5901 66.82 75.5301 66.98C75.3301 67.48 75.0901 67.98 74.8301 68.47C73.1401 69.83 70.5 72.28 69.23 72.83C68.64 73.08 67.53 73.17 66.38 73.17C66.21 73.17 66.03 73.17 65.86 73.16C64.29 73.11 62.79 72.88 62.63 72.62C62.33 72.15 63.14 72.15 63.87 72.09C64.59 72.04 66.7701 71.89 68.3401 71.59C69.9101 71.29 73.07 68.69 74.48 67.37C74.91 66.97 75.34 66.68 75.73 66.48H75.72Z" fill="#070808"/>
<path d="M44.4998 70.36C44.1998 70.82 39.3898 71.2099 37.8898 70.5699C36.3998 69.9299 33.0198 66.67 31.5198 65.62C30.1098 64.64 28.3098 64.3 27.9498 64.15C27.9198 63.97 27.8898 63.79 27.8598 63.61C27.8598 63.56 27.8498 63.52 27.8398 63.48C27.8598 63.28 27.8898 63.12 27.8898 63.12L29.7498 63.6899C29.7498 63.6899 31.2398 63.8 32.6498 65.12C34.0498 66.44 37.2098 69.04 38.7898 69.34C40.3598 69.64 42.5398 69.78 43.2598 69.84C43.9898 69.89 44.7898 69.9 44.4998 70.37V70.36Z" fill="#070808"/>
<path d="M41.7699 72.62C41.6199 72.85 40.4099 73.05 39.0399 73.13C38.4599 73.16 37.8499 73.17 37.2699 73.15H37.2499C36.3899 73.12 35.6199 73.0199 35.1599 72.8199C33.8999 72.2799 31.2599 69.84 29.5799 68.47C29.2899 67.97 29.0299 67.4501 28.8099 66.9301C28.7399 66.7701 28.6699 66.5999 28.6099 66.4399C29.0299 66.6499 29.4799 66.95 29.9299 67.37C31.3299 68.69 34.4899 71.29 36.0699 71.59C37.6399 71.89 39.8199 72.04 40.5399 72.09C41.2699 72.14 42.0699 72.15 41.7799 72.62H41.7699Z" fill="#070808"/>
</svg>
