<svg width="102" height="102" viewBox="0 0 102 102" fill="none" xmlns="http://www.w3.org/2000/svg">
<path d="M92.87 0.650024H9.28C4.49169 0.650024 0.609985 4.53173 0.609985 9.32004V92.91C0.609985 97.6983 4.49169 101.58 9.28 101.58H92.87C97.6583 101.58 101.54 97.6983 101.54 92.91V9.32004C101.54 4.53173 97.6583 0.650024 92.87 0.650024Z" fill="#DBBD64"/>
<path d="M51.18 79.01C50.94 79.01 50.7 79.01 50.45 78.99C44.45 78.68 35 74.67 29.53 68.47C28.84 67.76 28.25 67.02 27.76 66.28C27.58 66.33 27.4 66.36 27.21 66.36C26.25 66.36 25.61 65.69 25.1 65.15C24.92 64.96 24.65 64.67 24.52 64.61C24.27 64.49 24.01 64.43 23.73 64.43C23.16 64.43 22.7 64.68 22.69 64.68C22.48 64.8 22.24 64.86 22.01 64.86C21.67 64.86 21.33 64.73 21.07 64.48C20.63 64.06 20.52 63.4 20.8 62.86C20.89 62.69 21.38 61.75 22.16 60.78C21.94 60.35 21.96 59.84 22.22 59.42C22.27 59.35 23.16 57.97 24.4 56.71C24.19 56.41 24.06 56.22 24.05 56.2C23.73 55.7 23.77 55.06 24.14 54.6C24.41 54.27 24.8 54.09 25.2 54.09C25.36 54.09 25.53 54.12 25.68 54.18C25.68 54.18 25.75 54.21 25.87 54.23C26.37 51.93 27.23 49.48 28.42 46.91C26.67 45.64 25.34 42.96 24.45 38.92C23.49 34.56 22.71 25.52 24.67 23.76C25.06 23.41 25.59 23.23 26.28 23.23H26.36C29.92 23.23 41.49 28.86 44.71 32.64C44.99 32.96 45.21 33.28 45.38 33.58C47.32 33.23 49.78 33.08 51.12 33.06C52.51 33.07 54.99 33.23 56.94 33.58C57.1 33.29 57.31 32.99 57.57 32.68C60.76 28.87 72.36 23.22 75.97 23.22H76.05C76.75 23.22 77.28 23.4 77.69 23.76C78.05 24.08 79 24.93 78.9 30.37C78.9 30.54 78.86 30.7 78.8 30.85C78.63 36.22 77.38 44.22 73.89 46.87C75.21 49.7 76.12 52.38 76.59 54.87C76.7 54.84 76.81 54.83 76.92 54.83C77.33 54.83 77.73 55.01 77.99 55.34C78.35 55.8 78.39 56.44 78.08 56.93C78.08 56.94 77.95 57.14 77.73 57.44C78.98 58.7 79.87 60.08 79.91 60.15C80.18 60.57 80.19 61.08 79.98 61.51C80.77 62.48 81.25 63.41 81.34 63.58C81.62 64.12 81.5 64.78 81.06 65.19C80.8 65.44 80.46 65.56 80.12 65.56C79.88 65.56 79.65 65.5 79.43 65.38C79.43 65.38 78.98 65.14 78.41 65.14C78.12 65.14 77.86 65.2 77.62 65.32C77.49 65.39 77.22 65.67 77.04 65.86C76.53 66.4 75.89 67.07 74.93 67.07C74.69 67.07 74.47 67.03 74.26 66.95C73.93 67.42 73.57 67.88 73.17 68.34C68.34 74.2 59.4 78.67 51.91 78.97H51.5L51.16 78.98L51.18 79.01Z" fill="#2F150C"/>
<path d="M22.01 63.48C22.01 63.48 23.54 62.59 25.12 63.38C26.25 63.95 27.05 66.21 28.11 64.11C28.67 65.36 29.53 66.51 30.52 67.54C35.6 73.31 44.66 77.32 50.49 77.62C50.72 77.62 50.94 77.64 51.16 77.64C51.26 77.64 51.36 77.64 51.46 77.64C51.59 77.64 51.72 77.64 51.84 77.64C58.52 77.37 67.32 73.32 72.12 67.49C72.88 66.64 73.51 65.73 73.98 64.8C75.06 67.02 75.87 64.71 77.01 64.14C78.59 63.35 80.12 64.24 80.12 64.24C80.12 64.24 78.79 61.62 76.99 60.73C77.91 60.59 78.76 60.92 78.76 60.92C78.76 60.92 77.46 58.9 75.88 57.64C76.52 56.86 76.93 56.22 76.93 56.22C76.93 56.22 76.25 56.48 75.45 56.44C74.98 52.84 73.53 49.18 72.01 46.17C72.1 46.26 72.14 46.32 72.11 46.31C76.16 45.09 77.63 34.47 77.43 28.59C77.48 29.12 77.51 29.72 77.52 30.37C77.57 27.51 77.3 25.28 76.77 24.8C76.63 24.67 76.38 24.61 76.05 24.61C76.04 24.61 76.02 24.61 76.01 24.61C72.31 24.55 57.37 32.14 57.92 35.23C56.2 34.72 52.95 34.47 51.14 34.45C49.35 34.47 46.15 34.72 44.42 35.22C44.91 32.13 30.12 24.62 26.37 24.62C26.37 24.62 26.35 24.62 26.34 24.62C26.34 24.62 26.33 24.62 26.32 24.62C25.98 24.62 25.73 24.68 25.59 24.8C23.94 26.28 24.76 44.68 30.17 46.3C30.13 46.3 30.21 46.21 30.38 46.04C28.94 48.87 27.56 52.26 26.99 55.66C26.07 55.81 25.19 55.48 25.19 55.48C25.19 55.48 25.6 56.12 26.24 56.9C24.65 58.16 23.36 60.18 23.36 60.18C23.36 60.18 24.22 59.86 25.13 59.99C23.33 60.88 22 63.5 22 63.5L22.01 63.48Z" fill="#2F150C"/>
<path d="M30.96 59.6099C30.69 59.7099 30.41 59.7399 30.13 59.7099C30.06 60.0199 29.97 60.3099 29.84 60.5599C29.38 61.5199 28.99 62.03 28.65 62.23C28.65 62.55 28.61 62.8899 28.49 63.2099C27.23 66.7399 26.38 63.9999 25.12 63.3699C23.54 62.5799 22.01 63.4699 22.01 63.4699C22.01 63.4699 23.34 60.8499 25.14 59.9599C24.22 59.8199 23.37 60.1499 23.37 60.1499C23.37 60.1499 24.67 58.1299 26.25 56.8699C25.61 56.0899 25.2 55.45 25.2 55.45C25.2 55.45 27.16 56.1999 28.32 54.9599C29.28 53.9299 30.06 51.6599 31.67 55.0499C32.35 56.4799 32.27 59.12 30.95 59.6" fill="#BA5C27"/>
<path d="M71.1901 60.3499C71.4601 60.4499 71.74 60.4799 72.02 60.4499C72.09 60.7599 72.1801 61.0499 72.3101 61.2999C72.7701 62.2599 73.1601 62.7699 73.5001 62.9699C73.5001 63.2899 73.5401 63.6299 73.6601 63.9499C74.9201 67.4799 75.7701 64.7399 77.0301 64.1099C78.6101 63.3199 80.1401 64.2099 80.1401 64.2099C80.1401 64.2099 78.8101 61.5899 77.0101 60.6999C77.9301 60.5599 78.7801 60.8899 78.7801 60.8899C78.7801 60.8899 77.4801 58.8699 75.9001 57.6099C76.5401 56.8299 76.9501 56.1899 76.9501 56.1899C76.9501 56.1899 74.99 56.9399 73.83 55.6999C72.87 54.6699 72.0901 52.3999 70.4801 55.7899C69.8001 57.2199 69.8801 59.8599 71.2001 60.3399" fill="#BA5C27"/>
<path d="M75.63 58.76C75.63 59.09 75.62 59.41 75.59 59.73C75.58 59.85 75.57 59.97 75.55 60.09C75.41 61.25 75.09 62.39 74.62 63.48C71.22 71.38 59.98 77.27 51.87 77.59C51.74 77.59 51.61 77.59 51.49 77.59C51.39 77.59 51.29 77.59 51.19 77.59C50.97 77.59 50.75 77.59 50.52 77.57C43.4 77.21 31.49 71.33 27.84 63.46C27.34 62.38 26.99 61.27 26.84 60.12C26.78 59.67 26.74 59.21 26.74 58.74C26.74 49.56 34.64 39.07 34.64 39.07C34.64 39.07 42.62 34.61 51.19 34.61C59.26 34.61 67.74 39.07 67.74 39.07C67.74 39.07 75.64 49.56 75.64 58.74" fill="#BA5C27"/>
<path d="M51.18 76.82C47.55 76.82 42.12 74.77 37.68 71.72C32.59 68.22 29.37 63.88 28.86 59.8C28.81 59.4 28.78 58.99 28.78 58.57C28.78 50.41 34.75 40.9 36.06 38.92C37.68 38.03 44.3 34.62 51.18 34.62C57.66 34.62 64.58 38.03 66.31 38.94C67.64 40.96 73.57 50.43 73.57 58.57C73.57 58.87 73.56 59.16 73.54 59.45C73.54 59.56 73.52 59.67 73.51 59.78C72.44 69.27 59.39 76.66 51.44 76.81H51.48H51.18" fill="#D1661B"/>
<path d="M31.3 56.11C31.3 56.11 36.02 65.88 40.07 65.88C43.17 65.88 47.04 64.29 47.04 64.29C47.04 64.29 48.68 48.02 39.71 47.49C35.67 47.26 31.29 56.1 31.29 56.1" fill="#BA5C27"/>
<path d="M71.1401 56.11C71.1401 56.11 66.42 65.88 62.37 65.88C59.27 65.88 55.4 64.29 55.4 64.29C55.4 64.29 53.7601 48.02 62.7301 47.49C66.7701 47.26 71.15 56.1 71.15 56.1" fill="#BA5C27"/>
<path d="M74.61 63.5C71.21 71.4 59.97 77.3 51.86 77.62C51.73 77.62 51.6 77.62 51.48 77.62C51.38 77.62 51.28 77.62 51.18 77.62C50.96 77.62 50.74 77.62 50.51 77.6C43.39 77.24 31.48 71.35 27.83 63.48C30.86 63.44 32.18 67.62 40.17 70.51C41.52 71 43.53 68.99 46.81 67.96C49.43 67.13 50.98 67.42 51.35 67.42C51.44 67.42 51.48 67.42 51.48 67.42C51.48 67.42 52.77 67.05 56.04 68.08C59.32 69.11 61.85 70.68 63.2 70.2C70.72 67.48 71.81 63.58 74.61 63.48" fill="#E9E9EA"/>
<path d="M51.18 76.3699C47.23 76.3699 41.63 74.7299 36.91 72.1899C33.85 70.5399 28.7 67.1699 27.62 62.6599C27.74 62.6599 27.86 62.6599 27.98 62.6599C30.14 62.6599 31.99 65.9199 36.47 67.6699C37.74 68.1699 43.05 66.5499 44.29 66.5499C45.12 66.5499 46.03 67.6499 47.09 67.3099C48.24 66.9299 49.33 66.7399 50.32 66.7399C50.64 66.7399 50.89 66.7599 51.07 66.7699C51.2 66.7799 51.3 66.7899 51.37 66.7899H51.42H51.47H51.5H51.65L51.75 66.7599C51.75 66.7599 51.91 66.7299 52.23 66.7299C52.87 66.7299 54 66.8499 55.81 67.4499C56.8 67.7799 57.68 66.6599 58.49 66.6599C59.81 66.6599 65.25 68.1799 66.52 67.6799C70.84 65.9999 72.72 62.7199 74.79 62.6699C73.08 70.4799 59.9 76.2599 51.5 76.3799H51.21" fill="white"/>
<path d="M35.6799 49.64C35.6799 49.64 35.6899 49.6 35.7299 49.53C35.7699 49.46 35.8199 49.36 35.8999 49.24C35.9799 49.12 36.0799 48.98 36.2099 48.83C36.3499 48.69 36.4899 48.51 36.6799 48.35C36.7699 48.27 36.8699 48.18 36.9799 48.1C37.0899 48.02 37.2099 47.95 37.3299 47.87C37.4499 47.78 37.5799 47.72 37.7199 47.65C37.8599 47.58 37.9899 47.5 38.1499 47.46C38.4499 47.35 38.7699 47.24 39.0999 47.2C39.4299 47.12 39.7799 47.13 40.1299 47.13C40.4799 47.13 40.8199 47.21 41.1499 47.27C41.4699 47.37 41.7899 47.48 42.0799 47.6C42.3599 47.75 42.6199 47.9 42.8599 48.05C43.0899 48.21 43.2899 48.4 43.4699 48.56C43.5599 48.64 43.6499 48.72 43.7299 48.8C43.8099 48.88 43.8699 48.97 43.9299 49.04C44.0599 49.19 44.1599 49.33 44.2399 49.45C44.3999 49.68 44.4799 49.82 44.4799 49.82C44.4799 49.82 44.3199 49.77 44.0599 49.66C43.9299 49.61 43.7799 49.54 43.6099 49.46C43.4499 49.37 43.2499 49.3 43.0399 49.23C42.8299 49.15 42.6099 49.05 42.3799 48.97C42.1399 48.9 41.8999 48.83 41.6499 48.74C41.3899 48.68 41.1299 48.64 40.8699 48.57C40.7399 48.56 40.5999 48.55 40.4699 48.53C40.3399 48.52 40.1999 48.49 40.0699 48.5C39.7999 48.5 39.5399 48.48 39.2699 48.52C39.1399 48.54 38.9999 48.52 38.8799 48.56C38.7499 48.58 38.6199 48.61 38.4899 48.63C38.3599 48.64 38.2399 48.69 38.1199 48.72C37.9999 48.75 37.8699 48.78 37.7599 48.82C37.5299 48.89 37.2999 48.96 37.0999 49.04C36.8899 49.11 36.6999 49.2 36.5299 49.26C36.3699 49.34 36.2099 49.4 36.0899 49.46C35.9699 49.52 35.8699 49.57 35.7999 49.6C35.7299 49.63 35.6899 49.65 35.6899 49.65L35.6799 49.64Z" fill="#402211"/>
<path d="M66.6001 49.64C66.6001 49.64 66.5601 49.62 66.4901 49.59C66.4201 49.56 66.3301 49.51 66.2001 49.45C66.0801 49.39 65.9201 49.33 65.7601 49.25C65.5801 49.19 65.4001 49.1 65.1901 49.03C64.9901 48.95 64.7601 48.88 64.5301 48.81C64.4101 48.77 64.2901 48.74 64.1701 48.71C64.0501 48.69 63.93 48.64 63.8 48.62C63.67 48.6 63.5401 48.58 63.4101 48.55C63.2801 48.52 63.1501 48.53 63.0201 48.51C62.7601 48.47 62.4901 48.49 62.2201 48.49C62.0901 48.48 61.9501 48.51 61.8201 48.52C61.6901 48.54 61.5501 48.55 61.4201 48.56C61.1601 48.63 60.9001 48.67 60.6401 48.73C60.3901 48.82 60.1501 48.89 59.9101 48.96C59.6801 49.04 59.4601 49.14 59.2501 49.22C59.0401 49.3 58.8401 49.37 58.6801 49.45C58.5101 49.53 58.3601 49.59 58.2301 49.65C57.9701 49.76 57.8101 49.81 57.8101 49.81C57.8101 49.81 57.89 49.67 58.05 49.44C58.13 49.33 58.23 49.18 58.36 49.03C58.42 48.95 58.4901 48.87 58.5601 48.79C58.6401 48.71 58.7301 48.64 58.8201 48.55C59.0001 48.39 59.2001 48.21 59.4301 48.04C59.6701 47.89 59.9401 47.74 60.2101 47.59C60.5001 47.47 60.8201 47.36 61.1401 47.26C61.4701 47.21 61.8101 47.13 62.1601 47.12C62.5101 47.12 62.8501 47.12 63.1901 47.19C63.5301 47.23 63.8401 47.35 64.1401 47.45C64.2901 47.5 64.4301 47.58 64.5701 47.64C64.7001 47.71 64.8401 47.77 64.9601 47.86C65.0801 47.94 65.1901 48.02 65.3101 48.09C65.4201 48.17 65.52 48.26 65.61 48.34C65.8 48.5 65.95 48.68 66.08 48.82C66.21 48.97 66.3101 49.11 66.3901 49.23C66.4701 49.35 66.5201 49.45 66.5601 49.52C66.6001 49.59 66.61 49.63 66.61 49.63L66.6001 49.64Z" fill="#402211"/>
<path d="M47.04 64.29C39.59 67.84 34.34 65.54 31.97 56.34C31.97 56.34 40.94 49.38 45.7 58.31C46.44 59.7 47.04 64.3 47.04 64.3" fill="white"/>
<path d="M39.84 64.87C37.77 64.82 36.03 63.19 35.37 60.91C35.16 60.22 35.06 59.46 35.08 58.67C35.15 55.5 37.12 54.37 39.6 54.29C39.75 54.29 39.91 54.29 40.06 54.29C42.76 54.35 44.81 57.16 44.86 58.88C44.95 62.25 42.54 64.93 39.84 64.87Z" fill="#ECB61E"/>
<path d="M39.86 64.02C38.29 63.98 36.91 62.64 36.35 60.6C36.17 59.95 36.08 59.26 36.1 58.56C36.15 56.19 37.27 55.06 39.63 54.98C39.75 54.98 39.87 54.98 39.98 54.98H40.05C42.18 55.03 43.8 57.51 43.83 58.79C43.87 60.33 43.35 61.8 42.42 62.82C41.7 63.6 40.82 64.03 39.92 64.03H39.86" fill="#A0782C"/>
<path d="M55.36 64.29C62.81 67.84 68.06 65.54 70.43 56.34C70.43 56.34 61.46 49.38 56.7 58.31C55.96 59.7 55.36 64.3 55.36 64.3" fill="white"/>
<path d="M62.5701 64.87C64.6401 64.82 66.3801 63.19 67.0401 60.91C67.2501 60.22 67.35 59.46 67.33 58.67C67.26 55.5 65.2901 54.37 62.8101 54.29C62.6601 54.29 62.5001 54.29 62.3501 54.29C59.6501 54.35 57.6001 57.16 57.5501 58.88C57.4601 62.25 59.8701 64.93 62.5701 64.87Z" fill="#ECB61E"/>
<path d="M62.4899 64.02C61.5999 64.02 60.71 63.59 59.99 62.81C59.05 61.79 58.5399 60.32 58.5799 58.78C58.6099 57.51 60.24 55.02 62.37 54.98H62.43C62.55 54.98 62.67 54.98 62.79 54.98C65.15 55.05 66.27 56.19 66.31 58.55C66.33 59.26 66.24 59.94 66.06 60.59C65.5 62.64 64.1199 63.98 62.5499 64.01H62.4899" fill="#A0782C"/>
<path d="M40.17 57.4099C40.13 59.4499 38.76 61.0799 37.13 61.0399C36.39 61.0199 35.72 60.6699 35.22 60.0999C35.04 59.4899 34.95 58.83 34.96 58.14C35.02 55.36 36.74 54.3699 38.92 54.3099C39.7 54.9899 40.2 56.1299 40.17 57.4099Z" fill="white"/>
<path d="M42.74 63.3099C42.72 63.9999 42.26 64.5499 41.71 64.5399C41.15 64.5299 40.72 63.9599 40.73 63.2699C40.74 62.5799 41.21 62.0299 41.76 62.0399C42.31 62.0499 42.75 62.6199 42.74 63.3099Z" fill="white"/>
<path d="M62.44 57.71C62.4 59.75 61.03 61.38 59.4 61.34C58.66 61.32 57.99 60.97 57.49 60.4C57.31 59.79 57.22 59.13 57.23 58.44C57.29 55.66 59.01 54.67 61.19 54.61C61.97 55.29 62.47 56.43 62.44 57.71Z" fill="white"/>
<path d="M65.21 63.3099C65.19 63.9999 64.73 64.5499 64.18 64.5399C63.62 64.5299 63.19 63.9599 63.2 63.2699C63.21 62.5799 63.67 62.0299 64.23 62.0399C64.78 62.0499 65.22 62.6199 65.21 63.3099Z" fill="white"/>
<path d="M45.7 64.87C46.14 64.7 46.5899 64.5 47.0399 64.28C46.5799 64.5 46.14 64.69 45.7 64.87Z" fill="#C26423"/>
<path d="M47.04 64.29C47.04 64.29 46.44 59.69 45.7 58.3C43.84 54.81 41.34 53.75 38.98 53.75C38.42 53.75 37.87 53.81 37.33 53.91C37.86 53.81 38.42 53.75 38.98 53.75C41.34 53.75 43.84 54.81 45.7 58.3C46.42 59.67 47.02 64.15 47.04 64.29ZM31.98 56.34C31.98 56.34 32.53 55.92 33.42 55.41C32.53 55.91 31.98 56.34 31.98 56.34Z" fill="#AF5C2D"/>
<path d="M45.7 64.87C45.46 63.56 45.13 62.08 44.76 61.4C44.69 61.27 44.63 61.15 44.56 61.03C44.77 60.36 44.88 59.64 44.86 58.88C44.81 57.16 42.76 54.35 40.06 54.29C40.03 54.29 40.01 54.29 39.98 54.29C39.85 54.29 39.72 54.29 39.59 54.29C39.37 54.29 39.15 54.31 38.94 54.34C38.93 54.33 38.91 54.32 38.9 54.3C36.94 54.36 35.34 55.17 35 57.37C34.08 57.67 33.25 58.07 32.6 58.43C32.53 58.23 32.46 58.02 32.39 57.81C32.24 57.34 32.1 56.85 31.97 56.34C31.97 56.34 32.52 55.92 33.41 55.41C34.39 54.86 35.78 54.21 37.33 53.92C37.86 53.82 38.42 53.76 38.98 53.76C41.34 53.76 43.84 54.82 45.7 58.31C46.44 59.7 47.04 64.3 47.04 64.3C46.59 64.52 46.14 64.71 45.7 64.88" fill="#E2E1E1"/>
<path d="M44.56 61.03C44.31 60.59 44.04 60.19 43.77 59.83C43.82 59.49 43.84 59.13 43.83 58.78C43.8 57.51 42.17 55.02 40.05 54.98H39.98C39.86 54.98 39.74 54.98 39.63 54.98C39.59 54.98 39.55 54.98 39.51 54.98C39.35 54.74 39.16 54.52 38.96 54.34C39.17 54.32 39.39 54.3 39.61 54.29C39.74 54.29 39.87 54.29 40 54.29C40.03 54.29 40.05 54.29 40.08 54.29C42.78 54.35 44.83 57.16 44.88 58.88C44.9 59.64 44.79 60.37 44.58 61.03" fill="#D7A72D"/>
<path d="M43.77 59.84C42.67 58.39 41.43 57.57 40.16 57.17C40.14 56.35 39.89 55.59 39.5 54.99C39.54 54.99 39.58 54.99 39.62 54.99C39.74 54.99 39.86 54.99 39.97 54.99H40.04C42.17 55.04 43.79 57.52 43.82 58.8C43.82 59.16 43.81 59.51 43.76 59.85" fill="#987531"/>
<path d="M35.01 57.3699C35.35 55.1699 36.94 54.3599 38.91 54.2999C38.92 54.3099 38.94 54.3199 38.95 54.3399C39.16 54.5199 39.34 54.7399 39.5 54.9799C39.89 55.5799 40.14 56.3399 40.16 57.1599C39.45 56.9399 38.74 56.8399 38.04 56.8399C36.98 56.8399 35.94 57.0599 35.01 57.3599" fill="#E2E1E1"/>
<path d="M56.7 64.8699C56.26 64.6999 55.81 64.4999 55.36 64.2799C55.36 64.2799 55.36 64.2399 55.38 64.1599C55.38 64.2399 55.36 64.2699 55.36 64.2699C55.81 64.4899 56.26 64.6799 56.7 64.8499" fill="#C26423"/>
<path d="M55.38 64.18C55.48 63.46 56.04 59.56 56.7 58.3C56.93 57.88 57.16 57.49 57.4 57.13C57.16 57.48 56.92 57.87 56.7 58.29C56.03 59.55 55.47 63.45 55.38 64.17" fill="#AF5C2D"/>
<path d="M56.7 64.87C56.26 64.7 55.81 64.5 55.36 64.29C55.36 64.29 55.36 64.25 55.38 64.18C55.48 63.47 56.03 59.56 56.7 58.3C56.92 57.88 57.16 57.49 57.4 57.14C57.29 57.52 57.23 57.96 57.22 58.45C57.2 59.14 57.3 59.8 57.48 60.41C57.56 60.5 57.65 60.59 57.74 60.67C57.77 60.79 57.8 60.91 57.84 61.03C57.77 61.15 57.7 61.27 57.64 61.4C57.28 62.08 56.95 63.56 56.7 64.87Z" fill="#E2E1E1"/>
<path d="M57.85 61.0299C57.81 60.9099 57.78 60.7899 57.75 60.6699C57.82 60.7299 57.89 60.7899 57.96 60.8399C57.92 60.8999 57.89 60.9699 57.85 61.0299Z" fill="#D7A72D"/>
<path d="M69.99 57.86C70.15 57.37 70.29 56.87 70.43 56.33C70.43 56.33 69.89 55.91 69 55.4C69.89 55.9 70.44 56.33 70.44 56.33C70.3 56.86 70.16 57.37 70 57.86M63.42 53.75C63.98 53.75 64.53 53.81 65.07 53.91C64.54 53.81 63.98 53.75 63.42 53.75Z" fill="#AF5C2D"/>
<path d="M69.8 58.43C69.09 58.04 68.18 57.61 67.16 57.3C66.62 55.17 64.9 54.36 62.81 54.3C62.68 54.3 62.55 54.3 62.42 54.3C62.39 54.3 62.37 54.3 62.34 54.3C61.79 54.31 61.26 54.44 60.78 54.65C60.39 54.68 60.02 54.75 59.67 54.86C60.88 54.06 62.17 53.76 63.42 53.76C63.98 53.76 64.53 53.82 65.07 53.92C66.62 54.22 68.02 54.87 69 55.42C69.89 55.92 70.43 56.35 70.43 56.35C70.29 56.88 70.15 57.39 69.99 57.88C69.93 58.07 69.86 58.26 69.8 58.45" fill="#E2E1E1"/>
<path d="M67.16 57.2999C66.81 57.1899 66.45 57.0999 66.07 57.0299C65.63 55.6999 64.55 55.0399 62.78 54.9899C62.66 54.9899 62.54 54.9899 62.42 54.9899H62.36C62.11 54.9899 61.86 55.0399 61.62 55.0999C61.49 54.9199 61.34 54.7699 61.18 54.6299C61.04 54.6299 60.91 54.6399 60.78 54.6499C61.27 54.4399 61.79 54.3099 62.34 54.2999C62.37 54.2999 62.39 54.2999 62.42 54.2999C62.55 54.2999 62.68 54.2999 62.81 54.2999C64.89 54.3599 66.62 55.1699 67.16 57.2999Z" fill="#D7A72D"/>
<path d="M62.41 57.12C62.32 56.34 62.04 55.64 61.63 55.09C61.87 55.02 62.11 54.98 62.37 54.98H62.43C62.55 54.98 62.67 54.98 62.79 54.98C64.56 55.04 65.64 55.69 66.08 57.02C65.53 56.91 64.95 56.85 64.37 56.85C63.73 56.85 63.07 56.93 62.42 57.12" fill="#987531"/>
<path d="M57.96 60.84C57.89 60.79 57.81 60.73 57.75 60.67C57.66 60.59 57.57 60.5 57.49 60.41C57.31 59.8 57.22 59.14 57.23 58.45C57.24 57.96 57.3 57.52 57.41 57.14C58.11 56.12 58.87 55.38 59.67 54.85C60.02 54.74 60.39 54.68 60.78 54.64C60.91 54.63 61.05 54.62 61.18 54.62C61.34 54.76 61.49 54.92 61.62 55.09C62.04 55.63 62.32 56.34 62.4 57.12C60.8 57.58 59.24 58.68 57.94 60.85" fill="#E2E1E1"/>
<path d="M47.0401 64.29C46.9501 63.83 46.8401 63.38 46.7401 62.93C46.6401 62.48 46.5401 62.02 46.4301 61.57C46.3201 61.12 46.21 60.67 46.08 60.23C45.96 59.78 45.8101 59.38 45.6501 58.96C45.5501 58.76 45.46 58.5 45.36 58.36L45.0001 57.79C44.7401 57.42 44.4801 57.05 44.1801 56.72C44.0401 56.55 43.8901 56.39 43.7301 56.24C43.5701 56.08 43.4201 55.93 43.2401 55.8C43.0701 55.66 42.9001 55.52 42.7201 55.41C42.5401 55.28 42.3601 55.17 42.1701 55.07C41.8001 54.85 41.3901 54.71 40.9801 54.57C40.5701 54.44 40.1501 54.37 39.7201 54.33C39.2901 54.3 38.8601 54.29 38.4201 54.33C37.9901 54.36 37.5601 54.45 37.1301 54.54C36.2701 54.74 35.4401 55.05 34.6301 55.44C34.2301 55.63 33.8301 55.85 33.4501 56.08C33.0701 56.31 32.6801 56.56 32.3501 56.8L32.5601 56.19L32.9001 57.4C33.0001 57.81 33.16 58.19 33.3 58.58C33.44 58.98 33.5801 59.37 33.7601 59.74C33.9401 60.11 34.0801 60.51 34.2901 60.86C34.5001 61.21 34.6601 61.6 34.9101 61.92C35.1601 62.24 35.3501 62.61 35.6401 62.89C35.9101 63.19 36.1601 63.51 36.4801 63.75L36.9401 64.15L37.4501 64.48C37.7801 64.72 38.1501 64.86 38.5201 65.03C38.8901 65.2 39.2901 65.26 39.6801 65.39C40.0801 65.44 40.4901 65.52 40.9001 65.54C41.3101 65.53 41.7301 65.58 42.1401 65.52C42.5501 65.47 42.9801 65.47 43.3901 65.37C43.8001 65.28 44.2301 65.23 44.6301 65.1C45.0301 64.98 45.4501 64.88 45.8501 64.73L47.0601 64.3L47.0401 64.29ZM47.0401 64.29L45.9001 64.88C45.5201 65.07 45.1101 65.21 44.7101 65.38C44.3101 65.56 43.8901 65.65 43.4701 65.79C43.0601 65.94 42.6201 65.98 42.1901 66.08C41.7601 66.18 41.3101 66.16 40.8701 66.2C40.4301 66.21 39.9801 66.16 39.5301 66.13C39.1001 66.02 38.6401 65.98 38.2201 65.81C37.8001 65.64 37.3601 65.5 36.9801 65.26L36.3901 64.92L35.8501 64.5C35.4701 64.24 35.18 63.9 34.86 63.57C34.53 63.26 34.3001 62.87 34.0201 62.52C33.7301 62.17 33.5501 61.77 33.3101 61.39C33.0601 61.01 32.9001 60.6 32.7101 60.21C32.5101 59.81 32.3601 59.4 32.2101 58.99C32.0601 58.58 31.8901 58.17 31.7801 57.75L31.4101 56.49L31.3 56.12L31.6201 55.88C32.0301 55.57 32.4201 55.31 32.8401 55.07C33.2601 54.83 33.6801 54.6 34.1201 54.4C34.9901 53.99 35.9101 53.66 36.8701 53.45C37.3501 53.35 37.84 53.27 38.33 53.25C38.82 53.21 39.3201 53.24 39.8201 53.29C40.3201 53.35 40.8101 53.46 41.2801 53.62C41.5201 53.7 41.7501 53.78 41.9801 53.9C42.2101 54 42.4301 54.12 42.6401 54.25C42.8601 54.37 43.0601 54.52 43.2501 54.67C43.4501 54.81 43.6401 54.98 43.8201 55.15C44.0101 55.31 44.1701 55.49 44.3401 55.67C44.5101 55.85 44.6701 56.03 44.8101 56.23C45.1101 56.61 45.36 57.02 45.61 57.43L45.9501 58.06C46.0901 58.32 46.1301 58.51 46.2201 58.73C46.3501 59.18 46.48 59.68 46.55 60.13C46.64 60.59 46.7101 61.05 46.7701 61.52C46.9001 62.44 47.0001 63.37 47.0601 64.3L47.0401 64.29Z" fill="#402211"/>
<path d="M55.36 64.29C55.42 63.36 55.51 62.43 55.65 61.51C55.71 61.05 55.78 60.58 55.87 60.12C55.94 59.67 56.07 59.17 56.2 58.72C56.29 58.49 56.33 58.3 56.47 58.05L56.81 57.42C57.06 57.01 57.3 56.6 57.61 56.22C57.75 56.02 57.91 55.84 58.08 55.66C58.24 55.48 58.41 55.3 58.6 55.14C58.78 54.97 58.96 54.81 59.17 54.66C59.37 54.51 59.57 54.36 59.78 54.24C59.99 54.1 60.21 53.99 60.44 53.89C60.66 53.77 60.9 53.69 61.13 53.61C61.6 53.45 62.1 53.34 62.59 53.28C63.09 53.23 63.58 53.2 64.08 53.24C64.58 53.26 65.06 53.34 65.54 53.44C66.5 53.66 67.42 53.98 68.29 54.39C68.73 54.6 69.16 54.82 69.57 55.06C69.99 55.3 70.38 55.56 70.79 55.87L71.11 56.11L71 56.48L70.63 57.74C70.52 58.16 70.35 58.57 70.2 58.98C70.05 59.39 69.9 59.8 69.7 60.2C69.5 60.6 69.34 61 69.1 61.38C68.86 61.75 68.67 62.16 68.39 62.51C68.11 62.86 67.88 63.25 67.55 63.56C67.24 63.88 66.94 64.22 66.56 64.49L66.02 64.91L65.43 65.25C65.05 65.5 64.61 65.64 64.19 65.8C63.77 65.97 63.31 66.01 62.88 66.12C62.43 66.15 61.99 66.2 61.54 66.19C61.1 66.15 60.65 66.17 60.22 66.07C59.79 65.97 59.35 65.93 58.94 65.78C58.53 65.64 58.1 65.55 57.7 65.37C57.3 65.2 56.89 65.06 56.51 64.87L55.37 64.28L55.36 64.29ZM55.36 64.29L56.57 64.72C56.97 64.87 57.39 64.97 57.79 65.09C58.19 65.23 58.62 65.27 59.03 65.36C59.44 65.46 59.87 65.46 60.28 65.51C60.69 65.56 61.11 65.51 61.52 65.53C61.93 65.51 62.33 65.43 62.74 65.38C63.13 65.25 63.53 65.18 63.9 65.02C64.27 64.85 64.65 64.71 64.97 64.47L65.48 64.14L65.94 63.74C66.26 63.5 66.51 63.17 66.79 62.88C67.08 62.6 67.28 62.23 67.52 61.91C67.77 61.59 67.93 61.2 68.14 60.85C68.36 60.5 68.49 60.11 68.67 59.73C68.85 59.36 69 58.97 69.13 58.57C69.27 58.18 69.42 57.79 69.53 57.39L69.87 56.18L70.08 56.79C69.75 56.54 69.36 56.29 68.98 56.07C68.6 55.84 68.2 55.63 67.8 55.43C67 55.04 66.16 54.74 65.3 54.53C64.87 54.43 64.44 54.35 64.01 54.32C63.58 54.27 63.14 54.28 62.72 54.32C62.29 54.36 61.87 54.44 61.46 54.56C61.05 54.69 60.65 54.84 60.27 55.06C60.08 55.15 59.89 55.27 59.72 55.4C59.54 55.51 59.37 55.65 59.2 55.79C59.03 55.92 58.87 56.08 58.71 56.23C58.55 56.38 58.4 56.54 58.25 56.71C57.95 57.04 57.69 57.41 57.43 57.78L57.07 58.35C56.97 58.49 56.88 58.75 56.78 58.95C56.62 59.37 56.47 59.77 56.35 60.22C56.22 60.66 56.1 61.11 55.99 61.56C55.88 62.01 55.78 62.46 55.68 62.92C55.58 63.37 55.48 63.83 55.38 64.28L55.36 64.29Z" fill="#402211"/>
<path d="M57.22 72.04C57.22 74.87 56.07 77.5 51.38 77.5C46.69 77.5 45.76 74.86 45.76 72.04C45.76 69.22 46.72 62.04 51.42 62.04C56.12 62.04 57.23 69.21 57.23 72.04" fill="white"/>
<path d="M54.5299 72.51C54.5299 73.13 53.8499 73.69 53.0599 74.03C52.5199 74.27 51.9299 74.41 51.4799 74.41C51.0299 74.41 50.4399 74.27 49.9099 74.04C49.1199 73.69 48.4299 73.14 48.4299 72.51C48.4299 71.46 50.3599 70.61 51.4799 70.61C52.5999 70.61 54.5299 71.46 54.5299 72.51Z" fill="#B3576F"/>
<path d="M51.3901 75.58C50.8501 75.58 50.1701 75.41 49.5401 75.12C48.6101 74.69 47.8 74.01 47.8 73.24C47.8 72.73 48.1501 72.26 48.6601 71.87C48.5101 72.07 48.4201 72.28 48.4201 72.51C48.4201 73.14 49.1101 73.69 49.9001 74.04C50.4401 74.28 51.0201 74.41 51.4701 74.41C51.9201 74.41 52.51 74.27 53.05 74.03C53.84 73.68 54.5201 73.13 54.5201 72.51C54.5201 72.39 54.4901 72.27 54.4501 72.16C54.7701 72.48 54.9801 72.85 54.9801 73.24C54.9801 74.01 54.1801 74.69 53.2501 75.12C52.6201 75.41 51.9201 75.59 51.3901 75.59" fill="#CFCDCC"/>
<path d="M51.4799 74.4099C51.0199 74.4099 50.4399 74.2699 49.9099 74.0399C49.1199 73.6899 48.4299 73.1399 48.4299 72.5099C48.4299 72.2899 48.52 72.0699 48.67 71.8699C49.45 71.2799 50.5999 70.8999 51.3999 70.8999C52.3199 70.8999 53.7099 71.4099 54.4599 72.1599C54.5099 72.2699 54.5299 72.3899 54.5299 72.5099C54.5299 73.1299 53.8499 73.6899 53.0599 74.0299C52.5199 74.2699 51.9299 74.4099 51.4799 74.4099Z" fill="#9F596B"/>
<path d="M55.76 69.1C54.51 69.1 52.52 69.42 51.65 70.16C51.53 70.26 51.46 70.37 51.42 70.49C51.37 70.37 51.28 70.25 51.15 70.14C50.28 69.4 45.97 69.32 45.97 70.23C45.97 71.14 45.92 73.38 47.8 73.38C49.45 73.38 51.12 72.42 51.44 71.59C51.71 72.45 53.94 73.62 55.45 73.35C57.31 73.02 57.64 69.1 55.76 69.1Z" fill="white"/>
<path d="M53.95 69.13C53.95 69.99 52.86 70.68 51.53 70.68C50.2 70.68 49.11 69.98 49.11 69.13C49.11 68.28 50.2 67.58 51.53 67.58C52.86 67.58 53.95 68.28 53.95 69.13Z" fill="#070808"/>
<path d="M53.06 74.03C52.52 74.27 51.93 74.41 51.48 74.41C51.03 74.41 50.44 74.27 49.91 74.04C50.02 73.61 50.4 73.29 50.87 73.29C51.11 73.29 51.32 73.38 51.49 73.51C51.66 73.37 51.87 73.29 52.11 73.29C52.58 73.29 52.97 73.61 53.07 74.04L53.06 74.03Z" fill="#ED7693"/>
<path d="M55.9 72.6899C55.9 72.5699 55.86 72.4799 55.84 72.3999C55.82 72.3199 55.79 72.2599 55.77 72.2199C55.78 72.2599 55.81 72.3199 55.83 72.3999C55.85 72.4799 55.87 72.5799 55.87 72.6899C55.87 72.7499 55.87 72.7999 55.86 72.8699C55.84 72.9299 55.83 72.9899 55.78 73.0499C55.71 73.1599 55.58 73.2499 55.43 73.2999C55.28 73.3399 55.11 73.3599 54.94 73.3599C54.59 73.3499 54.23 73.2699 53.88 73.1599C53.17 72.9399 52.51 72.5799 52.1 72.2299C51.99 72.1399 51.9 72.0599 51.83 71.9799C51.76 71.8999 51.7 71.8299 51.67 71.7599C51.59 71.6399 51.58 71.5599 51.58 71.5599V70.6499H51.31V71.5999C51.3 71.6299 51.28 71.6899 51.23 71.7699C51.19 71.8299 51.14 71.9099 51.07 71.9799C51 72.0599 50.91 72.1399 50.8 72.2299C50.38 72.5699 49.72 72.9199 49.02 73.1299C48.67 73.2399 48.3 73.2999 47.96 73.3099C47.79 73.3099 47.62 73.2899 47.48 73.2399C47.33 73.1899 47.21 73.0999 47.14 72.9799C47.07 72.8699 47.05 72.7399 47.06 72.6299C47.06 72.5199 47.09 72.4199 47.11 72.3399C47.13 72.2599 47.16 72.1999 47.17 72.1599C47.18 72.1199 47.19 72.0999 47.19 72.0999C47.19 72.0999 47.19 72.1199 47.16 72.1599C47.15 72.1999 47.12 72.2599 47.09 72.3399C47.07 72.4199 47.04 72.5099 47.03 72.6299C47.03 72.7399 47.03 72.8799 47.1 73.0099C47.17 73.1399 47.3 73.2499 47.45 73.2999C47.61 73.3599 47.78 73.3899 47.95 73.3999C48.31 73.4099 48.68 73.3599 49.05 73.2699C49.78 73.0899 50.48 72.7599 50.94 72.4199C51.06 72.3299 51.16 72.2499 51.24 72.1599C51.33 72.0799 51.39 71.9899 51.44 71.9199C51.49 71.9899 51.56 72.0799 51.64 72.1599C51.72 72.2499 51.83 72.3299 51.94 72.4199C52.4 72.7699 53.09 73.0999 53.83 73.2899C54.2 73.3899 54.57 73.4499 54.93 73.4399C55.11 73.4399 55.28 73.4099 55.44 73.3599C55.6 73.2999 55.73 73.2099 55.8 73.0799C55.84 73.0199 55.85 72.9499 55.87 72.8899C55.87 72.8299 55.89 72.7599 55.87 72.7099L55.9 72.6899Z" fill="#402211"/>
<path d="M54.31 68.02C53.85 67.25 52.19 66.8 51.43 66.74C50.69 66.8 49.04 67.26 48.57 68.02C48.43 68.25 48.41 68.51 48.51 68.75C49.11 70.16 49.37 70.43 49.64 70.43C49.83 70.43 49.95 70.26 50.07 70.1C50.21 69.91 50.35 69.71 50.58 69.75C50.75 69.78 50.88 70.14 50.98 70.4C51.1 70.73 51.21 71.01 51.44 71.02C51.67 71.02 51.78 70.73 51.9 70.4C52 70.14 52.13 69.78 52.3 69.75C52.53 69.71 52.67 69.91 52.81 70.1C52.93 70.26 53.05 70.43 53.24 70.43C53.5 70.43 53.77 70.16 54.37 68.75C54.47 68.51 54.45 68.26 54.31 68.02Z" fill="#402211"/>
<path d="M53.2199 67.63C53.2199 67.88 52.43 68.08 51.45 68.08C50.47 68.08 49.6799 67.88 49.6799 67.63C49.6799 67.38 50.47 67.02 51.45 67.02C52.43 67.02 53.2199 67.38 53.2199 67.63Z" fill="white"/>
<path d="M76.7 24.7799C74.96 23.2199 57.33 31.8699 57.93 35.2099C56.21 34.6999 52.96 34.4499 51.15 34.4299C49.34 34.4499 46.09 34.6999 44.37 35.2099C44.97 31.8599 27.33 23.2199 25.6 24.7799C23.95 26.2599 24.77 44.6599 30.18 46.2799C29.78 46.3699 40.35 36.7399 51.04 36.7399C61.73 36.7399 72.52 46.3699 72.12 46.2799C77.53 44.6499 78.35 26.2599 76.7 24.7799Z" fill="#BA5C27"/>
<path d="M26.27 27.21C25.6 28.47 26.58 45.3399 31.09 44.5499C31.09 44.5499 32.9 40.98 34.49 39.43C37.15 36.83 37.97 38.06 38.54 36.73C39.77 33.83 26.94 25.94 26.28 27.21H26.27Z" fill="#F8A081"/>
<path d="M44.37 35.22C44.92 32.15 30.15 24.64 26.35 24.6C26.35 24.6 26.37 24.6 26.38 24.6C30.14 24.6 44.93 32.12 44.43 35.2C44.41 35.2 44.39 35.21 44.37 35.22Z" fill="#4E5353"/>
<path d="M42.5499 36.74C43.0999 33.66 29.7999 25.93 26.3199 25.93C26.0199 25.93 25.7899 25.99 25.6499 26.11C25.1999 26.51 24.9399 28.14 24.8999 30.35C24.8499 27.49 25.1199 25.26 25.6499 24.78C25.7899 24.66 26.0299 24.6 26.3499 24.59C30.1599 24.62 44.9199 32.14 44.3699 35.21C44.3899 35.21 44.4099 35.2 44.4299 35.19C44.4299 35.19 44.4299 35.2 44.4299 35.21C44.3999 35.47 44.3299 36.21 42.5499 36.73" fill="#4E3425"/>
<path d="M76.17 27.21C76.83 28.47 75.86 45.3399 71.35 44.5499C71.35 44.5499 69.54 40.98 67.95 39.43C65.29 36.83 64.4699 38.06 63.8999 36.73C62.6699 33.83 75.4999 25.94 76.1599 27.21H76.17Z" fill="#F8A081"/>
<path d="M77.54 30.35C77.53 29.7 77.5 29.11 77.45 28.57C77.38 26.59 77.12 25.15 76.71 24.78C76.57 24.66 76.34 24.6 76.03 24.59C76.04 24.59 76.06 24.59 76.07 24.59C76.4 24.59 76.65 24.65 76.79 24.78C77.32 25.26 77.59 27.49 77.54 30.35Z" fill="#4E5353"/>
<path d="M59.89 36.74C58.12 36.22 58.04 35.48 58.01 35.22C57.46 32.16 72.19 24.66 76.02 24.6C76.33 24.6 76.57 24.66 76.7 24.79C77.11 25.16 77.37 26.6 77.44 28.58C77.32 27.3 77.1 26.4 76.78 26.12C76.64 26 76.41 25.94 76.11 25.94C72.63 25.94 59.33 33.67 59.88 36.75" fill="#4E3425"/>
</svg>
