<svg width="102" height="102" viewBox="0 0 102 102" fill="none" xmlns="http://www.w3.org/2000/svg">
<path d="M92.48 0.77002H8.89001C4.10171 0.77002 0.219971 4.65171 0.219971 9.44002V93.03C0.219971 97.8183 4.10171 101.7 8.89001 101.7H92.48C97.2683 101.7 101.15 97.8183 101.15 93.03V9.44002C101.15 4.65171 97.2683 0.77002 92.48 0.77002Z" fill="#E57D25"/>
<path d="M51.63 78.18C50.03 78.18 48.6901 77.6 47.2701 76.98C46.0501 76.45 44.78 75.9 43.19 75.64C37.18 74.67 32.4901 72.04 29.5901 68.02C29.4601 67.99 29.33 67.97 29.25 67.97C28.27 68.07 27.77 68.94 27.75 68.98C27.52 69.42 27.0601 69.69 26.5801 69.69C26.4901 69.69 26.4 69.69 26.32 69.66C25.74 69.55 25.31 69.06 25.25 68.47C25.23 68.28 25.15 67.26 25.29 66.04C24.89 65.8 24.6301 65.37 24.6401 64.89C24.6401 64.81 24.6601 63.2 25.0301 61.52C24.7001 61.38 24.5 61.29 24.48 61.28C23.96 61.04 23.65 60.48 23.72 59.91C23.79 59.34 24.2201 58.87 24.7801 58.76C24.7801 58.76 25.92 58.48 26.05 57.79C26.08 57.62 26.1 57.39 26.12 57.15C26.17 56.51 26.23 55.63 26.75 55C27.24 51.72 28.35 48.12 30.06 44.29C27.63 35.36 28.99 21.9 31.25 19.87C31.49 19.65 31.91 19.39 32.54 19.39C35.65 19.39 41.86 26.76 42.12 27.08C44.18 29.54 45.47 31.56 45.98 33.12C47.85 32.79 50.22 32.63 51.63 32.63C53.05 32.63 55.42 32.79 57.29 33.12C57.8 31.56 59.0901 29.53 61.1501 27.08C61.4101 26.77 67.62 19.39 70.73 19.39C71.36 19.39 71.7801 19.65 72.0201 19.86C73.7101 21.38 74.26 27.69 74.38 29.59C74.59 32.7 74.7001 38.64 73.2601 44.08C74.5801 47.14 76.1401 51.5 76.6401 55.87C77.0101 56.41 77.12 57.08 77.22 57.65C77.26 57.89 77.3 58.11 77.35 58.28C77.55 58.97 78.7001 59.13 78.7101 59.13C79.2801 59.2 79.74 59.63 79.86 60.19C79.98 60.75 79.73 61.32 79.23 61.61C79.22 61.61 79.0201 61.73 78.7001 61.9C79.2301 63.55 79.3901 65.14 79.4001 65.22C79.4501 65.7 79.23 66.16 78.85 66.43C79.1 67.62 79.12 68.65 79.12 68.83C79.12 69.42 78.73 69.94 78.16 70.11C78.03 70.15 77.9101 70.16 77.7801 70.16C77.3401 70.16 76.91 69.94 76.66 69.55C76.65 69.53 76.07 68.7 75.11 68.7C74.96 68.7 74.61 68.83 74.41 68.9L74.36 68.92C73.9 69.08 73.43 69.25 72.91 69.25C72.8 69.25 72.6801 69.25 72.5801 69.22C69.6001 72.56 65.28 74.85 60.29 75.71C59.01 75.93 57.8 76.42 56.63 76.89C55.13 77.49 53.5801 78.11 51.9501 78.14H51.63V78.18Z" fill="#2F150C"/>
<path d="M76.0701 58.68C75.8501 57.92 75.8701 56.83 75.3701 56.47C74.9401 52.06 73.33 47.57 71.86 44.22C74.42 35.21 72.7401 22.3301 71.1401 20.8901C69.4301 19.3601 57.8101 31.47 58.4001 34.77C56.6801 34.26 53.4001 34.01 51.6401 34C49.8701 34 46.6001 34.26 44.8801 34.77C45.4701 31.47 33.8501 19.3601 32.1401 20.8901C30.5201 22.3401 28.84 35.4001 31.48 44.4201C30.06 47.5401 28.5501 51.6101 28.0101 55.7001C27.3801 56.0001 27.5301 57.22 27.3701 58.06C27.0601 59.69 25.05 60.09 25.05 60.09C25.05 60.09 25.7201 60.4 26.6501 60.72C26.0001 62.58 25.98 64.9201 25.98 64.9201C25.98 64.9201 26.5201 64.21 27.3401 63.84C26.3201 65.51 26.5801 68.36 26.5801 68.36C26.5801 68.36 27.38 66.83 29.1 66.66C29.5 66.62 29.9701 66.75 30.4001 66.86C32.8501 70.49 37.07 73.3 43.41 74.33C47.04 74.92 49.0801 76.8501 51.6401 76.8501C51.7401 76.8501 51.8401 76.8501 51.9401 76.8501C54.5101 76.8001 57.0001 74.97 60.0901 74.44C65.4101 73.52 69.6501 70.97 72.3201 67.52C72.5801 68.2 73.2601 67.95 73.9901 67.69C74.3801 67.55 74.7801 67.4201 75.1401 67.4201C76.8701 67.4301 77.8 68.8801 77.8 68.8801C77.8 68.8801 77.8001 66.0101 76.6301 64.4501C77.4901 64.7401 78.0901 65.4 78.0901 65.4C78.0901 65.4 77.86 63.07 77.04 61.27C77.94 60.87 78.5801 60.5 78.5801 60.5C78.5801 60.5 76.5401 60.28 76.0901 58.69L76.0701 58.68Z" fill="#2F150C"/>
<path d="M78.5601 60.49C78.5601 60.49 76.5201 60.27 76.0701 58.68C75.8501 57.92 75.8701 56.83 75.3701 56.47C74.9401 52.06 73.33 47.57 71.86 44.22C74.42 35.21 72.7401 22.3301 71.1401 20.8901C69.4301 19.3601 57.8101 31.47 58.4001 34.77C56.6801 34.26 53.4001 34.01 51.6401 34C49.8701 34 46.6001 34.26 44.8801 34.77C45.4701 31.47 33.8501 19.3601 32.1401 20.8901C30.5201 22.3401 28.84 35.4001 31.48 44.4201C30.06 47.5401 28.5501 51.6101 28.0101 55.7001C27.3801 56.0001 27.5301 57.22 27.3701 58.06C27.0601 59.69 25.05 60.09 25.05 60.09C25.05 60.09 25.7201 60.4 26.6501 60.72C26.0001 62.58 25.98 64.9201 25.98 64.9201C25.98 64.9201 26.5201 64.21 27.3401 63.84C26.3201 65.51 26.5801 68.36 26.5801 68.36C26.5801 68.36 27.38 66.83 29.1 66.66C29.5 66.62 29.9701 66.75 30.4001 66.86C32.8501 70.49 37.07 73.3 43.41 74.33C47.04 74.92 49.0801 76.8501 51.6401 76.8501C51.7401 76.8501 51.8401 76.8501 51.9401 76.8501C54.5101 76.8001 57.0001 74.97 60.0901 74.44C65.4101 73.52 69.6501 70.97 72.3201 67.52C72.5801 68.2 73.2601 67.95 73.9901 67.69C74.3801 67.55 74.7801 67.4201 75.1401 67.4201C76.8701 67.4301 77.8 68.8801 77.8 68.8801C77.8 68.8801 77.8001 66.0101 76.6301 64.4501C77.4901 64.7401 78.0901 65.4 78.0901 65.4C78.0901 65.4 77.86 63.07 77.04 61.27C77.94 60.87 78.5801 60.5 78.5801 60.5" fill="#5B3C19"/>
<path d="M51.63 75.34C48.09 75.34 42.79 73.34 38.46 70.36C33.49 66.94 30.35 62.71 29.85 58.73C29.8 58.34 29.77 57.94 29.77 57.53C29.77 49.57 35.17 39.93 36.87 38.36C38.19 37.13 44.91 34.17 51.62 34.17C57.94 34.17 64.97 37.1 66.38 38.38C68.13 39.96 73.47 49.59 73.47 57.53C73.47 57.82 73.46 58.11 73.43 58.39C73.43 58.5 73.41 58.6 73.4 58.71C72.36 67.97 59.63 75.18 51.87 75.33H51.91H51.61" fill="#8C6237"/>
<path d="M71.7702 61.02C71.5802 57.59 70.6002 51.43 70.5902 51.39C68.9902 46.37 58.0602 40.49 56.0702 43.69C55.9502 43.89 57.7802 50.07 57.8802 55.19C57.9002 56.24 57.8502 57.25 57.6902 58.16C57.1402 61.28 54.6302 68.08 51.5302 68.15C48.4302 68.08 45.9202 61.28 45.3702 58.16C45.2102 57.26 45.1602 56.25 45.1802 55.19C45.2802 50.07 47.1102 43.88 46.9902 43.69C45.0002 40.48 34.0701 46.37 32.4801 51.39C32.4701 51.42 31.4902 57.58 31.3002 61.02C30.8602 68.89 34.6302 71.2 39.0502 72.49C40.2602 72.71 41.4801 72.93 42.6701 73.3C48.0601 74.99 47.7501 76.06 51.6001 76.09C52.7601 76.09 53.5501 75.98 54.2201 75.79C54.8001 75.6 55.3702 75.35 55.9902 75.08C56.9802 74.62 58.2402 74.01 60.5302 73.3C61.6002 72.97 62.7001 72.75 63.7901 72.55C68.3101 71.27 72.2202 69.01 71.7702 61.01" fill="white"/>
<path d="M36.51 48.82C36.51 48.82 36.52 48.78 36.56 48.72C36.59 48.65 36.64 48.55 36.72 48.44C36.79 48.32 36.89 48.19 37.02 48.04C37.15 47.9 37.29 47.72 37.48 47.57C37.57 47.49 37.67 47.41 37.77 47.33C37.88 47.26 37.99 47.18 38.11 47.1C38.23 47.02 38.36 46.96 38.49 46.89C38.62 46.82 38.76 46.75 38.9 46.7C39.19 46.6 39.5 46.49 39.83 46.44C40.16 46.36 40.49 46.37 40.83 46.37C41.17 46.37 41.5 46.45 41.82 46.51C42.13 46.61 42.44 46.71 42.72 46.83C42.99 46.98 43.25 47.13 43.48 47.27C43.71 47.43 43.9 47.61 44.08 47.76C44.17 47.84 44.25 47.92 44.33 47.99C44.4 48.07 44.47 48.15 44.53 48.23C44.65 48.38 44.75 48.52 44.83 48.63C44.99 48.85 45.07 48.99 45.07 48.99C45.07 48.99 44.91 48.94 44.67 48.84C44.55 48.79 44.39 48.73 44.23 48.65C44.07 48.57 43.88 48.5 43.67 48.42C43.46 48.35 43.25 48.25 43.03 48.17C42.8 48.1 42.56 48.03 42.32 47.95C42.07 47.9 41.82 47.85 41.56 47.79C41.43 47.78 41.3 47.77 41.17 47.75C41.04 47.74 40.91 47.71 40.78 47.72C40.52 47.72 40.26 47.7 40 47.74C39.87 47.76 39.74 47.74 39.62 47.78C39.5 47.8 39.37 47.83 39.25 47.84C39.12 47.85 39.01 47.9 38.89 47.93C38.77 47.96 38.65 47.98 38.54 48.02C38.31 48.09 38.09 48.16 37.89 48.24C37.68 48.31 37.51 48.39 37.33 48.46C37.17 48.54 37.02 48.59 36.9 48.66C36.78 48.72 36.68 48.76 36.62 48.79C36.55 48.82 36.52 48.84 36.52 48.84L36.51 48.82Z" fill="#342313"/>
<path d="M66.6801 48.8201C66.6801 48.8201 66.6401 48.8001 66.5801 48.7701C66.5101 48.7401 66.4201 48.6901 66.3001 48.6401C66.1801 48.5801 66.0301 48.5201 65.8701 48.4401C65.7001 48.3801 65.5201 48.2901 65.3101 48.2201C65.1101 48.1401 64.8901 48.0701 64.6601 48.0001C64.5501 47.9601 64.4301 47.9301 64.3101 47.9101C64.1901 47.8901 64.0701 47.8401 63.9501 47.8201C63.8301 47.8001 63.7001 47.7801 63.5801 47.7601C63.4501 47.7301 63.3201 47.7401 63.2001 47.7201C62.9401 47.6801 62.6801 47.7001 62.4201 47.7001C62.2901 47.6901 62.1602 47.7201 62.0302 47.7301C61.9002 47.7501 61.7701 47.7601 61.6401 47.7701C61.3901 47.8301 61.1301 47.8801 60.8801 47.9301C60.6401 48.0101 60.4001 48.0901 60.1701 48.1501C59.9401 48.2301 59.7302 48.3301 59.5302 48.4001C59.3202 48.4701 59.1301 48.5401 58.9701 48.6301C58.8101 48.7101 58.6602 48.7701 58.5302 48.8201C58.2802 48.9201 58.1301 48.9701 58.1301 48.9701C58.1301 48.9701 58.2101 48.8301 58.3701 48.6101C58.4501 48.5001 58.5501 48.3601 58.6701 48.2101C58.7301 48.1401 58.7901 48.0501 58.8701 47.9701C58.9501 47.8901 59.0301 47.8201 59.1201 47.7401C59.3001 47.5801 59.4901 47.4001 59.7201 47.2501C59.9601 47.1101 60.2101 46.9601 60.4801 46.8101C60.7701 46.6901 61.0701 46.5901 61.3801 46.4901C61.7101 46.4401 62.0401 46.3601 62.3701 46.3501C62.7101 46.3501 63.0501 46.3501 63.3701 46.4201C63.7001 46.4601 64.0101 46.5701 64.3001 46.6801C64.4501 46.7301 64.5801 46.8101 64.7101 46.8701C64.8401 46.9401 64.9701 47.0001 65.0901 47.0801C65.2001 47.1601 65.3201 47.2301 65.4301 47.3101C65.5301 47.3901 65.6301 47.4701 65.7201 47.5501C65.9101 47.7001 66.0501 47.8801 66.1801 48.0201C66.3001 48.1701 66.4001 48.3001 66.4801 48.4201C66.5601 48.5301 66.6101 48.6301 66.6401 48.7001C66.6801 48.7701 66.6901 48.8001 66.6901 48.8001L66.6801 48.8201Z" fill="#342313"/>
<path d="M47.6002 63.12C40.3302 66.58 35.2102 64.34 32.9102 55.36C32.9102 55.36 41.6502 48.57 46.3002 57.28C47.0202 58.63 47.6002 63.12 47.6002 63.12Z" fill="white"/>
<path d="M40.5701 63.69C38.5501 63.65 36.8602 62.05 36.2102 59.82C36.0102 59.14 35.9101 58.4 35.9201 57.64C35.9901 54.55 37.9102 53.44 40.3302 53.37C40.4802 53.37 40.6302 53.37 40.7802 53.37C43.4102 53.43 45.4102 56.17 45.4602 57.85C45.5502 61.13 43.2001 63.75 40.5601 63.7" fill="#4687C2"/>
<path d="M40.5901 62.86C39.0601 62.82 37.72 61.52 37.17 59.52C36.99 58.88 36.91 58.22 36.92 57.53C36.97 55.22 38.06 54.11 40.36 54.04C40.47 54.04 40.5901 54.04 40.7001 54.04H40.7701C42.8501 54.09 44.4301 56.51 44.4601 57.75C44.5001 59.25 44.0001 60.68 43.0801 61.68C42.3801 62.44 41.5101 62.86 40.6401 62.86H40.5801" fill="#0C152A"/>
<path d="M55.72 63.12C62.99 66.58 68.11 64.34 70.41 55.36C70.41 55.36 61.67 48.57 57.02 57.28C56.3 58.63 55.72 63.12 55.72 63.12Z" fill="white"/>
<path d="M62.7402 63.69C64.7602 63.65 66.4502 62.05 67.1002 59.82C67.3002 59.14 67.4002 58.4 67.3902 57.64C67.3202 54.55 65.4002 53.44 62.9802 53.37C62.8302 53.37 62.6802 53.37 62.5302 53.37C59.8902 53.43 57.8902 56.17 57.8502 57.85C57.7602 61.13 60.1102 63.75 62.7502 63.7" fill="#4687C2"/>
<path d="M62.6601 62.86C61.7901 62.86 60.9201 62.44 60.2201 61.68C59.3101 60.68 58.8101 59.25 58.8401 57.75C58.8701 56.51 60.4601 54.09 62.5401 54.04H62.6001C62.7101 54.04 62.8301 54.04 62.9501 54.04C65.2501 54.11 66.3401 55.22 66.3901 57.53C66.4001 58.22 66.3201 58.89 66.1501 59.52C65.6001 61.52 64.2601 62.82 62.7301 62.86H62.6701" fill="#0C152A"/>
<path d="M40.8901 56.4C40.8501 58.39 39.5201 59.98 37.9201 59.94C37.2001 59.92 36.5501 59.58 36.0501 59.03C35.8801 58.44 35.7901 57.79 35.8001 57.12C35.8601 54.41 37.5401 53.44 39.6601 53.38C40.4201 54.04 40.9101 55.15 40.8801 56.4" fill="white"/>
<path d="M43.4001 62.16C43.3901 62.83 42.9401 63.37 42.4001 63.36C41.8601 63.35 41.4301 62.79 41.4501 62.12C41.4701 61.45 41.9101 60.9101 42.4601 60.9201C43.0001 60.9301 43.4301 61.49 43.4101 62.16H43.4001Z" fill="white"/>
<path d="M62.62 56.7C62.58 58.69 61.25 60.28 59.65 60.24C58.93 60.22 58.28 59.88 57.78 59.32C57.61 58.73 57.52 58.08 57.53 57.41C57.59 54.7 59.27 53.73 61.39 53.67C62.15 54.33 62.64 55.44 62.61 56.69" fill="white"/>
<path d="M65.3201 62.16C65.3001 62.83 64.8501 63.37 64.3201 63.36C63.7801 63.35 63.3501 62.79 63.3701 62.12C63.3801 61.45 63.8301 60.9101 64.3701 60.9201C64.9101 60.9301 65.3401 61.49 65.3201 62.16Z" fill="white"/>
<path d="M47.0499 63.3701C47.2299 63.2901 47.4199 63.2001 47.5999 63.1201C47.5999 63.1201 47.0199 58.6301 46.2999 57.2801C47.0199 58.6401 47.5999 63.1201 47.5999 63.1201C47.4099 63.2101 47.2299 63.2901 47.0499 63.3701Z" fill="#86613B"/>
<path d="M46.2901 63.6901C46.5401 63.5901 46.7901 63.4901 47.0401 63.3701C46.7801 63.4901 46.5302 63.5901 46.2802 63.6901M33.3401 56.8901C33.1801 56.4001 33.0401 55.8901 32.9001 55.3601C33.0401 55.8901 33.1801 56.4101 33.3401 56.8901ZM45.1801 55.5601C43.5701 53.5501 41.6701 52.8601 39.8401 52.8301C41.6701 52.8601 43.5701 53.5401 45.1801 55.5501" fill="#E2E1E1"/>
<path d="M46.2902 63.6901C46.0502 62.4101 45.7302 60.9701 45.3802 60.3001C45.3102 60.1801 45.2502 60.0601 45.1802 59.9401C45.3802 59.2901 45.4902 58.5801 45.4702 57.8401C45.4202 56.1601 43.4202 53.4201 40.7902 53.3601C40.7702 53.3601 40.7402 53.3601 40.7202 53.3601C40.5902 53.3601 40.4702 53.3601 40.3402 53.3601C40.1302 53.3601 39.9202 53.3801 39.7102 53.4001C39.7002 53.3901 39.6802 53.3801 39.6702 53.3701C37.7602 53.4301 36.2002 54.2201 35.8702 56.3601C34.9702 56.6601 34.1602 57.0401 33.5302 57.3901C33.4702 57.2201 33.4102 57.0501 33.3502 56.8801C33.1902 56.3901 33.0502 55.8801 32.9102 55.3501C32.9602 55.3101 36.1902 52.8301 39.7402 52.8301C39.7802 52.8301 39.8102 52.8301 39.8502 52.8301C41.6802 52.8601 43.5802 53.5401 45.1902 55.5601C45.5802 56.0501 45.9502 56.6201 46.3002 57.2701C47.0202 58.6201 47.6002 63.1101 47.6002 63.1101C47.4202 63.2001 47.2302 63.2801 47.0502 63.3601C46.8002 63.4701 46.5402 63.5801 46.3002 63.6801" fill="#E2E1E1"/>
<path d="M45.1799 59.94C44.9299 59.51 44.6799 59.12 44.4099 58.77C44.4599 58.43 44.4799 58.09 44.4699 57.74C44.4399 56.5 42.85 54.08 40.78 54.03H40.71C40.6 54.03 40.4799 54.03 40.3699 54.03C40.3299 54.03 40.2899 54.03 40.2499 54.03C40.0899 53.79 39.91 53.58 39.71 53.4C39.92 53.38 40.13 53.36 40.34 53.36C40.47 53.36 40.5899 53.36 40.7199 53.36C40.7499 53.36 40.7699 53.36 40.7899 53.36C43.4199 53.42 45.4199 56.16 45.4699 57.84C45.4899 58.58 45.3799 59.29 45.1799 59.94Z" fill="#4B81B3"/>
<path d="M44.41 58.77C43.34 57.36 42.13 56.56 40.89 56.17C40.86 55.37 40.63 54.63 40.24 54.04C40.28 54.04 40.32 54.04 40.36 54.04C40.47 54.04 40.59 54.04 40.7 54.04H40.77C42.85 54.09 44.43 56.51 44.46 57.75C44.46 58.1 44.45 58.44 44.4 58.78" fill="#151C2F"/>
<path d="M35.8601 56.37C36.1901 54.23 37.7501 53.44 39.6601 53.38C39.6701 53.39 39.6901 53.4 39.7001 53.41C39.9001 53.59 40.0801 53.8 40.2401 54.04C40.6201 54.62 40.8601 55.36 40.8901 56.17C40.2001 55.95 39.5101 55.86 38.8201 55.86C37.7801 55.86 36.7701 56.07 35.8601 56.37Z" fill="#E2E1E1"/>
<path d="M55.72 63.12C55.72 63.12 56.31 58.63 57.02 57.28C57.24 56.87 57.47 56.49 57.7 56.14C57.46 56.49 57.24 56.87 57.02 57.28C56.3 58.63 55.72 63.12 55.72 63.12Z" fill="#86613B"/>
<path d="M57.0201 63.69C56.7001 63.57 56.38 63.43 56.05 63.28C56.38 63.43 56.7001 63.56 57.0201 63.69Z" fill="#E2E1E1"/>
<path d="M57.02 63.69C56.7 63.56 56.3799 63.43 56.0499 63.28C55.9399 63.23 55.82 63.18 55.71 63.12C55.71 63.12 56.2999 58.63 57.0099 57.28C57.2299 56.87 57.4599 56.49 57.6899 56.15C57.5899 56.52 57.5199 56.95 57.5099 57.43C57.4999 58.1 57.5899 58.75 57.7599 59.34C57.8399 59.43 57.93 59.52 58.02 59.6C58.05 59.72 58.0799 59.84 58.1199 59.95C58.0499 60.07 57.9899 60.19 57.9199 60.31C57.5599 60.98 57.2399 62.42 57.0099 63.7" fill="#E2E1E1"/>
<path d="M69.9899 56.8401C70.1399 56.3701 70.2799 55.8701 70.4099 55.3501C70.2799 55.8701 70.1299 56.3601 69.9799 56.8401" fill="#E2E1E1"/>
<path d="M69.7999 57.4101C69.1099 57.0301 68.2199 56.6101 67.2199 56.3001C66.6899 54.2201 65.0099 53.4301 62.9799 53.3701C62.8499 53.3701 62.7299 53.3701 62.5999 53.3701C62.5799 53.3701 62.55 53.3701 62.53 53.3701C61.99 53.3801 61.4799 53.5101 60.9999 53.7101C60.6199 53.7401 60.2599 53.8101 59.9199 53.9101C61.0699 53.1501 62.2899 52.8601 63.4699 52.8401C63.5099 52.8401 63.54 52.8401 63.58 52.8401C67.14 52.8401 70.3599 55.3201 70.4099 55.3601C70.2799 55.8801 70.1399 56.3701 69.9899 56.8501C69.9299 57.0401 69.8599 57.2301 69.7999 57.4101Z" fill="#E2E1E1"/>
<path d="M58.1401 59.94C58.1001 59.82 58.07 59.71 58.04 59.59C58.11 59.65 58.1801 59.71 58.2501 59.76C58.2101 59.82 58.1801 59.88 58.1401 59.95M67.22 56.3C66.88 56.2 66.52 56.1 66.16 56.03C65.73 54.73 64.6801 54.09 62.9501 54.04C62.8301 54.04 62.72 54.04 62.6 54.04H62.54C62.29 54.04 62.0501 54.09 61.8201 54.15C61.6901 53.98 61.5401 53.82 61.3901 53.69C61.2601 53.69 61.1301 53.7 61.0001 53.71C61.4801 53.51 61.9901 53.38 62.5301 53.37C62.5501 53.37 62.58 53.37 62.6 53.37C62.73 53.37 62.85 53.37 62.98 53.37C65.02 53.43 66.69 54.22 67.22 56.3Z" fill="#4B81B3"/>
<path d="M62.5901 56.12C62.5101 55.36 62.2301 54.67 61.8301 54.14C62.0601 54.07 62.3 54.03 62.55 54.03H62.61C62.72 54.03 62.8401 54.03 62.9601 54.03C64.6901 54.08 65.74 54.72 66.17 56.02C65.63 55.91 65.0701 55.85 64.5001 55.85C63.8701 55.85 63.23 55.93 62.6 56.11" fill="#151C2F"/>
<path d="M58.25 59.7601C58.18 59.7101 58.11 59.6501 58.04 59.5901C57.95 59.5101 57.87 59.43 57.78 59.33C57.61 58.74 57.52 58.0901 57.53 57.4201C57.53 56.9401 57.6 56.5201 57.71 56.1401C58.39 55.1401 59.14 54.4201 59.92 53.9001C60.26 53.8001 60.62 53.7301 61 53.7001C61.13 53.6901 61.26 53.6801 61.39 53.6801C61.55 53.8201 61.69 53.9701 61.82 54.1401C62.23 54.6701 62.5 55.3601 62.58 56.1201C61.02 56.5701 59.5 57.6501 58.23 59.7601" fill="#E2E1E1"/>
<path d="M47.6 63.1201C47.51 62.6701 47.41 62.2301 47.31 61.7901C47.21 61.3501 47.12 60.9101 47.01 60.4701C46.9 60.0301 46.79 59.5901 46.66 59.1601C46.54 58.7201 46.4 58.3301 46.24 57.9201C46.15 57.7301 46.05 57.4701 45.96 57.3301L45.61 56.7701C45.36 56.4101 45.1 56.0501 44.81 55.7301C44.67 55.5601 44.52 55.4001 44.37 55.2601C44.22 55.1101 44.06 54.9601 43.89 54.8301C43.73 54.6901 43.56 54.5601 43.38 54.4501C43.21 54.3301 43.03 54.2101 42.84 54.1201C42.48 53.9101 42.08 53.7601 41.68 53.6401C41.28 53.5201 40.87 53.4401 40.45 53.4001C40.03 53.3701 39.61 53.3601 39.19 53.4001C38.77 53.4301 38.35 53.5201 37.93 53.6101C37.09 53.8101 36.27 54.1101 35.49 54.4901C35.1 54.6801 34.71 54.8901 34.34 55.1101C33.97 55.3301 33.59 55.5701 33.26 55.8201L33.47 55.2201L33.8 56.4001C33.9 56.8001 34.05 57.1701 34.19 57.5601C34.32 57.9501 34.46 58.3301 34.64 58.6901C34.81 59.0501 34.95 59.4401 35.16 59.7801C35.36 60.1201 35.52 60.5001 35.77 60.8101C36.01 61.1201 36.2 61.4801 36.48 61.7601C36.75 62.0501 36.99 62.3601 37.3 62.6001L37.74 62.9901L38.23 63.3101C38.55 63.5501 38.92 63.6801 39.27 63.8501C39.63 64.0101 40.02 64.0801 40.39 64.2001C40.78 64.2501 41.18 64.3301 41.58 64.3501C41.98 64.3501 42.39 64.3901 42.79 64.3301C43.19 64.2801 43.61 64.2801 44 64.1801C44.4 64.0901 44.82 64.0501 45.21 63.9101C45.6 63.7901 46.01 63.6901 46.4 63.5501L47.58 63.1301L47.6 63.1201ZM47.6 63.1201L46.49 63.7001C46.12 63.8901 45.72 64.0201 45.33 64.1901C44.94 64.3701 44.53 64.4501 44.12 64.5901C43.72 64.7301 43.29 64.7801 42.87 64.8701C42.45 64.9701 42.02 64.9501 41.59 64.9901C41.16 65.0001 40.72 64.9501 40.29 64.9201C39.87 64.8101 39.42 64.7701 39.01 64.6101C38.6 64.4501 38.17 64.3101 37.8 64.0701L37.23 63.7401L36.71 63.3301C36.34 63.0801 36.05 62.7401 35.75 62.4301C35.43 62.1301 35.2 61.7501 34.93 61.4101C34.65 61.0701 34.47 60.6701 34.23 60.3101C33.99 59.9401 33.83 59.5401 33.64 59.1601C33.44 58.7701 33.29 58.3701 33.15 57.9701C33 57.5701 32.84 57.1701 32.73 56.7601L32.37 55.5301L32.26 55.1701L32.57 54.9401C32.97 54.6401 33.35 54.3901 33.76 54.1501C34.17 53.9101 34.58 53.6901 35.01 53.4901C35.86 53.0901 36.76 52.7701 37.69 52.5601C38.16 52.4601 38.63 52.3901 39.12 52.3701C39.6 52.3301 40.09 52.3601 40.57 52.4101C41.05 52.4701 41.53 52.5701 41.99 52.7301C42.22 52.8101 42.45 52.8901 42.67 53.0001C42.89 53.1001 43.11 53.2101 43.31 53.3501C43.52 53.4701 43.72 53.6101 43.91 53.7601C44.11 53.9001 44.29 54.0601 44.46 54.2201C44.64 54.3801 44.8 54.5501 44.96 54.7301C45.12 54.9001 45.28 55.0801 45.42 55.2801C45.71 55.6501 45.95 56.0501 46.19 56.4501L46.52 57.0701C46.65 57.3201 46.69 57.5101 46.78 57.7301C46.91 58.1701 47.03 58.6601 47.1 59.1001C47.19 59.5501 47.26 60.0001 47.32 60.4501C47.45 61.3501 47.55 62.2601 47.6 63.1601V63.1201Z" fill="#342313"/>
<path d="M55.7199 63.1201C55.7699 62.2101 55.8699 61.3101 55.9999 60.4101C56.0599 59.9601 56.1299 59.5101 56.2199 59.0601C56.2899 58.6201 56.4099 58.1301 56.5399 57.6901C56.6299 57.4701 56.6699 57.2801 56.7999 57.0301L57.1299 56.4101C57.3699 56.0101 57.6099 55.6101 57.9099 55.2401C58.0499 55.0501 58.1999 54.8701 58.3699 54.6901C58.5299 54.5101 58.6899 54.3401 58.8799 54.1801C59.0499 54.0201 59.2299 53.8501 59.4299 53.7201C59.6199 53.5701 59.82 53.4301 60.03 53.3101C60.23 53.1801 60.4499 53.0701 60.6699 52.9601C60.8799 52.8401 61.1199 52.7701 61.3499 52.6901C61.8099 52.5301 62.29 52.4301 62.78 52.3701C63.26 52.3201 63.7499 52.2901 64.2299 52.3301C64.7099 52.3501 65.1899 52.4201 65.6599 52.5201C66.5899 52.7301 67.49 53.0501 68.34 53.4501C68.77 53.6501 69.18 53.8701 69.59 54.1101C70 54.3501 70.38 54.6001 70.78 54.9001L71.09 55.1301L70.9799 55.4901L70.6199 56.7201C70.5099 57.1301 70.35 57.5301 70.2 57.9301C70.06 58.3301 69.9 58.7301 69.71 59.1201C69.52 59.5101 69.3599 59.9101 69.1199 60.2701C68.8799 60.6401 68.6999 61.0301 68.4199 61.3701C68.1499 61.7101 67.9199 62.0901 67.5999 62.3901C67.2999 62.7101 67 63.0401 66.64 63.2901L66.1199 63.7001L65.5399 64.0301C65.1699 64.2701 64.74 64.4101 64.33 64.5701C63.92 64.7301 63.4699 64.7801 63.0499 64.8801C62.6099 64.9101 62.1799 64.9601 61.7499 64.9501C61.3199 64.9101 60.8799 64.9301 60.4699 64.8301C60.0499 64.7401 59.6199 64.6901 59.2199 64.5501C58.8199 64.4201 58.4 64.3301 58.02 64.1501C57.63 63.9901 57.2299 63.8501 56.8599 63.6601L55.7499 63.0801L55.7199 63.1201ZM55.7199 63.1201L56.9 63.5401C57.29 63.6801 57.69 63.7801 58.09 63.9001C58.48 64.0301 58.8999 64.0801 59.2999 64.1701C59.6999 64.2701 60.1099 64.2701 60.5099 64.3201C60.9199 64.3701 61.3199 64.3201 61.7199 64.3401C62.1199 64.3201 62.5199 64.2401 62.9099 64.1901C63.2899 64.0601 63.6799 64.0001 64.0399 63.8401C64.3999 63.6701 64.77 63.5401 65.08 63.3001L65.5699 62.9801L66.0099 62.5901C66.3199 62.3501 66.57 62.0401 66.83 61.7501C67.11 61.4801 67.2999 61.1101 67.5399 60.8001C67.7799 60.4901 67.94 60.1101 68.15 59.7701C68.36 59.4301 68.4999 59.0401 68.6699 58.6801C68.8499 58.3201 68.9899 57.9401 69.1199 57.5501C69.2499 57.1701 69.4099 56.7901 69.5099 56.3901L69.84 55.2101L70.0499 55.8101C69.7199 55.5701 69.3399 55.3301 68.9699 55.1001C68.5999 54.8801 68.2099 54.6701 67.8199 54.4801C67.0399 54.1001 66.2199 53.8001 65.3799 53.6001C64.9599 53.5101 64.5399 53.4201 64.1199 53.3901C63.6999 53.3401 63.2699 53.3501 62.8599 53.3901C62.4399 53.4301 62.0299 53.5001 61.6299 53.6301C61.2299 53.7601 60.8399 53.9001 60.4699 54.1101C60.2799 54.2001 60.0999 54.3201 59.9299 54.4401C59.7499 54.5501 59.5899 54.6901 59.4199 54.8201C59.2499 54.9501 59.0999 55.1001 58.9399 55.2501C58.7799 55.4001 58.6399 55.5501 58.4999 55.7201C58.2099 56.0401 57.95 56.4001 57.7 56.7601L57.3499 57.3201C57.2599 57.4601 57.1599 57.7101 57.0699 57.9101C56.9099 58.3201 56.77 58.7101 56.65 59.1501C56.52 59.5801 56.4099 60.0201 56.2999 60.4601C56.1899 60.9001 56.0999 61.3401 55.9999 61.7801C55.8999 62.2201 55.8 62.6701 55.71 63.1101L55.7199 63.1201Z" fill="#342313"/>
<path d="M32.9402 22.2999C31.8802 23.2099 31.0202 35.3099 32.9402 41.5499C32.9402 41.5499 34.6801 39.25 36.2901 37.78C38.6001 35.67 42.6702 34.81 42.6702 34.81C42.3102 31.72 34.0102 21.39 32.9502 22.31L32.9402 22.2999Z" fill="#F8A081"/>
<path d="M70.21 22.2999C71.27 23.2099 72.13 35.3099 70.21 41.5499C70.21 41.5499 68.47 39.25 66.86 37.78C64.55 35.67 60.48 34.81 60.48 34.81C60.84 31.72 69.14 21.39 70.21 22.31V22.2999Z" fill="#F8A081"/>
<path d="M51.9001 65C46.8701 65 43.1301 66.53 43.1301 69.65C43.1301 72.77 46.6801 75.45 51.7001 75.45C56.7201 75.45 60.4501 72.93 60.4501 69.81C60.4501 66.69 56.9201 65.01 51.9001 65.01" fill="#EAEBEC"/>
<path d="M54.8501 71.64C54.8501 72.25 54.1901 72.79 53.4201 73.12C52.9001 73.35 52.3201 73.49 51.8801 73.49C51.4401 73.49 50.8701 73.36 50.3401 73.13C49.5701 72.79 48.9001 72.25 48.9001 71.64C48.9001 70.62 50.7901 69.79 51.8801 69.79C52.9701 69.79 54.8501 70.62 54.8501 71.64Z" fill="#B3576F"/>
<path d="M51.79 74.64C51.27 74.64 50.6 74.48 49.98 74.19C49.07 73.77 48.28 73.11 48.28 72.35C48.28 71.85 48.63 71.39 49.12 71.01C48.98 71.2 48.89 71.41 48.89 71.63C48.89 72.24 49.56 72.78 50.33 73.12C50.85 73.35 51.42 73.48 51.87 73.48C52.32 73.48 52.89 73.34 53.41 73.11C54.18 72.77 54.84 72.23 54.84 71.63C54.84 71.51 54.82 71.4 54.77 71.29C55.08 71.61 55.29 71.96 55.29 72.34C55.29 73.09 54.51 73.76 53.6 74.17C52.98 74.46 52.31 74.62 51.78 74.62" fill="#C4C2C2"/>
<path d="M51.8701 73.4901C51.4301 73.4901 50.8601 73.3601 50.3301 73.1301C49.5601 72.7901 48.8901 72.2501 48.8901 71.6401C48.8901 71.4201 48.9801 71.2101 49.1201 71.0201C49.8801 70.4401 51.0101 70.0701 51.7901 70.0701C52.6801 70.0701 54.0402 70.57 54.7802 71.3C54.8202 71.41 54.8501 71.5201 54.8501 71.6401C54.8501 72.2501 54.1901 72.7901 53.4201 73.1201C52.9001 73.3501 52.3201 73.4901 51.8801 73.4901" fill="#9F596B"/>
<path d="M53.41 73.12C52.89 73.35 52.3101 73.49 51.8701 73.49C51.4301 73.49 50.8601 73.36 50.3301 73.13C50.4301 72.71 50.8101 72.4 51.2601 72.4C51.4901 72.4 51.7 72.48 51.86 72.62C52.03 72.49 52.2301 72.4 52.4601 72.4C52.9101 72.4 53.2901 72.71 53.4001 73.13L53.41 73.12Z" fill="#ED7693"/>
<path d="M56.5802 69.78C56.5802 68.92 56.4801 68.11 54.7601 68.11C53.2201 68.11 52.0502 68.76 51.8302 69.52C51.6002 68.76 50.4301 68.11 48.8901 68.11C47.1801 68.11 47.0701 68.92 47.0701 69.78C47.0701 70.64 46.6301 72.35 48.0701 72.16C50.3901 71.85 51.5901 70.88 51.8201 70.06C52.0401 70.88 53.2401 71.85 55.5701 72.16C57.0101 72.35 56.5701 70.64 56.5701 69.78H56.5802Z" fill="#EAEBEC"/>
<path d="M56.5701 71.4201C56.5701 71.3001 56.5301 71.19 56.5101 71.11C56.4901 71.03 56.4501 70.9601 56.4401 70.9201C56.4201 70.8801 56.42 70.8501 56.42 70.8501C56.42 70.8501 56.4201 70.8701 56.4401 70.9201C56.4501 70.9601 56.4801 71.03 56.5001 71.11C56.5201 71.19 56.55 71.3001 56.55 71.4201C56.55 71.4801 56.55 71.54 56.54 71.61C56.52 71.67 56.5001 71.74 56.4601 71.8C56.3801 71.92 56.2501 72.0201 56.0901 72.0601C55.9301 72.1101 55.7501 72.1201 55.5701 72.1201C55.2001 72.1101 54.8101 72.0301 54.4301 71.9101C53.6801 71.6701 52.9701 71.2901 52.5201 70.9201C52.4101 70.8301 52.3101 70.7401 52.2401 70.6501C52.1601 70.5701 52.1001 70.4801 52.0601 70.4201C51.9801 70.2901 51.8801 70.2301 51.8801 70.2301L51.9601 68.7001H51.67L51.7501 70.2301C51.7501 70.2301 51.6601 70.2801 51.5701 70.4201C51.5301 70.4901 51.4701 70.5701 51.3901 70.6501C51.3201 70.7301 51.22 70.8301 51.11 70.9201C50.67 71.2901 49.9601 71.6601 49.2001 71.8901C48.8201 72.0001 48.4301 72.08 48.0601 72.08C47.8801 72.08 47.7 72.0601 47.54 72.0101C47.38 71.9601 47.2501 71.8601 47.1801 71.7401C47.1001 71.6201 47.0901 71.48 47.0901 71.36C47.0901 71.24 47.1201 71.14 47.1401 71.05C47.1601 70.97 47.1901 70.9 47.2001 70.86C47.2101 70.82 47.22 70.7901 47.22 70.7901C47.22 70.7901 47.2201 70.81 47.1901 70.86C47.1701 70.9 47.1401 70.97 47.1201 71.05C47.1001 71.14 47.0701 71.24 47.0601 71.36C47.0601 71.48 47.0601 71.6301 47.1401 71.7601C47.2201 71.9001 47.3501 72.0101 47.5201 72.0701C47.6801 72.1301 47.8701 72.1601 48.0601 72.1701C48.4401 72.1801 48.84 72.1301 49.23 72.0301C50.01 71.8301 50.7601 71.4901 51.2501 71.1201C51.3701 71.0301 51.4801 70.9301 51.5701 70.8401C51.6601 70.7501 51.73 70.66 51.79 70.58C51.84 70.66 51.9101 70.7501 52.0101 70.8401C52.1001 70.9301 52.2101 71.0301 52.3301 71.1201C52.8201 71.5001 53.56 71.8501 54.35 72.0601C54.74 72.1701 55.1401 72.2301 55.5301 72.2301C55.7201 72.2301 55.9001 72.2001 56.0701 72.1401C56.2401 72.0801 56.3801 71.9701 56.4601 71.8401C56.5101 71.7701 56.52 71.7001 56.54 71.6301C56.54 71.5601 56.56 71.4901 56.54 71.4301L56.5701 71.4201Z" fill="#342313"/>
<path d="M54.4 67.6001C54.4 68.3201 53.24 68.9001 51.81 68.9001C50.38 68.9001 49.22 68.3201 49.22 67.6001C49.22 66.8801 50.38 66.3 51.81 66.3C53.24 66.3 54.4 66.8801 54.4 67.6001Z" fill="#1A120C"/>
<path d="M54.72 66.61C54.22 65.91 52.5301 65.6101 51.8201 65.5701C51.1201 65.6001 49.4301 65.91 48.9301 66.61C48.7901 66.8 48.7601 67.0101 48.8201 67.2201C49.1301 68.3001 49.3701 68.7001 49.6801 68.7001C49.8801 68.7001 50.0401 68.52 50.2101 68.33C50.4101 68.1 50.6101 67.8601 50.8901 67.9001C51.0301 67.9201 51.1701 68.2501 51.2701 68.4901C51.4201 68.8301 51.5601 69.1501 51.8201 69.1501C52.0801 69.1501 52.2201 68.8301 52.3701 68.4901C52.4701 68.2501 52.6201 67.9201 52.7501 67.9001C53.0301 67.8601 53.2301 68.1 53.4301 68.33C53.6001 68.52 53.7501 68.7001 53.9501 68.7001C54.2701 68.7001 54.5001 68.3001 54.8201 67.2201C54.8801 67.0101 54.8401 66.8 54.7001 66.61" fill="#5B3C19"/>
<path d="M51.8302 67.0701C50.7802 67.0701 49.9302 66.8501 49.9302 66.5901C49.9302 66.3301 50.7802 65.9401 51.8302 65.9401C52.8802 65.9401 53.7302 66.3201 53.7302 66.5901C53.7302 66.8601 52.8802 67.0701 51.8302 67.0701Z" fill="#C8B9AA"/>
</svg>
