<svg width="102" height="101" viewBox="0 0 102 101" fill="none" xmlns="http://www.w3.org/2000/svg">
<path d="M93.0901 0.0700073H9.50006C4.71175 0.0700073 0.830078 3.95168 0.830078 8.73999V92.33C0.830078 97.1183 4.71175 101 9.50006 101H93.0901C97.8784 101 101.76 97.1183 101.76 92.33V8.73999C101.76 3.95168 97.8784 0.0700073 93.0901 0.0700073Z" fill="#24B999"/>
<path d="M52.3601 83.96C52.2301 83.96 52.1001 83.93 51.9701 83.88C51.1901 83.54 50.5701 82.95 50.1001 82.14C50.0901 82.17 50.0802 82.1899 50.0802 82.1899C49.9102 82.5399 49.5501 82.76 49.1701 82.76C49.0401 82.76 48.9102 82.7301 48.7802 82.6801C48.3002 82.4601 48.0602 81.9201 48.2702 81.4301C48.2702 81.4101 48.5401 80.4701 47.7901 78.9301C47.2001 77.7401 46.4401 76.87 45.6301 75.95C45.4301 75.72 45.2202 75.49 45.0202 75.24C45.1702 75.93 45.5102 76.37 45.5202 76.37C45.8002 76.71 45.8201 77.1999 45.5601 77.5699C45.3701 77.8399 45.0702 77.98 44.7602 77.98C44.6502 77.98 44.5301 77.96 44.4201 77.92C42.3801 77.16 41.8002 75.0299 41.7702 74.9399C41.7502 74.8599 41.7401 74.7699 41.7401 74.6899C41.7401 74.5299 41.7201 74.35 41.6801 74.17C41.6601 74.17 41.6401 74.17 41.6201 74.17C41.5401 74.17 41.4501 74.16 41.3701 74.14C40.9901 74.04 40.7202 73.73 40.6502 73.36C40.5302 73.22 40.1001 72.84 38.7901 72.17C37.8301 71.68 37.0102 70.94 36.3302 70.11C36.1602 70.24 35.9501 70.3 35.7501 70.3C35.5001 70.3 35.2501 70.21 35.0601 70.02C33.0401 68.04 32.4402 65.3599 32.3302 63.1899C31.1202 64.6599 29.8301 65.07 28.8801 65.12C28.7501 65.12 28.6301 65.13 28.5001 65.13C26.1701 65.13 24.2101 63.84 23.1301 61.59C22.2201 59.71 22.1901 57.62 23.0601 56.52C24.2001 55.08 25.2802 54.89 26.6502 54.65C27.0302 54.58 27.4501 54.51 27.9201 54.4C27.9601 54.4 28.0001 54.38 28.0501 54.36C28.3101 54.28 28.7801 54.0701 29.5501 53.5601C25.4601 52.6301 23.7102 48.82 22.1402 45.41C21.4002 43.8 20.6401 42.13 19.6701 40.8C16.0101 35.78 9.15017 35.51 9.09017 35.51C8.57017 35.49 8.16016 35.0799 8.14016 34.5699C8.12016 34.0499 8.50015 33.61 9.01015 33.55C10.1602 33.42 11.2802 33.36 12.3402 33.36C22.6002 33.36 26.1702 39.36 28.0902 42.59C28.4702 43.23 28.8002 43.78 29.0702 44.1C29.9702 45.16 31.4501 45.39 32.8701 45.45C33.6901 43.92 34.9802 42.47 36.7002 41.13C37.3902 40.59 38.1502 40.06 38.9602 39.53C39.8702 38.04 41.1501 37.6 42.0001 37.48C43.0601 35.91 44.4402 35.5601 45.4502 35.5601C45.7002 35.5601 45.9401 35.58 46.1901 35.62C46.9801 34.72 47.8201 34.51 48.4201 34.51C49.6001 34.51 50.5701 35.29 51.0601 35.78C51.1901 35.78 51.3301 35.8001 51.4701 35.8101C51.9101 35.3701 52.6601 34.8199 53.6601 34.8199C54.7401 34.8199 55.7801 35.4501 56.7501 36.6801C56.8301 36.7001 56.9101 36.72 56.9901 36.74C57.4001 36.58 58.0101 36.41 58.7201 36.41C59.8801 36.41 61.5001 36.86 62.8001 38.95C62.9801 39.04 63.1501 39.13 63.3101 39.23C63.3501 39.23 63.3801 39.23 63.4201 39.23C64.2101 39.23 66.8301 39.51 67.7501 43.08C68.3101 43.83 68.7901 44.63 69.1701 45.47C70.8001 45.46 72.7201 45.38 73.8001 44.11C74.0701 43.79 74.4002 43.24 74.7802 42.6C76.7002 39.38 80.2602 33.37 90.5302 33.37C91.5902 33.37 92.7101 33.4401 93.8601 33.5601C94.3701 33.6201 94.7501 34.06 94.7301 34.58C94.7101 35.1 94.2902 35.51 93.7802 35.52C93.7102 35.52 86.8402 35.8101 83.2002 40.8101C82.2302 42.1401 81.4701 43.81 80.7301 45.42C79.1601 48.84 77.4102 52.6499 73.3202 53.5699C74.0902 54.0799 74.5602 54.29 74.8202 54.37C74.8702 54.38 74.9102 54.4 74.9502 54.41C75.4202 54.52 75.8501 54.6 76.2201 54.66C77.5901 54.9 78.6701 55.1 79.8101 56.53C80.6801 57.63 80.6501 59.71 79.7401 61.6C78.6501 63.85 76.6901 65.14 74.3701 65.14C74.2501 65.14 74.1201 65.14 73.9901 65.13C72.9601 65.07 71.5502 64.6 70.2602 62.83C69.7702 65.07 68.6802 67.42 68.0802 68.6C67.9102 68.94 67.5602 69.14 67.2002 69.14C67.1202 69.14 67.0501 69.14 66.9701 69.11C66.2401 70.36 65.3602 71.33 65.2102 71.49C65.0202 71.7 64.7501 71.8 64.4901 71.8C64.2701 71.8 64.0501 71.73 63.8701 71.58C63.8501 71.56 63.8201 71.54 63.8001 71.52C63.3801 71.88 62.9601 72.2 62.6001 72.45C61.8801 72.94 61.3601 73.45 61.1701 73.65C60.9801 73.85 60.7202 73.95 60.4602 73.95C60.2602 73.95 60.0602 73.89 59.8902 73.77C59.8602 73.75 59.8402 73.73 59.8202 73.71C58.1602 75.56 58.3601 77.56 58.3701 77.65C58.4101 78.05 58.2102 78.45 57.8402 78.63C57.7002 78.7 57.5401 78.74 57.3801 78.74C57.1601 78.74 56.9502 78.67 56.7702 78.53C56.0702 80.48 55.3201 81.0299 54.9701 81.1899C54.8401 81.2499 54.7001 81.28 54.5601 81.28C54.3301 81.28 54.1101 81.2 53.9301 81.05C53.6401 80.81 53.5101 80.42 53.6101 80.05C53.6301 79.96 53.6501 79.86 53.6701 79.77C53.3901 80.22 53.1501 80.49 53.1201 80.51C53.0201 80.61 52.9101 80.69 52.7901 80.74C52.9201 81.51 53.1701 82.23 53.3101 82.58C53.4701 82.95 53.3802 83.38 53.0902 83.66C52.9002 83.85 52.6502 83.9399 52.4002 83.9399L52.3601 83.96Z" fill="#2F150C"/>
<path d="M74.5101 44.72C72.9801 46.53 70.3301 46.4201 68.4801 46.4301C68.0901 45.4401 67.5401 44.45 66.8001 43.49C65.9801 39.97 63.4401 40.16 63.0401 40.21C62.7201 40.03 62.4001 39.8501 62.0601 39.6701C60.2101 36.4201 57.5802 37.4801 57.0302 37.7601C56.7302 37.6801 56.4301 37.6001 56.1301 37.5301C53.8401 34.3401 52.1301 36.4101 51.8401 36.8101C51.4101 36.7701 50.9801 36.74 50.5701 36.73C50.4101 36.53 48.3001 34.03 46.5501 36.71C45.5701 36.41 43.7401 36.2301 42.5401 38.4101C41.8801 38.4101 40.5301 38.62 39.6601 40.21C38.8001 40.76 37.9902 41.3301 37.2802 41.8901C35.3402 43.4101 34.1301 44.93 33.4501 46.44C31.7101 46.42 29.6001 46.27 28.3001 44.73C26.3101 42.38 23.7101 32.9001 9.1001 34.5301C9.1001 34.5301 16.4701 34.76 20.4501 40.23C24.0001 45.1 24.5401 53.2901 32.1901 52.7801C30.9401 53.8301 29.4201 54.97 28.3401 55.32C28.2701 55.34 28.2001 55.3601 28.1401 55.3801C26.0101 55.8801 25.0101 55.6701 23.8301 57.1601C22.5401 58.8001 24.2001 64.4301 28.8201 64.1601C30.3301 64.0701 31.4901 62.9701 32.3601 61.4101C32.7201 60.7601 33.0301 60.0301 33.3001 59.2601C33.3501 59.5301 33.4101 59.8001 33.4901 60.0601C33.2401 61.5601 32.7301 66.37 35.7501 69.35C35.7501 69.35 34.3001 67.3 34.6601 65.08C34.6601 65.08 36.2001 69.79 39.2301 71.32C41.3701 72.41 41.6401 72.97 41.6101 73.21C41.7101 72.96 41.8601 72.42 41.5701 71.72C42.1601 72.57 42.7201 73.64 42.7201 74.71C42.7201 74.71 43.1701 76.4301 44.7601 77.0201C44.7601 77.0201 43.6401 75.6601 44.0601 73.7601C44.1901 73.1901 44.2401 72.82 44.2501 72.58C44.4001 72.82 44.6501 73.1901 45.0801 73.7601C46.3001 75.3901 47.6901 76.5201 48.6701 78.5101C49.6501 80.5001 49.2001 81.7701 49.2001 81.7701C49.2001 81.7701 49.9201 80.2901 50.1501 78.5301C50.2701 80.1301 50.7401 82.28 52.3701 82.99C52.3701 82.99 51.0101 79.7701 52.1001 78.0501C52.1001 78.0501 52.3701 78.73 52.3701 79.86C52.3701 79.86 53.7301 78.41 53.5001 76.33C53.5001 76.33 55.1002 78.1001 54.5302 80.3101C54.5302 80.3101 55.6001 79.8201 56.4101 76.0601C56.3801 76.3301 56.4301 76.9601 57.3501 77.7801C57.3501 77.7801 56.9801 74.84 59.6301 72.48C59.6301 72.48 60.9101 71.3 61.1201 70.59C61.0401 71.02 60.7601 72.31 60.4201 72.98C60.7601 72.63 61.3101 72.1201 62.0101 71.6501C63.4601 70.6701 64.8901 69.14 65.0001 68.36C65.0001 68.36 65.0501 70 64.4601 70.83C64.4601 70.83 66.6201 68.51 66.9401 66.46C66.9401 66.46 67.3101 67.4801 67.1601 68.1601C67.8601 66.7701 69.9301 62.3601 69.4001 59.9001C69.4501 59.6901 69.5002 59.4801 69.5302 59.2701C69.7902 60.0301 70.1001 60.7601 70.4601 61.4001C71.3301 62.9601 72.4901 64.0701 74.0001 64.1501C78.6201 64.4201 80.2801 58.7801 78.9901 57.1501C77.8101 55.6601 76.8101 55.87 74.6801 55.37C74.6201 55.36 74.5501 55.3401 74.4801 55.3101C73.4001 54.9701 71.8801 53.8301 70.6301 52.7701C78.2801 53.2801 78.8201 45.09 82.3701 40.22C86.3501 34.75 93.7201 34.5201 93.7201 34.5201C79.1101 32.8901 76.5201 42.37 74.5201 44.72H74.5101Z" fill="#2F150C"/>
<path d="M41.4903 74.3199C41.2303 74.3199 40.9802 74.23 40.8002 74.03C40.4702 73.68 40.4203 73.18 40.7003 72.8C40.8603 72.44 41.2202 72.21 41.6102 72.21C41.6902 72.21 41.7702 72.22 41.8602 72.24C42.3302 72.36 42.6503 72.81 42.5903 73.29C42.5503 73.63 42.3702 73.94 42.1002 74.13C41.9202 74.26 41.7003 74.3199 41.4903 74.3199Z" fill="#2F150C"/>
<path d="M41.61 73.1801C41.57 73.2701 41.54 73.3199 41.54 73.3199C41.54 73.3199 41.6 73.2801 41.61 73.1801Z" fill="#2F150C"/>
<path d="M60.0601 74.38C59.6701 74.38 59.3101 74.14 59.1501 73.78C58.8801 73.14 59.3201 72.68 59.7101 72.28C59.9001 72.08 60.1601 71.98 60.4201 71.98C60.6201 71.98 60.8201 72.04 60.9901 72.16C61.3901 72.44 61.5201 72.97 61.3001 73.41C61.2501 73.51 61.2001 73.6 61.1501 73.67C61.0901 73.77 61.0001 73.88 60.9101 73.97C60.7501 74.13 60.4901 74.38 60.0701 74.38H60.0601Z" fill="#2F150C"/>
<path d="M60.2101 73.28C60.2101 73.28 60.2901 73.19 60.3301 73.13C60.3601 73.08 60.4001 73.02 60.4301 72.96C60.0601 73.34 59.9501 73.54 60.2201 73.28H60.2101Z" fill="#2F150C"/>
<path d="M66.93 69.5699C66.72 69.5699 66.5 69.5 66.32 69.36C65.94 69.06 65.83 68.54 66.06 68.12C66.06 68.12 66.14 67.97 66.27 67.71C66.44 67.37 66.79 67.17 67.15 67.17C67.26 67.17 67.37 67.19 67.48 67.23C67.95 67.39 68.22 67.88 68.12 68.36C68.04 68.76 67.86 69.0799 67.6 69.3199C67.41 69.4899 67.18 69.5699 66.94 69.5699H66.93Z" fill="#2F150C"/>
<path d="M67.1502 68.16C67.0102 68.43 66.9302 68.59 66.9302 68.59C67.0502 68.48 67.1202 68.33 67.1502 68.16Z" fill="#2F150C"/>
<path d="M70.4501 61.38C71.3201 62.94 72.4801 64.05 73.9901 64.13C78.6101 64.4 80.2701 58.76 78.9801 57.13C77.8001 55.64 76.8001 55.85 74.6701 55.35C74.6101 55.34 74.5401 55.32 74.4701 55.29C72.2901 54.6 68.3801 50.72 68.3801 50.72C68.1101 52.98 68.6601 58.16 70.4501 61.38Z" fill="#8C6E4C"/>
<path d="M70.59 60.6801C71 61.4101 72.1 62.3399 72.96 62.4399C76.14 62.8199 77.23 59.98 77.51 59.05C77.78 58.12 77.4599 56.7601 75.7299 56.3101C69.5299 54.6801 68.38 50.73 68.38 50.73C68.11 52.99 68.34 56.6701 70.59 60.6801Z" fill="#E48F8C"/>
<path d="M67.4601 52.1501C67.4601 52.1501 65.5401 46.8901 67.0801 46.5301C68.6201 46.1701 72.5301 47.07 74.5201 44.71C76.5101 42.36 79.11 32.8801 93.72 34.5101C93.72 34.5101 86.35 34.74 82.37 40.21C78.39 45.68 78.19 55.3301 67.47 52.1501H67.4601Z" fill="white"/>
<path d="M51.3401 64.86C51.3401 64.86 35.9701 61.3299 34.7001 60.0699C33.4301 58.8099 33.5701 59.5699 33.5701 59.5699C33.5701 59.5699 32.1201 65.7599 35.7401 69.3199C35.7401 69.3199 34.2901 67.27 34.6501 65.05C34.6501 65.05 36.19 69.76 39.22 71.29C42.25 72.83 41.5301 73.3299 41.5301 73.3299C41.5301 73.3299 42.5301 71.83 40.1301 70.04C40.1301 70.04 42.7101 72.37 42.7101 74.68C42.7101 74.68 43.1601 76.4 44.7501 76.99C44.7501 76.99 43.63 75.63 44.05 73.73C44.47 71.83 44.05 72.1 44.05 72.1C44.05 72.1 43.8401 72.1 45.0701 73.73C46.2901 75.36 47.68 76.49 48.66 78.48C49.64 80.47 49.1901 81.74 49.1901 81.74C49.1901 81.74 50.5001 79.07 50.1401 76.62C50.1401 76.62 49.64 81.7799 52.36 82.9599C52.36 82.9599 51.0001 79.74 52.0901 78.02C52.0901 78.02 52.36 78.6999 52.36 79.8299C52.36 79.8299 53.7201 78.38 53.4901 76.3C53.4901 76.3 55.0901 78.07 54.5201 80.28C54.5201 80.28 55.6101 79.78 56.4301 75.89C56.4301 75.89 56.1201 76.66 57.3401 77.75C57.3401 77.75 56.9701 74.8099 59.6201 72.4499C59.6201 72.4499 61.0901 71.09 61.1401 70.41C61.1401 70.41 60.7801 72.41 60.3201 73.12C60.2801 73.18 60.2401 73.23 60.2001 73.27C59.6901 73.77 60.5501 72.61 62.0001 71.62C63.4501 70.64 64.8801 69.1099 64.9901 68.3299C64.9901 68.3299 65.0401 69.97 64.4501 70.8C64.4501 70.8 66.6101 68.48 66.9301 66.43C66.9301 66.43 67.5101 68.04 66.9301 68.56C66.9301 68.56 70.0301 62.81 69.3901 59.86C68.7601 56.92 51.3401 64.8299 51.3401 64.8299" fill="#8C6E4C"/>
<path d="M69.6601 57.7C69.6601 57.96 69.6601 58.21 69.6301 58.46C69.6301 58.55 69.6101 58.64 69.6001 58.74C68.7201 66.29 58.5301 72.28 51.6301 72.41C51.5501 72.41 51.4801 72.41 51.4001 72.41C45.4701 72.41 34.2101 66.4 33.2201 58.78C33.1701 58.43 33.1501 58.06 33.1501 57.7C33.1501 50.53 39.0401 42.34 39.0401 42.34C39.0401 42.34 45.0001 38.86 51.4001 38.86C57.4301 38.86 63.7601 42.34 63.7601 42.34C63.7601 42.34 69.6501 50.53 69.6501 57.7" fill="#8C6E4C"/>
<path d="M51.4002 72.41C48.6902 72.41 44.6402 70.78 41.3302 68.35C37.5302 65.56 35.1302 62.11 34.7402 58.87C34.7002 58.55 34.6802 58.23 34.6802 57.9C34.6802 51.41 39.1402 43.85 40.1102 42.28C41.3202 41.57 46.2702 38.86 51.4002 38.86C56.2402 38.86 61.4102 41.57 62.7002 42.29C63.6902 43.9 68.1202 51.43 68.1202 57.9C68.1202 58.13 68.1202 58.37 68.1002 58.6C68.1002 58.69 68.0802 58.77 68.0802 58.86C67.2902 66.41 57.5402 72.28 51.6102 72.4H51.6402H51.4102" fill="#9B795A"/>
<path d="M36.5601 54.9101C36.5601 54.9101 40.09 62.2 43.11 62.2C45.42 62.2 48.3201 61.0101 48.3201 61.0101C48.3201 61.0101 49.55 48.86 42.85 48.47C39.83 48.3 36.5701 54.9001 36.5701 54.9001" fill="#8C6E4C"/>
<path d="M66.3101 54.9101C66.3101 54.9101 62.7802 62.2 59.7602 62.2C57.4502 62.2 54.5501 61.0101 54.5501 61.0101C54.5501 61.0101 53.3202 48.86 60.0202 48.47C63.0402 48.3 66.3001 54.9001 66.3001 54.9001" fill="#8C6E4C"/>
<path d="M39.8301 50.08C39.8301 50.08 39.83 50.05 39.86 50C39.89 49.95 39.9301 49.87 39.9901 49.79C40.0501 49.7 40.13 49.6 40.22 49.48C40.32 49.37 40.4301 49.24 40.5701 49.12C40.6401 49.06 40.71 48.9899 40.79 48.9399C40.87 48.8799 40.96 48.82 41.05 48.76C41.14 48.7 41.2401 48.65 41.3401 48.6C41.4401 48.55 41.54 48.49 41.66 48.45C41.88 48.37 42.1201 48.29 42.3701 48.25C42.6201 48.19 42.8801 48.1999 43.1401 48.1899C43.4001 48.1899 43.6501 48.25 43.9001 48.29C44.1401 48.36 44.3701 48.45 44.5901 48.54C44.8001 48.65 44.9901 48.77 45.1801 48.88C45.3501 49 45.5001 49.14 45.6401 49.26C45.7101 49.32 45.7701 49.3799 45.8301 49.4399C45.8901 49.4999 45.93 49.57 45.98 49.62C46.07 49.73 46.1501 49.84 46.2101 49.92C46.3301 50.09 46.3901 50.2 46.3901 50.2C46.3901 50.2 46.2701 50.16 46.0801 50.08C45.9901 50.04 45.8701 49.9901 45.7501 49.9301C45.6301 49.8601 45.4801 49.81 45.3201 49.76C45.1601 49.7 45.0001 49.6299 44.8301 49.5699C44.6501 49.5199 44.4701 49.46 44.2801 49.4C44.0901 49.36 43.8901 49.32 43.7001 49.27C43.6001 49.27 43.5001 49.26 43.4001 49.24C43.3001 49.24 43.2 49.21 43.1 49.22C42.9 49.22 42.7001 49.21 42.5001 49.23C42.4001 49.24 42.3001 49.23 42.2001 49.26C42.1001 49.28 42.01 49.2901 41.91 49.3101C41.81 49.3101 41.7301 49.36 41.6301 49.38C41.5401 49.4 41.45 49.42 41.36 49.45C41.18 49.5 41.02 49.56 40.86 49.62C40.7 49.67 40.5601 49.74 40.4301 49.79C40.3101 49.85 40.19 49.8899 40.1 49.9399C40.01 49.9799 39.9301 50.02 39.8801 50.04C39.8301 50.06 39.8 50.08 39.8 50.08H39.8301Z" fill="#2F1E0F"/>
<path d="M63.1 50.08C63.1 50.08 63.07 50.07 63.02 50.04C62.97 50.02 62.9 49.9801 62.8 49.9301C62.71 49.8901 62.59 49.84 62.47 49.78C62.34 49.73 62.2 49.66 62.04 49.61C61.89 49.55 61.72 49.4999 61.54 49.4399C61.45 49.4099 61.36 49.39 61.27 49.37C61.18 49.35 61.09 49.31 60.99 49.3C60.89 49.29 60.8 49.27 60.7 49.25C60.6 49.23 60.5 49.23 60.41 49.22C60.21 49.19 60.01 49.2 59.81 49.21C59.71 49.21 59.61 49.22 59.51 49.23C59.41 49.24 59.31 49.25 59.21 49.26C59.02 49.31 58.82 49.34 58.63 49.39C58.45 49.45 58.26 49.5101 58.08 49.5601C57.91 49.6201 57.75 49.7 57.59 49.75C57.43 49.81 57.28 49.86 57.16 49.92C57.03 49.98 56.92 50.0299 56.83 50.0699C56.64 50.1499 56.52 50.1899 56.52 50.1899C56.52 50.1899 56.58 50.09 56.7 49.91C56.76 49.83 56.84 49.72 56.93 49.61C56.98 49.55 57.03 49.4901 57.08 49.4301C57.14 49.3701 57.2 49.32 57.27 49.25C57.41 49.13 57.55 48.99 57.73 48.87C57.91 48.76 58.11 48.65 58.32 48.53C58.54 48.44 58.77 48.36 59.01 48.28C59.26 48.24 59.51 48.1801 59.77 48.1801C60.03 48.1801 60.29 48.18 60.54 48.24C60.79 48.27 61.03 48.3599 61.25 48.4399C61.36 48.4799 61.46 48.54 61.57 48.59C61.67 48.64 61.77 48.69 61.86 48.75C61.95 48.81 62.03 48.8701 62.12 48.9301C62.2 48.9901 62.27 49.06 62.34 49.11C62.48 49.23 62.59 49.36 62.69 49.47C62.79 49.59 62.86 49.69 62.92 49.78C62.98 49.87 63.02 49.94 63.04 49.99C63.07 50.04 63.08 50.0699 63.08 50.0699L63.1 50.08Z" fill="#2F1E0F"/>
<path d="M48.3201 61.02C42.7501 63.67 38.8401 61.9499 37.0701 55.0799C37.0701 55.0799 43.7601 49.88 47.3201 56.55C47.8701 57.58 48.3201 61.02 48.3201 61.02Z" fill="white"/>
<path d="M42.94 61.45C41.39 61.42 40.1 60.19 39.6 58.49C39.45 57.97 39.37 57.4099 39.38 56.8199C39.43 54.4499 40.9 53.61 42.75 53.55C42.87 53.55 42.98 53.55 43.1 53.55C45.12 53.59 46.65 55.69 46.68 56.97C46.75 59.48 44.95 61.49 42.93 61.45" fill="#82471E"/>
<path d="M42.96 60.8101C41.79 60.7801 40.76 59.78 40.34 58.26C40.2 57.77 40.14 57.26 40.15 56.74C40.18 54.97 41.02 54.1299 42.78 54.0699C42.87 54.0699 42.96 54.0699 43.05 54.0699H43.0999C44.6899 54.1099 45.9 55.96 45.93 56.91C45.96 58.06 45.58 59.16 44.87 59.92C44.34 60.5 43.67 60.8199 43.01 60.8199H42.96" fill="#512E16"/>
<path d="M54.53 61.02C60.1 63.67 64.01 61.9499 65.78 55.0799C65.78 55.0799 59.09 49.88 55.53 56.55C54.98 57.58 54.53 61.02 54.53 61.02Z" fill="white"/>
<path d="M59.9099 61.45C61.4499 61.42 62.75 60.19 63.25 58.49C63.4 57.97 63.4799 57.4099 63.4699 56.8199C63.4199 54.4499 61.9499 53.61 60.0999 53.55C59.9799 53.55 59.87 53.55 59.75 53.55C57.73 53.59 56.2099 55.69 56.1699 56.97C56.0999 59.48 57.8999 61.49 59.9199 61.45" fill="#82471E"/>
<path d="M59.8501 60.8101C59.1801 60.8101 58.5201 60.49 57.9801 59.91C57.2801 59.15 56.9001 58.05 56.9301 56.9C56.9501 55.95 58.1701 54.0901 59.7601 54.0601H59.8001C59.8901 54.0601 59.9801 54.0601 60.0701 54.0601C61.8301 54.1201 62.6601 54.96 62.7001 56.73C62.7101 57.26 62.6501 57.77 62.5201 58.25C62.1001 59.78 61.0701 60.7801 59.9001 60.8101H59.8601" fill="#512E16"/>
<path d="M43.19 55.88C43.16 57.4 42.14 58.62 40.92 58.59C40.37 58.58 39.87 58.31 39.49 57.89C39.36 57.44 39.29 56.9401 39.3 56.4301C39.34 54.3601 40.63 53.6199 42.26 53.5699C42.85 54.0699 43.22 54.93 43.2 55.88" fill="white"/>
<path d="M45.1101 60.2801C45.1101 60.8001 44.7601 61.21 44.3401 61.2C43.9301 61.2 43.6001 60.7701 43.6101 60.2501C43.6201 59.7301 43.9701 59.32 44.3801 59.33C44.7901 59.33 45.1201 59.7601 45.1101 60.2801Z" fill="white"/>
<path d="M59.81 56.11C59.78 57.63 58.76 58.8399 57.54 58.8199C56.99 58.8099 56.49 58.54 56.11 58.12C55.97 57.67 55.91 57.17 55.92 56.66C55.96 54.58 57.25 53.85 58.88 53.8C59.47 54.31 59.84 55.16 59.82 56.11" fill="white"/>
<path d="M61.8901 60.2801C61.8801 60.8001 61.5301 61.21 61.1201 61.2C60.7101 61.2 60.3801 60.7701 60.3901 60.2501C60.3901 59.7301 60.7401 59.32 61.1601 59.33C61.5801 59.34 61.9001 59.7601 61.8901 60.2801Z" fill="white"/>
<path d="M47.3201 61.45C47.6501 61.32 47.9801 61.18 48.3201 61.01C47.9801 61.17 47.6501 61.32 47.3201 61.45Z" fill="#93755A"/>
<path d="M48.3201 61.02C48.3201 61.02 47.8701 57.58 47.3201 56.55C45.9301 53.95 44.06 53.15 42.3 53.15C39.56 53.15 37.0701 55.08 37.0701 55.08C37.1801 55.5 37.29 55.89 37.41 56.27C37.29 55.89 37.1701 55.5 37.0701 55.08C37.0701 55.08 39.56 53.15 42.3 53.15C44.06 53.15 45.9301 53.94 47.3201 56.55C47.8601 57.57 48.3001 60.91 48.3201 61.02Z" fill="#876C4D"/>
<path d="M47.3201 61.45C47.1401 60.47 46.8901 59.37 46.6201 58.86C46.5701 58.77 46.52 58.68 46.47 58.58C46.63 58.08 46.7101 57.54 46.6901 56.97C46.6601 55.69 45.13 53.59 43.11 53.55C43.09 53.55 43.07 53.55 43.05 53.55C42.96 53.55 42.8601 53.55 42.7601 53.55C42.6001 53.55 42.4401 53.56 42.2801 53.58C42.2801 53.58 42.2601 53.5601 42.2501 53.5601C40.7801 53.6001 39.5901 54.21 39.3401 55.85C38.6501 56.08 38.03 56.37 37.54 56.64C37.5 56.52 37.45 56.39 37.41 56.26C37.29 55.88 37.1701 55.4899 37.0701 55.0699C37.0701 55.0699 39.56 53.14 42.3 53.14C44.06 53.14 45.9301 53.93 47.3201 56.54C47.8701 57.57 48.3201 61.01 48.3201 61.01C47.9801 61.17 47.6501 61.32 47.3201 61.45Z" fill="#E2E1E1"/>
<path d="M46.47 58.58C46.28 58.25 46.08 57.9599 45.88 57.6899C45.91 57.4299 45.93 57.17 45.92 56.9C45.9 55.95 44.68 54.0901 43.09 54.0601H43.04C42.95 54.0601 42.86 54.0601 42.77 54.0601C42.74 54.0601 42.71 54.0601 42.68 54.0601C42.56 53.8801 42.42 53.72 42.27 53.58C42.43 53.56 42.59 53.55 42.75 53.55C42.85 53.55 42.94 53.55 43.04 53.55C43.06 53.55 43.08 53.55 43.1 53.55C45.12 53.59 46.65 55.69 46.68 56.97C46.69 57.54 46.62 58.08 46.46 58.58" fill="#7E4923"/>
<path d="M45.8799 57.6899C45.0599 56.6099 44.1299 56 43.1799 55.7C43.1599 55.09 42.9799 54.5199 42.6899 54.0699C42.7199 54.0699 42.75 54.0699 42.78 54.0699C42.87 54.0699 42.9599 54.0699 43.0499 54.0699H43.0999C44.6899 54.1099 45.8999 55.96 45.9299 56.91C45.9299 57.18 45.93 57.44 45.89 57.7" fill="#52311D"/>
<path d="M39.3401 55.85C39.5901 54.21 40.7801 53.6001 42.2501 53.5601C42.2501 53.5601 42.2701 53.58 42.2801 53.58C42.4301 53.72 42.5701 53.8801 42.6901 54.0601C42.9901 54.5101 43.1701 55.0699 43.1801 55.6899C42.6501 55.5199 42.12 55.45 41.6 55.45C40.81 55.45 40.0301 55.61 39.3401 55.84" fill="#E2E1E1"/>
<path d="M55.53 61.45C55.2 61.32 54.87 61.18 54.53 61.01C54.87 61.17 55.2 61.32 55.53 61.45Z" fill="#93755A"/>
<path d="M54.54 60.9301C54.61 60.3901 55.0301 57.48 55.5301 56.54C55.7001 56.23 55.8701 55.94 56.0601 55.67C55.8801 55.94 55.71 56.23 55.54 56.54C55.04 57.48 54.63 60.4001 54.55 60.9301" fill="#876C4D"/>
<path d="M55.53 61.45C55.2 61.32 54.87 61.18 54.53 61.01C54.53 61.01 54.53 60.9801 54.53 60.9301C54.6 60.4001 55.02 57.48 55.52 56.54C55.69 56.23 55.86 55.94 56.04 55.67C55.96 55.96 55.91 56.28 55.9 56.65C55.9 57.16 55.96 57.66 56.09 58.11C56.15 58.18 56.22 58.24 56.29 58.3C56.31 58.39 56.34 58.4799 56.37 58.5699C56.32 58.6599 56.27 58.75 56.22 58.84C55.95 59.35 55.7 60.4501 55.52 61.4301" fill="#E2E1E1"/>
<path d="M56.3801 58.59C56.3501 58.5 56.33 58.4099 56.3 58.3199C56.35 58.3699 56.4101 58.41 56.4601 58.45C56.4301 58.5 56.4001 58.54 56.3801 58.59Z" fill="#7E4923"/>
<path d="M65.48 56.14C65.59 55.8 65.69 55.45 65.78 55.08C65.78 55.08 63.29 53.15 60.55 53.15C59.62 53.15 58.65 53.37 57.75 53.97C58.66 53.37 59.62 53.15 60.55 53.15C63.3 53.15 65.78 55.08 65.78 55.08C65.68 55.45 65.58 55.8 65.48 56.14Z" fill="#876C4D"/>
<path d="M65.31 56.64C64.78 56.35 64.1 56.03 63.34 55.79C62.94 54.2 61.65 53.59 60.1 53.55C60 53.55 59.91 53.55 59.81 53.55C59.79 53.55 59.77 53.55 59.75 53.55C59.34 53.55 58.95 53.6501 58.58 53.8101C58.29 53.8401 58.01 53.89 57.75 53.96C58.65 53.36 59.62 53.14 60.55 53.14C63.29 53.14 65.78 55.0699 65.78 55.0699C65.68 55.4399 65.58 55.79 65.48 56.13C65.42 56.3 65.37 56.47 65.31 56.63" fill="#E2E1E1"/>
<path d="M63.3401 55.8C63.0801 55.72 62.8101 55.65 62.5301 55.59C62.2001 54.6 61.4001 54.1099 60.0801 54.0699C59.9901 54.0699 59.9001 54.0699 59.8101 54.0699H59.7701C59.5801 54.0699 59.4 54.1 59.22 54.16C59.12 54.03 59.0101 53.9101 58.8901 53.8101C58.7901 53.8101 58.6901 53.81 58.5901 53.83C58.9501 53.67 59.3501 53.5799 59.7601 53.5699C59.7801 53.5699 59.8001 53.5699 59.8201 53.5699C59.9201 53.5699 60.01 53.5699 60.11 53.5699C61.66 53.6099 62.95 54.2201 63.35 55.8101" fill="#7E4923"/>
<path d="M59.7999 55.66C59.7399 55.08 59.53 54.55 59.21 54.15C59.39 54.1 59.5699 54.0701 59.7599 54.0601H59.7999C59.8899 54.0601 59.9799 54.0601 60.0699 54.0601C61.3899 54.1001 62.19 54.59 62.52 55.58C62.11 55.5 61.6799 55.45 61.2499 55.45C60.7699 55.45 60.2799 55.51 59.7899 55.65" fill="#52311D"/>
<path d="M56.47 58.4399C56.42 58.3999 56.36 58.3601 56.31 58.3101C56.24 58.2501 56.18 58.18 56.11 58.12C55.97 57.67 55.91 57.17 55.92 56.66C55.92 56.29 55.98 55.9701 56.06 55.6801C56.58 54.9201 57.15 54.36 57.75 53.97C58.01 53.89 58.29 53.8399 58.58 53.8199C58.68 53.8199 58.78 53.81 58.88 53.8C59 53.9 59.1101 54.02 59.2101 54.15C59.5201 54.56 59.73 55.08 59.8 55.66C58.61 56 57.44 56.8299 56.47 58.4399Z" fill="#E2E1E1"/>
<path d="M48.3201 61.02C48.2501 60.68 48.17 60.34 48.1 60C48.03 59.66 47.9501 59.32 47.8701 58.99C47.7901 58.65 47.7 58.32 47.6 57.99C47.51 57.65 47.4001 57.36 47.2801 57.04C47.2101 56.89 47.1401 56.6999 47.0601 56.5899L46.79 56.16C46.6 55.88 46.4001 55.61 46.1801 55.36C46.0701 55.23 45.9601 55.11 45.8401 55C45.7201 54.88 45.6 54.77 45.47 54.67C45.34 54.57 45.2201 54.46 45.0801 54.38C44.9501 54.29 44.81 54.2 44.67 54.13C44.39 53.97 44.0901 53.86 43.7801 53.76C43.4701 53.67 43.1601 53.6099 42.8401 53.5799C42.5201 53.5599 42.2001 53.5499 41.8701 53.5799C41.5501 53.5999 41.23 53.67 40.91 53.74C40.27 53.89 39.65 54.12 39.05 54.41C38.75 54.56 38.45 54.71 38.17 54.88C37.89 55.05 37.6 55.23 37.35 55.42L37.5001 54.9599L37.7601 55.86C37.8401 56.17 37.9501 56.45 38.0601 56.75C38.1601 57.05 38.2701 57.34 38.4001 57.61C38.5301 57.89 38.64 58.1799 38.8 58.4399C38.96 58.6999 39.0801 58.9899 39.2601 59.2299C39.4401 59.4699 39.5901 59.7499 39.8101 59.9599C40.0101 60.1799 40.2001 60.4199 40.4401 60.5999L40.7801 60.9L41.16 61.14C41.4 61.32 41.6901 61.42 41.9601 61.55C42.2301 61.68 42.5301 61.7199 42.8201 61.8199C43.1201 61.8599 43.42 61.92 43.73 61.93C44.04 61.93 44.35 61.96 44.66 61.92C44.97 61.88 45.2901 61.89 45.5901 61.81C45.9001 61.74 46.2101 61.71 46.5101 61.61C46.8101 61.52 47.12 61.4399 47.42 61.3299L48.3201 61.01V61.02ZM48.3201 61.02L47.47 61.4599C47.18 61.5999 46.8801 61.7099 46.5801 61.8299C46.2801 61.9699 45.97 62.03 45.66 62.13C45.35 62.24 45.0301 62.2699 44.7101 62.3399C44.3901 62.4199 44.06 62.4 43.73 62.43C43.4 62.43 43.07 62.4 42.73 62.38C42.41 62.3 42.0601 62.26 41.7501 62.14C41.4401 62.02 41.1101 61.9099 40.8201 61.7299L40.3801 61.4699L39.98 61.16C39.7 60.97 39.4801 60.7099 39.2401 60.4699C38.9901 60.2399 38.82 59.9499 38.61 59.6899C38.4 59.4299 38.2601 59.1299 38.0801 58.8499C37.9001 58.5699 37.7801 58.2599 37.6301 57.9699C37.4801 57.6699 37.3601 57.37 37.2501 57.06C37.1401 56.75 37.0101 56.45 36.9301 56.13L36.6501 55.1899L36.5701 54.91L36.8101 54.7299C37.1201 54.4999 37.41 54.31 37.72 54.13C38.03 53.95 38.3501 53.78 38.6801 53.63C39.3301 53.32 40.02 53.08 40.73 52.92C41.09 52.84 41.4501 52.79 41.8201 52.77C42.1901 52.74 42.5601 52.77 42.9301 52.8C43.3001 52.85 43.6701 52.93 44.0201 53.05C44.2001 53.11 44.37 53.17 44.54 53.26C44.71 53.34 44.8801 53.42 45.0301 53.53C45.1901 53.62 45.3401 53.7299 45.4901 53.8399C45.6401 53.9399 45.78 54.0699 45.91 54.1899C46.05 54.3099 46.18 54.4399 46.3 54.5799C46.43 54.7099 46.5501 54.85 46.6501 55C46.8801 55.28 47.0601 55.59 47.2401 55.9L47.4901 56.37C47.5901 56.56 47.6201 56.7 47.6901 56.87C47.7901 57.21 47.8801 57.58 47.9401 57.92C48.0101 58.26 48.06 58.6099 48.1 58.9599C48.2 59.6499 48.2701 60.34 48.3201 61.04V61.02Z" fill="#2F1E0F"/>
<path d="M54.53 61.0201C54.57 60.3301 54.65 59.63 54.74 58.94C54.79 58.6 54.84 58.2501 54.91 57.9001C54.96 57.5601 55.06 57.19 55.16 56.85C55.23 56.68 55.26 56.54 55.36 56.35L55.61 55.88C55.79 55.58 55.98 55.27 56.21 54.98C56.32 54.83 56.43 54.6901 56.56 54.5601C56.68 54.4201 56.81 54.2901 56.95 54.1701C57.09 54.0401 57.22 53.92 57.37 53.82C57.52 53.7 57.67 53.6 57.83 53.51C57.98 53.41 58.15 53.32 58.32 53.24C58.48 53.15 58.66 53.0901 58.84 53.0301C59.19 52.9101 59.56 52.8301 59.93 52.7801C60.3 52.7401 60.67 52.72 61.04 52.75C61.41 52.77 61.77 52.8201 62.13 52.9001C62.84 53.0601 63.53 53.3 64.18 53.61C64.51 53.76 64.83 53.93 65.14 54.11C65.45 54.29 65.75 54.48 66.05 54.71L66.29 54.89L66.21 55.1701L65.93 56.11C65.85 56.43 65.72 56.7301 65.61 57.0401C65.5 57.3501 65.38 57.65 65.24 57.95C65.09 58.25 64.97 58.55 64.79 58.83C64.61 59.11 64.47 59.4101 64.26 59.6701C64.05 59.9301 63.88 60.22 63.63 60.45C63.4 60.69 63.18 60.95 62.89 61.14L62.49 61.45L62.05 61.71C61.76 61.89 61.44 62 61.12 62.12C60.81 62.25 60.46 62.28 60.14 62.36C59.81 62.38 59.47 62.4201 59.14 62.4101C58.81 62.3801 58.48 62.4 58.16 62.32C57.84 62.25 57.51 62.21 57.2 62.11C56.89 62 56.58 61.9401 56.28 61.8101C55.98 61.6801 55.68 61.58 55.39 61.44L54.54 61L54.53 61.0201ZM54.53 61.0201L55.43 61.34C55.73 61.45 56.04 61.52 56.34 61.62C56.64 61.72 56.96 61.75 57.26 61.82C57.57 61.9 57.88 61.9001 58.19 61.9301C58.5 61.9701 58.81 61.93 59.12 61.94C59.43 61.93 59.73 61.87 60.03 61.83C60.32 61.73 60.62 61.6801 60.89 61.5601C61.16 61.4301 61.45 61.3301 61.69 61.1501L62.07 60.9101L62.41 60.61C62.65 60.43 62.84 60.19 63.04 59.97C63.26 59.76 63.4 59.48 63.59 59.24C63.78 59 63.9 58.71 64.06 58.45C64.22 58.19 64.32 57.89 64.46 57.62C64.6 57.34 64.7 57.05 64.8 56.76C64.9 56.47 65.02 56.18 65.1 55.87L65.36 54.97L65.52 55.4301C65.27 55.2501 64.98 55.06 64.7 54.89C64.41 54.72 64.12 54.5601 63.82 54.4201C63.22 54.1301 62.59 53.9 61.96 53.75C61.64 53.68 61.32 53.61 60.99 53.59C60.67 53.55 60.34 53.56 60.02 53.59C59.7 53.62 59.39 53.6801 59.08 53.7701C58.78 53.8701 58.47 53.98 58.19 54.14C58.05 54.21 57.91 54.3 57.78 54.39C57.64 54.47 57.51 54.5801 57.39 54.6801C57.26 54.7801 57.14 54.89 57.03 55.01C56.91 55.12 56.8 55.24 56.69 55.37C56.46 55.62 56.27 55.8901 56.08 56.1701L55.81 56.6C55.74 56.71 55.66 56.9001 55.59 57.0501C55.47 57.3701 55.36 57.66 55.27 58C55.17 58.33 55.09 58.66 55 59C54.92 59.33 54.85 59.67 54.77 60.01C54.69 60.35 54.62 60.6901 54.55 61.0301L54.53 61.0201Z" fill="#2F1E0F"/>
<path d="M56.65 64.08C55.37 62.57 53.0999 60.51 51.3499 60.51C49.5999 60.51 47.4399 62.57 46.1599 64.08C45.0799 65.35 42.9399 66.29 42.9399 67.74C42.9399 69.19 48.09 71.72 51.4 71.79C54.71 71.72 59.8599 69.12 59.8599 67.74C59.8599 66.29 57.72 65.35 56.64 64.08H56.65Z" fill="white"/>
<path d="M55.1901 68.86C55.1101 68.95 55.0101 69.05 54.8901 69.16C54.7701 69.27 54.6301 69.38 54.4601 69.45C54.3701 69.49 54.2801 69.52 54.1801 69.54C54.1301 69.55 54.0701 69.5599 54.0201 69.5699C53.9701 69.5699 53.9101 69.58 53.8601 69.59C53.6401 69.61 53.3901 69.62 53.1401 69.64C52.6401 69.66 52.1001 69.67 51.5701 69.67C51.5101 69.67 51.4601 69.67 51.4001 69.67C51.3401 69.67 51.2901 69.67 51.2401 69.67C50.7001 69.67 50.1701 69.66 49.6701 69.64C49.4201 69.63 49.1801 69.62 48.9501 69.59C48.8901 69.59 48.8401 69.5799 48.7901 69.5699C48.7401 69.5699 48.6901 69.56 48.6301 69.54C48.5401 69.52 48.4401 69.49 48.3501 69.45C48.1801 69.37 48.0401 69.27 47.9201 69.16C47.8001 69.05 47.7101 68.95 47.6201 68.86C47.4601 68.69 47.3701 68.59 47.3701 68.59C47.3701 68.59 47.4401 68.71 47.5701 68.9C47.6301 69 47.7101 69.12 47.8201 69.25C47.9301 69.38 48.0701 69.52 48.2601 69.63C48.3601 69.68 48.4601 69.73 48.5701 69.77C48.6201 69.79 48.6801 69.7999 48.7401 69.8199C48.8001 69.8299 48.8501 69.85 48.9101 69.86C49.1401 69.9 49.3901 69.94 49.6401 69.96C50.1501 70.01 50.6901 70.03 51.2301 70.04H51.5701C52.1101 70.04 52.6501 70.01 53.1601 69.96C53.4101 69.94 53.6601 69.9 53.8901 69.86C53.9501 69.86 54.0101 69.8399 54.0601 69.8199C54.1201 69.8099 54.1801 69.79 54.2201 69.77C54.3401 69.73 54.4402 69.69 54.5302 69.63C54.7202 69.52 54.8601 69.38 54.9701 69.25C55.0801 69.12 55.1601 69 55.2201 68.9C55.3501 68.7 55.4201 68.59 55.4201 68.59C55.4201 68.59 55.3301 68.69 55.1701 68.86H55.1901Z" fill="#2F1E0F"/>
<path d="M55.4201 64.51C55.0101 64.43 54.4802 65.09 54.1902 65.31C53.7802 65.63 51.6201 65.7199 51.4101 65.7299C51.1901 65.7299 49.0401 65.63 48.6201 65.31C48.3301 65.08 47.8002 64.43 47.4002 64.51C46.9902 64.59 46.7802 65.0699 46.8402 65.4599C46.9002 65.8499 47.9301 66.4299 48.6201 66.5799C49.3101 66.7299 49.6802 66.9099 49.6502 67.0899C49.6202 67.2699 49.3501 67.39 49.3501 67.39C49.3501 67.39 50.3802 68.05 51.1902 67.66C51.2802 67.62 51.3501 67.58 51.4101 67.55C51.4701 67.58 51.5402 67.62 51.6302 67.66C52.4502 68.05 53.4701 67.39 53.4701 67.39C53.4701 67.39 53.2001 67.2699 53.1701 67.0899C53.1401 66.9099 53.5002 66.7299 54.1902 66.5799C54.8802 66.4299 55.9101 65.8599 55.9801 65.4599C56.0401 65.0699 55.8301 64.58 55.4201 64.51Z" fill="#2F1E0F"/>
<path d="M51.6601 69.6801H51.1501V67.5601H51.6601V69.6801Z" fill="#2F1E0F"/>
<path d="M32.3602 61.38C31.4902 62.94 30.3302 64.05 28.8202 64.13C24.2002 64.4 22.5402 58.76 23.8302 57.13C25.0102 55.64 26.0102 55.85 28.1402 55.35C28.2002 55.34 28.2702 55.32 28.3402 55.29C30.5202 54.6 34.4302 50.72 34.4302 50.72C34.7002 52.98 34.1502 58.16 32.3602 61.38Z" fill="#8C6E4C"/>
<path d="M32.22 60.6801C31.81 61.4101 30.71 62.3399 29.85 62.4399C26.66 62.8199 25.58 59.98 25.31 59.05C25.04 58.12 25.36 56.7601 27.09 56.3101C33.29 54.6801 34.44 50.73 34.44 50.73C34.71 52.99 34.48 56.6701 32.23 60.6801H32.22Z" fill="#E48F8C"/>
<path d="M35.35 52.1501C35.35 52.1501 37.27 46.8901 35.73 46.5301C34.19 46.1701 30.28 47.07 28.29 44.71C26.3 42.36 23.7001 32.8801 9.09009 34.5101C9.09009 34.5101 16.4601 34.74 20.4401 40.21C24.4201 45.68 24.6201 55.3301 35.3401 52.1501H35.35Z" fill="white"/>
<path d="M36.5602 60.8399C36.4702 59.0999 35.8802 54.85 36.5602 53.26C37.5602 50.92 37.9602 50.5099 39.8202 48.9399C36.4502 51.7699 38.0101 57.3 40.6601 60.62C39.0101 57.14 40.4201 53.0299 43.4801 49.1899C41.0301 51.2199 44.1102 53.05 41.9902 56.74C44.8202 53.98 44.2702 52.74 44.2802 51.38C44.0902 53.8 43.2602 56.7999 46.3302 58.7099C44.2802 57.2999 47.2002 52.9799 47.7502 50.9399C46.6202 55.3399 47.7102 56.97 48.9902 59.55C47.5502 53.14 54.6502 52.32 53.4602 46.13C54.0502 49.93 51.9902 53.52 51.4202 57.3C51.4202 55.77 53.9502 53.8999 54.3902 52.4799C54.7302 51.3799 55.1402 50.7299 55.1202 49.8499C55.6902 52.1799 56.5901 54.49 54.7301 57.3C58.3301 54.55 57.2302 53.0999 57.5902 51.2199C57.5002 52.5999 57.8202 52.29 57.9502 53.9C58.0702 55.4 56.3901 57.44 57.7301 59.75C56.9701 58.01 60.3101 55.45 60.8501 53.79C61.2201 52.66 61.3202 51.79 60.7802 50.64C61.4602 52.71 62.0602 53.8799 62.1202 56.0699C62.1702 57.9299 61.9002 59.5099 60.6202 61.4499C64.3902 59.3299 64.1601 55.8999 64.1001 52.2299C65.4201 55.4399 65.5602 58.71 63.8802 60.05C66.0202 59.03 66.2702 57.55 66.6402 56.52C66.8802 55.88 67.0602 54.09 67.0502 52.15C68.2302 54.62 66.5401 57.68 68.6601 60.52C67.8201 57.31 72.3302 49.06 65.7702 42.29C61.8602 38.26 52.2902 35.9499 46.9402 36.9499C43.9702 37.4999 39.9501 39.82 37.2901 41.9C27.5901 49.47 36.2802 57.29 36.5702 60.87L36.5602 60.8399Z" fill="#846547"/>
<path d="M50.5901 36.73C50.5901 36.73 47.8901 33.2901 46.0101 37.7601C44.1301 42.2301 45.7701 45.06 46.5201 46.94C46.5201 46.94 45.0201 36.17 50.5901 36.74V36.73Z" fill="#7C5F44"/>
<path d="M47.24 36.98C47.24 36.98 42.43 34.25 41.51 42.1C41.14 45.22 41.99 46.94 41.99 46.94C41.99 46.94 40.99 40.36 47.24 36.98Z" fill="#7C5F44"/>
<path d="M51.8101 36.87C51.8101 36.87 53.7501 33.8401 56.3901 37.9001C57.9401 40.2801 56.6301 45.21 55.8801 47.08C55.8801 47.08 57.4901 36.7701 51.8101 36.8801V36.87Z" fill="#7C5F44"/>
<path d="M56.9299 37.82C56.9299 37.82 61.4399 35.17 63.2299 42.87C63.5199 44.11 63.9999 47.89 63.9999 47.89C63.9999 47.89 63.0799 41.21 56.9199 37.82H56.9299Z" fill="#7C5F44"/>
<path d="M62.99 40.22C62.99 40.22 67.56 39.34 67.02 47.22L65.91 52.1801C65.91 52.1801 67.67 42.61 63 40.22H62.99Z" fill="#7C5F44"/>
<path d="M42.93 38.4301C42.93 38.4301 38.3601 37.5401 38.9001 45.4301L40.01 50.39C40.01 50.39 38.25 40.8201 42.92 38.4301H42.93Z" fill="#7C5F44"/>
</svg>
