<svg width="102" height="102" viewBox="0 0 102 102" fill="none" xmlns="http://www.w3.org/2000/svg">
<path d="M92.8899 0.190002H9.29987C4.51156 0.190002 0.629883 4.07168 0.629883 8.85999V92.45C0.629883 97.2383 4.51156 101.12 9.29987 101.12H92.8899C97.6782 101.12 101.56 97.2383 101.56 92.45V8.85999C101.56 4.07168 97.6782 0.190002 92.8899 0.190002Z" fill="#24B999"/>
<path d="M52.2199 79.69C51.8099 79.69 51.4299 79.5 51.1699 79.2C50.9999 79.27 50.82 79.3 50.64 79.3C50.21 79.3 49.7999 79.1 49.5399 78.74C49.3399 78.47 49.25 78.14 49.28 77.82C49.19 77.73 49.1099 77.62 49.0399 77.5C48.7899 77.04 48.8299 76.5 49.1099 76.09C49.1099 76.09 49.1 76.07 49.09 76.06C49.08 76.04 49.06 76.01 49.03 75.97C48.62 75.62 48.12 75.28 47.59 74.91C46.83 74.39 46.0599 73.86 45.3799 73.21C41.4699 72.02 37.3799 69.92 34.0699 67.41C34.0399 67.39 33.9999 67.37 33.9699 67.34L33.9 67.28C33.33 66.84 32.76 66.36 32.21 65.88C31.96 65.66 31.7199 65.43 31.4699 65.2C31.2399 65.28 30.9999 65.33 30.7599 65.33C29.5999 65.33 28.9 64.39 28.39 63.71C28.24 63.51 28.0999 63.32 27.9899 63.2C27.9299 63.13 27.7299 62.92 27.1799 62.92C26.7399 62.92 26.3599 63.06 26.3499 63.06C26.1999 63.12 26.0399 63.14 25.8799 63.14C25.4699 63.14 25.0699 62.96 24.8099 62.63C24.4399 62.17 24.4099 61.53 24.7199 61.04C24.7199 61.03 24.8499 60.83 25.0699 60.54C23.8199 59.28 22.93 57.9 22.89 57.83C22.62 57.41 22.6099 56.9 22.8199 56.47C22.0299 55.5 21.55 54.57 21.46 54.4C21.18 53.86 21.2999 53.2 21.7399 52.78C21.9999 52.53 22.3399 52.41 22.6799 52.41C22.9199 52.41 23.1499 52.47 23.3699 52.59C23.3699 52.59 23.83 52.83 24.39 52.83C24.68 52.83 24.9299 52.77 25.1799 52.65C25.2999 52.59 25.5299 52.36 25.6999 52.17C25.8599 49.95 26.39 47.53 27.28 44.96C27.33 44.57 27.4499 44.11 27.7299 43.73C27.9899 43.07 28.2699 42.39 28.5699 41.72C27.6599 40.25 25.36 36.17 25.02 32.28C24.7 28.65 25.2699 26.09 26.8199 24.21C27.1699 23.78 29.0499 21.64 31.3499 21.64C32.1099 21.64 32.8199 21.87 33.4499 22.31C34.6899 23.18 34.97 23.86 36.14 26.75C36.87 28.54 38.4199 28.95 38.9899 29.04C39.1799 29.04 39.36 29.06 39.52 29.1C39.63 29.12 39.83 29.15 40.15 29.15C40.49 29.15 40.9199 29.12 41.4199 29.05C42.4099 28.73 43.42 28.45 44.4 28.22C45.15 27.97 45.91 27.78 46.64 27.64C48.06 27.38 49.3899 27.24 50.3799 27.24C50.6199 27.24 50.84 27.24 51.03 27.27C51.18 27.23 51.3299 27.22 51.4899 27.22C51.6299 27.22 51.76 27.23 51.89 27.26C52.05 27.25 52.21 27.24 52.4 27.24C53.38 27.24 54.71 27.38 56.15 27.64C56.96 27.79 57.7799 28.01 58.6099 28.29C58.9699 28.38 59.3299 28.47 59.6799 28.57C60.9199 28.81 62.2799 29.04 63.1599 29.07C63.1999 29.07 63.2499 29.07 63.2899 29.07C63.3099 29.07 65.4699 29 66.3599 26.78L66.3699 26.75C67.5399 23.87 67.8199 23.18 69.0599 22.31C69.6999 21.86 70.3999 21.64 71.1599 21.64C73.4599 21.64 75.3399 23.78 75.6899 24.2C77.2399 26.08 77.8099 28.64 77.4999 32.27C77.1899 35.84 75.2099 39.58 74.1799 41.32C74.5599 42.16 74.9099 43 75.2299 43.82C75.6599 44.32 75.7699 45 75.7999 45.39C76.4299 47.26 76.86 49.05 77.09 50.74C77.33 50.94 77.5299 51.15 77.7299 51.36C77.9099 51.55 78.1799 51.84 78.3099 51.9C78.5599 52.02 78.8199 52.09 79.1099 52.09C79.6799 52.09 80.14 51.84 80.14 51.84C80.35 51.72 80.5899 51.66 80.8199 51.66C81.1599 51.66 81.4999 51.79 81.7599 52.04C82.1999 52.46 82.31 53.12 82.03 53.66C81.94 53.83 81.4499 54.77 80.6699 55.74C80.8899 56.17 80.8699 56.68 80.6099 57.1C80.5599 57.17 79.6699 58.55 78.4199 59.81C78.6299 60.11 78.76 60.3 78.77 60.31C79.09 60.81 79.0599 61.45 78.6799 61.91C78.4099 62.24 78.0199 62.42 77.6199 62.42C77.4599 62.42 77.2899 62.39 77.1299 62.33C77.1299 62.33 76.7499 62.19 76.3099 62.19C75.7599 62.19 75.5699 62.4 75.4999 62.47C75.3799 62.6 75.24 62.79 75.09 62.98C74.58 63.67 73.8899 64.6 72.7199 64.6C72.6299 64.6 72.5199 64.6 72.4099 64.58C72.0599 64.96 71.7 65.32 71.33 65.68C70.75 66.23 70.17 66.74 69.59 67.21C66.27 69.9 62.18 72.04 58.03 73.24C57.4 73.96 56.6799 74.64 55.9699 75.31C55.3999 75.85 54.8699 76.35 54.4399 76.82C54.6999 77.39 54.5399 78.07 54.0399 78.46C53.8899 78.58 53.7199 78.66 53.5399 78.71C53.4099 79.17 53.0499 79.55 52.5499 79.67C52.4399 79.7 52.3299 79.71 52.2199 79.71V79.69Z" fill="#2F150C"/>
<path d="M80.7999 53C80.7999 53 79.2699 53.89 77.6899 53.1C76.9799 52.74 76.3999 51.72 75.7999 51.52C75.5899 49.53 75.0899 47.53 74.4299 45.61C74.4299 45.61 74.4299 45.6 74.4299 45.59C74.4299 45.29 74.34 44.82 74.14 44.65C74.09 44.61 74.0499 44.53 73.9999 44.44C73.5799 43.32 73.1099 42.24 72.6299 41.22C73.3299 40.12 75.7999 35.97 76.1299 32.14C76.4499 28.48 75.7599 26.43 74.6299 25.06C74.3599 24.73 71.93 21.95 69.84 23.42C68.93 24.06 68.7499 24.5 67.6299 27.28C66.5099 30.06 63.8499 30.42 63.2899 30.42C62.3499 30.42 60.9299 30.19 59.3699 29.89C58.9899 29.79 58.6099 29.68 58.2199 29.59C57.5499 29.36 56.7699 29.13 55.9099 28.97C54.0799 28.64 52.49 28.52 51.71 28.63C51.63 28.53 51.3099 28.54 51.2199 28.65C50.5199 28.5 48.8299 28.61 46.8799 28.96C46.1099 29.1 45.39 29.3 44.77 29.51C43.69 29.76 42.67 30.05 41.71 30.36C40.7 30.5 39.83 30.53 39.21 30.4C39.11 30.38 38.9899 30.37 38.8699 30.37C37.9499 30.25 35.8399 29.65 34.8599 27.25C33.7399 24.47 33.56 24.03 32.65 23.39C30.55 21.92 28.1299 24.7 27.8599 25.03C26.7299 26.39 26.0399 28.45 26.3599 32.11C26.7499 36.57 30.0499 41.47 30.0499 41.47C30.0799 41.47 30.11 41.47 30.15 41.47C29.72 42.4 29.2999 43.38 28.9099 44.39C28.9099 44.39 28.9 44.41 28.89 44.42C28.72 44.57 28.6299 44.93 28.6099 45.22C27.7499 47.64 27.13 50.21 27.02 52.71C26.63 53.09 26.23 53.6 25.78 53.82C24.2 54.61 22.6699 53.72 22.6699 53.72C22.6699 53.72 23.9999 56.34 25.7999 57.23C24.8799 57.37 24.03 57.04 24.03 57.04C24.03 57.04 25.3299 59.06 26.9099 60.32C26.2699 61.1 25.8699 61.73 25.8699 61.73C25.8699 61.73 27.8299 60.98 28.9899 62.23C29.7899 63.09 30.4699 64.82 31.6099 63.38C32.0899 63.88 32.5899 64.37 33.1199 64.84C33.6399 65.31 34.1899 65.76 34.7499 66.19C34.7699 66.21 34.7899 66.23 34.8099 66.24C38.2699 68.89 42.39 70.9 46.09 71.98C47.2 73.15 48.8799 74 50.0099 75C50.1199 75.12 50.21 75.25 50.28 75.39C50.81 76.35 50.2299 76.85 50.2299 76.85C50.2299 76.85 50.87 76.67 50.96 76.07C51.5 76.9 50.6299 77.93 50.6299 77.93C50.6299 77.93 51.9499 77.38 51.9699 76.68C51.9899 77.43 52.21 78.31 52.21 78.31C52.21 78.31 52.1799 78.18 52.3699 77.18C52.4099 76.95 52.7499 76.41 52.8499 76.29L52.8799 76.27C52.6199 76.84 53.1799 77.35 53.1799 77.35C53.1799 77.35 52.7599 76.58 53.4199 75.86C54.5099 74.66 56.1399 73.34 57.2399 72C61.1899 70.91 65.34 68.84 68.71 66.11C69.29 65.64 69.8399 65.16 70.3699 64.66C70.9699 64.09 71.5299 63.49 72.0499 62.87C73.0799 63.89 73.7199 62.31 74.4799 61.5C75.6399 60.25 77.5999 61.01 77.5999 61.01C77.5999 61.01 77.1899 60.37 76.5499 59.59C78.1399 58.33 79.4299 56.31 79.4299 56.31C79.4299 56.31 78.5699 56.63 77.6599 56.5C79.4599 55.61 80.7899 52.99 80.7899 52.99L80.7999 53Z" fill="#2F150C"/>
<path d="M63.82 30.38C61.63 30.7 54.58 28.57 51.46 28.68C47.82 28.81 41.62 30.93 39.22 30.4C36.7 29.85 28.92 36.7499 30.91 40.4699C31.97 42.4499 36.3 28.53 52.33 28.7C66.75 28.85 71.05 42.4499 72.11 40.4699C74.1 36.7499 66.37 30.01 63.82 30.38Z" fill="#D87F34"/>
<path d="M31.6199 57.6C31.3499 57.5 31.0699 57.47 30.7899 57.5C30.7199 57.19 30.6299 56.9 30.5099 56.65C30.0499 55.69 29.6599 55.18 29.3199 54.97C29.3199 54.65 29.2799 54.31 29.1599 53.99C27.8999 50.46 27.0499 53.2 25.7899 53.83C24.2099 54.62 22.6799 53.73 22.6799 53.73C22.6799 53.73 24.0099 56.35 25.8099 57.24C24.8899 57.38 24.0399 57.05 24.0399 57.05C24.0399 57.05 25.3399 59.07 26.9199 60.33C26.2799 61.11 25.8799 61.74 25.8799 61.74C25.8799 61.74 27.8399 60.99 28.9999 62.24C29.9599 63.27 30.7399 65.54 32.3499 62.15C33.0299 60.72 32.9499 58.08 31.6299 57.6H31.6199Z" fill="#D87F34"/>
<path d="M71.85 56.86C72.12 56.76 72.4 56.73 72.68 56.76C72.75 56.45 72.8399 56.16 72.9699 55.91C73.4199 54.95 73.8099 54.44 74.1599 54.24C74.1599 53.92 74.2 53.58 74.32 53.25C75.58 49.72 76.43 52.46 77.69 53.09C79.27 53.88 80.8 52.99 80.8 52.99C80.8 52.99 79.47 55.61 77.67 56.5C78.58 56.64 79.44 56.31 79.44 56.31C79.44 56.31 78.14 58.33 76.56 59.59C77.2 60.37 77.61 61.01 77.61 61.01C77.61 61.01 75.65 60.26 74.49 61.5C73.53 62.53 72.75 64.8 71.14 61.41C70.46 59.98 70.54 57.34 71.86 56.86H71.85Z" fill="#D87F34"/>
<path d="M75.91 53.48C75.91 53.82 75.9 54.15 75.87 54.48C75.86 54.6 75.85 54.73 75.83 54.85C74.66 64.79 61 72.67 51.76 72.84C51.66 72.84 51.56 72.84 51.46 72.84C43.52 72.84 28.43 64.93 27.11 54.89C27.05 54.42 27.01 53.95 27.01 53.48C27.01 44.04 34.91 33.27 34.91 33.27C34.91 33.27 42.89 28.69 51.46 28.69C59.53 28.69 68.01 33.27 68.01 33.27C68.01 33.27 75.91 44.05 75.91 53.48Z" fill="#D87F34"/>
<path d="M51.4601 68.95C47.8301 68.95 42.4001 66.99 37.9601 64.08C32.8701 60.74 29.6501 56.59 29.1401 52.71C29.0901 52.33 29.0601 51.94 29.0601 51.54C29.0601 43.75 35.0301 34.68 36.3401 32.79C37.9601 31.94 44.5801 28.69 51.4601 28.69C57.9401 28.69 64.8601 31.94 66.5901 32.81C67.9201 34.74 73.85 43.78 73.85 51.54C73.85 51.82 73.8401 52.11 73.8201 52.38C73.8201 52.48 73.8 52.59 73.79 52.69C72.72 61.75 59.67 68.8 51.72 68.95H51.7601H51.4601Z" fill="#F8983F"/>
<path d="M31.5801 50.17C31.5801 50.17 36.3 59.94 40.36 59.94C43.46 59.94 47.3301 58.3499 47.3301 58.3499C47.3301 58.3499 48.9701 42.08 40.0001 41.56C35.9601 41.32 31.5801 50.17 31.5801 50.17Z" fill="white"/>
<path d="M71.4199 50.17C71.4199 50.17 66.7 59.94 62.64 59.94C59.54 59.94 55.6699 58.3499 55.6699 58.3499C55.6699 58.3499 54.02 42.08 63 41.56C67.04 41.32 71.4199 50.17 71.4199 50.17Z" fill="white"/>
<path d="M75.8299 54.86C75.3999 58.49 73.3099 61.85 70.3799 64.66C69.8499 65.16 69.2998 65.65 68.7198 66.11C63.7098 70.17 57.0199 72.76 51.7599 72.86C51.6599 72.86 51.5599 72.86 51.4599 72.86C46.9199 72.86 40.0599 70.28 34.7599 66.19C34.1999 65.76 33.6499 65.3 33.1199 64.83C29.9499 62 27.5999 58.59 27.1099 54.9C30.7099 54.48 30.9599 59.73 39.7999 63.81C41.1499 64.43 44.1799 66.56 47.4599 65.25C50.0799 64.19 53.4299 64.1 56.6999 65.41C59.9799 66.72 64.1298 63.36 65.4698 62.73C73.8098 58.88 72.5899 54.65 75.8299 54.84" fill="#E9E9EA"/>
<path d="M51.4599 71.56C47.5099 71.56 41.9099 69.56 37.1899 66.46C34.1299 64.45 28.9799 60.34 27.8899 54.85C28.0099 54.85 28.1299 54.85 28.2499 54.85C30.4099 54.85 35.1999 59.93 36.6899 61.07C39.1099 62.92 43.6199 64.41 44.8599 64.41C45.6799 64.41 58.8399 64.87 59.5399 64.49C60.6399 63.89 64.6299 62.45 65.8199 61.63C67.3599 60.57 72.9799 54.91 75.0399 54.85C73.3299 64.37 60.1499 71.41 51.7399 71.56H51.4499" fill="white"/>
<path d="M65.08 31.11C65.08 31.11 68.04 28.85 68.46 27.22C68.88 25.59 69.2999 23.81 70.6099 23.7C71.9199 23.6 73.4499 24.23 73.9799 25.12C74.4999 26.01 76.4999 27.35 74.8699 32.36C73.2399 37.36 71.09 38.78 71.09 38.78H68.9299C68.9299 38.78 63.76 33.89 65.08 31.11Z" fill="white"/>
<path d="M35.96 43.7C35.96 43.7 35.9699 43.66 36.0099 43.59C36.0499 43.52 36.0999 43.42 36.1799 43.3C36.2599 43.18 36.3599 43.04 36.4899 42.89C36.6199 42.75 36.77 42.56 36.96 42.41C37.05 42.33 37.1499 42.24 37.2599 42.16C37.3699 42.08 37.4899 42.01 37.6099 41.93C37.7299 41.84 37.8599 41.79 37.9999 41.71C38.1399 41.64 38.2699 41.56 38.4299 41.52C38.7299 41.41 39.0499 41.3 39.3799 41.26C39.7099 41.18 40.0599 41.19 40.4099 41.18C40.7599 41.18 41.0999 41.26 41.4299 41.32C41.7499 41.42 42.0699 41.53 42.3599 41.65C42.6399 41.8 42.9 41.95 43.14 42.1C43.37 42.26 43.5699 42.45 43.7599 42.61C43.8499 42.69 43.94 42.77 44.02 42.85C44.1 42.93 44.1599 43.02 44.2199 43.1C44.3499 43.25 44.45 43.39 44.53 43.51C44.69 43.74 44.77 43.88 44.77 43.88C44.77 43.88 44.6099 43.83 44.3499 43.72C44.2199 43.67 44.07 43.6 43.9 43.52C43.74 43.43 43.54 43.36 43.33 43.29C43.12 43.21 42.9099 43.11 42.6699 43.03C42.4299 42.96 42.1799 42.89 41.9399 42.8C41.6799 42.75 41.4199 42.7 41.1599 42.63C41.0299 42.62 40.8899 42.61 40.7599 42.59C40.6299 42.58 40.4899 42.55 40.3599 42.56C40.0899 42.56 39.8299 42.55 39.5599 42.58C39.4299 42.6 39.2899 42.58 39.1699 42.62C39.0399 42.65 38.91 42.67 38.78 42.69C38.65 42.7 38.5299 42.75 38.4099 42.78C38.2899 42.81 38.1599 42.83 38.0499 42.88C37.8099 42.95 37.59 43.02 37.39 43.1C37.18 43.17 36.9899 43.26 36.8199 43.32C36.6599 43.41 36.4899 43.46 36.3799 43.52C36.2499 43.58 36.15 43.63 36.09 43.66C36.02 43.69 35.9799 43.71 35.9799 43.71L35.96 43.7Z" fill="#2D2D2C"/>
<path d="M67.1201 43.7C67.1201 43.7 67.0801 43.68 67.0101 43.65C66.9501 43.62 66.85 43.57 66.72 43.51C66.6 43.45 66.4401 43.39 66.2801 43.31C66.1101 43.25 65.9201 43.16 65.7101 43.09C65.5101 43.01 65.28 42.94 65.05 42.87C64.93 42.83 64.8101 42.8 64.6901 42.77C64.5701 42.75 64.4501 42.69 64.3201 42.68C64.1901 42.66 64.0601 42.64 63.9301 42.61C63.8001 42.58 63.67 42.59 63.54 42.57C63.28 42.53 63.0101 42.55 62.7401 42.55C62.6101 42.54 62.4701 42.57 62.3401 42.58C62.2101 42.6 62.0701 42.61 61.9401 42.62C61.6801 42.69 61.42 42.73 61.16 42.79C60.91 42.88 60.6701 42.95 60.4301 43.02C60.1901 43.1 59.9801 43.2 59.7701 43.28C59.5601 43.36 59.3601 43.43 59.2001 43.51C59.0401 43.59 58.8801 43.65 58.7501 43.71C58.4901 43.82 58.3301 43.87 58.3301 43.87C58.3301 43.87 58.4101 43.73 58.5701 43.5C58.6601 43.39 58.7501 43.24 58.8801 43.09C58.9401 43.01 59.0101 42.93 59.0901 42.84C59.1701 42.76 59.2501 42.69 59.3401 42.6C59.5201 42.44 59.7201 42.26 59.9601 42.09C60.2001 41.94 60.4701 41.79 60.7401 41.64C61.0301 41.52 61.35 41.41 61.67 41.31C62 41.26 62.3401 41.18 62.6901 41.17C63.0401 41.17 63.38 41.17 63.72 41.25C64.06 41.29 64.37 41.4 64.67 41.51C64.82 41.56 64.96 41.64 65.1 41.7C65.23 41.77 65.3701 41.83 65.4901 41.92C65.6101 42 65.7301 42.08 65.8401 42.15C65.9501 42.23 66.0501 42.32 66.1401 42.4C66.3301 42.55 66.48 42.74 66.61 42.88C66.74 43.03 66.84 43.17 66.92 43.29C67 43.41 67.0501 43.51 67.0901 43.58C67.1201 43.65 67.1401 43.69 67.1401 43.69L67.1201 43.7Z" fill="#2D2D2C"/>
<path d="M48.5399 57.1C48.5399 59.8 48.6099 61.26 47.5999 61.3C46.4399 61.35 47.5999 60 47.1599 57.86C46.6099 55.2 42.7799 49.39 43.6899 49.39C44.5999 49.39 48.5399 54.4 48.5399 57.1Z" fill="#2D2C2C"/>
<path d="M54.6799 57.1C54.6799 59.8 54.6199 61.26 55.6199 61.3C56.7799 61.35 55.6199 60 56.0599 57.86C56.6099 55.2 60.4399 49.39 59.5299 49.39C58.6199 49.39 54.6799 54.4 54.6799 57.1Z" fill="#2D2C2C"/>
<path d="M58.4399 69.44C58.4399 68.93 58.0799 67.82 57.9399 67.41C53.9399 69.87 51.46 67.41 51.46 67.41C51.46 67.41 48.99 69.63 45.21 67.6C45.14 67.94 44.96 69.01 44.96 69.41C44.96 72.18 48.1999 73.4 50.0099 75.01C50.1199 75.13 50.21 75.26 50.28 75.4C50.81 76.36 50.2299 76.86 50.2299 76.86C50.2299 76.86 50.87 76.68 50.96 76.08C51.5 76.91 50.6299 77.94 50.6299 77.94C50.6299 77.94 51.9499 77.39 51.9699 76.69C51.9899 77.44 52.21 78.32 52.21 78.32C52.21 78.32 52.1799 78.19 52.3699 77.19C52.4099 76.96 52.7499 76.42 52.8499 76.3L52.8799 76.28C52.6199 76.85 53.1799 77.36 53.1799 77.36C53.1799 77.36 52.7599 76.59 53.4199 75.87C55.1999 73.92 58.4299 71.63 58.4299 69.44" fill="white"/>
<path d="M45.3899 67.53H45.1399V67.69H45.3899V67.53Z" fill="#F1F0F0"/>
<path d="M51.8199 67.7C51.5799 67.54 51.46 67.41 51.46 67.41C51.46 67.41 51.3599 67.5 51.1699 67.63C51.2999 67.5 51.4 67.36 51.46 67.21C51.53 67.39 51.6499 67.55 51.8199 67.7Z" fill="#CECBCB"/>
<path d="M51.2999 73.84C51.2299 73.65 51.1199 73.44 50.9699 73.21L50.14 71.94L50.0999 72.23C50.0999 72.23 50.0199 72.13 49.9799 72.08L49.96 72.05L49.9299 72.02C49.4199 71.57 48.8099 71.15 48.2199 70.74C46.9399 69.86 45.62 68.96 45.2 67.68C45.2 67.64 45.2099 67.61 45.2199 67.58C45.2799 67.61 45.34 67.65 45.4 67.68C46.21 68.17 47.3299 68.52 48.1899 68.52C49.3099 68.52 50.5799 68.19 51.1799 67.61C51.3699 67.48 51.4699 67.39 51.4699 67.39C51.4699 67.39 51.59 67.51 51.83 67.68C52.43 68.21 53.57 68.51 54.64 68.51C55.44 68.51 56.4499 68.22 57.2299 67.79C56.7099 69.18 55.1199 70.93 52.6299 72.85L52.5099 72.94V72.96L52.0599 73.27L52.0099 73.31L51.9699 73.36L51.3099 73.81" fill="#F1F0F0"/>
<path d="M51.4499 66.57C51.4499 66.57 51.4199 66.47 51.3899 66.42C51.3999 66.42 51.4199 66.42 51.4299 66.42C51.4499 66.42 51.4799 66.42 51.4999 66.42C51.4799 66.47 51.4599 66.52 51.4499 66.57Z" fill="#CECBCB"/>
<path d="M47.08 41.39C45.8 41.62 44.6899 41.45 44.6899 41.45C44.6899 41.45 45.6599 40.9 46.9399 40.67C48.2199 40.44 49.29 40.41 49.33 40.61C49.37 40.81 48.35 41.16 47.08 41.39Z" fill="#2D2C2C"/>
<path d="M55.7099 41.39C56.9899 41.62 58.0899 41.45 58.0899 41.45C58.0899 41.45 57.1199 40.9 55.8399 40.67C54.5599 40.44 53.4899 40.41 53.4499 40.61C53.4199 40.81 54.4199 41.16 55.7099 41.39Z" fill="#2D2C2C"/>
<path d="M40.0299 65.88C39.8999 66.05 37.2698 66.27 34.8498 65.07V65.31C34.8498 65.51 34.9199 65.98 34.8199 66.25C34.2499 65.8 33.6998 65.33 33.1698 64.84V64.45C33.1698 64.3 33.2199 64.17 33.3099 64.05C30.9799 62.05 30.2899 58.94 30.4299 58.75C30.5799 58.55 31.5399 61.61 34.1899 63.58C36.8399 65.55 40.1799 65.67 40.0299 65.87V65.88Z" fill="#2D2C2C"/>
<path d="M28.8999 44.43C29.0699 44.28 29.2099 43.66 29.4499 43.66C29.8199 43.66 30.0799 44.04 30.2499 44.43C30.5299 44.59 30.5599 46.03 30.5599 46.99C30.5599 47.72 31.2899 49.17 31.1999 49.28C31.0999 49.4 30.4599 49.41 30.0499 48.97C29.7099 48.61 29.6199 48.06 29.6499 47.8C29.6099 47.56 29.5899 47.28 29.5899 47C29.5899 46.65 29.6199 46.25 29.6799 45.86C29.6099 45.88 29.5299 45.89 29.4599 45.89C28.9299 45.89 28.6199 45.92 28.6199 45.37C28.6199 45.07 28.6999 44.61 28.9099 44.43H28.8999Z" fill="#2D2C2C"/>
<path d="M70.3299 63.89C70.4199 64 70.4798 64.14 70.4698 64.29V64.53C69.9398 65.05 69.3799 65.55 68.7999 66.04C68.7199 65.77 68.7799 65.34 68.7899 65.15V64.91C66.3699 66.11 63.7399 65.89 63.6099 65.72C63.4599 65.52 66.7999 65.4 69.4599 63.43C72.1099 61.47 73.0798 58.41 73.2198 58.61C73.3598 58.8 72.6699 61.91 70.3299 63.9V63.89Z" fill="#2D2C2C"/>
<path d="M74.14 44.63C73.98 44.48 73.83 43.86 73.59 43.86C73.22 43.86 72.9599 44.24 72.7899 44.63C72.5099 44.79 72.4799 46.22 72.4799 47.19C72.4799 47.92 71.75 49.37 71.84 49.48C71.94 49.6 72.5799 49.61 72.9899 49.17C73.3299 48.81 73.42 48.26 73.39 48C73.43 47.76 73.4499 47.48 73.4499 47.19C73.4499 46.85 73.4199 46.44 73.3599 46.06C73.4399 46.08 73.51 46.09 73.58 46.09C74.11 46.09 74.4199 46.12 74.4199 45.57C74.4199 45.27 74.3299 44.8 74.1299 44.63H74.14Z" fill="#2D2C2C"/>
<path d="M47.33 58.35C39.88 61.9 34.63 59.6001 32.26 50.4001C32.26 50.4001 41.23 43.44 45.99 52.36C46.73 53.75 47.33 58.35 47.33 58.35Z" fill="white"/>
<path d="M40.1199 58.94C38.0499 58.9 36.32 57.26 35.65 54.98C35.44 54.29 35.3399 53.53 35.3599 52.75C35.4299 49.58 37.3999 48.45 39.8799 48.37C40.0399 48.37 40.1899 48.36 40.3499 48.37C43.0499 48.43 45.1 51.23 45.15 52.96C45.24 56.33 42.8299 59.01 40.1299 58.95" fill="#ECB61E"/>
<path d="M40.1399 58.08C38.5699 58.04 37.1899 56.7 36.6299 54.66C36.4499 54.01 36.3599 53.33 36.3799 52.62C36.4199 50.25 37.55 49.12 39.9 49.05C40.02 49.05 40.1399 49.04 40.2599 49.04H40.33C42.46 49.09 44.0799 51.57 44.1099 52.85C44.1499 54.39 43.6299 55.86 42.6999 56.88C41.9799 57.66 41.0999 58.09 40.1999 58.09H40.1399" fill="#6C5221"/>
<path d="M55.6499 58.35C63.0999 61.9 68.3498 59.6001 70.7198 50.4001C70.7198 50.4001 61.7499 43.44 56.9899 52.36C56.2499 53.75 55.6499 58.35 55.6499 58.35Z" fill="white"/>
<path d="M62.8498 58.94C64.9198 58.9 66.6498 57.26 67.3198 54.98C67.5298 54.29 67.6298 53.53 67.6098 52.75C67.5498 49.58 65.5698 48.45 63.0898 48.37C62.9398 48.37 62.7798 48.36 62.6198 48.37C59.9198 48.43 57.8698 51.23 57.8198 52.96C57.7298 56.33 60.1398 59.01 62.8398 58.95" fill="#ECB61E"/>
<path d="M62.7701 58.08C61.8801 58.08 60.9901 57.65 60.2701 56.87C59.3401 55.85 58.8201 54.38 58.8601 52.84C58.8901 51.56 60.5201 49.08 62.6501 49.04H62.7101C62.8301 49.04 62.9501 49.04 63.0601 49.04C65.4201 49.11 66.5401 50.25 66.5801 52.61C66.6001 53.32 66.5101 54 66.3301 54.65C65.7701 56.7 64.3901 58.04 62.8201 58.07H62.7601" fill="#6C5221"/>
<path d="M40.45 51.47C40.41 53.51 39.04 55.14 37.41 55.1C36.67 55.08 36 54.73 35.49 54.16C35.31 53.55 35.22 52.89 35.23 52.2C35.29 49.42 37.02 48.43 39.19 48.37C39.97 49.05 40.47 50.19 40.45 51.47Z" fill="white"/>
<path d="M43.0299 57.37C43.0199 58.06 42.5499 58.61 41.9999 58.6C41.4499 58.59 40.9999 58.02 41.0199 57.33C41.0299 56.64 41.4999 56.09 42.0499 56.1C42.6099 56.11 43.0399 56.68 43.0299 57.37Z" fill="white"/>
<path d="M62.72 51.78C62.68 53.82 61.32 55.45 59.68 55.41C58.94 55.39 58.27 55.04 57.76 54.47C57.58 53.86 57.49 53.2 57.5 52.51C57.56 49.73 59.28 48.74 61.46 48.68C62.24 49.36 62.74 50.5 62.71 51.78" fill="white"/>
<path d="M65.4999 57.37C65.4899 58.06 65.0199 58.61 64.4699 58.6C63.9199 58.59 63.4799 58.02 63.4899 57.33C63.4999 56.64 63.9699 56.09 64.5199 56.1C65.0799 56.11 65.5099 56.68 65.4999 57.37Z" fill="white"/>
<path d="M45.99 58.94C46.4 58.78 46.82 58.59 47.25 58.4C46.83 58.6 46.4 58.78 45.99 58.94Z" fill="#DF8E45"/>
<path d="M43.67 49.39C42.27 48.23 40.74 47.81 39.27 47.81C39.09 47.81 38.91 47.81 38.74 47.83C38.92 47.82 39.1 47.81 39.28 47.81C40.75 47.81 42.28 48.23 43.68 49.39" fill="#E2E1E1"/>
<path d="M47.2399 58.39C47.2399 58.39 47.3 58.36 47.33 58.35C47.33 58.35 46.7299 53.75 45.9899 52.36C45.2899 51.05 44.4999 50.08 43.6699 49.39C44.5099 50.09 45.2899 51.06 45.9899 52.36C46.7299 53.75 47.33 58.35 47.33 58.35C47.3 58.36 47.2699 58.38 47.2399 58.39Z" fill="#313030"/>
<path d="M32.65 51.75C32.51 51.32 32.39 50.87 32.27 50.4C32.27 50.4 32.74 50.04 33.51 49.59C32.73 50.04 32.27 50.4 32.27 50.4C32.39 50.87 32.52 51.32 32.65 51.75Z" fill="#E2E1E1"/>
<path d="M45.99 58.94C45.75 57.63 45.42 56.15 45.05 55.47C44.98 55.34 44.92 55.22 44.85 55.1C45.06 54.43 45.16 53.71 45.14 52.95C45.1 51.23 43.05 48.42 40.34 48.36H40.26C40.13 48.36 40 48.36 39.87 48.36C39.65 48.36 39.44 48.38 39.22 48.4C39.21 48.39 39.2 48.38 39.18 48.37C37.22 48.42 35.62 49.24 35.28 51.43C34.36 51.73 33.53 52.13 32.88 52.49C32.79 52.25 32.71 52 32.63 51.74C32.5 51.31 32.37 50.86 32.25 50.39C32.25 50.39 32.72 50.03 33.49 49.58C34.68 48.88 36.62 47.97 38.72 47.83C38.9 47.82 39.08 47.81 39.25 47.81C40.72 47.81 42.25 48.23 43.65 49.39C44.48 50.09 45.27 51.06 45.97 52.36C46.71 53.75 47.31 58.35 47.31 58.35C47.28 58.36 47.25 58.38 47.22 58.39C46.8 58.59 46.37 58.77 45.96 58.93" fill="#E2E1E1"/>
<path d="M44.85 55.09C44.6 54.65 44.33 54.25 44.06 53.89C44.11 53.54 44.13 53.19 44.12 52.84C44.09 51.56 42.46 49.08 40.34 49.04H40.27C40.15 49.04 40.03 49.04 39.91 49.04C39.87 49.04 39.83 49.04 39.79 49.04C39.63 48.8 39.44 48.58 39.24 48.4C39.45 48.38 39.67 48.36 39.89 48.36C40.02 48.36 40.15 48.36 40.28 48.36H40.36C43.06 48.42 45.11 51.22 45.16 52.95C45.18 53.71 45.07 54.43 44.87 55.1" fill="#D7A72D"/>
<path d="M44.0601 53.9C42.9601 52.45 41.7201 51.64 40.4501 51.23C40.4301 50.41 40.18 49.65 39.79 49.05C39.83 49.05 39.87 49.05 39.91 49.05C40.03 49.05 40.1501 49.04 40.2701 49.04H40.3401C42.4701 49.09 44.0901 51.57 44.1201 52.85C44.1301 53.21 44.1101 53.56 44.0601 53.9Z" fill="#6A5326"/>
<path d="M35.2998 51.43C35.6398 49.23 37.2298 48.42 39.1998 48.37C39.2098 48.38 39.2298 48.39 39.2398 48.4C39.4498 48.58 39.6298 48.8 39.7898 49.04C40.1798 49.64 40.4298 50.39 40.4498 51.22C39.7498 51 39.0298 50.9 38.3298 50.9C37.2698 50.9 36.2298 51.12 35.2998 51.42" fill="#E2E1E1"/>
<path d="M56.99 58.94C56.65 58.81 56.31 58.66 55.97 58.51C56.32 58.67 56.66 58.81 56.99 58.94Z" fill="#DF8E45"/>
<path d="M55.9698 58.5C55.8598 58.45 55.7599 58.4 55.6499 58.35C55.6499 58.35 56.2499 53.75 56.9899 52.36C57.2199 51.94 57.4499 51.55 57.6899 51.19C57.4499 51.54 57.2099 51.93 56.9899 52.35C56.2499 53.74 55.6499 58.34 55.6499 58.34C55.7599 58.39 55.8598 58.44 55.9698 58.49" fill="#313030"/>
<path d="M59.95 48.91C61.16 48.11 62.45 47.81 63.7 47.81C63.88 47.81 64.0599 47.81 64.2399 47.83C64.0599 47.82 63.88 47.81 63.71 47.81C62.46 47.81 61.17 48.11 59.96 48.91" fill="#E2E1E1"/>
<path d="M56.9899 58.94C56.6499 58.81 56.3098 58.66 55.9698 58.5C55.8598 58.45 55.7599 58.4 55.6499 58.35C55.6499 58.35 56.2499 53.75 56.9899 52.36C57.2099 51.94 57.4499 51.55 57.6899 51.2C57.5799 51.59 57.5199 52.02 57.5099 52.51C57.4899 53.2 57.5899 53.86 57.7699 54.47C57.8499 54.56 57.9399 54.65 58.0299 54.73C58.0599 54.85 58.0999 54.98 58.1299 55.09C58.0599 55.21 57.9899 55.33 57.9199 55.46C57.5599 56.14 57.2299 57.62 56.9799 58.93M70.0799 52.49C69.3699 52.1 68.4599 51.67 67.4399 51.35C66.8999 49.22 65.1799 48.41 63.0899 48.35C62.9599 48.35 62.8299 48.35 62.6999 48.35H62.6199C62.0699 48.36 61.5399 48.49 61.0599 48.7C60.6699 48.73 60.2999 48.8 59.9499 48.91C61.1599 48.11 62.4499 47.81 63.6999 47.81C63.8799 47.81 64.0599 47.81 64.2299 47.83C66.3299 47.97 68.2699 48.88 69.4599 49.58C70.2299 50.03 70.6999 50.39 70.6999 50.39C70.5699 50.9 70.4299 51.39 70.2799 51.86C70.2099 52.07 70.1399 52.28 70.0699 52.49" fill="#E2E1E1"/>
<path d="M58.13 55.09C58.09 54.97 58.06 54.85 58.03 54.73C58.1 54.79 58.17 54.85 58.24 54.9C58.2 54.96 58.16 55.03 58.13 55.09ZM67.44 51.36C67.09 51.25 66.73 51.16 66.35 51.09C65.91 49.76 64.83 49.11 63.06 49.05C62.94 49.05 62.82 49.04 62.71 49.04H62.65C62.39 49.04 62.15 49.09 61.91 49.16C61.77 48.99 61.63 48.82 61.47 48.69C61.33 48.69 61.2 48.7 61.07 48.71C61.56 48.5 62.08 48.37 62.63 48.36H62.71C62.84 48.36 62.97 48.36 63.1 48.36C65.18 48.42 66.91 49.23 67.45 51.36" fill="#D7A72D"/>
<path d="M62.7 51.18C62.61 50.4 62.3299 49.7 61.9199 49.15C62.1599 49.08 62.3999 49.04 62.6599 49.04H62.7199C62.8399 49.04 62.9599 49.04 63.0699 49.04C64.8499 49.09 65.9199 49.75 66.3599 51.08C65.8099 50.97 65.23 50.91 64.65 50.91C64 50.91 63.35 50.99 62.7 51.18Z" fill="#6A5326"/>
<path d="M58.24 54.91C58.17 54.86 58.1 54.8 58.03 54.74C57.94 54.66 57.85 54.57 57.77 54.48C57.59 53.87 57.5 53.21 57.51 52.52C57.52 52.03 57.58 51.6 57.69 51.21C58.39 50.19 59.15 49.45 59.95 48.92C60.3 48.81 60.67 48.75 61.06 48.71C61.19 48.7 61.33 48.69 61.46 48.69C61.62 48.83 61.77 48.99 61.9 49.16C62.32 49.7 62.6 50.41 62.68 51.19C61.08 51.65 59.52 52.75 58.22 54.92" fill="#E2E1E1"/>
<path d="M47.3298 58.3499C47.2398 57.8899 47.1298 57.44 47.0298 56.98C46.9298 56.53 46.8298 56.07 46.7198 55.63C46.6098 55.18 46.4998 54.7299 46.3598 54.2899C46.2398 53.8399 46.0898 53.44 45.9298 53.02C45.8298 52.82 45.7398 52.56 45.6398 52.42L45.2798 51.8499C45.0198 51.4799 44.7598 51.11 44.4598 50.78C44.3198 50.61 44.1698 50.45 44.0098 50.3C43.8598 50.14 43.6998 49.99 43.5198 49.86C43.3498 49.72 43.1798 49.58 42.9998 49.46C42.8198 49.34 42.6398 49.22 42.4498 49.12C42.0798 48.9 41.6698 48.75 41.2598 48.62C40.8498 48.49 40.4298 48.42 39.9998 48.38C39.5698 48.35 39.1398 48.34 38.7098 48.39C38.2798 48.42 37.8398 48.5099 37.4198 48.5999C36.5598 48.8099 35.7298 49.11 34.9198 49.5C34.5198 49.69 34.1198 49.91 33.7398 50.14C33.3598 50.37 32.9698 50.62 32.6398 50.86L32.8498 50.25L33.1998 51.46C33.2998 51.87 33.4598 52.25 33.5998 52.64C33.7398 53.04 33.8798 53.43 34.0598 53.8C34.2398 54.17 34.3698 54.57 34.5898 54.92C34.7998 55.27 34.9598 55.66 35.2098 55.98C35.4598 56.3 35.6498 56.67 35.9498 56.95C36.2198 57.24 36.4698 57.57 36.7898 57.81L37.2398 58.21L37.7498 58.53C38.0798 58.77 38.4498 58.91 38.8198 59.08C39.1898 59.25 39.5898 59.31 39.9798 59.44C40.3798 59.49 40.7898 59.57 41.1998 59.59C41.6098 59.58 42.0298 59.63 42.4398 59.58C42.8498 59.53 43.2798 59.53 43.6898 59.43C44.0998 59.34 44.5198 59.2899 44.9198 59.1599C45.3298 59.0399 45.7398 58.9399 46.1398 58.7899L47.3498 58.36L47.3298 58.3499ZM47.3298 58.3499L46.1898 58.94C45.8098 59.13 45.3998 59.27 44.9998 59.44C44.5998 59.62 44.1798 59.7099 43.7598 59.8499C43.3498 59.9999 42.9098 60.04 42.4798 60.14C42.0498 60.24 41.5998 60.22 41.1598 60.26C40.7198 60.27 40.2698 60.22 39.8198 60.19C39.3898 60.08 38.9298 60.04 38.5098 59.87C38.0898 59.71 37.6498 59.57 37.2698 59.32L36.6798 58.98L36.1398 58.56C35.7598 58.3 35.4698 57.96 35.1498 57.63C34.8198 57.32 34.5898 56.93 34.2998 56.58C34.0098 56.23 33.8298 55.83 33.5898 55.45C33.3398 55.07 33.1798 54.67 32.9798 54.27C32.7798 53.87 32.6198 53.46 32.4798 53.05C32.3298 52.64 32.1598 52.23 32.0498 51.8L31.6798 50.5399L31.5698 50.17L31.8898 49.93C32.2998 49.62 32.6898 49.36 33.1098 49.12C33.5198 48.88 33.9498 48.65 34.3898 48.45C35.2598 48.04 36.1798 47.71 37.1398 47.5C37.6198 47.4 38.1098 47.33 38.5998 47.3C39.0898 47.26 39.5898 47.29 40.0898 47.34C40.5798 47.4 41.0798 47.51 41.5498 47.67C41.7898 47.76 42.0298 47.83 42.2498 47.95C42.4798 48.05 42.6998 48.17 42.9098 48.3C43.1298 48.42 43.3298 48.5699 43.5298 48.7199C43.7298 48.8599 43.9198 49.03 44.0898 49.2C44.2798 49.36 44.4398 49.5399 44.6098 49.7199C44.7798 49.8999 44.9398 50.08 45.0798 50.28C45.3798 50.66 45.6298 51.07 45.8798 51.48L46.2198 52.11C46.3498 52.37 46.3898 52.56 46.4898 52.78C46.6198 53.23 46.7498 53.73 46.8198 54.19C46.9098 54.65 46.9798 55.11 47.0398 55.58C47.1698 56.5 47.2698 57.43 47.3298 58.36V58.3499Z" fill="#2D2C2C"/>
<path d="M55.6499 58.3499C55.7099 57.4199 55.7999 56.49 55.9399 55.57C55.9999 55.1 56.0699 54.64 56.1599 54.18C56.2399 53.73 56.3599 53.23 56.4899 52.77C56.5799 52.54 56.6299 52.3499 56.7599 52.0999L57.0999 51.4699C57.3499 51.0599 57.5899 50.65 57.8999 50.27C58.0399 50.07 58.1999 49.89 58.3699 49.71C58.5299 49.53 58.6999 49.35 58.8899 49.19C59.0699 49.02 59.2499 48.86 59.4599 48.71C59.6499 48.56 59.8599 48.4099 60.0699 48.2899C60.2799 48.1599 60.4999 48.04 60.7299 47.94C60.9499 47.82 61.1899 47.7399 61.4199 47.6599C61.8999 47.4999 62.3799 47.39 62.8799 47.33C63.3799 47.28 63.8799 47.2499 64.3699 47.2899C64.8699 47.3099 65.3499 47.39 65.8299 47.49C66.7799 47.71 67.6999 48.03 68.5799 48.44C69.0199 48.65 69.4499 48.87 69.8599 49.11C70.2799 49.36 70.6699 49.61 71.0799 49.92L71.3999 50.1599L71.2899 50.53L70.9199 51.7899C70.8099 52.2099 70.6399 52.6199 70.4899 53.0399C70.3399 53.4499 70.1899 53.86 69.9899 54.26C69.7899 54.66 69.6299 55.06 69.3899 55.44C69.1499 55.82 68.9599 56.22 68.6799 56.57C68.3999 56.92 68.1699 57.31 67.8399 57.62C67.5299 57.94 67.2299 58.29 66.8499 58.55L66.3099 58.9699L65.7198 59.31C65.3398 59.56 64.8999 59.7 64.4799 59.86C64.0599 60.03 63.5999 60.07 63.1699 60.18C62.7199 60.21 62.2799 60.26 61.8299 60.25C61.3899 60.21 60.9399 60.23 60.5099 60.13C60.0799 60.03 59.6399 59.99 59.2299 59.84C58.8199 59.7 58.3899 59.61 57.9899 59.43C57.5899 59.26 57.1799 59.12 56.7999 58.93L55.6599 58.34L55.6499 58.3499ZM55.6499 58.3499L56.8599 58.78C57.2599 58.93 57.6799 59.03 58.0799 59.15C58.4799 59.29 58.9099 59.33 59.3099 59.42C59.7199 59.52 60.1399 59.52 60.5599 59.57C60.9699 59.62 61.3899 59.57 61.7999 59.58C62.2099 59.56 62.6099 59.48 63.0199 59.43C63.4099 59.3 63.8099 59.24 64.1799 59.07C64.5499 58.9 64.9299 58.76 65.2499 58.52L65.7599 58.2L66.2099 57.8C66.5299 57.56 66.7799 57.23 67.0599 56.94C67.3499 56.66 67.5499 56.2899 67.7899 55.9699C68.0399 55.6499 68.1999 55.2599 68.4099 54.9099C68.6299 54.5599 68.7599 54.1599 68.9399 53.7899C69.1199 53.4199 69.2699 53.03 69.3999 52.63C69.5399 52.24 69.6899 51.85 69.7899 51.45L70.1399 50.24L70.3499 50.8499C70.0199 50.5999 69.6199 50.35 69.2499 50.13C68.8699 49.9 68.4699 49.69 68.0699 49.49C67.2699 49.1 66.4299 48.8 65.5699 48.59C65.1399 48.49 64.7099 48.41 64.2799 48.38C63.8499 48.33 63.4099 48.34 62.9899 48.37C62.5599 48.41 62.1399 48.49 61.7299 48.61C61.3199 48.74 60.9199 48.89 60.5399 49.11C60.3399 49.21 60.1599 49.32 59.9899 49.45C59.8099 49.57 59.6298 49.6999 59.4698 49.8499C59.2998 49.9799 59.1399 50.1299 58.9799 50.2899C58.8199 50.4399 58.6699 50.6 58.5299 50.77C58.2299 51.1 57.9699 51.47 57.7099 51.84L57.3499 52.4099C57.2499 52.5499 57.1599 52.81 57.0599 53.01C56.8999 53.43 56.7499 53.83 56.6299 54.28C56.4999 54.72 56.3799 55.17 56.2699 55.62C56.1599 56.07 56.0599 56.5199 55.9599 56.9699C55.8599 57.4199 55.7499 57.88 55.6599 58.34L55.6499 58.3499Z" fill="#2D2C2C"/>
<path d="M54.5999 68.03C54.5999 68.68 53.8799 69.26 53.0599 69.63C52.4999 69.88 51.88 70.03 51.4 70.03C50.92 70.03 50.3099 69.89 49.7499 69.64C48.9199 69.28 48.2 68.7 48.2 68.04C48.2 66.93 50.23 66.05 51.4 66.05C52.57 66.05 54.5999 66.94 54.5999 68.04V68.03Z" fill="#B3576F"/>
<path d="M52.9698 69.64C52.4298 69.88 51.8398 70.02 51.3898 70.02C50.9398 70.02 50.3498 69.88 49.8198 69.65C49.9298 69.22 50.3098 68.9 50.7798 68.9C51.0198 68.9 51.2298 68.99 51.3998 69.12C51.5698 68.98 51.7798 68.9 52.0198 68.9C52.4898 68.9 52.8798 69.22 52.9798 69.65L52.9698 69.64Z" fill="#ED7693"/>
<path d="M54.9399 64.09C53.5499 64.09 51.7899 65.53 51.4599 66.56C51.0999 65.52 49.2599 64.09 47.8899 64.09C46.3599 64.09 44.3499 65.4 44.3499 66.42C44.3499 67.44 46.6599 68.53 48.1999 68.53C49.5699 68.53 51.1498 68.04 51.4698 67.21C51.7898 68.03 53.2799 68.53 54.6399 68.53C56.1699 68.53 58.4899 67.44 58.4899 66.42C58.4899 65.4 56.4799 64.09 54.9499 64.09" fill="white"/>
<path d="M58.4898 65.72C58.4598 65.66 58.4398 65.61 58.4098 65.57C58.3798 65.53 58.3598 65.49 58.3298 65.47C58.2898 65.42 58.2698 65.39 58.2698 65.39C58.2698 65.39 58.2898 65.42 58.3298 65.48C58.3498 65.51 58.3698 65.54 58.3998 65.58C58.4298 65.62 58.4498 65.68 58.4798 65.73C58.5298 65.84 58.5698 66 58.5798 66.17C58.5698 66.34 58.5298 66.54 58.4198 66.73C58.2098 67.11 57.8098 67.44 57.3498 67.7C57.1098 67.83 56.8598 67.95 56.5898 68.04C56.3298 68.14 56.0498 68.21 55.7698 68.27C55.4898 68.33 55.2098 68.36 54.9298 68.38C54.6498 68.39 54.3698 68.39 54.1098 68.36C53.8398 68.34 53.5898 68.29 53.3498 68.23C53.1098 68.17 52.8998 68.09 52.6998 68.01C52.5098 67.92 52.3398 67.84 52.1898 67.74C52.0398 67.65 51.9298 67.56 51.8298 67.48C51.7298 67.4 51.6698 67.33 51.6198 67.29C51.5698 67.22 51.5098 67.26 51.5098 67.26L51.5898 66.15H51.3098L51.3898 67.25C51.3898 67.25 51.3298 67.25 51.2798 67.29C51.2298 67.33 51.1698 67.4 51.0698 67.48C50.9698 67.55 50.8598 67.65 50.7098 67.74C50.5698 67.84 50.3998 67.92 50.1998 68.01C50.0098 68.1 49.7898 68.18 49.5598 68.24C49.3198 68.31 49.0698 68.35 48.7998 68.38C48.5298 68.41 48.2598 68.41 47.9798 68.4C47.6998 68.39 47.4098 68.36 47.1298 68.3C46.5698 68.19 46.0098 68 45.5498 67.74C45.3098 67.61 45.0998 67.45 44.9198 67.29C44.7398 67.13 44.5998 66.94 44.4998 66.75C44.3898 66.56 44.3598 66.36 44.3498 66.19C44.3498 66.02 44.3798 65.86 44.4398 65.75C44.4798 65.63 44.5398 65.55 44.5698 65.49C44.6098 65.43 44.6198 65.4 44.6198 65.4C44.6198 65.4 44.5998 65.43 44.5598 65.49C44.5198 65.55 44.4698 65.63 44.4198 65.75C44.3698 65.87 44.3298 66.02 44.3198 66.19C44.3198 66.37 44.3498 66.58 44.4498 66.77C44.5498 66.97 44.6898 67.17 44.8698 67.34C45.0498 67.51 45.2598 67.68 45.4998 67.82C45.9698 68.1 46.5298 68.32 47.0998 68.44C47.3898 68.5 47.6798 68.55 47.9698 68.57C48.2598 68.59 48.5398 68.59 48.8198 68.57C49.0898 68.55 49.3598 68.51 49.6098 68.45C49.8598 68.39 50.0898 68.31 50.2998 68.23C50.5098 68.14 50.6898 68.05 50.8398 67.95C50.9998 67.86 51.1198 67.76 51.2298 67.68C51.3198 67.61 51.3898 67.54 51.4398 67.5C51.4898 67.54 51.5598 67.61 51.6498 67.68C51.7598 67.76 51.8798 67.86 52.0398 67.94C52.1898 68.04 52.3798 68.13 52.5898 68.21C52.7998 68.29 53.0298 68.37 53.2798 68.42C53.5298 68.47 53.7898 68.52 54.0698 68.53C54.3398 68.55 54.6298 68.54 54.9198 68.52C55.2098 68.49 55.4998 68.45 55.7898 68.39C56.0698 68.32 56.3598 68.24 56.6198 68.13C56.8898 68.03 57.1498 67.9 57.3798 67.77C57.8498 67.49 58.2498 67.13 58.4498 66.74C58.5498 66.54 58.5898 66.34 58.5898 66.16C58.5798 65.98 58.5398 65.83 58.4798 65.72H58.4898Z" fill="#2D2C2C"/>
<path d="M50.8499 66.16C50.8499 66.16 50.2099 65.64 49.2199 64.97C48.3499 64.39 48.4399 63.64 48.4399 63.37C48.4399 63.03 49.3399 63.8001 50.3399 64.4601C51.0899 64.9601 50.8599 66.16 50.8599 66.16" fill="#2D2C2C"/>
<path d="M52.0198 66.16C52.0198 66.16 52.6598 65.64 53.6498 64.97C54.5198 64.39 54.4298 63.64 54.4298 63.37C54.4298 63.03 53.5298 63.8001 52.5298 64.4601C51.7798 64.9601 52.0098 66.16 52.0098 66.16" fill="#2D2C2C"/>
<path d="M51.4598 64.03H51.4098C50.3798 64.03 47.6698 61.92 48.5298 64.32C48.6498 64.66 48.7598 64.06 49.0998 64.05C49.5598 64.05 50.2998 64.57 50.6098 64.75C50.7998 64.86 50.3098 66.4 51.4298 66.42C52.5598 66.4 52.0598 64.87 52.2498 64.75C52.5598 64.57 53.2998 64.04 53.7598 64.05C54.1098 64.05 54.2098 64.66 54.3298 64.32C55.1898 61.92 52.4798 64.03 51.4498 64.03" fill="#EF98B7"/>
<path d="M46.6299 66.31C46.6299 66.37 46.58 66.42 46.52 66.42C46.46 66.42 46.4099 66.37 46.4099 66.31C46.4099 66.25 46.46 66.2 46.52 66.2C46.58 66.2 46.6299 66.25 46.6299 66.31Z" fill="#5B5C5C"/>
<path d="M47.73 64.95C47.73 65 47.69 65.05 47.63 65.05C47.57 65.05 47.53 65.01 47.53 64.95C47.53 64.89 47.57 64.85 47.63 64.85C47.69 64.85 47.73 64.89 47.73 64.95Z" fill="#5B5C5C"/>
<path d="M48.3498 66.31C48.3498 66.38 48.2898 66.44 48.2198 66.44C48.1498 66.44 48.0898 66.38 48.0898 66.31C48.0898 66.24 48.1498 66.18 48.2198 66.18C48.2898 66.18 48.3498 66.24 48.3498 66.31Z" fill="#5B5C5C"/>
<path d="M56.1699 66.31C56.1699 66.37 56.22 66.42 56.28 66.42C56.34 66.42 56.39 66.37 56.39 66.31C56.39 66.25 56.34 66.2 56.28 66.2C56.22 66.2 56.1699 66.25 56.1699 66.31Z" fill="#5B5C5C"/>
<path d="M55.0601 64.96C55.0601 65.01 55.1 65.06 55.16 65.06C55.22 65.06 55.2601 65.02 55.2601 64.96C55.2601 64.9 55.22 64.86 55.16 64.86C55.1 64.86 55.0601 64.9 55.0601 64.96Z" fill="#5B5C5C"/>
<path d="M54.4399 66.31C54.4399 66.38 54.4999 66.44 54.5699 66.44C54.6399 66.44 54.7 66.38 54.7 66.31C54.7 66.24 54.6399 66.18 54.5699 66.18C54.4899 66.18 54.4399 66.24 54.4399 66.31Z" fill="#5B5C5C"/>
<path d="M42.72 64.62C43.27 64.75 43.81 64.88 44.36 65.01C44.63 65.08 44.91 65.13 45.18 65.21C45.45 65.3 45.72 65.38 45.98 65.49C45.7 65.47 45.42 65.41 45.15 65.35C44.88 65.29 44.61 65.2 44.34 65.12C43.8 64.96 43.26 64.8 42.73 64.63L42.72 64.62Z" fill="#5B5C5C"/>
<path d="M40.48 67.22L42.87 66.68C43.27 66.59 43.66 66.5 44.06 66.42C44.46 66.35 44.86 66.28 45.27 66.24C44.88 66.37 44.48 66.47 44.09 66.56C43.69 66.65 43.29 66.72 42.89 66.79L40.48 67.23V67.22Z" fill="#5B5C5C"/>
<path d="M42.7998 68.67L44.3598 67.72C44.6198 67.56 44.8798 67.39 45.1498 67.25C45.4198 67.11 45.6898 66.97 45.9698 66.85C45.7298 67.05 45.4698 67.21 45.2098 67.37C44.9498 67.53 44.6798 67.67 44.4098 67.81L42.7998 68.68V68.67Z" fill="#5B5C5C"/>
<path d="M60.0801 64.63C59.5401 64.79 59 64.96 58.47 65.11C58.2 65.19 57.93 65.28 57.66 65.34C57.39 65.4 57.1101 65.46 56.8301 65.5C57.0901 65.38 57.3601 65.29 57.6301 65.21C57.9001 65.13 58.1701 65.07 58.4401 65.01C58.9901 64.88 59.5301 64.75 60.0801 64.62V64.63Z" fill="#5B5C5C"/>
<path d="M62.31 67.24L59.9 66.8C59.5 66.73 59.1 66.66 58.7 66.57C58.3 66.48 57.9 66.39 57.51 66.27C57.92 66.3 58.32 66.37 58.72 66.44C59.12 66.51 59.52 66.61 59.91 66.7L62.3 67.24H62.31Z" fill="#5B5C5C"/>
<path d="M59.9898 68.69L58.3798 67.82C58.1098 67.68 57.8398 67.54 57.5798 67.38C57.3198 67.22 57.0598 67.06 56.8198 66.87C57.0998 66.98 57.3698 67.12 57.6398 67.26C57.9098 67.4 58.1598 67.57 58.4198 67.73L59.9798 68.68L59.9898 68.69Z" fill="#5B5C5C"/>
<path d="M56.1699 37.13C54.7699 36.87 53.24 37.37 52.64 36.75C52.47 36.58 52.65 36.27 52.65 36.02C52.65 35.26 52.0499 34.26 52.5999 33.85C53.2599 33.35 54.46 34.38 55.65 34.6C58.17 35.05 60.34 34.72 60.34 34.72C60.34 34.72 58.4199 33.64 55.9099 33.18C54.5899 32.94 53.3999 32.81 52.5399 32.8C52.4399 31.38 51.4599 29.96 52.0499 29.43C52.6899 28.86 54.15 30.11 55.65 30.38C58.17 30.84 60.34 30.5 60.34 30.5C60.34 30.5 58.4199 29.42 55.9099 28.96C54.0799 28.63 52.49 28.51 51.71 28.62C51.63 28.52 51.3099 28.53 51.2199 28.64C50.5199 28.49 48.8299 28.6 46.8799 28.95C44.3599 29.41 42.45 30.49 42.45 30.49C42.45 30.49 44.62 30.83 47.14 30.37C48.75 30.08 50.2799 28.79 50.9199 29.35C51.5199 29.87 50.5199 31.32 50.4099 32.79C49.5399 32.79 48.2799 32.92 46.8799 33.17C44.3599 33.63 42.45 34.71 42.45 34.71C42.45 34.71 44.62 35.05 47.14 34.59C48.41 34.36 49.6699 33.28 50.3499 33.79C50.9099 34.21 50.2999 35.24 50.2999 36.01C50.2999 36.26 50.4799 36.56 50.3099 36.74C49.7099 37.36 48.2299 36.87 46.8799 37.12C44.3599 37.57 42.45 38.66 42.45 38.66C42.45 38.66 44.62 39 47.14 38.54C48.42 38.31 49.5599 38.02 50.3699 37.73C50.6199 41.07 51.4799 43.55 51.4799 43.55C51.4799 43.55 52.35 41.05 52.59 37.69C53.4 37.98 54.5799 38.29 55.9199 38.53C58.4399 38.99 60.6099 38.65 60.6099 38.65C60.6099 38.65 58.6999 37.57 56.1799 37.11L56.1699 37.13Z" fill="#2D2C2C"/>
<path d="M51.4299 64.72C50.3099 64.72 49.4199 63.63 49.4199 63.55C49.5199 63.55 50.3599 64.15 51.4199 64.15C52.4799 64.15 53.3699 63.55 53.4699 63.55H53.4799C53.4799 63.63 52.5499 64.72 51.4199 64.72" fill="#F3B6CB"/>
<path d="M65.14 33.68C65.14 33.68 68.2699 31.64 69.3099 27.13C69.4699 26.44 69.88 24.87 70.45 24.53C71.01 24.2 72.49 24.71 73.15 25.28C73.81 25.84 75.1699 27.36 74.6699 30.7C74.1799 34.04 72.4899 37.05 71.3699 37.91C70.2499 38.77 68.89 38.74 68.89 38.74C68.89 38.74 70.77 41.55 72.46 41.48C72.46 41.48 75.76 36.58 76.15 32.12C76.47 28.46 75.78 26.41 74.65 25.04C74.38 24.71 71.9499 21.93 69.8599 23.4C68.9499 24.04 68.77 24.48 67.65 27.26C66.53 30.04 63.8699 30.4 63.3099 30.4C63.3099 30.4 63.0099 32.72 65.1599 33.67L65.14 33.68Z" fill="#2D2C2C"/>
<path d="M67.04 37.18C67.04 37.18 66.7801 34.54 68.5301 32.65C68.5301 32.65 68.86 32.65 68.86 33.12C68.86 33.59 68.86 33.25 68.86 33.25C68.86 33.25 69.68 30.37 70.75 29.75C70.75 29.75 71.21 30.28 70.98 31.1C70.98 31.1 71.48 30.34 71.77 30.07C71.77 30.07 71.97 30.6 71.77 31.36C71.77 31.36 71.84 31.16 72.1 31.03C72.1 31.03 72.4 31.89 71.94 32.75C71.94 32.75 72.27 32.49 72.47 32.39C72.47 32.39 71.58 36.32 67.05 37.18H67.04Z" fill="#2D2C2C"/>
<path d="M37.3 31.7C37.3 31.7 34.47 29.2 34.06 27.57C33.64 25.94 33.2201 24.16 31.9001 24.05C30.5901 23.95 29.06 24.58 28.54 25.47C28.01 26.36 26.0201 27.7 27.6501 32.71C29.2801 37.71 31.43 39.13 31.43 39.13L33.63 38.74C33.63 38.74 38.61 34.48 37.3 31.7Z" fill="white"/>
<path d="M37.37 33.68C37.37 33.68 34.23 31.64 33.2 27.13C33.04 26.44 32.62 24.87 32.06 24.53C31.5 24.2 30.02 24.71 29.36 25.28C28.7 25.84 27.35 27.36 27.84 30.7C28.34 34.04 30.02 37.05 31.14 37.91C32.27 38.77 33.62 38.74 33.62 38.74C33.62 38.74 31.74 41.55 30.05 41.48C30.05 41.48 26.75 36.58 26.36 32.12C26.04 28.46 26.73 26.41 27.86 25.04C28.13 24.71 30.56 21.93 32.65 23.4C33.56 24.04 33.74 24.48 34.86 27.26C35.99 30.04 38.64 30.4 39.2 30.4C39.2 30.4 39.5 32.72 37.35 33.67L37.37 33.68Z" fill="#2D2C2C"/>
<path d="M35.1099 37.47C35.1099 37.47 35.3699 34.83 33.6199 32.94C33.6199 32.94 33.2899 32.94 33.2899 33.41C33.2899 33.88 33.2899 33.54 33.2899 33.54C33.2899 33.54 32.47 30.66 31.4 30.04C31.4 30.04 30.9399 30.57 31.1699 31.39C31.1699 31.39 30.6699 30.63 30.3799 30.36C30.3799 30.36 30.1799 30.89 30.3799 31.65C30.3799 31.65 30.3099 31.45 30.0499 31.32C30.0499 31.32 29.7499 32.18 30.2199 33.04C30.2199 33.04 29.8899 32.78 29.6899 32.68C29.6899 32.68 30.5799 36.61 35.1099 37.47Z" fill="#2D2C2C"/>
</svg>
