<svg width="102" height="102" viewBox="0 0 102 102" fill="none" xmlns="http://www.w3.org/2000/svg">
<path d="M93.06 0.299988H9.47005C4.68174 0.299988 0.800049 4.18166 0.800049 8.96997V92.56C0.800049 97.3483 4.68174 101.23 9.47005 101.23H93.06C97.8484 101.23 101.73 97.3483 101.73 92.56V8.96997C101.73 4.18166 97.8484 0.299988 93.06 0.299988Z" fill="#DBBD64"/>
<path d="M51.2701 76.64C47.88 76.64 43.21 75.08 38.78 72.47C29.94 68.09 24.15 61.6 23.29 55.11C23.21 54.56 23.17 53.97 23.17 53.37C23.17 43.97 26.57 35.33 32.26 30.25C36.36 26.59 42.4 24.88 51.26 24.88C60.12 24.88 66.16 26.68 70.25 30.23C75.95 35.18 79.3501 43.82 79.3501 53.36C79.3501 53.77 79.33 54.17 79.3 54.57C79.29 54.72 79.27 54.87 79.25 55.02C78.45 61.79 72.8 68.35 64.11 72.59C59.85 75.08 55.2801 76.55 51.5701 76.63C51.5601 76.63 51.5 76.63 51.48 76.63C51.48 76.63 51.26 76.63 51.25 76.63L51.2701 76.64Z" fill="#2F150C"/>
<path d="M63.43 71.29C70.57 67.82 76.98 61.8 77.79 54.86C77.81 54.73 77.82 54.6 77.83 54.46C77.86 54.1 77.87 53.74 77.87 53.37C77.87 43.1 73.83 35.32 69.28 31.37C65.81 28.36 60.05 26.38 51.2701 26.38C41.9401 26.38 36.68 28.31 33.26 31.37C28.76 35.38 24.67 43.11 24.67 53.37C24.67 53.89 24.7001 54.4 24.7701 54.91C25.6701 61.75 32.4401 67.68 39.4901 71.16C43.6301 73.61 48.08 75.15 51.2701 75.15H51.6001H51.56C55.02 75.08 59.38 73.66 63.43 71.29Z" fill="#2F150C"/>
<path d="M77.87 53.37C77.87 53.74 77.86 54.1 77.83 54.46C77.82 54.59 77.8 54.73 77.79 54.86C76.52 65.69 61.6601 74.27 51.6001 74.45C51.4901 74.45 51.3801 74.45 51.2701 74.45C42.63 74.45 26.2101 65.84 24.7701 54.91C24.7001 54.4 24.67 53.89 24.67 53.37C24.67 43.1 28.77 35.38 33.26 31.37C36.69 28.31 41.9401 26.38 51.2701 26.38C60.05 26.38 65.81 28.36 69.28 31.37C73.83 35.32 77.87 43.11 77.87 53.37Z" fill="#191919"/>
<path d="M51.27 75.15C47.32 75.15 41.42 72.78 36.59 69.25C31.05 65.2 27.55 60.18 26.99 55.47C26.93 55.01 26.9 54.54 26.9 54.05C26.9 44.62 32.92 33.2 34.82 31.34C36.3 29.89 43.79 26.37 51.27 26.37C58.32 26.37 66.16 29.84 67.74 31.36C69.69 33.24 75.64 44.65 75.64 54.05C75.64 54.39 75.63 54.74 75.6 55.07C75.6 55.2 75.58 55.32 75.57 55.45C74.41 66.42 60.21 74.96 51.56 75.14H51.6H51.27" fill="#282828"/>
<path d="M63.1601 69.92C64.7701 69.21 64.3601 69.31 64.7701 69.21C65.1601 69.04 65.5501 68.86 65.9601 68.68C65.9601 68.68 80.5801 62.32 71.0301 43.96C69.3101 40.65 63.3601 35.54 57.1401 39.97C48.3401 46.24 56.5201 61.48 55.8801 66C55.5201 68.51 53.3001 69.41 51.2001 69.64C49.1001 69.41 46.8701 68.5 46.5201 66C45.8801 61.48 54.0601 46.24 45.2601 39.97C39.0401 35.54 33.0901 40.65 31.3701 43.96C21.8201 62.32 36.8901 68.96 36.8901 68.96C37.3001 69.15 48.3601 73.62 51.2001 73.64C54.0401 73.63 57.2101 72.55 63.1701 69.93" fill="#F7F7F7"/>
<path d="M34.4 42.72C34.4 42.72 34.41 42.68 34.45 42.6C34.49 42.53 34.54 42.41 34.63 42.29C34.71 42.16 34.83 42.0101 34.96 41.8401C35.11 41.6801 35.26 41.49 35.47 41.32C35.57 41.23 35.68 41.14 35.79 41.05C35.91 40.97 36.04 40.88 36.17 40.79C36.3 40.7 36.45 40.63 36.59 40.56C36.74 40.49 36.89 40.4 37.05 40.35C37.38 40.23 37.72 40.11 38.09 40.06C38.45 39.97 38.83 39.98 39.21 39.98C39.59 39.98 39.96 40.07 40.32 40.13C40.67 40.24 41.01 40.36 41.33 40.49C41.63 40.65 41.92 40.82 42.18 40.98C42.43 41.16 42.65 41.3601 42.85 41.5301C42.95 41.6201 43.04 41.7 43.13 41.79C43.21 41.88 43.28 41.97 43.35 42.06C43.49 42.22 43.6 42.38 43.68 42.5C43.86 42.75 43.94 42.9 43.94 42.9C43.94 42.9 43.77 42.84 43.49 42.73C43.35 42.67 43.18 42.6 43 42.51C42.82 42.42 42.61 42.34 42.38 42.26C42.15 42.18 41.92 42.07 41.66 41.98C41.4 41.91 41.13 41.83 40.86 41.73C40.58 41.67 40.3 41.62 40.01 41.55C39.87 41.54 39.72 41.53 39.58 41.51C39.44 41.5 39.29 41.46 39.15 41.47C38.86 41.47 38.57 41.46 38.28 41.5C38.14 41.52 37.99 41.5 37.85 41.54C37.71 41.57 37.57 41.6 37.43 41.61C37.29 41.62 37.16 41.68 37.02 41.71C36.89 41.74 36.75 41.77 36.63 41.81C36.38 41.89 36.13 41.96 35.91 42.06C35.68 42.13 35.48 42.23 35.29 42.3C35.11 42.39 34.94 42.45 34.81 42.52C34.67 42.59 34.57 42.64 34.49 42.67C34.42 42.71 34.38 42.73 34.38 42.73L34.4 42.72Z" fill="#303030"/>
<path d="M68.05 42.72C68.05 42.72 68.01 42.7 67.94 42.66C67.87 42.62 67.76 42.57 67.62 42.51C67.49 42.44 67.32 42.38 67.14 42.29C66.95 42.22 66.75 42.12 66.52 42.05C66.3 41.96 66.05 41.88 65.8 41.8C65.67 41.76 65.54 41.73 65.41 41.7C65.27 41.67 65.15 41.62 65 41.6C64.86 41.58 64.72 41.56 64.58 41.53C64.44 41.5 64.29 41.51 64.15 41.49C63.86 41.45 63.57 41.46 63.28 41.46C63.13 41.45 62.99 41.48 62.84 41.5C62.7 41.52 62.55 41.53 62.41 41.54C62.13 41.61 61.84 41.67 61.56 41.73C61.29 41.82 61.02 41.9 60.76 41.98C60.51 42.07 60.27 42.18 60.04 42.26C59.81 42.34 59.59 42.42 59.42 42.51C59.24 42.6 59.07 42.67 58.93 42.73C58.65 42.85 58.48 42.9 58.48 42.9C58.48 42.9 58.57 42.75 58.74 42.5C58.83 42.38 58.94 42.22 59.07 42.06C59.14 41.98 59.21 41.88 59.29 41.79C59.38 41.71 59.47 41.62 59.57 41.53C59.77 41.36 59.99 41.16 60.24 40.98C60.5 40.82 60.79 40.65 61.09 40.49C61.41 40.36 61.75 40.24 62.1 40.13C62.46 40.07 62.83 39.98 63.21 39.98C63.59 39.98 63.97 39.98 64.33 40.06C64.7 40.1 65.04 40.23 65.37 40.35C65.54 40.4 65.68 40.49 65.83 40.56C65.98 40.64 66.12 40.7 66.25 40.79C66.38 40.88 66.5 40.96 66.63 41.05C66.75 41.14 66.85 41.23 66.95 41.32C67.16 41.49 67.32 41.68 67.46 41.84C67.6 42.01 67.71 42.16 67.79 42.29C67.88 42.42 67.93 42.53 67.97 42.6C68.01 42.67 68.02 42.72 68.02 42.72H68.05Z" fill="#303030"/>
<path d="M46.77 58.66C38.66 62.52 32.95 60.02 30.38 50.01C30.38 50.01 40.14 42.43 45.32 52.15C46.12 53.66 46.78 58.66 46.78 58.66" fill="white"/>
<path d="M38.9301 59.3C36.6801 59.25 34.7901 57.47 34.0701 54.99C33.8501 54.24 33.7301 53.41 33.7501 52.56C33.8201 49.11 35.9701 47.88 38.6701 47.8C38.8401 47.8 39.0101 47.79 39.1801 47.8C42.1201 47.86 44.3501 50.92 44.4001 52.79C44.5001 56.45 41.8801 59.37 38.9401 59.31" fill="#ECB61E"/>
<path d="M38.96 58.36C37.25 58.32 35.76 56.86 35.14 54.64C34.94 53.93 34.85 53.19 34.87 52.42C34.92 49.84 36.14 48.61 38.71 48.53C38.84 48.53 38.97 48.53 39.1 48.53H39.17C41.49 48.58 43.25 51.28 43.29 52.67C43.33 54.35 42.77 55.94 41.75 57.05C40.97 57.9 40 58.37 39.03 58.37H38.96" fill="#A0782C"/>
<path d="M55.8301 58.66C63.9401 62.52 69.6501 60.02 72.2201 50.01C72.2201 50.01 62.4601 42.43 57.2801 52.15C56.4801 53.66 55.8201 58.66 55.8201 58.66" fill="white"/>
<path d="M63.67 59.3C65.92 59.25 67.81 57.47 68.53 54.99C68.75 54.24 68.87 53.41 68.85 52.56C68.78 49.11 66.63 47.88 63.93 47.8C63.76 47.8 63.59 47.79 63.42 47.8C60.48 47.86 58.25 50.92 58.2 52.79C58.1 56.45 60.72 59.37 63.66 59.31" fill="#ECB61E"/>
<path d="M63.5801 58.36C62.6101 58.36 61.6401 57.89 60.8601 57.04C59.8401 55.93 59.2801 54.33 59.3201 52.66C59.3501 51.28 61.1201 48.57 63.4501 48.52H63.5101C63.6401 48.52 63.7701 48.52 63.9001 48.52C66.4601 48.6 67.6801 49.83 67.7301 52.41C67.7501 53.18 67.6501 53.93 67.4601 54.63C66.8501 56.86 65.3501 58.32 63.6401 58.36H63.5701" fill="#A0782C"/>
<path d="M39.2901 51.17C39.2401 53.39 37.7601 55.16 35.9801 55.12C35.1701 55.1 34.4501 54.72 33.9001 54.1C33.7001 53.44 33.6001 52.72 33.6201 51.97C33.6801 48.95 35.5601 47.87 37.9301 47.8C38.7801 48.54 39.3201 49.78 39.3001 51.17" fill="white"/>
<path d="M42.09 57.59C42.07 58.34 41.57 58.94 40.97 58.93C40.37 58.92 39.89 58.3 39.91 57.55C39.93 56.8 40.43 56.2 41.03 56.21C41.63 56.22 42.11 56.84 42.09 57.59Z" fill="white"/>
<path d="M63.5301 51.5C63.4801 53.72 62.0001 55.49 60.2201 55.45C59.4101 55.43 58.6901 55.05 58.1401 54.43C57.9401 53.77 57.8401 53.05 57.8601 52.3C57.9201 49.28 59.8001 48.2 62.1701 48.13C63.0201 48.87 63.5601 50.11 63.5301 51.5Z" fill="white"/>
<path d="M66.54 57.59C66.52 58.34 66.02 58.94 65.42 58.93C64.82 58.92 64.34 58.3 64.36 57.55C64.38 56.8 64.88 56.2 65.48 56.21C66.08 56.22 66.56 56.84 66.54 57.59Z" fill="white"/>
<path d="M45.31 59.3C45.79 59.11 46.27 58.9 46.77 58.66C46.77 58.66 46.12 53.65 45.31 52.15C43.29 48.35 40.56 47.2 38 47.2C34 47.2 30.38 50.01 30.38 50.01C30.51 50.53 30.66 51.03 30.81 51.51C30.66 51.03 30.52 50.53 30.38 50.01C30.38 50.01 34 47.2 38.01 47.2C40.58 47.2 43.3 48.36 45.32 52.15C46.12 53.66 46.78 58.67 46.78 58.67C46.28 58.91 45.8 59.12 45.32 59.31" fill="#DEDDDD"/>
<path d="M45.31 59.3C45.05 57.87 44.68 56.27 44.29 55.52C44.22 55.38 44.14 55.25 44.07 55.12C44.3 54.39 44.41 53.6 44.39 52.77C44.34 50.89 42.11 47.84 39.17 47.78H39.09C38.95 47.78 38.81 47.78 38.67 47.78C38.43 47.78 38.2 47.8 37.97 47.83C37.96 47.82 37.94 47.8 37.93 47.79C35.79 47.85 34.06 48.73 33.69 51.12C32.68 51.45 31.79 51.88 31.07 52.27C30.98 52.02 30.89 51.76 30.81 51.49C30.66 51.01 30.52 50.51 30.38 49.99C30.38 49.99 34 47.18 38 47.18C40.57 47.18 43.29 48.33 45.31 52.13C46.11 53.64 46.77 58.64 46.77 58.64C46.27 58.87 45.79 59.09 45.31 59.28" fill="#E2E1E1"/>
<path d="M44.0701 55.12C43.7901 54.64 43.5101 54.2 43.2101 53.81C43.2601 53.43 43.2901 53.05 43.2801 52.66C43.2501 51.28 41.4801 48.57 39.1601 48.52H39.0901C38.9601 48.52 38.8301 48.52 38.7001 48.52C38.6501 48.52 38.6101 48.52 38.5601 48.52C38.3901 48.26 38.1801 48.02 37.9601 47.82C38.1901 47.79 38.4201 47.78 38.6601 47.77C38.8001 47.77 38.9401 47.77 39.0801 47.77H39.1601C42.1001 47.83 44.3301 50.89 44.3801 52.76C44.4001 53.59 44.2901 54.38 44.0601 55.11" fill="#D7A72D"/>
<path d="M43.2101 53.81C42.0201 52.24 40.6601 51.35 39.2901 50.91C39.2601 50.01 39.0001 49.19 38.5701 48.54C38.6101 48.54 38.6601 48.54 38.7101 48.54C38.8401 48.54 38.9701 48.54 39.1001 48.54H39.1701C41.4901 48.59 43.2501 51.29 43.2901 52.68C43.2901 53.07 43.2801 53.45 43.2201 53.83" fill="#987531"/>
<path d="M33.68 51.13C34.05 48.74 35.78 47.86 37.92 47.8C37.93 47.81 37.9501 47.82 37.9601 47.84C38.1801 48.04 38.39 48.28 38.56 48.54C38.99 49.19 39.25 50.01 39.28 50.91C38.51 50.67 37.74 50.57 36.97 50.57C35.81 50.57 34.69 50.8 33.67 51.14" fill="#E2E1E1"/>
<path d="M57.2901 59.3C56.8101 59.11 56.3301 58.9 55.8301 58.66C55.8301 58.66 56.4801 53.65 57.2901 52.14C57.5401 51.68 57.7901 51.26 58.0601 50.87C57.8001 51.26 57.5401 51.67 57.3001 52.14C56.5001 53.65 55.8401 58.65 55.8401 58.65C56.3301 58.88 56.8201 59.1 57.3001 59.29M71.7901 51.51C71.9401 51.03 72.0801 50.53 72.2201 50.01C72.2201 50.01 68.6001 47.2 64.6001 47.2C63.2401 47.2 61.8401 47.52 60.5201 48.39C61.8401 47.52 63.2501 47.2 64.6101 47.2C68.6101 47.2 72.2401 50.01 72.2401 50.01C72.1101 50.53 71.9601 51.03 71.8101 51.51" fill="#DEDDDD"/>
<path d="M57.2901 59.3C56.8101 59.11 56.3301 58.9 55.8301 58.66C55.8301 58.66 56.4801 53.65 57.2901 52.15C57.5301 51.69 57.7901 51.27 58.0501 50.88C57.9301 51.3 57.8601 51.77 57.8501 52.31C57.8301 53.06 57.9301 53.78 58.1301 54.44C58.2201 54.54 58.3201 54.64 58.4201 54.73C58.4501 54.86 58.4901 54.99 58.5301 55.12C58.4601 55.25 58.3801 55.38 58.3101 55.52C57.9201 56.26 57.5501 57.87 57.2901 59.3ZM71.5301 52.29C70.7601 51.87 69.7701 51.4 68.6601 51.06C68.0701 48.74 66.2001 47.86 63.9301 47.8C63.7901 47.8 63.6501 47.8 63.5101 47.8H63.4301C62.8301 47.81 62.2601 47.95 61.7301 48.18C61.3101 48.22 60.9001 48.29 60.5201 48.41C61.8401 47.54 63.2401 47.22 64.6001 47.22C68.6001 47.22 72.2201 50.03 72.2201 50.03C72.0901 50.55 71.9401 51.05 71.7901 51.53C71.7101 51.8 71.6201 52.05 71.5301 52.31" fill="#E2E1E1"/>
<path d="M58.53 55.12C58.49 54.99 58.45 54.86 58.42 54.73C58.5 54.79 58.57 54.86 58.65 54.92C58.61 54.99 58.57 55.06 58.53 55.13M68.66 51.05C68.28 50.93 67.88 50.83 67.48 50.75C67 49.31 65.83 48.59 63.9 48.53C63.77 48.53 63.64 48.53 63.51 48.53H63.45C63.17 48.53 62.91 48.58 62.65 48.65C62.5 48.46 62.34 48.29 62.17 48.14C62.02 48.14 61.87 48.15 61.73 48.16C62.26 47.93 62.83 47.8 63.43 47.78H63.51C63.65 47.78 63.79 47.78 63.93 47.78C66.2 47.85 68.07 48.72 68.66 51.04" fill="#D7A72D"/>
<path d="M63.5 50.85C63.41 50 63.1 49.24 62.65 48.65C62.91 48.58 63.18 48.53 63.45 48.53H63.51C63.64 48.53 63.77 48.53 63.9 48.53C65.83 48.59 67 49.3 67.48 50.75C66.88 50.63 66.26 50.56 65.62 50.56C64.92 50.56 64.21 50.65 63.5 50.85Z" fill="#987531"/>
<path d="M58.65 54.91C58.57 54.85 58.49 54.79 58.42 54.72C58.32 54.63 58.22 54.53 58.13 54.43C57.93 53.77 57.83 53.05 57.85 52.3C57.86 51.77 57.93 51.29 58.05 50.87C58.81 49.76 59.64 48.96 60.51 48.38C60.89 48.26 61.29 48.19 61.72 48.15C61.86 48.14 62.01 48.13 62.16 48.13C62.34 48.28 62.5 48.45 62.64 48.64C63.09 49.23 63.4 50 63.49 50.84C61.75 51.34 60.05 52.54 58.64 54.9" fill="#E2E1E1"/>
<path d="M46.77 58.6599C46.67 58.1599 46.56 57.67 46.45 57.17C46.34 56.68 46.24 56.18 46.11 55.7C45.99 55.21 45.87 54.72 45.72 54.24C45.59 53.74 45.43 53.32 45.25 52.86C45.14 52.64 45.04 52.36 44.94 52.2L44.54 51.58C44.26 51.18 43.98 50.78 43.65 50.42C43.5 50.23 43.33 50.06 43.16 49.9C42.99 49.73 42.82 49.56 42.63 49.42C42.45 49.26 42.26 49.11 42.06 48.99C41.87 48.85 41.67 48.73 41.46 48.62C41.05 48.39 40.61 48.23 40.17 48.08C39.72 47.94 39.26 47.86 38.8 47.82C38.33 47.79 37.86 47.77 37.39 47.82C36.92 47.85 36.45 47.95 35.98 48.05C35.05 48.27 34.14 48.6 33.26 49.03C32.82 49.24 32.39 49.4699 31.98 49.7199C31.57 49.9699 31.14 50.24 30.78 50.51L31.01 49.84L31.38 51.15C31.49 51.59 31.66 52.01 31.81 52.44C31.96 52.87 32.11 53.3 32.31 53.7C32.5 54.11 32.65 54.54 32.89 54.92C33.12 55.3 33.29 55.72 33.57 56.07C33.84 56.42 34.05 56.82 34.37 57.13C34.67 57.45 34.94 57.8 35.29 58.07L35.79 58.5L36.34 58.8499C36.69 59.1099 37.11 59.26 37.5 59.45C37.9 59.63 38.34 59.7 38.76 59.84C39.2 59.9 39.64 59.99 40.08 60C40.53 60 40.98 60.04 41.43 59.99C41.88 59.93 42.34 59.94 42.79 59.82C43.24 59.72 43.7 59.67 44.14 59.52C44.58 59.39 45.03 59.28 45.47 59.12L46.79 58.65L46.77 58.6599ZM46.77 58.6599L45.53 59.3C45.11 59.51 44.67 59.66 44.23 59.84C43.8 60.04 43.33 60.13 42.88 60.28C42.43 60.44 41.96 60.49 41.49 60.59C41.02 60.7 40.54 60.6799 40.06 60.7199C39.58 60.7299 39.09 60.67 38.61 60.64C38.14 60.52 37.64 60.4799 37.18 60.2899C36.72 60.1099 36.25 59.96 35.83 59.69L35.19 59.32L34.61 58.87C34.2 58.59 33.88 58.21 33.54 57.87C33.18 57.53 32.93 57.1099 32.62 56.7199C32.31 56.3399 32.11 55.9 31.84 55.5C31.57 55.09 31.4 54.64 31.18 54.21C30.96 53.78 30.79 53.33 30.63 52.88C30.47 52.43 30.28 51.99 30.16 51.53L29.75 50.1599L29.63 49.75L29.98 49.49C30.43 49.15 30.85 48.8699 31.31 48.5999C31.76 48.3399 32.23 48.09 32.7 47.87C33.65 47.42 34.65 47.07 35.69 46.83C36.21 46.72 36.74 46.64 37.28 46.61C37.82 46.57 38.36 46.6 38.9 46.65C39.44 46.72 39.98 46.83 40.49 47.01C40.75 47.1 41.01 47.19 41.25 47.32C41.5 47.43 41.74 47.56 41.97 47.71C42.21 47.84 42.43 47.9999 42.64 48.1599C42.86 48.3199 43.06 48.5 43.26 48.68C43.46 48.86 43.64 49.05 43.82 49.25C44 49.44 44.18 49.64 44.33 49.86C44.66 50.27 44.93 50.72 45.2 51.17L45.57 51.86C45.72 52.14 45.76 52.35 45.86 52.59C46.01 53.08 46.14 53.62 46.22 54.12C46.32 54.62 46.39 55.13 46.46 55.63C46.6 56.64 46.71 57.6399 46.77 58.6599Z" fill="#303030"/>
<path d="M55.8301 58.66C55.8901 57.65 56.0001 56.64 56.1401 55.63C56.2101 55.13 56.2901 54.62 56.3801 54.12C56.4601 53.63 56.6001 53.0801 56.7401 52.5901C56.8401 52.3401 56.8901 52.14 57.0301 51.86L57.4001 51.17C57.6701 50.72 57.9401 50.27 58.2701 49.86C58.4201 49.64 58.6001 49.44 58.7801 49.25C58.9601 49.06 59.1401 48.86 59.3401 48.68C59.5301 48.5 59.7301 48.32 59.9501 48.16C60.1601 48 60.3801 47.84 60.6201 47.71C60.8501 47.56 61.0901 47.43 61.3401 47.32C61.5801 47.19 61.8401 47.1 62.1001 47.01C62.6201 46.84 63.1501 46.72 63.6901 46.65C64.2301 46.59 64.7701 46.56 65.3101 46.61C65.8501 46.64 66.3801 46.72 66.9001 46.83C67.9401 47.06 68.9401 47.42 69.8901 47.87C70.3701 48.09 70.8301 48.34 71.2801 48.6C71.7401 48.87 72.1601 49.15 72.6101 49.49L72.9601 49.75L72.8401 50.16L72.4401 51.5301C72.3201 51.9901 72.1401 52.43 71.9701 52.88C71.8101 53.33 71.6401 53.78 71.4201 54.21C71.2101 54.64 71.0301 55.08 70.7601 55.5C70.5001 55.91 70.3001 56.34 69.9801 56.72C69.6701 57.1 69.4301 57.52 69.0601 57.87C68.7201 58.22 68.3901 58.59 67.9901 58.87L67.4101 59.32L66.7701 59.69C66.3501 59.96 65.8801 60.11 65.4201 60.29C64.9601 60.48 64.4601 60.52 63.9901 60.64C63.5001 60.67 63.0201 60.73 62.5401 60.72C62.0601 60.67 61.5701 60.7001 61.1101 60.5901C60.6401 60.4901 60.1701 60.4401 59.7201 60.2801C59.2701 60.1301 58.8101 60.0301 58.3801 59.8401C57.9501 59.6601 57.5001 59.5 57.0801 59.3L55.8401 58.66H55.8301ZM55.8301 58.66L57.1501 59.13C57.5901 59.29 58.0401 59.4001 58.4801 59.5301C58.9201 59.6801 59.3801 59.73 59.8201 59.83C60.2701 59.95 60.7301 59.94 61.1801 60C61.6301 60.06 62.0801 60 62.5301 60.01C62.9801 59.99 63.4201 59.9 63.8601 59.85C64.2801 59.71 64.7201 59.64 65.1201 59.46C65.5201 59.27 65.9301 59.12 66.2901 58.86L66.8401 58.51L67.3401 58.08C67.6901 57.82 67.9601 57.47 68.2601 57.14C68.5701 56.83 68.7901 56.43 69.0601 56.08C69.3301 55.73 69.5101 55.31 69.7401 54.93C69.9701 54.55 70.1201 54.12 70.3201 53.71C70.5201 53.31 70.6701 52.88 70.8201 52.45C70.9701 52.03 71.1401 51.6 71.2501 51.16L71.6201 49.85L71.8501 50.52C71.4901 50.25 71.0601 49.98 70.6501 49.73C70.2301 49.48 69.8001 49.25 69.3701 49.04C68.5001 48.62 67.5801 48.28 66.6501 48.06C66.1801 47.96 65.7201 47.86 65.2401 47.83C64.7701 47.77 64.3001 47.79 63.8301 47.83C63.3601 47.87 62.9001 47.9501 62.4601 48.0901C62.0201 48.2401 61.5701 48.4 61.1701 48.63C60.9601 48.73 60.7601 48.86 60.5701 49C60.3701 49.12 60.1801 49.27 60.0001 49.43C59.8101 49.57 59.6401 49.74 59.4701 49.91C59.2901 50.07 59.1301 50.25 58.9701 50.43C58.6401 50.79 58.3601 51.1901 58.0801 51.5901L57.6901 52.21C57.5801 52.37 57.4801 52.65 57.3701 52.87C57.1901 53.33 57.0301 53.76 56.9001 54.25C56.7601 54.73 56.6301 55.22 56.5101 55.71C56.3901 56.2 56.2801 56.69 56.1701 57.18C56.0601 57.67 55.9501 58.17 55.8501 58.67L55.8301 58.66Z" fill="#303030"/>
<path d="M47.53 64.61C47.61 65.07 49.54 68.54 51.27 68.54C53.33 68.54 54.84 64.75 54.84 64.75L47.53 64.61Z" fill="#BD892C"/>
<path d="M53.1601 63.36C52.0301 61.87 51.5101 61.71 51.2701 61.71C51.0301 61.71 50.5801 61.93 49.3801 63.36C48.2301 64.73 47.1001 64.23 47.1001 64.23C47.4201 65.24 50.1001 66.12 50.4201 66.57C50.5601 66.77 50.8901 66.92 51.2701 66.98C51.6401 66.93 51.9801 66.78 52.1201 66.57C52.4401 66.12 54.7301 65.8 55.4401 64.23C55.4401 64.23 54.3601 64.95 53.1601 63.36Z" fill="#FFD10F"/>
<path d="M50.89 64.73C50.8 64.88 50.52 64.75 50.26 64.45C50 64.16 49.86 63.8 49.95 63.65C50.04 63.51 50.32 63.63 50.58 63.93C50.84 64.23 50.98 64.58 50.89 64.73Z" fill="#191919"/>
<path d="M51.6501 64.73C51.7401 64.88 52.0201 64.75 52.2801 64.45C52.5401 64.16 52.6801 63.8 52.5901 63.65C52.5001 63.51 52.2201 63.63 51.9601 63.93C51.7001 64.23 51.5601 64.58 51.6501 64.73Z" fill="#191919"/>
</svg>
