<svg width="101" height="101" viewBox="0 0 101 101" fill="none" xmlns="http://www.w3.org/2000/svg">
<path d="M92.26 0H8.67C3.88169 0 0 3.88169 0 8.67V92.26C0 97.0483 3.88169 100.93 8.67 100.93H92.26C97.0483 100.93 100.93 97.0483 100.93 92.26V8.67C100.93 3.88169 97.0483 0 92.26 0Z" fill="#24B999"/>
<path d="M49.09 82.74C48.64 82.74 48.21 82.49 47.99 82.08L47.97 82.04C47.76 81.65 47.78 81.18 48 80.81L48.11 80.63C48.22 80.45 48.38 80.3 48.56 80.19L48.65 80.14C48.84 80.03 49.05 79.98 49.27 79.98C49.42 79.98 49.57 80.01 49.71 80.06L50.07 80.2C50.58 80.39 50.91 80.89 50.88 81.44C50.85 81.99 50.47 82.45 49.94 82.58L49.39 82.72C49.29 82.75 49.19 82.76 49.08 82.76L49.09 82.74Z" fill="#2F150C"/>
<path d="M49.0699 81.46L49.0899 81.49L49.6399 81.35L49.2799 81.22L49.1799 81.27L49.0699 81.46Z" fill="#2F150C"/>
<path d="M53.02 81.05C52.73 81.05 52.43 80.95 52.2 80.74C51.74 80.33 51.64 79.65 51.97 79.13L52.23 78.73C52.45 78.39 52.82 78.17 53.23 78.15C53.25 78.15 53.27 78.15 53.28 78.15C53.67 78.15 54.03 78.33 54.27 78.64L54.37 78.77C54.6 79.07 54.68 79.45 54.6 79.81C54.52 80.14 54.32 80.43 54.03 80.6L53.83 80.76C53.6 80.95 53.31 81.05 53.03 81.05H53.02Z" fill="#2F150C"/>
<path d="M53.31 79.56L53.37 79.53L53.27 79.4L53.02 79.81L53.31 79.56Z" fill="#2F150C"/>
<path d="M53.27 80.65C52.88 80.65 52.52 80.47 52.28 80.16L52.2 80.05C51.83 79.57 51.86 78.89 52.27 78.45L52.34 78.37C52.58 78.11 52.91 77.97 53.26 77.97C53.29 77.97 53.32 77.97 53.35 77.97H53.47C53.91 78.01 54.3 78.27 54.5 78.66C54.7 79.05 54.67 79.52 54.44 79.89L54.33 80.07C54.11 80.41 53.74 80.63 53.33 80.65C53.31 80.65 53.29 80.65 53.28 80.65H53.27Z" fill="#2F150C"/>
<path d="M53.2699 79.4L53.3899 79.23L53.2599 79.22L53.1899 79.3L53.2699 79.4Z" fill="#2F150C"/>
<path d="M49.28 83.08C48.97 83.08 48.66 82.96 48.42 82.73L48.1 82.42C47.77 82.11 47.64 81.64 47.75 81.2C47.87 80.76 48.21 80.42 48.65 80.31L48.79 80.27C48.89 80.24 48.99 80.23 49.1 80.23C49.55 80.23 49.98 80.48 50.2 80.89L50.38 81.23C50.67 81.77 50.52 82.44 50.03 82.81C49.81 82.98 49.54 83.06 49.28 83.06V83.08Z" fill="#2F150C"/>
<path d="M49.2799 81.84L49.09 81.49L48.95 81.53L49.2799 81.84Z" fill="#2F150C"/>
<path d="M50.7801 82.2701C50.6701 82.2701 50.5701 82.2601 50.4601 82.2301C49.8101 82.0601 49.4101 81.4001 49.5601 80.7401L49.67 80.2801C49.78 79.8001 50.1701 79.4201 50.6601 79.3301C50.7301 79.3201 50.8101 79.3101 50.8901 79.3101C51.1101 79.3101 51.3301 79.3701 51.5201 79.4801C52.0201 79.7701 52.2801 80.3801 52.1101 80.9301L51.9801 81.3801C51.8201 81.9201 51.3201 82.2701 50.7801 82.2701Z" fill="#2F150C"/>
<path d="M50.78 81.0201L50.92 80.5701L50.9 80.5601H50.89L50.78 81.0201Z" fill="#2F150C"/>
<path d="M47.0901 83.25C46.6801 83.25 46.2901 83.05 46.0501 82.69L45.8901 82.45C45.6101 82.02 45.6201 81.46 45.9101 81.05L45.9901 80.93L46.0101 80.88V80.85C46.1501 80.38 46.5501 80.03 47.0301 79.96C47.0901 79.96 47.1501 79.95 47.2101 79.95C47.6301 79.95 48.0201 80.16 48.2601 80.52L48.3101 80.59C48.3801 80.7 48.4301 80.82 48.4701 80.94C48.6901 81.19 48.8101 81.53 48.7801 81.87C48.7401 82.29 48.5001 82.67 48.1301 82.87L47.6801 83.11C47.4901 83.21 47.2901 83.26 47.0901 83.26V83.25Z" fill="#2F150C"/>
<path d="M47.0901 81.54L46.9301 81.76L47.0901 82L47.5401 81.76L47.2601 81.55L47.2701 81.27L47.2201 81.2L47.1901 81.31L47.0901 81.54Z" fill="#2F150C"/>
<path d="M47.22 83.96C46.83 83.96 46.46 83.78 46.21 83.45L45.88 83C45.63 82.66 45.57 82.21 45.72 81.81L45.79 81.62C45.9 81.34 46.1 81.11 46.36 80.97L46.49 80.9C46.68 80.8 46.88 80.75 47.08 80.75C47.49 80.75 47.89 80.95 48.12 81.31L48.14 81.34C48.23 81.48 48.3 81.64 48.33 81.8C48.33 81.8 48.38 82.08 48.38 82.09L48.45 82.51C48.54 83.08 48.23 83.63 47.7 83.85C47.54 83.91 47.38 83.95 47.22 83.95V83.96Z" fill="#2F150C"/>
<path d="M46.89 82.26L47.22 82.71L47.16 82.29L47.11 82.03L47.09 82L46.96 82.07L46.89 82.26Z" fill="#2F150C"/>
<path d="M50.94 83.7C50.53 83.7 50.15 83.5 49.92 83.17C49.78 83.09 49.66 82.98 49.56 82.86C49.4 82.76 49.26 82.62 49.16 82.47C49.05 82.46 48.94 82.44 48.83 82.39L48.67 82.33C48.48 82.26 48.31 82.14 48.18 82C47.99 82.23 47.71 82.39 47.4 82.44C47.34 82.44 47.28 82.45 47.22 82.45C47.04 82.45 46.86 82.41 46.7 82.34C46.67 82.34 46.65 82.34 46.62 82.34C46.23 82.34 45.87 82.16 45.63 81.85C45.47 81.64 45.38 81.39 45.37 81.14C45.21 81.07 45.06 80.96 44.94 80.83C44.92 80.81 44.9 80.79 44.88 80.76C44.87 80.76 44.86 80.75 44.85 80.74C44.58 80.56 44.4 80.3 44.32 80L44.18 80.02C44.12 80.02 44.07 80.03 44.01 80.03C43.69 80.03 43.37 79.9 43.14 79.67C43.05 79.58 42.98 79.49 42.92 79.38C42.86 79.35 42.8 79.31 42.75 79.27C42.71 79.27 42.68 79.27 42.64 79.27C42.51 79.27 42.38 79.25 42.25 79.21C42.03 79.14 41.84 79.01 41.69 78.84C41.66 78.84 41.64 78.84 41.61 78.84C41.45 78.84 41.28 78.81 41.12 78.74C40.95 78.67 40.8 78.56 40.68 78.42C40.65 78.4 40.62 78.39 40.59 78.37C40.45 78.34 40.31 78.29 40.18 78.22L39.98 78.1C39.86 78.03 39.76 77.95 39.68 77.85C39.65 77.85 39.62 77.83 39.59 77.82H39.58C39.43 77.82 39.28 77.79 39.14 77.74C39.09 77.74 39.03 77.74 38.98 77.73C38.83 77.71 38.68 77.66 38.55 77.59C38.44 77.62 38.33 77.63 38.23 77.63C38.13 77.63 38.03 77.62 37.93 77.59C37.9 77.59 37.86 77.59 37.83 77.59C37.81 77.59 37.79 77.59 37.77 77.59C37.41 77.59 37.06 77.43 36.82 77.15L36.64 76.94C36.64 76.94 36.6 76.89 36.58 76.86C36.49 76.88 36.4 76.89 36.3 76.89C36.22 76.89 36.14 76.89 36.06 76.87C35.8 76.82 35.57 76.69 35.4 76.51C35.27 76.45 35.15 76.37 35.05 76.28C34.97 76.3 34.89 76.3 34.8 76.3C34.68 76.3 34.55 76.28 34.43 76.24C34.26 76.19 34.1 76.09 33.97 75.98C33.83 75.93 33.7 75.85 33.59 75.76C33.55 75.75 33.52 75.73 33.48 75.72C33.43 75.7 33.38 75.67 33.33 75.64C33.16 75.61 33 75.54 32.85 75.44C32.75 75.37 32.65 75.28 32.58 75.18C32.45 75.13 32.32 75.06 32.21 74.97C32.19 74.96 32.17 74.94 32.16 74.93C31.87 74.88 31.6 74.73 31.4 74.49L31.29 74.36C31.29 74.36 31.22 74.32 31.18 74.3C30.94 74.16 30.76 73.95 30.66 73.7C30.64 73.68 30.63 73.67 30.61 73.65C30.52 73.56 30.45 73.45 30.4 73.34C30.36 73.3 30.32 73.26 30.28 73.22C30.06 73.2 29.84 73.13 29.65 72.99C29.35 72.78 29.16 72.44 29.13 72.08C28.88 72.02 28.65 71.89 28.48 71.69C28.35 71.54 28.26 71.37 28.21 71.19C28.21 71.18 28.04 70.96 28.04 70.96C27.86 70.72 27.78 70.43 27.8 70.14C27.76 70.1 27.72 70.05 27.68 70H27.67C27.41 69.83 27.23 69.58 27.14 69.3C27.05 69.23 26.97 69.15 26.91 69.05C26.76 68.85 26.68 68.61 26.68 68.37C26.54 68.25 26.43 68.1 26.36 67.93L26.26 67.7C26.23 67.63 26.21 67.57 26.19 67.5L26.13 67.25C26.11 67.18 26.1 67.11 26.1 67.04C26.04 66.93 26 66.81 25.98 66.69C25.77 66.37 25.72 65.96 25.85 65.59C25.8 65.49 25.76 65.39 25.73 65.28C25.7 65.17 25.69 65.07 25.7 64.96C25.65 64.89 25.61 64.8 25.58 64.72C25.5 64.51 25.48 64.29 25.51 64.08C25.48 63.95 25.47 63.82 25.48 63.69C25.35 63.46 25.29 63.2 25.31 62.94C25.22 62.84 25.14 62.72 25.08 62.59C24.98 62.35 24.95 62.08 25.01 61.83C24.9 61.56 24.88 61.25 24.98 60.95L25.07 60.69C24.99 60.55 24.95 60.4 24.93 60.25C24.83 60.09 24.77 59.9 24.76 59.7C24.74 59.39 24.83 59.1 25 58.86C24.82 58.62 24.73 58.33 24.74 58.03C24.6 57.64 24.65 57.19 24.91 56.85C24.88 56.7 24.88 56.55 24.9 56.41C24.69 56.17 24.58 55.85 24.59 55.52C24.59 55.44 24.61 55.37 24.62 55.29C24.61 55.22 24.6 55.14 24.6 55.07C24.6 54.76 24.73 54.47 24.93 54.24C24.95 54.06 25 53.88 25.09 53.73C25.11 53.58 25.15 53.43 25.22 53.29C25.22 53.29 25.22 53.28 25.22 53.27C25.05 53.01 24.99 52.7 25.04 52.39C24.95 52.21 24.9 52.02 24.9 51.81C24.9 51.59 24.96 51.37 25.07 51.18C25.06 51.05 25.07 50.93 25.09 50.8C25.12 50.68 25.16 50.57 25.21 50.47C25.19 50.33 25.21 50.19 25.23 50.06C25.16 49.87 25.14 49.67 25.17 49.47C25.07 49.28 25.02 49.06 25.02 48.84C24.8 48.52 24.76 48.12 24.87 47.77C24.87 47.75 24.87 47.74 24.87 47.72C24.72 47.52 24.64 47.27 24.63 47.02V46.69C24.61 46.27 24.8 45.88 25.14 45.64C25.02 45.35 25.01 45.01 25.12 44.71C25.22 44.44 25.42 44.21 25.66 44.07C25.77 43.73 26.02 43.45 26.35 43.31L26.37 43.22C26.46 42.9 26.66 42.64 26.93 42.47C26.95 42.34 26.99 42.22 27.05 42.1C27.05 42.09 27.01 41.59 27.01 41.59C26.97 41.17 27.15 40.76 27.48 40.5C27.49 40.5 27.5 40.48 27.52 40.47C22.8 30.97 27.84 19.51 29.8 17.56C30.18 17.18 30.68 16.97 31.24 16.97C34.04 16.97 38.18 22.93 39.36 25.3C40.08 26.76 40.69 28.11 41.16 29.35C41.29 29.08 41.51 28.85 41.79 28.73C41.94 28.53 42.16 28.38 42.4 28.3C42.52 28.26 42.65 28.24 42.77 28.24C43.05 28.24 43.33 28.34 43.56 28.52L43.64 28.58C43.76 28.43 43.92 28.31 44.1 28.23C44.2 28.19 44.3 28.15 44.41 28.14C44.6 27.91 44.88 27.76 45.19 27.71C45.25 27.71 45.3 27.7 45.36 27.7C45.43 27.7 45.5 27.7 45.57 27.72C45.73 27.64 45.91 27.59 46.11 27.58C46.12 27.58 46.13 27.58 46.14 27.58C46.38 27.58 46.61 27.65 46.8 27.77C47.03 27.53 47.35 27.39 47.7 27.39C47.75 27.39 47.8 27.39 47.85 27.39C48.07 27.42 48.27 27.5 48.44 27.62C48.66 27.24 49.07 26.99 49.52 26.99C49.54 26.99 49.56 26.99 49.58 26.99C50.02 27.01 50.41 27.26 50.62 27.64C50.79 27.42 51.04 27.25 51.33 27.19C51.42 27.17 51.51 27.16 51.6 27.16C51.88 27.16 52.14 27.25 52.36 27.42C52.36 27.42 52.42 27.42 52.45 27.42C52.61 27.43 52.75 27.47 52.89 27.53C53.05 27.46 53.22 27.42 53.4 27.42C53.56 27.35 53.74 27.3 53.92 27.3C53.95 27.3 53.97 27.3 54 27.3C54.24 27.31 54.46 27.39 54.64 27.52C54.76 27.54 54.88 27.58 54.99 27.63C55.06 27.62 55.14 27.61 55.21 27.61C55.22 27.61 55.24 27.61 55.25 27.61C55.45 27.61 55.64 27.67 55.81 27.76C55.87 27.76 55.93 27.75 55.99 27.75C56.03 27.75 56.07 27.75 56.1 27.75C56.56 27.79 56.95 28.08 57.13 28.49C57.32 28.37 57.55 28.3 57.78 28.3C57.83 28.3 57.87 28.3 57.92 28.3C58.31 28.34 58.65 28.57 58.85 28.89C59.01 28.98 59.15 29.1 59.26 29.25C59.39 29.25 59.53 29.27 59.66 29.32C60.13 28.08 60.74 26.71 61.47 25.25C62.65 22.88 66.79 16.92 69.59 16.92C70.15 16.92 70.64 17.12 71.03 17.51C73 19.48 78.01 31.26 73.18 40.67C73.28 40.9 73.31 41.16 73.27 41.41C73.47 41.51 73.64 41.67 73.76 41.87C73.92 42.13 73.97 42.44 73.92 42.73C73.94 42.73 73.95 42.75 73.97 42.75C74.39 42.97 74.66 43.41 74.65 43.88C74.65 44.05 74.61 44.21 74.55 44.36C74.56 44.41 74.57 44.46 74.57 44.52C74.59 44.83 74.49 45.13 74.31 45.36C74.43 45.47 74.54 45.58 74.66 45.7C74.68 45.72 74.7 45.74 74.72 45.76C74.88 45.94 75.03 46.12 75.19 46.3C75.52 46.68 75.59 47.23 75.36 47.68C75.36 47.68 75.36 47.7 75.35 47.7C75.63 47.99 75.76 48.39 75.69 48.79L75.64 49.08C75.62 49.2 75.58 49.31 75.53 49.41C75.72 49.67 75.8 49.98 75.76 50.29C75.82 50.39 75.86 50.51 75.88 50.62C75.91 50.75 75.91 50.87 75.9 51C76.01 51.19 76.07 51.41 76.07 51.63C76.07 51.83 76.02 52.03 75.93 52.21C75.98 52.52 75.92 52.83 75.75 53.09C75.75 53.09 75.75 53.1 75.75 53.11C75.82 53.25 75.87 53.4 75.88 53.55C75.97 53.71 76.02 53.88 76.04 54.06C76.24 54.28 76.36 54.57 76.37 54.89C76.37 54.97 76.37 55.04 76.35 55.11C76.37 55.18 76.38 55.26 76.38 55.34C76.4 55.67 76.29 55.99 76.07 56.23C76.09 56.37 76.09 56.52 76.06 56.67C76.32 57.02 76.38 57.46 76.23 57.85C76.25 58.15 76.16 58.44 75.97 58.68C76.14 58.92 76.23 59.21 76.21 59.52C76.2 59.72 76.13 59.9 76.04 60.07C76.02 60.23 75.97 60.38 75.9 60.51L75.99 60.76C76.09 61.05 76.07 61.37 75.96 61.64C76.02 61.89 75.99 62.16 75.89 62.4C75.83 62.53 75.76 62.65 75.66 62.75C75.68 63.01 75.62 63.27 75.49 63.5C75.49 63.63 75.49 63.76 75.46 63.89C75.49 64.1 75.47 64.33 75.4 64.53C75.37 64.61 75.33 64.7 75.28 64.77C75.28 64.88 75.28 64.98 75.25 65.09C75.22 65.2 75.18 65.3 75.13 65.4C75.26 65.77 75.21 66.18 75 66.5C74.98 66.62 74.94 66.74 74.88 66.85C74.88 66.92 74.86 66.99 74.85 67.06L74.79 67.31C74.77 67.38 74.75 67.45 74.72 67.51L74.62 67.74C74.55 67.91 74.43 68.06 74.3 68.18C74.3 68.42 74.21 68.66 74.07 68.86C74 68.95 73.92 69.04 73.84 69.11C73.75 69.39 73.57 69.64 73.31 69.8H73.3C73.26 69.86 73.22 69.91 73.18 69.95C73.2 70.24 73.12 70.53 72.94 70.77C72.94 70.77 72.78 70.99 72.77 71C72.72 71.18 72.63 71.36 72.5 71.5C72.33 71.7 72.1 71.83 71.85 71.89C71.82 72.25 71.63 72.58 71.33 72.8C71.14 72.93 70.92 73.01 70.7 73.03C70.66 73.07 70.62 73.11 70.58 73.15C70.53 73.26 70.46 73.37 70.37 73.46C70.35 73.48 70.34 73.49 70.32 73.51C70.22 73.76 70.04 73.97 69.8 74.11C69.76 74.13 69.73 74.15 69.69 74.17L69.58 74.3C69.38 74.54 69.11 74.69 68.82 74.74C68.8 74.76 68.79 74.77 68.77 74.78C68.66 74.87 68.53 74.94 68.4 74.99C68.32 75.09 68.23 75.18 68.13 75.25C67.98 75.35 67.82 75.42 67.65 75.45C67.6 75.48 67.55 75.51 67.5 75.53C67.46 75.55 67.43 75.56 67.39 75.57C67.28 75.67 67.15 75.74 67.01 75.8C66.88 75.92 66.72 76.01 66.55 76.06C66.43 76.1 66.3 76.12 66.18 76.12C66.1 76.12 66.01 76.12 65.93 76.1C65.83 76.2 65.71 76.28 65.58 76.33C65.4 76.51 65.17 76.64 64.92 76.69C64.84 76.71 64.76 76.71 64.68 76.71C64.59 76.71 64.49 76.7 64.4 76.68C64.38 76.71 64.36 76.73 64.34 76.76L64.16 76.97C63.92 77.25 63.57 77.41 63.21 77.41C63.19 77.41 63.17 77.41 63.15 77.41C63.12 77.41 63.08 77.41 63.05 77.41C62.95 77.44 62.85 77.45 62.75 77.45C62.64 77.45 62.53 77.44 62.43 77.41C62.3 77.48 62.15 77.53 62 77.55C61.95 77.55 61.89 77.56 61.84 77.56C61.7 77.61 61.55 77.64 61.4 77.64C61.4 77.64 61.4 77.64 61.39 77.64C61.36 77.65 61.33 77.66 61.3 77.67C61.21 77.77 61.11 77.86 61 77.92L60.8 78.04C60.67 78.12 60.53 78.17 60.39 78.19C60.36 78.21 60.33 78.22 60.3 78.24C60.18 78.38 60.03 78.49 59.86 78.56C59.7 78.63 59.54 78.66 59.37 78.66C59.34 78.66 59.31 78.66 59.29 78.66C59.14 78.83 58.95 78.96 58.73 79.03C58.6 79.07 58.47 79.09 58.34 79.09C58.3 79.09 58.27 79.09 58.23 79.09C58.18 79.13 58.12 79.17 58.06 79.2C58 79.3 57.93 79.4 57.84 79.49C57.61 79.72 57.29 79.85 56.97 79.85C56.91 79.85 56.86 79.85 56.8 79.84L56.66 79.82C56.59 80.12 56.4 80.38 56.14 80.56C56.13 80.56 56.12 80.57 56.11 80.58C56.09 80.6 56.07 80.63 56.05 80.65C55.93 80.79 55.78 80.89 55.62 80.96C55.62 81.22 55.52 81.47 55.36 81.67C55.12 81.98 54.76 82.16 54.37 82.16C54.34 82.16 54.32 82.16 54.29 82.16C54.13 82.23 53.95 82.27 53.77 82.27C53.71 82.27 53.65 82.27 53.59 82.26C53.32 82.22 53.08 82.1 52.9 81.92L52.71 82.09C52.6 82.19 52.48 82.27 52.35 82.32C52.34 82.37 52.33 82.42 52.31 82.46L52.19 82.81C52.02 83.3 51.55 83.63 51.03 83.64C51.03 83.64 51.03 83.64 51.02 83.64L50.94 83.7Z" fill="#2F150C"/>
<path d="M26.2701 55.86L26.5001 56.11L26.3801 56.36L26.1101 56.61L26.1701 56.86L26.4401 57.11L26.0701 57.36L25.8801 57.61L26.0701 57.86L25.9501 58.11L26.3001 58.35L26.3901 58.59L26.2301 58.85L26.5401 59.08L26.5701 59.32L25.9601 59.61L26.6201 59.81L26.1301 60.1L26.3801 60.33L26.5401 60.56L26.5001 60.81L26.2301 61.09L26.1401 61.35L26.4801 61.55L26.3601 61.82L26.2101 62.09L26.7701 62.25L26.7301 62.51L26.6801 62.77L26.5301 63.05L26.7901 63.25L26.7201 63.52L26.7001 63.78L26.8501 63.99L26.7201 64.28L27.0701 64.44L27.3201 64.62L26.9201 65L27.3301 65.12L27.2201 65.41L27.1901 65.68L26.9901 66.02L27.2501 66.19L27.1801 66.49L27.3101 66.7V66.97L27.3701 67.22L27.4701 67.45L27.7301 67.59L27.8901 67.78L28.0301 67.98L27.9001 68.34H28.4001L28.2801 68.68L28.3201 68.95L28.5501 69.09L28.6901 69.29L28.9401 69.4L29.0701 69.6L29.2001 69.8L29.0401 70.24L29.1801 70.44L29.6901 70.3L29.4001 70.89L29.9301 70.71L30.0601 70.91H30.3701V71.26L30.4701 71.49L30.3501 72L30.9901 71.59L31.1601 71.73L31.0801 72.21L31.2001 72.43L31.5401 72.35L31.4901 72.83H31.7701V73.25L32.1801 73.04L32.1601 73.53L32.3201 73.72L32.7001 73.51L33.0001 73.44L32.9501 74.03L33.2601 73.94L33.5801 73.8L33.5201 74.45L33.8401 74.3L33.9501 74.62L34.2601 74.49L34.3601 74.85L34.7201 74.57L34.7601 75.09L35.2401 74.5L35.4201 74.64L35.4701 75.15L35.7401 75.06L35.8601 75.4L36.0901 75.43L36.2501 75.68L36.5701 75.45L36.7501 75.62L36.9801 75.65L37.2501 75.54L37.4101 75.8L37.5401 76.17L37.7201 76.38L38.1301 75.79L38.1901 76.41L38.5001 76.15L38.6801 76.33L38.9501 76.21L39.1001 76.52L39.4401 76.13L39.5501 76.6L39.8101 76.51L40.0001 76.68L40.2601 76.59L40.5301 76.48L40.6101 77.05L40.8101 77.17L41.0801 77.03L41.2301 77.33L41.5901 76.93L41.6101 77.62L41.9401 77.32L42.2501 77.11L42.3801 77.43L42.5701 77.58L42.6401 78.05L43.0201 77.66L43.2801 77.61L43.4901 77.71V78.31L43.7101 78.38L44.0901 78.08L44.0101 78.81L44.2701 78.77L44.7201 78.38L44.7701 78.79L45.1201 78.63L45.1601 79.03L45.4001 79.09L45.6501 79.13L45.5301 79.73L46.0901 79.34L45.8601 80.03L46.2201 79.95L46.4101 80.09L46.5901 80.25L46.5701 80.59L46.7401 80.75L46.6201 81.12L47.1301 81.08L47.2301 81.23L47.2701 81.1L47.4201 80.85L47.1101 80.62L47.0101 80.39L47.5201 80.07L46.9501 79.91L47.5501 79.53L47.3001 79.32L47.3401 79.04L47.1401 78.84L46.8301 78.78H46.8201L46.6601 78.73L47.0101 78.36L46.9201 78.13L46.6401 78.11L46.8101 77.98L46.8501 77.79L46.7801 77.74L47.2301 77.69L47.3001 77.91L47.7001 77.86L47.5901 78.23L47.6201 78.49V78.78L48.0001 78.73H48.3401L48.3601 78.99L48.5801 79.1L48.2501 79.61L48.7401 79.53V79.78L48.5701 80.12L48.8001 80.24L48.9501 80.4L49.3701 80.47L48.9901 80.81L49.1501 80.98L49.1001 81.19L49.2601 81.25L49.4201 81.16L49.4901 81.01L49.5101 81.08L49.8401 81.24L50.2701 81.32L50.3401 81.51L50.2001 81.83L50.4301 81.93L50.5301 82.12H50.7801L50.9201 82.48L51.0401 82.13L50.9501 81.94V81.72L50.3801 81.64L50.5801 81.37L50.2901 81.19L50.3501 80.96L50.6601 80.74L50.5801 80.53L50.3901 80.27L50.4601 80.23L50.5701 80.4L50.8801 80.58L51.1901 80.53L51.4901 80.43L51.0101 79.99L51.4801 79.93L51.6901 79.74L51.7901 79.51L51.4701 79.26V79.15L51.6101 79.2L51.8301 79.32L51.8901 79.55L51.6601 79.88L52.1601 79.94L52.2101 80.17L51.7301 80.45L52.2801 80.65L51.8401 80.83L51.8001 81.26L52.1501 80.94L52.2301 80.72L52.3901 80.56L52.4301 80.33L52.8601 80.26L52.6401 79.93L52.4801 79.64V79.42L52.8801 79.29L52.5801 78.99L52.9801 79.04L53.1501 79.02L53.0501 79.24H53.2501L53.3701 79.13L53.2501 78.88L53.2701 78.64L53.8601 78.61V78.4L53.5701 78.02L53.9501 77.98L54.2701 77.94L54.2501 77.67L54.1801 77.33L54.5401 77.39L54.6501 77.51L54.2901 77.6L54.5301 77.97L54.0001 78.01L53.9101 78.24L54.2801 78.63L53.7801 78.72L53.5801 78.92L53.6201 79.19L53.3701 79.4L53.9701 79.78L53.4001 79.94L53.9101 80.26L53.8101 80.49L53.5001 80.72L53.6501 80.97L53.6901 81.1L53.7901 80.95L54.3001 80.99L54.1801 80.62L54.3501 80.46L54.3301 80.12L54.5101 79.96L54.7001 79.82L55.0601 79.9L54.8301 79.21L55.3901 79.6L55.2701 79L55.5201 78.96L55.7601 78.9L55.8001 78.5L56.1501 78.66L56.2001 78.25L56.6501 78.64L56.9101 78.68L56.8301 77.95L57.2101 78.25L57.4201 78.18V77.58L57.6301 77.48L57.8901 77.53L58.2701 77.92L58.3401 77.45L58.5301 77.3L58.6601 76.98L58.9701 77.19L59.3001 77.49L59.3201 76.8L59.6801 77.2L59.8301 76.9L60.1001 77.04L60.3001 76.92L60.3801 76.35L60.6501 76.46L60.9101 76.55L61.1001 76.38L61.3601 76.47L61.4701 76L61.8101 76.39L61.9601 76.08L62.2301 76.2L62.4101 76.02L62.7201 76.28L62.7801 75.66L63.1901 76.25L63.3701 76.04L63.5001 75.67L63.6601 75.41L63.9301 75.52L64.1601 75.49L64.3401 75.32L64.6601 75.55L64.8201 75.3L65.0501 75.27L65.1701 74.92L65.4401 75.01L65.4901 74.5L65.6701 74.36L66.1501 74.95L66.1901 74.43L66.5501 74.71L66.6501 74.35L66.9601 74.48L67.0701 74.16L67.3901 74.31L67.3301 73.66L67.6501 73.8L67.9601 73.89L67.9101 73.3L68.2101 73.37L68.5901 73.58L68.7501 73.39L68.7301 72.9L69.1401 73.12V72.69H69.4301L69.3801 72.21L69.7201 72.29L69.8401 72.07L69.7601 71.59L69.9301 71.45L70.5701 71.86L70.4501 71.35L70.5501 71.12V70.78H70.8601L70.9901 70.58L71.5201 70.76L71.2301 70.17L71.7401 70.31L71.8801 70.11L71.7201 69.67L71.8501 69.47L71.9801 69.27L72.2301 69.16L72.3701 68.96L72.6001 68.82L72.6401 68.55L72.5201 68.19H73.0201L72.8901 67.85L73.0301 67.65L73.1901 67.46L73.4501 67.32L73.5501 67.09L73.6101 66.84V66.57L73.7401 66.36L73.6701 66.06L73.9301 65.89L73.7301 65.55L73.7001 65.28L73.5901 64.99L74.0001 64.87L73.6001 64.49L73.8501 64.31L74.2001 64.15L74.0701 63.86L74.2201 63.65L74.2001 63.39L74.1301 63.12L74.3901 62.92L74.2401 62.64L74.1901 62.38L74.1501 62.12L74.7101 61.96L74.5601 61.69L74.4401 61.42L74.7801 61.22L74.6901 60.96L74.4201 60.68L74.3801 60.43L74.5401 60.2L74.7901 59.97L74.3001 59.68L74.9601 59.48L74.3501 59.19L74.3801 58.95L74.6901 58.72L74.5301 58.46L74.6201 58.22L74.9701 57.98L74.8501 57.73L75.0401 57.48L74.8501 57.23L74.4801 56.98L74.7501 56.73L74.8101 56.48L74.5401 56.23L74.4201 55.98L74.6501 55.73L75.1101 55.47L74.5701 55.24L75.0901 54.97L74.6101 54.74L74.5001 54.49L74.7601 54.22L74.4401 53.99L74.6001 53.73L74.4601 53.49V53.24L74.3601 53L74.4301 52.74L74.6601 52.46L74.2101 52.28L74.4201 52L74.7901 51.68L74.5501 51.47L74.3701 51.25L74.6201 50.94L74.2701 50.77L74.2901 50.51L74.4801 50.2L74.2301 50.01L74.1401 49.78L73.9901 49.57L73.6401 49.43L74.0801 49.01L73.6101 48.92L73.4201 48.73L73.6301 48.5C73.8801 48.64 74.1201 48.78 74.3601 48.93C74.3801 48.83 74.3901 48.73 74.4101 48.64C74.1101 48.36 73.8101 48.08 73.5101 47.81L73.5401 47.61L73.5601 47.32H73.0601L73.1901 47.12C73.3101 47.12 73.4401 47.14 73.5601 47.15C73.7801 47.16 73.9901 47.18 74.2101 47.19C74.0601 47.01 73.9001 46.84 73.7501 46.66C73.5901 46.5 73.4401 46.35 73.2801 46.2C73.1001 46.08 72.9201 45.97 72.7301 45.85L72.8401 45.7L72.5901 45.74C72.6201 45.67 72.6501 45.6 72.6801 45.53C72.6301 45.48 72.5801 45.42 72.5301 45.37L72.5701 45.29H72.4701C72.4701 45.29 72.4301 45.27 72.4201 45.25C72.4501 45.16 72.4801 45.08 72.5001 44.99C72.7701 44.88 73.0301 44.77 73.3001 44.67C72.9801 44.59 72.6601 44.51 72.3401 44.44C72.6901 44.27 73.0401 44.1 73.3801 43.93C73.2101 43.84 73.0301 43.76 72.8601 43.67C72.6301 43.62 72.3901 43.58 72.1601 43.54C72.1601 43.42 72.1701 43.31 72.1801 43.19C72.3501 42.99 72.5101 42.78 72.6801 42.58C72.2701 42.66 71.8601 42.75 71.4501 42.85C71.5801 42.64 71.7101 42.44 71.8501 42.24C71.8501 42.11 71.8401 41.98 71.8301 41.84C71.9001 41.64 71.9701 41.44 72.0401 41.25C71.7801 41.36 71.5101 41.48 71.2401 41.6C77.2501 32.41 71.8201 20.14 70.1501 18.47C68.7401 17.06 64.1601 22.74 62.6001 25.89C61.5701 27.96 60.8801 29.64 60.4301 31C60.3801 31.03 60.3201 31.07 60.2701 31.1C60.1801 31.09 60.0901 31.08 60.0101 31.07C59.9001 31.2 59.7901 31.32 59.6801 31.45C59.5601 31.62 59.4501 31.79 59.3301 31.97C59.3101 31.51 59.3001 31.06 59.2801 30.6C59.1801 30.67 59.0801 30.75 58.9801 30.82C58.8601 31.06 58.7301 31.3 58.6101 31.54C58.5301 31.52 58.4401 31.49 58.3601 31.47C58.3301 31.01 58.3101 30.56 58.2801 30.1C58.1601 30.34 58.0401 30.58 57.9201 30.82C57.8801 30.43 57.8401 30.05 57.8101 29.66C57.6701 30.09 57.5301 30.52 57.3901 30.95C57.3101 30.87 57.2401 30.79 57.1601 30.71C57.0801 30.64 57.0001 30.57 56.9201 30.49C56.8501 30.3 56.7901 30.1 56.7201 29.91C56.5901 30.35 56.4501 30.79 56.3201 31.22C56.2501 31.04 56.1901 30.86 56.1201 30.68C56.0801 30.15 56.0501 29.63 56.0101 29.1C55.8701 29.63 55.7401 30.15 55.6101 30.68C55.5401 30.45 55.4801 30.22 55.4101 29.99C55.3501 29.65 55.2901 29.3 55.2301 28.96C55.1001 29.5 54.9701 30.04 54.8401 30.59C54.7701 30.34 54.7101 30.09 54.6401 29.85C54.5801 29.52 54.5101 29.19 54.4501 28.86C54.3301 29.33 54.2101 29.8 54.1001 30.26C54.0501 29.72 53.9901 29.18 53.9401 28.65C53.8201 29.17 53.7101 29.69 53.5901 30.21C53.5301 29.73 53.4701 29.24 53.4101 28.76C53.3001 29.34 53.1801 29.91 53.0701 30.49C53.0001 30.16 52.9301 29.82 52.8601 29.49C52.7701 29.49 52.6901 29.47 52.6001 29.47C52.5201 29.23 52.4501 28.99 52.3701 28.76C52.2801 28.95 52.1801 29.14 52.0901 29.33C52.0101 29.16 51.9301 29 51.8501 28.83C51.7701 28.72 51.6801 28.61 51.6001 28.5C51.5101 28.94 51.4101 29.38 51.3201 29.82C51.2301 29.92 51.1501 30.03 51.0601 30.13C50.9801 30.07 50.8901 30.01 50.8101 29.95C50.7301 30 50.6401 30.05 50.5501 30.09C50.4701 29.94 50.3801 29.8 50.3001 29.65C50.2101 29.74 50.1301 29.83 50.0401 29.92C49.9501 29.8 49.8701 29.67 49.7801 29.55C49.6901 29.14 49.6001 28.73 49.5101 28.33C49.4301 28.59 49.3401 28.86 49.2601 29.12C49.1701 29.04 49.0901 28.95 49.0001 28.87C48.9201 29.01 48.8301 29.14 48.7501 29.28C48.6701 29.57 48.5901 29.87 48.5101 30.16C48.4201 29.98 48.3301 29.79 48.2401 29.61C48.1601 29.9 48.0901 30.2 48.0101 30.5C47.9001 29.9 47.8001 29.31 47.6901 28.71C47.6101 28.89 47.5301 29.07 47.4501 29.25C47.3701 29.35 47.2901 29.45 47.2001 29.54C47.1301 29.82 47.0501 30.09 46.9801 30.37C46.9001 30.39 46.8101 30.41 46.7301 30.42C46.6501 30.46 46.5701 30.51 46.4801 30.55C46.3601 30 46.2401 29.44 46.1301 28.89C46.0701 29.27 46.0101 29.66 45.9401 30.04C45.8501 30 45.7601 29.97 45.6801 29.93C45.5701 29.62 45.4601 29.31 45.3601 29C45.3201 29.59 45.2801 30.19 45.2301 30.78C45.1101 30.36 44.9901 29.95 44.8701 29.53C44.7801 29.49 44.6901 29.45 44.6001 29.42C44.5301 29.61 44.4601 29.81 44.3901 30C44.3101 30.1 44.2401 30.2 44.1601 30.29C44.0901 30.49 44.0301 30.68 43.9601 30.88C43.8801 30.93 43.8001 30.98 43.7201 31.04C43.6001 30.69 43.4701 30.33 43.3501 29.98C43.2501 29.91 43.1601 29.84 43.0701 29.77C42.9701 29.69 42.8801 29.61 42.7801 29.53C42.7201 29.75 42.6501 29.97 42.5901 30.18C42.4901 30.09 42.3901 30 42.2901 29.9C42.2501 30.25 42.2001 30.6 42.1601 30.95C42.1101 31.22 42.0601 31.5 42.0101 31.77C41.9001 31.61 41.7901 31.44 41.6801 31.28C41.6101 31.39 41.5401 31.5 41.4701 31.62C41.3501 31.41 41.2301 31.19 41.1101 30.98C41.0701 31.29 41.0301 31.59 40.9901 31.89C40.8801 31.74 40.7701 31.6 40.6601 31.45C40.6201 31.42 40.5701 31.39 40.5301 31.36C40.0801 29.94 39.3601 28.15 38.2401 25.89C36.6801 22.74 32.0901 17.07 30.6901 18.47C29.0601 20.1 23.8901 31.74 29.1301 40.83C29.1001 40.82 29.0601 40.81 29.0301 40.79C29.1401 41.04 29.2501 41.3 29.3601 41.55C29.3101 41.64 29.2501 41.73 29.2001 41.82C28.8901 41.71 28.5801 41.6 28.2701 41.49C28.2801 41.64 28.3001 41.8 28.3101 41.95C28.3601 42.12 28.4101 42.29 28.4601 42.45C28.3701 42.52 28.2801 42.6 28.1801 42.67C28.3201 42.86 28.4501 43.06 28.5901 43.25C28.5001 43.32 28.4201 43.39 28.3301 43.47C28.0801 43.49 27.8401 43.51 27.6001 43.53C27.5701 43.64 27.5401 43.75 27.5101 43.86C27.6901 44.01 27.8701 44.16 28.0601 44.32C27.6601 44.35 27.2701 44.4 26.8801 44.45C27.1001 44.58 27.3201 44.7 27.5401 44.83C27.1301 44.93 26.7201 45.03 26.3101 45.15C26.3801 45.26 26.4501 45.37 26.5201 45.48C26.5901 45.58 26.6701 45.67 26.7401 45.77C26.8001 45.85 26.8601 45.94 26.9101 46.03C26.5601 46.23 26.2201 46.44 25.8801 46.65C25.8801 46.76 25.8801 46.87 25.8801 46.99C26.2601 46.91 26.6401 46.83 27.0201 46.76C26.7101 47.01 26.4101 47.26 26.1001 47.52C26.3401 47.47 26.5801 47.42 26.8201 47.37C26.5701 47.63 26.3201 47.89 26.0701 48.16C26.3501 48.04 26.6301 47.92 26.9101 47.8C26.8201 47.96 26.7301 48.11 26.6401 48.27C26.5201 48.47 26.3901 48.68 26.2701 48.88C26.5601 48.68 26.8501 48.49 27.1501 48.3C27.1601 48.32 27.1701 48.34 27.1801 48.36L27.1101 48.42L27.1901 48.51C26.9301 48.89 26.6701 49.27 26.4001 49.65C26.5801 49.5 26.7501 49.36 26.9301 49.21L27.0401 49.31C26.9501 49.48 26.8601 49.64 26.7801 49.81C26.7701 49.87 26.7601 49.94 26.7501 50L26.7001 50.13L26.4501 50.32L26.6401 50.63L26.6601 50.89L26.3101 51.06L26.5601 51.37L26.3801 51.59L26.1401 51.8L26.5101 52.12L26.7201 52.41L26.2701 52.59L26.5001 52.87L26.5701 53.13L26.4601 53.37V53.62L26.3201 53.86L26.4801 54.12L26.1601 54.35L26.4201 54.62L26.3101 54.87L25.8301 55.1L26.3501 55.37L25.8101 55.6L26.2701 55.86ZM54.4701 76.94L54.6301 76.97H54.4801V76.94H54.4701ZM49.6701 79.62L49.6401 79.68L49.5901 79.62L49.6401 79.58L49.6601 79.62H49.6701ZM55.0601 76.62L54.6901 76.59V76.56C54.7701 76.53 54.8701 76.51 54.9701 76.48L55.0701 76.62H55.0601ZM46.4101 77.44L46.5001 77.34L46.6601 77.26V77.43L46.7201 77.64L46.4101 77.44ZM49.7101 80.66L49.5601 80.48L49.5401 80.26L49.8201 80.18L49.9501 80.28L49.9801 80.5L49.7201 80.66H49.7101ZM27.0801 49.07C27.0801 49.07 27.1701 48.99 27.2201 48.96C27.2001 48.99 27.1901 49.03 27.1701 49.06L27.0801 49.08V49.07Z" fill="#2F150C"/>
<path d="M53.7101 83.84C53.5501 83.84 53.3901 83.81 53.2301 83.74C52.7001 83.52 52.3901 82.96 52.4801 82.4C52.4801 82.4 52.5501 81.96 52.5501 81.95L52.6001 81.69C52.6301 81.52 52.6901 81.37 52.7901 81.22L52.8101 81.19C53.0501 80.83 53.4501 80.63 53.8501 80.63C54.0501 80.63 54.2501 80.68 54.4401 80.78L54.5701 80.85C54.8301 80.99 55.0401 81.22 55.1501 81.5L55.2201 81.69C55.3701 82.09 55.3101 82.54 55.0601 82.88L54.7301 83.33C54.4901 83.66 54.1101 83.84 53.7201 83.84H53.7101Z" fill="#2F150C"/>
<path d="M53.78 82.17L53.71 82.59L54.04 82.14L53.97 81.95L53.84 81.88L53.82 81.91L53.78 82.17Z" fill="#2F150C"/>
<path d="M53.8401 83.1299C53.6401 83.1299 53.4401 83.0799 53.2501 82.9799L52.8001 82.7399C52.4301 82.5399 52.1801 82.1599 52.1501 81.7399C52.1201 81.3999 52.2401 81.0599 52.4601 80.8099C52.4901 80.6899 52.5501 80.5699 52.6201 80.4599L52.6701 80.3899C52.9001 80.0299 53.3001 79.8199 53.7201 79.8199C53.7801 79.8199 53.8401 79.8199 53.9001 79.8299C54.3801 79.8999 54.7801 80.2499 54.9201 80.7199V80.7499L54.9501 80.7999L55.0301 80.9199C55.3201 81.3399 55.3301 81.8999 55.0501 82.3199L54.8901 82.5599C54.6501 82.9199 54.2501 83.1199 53.8501 83.1199L53.8401 83.1299Z" fill="#2F150C"/>
<path d="M53.67 81.43L53.39 81.64L53.84 81.88L54 81.64L53.84 81.42L53.74 81.19L53.71 81.08L53.66 81.15L53.67 81.43Z" fill="#2F150C"/>
<path d="M50.36 73.46L50.21 72.81L49.88 73.22L49.68 73.09L49.42 73.21L49.18 73.23L49.05 72.83L48.83 72.76L48.56 72.9L48.42 72.52L48.21 72.46L47.99 72.4L47.71 72.59L47.44 72.74L47.22 72.68L47.02 72.55L46.79 72.53L46.7 71.98L46.48 71.93L46.23 71.99L45.98 72.06H45.74L45.43 72.33L45.21 72.27L45.03 72.08L44.8 72.05L44.73 71.46L44.49 71.47L44.14 71.86L43.93 71.76L43.69 71.78L43.54 71.49L43.41 71.15L43.19 71.09L42.94 71.14L42.73 71.06L42.41 71.25L42.22 71.09L42.05 70.92L42 70.63L41.77 70.57L41.55 70.54L41.45 70.29L40.97 70.5L41.41 70.72L40.91 70.87L41.34 71.15L41.39 71.37L40.99 71.56L41.07 71.79L41.19 72.01L41.32 72.23L40.91 72.48L40.88 72.71L41.41 72.87L41.14 73.13L40.96 73.4L41.32 73.55L41.51 73.73L41.68 73.9L41.83 74.06L41.46 74.47L41.59 74.66L42.02 74.67L41.94 74.97L42.26 75.01L42.43 75.14L42.7 75.5L42.54 75.12L41.92 75.19L41.93 74.91L42.34 74.52L41.6 74.51L42.24 74.12L41.55 74L41.77 73.73L41.92 73.51L41.87 72.96L41.93 73.49L42.16 73.63L42.39 73.77L42.21 74.1L42.02 74.44L42.29 74.56L42.32 74.81L42.33 75.07L42.86 75L43.03 75.15L42.74 75.65L42.96 75.77L43.56 75.54L43.32 76.08L43.53 76.21L43.85 76.16L43.9 76.5L44.07 76.7L44.45 76.48L44.56 76.77L44.96 76.58L45.02 76.94L45.16 77.15L45.63 77.12L45.36 77.53L45.12 77.21L45.13 77.07L45.41 76.86L45.59 76.54L45.19 76.49L44.9 76.47L44.85 76.24L44.92 75.85L44.57 75.83L44.69 76.1L44.8 76.3H45.15L45.5 76.32L45.56 76.58L45.77 76.74L45.66 77.07L46.01 77.17L45.63 77.58L45.88 77.73L46.19 77.92L46.14 78.16L45.86 78.48L46.44 78.43L46.37 78.73L46.39 79.01L46.6 79.13L46.86 79.14L47.09 79.41L46.89 79.17L46.95 78.91L46.82 78.74L46.37 78.63L46.91 78.32L46.57 78.13L46.82 77.94L46.86 77.74L46.37 77.41L46.69 77.25L46.96 77.02L46.65 76.87L46.64 77.14L46.67 77.43L46.73 77.7L47.24 77.64L47.31 77.86L47.71 77.81L47.6 78.19L47.63 78.45V78.74L48.01 78.69L48.36 78.68L48.38 78.95L48.6 79.06L48.27 79.57L48.76 79.49V79.75L48.59 80.09L48.81 80.2L48.96 80.36L49.39 80.43L49.01 80.78L49.16 80.95L49.12 81.16L49.64 81.35L48.95 81.53L49.28 81.84L49.07 81.46L49.18 81.27L49.44 81.13L49.53 80.93L49.8 80.77L49.56 80.48L49.54 80.26L50.06 80.1L49.78 79.84L49.59 79.62L49.92 79.38L49.6 78.89L49.55 79.39L49.67 79.62L49.56 79.85L49.69 80.07L49.94 80.28L49.97 80.49L49.47 80.81L49.52 81.05L49.85 81.21L50.29 81.29L50.36 81.48L50.22 81.8L50.45 81.9L50.55 82.09H50.8L50.94 82.45L51.06 82.1L50.97 81.91L50.99 81.7L50.41 81.62L50.61 81.35L50.32 81.17L50.38 80.94L50.68 80.72L50.6 80.5L50.41 80.24L50.67 80.09L50.83 79.54L50.47 80.18L50.59 80.37L50.92 80.57L50.78 81.02L50.89 80.56L51.21 80.51L51.5 80.4L51.02 79.96L51.49 79.9L51.7 79.71L51.79 79.47L51.47 79.23L51.48 79.11L51.61 79.16L51.84 79.28L51.89 79.51L51.66 79.84L52.16 79.9L52.21 80.14L51.73 80.41L52.28 80.61L51.84 80.8L51.8 81.22L52.15 80.9L52.24 80.68L52.4 80.52L52.44 80.29L52.87 80.22L52.64 79.89L52.49 79.61L52.5 79.38L52.89 79.26L52.58 78.95L52.98 79L53.16 78.99L53.06 79.2L53.39 79.23L53.02 79.81L53.31 79.56L53.37 79.53L53.19 79.3L53.38 79.09L53.26 78.84L53.28 78.6L53.87 78.57L53.88 78.36L53.58 77.97L53.96 77.93L54.28 77.9L54.26 77.63L54.18 77.29L54.57 77.35L54.47 76.94L54.85 77.02L54.67 76.55L54.9 76.47L54.95 76.26L55.55 76.36L55.47 76.06L55.16 76.22L55.48 76.54L55.16 76.71L54.97 76.9L55.01 77.17L54.91 77.38L54.84 77.44L54.8 77.34L55.01 77.21L55.19 77.05L55.33 76.83L55.66 76.86L55.85 76.73L56.09 76.65L56.05 76.23L56.4 76.29L56.49 76.04L56.62 75.85L56.59 75.51L57.19 75.73L57.4 75.56L57.27 75.19L57.44 74.89L57.01 75.16L57.3 75.39L57.2 75.59L57.19 75.81L57.18 76.04L57.04 76.3L56.98 75.89L57.27 75.86L57.34 75.64L57.61 75.57L57.96 75.54L57.89 75.23L57.98 75.03L57.92 74.76L57.95 74.54L58.04 74.36L57.98 74.13L58.37 74L58.25 74.23L58.46 74.42L58.28 74.66L58.65 74.95L58.23 75.05L58.19 74.7L58.35 74.56L58.46 74.37L59 74.42L59.15 74.22L59.17 73.96L59.15 73.7L59.18 73.46L59.17 73.22L59.59 73.02L58.97 72.77L59.53 72.5L59.21 72.3L59.3 71.91L58.82 72.16L58.6 72.24L58.45 72.02L58.27 71.67L58.02 72.08L57.81 71.61L57.59 71.84L57.37 71.93L57.12 71.53L56.94 72.03L56.73 72.16L56.47 71.85L56.25 71.86L56.05 72.08L55.82 72.02L55.65 72.34L55.35 71.89L55.19 72.29L54.92 72.05L54.75 72.35L54.49 72.19L54.31 72.44L54.06 72.34L53.85 72.42L53.54 72.04L53.34 72.19L53.11 72.17L52.95 72.48L52.68 72.3L52.47 72.41L52.24 72.42L52.01 72.4L51.92 73.01L51.67 72.91L51.37 72.64L51.22 72.94L50.94 72.75L50.85 73.31L50.53 72.99L50.36 73.46Z" fill="#7A624E"/>
<path d="M70.14 18.44C68.73 17.03 64.15 22.71 62.59 25.86C58.32 34.45 59.83 36.33 60.13 36.59C60.16 36.61 60.18 36.63 60.18 36.63C60.18 36.63 60.16 36.62 60.13 36.59C59.85 36.39 58.11 35.38 50.52 34.59C50.48 34.59 50.45 34.59 50.41 34.59C50.37 34.59 50.34 34.59 50.3 34.59C42.71 35.38 40.97 36.39 40.69 36.59C40.99 36.33 42.5 34.46 38.23 25.86C36.67 22.71 32.08 17.04 30.68 18.44C28.86 20.26 22.61 34.58 31.41 43.88C30.3 47.4 26.64 58.11 27.48 61.83C29.28 69.76 35.23 71.99 41.38 73.73C45.96 75.03 46.18 76.66 50.34 76.66H50.48C54.65 76.66 54.87 75.03 59.44 73.73C65.59 71.99 71.53 69.76 73.34 61.83C74.19 58.11 70.53 47.4 69.41 43.88C78.22 34.59 71.96 20.26 70.14 18.44Z" fill="#846244"/>
<path d="M39.75 35.77C39.99 35.56 41.23 34.02 37.73 26.97C36.45 24.39 32.69 19.73 31.53 20.89C30.04 22.38 24.91 34.13 32.13 41.76C31.22 44.65 39.97 35.61 39.74 35.78L39.75 35.77Z" fill="#F8A081"/>
<path d="M61.05 35.77C60.81 35.56 59.57 34.02 63.07 26.97C64.35 24.39 68.11 19.73 69.27 20.89C70.76 22.38 75.89 34.13 68.67 41.76C69.58 44.65 60.83 35.61 61.06 35.78L61.05 35.77Z" fill="#F8A081"/>
<path d="M72.76 58.34C72.76 58.65 72.75 58.96 72.72 59.27C72.72 59.38 72.7 59.5 72.69 59.61C71.62 68.84 59.16 76.16 50.73 76.32C50.64 76.32 50.55 76.32 50.45 76.32C43.2 76.32 29.44 68.97 28.23 59.66C28.17 59.23 28.14 58.79 28.14 58.35C28.14 49.59 35.34 39.58 35.34 39.58C35.34 39.58 42.62 35.33 50.45 35.33C57.81 35.33 65.55 39.58 65.55 39.58C65.55 39.58 72.75 49.59 72.75 58.35L72.76 58.34Z" fill="#7A624E"/>
<path d="M50.45 77.2301C47.13 77.2301 42.19 75.1901 38.14 72.1601C33.49 68.6801 30.56 64.3701 30.09 60.3201C30.04 59.9201 30.02 59.5101 30.02 59.1001C30.02 50.9901 35.47 41.5501 36.66 39.5801C38.14 38.6901 44.18 35.3101 50.46 35.3101C56.37 35.3101 62.69 38.6901 64.27 39.6001C65.48 41.6101 70.9 51.0201 70.9 59.1001C70.9 59.3901 70.89 59.6901 70.87 59.9801C70.87 60.0901 70.85 60.2001 70.84 60.3001C69.87 69.7301 57.96 77.0701 50.71 77.2201H50.75H50.47L50.45 77.2301Z" fill="#967350"/>
<path d="M32.3101 54.9201C32.3101 54.9201 36.6201 63.8301 40.3101 63.8301C43.1401 63.8301 46.67 62.3801 46.67 62.3801C46.67 62.3801 48.17 47.5301 39.98 47.0601C36.29 46.8501 32.3 54.9201 32.3 54.9201H32.3101Z" fill="#846244"/>
<path d="M68.66 54.9201C68.66 54.9201 64.35 63.8301 60.66 63.8301C57.83 63.8301 54.3 62.3801 54.3 62.3801C54.3 62.3801 52.8 47.5301 60.99 47.0601C64.68 46.8501 68.67 54.9201 68.67 54.9201H68.66Z" fill="#846244"/>
<path d="M46.6801 62.39C39.8801 65.63 35.0901 63.53 32.9301 55.13C32.9301 55.13 41.1101 48.78 45.4501 56.92C46.1201 58.18 46.6701 62.38 46.6701 62.38L46.6801 62.39Z" fill="white"/>
<path d="M40.1 62.92C38.21 62.88 36.63 61.38 36.02 59.3C35.83 58.67 35.74 57.97 35.75 57.26C35.81 54.36 37.61 53.33 39.88 53.27C40.02 53.27 40.16 53.27 40.3 53.27C42.76 53.32 44.63 55.88 44.68 57.46C44.76 60.53 42.56 62.98 40.1 62.93V62.92Z" fill="#7C4E27"/>
<path d="M40.12 62.14C38.69 62.11 37.43 60.88 36.92 59.02C36.75 58.43 36.68 57.8 36.69 57.16C36.73 55 37.76 53.97 39.91 53.9C40.02 53.9 40.13 53.9 40.23 53.9H40.29C42.23 53.95 43.71 56.21 43.74 57.37C43.78 58.78 43.31 60.11 42.45 61.05C41.8 61.76 40.99 62.15 40.17 62.15H40.11L40.12 62.14Z" fill="#462916"/>
<path d="M54.27 62.39C61.07 65.63 65.86 63.53 68.02 55.13C68.02 55.13 59.84 48.78 55.5 56.92C54.83 58.18 54.28 62.38 54.28 62.38L54.27 62.39Z" fill="white"/>
<path d="M60.8401 62.92C62.7301 62.88 64.3101 61.38 64.9201 59.3C65.1101 58.67 65.2001 57.97 65.1901 57.26C65.1301 54.36 63.3301 53.33 61.0601 53.27C60.9201 53.27 60.7801 53.27 60.6401 53.27C58.1801 53.32 56.3101 55.88 56.2601 57.46C56.1801 60.53 58.3801 62.98 60.8401 62.93V62.92Z" fill="#7C4E27"/>
<path d="M60.77 62.14C59.95 62.14 59.14 61.75 58.49 61.03C57.64 60.1 57.17 58.76 57.2 57.36C57.23 56.2 58.71 53.93 60.66 53.89H60.71C60.82 53.89 60.93 53.89 61.03 53.89C63.18 53.96 64.2 54.99 64.25 57.15C64.26 57.79 64.19 58.42 64.02 59.01C63.51 60.88 62.25 62.1 60.82 62.13H60.77V62.14Z" fill="#462916"/>
<path d="M40.4 56.11C40.36 57.97 39.12 59.46 37.62 59.42C36.94 59.41 36.34 59.08 35.87 58.56C35.71 58.01 35.62 57.4 35.64 56.77C35.69 54.23 37.27 53.33 39.25 53.27C39.97 53.89 40.42 54.93 40.39 56.1L40.4 56.11Z" fill="white"/>
<path d="M42.75 61.49C42.74 62.12 42.32 62.62 41.81 62.61C41.3 62.61 40.9 62.08 40.92 61.45C40.93 60.82 41.35 60.32 41.86 60.33C42.37 60.34 42.76 60.86 42.75 61.49Z" fill="white"/>
<path d="M60.73 56.3901C60.69 58.2501 59.45 59.7401 57.95 59.7101C57.27 59.6901 56.67 59.3701 56.2 58.8501C56.04 58.3001 55.95 57.6901 55.97 57.0601C56.02 54.5201 57.6 53.6201 59.58 53.5601C60.29 54.1801 60.75 55.2201 60.72 56.3901H60.73Z" fill="white"/>
<path d="M63.26 61.49C63.25 62.12 62.83 62.62 62.32 62.61C61.81 62.61 61.41 62.08 61.43 61.45C61.44 60.82 61.86 60.32 62.37 60.33C62.88 60.34 63.27 60.86 63.26 61.49Z" fill="white"/>
<path opacity="0.1" d="M46.6801 62.39C46.2601 62.59 45.8601 62.77 45.4601 62.92C45.2401 61.72 44.9401 60.38 44.6001 59.75C41.3801 53.71 36.0501 55.64 33.5101 57.04C33.3001 56.44 33.1101 55.8 32.9301 55.13C32.9301 55.13 41.1101 48.78 45.4601 56.92C46.1301 58.19 46.6801 62.39 46.6801 62.39Z" fill="#565656"/>
<path opacity="0.1" d="M54.27 62.39C54.69 62.59 55.09 62.77 55.49 62.92C55.71 61.72 56.01 60.38 56.35 59.75C59.57 53.71 64.9 55.64 67.44 57.04C67.65 56.44 67.84 55.8 68.02 55.13C68.02 55.13 59.84 48.78 55.49 56.92C54.82 58.19 54.27 62.39 54.27 62.39Z" fill="#565656"/>
<path d="M46.6801 62.39L45.6401 62.93C45.2901 63.11 44.9201 63.23 44.5501 63.39C44.1901 63.56 43.8001 63.64 43.4201 63.76C43.0401 63.89 42.6401 63.93 42.2501 64.02C41.8601 64.11 41.4501 64.09 41.0501 64.13C40.6501 64.13 40.2401 64.09 39.8301 64.07C39.4301 63.97 39.0101 63.93 38.6301 63.78C38.2501 63.63 37.8501 63.5 37.5001 63.27L36.9601 62.96L36.4701 62.58C36.1301 62.34 35.8601 62.03 35.5701 61.74C35.2701 61.45 35.0601 61.1 34.8001 60.78C34.5401 60.46 34.3701 60.09 34.1501 59.75C33.9301 59.41 33.7801 59.03 33.6001 58.67C33.4201 58.31 33.2801 57.93 33.1401 57.55C33.0001 57.17 32.8501 56.8 32.7501 56.42L32.4101 55.27L32.3101 54.93L32.6001 54.71C32.9801 54.43 33.3301 54.19 33.7201 53.97C34.1001 53.75 34.4901 53.54 34.8901 53.36C35.6901 52.98 36.5301 52.69 37.4001 52.49C37.8401 52.4 38.2801 52.33 38.7301 52.31C39.1801 52.27 39.6401 52.3 40.0901 52.34C40.5401 52.4 40.9901 52.49 41.4201 52.64C41.6401 52.72 41.8501 52.79 42.0601 52.9C42.2701 52.99 42.4701 53.1 42.6601 53.22C42.8601 53.33 43.0401 53.46 43.2201 53.6C43.4101 53.73 43.5701 53.88 43.7401 54.03C43.9101 54.18 44.0601 54.34 44.2101 54.5C44.3601 54.66 44.5101 54.83 44.6401 55.01C44.9201 55.36 45.1401 55.73 45.3701 56.11L45.6801 56.69C45.8001 56.93 45.8401 57.1 45.9301 57.31C46.0501 57.72 46.1701 58.18 46.2301 58.59C46.3101 59.01 46.3801 59.43 46.4301 59.86C46.5501 60.7 46.6401 61.55 46.6901 62.4L46.6801 62.39ZM46.6801 62.39C46.6001 61.97 46.5001 61.56 46.4101 61.14C46.3201 60.73 46.2301 60.31 46.1301 59.9C46.0301 59.49 45.9301 59.08 45.8101 58.68C45.7001 58.26 45.5601 57.91 45.4101 57.52C45.3201 57.34 45.2401 57.1 45.1501 56.97L44.8201 56.45C44.5801 56.11 44.3501 55.78 44.0701 55.48C43.9401 55.32 43.8001 55.18 43.6601 55.04C43.5201 54.9 43.3701 54.76 43.2101 54.64C43.0601 54.51 42.9001 54.38 42.7301 54.28C42.5701 54.16 42.4001 54.06 42.2201 53.97C41.8801 53.77 41.5101 53.64 41.1401 53.52C40.7701 53.4 40.3801 53.34 39.9901 53.3C39.6001 53.27 39.2001 53.26 38.8101 53.3C38.4201 53.33 38.0201 53.41 37.6301 53.49C36.8501 53.68 36.0801 53.96 35.3501 54.31C34.9801 54.49 34.6201 54.68 34.2701 54.89C33.9201 55.1 33.5701 55.32 33.2601 55.55L33.4501 54.99L33.7601 56.09C33.8501 56.46 34.0001 56.81 34.1201 57.17C34.2401 57.53 34.3701 57.89 34.5401 58.23C34.7001 58.57 34.8301 58.93 35.0201 59.25C35.2101 59.57 35.3601 59.92 35.5901 60.22C35.8101 60.51 35.9901 60.85 36.2601 61.11C36.5101 61.38 36.7401 61.67 37.0301 61.9L37.4501 62.26L37.9101 62.56C38.2101 62.78 38.5501 62.91 38.8901 63.06C39.2201 63.21 39.5901 63.27 39.9401 63.39C40.3101 63.44 40.6801 63.51 41.0501 63.53C41.4301 63.53 41.8101 63.56 42.1801 63.52C42.5601 63.47 42.9401 63.48 43.3201 63.38C43.6901 63.29 44.0801 63.25 44.4501 63.13C44.8201 63.02 45.2001 62.93 45.5601 62.79L46.6701 62.39H46.6801Z" fill="#382111"/>
<path d="M54.27 62.39L55.37 62.79C55.74 62.92 56.12 63.01 56.48 63.13C56.85 63.25 57.23 63.29 57.61 63.38C57.98 63.47 58.37 63.47 58.75 63.52C59.13 63.57 59.51 63.52 59.88 63.53C60.25 63.51 60.62 63.44 60.99 63.39C61.34 63.27 61.71 63.21 62.04 63.06C62.37 62.91 62.72 62.78 63.02 62.56L63.48 62.26L63.9 61.9C64.19 61.68 64.42 61.38 64.67 61.11C64.93 60.85 65.11 60.51 65.34 60.22C65.57 59.93 65.72 59.57 65.91 59.25C66.11 58.93 66.23 58.57 66.39 58.23C66.56 57.89 66.69 57.54 66.81 57.17C66.94 56.81 67.08 56.46 67.17 56.09L67.48 54.99L67.67 55.55C67.37 55.33 67.01 55.1 66.66 54.89C66.31 54.68 65.95 54.49 65.58 54.31C64.85 53.96 64.08 53.68 63.3 53.49C62.91 53.4 62.52 53.33 62.12 53.3C61.73 53.25 61.33 53.27 60.94 53.3C60.55 53.34 60.16 53.4 59.79 53.52C59.42 53.64 59.05 53.77 58.71 53.97C58.53 54.06 58.37 54.16 58.2 54.28C58.03 54.38 57.88 54.51 57.72 54.64C57.56 54.76 57.42 54.9 57.28 55.04C57.13 55.18 56.99 55.32 56.86 55.48C56.58 55.78 56.35 56.12 56.11 56.45L55.78 56.97C55.69 57.1 55.6 57.34 55.51 57.52C55.36 57.91 55.23 58.27 55.12 58.68C55 59.08 54.89 59.49 54.8 59.9C54.7 60.31 54.61 60.73 54.52 61.14C54.43 61.55 54.33 61.97 54.25 62.39H54.27ZM54.27 62.39C54.32 61.54 54.41 60.69 54.53 59.85C54.59 59.43 54.65 59.01 54.73 58.58C54.8 58.17 54.91 57.71 55.03 57.3C55.11 57.09 55.15 56.92 55.28 56.68L55.59 56.1C55.82 55.73 56.04 55.35 56.32 55C56.45 54.82 56.59 54.65 56.75 54.49C56.9 54.33 57.05 54.16 57.22 54.02C57.38 53.87 57.55 53.72 57.74 53.59C57.92 53.45 58.1 53.32 58.3 53.21C58.49 53.09 58.69 52.98 58.9 52.89C59.1 52.78 59.32 52.71 59.53 52.63C59.96 52.48 60.41 52.39 60.86 52.33C61.31 52.28 61.77 52.26 62.22 52.3C62.67 52.32 63.12 52.39 63.55 52.48C64.42 52.68 65.26 52.97 66.06 53.35C66.46 53.54 66.85 53.74 67.23 53.96C67.61 54.18 67.97 54.42 68.34 54.7L68.63 54.92L68.53 55.26L68.19 56.41C68.09 56.8 67.94 57.17 67.8 57.54C67.67 57.92 67.52 58.29 67.34 58.66C67.16 59.02 67.01 59.39 66.79 59.74C66.57 60.08 66.4 60.45 66.14 60.77C65.88 61.09 65.68 61.44 65.37 61.73C65.08 62.03 64.81 62.34 64.47 62.57L63.98 62.95L63.44 63.26C63.09 63.49 62.69 63.62 62.31 63.77C61.93 63.92 61.51 63.96 61.11 64.06C60.7 64.09 60.3 64.13 59.89 64.12C59.49 64.08 59.08 64.1 58.69 64.01C58.3 63.92 57.9 63.88 57.52 63.75C57.14 63.62 56.76 63.54 56.39 63.38C56.03 63.23 55.65 63.1 55.3 62.92L54.26 62.38L54.27 62.39Z" fill="#382111"/>
<path d="M45.68 68.33C45.68 70.59 47.12 71.53 48.47 71.53C49.82 71.53 50.76 70.62 50.45 68.12C50.24 66.43 49.95 65.64 48.6 65.64C46.42 65.64 45.67 67.44 45.67 68.33H45.68Z" fill="white"/>
<path d="M55.05 68.33C55.05 70.59 53.61 71.53 52.26 71.53C50.91 71.53 49.98 70.62 50.28 68.12C50.49 66.43 50.78 65.64 52.13 65.64C54.31 65.64 55.06 67.44 55.06 68.33H55.05Z" fill="white"/>
<path d="M50.38 70.74C50.38 70.74 45.9 71.37 45.09 71.44C45.09 71.44 46.54 76.6 50.52 76.58C54.5 76.6 55.95 71.44 55.95 71.44C55.14 71.37 50.38 70.74 50.38 70.74Z" fill="#BB9E8A"/>
<path d="M52.66 71.7201C51.86 72.7801 51.7 73.8501 50.51 73.8501C49.32 73.8501 49.07 72.9801 48.36 71.7201C47.86 70.8401 49.32 70.4301 50.51 70.4301C51.7 70.4301 53.22 70.9601 52.66 71.7201Z" fill="#382111"/>
<path d="M53.61 62.76C53.41 62.61 53.14 62.49 52.78 62.44C51.48 62.23 50.66 63 50.54 63.12H50.47C50.35 63 49.53 62.23 48.23 62.44C47.85 62.5 47.57 62.63 47.36 62.79C47.38 62.71 47.4 62.62 47.41 62.52C47.47 62.18 47.49 61.78 47.48 61.35C47.7 60.57 47.75 59.73 47.78 59.12C47.82 57.98 49.43 57.24 50.49 57.22C51.55 57.24 53.15 57.98 53.2 59.12C53.22 59.72 53.28 60.56 53.5 61.34C53.49 61.77 53.51 62.18 53.57 62.52C53.58 62.6 53.6 62.69 53.61 62.76Z" fill="#846244"/>
<path d="M57.1501 69.98C55.9401 74.58 50.9101 71.55 50.4901 71.28C50.0701 71.55 45.0401 74.58 43.8301 69.98C43.4601 68.59 45.29 63.81 46.42 63.06C46.81 62.8 47.09 62.38 47.29 61.9C47.37 61.73 47.43 61.54 47.48 61.35C47.49 61.78 47.47 62.18 47.41 62.52C47.39 62.62 47.38 62.71 47.36 62.79C47.56 62.63 47.84 62.5 48.23 62.44C49.53 62.23 50.3501 63 50.4701 63.12H50.5401C50.6601 63 51.48 62.23 52.78 62.44C53.14 62.5 53.41 62.61 53.61 62.76C53.59 62.69 53.58 62.6 53.57 62.52C53.51 62.18 53.49 61.77 53.5 61.34C53.55 61.53 53.62 61.72 53.69 61.9C53.89 62.38 54.1701 62.8 54.5601 63.06C55.7 63.81 57.5201 68.59 57.1501 69.98Z" fill="white"/>
<path d="M54.2 72.51C52.67 72.51 51.01 71.49 50.82 71.38L50.49 71.17L50.16 71.38C49.49 71.8 48.03 72.51 46.78 72.51C45.55 72.51 44.8 71.85 44.43 70.45C44.17 69.46 45.4 66.16 46.29 65.05C46.58 64.69 47.74 63.91 47.74 63.91C47.88 63.8 48.08 63.72 48.32 63.69C48.44 63.67 48.56 63.66 48.67 63.66C49.5 63.66 50 64.17 50.02 64.19L50.2 64.38H50.79L50.97 64.2C51.02 64.15 51.53 63.67 52.33 63.67C52.44 63.67 52.56 63.67 52.68 63.7C52.91 63.74 53.1 63.81 53.24 63.91C53.24 63.91 54.29 64.56 54.55 64.87C55.51 66.01 56.82 69.44 56.55 70.47C56.18 71.88 55.43 72.53 54.2 72.53V72.51Z" fill="#CCAE96"/>
<path d="M51.8 72.9C51.8 72.53 51.49 72.25 51.07 72.25C50.85 72.25 50.7 72.38 50.53 72.53C50.35 72.38 50.04 72.25 49.83 72.25C49.41 72.25 49.22 72.63 49.22 73C49.22 73.13 49.29 73.27 49.4 73.39C49.67 73.68 50.01 73.84 50.52 73.84H50.54C50.68 73.84 50.81 73.82 50.93 73.79C50.96 73.79 51 73.77 51.03 73.76C51.2 73.7 51.35 73.6 51.48 73.48C51.48 73.48 51.49 73.47 51.5 73.46C51.69 73.28 51.81 73.07 51.81 72.89L51.8 72.9Z" fill="#F7C0D8"/>
<path d="M47.3 63.71C47.3 63.71 46.78 65.3 47.83 65.65C48.88 66 49.57 65.94 49.88 66.1C50.19 66.26 50.49 64.29 50.4 64.14C50.31 63.99 47.3 63.72 47.3 63.72V63.71Z" fill="#010101"/>
<path d="M53.63 63.71C53.63 63.71 54.15 65.3 53.1 65.65C52.05 66 51.36 65.94 51.05 66.1C50.74 66.26 50.44 64.29 50.53 64.14C50.62 63.99 53.63 63.72 53.63 63.72V63.71Z" fill="#010101"/>
<path d="M46.7401 72.64C46.3001 72.64 45.8701 72.57 45.4701 72.41C44.5701 72.04 43.9601 71.24 43.6601 70.02C43.6401 69.94 43.7701 69.51 43.7701 69.51C43.7701 69.51 43.8001 69.89 43.8201 69.98C44.0901 71.09 44.7801 71.79 45.5901 72.12C47.3601 72.84 49.89 71.45 50.35 71.18V65.65C50.35 65.56 50.42 65.49 50.51 65.49C50.6 65.49 50.67 65.56 50.67 65.65V71.36L50.6 71.41C50.5 71.47 48.5801 72.65 46.7501 72.65L46.7401 72.64Z" fill="#4F4038"/>
<path d="M54.26 72.64C52.42 72.64 50.51 71.46 50.41 71.4L50.34 71.35V65.64C50.34 65.55 50.41 65.48 50.49 65.48C50.57 65.48 50.65 65.55 50.65 65.64V71.17C51.11 71.44 53.65 72.83 55.42 72.11C56.22 71.78 56.88 71.09 57.16 69.98C57.18 69.9 57.21 69.64 57.21 69.64C57.21 69.64 57.37 69.93 57.35 70.01C57.05 71.23 56.44 72.03 55.54 72.4C55.14 72.56 54.71 72.63 54.27 72.63L54.26 72.64Z" fill="#4F4038"/>
<path d="M47.41 62.5201C47.39 62.6201 47.38 62.7101 47.36 62.7901C47.32 62.9901 47.27 63.15 47.22 63.28C47.18 63.37 47.15 63.45 47.1 63.5C47.08 63.52 47.06 63.55 47.02 63.57C47 63.58 46.98 63.59 46.95 63.59C46.93 63.59 46.92 63.59 46.92 63.59V63.43H46.9C46.9 63.43 46.88 63.43 46.87 63.43C46.87 63.43 46.87 63.43 46.89 63.41C46.9 63.39 46.92 63.38 46.93 63.35C46.95 63.32 46.97 63.28 47 63.23C47 63.22 47.01 63.21 47.02 63.19C47.09 63.02 47.16 62.78 47.22 62.5C47.26 62.32 47.29 62.1101 47.3 61.9001C47.35 61.3801 47.34 60.79 47.24 60.21C47.11 59.38 46.79 58.5601 46.45 57.9701C46.28 57.6701 46.12 57.4301 46 57.2701C45.93 57.1701 45.87 57.09 45.83 57.05C45.87 57.09 45.93 57.1701 46.01 57.2701C46.14 57.4301 46.31 57.67 46.49 57.96C46.85 58.54 47.2 59.3601 47.36 60.2001C47.44 60.5901 47.48 60.98 47.49 61.35C47.5 61.78 47.48 62.1801 47.42 62.5201H47.41Z" fill="#33271A"/>
<path d="M54.97 57.2701C55.05 57.1701 55.11 57.09 55.15 57.05C55.12 57.09 55.06 57.1701 54.98 57.2701C54.86 57.4301 54.69 57.6701 54.52 57.9701C54.18 58.5601 53.86 59.37 53.73 60.21C53.63 60.8 53.62 61.3901 53.67 61.9001C53.69 62.1201 53.72 62.32 53.75 62.5C53.79 62.72 53.85 62.9201 53.9 63.0801C53.92 63.1401 53.94 63.1901 53.96 63.2401C54 63.3201 54.03 63.39 54.07 63.42C54.07 63.42 54.07 63.42 54.08 63.42C54.08 63.42 54.07 63.42 54.05 63.42H54.03V63.5801C54.03 63.5801 54.03 63.5801 54 63.5801C53.97 63.5801 53.95 63.5801 53.93 63.5601C53.89 63.5401 53.87 63.5201 53.85 63.4901C53.81 63.4401 53.77 63.3701 53.73 63.2701C53.68 63.1401 53.62 62.96 53.58 62.75C53.56 62.68 53.55 62.59 53.54 62.51C53.48 62.17 53.46 61.7601 53.47 61.3301C53.48 60.9601 53.52 60.58 53.6 60.19C53.76 59.35 54.11 58.5401 54.47 57.9501C54.65 57.6601 54.82 57.42 54.95 57.26L54.97 57.2701Z" fill="#33271A"/>
<path d="M35.6901 44L35.4201 44.05L35.5001 44.47L35.0501 44.36L35.0101 44.65L35.1601 45.11L34.6801 45L34.8801 45.48L34.7301 45.66L34.1001 45.46L34.0401 45.72L34.3601 46.27L34.1501 46.41L33.5901 46.3L33.6601 46.65L33.6701 46.95L33.5801 47.18L33.4501 47.38L33.3901 47.63L33.3101 47.86L32.7901 47.82L32.8301 48.14L32.8001 48.4L32.9701 48.79L32.4301 48.76L32.4001 49.02L32.4601 49.33L32.5101 49.64L32.0101 49.65L31.7701 49.81L31.7101 50.06L31.6101 50.29L31.5001 50.51L31.6901 50.87L31.3701 51.01L31.5801 51.37L31.3501 51.55L31.7001 51.94L31.6601 52.18V52.43L31.3301 52.59L31.0101 52.76L31.1401 53.05L30.9301 53.26L30.8901 53.51L30.9701 53.78L31.0401 54.03L31.3801 54.28L31.3601 54.52L31.0101 54.79L30.6901 55.07L31.2001 55.27V55.52L30.8301 55.83L30.9401 56.07L31.2501 56.27L31.4201 56.48L31.2201 56.79L31.7101 56.9L31.1001 57.36L31.6401 57.44L31.7501 57.65L31.8801 57.86L31.9401 58.1L32.1001 58.28L31.8201 58.71L32.3601 58.68L31.8101 59.29L32.4801 59.16L32.1101 59.7L32.2601 59.91L32.4801 60.05L32.6801 60.21L32.9901 60.26L33.1101 60.46L33.1901 60.72L33.1101 61.14L33.5101 61.08L33.7601 61.14L33.8501 61.4L34.0101 61.58L34.3101 61.57L34.3601 61.89L34.3701 62.29H34.6501L34.9501 62.27L35.0701 62.51L35.2601 62.66L35.3901 62.9L35.7601 62.7L35.8601 63.02L36.2101 62.82L36.2901 63.19L36.4201 63.45L36.5201 63.79L36.9801 63.33L36.9201 64.05L37.3301 63.68L37.5901 63.63L37.7101 63.94L37.7501 64.52L38.0001 64.51L38.3501 64.19L38.4401 64.66L38.8001 64.23L38.8901 64.78L39.2101 64.45L39.4101 64.59L39.6001 64.75L39.8201 64.81L40.1101 64.44L40.2301 65.17L40.4601 65.26L40.7001 65.09L40.9401 64.96L41.1701 64.67L41.3901 65.12L41.5901 64.62L41.5801 65.15L41.4501 65.08L42.0601 65.52L41.4501 65.62L41.7701 65.96V66.22L41.6301 66.44L41.8601 66.74L41.4801 66.93L41.4501 67.19L41.6901 67.47L41.1801 67.68L41.5101 67.96L41.3301 68.21V68.47L41.1001 68.78L41.1101 69.05L41.7601 69.12L41.7501 69.37L41.3001 69.8L41.5901 69.95L42.0801 70L41.7601 70.41L42.2201 70.45L41.8801 70.89L41.9501 71.13L42.1301 71.3L42.4601 71.39L42.3501 71.74L42.4601 71.95L42.8201 72L42.5201 72.5L42.8001 72.6L42.8701 72.85L43.1001 72.98L43.0301 73.34L43.2301 73.49L43.7601 73.34L43.9101 73.51L43.9301 73.81L43.8901 74.2L44.1601 74.24L44.3201 74.42L44.5001 74.56L44.6901 74.69L45.0001 74.65L44.9201 75.15L45.1701 75.21L45.4701 75.24L45.3101 75.73L45.4201 75.93L45.5001 76.16L45.8401 76.19L46.2601 76.18L45.8801 76.74L46.3801 76.7L46.1801 77.1L46.7701 77.05L46.2701 77.59L46.6401 77.68L46.3901 78.05L46.9201 78.09L47.0101 78.32L46.6401 78.72L47.1401 78.81L47.3401 79.01L47.3001 79.29L47.5401 79.5L46.9401 79.87L47.5201 80.03L47.0001 80.35L47.1001 80.58L47.4101 80.81L47.2601 81.06L47.1901 81.31L47.0901 81.54L46.9301 81.76L47.1101 82.03L47.1601 82.29L47.2201 82.71L46.8901 82.26L46.9601 82.07L47.5401 81.76L47.2601 81.55L47.2701 81.27L47.1301 81.05L46.6201 81.08L46.7501 80.72L46.5801 80.55L46.6001 80.21L46.4201 80.05L46.2301 79.91L45.8701 79.99L46.1001 79.3L45.5401 79.69L45.6601 79.09L45.4001 79.06L45.1701 79L45.1301 78.6L44.7801 78.76L44.7301 78.35L44.2801 78.74L44.0201 78.77L44.1001 78.04L43.7201 78.34L43.5101 78.27L43.5001 77.68L43.3001 77.58L43.0301 77.63L42.6501 78.02L42.5801 77.55L42.3901 77.4L42.2601 77.09L41.9501 77.29L41.6201 77.59L41.6001 76.9L41.2401 77.3L41.0901 77.01L40.8201 77.15L40.6201 77.03L40.5501 76.45L40.2801 76.56L40.0201 76.65L39.8301 76.48L39.5701 76.57L39.4701 76.1L39.1201 76.49L38.9701 76.18L38.7101 76.3L38.5201 76.12L38.2101 76.38L38.1501 75.77L37.7401 76.36L37.5701 76.15L37.4401 75.78L37.2801 75.52L37.0101 75.63L36.7801 75.61L36.6001 75.44L36.2801 75.67L36.1201 75.42L35.8901 75.39L35.7701 75.05L35.5001 75.14L35.4501 74.62L35.2601 74.48L34.7801 75.08L34.7501 74.56L34.3801 74.83L34.2901 74.48L33.9801 74.6L33.8701 74.28L33.5501 74.43L33.6101 73.77L33.2801 73.92L32.9701 74.01L33.0201 73.42L32.7201 73.5L32.3401 73.71L32.1801 73.51L32.2001 73.02L31.8001 73.24L31.7901 72.81H31.5101L31.5601 72.34L31.2101 72.42L31.0901 72.2L31.1701 71.72L30.9901 71.57L30.3501 71.98L30.4701 71.48L30.3701 71.24V70.91L30.0501 70.9L29.9201 70.7L29.4001 70.88L29.6801 70.29L29.1701 70.43L29.0201 70.23L29.1801 69.79L29.0501 69.59L28.9201 69.39L28.6701 69.28L28.5401 69.08L28.3101 68.94L28.2701 68.67L28.3901 68.31L27.9001 68.33L28.0301 67.97L27.8901 67.77L27.7301 67.57L27.4701 67.43L27.3701 67.2L27.3101 66.95V66.68L27.1801 66.47L27.2501 66.17L27.0001 66.01L27.2001 65.67L27.2201 65.4L27.3301 65.11L26.9201 64.99L27.3201 64.61L27.0701 64.43L26.7201 64.28L26.8501 63.99L26.6901 63.77L26.7101 63.51L26.7901 63.25L26.5201 63.05L26.6801 62.77L26.7301 62.51L26.7601 62.25L26.2001 62.1L26.3501 61.82L26.4701 61.55L26.1401 61.35L26.2201 61.08L26.4901 60.8L26.5401 60.55L26.3801 60.32L26.1301 60.09L26.6201 59.81L25.9701 59.61L26.5801 59.32L26.5401 59.07L26.2301 58.84L26.4001 58.59L26.3101 58.34L25.9501 58.11L26.0701 57.85L25.8801 57.6L26.0701 57.35L26.4401 57.1L26.1601 56.86L26.1001 56.61L26.3801 56.36L26.4901 56.11L26.2701 55.86L25.8101 55.6L26.3501 55.36L25.8301 55.09L26.3101 54.86L26.4201 54.61L26.1601 54.35L26.4701 54.12L26.3101 53.86L26.4501 53.62V53.37L26.5601 53.13L26.4901 52.88L26.2601 52.59L26.7101 52.41L26.5001 52.12L26.1301 51.8L26.3701 51.59L26.5501 51.37L26.2901 51.06L26.6501 50.89L26.6201 50.63L26.4401 50.31L26.6901 50.12L26.7801 49.89L26.9301 49.67L27.2901 49.53L26.8401 49.11L27.3101 49.02L27.4901 48.83L27.1001 48.41L27.3001 48.22L27.4101 48L27.3701 47.71L27.3601 47.42L27.8601 47.41L27.5401 46.95L27.8601 46.84L28.0401 46.67L27.8601 46.26L28.5101 46.4L28.0801 45.81L28.6001 45.88L28.3601 45.39L28.8501 45.47L29.1101 45.38L29.0401 45.01L28.9901 44.65L29.5101 44.8L29.7501 44.71L29.8401 44.48L29.6601 43.94L30.1701 44.15L29.9701 43.57L30.3101 43.62L30.5901 43.59L30.3901 42.95L30.6201 42.86L31.1001 43.13L31.0301 42.62L31.1501 42.38L31.3801 42.29L31.5801 42.16L31.8201 42.13L32.0301 42.02L32.2201 41.89L32.3301 41.58L32.5401 41.49L32.9301 41.78L33.0001 41.36L33.3901 41.71L33.3401 40.97L33.6701 41.2L33.7801 40.81L33.9501 40.6L34.3201 40.99L34.4901 40.77L34.6901 40.66L34.8901 40.52L35.2401 40.97L35.2801 40.19H35.5201L35.8201 40.49L36.0201 40.36L36.2501 40.39L36.4701 40.33L36.7301 40.54L36.9401 40.4L37.1201 40.08L37.3201 39.8L37.5901 40.27L37.7801 39.88L38.0001 39.68L38.2501 40.07L38.4901 40.41L38.6801 39.62L38.9201 39.97L39.1401 39.72L39.3601 39.88L39.5901 40.11L39.8101 39.82L40.0401 39.85L40.2701 39.67L40.4601 40.34L40.7301 39.71L41.0101 40.24L40.5901 39.94L40.6601 40.57L40.2201 40.24L40.3401 40.94L39.8901 40.59L39.8501 41L39.4601 40.77L39.5301 41.38L38.9901 40.89L38.8701 41.14L38.6001 41.15L38.6301 41.66L38.6101 42.1L38.0801 41.64L38.0101 41.98L37.7901 42.08L37.8201 42.59L37.4801 42.47L37.2301 42.52L36.9501 42.5L37.0901 43.17L36.8501 43.23L36.4101 42.98L36.2701 43.2L36.3101 43.67L36.0901 43.76L35.9501 43.96L35.6901 44Z" fill="#BA9368"/>
<path d="M65.24 43.88L65.51 43.93L65.44 44.35L65.88 44.24L65.92 44.53L65.77 44.98L66.25 44.88L66.05 45.36L66.2 45.54L66.84 45.34L66.89 45.6L66.57 46.15L66.78 46.29L67.34 46.18L67.27 46.53L67.26 46.83L67.35 47.06L67.48 47.26L67.54 47.51L67.62 47.74L68.14 47.7L68.1 48.02L68.13 48.28L67.96 48.67L68.5 48.64L68.53 48.9L68.48 49.21L68.42 49.52L68.92 49.53L69.16 49.69L69.22 49.94L69.32 50.17L69.43 50.39L69.24 50.75L69.57 50.89L69.36 51.25L69.58 51.43L69.23 51.82L69.27 52.06L69.28 52.31L69.6 52.47L69.92 52.64L69.79 52.93L70 53.14L70.04 53.39L69.96 53.66L69.89 53.91L69.56 54.16L69.57 54.4L69.92 54.67L70.24 54.95L69.73 55.15V55.4L70.1 55.71L69.99 55.95L69.68 56.15L69.51 56.36L69.72 56.67L69.22 56.78L69.84 57.24L69.29 57.32L69.19 57.53L69.05 57.74L68.99 57.98L68.83 58.16L69.11 58.59L68.57 58.56L69.12 59.17L68.45 59.04L68.82 59.58L68.68 59.79L68.45 59.93L68.25 60.09L67.94 60.14L67.82 60.34L67.74 60.6L67.82 61.02L67.43 60.96L67.17 61.02L67.08 61.28L66.92 61.46L66.62 61.45L66.57 61.77L66.56 62.17H66.28L65.99 62.15L65.86 62.39L65.68 62.54L65.54 62.78L65.17 62.58L65.07 62.9L64.72 62.7L64.64 63.07L64.51 63.33L64.41 63.67L63.95 63.21L64.01 63.93L63.6 63.56L63.34 63.51L63.22 63.82L63.18 64.4L62.93 64.39L62.59 64.07L62.49 64.54L62.13 64.11L62.04 64.66L61.72 64.33L61.52 64.47L61.33 64.63L61.11 64.69L60.82 64.32L60.7 65.05L60.47 65.14L60.23 64.97L59.99 64.84L59.76 64.55L59.54 65L59.34 64.5L59.36 65.03L59.48 64.96L58.87 65.4L59.48 65.5L59.16 65.84V66.1L59.31 66.32L59.07 66.62L59.45 66.81L59.48 67.07L59.25 67.35L59.76 67.56L59.42 67.84L59.6 68.09V68.35L59.83 68.66L59.82 68.93L59.17 69L59.18 69.25L59.64 69.68L59.34 69.83L58.85 69.88L59.17 70.29L58.72 70.33L59.05 70.77L58.98 71.01L58.8 71.18L58.47 71.27L58.58 71.62L58.47 71.83L58.11 71.88L58.41 72.38L58.13 72.48L58.06 72.73L57.83 72.85L57.9 73.22L57.7 73.37L57.17 73.22L57.02 73.39L57 73.69L57.04 74.08L56.77 74.12L56.62 74.3L56.43 74.43L56.24 74.57L55.93 74.53L56.01 75.03L55.77 75.09L55.47 75.12L55.62 75.6L55.51 75.81L55.43 76.04L55.09 76.07L54.67 76.06L55.06 76.62L54.55 76.58L54.75 76.98L54.16 76.93L54.66 77.47L54.3 77.56L54.54 77.93L54.01 77.97L53.92 78.2L54.29 78.6L53.79 78.69L53.59 78.89L53.63 79.17L53.39 79.38L53.99 79.75L53.41 79.91L53.93 80.23L53.83 80.46L53.52 80.69L53.67 80.94L53.74 81.19L53.84 81.42L54 81.64L53.82 81.91L53.78 82.17L53.71 82.59L54.04 82.14L53.97 81.95L53.39 81.64L53.67 81.43L53.66 81.15L53.8 80.93L54.31 80.96L54.19 80.6L54.35 80.43L54.33 80.09L54.51 79.93L54.7 79.79L55.06 79.87L54.83 79.18L55.39 79.57L55.27 78.97L55.53 78.94L55.76 78.88L55.8 78.48L56.15 78.64L56.2 78.22L56.65 78.62L56.91 78.65L56.83 77.92L57.21 78.22L57.42 78.15L57.43 77.56L57.64 77.46L57.9 77.51L58.28 77.9L58.35 77.43L58.54 77.28L58.67 76.97L58.98 77.17L59.31 77.47L59.33 76.78L59.69 77.18L59.84 76.89L60.11 77.03L60.31 76.91L60.39 76.33L60.65 76.44L60.91 76.53L61.1 76.36L61.36 76.45L61.47 75.98L61.81 76.37L61.96 76.06L62.23 76.18L62.41 76L62.72 76.26L62.78 75.65L63.19 76.24L63.36 76.03L63.49 75.66L63.65 75.4L63.92 75.51L64.15 75.49L64.33 75.32L64.65 75.55L64.81 75.3L65.04 75.27L65.16 74.93L65.43 75.02L65.48 74.5L65.67 74.36L66.15 74.96L66.18 74.43L66.55 74.71L66.64 74.36L66.95 74.48L67.06 74.16L67.38 74.31L67.33 73.65L67.65 73.8L67.96 73.89L67.91 73.3L68.21 73.38L68.59 73.59L68.75 73.39L68.73 72.9L69.14 73.12V72.69H69.42L69.38 72.22L69.72 72.3L69.84 72.08L69.77 71.6L69.94 71.45L70.58 71.86L70.46 71.36L70.56 71.12V70.79L70.88 70.78L71.01 70.58L71.54 70.76L71.25 70.17L71.76 70.31L71.91 70.11L71.75 69.67L71.88 69.47L72.01 69.27L72.26 69.16L72.39 68.96L72.62 68.82L72.66 68.55L72.54 68.19L73.03 68.21L72.9 67.85L73.04 67.65L73.2 67.45L73.46 67.31L73.56 67.08L73.62 66.83V66.56L73.75 66.35L73.68 66.05L73.94 65.89L73.73 65.55L73.71 65.28L73.6 64.99L74.01 64.87L73.61 64.49L73.86 64.31L74.22 64.15L74.08 63.87L74.24 63.65L74.22 63.39L74.14 63.12L74.41 62.93L74.25 62.65L74.2 62.39L74.17 62.13L74.73 61.98L74.58 61.7L74.46 61.43L74.8 61.23L74.71 60.96L74.44 60.68L74.4 60.43L74.55 60.2L74.8 59.97L74.31 59.69L74.97 59.49L74.35 59.2L74.39 58.95L74.7 58.72L74.53 58.47L74.62 58.22L74.98 57.99L74.86 57.73L75.05 57.48L74.86 57.23L74.5 56.98L74.77 56.74L74.83 56.49L74.56 56.24L74.44 55.99L74.67 55.74L75.12 55.48L74.59 55.24L75.1 54.97L74.63 54.74L74.52 54.49L74.78 54.23L74.46 54L74.62 53.74L74.48 53.5V53.25L74.38 53.01L74.44 52.76L74.68 52.47L74.22 52.29L74.43 52L74.8 51.68L74.56 51.47L74.39 51.25L74.64 50.94L74.29 50.77L74.31 50.51L74.49 50.19L74.25 50L74.15 49.77L74 49.55L73.65 49.41L74.09 48.99L73.62 48.9L73.44 48.71L73.83 48.29L73.64 48.1L73.52 47.88L73.56 47.59L73.57 47.3L73.07 47.29L73.39 46.83L73.07 46.72L72.89 46.55L73.08 46.14L72.42 46.28L72.85 45.69L72.33 45.76L72.58 45.27L72.09 45.35L71.82 45.26L71.89 44.89L71.94 44.53L71.42 44.68L71.18 44.59L71.09 44.36L71.27 43.82L70.76 44.03L70.96 43.45L70.62 43.5L70.34 43.47L70.54 42.83L70.31 42.74L69.83 43.01L69.9 42.5L69.78 42.26L69.55 42.17L69.35 42.04L69.11 42.01L68.9 41.9L68.71 41.77L68.6 41.46L68.39 41.37L68 41.66L67.93 41.24L67.54 41.59L67.6 40.85L67.26 41.08L67.16 40.69L66.98 40.48L66.61 40.87L66.44 40.65L66.24 40.54L66.04 40.4L65.69 40.85L65.65 40.07H65.41L65.12 40.37L64.91 40.24L64.68 40.27L64.46 40.21L64.2 40.42L64 40.28L63.81 39.96L63.62 39.68L63.34 40.15L63.15 39.76L62.94 39.56L62.68 39.95L62.44 40.29L62.25 39.5L62.01 39.85L61.79 39.6L61.57 39.76L61.34 39.99L61.12 39.7L60.89 39.73L60.66 39.55L60.47 40.22L60.2 39.59L59.92 40.12L60.34 39.82L60.27 40.45L60.71 40.12L60.59 40.81L61.04 40.47L61.08 40.88L61.47 40.65L61.4 41.26L61.94 40.76L62.06 41.02L62.33 41.03L62.3 41.54L62.32 41.98L62.85 41.52L62.92 41.86L63.14 41.96L63.11 42.47L63.45 42.35L63.7 42.4L63.98 42.38L63.84 43.05L64.08 43.11L64.52 42.86L64.66 43.08L64.62 43.55L64.84 43.64L64.98 43.84L65.24 43.88Z" fill="#BA9368"/>
<path d="M72.7799 47.12C73.3399 47.61 73.8899 48.11 74.4299 48.62C74.4099 48.72 74.3999 48.82 74.3799 48.91C74.0599 48.72 73.7399 48.53 73.4199 48.34C73.1899 48.2 72.9599 48.06 72.7199 47.93C73.0599 48.36 73.3999 48.8 73.7399 49.25C73.5099 49.09 73.2799 48.93 73.0399 48.77C73.2299 49.1 73.4299 49.42 73.6199 49.75C73.3499 49.51 73.0699 49.26 72.7999 49.03C72.8199 49.16 72.8499 49.28 72.8699 49.41C72.9499 49.62 73.0199 49.83 73.0999 50.04C73.0899 50.13 73.0699 50.23 73.0599 50.32C72.8099 50.05 72.5599 49.78 72.3099 49.51C72.3299 49.64 72.3399 49.78 72.3599 49.91C72.3199 49.96 72.2799 50 72.2399 50.05C72.2399 50.17 72.2399 50.29 72.2399 50.41C72.3799 50.8 72.5299 51.18 72.6699 51.57C72.2799 50.97 71.8799 50.38 71.4799 49.8C71.5099 49.98 71.5399 50.16 71.5699 50.35C71.7099 50.75 71.8399 51.16 71.9799 51.56C71.7699 51.28 71.5599 50.99 71.3399 50.71C71.2199 50.59 71.0899 50.48 70.9699 50.37C71.0299 50.64 71.0899 50.91 71.1499 51.19C70.9899 50.99 70.82 50.78 70.66 50.58C70.83 51.11 70.99 51.63 71.16 52.16C70.82 51.54 70.4799 50.93 70.1399 50.32C70.2499 50.73 70.3499 51.14 70.4599 51.55C70.2299 51.17 69.9999 50.78 69.7699 50.4C69.8499 50.75 69.9199 51.11 69.9999 51.46C69.9999 51.64 69.9999 51.81 69.9999 51.99C69.8299 51.73 69.6599 51.47 69.4799 51.21C69.3499 51.04 69.2099 50.88 69.0799 50.71C68.9799 50.62 68.8799 50.54 68.7799 50.45C68.8999 50.98 69.0299 51.5 69.1499 52.03C68.8999 51.52 68.6399 51.01 68.3799 50.5C68.5099 51.07 68.6399 51.65 68.7699 52.22C68.6499 52.09 68.5299 51.96 68.4199 51.84C68.2599 51.58 68.0999 51.32 67.9399 51.07C67.9399 51.31 67.9499 51.55 67.9599 51.79C67.8999 51.82 67.8299 51.86 67.7699 51.89C67.6399 51.7 67.4999 51.51 67.3699 51.32C67.2399 51.13 67.1099 50.94 66.9699 50.75C67.0299 51.18 67.0799 51.61 67.1399 52.04C66.9999 51.83 66.8599 51.62 66.7299 51.41C66.6699 51.45 66.5999 51.48 66.5399 51.52C66.5099 51.67 66.4799 51.83 66.4499 51.98C66.2999 51.72 66.1499 51.46 65.9999 51.2C65.9499 51.29 65.8999 51.39 65.8499 51.48C65.7699 51.45 65.6799 51.42 65.5999 51.39C65.4599 51.16 65.3299 50.93 65.1899 50.71C65.1899 51 65.1899 51.29 65.1899 51.59C65.1499 51.75 65.1199 51.9 65.0799 52.06C64.9799 51.97 64.8799 51.89 64.7799 51.8C64.6699 51.69 64.5699 51.57 64.4599 51.46C64.2899 51.09 64.1299 50.72 63.9599 50.35C63.9999 50.85 64.0399 51.34 64.0799 51.84C63.9999 51.85 63.9299 51.86 63.8499 51.88C63.7699 51.86 63.6799 51.83 63.5999 51.81C63.4299 51.39 63.2599 50.98 63.0899 50.57C63.0399 50.68 62.9799 50.78 62.9299 50.89C62.8699 50.99 62.8199 51.09 62.7599 51.19C62.7399 51.48 62.7199 51.76 62.6999 52.05C62.6099 52 62.5199 51.96 62.4299 51.91C62.3499 51.92 62.2699 51.93 62.1999 51.95C62.0499 51.57 61.8899 51.19 61.7399 50.81C61.6299 50.63 61.5199 50.45 61.3999 50.28C61.3699 50.55 61.3399 50.82 61.3099 51.09C61.2399 51.14 61.1699 51.19 61.0999 51.24C60.9599 50.92 60.8299 50.6 60.6899 50.27C60.6899 50.76 60.6899 51.25 60.6999 51.73C60.5799 51.51 60.4599 51.3 60.3499 51.08C60.3199 51.37 60.2799 51.66 60.2499 51.95C60.1299 51.73 60.0199 51.52 59.8999 51.3C59.8199 51.32 59.7399 51.33 59.6599 51.35C59.5699 51.32 59.4899 51.3 59.3999 51.27C59.3199 51.31 59.2499 51.34 59.1699 51.38C59.1299 51.66 59.0799 51.94 59.0399 52.21C58.8999 51.79 58.7599 51.36 58.6099 50.94C58.5299 50.97 58.4499 51 58.3799 51.04C58.2599 50.74 58.1399 50.44 58.0199 50.15C57.9399 50.18 57.8599 50.2 57.7899 50.23C57.7099 50.27 57.6399 50.31 57.5599 50.35C57.5399 50.9 57.5199 51.45 57.4999 52.01C57.3399 51.37 57.1899 50.74 57.0299 50.1C56.9699 50.31 56.9099 50.53 56.8499 50.74C56.7999 51.09 56.7599 51.44 56.7099 51.8C56.6299 51.86 56.5499 51.91 56.4699 51.96C56.3199 51.29 56.1699 50.63 56.0199 49.96C55.9799 50.39 55.9299 50.82 55.8899 51.25C55.7799 50.91 55.6599 50.58 55.5499 50.24C55.4799 50.37 55.4099 50.5 55.3299 50.64C55.2499 50.74 55.1799 50.83 55.0999 50.93C55.0099 50.87 54.9199 50.8 54.8299 50.74C54.7299 50.56 54.6399 50.38 54.5399 50.2C54.4899 50.65 54.4299 51.1 54.3799 51.56C54.2799 51.36 54.1799 51.17 54.0899 50.97C53.9799 50.62 53.8799 50.27 53.7699 49.93C53.6899 49.94 53.5999 49.95 53.5199 49.96C53.4399 50.01 53.3599 50.07 53.2799 50.13C53.2099 50.34 53.1299 50.55 53.0599 50.76C52.9699 50.58 52.8699 50.41 52.7799 50.23C52.6999 50.42 52.6299 50.61 52.5499 50.8C52.4599 50.55 52.3599 50.31 52.2699 50.06C52.1899 50.06 52.0999 50.08 52.0199 50.08C51.9499 50.49 51.8699 50.9 51.7999 51.31C51.7099 51.36 51.6299 51.4 51.5399 51.45C51.4499 51.38 51.3599 51.3 51.2799 51.23C51.1899 51.23 51.1099 51.21 51.0199 51.2C50.9299 51.02 50.8399 50.84 50.7599 50.67C50.6799 50.81 50.5899 50.95 50.5099 51.09C50.4199 51.09 50.3399 51.08 50.2499 51.07C50.1599 50.79 50.0799 50.52 49.9899 50.24C49.8999 50.66 49.8199 51.08 49.7299 51.5C49.6499 51.32 49.5599 51.14 49.4799 50.97C49.3899 51.16 49.2999 51.35 49.2199 51.54C49.1399 50.99 49.0599 50.44 48.9899 49.9C48.8999 50.06 48.8199 50.21 48.7299 50.37C48.6399 50.39 48.5599 50.41 48.4699 50.43C48.3899 50.31 48.3099 50.18 48.2299 50.06C48.1299 50.49 48.0399 50.92 47.9399 51.35C47.8499 51.37 47.7699 51.39 47.6799 51.41C47.5999 51.19 47.5299 50.96 47.4499 50.74C47.3599 50.83 47.2699 50.92 47.1799 51.01C47.1099 50.72 47.0399 50.43 46.9699 50.14C46.8699 50.4 46.7799 50.65 46.6799 50.91C46.5799 51.2 46.4799 51.48 46.3799 51.77C46.3199 51.41 46.2499 51.05 46.1799 50.7C46.0899 50.83 45.9899 50.96 45.8999 51.09C45.7999 51.29 45.6999 51.49 45.5999 51.69C45.5299 51.4 45.4699 51.12 45.3999 50.83C45.2999 51.05 45.1999 51.27 45.0999 51.49C45.0299 51.23 44.9699 50.98 44.8999 50.72C44.7999 50.87 44.7099 51.02 44.6099 51.17C44.4999 51.46 44.3899 51.74 44.2799 52.03C44.1999 51.93 44.1299 51.83 44.0499 51.73C43.9799 51.55 43.9099 51.38 43.8399 51.21C43.7299 51.51 43.6099 51.81 43.4999 52.1C43.4599 51.66 43.4199 51.21 43.3799 50.77C43.3199 50.53 43.2599 50.29 43.2099 50.04C43.0599 50.63 42.9099 51.23 42.7699 51.83C42.6699 51.94 42.5799 52.05 42.4799 52.16C42.4499 51.69 42.4199 51.22 42.3899 50.75C42.2899 50.86 42.1999 50.98 42.0999 51.09C42.0499 50.85 41.9999 50.61 41.9399 50.38C41.8199 50.66 41.6999 50.93 41.5799 51.21C41.5399 50.93 41.4899 50.65 41.4499 50.36C41.2999 50.83 41.1499 51.31 41.0099 51.79C40.9299 51.75 40.8599 51.71 40.7799 51.67C40.7099 51.59 40.6399 51.52 40.5599 51.44C40.4699 51.51 40.3799 51.57 40.2799 51.64C40.2699 51.19 40.2599 50.75 40.2499 50.3C40.1299 50.56 39.9999 50.83 39.8799 51.09C39.8299 50.92 39.7799 50.74 39.7199 50.57C39.5599 51.02 39.4099 51.47 39.2499 51.92C39.2299 51.57 39.2099 51.21 39.1899 50.86C39.1099 50.86 39.0299 50.86 38.9499 50.85C38.8799 50.81 38.7999 50.78 38.7299 50.74C38.6699 50.62 38.6199 50.49 38.5599 50.37C38.4699 50.45 38.3699 50.54 38.2799 50.62C38.1899 50.66 38.1099 50.7 38.0199 50.74C37.9399 50.74 37.8599 50.74 37.7899 50.74C37.7099 50.77 37.6199 50.79 37.5399 50.82C37.3399 51.39 37.1399 51.96 36.9399 52.54C36.9099 52.3 36.8799 52.06 36.8499 51.82C36.8299 51.54 36.8099 51.26 36.7999 50.98C36.6599 51.27 36.5099 51.56 36.3699 51.85C36.3099 51.77 36.2499 51.7 36.1899 51.62C36.1299 51.53 36.0699 51.44 36.0199 51.36C35.9199 51.46 35.8199 51.56 35.7199 51.65C35.6699 51.52 35.6299 51.39 35.5799 51.26C35.4199 51.59 35.2599 51.93 35.0999 52.27C35.1599 51.71 35.2299 51.16 35.2899 50.6C35.1199 50.98 34.9399 51.35 34.7699 51.73C34.6899 51.74 34.6099 51.76 34.5299 51.77C34.4299 51.85 34.3399 51.92 34.2399 52C34.2399 51.7 34.2499 51.41 34.2599 51.11C34.1799 51.14 34.0999 51.17 34.0099 51.19C33.9699 51.07 33.9299 50.96 33.8899 50.84C33.6799 51.29 33.4799 51.75 33.2699 52.21C33.1899 52.23 33.1099 52.25 33.0199 52.28C33.0799 51.85 33.1299 51.41 33.1899 50.98C32.9499 51.5 32.7199 52.02 32.4799 52.55C32.5799 51.99 32.6799 51.42 32.7899 50.86C32.5299 51.45 32.2699 52.04 32.0099 52.63C32.1499 51.98 32.2899 51.32 32.4199 50.67C32.1199 51.35 31.8199 52.03 31.5199 52.72C31.5799 52.31 31.6499 51.9 31.7199 51.48C31.5899 51.64 31.4699 51.79 31.3399 51.95C31.2699 51.95 31.1999 51.95 31.1199 51.95C31.0799 51.86 31.0399 51.77 30.9999 51.68C30.9399 51.66 30.8699 51.64 30.8099 51.62C30.6299 51.9 30.4499 52.18 30.2799 52.47C30.2899 52.25 30.2999 52.02 30.3199 51.8C30.1799 51.97 30.0399 52.14 29.8999 52.31C29.8099 52.36 29.7099 52.41 29.6199 52.47C29.7599 51.96 29.8999 51.44 30.0299 50.93C29.7899 51.34 29.5499 51.75 29.3099 52.16C29.2599 52.1 29.2099 52.05 29.1599 51.99C29.3599 51.37 29.5599 50.76 29.7599 50.14C29.6899 50.14 29.6199 50.14 29.5599 50.15C29.3099 50.53 29.0699 50.92 28.8199 51.31C28.8799 51.03 28.9499 50.75 29.0099 50.47C28.8299 50.7 28.6399 50.94 28.4599 51.18C28.2699 51.41 28.0899 51.64 27.8999 51.87C28.0099 51.51 28.1199 51.16 28.2299 50.81C28.2699 50.61 28.2999 50.41 28.3399 50.22C28.1799 50.38 28.0299 50.54 27.8699 50.7C27.9699 50.41 28.0599 50.12 28.1599 49.83C28.0799 49.86 27.9999 49.88 27.9099 49.91C27.8299 49.93 27.7499 49.95 27.6699 49.96C27.3199 50.38 26.9799 50.81 26.6399 51.25C26.7599 50.95 26.8799 50.64 26.9999 50.34C27.0399 50.18 27.0699 50.02 27.1099 49.86C26.9599 49.96 26.8099 50.06 26.6599 50.17C26.6799 50.03 26.6999 49.9 26.7299 49.76C26.8799 49.48 27.0199 49.2 27.1699 48.92C26.8999 49.14 26.6199 49.37 26.3499 49.6C26.6199 49.2 26.8999 48.8 27.1699 48.41C27.1399 48.36 27.1199 48.31 27.0899 48.25C26.7999 48.44 26.4999 48.63 26.2099 48.83C26.3299 48.62 26.4599 48.42 26.5799 48.22C26.6699 48.06 26.7599 47.91 26.8499 47.75C26.5699 47.87 26.2899 47.99 26.0099 48.11C26.2599 47.84 26.5099 47.58 26.7599 47.32C26.5199 47.37 26.2799 47.42 26.0399 47.47C26.3399 47.21 26.6499 46.96 26.9599 46.71C26.5799 46.78 26.1999 46.85 25.8199 46.94C25.8199 46.83 25.8199 46.71 25.8199 46.6C26.1599 46.39 26.4999 46.18 26.8499 45.98C26.7899 45.89 26.7299 45.81 26.6799 45.72C26.6099 45.62 26.5299 45.53 26.4599 45.43C26.3899 45.32 26.3199 45.21 26.2499 45.1C26.6599 44.99 27.0699 44.88 27.4799 44.78C27.2599 44.65 27.0399 44.52 26.8199 44.4C27.2099 44.35 27.6099 44.31 27.9999 44.27C27.8199 44.12 27.6399 43.97 27.4499 43.81C27.4799 43.7 27.5099 43.59 27.5399 43.48C27.7799 43.46 28.0299 43.44 28.2699 43.42C28.3599 43.35 28.4399 43.28 28.5299 43.2C28.3899 43 28.2599 42.81 28.1199 42.62C28.2099 42.55 28.3099 42.47 28.3999 42.4C28.3499 42.23 28.2999 42.06 28.2499 41.9C28.2399 41.75 28.2199 41.59 28.2099 41.44C28.5199 41.54 28.8299 41.65 29.1399 41.77C29.1899 41.68 29.2499 41.59 29.2999 41.5C29.1899 41.24 29.0799 40.99 28.9699 40.74C29.1999 40.82 29.4299 40.91 29.6599 40.99C29.6399 40.81 29.6199 40.63 29.5999 40.46C29.7399 40.46 29.8799 40.46 30.0199 40.46C29.8799 40.12 29.7399 39.78 29.5999 39.44C29.6599 39.34 29.7099 39.23 29.7699 39.13C29.9999 39.27 30.2299 39.41 30.4699 39.56C30.4399 39.34 30.4099 39.12 30.3799 38.9C30.3799 38.69 30.3599 38.49 30.3499 38.28C30.4599 38.26 30.5799 38.25 30.6899 38.23C30.9199 38.42 31.1499 38.61 31.3799 38.8C31.4599 38.75 31.5499 38.71 31.6299 38.66C31.5799 38.37 31.5299 38.07 31.4699 37.78C31.5399 37.7 31.6099 37.62 31.6799 37.55C31.6399 37.24 31.5899 36.94 31.5499 36.64C31.7399 36.79 31.9199 36.94 32.1099 37.09C32.3099 37.29 32.5099 37.49 32.7099 37.69C32.7799 37.61 32.8399 37.53 32.9099 37.45C32.7899 36.94 32.6599 36.42 32.5399 35.91C32.6399 35.89 32.7399 35.88 32.8399 35.86C33.0399 36.1 33.2499 36.35 33.4499 36.59C33.5099 36.49 33.5699 36.4 33.6299 36.3C33.5899 35.94 33.5499 35.58 33.5099 35.22C33.7099 35.48 33.9099 35.75 34.1099 36.01C34.0499 35.58 33.9899 35.15 33.9299 34.72C34.1599 35.08 34.3799 35.44 34.6099 35.81C34.6999 35.79 34.7899 35.78 34.8799 35.76C34.7999 35.24 34.7299 34.73 34.6499 34.21C34.7699 34.29 34.8999 34.38 35.0199 34.46C35.1799 34.68 35.3499 34.9 35.5099 35.12C35.5899 35.08 35.6699 35.03 35.7499 34.99C35.7099 34.53 35.6599 34.07 35.6199 33.6C35.7699 33.8 35.9299 34.01 36.0799 34.21C36.1099 33.97 36.1299 33.74 36.1599 33.5C36.2299 33.4 36.2899 33.3 36.3599 33.2C36.4299 33.09 36.4899 32.99 36.5599 32.88C36.6299 32.77 36.6899 32.66 36.7599 32.55C36.9499 32.95 37.1499 33.36 37.3399 33.77C37.3999 33.65 37.4599 33.52 37.5199 33.4C37.5099 32.96 37.4899 32.51 37.4799 32.07C37.6799 32.55 37.8799 33.03 38.0799 33.51C38.1299 33.34 38.1799 33.16 38.2299 32.98C38.2899 32.86 38.3599 32.73 38.4199 32.61C38.5099 32.6 38.5899 32.59 38.6799 32.57C38.7399 32.43 38.7999 32.29 38.8599 32.15C38.9199 31.98 38.9699 31.82 39.0299 31.65C39.1499 31.83 39.2799 32.02 39.4099 32.2C39.4699 32.07 39.5399 31.93 39.5999 31.8C39.7099 31.93 39.8299 32.07 39.9399 32.2C39.9399 31.65 39.9299 31.1 39.9199 30.55C40.0499 30.77 40.1699 30.98 40.2999 31.2C40.3999 31.27 40.4999 31.33 40.5999 31.4C40.7099 31.55 40.8199 31.69 40.9299 31.84C40.9699 31.54 41.0099 31.23 41.0499 30.93C41.1699 31.14 41.2899 31.36 41.4099 31.57C41.4799 31.46 41.5499 31.34 41.6199 31.23C41.7299 31.39 41.8399 31.55 41.9499 31.72C41.9999 31.45 42.0499 31.17 42.0999 30.9C42.1399 30.55 42.1899 30.2 42.2299 29.85C42.3299 29.94 42.4299 30.03 42.5299 30.13C42.5899 29.91 42.6499 29.69 42.7199 29.48C42.8199 29.56 42.9099 29.64 43.0099 29.72C43.0999 29.79 43.1999 29.86 43.2899 29.93C43.4099 30.28 43.5399 30.64 43.6599 30.99C43.7399 30.94 43.8199 30.88 43.8999 30.83C43.9699 30.63 44.0299 30.44 44.0999 30.24C44.1799 30.14 44.2599 30.04 44.3299 29.95C44.3999 29.76 44.4699 29.56 44.5399 29.37C44.6299 29.41 44.7199 29.45 44.8099 29.48C44.9299 29.9 45.0499 30.31 45.1699 30.73C45.2099 30.14 45.2499 29.54 45.2999 28.95C45.4099 29.26 45.5199 29.57 45.6199 29.88C45.7099 29.91 45.7999 29.95 45.8799 29.99C45.9399 29.61 45.9999 29.22 46.0699 28.84C46.1899 29.39 46.3099 29.94 46.4199 30.5C46.4999 30.46 46.5799 30.41 46.6699 30.37C46.7499 30.35 46.8399 30.33 46.9199 30.32C46.9899 30.04 47.0699 29.77 47.1399 29.49C47.2199 29.39 47.2999 29.29 47.3899 29.2C47.4699 29.02 47.5499 28.84 47.6299 28.66C47.7399 29.26 47.8399 29.85 47.9499 30.45C48.0299 30.15 48.0999 29.86 48.1799 29.56C48.2699 29.74 48.3599 29.93 48.4499 30.11C48.5299 29.82 48.6099 29.52 48.6899 29.23C48.7699 29.09 48.8599 28.95 48.9399 28.82C49.0299 28.9 49.1099 28.98 49.1999 29.07C49.2799 28.81 49.3699 28.54 49.4499 28.28C49.5399 28.69 49.6299 29.1 49.7199 29.5C49.8099 29.62 49.8899 29.75 49.9799 29.87C50.0699 29.78 50.1499 29.69 50.2399 29.6C50.3199 29.75 50.4099 29.89 50.4899 30.04C50.5799 29.99 50.6599 29.94 50.7499 29.9C50.8299 29.96 50.9199 30.02 50.9999 30.08C51.0899 29.98 51.1699 29.87 51.2599 29.77C51.3499 29.33 51.4499 28.89 51.5399 28.45C51.6199 28.56 51.7099 28.67 51.7899 28.78C51.8699 28.94 51.9499 29.11 52.0299 29.28C52.1199 29.09 52.2099 28.9 52.3099 28.71C52.3899 28.95 52.4599 29.19 52.5399 29.42C52.6299 29.42 52.7099 29.44 52.7999 29.44C52.8699 29.77 52.9399 30.11 53.0099 30.44C53.1199 29.86 53.2399 29.29 53.3499 28.71C53.4099 29.19 53.4699 29.68 53.5299 30.16C53.6499 29.64 53.7599 29.12 53.8799 28.6C53.9299 29.14 53.9899 29.68 54.0399 30.21C54.1599 29.74 54.2799 29.27 54.3899 28.81C54.4499 29.14 54.5199 29.47 54.5799 29.8C54.6499 30.05 54.7099 30.3 54.7799 30.54C54.9099 30 55.0399 29.46 55.1699 28.91C55.2299 29.25 55.2899 29.6 55.3499 29.94C55.4199 30.17 55.4799 30.4 55.5499 30.63C55.6899 30.1 55.8199 29.58 55.9499 29.05C55.9899 29.58 56.0199 30.1 56.0599 30.63C56.1299 30.81 56.1999 30.99 56.2599 31.17C56.3899 30.73 56.5199 30.29 56.6599 29.86C56.7299 30.05 56.7899 30.25 56.8599 30.44C56.9399 30.51 57.0199 30.58 57.0999 30.66C57.1799 30.74 57.2499 30.82 57.3299 30.9C57.4699 30.47 57.6099 30.04 57.7499 29.61C57.7899 30 57.8299 30.39 57.8599 30.77C57.9799 30.53 58.0999 30.29 58.2199 30.05C58.2399 30.51 58.2699 30.96 58.2999 31.42C58.3799 31.44 58.4699 31.47 58.5499 31.49C58.6699 31.25 58.7999 31.01 58.9199 30.77C59.0199 30.7 59.1199 30.62 59.2199 30.55C59.2399 31.01 59.2499 31.46 59.2699 31.92C59.3899 31.75 59.4999 31.57 59.6199 31.4C59.7299 31.27 59.8399 31.14 59.9499 31.02C60.0399 31.03 60.1299 31.04 60.2099 31.05C60.3099 30.99 60.4099 30.93 60.5199 30.87C60.5399 31.26 60.5499 31.66 60.5699 32.05C60.6499 32.12 60.7199 32.19 60.7999 32.27C60.8499 32.46 60.8999 32.64 60.9599 32.82C61.0499 32.83 61.1299 32.85 61.2199 32.86C61.3999 32.41 61.5899 31.97 61.7699 31.53C61.8399 31.64 61.9099 31.75 61.9799 31.86C61.9599 32.38 61.9299 32.89 61.9099 33.41C62.0499 33.18 62.1999 32.94 62.3399 32.71C62.3399 33.08 62.3399 33.45 62.3499 33.82C62.4499 33.77 62.5499 33.72 62.6599 33.67C62.8499 33.28 63.0399 32.89 63.2299 32.5C63.2299 32.86 63.2299 33.22 63.2299 33.57C63.4099 33.25 63.5899 32.94 63.7599 32.62C63.7699 32.92 63.7799 33.23 63.7999 33.53C63.8899 33.53 63.9899 33.53 64.0799 33.54C64.0799 33.86 64.0799 34.18 64.0799 34.5C64.2199 34.36 64.3499 34.22 64.4899 34.07C64.5499 34.17 64.6199 34.27 64.6799 34.37C64.8499 34.15 65.0099 33.93 65.1799 33.71C65.2299 33.86 65.2799 34 65.3299 34.15C65.3799 34.31 65.4199 34.47 65.4699 34.63C65.6099 34.51 65.7499 34.39 65.8999 34.27C65.8199 34.78 65.7299 35.29 65.6499 35.8C65.8899 35.42 66.1299 35.04 66.3699 34.67C66.3699 34.97 66.3499 35.26 66.3399 35.55C66.3199 35.85 66.3099 36.14 66.2899 36.44C66.5499 36.04 66.8199 35.64 67.0799 35.24C66.9899 35.7 66.8999 36.16 66.8199 36.62C66.9699 36.52 67.1099 36.42 67.2599 36.32C67.3099 36.45 67.3499 36.58 67.3999 36.72C67.5899 36.54 67.7799 36.36 67.9699 36.18C67.9199 36.51 67.8799 36.83 67.8299 37.16C68.0399 36.95 68.2599 36.75 68.4699 36.54C68.4299 36.83 68.3999 37.12 68.3599 37.41C68.3799 37.57 68.4099 37.74 68.4299 37.9C68.5699 37.85 68.7099 37.81 68.8499 37.76C68.7999 38.04 68.7599 38.32 68.7099 38.6C68.8999 38.48 69.0899 38.36 69.2799 38.24C69.1899 38.57 69.0999 38.9 69.0099 39.23C69.1899 39.14 69.3699 39.05 69.5499 38.96C69.5199 39.18 69.4899 39.4 69.4599 39.62C69.7499 39.4 70.0299 39.19 70.3199 38.98C70.1399 39.39 69.9499 39.8 69.7699 40.21C69.8399 40.28 69.9199 40.34 69.9899 40.41C70.1799 40.34 70.3799 40.28 70.5699 40.21C70.7499 40.17 70.9399 40.14 71.1199 40.1C71.1499 40.23 71.1899 40.36 71.2199 40.49C71.0599 40.79 70.8999 41.1 70.7399 41.4C70.7799 41.5 70.8199 41.6 70.8599 41.71C71.2499 41.54 71.6299 41.37 72.0099 41.21C71.9399 41.41 71.8699 41.61 71.7999 41.8C71.7999 41.93 71.8099 42.06 71.8199 42.2C71.6899 42.4 71.5599 42.61 71.4199 42.81C71.8299 42.71 72.2499 42.62 72.6499 42.54C72.4799 42.74 72.3199 42.95 72.1499 43.15C72.1499 43.27 72.1399 43.38 72.1299 43.5C72.3599 43.54 72.5999 43.58 72.8299 43.63C72.9999 43.71 73.1799 43.8 73.3499 43.89C72.9999 44.05 72.6599 44.22 72.3099 44.4C72.6299 44.47 72.9499 44.55 73.2699 44.63C73.0099 44.73 72.7399 44.84 72.4699 44.95C72.4399 45.04 72.4099 45.12 72.3899 45.21C72.4799 45.3 72.5599 45.4 72.6499 45.49C72.6199 45.57 72.5899 45.64 72.5599 45.72C72.7899 45.86 73.0299 46.01 73.2599 46.16C73.4199 46.31 73.5699 46.47 73.7299 46.62C73.8799 46.79 74.0399 46.97 74.1899 47.15C73.9699 47.13 73.7599 47.12 73.5399 47.11C73.3699 47.1 73.1999 47.08 73.0399 47.07C72.9399 47.08 72.8499 47.09 72.7499 47.11L72.7799 47.12Z" fill="#BA9368"/>
<path d="M29.92 44.02L29.93 44.04H29.91L29.92 44.02Z" fill="#BA9368"/>
<path d="M29.8701 44.16L30.68 44.49L30.3701 44.57L30.06 44.48L29.8 44.39L29.8701 44.16Z" fill="#BA9368"/>
<path d="M29.87 44.16L29.49 44L29.91 44.04L29.87 44.16Z" fill="#BA9368"/>
<path d="M29.9 43.98L29.93 43.99L29.92 44.02L29.9 43.98Z" fill="#BA9368"/>
<path d="M29.9 43.98L29.37 43.03L29.4 42.98L29.67 43.11L29.7 43.18L30.84 43.06L29.9 43.98Z" fill="#BA9368"/>
<path d="M66.15 39.73L66.12 39.76L66.15 39.72V39.73Z" fill="#BA9368"/>
<path d="M54.1801 63.79C54.1801 63.79 54.1801 64.4 53.8801 64.59C53.5701 64.77 53.3601 64.6 53.0001 64.09C52.7701 63.76 52.3201 63.91 52.2201 64.09C52.1201 64.27 51.6001 66.39 50.9201 66.39C50.7601 66.39 50.6201 66.36 50.5001 66.32C50.3801 66.36 50.2401 66.39 50.0801 66.39C49.4101 66.39 48.8801 64.27 48.7801 64.09C48.6701 63.91 48.2301 63.76 48.0001 64.09C47.6401 64.6 47.4301 64.77 47.1101 64.59C46.8101 64.41 46.8101 63.82 46.8101 63.79C46.8101 63.79 46.8101 63.61 46.8901 63.38C46.8901 63.38 46.9101 63.34 46.9101 63.31C46.9301 63.26 46.9601 63.2 46.9901 63.14C47.0701 63 47.1801 62.85 47.3401 62.73C47.5401 62.57 47.8201 62.43 48.2101 62.37C49.5101 62.16 50.3301 62.94 50.4501 63.06H50.5201C50.6401 62.94 51.4601 62.15 52.7601 62.37C53.1201 62.43 53.3901 62.55 53.5901 62.7C53.7201 62.8 53.8301 62.91 53.9101 63.02C54.0001 63.14 54.0501 63.27 54.0901 63.38C54.1701 63.6 54.1701 63.77 54.1701 63.79H54.1801Z" fill="#A2938B"/>
</svg>
