<svg width="102" height="102" viewBox="0 0 102 102" fill="none" xmlns="http://www.w3.org/2000/svg">
<path d="M93.0901 0.530029H9.50006C4.71175 0.530029 0.830078 4.41173 0.830078 9.20004V92.79C0.830078 97.5783 4.71175 101.46 9.50006 101.46H93.0901C97.8784 101.46 101.76 97.5783 101.76 92.79V9.20004C101.76 4.41173 97.8784 0.530029 93.0901 0.530029Z" fill="#24B999"/>
<path d="M53.18 88.3101C53.02 88.3101 52.86 88.28 52.71 88.22C52.5 88.14 51.07 87.5001 50.22 85.2101C50.13 85.2301 50.05 85.2401 49.96 85.2401C49.94 85.2401 49.92 85.2401 49.9 85.2401C49.33 85.2101 48.84 84.8201 48.7 84.2701C48.62 83.9701 46.58 76.8501 36.99 76.4501C33.57 76.3101 29.96 74.6101 27.02 71.8801C26.93 71.9601 26.82 72.0201 26.7 72.0701C26.54 72.1401 26.36 72.17 26.19 72.17C25.76 72.17 25.35 71.9601 25.11 71.5901C25 71.4201 22.33 67.37 20.85 64.17C19.24 60.69 18.84 50.8201 21.59 44.8201C23.02 41.7101 24.41 39.08 25.83 36.79C25.09 34.69 24.69 33.2001 24.61 32.2401C24.59 32.0401 24.59 31.84 24.59 31.61C24.48 29.26 25.15 27.14 26.44 25.79C27.28 24.9 28.35 24.41 29.44 24.41C30.85 24.41 32.2 25.21 33.24 26.67C33.4 26.9 33.64 27.1001 33.9 27.2801C33.93 27.2501 34.14 27.1 34.14 27.1C34.26 27.01 34.4 26.9 34.56 26.79C34.45 26.67 34.37 26.5301 34.31 26.3701C34.1 25.7901 34.33 25.1401 34.86 24.8201C34.86 24.8201 34.93 24.7801 35.04 24.7001C35.06 24.6901 35.07 24.68 35.09 24.67C35.12 24.65 35.16 24.63 35.19 24.6C35.33 24.51 35.53 24.3801 35.79 24.2501L35.92 24.1801C36.19 24.0401 36.53 23.8701 36.95 23.7101C37.04 23.6801 37.14 23.64 37.24 23.6C37.28 23.59 37.31 23.5701 37.35 23.5601C37.4 23.5401 37.68 23.4601 37.68 23.4601C37.95 23.3701 38.25 23.29 38.55 23.23C38.7 23.19 38.85 23.1601 39.01 23.1301C39.03 23.1301 39.04 23.1301 39.06 23.1301C39.2 23.1101 39.34 23.0901 39.49 23.0701C39.78 23.0201 40.05 23.0101 40.3 23.0001H40.5301C40.5301 23.0001 40.58 22.9901 40.6 22.9901H40.68C41.16 22.9901 41.6 23.0101 42.01 23.0601C42.18 22.3401 42.45 21.72 42.65 21.3C42.66 21.28 42.67 21.25 42.69 21.23L42.7801 21.05C42.8901 20.84 43.02 20.6 43.18 20.36L43.21 20.3101C43.27 20.2301 43.32 20.1401 43.37 20.0601C43.39 20.0201 43.42 19.9901 43.45 19.9501L43.69 19.6501C43.87 19.4201 44.05 19.2101 44.26 19.0001C44.45 18.8001 44.62 18.63 44.8 18.48C45.09 18.21 45.36 18.02 45.58 17.86C45.58 17.86 45.73 17.7501 45.74 17.7501C45.82 17.6101 45.91 17.4701 46 17.3201L46.24 16.9501C46.24 16.9501 46.2701 16.9101 46.2801 16.8901C46.3801 16.7501 46.48 16.61 46.58 16.48C46.65 16.39 46.85 16.1301 46.85 16.1301C46.87 16.1101 46.88 16.0901 46.9 16.0701C46.99 15.9701 47.07 15.8701 47.16 15.7701C47.16 15.7601 47.18 15.7501 47.19 15.7401C47.28 15.6401 47.36 15.5501 47.44 15.4601C47.47 15.4301 47.49 15.4001 47.52 15.3701C47.52 15.3701 47.73 15.1701 47.77 15.1201C48.1 14.7901 48.41 14.5301 48.66 14.3301L48.79 14.22C49.01 14.03 49.22 13.9 49.37 13.8C49.42 13.77 49.45 13.74 49.49 13.72C49.51 13.7 49.53 13.6901 49.55 13.6801C49.71 13.5701 49.8 13.5201 49.8 13.5201C50.02 13.3801 50.26 13.3201 50.5 13.3201C50.84 13.3201 51.18 13.4501 51.43 13.7101C51.86 14.1501 51.92 14.84 51.57 15.35L51.43 15.55C51.48 15.51 51.54 15.46 51.59 15.42C51.61 15.4 51.63 15.3901 51.66 15.3701C51.66 15.3701 51.93 15.1801 51.99 15.1301C52.1 15.0501 52.18 15.0001 52.26 14.9401L52.35 14.8801L52.48 14.8C52.57 14.75 52.65 14.6901 52.74 14.6401C53.11 14.4101 53.48 14.2301 53.77 14.0901L53.93 14.0101C54.19 13.8801 54.42 13.8 54.59 13.73C54.64 13.71 54.69 13.6901 54.72 13.6801C54.74 13.6801 54.77 13.6601 54.79 13.6501L55.06 13.55C55.2 13.5 55.35 13.47 55.5 13.47C55.95 13.47 56.37 13.7 56.61 14.1C56.93 14.63 56.83 15.31 56.37 15.73L56.18 15.91C56.12 15.96 56.05 16.03 55.96 16.1C55.86 16.19 55.74 16.3001 55.6 16.4301L55.45 16.5801C55.25 16.7701 55.04 16.9701 54.82 17.2101C54.73 17.3001 54.65 17.3801 54.58 17.4601L54.36 17.7101C54.36 17.7101 54.16 17.9301 54.11 17.9901C54.11 17.9901 53.87 18.2901 53.86 18.3101C53.95 18.2601 54.06 18.2101 54.16 18.1501C54.18 18.1401 54.2 18.1301 54.22 18.1201C54.36 18.0501 54.5 17.9901 54.64 17.9301C54.89 17.8201 55.17 17.71 55.49 17.6L55.58 17.5701C55.67 17.5401 55.76 17.51 55.85 17.48C56 17.44 56.12 17.4001 56.24 17.3701C56.64 17.2601 56.99 17.2 57.27 17.16L57.46 17.1301C57.75 17.0801 57.99 17.0701 58.15 17.0601C58.2 17.0601 58.24 17.0601 58.27 17.0601C58.29 17.0601 58.3 17.0601 58.32 17.0601C58.5 17.0501 58.61 17.05 58.61 17.05C58.62 17.05 58.64 17.05 58.65 17.05C59.24 17.05 59.76 17.4501 59.91 18.0201C60.06 18.6101 59.79 19.2201 59.25 19.5001C59.25 19.5001 59.01 19.6301 58.99 19.6301C58.87 19.6901 58.69 19.7801 58.48 19.8901L58.4 19.9301L58.27 20.0001C58.04 20.1201 57.8 20.25 57.55 20.41C57.54 20.41 57.43 20.48 57.43 20.48C57.38 20.51 57.32 20.5401 57.26 20.5801C57.2 20.6201 57.12 20.67 57.05 20.73L56.73 20.9401C56.7 20.9601 56.65 21 56.59 21.05L56.5 21.1201L56.33 21.2401C56.64 21.2401 56.94 21.3701 57.18 21.5801C57.34 21.5001 57.51 21.42 57.7 21.35L58.23 21.1201C58.23 21.1201 58.29 21.1001 58.32 21.0901C58.44 21.0501 58.56 21.0101 58.68 20.9601L58.86 20.8901C59.05 20.8201 59.26 20.7501 59.5 20.6901C59.65 20.6401 59.81 20.6001 59.96 20.5601L60.06 20.5301C60.06 20.5301 60.12 20.5101 60.16 20.5101C60.28 20.4901 60.39 20.4601 60.5 20.4401C60.76 20.3801 61.03 20.33 61.31 20.29L61.58 20.2601C61.86 20.2201 62.16 20.1901 62.47 20.1801L62.94 20.16H63.09C63.19 20.16 63.3 20.16 63.4 20.16L63.98 20.1801C63.98 20.1801 64.02 20.1801 64.03 20.1801C64.19 20.1901 64.35 20.21 64.5 20.23H64.59C64.86 20.27 65.14 20.3001 65.44 20.3701C65.5 20.3801 65.57 20.4 65.64 20.41C65.81 20.44 66.01 20.48 66.21 20.55L66.73 20.7101C66.98 20.7801 67.18 20.86 67.32 20.92C67.32 20.92 67.66 21.0601 67.68 21.0701C67.81 21.1301 67.88 21.16 67.9 21.17C68.48 21.41 68.8 22.0301 68.67 22.6401C68.54 23.2401 68.01 23.66 67.4 23.66C67.39 23.66 67.07 23.6501 67.07 23.6501C67.01 23.6501 66.92 23.6501 66.81 23.6401C66.69 23.6401 66.54 23.6301 66.37 23.6301H66.32C66.16 23.6301 65.97 23.6301 65.76 23.6301C65.65 23.6301 65.54 23.6401 65.43 23.6501C65.34 23.6501 65.13 23.67 65.12 23.67C65.07 23.67 65.01 23.6701 64.95 23.6801L65 23.7101C65.06 23.7401 65.11 23.7801 65.16 23.8201C65.27 23.8501 65.38 23.88 65.49 23.91C65.78 23.98 66.07 24.0801 66.37 24.2001L66.47 24.2401C66.54 24.2701 66.6 24.2901 66.67 24.3201C66.71 24.3301 66.74 24.35 66.77 24.36L67.09 24.5101C67.47 24.6801 67.79 24.8701 68.04 25.0201L68.19 25.1C68.45 25.25 68.65 25.4001 68.78 25.5001C68.81 25.5301 69.11 25.7401 69.11 25.7401C69.17 25.7801 69.22 25.8301 69.27 25.8701C70.2 24.9101 71.32 24.3801 72.49 24.3801C73.66 24.3801 74.85 24.9301 75.73 25.9401C76.99 27.3601 77.55 29.4901 77.28 31.7701C77.28 31.9101 77.28 32.0601 77.26 32.2101C77.18 33.2101 76.74 34.8101 75.92 37.0901C77.74 40.0501 79.32 43.4801 80.64 47.3101C83.31 55.0901 81.58 61.4101 79.66 65.3401C77.59 69.5901 74.89 72.01 74.77 72.11C74.53 72.32 74.22 72.4301 73.91 72.4301C73.68 72.4301 73.45 72.3701 73.25 72.2501C73.02 72.1101 72.84 71.91 72.73 71.67C71.27 72.88 69.62 73.93 67.91 74.73C67.65 75.29 67.06 75.8901 65.88 76.4301C53.39 82.2101 54.34 86.3901 54.35 86.4301C54.57 86.9101 54.47 87.48 54.11 87.86C53.86 88.12 53.52 88.2601 53.17 88.2601L53.18 88.3101Z" fill="#2F150C"/>
<path d="M79.42 47.7601C78.05 43.7601 76.41 40.2701 74.49 37.2701C75.19 35.3701 75.88 33.2701 75.97 32.1401C75.98 32.0001 75.99 31.8601 75.99 31.7201C76.63 26.6201 72.4 23.6401 69.69 27.4301C69.48 27.7201 69.21 27.9801 68.9 28.2101C68.8 28.1201 68.68 28.0201 68.54 27.9101C68.29 27.7301 67.98 27.4902 67.6 27.2802C67.5 27.2202 67.41 27.1701 67.3 27.1001C67.2 27.0501 67.09 27.0001 66.98 26.9401C66.76 26.8201 66.52 26.7201 66.26 26.6201C66.13 26.5701 66 26.5201 65.87 26.4701C65.73 26.4301 65.59 26.3901 65.45 26.3401C65.41 26.3301 65.37 26.3201 65.33 26.3101C65.33 26.3101 65.33 26.3101 65.34 26.3101C65.46 26.3201 65.57 26.3401 65.69 26.3501C65.8 26.3501 65.91 26.3701 66.02 26.3801C66.13 26.4001 66.23 26.4101 66.33 26.4301C66.74 26.4801 67.1 26.5601 67.4 26.6101C67.7 26.6701 67.93 26.7301 68.09 26.7601C68.26 26.7901 68.34 26.8101 68.34 26.8101C68.34 26.8101 68.27 26.7601 68.14 26.6601C68 26.5701 67.81 26.4101 67.54 26.2501C67.27 26.0901 66.95 25.8901 66.54 25.7101C66.44 25.6601 66.34 25.6201 66.23 25.5701C66.12 25.5301 66.01 25.4901 65.89 25.4401C65.66 25.3501 65.41 25.2601 65.14 25.2001C65.01 25.1601 64.87 25.1201 64.73 25.0901C64.59 25.0601 64.44 25.0301 64.3 25.0001C64.01 24.9301 63.7 24.9101 63.38 24.8701C62.74 24.8301 62.06 24.8201 61.36 24.9301C60.83 25.0001 60.29 25.1201 59.75 25.2901C59.62 25.2501 59.48 25.2101 59.34 25.1601C59.5 25.1101 59.66 25.0702 59.81 25.0302C60.05 24.9802 60.29 24.9201 60.52 24.8901C60.64 24.8701 60.75 24.8501 60.87 24.8301C60.99 24.8301 61.1 24.8101 61.21 24.8001C61.43 24.7701 61.65 24.7701 61.86 24.7601C61.96 24.7601 62.07 24.7501 62.17 24.7501C62.27 24.7501 62.36 24.7501 62.46 24.7501C62.84 24.7501 63.17 24.7701 63.45 24.7901C63.73 24.8101 63.95 24.8301 64.1 24.8501C64.25 24.8501 64.33 24.8701 64.33 24.8701C64.33 24.8701 64.26 24.8301 64.13 24.7501C64 24.6801 63.81 24.5501 63.55 24.4301C63.29 24.3101 62.98 24.1502 62.59 24.0302C62.4 23.9602 62.19 23.9001 61.97 23.8401C61.75 23.7801 61.51 23.7301 61.26 23.6901C61.13 23.6701 61.01 23.6501 60.87 23.6301C60.74 23.6301 60.6 23.6101 60.47 23.6001C60.38 23.6001 60.28 23.5901 60.19 23.5901C60.4 23.5001 60.62 23.4201 60.82 23.3301C61.14 23.2301 61.44 23.1101 61.75 23.0201C62.06 22.9301 62.36 22.8302 62.65 22.7802C62.8 22.7402 62.94 22.7101 63.09 22.6801C63.23 22.6501 63.38 22.6301 63.52 22.6001C63.66 22.5801 63.8 22.5502 63.93 22.5302C64.06 22.5202 64.2 22.5001 64.33 22.4801C64.59 22.4501 64.83 22.4201 65.07 22.4101C65.3 22.4001 65.52 22.3801 65.73 22.3701C65.93 22.3701 66.12 22.3701 66.3 22.3701C66.64 22.3701 66.91 22.3901 67.1 22.4001C67.29 22.4001 67.39 22.4001 67.39 22.4001C67.39 22.4001 67.3 22.3602 67.13 22.2802C67.04 22.2402 66.94 22.2001 66.81 22.1501C66.68 22.0901 66.54 22.0301 66.37 21.9901C66.2 21.9401 66.01 21.8801 65.81 21.8201C65.61 21.7501 65.38 21.7201 65.13 21.6701C64.89 21.6101 64.62 21.5901 64.34 21.5501C64.2 21.5301 64.06 21.5201 63.91 21.5101C63.76 21.5101 63.61 21.5101 63.46 21.4901C63.31 21.4901 63.15 21.4901 62.99 21.4901C62.83 21.4901 62.67 21.5101 62.5 21.5101C62.16 21.5101 61.82 21.5701 61.47 21.6201C61.12 21.6701 60.76 21.7601 60.39 21.8301C60.21 21.8801 60.03 21.9301 59.84 21.9801C59.65 22.0301 59.47 22.0801 59.28 22.1501C59.1 22.2101 58.91 22.2801 58.72 22.3501C58.54 22.4301 58.35 22.5101 58.17 22.5801C57.79 22.7301 57.44 22.9301 57.07 23.1201C56.47 23.4601 55.89 23.8401 55.33 24.2601C55.3 24.2601 55.26 24.2501 55.23 24.2401C55.35 24.0901 55.46 23.9501 55.56 23.8101C55.72 23.5801 55.88 23.3801 56 23.2201C56.24 22.8901 56.37 22.6701 56.37 22.6701L56.29 22.5601C56.29 22.5601 56.06 22.6501 55.69 22.8401C55.5 22.9301 55.27 23.0501 55.03 23.2101C54.91 23.2801 54.78 23.3801 54.64 23.4701C54.5 23.5601 54.36 23.6602 54.22 23.7802C54.13 23.8502 54.05 23.9201 53.96 23.9901C53.5 23.9101 53.01 23.8501 52.49 23.8201C52.75 23.3301 53.04 22.8601 53.36 22.4401C53.71 21.9601 54.1 21.5301 54.49 21.1401C54.69 20.9501 54.89 20.7601 55.09 20.5901C55.19 20.5101 55.29 20.4201 55.39 20.3401C55.49 20.2601 55.59 20.1901 55.7 20.1101C55.8 20.0401 55.89 19.9601 55.99 19.8901C56.09 19.8301 56.19 19.7601 56.28 19.7001C56.37 19.6401 56.47 19.5701 56.56 19.5101C56.65 19.4501 56.75 19.4001 56.83 19.3501C57.18 19.1301 57.51 18.9601 57.77 18.8101C58.04 18.6701 58.26 18.5601 58.4 18.4901C58.55 18.4101 58.63 18.3701 58.63 18.3701C58.63 18.3701 58.54 18.3701 58.38 18.3801C58.21 18.4001 57.96 18.3901 57.66 18.4401C57.35 18.4901 56.97 18.5401 56.55 18.6601C56.44 18.6901 56.33 18.7201 56.22 18.7501C56.11 18.7901 55.99 18.8201 55.88 18.8601C55.64 18.9401 55.4 19.0301 55.15 19.1401C55.02 19.2001 54.9 19.2501 54.77 19.3201C54.64 19.3901 54.51 19.4601 54.38 19.5201C54.11 19.6601 53.86 19.8401 53.59 20.0101C53.07 20.3801 52.53 20.8101 52.06 21.3401C51.58 21.8601 51.13 22.4401 50.77 23.1001C50.65 23.3101 50.53 23.5401 50.43 23.7601C50.27 23.7601 50.11 23.7601 49.94 23.7601C50.02 23.3501 50.12 22.9501 50.23 22.5601C50.32 22.2201 50.44 21.9001 50.55 21.5701C50.68 21.2501 50.79 20.9301 50.94 20.6301C51.21 20.0201 51.52 19.4501 51.85 18.9201C52.02 18.6601 52.18 18.4001 52.36 18.1701C52.44 18.0501 52.53 17.9301 52.61 17.8201C52.7 17.7101 52.79 17.6001 52.87 17.4901C52.95 17.3801 53.04 17.2801 53.12 17.1701C53.21 17.0701 53.3 16.9801 53.38 16.8801C53.46 16.7801 53.55 16.6901 53.62 16.6001C53.7 16.5201 53.79 16.4301 53.86 16.3501C54.17 16.0101 54.47 15.7401 54.71 15.5101C54.95 15.2801 55.15 15.1101 55.29 14.9901C55.42 14.8701 55.49 14.8001 55.49 14.8001C55.49 14.8001 55.4 14.8301 55.23 14.8901C55.06 14.9601 54.8 15.0401 54.5 15.1901C54.19 15.3401 53.81 15.5101 53.4 15.7701C53.3 15.8301 53.19 15.9001 53.08 15.9601C52.98 16.0301 52.87 16.1101 52.76 16.1801C52.65 16.2601 52.54 16.3401 52.42 16.4201C52.31 16.5101 52.2 16.6001 52.08 16.7001C51.96 16.7901 51.85 16.8901 51.73 17.0001C51.62 17.1101 51.5 17.2201 51.39 17.3301C51.15 17.5501 50.93 17.8101 50.7 18.0601C50.26 18.5901 49.81 19.1801 49.44 19.8501C49.06 20.5101 48.73 21.2301 48.48 22.0001C48.27 22.6001 48.12 23.2201 48.01 23.8601C47.74 23.8801 47.47 23.9001 47.21 23.9301C47.21 23.7601 47.21 23.5801 47.22 23.4101C47.22 23.0601 47.27 22.7201 47.29 22.3701C47.34 22.0301 47.38 21.6901 47.45 21.3701C47.56 20.7101 47.74 20.0901 47.93 19.5001C48.04 19.2101 48.13 18.9201 48.25 18.6501C48.3 18.5101 48.36 18.3801 48.41 18.2401C48.47 18.1101 48.53 17.9901 48.59 17.8601C48.65 17.7401 48.7 17.6101 48.76 17.4901C48.82 17.3701 48.88 17.2601 48.95 17.1501C49.01 17.0401 49.06 16.9301 49.12 16.8201C49.18 16.7201 49.24 16.6101 49.3 16.5201C49.52 16.1201 49.75 15.7901 49.92 15.5001C50.11 15.2201 50.26 15.0101 50.36 14.8501C50.46 14.7001 50.52 14.6201 50.52 14.6201C50.52 14.6201 50.44 14.6701 50.29 14.7701C50.15 14.8801 49.91 15.0101 49.65 15.2301C49.39 15.4501 49.06 15.7001 48.72 16.0501C48.63 16.1301 48.54 16.2301 48.45 16.3101C48.37 16.4101 48.28 16.5001 48.19 16.6101C48.1 16.7101 48.01 16.8201 47.92 16.9301C47.83 17.0401 47.74 17.1602 47.65 17.2802C47.56 17.4002 47.47 17.5201 47.38 17.6501C47.3 17.7801 47.21 17.9201 47.12 18.0501C46.99 18.2401 46.88 18.4501 46.76 18.6601C46.68 18.7101 46.6 18.7601 46.51 18.8201C46.28 18.9901 45.99 19.1801 45.69 19.4601C45.53 19.5901 45.38 19.7401 45.23 19.9101C45.07 20.0701 44.91 20.2501 44.75 20.4501C44.67 20.5501 44.59 20.6501 44.51 20.7601C44.44 20.8701 44.36 20.9801 44.29 21.1001C44.13 21.3201 44.01 21.5801 43.86 21.8501C43.61 22.3901 43.37 22.9801 43.25 23.6301C43.19 23.9201 43.15 24.2302 43.12 24.5302C43.09 24.5302 43.05 24.5501 43.02 24.5501C42.9 24.5201 42.78 24.4901 42.66 24.4701C41.97 24.3201 41.28 24.2801 40.64 24.2901C40.32 24.3101 40.01 24.3101 39.71 24.3601C39.56 24.3801 39.41 24.4001 39.27 24.4201C39.13 24.4501 38.99 24.4801 38.86 24.5101C38.59 24.5601 38.33 24.6301 38.1 24.7101C37.98 24.7501 37.87 24.7801 37.76 24.8201C37.65 24.8601 37.55 24.9001 37.44 24.9401C37.03 25.0901 36.69 25.2801 36.41 25.4201C36.13 25.5601 35.93 25.7101 35.79 25.7901C35.65 25.8801 35.58 25.9301 35.58 25.9301C35.58 25.9301 35.67 25.9201 35.83 25.8901C35.99 25.8601 36.23 25.8302 36.53 25.7802C36.83 25.7402 37.2 25.6901 37.61 25.6601C37.71 25.6601 37.82 25.6401 37.93 25.6301C38.04 25.6301 38.15 25.6301 38.26 25.6301C38.38 25.6301 38.49 25.6301 38.61 25.6201C38.73 25.6201 38.85 25.6201 38.98 25.6201C39.1 25.6201 39.23 25.6201 39.36 25.6201C39.46 25.6201 39.56 25.6401 39.66 25.6401C38.79 26.0101 37.96 26.4301 37.15 26.8901C37.12 26.9001 37.09 26.9101 37.07 26.9201C36.81 27.0201 36.58 27.1301 36.36 27.2501C36.25 27.3101 36.14 27.3601 36.04 27.4201C35.94 27.4801 35.85 27.5401 35.75 27.6001C35.37 27.8201 35.07 28.0601 34.82 28.2501C34.57 28.4401 34.4 28.6101 34.27 28.7201C34.18 28.8001 34.13 28.8601 34.1 28.8801C33.34 28.4801 32.66 28.0301 32.23 27.4201C29.54 23.6601 25.68 26.5201 25.93 31.5701C25.93 31.7501 25.93 31.9401 25.95 32.1301C26.04 33.2001 26.65 35.1201 27.31 36.9401C25.62 39.5701 24.15 42.4401 22.81 45.3501C20.14 51.1701 20.72 60.6901 22.07 63.6101C23.53 66.7501 26.23 70.8601 26.23 70.8601C26.23 70.8601 26.02 69.9101 25.79 68.5401C28.7 72.3801 33.09 74.9701 37.07 75.1401C47.81 75.5901 49.98 83.9401 49.98 83.9401C49.98 83.9401 50.27 83.1201 50.93 81.9801C51.18 86.2101 53.21 87.0101 53.21 87.0101C53.21 87.0101 50.93 81.9801 65.37 75.3001C66.51 74.7701 66.91 74.2901 66.79 73.8701C69.63 72.6601 72.48 70.6201 74.5 68.1601C74.25 69.8901 73.95 71.1701 73.95 71.1701C73.95 71.1701 84.33 62.0101 79.45 47.7701L79.42 47.7601ZM65.6 27.6401C65.73 27.6601 65.85 27.6801 65.97 27.7001C66.09 27.7201 66.22 27.7301 66.33 27.7601C66.45 27.7801 66.56 27.8101 66.67 27.8301C66.78 27.8501 66.89 27.8701 67 27.8901C67.1 27.9201 67.21 27.9501 67.31 27.9701C67.71 28.0601 68.06 28.1701 68.36 28.2601C68.48 28.3001 68.59 28.3401 68.69 28.3701C68.24 28.6801 67.72 28.9501 67.2 29.2001C66.42 28.6101 65.62 28.0801 64.8 27.5801C64.94 27.5801 65.07 27.5901 65.21 27.6101C65.34 27.6101 65.47 27.6301 65.6 27.6401ZM44.9 23.8901C44.94 23.3601 45.05 22.8601 45.18 22.3801C45.25 22.1401 45.32 21.9101 45.41 21.6901C45.45 21.5801 45.49 21.4701 45.53 21.3601C45.58 21.2501 45.62 21.1501 45.67 21.0501C45.74 20.8701 45.83 20.7001 45.91 20.5401C45.86 20.6801 45.81 20.8301 45.77 20.9801C45.55 21.7101 45.4 22.4901 45.33 23.3001C45.3 23.5801 45.29 23.8701 45.28 24.1601C45.14 24.1801 45.01 24.1901 44.87 24.2101C44.87 24.1001 44.87 24.0001 44.89 23.8901H44.9ZM34.29 28.8201C34.29 28.8201 34.34 28.8001 34.36 28.8001C34.3 28.8501 34.24 28.9001 34.18 28.9501C34.15 28.9301 34.11 28.9101 34.08 28.9001C34.12 28.8901 34.19 28.8601 34.3 28.8301L34.29 28.8201Z" fill="#2F150C"/>
<path d="M79.4199 47.7601C74.5499 33.5601 66.2099 25.6601 54.7699 24.1701C52.3499 23.5101 48.2199 23.7701 45.7099 24.1001C33.9399 25.3801 27.5099 35.0301 22.7699 45.3601C20.0999 51.1801 20.6799 60.7001 22.0299 63.6201C23.4899 66.7601 26.1899 70.8701 26.1899 70.8701C26.1899 70.8701 25.9799 69.9201 25.7499 68.5501C28.6599 72.3901 33.0499 74.9801 37.0299 75.1501C47.7699 75.6001 49.9399 83.9501 49.9399 83.9501C49.9399 83.9501 50.2299 83.1301 50.8899 81.9901C51.1399 86.2201 53.1699 87.0201 53.1699 87.0201C53.1699 87.0201 50.8899 81.9901 65.3299 75.3101C66.4699 74.7801 66.8699 74.3001 66.7499 73.8801C69.5899 72.6701 72.4399 70.6301 74.4599 68.1701C74.2099 69.9001 73.9099 71.1801 73.9099 71.1801C73.9099 71.1801 84.2899 62.0201 79.4099 47.7801" fill="#7A562A"/>
<path d="M74.3599 52.5401C74.3599 52.8601 74.3499 53.1701 74.3199 53.4901C74.3199 53.6001 74.3 53.7201 74.28 53.8301C73.17 63.2201 60.1999 70.6601 51.4299 70.8201C51.3299 70.8201 51.24 70.8201 51.14 70.8201C43.6 70.8201 29.28 63.3501 28.02 53.8701C27.96 53.4301 27.9299 52.9802 27.9299 52.5302C27.9299 43.6202 35.4299 33.4401 35.4299 33.4401C35.4299 33.4401 43 29.1101 51.15 29.1101C58.81 29.1101 66.8699 33.4401 66.8699 33.4401C66.8699 33.4401 74.3699 43.6202 74.3699 52.5302" fill="#BA8E2D"/>
<path d="M51.1499 70.8201C47.6999 70.8201 42.5499 68.7902 38.3399 65.7802C33.4999 62.3202 30.4499 58.0301 29.9599 54.0001C29.9099 53.6001 29.8899 53.2001 29.8899 52.7901C29.8899 44.7301 35.5599 35.3301 36.7999 33.3701C38.3399 32.4901 44.6299 29.1201 51.1599 29.1201C57.3199 29.1201 63.8799 32.4901 65.5299 33.3801C66.7899 35.3801 72.4299 44.7402 72.4299 52.7802C72.4299 53.0802 72.4299 53.3701 72.3999 53.6501C72.3999 53.7601 72.3799 53.8601 72.3699 53.9701C71.3599 63.3501 58.9599 70.6501 51.4199 70.8001H51.4599H51.1699" fill="#ECB61E"/>
<path d="M32.27 49.5301C32.27 49.5301 36.76 58.8001 40.6 58.8001C43.54 58.8001 47.22 57.2901 47.22 57.2901C47.22 57.2901 48.78 41.8401 40.26 41.3501C36.42 41.1301 32.27 49.5301 32.27 49.5301Z" fill="#BA8E2D"/>
<path d="M70.0999 49.5301C70.0999 49.5301 65.6099 58.8001 61.7699 58.8001C58.8299 58.8001 55.1499 57.2901 55.1499 57.2901C55.1499 57.2901 53.5899 41.8401 62.1099 41.3501C65.9499 41.1301 70.0999 49.5301 70.0999 49.5301Z" fill="#BA8E2D"/>
<path d="M36.4299 43.3801C36.4299 43.3801 36.4399 43.3402 36.4799 43.2802C36.5199 43.2202 36.56 43.1201 36.64 43.0101C36.71 42.8901 36.8099 42.7601 36.9299 42.6201C37.0599 42.4801 37.1999 42.3101 37.3799 42.1701C37.4699 42.0901 37.5599 42.0101 37.6599 41.9401C37.7599 41.8701 37.8699 41.7901 37.9899 41.7201C38.0999 41.6401 38.2299 41.5801 38.3599 41.5201C38.4899 41.4601 38.62 41.3801 38.77 41.3301C39.05 41.2301 39.3499 41.1201 39.6799 41.0801C39.9999 41.0101 40.33 41.0101 40.65 41.0101C40.98 41.0101 41.2999 41.0901 41.6199 41.1401C41.9299 41.2301 42.2199 41.3401 42.4999 41.4501C42.7699 41.5901 43.0099 41.7401 43.2399 41.8801C43.4599 42.0401 43.6499 42.2101 43.8199 42.3601C43.8999 42.4401 43.9899 42.5101 44.0599 42.5801C44.1299 42.6601 44.1899 42.7401 44.2499 42.8101C44.3699 42.9501 44.4599 43.0901 44.5399 43.2001C44.6999 43.4201 44.77 43.5501 44.77 43.5501C44.77 43.5501 44.6199 43.5001 44.3699 43.4001C44.2499 43.3501 44.0999 43.2901 43.9399 43.2101C43.7799 43.1301 43.6 43.0601 43.39 42.9901C43.19 42.9201 42.99 42.8201 42.77 42.7401C42.54 42.6701 42.3099 42.6102 42.0699 42.5302C41.8299 42.4702 41.58 42.4301 41.33 42.3701C41.2 42.3701 41.08 42.3501 40.95 42.3301C40.82 42.3201 40.6999 42.2901 40.5699 42.3001C40.3199 42.3001 40.0599 42.2801 39.8099 42.3201C39.6899 42.3401 39.5599 42.3201 39.4399 42.3601C39.3199 42.3901 39.1999 42.4101 39.0699 42.4301C38.9499 42.4401 38.8399 42.4901 38.7199 42.5101C38.5999 42.5401 38.4899 42.5601 38.3799 42.6001C38.1599 42.6701 37.9399 42.7301 37.7499 42.8101C37.5499 42.8701 37.37 42.9601 37.21 43.0201C37.05 43.1001 36.8999 43.1501 36.7899 43.2101C36.6699 43.2701 36.58 43.3101 36.52 43.3401C36.46 43.3701 36.4199 43.3901 36.4199 43.3901L36.4299 43.3801Z" fill="#3E2813"/>
<path d="M65.9301 43.42C65.9301 43.42 65.8901 43.4001 65.8301 43.3701C65.7601 43.3401 65.67 43.3001 65.55 43.2401C65.44 43.1801 65.2801 43.13 65.1301 43.05C64.9601 42.99 64.7901 42.9001 64.5901 42.8401C64.4001 42.7601 64.1801 42.6901 63.9601 42.6301C63.8501 42.5901 63.7401 42.57 63.6201 42.54C63.5001 42.52 63.3901 42.4701 63.2701 42.4601C63.1501 42.4401 63.03 42.4201 62.91 42.4001C62.79 42.3701 62.66 42.38 62.54 42.36C62.29 42.32 62.0301 42.3401 61.7801 42.3401C61.6501 42.3301 61.5301 42.3601 61.4001 42.3701C61.2801 42.3901 61.1501 42.4 61.0201 42.41C60.7701 42.47 60.5301 42.5201 60.2801 42.5701C60.0501 42.6501 59.8101 42.72 59.5801 42.79C59.3601 42.87 59.1501 42.9601 58.9501 43.0301C58.7501 43.1001 58.5601 43.1701 58.4001 43.2501C58.2401 43.3301 58.1 43.3901 57.97 43.4401C57.73 43.5401 57.5801 43.5901 57.5801 43.5901C57.5801 43.5901 57.6501 43.4601 57.8101 43.2401C57.8901 43.1301 57.98 43 58.1 42.85C58.16 42.78 58.22 42.6901 58.29 42.6201C58.36 42.5501 58.4501 42.4701 58.5301 42.3901C58.7101 42.2401 58.89 42.07 59.11 41.91C59.34 41.77 59.59 41.62 59.85 41.48C60.13 41.37 60.42 41.26 60.73 41.17C61.05 41.12 61.3701 41.04 61.7001 41.04C62.0301 41.04 62.3601 41.04 62.6801 41.11C63.0001 41.15 63.3001 41.26 63.5901 41.36C63.7301 41.41 63.8601 41.48 63.9901 41.55C64.1201 41.62 64.25 41.6701 64.36 41.7501C64.47 41.8301 64.5801 41.9 64.6901 41.97C64.7901 42.05 64.88 42.1301 64.97 42.2001C65.15 42.3501 65.29 42.5201 65.42 42.6501C65.54 42.8001 65.6401 42.93 65.7101 43.04C65.7801 43.15 65.8301 43.2501 65.8701 43.3101C65.9101 43.3701 65.92 43.41 65.92 43.41L65.9301 43.42Z" fill="#3E2813"/>
<path d="M47.2199 57.2901C40.1399 60.6601 35.1599 58.4801 32.9199 49.7401C32.9199 49.7401 41.43 43.1301 45.95 51.6101C46.65 52.9301 47.2199 57.2901 47.2199 57.2901Z" fill="white"/>
<path d="M40.3798 57.85C38.4198 57.81 36.7698 56.2501 36.1298 54.0901C35.9398 53.4301 35.8398 52.71 35.8498 51.97C35.9098 48.96 37.7798 47.8801 40.1398 47.8201C40.2898 47.8201 40.4398 47.8201 40.5798 47.8201C43.1498 47.8801 45.0898 50.5401 45.1298 52.1801C45.2198 55.3801 42.9298 57.9201 40.3698 57.8701" fill="#ECB61E"/>
<path d="M40.3999 57.0401C38.9099 57.0001 37.5999 55.7301 37.0699 53.8001C36.8999 53.1801 36.8199 52.5301 36.8299 51.8601C36.8699 49.6101 37.9399 48.5301 40.1799 48.4701C40.2899 48.4701 40.3999 48.4701 40.5199 48.4701H40.5799C42.5999 48.5201 44.1399 50.8701 44.1699 52.0801C44.2099 53.5401 43.7199 54.9401 42.8299 55.9001C42.1499 56.6401 41.3099 57.0501 40.4599 57.0501H40.3999" fill="#6C5221"/>
<path d="M55.1199 57.2901C62.1999 60.6601 67.1799 58.4801 69.4199 49.7401C69.4199 49.7401 60.9099 43.1301 56.3899 51.6101C55.6899 52.9301 55.1199 57.2901 55.1199 57.2901Z" fill="white"/>
<path d="M61.9601 57.85C63.9301 57.81 65.5701 56.2501 66.2101 54.0901C66.4001 53.4301 66.5101 52.71 66.4901 51.97C66.4301 48.96 64.5601 47.8801 62.2001 47.8201C62.0501 47.8201 61.9001 47.8201 61.7601 47.8201C59.1901 47.8801 57.2501 50.5401 57.2101 52.1801C57.1201 55.3801 59.41 57.9201 61.97 57.8701" fill="#ECB61E"/>
<path d="M61.89 57.0402C61.04 57.0402 60.2 56.6302 59.52 55.8902C58.63 54.9202 58.14 53.5302 58.18 52.0702C58.21 50.8602 59.75 48.5002 61.78 48.4602H61.84C61.95 48.4602 62.07 48.4602 62.18 48.4602C64.42 48.5302 65.48 49.6102 65.53 51.8502C65.55 52.5202 65.46 53.1702 65.29 53.7902C64.76 55.7302 63.45 57.0102 61.96 57.0402H61.9" fill="#6C5221"/>
<path d="M40.6998 50.7601C40.6598 52.7001 39.3698 54.2401 37.8098 54.2101C37.1098 54.1901 36.4698 53.8601 35.9898 53.3201C35.8198 52.7401 35.7298 52.1101 35.7498 51.4601C35.8098 48.8201 37.4498 47.8801 39.5098 47.8201C40.2498 48.4601 40.7198 49.5401 40.6998 50.7601Z" fill="white"/>
<path d="M43.14 56.3601C43.13 57.0101 42.6899 57.5402 42.1599 57.5302C41.6299 57.5302 41.2099 56.9801 41.2299 56.3201C41.2399 55.6601 41.68 55.1402 42.21 55.1502C42.74 55.1502 43.15 55.7001 43.14 56.3601Z" fill="white"/>
<path d="M61.84 51.0501C61.8 52.9901 60.51 54.5301 58.95 54.5001C58.25 54.4801 57.6199 54.1501 57.1299 53.6101C56.9599 53.0301 56.87 52.4001 56.89 51.7501C56.95 49.1101 58.58 48.1701 60.65 48.1101C61.39 48.7501 61.86 49.8301 61.84 51.0501Z" fill="white"/>
<path d="M64.47 56.3601C64.46 57.0101 64.02 57.5402 63.49 57.5302C62.96 57.5302 62.55 56.9801 62.56 56.3201C62.57 55.6601 63.01 55.1402 63.54 55.1502C64.07 55.1502 64.48 55.7001 64.47 56.3601Z" fill="white"/>
<path d="M45.95 57.85C46.37 57.68 46.7899 57.5 47.2199 57.29C46.7899 57.5 46.36 57.68 45.95 57.85Z" fill="#D7A72D"/>
<path d="M47.2199 57.29C47.2199 57.29 46.65 52.92 45.95 51.61C44.18 48.3 41.8099 47.29 39.5699 47.29C39.3799 47.29 39.1899 47.2901 38.9999 47.3101C39.1899 47.3001 39.3799 47.29 39.5699 47.29C41.8099 47.29 44.18 48.3 45.95 51.61C46.64 52.91 47.1999 57.17 47.2199 57.29ZM33.2899 51.05C33.1599 50.63 33.0299 50.1901 32.9199 49.7401C32.9199 49.7401 32.9799 49.69 33.1099 49.61C32.9899 49.69 32.9199 49.7401 32.9199 49.7401C33.0399 50.1901 33.1599 50.63 33.2899 51.05Z" fill="#AF8734"/>
<path d="M45.95 57.8501C45.72 56.6001 45.3999 55.2001 45.0599 54.5501C44.9999 54.4301 44.9299 54.3101 44.8699 54.2001C45.0699 53.5601 45.17 52.8701 45.15 52.1501C45.11 50.5101 43.1599 47.8501 40.5999 47.7901H40.53C40.41 47.7901 40.2799 47.7901 40.1599 47.7901C39.9499 47.7901 39.7499 47.8101 39.5499 47.8301C39.5499 47.8201 39.5299 47.8101 39.5099 47.8001C37.6499 47.8601 36.1299 48.6201 35.8099 50.7101C34.9299 51.0001 34.15 51.3701 33.53 51.7201C33.45 51.5001 33.3799 51.2701 33.2999 51.0401C33.1699 50.6201 33.0399 50.1801 32.9299 49.7301C32.9299 49.7301 32.9899 49.6801 33.1199 49.6001C33.7999 49.1201 36.25 47.5101 39.02 47.3001C39.21 47.2901 39.4 47.2802 39.59 47.2802C41.83 47.2802 44.2099 48.2901 45.9699 51.6001C46.6699 52.9201 47.2399 57.2802 47.2399 57.2802C46.8099 57.4802 46.3799 57.6701 45.9699 57.8401" fill="#E2E1E1"/>
<path d="M44.8701 54.2001C44.6301 53.7801 44.3801 53.4001 44.1201 53.0601C44.1701 52.7301 44.1801 52.4001 44.1801 52.0601C44.1501 50.8501 42.6101 48.4901 40.5901 48.4501H40.5301C40.4201 48.4501 40.3001 48.4501 40.1901 48.4501C40.1501 48.4501 40.1101 48.4501 40.0701 48.4501C39.9201 48.2201 39.74 48.0101 39.54 47.8401C39.74 47.8201 39.9501 47.8 40.1501 47.8C40.2701 47.8 40.4001 47.8 40.5201 47.8H40.5901C43.1601 47.86 45.1001 50.52 45.1401 52.16C45.1601 52.88 45.06 53.5701 44.86 54.2101" fill="#D7A72D"/>
<path d="M44.1201 53.0602C43.0801 51.6902 41.9001 50.9102 40.6901 50.5302C40.6701 49.7502 40.4401 49.0302 40.0601 48.4602C40.1001 48.4602 40.1401 48.4602 40.1801 48.4602C40.2901 48.4602 40.4001 48.4602 40.5201 48.4602H40.5801C42.6001 48.5102 44.14 50.8602 44.17 52.0702C44.17 52.4102 44.17 52.7402 44.11 53.0702" fill="#6A5326"/>
<path d="M35.7998 50.72C36.1198 48.63 37.6398 47.8701 39.4998 47.8101C39.5098 47.8101 39.5298 47.8301 39.5398 47.8401C39.7398 48.0201 39.9098 48.2201 40.0698 48.4501C40.4398 49.0201 40.6698 49.7401 40.6998 50.5201C40.0298 50.3101 39.3498 50.22 38.6898 50.22C37.6798 50.22 36.6998 50.4201 35.8198 50.7101" fill="#E2E1E1"/>
<path d="M56.3999 57.8502C55.9799 57.6902 55.5599 57.5002 55.1299 57.2902C55.1299 57.2902 55.1299 57.2502 55.1499 57.1802C55.1499 57.2502 55.1299 57.2902 55.1299 57.2902C55.5599 57.4902 55.9899 57.6802 56.3999 57.8502Z" fill="#D7A72D"/>
<path d="M55.1399 57.1801C55.2299 56.4901 55.7599 52.8001 56.3899 51.6001C56.5999 51.2001 56.8299 50.8301 57.0599 50.4901C56.8299 50.8301 56.6099 51.2001 56.3899 51.6001C55.7499 52.7901 55.2199 56.5001 55.1299 57.1801" fill="#AF8734"/>
<path d="M56.3999 57.8501C55.9799 57.6801 55.5599 57.5001 55.1299 57.2901C55.1299 57.2901 55.1299 57.2501 55.1499 57.1801C55.2399 56.5001 55.7699 52.8001 56.4099 51.6001C56.6199 51.2001 56.8499 50.8301 57.0799 50.5001C56.9799 50.8601 56.9199 51.2801 56.9099 51.7401C56.8899 52.3901 56.9799 53.0201 57.1499 53.6001C57.2299 53.6901 57.3099 53.7701 57.3999 53.8501C57.4299 53.9701 57.4599 54.0801 57.4999 54.2001C57.4299 54.3101 57.3699 54.4301 57.3099 54.5501C56.9699 55.2001 56.6499 56.6001 56.4199 57.8501" fill="#E2E1E1"/>
<path d="M57.4799 54.2001C57.4399 54.0901 57.4099 53.9701 57.3799 53.8501C57.4499 53.9101 57.5099 53.9601 57.5799 54.0201C57.5399 54.0801 57.5099 54.1401 57.4799 54.2001Z" fill="#D7A72D"/>
<path d="M69.0499 51.05C69.1799 50.63 69.3099 50.1901 69.4199 49.7401C69.2999 50.1901 69.1799 50.63 69.0499 51.05ZM59.21 48.3301C60.36 47.5701 61.59 47.29 62.77 47.29C62.96 47.29 63.15 47.2901 63.34 47.3101C63.15 47.3001 62.96 47.29 62.77 47.29C61.58 47.29 60.36 47.5701 59.21 48.3301Z" fill="#AF8734"/>
<path d="M68.83 51.73C68.15 51.36 67.29 50.9501 66.32 50.6501C65.81 48.6201 64.17 47.86 62.2 47.8C62.08 47.8 61.95 47.8 61.83 47.8H61.76C61.24 47.8 60.74 47.9301 60.28 48.1301C59.91 48.1601 59.56 48.2301 59.23 48.3301C60.38 47.5701 61.6 47.29 62.79 47.29C62.98 47.29 63.17 47.2901 63.36 47.3101C66.13 47.5101 68.59 49.13 69.26 49.61C69.38 49.69 69.44 49.7401 69.44 49.7401C69.32 50.1901 69.2 50.63 69.07 51.05C69 51.28 68.92 51.51 68.84 51.73" fill="#E2E1E1"/>
<path d="M66.32 50.66C65.99 50.56 65.64 50.4701 65.29 50.4001C64.87 49.1401 63.85 48.5201 62.17 48.4601C62.06 48.4601 61.95 48.4601 61.83 48.4601H61.77C61.53 48.4601 61.3 48.5001 61.07 48.5701C60.94 48.4001 60.8 48.2501 60.65 48.1201C60.52 48.1201 60.39 48.1201 60.27 48.1401C60.73 47.9401 61.23 47.8201 61.75 47.8101H61.82C61.94 47.8101 62.07 47.8101 62.19 47.8101C64.17 47.8701 65.81 48.63 66.31 50.66" fill="#D7A72D"/>
<path d="M61.8201 50.4802C61.7401 49.7402 61.4701 49.0702 61.0801 48.5602C61.3001 48.5002 61.5401 48.4602 61.7801 48.4502H61.8401C61.9501 48.4502 62.0701 48.4502 62.1801 48.4502C63.8701 48.5002 64.88 49.1302 65.3 50.3902C64.77 50.2902 64.2301 50.2302 63.6801 50.2302C63.0701 50.2302 62.4501 50.3002 61.8301 50.4802" fill="#6A5326"/>
<path d="M57.59 54.0201C57.52 53.9701 57.45 53.9101 57.39 53.8501C57.3 53.7801 57.22 53.6901 57.14 53.6001C56.97 53.0201 56.88 52.3901 56.9 51.7401C56.9 51.2801 56.97 50.8601 57.07 50.5001C57.73 49.5301 58.4599 48.8201 59.2199 48.3201C59.5499 48.2201 59.9 48.1501 60.27 48.1201C60.4 48.1201 60.52 48.1001 60.65 48.1001C60.8 48.2301 60.94 48.3801 61.07 48.5501C61.47 49.0701 61.7299 49.7301 61.8099 50.4701C60.2899 50.9101 58.81 51.9501 57.58 54.0101" fill="#E2E1E1"/>
<path d="M47.22 57.2901C47.13 56.8601 47.03 56.4301 46.94 55.9901C46.84 55.5601 46.75 55.1301 46.64 54.7001C46.54 54.2701 46.43 53.8501 46.3 53.4301C46.18 53.0001 46.05 52.6201 45.89 52.2201C45.8 52.0301 45.71 51.7801 45.61 51.6501L45.27 51.1101C45.02 50.7601 44.78 50.4101 44.49 50.1001C44.35 49.9401 44.21 49.7801 44.06 49.6401C43.91 49.4901 43.76 49.3401 43.6 49.2201C43.44 49.0801 43.28 48.9501 43.1 48.8501C42.93 48.7301 42.76 48.6201 42.57 48.5301C42.22 48.3201 41.83 48.1901 41.44 48.0601C41.05 47.9401 40.65 47.8701 40.24 47.8301C39.83 47.8001 39.42 47.7901 39.01 47.8301C38.6 47.8601 38.19 47.9401 37.78 48.0301C36.97 48.2201 36.17 48.5101 35.41 48.8801C35.03 49.0701 34.65 49.2701 34.29 49.4801C33.93 49.6901 33.56 49.9301 33.24 50.1701L33.44 49.5901L33.77 50.7401C33.86 51.1301 34.01 51.4901 34.15 51.8601C34.28 52.2401 34.41 52.6101 34.59 52.9601C34.76 53.3101 34.89 53.6901 35.09 54.0201C35.29 54.3501 35.44 54.7201 35.68 55.0301C35.91 55.3301 36.1 55.6901 36.38 55.9501C36.64 56.2301 36.88 56.5401 37.18 56.7701L37.61 57.1501L38.09 57.4601C38.4 57.6901 38.76 57.8201 39.11 57.9801C39.46 58.1401 39.84 58.2001 40.21 58.3201C40.59 58.3701 40.98 58.4501 41.37 58.4601C41.76 58.4601 42.16 58.5001 42.55 58.4501C42.94 58.4001 43.35 58.4001 43.74 58.3001C44.13 58.2101 44.53 58.1701 44.91 58.0401C45.3 57.9201 45.69 57.8301 46.07 57.6901L47.22 57.2801V57.2901ZM47.22 57.2901L46.14 57.8501C45.78 58.0301 45.39 58.1701 45.01 58.3201C44.63 58.4901 44.23 58.5701 43.83 58.7101C43.44 58.8501 43.02 58.8901 42.62 58.9801C42.21 59.0801 41.79 59.0501 41.37 59.1001C40.95 59.1001 40.53 59.0601 40.1 59.0301C39.69 58.9301 39.25 58.8901 38.85 58.7201C38.45 58.5601 38.03 58.4301 37.67 58.1901L37.11 57.8701L36.6 57.4701C36.24 57.2201 35.96 56.9001 35.66 56.5901C35.34 56.2901 35.12 55.9301 34.86 55.5901C34.59 55.2601 34.41 54.8801 34.18 54.5201C33.95 54.1601 33.79 53.7701 33.61 53.4001C33.42 53.0201 33.27 52.6301 33.13 52.2401C32.99 51.8501 32.83 51.4601 32.72 51.0601L32.37 49.8601L32.27 49.5101L32.57 49.2801C32.96 48.9801 33.33 48.7401 33.73 48.5101C34.12 48.2801 34.53 48.0701 34.94 47.8701C35.77 47.4801 36.64 47.1701 37.55 46.9601C38 46.8601 38.47 46.7901 38.94 46.7701C39.41 46.7301 39.88 46.7601 40.35 46.8101C40.82 46.8701 41.29 46.9701 41.74 47.1201C41.96 47.2001 42.19 47.2801 42.4 47.3901C42.61 47.4901 42.83 47.6001 43.02 47.7301C43.23 47.8401 43.42 47.9801 43.6 48.1301C43.79 48.2701 43.97 48.4201 44.14 48.5801C44.32 48.7301 44.47 48.9001 44.63 49.0701C44.79 49.2401 44.94 49.4101 45.07 49.6001C45.36 49.9601 45.59 50.3501 45.83 50.7401L46.15 51.3401C46.28 51.5801 46.32 51.7701 46.4 51.9801C46.53 52.4101 46.65 52.8801 46.72 53.3101C46.8 53.7501 46.87 54.1901 46.93 54.6301C47.06 55.5101 47.15 56.3901 47.2 57.2701L47.22 57.2901Z" fill="#3E2813"/>
<path d="M55.1199 57.2901C55.1799 56.4101 55.2699 55.5301 55.3899 54.6501C55.4499 54.2101 55.5199 53.7701 55.5999 53.3301C55.6699 52.9001 55.7899 52.4201 55.9199 52.0001C56.0099 51.7901 56.0499 51.6001 56.1799 51.3601L56.4999 50.7601C56.7299 50.3701 56.9699 49.9801 57.2599 49.6201C57.3899 49.4301 57.5399 49.2601 57.6999 49.0901C57.8499 48.9201 58.0099 48.7501 58.1899 48.6001C58.3599 48.4401 58.5299 48.2801 58.7299 48.1501C58.9199 48.0101 59.1099 47.8701 59.3099 47.7501C59.5099 47.6201 59.7199 47.5101 59.9299 47.4101C60.1399 47.3001 60.3699 47.2201 60.5899 47.1401C61.0399 46.9901 61.5099 46.8901 61.9799 46.8301C62.4499 46.7801 62.9299 46.7601 63.3899 46.7901C63.8599 46.8101 64.3199 46.8801 64.7799 46.9801C65.6899 47.1801 66.5599 47.4901 67.3899 47.8901C67.8099 48.0801 68.2099 48.3001 68.5999 48.5301C68.9999 48.7601 69.3699 49.0101 69.7599 49.3001L70.0699 49.5301L69.9698 49.8801L69.6199 51.0801C69.5199 51.4801 69.3599 51.8701 69.2099 52.2601C69.0699 52.6501 68.9199 53.0401 68.7299 53.4201C68.5399 53.8001 68.3899 54.1801 68.1599 54.5401C67.9299 54.8901 67.7599 55.2801 67.4799 55.6101C67.2099 55.9401 66.9999 56.3101 66.6799 56.6101C66.3799 56.9201 66.0999 57.2401 65.7399 57.4901L65.2299 57.8901L64.6699 58.2101C64.3099 58.4501 63.8899 58.5801 63.4899 58.7401C63.0899 58.9001 62.6599 58.9401 62.2399 59.0501C61.8099 59.0801 61.3898 59.1301 60.9698 59.1201C60.5498 59.0801 60.1298 59.1001 59.7198 59.0001C59.3098 58.9101 58.8999 58.8701 58.5099 58.7301C58.1199 58.6001 57.7099 58.5201 57.3399 58.3401C56.9599 58.1801 56.5699 58.0501 56.2099 57.8701L55.1299 57.3101L55.1199 57.2901ZM55.1199 57.2901L56.2699 57.7001C56.6499 57.8401 57.0499 57.9301 57.4299 58.0501C57.8099 58.1801 58.2099 58.2201 58.5999 58.3101C58.9899 58.4101 59.3899 58.4101 59.7899 58.4601C60.1799 58.5101 60.5798 58.4601 60.9698 58.4701C61.3598 58.4501 61.7399 58.3801 62.1299 58.3301C62.4999 58.2101 62.8799 58.1401 63.2299 57.9901C63.5799 57.8301 63.9399 57.7001 64.2499 57.4701L64.7299 57.1601L65.1599 56.7801C65.4599 56.5501 65.6999 56.2401 65.9599 55.9601C66.2299 55.6901 66.4199 55.3401 66.6499 55.0401C66.8899 54.7301 67.0399 54.3601 67.2399 54.0301C67.4399 53.7001 67.5699 53.3201 67.7399 52.9701C67.9099 52.6201 68.0499 52.2501 68.1799 51.8701C68.3099 51.5001 68.4599 51.1301 68.5499 50.7501L68.8799 49.6001L69.0799 50.1801C68.7599 49.9501 68.3899 49.7101 68.0299 49.4901C67.6699 49.2701 67.2899 49.0701 66.9099 48.8901C66.1499 48.5201 65.3499 48.2301 64.5399 48.0401C64.1299 47.9501 63.7199 47.8701 63.3099 47.8401C62.8999 47.7901 62.4899 47.8001 62.0799 47.8401C61.6699 47.8801 61.2699 47.9501 60.8799 48.0701C60.4899 48.2001 60.1099 48.3301 59.7499 48.5401C59.5599 48.6301 59.3898 48.7401 59.2198 48.8601C59.0398 48.9701 58.8798 49.1001 58.7198 49.2301C58.5498 49.3501 58.3999 49.5001 58.2599 49.6501C58.0999 49.7901 57.9599 49.9501 57.8299 50.1101C57.5399 50.4201 57.2999 50.7701 57.0499 51.1201L56.7099 51.6601C56.6199 51.8001 56.5199 52.0401 56.4299 52.2301C56.2799 52.6301 56.1299 53.0101 56.0199 53.4401C55.8899 53.8601 55.7799 54.2801 55.6799 54.7101C55.5699 55.1401 55.4799 55.5701 55.3799 56.0001C55.2799 56.4301 55.1899 56.8601 55.0999 57.3001L55.1199 57.2901Z" fill="#3E2813"/>
<path d="M29.0199 41.2802C30.3099 34.2902 38.2599 31.9101 38.2599 31.9101C37.5699 29.7201 33.5899 29.3902 32.1999 27.4302C29.4599 23.6002 25.4899 26.6402 25.9199 31.8802C26.1699 34.9002 29.0299 41.2802 29.0299 41.2802H29.0199Z" fill="#ECB61E"/>
<path d="M29.0098 41.35C30.0298 35.97 34.9798 33.4201 37.1598 32.5401C35.6998 31.3801 33.1198 30.8301 32.0498 29.3401C29.6098 25.9301 25.5698 27.9101 25.9098 32.1401C26.0998 34.5601 29.0098 41.3401 29.0098 41.3401V41.35Z" fill="#ED9DB2"/>
<path d="M72.8799 41.3501C71.5999 34.3601 63.6299 31.9101 63.6299 31.9101C64.3199 29.7201 68.2999 29.3901 69.6899 27.4301C72.4299 23.6001 76.7198 26.6801 75.9698 31.8801C75.4998 35.1501 72.8699 41.3401 72.8699 41.3401L72.8799 41.3501Z" fill="#ECB61E"/>
<path d="M72.88 41.35C71.86 35.97 66.91 33.4201 64.73 32.5401C66.19 31.3801 68.77 30.8301 69.84 29.3401C72.28 25.9301 76.32 27.9101 75.98 32.1401C75.79 34.5601 72.88 41.3401 72.88 41.3401V41.35Z" fill="#ED9DB2"/>
<path d="M50.8099 34.9501C50.8099 34.9501 50.7299 34.9201 50.5899 34.8801C50.4499 34.8201 50.2298 34.7701 49.9798 34.6501C49.8498 34.5901 49.6998 34.5301 49.5398 34.4601C49.3798 34.3901 49.2198 34.3001 49.0398 34.2101C48.6898 34.0201 48.2999 33.7901 47.8899 33.5101C47.4799 33.2301 47.0599 32.9001 46.6299 32.5201C46.2099 32.1301 45.7799 31.7101 45.3799 31.2201C44.9799 30.7301 44.5899 30.2001 44.2699 29.6101C43.9399 29.0201 43.6499 28.3901 43.4499 27.7301C43.2499 27.0601 43.1099 26.3701 43.0699 25.6801C43.0299 24.9901 43.0898 24.3001 43.2198 23.6501C43.3398 23.0001 43.5799 22.4001 43.8299 21.8701C43.9699 21.6101 44.0999 21.3501 44.2599 21.1201C44.3399 21.0001 44.4098 20.8902 44.4798 20.7802C44.5598 20.6802 44.6398 20.5801 44.7198 20.4701C44.8798 20.2701 45.0399 20.0901 45.1999 19.9301C45.3599 19.7601 45.5098 19.6101 45.6598 19.4801C45.9598 19.2001 46.2498 19.0101 46.4798 18.8401C46.7098 18.6701 46.9198 18.5701 47.0398 18.4901C47.1698 18.4201 47.2399 18.3801 47.2399 18.3801C47.2399 18.3801 47.1899 18.4501 47.1099 18.5701C47.0299 18.6901 46.8999 18.8801 46.7399 19.1101C46.5899 19.3501 46.4098 19.6201 46.2198 19.9501C46.1698 20.0301 46.1199 20.1101 46.0699 20.2001C46.0199 20.2801 45.9799 20.3801 45.9299 20.4701C45.8299 20.6601 45.7299 20.8501 45.6499 21.0501C45.5999 21.1501 45.5599 21.2501 45.5099 21.3601C45.4699 21.4701 45.4299 21.5801 45.3899 21.6901C45.2999 21.9101 45.2398 22.1401 45.1598 22.3801C45.0398 22.8601 44.9199 23.3601 44.8799 23.8901C44.8399 24.4201 44.8498 24.9601 44.9098 25.5001C44.9798 26.0501 45.0999 26.6001 45.2699 27.1401C45.4299 27.6901 45.6598 28.2201 45.9098 28.7301C46.0298 28.9901 46.1699 29.2401 46.3099 29.4901C46.3799 29.6101 46.4499 29.7301 46.5299 29.8501C46.5999 29.9701 46.6699 30.0901 46.7499 30.2101C47.0499 30.6801 47.3699 31.1201 47.6799 31.5401C47.9999 31.9501 48.3199 32.3301 48.6199 32.6801C48.9299 33.0301 49.2198 33.3401 49.4798 33.6201C49.7498 33.9001 49.9799 34.1401 50.1799 34.3301C50.3799 34.5301 50.5399 34.6801 50.6499 34.7901C50.7599 34.9001 50.8099 34.9601 50.8099 34.9601V34.9501Z" fill="#7A562A"/>
<path d="M51.6398 36.1301C51.6398 36.1301 51.5698 36.0601 51.4498 35.9301C51.3298 35.7901 51.1298 35.6101 50.9298 35.3401C50.7098 35.0801 50.4598 34.74 50.1898 34.35C50.0598 34.15 49.9299 33.9301 49.7799 33.7001C49.6499 33.4701 49.5098 33.2201 49.3698 32.9601C49.1098 32.4301 48.8298 31.8401 48.6098 31.2001C48.3798 30.5501 48.1798 29.8601 48.0398 29.1201C47.8898 28.3801 47.7999 27.6101 47.7699 26.8101C47.7299 26.0101 47.7898 25.2001 47.8898 24.4001C47.9998 23.5901 48.1798 22.8 48.4498 22.04C48.6998 21.27 49.0298 20.5501 49.4098 19.8901C49.7798 19.2201 50.2298 18.63 50.6698 18.1C50.9098 17.84 51.1198 17.5901 51.3598 17.3701C51.4798 17.2601 51.5898 17.15 51.6998 17.04C51.8198 16.94 51.9398 16.8401 52.0498 16.7401C52.1698 16.6501 52.2798 16.5501 52.3898 16.4601C52.5098 16.3801 52.6198 16.3 52.7298 16.22C52.8398 16.14 52.9498 16.0701 53.0498 16.0001C53.1598 15.9301 53.2598 15.8701 53.3698 15.8101C53.7798 15.5501 54.1598 15.38 54.4698 15.23C54.7798 15.08 55.0398 15.0001 55.1998 14.9301C55.3698 14.8701 55.4599 14.8401 55.4599 14.8401C55.4599 14.8401 55.3898 14.9001 55.2598 15.0301C55.1298 15.1501 54.9298 15.33 54.6798 15.55C54.4398 15.78 54.1399 16.0601 53.8299 16.3901C53.7499 16.4701 53.6699 16.5601 53.5899 16.6401C53.5099 16.7301 53.4298 16.83 53.3498 16.92C53.2698 17.01 53.1799 17.1101 53.0899 17.2101C53.0099 17.3101 52.9199 17.4201 52.8399 17.5301C52.7499 17.6401 52.6599 17.75 52.5799 17.86C52.4999 17.98 52.4099 18.0901 52.3299 18.2101C52.1499 18.4401 51.9998 18.7001 51.8198 18.9601C51.4998 19.4901 51.1798 20.05 50.9098 20.67C50.7598 20.97 50.6499 21.29 50.5199 21.61C50.4199 21.94 50.2898 22.26 50.1998 22.6C50.0098 23.27 49.8498 23.96 49.7598 24.67C49.6598 25.37 49.6098 26.09 49.5998 26.79C49.5998 27.5 49.6198 28.2001 49.6898 28.8801C49.7098 29.2201 49.7698 29.5501 49.8098 29.8801C49.8698 30.2001 49.9098 30.5301 49.9798 30.8301C50.0098 30.9801 50.0398 31.14 50.0698 31.29C50.1098 31.44 50.1398 31.59 50.1698 31.73C50.2298 32.03 50.3098 32.3001 50.3798 32.5701C50.4498 32.8401 50.5298 33.1001 50.5998 33.3401C50.6798 33.5901 50.7498 33.8201 50.8198 34.0301C50.9798 34.4601 51.0998 34.8501 51.2298 35.1501C51.4798 35.7801 51.6198 36.1401 51.6198 36.1401L51.6398 36.1301Z" fill="#845F2D"/>
<path d="M51.7399 36.2701C51.7399 36.2701 51.6599 36.2201 51.5099 36.1201C51.3599 36.0201 51.1299 35.8801 50.8599 35.6701C50.5799 35.4701 50.2598 35.2001 49.9098 34.8801C49.7398 34.7101 49.5599 34.5401 49.3599 34.3501C49.1799 34.1501 48.9798 33.9401 48.7898 33.7201C48.4098 33.2701 48.0099 32.7601 47.6399 32.1801C47.2699 31.6101 46.9098 30.9801 46.5998 30.2901C46.2798 29.6101 46.0098 28.8701 45.7898 28.1101C45.5698 27.3501 45.4299 26.5401 45.3399 25.7401C45.2599 24.9301 45.2499 24.1101 45.3299 23.3101C45.3899 22.5101 45.5499 21.7301 45.7699 20.9901C45.9699 20.2501 46.2699 19.5701 46.5799 18.9501C46.7499 18.6401 46.8999 18.3401 47.0799 18.0701C47.1699 17.9301 47.2599 17.8001 47.3399 17.6701C47.4299 17.5401 47.5199 17.4201 47.6099 17.3001C47.6999 17.1801 47.7899 17.0601 47.8799 16.9501C47.9699 16.8401 48.0699 16.7401 48.1499 16.6301C48.2399 16.5301 48.3298 16.4301 48.4098 16.3301C48.4998 16.2401 48.5899 16.1501 48.6799 16.0701C49.0099 15.7301 49.3499 15.4701 49.6099 15.2501C49.8699 15.0301 50.1099 14.8901 50.2499 14.7901C50.3999 14.6901 50.4799 14.6401 50.4799 14.6401C50.4799 14.6401 50.4199 14.7201 50.3199 14.8701C50.2199 15.0201 50.0599 15.2401 49.8799 15.5201C49.6999 15.8001 49.4799 16.1401 49.2599 16.5401C49.1999 16.6301 49.1399 16.7401 49.0799 16.8401C49.0199 16.9501 48.9698 17.0601 48.9098 17.1701C48.8498 17.2801 48.7898 17.4001 48.7198 17.5101C48.6598 17.6301 48.6099 17.7501 48.5499 17.8801C48.4899 18.0101 48.4299 18.1301 48.3699 18.2601C48.3099 18.3901 48.2599 18.5301 48.2099 18.6701C48.0899 18.9401 47.9999 19.2301 47.8899 19.5201C47.6999 20.1101 47.5198 20.7301 47.4098 21.3901C47.3398 21.7201 47.2999 22.0601 47.2499 22.3901C47.2299 22.7301 47.1799 23.0801 47.1799 23.4301C47.1499 24.1301 47.1599 24.8401 47.2399 25.5501C47.2999 26.2601 47.4199 26.9701 47.5799 27.6501C47.7399 28.3401 47.9299 29.0101 48.1499 29.6501C48.2499 29.9701 48.3899 30.2801 48.4999 30.5901C48.6299 30.8901 48.7499 31.1901 48.8799 31.4801C48.9399 31.6201 49.0099 31.7701 49.0699 31.9101C49.1399 32.0501 49.1999 32.1801 49.2699 32.3201C49.3899 32.5901 49.5399 32.8401 49.6699 33.0901C49.7999 33.3401 49.9399 33.5601 50.0699 33.7901C50.1999 34.0101 50.3299 34.2201 50.4499 34.4101C50.6999 34.7901 50.9099 35.1401 51.1099 35.4101C51.4999 35.9601 51.7198 36.2802 51.7198 36.2802L51.7399 36.2701Z" fill="#845F2D"/>
<path d="M51.7 36.2701C51.7 36.2701 51.65 36.2001 51.55 36.0601C51.46 35.9201 51.31 35.7301 51.16 35.4601C51.08 35.3201 50.99 35.1701 50.9 35.0101C50.81 34.8401 50.72 34.6601 50.62 34.4701C50.43 34.0801 50.24 33.6201 50.05 33.1101C49.97 32.8501 49.88 32.5801 49.8 32.3001C49.73 32.0201 49.64 31.7301 49.59 31.4201C49.46 30.8101 49.38 30.1501 49.33 29.4601C49.3 28.7701 49.31 28.0601 49.39 27.3301C49.47 26.6101 49.63 25.8701 49.85 25.1501C50.08 24.4401 50.39 23.7401 50.76 23.1001C51.12 22.4501 51.57 21.8601 52.05 21.3401C52.52 20.8101 53.06 20.3801 53.58 20.0101C53.85 19.8301 54.1 19.6601 54.37 19.5201C54.5 19.4501 54.63 19.3801 54.76 19.3201C54.89 19.2601 55.02 19.2001 55.14 19.1401C55.39 19.0301 55.64 18.9401 55.87 18.8601C55.99 18.8201 56.1 18.7801 56.21 18.7501C56.32 18.7201 56.43 18.6901 56.54 18.6601C56.97 18.5401 57.35 18.4901 57.65 18.4401C57.96 18.3901 58.21 18.3901 58.37 18.3801C58.53 18.3801 58.62 18.3701 58.62 18.3701C58.62 18.3701 58.54 18.4101 58.39 18.4901C58.24 18.5601 58.03 18.6701 57.76 18.8101C57.49 18.9601 57.17 19.1301 56.82 19.3501C56.73 19.4001 56.64 19.4501 56.55 19.5101C56.46 19.5701 56.36 19.6301 56.27 19.7001C56.18 19.7601 56.07 19.8301 55.98 19.8901C55.88 19.9601 55.79 20.0401 55.69 20.1101C55.59 20.1801 55.49 20.2601 55.38 20.3401C55.28 20.4201 55.18 20.5101 55.08 20.5901C54.87 20.7601 54.68 20.9501 54.48 21.1401C54.09 21.5301 53.69 21.9601 53.35 22.4401C53 22.9201 52.67 23.4301 52.39 23.9901C52.11 24.5501 51.86 25.1301 51.68 25.7401C51.49 26.3501 51.34 26.9701 51.23 27.5901C51.13 28.2201 51.06 28.8401 51.03 29.4601C51.01 30.0701 50.99 30.6701 51.03 31.2401C51.05 31.8101 51.09 32.3501 51.14 32.8601C51.2 33.3601 51.26 33.8301 51.33 34.2401C51.4 34.6501 51.46 35.0201 51.52 35.3101C51.58 35.6101 51.63 35.8501 51.66 36.0101C51.69 36.1801 51.71 36.2601 51.71 36.2601L51.7 36.2701Z" fill="#7A562A"/>
<path d="M51.6599 36.1201C51.6599 36.1201 51.6399 36.0402 51.6199 35.8902C51.5999 35.7402 51.54 35.5201 51.52 35.2401C51.51 35.1001 51.4899 34.9402 51.4699 34.7702C51.4499 34.6002 51.4499 34.4102 51.4399 34.2102C51.4399 33.8102 51.4399 33.3601 51.4799 32.8701C51.5199 32.3801 51.5999 31.8502 51.7199 31.2802C51.8499 30.7202 52.0099 30.1401 52.2399 29.5501C52.4699 28.9601 52.7499 28.3601 53.0999 27.7901C53.4499 27.2201 53.86 26.6602 54.34 26.1502C54.82 25.6502 55.3599 25.1901 55.9399 24.8101C56.5199 24.4301 57.15 24.1402 57.78 23.9402C58.41 23.7302 59.0399 23.6401 59.6299 23.6001C59.9299 23.6001 60.2099 23.5701 60.4899 23.6001C60.6299 23.6001 60.76 23.6202 60.89 23.6302C61.02 23.6502 61.15 23.6702 61.28 23.6902C61.53 23.7302 61.7699 23.7802 61.9899 23.8402C62.2099 23.8902 62.4199 23.9602 62.6099 24.0202C62.9999 24.1402 63.3099 24.3001 63.5699 24.4201C63.8299 24.5401 64.02 24.6701 64.15 24.7401C64.28 24.8201 64.3499 24.8601 64.3499 24.8601C64.3499 24.8601 64.2699 24.8602 64.1199 24.8402C63.9699 24.8302 63.7499 24.8102 63.4699 24.7802C63.1899 24.7702 62.8599 24.7401 62.4799 24.7401C62.3899 24.7401 62.2899 24.7401 62.1899 24.7401C62.0899 24.7401 61.9899 24.7401 61.8799 24.7501C61.6699 24.7501 61.4599 24.7501 61.2299 24.7901C61.1199 24.7901 61.01 24.8102 60.89 24.8202C60.78 24.8402 60.6599 24.8602 60.5399 24.8802C60.2999 24.9102 60.07 24.9702 59.83 25.0202C59.35 25.1502 58.8599 25.3002 58.3799 25.5202C57.8999 25.7402 57.4299 26.0202 56.9899 26.3402C56.5499 26.6702 56.1299 27.0402 55.7399 27.4602C55.3399 27.8602 54.9999 28.3301 54.6699 28.7901C54.4999 29.0201 54.35 29.2701 54.21 29.5001C54.14 29.6201 54.0699 29.7501 53.9999 29.8701C53.9299 29.9901 53.8599 30.1101 53.7999 30.2401C53.5299 30.7301 53.3199 31.2302 53.0999 31.7002C52.9099 32.1802 52.7199 32.6402 52.5699 33.0802C52.4199 33.5202 52.2899 33.9201 52.1799 34.2901C52.0699 34.6601 51.98 34.9801 51.9 35.2401C51.83 35.5101 51.7699 35.7301 51.7299 35.8701C51.6899 36.0201 51.6699 36.0902 51.6699 36.0902L51.6599 36.1201Z" fill="#7A562A"/>
<path d="M51.3401 35.6901C51.3401 35.6901 51.2801 35.4701 51.1801 35.0701C51.1301 34.8701 51.0701 34.63 51.0201 34.35C50.9701 34.07 50.9001 33.7501 50.8601 33.4001C50.8201 33.0501 50.7601 32.6701 50.7501 32.2601C50.7501 32.0601 50.7201 31.8401 50.7301 31.6301C50.7301 31.4101 50.7301 31.19 50.7401 30.97C50.7401 30.75 50.7801 30.52 50.8001 30.29C50.8101 30.17 50.8301 30.0601 50.8401 29.9401C50.8601 29.8201 50.8801 29.7101 50.9001 29.5901C50.9801 29.1201 51.1201 28.6501 51.2601 28.1801C51.3401 27.9501 51.4301 27.7201 51.5101 27.4901C51.5901 27.2601 51.7001 27.0401 51.8001 26.8201C51.9001 26.6001 52.0001 26.3801 52.1201 26.1801C52.2401 25.9801 52.3501 25.7701 52.4901 25.5801C52.6301 25.4001 52.7601 25.22 52.9101 25.05C53.0501 24.88 53.2001 24.7301 53.3501 24.5801C53.6401 24.2701 53.9401 24.03 54.2301 23.8C54.3701 23.68 54.5101 23.5801 54.6501 23.4901C54.7901 23.4001 54.9101 23.3 55.0401 23.23C55.2901 23.07 55.5101 22.95 55.7001 22.86C56.0801 22.67 56.3001 22.5801 56.3001 22.5801L56.3801 22.6901C56.3801 22.6901 56.2501 22.9001 56.0101 23.2401C55.8901 23.4101 55.7301 23.6001 55.5701 23.8301C55.4001 24.0601 55.2001 24.2901 55.0001 24.5701C54.8001 24.8501 54.5601 25.1301 54.3501 25.4401C54.2401 25.5901 54.1201 25.75 54.0001 25.91C53.8901 26.08 53.7701 26.2401 53.6501 26.4001C53.5201 26.5601 53.4201 26.74 53.2901 26.91C53.1701 27.08 53.0301 27.2501 52.9201 27.4301C52.8101 27.6101 52.6801 27.79 52.5801 27.98C52.4801 28.17 52.3801 28.3701 52.2801 28.5701C52.1201 28.9801 51.9501 29.39 51.8401 29.8C51.8101 29.91 51.7801 30.01 51.7501 30.11C51.7301 30.22 51.7001 30.3201 51.6801 30.4301C51.6401 30.6401 51.5701 30.85 51.5501 31.05C51.5201 31.26 51.4901 31.47 51.4601 31.66C51.4301 31.86 51.4201 32.0601 51.4001 32.2601C51.3601 32.6501 51.3601 33.02 51.3501 33.36C51.3301 33.71 51.3701 34.02 51.3701 34.3C51.3701 34.58 51.4001 34.8301 51.4201 35.0301C51.4601 35.4401 51.4701 35.67 51.4701 35.67L51.3401 35.6901Z" fill="#845F2D"/>
<path d="M51.71 36.2702C51.71 36.2702 51.7199 36.1802 51.7499 36.0202C51.7899 35.8602 51.81 35.6202 51.9 35.3202C51.94 35.1702 51.98 35.0002 52.03 34.8202C52.08 34.6402 52.1499 34.4502 52.2199 34.2402C52.3699 33.8302 52.5499 33.3702 52.7899 32.8902C52.9099 32.6502 53.0399 32.4002 53.1799 32.1402C53.3299 31.8902 53.48 31.6302 53.65 31.3702C53.99 30.8402 54.3999 30.3202 54.8499 29.8102C55.3099 29.3002 55.8299 28.8102 56.4099 28.3502C56.9799 27.9002 57.62 27.5002 58.28 27.1402C58.95 26.8002 59.6499 26.5202 60.3699 26.3302C61.0799 26.1302 61.82 26.0302 62.53 26.0102C63.23 25.9702 63.9199 26.0502 64.5499 26.1602C64.8599 26.2302 65.17 26.2802 65.45 26.3802C65.6 26.4202 65.7399 26.4602 65.8699 26.5102C66.0099 26.5602 66.1399 26.6102 66.2599 26.6602C66.5199 26.7502 66.7599 26.8602 66.9799 26.9802C67.0899 27.0402 67.1999 27.0902 67.2999 27.1402C67.3999 27.2002 67.4999 27.2602 67.5999 27.3202C67.9799 27.5302 68.2899 27.7702 68.5399 27.9502C68.7899 28.1302 68.9699 28.3102 69.0999 28.4102C69.2199 28.5202 69.2899 28.5802 69.2899 28.5802C69.2899 28.5802 69.2099 28.5502 69.0399 28.5002C68.8799 28.4502 68.6599 28.3702 68.3699 28.2802C68.0799 28.2002 67.7299 28.0902 67.3199 27.9902C67.2199 27.9602 67.1199 27.9302 67.0099 27.9102C66.8999 27.8902 66.7899 27.8702 66.6799 27.8502C66.5699 27.8202 66.45 27.8002 66.34 27.7802C66.22 27.7602 66.0999 27.7402 65.9799 27.7202C65.8599 27.7002 65.7299 27.6802 65.6099 27.6602C65.4799 27.6602 65.3499 27.6402 65.2199 27.6302C64.9599 27.6002 64.6799 27.6002 64.4099 27.5802C63.8499 27.5802 63.2799 27.6002 62.6899 27.7002C62.0999 27.7902 61.4999 27.9202 60.9099 28.1202C60.3199 28.3202 59.7299 28.5502 59.1699 28.8502C58.5999 29.1402 58.0599 29.4802 57.5399 29.8402C57.0199 30.2102 56.5299 30.6002 56.0699 31.0102C55.6199 31.4302 55.1799 31.8402 54.7999 32.2602C54.4099 32.6802 54.0499 33.0902 53.7299 33.4802C53.4099 33.8802 53.1299 34.2502 52.8799 34.5902C52.6399 34.9302 52.4199 35.2302 52.2599 35.4802C52.0899 35.7402 51.9499 35.9402 51.8599 36.0802C51.7699 36.2202 51.7199 36.2902 51.7199 36.2902L51.71 36.2702Z" fill="#7A562A"/>
<path d="M51.6299 36.2301C51.6299 36.2301 51.6299 36.1401 51.6499 35.9701C51.6699 35.8101 51.6699 35.5602 51.7299 35.2602C51.7499 35.1102 51.7799 34.9402 51.8099 34.7502C51.8499 34.5602 51.8899 34.3702 51.9399 34.1502C52.0399 33.7302 52.1799 33.2501 52.3699 32.7401C52.4599 32.4901 52.5699 32.2302 52.6899 31.9602C52.8099 31.7002 52.9399 31.4202 53.0899 31.1402C53.3799 30.5802 53.7299 30.0301 54.1299 29.4701C54.5399 28.9201 55.0099 28.3802 55.5299 27.8702C56.0599 27.3602 56.6499 26.9001 57.2699 26.4801C57.8999 26.0701 58.5799 25.7301 59.2699 25.4701C59.9599 25.2001 60.6899 25.0302 61.3799 24.9302C62.0799 24.8202 62.7699 24.8302 63.3999 24.8702C63.7199 24.9102 64.0299 24.9302 64.3199 25.0002C64.4699 25.0302 64.6099 25.0602 64.7499 25.0902C64.8899 25.1202 65.0199 25.1602 65.1599 25.2002C65.4299 25.2702 65.6799 25.3502 65.9099 25.4402C66.0299 25.4902 66.1399 25.5302 66.2499 25.5702C66.3599 25.6202 66.4599 25.6702 66.5599 25.7102C66.9599 25.8902 67.2899 26.0902 67.5599 26.2502C67.8299 26.4102 68.0199 26.5701 68.1599 26.6601C68.2899 26.7601 68.3599 26.8102 68.3599 26.8102C68.3599 26.8102 68.2799 26.7902 68.1099 26.7602C67.9499 26.7202 67.7199 26.6701 67.4199 26.6101C67.1199 26.5501 66.7599 26.4802 66.3499 26.4302C66.2499 26.4102 66.1399 26.4002 66.0299 26.3802C65.9199 26.3802 65.8099 26.3601 65.6999 26.3501C65.5799 26.3501 65.4699 26.3302 65.3499 26.3102C65.2299 26.3102 65.1099 26.3101 64.9799 26.2901C64.8599 26.2901 64.7299 26.2802 64.5999 26.2702C64.4699 26.2702 64.3399 26.2702 64.2099 26.2702C63.9499 26.2702 63.6699 26.2902 63.3999 26.3102C62.8499 26.3702 62.2699 26.4402 61.6999 26.5902C61.1199 26.7402 60.5398 26.9302 59.9698 27.1802C59.3998 27.4402 58.8399 27.7302 58.3099 28.0802C57.7699 28.4202 57.2699 28.8201 56.7799 29.2301C56.3099 29.6501 55.8499 30.0901 55.4399 30.5401C55.0299 31.0001 54.6399 31.4501 54.2999 31.9101C53.9499 32.3601 53.6399 32.8102 53.3599 33.2402C53.0799 33.6602 52.8399 34.0601 52.6299 34.4201C52.4299 34.7801 52.2399 35.1002 52.0999 35.3702C51.9599 35.6402 51.8399 35.8602 51.7699 36.0002C51.6899 36.1502 51.6499 36.2201 51.6499 36.2201L51.6299 36.2301Z" fill="#845F2D"/>
<path d="M51.9099 34.8201C51.9099 34.8201 51.9599 34.7601 52.0499 34.6401C52.1499 34.5201 52.2799 34.3401 52.4799 34.1401C52.5799 34.0401 52.6899 33.9201 52.8099 33.8001C52.9299 33.6701 53.0699 33.5501 53.2099 33.4201C53.5099 33.1501 53.8499 32.8601 54.2499 32.5801C54.6499 32.2901 55.0999 32.0101 55.5999 31.7301C56.1099 31.4701 56.6499 31.2001 57.2499 31.0001C57.8399 30.7901 58.4799 30.6101 59.1399 30.5001C59.8099 30.3901 60.4899 30.3301 61.1899 30.3601C61.8899 30.4001 62.5799 30.5001 63.2499 30.7001C63.9199 30.8901 64.5499 31.1801 65.1099 31.5201C65.6799 31.8501 66.1599 32.2801 66.5799 32.7001C66.7799 32.9201 66.9799 33.1301 67.1399 33.3501C67.2199 33.4601 67.3099 33.5701 67.3799 33.6801C67.4499 33.7901 67.5199 33.9001 67.5899 34.0101C67.7299 34.2201 67.8399 34.4401 67.9399 34.6401C68.0399 34.8401 68.1299 35.0401 68.1999 35.2301C68.3599 35.6001 68.4399 35.9401 68.5199 36.2201C68.5999 36.4901 68.6199 36.7201 68.6599 36.8701C68.6799 37.0201 68.6999 37.1001 68.6999 37.1001C68.6999 37.1001 68.6499 37.0401 68.5599 36.9101C68.4699 36.7901 68.3499 36.6101 68.1799 36.3801C68.0099 36.1601 67.8099 35.8901 67.5599 35.6101C67.4999 35.5401 67.4399 35.4601 67.3699 35.3901C67.3099 35.3201 67.2299 35.2401 67.1599 35.1701C67.0199 35.0201 66.8699 34.8601 66.7099 34.7101C66.6299 34.6401 66.5499 34.5501 66.4599 34.4701C66.3699 34.4001 66.2799 34.3201 66.1899 34.2401C66.0199 34.0801 65.8099 33.9401 65.6199 33.7901C65.2099 33.5101 64.7799 33.2301 64.2899 33.0201C63.8099 32.8001 63.2999 32.6301 62.7599 32.5001C62.2199 32.3801 61.6599 32.3002 61.0899 32.2802C60.5199 32.2402 59.9499 32.2802 59.3799 32.3402C59.0899 32.3702 58.8099 32.4101 58.5299 32.4601C58.3899 32.4801 58.2499 32.5201 58.1099 32.5401C57.9699 32.5701 57.8399 32.5901 57.6999 32.6201C57.1599 32.7401 56.6399 32.9001 56.1399 33.0501C55.6499 33.2101 55.1799 33.3801 54.7499 33.5501C54.3199 33.7201 53.9299 33.8901 53.5799 34.0401C53.2299 34.2001 52.9299 34.3301 52.6799 34.4601C52.4199 34.5801 52.2299 34.6801 52.0899 34.7401C51.9499 34.8101 51.8799 34.8402 51.8799 34.8402L51.9099 34.8201Z" fill="#845F2D"/>
<path d="M51.74 36.2701C51.74 36.2701 51.76 36.19 51.8 36.04C51.85 35.89 51.88 35.68 51.99 35.41C52.04 35.27 52.09 35.1201 52.15 34.9601C52.21 34.8001 52.28 34.6301 52.36 34.4401C52.52 34.0801 52.72 33.67 52.96 33.24C53.2 32.81 53.51 32.37 53.85 31.91C54.2 31.46 54.59 30.9901 55.05 30.5601C55.5 30.1201 56.01 29.7001 56.57 29.3301C57.13 28.9601 57.74 28.6201 58.39 28.3701C59.04 28.1201 59.72 27.9301 60.41 27.8301C61.1 27.7301 61.79 27.7401 62.44 27.8201C63.1 27.8901 63.71 28.08 64.27 28.29C64.54 28.41 64.81 28.52 65.05 28.66C65.17 28.73 65.29 28.79 65.41 28.86C65.52 28.93 65.63 29.0101 65.73 29.0701C65.94 29.2101 66.13 29.3601 66.31 29.5101C66.49 29.6501 66.65 29.8001 66.79 29.9401C67.09 30.2101 67.3 30.4901 67.49 30.7101C67.68 30.9301 67.79 31.12 67.88 31.24C67.97 31.37 68.01 31.43 68.01 31.43C68.01 31.43 67.94 31.3901 67.81 31.3201C67.68 31.2501 67.49 31.1301 67.25 31.0001C67 30.8701 66.71 30.71 66.37 30.55C66.29 30.51 66.2 30.47 66.11 30.42C66.02 30.38 65.92 30.34 65.83 30.3C65.64 30.22 65.44 30.1301 65.23 30.0601C65.13 30.0201 65.02 29.9901 64.91 29.9501C64.8 29.9201 64.69 29.89 64.57 29.85C64.35 29.78 64.1 29.73 63.86 29.67C63.37 29.59 62.86 29.5101 62.33 29.5101C61.8 29.5101 61.26 29.56 60.72 29.66C60.18 29.77 59.64 29.9301 59.12 30.1401C58.59 30.3401 58.08 30.6101 57.58 30.9001C57.33 31.0401 57.09 31.2 56.86 31.35C56.74 31.43 56.63 31.52 56.52 31.6C56.4 31.68 56.29 31.76 56.18 31.85C55.74 32.18 55.33 32.5401 54.93 32.8801C54.55 33.2301 54.19 33.58 53.87 33.91C53.55 34.24 53.26 34.5501 53 34.8401C52.75 35.1301 52.52 35.3801 52.34 35.5901C52.16 35.8101 52.02 35.9801 51.92 36.0901C51.82 36.2101 51.76 36.2701 51.76 36.2701H51.74Z" fill="#845F2D"/>
<path d="M51.7401 36.3602C51.7401 36.3602 51.7201 36.2702 51.6901 36.1102C51.6501 35.9502 51.6201 35.7102 51.5301 35.4102C51.4901 35.2602 51.4401 35.0902 51.3901 34.9102C51.3301 34.7302 51.2701 34.5402 51.2001 34.3302C51.0501 33.9202 50.8601 33.4702 50.6201 32.9802C50.5001 32.7402 50.36 32.4902 50.22 32.2402C50.07 31.9902 49.91 31.7302 49.73 31.4702C49.39 30.9502 48.9601 30.4402 48.5101 29.9202C48.0401 29.4202 47.5101 28.9302 46.9301 28.4802C46.3501 28.0402 45.71 27.6402 45.04 27.3002C44.36 26.9702 43.6501 26.7002 42.9401 26.5202C42.2201 26.3302 41.4801 26.2402 40.7801 26.2202C40.0701 26.1902 39.3901 26.2802 38.7601 26.4002C38.4501 26.4702 38.14 26.5302 37.86 26.6302C37.72 26.6802 37.5801 26.7202 37.4401 26.7602C37.3001 26.8102 37.17 26.8602 37.05 26.9202C36.79 27.0202 36.5601 27.1302 36.3401 27.2502C36.2301 27.3102 36.1201 27.3602 36.0201 27.4202C35.9201 27.4802 35.83 27.5402 35.73 27.6002C35.35 27.8202 35.05 28.0602 34.8 28.2502C34.55 28.4402 34.3801 28.6102 34.2501 28.7202C34.1301 28.8302 34.0601 28.9002 34.0601 28.9002C34.0601 28.9002 34.14 28.8702 34.3 28.8202C34.46 28.7702 34.68 28.6902 34.97 28.5902C35.26 28.5002 35.6101 28.3902 36.0101 28.2902C36.1101 28.2602 36.2101 28.2302 36.3201 28.2102C36.4301 28.1902 36.5401 28.1602 36.6501 28.1402C36.7601 28.1102 36.8701 28.0902 36.9901 28.0702C37.1101 28.0402 37.23 28.0302 37.35 28.0102C37.47 27.9902 37.6 27.9702 37.72 27.9502C37.85 27.9402 37.98 27.9202 38.11 27.9102C38.37 27.8702 38.64 27.8702 38.92 27.8502C39.48 27.8502 40.0601 27.8502 40.6401 27.9402C41.2301 28.0202 41.83 28.1402 42.42 28.3302C43.01 28.5202 43.61 28.7402 44.17 29.0302C44.74 29.3102 45.2901 29.6402 45.8201 29.9902C46.3401 30.3602 46.84 30.7402 47.3 31.1402C47.75 31.5502 48.2001 31.9602 48.5901 32.3702C48.9901 32.7802 49.35 33.1902 49.67 33.5802C49.99 33.9702 50.2801 34.3402 50.5301 34.6702C50.7801 35.0102 51 35.3002 51.17 35.5502C51.34 35.8002 51.4801 36.0002 51.5701 36.1402C51.6601 36.2802 51.72 36.3502 51.72 36.3502L51.7401 36.3602Z" fill="#7A562A"/>
<path d="M51.66 36.36V36.11C51.66 35.94 51.6601 35.7001 51.6201 35.3901C51.6001 35.2401 51.5901 35.06 51.5701 34.87C51.5501 34.68 51.51 34.4801 51.48 34.2701C51.4 33.8401 51.2901 33.3601 51.1401 32.8401C51.0601 32.5801 50.9701 32.31 50.8701 32.04C50.7601 31.77 50.6601 31.4801 50.5301 31.2001C50.2801 30.6301 49.9601 30.05 49.5901 29.47C49.2201 28.89 48.78 28.3201 48.29 27.7801C47.79 27.2401 47.2301 26.74 46.6401 26.29C46.0401 25.85 45.3801 25.4601 44.7001 25.1501C44.0301 24.8401 43.3201 24.63 42.6201 24.48C41.9301 24.33 41.24 24.29 40.6 24.3C40.28 24.32 39.97 24.32 39.67 24.37C39.52 24.39 39.37 24.41 39.23 24.43C39.09 24.46 38.9501 24.4901 38.8201 24.5201C38.5501 24.5701 38.2901 24.64 38.0601 24.72C37.9401 24.76 37.83 24.7901 37.72 24.8301C37.61 24.8701 37.5101 24.9101 37.4001 24.9501C36.9901 25.1001 36.6501 25.29 36.3701 25.43C36.0901 25.57 35.8901 25.72 35.7501 25.8C35.6101 25.89 35.54 25.94 35.54 25.94C35.54 25.94 35.63 25.9301 35.79 25.9001C35.95 25.8701 36.1901 25.84 36.4901 25.79C36.7901 25.75 37.1601 25.7 37.5701 25.67C37.6701 25.67 37.7801 25.6501 37.8901 25.6401C38.0001 25.6401 38.11 25.6401 38.22 25.6401C38.34 25.6401 38.4501 25.64 38.5701 25.63C38.6901 25.63 38.8101 25.63 38.9401 25.63C39.0601 25.63 39.1901 25.63 39.3201 25.63C39.4501 25.63 39.5801 25.65 39.7101 25.66C39.9701 25.66 40.2401 25.72 40.5201 25.75C41.0701 25.84 41.6401 25.9501 42.2001 26.1401C42.7701 26.3301 43.3401 26.5501 43.8901 26.8401C44.4401 27.1301 44.9801 27.4501 45.4901 27.8401C46.0001 28.2201 46.4801 28.6401 46.9401 29.0801C47.3901 29.5301 47.8101 30 48.2001 30.47C48.5801 30.95 48.9501 31.42 49.2601 31.91C49.5801 32.38 49.86 32.85 50.11 33.29C50.36 33.73 50.5801 34.1401 50.7701 34.5201C50.9601 34.8901 51.1201 35.22 51.2401 35.5C51.3701 35.78 51.47 36.0001 51.54 36.1501C51.61 36.3001 51.6501 36.38 51.6501 36.38L51.66 36.36Z" fill="#845F2D"/>
<path d="M51.76 36.3601C51.76 36.3601 51.73 36.2902 51.67 36.1502C51.6 36.0102 51.53 35.8001 51.39 35.5601C51.32 35.4301 51.25 35.2902 51.17 35.1402C51.09 34.9902 50.99 34.8301 50.88 34.6701C50.67 34.3301 50.41 33.9602 50.1 33.5802C49.79 33.1902 49.43 32.8002 49.02 32.4002C48.6 32.0102 48.15 31.6101 47.63 31.2501C47.11 30.8901 46.55 30.5502 45.94 30.2702C45.33 29.9902 44.68 29.7502 44 29.5902C43.32 29.4402 42.62 29.3501 41.93 29.3601C41.23 29.3601 40.55 29.4801 39.92 29.6601C39.28 29.8301 38.71 30.1102 38.19 30.4002C37.94 30.5602 37.69 30.7101 37.48 30.8801C37.37 30.9701 37.27 31.0501 37.16 31.1301C37.06 31.2201 36.97 31.3102 36.87 31.3902C36.68 31.5602 36.51 31.7301 36.36 31.9101C36.2 32.0801 36.07 32.2401 35.95 32.4101C35.7 32.7201 35.52 33.0302 35.38 33.2702C35.23 33.5102 35.14 33.7201 35.07 33.8601C35.01 34.0001 34.97 34.0702 34.97 34.0702C34.97 34.0702 35.03 34.0201 35.16 33.9201C35.28 33.8301 35.45 33.6902 35.67 33.5202C35.89 33.3502 36.16 33.1501 36.47 32.9401C36.55 32.8801 36.63 32.8302 36.71 32.7702C36.79 32.7102 36.88 32.6601 36.97 32.6101C37.15 32.5001 37.33 32.3901 37.53 32.2901C37.63 32.2401 37.73 32.1801 37.83 32.1301C37.93 32.0801 38.04 32.0301 38.15 31.9801C38.36 31.8701 38.59 31.7902 38.83 31.7002C39.3 31.5402 39.79 31.3901 40.31 31.3101C40.83 31.2301 41.37 31.2001 41.92 31.2201C42.47 31.2501 43.03 31.3202 43.58 31.4502C44.13 31.5702 44.68 31.7602 45.21 31.9602C45.48 32.0602 45.74 32.1801 45.99 32.3001C46.12 32.3601 46.24 32.4301 46.37 32.4901C46.5 32.5501 46.62 32.6101 46.74 32.6801C47.23 32.9401 47.69 33.2302 48.13 33.5102C48.56 33.8002 48.97 34.0801 49.33 34.3601C49.7 34.6401 50.03 34.9002 50.33 35.1502C50.63 35.3902 50.88 35.6101 51.09 35.7901C51.3 35.9801 51.47 36.1201 51.58 36.2201C51.7 36.3201 51.76 36.3701 51.76 36.3701V36.3601Z" fill="#845F2D"/>
<path d="M51.74 36.2601C51.74 36.2601 51.78 36.1701 51.86 36.0001C51.94 35.8301 52.04 35.5801 52.26 35.2901C52.31 35.2201 52.36 35.1401 52.42 35.0501C52.48 34.9701 52.55 34.8901 52.61 34.8101C52.75 34.6401 52.9 34.4601 53.09 34.2901C53.18 34.2001 53.28 34.1101 53.38 34.0201C53.48 33.9301 53.6 33.8501 53.71 33.7701C53.93 33.5901 54.19 33.4401 54.47 33.2701C54.6 33.1901 54.75 33.1201 54.9 33.0501C55.05 32.9801 55.2 32.9001 55.36 32.8401C55.68 32.7201 56.01 32.5901 56.37 32.5101C57.07 32.3101 57.83 32.2001 58.62 32.1701C58.82 32.1701 59.02 32.1501 59.22 32.1501C59.42 32.1501 59.62 32.1701 59.82 32.1701C60.22 32.1901 60.63 32.2301 61.04 32.3001C61.86 32.4101 62.67 32.6401 63.46 32.9001C64.25 33.1801 65.01 33.5301 65.73 33.9201C66.08 34.1301 66.44 34.3301 66.76 34.5701C66.92 34.6801 67.09 34.8001 67.25 34.9101C67.41 35.0301 67.56 35.1602 67.71 35.2802C67.86 35.4002 68.01 35.5301 68.15 35.6601C68.29 35.7901 68.43 35.9201 68.57 36.0501C68.83 36.3301 69.09 36.5801 69.32 36.8601C69.54 37.1401 69.77 37.4001 69.95 37.6801C70.04 37.8201 70.14 37.9501 70.23 38.0801C70.32 38.2201 70.4 38.3501 70.48 38.4901C70.55 38.6301 70.63 38.7601 70.7 38.8801C70.77 39.0101 70.83 39.1401 70.89 39.2701C71.01 39.5201 71.13 39.7601 71.21 40.0001C71.29 40.2401 71.39 40.4501 71.44 40.6601C71.5 40.8701 71.55 41.0601 71.59 41.2301C71.64 41.4001 71.66 41.5501 71.69 41.6901C71.71 41.8201 71.73 41.9402 71.74 42.0302C71.77 42.2202 71.78 42.3101 71.78 42.3101C71.78 42.3101 71.73 42.2301 71.64 42.0601C71.55 41.9001 71.42 41.6501 71.24 41.3601C71.15 41.2201 71.05 41.0601 70.94 40.8801C70.83 40.7101 70.7 40.5301 70.56 40.3401C70.43 40.1501 70.27 39.9501 70.11 39.7501C70.03 39.6501 69.95 39.5501 69.86 39.4401C69.77 39.3401 69.67 39.2401 69.58 39.1301C69.48 39.0301 69.39 38.9201 69.29 38.8101C69.19 38.7101 69.08 38.6001 68.97 38.4901C68.76 38.2701 68.52 38.0701 68.28 37.8501C68.04 37.6401 67.78 37.4401 67.52 37.2301C67.24 37.0401 66.98 36.8201 66.69 36.6401C66.12 36.2401 65.49 35.9001 64.85 35.5601C64.2 35.2501 63.52 34.9401 62.83 34.7101C62.14 34.4701 61.43 34.2701 60.72 34.1301C60.01 33.9901 59.31 33.8801 58.62 33.8601C57.94 33.8301 57.28 33.8401 56.65 33.9201C56.33 33.9401 56.04 34.0201 55.75 34.0601C55.6 34.0901 55.47 34.1301 55.33 34.1601C55.19 34.2001 55.05 34.2302 54.93 34.2802C54.8 34.3302 54.67 34.3701 54.55 34.4101C54.42 34.4501 54.31 34.5101 54.19 34.5601C54.07 34.6101 53.96 34.6501 53.85 34.7101C53.75 34.7701 53.64 34.8201 53.54 34.8801C53.33 34.9801 53.16 35.1101 52.99 35.2101C52.91 35.2701 52.82 35.3201 52.75 35.3701C52.68 35.4301 52.61 35.4801 52.55 35.5401C52.42 35.6501 52.3 35.7301 52.2 35.8301C52.1 35.9201 52.02 36.0101 51.95 36.0701C51.81 36.2001 51.74 36.2601 51.74 36.2601Z" fill="#7A562A"/>
<path d="M51.69 36.2301C51.69 36.2301 51.63 36.1501 51.53 35.9901C51.43 35.8301 51.27 35.6101 51.13 35.2701C51.09 35.1901 51.06 35.1001 51.01 35.0101C50.97 34.9201 50.94 34.8201 50.91 34.7201C50.84 34.5201 50.76 34.2801 50.72 34.0401C50.69 33.9101 50.67 33.7801 50.65 33.6501C50.63 33.5201 50.62 33.3801 50.61 33.2301C50.57 32.9401 50.58 32.6401 50.59 32.3201C50.59 32.1601 50.61 32.0001 50.63 31.8401C50.65 31.6701 50.67 31.5101 50.7 31.3401C50.77 31.0101 50.83 30.6501 50.95 30.3101C51.15 29.6101 51.46 28.9101 51.84 28.2201C51.94 28.0501 52.03 27.8701 52.14 27.7001C52.25 27.5301 52.37 27.3701 52.48 27.2001C52.71 26.8701 52.96 26.5401 53.23 26.2301C53.76 25.6001 54.38 25.0301 55.02 24.5001C55.67 23.9801 56.37 23.5201 57.08 23.1101C57.45 22.9201 57.8 22.7201 58.18 22.5701C58.36 22.4901 58.55 22.4101 58.73 22.3401C58.92 22.2801 59.1 22.2101 59.29 22.1401C59.48 22.0701 59.66 22.0201 59.85 21.9701C60.03 21.9101 60.22 21.8701 60.4 21.8201C60.77 21.7501 61.12 21.6601 61.48 21.6101C61.84 21.5701 62.17 21.5101 62.51 21.5001C62.68 21.5001 62.84 21.4801 63 21.4801C63.16 21.4801 63.32 21.4801 63.47 21.4801C63.63 21.4801 63.78 21.4801 63.92 21.5001C64.07 21.5101 64.21 21.5301 64.35 21.5401C64.63 21.5701 64.89 21.6001 65.14 21.6601C65.38 21.7201 65.61 21.7501 65.82 21.8101C66.02 21.8701 66.21 21.9301 66.38 21.9801C66.55 22.0301 66.7 22.0901 66.82 22.1401C66.94 22.1901 67.05 22.2401 67.14 22.2701C67.31 22.3501 67.4 22.3901 67.4 22.3901C67.4 22.3901 67.3 22.3901 67.11 22.3901C66.92 22.3901 66.65 22.3601 66.31 22.3601C66.14 22.3601 65.95 22.3601 65.74 22.3601C65.54 22.3601 65.31 22.3901 65.08 22.4001C64.85 22.4001 64.6 22.4401 64.34 22.4701C64.21 22.4901 64.08 22.5001 63.94 22.5201C63.81 22.5501 63.67 22.5701 63.53 22.5901C63.39 22.6201 63.25 22.6401 63.1 22.6701C62.96 22.7001 62.81 22.7401 62.66 22.7701C62.36 22.8301 62.07 22.9301 61.76 23.0101C61.45 23.1001 61.15 23.2201 60.83 23.3201C60.52 23.4601 60.2 23.5601 59.89 23.7201C59.25 23.9901 58.63 24.3501 58 24.7101C57.39 25.1001 56.78 25.5101 56.21 25.9801C55.64 26.4401 55.09 26.9301 54.6 27.4601C54.11 27.9901 53.65 28.5301 53.26 29.1001C52.87 29.6701 52.53 30.2301 52.28 30.8101C52.13 31.0901 52.04 31.3801 51.93 31.6501C51.88 31.7901 51.84 31.9301 51.8 32.0601C51.75 32.2001 51.71 32.3301 51.69 32.4701C51.66 32.6001 51.63 32.7401 51.6 32.8601C51.56 32.9901 51.56 33.1201 51.54 33.2401C51.52 33.3701 51.5 33.4901 51.49 33.6101C51.49 33.7301 51.48 33.8501 51.47 33.9601C51.44 34.1901 51.47 34.4001 51.47 34.6001C51.47 34.7001 51.47 34.8001 51.47 34.8901C51.48 34.9801 51.49 35.0701 51.5 35.1501C51.53 35.3201 51.53 35.4701 51.56 35.6001C51.59 35.7301 51.61 35.8501 51.63 35.9401C51.67 36.1301 51.69 36.2201 51.69 36.2201V36.2301Z" fill="#845F2D"/>
<path d="M51.74 36.2402C51.74 36.2402 51.8 36.1602 51.91 36.0002C52.02 35.8502 52.17 35.6202 52.43 35.3702C52.49 35.3102 52.56 35.2402 52.63 35.1702C52.7 35.1002 52.78 35.0402 52.86 34.9702C53.03 34.8302 53.21 34.6702 53.43 34.5402C53.54 34.4702 53.65 34.4002 53.76 34.3302C53.88 34.2602 54 34.2102 54.13 34.1402C54.38 34.0002 54.67 33.9002 54.96 33.7902C55.11 33.7302 55.27 33.6902 55.42 33.6502C55.58 33.6102 55.74 33.5602 55.91 33.5302C56.24 33.4702 56.6 33.4002 56.96 33.3802C57.69 33.3102 58.45 33.3402 59.24 33.4402C59.43 33.4702 59.63 33.5002 59.83 33.5302C60.02 33.5702 60.22 33.6202 60.42 33.6602C60.81 33.7502 61.21 33.8702 61.6 34.0102C62.39 34.2702 63.14 34.6402 63.87 35.0402C64.59 35.4602 65.28 35.9402 65.92 36.4502C66.23 36.7202 66.54 36.9802 66.82 37.2702C66.96 37.4102 67.1 37.5602 67.24 37.7002C67.37 37.8502 67.5 38.0002 67.63 38.1402C67.76 38.2802 67.88 38.4402 67.99 38.5902C68.11 38.7402 68.22 38.8902 68.33 39.0402C68.53 39.3602 68.75 39.6502 68.92 39.9702C69.09 40.2902 69.27 40.5802 69.4 40.8902C69.47 41.0402 69.54 41.1902 69.6 41.3402C69.66 41.4902 69.72 41.6402 69.77 41.7802C69.82 41.9302 69.87 42.0702 69.92 42.2102C69.96 42.3502 70 42.4902 70.04 42.6302C70.11 42.9002 70.18 43.1502 70.22 43.4002C70.26 43.6502 70.31 43.8702 70.33 44.0902C70.35 44.3002 70.36 44.5002 70.38 44.6702C70.4 44.8502 70.4 45.0002 70.38 45.1402C70.38 45.2802 70.38 45.3902 70.38 45.4902C70.38 45.6802 70.37 45.7802 70.37 45.7802C70.37 45.7802 70.33 45.6902 70.27 45.5102C70.2 45.3302 70.13 45.0702 70 44.7602C69.94 44.6002 69.87 44.4302 69.79 44.2402C69.71 44.0502 69.61 43.8502 69.51 43.6402C69.42 43.4302 69.3 43.2102 69.17 42.9802C69.11 42.8702 69.05 42.7502 68.98 42.6302C68.91 42.5102 68.84 42.4002 68.76 42.2802C68.69 42.1602 68.62 42.0302 68.54 41.9102C68.46 41.7902 68.37 41.6702 68.28 41.5402C68.11 41.2902 67.92 41.0402 67.72 40.7902C67.53 40.5402 67.3 40.2902 67.09 40.0402C66.85 39.8102 66.64 39.5402 66.38 39.3102C65.89 38.8202 65.33 38.3702 64.76 37.9202C64.17 37.5002 63.57 37.0802 62.92 36.7202C62.28 36.3602 61.62 36.0302 60.95 35.7702C60.28 35.5102 59.61 35.2802 58.94 35.1302C58.27 34.9702 57.62 34.8602 56.99 34.8302C56.67 34.7902 56.38 34.8202 56.08 34.8102C55.93 34.8102 55.79 34.8302 55.65 34.8402C55.5 34.8402 55.36 34.8602 55.23 34.8802C55.09 34.9002 54.96 34.9202 54.83 34.9402C54.7 34.9602 54.58 35.0002 54.45 35.0202C54.33 35.0502 54.2 35.0702 54.09 35.1102C53.98 35.1502 53.86 35.1802 53.76 35.2202C53.54 35.2802 53.34 35.3802 53.16 35.4502C53.07 35.4902 52.97 35.5202 52.89 35.5602C52.81 35.6102 52.73 35.6502 52.66 35.6902C52.51 35.7702 52.38 35.8402 52.26 35.9102C52.15 35.9802 52.05 36.0502 51.97 36.1002C51.81 36.2002 51.73 36.2602 51.73 36.2602L51.74 36.2402Z" fill="#845F2D"/>
<path d="M51.6299 36.1501C51.6299 36.1501 51.7499 35.9501 51.9599 35.6001C52.0599 35.4201 52.1899 35.2101 52.3599 34.9801C52.5299 34.7501 52.6999 34.4701 52.9199 34.1901C53.1399 33.9101 53.3699 33.6001 53.6499 33.3101C53.7899 33.1601 53.9199 33.0001 54.0799 32.8501C54.2399 32.7001 54.3999 32.5501 54.5599 32.4001C54.7199 32.2401 54.9099 32.1101 55.0899 31.9601C55.1799 31.8901 55.2799 31.8101 55.3699 31.7401C55.4699 31.6701 55.5599 31.6101 55.6699 31.5401C56.0599 31.2601 56.4899 31.0301 56.9199 30.8001C57.1399 30.7001 57.3599 30.6001 57.5899 30.4901C57.8099 30.3901 58.0399 30.3101 58.2699 30.2201C58.4899 30.1301 58.7199 30.0501 58.9499 30.0001C59.1799 29.9401 59.4099 29.8701 59.6399 29.8401C59.8699 29.8101 60.0899 29.7701 60.3099 29.7601C60.5299 29.7401 60.7499 29.7401 60.9499 29.7401C61.3699 29.7401 61.7599 29.7801 62.1199 29.8101C62.2999 29.8301 62.4699 29.8601 62.6299 29.8901C62.7899 29.9201 62.9499 29.9501 63.0799 29.9801C63.3699 30.0401 63.6099 30.1201 63.8099 30.1801C64.2099 30.3101 64.4299 30.4101 64.4299 30.4101L64.4099 30.5501C64.4099 30.5501 64.1699 30.6101 63.7599 30.6701C63.5599 30.7001 63.3099 30.7301 63.0299 30.7701C62.7499 30.8201 62.4399 30.8401 62.0999 30.8901C61.7699 30.9501 61.3999 30.9701 61.0199 31.0401C60.8299 31.0701 60.6399 31.1001 60.4399 31.1201C60.2499 31.1601 60.0499 31.1901 59.8499 31.2201C59.6399 31.2401 59.4399 31.2901 59.2299 31.3201C59.0199 31.3501 58.8099 31.3801 58.5999 31.4301C58.3899 31.4801 58.1698 31.5101 57.9698 31.5801C57.7598 31.6401 57.5499 31.7102 57.3499 31.7802C56.9399 31.9502 56.5399 32.1201 56.1599 32.3401L55.8699 32.5001C55.7799 32.5601 55.6899 32.6201 55.5999 32.6701C55.4199 32.7901 55.2299 32.8901 55.0599 33.0201C54.8899 33.1501 54.7299 33.2701 54.5599 33.3901C54.3999 33.5101 54.2499 33.6501 54.0999 33.7701C53.7899 34.0101 53.5299 34.2801 53.2799 34.5101C53.0199 34.7401 52.8299 34.9901 52.6299 35.1901C52.4399 35.3901 52.2799 35.5801 52.1499 35.7401C51.8899 36.0501 51.7399 36.2301 51.7399 36.2301L51.6299 36.1501Z" fill="#7A562A"/>
<path d="M47.9099 33.05C47.9099 33.05 47.8299 33.0401 47.6799 33.0101C47.5299 32.9801 47.3199 32.93 47.0399 32.87C46.7699 32.81 46.4399 32.75 46.0599 32.68C45.6899 32.61 45.2599 32.54 44.7999 32.48C44.3499 32.42 43.8499 32.37 43.3299 32.32C42.8099 32.29 42.2699 32.2601 41.7099 32.2701C41.5699 32.2701 41.4299 32.2701 41.2899 32.2801C41.1499 32.2801 41.0099 32.28 40.8699 32.3C40.5899 32.33 40.2999 32.3501 40.0199 32.3901C39.4599 32.4701 38.8899 32.57 38.3399 32.74C37.7899 32.9 37.2699 33.1001 36.7699 33.3401C36.2799 33.5901 35.8299 33.8901 35.4099 34.2101C34.9899 34.5301 34.6299 34.9001 34.2999 35.2701C34.1399 35.4601 33.9799 35.6501 33.8499 35.8401C33.7799 35.9301 33.7099 36.03 33.6399 36.12C33.5799 36.22 33.5199 36.31 33.4599 36.41C33.3299 36.59 33.2299 36.79 33.1299 36.97C33.0799 37.06 33.0299 37.15 32.9799 37.24C32.9399 37.33 32.8999 37.42 32.8499 37.5C32.6799 37.84 32.5499 38.1401 32.4299 38.4001C32.3299 38.6601 32.2399 38.86 32.1899 39C32.1299 39.14 32.0999 39.22 32.0999 39.22C32.0999 39.22 32.0999 39.14 32.0799 38.99C32.0799 38.84 32.0499 38.6101 32.0599 38.3301C32.0799 38.0501 32.0699 37.69 32.1399 37.3C32.1599 37.1 32.1999 36.89 32.2599 36.66C32.3099 36.44 32.3699 36.2001 32.4499 35.9601C32.4899 35.8401 32.5299 35.7201 32.5799 35.5901C32.6299 35.4701 32.6799 35.34 32.7399 35.22C32.8399 34.96 32.9899 34.7101 33.1299 34.4501C33.4399 33.9501 33.7999 33.4201 34.2799 32.9601C34.7499 32.5001 35.2899 32.07 35.8899 31.72C36.4899 31.37 37.1499 31.1101 37.8099 30.9001C38.4799 30.7101 39.1599 30.59 39.8299 30.55C40.4999 30.49 41.1599 30.5201 41.7899 30.5801C42.4199 30.6401 43.0099 30.7701 43.5699 30.9001C44.1199 31.0501 44.6299 31.22 45.0899 31.41C45.5399 31.6 45.9499 31.79 46.2999 31.98C46.4799 32.08 46.6399 32.1601 46.7799 32.2601C46.9299 32.3501 47.0599 32.4401 47.1799 32.5201C47.4199 32.6701 47.5899 32.8201 47.7099 32.9001C47.8299 32.9901 47.8999 33.04 47.8999 33.04L47.9099 33.05Z" fill="#7A562A"/>
<path d="M48.65 33.9401C48.65 33.9401 48.56 33.8901 48.39 33.8101C48.31 33.7601 48.2 33.7101 48.08 33.6401C47.96 33.5801 47.81 33.5301 47.65 33.4601C47.57 33.4301 47.49 33.3901 47.4 33.3601C47.31 33.3301 47.21 33.3101 47.11 33.2801C47.01 33.2501 46.91 33.2201 46.8 33.2001C46.69 33.1801 46.58 33.1601 46.47 33.1401C46.36 33.1201 46.24 33.0901 46.12 33.0801C46 33.0801 45.87 33.0601 45.74 33.0501C45.49 33.0201 45.21 33.0501 44.93 33.0501C44.37 33.0901 43.76 33.1601 43.14 33.3301C42.98 33.3701 42.83 33.4101 42.67 33.4601C42.51 33.5101 42.36 33.5501 42.2 33.6101C41.89 33.7401 41.56 33.8401 41.24 34.0001C40.91 34.1401 40.6 34.3101 40.27 34.4701C40.11 34.5601 39.95 34.6501 39.79 34.7401C39.63 34.8301 39.47 34.9301 39.31 35.0301C38.68 35.4201 38.07 35.8701 37.48 36.3601C36.88 36.8301 36.34 37.3701 35.81 37.9001C35.31 38.4601 34.81 39.0001 34.39 39.5801C34.16 39.8601 33.99 40.1601 33.78 40.4401C33.6 40.7301 33.42 41.0201 33.25 41.3001C33.1 41.5901 32.93 41.8701 32.8 42.1501C32.67 42.4301 32.53 42.7001 32.43 42.9701C32.32 43.2401 32.21 43.5001 32.13 43.7501C32.05 44.0001 31.95 44.2401 31.9 44.4701C31.83 44.7001 31.78 44.9201 31.72 45.1201C31.67 45.3201 31.64 45.5201 31.6 45.6901C31.52 46.0301 31.5 46.3101 31.46 46.5001C31.43 46.6901 31.41 46.7901 31.41 46.7901C31.41 46.7901 31.39 46.6901 31.35 46.5001C31.33 46.4101 31.31 46.2901 31.28 46.1501C31.27 46.0801 31.25 46.0001 31.24 45.9301C31.23 45.8501 31.22 45.7601 31.21 45.6701C31.2 45.4901 31.18 45.2901 31.16 45.0701C31.15 44.8501 31.16 44.6201 31.16 44.3601C31.16 44.1001 31.2 43.8301 31.22 43.5501C31.24 43.2601 31.3 42.9601 31.36 42.6501C31.48 42.0301 31.68 41.3701 31.94 40.6801C32.07 40.3401 32.23 40.0001 32.39 39.6501C32.57 39.3101 32.74 38.9601 32.96 38.6201C33.07 38.4501 33.17 38.2801 33.28 38.1101C33.4 37.9501 33.52 37.7801 33.63 37.6101C33.86 37.2701 34.14 36.9601 34.41 36.6401C34.97 36.0101 35.57 35.4101 36.23 34.8701C36.9 34.3401 37.59 33.8301 38.33 33.4301C39.06 33.0101 39.82 32.6601 40.59 32.4101C41.35 32.1401 42.12 31.9801 42.86 31.9001C43.6 31.8101 44.32 31.8501 44.96 31.9301C45.12 31.9601 45.28 31.9901 45.43 32.0201C45.51 32.0401 45.58 32.0501 45.65 32.0701C45.72 32.0901 45.8 32.1201 45.87 32.1401C46.01 32.1901 46.15 32.2301 46.28 32.2701C46.41 32.3201 46.53 32.3801 46.65 32.4301C46.77 32.4901 46.88 32.5401 46.99 32.5901C47.1 32.6501 47.2 32.7101 47.29 32.7801C47.38 32.8401 47.48 32.9001 47.56 32.9501C47.64 33.0101 47.72 33.0801 47.79 33.1401C47.94 33.2601 48.07 33.3601 48.16 33.4601C48.25 33.5601 48.33 33.6501 48.4 33.7201C48.53 33.8701 48.59 33.9401 48.59 33.9401H48.65Z" fill="#845F2D"/>
<path d="M47.6299 32.6101C47.6299 32.6101 47.4199 32.5102 47.0599 32.3202C46.8799 32.2302 46.66 32.1102 46.4 32.0002C46.14 31.8902 45.8699 31.7402 45.5399 31.6202C45.2199 31.5002 44.8799 31.3502 44.4999 31.2502C44.3099 31.1902 44.1299 31.1202 43.9299 31.0702C43.7299 31.0202 43.53 30.9701 43.33 30.9201C43.13 30.8601 42.91 30.8501 42.7 30.8001C42.59 30.7801 42.4899 30.7602 42.3799 30.7402C42.2699 30.7402 42.1599 30.7202 42.0599 30.7102C41.6299 30.6502 41.1799 30.6502 40.7399 30.6502C40.5199 30.6702 40.3 30.6802 40.09 30.7002C39.87 30.7202 39.66 30.7702 39.45 30.8102C39.24 30.8402 39.03 30.9002 38.83 30.9502C38.63 31.0102 38.4199 31.0301 38.2299 31.1001C38.0299 31.1501 37.84 31.2002 37.64 31.2402C37.45 31.2902 37.2599 31.3402 37.0699 31.3902C36.6999 31.4702 36.35 31.5801 36.02 31.6601C35.69 31.7301 35.3899 31.8402 35.1099 31.9002C34.8299 31.9602 34.6 32.0402 34.4 32.0902C34 32.1902 33.7599 32.2301 33.7599 32.2301L33.7 32.1101C33.7 32.1101 33.8699 31.9301 34.1799 31.6601C34.3399 31.5201 34.53 31.3502 34.77 31.1902C34.89 31.1002 35.0199 31.0202 35.1599 30.9302C35.2899 30.8402 35.4399 30.7401 35.5999 30.6601C35.9199 30.4901 36.26 30.2902 36.65 30.1402C36.84 30.0602 37.0399 29.9801 37.2499 29.9101C37.4599 29.8401 37.68 29.7901 37.9 29.7301C38.12 29.6701 38.3599 29.6501 38.5999 29.6101C38.8299 29.5801 39.0699 29.5501 39.3099 29.5501C39.5599 29.5501 39.7999 29.5301 40.0399 29.5501C40.2799 29.5501 40.53 29.5702 40.77 29.5802C41.26 29.6302 41.74 29.6801 42.21 29.7901C42.33 29.8101 42.4399 29.8401 42.5599 29.8601C42.6699 29.8901 42.79 29.9302 42.9 29.9602C43.12 30.0302 43.3399 30.0801 43.5499 30.1601C43.7599 30.2401 43.9699 30.3202 44.1699 30.4002C44.3699 30.4702 44.5599 30.5801 44.7399 30.6601C45.1099 30.8301 45.4399 31.0302 45.7499 31.2002C46.0599 31.3602 46.3199 31.5602 46.5699 31.7102C46.8199 31.8602 47.0099 32.0102 47.1799 32.1302C47.5099 32.3702 47.6899 32.5102 47.6899 32.5102L47.6199 32.6302L47.6299 32.6101Z" fill="#845F2D"/>
<path d="M49.4901 34.4001C49.4901 34.4001 49.28 34.3001 48.92 34.1201C48.73 34.0301 48.5101 33.9201 48.2601 33.8101C48.0001 33.7101 47.7201 33.5601 47.3901 33.4501C47.0701 33.3301 46.7201 33.2001 46.3401 33.1001C46.1501 33.0501 45.9601 32.9801 45.7601 32.9401C45.5601 32.8901 45.36 32.8501 45.16 32.8001C44.95 32.7501 44.7401 32.7301 44.5301 32.7001C44.4301 32.6801 44.3201 32.6701 44.2101 32.6501C44.1001 32.6501 43.9901 32.6301 43.8901 32.6301C43.4501 32.5801 43.0101 32.5901 42.5701 32.6001C42.3501 32.6301 42.13 32.6401 41.92 32.6701C41.7 32.7001 41.4901 32.7501 41.2801 32.7901C41.0701 32.8301 40.86 32.8901 40.66 32.9501C40.46 33.0101 40.2501 33.0401 40.0601 33.1101C39.8601 33.1601 39.67 33.2201 39.47 33.2601C39.28 33.3201 39.09 33.3701 38.91 33.4201C38.54 33.5101 38.2 33.6301 37.86 33.7101C37.53 33.7901 37.2301 33.9001 36.9601 33.9701C36.6901 34.0401 36.4501 34.1201 36.2501 34.1701C35.8501 34.2801 35.61 34.3201 35.61 34.3201L35.54 34.2001C35.54 34.2001 35.7001 34.0201 36.0101 33.7401C36.1701 33.5901 36.36 33.4201 36.6 33.2601C36.71 33.1701 36.84 33.0801 36.98 32.9901C37.12 32.9001 37.26 32.8001 37.42 32.7101C37.74 32.5301 38.0701 32.3301 38.4601 32.1701C38.6501 32.0901 38.8501 32.0001 39.0601 31.9301C39.2701 31.8601 39.4901 31.8001 39.7101 31.7401C39.9301 31.6801 40.1601 31.6401 40.4001 31.6101C40.6301 31.5701 40.8701 31.5501 41.1201 31.5401C41.3701 31.5301 41.6 31.5101 41.85 31.5101C42.09 31.5101 42.3401 31.5101 42.5801 31.5201C43.0701 31.5601 43.5501 31.6001 44.0301 31.7001C44.1501 31.7201 44.2601 31.7401 44.3801 31.7601C44.5001 31.7901 44.61 31.8201 44.72 31.8501C44.94 31.9101 45.1701 31.9601 45.3801 32.0401C45.5901 32.1101 45.8001 32.1901 46.0101 32.2601C46.2101 32.3301 46.4001 32.4301 46.5901 32.5101C46.9701 32.6701 47.3 32.8602 47.61 33.0302C47.93 33.1902 48.1901 33.3801 48.4401 33.5201C48.6901 33.6701 48.88 33.8101 49.05 33.9301C49.38 34.1701 49.5701 34.3001 49.5701 34.3001L49.5001 34.4201L49.4901 34.4001Z" fill="#845F2D"/>
<path d="M49.03 34.0002C49.03 34.0002 48.84 33.8602 48.52 33.6102C48.36 33.4902 48.1599 33.3302 47.9299 33.1702C47.6999 33.0102 47.45 32.8202 47.15 32.6502C46.86 32.4702 46.55 32.2702 46.2 32.0902C46.03 32.0002 45.8599 31.9002 45.6699 31.8102C45.4799 31.7302 45.2999 31.6402 45.0999 31.5502C44.9099 31.4602 44.6999 31.4002 44.4999 31.3302C44.3999 31.2902 44.3 31.2602 44.2 31.2202C44.1 31.1902 43.99 31.1602 43.89 31.1302C43.47 31.0002 43.0399 30.9202 42.6099 30.8402C42.3899 30.8202 42.17 30.7902 41.96 30.7802C41.74 30.7602 41.5199 30.7802 41.3099 30.7802C41.0999 30.7802 40.8799 30.7902 40.6699 30.8102C40.4599 30.8302 40.2499 30.8102 40.0499 30.8502C39.8499 30.8502 39.64 30.8802 39.45 30.8802C39.25 30.8902 39.0599 30.9102 38.8699 30.9202C38.4899 30.9302 38.1299 30.9802 37.7899 31.0002C37.4499 31.0102 37.1399 31.0602 36.8499 31.0702C36.5699 31.0802 36.3199 31.1102 36.1199 31.1202C35.7099 31.1502 35.46 31.1402 35.46 31.1402L35.4199 31.0102C35.4199 31.0102 35.6099 30.8702 35.9799 30.6502C36.1599 30.5402 36.38 30.4102 36.65 30.2902C36.78 30.2302 36.93 30.1702 37.08 30.1002C37.23 30.0302 37.3899 29.9602 37.5599 29.9102C37.8999 29.8002 38.2699 29.6702 38.6899 29.5902C38.8899 29.5502 39.0999 29.5002 39.3199 29.4702C39.5399 29.4402 39.7599 29.4302 39.9899 29.4102C40.2199 29.3902 40.4499 29.4102 40.6899 29.4202C40.9299 29.4202 41.16 29.4502 41.4 29.4902C41.64 29.5302 41.8799 29.5602 42.1199 29.6102C42.3599 29.6702 42.6 29.7202 42.84 29.7702C43.31 29.9102 43.7799 30.0402 44.2199 30.2302C44.3299 30.2702 44.4399 30.3202 44.5499 30.3602C44.6499 30.4202 44.7599 30.4702 44.8699 30.5202C45.0699 30.6302 45.2899 30.7202 45.4799 30.8402C45.6699 30.9602 45.8599 31.0702 46.0499 31.1802C46.2399 31.2902 46.3999 31.4202 46.5699 31.5402C46.8999 31.7702 47.1899 32.0302 47.4699 32.2502C47.7499 32.4702 47.9699 32.7102 48.1799 32.9002C48.3899 33.0902 48.56 33.2702 48.7 33.4202C48.98 33.7202 49.14 33.8902 49.14 33.8902L49.0499 33.9902L49.03 34.0002Z" fill="#845F2D"/>
<path d="M57.78 66.2802C57.78 65.8002 57.53 64.9202 57.4 64.5302C53.59 66.8702 51.15 64.3501 51.15 64.3501C51.15 64.3501 48.69 66.6601 45.1 64.7301C45.03 65.0501 44.97 65.8601 44.97 66.2401C44.97 68.8701 48.05 70.0401 49.78 71.5701C49.88 71.6901 49.97 71.8101 50.04 71.9401C50.54 72.8601 49.99 73.3301 49.99 73.3301C49.99 73.3301 50.6 73.1601 50.68 72.5901C51.19 73.3801 50.37 74.3601 50.37 74.3601C50.37 74.3601 51.62 73.8401 51.65 73.1701C51.66 73.8901 51.87 74.7301 51.87 74.7301C51.87 74.7301 51.84 74.6001 52.03 73.6501C52.07 73.4401 52.39 72.9201 52.48 72.8101L52.51 72.7901C52.26 73.3401 52.8 73.8201 52.8 73.8201C52.8 73.8201 52.4 73.1001 53.03 72.4001C54.72 70.5401 57.79 68.3701 57.79 66.2901" fill="white"/>
<path d="M51.43 72.3501C51.36 72.1701 51.26 71.9701 51.12 71.7501L50.33 70.5501L50.29 70.8301C50.29 70.8301 50.22 70.7401 50.18 70.6901L50.15 70.6601L50.12 70.6301C49.64 70.2001 49.06 69.8101 48.5 69.4201C47.02 68.4101 45.5 67.3601 45.5 65.7101C45.5 65.5301 45.52 65.2601 45.54 65.0001C46.3 65.3201 47.06 65.4801 47.8 65.5001C47.85 65.5001 47.9 65.5001 47.94 65.5001C47.98 65.5001 48.03 65.5001 48.08 65.5001C49.53 65.4601 50.6 64.8801 51.13 64.5101C51.66 64.9101 52.73 65.5302 54.22 65.5302C54.34 65.5302 54.46 65.5301 54.58 65.5201C54.73 65.5201 54.89 65.4901 55.05 65.4701C55.72 65.3701 56.39 65.1401 57.07 64.8001C57.16 65.1501 57.24 65.5201 57.24 65.7501C57.24 67.1701 55.62 69.1901 52.69 71.4401L52.58 71.5302V71.5501L52.16 71.8501L52.11 71.8901L52.07 71.9401L51.44 72.3701" fill="#F1F0F0"/>
<path d="M54.3 65.0101C54.3 65.6501 53.6 66.2201 52.79 66.5801C52.24 66.8301 51.63 66.97 51.16 66.97C50.69 66.97 50.09 66.8301 49.54 66.5901C48.72 66.2301 48.02 65.6601 48.02 65.0101C48.02 63.9301 50.01 63.05 51.17 63.05C52.33 63.05 54.31 63.9201 54.31 65.0101H54.3Z" fill="#B3576F"/>
<path d="M52.79 66.5701C52.24 66.8201 51.63 66.9601 51.16 66.9601C50.69 66.9601 50.09 66.8201 49.54 66.5801C49.65 66.1401 50.0501 65.8 50.5301 65.8C50.7701 65.8 50.99 65.8901 51.17 66.0301C51.35 65.8901 51.5701 65.8 51.8101 65.8C52.2901 65.8 52.69 66.1201 52.8 66.5701H52.79Z" fill="#ED7693"/>
<path d="M51.16 63.85C51.16 64.88 49.44 65.5201 47.9 65.5201C46.36 65.5201 44.02 64.4201 44.02 63.3901C44.02 62.3601 46.05 61.04 47.59 61.04C49.13 61.04 51.16 62.82 51.16 63.86V63.85Z" fill="white"/>
<path d="M51.1299 63.85C51.1299 64.88 52.8399 65.5201 54.3899 65.5201C55.9399 65.5201 58.2699 64.4201 58.2699 63.3901C58.2699 62.3601 56.2499 61.04 54.6999 61.04C53.1499 61.04 51.1299 62.82 51.1299 63.86" fill="white"/>
<path d="M58.25 62.7301C58.22 62.6701 58.2 62.6201 58.17 62.5801C58.14 62.5401 58.11 62.5101 58.09 62.4801C58.05 62.4201 58.03 62.4001 58.03 62.4001C58.03 62.4001 58.05 62.4301 58.09 62.4901C58.11 62.5201 58.13 62.5501 58.16 62.5901C58.19 62.6301 58.21 62.6801 58.23 62.7401C58.29 62.8601 58.32 63.0101 58.33 63.1901C58.33 63.3701 58.28 63.5601 58.17 63.7601C58.06 63.9501 57.91 64.1301 57.73 64.3001C57.54 64.4601 57.33 64.6101 57.09 64.7401C56.85 64.8701 56.59 64.9901 56.32 65.0801C56.05 65.1701 55.77 65.2501 55.49 65.3001C55.21 65.3601 54.92 65.3901 54.64 65.4101C54.35 65.4201 54.07 65.4101 53.81 65.3901C53.54 65.3701 53.29 65.3201 53.05 65.2601C52.81 65.2001 52.6 65.1201 52.4 65.0401C52.21 64.9501 52.03 64.8601 51.89 64.7701C51.74 64.6801 51.63 64.5801 51.53 64.5101C51.43 64.4301 51.37 64.3601 51.32 64.3201C51.27 64.2801 51.25 64.2501 51.25 64.2501L51.29 63.4001H51.02L51.06 64.2501C51.06 64.2501 51.03 64.2701 50.99 64.3201C50.94 64.3701 50.88 64.4401 50.78 64.5101C50.68 64.5801 50.57 64.6901 50.42 64.7701C50.28 64.8701 50.1 64.9601 49.91 65.0501C49.72 65.1401 49.49 65.2202 49.26 65.2802C49.02 65.3402 48.77 65.3901 48.5 65.4201C48.23 65.4501 47.95 65.4601 47.67 65.4401C47.38 65.4301 47.1 65.4001 46.81 65.3401C46.24 65.2301 45.69 65.0401 45.21 64.7701C44.97 64.6401 44.76 64.4801 44.57 64.3101C44.38 64.1501 44.24 63.9501 44.14 63.7601C44.03 63.5701 44 63.3701 43.99 63.1901C43.99 63.0101 44.03 62.8601 44.08 62.7501C44.12 62.6301 44.18 62.5401 44.22 62.4901C44.18 62.5501 44.12 62.6301 44.08 62.7501C44.02 62.8701 43.99 63.0201 43.98 63.2001C43.98 63.3801 44.01 63.5901 44.11 63.7901C44.21 63.9901 44.35 64.1901 44.54 64.3601C44.73 64.5401 44.94 64.7001 45.18 64.8401C45.65 65.1301 46.22 65.3401 46.79 65.4701C47.08 65.5401 47.37 65.5701 47.66 65.6001C47.95 65.6201 48.24 65.6201 48.52 65.6001C48.8 65.5801 49.07 65.5401 49.32 65.4801C49.57 65.4201 49.8 65.3401 50.01 65.2601C50.22 65.1701 50.41 65.0801 50.56 64.9801C50.72 64.8901 50.85 64.7901 50.95 64.7101C51.05 64.6401 51.12 64.5701 51.17 64.5201C51.22 64.5701 51.29 64.6301 51.39 64.7101C51.5 64.7901 51.62 64.8901 51.79 64.9801C51.95 65.0801 52.13 65.1701 52.34 65.2501C52.55 65.3301 52.78 65.4101 53.04 65.4601C53.29 65.5201 53.56 65.5601 53.84 65.5701C54.12 65.5901 54.41 65.5801 54.7 65.5701C54.99 65.5401 55.28 65.5001 55.57 65.4301C55.86 65.3701 56.14 65.2801 56.41 65.1701C56.68 65.0701 56.94 64.9401 57.18 64.8001C57.42 64.6601 57.63 64.5001 57.82 64.3301C58.01 64.1501 58.15 63.9601 58.26 63.7701C58.37 63.5701 58.4 63.3601 58.41 63.1901C58.41 63.0101 58.36 62.8601 58.3 62.7401L58.25 62.7301Z" fill="#3E2813"/>
<path d="M46.5999 63.3501C46.5999 63.4101 46.5499 63.4501 46.4899 63.4501C46.4299 63.4501 46.3899 63.4001 46.3899 63.3501C46.3899 63.3001 46.4399 63.2501 46.4899 63.2501C46.5499 63.2501 46.5999 63.3001 46.5999 63.3501Z" fill="#3E2813"/>
<path d="M47.65 62.0601C47.65 62.1101 47.6099 62.1501 47.5599 62.1501C47.4999 62.1501 47.46 62.1101 47.46 62.0601C47.46 62.0101 47.4999 61.9701 47.5599 61.9701C47.6099 61.9701 47.65 62.0101 47.65 62.0601Z" fill="#3E2813"/>
<path d="M48.24 63.3501C48.24 63.4201 48.18 63.4801 48.11 63.4801C48.04 63.4801 47.98 63.4201 47.98 63.3501C47.98 63.2801 48.04 63.2201 48.11 63.2201C48.18 63.2201 48.24 63.2801 48.24 63.3501Z" fill="#3E2813"/>
<path d="M55.6699 63.3601C55.6699 63.4201 55.72 63.4601 55.78 63.4601C55.84 63.4601 55.8799 63.4101 55.8799 63.3601C55.8799 63.3101 55.83 63.2601 55.78 63.2601C55.72 63.2601 55.6699 63.3101 55.6699 63.3601Z" fill="#3E2813"/>
<path d="M54.6199 62.0701C54.6199 62.1201 54.6599 62.1701 54.7099 62.1701C54.7599 62.1701 54.7999 62.1201 54.7999 62.0701C54.7999 62.0201 54.7599 61.9801 54.7099 61.9801C54.6599 61.9801 54.6199 62.0301 54.6199 62.0701Z" fill="#3E2813"/>
<path d="M54.03 63.3601C54.03 63.4301 54.09 63.4901 54.16 63.4901C54.23 63.4901 54.29 63.4301 54.29 63.3601C54.29 63.2901 54.23 63.2301 54.16 63.2301C54.09 63.2301 54.03 63.2901 54.03 63.3601Z" fill="#3E2813"/>
<path d="M50.5498 63.1302C50.5498 63.1302 49.8998 62.6002 48.9098 61.9302C48.0298 61.3502 48.1198 60.5902 48.1198 60.3202C48.1198 59.9802 49.0298 60.7602 50.0398 61.4202C50.7998 61.9202 50.5598 63.1402 50.5598 63.1402" fill="#3E2813"/>
<path d="M51.4799 63.3502C51.4799 63.3502 52.0799 62.7502 53.1299 62.1502C54.1799 61.5502 54.1699 60.8602 53.9899 60.5602C53.8199 60.2602 52.9899 61.0302 51.9799 61.6902C51.2199 62.1902 51.4799 63.3502 51.4799 63.3502Z" fill="#3E2813"/>
<path d="M54.1199 61.2101C53.9399 61.7301 53.9299 61.0901 53.4699 61.0501C53.0499 61.0201 52.2 61.6001 51.9 61.7401C51.69 61.8401 52.2399 63.3901 51.1599 63.3901C49.9899 63.3901 50.51 61.8201 50.31 61.7101C49.99 61.5201 49.2499 60.9901 48.7899 61.0001C48.4399 61.0001 48.33 61.6101 48.21 61.2701C47.35 58.8401 50.0799 60.9701 51.1199 60.9701C52.1599 60.9701 54.8499 59.0701 54.1199 61.2001" fill="#EF98B7"/>
<path d="M51.16 61.6501C50.09 61.6501 49.25 60.62 49.25 60.54C49.34 60.54 50.14 61.11 51.15 61.11C52.16 61.11 53 60.54 53.1 60.54C53.1 60.62 52.22 61.6501 51.15 61.6501" fill="#F3B6CB"/>
<path d="M42.8799 61.7401C43.3999 61.8601 43.9199 61.9801 44.4399 62.1101C44.6999 62.1701 44.9598 62.2301 45.2198 62.3001C45.4798 62.3801 45.7299 62.4601 45.9799 62.5701C45.7099 62.5501 45.4499 62.4901 45.1899 62.4301C44.9299 62.3701 44.6699 62.2801 44.4199 62.2101C43.9099 62.0601 43.3999 61.9101 42.8899 61.7501L42.8799 61.7401Z" fill="#3E2813"/>
<path d="M40.75 64.22L43.02 63.7101C43.4 63.6201 43.78 63.5301 44.16 63.4601C44.54 63.3901 44.92 63.33 45.31 63.29C44.94 63.42 44.56 63.5 44.18 63.6C43.8 63.68 43.42 63.7501 43.04 63.8201L40.75 64.2401V64.22Z" fill="#3E2813"/>
<path d="M42.95 65.6001L44.4299 64.6901C44.6799 64.5401 44.9199 64.3801 45.1799 64.2501C45.4399 64.1201 45.69 63.9801 45.96 63.8701C45.73 64.0601 45.4799 64.2101 45.2399 64.3701C44.9899 64.5201 44.7299 64.6501 44.4799 64.7901L42.95 65.6101V65.6001Z" fill="#3E2813"/>
<path d="M59.3901 61.7601C58.8801 61.9201 58.37 62.0701 57.85 62.2201C57.59 62.2901 57.3401 62.3801 57.0801 62.4401C56.8201 62.5001 56.56 62.5601 56.29 62.5901C56.54 62.4701 56.79 62.3901 57.05 62.3101C57.31 62.2301 57.5701 62.1801 57.8301 62.1201C58.3501 61.9901 58.8701 61.8701 59.3901 61.7501V61.7601Z" fill="#3E2813"/>
<path d="M61.5099 64.23L59.2199 63.8101C58.8399 63.7401 58.45 63.6801 58.08 63.5901C57.71 63.5001 57.32 63.41 56.95 63.3C57.34 63.33 57.7199 63.3901 58.0999 63.4601C58.4799 63.5301 58.8599 63.6201 59.2399 63.7001L61.5099 64.2101V64.23Z" fill="#3E2813"/>
<path d="M59.3098 65.6101L57.7798 64.7901C57.5298 64.6501 57.2698 64.5201 57.0198 64.3701C56.7698 64.2101 56.5298 64.0601 56.2998 63.8901C56.5698 63.9901 56.8298 64.1201 57.0798 64.2601C57.3398 64.4001 57.5798 64.5501 57.8298 64.7001L59.3098 65.6101Z" fill="#3E2813"/>
</svg>
