<svg width="102" height="102" viewBox="0 0 102 102" fill="none" xmlns="http://www.w3.org/2000/svg">
<path d="M92.87 0.419983H9.28C4.49169 0.419983 0.609985 4.30172 0.609985 9.09003V92.68C0.609985 97.4683 4.49169 101.35 9.28 101.35H92.87C97.6583 101.35 101.54 97.4683 101.54 92.68V9.09003C101.54 4.30172 97.6583 0.419983 92.87 0.419983Z" fill="#DBBD64"/>
<path d="M50.96 75.69C47.15 75.69 42.6 73.45 37.78 71.07C36.67 70.52 35.52 69.95 34.39 69.42L33.79 69.14C29.89 67.33 25.04 65.07 25.04 56.96C25.04 56.33 25.04 55.7 25.02 55.07V54.95C24.97 51.84 24.93 48.89 25.82 45.81C23.13 43.33 22.44 36.52 22.32 35.1C22.16 33.12 21.94 28.37 23.48 27.04C24.15 26.46 25.13 26.14 26.4 26.09C26.51 26.09 26.64 26.09 26.77 26.09C30.17 26.09 34.67 27.92 36.7 31.41C36.71 31.41 36.78 31.43 36.91 31.43C37.15 31.43 37.46 31.37 37.73 31.32H37.8C38.05 31.26 38.28 31.22 38.52 31.21C38.53 31.21 38.54 31.21 38.56 31.21C38.64 31.21 38.73 31.21 38.81 31.23C41.87 30.07 46.32 28.78 50.97 28.78C54.3 28.78 58.05 29.5 62.12 30.93H62.17C62.57 31.08 62.9 31.19 63.17 31.27C63.31 31.22 63.46 31.2 63.61 31.2C63.62 31.2 63.63 31.2 63.65 31.2C63.88 31.2 64.12 31.25 64.38 31.3H64.43C64.71 31.36 65.02 31.42 65.26 31.42C65.4 31.42 65.47 31.4 65.49 31.39C67.49 27.91 71.99 26.08 75.4 26.08C75.54 26.08 75.67 26.08 75.79 26.09C77.04 26.14 78.03 26.46 78.69 27.04C80.23 28.37 80.01 33.12 79.85 35.1C79.73 36.52 79.04 43.34 76.35 45.82C77.24 48.93 77.19 52 77.15 54.97V55.33C77.14 55.87 77.13 56.42 77.13 56.97C77.13 64.92 72.43 67.23 68.66 69.09L68.18 69.33C67.3 69.77 66.42 70.22 65.54 70.66C60.78 73.09 55.86 75.61 51.3 75.7C51.3 75.7 51.11 75.7 51.08 75.7H50.97L50.96 75.69Z" fill="#2F150C"/>
<path d="M75 45.04C76.87 43.88 78.06 39.15 78.4 34.98C78.71 31.18 78.29 28.61 77.73 28.13C77.32 27.78 76.6 27.56 75.69 27.52C75.59 27.52 75.49 27.52 75.38 27.52C72.46 27.52 68.4301 29.14 66.7001 32.13C66.4201 32.61 65.93 32.86 65.25 32.86C64.87 32.86 64.49 32.79 64.16 32.72C63.94 32.68 63.74 32.64 63.6 32.64C63.51 32.73 63.38 32.78 63.25 32.78C63.2 32.78 63.16 32.78 63.11 32.76C62.71 32.65 62.26 32.5 61.73 32.32L61.66 32.3C58.62 31.23 54.74 30.22 50.96 30.22C46.36 30.22 41.93 31.54 38.82 32.76C38.72 32.74 38.63 32.71 38.55 32.64C38.42 32.64 38.21 32.68 37.99 32.72C37.65 32.78 37.28 32.86 36.9 32.86C36.22 32.86 35.7301 32.61 35.4501 32.13C33.7201 29.14 29.68 27.52 26.77 27.52C26.66 27.52 26.56 27.52 26.46 27.52C25.55 27.56 24.8301 27.77 24.4201 28.13C23.8601 28.61 23.44 31.18 23.75 34.98C24.09 39.15 25.28 43.88 27.15 45.04C27.35 45.17 27.44 45.41 27.37 45.64C26.36 48.73 26.4001 51.75 26.4501 54.94C26.4501 55.61 26.47 56.28 26.47 56.96C26.47 64.53 30.93 66.21 35 68.13C40.84 70.88 46.63 74.26 50.96 74.26C50.99 74.26 51.01 74.26 51.04 74.26C51.04 74.26 51.06 74.26 51.07 74.26C51.09 74.26 51.11 74.26 51.12 74.26C51.17 74.26 51.21 74.26 51.26 74.26C56.28 74.17 61.94 70.81 67.52 68.04C71.44 66.1 75.68 64.33 75.68 56.97C75.68 56.29 75.6901 55.62 75.7001 54.95C75.7501 51.75 75.79 48.73 74.78 45.65C74.71 45.42 74.8 45.18 75 45.05V45.04Z" fill="#2F150C"/>
<path d="M75 45.04C76.87 43.88 78.06 39.15 78.4 34.98C78.71 31.18 78.29 28.61 77.73 28.13C77.27 27.74 76.44 27.52 75.38 27.52C72.46 27.52 68.4301 29.14 66.7001 32.13C66.4201 32.61 65.93 32.86 65.25 32.86C64.87 32.86 64.49 32.79 64.16 32.72C63.94 32.68 63.74 32.64 63.6 32.64C63.51 32.73 63.38 32.78 63.25 32.78C63.2 32.78 63.16 32.78 63.11 32.76C62.71 32.65 62.26 32.5 61.73 32.32L61.66 32.3C58.62 31.23 54.74 30.22 50.96 30.22C46.36 30.22 41.93 31.54 38.82 32.76C38.72 32.74 38.63 32.71 38.55 32.64C38.42 32.64 38.21 32.68 37.99 32.72C37.65 32.78 37.28 32.86 36.9 32.86C36.22 32.86 35.7301 32.61 35.4501 32.13C33.7201 29.14 29.68 27.52 26.77 27.52C25.71 27.52 24.8701 27.74 24.4201 28.13C23.8601 28.61 23.44 31.18 23.75 34.98C24.09 39.15 25.28 43.88 27.15 45.04C27.35 45.17 27.44 45.41 27.37 45.64C26.36 48.73 26.4001 51.75 26.4501 54.94C26.4501 55.61 26.47 56.28 26.47 56.96C26.47 64.53 30.93 66.21 35 68.13C40.84 70.88 46.63 74.26 50.96 74.26C51.06 74.26 51.16 74.26 51.26 74.26C56.28 74.17 61.94 70.81 67.52 68.04C71.44 66.1 75.68 64.33 75.68 56.97C75.68 56.29 75.6901 55.62 75.7001 54.95C75.7501 51.75 75.79 48.73 74.78 45.65C74.71 45.42 74.8 45.18 75 45.05" fill="#CCAE7A"/>
<path d="M50.9601 73.15C47.7401 73.15 43.4601 70.99 38.9201 68.71C37.8001 68.14 36.6401 67.56 35.4801 67L34.86 66.71C31.1 64.92 27.5501 63.23 27.5501 56.53C27.5501 55.86 27.5501 55.18 27.5301 54.51V54.45C27.4801 51.27 27.4401 48.27 28.4001 45.28C28.6201 44.61 28.3501 43.86 27.7401 43.48C26.4501 42.67 25.1901 38.59 24.8201 34.01C24.5201 30.33 24.9301 28.27 25.1801 27.84C25.3901 27.69 25.9201 27.52 26.7701 27.52C29.4201 27.52 33.0401 29.08 34.5101 31.68C34.9801 32.51 35.8301 32.97 36.9001 32.97C37.3801 32.97 37.8301 32.88 38.1901 32.82C38.2401 32.81 38.3 32.8 38.36 32.79C38.45 32.82 38.5401 32.84 38.6301 32.86L38.9401 32.91L39.2301 32.8C42.0901 31.65 46.4501 30.28 50.9601 30.28C54.0101 30.28 57.4801 30.97 61.2801 32.34L61.4201 32.39C61.9401 32.57 62.4001 32.72 62.8001 32.84C62.9401 32.88 63.0901 32.9 63.2401 32.9C63.4301 32.9 63.6201 32.87 63.8001 32.8C63.8501 32.8 63.8901 32.82 63.9301 32.83C64.3201 32.91 64.7701 32.99 65.2401 32.99C66.3101 32.99 67.1601 32.53 67.6301 31.7C69.1101 29.1 72.7301 27.54 75.3701 27.54C76.2201 27.54 76.7501 27.71 76.9601 27.86C77.2101 28.29 77.6201 30.35 77.3201 34.03C76.9501 38.62 75.7001 42.69 74.4001 43.5C73.7901 43.88 73.5201 44.62 73.7401 45.3C74.7001 48.3 74.6601 51.3 74.6101 54.47V54.71C74.6001 55.32 74.5901 55.93 74.5901 56.55C74.5901 63.11 71.1501 64.85 67.5101 66.68L67.0201 66.93C66.1301 67.38 65.2501 67.84 64.3601 68.3C59.8601 70.65 55.2001 73.08 51.2301 73.16H50.9501" fill="#DBBF86"/>
<path d="M30.11 52.15C30.11 52.15 35.06 62.39 39.31 62.39C42.56 62.39 46.62 60.73 46.62 60.73C46.62 60.73 48.34 43.67 38.93 43.12C34.69 42.87 30.11 52.15 30.11 52.15Z" fill="#E9CCA1"/>
<path d="M71.8801 52.15C71.8801 52.15 66.9301 62.39 62.6801 62.39C59.4301 62.39 55.3701 60.73 55.3701 60.73C55.3701 60.73 53.6501 43.67 63.0601 43.12C67.3001 42.87 71.8801 52.15 71.8801 52.15Z" fill="#E9CCA1"/>
<path d="M44.46 53.21C45.22 54.05 47.85 56.86 48.03 58.67C48.21 60.48 48.83 61.16 47.77 62.61C46.71 64.06 47.19 64.49 46.96 64.49C46.73 64.49 45.34 63.41 45.83 62.68C46.32 61.94 46.43 60.29 46.49 59.41C46.55 58.53 44.47 53.22 44.47 53.22" fill="#2B2316"/>
<path d="M57.68 52.85C56.92 53.69 54.29 56.86 54.12 58.67C53.94 60.48 53.32 61.16 54.38 62.61C55.44 64.06 54.96 64.49 55.19 64.49C55.42 64.49 56.81 63.41 56.32 62.68C55.83 61.94 55.72 60.29 55.67 59.41C55.61 58.53 57.69 52.86 57.69 52.86" fill="#2B2316"/>
<path d="M34.7001 45.36C34.7001 45.36 34.7101 45.32 34.7501 45.25C34.7901 45.18 34.8401 45.07 34.9201 44.95C35.0001 44.82 35.1101 44.68 35.2401 44.52C35.3801 44.37 35.5301 44.18 35.7301 44.02C35.8301 43.93 35.9301 43.85 36.0401 43.76C36.1601 43.68 36.2801 43.6 36.4001 43.51C36.5201 43.42 36.6701 43.36 36.8101 43.28C36.9501 43.21 37.1001 43.13 37.2601 43.08C37.5801 42.97 37.9101 42.85 38.2601 42.8C38.6101 42.72 38.9701 42.72 39.3401 42.72C39.7001 42.72 40.0601 42.81 40.4101 42.87C40.7501 42.97 41.0801 43.09 41.3801 43.21C41.6701 43.37 41.9501 43.53 42.2001 43.68C42.4401 43.85 42.6501 44.05 42.8401 44.21C42.9301 44.3 43.03 44.38 43.11 44.46C43.19 44.55 43.2601 44.64 43.3201 44.72C43.4501 44.88 43.5601 45.03 43.6401 45.15C43.8101 45.39 43.9001 45.54 43.9001 45.54C43.9001 45.54 43.7301 45.49 43.4601 45.37C43.3301 45.32 43.1601 45.25 42.9901 45.16C42.8201 45.07 42.6101 45 42.3901 44.92C42.1701 44.84 41.9401 44.73 41.7001 44.65C41.4501 44.58 41.1901 44.5 40.9301 44.41C40.6601 44.35 40.3901 44.3 40.1201 44.23C39.9801 44.22 39.8401 44.21 39.7001 44.19C39.5601 44.18 39.4201 44.14 39.2801 44.16C39.0001 44.16 38.7201 44.14 38.4401 44.18C38.3001 44.2 38.1601 44.18 38.0301 44.22C37.8901 44.25 37.7601 44.27 37.6301 44.29C37.4901 44.3 37.3701 44.36 37.2401 44.38C37.1101 44.41 36.98 44.44 36.86 44.48C36.61 44.56 36.3801 44.63 36.1601 44.71C35.9401 44.79 35.7501 44.88 35.5601 44.95C35.3901 45.04 35.2201 45.09 35.1001 45.16C34.9701 45.22 34.87 45.27 34.8 45.31C34.73 45.35 34.6901 45.36 34.6901 45.36H34.7001Z" fill="#302A13"/>
<path d="M67.13 45.36C67.13 45.36 67.09 45.34 67.02 45.31C66.95 45.27 66.85 45.23 66.72 45.16C66.6 45.1 66.43 45.04 66.26 44.95C66.08 44.88 65.88 44.79 65.66 44.71C65.45 44.62 65.21 44.55 64.96 44.48C64.84 44.44 64.71 44.41 64.58 44.38C64.45 44.35 64.32 44.3 64.19 44.29C64.05 44.27 63.92 44.25 63.79 44.22C63.66 44.19 63.51 44.2 63.38 44.18C63.1 44.14 62.82 44.15 62.54 44.16C62.4 44.15 62.26 44.18 62.12 44.19C61.98 44.21 61.84 44.22 61.7 44.23C61.43 44.3 61.15 44.35 60.89 44.41C60.63 44.5 60.37 44.58 60.12 44.65C59.88 44.74 59.65 44.84 59.43 44.92C59.21 45 59 45.07 58.83 45.17C58.66 45.26 58.49 45.32 58.36 45.37C58.09 45.48 57.92 45.54 57.92 45.54C57.92 45.54 58 45.39 58.18 45.15C58.27 45.03 58.37 44.88 58.5 44.72C58.57 44.64 58.63 44.55 58.71 44.47C58.79 44.39 58.88 44.31 58.98 44.22C59.17 44.06 59.38 43.86 59.62 43.69C59.87 43.54 60.15 43.37 60.44 43.22C60.75 43.09 61.08 42.98 61.41 42.88C61.76 42.82 62.12 42.74 62.48 42.73C62.84 42.73 63.21 42.73 63.56 42.81C63.92 42.85 64.24 42.97 64.56 43.09C64.72 43.14 64.86 43.22 65.01 43.29C65.15 43.37 65.29 43.43 65.42 43.52C65.54 43.61 65.67 43.68 65.78 43.77C65.89 43.86 65.99 43.94 66.09 44.03C66.29 44.19 66.44 44.38 66.58 44.53C66.71 44.69 66.82 44.83 66.9 44.96C66.98 45.08 67.04 45.19 67.08 45.26C67.12 45.33 67.13 45.37 67.13 45.37V45.36Z" fill="#302A13"/>
<path d="M46.6201 60.72C38.8101 64.44 33.3001 62.03 30.8301 52.38C30.8301 52.38 40.2301 45.08 45.2201 54.44C45.9901 55.9 46.6201 60.72 46.6201 60.72Z" fill="white"/>
<path d="M39.0701 61.34C36.9001 61.29 35.0801 59.58 34.3801 57.18C34.1601 56.45 34.0501 55.66 34.0701 54.83C34.1401 51.51 36.2101 50.32 38.8101 50.25C38.9701 50.25 39.14 50.24 39.3 50.25C42.13 50.31 44.28 53.25 44.33 55.06C44.43 58.59 41.9001 61.4 39.0701 61.34Z" fill="#FBBF3A"/>
<path d="M39.09 60.44C37.45 60.4 36 58.99 35.41 56.85C35.22 56.17 35.13 55.45 35.15 54.71C35.2 52.23 36.37 51.04 38.85 50.96C38.97 50.96 39.1 50.96 39.22 50.96H39.29C41.52 51.01 43.22 53.61 43.26 54.95C43.3 56.56 42.76 58.1 41.78 59.17C41.03 59.99 40.1 60.44 39.16 60.44H39.1" fill="#AF6C3E"/>
<path d="M55.3501 60.72C63.1601 64.44 68.6701 62.03 71.1401 52.38C71.1401 52.38 61.7401 45.08 56.7501 54.44C55.9801 55.9 55.3501 60.72 55.3501 60.72Z" fill="white"/>
<path d="M62.9001 61.34C65.0701 61.29 66.8901 59.58 67.5901 57.18C67.8101 56.45 67.9101 55.66 67.9001 54.83C67.8301 51.51 65.7601 50.32 63.1601 50.25C63.0001 50.25 62.8401 50.24 62.6701 50.25C59.8401 50.31 57.6901 53.25 57.6401 55.06C57.5401 58.59 60.0701 61.4 62.9001 61.34Z" fill="#FBBF3A"/>
<path d="M62.8101 60.44C61.8701 60.44 60.9401 59.99 60.1901 59.17C59.2101 58.1 58.6701 56.56 58.7101 54.95C58.7401 53.61 60.4501 51.01 62.6901 50.96H62.7501C62.8701 50.96 63.0001 50.96 63.1201 50.96C65.5901 51.04 66.7701 52.23 66.8101 54.7C66.8301 55.44 66.7401 56.16 66.5501 56.84C65.9601 58.98 64.5201 60.39 62.8701 60.43H62.8101" fill="#AF6C3E"/>
<path d="M39.41 53.51C39.37 55.65 37.94 57.35 36.22 57.32C35.44 57.3 34.75 56.93 34.21 56.34C34.02 55.7 33.92 55.01 33.94 54.28C34 51.37 35.81 50.33 38.09 50.26C38.91 50.97 39.43 52.16 39.4 53.51" fill="white"/>
<path d="M42.11 59.69C42.09 60.41 41.61 61 41.03 60.98C40.45 60.97 39.99 60.37 40 59.65C40.02 58.93 40.5 58.35 41.08 58.36C41.66 58.37 42.12 58.97 42.11 59.69Z" fill="white"/>
<path d="M62.7601 53.83C62.7201 55.97 61.2901 57.67 59.5701 57.64C58.7901 57.62 58.1 57.25 57.56 56.66C57.37 56.02 57.2801 55.33 57.2901 54.6C57.3501 51.69 59.1601 50.65 61.4401 50.58C62.2601 51.29 62.78 52.48 62.75 53.83" fill="white"/>
<path d="M65.67 59.69C65.65 60.41 65.17 61 64.59 60.98C64.01 60.97 63.55 60.37 63.56 59.65C63.58 58.93 64.06 58.35 64.64 58.36C65.22 58.37 65.68 58.97 65.66 59.69H65.67Z" fill="white"/>
<path d="M46.47 59.64C46.4 59.22 46.32 58.7 46.22 58.16C46.32 58.7 46.4 59.21 46.47 59.64ZM44.53 53.29C42.68 50.56 40.37 49.69 38.19 49.69C40.38 49.69 42.69 50.57 44.54 53.3" fill="#D4BA96"/>
<path d="M46.22 58.16C45.96 56.76 45.61 55.18 45.22 54.44C44.99 54.02 44.76 53.63 44.52 53.27C44.76 53.62 44.99 54.01 45.21 54.43C45.6 55.17 45.95 56.75 46.21 58.15" fill="#30291D"/>
<path d="M31.3 54.03C31.13 53.51 30.9701 52.96 30.8201 52.38C30.9701 52.95 31.1301 53.5 31.2901 54.03" fill="#D4BA96"/>
<path d="M45.2201 61.34C44.9701 59.96 44.6201 58.42 44.2401 57.7C44.1701 57.57 44.1001 57.44 44.0301 57.32C44.2501 56.62 44.3601 55.86 44.3401 55.06C44.2901 53.25 42.1401 50.31 39.3101 50.25H39.2301C39.1001 50.25 38.9601 50.25 38.8201 50.25C38.5901 50.25 38.3601 50.27 38.1401 50.3C38.1301 50.29 38.1101 50.27 38.1001 50.26C36.0401 50.32 34.3701 51.17 34.0101 53.47C33.0401 53.79 32.1801 54.2 31.4901 54.58C31.4301 54.4 31.3601 54.21 31.3001 54.03C31.1301 53.51 30.9701 52.96 30.8301 52.38C30.8801 52.34 34.0801 49.88 37.7301 49.68C37.8801 49.67 38.0301 49.67 38.1801 49.67C40.3701 49.67 42.6701 50.54 44.5201 53.27C44.7601 53.62 45.0001 54.02 45.2201 54.44C45.6101 55.17 45.9601 56.76 46.2201 58.16C46.3201 58.71 46.4001 59.22 46.4701 59.64C46.5701 60.29 46.6301 60.72 46.6301 60.72C46.5401 60.76 46.4501 60.81 46.3601 60.85C45.9801 61.03 45.6001 61.19 45.2301 61.34" fill="#E2E1E1"/>
<path d="M44.02 57.31C43.75 56.85 43.48 56.43 43.19 56.05C43.24 55.69 43.26 55.32 43.25 54.95C43.22 53.61 41.51 51.01 39.28 50.96H39.21C39.09 50.96 38.96 50.96 38.84 50.96C38.8 50.96 38.75 50.96 38.71 50.96C38.54 50.71 38.35 50.48 38.13 50.29C38.35 50.26 38.58 50.25 38.81 50.24C38.95 50.24 39.08 50.24 39.22 50.24H39.3C42.13 50.3 44.28 53.24 44.33 55.05C44.35 55.85 44.24 56.61 44.02 57.31Z" fill="#E3AF43"/>
<path d="M43.19 56.05C42.04 54.54 40.74 53.68 39.41 53.25C39.38 52.39 39.13 51.59 38.72 50.97C38.76 50.97 38.81 50.97 38.85 50.97C38.97 50.97 39.1 50.97 39.22 50.97H39.29C41.52 51.02 43.22 53.62 43.26 54.96C43.26 55.33 43.25 55.7 43.2 56.06" fill="#A56A42"/>
<path d="M34.01 53.47C34.36 51.17 36.04 50.32 38.1 50.26C38.11 50.27 38.13 50.28 38.14 50.3C38.36 50.49 38.55 50.72 38.72 50.97C39.13 51.6 39.39 52.39 39.41 53.25C38.67 53.02 37.92 52.92 37.19 52.92C36.08 52.92 34.99 53.15 34.01 53.47Z" fill="#E2E1E1"/>
<path d="M56.7501 61.34C56.4401 61.22 56.12 61.09 55.8 60.94C56.12 61.09 56.4401 61.22 56.7501 61.35" fill="#C8AF80"/>
<path d="M70.68 53.99C70.84 53.48 71 52.94 71.14 52.38C71 52.94 70.84 53.47 70.68 53.99ZM59.86 50.82C61.13 49.98 62.49 49.67 63.8 49.67C63.94 49.67 64.09 49.67 64.23 49.68C64.09 49.68 63.95 49.67 63.8 49.67C62.49 49.67 61.14 49.98 59.87 50.82" fill="#D4BA96"/>
<path d="M55.8001 60.94C55.6501 60.87 55.5001 60.8 55.3501 60.73C55.3501 60.73 55.9801 55.91 56.7501 54.45C56.9901 54.01 57.2301 53.6 57.4901 53.23C57.2401 53.61 56.9901 54.01 56.7601 54.45C55.9901 55.91 55.3601 60.73 55.3601 60.73C55.5101 60.8 55.6601 60.87 55.8101 60.94" fill="#30291D"/>
<path d="M56.7501 61.34C56.4401 61.21 56.1201 61.08 55.8001 60.93C55.6501 60.86 55.5001 60.79 55.3501 60.72C55.3501 60.72 55.9801 55.9 56.7501 54.44C56.9901 54 57.2301 53.59 57.4801 53.22C57.3701 53.62 57.3001 54.08 57.2901 54.59C57.2701 55.31 57.3701 56.01 57.5601 56.65C57.6501 56.75 57.7401 56.84 57.8401 56.92C57.8701 57.05 57.9101 57.18 57.9501 57.3C57.8801 57.42 57.8101 57.55 57.7401 57.68C57.3601 58.4 57.0101 59.94 56.7601 61.32M70.4801 54.58C69.7301 54.17 68.7801 53.72 67.7101 53.39C67.1401 51.15 65.3401 50.31 63.1501 50.24C63.0101 50.24 62.8801 50.24 62.7401 50.24H62.6601C62.0801 50.25 61.5301 50.38 61.0201 50.6C60.6101 50.64 60.2201 50.71 59.8601 50.82C61.1301 49.98 62.4801 49.67 63.7901 49.67C63.9301 49.67 64.0801 49.67 64.2201 49.68C67.8701 49.87 71.0801 52.34 71.1401 52.38C71.0001 52.94 70.8401 53.47 70.6801 53.99C70.6201 54.19 70.5501 54.39 70.4801 54.58Z" fill="#E2E1E1"/>
<path d="M57.9501 57.31C57.9101 57.18 57.8801 57.06 57.8401 56.93C57.9101 56.99 57.9901 57.06 58.0601 57.11C58.0201 57.17 57.9801 57.24 57.9401 57.31M67.7101 53.4C67.3401 53.29 66.9601 53.19 66.5701 53.11C66.1101 51.72 64.9801 51.03 63.1201 50.97C63.0001 50.97 62.8701 50.97 62.7501 50.97H62.6901C62.4201 50.97 62.1701 51.02 61.9201 51.09C61.7801 50.91 61.6201 50.74 61.4501 50.6C61.3101 50.6 61.1701 50.61 61.0301 50.62C61.5401 50.4 62.0901 50.27 62.6701 50.26H62.7501C62.8901 50.26 63.0201 50.26 63.1601 50.26C65.3501 50.32 67.1501 51.17 67.7201 53.41" fill="#E3AF43"/>
<path d="M62.74 53.2C62.65 52.38 62.36 51.65 61.92 51.08C62.17 51.01 62.43 50.97 62.69 50.96H62.75C62.87 50.96 63 50.96 63.12 50.96C64.98 51.02 66.1 51.71 66.57 53.1C65.99 52.99 65.39 52.92 64.78 52.92C64.1 52.92 63.42 53 62.74 53.2Z" fill="#A56A42"/>
<path d="M58.0701 57.11C57.9901 57.05 57.9201 56.99 57.8501 56.93C57.7501 56.85 57.6601 56.75 57.5701 56.66C57.3801 56.02 57.2901 55.33 57.3001 54.6C57.3101 54.09 57.3801 53.63 57.4901 53.23C58.2201 52.16 59.0201 51.39 59.8601 50.83C60.2201 50.72 60.6201 50.65 61.0201 50.61C61.1601 50.6 61.3001 50.59 61.4401 50.59C61.6101 50.73 61.7601 50.9 61.9101 51.08C62.3501 51.65 62.6401 52.39 62.7301 53.2C61.0601 53.68 59.4201 54.84 58.0601 57.11" fill="#E2E1E1"/>
<path d="M46.62 60.72C46.52 60.24 46.42 59.77 46.31 59.29C46.2 58.82 46.1 58.34 45.98 57.87C45.87 57.4 45.75 56.93 45.61 56.47C45.48 55.99 45.33 55.58 45.16 55.14C45.06 54.93 44.96 54.66 44.86 54.51L44.48 53.91C44.21 53.53 43.94 53.14 43.62 52.79C43.47 52.61 43.31 52.44 43.14 52.28C42.98 52.12 42.81 51.95 42.63 51.82C42.45 51.67 42.28 51.53 42.08 51.41C41.89 51.28 41.7 51.16 41.5 51.05C41.11 50.82 40.68 50.67 40.26 50.53C39.83 50.4 39.39 50.32 38.94 50.28C38.49 50.25 38.04 50.23 37.58 50.28C37.13 50.31 36.67 50.4 36.23 50.5C35.33 50.72 34.45 51.03 33.61 51.44C33.19 51.64 32.77 51.87 32.37 52.11C31.97 52.35 31.56 52.61 31.21 52.87L31.43 52.23L31.79 53.5C31.9 53.93 32.06 54.33 32.21 54.74C32.35 55.16 32.5 55.56 32.69 55.95C32.88 56.34 33.02 56.76 33.25 57.12C33.47 57.49 33.64 57.89 33.9 58.23C34.16 58.56 34.36 58.95 34.67 59.25C34.96 59.56 35.22 59.9 35.55 60.15L36.03 60.57L36.56 60.91C36.9 61.16 37.3 61.31 37.68 61.49C38.06 61.67 38.49 61.73 38.89 61.87C39.31 61.92 39.74 62.01 40.17 62.03C40.6 62.02 41.04 62.07 41.47 62.02C41.9 61.97 42.35 61.97 42.78 61.86C43.21 61.76 43.66 61.72 44.08 61.57C44.5 61.44 44.94 61.34 45.36 61.18L46.63 60.73L46.62 60.72ZM46.62 60.72L45.42 61.34C45.02 61.54 44.59 61.69 44.17 61.87C43.75 62.06 43.31 62.15 42.87 62.3C42.44 62.45 41.98 62.5 41.53 62.6C41.08 62.71 40.61 62.68 40.15 62.73C39.68 62.74 39.22 62.68 38.75 62.65C38.29 62.54 37.81 62.49 37.37 62.31C36.93 62.14 36.47 61.99 36.07 61.73L35.45 61.37L34.89 60.93C34.49 60.66 34.18 60.3 33.86 59.96C33.51 59.63 33.27 59.23 32.97 58.86C32.67 58.49 32.48 58.07 32.22 57.68C31.96 57.29 31.79 56.86 31.59 56.44C31.38 56.02 31.22 55.59 31.06 55.16C30.9 54.73 30.73 54.3 30.61 53.86L30.22 52.54L30.11 52.15L30.44 51.9C30.87 51.57 31.28 51.3 31.72 51.05C32.16 50.8 32.6 50.56 33.06 50.34C33.97 49.91 34.94 49.57 35.94 49.34C36.44 49.23 36.95 49.15 37.47 49.13C37.99 49.09 38.51 49.12 39.03 49.17C39.55 49.23 40.07 49.35 40.56 49.51C40.81 49.6 41.06 49.68 41.29 49.81C41.53 49.92 41.76 50.04 41.98 50.18C42.21 50.31 42.42 50.46 42.62 50.62C42.83 50.77 43.03 50.94 43.21 51.12C43.41 51.29 43.58 51.47 43.75 51.67C43.93 51.86 44.09 52.05 44.24 52.26C44.56 52.65 44.82 53.09 45.08 53.52L45.43 54.18C45.57 54.45 45.62 54.65 45.71 54.89C45.85 55.36 45.98 55.89 46.06 56.36C46.15 56.84 46.23 57.33 46.29 57.82C46.43 58.79 46.53 59.76 46.59 60.74L46.62 60.72Z" fill="#302A13"/>
<path d="M55.3501 60.7199C55.4101 59.7399 55.5101 58.77 55.6501 57.8C55.7201 57.31 55.7901 56.83 55.8801 56.34C55.9601 55.87 56.0901 55.34 56.2301 54.87C56.3301 54.63 56.3701 54.4299 56.5101 54.1599L56.8601 53.5C57.1201 53.07 57.3801 52.64 57.7001 52.24C57.8501 52.03 58.0101 51.84 58.1901 51.65C58.3601 51.46 58.5401 51.2699 58.7301 51.0999C58.9201 50.9199 59.1101 50.7499 59.3201 50.5999C59.5301 50.4399 59.7401 50.2899 59.9601 50.1599C60.1801 50.0199 60.4101 49.8899 60.6501 49.7899C60.8801 49.6599 61.1301 49.58 61.3801 49.49C61.8801 49.32 62.3901 49.21 62.9101 49.15C63.4301 49.1 63.9501 49.07 64.4701 49.11C64.9901 49.13 65.5001 49.21 66.0001 49.32C67.0001 49.55 67.9701 49.89 68.8801 50.32C69.3401 50.54 69.7901 50.77 70.2201 51.03C70.6601 51.29 71.0701 51.56 71.5001 51.88L71.8401 52.13L71.7301 52.52L71.3401 53.84C71.2201 54.28 71.0501 54.71 70.8901 55.14C70.7401 55.57 70.5701 56 70.3601 56.42C70.1501 56.84 69.9801 57.2599 69.7301 57.6599C69.4801 58.0499 69.2801 58.48 68.9801 58.84C68.6901 59.21 68.4501 59.61 68.1001 59.94C67.7701 60.28 67.4601 60.6399 67.0601 60.9099L66.5001 61.3499L65.8801 61.71C65.4801 61.97 65.0201 62.1199 64.5801 62.2899C64.1401 62.4699 63.6601 62.51 63.2001 62.63C62.7301 62.66 62.2601 62.72 61.8001 62.71C61.3401 62.66 60.8701 62.69 60.4201 62.58C59.9701 62.48 59.5101 62.43 59.0801 62.28C58.6501 62.13 58.2001 62.0399 57.7801 61.8499C57.3601 61.6699 56.9301 61.53 56.5301 61.32L55.3301 60.7L55.3501 60.7199ZM55.3501 60.7199L56.6201 61.17C57.0401 61.33 57.4801 61.43 57.9001 61.56C58.3201 61.7 58.7701 61.7499 59.2001 61.8499C59.6301 61.9599 60.0801 61.96 60.5101 62.01C60.9501 62.07 61.3801 62.01 61.8101 62.02C62.2401 62 62.6601 61.92 63.0901 61.86C63.4901 61.72 63.9201 61.66 64.3001 61.48C64.6901 61.3 65.0801 61.16 65.4201 60.9L65.9501 60.56L66.4301 60.14C66.7601 59.89 67.0301 59.54 67.3201 59.24C67.6201 58.95 67.8301 58.5499 68.0901 58.2199C68.3501 57.8799 68.5201 57.47 68.7401 57.11C68.9701 56.74 69.1101 56.33 69.3001 55.94C69.4901 55.55 69.6401 55.14 69.7801 54.73C69.9201 54.32 70.0901 53.92 70.2001 53.49L70.5601 52.2199L70.7801 52.86C70.4301 52.6 70.0201 52.3399 69.6201 52.0999C69.2201 51.8599 68.8101 51.64 68.3801 51.43C67.5401 51.02 66.6601 50.7 65.7601 50.49C65.3101 50.39 64.8601 50.3 64.4001 50.27C63.9501 50.22 63.4901 50.23 63.0401 50.27C62.5901 50.31 62.1501 50.39 61.7201 50.52C61.2901 50.66 60.8701 50.8099 60.4801 51.0399C60.2801 51.1399 60.0901 51.26 59.9001 51.4C59.7101 51.52 59.5301 51.66 59.3501 51.81C59.1701 51.95 59.0001 52.11 58.8401 52.27C58.6701 52.42 58.5101 52.6 58.3601 52.78C58.0401 53.12 57.7701 53.51 57.5001 53.9L57.1201 54.5C57.0201 54.65 56.9201 54.92 56.8201 55.13C56.6501 55.57 56.5001 55.99 56.3701 56.46C56.2301 56.92 56.1101 57.39 56.0001 57.86C55.8801 58.33 55.7801 58.81 55.6701 59.28C55.5601 59.76 55.4601 60.23 55.3601 60.71L55.3501 60.7199Z" fill="#302A13"/>
<path d="M28.39 44.42C26.98 43.79 25 41.66 24.92 33.86C24.88 30.42 25.2 29.93 25.63 29.41C26.06 28.9 28.2 29.19 28.75 29.3C33.22 30.16 34.37 32.96 35.17 34.04C35.97 35.12 38.73 36.48 37.01 36.84C33.58 37.57 30.2 41.3 29.83 41.87C29.46 42.44 28.4 44.41 28.4 44.41L28.39 44.42Z" fill="#D69891"/>
<path d="M73.77 44.43C75.18 43.79 77.16 41.67 77.25 33.87C77.29 30.43 76.97 29.94 76.54 29.43C76.11 28.92 73.97 29.21 73.42 29.32C68.95 30.18 67.8 32.98 67 34.06C66.2 35.14 63.44 36.5 65.16 36.86C68.59 37.59 71.98 41.32 72.34 41.89C72.71 42.46 73.77 44.44 73.77 44.44V44.43Z" fill="#D69891"/>
<path d="M55.76 66.49C55.05 65.99 55.1 65.21 54.88 65.1C54.78 65.05 52.02 66.43 51.07 66.44C50.12 66.43 47.38 65.14 47.28 65.19C47.07 65.3 47.06 65.99 46.36 66.49C45.65 66.99 44.59 68.53 44.45 69.85C44.31 71.21 44.77 71.78 45.09 72.36C45.41 72.93 49.45 74.24 51.05 74.26C52.65 74.25 56.7 72.82 57.02 72.25C57.34 71.68 57.63 71.27 57.62 69.92C57.62 68.59 56.45 67 55.75 66.5" fill="white"/>
<path d="M54.88 61.72C54.88 61.72 54.9 61.78 54.93 61.9C54.96 62.01 55.01 62.17 55.05 62.37C55.09 62.57 55.14 62.8 55.16 63.05C55.16 63.18 55.19 63.31 55.18 63.44C55.18 63.57 55.18 63.71 55.17 63.85C55.16 63.99 55.15 64.13 55.12 64.26C55.1 64.39 55.06 64.53 55.03 64.65C54.96 64.9 54.87 65.13 54.78 65.32C54.69 65.51 54.6 65.66 54.53 65.77C54.46 65.88 54.24 66 54.23 66.01L54.03 65.61C54.03 65.61 54.2 65.44 54.4 65.12C54.5 64.96 54.61 64.77 54.7 64.54C54.75 64.43 54.79 64.32 54.82 64.2C54.86 64.07 54.88 63.95 54.91 63.82C54.94 63.69 54.95 63.57 54.97 63.44C54.99 63.31 54.99 63.19 55 63.06C55 62.81 55 62.58 54.97 62.39C54.95 62.19 54.92 62.03 54.9 61.91C54.88 61.8 54.87 61.73 54.87 61.73L54.88 61.72Z" fill="#2B2316"/>
<path d="M47.26 61.72C47.26 61.72 47.25 61.78 47.23 61.9C47.21 62.01 47.18 62.18 47.16 62.38C47.14 62.58 47.13 62.81 47.13 63.05C47.13 63.17 47.13 63.3 47.16 63.43C47.18 63.56 47.19 63.68 47.22 63.81C47.25 63.94 47.27 64.06 47.31 64.19C47.35 64.31 47.39 64.42 47.43 64.54C47.52 64.76 47.63 64.96 47.73 65.12C47.93 65.44 48.11 65.62 48.1 65.61L47.91 66.01C47.91 66.01 47.67 65.88 47.6 65.77C47.53 65.67 47.45 65.51 47.36 65.32C47.27 65.13 47.18 64.9 47.11 64.65C47.08 64.53 47.04 64.39 47.02 64.26C47 64.13 46.98 63.99 46.97 63.85C46.95 63.71 46.96 63.58 46.96 63.44C46.96 63.31 46.97 63.17 46.98 63.05C47 62.8 47.05 62.57 47.09 62.37C47.14 62.17 47.18 62.01 47.22 61.9C47.25 61.79 47.27 61.72 47.27 61.72H47.26Z" fill="#2B2316"/>
<path d="M55.99 68.61C55.98 68.56 55.95 68.47 55.9 68.39C55.8 68.22 55.59 68.05 55.34 67.96C55.22 67.92 55.09 67.89 54.96 67.9C54.9 67.9 54.84 67.91 54.78 67.92C54.72 67.92 54.67 67.95 54.63 67.97C54.58 67.99 54.55 68.01 54.51 68.03C54.48 68.05 54.45 68.07 54.43 68.09C54.39 68.13 54.37 68.15 54.37 68.15C54.37 68.15 54.4 68.15 54.46 68.14C54.49 68.14 54.52 68.13 54.55 68.12C54.59 68.12 54.62 68.12 54.67 68.12H54.74C55 68.81 54.93 69.38 54.53 69.78C54 70.29 52.95 70.43 52.13 70.08C51.78 69.93 51.2 69.58 51.2 68.83V67.18H50.95V68.84C50.95 69.59 50.37 69.94 50.02 70.09C49.2 70.43 48.15 70.3 47.62 69.79C47.22 69.4 47.15 68.83 47.41 68.13H47.48C47.48 68.13 47.56 68.13 47.6 68.14C47.64 68.14 47.67 68.15 47.69 68.15C47.74 68.16 47.77 68.16 47.77 68.16C47.77 68.16 47.75 68.14 47.71 68.1C47.69 68.08 47.66 68.06 47.63 68.04C47.6 68.02 47.56 67.99 47.51 67.98C47.46 67.97 47.41 67.94 47.36 67.93C47.3 67.92 47.25 67.91 47.18 67.91C47.06 67.91 46.93 67.93 46.8 67.97C46.55 68.06 46.35 68.23 46.24 68.4C46.19 68.48 46.16 68.56 46.15 68.62C46.15 68.67 46.15 68.71 46.15 68.71C46.15 68.71 46.17 68.68 46.2 68.64C46.24 68.6 46.29 68.55 46.35 68.5C46.42 68.45 46.5 68.4 46.59 68.35C46.68 68.3 46.78 68.25 46.88 68.22C46.96 68.19 47.04 68.17 47.12 68.16C46.81 69.09 47.12 69.66 47.43 69.97C47.81 70.34 48.4 70.54 49.02 70.54C49.39 70.54 49.76 70.47 50.1 70.32C50.57 70.13 50.89 69.81 51.06 69.43C51.23 69.81 51.55 70.12 52.02 70.32C52.36 70.46 52.74 70.53 53.1 70.53C53.72 70.53 54.31 70.33 54.69 69.96C55.01 69.65 55.32 69.08 55 68.15C55.08 68.16 55.16 68.19 55.24 68.21C55.35 68.24 55.44 68.3 55.53 68.34C55.62 68.39 55.7 68.44 55.77 68.49C55.84 68.54 55.89 68.59 55.92 68.63C55.95 68.67 55.97 68.7 55.97 68.7C55.97 68.7 55.97 68.67 55.97 68.61H55.99Z" fill="#302A13"/>
<path d="M50.27 65.85C50.73 66.49 50.82 67.29 50.4 67.51C49.19 68.14 50.03 67.6 49.16 66.72C48.61 66.16 47.52 66 48.74 65.2C49.14 64.94 49.81 65.21 50.27 65.85Z" fill="#181818"/>
<path d="M51.9 65.85C51.44 66.49 51.35 67.29 51.77 67.51C52.98 68.14 52.14 67.6 53.01 66.72C53.56 66.16 54.65 66 53.43 65.2C53.03 64.94 52.36 65.21 51.9 65.85Z" fill="#181818"/>
<path d="M53.0101 64.13C52.7001 64.13 51.6901 64.38 51.4701 64.47C51.3801 64.51 51.14 64.53 51.08 64.54C51.01 64.54 50.7801 64.51 50.6801 64.47C50.4601 64.38 49.4501 64.14 49.1401 64.13C47.7801 64.1 47.7201 65.58 47.7901 65.86C47.7901 65.86 47.8701 66.08 48.1701 66.13C48.4701 66.18 48.1901 65.98 48.4101 65.77C48.6301 65.55 49.07 65.62 49.27 65.71C49.7 65.89 49.9401 66.36 49.9901 66.79C50.1101 67.81 49.4701 67.61 49.7601 68.08C49.8501 68.22 50.3401 68.47 50.9401 68.04C51.0201 67.98 51.06 67.84 51.08 67.69C51.1 67.84 51.1401 67.98 51.2201 68.04C51.8101 68.47 52.3101 68.23 52.4001 68.08C52.6901 67.6 52.0401 67.8 52.1701 66.79C52.2201 66.36 52.4601 65.9 52.8901 65.71C53.0901 65.62 53.5401 65.56 53.7501 65.77C53.9701 65.99 53.6901 66.19 53.9901 66.13C54.2901 66.08 54.3701 65.86 54.3701 65.86C54.4301 65.58 54.37 64.11 53.02 64.13" fill="#C17C67"/>
<path d="M54.9201 64.62C54.3801 66.57 56.5201 67.02 56.8101 67.86C57.1001 68.7 57.3401 70.69 57.3401 71.29C57.3401 71.85 57.0401 72.37 57.0401 72.37C57.0401 72.37 58.4001 71.76 58.5601 71.29C58.9101 70.31 58.3201 67.32 57.9401 66.95C57.5601 66.57 57.0101 67.11 56.7201 66.95C55.2501 66.15 54.9201 64.63 54.9201 64.63V64.62Z" fill="#2B2316"/>
<path d="M52.77 65.19C52.77 65.45 52.01 65.66 51.07 65.66C50.13 65.66 49.37 65.45 49.37 65.19C49.37 64.93 50.13 64.71 51.07 64.71C52.01 64.71 52.77 64.92 52.77 65.19Z" fill="white"/>
<path d="M51.06 65.66C50.12 65.66 49.36 65.45 49.36 65.19C49.36 64.93 50.12 64.71 51.06 64.71C52 64.71 52.76 64.92 52.76 65.19C52.76 65.46 52 65.66 51.06 65.66Z" fill="white"/>
<path d="M47.2201 64.62C47.7601 66.57 45.6201 67.02 45.3301 67.86C45.0401 68.7 44.8001 70.69 44.8001 71.29C44.8001 71.85 45.1001 72.37 45.1001 72.37C45.1001 72.37 43.7401 71.76 43.5701 71.29C43.2201 70.31 43.8101 67.32 44.1901 66.95C44.5701 66.57 45.1201 67.11 45.4101 66.95C46.8801 66.15 47.2101 64.63 47.2101 64.63L47.2201 64.62Z" fill="#2B2316"/>
<path d="M46.46 66.64C46.46 66.7 46.41 66.75 46.34 66.75C46.27 66.75 46.22 66.7 46.22 66.64C46.22 66.58 46.27 66.53 46.34 66.53C46.41 66.53 46.46 66.58 46.46 66.64Z" fill="#141314"/>
<path d="M48.01 67.07C48.01 67.13 47.96 67.18 47.89 67.18C47.82 67.18 47.77 67.13 47.77 67.07C47.77 67.01 47.82 66.96 47.89 66.96C47.96 66.96 48.01 67.01 48.01 67.07Z" fill="#141314"/>
<path d="M46.95 67.38C46.95 67.44 46.9 67.49 46.83 67.49C46.76 67.49 46.71 67.44 46.71 67.38C46.71 67.32 46.76 67.27 46.83 67.27C46.9 67.27 46.95 67.32 46.95 67.38Z" fill="#141314"/>
<path d="M45.36 67.28C45.36 67.34 45.31 67.4 45.25 67.4C45.19 67.4 45.13 67.35 45.13 67.28C45.13 67.22 45.18 67.17 45.25 67.17C45.32 67.17 45.36 67.22 45.36 67.28Z" fill="#141314"/>
<path d="M42.46 65.85C42.46 65.85 43.19 66.02 43.92 66.2C44.1 66.24 44.29 66.29 44.46 66.33C44.63 66.37 44.79 66.43 44.92 66.47C45.19 66.56 45.36 66.63 45.36 66.63C45.36 66.63 45.17 66.62 44.9 66.57C44.76 66.54 44.6 66.51 44.43 66.46C44.26 66.41 44.08 66.36 43.9 66.3C43.18 66.08 42.46 65.87 42.46 65.87V65.85Z" fill="#231F20"/>
<path d="M40.47 68.18C40.47 68.18 41.53 67.94 42.6 67.7C42.87 67.64 43.13 67.58 43.38 67.53C43.63 67.48 43.87 67.44 44.07 67.4C44.47 67.34 44.75 67.31 44.75 67.31C44.75 67.31 44.49 67.4 44.09 67.5C43.89 67.55 43.66 67.6 43.41 67.65C43.16 67.7 42.89 67.75 42.62 67.8C41.55 67.99 40.47 68.19 40.47 68.19V68.18Z" fill="#231F20"/>
<path d="M42.53 69.47C42.53 69.47 43.23 69.05 43.92 68.62C44.09 68.51 44.27 68.41 44.43 68.31C44.59 68.22 44.75 68.13 44.89 68.07C45.16 67.93 45.35 67.85 45.35 67.85C45.35 67.85 45.19 67.99 44.93 68.15C44.8 68.23 44.65 68.33 44.48 68.42C44.31 68.51 44.13 68.61 43.95 68.7C43.23 69.08 42.52 69.47 42.52 69.47H42.53Z" fill="#231F20"/>
<path d="M55.6801 66.64C55.6801 66.7 55.73 66.75 55.8 66.75C55.87 66.75 55.9201 66.7 55.9201 66.64C55.9201 66.58 55.87 66.53 55.8 66.53C55.73 66.53 55.6801 66.58 55.6801 66.64Z" fill="#141314"/>
<path d="M54.13 67.07C54.13 67.13 54.18 67.18 54.25 67.18C54.32 67.18 54.36 67.13 54.36 67.07C54.36 67.01 54.31 66.96 54.25 66.96C54.19 66.96 54.13 67.01 54.13 67.07Z" fill="#141314"/>
<path d="M55.1901 67.38C55.1901 67.44 55.2401 67.49 55.3101 67.49C55.3801 67.49 55.4301 67.44 55.4301 67.38C55.4301 67.32 55.3801 67.27 55.3101 67.27C55.2401 67.27 55.1901 67.32 55.1901 67.38Z" fill="#141314"/>
<path d="M56.78 67.28C56.78 67.34 56.83 67.4 56.89 67.4C56.95 67.4 57.01 67.35 57.01 67.28C57.01 67.22 56.96 67.17 56.89 67.17C56.82 67.17 56.78 67.22 56.78 67.28Z" fill="#141314"/>
<path d="M59.68 65.85C59.68 65.85 58.95 66.02 58.22 66.2C58.04 66.24 57.86 66.29 57.68 66.33C57.51 66.37 57.35 66.43 57.22 66.47C56.95 66.56 56.78 66.63 56.78 66.63C56.78 66.63 56.97 66.62 57.24 66.57C57.38 66.54 57.54 66.51 57.71 66.46C57.88 66.41 58.06 66.36 58.24 66.3C58.96 66.08 59.68 65.87 59.68 65.87V65.85Z" fill="#231F20"/>
<path d="M61.67 68.18C61.67 68.18 60.61 67.94 59.54 67.7C59.27 67.64 59.01 67.58 58.76 67.53C58.51 67.48 58.27 67.44 58.07 67.4C57.67 67.34 57.39 67.31 57.39 67.31C57.39 67.31 57.65 67.4 58.05 67.5C58.25 67.55 58.48 67.6 58.73 67.65C58.98 67.7 59.25 67.75 59.52 67.8C60.59 67.99 61.67 68.19 61.67 68.19V68.18Z" fill="#231F20"/>
<path d="M59.61 69.47C59.61 69.47 58.91 69.05 58.22 68.62C58.05 68.51 57.87 68.41 57.71 68.31C57.54 68.22 57.39 68.13 57.25 68.07C56.98 67.93 56.79 67.85 56.79 67.85C56.79 67.85 56.95 67.99 57.21 68.15C57.34 68.23 57.49 68.33 57.65 68.42C57.82 68.51 58 68.61 58.18 68.7C58.9 69.08 59.62 69.47 59.62 69.47H59.61Z" fill="#231F20"/>
</svg>
