<svg width="101" height="102" viewBox="0 0 101 102" fill="none" xmlns="http://www.w3.org/2000/svg">
<path d="M92.28 0.190002H8.69C3.90169 0.190002 0.0200195 4.07168 0.0200195 8.85999V92.45C0.0200195 97.2383 3.90169 101.12 8.69 101.12H92.28C97.0683 101.12 100.95 97.2383 100.95 92.45V8.85999C100.95 4.07168 97.0683 0.190002 92.28 0.190002Z" fill="#94A4A5"/>
<path d="M53.43 77.23C51.53 77.23 49.71 76.72 48.38 75.83C47.59 76.21 46.7 76.41 45.8 76.41C44.44 76.41 43.13 75.96 42.14 75.17C41.55 75.38 40.94 75.49 40.31 75.49C38.49 75.49 36.81 74.6 35.81 73.19C35.44 73.29 35.06 73.34 34.68 73.34C32.8 73.34 31.16 72.2 30.39 70.46C27.81 70.4 25.72 68.34 25.4 65.63C25.29 65.52 25.19 65.4 25.1 65.27C23.6 64.67 22.56 63.57 22.28 62.29C21.29 61.43 20.74 60.27 20.74 59.05C20.74 58.3 20.96 57.58 21.36 56.93C20.43 56.14 19.87 55.05 19.82 53.86C14.04 52.72 9.63997 49.38 7.03997 44.14C6.79997 43.66 6.90002 43.08 7.28002 42.7C7.32002 42.66 7.68998 42.3 8.35998 41.78C11.72 38.78 15.66 37.26 20.09 37.26C21.72 37.26 23.39 37.47 25.09 37.88C25.68 34.89 27.61 32.79 29.97 32.79C30.37 32.79 30.77 32.85 31.15 32.97C32.47 27.29 35.98 26.39 38.06 26.39C39.58 26.39 41.1 26.87 42.22 27.5C43.54 25.37 45.71 24.06 48.08 24.06C49.8 24.06 51.46 24.77 52.75 26.02C53.32 25.87 53.9 25.8 54.48 25.8C56.86 25.8 59.09 27.01 60.53 29.01C61.09 28.86 61.67 28.78 62.26 28.78C64.2 28.78 65.99 29.61 67.19 31.05C67.28 31.05 67.37 31.04 67.47 31.04C69.86 31.04 71.8 33.08 71.8 35.6C71.8 35.93 71.77 36.25 71.7 36.57C72.35 37.08 72.88 37.69 73.27 38.36C75.45 37.68 77.61 37.34 79.7 37.34C84.13 37.34 88.08 38.86 91.44 41.87C92.1 42.38 92.47 42.74 92.51 42.78C92.89 43.16 92.99 43.74 92.75 44.22C89.37 51.04 83.66 53.4 79.03 54.1C79.01 55.34 78.44 56.48 77.48 57.3C77.88 57.95 78.1 58.68 78.1 59.42C78.1 61.17 76.94 62.76 75.14 63.55C74.56 65.27 73.19 66.63 71.49 67.2C71.42 70.4 68.13 72.98 64.11 72.98C63.92 72.98 63.73 72.98 63.54 72.96C62.76 74.51 61.36 75.49 59.81 75.49C59.56 75.49 59.31 75.46 59.05 75.41C57.71 76.55 55.65 77.24 53.44 77.24L53.43 77.23Z" fill="#2F150C"/>
<path d="M91.6201 43.66C91.6201 43.66 91.2801 43.32 90.6301 42.83C84.2801 37.12 76.9801 38.31 72.5701 39.9C72.2301 38.75 71.3701 37.76 70.2001 37.07C70.4101 36.62 70.5302 36.13 70.5302 35.6C70.5302 33.77 69.1501 32.29 67.4501 32.29C67.1601 32.29 66.8901 32.35 66.6301 32.42C65.7401 30.99 64.1101 30.03 62.2501 30.03C61.4401 30.03 60.6801 30.21 60.0001 30.54C58.8901 28.46 56.8301 27.06 54.4701 27.06C53.7301 27.06 53.0201 27.21 52.3601 27.46C51.2901 26.14 49.7701 25.32 48.0701 25.32C45.6401 25.32 43.5701 27.01 42.6601 29.42C41.5401 27.97 33.5501 24.43 32.0901 34.73C32.0701 34.82 32.0901 34.92 32.0901 35.02C31.4801 34.4 30.7501 34.04 29.9501 34.04C27.9101 34.04 26.2501 36.45 26.1401 39.48C21.6801 38.1 15.0101 37.48 9.14014 42.75C8.49014 43.25 8.14014 43.6 8.14014 43.6C11.3101 50 16.6801 52.21 21.1801 52.84C21.1001 53.11 21.0401 53.39 21.0401 53.68C21.0401 55.01 21.9501 56.15 23.2701 56.65C22.4701 57.26 21.9701 58.12 21.9701 59.07C21.9701 60.09 22.5301 61.01 23.4301 61.63C23.4501 62.8 24.4701 63.81 25.9201 64.25C26.0601 64.54 26.2901 64.81 26.6001 65.03C26.6601 67.36 28.3801 69.22 30.5001 69.22C30.7601 69.22 31.0101 69.19 31.2601 69.14C31.6101 70.83 33.0001 72.1 34.6701 72.1C35.2801 72.1 35.8601 71.91 36.3601 71.61C36.9401 73.15 38.4801 74.25 40.3001 74.25C41.0601 74.25 41.7701 74.04 42.3901 73.7C43.1401 74.59 44.3801 75.17 45.7901 75.17C46.8201 75.17 47.7501 74.85 48.4801 74.33C49.5501 75.33 51.3601 75.99 53.4201 75.99C55.7101 75.99 57.7001 75.18 58.7001 73.98C59.0401 74.14 59.4001 74.25 59.7901 74.25C61.1401 74.25 62.2701 73.15 62.7101 71.61C63.1501 71.69 63.6201 71.73 64.0901 71.73C67.4801 71.73 70.2201 69.65 70.2201 67.09C70.2201 66.79 70.1801 66.5 70.1101 66.22C72.0901 66.03 73.6901 64.54 74.0801 62.6C75.6901 62.12 76.8301 60.88 76.8301 59.42C76.8301 58.47 76.3202 57.61 75.5302 57C76.8502 56.5 77.7701 55.36 77.7601 54.03C77.7601 53.68 77.6901 53.34 77.5701 53.02C82.2601 52.59 88.2101 50.55 91.6201 43.67V43.66Z" fill="#2F150C"/>
<path d="M91.2599 43.42C91.2599 43.42 90.9699 44.01 90.3499 44.9C90.3499 44.9 81.7999 36.41 67.3599 47.07C67.8599 45.35 68.3899 43.27 68.5299 41.8C68.5299 41.8 81.2399 33.59 91.2499 43.43L91.2599 43.42Z" fill="#C9C9C9"/>
<path d="M91.6199 43.66C91.6199 43.66 91.1599 43.19 90.2799 42.56C90.2799 42.56 84.9899 53.38 67.8599 48.04C68.8999 49.5 70.0799 51.3 70.6899 52.64C70.6899 52.64 85.3999 56.24 91.6299 43.66H91.6199Z" fill="#C9C9C9"/>
<path d="M90.3599 44.9C87.9899 48.27 80.7699 55.86 66.3699 50.25C66.3699 50.25 66.8599 48.85 67.3699 47.07C81.8099 36.41 90.3599 44.9 90.3599 44.9Z" fill="#ED9DB2"/>
<path d="M8.50977 43.34C8.50977 43.34 8.79974 43.93 9.41974 44.82C9.41974 44.82 17.9698 36.33 32.3998 46.99C31.8998 45.27 31.3697 43.19 31.2297 41.72C31.2297 41.72 18.5098 33.51 8.50977 43.35V43.34Z" fill="#C9C9C9"/>
<path d="M8.1499 43.58C8.1499 43.58 8.61987 43.11 9.48987 42.48C9.48987 42.48 14.7899 53.3 31.9199 47.96C30.8799 49.42 29.6999 51.22 29.0899 52.56C29.0899 52.56 14.3899 56.16 8.1499 43.58Z" fill="#C9C9C9"/>
<path d="M9.40991 44.82C11.7799 48.19 19 55.78 33.4 50.17C33.4 50.17 32.91 48.77 32.4 46.99C17.96 36.33 9.41992 44.82 9.41992 44.82H9.40991Z" fill="#ED9DB2"/>
<path d="M75.7599 54.19C75.7599 52.36 74.68 50.79 73.15 50.1C73.79 49.03 74.1799 47.57 74.1799 45.95C74.1799 43.99 73.6099 42.26 72.7299 41.18C72.7299 41.12 72.7299 41.06 72.7299 41.01C72.7299 39.4 71.73 37.97 70.2 37.07C70.41 36.62 70.53 36.13 70.53 35.6C70.53 33.77 69.15 32.29 67.45 32.29C67.16 32.29 66.8899 32.35 66.6299 32.42C65.7399 30.99 64.1099 30.03 62.2499 30.03C61.4399 30.03 60.6799 30.21 59.9999 30.54C58.8899 28.46 56.8299 27.06 54.4699 27.06C53.7299 27.06 53.0199 27.21 52.3599 27.46C51.2899 26.14 49.7699 25.32 48.0699 25.32C45.6399 25.32 43.5699 27.01 42.6599 29.42C41.5399 27.97 33.55 24.43 32.09 34.73C32.07 34.82 32.09 34.92 32.09 35.02C31.48 34.4 30.75 34.04 29.95 34.04C27.84 34.04 26.1299 36.61 26.1299 39.78C26.1299 40.99 26.3799 42.12 26.8099 43.05C25.6999 44.15 24.9899 45.85 24.9899 47.76C24.9899 49.41 25.52 50.91 26.39 52C24.7 52.46 23.4299 54.18 23.4299 56.23C23.4299 57.52 23.9299 58.67 24.7199 59.47C23.9299 60 23.4299 60.75 23.4299 61.58C23.4299 62.96 24.8 64.11 26.64 64.42C26.62 64.58 26.59 64.74 26.59 64.91C26.59 67.29 28.3399 69.22 30.4999 69.22C30.7599 69.22 31.0099 69.19 31.2599 69.14C31.6099 70.83 32.9999 72.1 34.6699 72.1C35.2799 72.1 35.8599 71.91 36.3599 71.61C36.9399 73.15 38.4799 74.25 40.2999 74.25C41.0599 74.25 41.77 74.04 42.39 73.7C43.14 74.59 44.3799 75.17 45.7899 75.17C46.8199 75.17 47.7499 74.85 48.4799 74.33C49.5499 75.33 51.3599 75.99 53.4199 75.99C55.7099 75.99 57.7 75.18 58.7 73.98C59.04 74.14 59.3999 74.25 59.7899 74.25C61.1399 74.25 62.27 73.15 62.71 71.61C63.15 71.69 63.62 71.73 64.09 71.73C67.48 71.73 70.2199 69.65 70.2199 67.09C70.2199 66.79 70.1799 66.5 70.1099 66.22C72.3899 66 74.1799 64.05 74.1799 61.68C74.1799 60.4 73.6599 59.24 72.8199 58.41C74.5299 57.81 75.77 56.15 75.77 54.19" fill="white"/>
<path d="M72.0898 55.74C72.0898 56.04 72.0797 56.34 72.0497 56.63C72.0497 56.74 72.0298 56.85 72.0198 56.95C70.9498 65.81 58.4898 72.83 50.0598 72.98C49.9698 72.98 49.8798 72.98 49.7798 72.98C42.5298 72.98 28.7698 65.93 27.5598 56.99C27.4998 56.57 27.4697 56.15 27.4697 55.73C27.4697 47.33 34.6697 37.73 34.6697 37.73C34.6697 37.73 41.9498 33.65 49.7798 33.65C57.1398 33.65 64.8898 37.73 64.8898 37.73C64.8898 37.73 72.0898 47.33 72.0898 55.73" fill="#C9C9C9"/>
<path d="M49.7799 72.99C46.4599 72.99 41.5198 71.08 37.4698 68.23C32.8198 64.97 29.8899 60.92 29.4199 57.12C29.3699 56.75 29.3499 56.36 29.3499 55.97C29.3499 48.36 34.7999 39.5 35.9899 37.66C37.4699 36.83 43.5099 33.66 49.7899 33.66C55.7099 33.66 62.0199 36.83 63.5999 37.68C64.8099 39.56 70.2299 48.39 70.2299 55.98C70.2299 56.26 70.2299 56.53 70.1999 56.8C70.1999 56.9 70.1799 57 70.1699 57.1C69.1999 65.95 57.2899 72.84 50.0399 72.98H50.0799H49.7999" fill="#D8D8D8"/>
<path d="M54.8398 62.13C53.0598 60.75 51.7798 57.86 50.0598 57.84C48.3298 57.86 47.0598 60.75 45.2798 62.13C43.2398 63.72 40.7998 63.95 40.7998 66.35C40.7998 68.75 43.0198 70.03 44.9498 71.11C46.7698 72.12 48.2798 72.86 50.0498 72.9C51.8198 72.87 53.3298 72.12 55.1498 71.11C57.0898 70.04 59.2998 68.64 59.2998 66.35C59.2998 64.06 56.8598 63.72 54.8198 62.13" fill="white"/>
<path d="M47.7998 63.89C47.1798 64.13 46.7598 64.44 46.4698 64.76C46.0898 65.19 45.9898 65.71 46.9198 65.97C47.8498 66.23 48.6799 66.67 48.9399 66.9C49.1999 67.13 49.4099 67.34 49.3699 66.88C49.3299 66.41 49.4899 66.18 48.9999 65.87C48.5099 65.56 48.0898 65.34 47.4198 65.19C46.7498 65.04 46.8999 65.11 46.8999 64.86C46.8999 64.61 47.8099 63.9 47.8099 63.9L47.7998 63.89Z" fill="#483C2C"/>
<path d="M54.3799 68.07C54.2899 68.17 54.1799 68.29 54.0399 68.41C53.9099 68.53 53.7399 68.66 53.5499 68.74C53.4499 68.78 53.3399 68.82 53.2299 68.85C53.1699 68.86 53.1099 68.87 53.0499 68.88C52.9899 68.88 52.9299 68.9 52.8599 68.9C52.5999 68.93 52.3299 68.94 52.0399 68.96C51.4699 68.98 50.8499 69 50.2399 69H49.8599C49.2499 69 48.6399 68.98 48.0699 68.96C47.7799 68.94 47.5099 68.93 47.2499 68.9C47.1899 68.9 47.1199 68.88 47.0599 68.88C46.9999 68.88 46.9399 68.86 46.8799 68.85C46.7699 68.82 46.6599 68.79 46.5599 68.74C46.3699 68.65 46.1999 68.53 46.0699 68.41C45.9399 68.29 45.8299 68.17 45.7399 68.07C45.5599 67.87 45.45 67.75 45.45 67.75C45.45 67.75 45.5299 67.88 45.6699 68.11C45.7399 68.22 45.84 68.36 45.96 68.51C46.08 68.66 46.24 68.82 46.46 68.94C46.57 69 46.6799 69.05 46.8199 69.1C46.8799 69.12 46.9399 69.14 47.0099 69.15C47.0799 69.17 47.14 69.18 47.21 69.19C47.48 69.24 47.7599 69.28 48.0499 69.31C48.6299 69.37 49.2499 69.4 49.8699 69.41C49.9399 69.41 49.9999 69.41 50.0599 69.41C50.1199 69.41 50.1899 69.41 50.2499 69.41C50.8699 69.41 51.4899 69.37 52.0699 69.31C52.3599 69.29 52.6399 69.24 52.9099 69.19C52.9799 69.18 53.0399 69.17 53.1099 69.15C53.1799 69.13 53.2399 69.12 53.2999 69.1C53.4299 69.05 53.54 69 53.65 68.94C53.87 68.82 54.03 68.66 54.15 68.51C54.27 68.36 54.3599 68.22 54.4399 68.11C54.5899 67.88 54.6699 67.75 54.6699 67.75C54.6699 67.75 54.5599 67.87 54.3799 68.07Z" fill="#483C2C"/>
<path d="M52.3298 63.89C52.9498 64.13 53.3798 64.44 53.6598 64.76C54.0398 65.19 54.1398 65.71 53.2098 65.97C52.2798 66.23 51.4498 66.67 51.1898 66.9C50.9298 67.13 50.7298 67.34 50.7598 66.88C50.7998 66.41 50.6398 66.18 51.1398 65.87C51.6298 65.56 52.0398 65.34 52.7198 65.19C53.3898 65.04 53.2398 65.11 53.2398 64.86C53.2398 64.61 52.3298 63.9 52.3298 63.9V63.89Z" fill="#483C2C"/>
<path d="M75.53 57C76.85 56.5 77.77 55.36 77.76 54.03C77.76 53.1 77.3 52.27 76.57 51.69C76.71 51.32 76.79 50.94 76.78 50.53C76.78 49.24 76 48.11 74.86 47.51C75.03 47.14 75.13 46.72 75.13 46.28C75.13 45.26 74.59 44.37 73.81 43.88C73.85 43.74 73.88 43.59 73.88 43.43C73.88 42.5 73.06 41.75 72.06 41.75C71.77 41.75 71.5 41.82 71.25 41.94C70.75 41.1 69.97 40.56 69.08 40.56C69.04 40.56 69 40.56 68.96 40.56C68.9 40.54 68.84 40.51 68.78 40.49C69.26 39.86 69.54 39.12 69.54 38.33C69.54 35.99 67.11 34.09 64.1 34.09C62.53 34.09 61.12 34.61 60.13 35.44C60.06 35.44 59.99 35.42 59.91 35.42C59.75 35.42 59.6 35.45 59.46 35.49C58.97 34.71 58.08 34.18 57.06 34.18C56.62 34.18 56.2 34.28 55.83 34.46C55.22 33.32 54.09 32.55 52.8 32.55C52.39 32.55 52 32.63 51.64 32.77C51.05 32.05 50.22 31.6 49.29 31.6C47.96 31.6 46.82 32.52 46.32 33.85C45.71 33.05 44.85 32.56 43.89 32.56C42.7 32.56 41.66 33.33 41.06 34.49C40.56 34.49 40.06 34.59 39.59 34.82C39.22 35 38.91 35.24 38.64 35.53C37.79 35.14 36.85 35.1 36.01 35.51C35.42 35.8 34.97 36.28 34.68 36.86C34.35 36.69 33.97 36.59 33.58 36.59C32.26 36.59 31.2 37.67 31.17 39.01C30.75 39.33 30.42 39.76 30.21 40.26C30.04 40.21 29.86 40.19 29.68 40.19C28.8 40.19 28.01 40.73 27.52 41.57C27.28 41.45 27.01 41.38 26.71 41.38C25.71 41.38 24.89 42.13 24.89 43.06C24.89 43.22 24.92 43.37 24.96 43.51C24.17 43.99 23.64 44.88 23.64 45.91C23.64 46.35 23.74 46.77 23.91 47.14C22.77 47.74 22 48.87 21.99 50.16C21.99 50.57 22.07 50.96 22.2 51.32C21.48 51.91 21.02 52.74 21.02 53.66C21.02 54.99 21.93 56.13 23.25 56.63C22.45 57.24 21.95 58.1 21.95 59.05C21.95 60.91 23.81 62.43 26.14 62.44C26.19 62.44 26.24 62.44 26.3 62.44C25.96 62.77 25.76 63.17 25.76 63.6C25.76 64.76 27.16 65.7 28.9 65.71C30.64 65.71 32.05 64.79 32.06 63.63C32.06 62.94 31.56 62.33 30.79 61.94C31.57 61.54 32.07 60.95 32.08 60.28C32.08 59.88 31.9 59.5 31.59 59.18C32.28 58.36 32.72 57.15 32.72 55.79C32.72 55.5 32.7 55.22 32.66 54.95C33.37 54.41 33.86 53.31 33.86 52.03C33.86 51.66 33.82 51.3 33.74 50.97C34.21 50.63 34.51 50.1 34.51 49.5C34.51 49.12 34.39 48.77 34.18 48.47C34.47 48.5 34.75 48.47 35 48.35C35.36 48.17 35.62 47.84 35.77 47.42C36.81 47.67 38.09 47.52 39.31 46.92C39.57 46.8 39.81 46.65 40.04 46.5C40.84 46.89 42.05 46.84 43.19 46.28C43.27 46.24 43.35 46.2 43.43 46.15C43.3 46.49 43.23 46.86 43.23 47.26C43.23 48.4 43.82 49.39 44.68 49.85C44.66 50 44.64 50.16 44.64 50.31C44.64 51.23 45.11 52.03 45.82 52.48C45.65 52.75 45.55 53.06 45.55 53.39C45.55 53.84 45.73 54.25 46.03 54.57C45.94 54.81 45.89 55.07 45.89 55.34C45.89 55.7 45.98 56.04 46.14 56.33C45.98 56.66 45.89 57.06 45.89 57.5C45.89 57.84 45.94 58.16 46.04 58.44C45.87 58.65 45.76 58.92 45.76 59.22C45.76 59.88 46.27 60.42 46.9 60.42C47.46 60.42 47.92 60 48.02 59.46C48.37 59.77 48.84 59.95 49.36 59.95C50.09 59.95 50.72 59.58 51.07 59.02C51.11 59.63 51.8 60.11 52.65 60.11C53.5 60.11 54.24 59.6 54.24 58.96C54.24 58.6 54.01 58.29 53.65 58.08C53.98 57.7 54.18 57.17 54.18 56.59C54.18 56.35 54.14 56.12 54.08 55.91C54.37 55.53 54.55 55.08 54.55 54.6C54.55 53.99 54.28 53.44 53.84 53C54.17 52.7 54.39 52.23 54.39 51.69C54.39 51.32 54.28 50.98 54.11 50.71H54.15C54.89 50.59 55.39 49.81 55.25 48.98C55.23 48.87 55.2 48.76 55.17 48.66C55.75 48.38 56.23 48 56.55 47.54C56.82 47.76 57.12 47.96 57.47 48.13C58.62 48.69 59.82 48.74 60.62 48.35C60.85 48.5 61.09 48.65 61.35 48.77C62.57 49.37 63.85 49.51 64.89 49.26C65.02 49.62 65.22 49.91 65.5 50.1C65.12 50.69 64.89 51.5 64.89 52.38C64.89 53.66 65.39 54.76 66.09 55.3C66.05 55.57 66.03 55.85 66.04 56.14C66.04 57.5 66.49 58.71 67.17 59.53C66.85 59.85 66.67 60.23 66.68 60.63C66.68 61.3 67.18 61.89 67.97 62.29C67.2 62.67 66.69 63.29 66.7 63.98C66.7 65.14 68.12 66.07 69.86 66.06C71.6 66.06 73 65.1 73 63.95C73 63.52 72.8 63.11 72.46 62.78C72.51 62.78 72.57 62.78 72.62 62.78C74.94 62.77 76.81 61.25 76.8 59.39C76.8 58.44 76.29 57.58 75.5 56.97" fill="white"/>
<path d="M31.6499 52.43C31.6499 52.43 35.9599 61.34 39.6499 61.34C42.4799 61.34 46.0099 59.89 46.0099 59.89C46.0099 59.89 47.5099 45.04 39.3199 44.57C35.6299 44.35 31.6399 52.43 31.6399 52.43" fill="#C9C9C9"/>
<path d="M68 52.43C68 52.43 63.69 61.34 60 61.34C57.17 61.34 53.64 59.89 53.64 59.89C53.64 59.89 52.14 45.04 60.33 44.57C64.02 44.35 68.01 52.43 68.01 52.43" fill="#C9C9C9"/>
<path d="M35.6399 46.52C35.6399 46.52 35.6499 46.49 35.6799 46.42C35.7099 46.36 35.7599 46.26 35.8299 46.16C35.8999 46.05 35.9999 45.92 36.1099 45.78C36.2299 45.65 36.3699 45.49 36.5399 45.34C36.6199 45.27 36.7099 45.19 36.8099 45.12C36.9099 45.05 37.0199 44.98 37.1299 44.9C37.2399 44.82 37.3599 44.77 37.4799 44.7C37.5999 44.64 37.7299 44.57 37.8699 44.52C38.1399 44.42 38.4299 44.32 38.7399 44.28C39.0399 44.21 39.3599 44.21 39.6799 44.21C39.9999 44.21 40.3099 44.29 40.6099 44.34C40.8999 44.43 41.1899 44.53 41.4599 44.64C41.7099 44.78 41.9499 44.92 42.1699 45.05C42.3799 45.2 42.5599 45.37 42.7299 45.51C42.8099 45.59 42.8899 45.66 42.9599 45.73C43.0299 45.8 43.0899 45.88 43.1499 45.95C43.2699 46.09 43.3499 46.22 43.4299 46.32C43.5799 46.53 43.6499 46.66 43.6499 46.66C43.6499 46.66 43.4999 46.61 43.2699 46.52C43.1499 46.47 43.0099 46.41 42.8599 46.34C42.7099 46.26 42.5299 46.2 42.3399 46.12C42.1499 46.05 41.9499 45.96 41.7399 45.89C41.5199 45.83 41.2999 45.76 41.0799 45.68C40.8499 45.63 40.6099 45.59 40.3699 45.53C40.2499 45.52 40.1299 45.51 39.9999 45.49C39.8799 45.48 39.7599 45.45 39.6299 45.46C39.3899 45.46 39.1399 45.44 38.8999 45.48C38.7799 45.5 38.6599 45.48 38.5399 45.52C38.4199 45.54 38.3099 45.56 38.1899 45.58C38.0699 45.59 37.9599 45.64 37.8499 45.66C37.7399 45.69 37.6299 45.71 37.5199 45.75C37.2999 45.82 37.0999 45.88 36.9099 45.96C36.7199 46.02 36.5499 46.1 36.3899 46.16C36.2399 46.23 36.0899 46.28 35.9799 46.34C35.8699 46.39 35.7798 46.44 35.7198 46.46C35.6598 46.49 35.6199 46.51 35.6199 46.51L35.6399 46.52Z" fill="#565656"/>
<path d="M63.8598 46.52C63.8598 46.52 63.8298 46.5 63.7598 46.47C63.6998 46.44 63.6098 46.4 63.4898 46.35C63.3798 46.29 63.2398 46.24 63.0898 46.17C62.9298 46.11 62.7598 46.03 62.5698 45.97C62.3898 45.9 62.1798 45.83 61.9598 45.76C61.8598 45.72 61.7398 45.7 61.6298 45.67C61.5098 45.65 61.4098 45.6 61.2898 45.59C61.1698 45.57 61.0598 45.55 60.9398 45.53C60.8198 45.5 60.6998 45.51 60.5798 45.49C60.3398 45.46 60.0998 45.47 59.8498 45.47C59.7298 45.46 59.6098 45.49 59.4798 45.5C59.3598 45.52 59.2398 45.52 59.1098 45.54C58.8698 45.6 58.6398 45.64 58.3998 45.69C58.1798 45.77 57.9498 45.84 57.7298 45.9C57.5198 45.97 57.3198 46.07 57.1298 46.14C56.9398 46.21 56.7598 46.27 56.6098 46.35C56.4598 46.42 56.3198 46.48 56.1998 46.53C55.9698 46.63 55.8198 46.67 55.8198 46.67C55.8198 46.67 55.8898 46.54 56.0398 46.33C56.1098 46.23 56.2098 46.1 56.3198 45.96C56.3798 45.89 56.4398 45.81 56.4998 45.74C56.5698 45.67 56.6498 45.6 56.7298 45.52C56.8998 45.37 57.0798 45.2 57.2898 45.05C57.5098 44.92 57.7498 44.78 57.9998 44.64C58.2698 44.53 58.5498 44.43 58.8498 44.34C59.1498 44.29 59.4598 44.22 59.7798 44.21C60.0998 44.21 60.4098 44.21 60.7198 44.28C61.0298 44.32 61.3198 44.42 61.5898 44.52C61.7298 44.57 61.8598 44.64 61.9798 44.7C62.0998 44.77 62.2298 44.82 62.3298 44.9C62.4398 44.97 62.5498 45.05 62.6498 45.12C62.7498 45.19 62.8398 45.27 62.9198 45.34C63.0898 45.48 63.2298 45.65 63.3498 45.78C63.4698 45.92 63.5598 46.05 63.6298 46.16C63.6998 46.27 63.7498 46.36 63.7798 46.42C63.8098 46.48 63.8198 46.52 63.8198 46.52H63.8598Z" fill="#565656"/>
<path d="M46.0098 59.89C39.2098 63.13 34.4198 61.03 32.2598 52.63C32.2598 52.63 40.4398 46.28 44.7798 54.42C45.4498 55.68 45.9998 59.88 45.9998 59.88" fill="white"/>
<path d="M53.5999 59.89C60.3999 63.13 65.1899 61.03 67.3499 52.63C67.3499 52.63 59.1699 46.28 54.8199 54.42C54.1499 55.68 53.5999 59.88 53.5999 59.88" fill="white"/>
<path d="M39.4398 60.42C37.5498 60.38 35.9698 58.88 35.3598 56.8C35.1698 56.17 35.0799 55.48 35.0899 54.76C35.1499 51.86 36.9499 50.83 39.2099 50.77C39.3499 50.77 39.4898 50.77 39.6298 50.77C42.0998 50.82 43.9698 53.39 44.0098 54.96C44.0898 58.03 41.8898 60.48 39.4298 60.43" fill="#ECB61E"/>
<path d="M39.46 59.64C38.03 59.61 36.77 58.38 36.26 56.52C36.09 55.92 36.02 55.3 36.03 54.66C36.07 52.5 37.09 51.46 39.25 51.4C39.36 51.4 39.47 51.4 39.57 51.4H39.63C41.57 51.44 43.05 53.71 43.08 54.87C43.12 56.27 42.6499 57.61 41.7899 58.55C41.1299 59.26 40.33 59.65 39.51 59.65H39.45" fill="#6C5221"/>
<path d="M60.1798 60.42C62.0698 60.38 63.6498 58.88 64.2598 56.8C64.4498 56.17 64.5398 55.48 64.5298 54.76C64.4698 51.86 62.6698 50.83 60.4098 50.77C60.2698 50.77 60.1298 50.77 59.9898 50.77C57.5198 50.82 55.6498 53.39 55.6098 54.96C55.5298 58.03 57.7298 60.48 60.1898 60.43" fill="#ECB61E"/>
<path d="M60.0999 59.64C59.2799 59.64 58.4699 59.25 57.8199 58.54C56.9699 57.61 56.4999 56.27 56.5299 54.87C56.5599 53.71 58.0399 51.44 59.9899 51.4H60.0399C60.1499 51.4 60.2599 51.4 60.3599 51.4C62.5099 51.47 63.5299 52.5 63.5799 54.66C63.5999 55.3 63.5199 55.93 63.3499 56.52C62.8399 58.39 61.5799 59.61 60.1499 59.64H60.0999Z" fill="#6C5221"/>
<path d="M39.7398 53.61C39.6998 55.47 38.4599 56.96 36.9599 56.93C36.2899 56.91 35.6799 56.59 35.2099 56.07C35.0399 55.51 34.9598 54.91 34.9798 54.28C35.0298 51.75 36.6099 50.84 38.5899 50.78C39.2999 51.4 39.7598 52.44 39.7398 53.61Z" fill="white"/>
<path d="M42.09 58.99C42.08 59.62 41.66 60.12 41.15 60.11C40.64 60.11 40.24 59.58 40.26 58.95C40.27 58.32 40.69 57.82 41.2 57.83C41.71 57.83 42.11 58.36 42.09 58.99Z" fill="white"/>
<path d="M60.0599 53.89C60.0199 55.75 58.7799 57.24 57.2799 57.2C56.6099 57.19 55.9999 56.86 55.5399 56.34C55.3699 55.78 55.2899 55.18 55.3099 54.55C55.3599 52.02 56.9399 51.11 58.9199 51.05C59.6299 51.67 60.0899 52.71 60.0599 53.88" fill="white"/>
<path d="M62.59 58.99C62.58 59.62 62.16 60.12 61.65 60.11C61.14 60.11 60.74 59.58 60.76 58.95C60.77 58.32 61.19 57.82 61.7 57.83C62.21 57.83 62.61 58.36 62.59 58.99Z" fill="white"/>
<path d="M44.7898 60.42C45.1798 60.26 45.5898 60.09 45.9898 59.9C45.5798 60.1 45.1798 60.27 44.7898 60.42Z" fill="#C5C5C5"/>
<path d="M46.0098 59.89C46.0098 59.89 45.4597 55.69 44.7897 54.43C43.2897 51.62 41.3397 50.54 39.4297 50.32C41.3497 50.54 43.2997 51.62 44.7997 54.43C45.4597 55.68 45.9998 59.77 46.0198 59.89M32.6597 54.01C32.5197 53.57 32.3898 53.11 32.2598 52.63C32.3798 53.11 32.5197 53.57 32.6597 54.01Z" fill="#B9B8B8"/>
<path d="M44.79 60.42C44.57 59.22 44.27 57.88 43.93 57.25C43.87 57.14 43.81 57.03 43.74 56.92C43.93 56.31 44.03 55.65 44.01 54.95C43.97 53.38 42.1 50.82 39.63 50.76H39.56C39.44 50.76 39.32 50.76 39.2 50.76C39 50.76 38.8 50.78 38.61 50.8C38.6 50.8 38.59 50.78 38.58 50.77C36.79 50.82 35.33 51.56 35.02 53.57C34.18 53.85 33.42 54.21 32.83 54.53C32.77 54.36 32.71 54.18 32.65 54C32.51 53.56 32.38 53.1 32.25 52.62C32.3 52.58 35.32 50.26 38.65 50.26C38.9 50.26 39.16 50.27 39.41 50.3C41.33 50.52 43.28 51.6 44.77 54.41C45.44 55.67 45.99 59.87 45.99 59.87C45.99 59.87 45.98 59.87 45.97 59.87C45.56 60.06 45.16 60.24 44.77 60.39" fill="#E2E1E1"/>
<path d="M43.7499 56.92C43.5199 56.52 43.2799 56.16 43.0299 55.82C43.0699 55.51 43.0899 55.19 43.0799 54.86C43.0499 53.7 41.5699 51.43 39.6299 51.39H39.5699C39.4599 51.39 39.3499 51.39 39.2499 51.39C39.2099 51.39 39.1799 51.39 39.1399 51.39C38.9899 51.17 38.8199 50.97 38.6299 50.8C38.8199 50.78 39.0198 50.77 39.2198 50.76C39.3398 50.76 39.4599 50.76 39.5799 50.76H39.6499C42.1199 50.81 43.9899 53.38 44.0299 54.95C44.0499 55.64 43.9499 56.31 43.7599 56.92" fill="#D7A72D"/>
<path d="M43.0299 55.83C42.0299 54.51 40.8899 53.76 39.7399 53.4C39.7199 52.65 39.4999 51.95 39.1399 51.41C39.1799 51.41 39.2099 51.41 39.2499 51.41C39.3599 51.41 39.4699 51.41 39.5699 51.41H39.6299C41.5699 51.45 43.0499 53.72 43.0799 54.88C43.0799 55.21 43.0799 55.53 43.0299 55.84" fill="#6A5326"/>
<path d="M35.0398 53.58C35.3498 51.58 36.7998 50.84 38.5998 50.78C38.6098 50.78 38.6198 50.8 38.6298 50.81C38.8198 50.98 38.9898 51.18 39.1398 51.4C39.4998 51.94 39.7198 52.64 39.7398 53.39C39.0998 53.18 38.4398 53.1 37.7998 53.1C36.8298 53.1 35.8898 53.3 35.0398 53.58Z" fill="#E2E1E1"/>
<path d="M54.8299 60.42C54.4299 60.26 54.0199 60.09 53.6099 59.89C54.0299 60.09 54.4299 60.27 54.8299 60.42Z" fill="#C5C5C5"/>
<path d="M53.5999 59.88C53.5999 59.88 53.5999 59.83 53.6099 59.79C53.6099 59.79 53.6099 59.87 53.5999 59.88Z" fill="#E2E1E1"/>
<path d="M53.6199 59.79C53.7099 59.13 54.2199 55.58 54.8299 54.43C55.0399 54.05 55.2498 53.69 55.4698 53.37C55.2498 53.69 55.0399 54.04 54.8299 54.43C54.2199 55.58 53.7099 59.14 53.6199 59.79Z" fill="#B9B8B8"/>
<path d="M54.8299 60.42C54.4299 60.26 54.0199 60.09 53.6099 59.89C53.6099 59.89 53.6099 59.84 53.6199 59.79C53.7099 59.14 54.2199 55.58 54.8299 54.43C55.0399 54.05 55.2498 53.69 55.4698 53.37C55.3698 53.72 55.3199 54.12 55.3099 54.56C55.2899 55.19 55.3799 55.79 55.5399 56.35C55.6099 56.43 55.6999 56.52 55.7799 56.59C55.8099 56.7 55.8399 56.81 55.8699 56.92C55.8099 57.03 55.7499 57.14 55.6899 57.25C55.3599 57.87 55.0599 59.22 54.8299 60.42Z" fill="#E2E1E1"/>
<path d="M55.8698 56.92C55.8398 56.81 55.8098 56.7 55.7798 56.59C55.8398 56.65 55.9097 56.7 55.9697 56.75C55.9397 56.81 55.8998 56.87 55.8698 56.92Z" fill="#D7A72D"/>
<path d="M66.9797 53.95C67.1097 53.53 67.2397 53.09 67.3497 52.64C67.2297 53.1 67.1097 53.53 66.9797 53.95ZM57.5298 51.28C58.3898 50.71 59.2898 50.42 60.1898 50.32C59.2998 50.42 58.3997 50.71 57.5397 51.28" fill="#B9B8B8"/>
<path d="M66.7698 54.55C66.1198 54.19 65.2897 53.8 64.3597 53.52C63.8697 51.57 62.2998 50.84 60.3998 50.78C60.2798 50.78 60.1597 50.78 60.0397 50.78H59.9697C59.4597 50.78 58.9897 50.9 58.5397 51.1C58.1797 51.13 57.8398 51.19 57.5298 51.29C58.3898 50.72 59.2897 50.43 60.1797 50.33C60.4397 50.3 60.6898 50.29 60.9398 50.29C64.2698 50.29 67.2898 52.61 67.3398 52.65C67.2198 53.11 67.0997 53.54 66.9697 53.96C66.8997 54.16 66.8398 54.37 66.7698 54.56" fill="#E2E1E1"/>
<path d="M64.3598 53.51C64.0398 53.41 63.7098 53.33 63.3698 53.26C62.9598 52.05 61.9898 51.45 60.3698 51.4C60.2598 51.4 60.1498 51.4 60.0498 51.4H59.9998C59.7698 51.4 59.5398 51.44 59.3298 51.5C59.2098 51.34 59.0698 51.2 58.9198 51.07C58.7998 51.07 58.6698 51.07 58.5498 51.09C58.9898 50.9 59.4698 50.78 59.9798 50.77H60.0498C60.1698 50.77 60.2898 50.77 60.4098 50.77C62.3098 50.83 63.8798 51.56 64.3698 53.51" fill="#D7A72D"/>
<path d="M60.0398 53.35C59.9598 52.64 59.7098 52 59.3298 51.5C59.5498 51.44 59.7698 51.4 59.9998 51.4H60.0498C60.1598 51.4 60.2698 51.4 60.3698 51.4C61.9898 51.45 62.9698 52.05 63.3698 53.26C62.8598 53.16 62.3398 53.1 61.8098 53.1C61.2198 53.1 60.6198 53.17 60.0298 53.34" fill="#6A5326"/>
<path d="M55.9699 56.75C55.8999 56.7 55.8399 56.65 55.7799 56.59C55.6999 56.51 55.6099 56.43 55.5399 56.35C55.3699 55.79 55.2899 55.19 55.3099 54.56C55.3099 54.11 55.3799 53.72 55.4699 53.37C56.1099 52.44 56.8099 51.76 57.5299 51.28C57.8499 51.18 58.1899 51.12 58.5399 51.09C58.6599 51.08 58.7799 51.07 58.9099 51.07C59.0599 51.2 59.1899 51.34 59.3199 51.5C59.6999 52 59.9599 52.64 60.0299 53.35C58.5699 53.77 57.1499 54.78 55.9599 56.75" fill="#E2E1E1"/>
<path d="M46.0099 59.89C45.9299 59.47 45.8299 59.06 45.7399 58.64C45.6499 58.23 45.5599 57.81 45.4599 57.4C45.3599 56.99 45.2599 56.58 45.1399 56.18C45.0299 55.77 44.8999 55.41 44.7499 55.02C44.6599 54.84 44.5799 54.5999 44.4799 54.4699L44.1499 53.95C43.9099 53.61 43.6799 53.28 43.3999 52.98C43.2699 52.82 43.1299 52.6699 42.9799 52.5399C42.8399 52.3999 42.6999 52.26 42.5399 52.14C42.3799 52.01 42.2299 51.88 42.0599 51.78C41.8999 51.66 41.7299 51.5599 41.5499 51.4699C41.2099 51.2699 40.8398 51.14 40.4698 51.02C40.0998 50.9 39.7099 50.84 39.3199 50.8C38.9299 50.77 38.5299 50.76 38.1399 50.8C37.7399 50.83 37.3499 50.91 36.9599 50.99C36.1799 51.18 35.4099 51.46 34.6799 51.81C34.3099 51.99 33.9499 52.18 33.5999 52.39C33.2499 52.6 32.8999 52.82 32.5899 53.05L32.7799 52.49L33.0999 53.59C33.1899 53.96 33.3299 54.31 33.4599 54.67C33.5799 55.03 33.7099 55.39 33.8799 55.73C34.0399 56.07 34.1699 56.43 34.3599 56.75C34.5499 57.07 34.6999 57.4199 34.9299 57.7199C35.1499 58.0099 35.3399 58.35 35.5999 58.61C35.8499 58.88 36.0799 59.18 36.3699 59.4L36.7899 59.76L37.2499 60.06C37.5499 60.28 37.8899 60.41 38.2299 60.56C38.5599 60.71 38.9299 60.78 39.2899 60.89C39.6599 60.94 40.0299 61.01 40.3999 61.03C40.7699 61.03 41.1599 61.06 41.5299 61.01C41.9099 60.96 42.2899 60.97 42.6699 60.87C43.0399 60.79 43.4299 60.75 43.7999 60.62C44.1699 60.51 44.5499 60.42 44.9099 60.28L46.0099 59.88V59.89ZM46.0099 59.89L44.9698 60.43C44.6198 60.6 44.2499 60.73 43.8799 60.89C43.5099 61.06 43.1299 61.14 42.7499 61.26C42.3799 61.39 41.9799 61.43 41.5899 61.52C41.1999 61.62 40.7899 61.59 40.3899 61.63C39.9799 61.63 39.5799 61.59 39.1699 61.56C38.7699 61.46 38.3598 61.42 37.9698 61.27C37.5898 61.12 37.1899 60.99 36.8399 60.76L36.2999 60.45L35.8099 60.07C35.4699 59.83 35.1999 59.52 34.9099 59.23C34.5999 58.94 34.3899 58.59 34.1399 58.27C33.8799 57.95 33.7099 57.58 33.4899 57.24C33.2699 56.9 33.1199 56.5199 32.9399 56.1599C32.7599 55.7999 32.6199 55.42 32.4799 55.05C32.3399 54.68 32.1899 54.3 32.0899 53.92L31.7499 52.77L31.6499 52.43L31.9399 52.21C32.3099 51.93 32.6699 51.6899 33.0599 51.4699C33.4399 51.2499 33.8299 51.04 34.2299 50.86C35.0299 50.48 35.8699 50.19 36.7399 49.99C37.1799 49.9 37.6199 49.83 38.0799 49.81C38.5299 49.78 38.9899 49.8 39.4299 49.84C39.8799 49.9 40.3299 49.99 40.7599 50.14C40.9799 50.21 41.1899 50.29 41.3999 50.4C41.6099 50.49 41.8099 50.5999 41.9999 50.7199C42.1999 50.8299 42.3799 50.9599 42.5599 51.0999C42.7399 51.2299 42.9099 51.38 43.0799 51.53C43.2499 51.68 43.3999 51.84 43.5499 52C43.7099 52.16 43.8499 52.33 43.9799 52.51C44.2599 52.86 44.4799 53.23 44.7099 53.61L45.0199 54.19C45.1399 54.43 45.1799 54.6 45.2699 54.8C45.3899 55.22 45.5099 55.67 45.5799 56.08C45.6599 56.5 45.7299 56.92 45.7799 57.34C45.8999 58.18 45.9899 59.03 46.0399 59.88L46.0099 59.89Z" fill="#5B5C5C"/>
<path d="M53.5999 59.89C53.6499 59.04 53.7399 58.19 53.8599 57.35C53.9199 56.93 53.9799 56.51 54.0599 56.09C54.1299 55.67 54.2399 55.22 54.3599 54.81C54.4399 54.6 54.4799 54.43 54.6099 54.2L54.9199 53.62C55.1399 53.25 55.3699 52.87 55.6499 52.52C55.7799 52.34 55.9199 52.17 56.0799 52.01C56.2299 51.85 56.3799 51.69 56.5499 51.54C56.7199 51.39 56.8799 51.24 57.0699 51.11C57.2499 50.97 57.4299 50.84 57.6299 50.73C57.8199 50.61 58.0199 50.5 58.2299 50.41C58.4299 50.3 58.6499 50.23 58.8599 50.15C59.2899 50 59.7399 49.91 60.1899 49.85C60.6399 49.8 61.0999 49.78 61.5499 49.82C61.9999 49.85 62.4499 49.91 62.8899 50C63.7599 50.2 64.5999 50.49 65.3999 50.87C65.7999 51.06 66.1899 51.26 66.5699 51.48C66.9499 51.7 67.3099 51.94 67.6799 52.22L67.9698 52.44L67.8699 52.78L67.5299 53.93C67.4299 54.31 67.2799 54.69 67.1399 55.06C67.0099 55.44 66.8599 55.81 66.6799 56.17C66.4999 56.53 66.3499 56.91 66.1299 57.25C65.9099 57.59 65.7399 57.96 65.4799 58.28C65.2199 58.6 65.0199 58.95 64.7099 59.24C64.4299 59.53 64.1499 59.85 63.8099 60.08L63.3199 60.46L62.7799 60.77C62.4299 61 62.0299 61.13 61.6499 61.28C61.2699 61.44 60.8499 61.48 60.4499 61.57C60.0399 61.59 59.6399 61.64 59.2299 61.64C58.8299 61.6 58.4199 61.62 58.0299 61.53C57.6399 61.44 57.2399 61.4 56.8599 61.27C56.4799 61.15 56.0999 61.06 55.7299 60.9C55.3599 60.75 54.9899 60.62 54.6399 60.44L53.5999 59.9V59.89ZM53.5999 59.89L54.7099 60.29C55.0799 60.42 55.4599 60.51 55.8199 60.63C56.1899 60.75 56.5699 60.8 56.9499 60.88C57.3199 60.98 57.7099 60.97 58.0899 61.02C58.4699 61.07 58.8498 61.02 59.2198 61.04C59.5898 61.02 59.9599 60.95 60.3299 60.9C60.6799 60.78 61.0499 60.72 61.3899 60.57C61.7199 60.42 62.0699 60.29 62.3699 60.07L62.8299 59.77L63.2499 59.41C63.5399 59.19 63.7699 58.89 64.0199 58.62C64.2799 58.36 64.4599 58.03 64.6899 57.73C64.9199 57.44 65.0599 57.08 65.2599 56.76C65.4599 56.44 65.5799 56.08 65.7399 55.74C65.9099 55.4 66.0399 55.04 66.1599 54.68C66.2899 54.32 66.4299 53.97 66.5199 53.6L66.8399 52.5L67.0299 53.06C66.7299 52.84 66.3699 52.61 66.0199 52.4C65.6699 52.19 65.3099 52 64.9399 51.82C64.2099 51.46 63.4399 51.19 62.6599 51C62.2699 50.92 61.8799 50.83 61.4799 50.81C61.0899 50.77 60.6899 50.78 60.2999 50.81C59.9099 50.84 59.5199 50.91 59.1499 51.03C58.7799 51.15 58.4099 51.29 58.0699 51.48C57.8899 51.57 57.7299 51.67 57.5599 51.79C57.3899 51.89 57.2399 52.02 57.0799 52.15C56.9199 52.27 56.7799 52.41 56.6399 52.55C56.4899 52.69 56.3498 52.84 56.2198 52.99C55.9398 53.29 55.7098 53.62 55.4698 53.96L55.1399 54.48C55.0499 54.61 54.9599 54.85 54.8699 55.03C54.7199 55.42 54.5899 55.78 54.4799 56.19C54.3599 56.6 54.2499 57 54.1599 57.41C54.0599 57.82 53.9699 58.23 53.8799 58.65C53.7899 59.07 53.6899 59.48 53.6099 59.9L53.5999 59.89Z" fill="#5B5C5C"/>
</svg>
