<svg width="102" height="102" viewBox="0 0 102 102" fill="none" xmlns="http://www.w3.org/2000/svg">
<path d="M92.67 0.77002H9.08002C4.29171 0.77002 0.410034 4.65171 0.410034 9.44002V93.03C0.410034 97.8183 4.29171 101.7 9.08002 101.7H92.67C97.4584 101.7 101.34 97.8183 101.34 93.03V9.44002C101.34 4.65171 97.4584 0.77002 92.67 0.77002Z" fill="#94A4A5"/>
<path d="M51.67 76.85C51.6 76.85 51.54 76.85 51.47 76.85H51.18C51.11 76.84 51.05 76.84 50.98 76.84L50.62 76.82C50.35 76.8 50.09 76.77 49.76 76.72H49.68C49.41 76.67 49.16 76.63 48.91 76.58L48.77 76.55C48.51 76.5 48.26 76.45 48 76.39L47.89 76.36C47 76.15 46.06 75.86 45.12 75.52L45.04 75.49C44.76 75.39 44.47 75.28 44.19 75.16L44.07 75.11C43.77 74.99 43.48 74.86 43.18 74.73L43.13 74.71C42.49 74.43 41.84 74.11 41.2 73.78L41.15 73.76C40.85 73.6 40.56 73.45 40.28 73.29L40.1 73.19C39.85 73.05 39.6 72.9 39.35 72.75L39.17 72.64C38.89 72.47 38.62 72.3 38.34 72.12L38.27 72.07C37.96 71.87 37.66 71.66 37.36 71.45L37.31 71.42C37.03 71.22 36.77 71.03 36.52 70.84L36.28 70.65C36.08 70.5 35.89 70.34 35.69 70.19C35.69 70.19 35.58 70.1 35.54 70.07L35.11 69.71C34.95 69.57 34.79 69.43 34.63 69.29L34.47 69.15C34.26 68.96 34.06 68.77 33.86 68.58L33.7 68.42C33.55 68.28 33.41 68.13 33.27 67.98C33.2 67.91 33.14 67.84 33.07 67.77C32.94 67.63 32.8 67.49 32.67 67.34L32.49 67.14C32.31 66.93 32.13 66.73 31.95 66.51C31.95 66.51 31.92 66.47 31.91 66.46C31.75 66.27 31.59 66.06 31.44 65.86C31.4 65.81 31.28 65.65 31.28 65.65C31.16 65.49 31.05 65.34 30.94 65.18C30.89 65.11 30.84 65.03 30.79 64.96C30.67 64.78 30.55 64.61 30.44 64.43L30.34 64.27C30.2 64.04 30.06 63.8 29.93 63.57L29.85 63.41C29.75 63.22 29.65 63.03 29.56 62.84C29.52 62.77 29.49 62.69 29.45 62.62C29.36 62.44 29.28 62.25 29.2 62.07L29.12 61.87C29.01 61.59 28.91 61.35 28.83 61.11C28.81 61.06 28.75 60.86 28.75 60.86C28.73 60.81 28.72 60.76 28.7 60.72C28.6 60.42 28.51 60.08 28.42 59.71C28.32 59.27 28.24 58.86 28.19 58.43C28.11 57.88 28.34 57.3 28.75 56.31C28.86 56.05 29.02 55.66 29.07 55.49C29.07 53.44 29.21 51.49 29.47 49.68C27.68 50.38 25.82 50.74 23.94 50.74C20.41 50.74 17.67 49.48 16.28 48.29C14.04 46.38 12.88 44.39 12.04 42.94C11.67 42.31 11.17 41.44 10.93 41.34C9.65999 40.95 9.44 40.15 9.41 39.71C9.35 38.54 10.55 37.86 11.27 37.56C11.29 37.55 11.32 37.54 11.34 37.53C14.93 36.29 18.37 35.66 21.57 35.66C27.49 35.66 31.34 37.81 33.29 39.28C33.33 39.22 33.38 39.16 33.42 39.1C32.68 33.85 33.79 27.73 39.09 25.68C39.24 25.62 39.4 25.59 39.56 25.59C39.92 25.59 40.27 25.74 40.52 26.01C40.88 26.4 40.97 26.98 40.75 27.46C40.75 27.46 40.53 27.94 40.23 28.88C40.01 29.58 39.68 31.99 39.93 33.72C41.19 33.16 42.58 32.73 44.14 32.41C44.38 31.98 44.67 31.55 45.02 31.09C46.07 29.72 47.89 29.05 50.57 29.05C52.81 29.05 55.23 29.53 56.83 29.84C57.32 29.94 57.86 30.04 58.15 30.08C58.28 29.81 58.37 29.21 58.37 28.82C58.37 28.23 58.75 27.7 59.32 27.54C59.44 27.51 59.56 27.49 59.68 27.49C60.13 27.49 60.57 27.73 60.81 28.13C61.04 28.51 62.17 30.49 62.11 31.97C62.09 32.43 62.04 32.86 61.95 33.25C62.46 33.43 62.94 33.62 63.41 33.82C63.68 32.09 63.35 29.61 63.11 28.88C62.81 27.94 62.59 27.46 62.59 27.45C62.37 26.97 62.46 26.39 62.83 26.01C63.08 25.74 63.43 25.6 63.79 25.6C63.95 25.6 64.11 25.63 64.26 25.69C69.57 27.74 70.68 33.86 69.93 39.11C70.06 39.29 70.18 39.47 70.3 39.65C72.46 37.9 76.6 35.54 83.1 35.54C85.77 35.54 88.64 35.95 91.61 36.74C91.64 36.74 91.66 36.75 91.69 36.76C92.43 37.01 93.67 37.6 93.7 38.77C93.7 39.21 93.54 40.03 92.3 40.51C92.07 40.63 91.63 41.53 91.31 42.19C90.57 43.7 89.56 45.76 87.46 47.83C86.05 49.22 82.97 50.85 78.95 50.85C77.26 50.85 75.58 50.56 73.93 49.99C74.16 51.7 74.28 53.54 74.29 55.47C74.35 55.61 74.48 55.88 74.58 56.06C74.94 56.76 75.25 57.37 75.18 58C75.17 58.12 75.16 58.25 75.14 58.37C75.14 58.41 75.13 58.47 75.12 58.52V58.57C75.06 59.05 75.01 59.44 74.94 59.73C74.85 60.11 74.76 60.44 74.66 60.75C74.62 60.88 74.58 61 74.54 61.13C74.54 61.14 74.53 61.17 74.52 61.18C74.03 62.67 73.29 64.14 72.33 65.54C70.81 67.75 68.68 69.86 66.16 71.64C62.02 74.57 57.03 76.5 52.8 76.8L52.39 76.82H52.07C52.07 76.82 51.99 76.83 51.95 76.83H51.66L51.67 76.85Z" fill="#2F150C"/>
<path d="M11.34 40.12C12.9 40.6 13.38 44.1 17.16 47.33C19.29 49.15 25.11 51.01 31.26 47.4C30.71 49.76 30.41 52.47 30.41 55.62C30.41 56.08 29.45 57.84 29.52 58.29C29.57 58.68 29.64 59.06 29.73 59.44C29.8 59.75 29.88 60.06 29.99 60.36C30 60.41 30.02 60.46 30.04 60.51C30.06 60.57 30.08 60.64 30.1 60.7C30.18 60.93 30.27 61.16 30.36 61.39C30.38 61.45 30.41 61.51 30.44 61.57C30.51 61.74 30.59 61.91 30.67 62.08C30.7 62.15 30.73 62.22 30.77 62.28C30.86 62.46 30.95 62.63 31.04 62.8C31.07 62.85 31.09 62.9 31.12 62.94C31.24 63.16 31.37 63.37 31.5 63.59C31.53 63.64 31.56 63.69 31.59 63.73C31.69 63.9 31.8 64.06 31.91 64.22C31.96 64.29 32.01 64.36 32.06 64.43C32.16 64.58 32.27 64.72 32.37 64.87C32.42 64.94 32.47 65 32.52 65.07C32.66 65.26 32.81 65.45 32.96 65.63C32.97 65.64 32.98 65.66 32.99 65.67C33.15 65.87 33.32 66.06 33.5 66.26C33.56 66.32 33.61 66.38 33.67 66.44C33.79 66.58 33.92 66.71 34.05 66.84C34.11 66.91 34.18 66.97 34.24 67.04C34.38 67.18 34.51 67.32 34.65 67.45C34.7 67.5 34.75 67.55 34.81 67.6C35 67.78 35.19 67.96 35.39 68.14C35.44 68.18 35.49 68.23 35.54 68.27C35.69 68.4 35.84 68.54 36 68.67C36.07 68.73 36.15 68.79 36.22 68.86C36.28 68.91 36.34 68.97 36.41 69.02C36.46 69.06 36.5 69.09 36.55 69.13C36.74 69.28 36.92 69.43 37.11 69.57C37.19 69.63 37.26 69.69 37.34 69.75C37.59 69.94 37.83 70.12 38.09 70.3C38.11 70.31 38.13 70.33 38.15 70.35C38.44 70.55 38.73 70.75 39.03 70.95C39.05 70.97 39.08 70.98 39.1 70.99C39.36 71.16 39.63 71.33 39.9 71.49C39.96 71.53 40.02 71.56 40.08 71.6C40.32 71.75 40.56 71.89 40.81 72.03C40.87 72.06 40.92 72.09 40.98 72.13C41.25 72.28 41.52 72.43 41.8 72.57C41.82 72.58 41.84 72.59 41.86 72.6C42.48 72.92 43.1 73.22 43.72 73.49C43.73 73.49 43.75 73.5 43.76 73.51C44.05 73.64 44.33 73.76 44.61 73.87C44.65 73.89 44.69 73.9 44.72 73.92C44.99 74.03 45.26 74.13 45.54 74.23C45.57 74.24 45.6 74.25 45.62 74.26C46.52 74.59 47.4 74.85 48.25 75.05C48.29 75.05 48.32 75.07 48.36 75.07C48.6 75.13 48.84 75.18 49.07 75.22C49.12 75.22 49.16 75.24 49.21 75.25C49.45 75.29 49.68 75.33 49.91 75.37C49.94 75.37 49.97 75.37 50 75.38C50.26 75.42 50.52 75.45 50.77 75.47L51.1 75.49C51.19 75.49 51.29 75.49 51.38 75.49C51.42 75.49 51.46 75.49 51.5 75.49C51.58 75.49 51.66 75.49 51.73 75.49H52.01H51.97C52.01 75.49 52.04 75.49 52.08 75.49C52.18 75.49 52.29 75.49 52.4 75.49C52.52 75.49 52.65 75.48 52.78 75.47C56.76 75.19 61.49 73.37 65.47 70.55C67.76 68.92 69.81 66.97 71.32 64.77C72.2 63.49 72.89 62.13 73.35 60.72C73.35 60.7 73.36 60.69 73.37 60.67C73.41 60.56 73.45 60.44 73.48 60.33C73.58 60.03 73.66 59.72 73.74 59.41C73.8 59.16 73.85 58.75 73.89 58.38C73.89 58.32 73.91 58.26 73.91 58.2C73.92 58.09 73.94 57.97 73.95 57.85C74.01 57.4 73.05 56.04 73.05 55.58C73.05 52.64 72.78 50.07 72.3 47.82C78.79 51.17 84.59 48.86 86.61 46.87C90.15 43.38 90.37 39.85 91.9 39.27C93.43 38.68 91.34 37.98 91.34 37.98C78.42 34.51 71.93 39.75 70.08 41.66C69.64 40.85 69.15 40.11 68.63 39.43C68.97 37.39 69.93 29.23 63.86 26.89C63.86 26.89 64.11 27.42 64.44 28.47C64.75 29.45 65.37 33.68 64.26 35.65C63.12 35.02 61.8 34.49 60.29 34.07C60.58 33.66 60.83 32.99 60.87 31.9C60.92 30.74 59.75 28.79 59.75 28.79C59.75 28.79 59.79 31.44 58.33 31.4C56.87 31.36 48.51 28.78 46.13 31.88C45.65 32.5 45.33 33.05 45.1 33.54C45.01 33.57 44.91 33.59 44.82 33.62C42.54 34.05 40.71 34.72 39.19 35.58C38.13 33.58 38.74 29.43 39.05 28.47C39.39 27.42 39.64 26.89 39.64 26.89C33.57 29.24 34.53 37.38 34.87 39.43C34.44 39.99 34.03 40.59 33.66 41.24C32.25 39.85 25.36 34.08 11.85 38.76C11.85 38.76 9.81999 39.61 11.39 40.08L11.34 40.12Z" fill="#2F150C"/>
<path d="M33.8901 41.56C33.8901 41.56 27.0801 33.5 11.8001 38.8C11.8001 38.8 9.77006 39.65 11.3401 40.12C12.9001 40.6 13.3801 44.1 17.1601 47.33C19.5001 49.32 26.2601 51.37 33.0401 46.21C39.8101 41.05 33.9001 41.57 33.9001 41.57L33.8901 41.56Z" fill="#3D3C3E"/>
<path d="M19.97 47.7799C18.81 47.3699 18.21 46.9099 18.06 46.7699C16.17 45.1599 15.2 43.4899 14.34 42.0199C14.31 41.9799 14.29 41.93 14.26 41.89C19.1 40.7 23.52 40.75 27.21 42.04C30.34 43.14 31.94 44.7899 32.11 44.9699L32.15 45.0199C32 45.1399 31.83 45.2699 31.66 45.3999C26.4 49.4099 21.73 48.3999 19.97 47.7799Z" fill="#EAB4AB"/>
<path d="M69.4501 42.3499C69.4501 42.3499 75.6701 33.8299 91.2901 38.0199C91.2901 38.0199 93.3701 38.7199 91.8501 39.3099C90.3201 39.8999 90.1001 43.4299 86.5601 46.9099C84.3701 49.0699 77.7701 51.5899 70.6401 46.9199C63.5201 42.2499 69.4601 42.3499 69.4601 42.3499H69.4501Z" fill="#3D3C3E"/>
<path d="M83.7801 47.5699C84.9101 47.0799 85.4701 46.5699 85.6201 46.4299C87.3901 44.6899 88.2401 42.9499 88.9901 41.4199C89.0101 41.3699 89.0301 41.3299 89.0601 41.2799C84.1501 40.4399 79.7401 40.7999 76.1501 42.3499C73.1101 43.6699 71.6301 45.4299 71.4701 45.6199L71.4301 45.6699C71.5901 45.7799 71.7601 45.8899 71.9501 46.0199C77.4801 49.6399 82.0701 48.2999 83.7801 47.5599V47.5699Z" fill="#EAB4AB"/>
<path d="M73.8901 57.8799C73.8901 57.9999 73.87 58.1199 73.85 58.2299C73.8 58.6499 73.74 59.0498 73.65 59.4598C73.58 59.7698 73.5 60.0899 73.41 60.3899C70.98 68.6299 60.43 74.9498 52.72 75.4998C52.59 75.4998 52.46 75.5098 52.34 75.5198C52.21 75.5198 52.0801 75.5198 51.9501 75.5298C51.8601 75.5298 51.7601 75.5298 51.6701 75.5298C51.4601 75.5298 51.2501 75.5299 51.0401 75.5099L50.71 75.4898C46.58 75.1398 40.85 72.7099 36.37 69.0399C33.51 66.6899 31.17 63.8399 30.08 60.6999C30.04 60.5899 30 60.4698 29.97 60.3598C29.87 60.0598 29.79 59.7498 29.71 59.4398C29.62 59.0598 29.55 58.6799 29.5 58.2899C29.44 57.8399 30.3901 56.0698 30.3901 55.6198C30.3901 48.0398 32.13 42.9099 34.87 39.3899C35.41 38.6999 35.98 38.0698 36.59 37.4898C39.49 34.7598 43.85 33.0798 51.66 33.0798C59 33.0798 63.8001 34.7998 66.7301 37.4898C70.4801 40.9398 72.93 46.5398 72.93 55.6098C72.93 55.9298 73.9 57.5599 73.88 57.8799" fill="#E1E1E1"/>
<path d="M51.6701 75.5399C48.3601 75.5399 43.4301 73.4499 39.3901 70.3399C34.7501 66.7699 32.4801 62.35 32.0101 58.2C31.9601 57.79 31.9401 57.37 31.9401 56.95C31.9401 48.64 36.3001 38.5899 37.9101 36.9299C39.1301 35.6699 45.4101 32.5499 51.6701 32.5499C57.5701 32.5499 64.1401 35.63 65.4401 36.95C67.1001 38.62 71.4001 48.66 71.4001 56.95C71.4001 57.25 71.4001 57.5599 71.3701 57.8499C71.3701 57.9599 71.3501 58.0699 71.3401 58.1799C70.3701 67.8499 59.1401 75.3799 51.9101 75.5299H51.9501H51.6701" fill="#F3F3F3"/>
<path d="M32.65 53.1099C32.65 53.1099 37.17 62.45 41.04 62.45C44.01 62.45 47.71 60.9299 47.71 60.9299C47.71 60.9299 49.28 45.3599 40.7 44.8599C36.83 44.6399 32.65 53.1 32.65 53.1" fill="#E1E1E1"/>
<path d="M49.81 56.4399C49.05 59.8099 49.19 61.8399 47.84 62.4599C46.48 63.0799 43.04 64.3799 41.15 66.4099C40.26 67.3599 37.92 67.9499 36.38 69.0499C33.52 66.6999 31.18 63.8499 30.09 60.7099C30.05 60.5999 30.0101 60.4799 29.9801 60.3699C29.8801 60.0699 29.8 59.7599 29.72 59.4499C29.63 59.0699 29.5601 58.6899 29.5101 58.2999C29.4501 57.8499 30.4 56.0799 30.4 55.6299C30.4 48.0499 32.14 42.9199 34.88 39.3999C38.82 39.4599 46.7601 39.9899 48.3901 43.2399C50.5701 47.5999 50.57 53.0799 49.81 56.4499" fill="#3D3C3E"/>
<path d="M70.7701 53.1099C70.7701 53.1099 66.2501 62.4599 62.3801 62.4599C59.4101 62.4599 55.7101 60.9399 55.7101 60.9399C55.7101 60.9399 54.1401 45.3699 62.7201 44.8699C66.5901 44.6499 70.7701 53.1099 70.7701 53.1099Z" fill="#E1E1E1"/>
<path d="M36.8401 46.9199C36.8401 46.9199 36.8501 46.8799 36.8901 46.8199C36.9301 46.7599 36.9701 46.6599 37.0501 46.5499C37.1201 46.4299 37.2201 46.2999 37.3401 46.1499C37.4701 46.0099 37.6101 45.8399 37.7901 45.6899C37.8801 45.6099 37.9801 45.5299 38.0801 45.4499C38.1801 45.3799 38.3001 45.2999 38.4101 45.2299C38.5201 45.1499 38.6501 45.0899 38.7801 45.0199C38.9101 44.9599 39.0401 44.8799 39.1901 44.8299C39.4801 44.7299 39.7801 44.6199 40.1001 44.5799C40.4201 44.5099 40.7501 44.5099 41.0901 44.5099C41.4201 44.5099 41.7501 44.5899 42.0701 44.6399C42.3801 44.7399 42.6801 44.8399 42.9601 44.9599C43.2301 45.0999 43.4801 45.2499 43.7101 45.3899C43.9301 45.5499 44.1201 45.7199 44.3001 45.8799C44.3901 45.9599 44.4701 46.0299 44.5501 46.1099C44.6201 46.1899 44.6801 46.2699 44.7401 46.3399C44.8601 46.4899 44.9601 46.6199 45.0301 46.7299C45.1901 46.9499 45.2601 47.0799 45.2601 47.0799C45.2601 47.0799 45.1101 47.0299 44.8601 46.9299C44.7401 46.8799 44.5901 46.8199 44.4301 46.7399C44.2701 46.6599 44.0801 46.5899 43.8801 46.5199C43.6801 46.4499 43.4701 46.3499 43.2501 46.2699C43.0201 46.2099 42.7901 46.1299 42.5501 46.0499C42.3001 45.9999 42.0501 45.9499 41.8101 45.8899C41.6801 45.8799 41.5501 45.8699 41.4301 45.8499C41.3001 45.8399 41.1701 45.8099 41.0501 45.8199C40.7901 45.8199 40.5401 45.7999 40.2901 45.8399C40.1701 45.8599 40.0301 45.8399 39.9101 45.8799C39.7901 45.8999 39.6601 45.9299 39.5401 45.9399C39.4201 45.9499 39.3001 45.9999 39.1801 46.0199C39.0601 46.0499 38.9401 46.0699 38.8401 46.1099C38.6101 46.1799 38.4001 46.2499 38.2101 46.3199C38.0101 46.3899 37.8301 46.4699 37.6601 46.5299C37.5101 46.6099 37.3501 46.6599 37.2401 46.7199C37.1201 46.7799 37.0301 46.8199 36.9701 46.8499C36.9001 46.8799 36.8701 46.8999 36.8701 46.8999L36.8401 46.9199Z" fill="#171617"/>
<path d="M53.59 56.4399C54.35 59.8099 54.21 61.8399 55.56 62.4599C56.92 63.0799 59.5601 63.9199 61.4501 65.9499C62.3401 66.8999 65.49 67.9399 67.03 69.0499C69.89 66.6999 72.23 63.8499 73.32 60.7099C73.36 60.5999 73.4 60.4799 73.43 60.3699C73.53 60.0699 73.61 59.7599 73.69 59.4499C73.78 59.0699 73.85 58.2799 73.9 57.8899C73.96 57.4399 73 56.0799 73 55.6199C73 48.0399 71.26 42.9099 68.52 39.3899C64.58 39.4499 56.64 39.9799 55.01 43.2299C52.83 47.5899 52.83 53.0699 53.59 56.4399Z" fill="#3D3C3E"/>
<path d="M66.43 46.9199C66.43 46.9199 66.39 46.8999 66.33 46.8699C66.27 46.8399 66.17 46.7899 66.06 46.7399C65.95 46.6799 65.79 46.6299 65.63 46.5499C65.46 46.4899 65.29 46.3999 65.08 46.3399C64.89 46.2599 64.67 46.1899 64.45 46.1299C64.34 46.0899 64.22 46.0699 64.11 46.0399C63.99 46.0199 63.88 45.9699 63.75 45.9599C63.63 45.9399 63.5 45.9199 63.38 45.8999C63.26 45.8699 63.13 45.8799 63 45.8599C62.75 45.8199 62.49 45.8399 62.24 45.8399C62.11 45.8299 61.98 45.8599 61.86 45.8699C61.73 45.8899 61.6 45.8999 61.48 45.9099C61.23 45.9699 60.98 46.0199 60.74 46.0699C60.5 46.1499 60.27 46.2199 60.04 46.2899C59.82 46.3699 59.61 46.4699 59.41 46.5399C59.21 46.6099 59.02 46.6799 58.86 46.7599C58.7 46.8399 58.55 46.8999 58.43 46.9499C58.18 47.0499 58.03 47.0999 58.03 47.0999C58.03 47.0999 58.11 46.9699 58.26 46.7499C58.34 46.6399 58.43 46.5099 58.55 46.3599C58.61 46.2899 58.67 46.1999 58.74 46.1299C58.82 46.0599 58.9 45.9799 58.99 45.8999C59.17 45.7499 59.36 45.5699 59.58 45.4099C59.81 45.2699 60.06 45.1199 60.33 44.9799C60.61 44.8599 60.91 44.7599 61.22 44.6599C61.54 44.6099 61.86 44.5299 62.2 44.5299C62.53 44.5299 62.86 44.5299 63.18 44.5999C63.5 44.6399 63.81 44.7499 64.09 44.8499C64.24 44.8999 64.37 44.9699 64.5 45.0399C64.63 45.1099 64.76 45.1599 64.87 45.2499C64.98 45.3299 65.1 45.3999 65.2 45.4699C65.3 45.5499 65.4 45.6299 65.48 45.7099C65.66 45.8599 65.8 46.0299 65.93 46.1699C66.05 46.3199 66.15 46.4499 66.22 46.5699C66.3 46.6799 66.34 46.7799 66.38 46.8399C66.41 46.8999 66.43 46.9399 66.43 46.9399V46.9199Z" fill="#171617"/>
<path d="M47.7201 60.94C40.5901 64.34 35.5701 62.1399 33.3101 53.3299C33.3101 53.3299 41.8901 46.6699 46.4401 55.2099C47.1501 56.5399 47.7201 60.94 47.7201 60.94Z" fill="white"/>
<path d="M40.8301 61.4999C38.8501 61.4599 37.1901 59.8899 36.5501 57.7099C36.3501 57.0499 36.2501 56.3199 36.2701 55.5699C36.3301 52.5299 38.2201 51.4499 40.5901 51.3799C40.7401 51.3799 40.8901 51.3799 41.0401 51.3799C43.6301 51.4399 45.5901 54.1199 45.6301 55.7699C45.7201 58.9899 43.4101 61.5599 40.8301 61.4999Z" fill="#723316"/>
<path d="M40.8501 60.6799C39.3501 60.6499 38.0301 59.3599 37.5001 57.4099C37.3301 56.7899 37.2401 56.1299 37.2601 55.4599C37.3001 53.1999 38.3801 52.1099 40.6301 52.0399C40.7401 52.0399 40.8601 52.0399 40.9701 52.0399H41.0301C43.0701 52.0899 44.6201 54.4599 44.6501 55.6799C44.6901 57.1499 44.2001 58.5599 43.3001 59.5299C42.6101 60.2799 41.7701 60.6899 40.9101 60.6899H40.8501" fill="#332010"/>
<path d="M55.6801 60.94C62.8101 64.34 67.8301 62.1399 70.0901 53.3299C70.0901 53.3299 61.5101 46.6699 56.9601 55.2099C56.2601 56.5399 55.6801 60.94 55.6801 60.94Z" fill="white"/>
<path d="M62.5701 61.4999C64.5501 61.4599 66.2101 59.8899 66.8501 57.7099C67.0501 57.0499 67.1401 56.3199 67.1301 55.5699C67.0701 52.5299 65.1801 51.4499 62.8101 51.3799C62.6601 51.3799 62.5101 51.3799 62.3601 51.3799C59.7701 51.4399 57.8101 54.1199 57.7701 55.7699C57.6801 58.9899 59.9901 61.5599 62.5701 61.4999Z" fill="#723316"/>
<path d="M62.49 60.6799C61.63 60.6799 60.78 60.2699 60.1 59.5199C59.21 58.5399 58.71 57.1399 58.75 55.6699C58.78 54.4499 60.33 52.0799 62.38 52.0299H62.44C62.55 52.0299 62.67 52.0299 62.78 52.0299C65.03 52.0999 66.11 53.1899 66.15 55.4499C66.17 56.1199 66.08 56.7799 65.91 57.3999C65.37 59.3599 64.05 60.6399 62.55 60.6799H62.49Z" fill="#332010"/>
<path d="M41.1401 54.3499C41.1001 56.2999 39.8001 57.8599 38.2301 57.8199C37.5201 57.8099 36.88 57.4699 36.4 56.9199C36.23 56.3399 36.14 55.6999 36.15 55.0499C36.21 52.3899 37.8601 51.4399 39.9401 51.3799C40.6901 52.0299 41.1601 53.1199 41.1401 54.3399" fill="white"/>
<path d="M43.6001 59.9999C43.5901 60.6599 43.1501 61.1899 42.6201 61.1799C42.0901 61.1699 41.6701 60.6199 41.6801 59.9599C41.6901 59.2999 42.1301 58.7699 42.6701 58.7799C43.2001 58.7899 43.6201 59.3399 43.6101 59.9999H43.6001Z" fill="white"/>
<path d="M62.45 54.6499C62.41 56.5999 61.1 58.1599 59.54 58.1299C58.83 58.1099 58.2 57.7799 57.71 57.2299C57.54 56.6499 57.45 56.0099 57.46 55.3599C57.52 52.6999 59.16 51.7499 61.25 51.6899C62 52.3399 62.47 53.4299 62.45 54.6499Z" fill="white"/>
<path d="M65.1001 59.9999C65.0901 60.6599 64.6501 61.1899 64.1101 61.1799C63.5801 61.1699 63.1601 60.6199 63.1701 59.9599C63.1801 59.2999 63.6201 58.7699 64.1601 58.7799C64.6901 58.7899 65.1101 59.3399 65.1001 59.9999Z" fill="white"/>
<path d="M46.4401 61.4999C46.8601 61.3299 47.2901 61.1499 47.7201 60.9399C47.7201 60.9399 47.1401 56.5399 46.4401 55.2099C44.6601 51.8699 42.2701 50.8599 40.0101 50.8599C36.4901 50.8599 33.3101 53.3299 33.3101 53.3299C33.4301 53.8099 33.5701 54.2699 33.7001 54.7099C33.5601 54.2699 33.4301 53.8099 33.3101 53.3299C33.3101 53.3299 36.4901 50.8599 40.0201 50.8599C42.2701 50.8599 44.6701 51.8799 46.4501 55.2099C47.1501 56.5399 47.7301 60.9399 47.7301 60.9399C47.2901 61.1499 46.8701 61.3399 46.4501 61.4999" fill="#464647"/>
<path d="M46.44 61.4998C46.21 60.2398 45.89 58.8298 45.54 58.1798C45.47 58.0598 45.41 57.9398 45.34 57.8298C45.54 57.1898 45.64 56.4998 45.62 55.7698C45.58 54.1198 43.62 51.4399 41.03 51.3799C41 51.3799 40.98 51.3799 40.95 51.3799C40.83 51.3799 40.7 51.3799 40.58 51.3799C40.37 51.3799 40.16 51.3999 39.96 51.4199C39.96 51.4099 39.94 51.3999 39.92 51.3899C38.04 51.4499 36.51 52.2199 36.19 54.3199C35.31 54.6099 34.52 54.9898 33.89 55.3298C33.82 55.1298 33.75 54.9199 33.68 54.6999C33.54 54.2599 33.41 53.7999 33.29 53.3199C33.29 53.3199 36.47 50.8499 39.99 50.8499C42.25 50.8499 44.64 51.8699 46.42 55.1999C47.13 56.5299 47.7 60.9298 47.7 60.9298C47.26 61.1398 46.84 61.3198 46.42 61.4898" fill="#E3E1E1"/>
<path d="M45.3401 57.8199C45.1001 57.3999 44.8501 57.0199 44.5901 56.6699C44.6401 56.3399 44.6601 55.9999 44.6501 55.6599C44.6201 54.4399 43.0701 52.0699 41.0301 52.0199H40.9701C40.8601 52.0199 40.7401 52.0199 40.6301 52.0199C40.5901 52.0199 40.5501 52.0199 40.5101 52.0199C40.3601 51.7899 40.1801 51.5799 39.9801 51.3999C40.1801 51.3799 40.3901 51.3599 40.6001 51.3599C40.7201 51.3599 40.8501 51.3599 40.9701 51.3599C41.0001 51.3599 41.0201 51.3599 41.0501 51.3599C43.6401 51.4199 45.6001 54.0999 45.6401 55.7499C45.6601 56.4799 45.5601 57.1699 45.3601 57.8099" fill="#70371B"/>
<path d="M44.59 56.6799C43.54 55.2999 42.35 54.5099 41.14 54.1299C41.12 53.3399 40.88 52.6199 40.51 52.0499C40.55 52.0499 40.59 52.0499 40.63 52.0499C40.74 52.0499 40.86 52.0499 40.97 52.0499H41.03C43.07 52.0999 44.62 54.4699 44.65 55.6899C44.65 56.0299 44.65 56.37 44.59 56.7" fill="#382618"/>
<path d="M36.2101 54.3199C36.5301 52.2199 38.0601 51.4399 39.9401 51.3899C39.9501 51.3999 39.9701 51.4099 39.9801 51.4199C40.1801 51.5999 40.3601 51.7999 40.5101 52.0399C40.8901 52.6099 41.1201 53.3399 41.1401 54.1199C40.4701 53.9099 39.7801 53.8199 39.1101 53.8199C38.0901 53.8199 37.1001 54.0299 36.2101 54.3199Z" fill="#E3E1E1"/>
<path d="M56.9601 61.4999C56.5401 61.3399 56.1101 61.1499 55.6801 60.9399C55.6801 60.9399 56.2601 56.5399 56.9601 55.2099C57.1801 54.8099 57.4001 54.4299 57.6301 54.0899C57.4001 54.4299 57.1801 54.7999 56.9601 55.1999C56.2601 56.5299 55.6801 60.9299 55.6801 60.9299C56.1201 61.1399 56.5401 61.3199 56.9601 61.4899M69.7201 54.6499C69.8501 54.2299 69.9801 53.7899 70.1001 53.3299C70.1001 53.3299 66.9201 50.8599 63.4001 50.8599C62.2101 50.8599 60.9701 51.1399 59.8101 51.9099C60.9701 51.1499 62.2101 50.8599 63.4001 50.8599C66.9201 50.8599 70.11 53.3299 70.11 53.3299C69.99 53.7899 69.8701 54.2299 69.7301 54.6499" fill="#464647"/>
<path d="M56.9601 61.4999C56.5401 61.3299 56.1101 61.1499 55.6801 60.9399C55.6801 60.9399 56.2601 56.5399 56.9601 55.2099C57.1801 54.8099 57.4001 54.4399 57.6301 54.0999C57.5301 54.4699 57.4701 54.8799 57.4601 55.3499C57.4401 56.0099 57.5301 56.6399 57.7101 57.2199C57.7901 57.3099 57.8701 57.3899 57.9601 57.4699C57.9901 57.5899 58.02 57.6999 58.05 57.8199C57.98 57.9299 57.92 58.0499 57.86 58.1699C57.51 58.8199 57.2001 60.2399 56.9601 61.4899M69.4901 55.3399C68.8101 54.9699 67.9401 54.5499 66.9601 54.2599C66.4501 52.2199 64.8 51.4499 62.8 51.3899C62.68 51.3899 62.5501 51.3899 62.4301 51.3899C62.4001 51.3899 62.3801 51.3899 62.3501 51.3899C61.8201 51.3999 61.3201 51.5199 60.8501 51.7199C60.4801 51.7499 60.1201 51.8199 59.7901 51.9199C60.9501 51.1599 62.1801 50.8699 63.3801 50.8699C66.9001 50.8699 70.08 53.3399 70.08 53.3399C69.96 53.7999 69.8401 54.2399 69.7001 54.6599C69.6301 54.8899 69.5501 55.1199 69.4701 55.3499" fill="#E3E1E1"/>
<path d="M58.0501 57.8199C58.0201 57.7099 57.9801 57.5899 57.9601 57.4699C58.0301 57.5299 58.0901 57.5799 58.1601 57.6299C58.1201 57.6899 58.0901 57.7499 58.0501 57.8099M66.9601 54.2499C66.6301 54.1499 66.2801 54.0599 65.9201 53.9899C65.4901 52.7199 64.4701 52.0899 62.7701 52.0399C62.6601 52.0399 62.5401 52.0399 62.4301 52.0399H62.3701C62.1301 52.0399 61.8901 52.0799 61.6701 52.1499C61.5401 51.9799 61.4001 51.8299 61.2401 51.6999C61.1101 51.6999 60.9801 51.7099 60.8501 51.7199C61.3101 51.5199 61.8201 51.3999 62.3501 51.3899C62.3801 51.3899 62.4001 51.3899 62.4301 51.3899C62.5501 51.3899 62.6801 51.3899 62.8001 51.3899C64.7901 51.4499 66.4401 52.2199 66.9601 54.2599" fill="#70371B"/>
<path d="M62.42 54.0799C62.34 53.3299 62.07 52.6599 61.67 52.1399C61.9 52.0699 62.13 52.0399 62.37 52.0299H62.43C62.54 52.0299 62.66 52.0299 62.77 52.0299C64.47 52.0799 65.49 52.7099 65.92 53.9799C65.39 53.8799 64.84 53.8099 64.28 53.8099C63.66 53.8099 63.04 53.8899 62.42 54.0599" fill="#382618"/>
<path d="M58.16 57.64C58.09 57.59 58.02 57.5299 57.96 57.4799C57.87 57.3999 57.79 57.3199 57.71 57.2299C57.54 56.6499 57.45 56.0099 57.46 55.3599C57.46 54.8899 57.53 54.4699 57.63 54.1099C58.3 53.1399 59.03 52.43 59.79 51.92C60.12 51.82 60.48 51.7499 60.85 51.7199C60.98 51.7099 61.11 51.7 61.24 51.7C61.39 51.83 61.53 51.9899 61.67 52.1499C62.07 52.6699 62.34 53.3399 62.42 54.0899C60.89 54.5299 59.4 55.5799 58.16 57.6599" fill="#E3E1E1"/>
<path d="M47.72 60.9399C47.63 60.4999 47.53 60.0699 47.44 59.6299C47.34 59.1999 47.25 58.7599 47.14 58.3299C47.04 57.8999 46.93 57.4699 46.8 57.0499C46.68 56.6199 46.54 56.2399 46.39 55.8299C46.3 55.6399 46.21 55.3899 46.11 55.2599L45.76 54.7099C45.51 54.3599 45.27 53.9999 44.97 53.6899C44.83 53.5299 44.69 53.3699 44.53 53.2299C44.38 53.0799 44.23 52.9299 44.07 52.8099C43.91 52.6699 43.75 52.5399 43.57 52.4299C43.4 52.3099 43.23 52.1999 43.04 52.1099C42.68 51.8999 42.29 51.76 41.9 51.64C41.51 51.52 41.1 51.4499 40.69 51.4099C40.28 51.3799 39.87 51.3699 39.45 51.4099C39.03 51.4399 38.62 51.5199 38.21 51.6099C37.39 51.8099 36.59 52.0999 35.82 52.4699C35.44 52.6599 35.06 52.8599 34.69 53.0799C34.33 53.2999 33.95 53.5399 33.64 53.7699L33.84 53.1799L34.17 54.3399C34.26 54.7299 34.42 55.0999 34.55 55.4699C34.68 55.8499 34.82 56.2199 34.99 56.5799C35.16 56.9399 35.29 57.3199 35.5 57.6499C35.7 57.9799 35.86 58.3599 36.1 58.6599C36.34 58.9699 36.53 59.3199 36.8 59.5899C37.06 59.8699 37.3 60.1799 37.61 60.4099L38.05 60.7899L38.53 61.0999C38.84 61.3299 39.2 61.4599 39.55 61.6199C39.9 61.7799 40.29 61.8399 40.66 61.9699C41.05 62.0199 41.43 62.0999 41.83 62.1099C42.22 62.1099 42.62 62.1499 43.02 62.0899C43.42 62.0399 43.82 62.0399 44.21 61.9399C44.6 61.8499 45.01 61.8099 45.39 61.6799C45.78 61.5599 46.17 61.4699 46.56 61.3199L47.72 60.9099V60.9399ZM47.72 60.9399L46.63 61.4999C46.26 61.6799 45.87 61.8199 45.49 61.9799C45.11 62.1499 44.7 62.2399 44.31 62.3699C43.92 62.5099 43.5 62.5499 43.09 62.6499C42.68 62.7499 42.25 62.7299 41.83 62.7699C41.4 62.7799 40.98 62.73 40.55 62.7C40.13 62.6 39.7 62.55 39.29 62.39C38.89 62.23 38.47 62.0999 38.11 61.8599L37.54 61.5299L37.03 61.1299C36.67 60.8799 36.39 60.5499 36.09 60.2399C35.77 59.9399 35.55 59.5699 35.28 59.2299C35.01 58.8999 34.83 58.5099 34.6 58.1499C34.36 57.7899 34.21 57.3999 34.02 57.0199C33.83 56.6399 33.68 56.2499 33.54 55.8499C33.4 55.4599 33.24 55.0699 33.13 54.6599L32.77 53.4599L32.67 53.0999L32.97 52.8699C33.36 52.5699 33.74 52.3299 34.14 52.0899C34.54 51.8599 34.95 51.6399 35.36 51.4499C36.19 51.0599 37.07 50.7499 37.99 50.5399C38.45 50.4399 38.92 50.3699 39.39 50.3499C39.86 50.3099 40.34 50.3399 40.81 50.3799C41.28 50.4399 41.76 50.54 42.21 50.7C42.44 50.78 42.66 50.8599 42.88 50.9699C43.1 51.0699 43.31 51.1799 43.51 51.3099C43.72 51.4299 43.91 51.5699 44.1 51.7099C44.3 51.8499 44.47 51.9999 44.64 52.1599C44.82 52.3099 44.98 52.4799 45.13 52.6599C45.29 52.8299 45.44 53.0099 45.58 53.1999C45.87 53.5599 46.11 53.9599 46.34 54.3499L46.66 54.95C46.79 55.2 46.83 55.3799 46.92 55.5999C47.05 56.0299 47.17 56.5099 47.24 56.9399C47.33 57.3799 47.39 57.8199 47.45 58.2699C47.58 59.1499 47.67 60.0399 47.72 60.9299V60.9399Z" fill="#171617"/>
<path d="M55.6801 60.9399C55.7401 60.0499 55.8301 59.1599 55.9501 58.2799C56.0101 57.8399 56.0801 57.3899 56.1601 56.9499C56.2301 56.5199 56.3501 56.0399 56.4801 55.6099C56.5701 55.3899 56.6101 55.2099 56.7401 54.9599L57.0601 54.3599C57.3001 53.9699 57.5301 53.5699 57.8201 53.2099C57.9501 53.0199 58.1001 52.8399 58.2701 52.6699C58.4201 52.4999 58.5801 52.3299 58.7601 52.1699C58.9301 52.0099 59.11 51.8499 59.3 51.7199C59.49 51.5699 59.6801 51.4399 59.8901 51.3199C60.0901 51.1899 60.3001 51.0799 60.5201 50.9799C60.7301 50.8699 60.9601 50.7899 61.1801 50.7099C61.6301 50.5499 62.1 50.4599 62.58 50.3899C63.05 50.3399 63.5301 50.3199 64.0001 50.3599C64.4701 50.3799 64.9401 50.4499 65.4001 50.5499C66.3101 50.7599 67.1901 51.0699 68.0301 51.4599C68.4501 51.6599 68.8601 51.8699 69.2501 52.0999C69.6601 52.3299 70.0301 52.5799 70.4201 52.8799L70.7301 53.1099L70.6301 53.4699L70.2701 54.6699C70.1701 55.0699 70 55.4599 69.86 55.8599C69.72 56.2599 69.5701 56.6499 69.3801 57.0299C69.1901 57.4099 69.04 57.7999 68.8 58.1599C68.57 58.5199 68.3901 58.9099 68.1201 59.2399C67.8501 59.5799 67.6401 59.9499 67.3101 60.2499C67.0101 60.5599 66.7301 60.8899 66.3701 61.1399L65.86 61.5399L65.2901 61.8699C64.9201 62.1099 64.51 62.2399 64.11 62.3999C63.71 62.5599 63.2701 62.5999 62.8501 62.7099C62.4201 62.7399 62.0001 62.7899 61.5701 62.7799C61.1501 62.7399 60.7201 62.7599 60.3101 62.6599C59.9001 62.5699 59.4801 62.5299 59.0901 62.3799C58.6901 62.2499 58.2901 62.1599 57.9101 61.9899C57.5301 61.8299 57.1301 61.6999 56.7701 61.5099L55.6801 60.9499V60.9399ZM55.6801 60.9399L56.8401 61.3499C57.2301 61.4899 57.6201 61.5899 58.0101 61.7099C58.3901 61.8399 58.8001 61.8799 59.1901 61.9699C59.5801 62.0699 59.9901 62.0699 60.3801 62.1199C60.7801 62.1699 61.1701 62.1199 61.5701 62.1399C61.9601 62.1199 62.3501 62.0399 62.7401 61.9999C63.1101 61.8799 63.5001 61.8099 63.8501 61.6499C64.2001 61.4899 64.5601 61.3599 64.8701 61.1299L65.3501 60.8199L65.7901 60.4399C66.0901 60.2099 66.3401 59.8999 66.6001 59.6199C66.8701 59.3499 67.06 58.9999 67.3 58.6899C67.54 58.3799 67.6901 58.0099 67.9001 57.6799C68.1101 57.3499 68.2401 56.9699 68.4101 56.6099C68.5801 56.2599 68.7201 55.8799 68.8501 55.4999C68.9801 55.1299 69.1301 54.7599 69.2301 54.3699L69.5601 53.2099L69.7601 53.7999C69.4401 53.5599 69.0701 53.3299 68.7101 53.1099C68.3401 52.8899 67.96 52.6899 67.58 52.4999C66.81 52.1299 66.0101 51.8399 65.1901 51.6399C64.7801 51.5499 64.3701 51.4699 63.9501 51.4399C63.5401 51.3899 63.1201 51.3999 62.7101 51.4399C62.3001 51.4799 61.9001 51.5499 61.5001 51.6699C61.1101 51.7999 60.72 51.9399 60.36 52.1399C60.17 52.2299 60 52.3399 59.83 52.4599C59.65 52.5699 59.49 52.6999 59.33 52.8399C59.16 52.9699 59.0101 53.1099 58.8701 53.2599C58.7101 53.3999 58.5701 53.5599 58.4301 53.7199C58.1401 54.0299 57.8901 54.3899 57.6401 54.7399L57.3 55.2899C57.21 55.4299 57.1101 55.6799 57.0201 55.8599C56.8601 56.2699 56.72 56.6399 56.61 57.0799C56.48 57.4999 56.3701 57.9299 56.2701 58.3599C56.1601 58.7899 56.0701 59.2299 55.9701 59.6599C55.8701 60.0899 55.7701 60.5299 55.6901 60.9699L55.6801 60.9399Z" fill="#171617"/>
<path d="M73.4101 60.3999C70.9801 68.6399 60.4301 74.9599 52.7201 75.5099C52.5901 75.5099 52.4601 75.5199 52.3401 75.5299C52.2101 75.5299 52.0801 75.5299 51.9501 75.5299C51.8601 75.5299 51.7601 75.5299 51.6701 75.5299C51.4601 75.5299 51.2501 75.5299 51.0401 75.5099L50.7101 75.4899C43.9501 74.9199 32.8701 68.7599 30.0901 60.6899C30.0501 60.5799 30.0101 60.4599 29.9801 60.3499C30.3501 59.9599 30.7901 59.6799 31.2801 59.6199C33.2401 59.3699 35.6001 60.6699 42.9201 64.5599C42.9201 64.5599 45.0501 62.0399 51.4601 61.9799C57.3501 61.9299 60.0801 64.6199 60.0801 64.6199C65.8001 61.1599 70.1301 59.3699 72.1001 59.6199C72.6101 59.6899 73.0501 59.9799 73.4301 60.3899L73.4101 60.3999Z" fill="#EAB4AB"/>
<path d="M46.0901 31.9099C48.4701 28.8099 56.8301 31.3899 58.2901 31.4299C59.7501 31.4699 59.7101 28.8199 59.7101 28.8199C59.7101 28.8199 60.8701 30.7699 60.8301 31.9299C60.7201 34.8599 59.1101 34.7599 59.1101 34.7599C59.4101 35.1199 60.7001 35.5199 60.8301 37.8399C60.8801 38.6599 60.4401 39.7999 60.4401 39.7999C60.4401 39.7999 59.2501 36.73 57.3501 36.42C58.4201 37.14 58.6901 38.5099 58.2501 39.5299C57.7501 40.6799 56.3701 41.8699 55.2701 42.0799C55.7501 41.6599 56.0901 40.6999 55.9601 39.9899C55.7601 38.9199 54.0701 37.3099 54.0701 37.3099C54.0701 37.3099 54.4901 38.2599 54.0901 39.0999C52.6001 42.2299 54.5001 43.7399 54.5001 43.7399C54.5001 43.7399 46.1101 41.0199 44.9101 36.7199C44.5601 35.4699 44.3401 34.21 46.1101 31.89L46.0901 31.9099Z" fill="#3D3C3E"/>
<path d="M34.9201 39.9299C34.9201 39.9299 32.6401 29.6099 39.6001 26.9199C39.6001 26.9199 39.3501 27.4499 39.0101 28.4999C38.6801 29.5499 37.9801 34.4099 39.4901 36.1099C41.0001 37.8099 38.5401 40.7199 34.9201 39.9399V39.9299Z" fill="#EDE0B8"/>
<path d="M68.4801 39.9299C68.4801 39.9299 70.7601 29.6099 63.8001 26.9199C63.8001 26.9199 64.0501 27.4499 64.3801 28.4999C64.7201 29.5499 65.4201 34.4099 63.9101 36.1099C62.4001 37.8099 64.8601 40.7199 68.4801 39.9399V39.9299Z" fill="#EDE0B8"/>
<path d="M45.6301 64.2099C45.9601 63.8399 47.0501 63.0099 47.6201 64.2099C48.1901 65.4099 48 67.3199 47.46 67.2499C46.91 67.1799 44.7601 66.3099 45.0601 65.4599C45.3601 64.6099 45.4001 64.4599 45.6301 64.2099Z" fill="#89615C"/>
<path d="M57.93 64.2099C57.6 63.8399 56.51 63.0099 55.94 64.2099C55.37 65.4099 55.56 67.3199 56.1 67.2499C56.65 67.1799 58.8 66.3099 58.5 65.4599C58.2 64.6099 58.16 64.4599 57.92 64.2099H57.93Z" fill="#89615C"/>
<path d="M45.6301 64.7399C45.9601 64.3699 47.0501 63.5399 47.6201 64.7399C48.1901 65.9399 48 67.8499 47.46 67.7799C46.91 67.7099 44.7601 66.8399 45.0601 65.9899C45.3601 65.1399 45.4001 64.9899 45.6301 64.7399Z" fill="#2D2E2D"/>
<path d="M57.93 64.7399C57.6 64.3699 56.51 63.5399 55.94 64.7399C55.37 65.9399 55.56 67.8499 56.1 67.7799C56.65 67.7099 58.8 66.8399 58.5 65.9899C58.2 65.1399 58.16 64.9899 57.92 64.7399H57.93Z" fill="#2D2E2D"/>
<path d="M60.3601 65.2099C60.3201 65.0699 60.2201 64.8699 60.0701 64.6299C59.9801 64.5199 59.8901 64.3999 59.7701 64.2699C59.6501 64.1599 59.5201 64.0199 59.3601 63.8999C59.0501 63.6599 58.6801 63.4099 58.2501 63.2099C57.8201 62.9899 57.3401 62.8099 56.8201 62.6299C56.3001 62.4699 55.7401 62.3099 55.1501 62.1999C54.5701 62.0799 53.9601 61.9899 53.3301 61.9199C52.7101 61.8499 52.0701 61.7999 51.4401 61.7799C50.8101 61.7999 50.1701 61.8499 49.5501 61.9199C48.9301 61.9899 48.3201 62.0799 47.7301 62.1999C47.1401 62.3099 46.5801 62.4699 46.0601 62.6299C45.5401 62.8099 45.0501 62.9899 44.6301 63.2099C44.1901 63.4099 43.8201 63.6599 43.5201 63.8999C43.3701 64.0199 43.2401 64.1499 43.1101 64.2699C43.0001 64.3999 42.9001 64.5199 42.8201 64.6299C42.6701 64.8699 42.5601 65.0599 42.5301 65.2099C42.4801 65.3499 42.4601 65.4299 42.4601 65.4299C42.4601 65.4299 42.4901 65.3599 42.5501 65.2199C42.6001 65.0799 42.7201 64.8999 42.8801 64.6799C42.9701 64.5799 43.0701 64.4599 43.1901 64.3499C43.3201 64.2499 43.4501 64.1199 43.6101 64.0199C43.9201 63.8099 44.2901 63.5899 44.7301 63.3999C45.1501 63.1999 45.6401 63.0399 46.1501 62.8899C46.6701 62.7499 47.2201 62.6199 47.8001 62.5099C48.3801 62.3999 48.9801 62.3199 49.6001 62.2599C50.2101 62.1999 50.8401 62.1599 51.4601 62.1499C52.0901 62.1599 52.7101 62.1999 53.3201 62.2599C53.9401 62.3199 54.5401 62.3999 55.1201 62.5099C55.7001 62.6199 56.2501 62.7499 56.7701 62.8899C57.2801 63.0499 57.7701 63.2099 58.1901 63.3999C58.6201 63.5899 58.9901 63.8099 59.3101 64.0199C59.4701 64.1299 59.5901 64.2499 59.7301 64.3499C59.8401 64.4599 59.9401 64.5799 60.0401 64.6799C60.1901 64.8999 60.3201 65.0799 60.3701 65.2199C60.4301 65.3599 60.4601 65.4299 60.4601 65.4299C60.4601 65.4299 60.4301 65.3599 60.3901 65.2099H60.3601Z" fill="#89615C"/>
<path d="M60.58 67.7999C60.56 67.8799 60.4901 68.2199 60.2801 68.7299C60.1901 68.9299 60.0801 69.1599 59.9501 69.4099C59.9001 69.4999 59.8501 69.5899 59.7901 69.6799C59.5501 70.0799 59.23 70.4999 58.8 70.8999C58.4 71.2799 57.9 71.63 57.33 71.89C56.75 72.15 56.1101 72.3599 55.4101 72.3999C54.7301 72.4599 54.0301 72.4799 53.3201 72.4999C52.7001 72.5199 52.0801 72.5299 51.4501 72.5299C50.8201 72.5299 50.2 72.5199 49.58 72.4999C48.87 72.4799 48.1701 72.4599 47.4901 72.3999C46.7901 72.3599 46.1401 72.15 45.5701 71.89C44.9901 71.62 44.5001 71.2699 44.1001 70.8999C43.6701 70.4999 43.35 70.0899 43.11 69.6899C43.05 69.5999 43.0001 69.51 42.9501 69.42C42.8101 69.17 42.7 68.9299 42.61 68.7299C42.39 68.2199 42.3201 67.8799 42.3101 67.7999C42.3301 67.8799 42.4301 68.21 42.6701 68.7C42.7801 68.92 42.9101 69.1699 43.0901 69.4399C43.1501 69.5299 43.2101 69.6199 43.2801 69.7099C43.5301 70.0499 43.8401 70.4099 44.2301 70.7599C44.6301 71.1099 45.1201 71.43 45.6801 71.67C45.9601 71.79 46.2601 71.8999 46.5601 71.9599C46.7101 71.9999 46.8801 72.0299 47.0301 72.0599C47.1901 72.0799 47.3501 72.0999 47.5201 72.1099C48.7701 72.1899 50.1201 72.2 51.4601 72.2C52.8001 72.2 54.1501 72.1899 55.4001 72.1099C55.5701 72.1099 55.7301 72.0799 55.8901 72.0599C56.0401 72.0299 56.22 71.9999 56.36 71.9599C56.67 71.8899 56.9701 71.78 57.2401 71.67C57.8001 71.43 58.2801 71.1099 58.6901 70.7599C59.0801 70.4099 59.3901 70.05 59.6401 69.7C59.7101 69.61 59.7701 69.5199 59.8201 69.4399C59.9901 69.1799 60.1301 68.92 60.2401 68.7C60.4801 68.2 60.5801 67.8699 60.6001 67.7999H60.58Z" fill="#89615C"/>
<path d="M43.2601 69.7098C43.2601 69.7098 43.1601 69.6998 43.0901 69.6898C42.9101 69.6598 42.6701 69.6199 42.4001 69.5399C41.5401 69.2799 40.3801 68.6898 39.6401 67.2998C39.5501 67.2998 39.4601 67.3299 39.3701 67.3499C39.2801 67.3899 39.1801 67.4098 39.1001 67.4698C39.0601 67.4998 39.0101 67.5198 38.9801 67.5498C38.9401 67.5798 38.9101 67.6199 38.8801 67.6399C38.8001 67.6999 38.7601 67.7799 38.7001 67.8499C38.6401 67.9199 38.6101 67.9999 38.5801 68.0699C38.5501 68.1399 38.5001 68.1998 38.4901 68.2698C38.4701 68.3298 38.4501 68.3898 38.4301 68.4298C38.4001 68.5198 38.3701 68.5699 38.3701 68.5699C38.3701 68.5699 38.3701 68.5099 38.3701 68.4199C38.3701 68.3699 38.3701 68.3098 38.3901 68.2498C38.3901 68.1798 38.4201 68.1098 38.4401 68.0298C38.4701 67.9498 38.4801 67.8498 38.5401 67.7698C38.5901 67.6898 38.6301 67.5799 38.7101 67.5099C38.7501 67.4699 38.7901 67.4299 38.8301 67.3899C38.8701 67.3499 38.9201 67.3199 38.9701 67.2899C39.0701 67.2199 39.1801 67.1799 39.2901 67.1399C39.4001 67.1099 39.5201 67.0798 39.6301 67.0798C39.7401 67.0798 39.8601 67.0798 39.9601 67.0898C40.0701 67.0898 40.1701 67.1299 40.2601 67.1399C40.3501 67.1699 40.4401 67.1898 40.5201 67.2198C40.8301 67.3398 41.0101 67.4698 41.0101 67.4698C41.0101 67.4698 40.8001 67.4099 40.4801 67.3499C40.3201 67.3199 40.1401 67.2899 39.9401 67.2899H39.8801C40.7301 68.7999 42.1301 69.2799 42.9101 69.4199C42.9601 69.4199 43.0001 69.4398 43.0501 69.4398C43.1101 69.5298 43.1701 69.6198 43.2401 69.7098H43.2601Z" fill="#89615C"/>
<path d="M64.4401 68.5699C64.4401 68.5699 64.4201 68.5199 64.3801 68.4299C64.3601 68.3799 64.3401 68.3299 64.3201 68.2699C64.3001 68.1999 64.2601 68.1399 64.2301 68.0699C64.1901 67.9999 64.1601 67.9199 64.1101 67.8499C64.0501 67.7799 64.0101 67.6999 63.9301 67.6399C63.9001 67.6099 63.8601 67.5799 63.8301 67.5499C63.7901 67.5199 63.7501 67.4999 63.7101 67.4699C63.6301 67.4099 63.5301 67.3899 63.4401 67.3499C63.3501 67.3299 63.2601 67.3099 63.1701 67.2999C62.5301 68.4999 61.5701 69.1099 60.7601 69.4099C60.3801 69.5499 60.0401 69.6299 59.7801 69.6699C59.7201 69.6699 59.6701 69.6899 59.6201 69.6899C59.6901 69.5999 59.7501 69.5099 59.8001 69.4299C59.8401 69.4299 59.8901 69.4099 59.9401 69.3999C60.7301 69.2399 62.0701 68.7499 62.9101 67.2699H62.8401C62.6501 67.2699 62.4601 67.2999 62.3001 67.3299C61.9801 67.3899 61.7701 67.4499 61.7701 67.4499C61.7701 67.4499 61.9501 67.3199 62.2701 67.1999C62.3501 67.1699 62.4301 67.1399 62.5301 67.1199C62.6201 67.0999 62.7201 67.0699 62.8301 67.0699C62.9301 67.0599 63.0501 67.0499 63.1601 67.0599C63.2701 67.0599 63.3901 67.0899 63.5001 67.1199C63.6101 67.1599 63.7301 67.1999 63.8201 67.2699C63.8701 67.2999 63.9201 67.3299 63.9601 67.3699C64.0001 67.4099 64.0401 67.4499 64.0801 67.4899C64.1701 67.5699 64.2001 67.6699 64.2501 67.7499C64.3101 67.8299 64.3201 67.9299 64.3501 68.0099C64.3801 68.0899 64.4001 68.1599 64.4001 68.2299C64.4001 68.2999 64.4001 68.3499 64.4201 68.3999C64.4201 68.4899 64.4201 68.5499 64.4201 68.5499L64.4401 68.5699Z" fill="#89615C"/>
</svg>
