<svg width="102" height="102" viewBox="0 0 102 102" fill="none" xmlns="http://www.w3.org/2000/svg">
<path d="M92.8899 0.650024H9.29987C4.51156 0.650024 0.629883 4.53173 0.629883 9.32004V92.91C0.629883 97.6983 4.51156 101.58 9.29987 101.58H92.8899C97.6782 101.58 101.56 97.6983 101.56 92.91V9.32004C101.56 4.53173 97.6782 0.650024 92.8899 0.650024Z" fill="#24B999"/>
<path d="M59.6 87.4101C57.04 87.4101 54.75 86.54 52.8 84.83C52.56 84.62 52.32 84.4201 52.1 84.2201C48.98 81.5101 46.72 79.5601 46.69 73.7401C46.69 72.6001 46.65 71.6301 46.61 70.7601C46.6 70.4701 46.59 70.1901 46.58 69.9301C38.37 68.2301 27.07 61.1201 25.92 52.4101C25.85 51.9301 25.82 51.4301 25.82 50.9201C25.82 47.5301 26.82 43.6401 28.8 39.3401C25.21 36.0001 25.43 29.1201 25.91 25.1601C26.18 22.9101 26.66 20.6101 27.24 18.6601C28.15 15.6201 28.8001 15.1501 29.3401 14.9501C29.5301 14.8801 29.73 14.8401 29.95 14.8401C31.74 14.8401 35.9 18.4501 38.42 22.2901C38.66 21.8201 38.84 21.5201 38.86 21.4901C39.1 21.0901 39.52 20.86 39.96 20.86C40.08 20.86 40.19 20.8801 40.31 20.9101C40.87 21.0701 41.25 21.5801 41.24 22.1701C41.24 22.9001 41.42 24.1101 41.79 24.4901C41.84 24.5401 41.8501 24.5401 41.9001 24.5401C42.2301 24.5401 43.13 24.3501 44.07 24.1701C46.31 23.7301 49.68 23.0601 52.79 23.0601C55.9 23.0601 58.33 23.7701 59.75 25.2301C61.57 20.5401 67.36 14.8201 69.73 14.8201C70.02 14.8201 70.3 14.8901 70.54 15.0201C71 15.2601 71.47 15.6901 72.21 18.2501C72.67 19.8401 73.09 21.8101 73.39 23.7701C73.85 26.7501 74.4 32.1901 73.14 36.0301C74.15 38.5601 74.58 40.8901 74.89 42.6201C75.09 43.7001 75.29 44.8201 75.52 45.1401C75.52 45.1501 75.54 45.1601 75.54 45.1801C76.38 46.4801 76.7 46.6601 77.49 46.6601C77.6 46.6601 77.71 46.6601 77.82 46.6501C78.95 46.5701 79.49 45.9201 79.51 45.8901C79.76 45.5601 80.1401 45.3801 80.5301 45.3801C80.7201 45.3801 80.91 45.4201 81.08 45.5001C81.63 45.7601 81.92 46.3901 81.77 46.9801C81.46 48.2501 80.46 50.2301 78.56 50.9401C78.79 51.6201 78.98 52.4201 79.05 53.3401C79.75 62.9701 72.99 66.1801 72.71 66.3101C72.54 66.3901 72.36 66.4301 72.18 66.4301C71.79 66.4301 71.41 66.2501 71.16 65.9201C70.8 65.4401 70.81 64.7801 71.2 64.3201C71.2 64.3201 71.58 63.8501 72 63.0701C71.34 63.8301 70.6601 64.5001 70.0301 65.1301C68.8701 66.2801 67.87 67.2701 67.32 68.4501C66.74 69.7001 66.71 70.4201 66.87 70.6701C66.99 70.8701 67.45 71.0001 68.01 71.0001C68.24 71.0001 68.4001 70.9801 68.4001 70.9801C68.4601 70.9801 68.52 70.9701 68.58 70.9701C69.13 70.9701 69.63 71.32 69.8 71.86C69.99 72.45 69.74 73.0901 69.19 73.3901C69.09 73.4401 68.15 73.9301 66.97 74.0201C66.86 74.0201 66.76 74.0301 66.66 74.0301C65.44 74.0301 64.38 73.4901 63.41 72.3801C63.1 72.0301 62.86 71.5701 62.67 71.0701C61.22 73.1501 60.56 75.1301 60.69 76.9901C60.9 79.7901 62.9 81.3601 62.98 81.4301C63.58 81.9001 64.38 82.1301 65.36 82.1301C66.71 82.1301 67.8801 81.6801 67.9001 81.6801C68.0501 81.6201 68.21 81.5901 68.37 81.5901C68.82 81.5901 69.24 81.8201 69.48 82.2301C69.8 82.7801 69.67 83.4801 69.17 83.8801C68.99 84.0301 64.6501 87.4501 59.5901 87.4501L59.6 87.4101Z" fill="#2F150C"/>
<path d="M77.92 47.93C76.15 48.06 75.47 47.43 74.47 45.88C73.58 44.6 73.7001 40.63 71.7701 36.07C74.1701 29.84 70.9201 16.67 69.9401 16.15C68.8201 15.55 62.5301 21.14 60.8401 26.02C60.5401 26.9 60.35 27.57 60.23 28.09C59.95 27.6 59.6 27.07 59.16 26.5C55.81 22.13 44.0201 25.77 41.9601 25.83C39.9001 25.89 39.9601 22.15 39.9601 22.15C39.9601 22.15 39.0101 23.76 38.5801 25.25C36.5501 20.59 30.9001 15.74 29.7801 16.16C28.4601 16.65 23.7601 34.44 30.3101 38.93C30.2801 38.98 30.3401 38.95 30.4501 38.85C28.7201 42.37 27.0901 46.79 27.0901 50.93C27.0901 51.38 27.1201 51.82 27.1801 52.25C28.3101 60.79 40.1001 67.68 47.8301 68.87C47.8301 70.09 47.9501 71.64 47.9601 73.75C47.9801 79.38 50.1601 80.84 53.6301 83.88C60.0501 89.51 68.3601 82.85 68.3601 82.85C68.3601 82.85 64.6401 84.3201 62.1901 82.4201C61.3801 81.8001 55.46 76.42 63.73 67.76C63.38 68.49 63.5801 70.63 64.3701 71.52C65.1501 72.42 65.9201 72.79 66.8701 72.72C67.8201 72.65 68.5801 72.24 68.5801 72.24C68.5801 72.24 63.8 72.96 66.16 67.91C67.5 65.04 70.77 63.43 72.92 59.57C73.82 57.95 73.57 55.15 73.66 54.98C73.66 55.01 74.5101 58.33 74.3801 59.64C74.0501 62.94 72.1801 65.16 72.1801 65.16C72.1801 65.16 78.4201 62.3 77.7801 53.45C77.6601 51.88 77.1001 50.66 76.7701 49.93C79.6701 50.18 80.54 46.69 80.54 46.69C80.54 46.69 79.71 47.82 77.92 47.95V47.93Z" fill="#2F150C"/>
<path d="M77.9201 47.9301C76.1501 48.0601 75.4701 47.4301 74.4701 45.8801C73.4701 44.4301 73.7501 39.5401 70.8901 34.2501C69.0701 30.9001 64.0601 27.3501 62.7601 26.8801C62.0801 26.6401 62.3101 27.6801 62.5501 28.7201C62.7801 29.6801 63.0202 30.6401 62.5902 30.5901L64.8101 34.2101C63.8601 33.2801 63.0701 32.6401 62.7401 32.6401C62.7401 32.6401 63.3201 34.5701 63.5001 36.9701C63.5901 38.2101 65.2701 42.5301 67.1201 46.9001C66.7801 46.8501 66.4501 46.8301 66.1201 46.7601C66.1201 46.7601 63.1302 56.2801 61.7802 58.6401C60.4302 60.9901 52.9502 62.9701 50.0202 64.6701C47.0902 66.3701 47.9401 68.1001 47.9701 73.7301C47.9901 79.3601 50.1701 80.8201 53.6401 83.8601C60.0601 89.4901 68.3701 82.8301 68.3701 82.8301C68.3701 82.8301 64.6501 84.3001 62.2001 82.4001C61.3901 81.7801 55.4701 76.4001 63.7401 67.7401C63.3901 68.4701 63.5901 70.6101 64.3801 71.5001C65.1601 72.4001 65.9301 72.7701 66.8801 72.7001C67.8301 72.6301 68.5902 72.2201 68.5902 72.2201C68.5902 72.2201 63.8101 72.9401 66.1701 67.8901C67.5101 65.0201 70.7801 63.4101 72.9301 59.5501C73.8301 57.9301 73.5801 55.1301 73.6701 54.9601C73.6701 54.9901 74.5201 58.3101 74.3901 59.6201C74.0601 62.9201 72.1901 65.1401 72.1901 65.1401C72.1901 65.1401 78.4301 62.2801 77.7901 53.4301C77.6701 51.8601 77.1102 50.6401 76.7802 49.9101C79.6802 50.1601 80.5501 46.6701 80.5501 46.6701C80.5501 46.6701 79.7201 47.8001 77.9301 47.9301" fill="#171617"/>
<path d="M72.9501 50.9201C72.9501 51.2301 72.94 51.5501 72.91 51.8501C72.91 51.9601 72.8901 52.0801 72.8701 52.1901C71.7701 61.5001 58.97 68.8701 50.3 69.0301C50.2 69.0301 50.1101 69.0301 50.0101 69.0301C42.5601 69.0301 28.42 61.6201 27.17 52.2301C27.11 51.7901 27.0801 51.3501 27.0801 50.9101C27.0801 42.0801 34.48 31.9901 34.48 31.9901C34.48 31.9901 41.9601 27.7001 50.0001 27.7001C57.5701 27.7001 65.5201 31.9901 65.5201 31.9901C65.5201 31.9901 72.92 42.0801 72.92 50.9101" fill="#775243"/>
<path d="M50.02 68.52C46.61 68.52 41.53 66.54 37.36 63.59C32.59 60.2 29.57 56 29.09 52.06C29.04 51.67 29.02 51.28 29.02 50.87C29.02 42.98 34.62 33.78 35.84 31.87C37.36 31 43.57 27.71 50.02 27.71C56.1 27.71 62.59 31 64.21 31.88C65.45 33.83 71.02 43 71.02 50.87C71.02 51.16 71.02 51.44 70.99 51.72C70.99 51.82 70.97 51.93 70.96 52.04C69.96 61.22 57.72 68.37 50.27 68.52H50.31H50.02Z" fill="#8D614F"/>
<path d="M31.3801 47.86C31.3801 47.86 35.8101 57.02 39.6101 57.02C42.5201 57.02 46.1501 55.5301 46.1501 55.5301C46.1501 55.5301 47.6902 40.2701 39.2802 39.7801C35.4902 39.5601 31.3901 47.86 31.3901 47.86" fill="#775243"/>
<path d="M68.74 47.86C68.74 47.86 64.3101 57.02 60.5101 57.02C57.6001 57.02 53.97 55.5301 53.97 55.5301C53.97 55.5301 52.4301 40.2701 60.8401 39.7801C64.6301 39.5601 68.73 47.86 68.73 47.86" fill="#775243"/>
<path d="M35.49 41.7901C35.49 41.7901 35.5 41.7501 35.54 41.6901C35.58 41.6301 35.62 41.5301 35.7 41.4201C35.77 41.3101 35.87 41.1801 35.99 41.0301C36.12 40.9001 36.25 40.73 36.43 40.58C36.52 40.5 36.61 40.4201 36.71 40.3501C36.82 40.2801 36.92 40.2101 37.03 40.1301C37.14 40.0501 37.27 39.9901 37.39 39.9301C37.52 39.8701 37.65 39.7901 37.79 39.7501C38.07 39.6501 38.37 39.5401 38.69 39.5001C39 39.4301 39.33 39.4301 39.65 39.4301C39.97 39.4301 40.29 39.5101 40.61 39.5601C40.91 39.6501 41.21 39.7601 41.48 39.8701C41.74 40.0101 41.99 40.1501 42.21 40.2901C42.43 40.4401 42.61 40.6201 42.79 40.7701C42.87 40.8501 42.96 40.9201 43.03 40.9901C43.1 41.0701 43.16 41.1501 43.22 41.2201C43.34 41.3601 43.43 41.5001 43.51 41.6001C43.66 41.8101 43.74 41.9501 43.74 41.9501C43.74 41.9501 43.59 41.9 43.35 41.8C43.23 41.75 43.09 41.69 42.93 41.61C42.78 41.53 42.59 41.4601 42.39 41.3901C42.19 41.3201 41.99 41.2201 41.77 41.1501C41.55 41.0901 41.32 41.0201 41.09 40.9401C40.85 40.8901 40.6 40.8401 40.36 40.7801C40.23 40.7701 40.11 40.7601 39.98 40.7401C39.86 40.7301 39.73 40.7001 39.6 40.7101C39.35 40.7101 39.1 40.6901 38.85 40.7301C38.73 40.7501 38.6 40.7301 38.48 40.7701C38.36 40.7901 38.24 40.82 38.12 40.83C38 40.84 37.89 40.8901 37.77 40.9101C37.65 40.9401 37.54 40.9601 37.43 41.0001C37.21 41.0701 37 41.1301 36.81 41.2101C36.61 41.2801 36.44 41.3601 36.27 41.4201C36.12 41.5001 35.97 41.55 35.85 41.61C35.73 41.67 35.64 41.7101 35.58 41.7401C35.52 41.7701 35.48 41.7901 35.48 41.7901H35.49Z" fill="#281A15"/>
<path d="M64.48 41.7901C64.48 41.7901 64.45 41.7701 64.38 41.7401C64.32 41.7101 64.23 41.67 64.11 41.61C64 41.55 63.85 41.5001 63.7 41.4201C63.53 41.3601 63.36 41.2801 63.16 41.2101C62.97 41.1301 62.76 41.0701 62.53 41.0001C62.42 40.9601 62.31 40.9401 62.19 40.9101C62.07 40.8901 61.96 40.84 61.84 40.83C61.72 40.81 61.6 40.7901 61.48 40.7701C61.36 40.7401 61.24 40.7501 61.11 40.7301C60.86 40.6901 60.61 40.7101 60.36 40.7101C60.23 40.7001 60.11 40.7301 59.98 40.7401C59.85 40.7601 59.73 40.7601 59.6 40.7801C59.36 40.8401 59.11 40.8901 58.87 40.9401C58.64 41.0201 58.41 41.0901 58.19 41.1501C57.97 41.2301 57.77 41.3201 57.57 41.3901C57.37 41.4601 57.18 41.53 57.03 41.61C56.87 41.69 56.73 41.74 56.61 41.8C56.37 41.9 56.22 41.9501 56.22 41.9501C56.22 41.9501 56.29 41.8201 56.45 41.6001C56.53 41.4901 56.62 41.3601 56.74 41.2201C56.8 41.1501 56.86 41.0701 56.93 40.9901C57 40.9201 57.09 40.8501 57.17 40.7701C57.34 40.6201 57.53 40.4501 57.75 40.2901C57.98 40.1501 58.22 40.0101 58.48 39.8701C58.75 39.7601 59.05 39.6501 59.35 39.5601C59.66 39.5101 59.98 39.4401 60.31 39.4301C60.63 39.4301 60.96 39.4301 61.28 39.5001C61.6 39.5401 61.89 39.6501 62.17 39.7501C62.31 39.8001 62.44 39.8701 62.57 39.9301C62.7 40.0001 62.82 40.0501 62.93 40.1301C63.04 40.2101 63.15 40.2801 63.25 40.3501C63.35 40.4301 63.44 40.51 63.53 40.58C63.71 40.73 63.85 40.8901 63.97 41.0301C64.09 41.1701 64.19 41.3001 64.26 41.4201C64.34 41.5301 64.38 41.6301 64.42 41.6901C64.45 41.7501 64.46 41.7901 64.46 41.7901H64.48Z" fill="#281A15"/>
<path d="M46.15 55.53C39.16 58.86 34.24 56.7 32.02 48.07C32.02 48.07 40.43 41.54 44.89 49.91C45.58 51.21 46.14 55.53 46.14 55.53" fill="white"/>
<path d="M39.39 56.08C37.45 56.04 35.82 54.5 35.2 52.36C35.01 51.71 34.91 51 34.93 50.26C34.99 47.28 36.84 46.23 39.17 46.16C39.32 46.16 39.46 46.16 39.61 46.16C42.14 46.21 44.07 48.85 44.11 50.46C44.2 53.62 41.93 56.13 39.4 56.08" fill="#995F26"/>
<path d="M39.4102 55.2801C37.9402 55.2501 36.6502 53.9901 36.1202 52.0701C35.9502 51.4601 35.8702 50.8201 35.8902 50.1601C35.9302 47.9401 36.9802 46.8801 39.1902 46.8101C39.3002 46.8101 39.4102 46.8101 39.5202 46.8101H39.5802C41.5802 46.8601 43.1002 49.1801 43.1302 50.3801C43.1702 51.8201 42.6802 53.2001 41.8102 54.1601C41.1402 54.8901 40.3102 55.3 39.4602 55.3H39.4002" fill="#3D2E14"/>
<path d="M53.9502 55.53C60.9402 58.86 65.8602 56.7 68.0802 48.07C68.0802 48.07 59.6702 41.54 55.2102 49.91C54.5202 51.21 53.9502 55.53 53.9502 55.53Z" fill="white"/>
<path d="M60.7102 56.08C62.6502 56.04 64.2802 54.5 64.9002 52.36C65.0902 51.71 65.1901 51 65.1701 50.26C65.1101 47.28 63.2601 46.23 60.9301 46.16C60.7801 46.16 60.6401 46.16 60.4901 46.16C57.9601 46.21 56.0301 48.85 55.9901 50.46C55.9001 53.62 58.1702 56.13 60.7002 56.08" fill="#995F26"/>
<path d="M60.6301 55.28C59.7901 55.28 58.9601 54.88 58.2801 54.14C57.4001 53.18 56.9201 51.81 56.9601 50.36C56.9901 49.17 58.5101 46.84 60.5201 46.79H60.5701C60.6801 46.79 60.7901 46.79 60.9001 46.79C63.1101 46.86 64.1601 47.92 64.2001 50.14C64.2201 50.8 64.14 51.44 63.97 52.05C63.44 53.97 62.15 55.23 60.68 55.26H60.6301" fill="#3D2E14"/>
<path d="M39.7001 49.07C39.6601 50.98 38.3802 52.51 36.8402 52.48C36.1402 52.46 35.5201 52.13 35.0401 51.6C34.8701 51.03 34.7801 50.41 34.8001 49.76C34.8501 47.15 36.4701 46.23 38.5101 46.17C39.2401 46.81 39.7101 47.88 39.6901 49.07" fill="white"/>
<path d="M42.1099 54.61C42.0999 55.26 41.6599 55.7701 41.1399 55.7601C40.6199 55.7601 40.2099 55.2201 40.2199 54.5701C40.2299 53.9201 40.6699 53.4101 41.1899 53.4201C41.7099 53.4301 42.1199 53.96 42.1099 54.61Z" fill="white"/>
<path d="M60.58 49.36C60.54 51.27 59.26 52.8 57.72 52.77C57.03 52.75 56.4 52.42 55.93 51.89C55.76 51.32 55.67 50.7 55.69 50.05C55.74 47.44 57.36 46.52 59.4 46.46C60.13 47.1 60.6 48.17 60.57 49.36" fill="white"/>
<path d="M63.19 54.61C63.18 55.26 62.74 55.7701 62.22 55.7601C61.7 55.7601 61.29 55.2201 61.3 54.5701C61.31 53.9201 61.75 53.4101 62.27 53.4201C62.79 53.4301 63.2 53.96 63.19 54.61Z" fill="white"/>
<path d="M46.15 55.5301C46.15 55.5301 45.59 51.2101 44.9 49.9101C45.58 51.1901 46.14 55.4001 46.15 55.5201" fill="#735245"/>
<path d="M44.89 56.08C44.66 54.85 44.35 53.47 44.01 52.82C43.95 52.7 43.89 52.59 43.82 52.48C44.02 51.85 44.12 51.17 44.1 50.46C44.06 48.85 42.14 46.21 39.6 46.16C39.58 46.16 39.55 46.16 39.53 46.16C39.41 46.16 39.29 46.16 39.16 46.16C38.95 46.16 38.75 46.18 38.55 46.2C38.55 46.19 38.53 46.18 38.51 46.17C36.67 46.22 35.17 46.98 34.86 49.04C33.99 49.33 33.22 49.69 32.6 50.03C32.53 49.84 32.47 49.65 32.4 49.45C32.26 49.01 32.13 48.55 32 48.07C32.05 48.03 35.15 45.65 38.57 45.65C38.86 45.65 39.14 45.67 39.43 45.7C41.37 45.94 43.35 47.07 44.87 49.91C45.56 51.21 46.12 55.53 46.12 55.53C45.69 55.73 45.27 55.92 44.86 56.08" fill="#E2E1E1"/>
<path d="M43.8201 52.48C43.5801 52.07 43.3301 51.69 43.0801 51.36C43.1201 51.04 43.1401 50.71 43.1301 50.37C43.1001 49.18 41.5801 46.85 39.5801 46.8H39.5201C39.4101 46.8 39.3001 46.8 39.1901 46.8C39.1501 46.8 39.1101 46.8 39.0701 46.8C38.9201 46.57 38.75 46.37 38.55 46.2C38.75 46.18 38.95 46.16 39.16 46.16C39.28 46.16 39.4001 46.16 39.5301 46.16C39.5501 46.16 39.58 46.16 39.6 46.16C42.13 46.21 44.06 48.85 44.1 50.46C44.12 51.17 44.0201 51.85 43.8201 52.48Z" fill="#925E2B"/>
<path d="M43.0801 51.3501C42.0501 49.9901 40.8901 49.2301 39.7001 48.8501C39.6801 48.0801 39.4501 47.3701 39.0801 46.8101C39.1201 46.8101 39.1601 46.8101 39.2001 46.8101C39.3101 46.8101 39.4201 46.8101 39.5301 46.8101H39.5901C41.5901 46.8601 43.1101 49.1801 43.1401 50.3801C43.1401 50.7101 43.1401 51.0501 43.0901 51.3701" fill="#41321C"/>
<path d="M34.8701 49.04C35.1801 46.98 36.6801 46.22 38.5201 46.17C38.5301 46.18 38.5501 46.19 38.5601 46.2C38.7601 46.37 38.9301 46.58 39.0801 46.8C39.4501 47.36 39.6801 48.07 39.7001 48.84C39.0401 48.63 38.3701 48.54 37.7101 48.54C36.7201 48.54 35.7401 48.74 34.8701 49.03" fill="#E2E1E1"/>
<path d="M55.2102 56.08C54.8002 55.92 54.3802 55.74 53.9502 55.53C53.9502 55.53 53.9502 55.49 53.9702 55.42C53.9702 55.49 53.9502 55.53 53.9502 55.53C54.3802 55.73 54.8002 55.92 55.2102 56.08Z" fill="#876050"/>
<path d="M53.97 55.4201C54.06 54.7401 54.58 51.0901 55.21 49.9101C55.42 49.5101 55.64 49.1501 55.87 48.8201C55.64 49.1601 55.42 49.5201 55.21 49.9101C54.58 51.0901 54.06 54.7501 53.97 55.4201Z" fill="#735245"/>
<path d="M55.2102 56.08C54.8002 55.92 54.3802 55.7301 53.9502 55.5301C53.9502 55.5301 53.9502 55.4901 53.9702 55.4201C54.0602 54.7501 54.5802 51.0901 55.2102 49.9101C55.4202 49.5101 55.6402 49.1501 55.8702 48.8201C55.7702 49.1801 55.7102 49.59 55.7002 50.05C55.6802 50.69 55.7702 51.3201 55.9402 51.8901C56.0202 51.9801 56.1002 52.0601 56.1902 52.1401C56.2202 52.2601 56.2502 52.3701 56.2902 52.4801C56.2202 52.5901 56.1602 52.7101 56.1002 52.8201C55.7602 53.4601 55.4502 54.84 55.2202 56.08" fill="#E2E1E1"/>
<path d="M56.2802 52.48C56.2402 52.37 56.2102 52.25 56.1802 52.14C56.2402 52.2 56.3102 52.25 56.3802 52.3C56.3402 52.36 56.3102 52.42 56.2802 52.48Z" fill="#925E2B"/>
<path d="M67.68 49.4601C67.82 49.0201 67.96 48.5501 68.08 48.0601C67.95 48.5501 67.82 49.0101 67.68 49.4601ZM57.99 46.6801C58.85 46.1101 59.75 45.8101 60.65 45.7001C59.76 45.8101 58.86 46.1101 58 46.6801" fill="#735245"/>
<path d="M67.48 50.04C66.81 49.67 65.96 49.27 65.01 48.98C64.5 46.98 62.89 46.22 60.93 46.17C60.81 46.17 60.69 46.17 60.56 46.17C60.54 46.17 60.51 46.17 60.49 46.17C59.97 46.18 59.48 46.3 59.02 46.5C58.65 46.53 58.3 46.59 57.98 46.69C58.84 46.12 59.74 45.83 60.63 45.71C60.92 45.67 61.21 45.66 61.49 45.66C64.91 45.66 68.01 48.04 68.06 48.08C67.93 48.57 67.8 49.03 67.66 49.47C67.6 49.66 67.53 49.86 67.47 50.04" fill="#E2E1E1"/>
<path d="M65.01 48.97C64.68 48.87 64.34 48.78 63.99 48.71C63.57 47.46 62.57 46.85 60.9 46.8C60.79 46.8 60.68 46.8 60.57 46.8H60.52C60.28 46.8 60.05 46.84 59.83 46.91C59.7 46.75 59.56 46.6 59.41 46.47C59.28 46.47 59.16 46.48 59.03 46.49C59.49 46.29 59.98 46.18 60.5 46.16C60.53 46.16 60.55 46.16 60.57 46.16C60.69 46.16 60.81 46.16 60.94 46.16C62.89 46.22 64.51 46.97 65.02 48.97" fill="#925E2B"/>
<path d="M60.5601 48.8C60.4801 48.07 60.2201 47.41 59.8301 46.9C60.0501 46.84 60.2801 46.8 60.5201 46.79H60.5701C60.6801 46.79 60.7901 46.79 60.9001 46.79C62.5601 46.84 63.5701 47.46 63.9901 48.7C63.4701 48.6 62.9301 48.54 62.3901 48.54C61.7801 48.54 61.1701 48.61 60.5601 48.79" fill="#41321C"/>
<path d="M56.38 52.3C56.31 52.25 56.25 52.2 56.18 52.14C56.09 52.06 56.01 51.98 55.93 51.89C55.76 51.32 55.67 50.7 55.69 50.05C55.69 49.59 55.76 49.18 55.86 48.82C56.51 47.86 57.23 47.16 57.98 46.67C58.3 46.57 58.65 46.51 59.02 46.48C59.14 46.47 59.27 46.46 59.4 46.46C59.55 46.59 59.69 46.74 59.82 46.9C60.21 47.41 60.47 48.07 60.55 48.8C59.05 49.23 57.59 50.27 56.37 52.3" fill="#E2E1E1"/>
<path d="M46.1501 55.53C46.0601 55.1 45.9701 54.68 45.8701 54.25C45.7701 53.83 45.6801 53.4 45.5801 52.98C45.4801 52.56 45.3701 52.14 45.2501 51.72C45.1301 51.29 45.0001 50.92 44.8501 50.53C44.7601 50.35 44.6701 50.1 44.5801 49.97L44.2401 49.43C44.0001 49.08 43.7601 48.74 43.4701 48.43C43.3401 48.27 43.2001 48.12 43.0401 47.98C42.9001 47.83 42.7501 47.69 42.5801 47.57C42.4201 47.44 42.2601 47.31 42.0901 47.2C41.9201 47.08 41.7501 46.97 41.5701 46.88C41.2201 46.68 40.8401 46.54 40.4601 46.42C40.0801 46.3 39.6802 46.23 39.2802 46.19C38.8802 46.16 38.4701 46.15 38.0701 46.19C37.6601 46.22 37.2601 46.3 36.8601 46.39C36.0601 46.58 35.2701 46.87 34.5201 47.23C34.1401 47.41 33.7701 47.61 33.4101 47.83C33.0601 48.04 32.6901 48.28 32.3801 48.51L32.5801 47.94L32.9001 49.07C32.9901 49.45 33.1401 49.81 33.2701 50.18C33.4001 50.55 33.5301 50.92 33.7001 51.26C33.8701 51.61 34.0001 51.98 34.2001 52.31C34.4001 52.64 34.5502 53 34.7802 53.3C35.0102 53.6 35.2001 53.95 35.4701 54.21C35.7301 54.49 35.9601 54.79 36.2601 55.02L36.6901 55.39L37.1601 55.7C37.4701 55.93 37.8201 56.06 38.1601 56.21C38.5001 56.37 38.8801 56.43 39.2401 56.55C39.6201 56.6 40.0001 56.68 40.3801 56.69C40.7701 56.69 41.1601 56.73 41.5401 56.68C41.9301 56.63 42.3301 56.63 42.7101 56.54C43.1001 56.45 43.4901 56.41 43.8701 56.28C44.2501 56.16 44.6401 56.07 45.0201 55.93L46.1601 55.52L46.1501 55.53ZM46.1501 55.53L45.0801 56.08C44.7201 56.26 44.3401 56.39 43.9601 56.55C43.5901 56.72 43.1901 56.8 42.8001 56.93C42.4101 57.07 42.0001 57.11 41.6001 57.2C41.2001 57.3 40.7801 57.27 40.3601 57.32C39.9401 57.32 39.5301 57.28 39.1101 57.25C38.7001 57.15 38.2701 57.11 37.8801 56.95C37.4901 56.8 37.0801 56.66 36.7201 56.43L36.1601 56.11L35.6601 55.72C35.3101 55.48 35.0301 55.16 34.7401 54.85C34.4301 54.56 34.2101 54.19 33.9501 53.87C33.6801 53.54 33.5102 53.16 33.2802 52.81C33.0502 52.46 32.9001 52.07 32.7101 51.7C32.5201 51.33 32.3801 50.94 32.2401 50.55C32.1001 50.16 31.9401 49.78 31.8401 49.38L31.4901 48.2L31.3901 47.85L31.6901 47.63C32.0701 47.34 32.4401 47.1 32.8401 46.87C33.2301 46.64 33.6301 46.43 34.0401 46.24C34.8601 45.85 35.7201 45.55 36.6201 45.35C37.0701 45.25 37.5301 45.19 37.9901 45.16C38.4501 45.12 38.9201 45.15 39.3901 45.19C39.8501 45.25 40.3101 45.35 40.7601 45.5C40.9801 45.58 41.2001 45.65 41.4101 45.76C41.6201 45.86 41.8302 45.96 42.0302 46.09C42.2402 46.21 42.4201 46.34 42.6101 46.48C42.8001 46.61 42.9701 46.77 43.1401 46.93C43.3201 47.08 43.4701 47.25 43.6201 47.42C43.7801 47.59 43.9301 47.76 44.0601 47.94C44.3501 48.3 44.5801 48.68 44.8101 49.07L45.1201 49.66C45.2501 49.9 45.2901 50.08 45.3701 50.29C45.5001 50.71 45.6101 51.18 45.6801 51.61C45.7601 52.04 45.8301 52.48 45.8901 52.91C46.0101 53.78 46.1001 54.65 46.1601 55.52L46.1501 55.53Z" fill="#281D18"/>
<path d="M53.9502 55.5301C54.0002 54.6601 54.0902 53.7901 54.2202 52.9201C54.2802 52.4901 54.3502 52.0501 54.4302 51.6201C54.5002 51.1901 54.6202 50.7301 54.7402 50.3001C54.8302 50.0901 54.8702 49.9101 54.9902 49.6701L55.3102 49.0801C55.5402 48.7001 55.7702 48.3101 56.0602 47.9501C56.1902 47.7601 56.3402 47.5901 56.5002 47.4301C56.6502 47.2601 56.8102 47.0901 56.9802 46.9401C57.1502 46.7801 57.3202 46.6301 57.5102 46.4901C57.6902 46.3501 57.8802 46.2101 58.0802 46.1001C58.2802 45.9701 58.4802 45.8701 58.7002 45.7701C58.9102 45.6601 59.1302 45.5901 59.3502 45.5101C59.8002 45.3601 60.2502 45.2601 60.7202 45.2001C61.1902 45.1501 61.6502 45.1301 62.1202 45.1701C62.5902 45.1901 63.0402 45.2601 63.4902 45.3601C64.3802 45.5601 65.2502 45.8701 66.0702 46.2501C66.4802 46.4401 66.8802 46.6501 67.2702 46.8801C67.6702 47.1101 68.0302 47.3501 68.4202 47.6401L68.7202 47.8601L68.6202 48.2101L68.2702 49.3901C68.1702 49.7901 68.0102 50.1701 67.8702 50.5601C67.7302 50.9501 67.5802 51.3301 67.4002 51.7101C67.2202 52.0801 67.0602 52.4701 66.8302 52.8201C66.6102 53.1701 66.4302 53.5501 66.1602 53.8801C65.8902 54.2101 65.6802 54.5701 65.3702 54.8601C65.0802 55.1601 64.8002 55.4801 64.4502 55.7301L63.9502 56.1201L63.3902 56.4401C63.0302 56.6701 62.6202 56.8101 62.2302 56.9601C61.8402 57.1201 61.4102 57.1601 61.0002 57.2601C60.5802 57.2901 60.1602 57.3401 59.7502 57.3301C59.3402 57.2901 58.9202 57.3101 58.5202 57.2101C58.1202 57.1201 57.7102 57.0801 57.3202 56.9401C56.9302 56.8101 56.5302 56.7301 56.1602 56.5601C55.7802 56.4001 55.4002 56.2701 55.0402 56.0901L53.9702 55.5401L53.9502 55.5301ZM53.9502 55.5301L55.0902 55.9401C55.4702 56.0801 55.8602 56.1701 56.2402 56.2901C56.6202 56.4201 57.0102 56.4601 57.4002 56.5501C57.7902 56.6501 58.1802 56.6501 58.5702 56.6901C58.9602 56.7401 59.3502 56.6901 59.7302 56.7001C60.1202 56.6801 60.4902 56.6101 60.8702 56.5601C61.2302 56.4401 61.6102 56.3801 61.9502 56.2201C62.2902 56.0601 62.6502 55.9301 62.9502 55.7101L63.4202 55.4001L63.8502 55.0301C64.1502 54.8001 64.3902 54.5001 64.6402 54.2201C64.9102 53.9601 65.1002 53.6101 65.3302 53.3101C65.5602 53.0101 65.7102 52.6401 65.9102 52.3201C66.1102 51.9901 66.2402 51.6201 66.4102 51.2701C66.5802 50.9201 66.7102 50.5601 66.8402 50.1901C66.9702 49.8201 67.1102 49.4601 67.2102 49.0801L67.5302 47.9501L67.7302 48.5201C67.4202 48.2901 67.0502 48.0501 66.7002 47.8401C66.3402 47.6201 65.9702 47.4301 65.5902 47.2401C64.8402 46.8701 64.0502 46.5901 63.2502 46.4001C62.8502 46.3101 62.4402 46.2301 62.0402 46.2001C61.6402 46.1501 61.2302 46.1601 60.8302 46.2001C60.4302 46.2401 60.0302 46.3101 59.6502 46.4301C59.2702 46.5501 58.8902 46.6901 58.5402 46.8901C58.3602 46.9801 58.1902 47.0901 58.0202 47.2101C57.8502 47.3201 57.6902 47.4501 57.5302 47.5801C57.3702 47.7001 57.2202 47.8501 57.0702 47.9901C56.9202 48.1301 56.7702 48.2801 56.6402 48.4401C56.3502 48.7501 56.1102 49.0901 55.8702 49.4401L55.5302 49.9801C55.4402 50.1101 55.3502 50.3601 55.2602 50.5401C55.1102 50.9401 54.9702 51.3101 54.8602 51.7301C54.7302 52.1401 54.6302 52.5601 54.5302 52.9901C54.4202 53.4101 54.3302 53.8401 54.2402 54.2601C54.1402 54.6901 54.0502 55.1101 53.9602 55.5401L53.9502 55.5301Z" fill="#281D18"/>
<path d="M46.4601 66.4001H46.47C46.47 66.3201 46.4501 66.3201 46.4601 66.4001ZM54.4601 66.4001H54.48C54.48 66.3201 54.4801 66.3201 54.4601 66.4001Z" stroke="#231F20" stroke-width="0.32" stroke-miterlimit="10"/>
<path d="M53.2501 59.73C52.4701 59.32 54.7101 57.94 52.7501 57.11C51.9901 56.79 51.6601 58.12 50.1601 58.15C48.6601 58.12 48.0701 56.79 47.3101 57.11C45.3501 57.93 47.5801 59.32 46.8101 59.73C45.5101 60.41 40.9201 64.16 43.9901 65.82C46.1801 67.01 48.1202 67.6 50.0302 67.62C51.9402 67.6 53.8801 67.01 56.0701 65.82C59.1401 64.15 54.5501 60.41 53.2501 59.73Z" fill="#333333"/>
<path d="M51.95 65.5C51.82 65.5 51.7 65.49 51.6 65.48C51.42 65.45 51.26 65.42 51.11 65.36C50.97 65.31 50.84 65.25 50.71 65.17C50.58 65.09 50.47 65.01 50.4 64.95C50.34 64.9 50.29 64.85 50.24 64.81L50.19 64.76L50.13 64.82C50.13 64.82 50.03 64.91 49.97 64.96C49.86 65.05 49.76 65.12 49.66 65.18C49.53 65.26 49.39 65.32 49.25 65.37C49.11 65.42 48.94 65.46 48.77 65.49C48.63 65.51 48.43 65.52 48.24 65.5C48.07 65.5 47.89 65.46 47.71 65.41C47.01 65.23 46.38 64.81 46.11 64.33C46.04 64.2 46 64.07 45.99 63.95C45.98 63.83 46.01 63.73 46.04 63.64C46.09 63.54 46.12 63.49 46.16 63.46C46.18 63.44 46.2 63.41 46.25 63.41H46.31C46.31 63.41 46.26 63.66 46.23 63.72C46.22 63.77 46.2 63.84 46.21 63.92C46.21 64.01 46.25 64.11 46.32 64.21C46.57 64.62 47.16 64.99 47.8 65.12C47.97 65.16 48.13 65.18 48.27 65.18C48.3 65.18 48.33 65.18 48.35 65.18C48.48 65.18 48.62 65.16 48.73 65.15C48.87 65.12 49.01 65.09 49.13 65.04C49.25 64.99 49.36 64.94 49.47 64.87C49.55 64.82 49.64 64.75 49.72 64.68C49.77 64.64 49.81 64.59 49.85 64.55L49.93 64.46C49.93 64.46 49.98 64.4 50 64.38L50.09 62.75H50.31L50.4 64.38L50.54 64.55C50.54 64.55 50.62 64.63 50.67 64.68C50.76 64.76 50.84 64.82 50.92 64.87C51.03 64.94 51.14 65 51.26 65.04C51.38 65.09 51.52 65.13 51.67 65.15C51.86 65.18 51.99 65.19 52.13 65.18C52.28 65.18 52.44 65.16 52.61 65.12C53.24 64.99 53.84 64.62 54.09 64.21C54.15 64.11 54.19 64.02 54.2 63.93C54.21 63.84 54.2 63.77 54.17 63.71C54.14 63.66 54.09 63.41 54.09 63.41H54.15C54.15 63.41 54.21 63.43 54.24 63.47C54.28 63.5 54.31 63.56 54.35 63.63C54.39 63.73 54.41 63.83 54.4 63.95C54.4 64.06 54.35 64.19 54.28 64.32C54.01 64.8 53.38 65.23 52.68 65.4C52.5 65.45 52.32 65.48 52.15 65.49C52.09 65.49 52.03 65.49 51.97 65.49L51.95 65.5Z" fill="#131313"/>
<path d="M50.16 41.57C50.44 41.58 51.07 41.38 51.62 42.12C52.17 42.87 52.25 43.5101 52.29 44.4201C52.33 45.3301 52.54 47.09 52.29 47.55C52.04 48 52.29 48.1 52.05 49.1C51.81 50.11 51.58 51.54 51.55 52.32C51.52 53.1 51.59 52.93 51.52 53.87C51.46 54.81 51.15 56.74 51.39 57.09C51.62 57.44 51.66 59.61 51.59 59.97C51.52 60.33 50.55 62.78 50.17 62.82C49.78 62.87 48.85 60.51 48.85 59.97C48.85 59.43 48.7 57.96 48.89 57.31C49.09 56.66 49.22 57.2301 49.22 55.9201C49.22 54.6101 49.52 51.91 49.16 51.77C48.79 51.63 49.22 50.88 48.75 49.68C48.28 48.48 48.15 45.3201 48.08 44.4201C48.02 43.5101 48.71 41.5 50.16 41.57Z" fill="#FFF7F0"/>
<path d="M47.8799 62.03C47.7899 62 46.9899 61.7 46.4399 60.96C46.0799 60.48 45.3099 59.31 46.0399 58.76C46.1699 58.66 46.3299 58.61 46.4999 58.61C47.1299 58.61 47.7999 59.4 48.0599 59.74C48.6199 60.47 48.6999 61.32 48.6999 61.42L48.7699 62.34L47.8999 62.03H47.8799Z" fill="#232323"/>
<path d="M47.56 60.11C48.03 60.72 48.0801 61.4701 48.0801 61.4701C48.0801 61.4701 47.38 61.22 46.91 60.61C46.44 60 46.2101 59.3901 46.3901 59.2501C46.5701 59.1101 47.1 59.5 47.56 60.11Z" fill="#131313"/>
<path d="M52.2601 62.03C52.3501 62 53.1501 61.7 53.7001 60.96C54.0601 60.48 54.8301 59.31 54.1001 58.76C53.9701 58.66 53.8101 58.61 53.6401 58.61C53.0101 58.61 52.3401 59.4 52.0801 59.74C51.5201 60.47 51.4401 61.32 51.4401 61.42L51.3701 62.34L52.2401 62.03H52.2601Z" fill="#232323"/>
<path d="M52.5701 60.11C52.1001 60.72 52.05 61.4701 52.05 61.4701C52.05 61.4701 52.75 61.22 53.22 60.61C53.69 60 53.9201 59.3901 53.7401 59.2501C53.5601 59.1101 53.0401 59.5 52.5701 60.11Z" fill="#131313"/>
<path d="M69.4001 38.92C75.6401 35.99 71.1301 16.79 69.9301 16.15C68.8101 15.55 62.5201 21.14 60.8301 26.02C59.8001 28.99 60.0501 29.62 60.2001 29.76C59.6201 29.48 55.6 27.63 49.86 27.66C44.12 27.63 40.1001 29.48 39.5201 29.76C39.6701 29.62 39.9101 28.99 38.8801 26.02C37.1901 21.14 30.9501 15.71 29.7801 16.15C28.4601 16.64 23.7601 34.43 30.3101 38.92C29.9701 39.54 40.6601 28.69 50.9401 28.66C60.5001 28.64 69.7201 39.49 69.4001 38.92Z" fill="#775243"/>
<path d="M59.1501 26.5C55.8001 22.13 44.0101 25.77 41.9501 25.83C39.8901 25.89 39.9501 22.15 39.9501 22.15C39.9501 22.15 38.3101 24.91 38.3701 26.54C38.5301 30.67 40.8001 30.54 40.8001 30.54C40.3701 31.05 38.5601 31.62 38.3701 34.88C38.3101 36.03 38.9201 37.64 38.9201 37.64C38.9201 37.64 40.6002 33.32 43.2802 32.87C41.7702 33.88 41.3901 35.82 42.0101 37.25C42.7101 38.88 44.6601 40.55 46.2101 40.85C45.5301 40.25 45.0501 38.91 45.2401 37.9C45.5201 36.39 47.9001 34.13 47.9001 34.13C47.9001 34.13 47.3101 35.46 47.8701 36.66C49.9701 41.07 47.3001 43.21 47.3001 43.21C47.3001 43.21 59.1301 39.37 60.8201 33.31C61.3101 31.55 61.6301 29.76 59.1301 26.51L59.1501 26.5Z" fill="#171617"/>
<path d="M30.2901 18.0301C31.1101 17.8001 32.8001 20.4301 33.5501 21.2301C42.0101 30.3601 35.1701 33.5801 33.9701 34.6401C32.7701 35.7001 31.4101 37.3301 31.1801 37.2201C26.9101 35.2001 29.1601 18.3401 30.2901 18.0201V18.0301Z" fill="#F8A081"/>
<path d="M69.2401 18.0301C68.4201 17.8001 66.7301 20.4301 65.9801 21.2301C57.5201 30.3601 64.3601 33.5801 65.5601 34.6401C66.7601 35.7001 68.1201 37.3301 68.3501 37.2201C72.6201 35.2001 70.3701 18.3401 69.2501 18.0201L69.2401 18.0301Z" fill="#F8A081"/>
</svg>
