<svg width="102" height="102" viewBox="0 0 102 102" fill="none" xmlns="http://www.w3.org/2000/svg">
<path d="M92.67 0.419983H9.08002C4.29171 0.419983 0.410034 4.30172 0.410034 9.09003V92.68C0.410034 97.4683 4.29171 101.35 9.08002 101.35H92.67C97.4584 101.35 101.34 97.4683 101.34 92.68V9.09003C101.34 4.30172 97.4584 0.419983 92.67 0.419983Z" fill="#94A4A5"/>
<path d="M51.58 80.57C47.44 80.57 41.65 78.52 36.83 75.36C31.09 71.59 27.59 66.93 26.97 62.22C26.9 61.73 26.87 61.21 26.87 60.69C26.87 57.83 27.57 54.59 28.97 51.05C22.13 49.54 17.15 43.46 17.15 36.3C17.15 27.97 23.93 21.19 32.26 21.19C40.59 21.19 47 27.61 47.35 35.63C48.92 35.49 50.51 35.39 51.48 35.38C52.46 35.38 54.05 35.49 55.63 35.63C55.98 27.61 62.62 21.19 70.72 21.19C78.82 21.19 85.83 27.97 85.83 36.3C85.83 43.38 80.93 49.43 74.19 51C75.59 54.55 76.3 57.8 76.3 60.68C76.3 61.04 76.29 61.4 76.26 61.75C76.25 61.88 76.23 62.01 76.22 62.14C75.66 66.89 72.4 71.53 67.04 75.21C62.3 78.47 56.64 80.47 51.91 80.55H51.59L51.58 80.57Z" fill="#2F150C"/>
<path d="M84.52 36.31C84.52 28.69 78.34 22.51 70.72 22.51C63.1 22.51 56.92 28.69 56.92 36.31C56.92 36.59 56.94 36.85 56.98 37.1C54.92 36.87 52.64 36.71 51.49 36.7C50.34 36.7 48.06 36.86 46 37.1C46.03 36.85 46.06 36.59 46.06 36.31C46.06 28.69 39.88 22.51 32.26 22.51C24.64 22.51 18.46 28.69 18.46 36.31C18.46 43.41 23.81 49.24 30.7 50.02C30.67 50.14 30.69 50.19 30.75 50.19C29.34 53.43 28.18 57.16 28.18 60.7C28.18 61.16 28.21 61.61 28.27 62.06C29.54 71.68 43.98 79.27 51.58 79.27C51.68 79.27 51.77 79.27 51.87 79.27C60.71 79.11 73.78 71.55 74.9 62.01C74.91 61.9 74.93 61.78 74.94 61.66C74.97 61.35 74.98 61.02 74.98 60.7C74.98 57.1 73.78 53.29 72.34 50.01C79.2 49.2 84.51 43.38 84.51 36.31H84.52Z" fill="#2F150C"/>
<path d="M84.52 36.31C84.52 28.69 78.34 22.51 70.72 22.51C63.1 22.51 56.92 28.69 56.92 36.31C56.92 36.59 56.94 36.85 56.98 37.1C54.92 36.87 52.64 36.71 51.49 36.7C50.34 36.7 48.06 36.86 46 37.1C46.03 36.85 46.06 36.59 46.06 36.31C46.06 28.69 39.88 22.51 32.26 22.51C24.64 22.51 18.46 28.69 18.46 36.31C18.46 43.41 23.81 49.24 30.7 50.02C30.67 50.14 30.69 50.19 30.75 50.19C29.34 53.43 28.18 57.16 28.18 60.7C28.18 61.16 28.21 61.61 28.27 62.06C29.54 71.68 43.98 79.27 51.58 79.27C51.68 79.27 51.77 79.27 51.87 79.27C60.71 79.11 73.78 71.55 74.9 62.01C74.91 61.9 74.93 61.78 74.94 61.66C74.97 61.35 74.98 61.02 74.98 60.7C74.98 57.1 73.78 53.29 72.34 50.01C79.2 49.2 84.51 43.38 84.51 36.31" fill="#C9C9C9"/>
<path d="M40.93 31.67C46.73 38.42 40.82 38.71 37.08 42.54C33.33 46.37 33.72 50.05 27.37 45.54C23 42.44 22.48 34.66 26.22 30.83C29.97 27 37.44 27.61 40.93 31.67Z" fill="#ED9DB2"/>
<path d="M62.03 31.67C56.23 38.42 62.14 38.71 65.89 42.54C69.64 46.37 69.25 50.05 75.6 45.54C79.97 42.44 80.49 34.66 76.75 30.83C73 27 65.53 27.61 62.03 31.67Z" fill="#ED9DB2"/>
<path d="M51.58 75.5C48.1 75.5 42.91 73.62 38.66 70.83C33.79 67.63 30.71 63.65 30.22 59.93C30.17 59.56 30.14 59.19 30.14 58.81C30.14 55.03 31.92 50.48 33.68 46.9C35.75 42.69 39.49 39.52 43.98 38.19C46.36 37.48 49.06 36.91 51.57 36.91C53.56 36.91 55.76 37.32 57.83 37.87C63.22 39.3 67.71 43.07 70.04 48.14C71.59 51.5 73 55.47 73 58.82C73 59.09 73 59.36 72.97 59.63C72.97 59.73 72.95 59.83 72.94 59.93C71.92 68.62 59.42 75.37 51.82 75.51H51.86H51.57" fill="#D8D8D8"/>
<path d="M59.57 60.54C59.57 68.43 56 74.83 51.6 74.83C47.2 74.83 43.63 68.44 43.63 60.54C43.63 52.64 47.2 46.25 51.6 46.25C56 46.25 59.57 52.65 59.57 60.54Z" fill="white"/>
<path d="M32.5599 57.47C32.5599 57.47 37.0799 66.82 40.9599 66.82C43.9299 66.82 47.6299 65.3 47.6299 65.3C47.6299 65.3 49.1999 49.72 40.6099 49.23C36.7399 49 32.5599 57.47 32.5599 57.47Z" fill="#C9C9C9"/>
<path d="M70.6899 57.47C70.6899 57.47 66.17 66.82 62.29 66.82C59.32 66.82 55.6199 65.3 55.6199 65.3C55.6199 65.3 54.04 49.72 62.64 49.23C66.51 49 70.6899 57.47 70.6899 57.47Z" fill="#C9C9C9"/>
<path d="M74.91 62C73.79 71.54 60.72 79.09 51.88 79.26C51.78 79.26 51.69 79.26 51.59 79.26C43.99 79.26 29.55 71.67 28.28 62.05C31.73 61.65 33.53 64.28 41.99 68.18C43.28 68.77 59.77 68.87 61.06 68.28C69.04 64.6 71.81 61.81 74.92 62" fill="#E9E9EA"/>
<path d="M51.58 78.01C47.8 78.01 42.44 76.09 37.92 73.12C34.99 71.2 30.06 67.25 29.02 61.99C29.13 61.99 29.25 61.99 29.36 61.99C31.43 61.99 33.13 63 37.48 64.87C46.1 68.57 56.66 67.95 66.23 64.87C70.59 63.47 72.17 62.05 74.14 61.99C72.5 71.12 59.89 77.86 51.84 78.01H51.56" fill="white"/>
<path d="M54.5099 73.51C54.5099 74.11 53.8599 74.64 53.1099 74.97C52.5999 75.2 52.0299 75.33 51.5999 75.33C51.1699 75.33 50.6099 75.2 50.0899 74.97C49.3299 74.64 48.6799 74.11 48.6799 73.51C48.6799 72.5 50.5299 71.69 51.5999 71.69C52.6699 71.69 54.5199 72.5 54.5199 73.51" fill="#B3576F"/>
<path d="M51.5999 75.33C51.1599 75.33 50.6099 75.2 50.0899 74.97C49.3299 74.64 48.6799 74.11 48.6799 73.51C48.6799 73.3 48.7599 73.09 48.9099 72.9C49.6599 72.33 50.7599 71.97 51.5199 71.97C52.3999 71.97 53.73 72.46 54.45 73.18C54.49 73.29 54.5199 73.4 54.5199 73.51C54.5199 74.11 53.8699 74.64 53.1199 74.97C52.6099 75.2 52.0399 75.33 51.6099 75.33" fill="#9F596B"/>
<path d="M55.7599 70.25C54.5599 70.25 52.6599 70.55 51.8199 71.26C51.6299 71.42 51.5699 71.62 51.5499 71.82C51.5199 71.63 51.4399 71.43 51.2199 71.24C50.3899 70.53 48.7599 70.04 47.5599 70.04C45.7599 70.04 45.2 70.82 45.2 71.69C45.2 72.56 46.7999 73.99 48.5999 73.99C50.3999 73.99 51.5699 73.17 51.5699 72.3V72.2C51.5799 72.29 51.5699 72.37 51.5899 72.44C51.8999 73.27 52.7499 73.99 54.5499 73.99C56.3499 73.99 58.0499 72.56 58.0499 71.69C58.0499 70.82 57.5599 70.25 55.7499 70.25H55.7599Z" fill="white"/>
<path d="M58.07 71.56C58.06 71.43 58.0199 71.33 57.9899 71.28C58.0199 71.34 58.05 71.44 58.06 71.57C58.07 71.7 58.03 71.85 57.97 72.02C57.89 72.18 57.8 72.35 57.66 72.5C57.12 73.13 56.15 73.65 55.16 73.85C54.91 73.89 54.66 73.93 54.41 73.93C54.16 73.93 53.92 73.91 53.69 73.87C53.46 73.82 53.2399 73.76 53.0499 73.66C52.8499 73.57 52.68 73.46 52.53 73.34C52.38 73.22 52.25 73.09 52.16 72.96C52.06 72.84 51.99 72.71 51.92 72.61C51.81 72.4 51.69 72.32 51.69 72.32L51.7699 71.28H51.44L51.5199 72.32C51.5199 72.32 51.4 72.41 51.29 72.61C51.22 72.71 51.1599 72.84 51.0499 72.96C50.9599 73.09 50.8299 73.22 50.6799 73.34C50.5299 73.46 50.36 73.58 50.16 73.66C49.97 73.76 49.7499 73.82 49.5199 73.87C49.2899 73.91 49.0499 73.94 48.7999 73.93C48.5499 73.93 48.2999 73.89 48.0499 73.85C47.0499 73.65 46.0899 73.13 45.5499 72.5C45.4099 72.35 45.3099 72.18 45.2399 72.02C45.1699 71.86 45.1399 71.7 45.1499 71.57C45.1499 71.44 45.19 71.34 45.22 71.28C45.18 71.34 45.15 71.44 45.14 71.56C45.12 71.69 45.16 71.85 45.22 72.02C45.29 72.18 45.3899 72.36 45.5199 72.52C46.0499 73.18 47.01 73.76 48.03 74.01C48.29 74.07 48.5399 74.12 48.7999 74.13C49.0599 74.15 49.31 74.13 49.56 74.11C49.81 74.07 50.04 74.01 50.26 73.92C50.48 73.83 50.68 73.71 50.85 73.59C51.02 73.46 51.17 73.32 51.28 73.18C51.4 73.05 51.48 72.91 51.56 72.8C51.58 72.77 51.5999 72.74 51.6099 72.71C51.6299 72.74 51.65 72.77 51.67 72.8C51.75 72.9 51.82 73.05 51.95 73.18C52.06 73.32 52.21 73.46 52.38 73.59C52.55 73.72 52.7499 73.84 52.9599 73.92C53.1799 74.02 53.42 74.07 53.66 74.11C53.91 74.14 54.16 74.15 54.42 74.13C54.68 74.12 54.94 74.07 55.2 74.01C56.22 73.75 57.1699 73.18 57.7099 72.52C57.8499 72.36 57.94 72.18 58.01 72.02C58.07 71.85 58.11 71.69 58.09 71.56H58.07Z" fill="#5B5C5C"/>
<path d="M53.06 70.26C52.98 70.85 52.21 70.6 52 70.86C51.74 71.15 51.85 71.51 51.61 71.51C51.3 71.51 51.51 71.16 51.23 70.87C50.97 70.6 50.26 70.76 50.15 70.27C49.97 69.44 50.76 69.43 51.6 69.43C52.44 69.43 53.16 69.43 53.06 70.27V70.26Z" fill="#ED7693"/>
<path d="M36.75 51.28C36.75 51.28 36.76 51.24 36.8 51.18C36.84 51.11 36.89 51.02 36.96 50.9C37.03 50.78 37.13 50.65 37.25 50.5C37.38 50.36 37.52 50.19 37.7 50.04C37.79 49.96 37.88 49.88 37.98 49.8C38.09 49.73 38.2 49.65 38.31 49.57C38.42 49.49 38.55 49.43 38.68 49.36C38.81 49.29 38.94 49.22 39.09 49.17C39.38 49.07 39.68 48.96 40 48.92C40.32 48.84 40.65 48.8499 40.98 48.8499C41.31 48.8499 41.64 48.93 41.96 48.98C42.27 49.07 42.57 49.18 42.85 49.29C43.12 49.43 43.37 49.5799 43.6 49.7199C43.82 49.8799 44.01 50.05 44.19 50.2C44.28 50.28 44.36 50.35 44.44 50.43C44.51 50.51 44.57 50.59 44.63 50.67C44.75 50.81 44.85 50.95 44.92 51.06C45.08 51.28 45.15 51.4099 45.15 51.4099C45.15 51.4099 45 51.36 44.75 51.26C44.63 51.21 44.48 51.15 44.32 51.07C44.16 50.99 43.97 50.9199 43.77 50.8499C43.57 50.7799 43.36 50.6799 43.14 50.5999C42.91 50.5399 42.68 50.47 42.44 50.38C42.19 50.32 41.95 50.2799 41.7 50.2199C41.57 50.2199 41.44 50.2 41.32 50.18C41.19 50.17 41.07 50.14 40.94 50.15C40.68 50.15 40.43 50.13 40.18 50.17C40.06 50.19 39.92 50.17 39.8 50.21C39.68 50.24 39.55 50.26 39.43 50.28C39.31 50.29 39.19 50.34 39.07 50.37C38.95 50.4 38.83 50.42 38.73 50.46C38.5 50.53 38.29 50.6 38.09 50.68C37.89 50.75 37.71 50.83 37.54 50.89C37.38 50.97 37.23 51.02 37.12 51.08C37 51.14 36.9 51.18 36.84 51.21C36.77 51.24 36.74 51.26 36.74 51.26L36.75 51.28Z" fill="#565656"/>
<path d="M66.3399 51.28C66.3399 51.28 66.3099 51.26 66.2399 51.23C66.1799 51.2 66.0799 51.15 65.9699 51.1C65.8599 51.04 65.6999 50.99 65.5499 50.91C65.3799 50.85 65.1999 50.76 64.9999 50.7C64.7999 50.62 64.5899 50.55 64.3599 50.48C64.2499 50.44 64.1299 50.41 64.0199 50.39C63.8999 50.37 63.7899 50.32 63.6599 50.3C63.5399 50.28 63.4099 50.26 63.2899 50.23C63.1699 50.2 63.0399 50.21 62.9099 50.19C62.6599 50.15 62.3999 50.17 62.1499 50.17C62.0199 50.16 61.8899 50.19 61.7699 50.2C61.6399 50.22 61.51 50.23 61.39 50.24C61.14 50.31 60.8899 50.35 60.6499 50.4C60.4099 50.48 60.18 50.55 59.95 50.62C59.73 50.7 59.5199 50.8 59.3199 50.87C59.1199 50.94 58.9299 51.01 58.7699 51.09C58.6099 51.17 58.4599 51.23 58.3399 51.28C58.0899 51.38 57.9399 51.43 57.9399 51.43C57.9399 51.43 58.02 51.3 58.17 51.08C58.25 50.97 58.3499 50.83 58.4699 50.69C58.5299 50.62 58.5899 50.53 58.6599 50.46C58.7399 50.38 58.8199 50.31 58.9099 50.23C59.0899 50.08 59.2699 49.9 59.4999 49.75C59.7299 49.61 59.9799 49.46 60.2499 49.32C60.5299 49.21 60.83 49.1 61.14 49.01C61.46 48.96 61.7899 48.88 62.1199 48.88C62.4499 48.88 62.7799 48.88 63.1099 48.95C63.4299 48.99 63.7399 49.1 64.0199 49.2C64.1599 49.25 64.2899 49.32 64.4299 49.39C64.5599 49.46 64.6899 49.51 64.7999 49.6C64.9099 49.68 65.0299 49.75 65.1299 49.83C65.2299 49.91 65.33 49.99 65.42 50.07C65.6 50.22 65.7399 50.39 65.8699 50.53C65.9899 50.68 66.0899 50.81 66.1599 50.93C66.2399 51.04 66.2899 51.14 66.3199 51.21C66.3499 51.28 66.3699 51.31 66.3699 51.31L66.3399 51.28Z" fill="#565656"/>
<path d="M47.63 65.3C40.5 68.7 35.48 66.5 33.21 57.69C33.21 57.69 41.79 51.03 46.35 59.57C47.05 60.9 47.63 65.3 47.63 65.3Z" fill="white"/>
<path d="M40.7299 65.86C38.7499 65.82 37.0899 64.25 36.4499 62.07C36.2499 61.41 36.1599 60.68 36.1699 59.93C36.2299 56.89 38.1199 55.81 40.4999 55.74C40.6499 55.74 40.7999 55.74 40.9499 55.74C43.5399 55.8 45.4999 58.48 45.5399 60.13C45.6299 63.35 43.3199 65.92 40.7399 65.87" fill="#3D2F19"/>
<path d="M40.76 65.04C39.26 65 37.94 63.72 37.4 61.77C37.23 61.14 37.14 60.49 37.16 59.82C37.21 57.55 38.28 56.47 40.53 56.4C40.64 56.4 40.76 56.4 40.87 56.4H40.93C42.97 56.45 44.52 58.82 44.55 60.04C44.59 61.51 44.09 62.92 43.2 63.89C42.51 64.64 41.66 65.05 40.81 65.05H40.75" fill="#010101"/>
<path d="M55.59 65.3C62.72 68.7 67.75 66.5 70.01 57.69C70.01 57.69 61.43 51.03 56.87 59.57C56.16 60.9 55.59 65.3 55.59 65.3Z" fill="white"/>
<path d="M62.49 65.86C64.47 65.82 66.13 64.25 66.77 62.07C66.97 61.41 67.07 60.68 67.05 59.93C66.99 56.89 65.1 55.81 62.72 55.74C62.57 55.74 62.42 55.74 62.27 55.74C59.69 55.8 57.73 58.48 57.68 60.13C57.59 63.35 59.9001 65.92 62.4801 65.87" fill="#3D2F19"/>
<path d="M62.41 65.04C61.56 65.04 60.7 64.63 60.02 63.88C59.12 62.9 58.63 61.5 58.67 60.03C58.7 58.81 60.25 56.43 62.3 56.39H62.36C62.47 56.39 62.59 56.39 62.7 56.39C64.95 56.46 66.03 57.55 66.07 59.81C66.08 60.49 66 61.14 65.83 61.76C65.29 63.72 63.97 65 62.47 65.04H62.41Z" fill="#010101"/>
<path d="M41.0499 58.71C41.0099 60.66 39.7 62.22 38.14 62.19C37.43 62.17 36.79 61.84 36.31 61.29C36.14 60.71 36.05 60.07 36.06 59.41C36.12 56.75 37.77 55.8 39.85 55.74C40.6 56.39 41.0799 57.48 41.0499 58.7" fill="white"/>
<path d="M43.51 64.36C43.5 65.02 43.05 65.55 42.52 65.54C41.99 65.54 41.57 64.98 41.58 64.32C41.59 63.66 42.04 63.13 42.57 63.14C43.1 63.14 43.52 63.69 43.51 64.36Z" fill="white"/>
<path d="M62.3599 59.01C62.3199 60.96 61.0199 62.52 59.4499 62.49C58.7399 62.47 58.0999 62.14 57.6199 61.59C57.4499 61.01 57.3599 60.37 57.3699 59.71C57.4299 57.05 59.0799 56.1 61.1599 56.04C61.9099 56.69 62.3799 57.78 62.3599 59" fill="white"/>
<path d="M65.02 64.36C65.01 65.02 64.56 65.55 64.03 65.54C63.5 65.54 63.08 64.98 63.09 64.32C63.1 63.66 63.55 63.13 64.08 63.14C64.61 63.14 65.03 63.69 65.01 64.36H65.02Z" fill="white"/>
<path d="M46.35 65.86C46.77 65.69 47.2 65.51 47.63 65.3C47.19 65.51 46.77 65.7 46.35 65.86Z" fill="#E2E1E1"/>
<path d="M47.63 65.3C47.63 65.3 47.05 60.9 46.35 59.57C44.81 56.7 42.83 55.54 40.86 55.28C42.82 55.55 44.82 56.7 46.35 59.57C47.04 60.88 47.61 65.17 47.63 65.3ZM33.64 59.18C33.49 58.71 33.35 58.21 33.21 57.69C33.34 58.21 33.49 58.71 33.64 59.18Z" fill="#B9B8B8"/>
<path d="M46.3499 65.86C46.1199 64.6 45.8 63.19 45.45 62.54C45.39 62.42 45.3199 62.3 45.2599 62.19C45.4599 61.55 45.5599 60.85 45.5399 60.13C45.4999 58.48 43.54 55.79 40.95 55.74H40.89C40.76 55.74 40.6299 55.74 40.4999 55.74C40.2899 55.74 40.0799 55.76 39.8799 55.78C39.8699 55.77 39.8499 55.76 39.8399 55.75C37.9599 55.8 36.4299 56.58 36.1099 58.68C35.2299 58.97 34.4399 59.35 33.8099 59.7C33.7499 59.53 33.6899 59.36 33.6299 59.18C33.4799 58.71 33.34 58.21 33.2 57.69C33.25 57.65 36.4199 55.21 39.9099 55.21C40.2199 55.21 40.5399 55.23 40.8499 55.27C42.8099 55.54 44.7999 56.69 46.3399 59.56C47.0399 60.89 47.6199 65.29 47.6199 65.29C47.1799 65.5 46.7599 65.68 46.3399 65.85" fill="#E2E1E1"/>
<path d="M45.26 62.19C45.02 61.77 44.77 61.38 44.5 61.04C44.55 60.71 44.57 60.37 44.56 60.03C44.53 58.81 42.98 56.43 40.94 56.39H40.88C40.77 56.39 40.65 56.39 40.54 56.39C40.5 56.39 40.46 56.39 40.42 56.39C40.27 56.16 40.09 55.95 39.89 55.77C40.09 55.75 40.3 55.73 40.51 55.73C40.64 55.73 40.77 55.73 40.9 55.73H40.96C43.55 55.79 45.51 58.47 45.55 60.12C45.57 60.85 45.47 61.54 45.27 62.18" fill="#413320"/>
<path d="M44.4999 61.04C43.4499 59.66 42.2599 58.87 41.0499 58.49C41.0299 57.7 40.7899 56.98 40.4199 56.4C40.4599 56.4 40.4999 56.4 40.5399 56.4C40.6499 56.4 40.7699 56.4 40.8799 56.4H40.9399C42.9799 56.45 44.5299 58.82 44.5599 60.04C44.5599 60.38 44.5599 60.72 44.4999 61.05" fill="#0F1010"/>
<path d="M36.12 58.68C36.44 56.58 37.97 55.8 39.85 55.75C39.86 55.75 39.88 55.77 39.89 55.78C40.09 55.96 40.26 56.16 40.42 56.4C40.8 56.97 41.03 57.7 41.05 58.49C40.38 58.28 39.69 58.19 39.02 58.19C38 58.19 37.01 58.4 36.12 58.69" fill="#E2E1E1"/>
<path d="M56.88 65.86C56.46 65.7 56.03 65.51 55.6 65.3C55.6 65.3 55.6 65.26 55.62 65.19C55.62 65.26 55.6 65.3 55.6 65.3C56.04 65.51 56.46 65.69 56.88 65.86Z" fill="#E2E1E1"/>
<path d="M55.61 65.19C55.71 64.5 56.24 60.77 56.87 59.56C57.09 59.15 57.31 58.78 57.54 58.44C57.31 58.78 57.08 59.15 56.87 59.56C56.23 60.76 55.69 64.5 55.6 65.19" fill="#B9B8B8"/>
<path d="M56.88 65.86C56.46 65.69 56.03 65.51 55.6 65.3C55.6 65.3 55.6 65.26 55.62 65.19C55.71 64.51 56.25 60.77 56.89 59.56C57.1 59.16 57.33 58.79 57.56 58.45C57.46 58.82 57.4 59.24 57.39 59.7C57.37 60.36 57.46 60.99 57.64 61.58C57.72 61.67 57.8 61.75 57.89 61.83C57.92 61.95 57.95 62.07 57.99 62.18C57.92 62.29 57.86 62.41 57.79 62.53C57.44 63.18 57.13 64.6 56.89 65.85" fill="#E2E1E1"/>
<path d="M57.97 62.19C57.93 62.08 57.9 61.96 57.87 61.84C57.94 61.9 58 61.95 58.07 62.01C58.03 62.07 58 62.13 57.97 62.19Z" fill="#413320"/>
<path d="M69.6 59.14C69.75 58.67 69.88 58.19 70.02 57.69C69.89 58.19 69.75 58.68 69.6 59.14ZM59.71 56.26C60.57 55.7 61.47 55.39 62.36 55.27C61.47 55.39 60.57 55.7 59.72 56.26" fill="#B9B8B8"/>
<path d="M69.41 59.7C68.73 59.33 67.86 58.91 66.89 58.62C66.37 56.58 64.72 55.81 62.73 55.75C62.6 55.75 62.47 55.75 62.34 55.75H62.28C61.75 55.75 61.25 55.88 60.78 56.08C60.41 56.11 60.05 56.18 59.72 56.28C60.57 55.72 61.47 55.41 62.36 55.29C62.68 55.25 62.99 55.23 63.31 55.23C66.8 55.23 69.96 57.67 70.02 57.71C69.89 58.21 69.75 58.7 69.6 59.16C69.54 59.35 69.48 59.53 69.41 59.71" fill="#E2E1E1"/>
<path d="M66.88 58.61C66.54 58.51 66.2 58.42 65.84 58.34C65.42 57.07 64.39 56.44 62.69 56.39C62.58 56.39 62.46 56.39 62.35 56.39H62.29C62.04 56.39 61.81 56.44 61.58 56.5C61.45 56.33 61.31 56.18 61.15 56.05C61.02 56.05 60.89 56.05 60.76 56.07C61.22 55.87 61.73 55.75 62.26 55.74H62.32C62.45 55.74 62.58 55.74 62.71 55.74C64.7 55.8 66.35 56.57 66.87 58.61" fill="#413320"/>
<path d="M62.34 58.44C62.26 57.69 61.99 57.02 61.59 56.5C61.82 56.43 62.05 56.4 62.3 56.39H62.36C62.47 56.39 62.59 56.39 62.7 56.39C64.4 56.44 65.42 57.07 65.85 58.34C65.32 58.24 64.77 58.18 64.22 58.18C63.6 58.18 62.98 58.26 62.35 58.43" fill="#0F1010"/>
<path d="M58.0699 62C57.9999 61.95 57.9299 61.89 57.8699 61.83C57.7799 61.75 57.6999 61.67 57.6199 61.58C57.4499 61 57.3599 60.36 57.3699 59.7C57.3699 59.23 57.4399 58.81 57.5399 58.45C58.2099 57.47 58.9399 56.76 59.7099 56.26C60.0399 56.16 60.3999 56.09 60.7699 56.06C60.8999 56.06 61.0299 56.04 61.1599 56.04C61.3099 56.17 61.4499 56.32 61.5899 56.49C61.9899 57.01 62.2599 57.68 62.3399 58.43C60.8099 58.87 59.3099 59.93 58.0699 62Z" fill="#E2E1E1"/>
<path d="M47.6299 65.3C47.5399 64.86 47.4399 64.43 47.3499 63.99C47.2599 63.56 47.1599 63.12 47.0499 62.69C46.9499 62.26 46.8399 61.83 46.7099 61.41C46.5899 60.98 46.4499 60.6 46.2999 60.19C46.2099 60 46.1199 59.75 46.0199 59.61L45.67 59.06C45.42 58.71 45.1799 58.35 44.8799 58.04C44.7499 57.88 44.5999 57.72 44.4399 57.58C44.2899 57.43 44.1399 57.28 43.9699 57.16C43.8099 57.02 43.6499 56.89 43.4699 56.78C43.2999 56.66 43.1299 56.55 42.9399 56.46C42.5799 56.25 42.1899 56.11 41.7999 55.99C41.4099 55.87 40.9999 55.8 40.5999 55.76C40.1899 55.73 39.7699 55.72 39.3599 55.76C38.9399 55.79 38.5299 55.87 38.1199 55.96C37.2999 56.16 36.4999 56.45 35.7299 56.82C35.3499 57.01 34.9699 57.21 34.5999 57.43C34.2399 57.65 33.8599 57.88 33.5499 58.12L33.7499 57.53L34.0799 58.69C34.1799 59.08 34.3299 59.45 34.4599 59.82C34.5899 60.2 34.7299 60.57 34.8999 60.93C35.0699 61.29 35.1999 61.67 35.4099 62C35.6099 62.33 35.7699 62.71 36.0099 63.01C36.2399 63.31 36.4299 63.67 36.7099 63.94C36.9699 64.22 37.2099 64.53 37.5199 64.77L37.9599 65.15L38.4399 65.46C38.7499 65.69 39.1099 65.82 39.4599 65.99C39.8099 66.15 40.1999 66.21 40.5699 66.34C40.9599 66.39 41.3399 66.47 41.7399 66.48C42.1399 66.48 42.5299 66.52 42.9299 66.47C43.3299 66.42 43.7299 66.42 44.1299 66.32C44.5199 66.23 44.9299 66.19 45.3099 66.06C45.6999 65.94 46.0899 65.85 46.4799 65.7L47.64 65.29L47.6299 65.3ZM47.6299 65.3L46.5399 65.87C46.1699 66.05 45.7799 66.19 45.3999 66.35C45.0199 66.52 44.6099 66.61 44.2199 66.74C43.8199 66.88 43.3999 66.92 42.9999 67.01C42.5899 67.11 42.1599 67.09 41.7399 67.13C41.3099 67.13 40.8899 67.09 40.4599 67.06C40.0399 66.96 39.61 66.91 39.2 66.75C38.8 66.59 38.3799 66.46 38.0099 66.22L37.4399 65.89L36.9299 65.49C36.5699 65.24 36.2799 64.91 35.9899 64.6C35.6699 64.3 35.4499 63.93 35.1799 63.59C34.8999 63.26 34.7299 62.87 34.4999 62.51C34.2599 62.15 34.11 61.76 33.92 61.38C33.73 61 33.5799 60.61 33.4399 60.21C33.2999 59.81 33.1399 59.42 33.0299 59.02L32.67 57.82L32.5699 57.46L32.8699 57.23C33.2699 56.93 33.6399 56.69 34.0399 56.45C34.4399 56.22 34.8499 56 35.2599 55.8C36.0999 55.41 36.98 55.1 37.89 54.89C38.35 54.79 38.8199 54.72 39.2899 54.7C39.7599 54.66 40.2399 54.69 40.7099 54.74C41.1799 54.8 41.6599 54.9 42.1099 55.05C42.3399 55.13 42.5599 55.21 42.7699 55.32C42.9899 55.42 43.1999 55.53 43.3999 55.66C43.6099 55.77 43.7999 55.92 43.9899 56.06C44.1799 56.2 44.3599 56.35 44.5299 56.52C44.7099 56.67 44.8699 56.84 45.0199 57.02C45.1799 57.19 45.3299 57.37 45.4699 57.56C45.7599 57.92 45.9999 58.32 46.2299 58.71L46.5499 59.32C46.6799 59.57 46.7199 59.75 46.8099 59.97C46.9399 60.4 47.0599 60.88 47.1299 61.32C47.2199 61.76 47.2799 62.2 47.3399 62.65C47.4699 63.53 47.5599 64.42 47.6199 65.31L47.6299 65.3Z" fill="#5B5C5C"/>
<path d="M55.5899 65.3C55.6499 64.41 55.7399 63.52 55.8599 62.64C55.9199 62.19 55.9899 61.75 56.0699 61.31C56.1399 60.87 56.26 60.4 56.39 59.96C56.48 59.74 56.5199 59.56 56.6499 59.31L56.9699 58.7C57.2099 58.31 57.4399 57.91 57.7299 57.55C57.8599 57.36 58.0199 57.18 58.1799 57.01C58.3299 56.84 58.49 56.67 58.67 56.51C58.84 56.35 59.0199 56.19 59.2099 56.05C59.3999 55.91 59.5899 55.77 59.7999 55.65C59.9999 55.52 60.2099 55.41 60.4299 55.31C60.6399 55.2 60.8699 55.12 61.0899 55.04C61.5499 54.89 62.0199 54.78 62.4899 54.73C62.9599 54.68 63.4399 54.66 63.9099 54.69C64.3799 54.71 64.8499 54.79 65.3099 54.88C66.2199 55.09 67.0999 55.4 67.9399 55.79C68.3599 55.99 68.77 56.2 69.17 56.44C69.57 56.68 69.9499 56.92 70.3399 57.22L70.64 57.45L70.5399 57.81L70.1799 59.01C70.0799 59.41 69.9099 59.8 69.7699 60.2C69.6299 60.6 69.4799 60.99 69.2899 61.37C69.0999 61.75 68.9499 62.14 68.7099 62.5C68.4799 62.86 68.2999 63.25 68.0299 63.58C67.7599 63.92 67.5399 64.29 67.2199 64.59C66.9199 64.9 66.6299 65.23 66.2699 65.48L65.7599 65.88L65.1899 66.21C64.8299 66.45 64.4099 66.58 63.9999 66.74C63.5999 66.9 63.1599 66.95 62.7399 67.05C62.3099 67.08 61.8899 67.13 61.4599 67.12C61.0399 67.08 60.61 67.1 60.2 67C59.79 66.91 59.3699 66.87 58.9799 66.73C58.5799 66.6 58.1799 66.51 57.7999 66.34C57.4199 66.18 57.0199 66.05 56.6599 65.86L55.5699 65.29L55.5899 65.3ZM55.5899 65.3L56.7499 65.71C57.1399 65.85 57.53 65.95 57.92 66.07C58.3 66.2 58.7099 66.24 59.0999 66.33C59.4899 66.43 59.8999 66.43 60.2999 66.48C60.6999 66.53 61.0999 66.48 61.4899 66.49C61.8799 66.47 62.2699 66.4 62.6599 66.35C63.0299 66.23 63.4199 66.16 63.7699 66C64.1199 65.84 64.4799 65.71 64.7899 65.47L65.2699 65.16L65.7099 64.78C66.0099 64.55 66.2599 64.24 66.5199 63.95C66.7899 63.68 66.9799 63.32 67.2199 63.02C67.4599 62.71 67.6199 62.34 67.8199 62.01C68.0299 61.68 68.1599 61.3 68.3299 60.94C68.4999 60.59 68.6399 60.21 68.7699 59.83C68.8999 59.46 69.0499 59.09 69.1499 58.7L69.4799 57.54L69.6799 58.13C69.3599 57.89 68.9899 57.66 68.6299 57.44C68.2599 57.22 67.8899 57.02 67.4999 56.83C66.7299 56.46 65.9299 56.17 65.1099 55.97C64.6999 55.88 64.2899 55.8 63.8699 55.77C63.4599 55.72 63.0399 55.73 62.6299 55.77C62.2199 55.81 61.81 55.88 61.42 56C61.03 56.13 60.6399 56.27 60.2799 56.47C60.0899 56.56 59.9199 56.67 59.7499 56.79C59.5699 56.9 59.4099 57.03 59.2499 57.17C59.0799 57.29 58.9299 57.44 58.7899 57.59C58.6299 57.73 58.4899 57.89 58.3499 58.05C58.0599 58.36 57.8099 58.72 57.5599 59.07L57.2099 59.62C57.1199 59.76 57.0299 60.01 56.9299 60.2C56.7799 60.61 56.6399 60.99 56.5199 61.42C56.3899 61.84 56.2799 62.27 56.1799 62.7C56.0699 63.13 55.9799 63.56 55.8799 64C55.7799 64.44 55.6899 64.87 55.5999 65.31L55.5899 65.3Z" fill="#5B5C5C"/>
<path d="M53.11 74.97C52.6 75.2 52.03 75.33 51.6 75.33C51.17 75.33 50.61 75.2 50.09 74.97C50.19 74.56 50.56 74.25 51.01 74.25C51.24 74.25 51.44 74.33 51.6 74.46C51.76 74.33 51.97 74.25 52.19 74.25C52.64 74.25 53.01 74.55 53.11 74.97Z" fill="#ED7693"/>
<path d="M52.65 69.89C52.65 70.09 52.18 70.26 51.59 70.26C51 70.26 50.53 70.1 50.53 69.89C50.53 69.68 51 69.52 51.59 69.52C52.18 69.52 52.65 69.68 52.65 69.89Z" fill="#FEF8FB"/>
</svg>
