<svg width="101" height="101" viewBox="0 0 101 101" fill="none" xmlns="http://www.w3.org/2000/svg">
<path d="M92.28 0H8.69C3.90169 0 0.0200195 3.88169 0.0200195 8.67V92.26C0.0200195 97.0483 3.90169 100.93 8.69 100.93H92.28C97.0683 100.93 100.95 97.0483 100.95 92.26V8.67C100.95 3.88169 97.0683 0 92.28 0Z" fill="#94A4A5"/>
<path d="M50.98 72.8C50.91 72.8 50.83 72.8 50.75 72.8H50.3C50.13 72.78 49.98 72.77 49.83 72.76C49.18 72.71 48.53 72.62 47.88 72.5C47.88 72.5 47.77 72.48 47.75 72.47C47.73 72.47 47.71 72.47 47.7 72.47C44.59 71.87 41.12 70.52 37.91 68.66C36.92 68.09 35.95 67.45 35.03 66.78C34.39 66.32 33.76 65.82 33.15 65.3C31.64 64.69 30.47 63.81 29.58 62.64C28.13 61.11 27.23 59.04 26.85 56.3C26.62 55.18 26.47 50.98 26.62 49.74C26.64 48.06 26.76 46.21 27.36 43.96C25.51 42.36 24.61 39.7 23.64 35.39C23.53 34.91 23.25 34.47 22.91 33.97C22.13 32.78 20.95 30.99 22.9 28.23C23.81 26.94 25.49 26.29 27.9 26.29C31.4 26.29 36.53 27.81 38.64 29.63C38.78 29.57 38.93 29.51 39.09 29.45C40.9 28.72 43.93 27.49 48.82 27.28C48.84 27.28 48.89 27.28 48.91 27.28C49.1 27.28 49.29 27.3 49.5 27.35C49.91 27.33 50.27 27.31 50.6 27.31H50.74C51.07 27.31 51.43 27.31 51.82 27.34C52.05 27.28 52.27 27.25 52.48 27.25C52.48 27.25 52.51 27.25 52.52 27.25C57.42 27.37 60.47 28.55 62.3 29.25C62.46 29.31 62.61 29.37 62.75 29.42C64.88 27.52 70.16 25.89 73.65 25.89C75.94 25.89 77.56 26.51 78.46 27.74C80.46 30.47 79.31 32.28 78.55 33.48C78.23 33.99 77.95 34.43 77.85 34.91C76.96 39.24 76.11 41.91 74.29 43.54C75.04 46.16 75.14 48.33 75.17 50.64C75.25 51.32 75.29 51.98 75.29 52.61C75.29 53 75.28 53.34 75.25 53.68C75.25 53.76 75.24 53.85 75.23 53.94V54.04C75.2 54.23 75.18 54.39 75.15 54.55L75.13 54.69C74.92 58.03 74.02 60.51 72.39 62.27C71.6 63.34 70.59 64.17 69.31 64.79C68.78 65.29 68.23 65.77 67.67 66.22C66.71 66.99 65.67 67.73 64.56 68.41C61.61 70.24 58.4 71.58 55.28 72.28C55.25 72.28 55.22 72.3 55.19 72.3C53.83 72.6 52.52 72.77 51.31 72.8C51.26 72.8 51.24 72.8 51.22 72.8C51.19 72.8 51.17 72.8 51.14 72.8H50.97H50.98Z" fill="#2F150C"/>
<path d="M28.9001 43.44C28.1601 45.8 27.9801 47.75 27.9501 49.84C27.7801 50.91 28.0001 55.52 28.1701 56.07C28.5401 58.76 29.4201 60.5501 30.6001 61.7701C31.4601 62.9401 32.5801 63.66 33.8501 64.14C34.4801 64.68 35.1301 65.2 35.8101 65.7C36.7001 66.35 37.6301 66.95 38.5801 67.5C41.7101 69.32 45.0601 70.6001 47.9501 71.1601C48.0101 71.1601 48.0701 71.1801 48.1301 71.1901C48.7501 71.3101 49.3501 71.39 49.9201 71.43C50.0501 71.43 50.1901 71.45 50.3401 71.45C50.4501 71.45 50.5801 71.45 50.7001 71.45C50.8001 71.45 50.9101 71.45 51.0001 71.45H51.1401C51.1401 71.45 51.2401 71.45 51.2901 71.45C52.4401 71.42 53.6601 71.2601 54.9201 70.9801H54.9401L55.0001 70.96C57.9301 70.31 61.0501 69.0201 63.8901 67.2601C64.9201 66.6201 65.9301 65.92 66.8601 65.17C67.4601 64.69 68.0301 64.19 68.5701 63.67C69.6701 63.17 70.6301 62.48 71.3801 61.42C72.7101 60.02 73.6201 57.89 73.8301 54.55C73.8601 54.35 73.9001 54.14 73.9201 53.93C73.9301 53.81 73.9401 53.7001 73.9501 53.5801C73.9701 53.2601 73.9801 52.94 73.9801 52.62C73.9801 51.99 73.9301 51.3601 73.8601 50.7201C73.8301 48.1001 73.7101 45.87 72.7701 43.04C74.7501 41.78 75.6001 39.37 76.5801 34.6301C77.0401 32.4101 79.5901 31.48 77.4201 28.52C75.0301 25.26 64.1901 28.86 63.2001 30.96C61.5401 30.51 58.5501 28.73 52.5301 28.58C52.3601 28.58 52.1901 28.62 52.0201 28.68C51.5601 28.65 51.0901 28.63 50.6401 28.64C50.2201 28.64 49.8001 28.66 49.3801 28.69C49.2201 28.64 49.0701 28.6 48.9101 28.61C42.8901 28.87 39.9201 30.7 38.2801 31.18C37.2501 29.1 26.3501 25.69 24.0201 29C21.9001 32 24.4701 32.89 24.9701 35.1C26.0301 39.81 26.9301 42.22 28.9301 43.44H28.9001Z" fill="#2F150C"/>
<path d="M72.76 43.05C73.7 45.87 73.82 48.11 73.85 50.73C73.92 51.36 73.97 52 73.97 52.63C73.97 52.95 73.97 53.27 73.94 53.59C73.94 53.71 73.92 53.82 73.91 53.94C73.89 54.15 73.85 54.35 73.82 54.56C73.52 59.35 71.77 61.65 69.44 62.89C69.38 62.92 69.32 62.96 69.26 62.98C68.52 63.75 67.71 64.49 66.85 65.18C65.91 65.94 64.91 66.64 63.88 67.27C61.04 69.03 57.92 70.32 54.99 70.97H54.93L54.91 70.99C53.65 71.27 52.4301 71.43 51.2801 71.46C51.2301 71.46 51.18 71.46 51.13 71.46H50.99H50.92C50.71 71.46 50.5201 71.46 50.3301 71.45C50.1801 71.45 50.04 71.44 49.91 71.43C49.34 71.39 48.74 71.31 48.12 71.19C48.06 71.18 48 71.17 47.94 71.16C45.05 70.61 41.7 69.32 38.57 67.5C37.62 66.95 36.69 66.34 35.8 65.7C34.84 65 33.91 64.25 33.06 63.45C32.4 63.16 31.7801 62.81 31.2101 62.35C29.7001 61.14 28.58 59.22 28.14 56.07C27.98 55.52 27.75 50.91 27.92 49.84C27.95 47.75 28.13 45.81 28.87 43.44C26.87 42.22 25.98 39.82 24.91 35.1C24.41 32.89 21.8401 32 23.9601 29C26.2901 25.7 37.19 29.11 38.22 31.18C39.87 30.7 42.83 28.87 48.85 28.61C49.21 28.6 49.57 28.79 49.94 28.97C50.15 28.97 50.3701 28.95 50.5801 28.95C50.8501 28.95 51.11 28.95 51.37 28.95C51.74 28.77 52.1 28.56 52.47 28.57C58.5 28.72 61.49 30.5 63.14 30.95C64.13 28.85 74.97 25.25 77.36 28.51C79.53 31.47 76.9801 32.41 76.5201 34.62C75.5401 39.35 74.6901 41.77 72.7101 43.03" fill="black"/>
<path d="M39.5399 58.1701C35.1599 58.2101 31.69 58.2401 31.62 50.3901C31.58 46.5201 35.2799 43.5901 38.6099 43.5601C38.8699 43.5601 39.13 43.5701 39.37 43.6101C43.58 44.2301 46.6299 48.3401 47.1599 51.9501C47.3799 53.4601 47.0399 54.7501 46.1699 55.7701C44.8899 57.2601 42.4699 58.1401 39.5399 58.1601" fill="#F8D089"/>
<path d="M76.8301 28.9801C76.2001 28.0901 74.7201 27.9201 73.5801 27.9301C69.5001 27.9701 64.3201 30.3201 63.8401 31.3801L63.5801 31.9401L63.4701 31.9101C60.7901 30.4801 55.4801 28.6001 50.6201 28.6401C45.5201 28.6901 40.4201 30.6401 37.8501 32.0901L37.6201 31.6101C37.1101 30.5601 31.9001 28.3001 27.8201 28.3401C26.6801 28.3501 25.2001 28.5501 24.5801 29.4501C23.4401 31.1301 23.8801 31.8301 24.6301 33.0001C25.0201 33.6001 25.4501 34.2901 25.6401 35.1601C26.6201 39.6601 27.4601 42.1501 29.2701 43.3001L29.7501 43.6001L29.5801 44.1501C28.6001 47.3701 28.6301 49.8501 28.6701 52.9901C28.6701 53.3201 28.6701 53.6501 28.6701 53.9901C28.7401 62.1701 31.9901 63.9101 36.1301 64.7701C36.7701 65.3201 37.4401 65.8601 38.1601 66.3901C42.3901 69.4501 47.5401 71.4901 50.9801 71.4501H51.2701H51.2301C55.6701 71.3201 61.7701 68.6101 66.2101 64.4301C70.1701 63.4701 73.2001 61.5501 73.1301 53.6001C73.1301 53.2601 73.1301 52.9201 73.1301 52.6001C73.1101 49.4601 73.1001 46.9801 72.0601 43.7701L71.8801 43.2201L72.3501 42.9101C74.1501 41.7301 74.9401 39.2201 75.8401 34.7001C76.0201 33.8201 76.4401 33.1301 76.8101 32.5201C77.5401 31.3401 77.9701 30.6301 76.8001 28.9701" fill="#191919"/>
<path d="M31.99 49.45C31.99 49.45 36.55 58.65 40.38 58.62C43.31 58.59 46.96 57.06 46.96 57.06C46.96 57.06 48.38 41.65 39.88 41.23C36.06 41.04 31.99 49.45 31.99 49.45Z" fill="black"/>
<path d="M69.6902 49.11C69.6902 49.11 65.3002 58.4 61.4702 58.43C58.5402 58.46 54.8602 56.99 54.8602 56.99C54.8602 56.99 53.1702 41.6 61.6602 41.03C65.4802 40.77 69.6902 49.11 69.6902 49.11Z" fill="black"/>
<path d="M36.0801 43.29C36.0801 43.29 36.0901 43.25 36.1301 43.19C36.1601 43.13 36.21 43.03 36.29 42.92C36.36 42.8 36.4601 42.67 36.5801 42.53C36.7101 42.39 36.8401 42.22 37.0201 42.07C37.1101 41.99 37.2 41.91 37.3 41.83C37.41 41.76 37.5101 41.68 37.6301 41.6C37.7401 41.52 37.8701 41.46 38.0001 41.39C38.1301 41.33 38.2601 41.25 38.4001 41.2C38.6901 41.1 38.98 40.99 39.3 40.94C39.62 40.86 39.9501 40.87 40.2701 40.86C40.6001 40.86 40.92 40.93 41.23 40.98C41.54 41.07 41.84 41.17 42.11 41.28C42.38 41.42 42.63 41.56 42.85 41.7C43.07 41.85 43.2601 42.03 43.4401 42.17C43.5301 42.25 43.6101 42.32 43.6801 42.39C43.7601 42.47 43.8101 42.55 43.8801 42.62C44.0001 42.76 44.1 42.9 44.17 43C44.33 43.22 44.41 43.35 44.41 43.35C44.41 43.35 44.2601 43.3 44.0101 43.2C43.8901 43.15 43.7401 43.09 43.5801 43.02C43.4201 42.94 43.2301 42.87 43.0301 42.8C42.8301 42.73 42.6201 42.64 42.4001 42.56C42.1701 42.5 41.9401 42.43 41.7101 42.35C41.4701 42.3 41.22 42.26 40.98 42.2C40.85 42.19 40.73 42.18 40.6 42.17C40.47 42.16 40.35 42.13 40.22 42.14C39.97 42.14 39.71 42.13 39.47 42.17C39.34 42.19 39.22 42.17 39.1 42.21C38.98 42.23 38.86 42.26 38.73 42.28C38.61 42.29 38.5001 42.34 38.3801 42.37C38.2601 42.4 38.15 42.42 38.04 42.46C37.82 42.53 37.6 42.6 37.41 42.68C37.21 42.75 37.0401 42.83 36.8701 42.9C36.7201 42.98 36.5701 43.03 36.4501 43.09C36.3301 43.15 36.2401 43.19 36.1801 43.22C36.1201 43.25 36.0801 43.27 36.0801 43.27V43.29Z" fill="white"/>
<path d="M65.57 43.02C65.57 43.02 65.53 43 65.47 42.97C65.41 42.94 65.31 42.9 65.2 42.84C65.08 42.78 64.93 42.73 64.78 42.65C64.61 42.59 64.44 42.51 64.24 42.44C64.05 42.36 63.83 42.3 63.61 42.23C63.5 42.19 63.38 42.17 63.27 42.14C63.15 42.12 63.04 42.07 62.91 42.06C62.79 42.04 62.67 42.02 62.55 42C62.43 41.97 62.3 41.98 62.17 41.97C61.92 41.94 61.67 41.95 61.42 41.96C61.29 41.96 61.17 41.98 61.04 41.99C60.91 42.01 60.79 42.02 60.66 42.03C60.41 42.09 60.17 42.14 59.93 42.2C59.7 42.28 59.47 42.36 59.24 42.42C59.02 42.5 58.82 42.6 58.62 42.67C58.42 42.74 58.23 42.81 58.08 42.89C57.92 42.97 57.78 43.03 57.66 43.08C57.42 43.18 57.27 43.23 57.27 43.23C57.27 43.23 57.34 43.1 57.5 42.88C57.58 42.77 57.67 42.64 57.79 42.49C57.85 42.42 57.91 42.34 57.98 42.26C58.05 42.19 58.14 42.11 58.22 42.03C58.39 41.88 58.58 41.7 58.8 41.54C59.03 41.4 59.27 41.25 59.53 41.11C59.81 40.99 60.1 40.89 60.4 40.79C60.72 40.74 61.04 40.66 61.36 40.65C61.69 40.65 62.02 40.65 62.33 40.71C62.65 40.75 62.95 40.85 63.23 40.95C63.38 41 63.51 41.07 63.64 41.13C63.77 41.2 63.9 41.25 64.01 41.33C64.12 41.41 64.23 41.48 64.34 41.55C64.44 41.63 64.53 41.71 64.62 41.78C64.8 41.93 64.94 42.1 65.07 42.23C65.19 42.38 65.29 42.5 65.36 42.62C65.44 42.73 65.49 42.83 65.52 42.89C65.55 42.95 65.57 42.99 65.57 42.99V43.02Z" fill="white"/>
<path d="M46.9601 57.06C39.9401 60.48 34.9501 58.35 32.6401 49.66C32.6401 49.66 41.0701 43 45.6501 51.4C46.3601 52.71 46.9701 57.06 46.9701 57.06" fill="white"/>
<path d="M40.1502 57.67C38.1902 57.64 36.5402 56.11 35.8802 53.96C35.6802 53.31 35.5702 52.59 35.5802 51.85C35.6202 48.85 37.4702 47.76 39.8202 47.67C39.9702 47.67 40.1102 47.66 40.2602 47.66C42.8202 47.69 44.7802 50.33 44.8402 51.96C44.9502 55.14 42.7002 57.71 40.1402 57.68" fill="#C4B635"/>
<path d="M40.16 56.8601C38.67 56.8401 37.3601 55.5801 36.8101 53.6501C36.6301 53.0301 36.55 52.3901 36.55 51.7201C36.58 49.4801 37.63 48.4001 39.86 48.3101C39.97 48.3101 40.0901 48.31 40.2001 48.3H40.2601C42.2801 48.33 43.8301 50.66 43.8701 51.87C43.9201 53.33 43.4401 54.72 42.5701 55.69C41.9001 56.43 41.06 56.8501 40.22 56.8601H40.16Z" fill="#47441A"/>
<path d="M54.8301 56.99C61.9201 60.29 66.8601 58.07 69.0201 49.34C69.0201 49.34 60.48 42.83 56.04 51.32C55.35 52.64 54.8201 57 54.8201 57" fill="white"/>
<path d="M61.66 57.4801C63.62 57.4201 65.25 55.8601 65.86 53.6901C66.05 53.0301 66.14 52.3101 66.12 51.5701C66.03 48.5701 64.15 47.5201 61.8 47.4701C61.65 47.4701 61.51 47.4701 61.36 47.4701C58.81 47.5501 56.89 50.2201 56.86 51.8501C56.8 55.0401 59.1 57.5601 61.66 57.4801Z" fill="#C4B635"/>
<path d="M61.5702 56.67C60.7302 56.67 59.8802 56.28 59.2002 55.54C58.3102 54.58 57.8102 53.2 57.8302 51.74C57.8502 50.53 59.3702 48.17 61.3902 48.11H61.4402C61.5502 48.11 61.6702 48.11 61.7802 48.11C64.0102 48.16 65.0802 49.22 65.1502 51.46C65.1702 52.13 65.0901 52.78 64.9301 53.39C64.4101 55.33 63.1202 56.61 61.6402 56.66H61.5802" fill="#47441A"/>
<path d="M40.3902 50.6001C40.3702 52.5301 39.0902 54.0801 37.5402 54.0601C36.8402 54.0601 36.2102 53.7201 35.7202 53.1901C35.5402 52.6201 35.4502 51.9901 35.4602 51.3401C35.4902 48.7101 37.1202 47.7601 39.1802 47.6801C39.9302 48.3201 40.4102 49.3901 40.3902 50.6001Z" fill="white"/>
<path d="M42.8799 56.1601C42.8799 56.8101 42.4399 57.3401 41.9199 57.3301C41.3899 57.3301 40.9799 56.7901 40.9899 56.1301C40.9899 55.4801 41.4299 54.9501 41.9499 54.9601C42.4799 54.9601 42.8899 55.5001 42.8799 56.1601Z" fill="white"/>
<path d="M61.4701 50.7C61.4501 52.63 60.1701 54.18 58.6201 54.16C57.9201 54.16 57.2901 53.82 56.8001 53.29C56.6201 52.72 56.5301 52.09 56.5401 51.44C56.5701 48.81 58.2001 47.86 60.2601 47.78C61.0001 48.42 61.4901 49.49 61.4701 50.7Z" fill="white"/>
<path d="M64.15 55.97C64.15 56.62 63.71 57.15 63.19 57.14C62.66 57.14 62.25 56.6 62.25 55.94C62.25 55.29 62.69 54.76 63.21 54.77C63.74 54.77 64.15 55.31 64.15 55.97Z" fill="white"/>
<path d="M46.9601 57.06C46.9601 57.06 46.3501 52.71 45.6401 51.4C43.8701 48.15 41.5201 47.15 39.3101 47.15C39.0601 47.15 38.8001 47.16 38.5601 47.19C38.8101 47.17 39.0601 47.15 39.3101 47.15C41.5201 47.15 43.8701 48.15 45.6401 51.4C46.3401 52.69 46.9401 56.93 46.9501 57.05M33.1101 51.25C32.9401 50.75 32.7801 50.21 32.6301 49.66C32.7801 50.22 32.9401 50.75 33.1101 51.25Z" fill="#010000"/>
<path d="M45.6901 57.62C45.4501 56.38 45.1202 54.99 44.7802 54.34C44.7102 54.22 44.6501 54.11 44.5801 53.99C44.7701 53.36 44.8701 52.67 44.8401 51.95C44.7801 50.32 42.8201 47.68 40.2601 47.65H40.2301C40.0901 47.65 39.9501 47.65 39.8201 47.66C39.6101 47.66 39.4101 47.68 39.2101 47.71C39.2101 47.7 39.1901 47.69 39.1701 47.68C37.3101 47.75 35.8101 48.53 35.5101 50.61C34.6401 50.91 33.8601 51.29 33.2401 51.63C33.1901 51.5 33.1501 51.37 33.1001 51.24C32.9301 50.74 32.7701 50.2 32.6201 49.65C32.6201 49.65 33.6201 48.86 35.1101 48.17C36.0901 47.72 37.2801 47.31 38.5401 47.18C38.7901 47.16 39.0401 47.14 39.2901 47.14C41.5001 47.14 43.8501 48.14 45.6201 51.39C46.3301 52.7 46.9401 57.05 46.9401 57.05C46.5101 57.26 46.0901 57.45 45.6801 57.61" fill="#E2E1E1"/>
<path d="M44.58 54C44.34 53.59 44.0799 53.21 43.8199 52.87C43.8599 52.54 43.8799 52.21 43.8699 51.87C43.8299 50.67 42.2699 48.33 40.2599 48.3H40.2C40.09 48.3 39.9799 48.3 39.8599 48.31C39.8199 48.31 39.7799 48.31 39.7399 48.31C39.5899 48.08 39.41 47.88 39.21 47.7C39.41 47.68 39.6199 47.66 39.8199 47.65C39.9599 47.65 40.0999 47.64 40.2299 47.64H40.2599C42.8199 47.67 44.78 50.31 44.84 51.94C44.87 52.66 44.77 53.35 44.58 53.98" fill="#B5A93D"/>
<path d="M43.82 52.8701C42.77 51.5101 41.59 50.7401 40.38 50.3801C40.35 49.6001 40.11 48.8901 39.73 48.3201C39.77 48.3201 39.81 48.3201 39.85 48.3201C39.96 48.3201 40.08 48.3201 40.19 48.3101H40.25C42.27 48.3401 43.82 50.6701 43.86 51.8801C43.86 52.2201 43.86 52.5501 43.81 52.8801" fill="#49451F"/>
<path d="M35.52 50.6101C35.82 48.5301 37.33 47.7501 39.18 47.6801C39.19 47.6901 39.21 47.7001 39.22 47.7101C39.42 47.8801 39.6 48.0901 39.75 48.3201C40.13 48.8801 40.37 49.6001 40.4 50.3801C39.75 50.1801 39.1 50.1001 38.45 50.1001C37.42 50.1001 36.42 50.3201 35.52 50.6201" fill="#E2E1E1"/>
<path d="M56.11 57.53C55.69 57.37 55.2701 57.19 54.8401 56.99C55.2801 57.19 55.7 57.37 56.11 57.53Z" fill="#202021"/>
<path d="M56.11 57.5301C55.69 57.3701 55.2701 57.1901 54.8401 56.9901C54.8401 56.9901 54.8501 56.9001 54.8701 56.7401C54.8701 56.7301 54.8701 56.7201 54.8701 56.7101C55.0001 55.7201 55.47 52.4301 56.05 51.3101C56.26 50.9101 56.4801 50.5401 56.7101 50.2101C56.6101 50.5701 56.56 50.9901 56.55 51.4501C56.55 52.1001 56.6301 52.7301 56.8101 53.3001C56.8901 53.3901 56.9701 53.4701 57.0601 53.5501C57.0901 53.6701 57.12 53.7801 57.16 53.8901C57.09 54.0001 57.03 54.1201 56.97 54.2401C56.63 54.8901 56.33 56.2901 56.11 57.5301Z" fill="#E2E1E1"/>
<path d="M57.16 53.89C57.12 53.78 57.0901 53.66 57.0601 53.55C57.1201 53.61 57.1901 53.66 57.2601 53.71C57.2201 53.77 57.19 53.83 57.16 53.89Z" fill="#B5A93D"/>
<path d="M68.6301 50.7601C68.7701 50.3101 68.9001 49.8301 69.0301 49.3401C69.0301 49.3401 65.9001 46.9501 62.4401 46.9501C61.2401 46.9501 60.0001 47.2401 58.8401 48.0201C60.0001 47.2401 61.2401 46.9501 62.4501 46.9501C65.9101 46.9501 69.04 49.3401 69.04 49.3401C68.92 49.8301 68.7801 50.3101 68.6401 50.7601" fill="#010000"/>
<path d="M68.4401 51.3201C67.7601 50.9601 66.9001 50.5601 65.9301 50.2701C65.4001 48.2601 63.77 47.5101 61.79 47.4701C61.69 47.4701 61.58 47.4701 61.48 47.4701C61.44 47.4701 61.39 47.4701 61.35 47.4701C60.83 47.4901 60.3301 47.6101 59.8701 47.8101C59.5001 47.8501 59.1501 47.9101 58.8201 48.0101C59.9801 47.2301 61.22 46.9401 62.42 46.9401C65.88 46.9401 69.0101 49.3301 69.0101 49.3301C68.8901 49.8301 68.75 50.3001 68.61 50.7501C68.55 50.9401 68.49 51.1301 68.42 51.3201" fill="#E2E1E1"/>
<path d="M65.9401 50.27C65.6101 50.17 65.2601 50.09 64.9101 50.02C64.4801 48.77 63.4602 48.15 61.7802 48.12C61.6802 48.12 61.5801 48.12 61.4801 48.12C61.4701 48.12 61.4501 48.12 61.4401 48.12H61.3901C61.1501 48.12 60.9201 48.17 60.6901 48.24C60.5601 48.07 60.4201 47.93 60.2701 47.8C60.1401 47.8 60.0101 47.81 59.8901 47.83C60.3501 47.63 60.8401 47.5 61.3701 47.49C61.4101 47.49 61.4601 47.49 61.5001 47.49C61.6001 47.49 61.7101 47.49 61.8101 47.49C63.7901 47.53 65.4201 48.28 65.9501 50.29" fill="#B5A93D"/>
<path d="M61.4402 50.14C61.3502 49.4 61.0802 48.74 60.6802 48.23C60.9102 48.16 61.1402 48.12 61.3802 48.12H61.4302C61.4302 48.12 61.4602 48.12 61.4702 48.12C61.5702 48.12 61.6702 48.12 61.7702 48.12C63.4502 48.16 64.4702 48.77 64.9002 50.02C64.4002 49.93 63.8802 49.87 63.3502 49.87C62.7202 49.87 62.0802 49.95 61.4402 50.14Z" fill="#49451F"/>
<path d="M57.2601 53.7C57.1901 53.65 57.1201 53.6 57.0601 53.54C56.9701 53.46 56.8901 53.38 56.8101 53.29C56.6301 52.72 56.5401 52.09 56.5501 51.44C56.5501 50.98 56.6101 50.57 56.7101 50.2C57.3701 49.22 58.0801 48.51 58.8301 48.01C59.1601 47.91 59.5101 47.84 59.8801 47.8C60.0101 47.79 60.1301 47.78 60.2601 47.77C60.4101 47.9 60.5601 48.05 60.6801 48.21C61.0801 48.72 61.3501 49.38 61.4401 50.12C59.9301 50.57 58.4601 51.63 57.2601 53.69" fill="#E2E1E1"/>
<path d="M46.96 57.06C46.87 56.63 46.77 56.2 46.67 55.77C46.57 55.34 46.48 54.91 46.36 54.49C46.26 54.06 46.14 53.64 46.01 53.23C45.89 52.8 45.75 52.43 45.59 52.03C45.49 51.84 45.4 51.6 45.31 51.46L44.96 50.92C44.71 50.57 44.46 50.23 44.18 49.92C44.04 49.76 43.9 49.61 43.74 49.47C43.59 49.32 43.44 49.18 43.27 49.06C43.11 48.93 42.95 48.8 42.77 48.69C42.6 48.57 42.42 48.46 42.24 48.38C41.88 48.18 41.5 48.04 41.11 47.92C40.72 47.8 40.32 47.74 39.91 47.7C39.5 47.67 39.1 47.67 38.69 47.72C38.28 47.75 37.87 47.84 37.47 47.93C36.66 48.13 35.87 48.43 35.11 48.8C34.73 48.99 34.36 49.19 34 49.41C33.64 49.63 33.28 49.87 32.96 50.1L33.15 49.52L33.49 50.66C33.59 51.04 33.74 51.41 33.88 51.78C34.01 52.15 34.15 52.52 34.33 52.87C34.5 53.22 34.63 53.59 34.84 53.92C35.04 54.25 35.2 54.62 35.44 54.92C35.67 55.22 35.86 55.57 36.14 55.84C36.4 56.12 36.64 56.42 36.94 56.65L37.38 57.02L37.86 57.32C38.17 57.55 38.53 57.67 38.88 57.83C39.23 57.99 39.61 58.05 39.98 58.16C40.36 58.2 40.74 58.28 41.13 58.29C41.52 58.28 41.91 58.32 42.31 58.26C42.7 58.21 43.1 58.21 43.49 58.1C43.88 58.01 44.28 57.96 44.66 57.83C45.04 57.71 45.43 57.61 45.81 57.47L46.95 57.05L46.96 57.06ZM46.96 57.06L45.89 57.63C45.53 57.82 45.14 57.95 44.76 58.11C44.38 58.29 43.99 58.37 43.59 58.51C43.2 58.65 42.79 58.7 42.38 58.79C41.98 58.89 41.55 58.87 41.14 58.92C40.72 58.93 40.3 58.89 39.87 58.86C39.46 58.76 39.03 58.72 38.63 58.57C38.23 58.42 37.82 58.29 37.45 58.06L36.89 57.74L36.38 57.35C36.02 57.11 35.74 56.79 35.44 56.48C35.12 56.19 34.9 55.82 34.63 55.49C34.35 55.16 34.17 54.78 33.94 54.43C33.7 54.08 33.55 53.69 33.36 53.32C33.17 52.95 33.02 52.56 32.87 52.17C32.72 51.78 32.56 51.4 32.45 51L32.08 49.81L31.98 49.46L32.28 49.23C32.67 48.93 33.03 48.69 33.43 48.45C33.82 48.22 34.22 48 34.64 47.8C35.46 47.4 36.33 47.09 37.23 46.87C37.68 46.77 38.14 46.7 38.61 46.67C39.08 46.63 39.55 46.65 40.02 46.69C40.49 46.75 40.95 46.84 41.4 46.99C41.63 47.07 41.85 47.14 42.06 47.25C42.28 47.35 42.49 47.45 42.69 47.58C42.9 47.69 43.09 47.83 43.28 47.97C43.47 48.1 43.65 48.26 43.82 48.41C44 48.56 44.16 48.73 44.32 48.9C44.48 49.07 44.63 49.24 44.77 49.42C45.06 49.78 45.3 50.17 45.53 50.55L45.86 51.15C45.99 51.39 46.03 51.57 46.12 51.79C46.25 52.22 46.38 52.69 46.45 53.12C46.54 53.56 46.61 53.99 46.67 54.43C46.8 55.3 46.9 56.18 46.96 57.06Z" fill="#5B5C5C"/>
<path d="M54.8301 56.99C54.8801 56.11 54.9601 55.23 55.0801 54.36C55.1401 53.92 55.2001 53.48 55.2801 53.05C55.3501 52.62 55.4601 52.15 55.5801 51.72C55.6701 51.51 55.7101 51.32 55.8301 51.08L56.1501 50.48C56.3801 50.09 56.6101 49.7 56.8901 49.34C57.0201 49.15 57.1701 48.98 57.3301 48.81C57.4801 48.64 57.6401 48.47 57.8201 48.31C57.9901 48.15 58.16 47.99 58.35 47.86C58.53 47.71 58.7201 47.57 58.9301 47.46C59.1301 47.33 59.33 47.22 59.55 47.12C59.76 47.01 59.9801 46.93 60.2101 46.85C60.6601 46.69 61.1201 46.59 61.5901 46.53C62.0601 46.48 62.5301 46.45 63.0001 46.48C63.4701 46.5 63.9301 46.56 64.3901 46.66C65.2901 46.86 66.1701 47.16 67.0001 47.54C67.4201 47.73 67.82 47.94 68.22 48.17C68.62 48.4 68.9901 48.64 69.3801 48.93L69.6901 49.15L69.5901 49.5L69.2501 50.69C69.1501 51.09 68.99 51.48 68.85 51.87C68.71 52.26 68.5701 52.65 68.3801 53.03C68.2001 53.41 68.0501 53.8 67.8201 54.15C67.5901 54.51 67.4201 54.89 67.1501 55.22C66.8901 55.55 66.67 55.92 66.36 56.22C66.07 56.53 65.7801 56.85 65.4301 57.1L64.9301 57.5L64.3701 57.83C64.0101 58.07 63.6001 58.21 63.2001 58.37C62.8001 58.53 62.3701 58.58 61.9601 58.69C61.5401 58.72 61.1201 58.77 60.7001 58.77C60.2801 58.73 59.8601 58.77 59.4501 58.66C59.0501 58.57 58.6301 58.53 58.2401 58.4C57.8501 58.27 57.4501 58.19 57.0701 58.03C56.6901 57.87 56.3001 57.75 55.9401 57.57L54.85 57.02L54.8301 56.99ZM54.8301 56.99L55.98 57.39C56.36 57.53 56.7501 57.62 57.1401 57.73C57.5201 57.86 57.9201 57.89 58.3101 57.98C58.7001 58.07 59.1001 58.07 59.4901 58.11C59.8801 58.16 60.28 58.11 60.67 58.11C61.06 58.09 61.4401 58.01 61.8201 57.96C62.1901 57.83 62.56 57.77 62.91 57.61C63.26 57.45 63.61 57.31 63.92 57.08L64.4001 56.77L64.8301 56.39C65.1301 56.16 65.3701 55.85 65.6201 55.57C65.8901 55.3 66.0801 54.95 66.3101 54.64C66.5501 54.34 66.7001 53.96 66.8901 53.63C67.0901 53.3 67.2201 52.92 67.3801 52.57C67.5501 52.22 67.6801 51.85 67.8101 51.47C67.9401 51.1 68.0801 50.73 68.1801 50.35L68.5001 49.2L68.7001 49.78C68.3801 49.55 68.0101 49.32 67.6501 49.11C67.2901 48.9 66.9101 48.7 66.5301 48.52C65.7701 48.16 64.97 47.88 64.16 47.69C63.75 47.6 63.3501 47.53 62.9401 47.5C62.5301 47.46 62.1201 47.47 61.7101 47.5C61.3001 47.54 60.9101 47.62 60.5201 47.74C60.1301 47.87 59.7501 48.01 59.4001 48.22C59.2201 48.31 59.0401 48.42 58.8801 48.54C58.7101 48.65 58.5501 48.78 58.3901 48.92C58.2201 49.05 58.0801 49.19 57.9301 49.34C57.7801 49.48 57.6401 49.64 57.5001 49.8C57.2201 50.11 56.98 50.46 56.73 50.81L56.3901 51.36C56.3001 51.5 56.2101 51.74 56.1201 51.93C55.9701 52.33 55.83 52.71 55.72 53.14C55.6 53.56 55.4901 53.98 55.3901 54.41C55.2901 54.84 55.2 55.27 55.11 55.7C55.01 56.13 54.9201 56.56 54.8401 56.99H54.8301Z" fill="#5B5C5C"/>
<path d="M51.4902 63.0801C51.6302 63.3601 52.2402 63.3501 52.8602 63.0401C53.4802 62.7301 53.8602 62.2501 53.7202 61.9701C53.5802 61.6901 52.9602 61.7001 52.3402 62.0101C51.7202 62.3201 51.3402 62.8001 51.4802 63.0801" fill="#0E0E0E"/>
<path d="M50.91 63.14C50.77 63.43 50.16 63.42 49.53 63.12C48.91 62.82 48.51 62.35 48.65 62.06C48.79 61.77 49.4 61.78 50.02 62.08C50.65 62.38 51.04 62.85 50.9 63.14" fill="#0E0E0E"/>
<path d="M51.2201 64.76L51.1201 63.66H51.4101L51.3301 64.76H51.2201Z" fill="white"/>
<path d="M47.5501 64.25C47.5501 64.25 47.5301 64.25 47.4901 64.28C47.4501 64.3 47.3801 64.32 47.3101 64.36C47.2401 64.4 47.1501 64.45 47.0701 64.54C46.9901 64.62 46.9201 64.74 46.9201 64.88C46.9201 65.02 46.9801 65.16 47.0801 65.28C47.1901 65.4 47.3201 65.5 47.4801 65.58C47.7901 65.74 48.1701 65.81 48.5401 65.82C48.7301 65.82 48.9101 65.8 49.1001 65.77C49.2801 65.74 49.4601 65.69 49.6201 65.63C49.7901 65.57 49.9401 65.51 50.0901 65.44C50.2401 65.37 50.3701 65.29 50.4901 65.22C50.7301 65.07 50.9101 64.93 51.0401 64.82C51.1601 64.71 51.2401 64.65 51.2401 64.65L51.4301 64.87C51.4301 64.87 51.3501 64.93 51.2201 65.03C51.0801 65.13 50.8801 65.27 50.6201 65.42C50.4901 65.49 50.3501 65.57 50.1901 65.63C50.0401 65.7 49.8701 65.76 49.6901 65.81C49.5101 65.86 49.3201 65.9 49.1301 65.93C48.9401 65.96 48.7401 65.96 48.5401 65.96C48.1501 65.94 47.7601 65.84 47.4401 65.66C47.2801 65.57 47.1401 65.45 47.0301 65.32C46.9301 65.19 46.8601 65.03 46.8701 64.87C46.8801 64.72 46.9601 64.6 47.0501 64.52C47.1401 64.44 47.2301 64.39 47.3001 64.35C47.3701 64.31 47.4401 64.29 47.4801 64.28C47.5201 64.27 47.5501 64.26 47.5501 64.26V64.25Z" fill="white"/>
<path d="M48.11 64.31C48.11 64.31 48.08 64.38 48.04 64.38C48 64.38 47.97 64.35 47.97 64.31C47.97 64.27 48 64.24 48.04 64.24C48.08 64.24 48.11 64.27 48.11 64.31Z" fill="white"/>
<path d="M49.1901 63.84C49.1901 63.84 49.1601 63.91 49.1201 63.91C49.0801 63.91 49.05 63.88 49.05 63.84C49.05 63.8 49.0801 63.77 49.1201 63.77C49.1601 63.77 49.1901 63.8 49.1901 63.84Z" fill="white"/>
<path d="M48.9601 65.06C48.9601 65.06 48.9301 65.13 48.8901 65.13C48.8501 65.13 48.8201 65.1 48.8201 65.06C48.8201 65.02 48.8501 64.99 48.8901 64.99C48.9301 64.99 48.9601 65.02 48.9601 65.06Z" fill="white"/>
<path d="M49.9401 64.5201C49.9401 64.5201 49.9101 64.5901 49.8701 64.5901C49.8301 64.5901 49.8 64.5601 49.8 64.5201C49.8 64.4801 49.8301 64.4501 49.8701 64.4501C49.9101 64.4501 49.9401 64.4801 49.9401 64.5201Z" fill="white"/>
<path d="M52.48 64.2701C52.48 64.2701 52.45 64.3401 52.41 64.3401C52.37 64.3401 52.3401 64.3101 52.3401 64.2701C52.3401 64.2301 52.37 64.2001 52.41 64.2001C52.45 64.2001 52.48 64.2301 52.48 64.2701Z" fill="white"/>
<path d="M53.5502 63.81C53.5502 63.81 53.5202 63.88 53.4802 63.88C53.4402 63.88 53.4102 63.85 53.4102 63.81C53.4102 63.77 53.4402 63.74 53.4802 63.74C53.5202 63.74 53.5502 63.77 53.5502 63.81Z" fill="white"/>
<path d="M53.33 65.0201C53.33 65.0201 53.2999 65.0901 53.2599 65.0901C53.2199 65.0901 53.1899 65.0601 53.1899 65.0201C53.1899 64.9801 53.2199 64.9501 53.2599 64.9501C53.2999 64.9501 53.33 64.9801 53.33 65.0201Z" fill="white"/>
<path d="M54.3099 64.48C54.3099 64.48 54.2799 64.55 54.2399 64.55C54.1999 64.55 54.1699 64.52 54.1699 64.48C54.1699 64.44 54.1999 64.41 54.2399 64.41C54.2799 64.41 54.3099 64.44 54.3099 64.48Z" fill="white"/>
<path d="M54.9901 64.1801C54.9901 64.1801 55.0101 64.1801 55.0601 64.2001C55.1001 64.2201 55.1601 64.2301 55.2401 64.2701C55.3201 64.3101 55.4101 64.3501 55.5001 64.4401C55.5801 64.5201 55.6701 64.6401 55.6801 64.7901C55.6901 64.9401 55.6302 65.1001 55.5302 65.2401C55.4302 65.3801 55.2901 65.49 55.1301 65.59C54.8101 65.78 54.4202 65.8801 54.0302 65.9101C53.8302 65.9101 53.6401 65.9201 53.4401 65.8901C53.2501 65.8701 53.0601 65.8301 52.8801 65.7801C52.7001 65.7301 52.5301 65.6701 52.3801 65.6101C52.2201 65.5501 52.0801 65.4701 51.9501 65.4101C51.6901 65.2701 51.4801 65.1301 51.3401 65.0301C51.2001 64.9301 51.1201 64.8701 51.1201 64.8701L51.3001 64.6501C51.3001 64.6501 51.3701 64.7101 51.5001 64.8101C51.6301 64.9101 51.8201 65.0501 52.0601 65.2001C52.1801 65.2701 52.3101 65.3501 52.4601 65.4101C52.6001 65.4801 52.7601 65.5401 52.9301 65.6001C53.1001 65.6501 53.2701 65.7001 53.4601 65.7301C53.6401 65.7601 53.8301 65.7701 54.0201 65.7701C54.4001 65.7701 54.7701 65.6801 55.0801 65.5101C55.2301 65.4301 55.3701 65.3201 55.4701 65.2001C55.5701 65.0801 55.6301 64.9301 55.6301 64.8001C55.6301 64.6601 55.5501 64.5501 55.4701 64.4601C55.3901 64.3801 55.3001 64.3201 55.2301 64.2901C55.1601 64.2501 55.0901 64.2301 55.0501 64.2101C55.0101 64.1901 54.9901 64.1901 54.9901 64.1901V64.1801Z" fill="white"/>
<path d="M54.38 61.68C53.44 63.22 53.28 62.82 53.13 62.41C53.03 62.12 52.93 61.83 52.55 62.25C52.44 62.38 52.35 62.58 52.18 62.86C51.8 63.46 52.32 64 51.27 64.01C50.16 64.02 50.61 63.51 50.3 63.02C49.95 62.47 49.61 61.85 49.29 62.14C48.97 62.43 49.29 63.68 48.12 61.96C47.26 60.7 49.7 60.24 51.23 60.23C52.76 60.22 55.17 60.38 54.38 61.68Z" fill="#F8A181"/>
<path d="M53.4101 61.09C53.4101 61.42 52.4501 61.7 51.2601 61.71C50.0701 61.72 49.1001 61.46 49.1001 61.13C49.1001 60.8 50.0601 60.52 51.2501 60.51C52.4401 60.5 53.4101 60.76 53.4101 61.09Z" fill="white"/>
<path d="M51.1801 61.71C50.0201 61.71 49.0901 61.45 49.0901 61.13C49.0901 60.8 50.0501 60.52 51.2401 60.51C51.2601 60.51 51.2901 60.51 51.3101 60.51C52.4701 60.51 53.4001 60.77 53.4001 61.09C53.4001 61.42 52.4401 61.7 51.2501 61.71C51.2301 61.71 51.2001 61.71 51.1801 61.71Z" fill="white"/>
<path d="M42.3601 62.28C42.9201 62.4 43.4801 62.53 44.0401 62.66C44.3201 62.72 44.6001 62.78 44.8801 62.86C45.1501 62.94 45.4301 63.03 45.6901 63.14C45.4001 63.12 45.1201 63.06 44.8401 63C44.5601 62.94 44.2801 62.85 44.0101 62.77C43.4601 62.61 42.9101 62.45 42.3601 62.29V62.28Z" fill="white"/>
<path d="M40.1 64.96L42.5301 64.39C42.9401 64.3 43.3401 64.19 43.7501 64.12C44.1601 64.05 44.5701 63.97 44.9901 63.92C44.5901 64.06 44.1901 64.16 43.7801 64.26C43.3701 64.36 42.96 64.43 42.55 64.51L40.0901 64.98L40.1 64.96Z" fill="white"/>
<path d="M42.48 66.4301L44.07 65.4501C44.33 65.2901 44.59 65.1201 44.87 64.9701C45.14 64.8301 45.42 64.6801 45.71 64.5601C45.46 64.7601 45.2 64.9301 44.94 65.1001C44.68 65.2701 44.4 65.4101 44.13 65.5601L42.49 66.4601L42.48 66.4301Z" fill="white"/>
<path d="M60.1201 62.14C59.5701 62.31 59.02 62.48 58.47 62.65C58.19 62.73 57.9201 62.83 57.6401 62.89C57.3601 62.95 57.08 63.02 56.79 63.06C57.06 62.93 57.33 62.84 57.6 62.75C57.88 62.66 58.1601 62.6 58.4301 62.53C58.9901 62.39 59.54 62.25 60.1 62.12L60.1201 62.14Z" fill="white"/>
<path d="M62.42 64.7801L59.95 64.3501C59.54 64.2801 59.13 64.2201 58.72 64.1301C58.31 64.0401 57.91 63.9501 57.51 63.8301C57.93 63.8601 58.34 63.9201 58.75 63.9901C59.16 64.0601 59.57 64.1501 59.97 64.2401L62.42 64.7701V64.7801Z" fill="white"/>
<path d="M60.0601 66.2801L58.41 65.4101C58.14 65.2601 57.8601 65.1301 57.5901 64.9701C57.3201 64.8101 57.0601 64.6501 56.8101 64.4601C57.1001 64.5601 57.3801 64.7101 57.6501 64.8501C57.9301 64.9901 58.1901 65.1601 58.4501 65.3201L60.0601 66.2801Z" fill="white"/>
<path d="M25.5702 30.84C25.0902 31.26 26.3802 32.17 27.1102 33.44C28.1902 35.33 28.1202 38.36 29.7202 38.6C29.7202 38.6 31.2702 36.55 31.8302 35.96C32.4302 35.33 34.3002 34.05 34.3002 34.05C33.5502 31.31 26.7702 29.79 25.5702 30.84Z" fill="#E48F8C"/>
<path d="M75.8602 30.39C76.3502 30.8 75.0802 31.74 74.3702 33.02C73.3202 34.93 73.4502 37.96 71.8502 38.23C71.8502 38.23 70.2602 36.2 69.6902 35.62C69.0802 35 67.1802 33.75 67.1802 33.75C67.8902 31 74.6402 29.36 75.8502 30.38L75.8602 30.39Z" fill="#E48F8C"/>
</svg>
