<svg width="101" height="102" viewBox="0 0 101 102" fill="none" xmlns="http://www.w3.org/2000/svg">
<path d="M92.26 0.77002H8.67C3.88169 0.77002 0 4.65171 0 9.44002V93.03C0 97.8183 3.88169 101.7 8.67 101.7H92.26C97.0483 101.7 100.93 97.8183 100.93 93.03V9.44002C100.93 4.65171 97.0483 0.77002 92.26 0.77002Z" fill="#24B999"/>
<path d="M51.23 77.0201C45.77 77.0201 36.84 73.5801 30.76 67.7801C30.51 67.8801 30.26 67.9201 29.99 67.9201C28.79 67.9201 28.08 66.9601 27.56 66.2501C27.41 66.0501 27.27 65.8501 27.14 65.7201C27.07 65.6501 26.87 65.4301 26.31 65.4301C25.86 65.4301 25.46 65.5701 25.46 65.5701C25.3 65.6301 25.14 65.6501 24.98 65.6501C24.56 65.6501 24.15 65.4601 23.88 65.1201C23.5 64.6501 23.46 64.0001 23.79 63.4901C23.8 63.4701 23.93 63.2801 24.15 62.9701C22.87 61.6801 21.96 60.2601 21.91 60.1901C21.64 59.7601 21.62 59.2301 21.84 58.7901C21.03 57.7901 20.53 56.8401 20.44 56.6601C20.16 56.1101 20.27 55.4301 20.73 55.0001C21 54.7501 21.34 54.6201 21.7 54.6201C21.94 54.6201 22.18 54.6801 22.4 54.8101C22.4 54.8101 22.87 55.0601 23.45 55.0601C23.74 55.0601 24.01 55.0001 24.26 54.8701C24.38 54.8101 24.61 54.5801 24.79 54.3901C24.95 51.9301 25.57 49.24 26.62 46.36C24.79 44.38 24.12 40.5101 23.88 37.4101C23.85 37.0401 23.22 28.3401 25.63 26.2801C26.3 25.7101 27.4 25.4401 29.09 25.4401C33.1 25.4401 42.19 27.2901 45.22 29.5701C46.18 29.3801 47.13 29.2301 48.06 29.1301C49.15 28.9701 50.21 28.8901 51.23 28.8901C51.23 28.8901 51.33 28.8901 51.37 28.8901C52.46 28.9001 53.61 29.0001 54.78 29.1901C55.56 29.2901 56.37 29.4301 57.18 29.6001C60.19 27.2901 69.28 25.4401 73.34 25.4401C75.03 25.4401 76.13 25.7101 76.8 26.2801C79.18 28.3201 78.58 37.0201 78.55 37.3901C78.32 40.5301 77.66 44.4501 75.85 46.4701C76.68 48.7501 77.23 50.9201 77.5 52.9301C77.74 53.1301 77.95 53.3501 78.14 53.5601C78.32 53.7501 78.6 54.0501 78.74 54.1201C78.99 54.2501 79.26 54.3101 79.55 54.3101C80.14 54.3101 80.61 54.0601 80.61 54.0601C80.83 53.9301 81.07 53.8701 81.31 53.8701C81.66 53.8701 82.01 54.0001 82.28 54.2601C82.73 54.6901 82.84 55.3701 82.56 55.9201C82.47 56.1001 81.97 57.05 81.16 58.05C81.38 58.49 81.37 59.0201 81.1 59.4401C81.05 59.5101 80.14 60.9301 78.86 62.2201C79.08 62.5301 79.21 62.7201 79.22 62.7401C79.55 63.2501 79.51 63.9101 79.13 64.3801C78.86 64.7101 78.45 64.9001 78.04 64.9001C77.87 64.9001 77.7 64.8701 77.54 64.8101C77.54 64.8101 77.15 64.6701 76.7 64.6701C76.14 64.6701 75.93 64.8901 75.87 64.9601C75.75 65.0901 75.61 65.2801 75.46 65.4901C74.94 66.1901 74.23 67.1501 73.03 67.1501C72.92 67.1501 72.8 67.1501 72.67 67.1201C67.41 72.7601 58.72 76.8701 51.57 77.0001H51.23V77.0201Z" fill="#2F150C"/>
<path d="M24.92 59.64C23.98 59.78 23.1 59.45 23.1 59.45C23.1 59.45 24.43 61.52 26.06 62.81C25.41 63.61 24.99 64.26 24.99 64.26C24.99 64.26 27 63.49 28.19 64.77C29.02 65.66 29.72 67.45 30.9 65.92C36.45 71.72 45.6 75.61 51.24 75.61C51.35 75.61 51.45 75.61 51.55 75.61C58.26 75.49 67.24 71.4 72.34 65.4C73.41 66.49 74.07 64.86 74.85 64.02C76.04 62.74 78.05 63.51 78.05 63.51C78.05 63.51 77.63 62.86 76.98 62.06C78.61 60.77 79.94 58.7 79.94 58.7C79.94 58.7 79.06 59.03 78.12 58.89C79.96 57.98 81.33 55.29 81.33 55.29C81.33 55.29 79.76 56.2 78.14 55.39C77.42 55.03 76.82 53.98 76.21 53.78C75.95 51.18 75.18 48.53 74.22 46.08C77.98 43.69 77.92 29.09 75.91 27.36C73.87 25.61 59.16 28.8 57.63 31.15C56.64 30.92 55.63 30.73 54.6 30.6C53.48 30.42 52.36 30.32 51.25 30.31C50.26 30.31 49.26 30.39 48.26 30.53C47.08 30.66 45.92 30.86 44.82 31.1C43.16 28.76 28.59 25.61 26.56 27.35C24.55 29.08 24.49 43.56 28.27 45.92C28.24 46.01 28.24 46.06 28.25 46.08C27.14 48.91 26.29 52.01 26.18 55C25.78 55.39 25.37 55.91 24.91 56.14C23.29 56.95 21.72 56.04 21.72 56.04C21.72 56.04 23.09 58.73 24.93 59.64H24.92Z" fill="#2F150C"/>
<path d="M30.89 60.01C30.61 59.91 30.33 59.88 30.04 59.91C29.97 59.59 29.87 59.29 29.75 59.04C29.28 58.06 28.88 57.54 28.53 57.32C28.53 56.99 28.49 56.65 28.37 56.31C27.08 52.68 26.21 55.5 24.92 56.15C23.3 56.96 21.73 56.05 21.73 56.05C21.73 56.05 23.1 58.74 24.94 59.65C24 59.79 23.12 59.46 23.12 59.46C23.12 59.46 24.45 61.53 26.08 62.82C25.43 63.62 25.01 64.27 25.01 64.27C25.01 64.27 27.02 63.5 28.21 64.78C29.19 65.84 30 68.16 31.65 64.69C32.35 63.22 32.27 60.52 30.91 60.02L30.89 60.01Z" fill="black"/>
<path d="M72.15 59.26C72.43 59.16 72.71 59.13 73 59.16C73.07 58.84 73.17 58.54 73.29 58.29C73.76 57.31 74.16 56.79 74.51 56.57C74.51 56.24 74.55 55.9 74.67 55.56C75.96 51.93 76.83 54.75 78.12 55.4C79.74 56.21 81.31 55.3 81.31 55.3C81.31 55.3 79.94 57.99 78.1 58.9C79.04 59.04 79.92 58.71 79.92 58.71C79.92 58.71 78.59 60.78 76.96 62.07C77.61 62.87 78.03 63.52 78.03 63.52C78.03 63.52 76.02 62.75 74.83 64.03C73.85 65.09 73.04 67.41 71.39 63.94C70.69 62.47 70.77 59.77 72.13 59.27L72.15 59.26Z" fill="black"/>
<path d="M76.31 55.6901C76.31 56.0301 76.3 56.3701 76.27 56.7101C76.26 56.8301 76.25 56.9601 76.23 57.0801C75.03 67.2401 61.02 75.2901 51.54 75.4601C51.43 75.4601 51.33 75.4601 51.23 75.4601C43.08 75.4601 27.61 67.3801 26.25 57.1301C26.18 56.6501 26.15 56.1701 26.15 55.6801C26.15 46.0401 34.25 35.0301 34.25 35.0301C34.25 35.0301 42.43 30.3501 51.23 30.3501C59.51 30.3501 68.21 35.0301 68.21 35.0301C68.21 35.0301 76.31 46.0401 76.31 55.6801" fill="#191919"/>
<path d="M51.23 71.6001C47.5 71.6001 41.94 69.6001 37.39 66.6101C32.17 63.1901 28.87 58.9401 28.34 54.9601C28.29 54.5701 28.26 54.1701 28.26 53.7601C28.26 45.7801 34.39 36.4901 35.72 34.5601C37.38 33.6901 44.17 30.3601 51.23 30.3601C57.88 30.3601 64.97 33.6901 66.75 34.5801C68.11 36.5501 74.2 45.8101 74.2 53.7701C74.2 54.0601 74.19 54.3501 74.16 54.6301C74.16 54.7401 74.14 54.8401 74.13 54.9501C73.04 64.2301 59.65 71.4501 51.5 71.6001H51.54H51.23Z" fill="black"/>
<path d="M59.26 55.1301C59.26 57.9401 65.18 61.0101 64.04 63.0101C62.59 65.5601 53.79 66.7001 51.35 66.7001C48.91 66.7001 38.45 65.4301 37 62.7401C35.94 60.7701 43.44 57.8201 43.44 55.1301C43.44 48.7401 46.98 43.55 51.35 43.55C55.72 43.55 59.26 48.7301 59.26 55.1301Z" fill="#FEF8FB"/>
<path d="M30.8401 52.3901C30.8401 52.3901 35.6901 62.4101 39.8401 62.4101C43.0201 62.4101 46.9901 60.7801 46.9901 60.7801C46.9901 60.7801 48.6801 44.0901 39.4701 43.5501C35.3201 43.3101 30.8401 52.3901 30.8401 52.3901Z" fill="#191919"/>
<path d="M71.71 52.3901C71.71 52.3901 66.86 62.4101 62.71 62.4101C59.53 62.4101 55.56 60.7801 55.56 60.7801C55.56 60.7801 53.87 44.0901 63.08 43.5501C67.23 43.3101 71.71 52.3901 71.71 52.3901Z" fill="#191919"/>
<path d="M76.23 57.1701C75.03 67.3601 61.02 75.4401 51.54 75.6101C51.43 75.6101 51.33 75.6101 51.23 75.6101C43.08 75.6101 27.61 67.5001 26.25 57.2201C29.94 56.7901 31.91 58.2501 40.98 62.4201C42.36 63.0601 43.38 64.6901 46.75 63.3401C49.44 62.2601 52.87 62.1601 56.23 63.5101C59.59 64.8601 60.73 63.0601 62.11 62.4201C70.66 58.4801 72.9 56.9601 76.23 57.1601" fill="#E9E9EA"/>
<path d="M51.2301 74.27C47.1801 74.27 41.4401 72.22 36.5901 69.05C33.4501 66.99 28.1701 62.78 27.0601 57.15C27.1801 57.15 27.3101 57.15 27.4301 57.15C29.6401 57.15 31.5401 58.05 36.1301 60.23C37.4301 60.85 38.9101 61.55 40.6801 62.36C40.9001 62.46 41.1101 62.58 41.3401 62.71C42.0601 63.12 42.8801 63.59 44.1501 63.59C45.0001 63.59 45.9301 63.38 47.0201 62.95C48.2001 62.48 49.3201 62.24 50.3301 62.24C50.6601 62.24 50.9101 62.26 51.1001 62.28C51.2301 62.29 51.3401 62.3 51.4101 62.3H51.4601L51.5201 62.31H51.5501H51.7001L51.8001 62.27C51.8001 62.27 51.9701 62.23 52.2901 62.23C52.9401 62.23 54.1101 62.38 55.9601 63.12C56.9801 63.53 57.8801 63.73 58.7101 63.73C60.0701 63.73 60.9701 63.19 61.7101 62.76C61.9601 62.61 62.1901 62.48 62.4201 62.37C64.1801 61.56 65.6501 60.86 66.9501 60.25C71.3801 58.15 73.3101 57.23 75.4301 57.17C73.6701 66.92 60.1601 74.13 51.5401 74.29H51.2401" fill="white"/>
<path d="M55.6301 66.1101C54.3501 66.1101 52.3101 66.4401 51.4101 67.1901C51.3001 67.2801 51.2301 67.3801 51.1901 67.4901C51.1401 67.3801 51.0701 67.2601 50.9401 67.1501C50.0501 66.3901 48.1401 65.8801 46.8501 65.8801C44.9201 65.8801 44.3201 66.7201 44.3201 67.6501C44.3201 68.5801 46.2701 70.0201 47.8801 70.1601C49.5901 70.3101 50.9801 69.2501 51.2501 68.4101C52.0601 70.0001 53.1501 70.1801 55.0001 70.0801C56.1901 70.0101 58.1501 68.5901 58.1501 67.6601C58.1501 66.7301 57.5601 66.1101 55.6301 66.1101Z" fill="white"/>
<path d="M58.17 67.5201C58.16 67.3801 58.12 67.2701 58.08 67.2101C58.11 67.2701 58.15 67.3801 58.15 67.5201C58.16 67.6601 58.12 67.8301 58.05 68.0001C57.97 68.1701 57.86 68.3501 57.71 68.5101C57.13 69.1801 56.1 69.7401 55.03 69.9501C54.76 70.0001 54.49 70.0401 54.23 70.0401C53.97 70.0401 53.7 70.0201 53.46 69.9801C53.21 69.9301 52.98 69.8601 52.77 69.7601C52.56 69.6601 52.37 69.5401 52.21 69.4101C52.05 69.2801 51.92 69.1401 51.81 69.0001C51.7 68.8701 51.63 68.7301 51.56 68.6301C51.44 68.4001 51.32 68.3101 51.32 68.3101L51.41 67.1901H51.05L51.14 68.3101C51.14 68.3101 51.01 68.4001 50.9 68.6301C50.83 68.7301 50.76 68.8701 50.65 69.0001C50.55 69.1401 50.41 69.2701 50.25 69.4101C50.09 69.5401 49.91 69.6601 49.69 69.7601C49.48 69.8601 49.25 69.9301 49 69.9801C48.75 70.0301 48.49 70.0501 48.23 70.0401C47.96 70.0401 47.69 70.0001 47.43 69.9501C46.36 69.7301 45.33 69.1801 44.75 68.5101C44.6 68.3501 44.49 68.1701 44.41 68.0001C44.34 67.8301 44.3 67.6601 44.31 67.5201C44.31 67.3801 44.35 67.2801 44.38 67.2101C44.41 67.1501 44.43 67.1101 44.43 67.1101C44.43 67.1101 44.41 67.1401 44.38 67.2101C44.34 67.2701 44.31 67.3801 44.29 67.5201C44.27 67.6601 44.31 67.8301 44.37 68.0201C44.45 68.1901 44.55 68.3901 44.7 68.5601C45.27 69.2701 46.3 69.8901 47.39 70.1601C47.66 70.2201 47.94 70.2801 48.22 70.2901C48.5 70.3101 48.77 70.2901 49.04 70.2601C49.3 70.2201 49.56 70.1601 49.79 70.0501C50.02 69.9601 50.23 69.8301 50.42 69.6901C50.6 69.5501 50.76 69.4001 50.88 69.2501C51.01 69.1101 51.1 68.9601 51.18 68.8501C51.2 68.8101 51.22 68.7801 51.24 68.7501C51.26 68.7801 51.28 68.8101 51.3 68.8501C51.38 68.9601 51.47 69.1201 51.6 69.2501C51.72 69.4001 51.88 69.5501 52.06 69.6901C52.24 69.8301 52.45 69.9501 52.69 70.0501C52.92 70.1501 53.18 70.2101 53.44 70.2601C53.71 70.3001 53.98 70.3101 54.26 70.2901C54.54 70.2801 54.81 70.2201 55.09 70.1601C56.18 69.8901 57.2 69.2701 57.78 68.5601C57.93 68.3901 58.03 68.2001 58.11 68.0201C58.17 67.8401 58.21 67.6701 58.19 67.5201H58.17Z" fill="#5B5C5C"/>
<path d="M35.3401 45.7501C35.3401 45.7501 35.3501 45.7101 35.3901 45.6401C35.4301 45.5701 35.4801 45.4701 35.5601 45.3501C35.6401 45.2201 35.7401 45.0801 35.8801 44.9301C36.0201 44.7801 36.1701 44.6001 36.3601 44.4401C36.4601 44.3601 36.5601 44.2701 36.6701 44.1901C36.7801 44.1101 36.9001 44.0301 37.0201 43.9501C37.1401 43.8601 37.2801 43.8001 37.4201 43.7301C37.5601 43.6601 37.7001 43.5801 37.8601 43.5301C38.1701 43.4201 38.4901 43.3001 38.8401 43.2601C39.1801 43.1801 39.5401 43.1901 39.9001 43.1801C40.2601 43.1801 40.6001 43.2701 40.9501 43.3201C41.2801 43.4201 41.6001 43.5301 41.9001 43.6601C42.1901 43.8101 42.4501 43.9701 42.7001 44.1201C42.9401 44.2901 43.1401 44.4801 43.3301 44.6401C43.4201 44.7301 43.5101 44.8001 43.5901 44.8801C43.6701 44.9601 43.7301 45.0501 43.8001 45.1301C43.9301 45.2901 44.0301 45.43 44.1201 45.55C44.2901 45.79 44.3701 45.9301 44.3701 45.9301C44.3701 45.9301 44.2101 45.8801 43.9401 45.7701C43.8101 45.7101 43.6501 45.6501 43.4801 45.5701C43.3101 45.4801 43.1101 45.41 42.8901 45.33C42.6701 45.25 42.4501 45.1501 42.2101 45.0601C41.9601 44.9901 41.7101 44.91 41.4601 44.83C41.2001 44.77 40.9301 44.7301 40.6601 44.6601C40.5201 44.6501 40.3901 44.6401 40.2501 44.6201C40.1101 44.6101 39.9801 44.5801 39.8401 44.5901C39.5701 44.5901 39.2901 44.57 39.0201 44.61C38.8901 44.63 38.7501 44.6101 38.6201 44.6501C38.4901 44.6801 38.3601 44.7001 38.2201 44.7201C38.0901 44.7301 37.9701 44.7901 37.8401 44.8101C37.7101 44.8401 37.5901 44.8701 37.4701 44.9101C37.2301 44.9801 37.0001 45.0601 36.7901 45.1401C36.5701 45.2101 36.3801 45.3001 36.2001 45.3701C36.0301 45.4501 35.8701 45.51 35.7501 45.58C35.6201 45.64 35.5201 45.6901 35.4501 45.7201C35.3801 45.7501 35.3401 45.7701 35.3401 45.7701V45.7501Z" fill="#EDEDED"/>
<path d="M67.05 45.75C67.05 45.75 67.01 45.73 66.94 45.7C66.87 45.67 66.77 45.62 66.64 45.56C66.52 45.5 66.35 45.44 66.19 45.35C66.01 45.28 65.82 45.19 65.6 45.12C65.39 45.04 65.16 44.96 64.92 44.89C64.8 44.85 64.68 44.82 64.55 44.79C64.42 44.77 64.3 44.71 64.17 44.7C64.04 44.68 63.91 44.66 63.77 44.63C63.64 44.6 63.5 44.61 63.37 44.59C63.1 44.55 62.83 44.57 62.55 44.57C62.41 44.56 62.28 44.59 62.14 44.6C62 44.62 61.87 44.63 61.73 44.64C61.46 44.71 61.2 44.76 60.93 44.81C60.68 44.9 60.42 44.97 60.18 45.04C59.94 45.12 59.72 45.23 59.5 45.31C59.28 45.39 59.08 45.46 58.91 45.55C58.74 45.63 58.58 45.7 58.45 45.75C58.19 45.86 58.02 45.91 58.02 45.91C58.02 45.91 58.1 45.77 58.27 45.53C58.35 45.41 58.46 45.27 58.59 45.11C58.65 45.03 58.72 44.94 58.8 44.86C58.88 44.78 58.97 44.7 59.06 44.62C59.25 44.46 59.45 44.27 59.69 44.1C59.94 43.95 60.21 43.79 60.49 43.64C60.79 43.52 61.11 43.4 61.44 43.3C61.78 43.24 62.13 43.16 62.49 43.16C62.85 43.16 63.2 43.16 63.55 43.24C63.9 43.28 64.22 43.4 64.53 43.51C64.69 43.56 64.83 43.64 64.97 43.71C65.11 43.78 65.25 43.84 65.37 43.93C65.49 44.01 65.61 44.09 65.72 44.17C65.83 44.25 65.93 44.34 66.03 44.42C66.23 44.58 66.37 44.76 66.51 44.91C66.64 45.07 66.75 45.21 66.83 45.33C66.91 45.45 66.96 45.55 67 45.62C67.04 45.69 67.05 45.73 67.05 45.73V45.75Z" fill="#EDEDED"/>
<path d="M47 60.78C39.35 64.42 33.97 62.06 31.55 52.62C31.55 52.62 40.7501 45.4801 45.6301 54.6401C46.3901 56.0601 47 60.78 47 60.78Z" fill="white"/>
<path d="M39.61 61.38C37.49 61.33 35.71 59.65 35.02 57.31C34.81 56.6 34.7 55.82 34.72 55.02C34.79 51.77 36.81 50.61 39.36 50.53C39.52 50.53 39.68 50.53 39.84 50.53C42.61 50.59 44.71 53.47 44.76 55.24C44.85 58.69 42.38 61.45 39.61 61.39" fill="#CDB62C"/>
<path d="M39.63 60.51C38.02 60.47 36.61 59.1 36.03 57C35.84 56.33 35.76 55.63 35.77 54.91C35.82 52.48 36.97 51.32 39.39 51.24C39.51 51.24 39.63 51.24 39.75 51.24H39.82C42 51.29 43.67 53.84 43.7 55.14C43.74 56.72 43.21 58.22 42.25 59.27C41.51 60.07 40.6 60.51 39.69 60.51H39.63Z" fill="#905F25"/>
<path d="M55.53 60.78C63.18 64.42 68.56 62.06 70.98 52.62C70.98 52.62 61.78 45.4801 56.9 54.6401C56.14 56.0601 55.53 60.78 55.53 60.78Z" fill="white"/>
<path d="M62.9201 61.38C65.0401 61.33 66.8201 59.65 67.5101 57.31C67.7201 56.6 67.8301 55.82 67.8101 55.02C67.7401 51.77 65.7201 50.61 63.1701 50.53C63.0101 50.53 62.8501 50.53 62.6901 50.53C59.9201 50.59 57.8201 53.47 57.7701 55.24C57.6801 58.69 60.1501 61.45 62.9201 61.39" fill="#CDB62C"/>
<path d="M62.83 60.51C61.91 60.51 61 60.07 60.27 59.27C59.31 58.22 58.78 56.72 58.82 55.14C58.85 53.83 60.52 51.29 62.71 51.24H62.77C62.89 51.24 63.01 51.24 63.13 51.24C65.55 51.32 66.7 52.48 66.74 54.9C66.76 55.62 66.67 56.33 66.48 56.99C65.9 59.09 64.49 60.46 62.88 60.5H62.82" fill="#905F25"/>
<path d="M39.9401 53.7201C39.9001 55.8101 38.5001 57.4801 36.8201 57.4501C36.0601 57.4301 35.3801 57.0701 34.8601 56.4901C34.6801 55.8701 34.5801 55.1801 34.6001 54.4801C34.6601 51.6301 36.4301 50.61 38.6601 50.55C39.4601 51.25 39.9701 52.4201 39.9501 53.7301" fill="white"/>
<path d="M42.5801 59.7801C42.5601 60.4901 42.0901 61.0501 41.5201 61.0401C40.9501 61.0301 40.5001 60.4401 40.5201 59.7301C40.5301 59.0201 41.0101 58.4601 41.5801 58.4701C42.1501 58.4801 42.6001 59.0701 42.5801 59.7701V59.7801Z" fill="white"/>
<path d="M62.79 54.0401C62.75 56.1301 61.35 57.8001 59.67 57.7701C58.91 57.7501 58.23 57.3901 57.71 56.8101C57.53 56.1901 57.43 55.5101 57.45 54.8001C57.51 51.9501 59.28 50.9301 61.51 50.8701C62.31 51.5701 62.82 52.7401 62.8 54.0501" fill="white"/>
<path d="M65.63 59.7801C65.61 60.4901 65.14 61.0501 64.57 61.0401C64 61.0301 63.55 60.4401 63.57 59.7301C63.58 59.0201 64.06 58.4601 64.63 58.4701C65.2 58.4801 65.65 59.0701 65.63 59.7701V59.7801Z" fill="white"/>
<path d="M45.62 61.38C46.07 61.2 46.53 61 46.99 60.78C46.52 61 46.06 61.2 45.61 61.38" fill="#E2DDDE"/>
<path d="M47 60.7801C47 60.7801 46.38 56.0601 45.63 54.6401C43.75 51.1201 41.24 50.0101 38.85 49.9701C41.24 50.0001 43.75 51.1101 45.63 54.6301C46.37 56.0301 46.98 60.6301 47 60.7701M31.95 54.0701C31.8 53.6101 31.67 53.1301 31.54 52.6301C31.67 53.1301 31.81 53.6101 31.95 54.0701Z" fill="#202021"/>
<path d="M45.62 61.3801C45.37 60.0301 45.03 58.5201 44.66 57.8201C44.59 57.6901 44.52 57.5701 44.45 57.4401C44.66 56.7601 44.77 56.0101 44.75 55.2301C44.7 53.4601 42.6 50.5801 39.83 50.5201C39.8 50.5201 39.78 50.5201 39.75 50.5201C39.62 50.5201 39.48 50.5201 39.35 50.5201C39.12 50.5201 38.9 50.5401 38.69 50.5701C38.68 50.5601 38.66 50.5501 38.65 50.5301C36.64 50.5901 35 51.4201 34.65 53.6701C33.7 53.9801 32.86 54.3901 32.18 54.7601C32.1 54.5301 32.02 54.2901 31.94 54.0501C31.8 53.5901 31.66 53.1101 31.53 52.6101C31.59 52.5701 34.98 49.9601 38.72 49.9601C38.76 49.9601 38.79 49.9601 38.83 49.9601C41.22 49.9901 43.73 51.1001 45.61 54.6301C46.37 56.0501 46.98 60.7701 46.98 60.7701C46.51 60.9901 46.06 61.1901 45.61 61.3701" fill="#E2E1E1"/>
<path d="M44.4501 57.45C44.1901 57 43.9201 56.59 43.6401 56.22C43.6901 55.87 43.7101 55.5 43.7001 55.14C43.6701 53.83 42.0001 51.29 39.8201 51.24H39.7501C39.6301 51.24 39.5101 51.24 39.3901 51.24C39.3501 51.24 39.3001 51.24 39.2601 51.24C39.1001 50.99 38.9101 50.77 38.6901 50.58C38.9101 50.56 39.1301 50.54 39.3501 50.53C39.4801 50.53 39.6201 50.53 39.7501 50.53C39.7801 50.53 39.8001 50.53 39.8301 50.53C42.6001 50.59 44.7001 53.47 44.7501 55.24C44.7701 56.02 44.6601 56.77 44.4501 57.45Z" fill="#BDA836"/>
<path d="M43.64 56.22C42.51 54.74 41.24 53.9 39.94 53.48C39.91 52.63 39.67 51.86 39.26 51.24C39.3 51.24 39.34 51.24 39.39 51.24C39.51 51.24 39.63 51.24 39.75 51.24H39.82C42 51.29 43.67 53.84 43.7 55.14C43.7 55.51 43.69 55.87 43.64 56.22Z" fill="#8A5E2A"/>
<path d="M34.66 53.6901C35.01 51.4401 36.64 50.61 38.66 50.55C38.67 50.56 38.69 50.5701 38.7 50.5901C38.91 50.7801 39.1 51.0001 39.27 51.2501C39.67 51.8601 39.92 52.6401 39.95 53.4901C39.23 53.2601 38.49 53.1601 37.78 53.1601C36.69 53.1601 35.63 53.3801 34.67 53.7001" fill="#E2E1E1"/>
<path d="M56.9 61.38C56.45 61.2 55.99 61 55.52 60.78C55.52 60.78 55.52 60.74 55.54 60.66C55.53 60.74 55.52 60.78 55.52 60.78C55.99 61 56.45 61.2 56.89 61.38" fill="#E2DDDE"/>
<path d="M55.55 60.6701C55.65 59.9301 56.22 55.9301 56.91 54.6401C57.14 54.2101 57.3801 53.8101 57.6301 53.4401C57.3801 53.8001 57.14 54.2001 56.91 54.6301C56.22 55.9201 55.65 59.9301 55.55 60.6601M70.56 54.1201C70.71 53.6401 70.85 53.1501 70.99 52.6301C70.86 53.1501 70.71 53.6501 70.56 54.1201ZM59.94 51.1001C61.15 50.3001 62.43 49.9901 63.68 49.9801C62.43 50.0001 61.1501 50.3101 59.9501 51.1001" fill="#202021"/>
<path d="M56.9 61.38C56.45 61.2 55.99 61 55.53 60.78C55.53 60.78 55.53 60.74 55.55 60.66C55.65 59.93 56.22 55.92 56.91 54.63C57.14 54.2 57.38 53.8 57.63 53.44C57.52 53.83 57.46 54.28 57.44 54.78C57.42 55.48 57.52 56.17 57.7 56.79C57.79 56.89 57.88 56.98 57.97 57.06C58 57.19 58.04 57.31 58.07 57.43C58 57.55 57.93 57.68 57.86 57.81C57.49 58.51 57.15 60.02 56.9 61.37M70.33 54.78C69.6 54.38 68.67 53.94 67.62 53.62C67.07 51.43 65.3 50.61 63.16 50.54C63.03 50.54 62.89 50.54 62.76 50.54C62.73 50.54 62.71 50.54 62.68 50.54C62.11 50.55 61.57 50.68 61.08 50.9C60.68 50.93 60.3 51 59.94 51.11C61.15 50.32 62.43 50 63.67 49.99C63.71 49.99 63.74 49.99 63.78 49.99C67.52 49.99 70.91 52.6 70.97 52.64C70.84 53.16 70.69 53.66 70.54 54.13C70.47 54.35 70.39 54.57 70.32 54.79" fill="#E2E1E1"/>
<path d="M58.08 57.45C58.04 57.33 58.01 57.2 57.98 57.08C58.05 57.14 58.12 57.2 58.2 57.26C58.16 57.32 58.12 57.39 58.09 57.46M67.63 53.61C67.27 53.5 66.9 53.4 66.52 53.33C66.07 51.97 64.97 51.29 63.15 51.24C63.03 51.24 62.91 51.24 62.79 51.24H62.73C62.47 51.24 62.22 51.29 61.97 51.36C61.83 51.18 61.68 51.02 61.51 50.87C61.37 50.87 61.23 50.88 61.1 50.89C61.6 50.68 62.14 50.55 62.7 50.53C62.73 50.53 62.75 50.53 62.78 50.53C62.91 50.53 63.05 50.53 63.18 50.53C65.32 50.59 67.09 51.42 67.64 53.61" fill="#BDA836"/>
<path d="M62.7601 53.4301C62.6701 52.6301 62.3801 51.9101 61.9601 51.3501C62.2001 51.2801 62.4601 51.2401 62.7201 51.2301H62.7801C62.9001 51.2301 63.0201 51.2301 63.1401 51.2301C64.9601 51.2901 66.0601 51.9601 66.5101 53.3201C65.9401 53.2101 65.3601 53.1401 64.7601 53.1401C64.1001 53.1401 63.4301 53.2201 62.7601 53.4101" fill="#8A5E2A"/>
<path d="M58.19 57.2501C58.11 57.1901 58.04 57.1401 57.97 57.0701C57.88 56.9901 57.79 56.9001 57.7 56.8001C57.52 56.1801 57.42 55.5001 57.44 54.7901C57.45 54.2901 57.51 53.8401 57.63 53.4501C58.35 52.4101 59.13 51.6401 59.95 51.1101C60.31 51.0001 60.69 50.9301 61.09 50.9001C61.23 50.8901 61.36 50.8801 61.5 50.8801C61.67 51.0201 61.82 51.1901 61.96 51.3701C62.39 51.9301 62.68 52.6501 62.76 53.4501C61.12 53.9201 59.52 55.0501 58.19 57.2701" fill="#E2E1E1"/>
<path d="M47 60.78C46.9 60.31 46.8 59.8501 46.69 59.3801C46.59 58.9201 46.49 58.45 46.37 57.99C46.26 57.53 46.14 57.07 46.01 56.62C45.88 56.15 45.73 55.75 45.57 55.31C45.47 55.11 45.37 54.8401 45.27 54.6901L44.9 54.1001C44.63 53.7201 44.37 53.3401 44.06 53.0101C43.91 52.8301 43.76 52.6701 43.59 52.5101C43.43 52.3501 43.27 52.19 43.09 52.06C42.92 51.91 42.74 51.7701 42.55 51.6601C42.37 51.5301 42.18 51.41 41.98 51.31C41.6 51.09 41.18 50.94 40.76 50.8C40.34 50.67 39.91 50.59 39.47 50.55C39.03 50.52 38.59 50.51 38.14 50.55C37.7 50.58 37.25 50.67 36.82 50.77C35.94 50.98 35.08 51.2901 34.26 51.6901C33.85 51.8901 33.44 52.11 33.05 52.34C32.66 52.57 32.26 52.83 31.92 53.08L32.13 52.4501L32.48 53.6901C32.58 54.1101 32.75 54.5001 32.89 54.9101C33.03 55.3101 33.18 55.7201 33.36 56.1001C33.54 56.4801 33.68 56.89 33.9 57.24C34.12 57.6 34.28 58 34.54 58.33C34.79 58.66 34.99 59.04 35.29 59.33C35.57 59.63 35.83 59.97 36.16 60.21L36.63 60.62L37.15 60.9501C37.48 61.2001 37.87 61.3401 38.25 61.5101C38.63 61.6801 39.04 61.7501 39.44 61.8801C39.85 61.9301 40.27 62.0201 40.69 62.0401C41.11 62.0301 41.54 62.08 41.96 62.02C42.38 61.97 42.82 61.97 43.24 61.86C43.66 61.76 44.1 61.72 44.51 61.58C44.93 61.45 45.35 61.3501 45.76 61.2001L47 60.7601V60.78ZM47 60.78L45.83 61.3901C45.44 61.5901 45.02 61.73 44.61 61.9C44.2 62.09 43.77 62.1801 43.34 62.3201C42.92 62.4701 42.47 62.52 42.03 62.61C41.59 62.72 41.13 62.69 40.68 62.74C40.22 62.75 39.77 62.7001 39.31 62.6701C38.86 62.5601 38.39 62.51 37.96 62.34C37.53 62.17 37.08 62.03 36.69 61.77L36.09 61.4201L35.54 60.99C35.15 60.72 34.85 60.3701 34.53 60.0401C34.19 59.7201 33.95 59.32 33.66 58.96C33.37 58.6 33.18 58.19 32.93 57.8C32.68 57.41 32.51 56.99 32.31 56.59C32.11 56.18 31.95 55.76 31.79 55.34C31.64 54.92 31.46 54.5001 31.35 54.0701L30.97 52.78L30.86 52.4L31.19 52.15C31.61 51.83 32.01 51.5701 32.45 51.3201C32.88 51.0701 33.31 50.8401 33.76 50.6301C34.65 50.2101 35.6 49.87 36.58 49.65C37.07 49.55 37.57 49.4701 38.08 49.4501C38.58 49.4101 39.1 49.44 39.6 49.49C40.11 49.56 40.61 49.66 41.1 49.83C41.34 49.92 41.59 50 41.81 50.12C42.04 50.23 42.27 50.3401 42.48 50.4801C42.7 50.6101 42.91 50.7501 43.11 50.9101C43.32 51.0601 43.51 51.23 43.69 51.4C43.88 51.56 44.05 51.75 44.22 51.93C44.39 52.11 44.56 52.3 44.7 52.5C45.01 52.89 45.26 53.3101 45.52 53.7301L45.87 54.3801C46.01 54.6501 46.05 54.8401 46.15 55.0701C46.29 55.5301 46.42 56.0501 46.49 56.5101C46.58 56.9801 46.65 57.46 46.72 57.93C46.86 58.88 46.96 59.83 47.01 60.78H47Z" fill="#3F403F"/>
<path d="M55.53 60.78C55.59 59.83 55.69 58.87 55.82 57.93C55.88 57.46 55.96 56.9801 56.05 56.5101C56.13 56.0401 56.25 55.5301 56.39 55.0701C56.49 54.8401 56.53 54.6401 56.67 54.3801L57.02 53.7301C57.27 53.3101 57.53 52.89 57.84 52.5C57.98 52.3 58.15 52.11 58.32 51.93C58.49 51.75 58.66 51.56 58.85 51.4C59.03 51.23 59.22 51.0601 59.43 50.9101C59.63 50.7501 59.84 50.6101 60.06 50.4801C60.27 50.3401 60.5 50.22 60.73 50.12C60.96 50 61.2 49.92 61.44 49.83C61.93 49.66 62.43 49.56 62.94 49.49C63.45 49.44 63.96 49.4101 64.47 49.4501C64.98 49.4801 65.48 49.55 65.97 49.65C66.95 49.87 67.89 50.2101 68.79 50.6301C69.24 50.8401 69.68 51.0701 70.1 51.3201C70.53 51.5701 70.93 51.84 71.35 52.15L71.68 52.4L71.57 52.78L71.19 54.0701C71.08 54.5001 70.9 54.92 70.75 55.34C70.6 55.76 70.44 56.19 70.23 56.59C70.03 57 69.86 57.42 69.61 57.8C69.36 58.18 69.17 58.6 68.88 58.96C68.59 59.32 68.36 59.7201 68.02 60.0401C67.7 60.3701 67.39 60.72 67.01 60.99L66.46 61.4201L65.85 61.77C65.46 62.03 65.01 62.17 64.58 62.34C64.15 62.51 63.68 62.5601 63.23 62.6701C62.77 62.7001 62.31 62.75 61.86 62.74C61.41 62.7 60.95 62.72 60.51 62.61C60.07 62.51 59.62 62.4701 59.2 62.3201C58.78 62.1801 58.34 62.09 57.93 61.9C57.52 61.73 57.1 61.5801 56.71 61.3901L55.54 60.78H55.53ZM55.53 60.78L56.77 61.22C57.18 61.37 57.61 61.4701 58.02 61.6001C58.43 61.7401 58.87 61.7801 59.29 61.8801C59.71 61.9901 60.15 61.9801 60.57 62.0401C61 62.1001 61.42 62.04 61.84 62.06C62.26 62.04 62.68 61.96 63.09 61.9C63.49 61.77 63.9 61.7 64.28 61.53C64.66 61.36 65.05 61.21 65.38 60.97L65.9 60.6401L66.37 60.2301C66.7 59.9801 66.96 59.6501 67.24 59.3501C67.54 59.0601 67.74 58.6801 67.99 58.3501C68.25 58.0201 68.41 57.6201 68.63 57.2601C68.85 56.9001 68.99 56.5 69.17 56.12C69.36 55.74 69.5 55.34 69.64 54.93C69.78 54.53 69.94 54.13 70.05 53.71L70.4 52.47L70.61 53.1001C70.27 52.8501 69.87 52.59 69.48 52.36C69.09 52.12 68.68 51.91 68.27 51.71C67.45 51.31 66.59 51.0001 65.71 50.7901C65.27 50.6901 64.83 50.6001 64.38 50.5701C63.94 50.5201 63.49 50.5301 63.05 50.5701C62.61 50.6101 62.18 50.6901 61.76 50.8201C61.34 50.9501 60.93 51.11 60.54 51.33C60.34 51.43 60.15 51.55 59.97 51.68C59.78 51.8 59.61 51.94 59.43 52.08C59.25 52.22 59.09 52.37 58.93 52.53C58.76 52.68 58.61 52.85 58.46 53.03C58.15 53.37 57.89 53.74 57.62 54.12L57.25 54.71C57.15 54.86 57.05 55.12 56.95 55.33C56.78 55.77 56.63 56.1701 56.51 56.6401C56.37 57.0901 56.26 57.5501 56.14 58.0101C56.02 58.4701 55.92 58.94 55.82 59.4C55.71 59.87 55.61 60.33 55.52 60.8L55.53 60.78Z" fill="#3F403F"/>
<path d="M75.91 27.3601C73.84 25.5801 58.7 28.9001 57.56 31.2501C55.47 30.6601 53.33 30.3101 51.24 30.3001C49.14 30.3001 47 30.6501 44.9 31.2401C43.76 28.8901 28.62 25.5701 26.55 27.3501C24.54 29.0801 24.48 43.5601 28.26 45.9201C27.61 47.9401 38.99 30.9501 51.55 30.9301C63.8 30.9101 74.85 48.0601 74.21 46.0901C77.99 43.7301 77.93 29.0901 75.92 27.3601H75.91Z" fill="black"/>
<path d="M28.9501 29.9401C27.6201 31.0801 26.8201 41.1401 29.7501 41.6001C29.7501 41.6001 31.8201 38.2301 33.8301 36.4001C36.7101 33.7801 40.3501 32.5001 40.3501 32.5001C40.2501 31.0401 30.2701 28.8101 28.9401 29.9401H28.9501Z" fill="#F8A081"/>
<path d="M73.66 29.9401C74.99 31.0801 75.79 41.1401 72.86 41.6001C72.86 41.6001 70.79 38.2301 68.78 36.4001C65.9 33.7801 62.26 32.5001 62.26 32.5001C62.36 31.0401 72.34 28.8101 73.67 29.9401H73.66Z" fill="#F8A081"/>
<path d="M53.8301 65.29C53.5301 68.1 52.3201 65.9 51.9401 66.35C51.4901 66.88 51.6701 67.51 51.2401 67.51C50.6901 67.51 51.0601 66.89 50.5701 66.36C50.1101 65.87 48.9901 67.68 48.6501 65.29C48.4401 63.8 49.7301 63.78 51.2501 63.78C52.7701 63.78 54.0101 63.79 53.8501 65.29H53.8301Z" fill="#ED7693"/>
<path d="M53.1101 64.6101C53.1101 64.9701 52.2601 65.2601 51.2201 65.2601C50.1801 65.2601 49.3301 64.9701 49.3301 64.6101C49.3301 64.2501 50.1801 63.9601 51.2201 63.9601C52.2601 63.9601 53.1101 64.2501 53.1101 64.6101Z" fill="#FEF8FB"/>
<path d="M46.38 68.35C46.38 68.41 46.33 68.46 46.27 68.46C46.21 68.46 46.16 68.41 46.16 68.35C46.16 68.29 46.21 68.24 46.27 68.24C46.33 68.24 46.38 68.29 46.38 68.35Z" fill="#3F403F"/>
<path d="M47.5201 66.9601C47.5201 67.0201 47.4701 67.0601 47.4201 67.0601C47.3701 67.0601 47.3201 67.0101 47.3201 66.9601C47.3201 66.9101 47.3701 66.8601 47.4201 66.8601C47.4701 66.8601 47.5201 66.9101 47.5201 66.9601Z" fill="#3F403F"/>
<path d="M48.15 68.3501C48.15 68.4301 48.09 68.4901 48.01 68.4901C47.93 68.4901 47.87 68.4301 47.87 68.3501C47.87 68.2701 47.93 68.2101 48.01 68.2101C48.09 68.2101 48.15 68.2701 48.15 68.3501Z" fill="#3F403F"/>
<path d="M56.1801 68.36C56.1801 68.42 56.2301 68.47 56.2901 68.47C56.3501 68.47 56.4001 68.42 56.4001 68.36C56.4001 68.3 56.3501 68.25 56.2901 68.25C56.2301 68.25 56.1801 68.3 56.1801 68.36Z" fill="#3F403F"/>
<path d="M55.05 66.9601C55.05 67.0201 55.1001 67.0601 55.1501 67.0601C55.2001 67.0601 55.25 67.0101 55.25 66.9601C55.25 66.9101 55.2001 66.8601 55.1501 66.8601C55.1001 66.8601 55.05 66.9101 55.05 66.9601Z" fill="#3F403F"/>
<path d="M54.41 68.3601C54.41 68.4401 54.47 68.5001 54.54 68.5001C54.61 68.5001 54.68 68.4401 54.68 68.3601C54.68 68.2801 54.62 68.2201 54.54 68.2201C54.46 68.2201 54.41 68.2801 54.41 68.3601Z" fill="#3F403F"/>
<path d="M42.36 66.6201C42.92 66.7501 43.48 66.8801 44.04 67.0201C44.32 67.0901 44.6 67.1501 44.88 67.2301C45.16 67.3201 45.43 67.4001 45.7 67.5201C45.41 67.5001 45.13 67.4301 44.85 67.3701C44.57 67.3001 44.29 67.2101 44.02 67.1301C43.47 66.9701 42.91 66.8001 42.36 66.6301V66.6201Z" fill="#3F403F"/>
<path d="M40.0701 69.29L42.5201 68.74C42.9301 68.65 43.3401 68.55 43.7501 68.47C44.1601 68.4 44.5701 68.33 44.9901 68.28C44.5901 68.42 44.1801 68.51 43.7701 68.61C43.3601 68.7 42.9501 68.77 42.5401 68.85L40.0701 69.3V69.29Z" fill="#3F403F"/>
<path d="M42.4401 70.78L44.0401 69.8C44.3101 69.64 44.5701 69.47 44.8501 69.32C45.1301 69.18 45.4001 69.03 45.7001 68.91C45.4501 69.11 45.1801 69.28 44.9201 69.45C44.6501 69.61 44.3701 69.75 44.1001 69.9L42.4501 70.79L42.4401 70.78Z" fill="#3F403F"/>
<path d="M60.2 66.6301C59.65 66.8001 59.09 66.9701 58.54 67.1301C58.26 67.2101 57.99 67.3001 57.71 67.3701C57.43 67.4301 57.15 67.5001 56.86 67.5301C57.13 67.4001 57.4 67.3201 57.68 67.2301C57.96 67.1501 58.24 67.0901 58.52 67.0201C59.08 66.8801 59.64 66.7501 60.2 66.6201V66.6301Z" fill="#3F403F"/>
<path d="M62.4901 69.3101L60.0201 68.86C59.6101 68.78 59.1901 68.7201 58.7901 68.6201C58.3801 68.5201 57.9701 68.4301 57.5701 68.3101C57.9901 68.3401 58.4001 68.4101 58.8101 68.4801C59.2201 68.5501 59.6301 68.6501 60.0401 68.7401L62.4901 69.2901V69.3101Z" fill="#3F403F"/>
<path d="M60.11 70.8L58.46 69.9101C58.19 69.7601 57.91 69.6201 57.64 69.4601C57.38 69.2901 57.11 69.1301 56.86 68.9401C57.15 69.0501 57.43 69.1901 57.71 69.3401C57.99 69.4901 58.25 69.6601 58.52 69.8201L60.12 70.8H60.11Z" fill="#3F403F"/>
</svg>
