<svg width="102" height="101" viewBox="0 0 102 101" fill="none" xmlns="http://www.w3.org/2000/svg">
<path d="M92.87 0.0700073H9.28C4.49169 0.0700073 0.609985 3.95168 0.609985 8.73999V92.33C0.609985 97.1183 4.49169 101 9.28 101H92.87C97.6583 101 101.54 97.1183 101.54 92.33V8.73999C101.54 3.95168 97.6583 0.0700073 92.87 0.0700073Z" fill="#DBBD64"/>
<path d="M51.08 79.74C50.78 79.74 50.4801 79.74 50.1401 79.71C49.1701 79.66 48.2201 79.54 47.3201 79.35C39.2701 77.85 26.7901 71.59 25.4801 62.89C25.4101 62.43 25.3701 61.95 25.3701 61.45C25.3701 60.52 25.4701 59.52 25.6501 58.49C23.8401 56.87 23.3201 53.85 22.8201 50.91C22.6701 50.01 22.5101 49.08 22.3201 48.21C22.2601 47.92 22.0801 47.6 21.8501 47.2C20.3801 44.58 19.4401 41.4701 24.1301 32.4301C24.8401 31.0501 25.4701 29.62 26.0701 28.23C27.8801 24.06 29.4401 20.45 32.6901 20.45C33.2601 20.45 33.8601 20.58 34.4601 20.83C34.5601 20.87 34.6501 20.91 34.7301 20.95C35.4701 21 36.5701 21.51 37.8901 24.65C38.5801 26.29 39.8901 27.82 41.1501 29.29C43.0901 31.56 45.1001 33.91 44.9401 36.8C44.9001 37.62 44.7301 38.38 44.4401 39.11C46.7501 38.65 48.9701 38.42 51.0901 38.42C53.2101 38.42 55.3801 38.67 57.7601 39.16C57.4501 38.42 57.28 37.64 57.24 36.8C57.09 33.91 59.0901 31.56 61.0301 29.29C62.2901 27.81 63.6001 26.28 64.2901 24.65C65.6201 21.51 66.71 21 67.46 20.95C67.55 20.91 67.6401 20.87 67.7301 20.83C68.3301 20.58 68.9201 20.45 69.5001 20.45C72.7401 20.45 74.3 24.05 76.11 28.23C76.71 29.62 77.34 31.0601 78.05 32.4301C82.74 41.4701 81.8 44.57 80.33 47.2C80.1 47.6 79.92 47.92 79.86 48.21C79.67 49.08 79.51 50.02 79.36 50.92C78.86 53.85 78.3501 56.87 76.5401 58.49C76.7301 59.52 76.8201 60.52 76.8201 61.45C76.8201 61.79 76.8 62.12 76.77 62.45C76.76 62.57 76.7401 62.6999 76.7301 62.8199C75.4001 72.7699 60.6201 79.59 51.4201 79.74H51.0901H51.08Z" fill="#2F150C"/>
<path d="M68.2401 22.09C68.0301 22.18 67.8501 22.26 67.7001 22.33C67.2601 22.12 66.4201 23.09 65.5401 25.17C63.6901 29.55 58.3801 32.6799 58.5901 36.7199C58.7001 38.8399 59.8201 40.28 61.2301 41.43C58.2801 40.56 54.6401 39.77 51.0901 39.77C47.5401 39.77 43.9201 40.4999 41.0601 41.3299C42.4101 40.1999 43.4801 38.7799 43.5801 36.7099C43.7901 32.6699 38.4801 29.54 36.6301 25.16C35.7501 23.08 34.9101 22.12 34.4701 22.32C34.3101 22.24 34.1301 22.16 33.9301 22.08C29.7801 20.35 28.3801 27.18 25.3401 33.05C19.3901 44.52 23.1301 45.53 23.6501 47.91C24.5201 51.87 24.6401 56.54 27.1601 57.89C27.1601 57.87 27.1601 57.8599 27.1701 57.8399C26.8901 59.0399 26.7201 60.2499 26.7201 61.4399C26.7201 61.8599 26.7501 62.27 26.8201 62.68C27.9701 70.28 39.4101 76.49 47.5901 78.01C48.4301 78.19 49.3001 78.2999 50.2001 78.3399C50.5001 78.3599 50.7901 78.37 51.0701 78.37C51.1701 78.37 51.2701 78.37 51.3701 78.37C60.5701 78.22 74.1801 71.34 75.3501 62.64C75.3601 62.53 75.3801 62.4299 75.3901 62.3199C75.4201 62.0299 75.4301 61.7399 75.4301 61.4499C75.4301 60.2599 75.2601 59.0499 74.9801 57.8399C74.9801 57.8599 74.9901 57.88 75.0001 57.9C77.5201 56.55 77.6401 51.88 78.5101 47.92C79.0301 45.54 82.7701 44.54 76.8201 33.06C73.7801 27.19 72.3801 20.36 68.2401 22.09Z" fill="#2F150C"/>
<path d="M75.4301 61.45C75.4301 61.75 75.4201 62.0399 75.3901 62.3199C75.3801 62.4299 75.3701 62.53 75.3501 62.64C74.1801 71.33 60.5801 78.22 51.3701 78.37C51.2701 78.37 51.1701 78.37 51.0701 78.37C43.1601 78.37 28.1301 71.4501 26.8101 62.6801C26.7501 62.2701 26.7101 61.8599 26.7101 61.4399C26.7101 53.1999 34.5801 43.77 34.5801 43.77C34.5801 43.77 42.5301 39.77 51.0701 39.77C59.1101 39.77 67.5601 43.77 67.5601 43.77C67.5601 43.77 75.4301 53.1899 75.4301 61.4399" fill="#50463F"/>
<path d="M51.08 77.67C47.46 77.67 42.06 75.85 37.64 73.13C32.57 70.01 29.36 66.14 28.85 62.52C28.8 62.16 28.77 61.8001 28.77 61.4301C28.77 54.1601 34.72 45.7001 36.02 43.9301C37.63 43.1301 44.23 40.11 51.08 40.11C57.54 40.11 64.43 43.14 66.16 43.95C67.48 45.75 73.4 54.1901 73.4 61.4301C73.4 61.7001 73.39 61.96 73.37 62.22C73.37 62.32 73.35 62.41 73.34 62.51C72.28 70.97 59.27 77.5501 51.36 77.6801H51.4H51.1" fill="#695F55"/>
<path d="M31.27 56.46C31.27 56.46 35.98 66.19 40.01 66.19C43.1 66.19 46.96 64.61 46.96 64.61C46.96 64.61 48.6 48.4 39.66 47.88C35.63 47.65 31.28 56.46 31.28 56.46" fill="#50463F"/>
<path d="M70.96 56.46C70.96 56.46 66.25 66.19 62.22 66.19C59.13 66.19 55.27 64.61 55.27 64.61C55.27 64.61 53.63 48.4 62.57 47.88C66.6 47.65 70.95 56.46 70.95 56.46" fill="#50463F"/>
<path d="M35.6301 50.01C35.6301 50.01 35.6401 49.97 35.6801 49.9C35.7201 49.84 35.7701 49.73 35.8501 49.61C35.9301 49.49 36.0301 49.35 36.1601 49.2C36.2901 49.06 36.4401 48.88 36.6301 48.72C36.7201 48.64 36.8201 48.56 36.9301 48.47C37.0401 48.39 37.1601 48.32 37.2701 48.24C37.3901 48.15 37.5201 48.09 37.6601 48.02C37.8001 47.96 37.9301 47.88 38.0801 47.83C38.3801 47.72 38.6901 47.6099 39.0301 47.5699C39.3601 47.4899 39.7101 47.5 40.0501 47.49C40.4001 47.49 40.7301 47.58 41.0701 47.63C41.3901 47.73 41.7001 47.84 41.9901 47.96C42.2701 48.11 42.5301 48.26 42.7701 48.41C43.0001 48.57 43.2001 48.76 43.3801 48.92C43.4701 49 43.5601 49.08 43.6401 49.16C43.7201 49.24 43.7801 49.33 43.8401 49.4C43.9701 49.55 44.0601 49.6901 44.1501 49.8101C44.3101 50.0401 44.3901 50.1801 44.3901 50.1801C44.3901 50.1801 44.2301 50.13 43.9801 50.02C43.8501 49.97 43.7001 49.8999 43.5301 49.8199C43.3701 49.7299 43.1701 49.66 42.9601 49.59C42.7501 49.51 42.5401 49.41 42.3001 49.33C42.0601 49.26 41.8201 49.19 41.5701 49.1C41.3201 49.05 41.0601 49.0001 40.8001 48.9301C40.6701 48.9201 40.5301 48.91 40.4001 48.89C40.2701 48.88 40.1301 48.85 40.0001 48.86C39.7301 48.86 39.4701 48.84 39.2001 48.88C39.0701 48.9 38.9301 48.88 38.8101 48.92C38.6801 48.94 38.5501 48.97 38.4301 48.98C38.3001 49 38.1801 49.0399 38.0601 49.0699C37.9401 49.0999 37.8201 49.12 37.7001 49.17C37.4701 49.24 37.2401 49.31 37.0401 49.4C36.8301 49.47 36.6501 49.56 36.4701 49.62C36.3101 49.7 36.1501 49.7599 36.0301 49.8199C35.9101 49.8799 35.8101 49.93 35.7401 49.96C35.6701 49.99 35.6401 50.01 35.6401 50.01H35.6301Z" fill="#333333"/>
<path d="M66.4401 50.01C66.4401 50.01 66.4001 49.99 66.3401 49.96C66.2701 49.93 66.18 49.8799 66.05 49.8199C65.93 49.7599 65.77 49.7 65.61 49.62C65.43 49.56 65.2501 49.47 65.0401 49.4C64.8401 49.32 64.6101 49.25 64.3801 49.17C64.2701 49.13 64.1401 49.1099 64.0201 49.0699C63.9001 49.0499 63.7801 49 63.6501 48.98C63.5201 48.96 63.3901 48.94 63.2701 48.92C63.1401 48.89 63.0101 48.9 62.8801 48.88C62.6201 48.84 62.35 48.86 62.08 48.86C61.95 48.85 61.8101 48.88 61.6801 48.89C61.5501 48.91 61.4101 48.9201 61.2801 48.9301C61.0201 48.9901 60.7601 49.04 60.5101 49.1C60.2601 49.19 60.0201 49.26 59.7801 49.33C59.5501 49.41 59.3301 49.51 59.1201 49.59C58.9101 49.66 58.71 49.7299 58.55 49.8199C58.38 49.8999 58.2301 49.96 58.1001 50.02C57.8501 50.13 57.6901 50.1801 57.6901 50.1801C57.6901 50.1801 57.7701 50.0401 57.9301 49.8101C58.0101 49.7001 58.1101 49.56 58.2401 49.4C58.3001 49.33 58.3701 49.24 58.4401 49.16C58.5201 49.08 58.6101 49.01 58.7001 48.92C58.8801 48.76 59.0801 48.58 59.3101 48.41C59.5501 48.26 59.8101 48.11 60.0901 47.96C60.3801 47.84 60.6901 47.73 61.0101 47.63C61.3401 47.58 61.6801 47.5 62.0301 47.49C62.3801 47.49 62.72 47.4899 63.05 47.5699C63.39 47.6099 63.7001 47.73 64.0001 47.83C64.1501 47.88 64.2901 47.96 64.4201 48.02C64.5501 48.09 64.6901 48.15 64.8101 48.24C64.9301 48.32 65.0401 48.4 65.1501 48.47C65.2601 48.55 65.3501 48.64 65.4501 48.72C65.6401 48.88 65.7801 49.06 65.9201 49.2C66.0501 49.36 66.1501 49.49 66.2301 49.61C66.3101 49.73 66.3601 49.83 66.4001 49.9C66.4401 49.97 66.4501 50.01 66.4501 50.01H66.4401Z" fill="#333333"/>
<path d="M46.9601 64.6C39.5301 68.14 34.3101 65.85 31.9501 56.68C31.9501 56.68 40.8801 49.74 45.6201 58.64C46.3501 60.02 46.9501 64.6 46.9501 64.6" fill="white"/>
<path d="M39.7801 65.1899C37.7201 65.1499 35.9901 63.51 35.3301 61.24C35.1201 60.55 35.0201 59.79 35.0401 59.01C35.1101 55.85 37.0701 54.73 39.5401 54.65C39.6901 54.65 39.8501 54.65 40.0001 54.65C42.6901 54.71 44.7301 57.51 44.7801 59.22C44.8701 62.57 42.4701 65.2499 39.7801 65.1899Z" fill="#CB4F1B"/>
<path d="M39.8001 64.34C38.2401 64.31 36.8701 62.9699 36.3101 60.9399C36.1301 60.2899 36.0401 59.61 36.0601 58.91C36.1101 56.56 37.2201 55.42 39.5701 55.35C39.6901 55.35 39.8101 55.35 39.9201 55.35H39.9901C42.1101 55.4 43.7301 57.87 43.7601 59.14C43.8001 60.67 43.2901 62.14 42.3501 63.15C41.6401 63.93 40.7501 64.36 39.8601 64.36H39.8001" fill="#682F12"/>
<path d="M55.25 64.6C62.68 68.14 67.9 65.85 70.26 56.68C70.26 56.68 61.33 49.74 56.59 58.64C55.86 60.02 55.26 64.6 55.26 64.6" fill="white"/>
<path d="M62.4201 65.1899C64.4801 65.1499 66.21 63.51 66.87 61.24C67.07 60.55 67.18 59.79 67.16 59.01C67.09 55.85 65.13 54.73 62.66 54.65C62.51 54.65 62.3501 54.65 62.2001 54.65C59.5101 54.71 57.4701 57.51 57.4201 59.22C57.3301 62.57 59.7301 65.2499 62.4201 65.1899Z" fill="#CB4F1B"/>
<path d="M62.3401 64.34C61.4501 64.34 60.5601 63.91 59.8501 63.13C58.9201 62.11 58.4001 60.65 58.4401 59.12C58.4701 57.85 60.0901 55.38 62.2201 55.33H62.2801C62.4001 55.33 62.5201 55.33 62.6301 55.33C64.9801 55.4 66.0902 56.54 66.1402 58.89C66.1502 59.59 66.0702 60.27 65.8902 60.92C65.3302 62.96 63.9602 64.3 62.3902 64.33H62.3301" fill="#682F12"/>
<path d="M40.11 57.75C40.07 59.78 38.71 61.4 37.08 61.37C36.34 61.35 35.6801 61.0099 35.1701 60.4399C34.9901 59.8399 34.9001 59.17 34.9101 58.49C34.9701 55.72 36.69 54.74 38.86 54.67C39.64 55.34 40.14 56.48 40.11 57.75Z" fill="white"/>
<path d="M42.6701 63.63C42.6601 64.32 42.2001 64.87 41.6401 64.85C41.0901 64.84 40.6501 64.27 40.6701 63.58C40.6801 62.89 41.1401 62.35 41.7001 62.36C42.2501 62.37 42.6901 62.94 42.6701 63.63Z" fill="white"/>
<path d="M62.3001 58.05C62.2601 60.08 60.9001 61.7 59.2701 61.67C58.5301 61.66 57.8701 61.31 57.3601 60.74C57.1801 60.14 57.0901 59.47 57.1001 58.79C57.1601 56.02 58.8801 55.04 61.0501 54.97C61.8301 55.64 62.3301 56.78 62.3001 58.05Z" fill="white"/>
<path d="M65.0601 63.63C65.0401 64.32 64.5901 64.87 64.0301 64.85C63.4801 64.84 63.0401 64.27 63.0601 63.58C63.0701 62.89 63.5301 62.35 64.0901 62.36C64.6401 62.37 65.0801 62.94 65.0601 63.63Z" fill="white"/>
<path d="M45.6201 65.1899C46.0601 65.0199 46.5001 64.83 46.9601 64.61C46.5101 64.83 46.0601 65.0199 45.6201 65.1899Z" fill="#675E54"/>
<path d="M46.9601 64.6C46.9601 64.6 46.3601 60.02 45.6301 58.64C44.0001 55.59 41.88 54.4 39.8 54.16C41.89 54.4 44.0101 55.59 45.6401 58.64C46.3601 60 46.9501 64.47 46.9701 64.6M32.3501 58.1C32.2101 57.65 32.0701 57.1699 31.9501 56.6899C32.0801 57.1799 32.2101 57.65 32.3501 58.1Z" fill="#504842"/>
<path d="M45.6201 65.1899C45.3801 63.8799 45.0501 62.41 44.6901 61.73C44.6201 61.61 44.5601 61.48 44.4901 61.37C44.7001 60.71 44.8101 59.98 44.7901 59.22C44.7401 57.51 42.7001 54.71 40.0101 54.65H39.9301C39.8001 54.65 39.6701 54.65 39.5401 54.65C39.3201 54.65 39.1101 54.6699 38.9001 54.6899C38.8901 54.6799 38.8701 54.67 38.8601 54.66C36.9001 54.72 35.3101 55.53 34.9801 57.71C34.0601 58.01 33.2401 58.41 32.5901 58.77C32.5101 58.55 32.4401 58.32 32.3601 58.1C32.2201 57.65 32.0801 57.1801 31.9601 56.6801C32.0101 56.6401 35.3101 54.11 38.9401 54.11C39.2201 54.11 39.5101 54.12 39.8001 54.16C41.8901 54.41 44.0101 55.59 45.6301 58.64C46.3601 60.02 46.9601 64.6 46.9601 64.6C46.5101 64.82 46.0601 65.0101 45.6201 65.1801" fill="#E2E1E1"/>
<path d="M44.49 61.36C44.24 60.92 43.98 60.53 43.7 60.17C43.75 59.83 43.77 59.47 43.76 59.12C43.73 57.85 42.11 55.38 39.99 55.33H39.92C39.8 55.33 39.68 55.33 39.57 55.33C39.53 55.33 39.49 55.33 39.45 55.33C39.29 55.09 39.11 54.8699 38.9 54.6899C39.11 54.6699 39.33 54.65 39.54 54.65C39.67 54.65 39.8 54.65 39.93 54.65H40.01C42.7 54.71 44.74 57.51 44.79 59.22C44.81 59.98 44.7 60.7 44.49 61.37" fill="#BD5122"/>
<path d="M43.7001 60.17C42.6101 58.73 41.37 57.91 40.11 57.51C40.09 56.69 39.8401 55.94 39.4501 55.34C39.4901 55.34 39.5301 55.34 39.5701 55.34C39.6901 55.34 39.8101 55.34 39.9201 55.34H39.9901C42.1101 55.39 43.7301 57.86 43.7601 59.13C43.7601 59.49 43.7501 59.8401 43.7001 60.1801" fill="#683319"/>
<path d="M34.9701 57.72C35.3101 55.53 36.9001 54.72 38.8501 54.67C38.8601 54.68 38.8801 54.69 38.8901 54.7C39.1001 54.88 39.2801 55.1 39.4401 55.34C39.8301 55.94 40.0701 56.69 40.1001 57.51C39.4001 57.29 38.6901 57.1899 37.9901 57.1899C36.9301 57.1899 35.9001 57.4 34.9701 57.71" fill="#E2E1E1"/>
<path d="M56.58 65.1899C56.14 65.0199 55.7 64.83 55.24 64.61C55.24 64.61 55.24 64.57 55.26 64.49C55.26 64.56 55.24 64.6 55.24 64.6C55.69 64.82 56.14 65.0101 56.58 65.1801" fill="#675E54"/>
<path d="M55.26 64.5C55.36 63.78 55.91 59.9 56.58 58.64C55.91 59.89 55.36 63.78 55.26 64.5Z" fill="#504842"/>
<path d="M56.58 65.1899C56.14 65.0199 55.7 64.83 55.24 64.61C55.24 64.61 55.24 64.57 55.26 64.5C55.36 63.79 55.91 59.9 56.58 58.64C56.8 58.22 57.04 57.84 57.28 57.48C57.17 57.86 57.11 58.29 57.1 58.78C57.08 59.46 57.18 60.13 57.36 60.73C57.44 60.82 57.53 60.91 57.62 60.99C57.65 61.11 57.68 61.23 57.72 61.35C57.65 61.47 57.58 61.59 57.52 61.71C57.16 62.39 56.83 63.86 56.59 65.17" fill="#E2E1E1"/>
<path d="M57.7201 61.36C57.6801 61.24 57.6501 61.12 57.6201 61C57.6901 61.06 57.7601 61.12 57.8301 61.17C57.7901 61.23 57.7601 61.3 57.7201 61.36Z" fill="#BD5122"/>
<path d="M69.85 58.1C69.99 57.65 70.13 57.1801 70.25 56.6801C70.12 57.1701 69.99 57.64 69.85 58.1ZM59.54 55.2C60.47 54.58 61.45 54.27 62.42 54.15C61.45 54.26 60.47 54.5799 59.54 55.1899" fill="#504842"/>
<path d="M69.62 58.77C68.91 58.38 68.01 57.95 66.99 57.64C66.45 55.52 64.74 54.71 62.66 54.65C62.53 54.65 62.4 54.65 62.27 54.65H62.19C61.64 54.66 61.12 54.79 60.63 55C60.24 55.03 59.87 55.1 59.52 55.2C60.45 54.59 61.43 54.27 62.4 54.16C62.69 54.13 62.97 54.11 63.26 54.11C66.89 54.11 70.19 56.6401 70.24 56.6801C70.11 57.1701 69.98 57.64 69.84 58.1C69.77 58.33 69.69 58.55 69.61 58.77" fill="#E2E1E1"/>
<path d="M67 57.64C66.65 57.53 66.29 57.44 65.92 57.37C65.48 56.04 64.41 55.39 62.64 55.34C62.52 55.34 62.4 55.34 62.29 55.34H62.23C61.98 55.34 61.73 55.39 61.49 55.46C61.36 55.28 61.21 55.13 61.05 54.99C60.91 54.99 60.78 55 60.65 55.01C61.13 54.8 61.66 54.68 62.21 54.66H62.29C62.42 54.66 62.55 54.66 62.68 54.66C64.76 54.72 66.47 55.53 67.01 57.65" fill="#BD5122"/>
<path d="M62.27 57.46C62.19 56.68 61.9 55.9799 61.49 55.4399C61.73 55.3699 61.97 55.3299 62.23 55.3199H62.29C62.41 55.3199 62.53 55.3199 62.64 55.3199C64.41 55.3699 65.48 56.03 65.92 57.35C65.37 57.24 64.8 57.1801 64.22 57.1801C63.58 57.1801 62.93 57.26 62.28 57.45" fill="#683319"/>
<path d="M57.8301 61.17C57.7601 61.12 57.6901 61.06 57.6201 61C57.5301 60.92 57.4401 60.83 57.3601 60.74C57.1801 60.14 57.0901 59.47 57.1001 58.79C57.1101 58.3 57.1701 57.87 57.2801 57.49C57.9801 56.47 58.7401 55.73 59.5301 55.21C59.8801 55.1 60.2501 55.04 60.6401 55.01C60.7701 55 60.9101 54.99 61.0401 54.99C61.2001 55.13 61.3501 55.29 61.4801 55.46C61.9001 56 62.1801 56.7 62.2601 57.48C60.6701 57.94 59.1101 59.0399 57.8201 61.1899" fill="#E2E1E1"/>
<path d="M46.96 64.5999C46.87 64.1499 46.77 63.69 46.66 63.24C46.56 62.79 46.46 62.33 46.35 61.89C46.24 61.44 46.13 61 46 60.56C45.88 60.11 45.73 59.71 45.57 59.29C45.47 59.1 45.38 58.8399 45.28 58.6899L44.92 58.12C44.66 57.75 44.4 57.39 44.1 57.06C43.96 56.89 43.81 56.7299 43.65 56.5799C43.5 56.4299 43.34 56.27 43.16 56.14C42.99 56 42.82 55.86 42.64 55.75C42.46 55.62 42.28 55.51 42.09 55.41C41.72 55.2 41.31 55.05 40.91 54.92C40.5 54.79 40.08 54.72 39.65 54.68C39.22 54.65 38.79 54.64 38.36 54.68C37.93 54.71 37.5 54.8 37.07 54.89C36.22 55.09 35.38 55.39 34.58 55.78C34.18 55.97 33.79 56.19 33.4 56.41C33.02 56.64 32.63 56.88 32.3 57.13L32.51 56.52L32.85 57.7199C32.95 58.1199 33.11 58.51 33.24 58.9C33.38 59.29 33.52 59.68 33.7 60.05C33.88 60.42 34.01 60.82 34.23 61.16C34.44 61.51 34.6 61.8999 34.85 62.2199C35.09 62.5399 35.29 62.9099 35.58 63.1899C35.85 63.4899 36.1 63.81 36.42 64.05L36.87 64.4499L37.37 64.77C37.7 65.01 38.07 65.1499 38.44 65.3199C38.81 65.4899 39.21 65.56 39.59 65.68C39.99 65.73 40.4 65.8199 40.8 65.8299C41.21 65.8199 41.62 65.87 42.04 65.81C42.45 65.76 42.88 65.76 43.28 65.66C43.69 65.56 44.11 65.52 44.51 65.39C44.91 65.26 45.32 65.16 45.72 65.02L46.93 64.5899L46.96 64.5999ZM46.96 64.5999L45.82 65.1899C45.44 65.3799 45.03 65.5199 44.63 65.6899C44.23 65.8699 43.81 65.9599 43.4 66.0999C42.99 66.2499 42.55 66.29 42.13 66.39C41.7 66.5 41.26 66.47 40.82 66.51C40.38 66.52 39.93 66.4699 39.49 66.4399C39.06 66.3299 38.6 66.29 38.18 66.12C37.76 65.95 37.33 65.81 36.94 65.56L36.35 65.2199L35.81 64.81C35.43 64.55 35.14 64.21 34.83 63.89C34.5 63.58 34.27 63.1899 33.99 62.8399C33.7 62.4899 33.52 62.0899 33.28 61.7199C33.03 61.3499 32.87 60.94 32.68 60.54C32.48 60.14 32.33 59.7399 32.18 59.3199C32.03 58.9099 31.86 58.4999 31.75 58.0799L31.38 56.8299L31.27 56.4599L31.59 56.2199C32 55.9099 32.39 55.65 32.81 55.41C33.22 55.17 33.65 54.94 34.09 54.74C34.96 54.33 35.88 54 36.83 53.79C37.31 53.69 37.79 53.6199 38.29 53.5899C38.78 53.5499 39.28 53.58 39.77 53.62C40.26 53.68 40.75 53.7899 41.22 53.9499C41.46 54.0399 41.69 54.1099 41.91 54.2299C42.14 54.3399 42.36 54.4499 42.56 54.5799C42.78 54.6999 42.98 54.85 43.17 55C43.37 55.14 43.56 55.3099 43.73 55.4699C43.92 55.6299 44.08 55.81 44.24 55.99C44.41 56.16 44.57 56.35 44.71 56.55C45.01 56.93 45.26 57.34 45.5 57.75L45.84 58.38C45.98 58.64 46.02 58.83 46.11 59.05C46.24 59.5 46.37 59.9999 46.44 60.4499C46.53 60.9099 46.6 61.3699 46.66 61.8299C46.79 62.7499 46.89 63.6799 46.95 64.5999H46.96Z" fill="#333333"/>
<path d="M55.25 64.6C55.31 63.68 55.4 62.75 55.54 61.83C55.6 61.37 55.67 60.91 55.76 60.45C55.83 60 55.96 59.5001 56.09 59.0501C56.18 58.8301 56.22 58.63 56.36 58.38L56.7 57.75C56.95 57.34 57.19 56.9301 57.49 56.5501C57.63 56.3501 57.79 56.17 57.96 55.99C58.12 55.81 58.29 55.63 58.48 55.47C58.66 55.3 58.84 55.14 59.04 55C59.23 54.85 59.44 54.7 59.65 54.58C59.86 54.44 60.08 54.33 60.3 54.23C60.52 54.11 60.76 54.04 60.99 53.95C61.46 53.79 61.95 53.68 62.45 53.62C62.94 53.57 63.44 53.55 63.93 53.59C64.42 53.61 64.91 53.6901 65.39 53.7901C66.34 54.0001 67.26 54.33 68.13 54.74C68.57 54.94 68.99 55.1701 69.41 55.4101C69.83 55.6501 70.22 55.91 70.63 56.22L70.95 56.46L70.84 56.83L70.47 58.08C70.36 58.5 70.19 58.91 70.04 59.32C69.89 59.73 69.74 60.1401 69.54 60.5401C69.35 60.9401 69.18 61.34 68.94 61.72C68.7 62.09 68.52 62.5 68.23 62.84C67.95 63.19 67.72 63.57 67.39 63.89C67.08 64.21 66.78 64.5501 66.41 64.8101L65.88 65.22L65.29 65.5601C64.91 65.8101 64.47 65.95 64.06 66.12C63.64 66.29 63.18 66.33 62.75 66.44C62.3 66.47 61.86 66.52 61.42 66.51C60.98 66.47 60.53 66.49 60.11 66.39C59.68 66.29 59.25 66.25 58.84 66.1C58.43 65.96 58 65.87 57.61 65.69C57.21 65.52 56.8 65.38 56.42 65.19L55.28 64.6H55.25ZM55.25 64.6L56.46 65.0301C56.86 65.1801 57.27 65.2801 57.68 65.4001C58.08 65.5301 58.5 65.5801 58.91 65.6701C59.32 65.7701 59.74 65.77 60.15 65.82C60.56 65.87 60.98 65.82 61.39 65.84C61.8 65.82 62.2 65.74 62.6 65.69C62.98 65.56 63.39 65.5 63.75 65.33C64.12 65.16 64.49 65.0201 64.82 64.7801L65.32 64.46L65.77 64.0601C66.09 63.8101 66.34 63.49 66.61 63.2C66.9 62.92 67.09 62.55 67.34 62.23C67.59 61.91 67.75 61.5201 67.96 61.1701C68.17 60.8301 68.31 60.4301 68.49 60.0601C68.67 59.6901 68.81 59.3001 68.95 58.9101C69.09 58.5201 69.24 58.13 69.34 57.73L69.68 56.5301L69.89 57.14C69.56 56.89 69.17 56.6501 68.79 56.4201C68.41 56.1901 68.02 55.9801 67.62 55.7901C66.82 55.4001 65.98 55.1001 65.13 54.9001C64.7 54.8001 64.27 54.72 63.84 54.69C63.41 54.64 62.98 54.65 62.55 54.69C62.12 54.73 61.7 54.8101 61.29 54.9301C60.88 55.0601 60.48 55.2101 60.11 55.4201C59.92 55.5201 59.73 55.63 59.56 55.76C59.38 55.87 59.21 56.0101 59.04 56.1501C58.87 56.2801 58.71 56.44 58.55 56.59C58.39 56.74 58.24 56.9 58.1 57.07C57.8 57.4 57.54 57.76 57.28 58.13L56.92 58.7C56.82 58.84 56.73 59.1001 56.63 59.3001C56.47 59.7201 56.32 60.12 56.2 60.57C56.07 61.01 55.95 61.4501 55.85 61.9001C55.74 62.3501 55.64 62.8 55.54 63.25C55.44 63.7 55.34 64.15 55.24 64.61L55.25 64.6Z" fill="#333333"/>
<path d="M50.6801 78.37C49.6101 78.35 48.5801 78.23 47.6001 78.02C48.7001 78.22 49.7301 78.34 50.6801 78.37Z" fill="#7C726A"/>
<path d="M51.0001 78.37C50.8901 78.37 50.7901 78.37 50.6801 78.37C49.7301 78.35 48.7001 78.23 47.6001 78.02C45.3301 77.54 43.3401 76.59 41.8501 75.33C45.1701 76.79 48.5501 77.67 51.0801 77.67H51.3501H51.3901H51.3601C53.7201 77.63 56.5401 77.02 59.3601 75.95C57.2001 77.45 54.2601 78.38 51.0101 78.38" fill="#7C726A"/>
<path d="M51.08 77.67C48.56 77.67 45.17 76.78 41.85 75.33C40.08 73.83 39.01 71.89 39.01 69.76C39.01 68.08 39.69 67.53 40.86 67.53C42.99 67.53 46.76 69.33 51.03 69.33C55.3 69.33 59.04 67.53 61.15 67.53C62.31 67.53 62.98 68.08 62.98 69.76C62.98 72.19 61.59 74.3699 59.34 75.9399C56.52 77.0099 53.71 77.62 51.34 77.66H51.07" fill="#7C726A"/>
<path d="M43.3601 36.7199C43.1801 39.0299 42.1701 40.42 40.7701 41.54C37.0801 42.73 36.1301 44.7099 36.1301 44.7099C36.1301 44.7099 29.0801 50.62 27.1501 57.89C24.6301 56.54 24.5101 51.87 23.6401 47.91C23.1201 45.53 19.3801 44.53 25.3301 33.05C28.3701 27.18 29.7701 20.35 33.9201 22.08C35.4601 22.72 35.5001 23.04 36.0201 24.33C37.7501 28.57 43.6601 32.8499 43.3601 36.7099V36.7199Z" fill="#ED9DB2"/>
<path d="M43.5701 36.72C43.3301 41.21 38.6001 42.65 36.1301 44.71C35.3901 45.33 37.0501 38.7001 36.1601 33.6601C35.5301 30.0901 34.1301 26.32 34.1301 23.38C34.1301 21.47 35.3301 22.1401 36.6201 25.1801C38.4701 29.5601 43.7801 32.69 43.5701 36.73V36.72Z" fill="#50463F"/>
<path d="M78.5101 47.92C77.6401 51.88 77.52 56.55 75 57.9C73.07 50.63 66.02 44.7199 66.02 44.7199C66.02 44.7199 65.08 42.82 61.53 41.67C60.05 40.53 58.9801 39.13 58.7901 36.74C58.4901 32.87 64.4101 28.59 66.1301 24.36C66.6501 23.08 66.6901 22.75 68.2301 22.11C72.3701 20.38 73.77 27.2099 76.81 33.0799C82.76 44.5499 79.02 45.5599 78.5 47.9399L78.5101 47.92Z" fill="#ED9DB2"/>
<path d="M57.6501 70.98C58.0701 70.98 58.4901 70.95 58.4901 70.95C58.4901 70.95 58.0701 70.93 57.6601 70.88C57.4501 70.85 57.2501 70.82 57.1101 70.77C57.0401 70.75 56.8501 70.6801 56.8501 70.6801L56.8001 70.62L56.6601 70.75C57.2201 71.38 56.9401 71.93 56.6101 72.27C55.5101 73.42 52.5901 73.8999 51.1901 72.8199V69.9H51.0001V72.83C49.6001 73.9 46.7001 73.42 45.6001 72.27C45.2701 71.93 44.9901 71.38 45.5501 70.75L45.4101 70.62L45.3601 70.6801C45.3601 70.6801 45.1601 70.74 45.1001 70.77C44.9701 70.82 44.7601 70.86 44.5501 70.88C44.1401 70.93 43.7201 70.95 43.7201 70.95C43.7201 70.95 44.1401 70.98 44.5601 70.98C44.7701 70.98 44.9801 70.97 45.1501 70.92L45.2101 70.9C44.9201 71.4 45.0101 71.92 45.4701 72.4C46.1701 73.13 47.5801 73.61 48.9001 73.61C49.7401 73.61 50.5401 73.42 51.1101 72.99C51.6801 73.42 52.4801 73.61 53.3201 73.61C54.6401 73.61 56.0501 73.14 56.7501 72.4C57.2101 71.92 57.2901 71.4 57.0101 70.9L57.0701 70.92C57.2401 70.96 57.4501 70.97 57.6601 70.98H57.6501Z" fill="#333333"/>
<path d="M58.58 36.72C58.82 41.21 63.55 42.65 66.02 44.71C66.76 45.33 65.1 38.7001 65.99 33.6601C66.62 30.0901 68.02 26.32 68.02 23.38C68.02 21.47 66.82 22.1401 65.53 25.1801C63.68 29.5601 58.37 32.69 58.58 36.73V36.72Z" fill="#50463F"/>
<path d="M52.7101 75.42C52.7101 75.42 52.6701 75.46 52.6001 75.52C52.5601 75.55 52.5101 75.58 52.4601 75.62C52.4001 75.66 52.3301 75.69 52.2601 75.73C52.1801 75.76 52.1001 75.7899 52.0101 75.8199C51.9201 75.8399 51.8201 75.87 51.7201 75.89C51.6201 75.91 51.5101 75.9201 51.4001 75.9301C51.2901 75.9401 51.1801 75.9399 51.0701 75.9399C50.9601 75.9399 50.8501 75.9401 50.7401 75.9301C50.6301 75.9301 50.5301 75.91 50.4201 75.89C50.3201 75.88 50.2201 75.8499 50.1301 75.8199C50.0401 75.7899 49.9601 75.76 49.8801 75.73C49.8001 75.69 49.7301 75.67 49.6801 75.62C49.6201 75.59 49.5701 75.56 49.5401 75.52C49.4701 75.46 49.4301 75.42 49.4301 75.42C49.4301 75.42 49.4801 75.45 49.5601 75.49C49.6001 75.51 49.6601 75.53 49.7201 75.55C49.7801 75.57 49.8501 75.59 49.9301 75.61C50.0801 75.65 50.2701 75.68 50.4601 75.71C50.5601 75.72 50.6601 75.73 50.7601 75.73C50.8601 75.74 50.9701 75.73 51.0701 75.74C51.1801 75.74 51.2801 75.74 51.3901 75.73C51.4901 75.73 51.6001 75.72 51.6901 75.71C51.8901 75.69 52.0701 75.65 52.2201 75.61C52.2901 75.58 52.3701 75.57 52.4301 75.55C52.4901 75.53 52.54 75.51 52.58 75.49C52.66 75.44 52.7101 75.42 52.7101 75.42Z" fill="#333333"/>
<path d="M46.8901 73.27C47.0501 73.33 47.5201 73.45 47.5201 73.45C47.5201 73.45 47.1901 73.7 46.9901 74.09C46.7801 74.51 46.7501 74.98 46.7501 74.98C46.7501 74.98 46.4201 74.69 46.2701 74.03C46.1001 73.27 46.1801 72.95 46.1801 72.95C46.1801 72.95 46.6201 73.16 46.8801 73.27H46.8901Z" fill="white"/>
<path d="M55.2501 73.27C55.0901 73.33 54.6201 73.45 54.6201 73.45C54.6201 73.45 54.9501 73.7 55.1401 74.09C55.3501 74.51 55.3801 74.98 55.3801 74.98C55.3801 74.98 55.7101 74.69 55.8601 74.03C56.0301 73.27 55.9501 72.95 55.9501 72.95C55.9501 72.95 55.5101 73.16 55.2501 73.27Z" fill="white"/>
<path d="M53.97 67.6801C53.85 67.2701 53.7101 66.6801 52.9501 66.6801C52.1901 66.6801 51.82 67.66 51.09 67.67H51.08H51.07C50.34 67.66 49.97 66.6801 49.21 66.6801C48.45 66.6801 48.31 67.2601 48.19 67.6801C47.76 69.1801 49.43 70.5 51.02 70.5H51.16C52.76 70.5 54.43 69.1701 53.99 67.6801H53.97Z" fill="#ED7693"/>
<path d="M51.0001 69.47C50.2601 69.47 49.4601 69.09 49.0501 68.54C48.8001 68.21 48.7201 67.87 48.8201 67.52V67.48C48.9601 67.02 49.0001 67.02 49.1901 67.02C49.3201 67.02 49.5001 67.18 49.6901 67.35C50.0001 67.63 50.4301 68 51.0401 68.01H51.2401C51.7801 67.93 52.1601 67.6 52.4401 67.35C52.6301 67.18 52.8101 67.02 52.9401 67.02C53.1201 67.02 53.1601 67.02 53.3001 67.48V67.52C53.4101 67.87 53.3401 68.21 53.0901 68.54C52.6801 69.09 51.8801 69.47 51.1401 69.47H51.0001Z" fill="#EFA5B9"/>
<path d="M49.99 69.02C49.99 69.85 49.99 69.28 49.95 68.66C49.92 68.3 49.52 68.76 49.18 68.76C48.98 68.76 48.62 68.4599 48.87 68.0699C49.18 67.5999 49.98 67.66 49.99 69.02Z" fill="#EFB5D3"/>
<path d="M52.2101 68.98C52.2101 69.81 52.2101 69.24 52.2501 68.63C52.2801 68.27 52.6801 68.73 53.0201 68.73C53.2201 68.73 53.5801 68.43 53.3301 68.05C53.0201 67.58 52.2201 67.65 52.2101 68.99V68.98Z" fill="#EFB5D3"/>
<path d="M52.2101 69.18C52.2701 70.2 51.6101 70.3499 51.6101 70.3499C51.6101 70.3499 52.2501 70.2099 52.2201 68.8199C52.2201 68.4499 52.6901 68.92 53.0201 68.92C53.2201 68.92 53.5801 68.6199 53.3301 68.2299C53.0201 67.7699 52.1401 67.83 52.2101 69.18Z" fill="#333333"/>
<path d="M52.1901 69.18C52.1901 69.06 52.1801 68.9399 52.1901 68.8199C52.1901 68.7599 52.1901 68.7 52.2101 68.64C52.2101 68.58 52.2301 68.5199 52.2501 68.4599C52.2801 68.3399 52.3401 68.24 52.4201 68.13C52.5001 68.04 52.6101 67.9599 52.7401 67.9399C52.8701 67.9099 53.0001 67.93 53.1201 67.99C53.1801 68.02 53.2301 68.05 53.2801 68.1L53.3401 68.17L53.3901 68.25C53.4501 68.36 53.4801 68.5 53.4401 68.63C53.4001 68.76 53.3001 68.86 53.1901 68.92C53.1301 68.95 53.0601 68.9699 53.0001 68.9599C52.9301 68.9599 52.8701 68.94 52.8201 68.92C52.7001 68.88 52.6001 68.82 52.4901 68.77C52.4401 68.75 52.3801 68.7199 52.3301 68.7199C52.2801 68.7199 52.2601 68.73 52.2601 68.79L52.2401 69.14C52.2401 69.26 52.2201 69.38 52.1901 69.5C52.1801 69.56 52.1701 69.62 52.1501 69.67L52.0901 69.8399L52.0601 69.93L52.0101 70C51.9801 70.05 51.9501 70.11 51.9101 70.15C51.8301 70.24 51.7401 70.32 51.6201 70.35C51.7301 70.32 51.8301 70.25 51.9201 70.16C51.9601 70.12 52.0001 70.07 52.0301 70.02C52.0601 69.97 52.0901 69.92 52.1101 69.86C52.1301 69.81 52.1501 69.7499 52.1601 69.6899C52.1801 69.6399 52.1801 69.57 52.1901 69.52C52.1901 69.46 52.1901 69.4 52.2001 69.35V69.17L52.1901 69.18ZM52.2301 69.18V69.36C52.2301 69.42 52.2301 69.48 52.2101 69.54C52.2001 69.6 52.1901 69.6599 52.1701 69.7199C52.1601 69.7799 52.1401 69.83 52.1101 69.89C52.0901 69.94 52.0601 70 52.0201 70.05C51.9901 70.1 51.9501 70.1499 51.9101 70.1899C51.8201 70.2699 51.7201 70.34 51.6101 70.37C51.7201 70.33 51.8101 70.25 51.8901 70.16C51.9301 70.12 51.9501 70.06 51.9801 70.01L52.0201 69.93L52.0501 69.85L52.1101 69.68C52.1301 69.62 52.1301 69.56 52.1401 69.51C52.1601 69.39 52.1801 69.28 52.1801 69.16V68.81L52.2301 68.6999C52.2601 68.6699 52.3101 68.66 52.3401 68.67C52.4101 68.67 52.4601 68.6999 52.5201 68.7199C52.6301 68.7699 52.7301 68.83 52.8401 68.86C52.9501 68.9 53.0601 68.91 53.1501 68.86C53.2501 68.81 53.3201 68.72 53.3601 68.62C53.3901 68.52 53.3701 68.41 53.3101 68.31L53.2601 68.24L53.2001 68.18C53.2001 68.18 53.1201 68.1199 53.0701 68.0899C52.9701 68.0399 52.8601 68.02 52.7501 68.04C52.6401 68.06 52.5501 68.1199 52.4701 68.1999C52.4001 68.2899 52.3401 68.38 52.3001 68.5C52.2801 68.55 52.2601 68.61 52.2501 68.67C52.2401 68.73 52.2301 68.7799 52.2201 68.8399C52.2001 68.9599 52.2101 69.0799 52.2101 69.1899L52.2301 69.18Z" fill="#333333"/>
<path d="M49.99 69.21C49.93 70.23 50.59 70.38 50.59 70.38C50.59 70.38 49.95 70.24 49.98 68.84C49.98 68.48 49.51 68.9499 49.18 68.9499C48.98 68.9499 48.62 68.65 48.87 68.26C49.18 67.8 50.06 67.86 49.99 69.21Z" fill="#333333"/>
<path d="M49.9701 69.2099C49.9701 69.0899 49.9701 68.97 49.9601 68.86C49.9601 68.8 49.9501 68.7399 49.9301 68.6899C49.9201 68.6299 49.9101 68.57 49.8801 68.52C49.8501 68.41 49.7801 68.3099 49.7101 68.2199C49.6301 68.1399 49.5401 68.08 49.4301 68.06C49.3201 68.04 49.2101 68.06 49.1101 68.11C49.0601 68.14 49.0201 68.1699 48.9801 68.1999L48.9201 68.26L48.8701 68.3299C48.8101 68.4299 48.7901 68.53 48.8201 68.64C48.8501 68.74 48.9301 68.83 49.0301 68.88C49.1201 68.94 49.2301 68.92 49.3401 68.88C49.4501 68.84 49.5501 68.79 49.6601 68.74C49.7201 68.72 49.7701 68.69 49.8401 68.68C49.8701 68.68 49.9201 68.6799 49.9501 68.7199L49.9901 68.8199V69.18C49.9901 69.3 50.0201 69.42 50.0401 69.53C50.0501 69.59 50.0501 69.6499 50.0701 69.6999L50.1301 69.87L50.1601 69.9499L50.2001 70.03C50.2001 70.03 50.2501 70.14 50.2901 70.18C50.3601 70.27 50.4501 70.36 50.5701 70.39C50.4601 70.36 50.3501 70.2899 50.2701 70.2099C50.2301 70.1699 50.1901 70.1199 50.1501 70.0699C50.1201 70.0199 50.0901 69.97 50.0601 69.91C50.0401 69.86 50.0201 69.8 50.0001 69.74C49.9801 69.68 49.9801 69.62 49.9601 69.56C49.9601 69.5 49.9501 69.44 49.9401 69.38V69.1999L49.9701 69.2099ZM50.0001 69.2099V69.39C50.0001 69.45 50.0001 69.51 50.0001 69.56C50.0101 69.62 50.0101 69.68 50.0301 69.73C50.0401 69.79 50.0601 69.84 50.0801 69.9C50.1001 69.95 50.1301 70.01 50.1601 70.06C50.1901 70.11 50.2301 70.1599 50.2701 70.1999C50.3501 70.2899 50.4501 70.35 50.5701 70.39C50.4601 70.36 50.3601 70.2799 50.2801 70.1899C50.2301 70.1499 50.2101 70.09 50.1801 70.04L50.1301 69.9699L50.1001 69.88L50.0401 69.7099C50.0201 69.6499 50.0201 69.59 50.0001 69.53C49.9801 69.41 49.9501 69.29 49.9501 69.18L49.9301 68.8299C49.9301 68.7699 49.9101 68.75 49.8601 68.76C49.8101 68.76 49.7601 68.79 49.7001 68.81C49.5901 68.86 49.4901 68.9199 49.3701 68.9599C49.2601 68.9999 49.1101 69.0299 48.9901 68.9599C48.8701 68.8999 48.7801 68.8 48.7401 68.68C48.7001 68.55 48.7201 68.41 48.7901 68.3L48.8401 68.2199L48.9001 68.15C48.9001 68.15 49.0001 68.07 49.0601 68.04C49.1701 67.98 49.3101 67.96 49.4401 67.99C49.5701 68.02 49.6801 68.09 49.7601 68.18C49.8401 68.28 49.9001 68.39 49.9301 68.51C49.9501 68.57 49.9601 68.6299 49.9701 68.6899C49.9801 68.7499 49.9901 68.81 49.9901 68.87C50.0001 68.99 49.9901 69.11 49.9901 69.23L50.0001 69.2099Z" fill="#333333"/>
</svg>
