<svg width="101" height="102" viewBox="0 0 101 102" fill="none" xmlns="http://www.w3.org/2000/svg">
<path d="M92.28 0.650024H8.69C3.90169 0.650024 0.0200195 4.53173 0.0200195 9.32004V92.91C0.0200195 97.6983 3.90169 101.58 8.69 101.58H92.28C97.0683 101.58 100.95 97.6983 100.95 92.91V9.32004C100.95 4.53173 97.0683 0.650024 92.28 0.650024Z" fill="#94A4A5"/>
<path d="M32.2299 85.4501C32.1499 85.4501 32.0599 85.4501 31.9799 85.4201C31.4599 85.3101 31.0699 84.8901 30.9999 84.3601L29.6299 73.9801C28.0699 78.7001 27.8599 82.0801 27.8599 82.1201C27.8299 82.6801 27.4299 83.1501 26.8799 83.2701C26.7899 83.2901 26.6999 83.3001 26.6099 83.3001C26.1599 83.3001 25.7299 83.0501 25.5099 82.6401C25.3599 82.3601 23.0999 78.0501 22.1399 72.5901C21.9099 73.8901 21.8499 74.6401 21.8499 74.6601C21.7999 75.2501 21.3599 75.7201 20.7699 75.8001C20.7099 75.8001 20.6599 75.8101 20.5999 75.8101C20.0799 75.8101 19.6099 75.4901 19.4299 74.9901C19.2899 74.6001 16.4599 66.6101 18.2399 58.9601C17.0699 60.3601 16.4199 61.2801 16.3999 61.3001C16.1599 61.6401 15.7799 61.8301 15.3799 61.8301C15.2699 61.8301 15.1599 61.8101 15.0399 61.7801C14.5299 61.6401 14.1699 61.1901 14.1299 60.6701C14.0999 60.2901 13.6299 53.2101 16.1699 47.6901C14.1499 48.7201 12.8899 49.5101 12.8699 49.5201C12.6699 49.6501 12.4399 49.7101 12.2099 49.7101C11.9099 49.7101 11.6099 49.6001 11.3699 49.3901C10.9599 49.0201 10.8399 48.4101 11.0899 47.9101C11.2299 47.6301 14.5599 40.9701 19.9999 37.8101C21.2899 37.0601 22.6199 36.4801 23.9199 36.1101C21.7099 35.5401 19.7899 35.4301 18.6699 35.4301C18.1199 35.4301 17.7999 35.4601 17.7899 35.4601C17.7499 35.4601 17.7199 35.4601 17.6799 35.4601C17.1399 35.4601 16.6599 35.1101 16.4899 34.5901C16.3099 34.0401 16.5399 33.4301 17.0399 33.1401C17.1899 33.0501 20.6399 31.0301 24.6199 30.9801C23.2399 30.0501 22.3399 29.5301 22.3199 29.5201C21.8799 29.2701 21.6299 28.7801 21.6899 28.2701C21.7599 27.7701 22.1199 27.3501 22.6099 27.2201C22.6899 27.2001 24.5199 26.7301 26.9099 26.7301C28.8999 26.7301 30.7099 27.0601 32.2599 27.7101L31.6299 22.4201C31.5599 21.8701 31.8699 21.3401 32.3899 21.1201C32.5499 21.0501 32.7099 21.0201 32.8699 21.0201C33.2399 21.0201 33.5999 21.1901 33.8499 21.4901L36.4399 24.7201C37.3099 20.3601 39.9899 17.0001 40.1299 16.8301C40.3699 16.5301 40.7299 16.3701 41.0999 16.3701C41.2499 16.3701 41.3999 16.4001 41.5499 16.4501C42.0599 16.6501 42.3799 17.1501 42.3499 17.6901C42.3499 17.7201 42.2399 19.6401 42.3399 22.4601C45.1899 18.1401 50.3399 16.5001 50.5899 16.4201C50.7099 16.3801 50.8399 16.3601 50.9599 16.3601C51.3499 16.3601 51.7199 16.5401 51.9599 16.8601C52.2799 17.2801 52.2899 17.8601 51.9999 18.3001C51.9999 18.3101 51.7699 18.6501 51.3999 19.2601C56.3599 15.4701 62.2399 14.8301 65.6399 14.8301C67.4299 14.8301 68.5899 15.0101 68.6399 15.0101C69.1799 15.0901 69.5999 15.5201 69.6799 16.0601C69.7599 16.6001 69.4799 17.1301 68.9899 17.3701C68.9499 17.3901 66.4399 18.6301 63.5799 21.1401C63.9899 21.0301 64.4099 20.9401 64.8199 20.8701C65.3399 20.7801 65.8799 20.7401 66.4299 20.7401C72.6299 20.7401 78.0699 26.5201 78.2999 26.7701C78.6499 27.1501 78.7299 27.7001 78.5099 28.1601C78.2999 28.5901 77.8599 28.8701 77.3899 28.8701C77.3599 28.8701 77.3299 28.8701 77.2899 28.8701C77.2899 28.8701 76.3299 28.8001 74.7899 28.8001C74.5699 28.8001 74.3399 28.8001 74.0899 28.8001C80.1899 32.0901 84.2299 38.6301 84.4399 38.9701C84.7199 39.4401 84.6699 40.0401 84.3099 40.4501C84.0699 40.7201 83.7199 40.8701 83.3699 40.8701C83.1999 40.8701 83.0199 40.8301 82.8599 40.7601C82.8599 40.7601 82.7899 40.7301 82.6699 40.6801C85.3899 43.6701 86.7399 47.2301 86.8199 47.4501C87.0099 47.9501 86.8499 48.5201 86.4399 48.8501C86.2099 49.0401 85.9299 49.1301 85.6499 49.1301C85.4199 49.1301 85.1899 49.0701 84.9899 48.9401C84.9899 48.9401 84.8299 48.8401 84.5499 48.6801C87.1499 54.2101 86.6799 61.3901 86.6499 61.7701C86.6099 62.3001 86.2499 62.7401 85.7399 62.8801C85.6299 62.9101 85.5199 62.9301 85.3999 62.9301C84.9999 62.9301 84.6199 62.7401 84.3799 62.4001C84.3699 62.3801 83.7099 61.4601 82.5399 60.0601C84.3199 67.7101 81.4899 75.7101 81.3499 76.0901C81.1699 76.5901 80.6999 76.9101 80.1799 76.9101C80.1199 76.9101 80.0699 76.9101 80.0099 76.9001C79.4299 76.8201 78.9799 76.3401 78.9299 75.7601C78.9299 75.7401 78.8699 74.9901 78.6399 73.7001C77.6699 79.1501 75.4099 83.4701 75.2699 83.7401C75.0499 84.1501 74.6199 84.4001 74.1699 84.4001C74.0799 84.4001 73.9899 84.4001 73.8999 84.3701C73.3499 84.2501 72.9499 83.7801 72.9199 83.2201C72.9199 83.1701 72.6599 79.0401 70.6099 73.5301L70.9599 82.6501C70.9799 83.1801 70.6699 83.6601 70.1799 83.8601C70.0299 83.9201 69.8699 83.9501 69.7199 83.9501C69.3699 83.9501 69.0299 83.8001 68.7799 83.5301L62.3899 76.2901L63.6899 81.7401C63.8299 82.3101 63.5499 82.8901 63.0299 83.1501C62.8499 83.2401 62.6599 83.2801 62.4799 83.2801C62.1199 83.2801 61.7599 83.1201 61.5099 82.8201L59.4899 80.3701C59.4899 80.3701 59.4599 80.3701 59.4499 80.3701C59.3099 80.3701 59.1599 80.3501 59.0299 80.3001C59.0299 80.3001 57.9399 79.9101 56.8499 79.5001C56.2999 79.3001 55.7499 79.0901 55.3399 78.9301C54.8599 78.7401 54.3499 78.5401 54.0699 78.1701C53.3899 77.5501 52.7999 76.8901 52.3399 76.2401C51.9599 76.2701 51.5899 76.2901 51.2399 76.3001H50.9399C50.4099 76.3001 49.8399 76.2701 49.2499 76.2001C48.7499 77.0101 48.0199 77.8601 47.1499 78.6301C47.0099 78.7568 45.4032 79.4334 42.3299 80.6601C42.1799 80.7201 42.0199 80.7501 41.8699 80.7501C41.7799 80.7501 41.6899 80.7501 41.5999 80.7201L40.2799 82.9401C40.0499 83.3301 39.6399 83.5501 39.2099 83.5501C39.0799 83.5501 38.9499 83.5301 38.8299 83.4901C38.2699 83.3101 37.9199 82.7701 37.9699 82.1901L38.5099 76.2001L33.2999 84.8701C33.0699 85.2501 32.6599 85.4801 32.2299 85.4801V85.4501Z" fill="#2F150C"/>
<path d="M15.3798 60.5801C15.3798 60.5801 18.0598 56.7902 22.3698 52.7602C21.7198 53.7302 21.1297 54.7701 20.6097 55.8601C16.7797 64.0001 20.5997 74.5702 20.5997 74.5702C20.5997 74.5702 20.9698 69.6302 23.5698 63.0102C21.1398 71.7802 26.6097 82.0602 26.6097 82.0602C26.6097 82.0602 26.9297 76.2402 30.2297 69.0302L30.9498 74.5102L32.2297 84.2002L37.1298 76.0302L39.7997 71.5801C39.9197 71.6401 40.0398 71.7101 40.1498 71.7701L40.0497 72.8902L39.1998 82.2602L42.9297 75.9602C42.8497 76.3102 42.7998 76.6502 42.7698 76.9902C42.0498 78.2702 41.8597 79.4602 41.8597 79.4602C41.8597 79.4602 46.2498 77.7102 46.3098 77.6502C47.3998 76.6702 48.1997 75.6202 48.5497 74.7902C49.3997 74.9302 50.1997 75.0102 50.9297 75.0102C51.0197 75.0102 51.1098 75.0102 51.2098 75.0102C51.7798 75.0002 52.3697 74.9502 52.9697 74.8802C53.3897 75.6202 54.0897 76.4802 54.9897 77.2802C55.0497 77.3302 55.1197 77.3902 55.1797 77.4402C54.5197 77.3102 59.4398 79.0801 59.4398 79.0801C59.4398 79.0801 59.3598 78.6002 59.1198 77.9202L62.4598 81.9902L60.2897 72.9102C60.4897 72.8402 60.6998 72.7702 60.8998 72.7002L63.5098 75.6502L69.7098 82.6702L69.3298 72.8802L69.1398 68.0602C69.2298 67.9802 69.3098 67.8902 69.3898 67.8102C69.5698 68.1202 69.7398 68.4302 69.8998 68.7602C73.7998 76.5702 74.1597 83.1202 74.1597 83.1202C74.1597 83.1202 79.6298 72.8402 77.1998 64.0702C79.7998 70.7002 80.1697 75.6302 80.1697 75.6302C80.1697 75.6302 83.9897 65.0702 80.1697 56.9202C79.6497 55.8202 79.0597 54.7902 78.4197 53.8202C82.7197 57.8502 85.4097 61.6402 85.4097 61.6402C85.4097 61.6402 86.2398 50.1102 80.6898 45.4502C80.3798 45.1902 80.0698 44.9601 79.7498 44.7401C83.2898 46.3601 85.6597 47.8402 85.6597 47.8402C85.6597 47.8402 82.8697 40.3401 77.2397 38.2701C76.5497 38.0201 75.8698 37.8202 75.1898 37.6902C80.2198 38.1702 83.3798 39.5902 83.3798 39.5902C83.3798 39.5902 77.3498 29.7002 69.1298 28.3202C68.3598 28.1902 67.5898 28.1201 66.8298 28.1101C72.6598 27.2301 77.3998 27.6002 77.3998 27.6002C77.3998 27.6002 71.2897 21.0202 65.0497 22.0902C62.1597 22.5802 59.6697 24.0402 57.8597 25.7302C62.1597 19.2902 68.4498 16.2401 68.4498 16.2401C68.4498 16.2401 56.7398 14.4202 49.5198 22.7302C47.4698 25.1002 46.0898 28.0002 45.3098 30.8502C45.3798 29.5302 45.5898 28.0902 46.2098 26.6202C48.4298 21.4202 50.9697 17.6002 50.9697 17.6002C50.9697 17.6002 44.7597 19.5202 42.5397 24.7202C42.0697 25.8202 41.7398 26.9702 41.5298 28.1002V28.0302C40.8398 22.3402 41.1198 17.6002 41.1198 17.6002C41.1198 17.6002 37.1598 22.5102 37.4498 27.9402L32.8998 22.2502L33.8298 30.0102C29.6198 26.6702 22.9598 28.4102 22.9598 28.4102C22.9598 28.4102 26.9798 30.6702 31.1498 34.5002C31.2698 34.6102 31.3898 34.7201 31.4998 34.8301C30.5298 34.0501 29.4397 33.3601 28.2397 32.8601C23.3797 30.8101 17.6998 34.1802 17.6998 34.1802C17.6998 34.1802 22.2397 33.7801 27.0997 35.8301C27.9997 36.2101 28.6598 36.4901 29.3298 37.0501C27.0498 36.3701 23.7498 37.0501 20.6398 38.8601C15.4598 41.8701 12.2197 48.4402 12.2197 48.4402C12.2197 48.4402 15.3898 46.4501 19.8698 44.5801C14.5798 49.3601 15.3898 60.5602 15.3898 60.5602L15.3798 60.5801Z" fill="#2F150C"/>
<path d="M80.6799 45.4801C80.3699 45.2201 80.0599 44.9901 79.7399 44.7701C83.2799 46.3901 85.65 47.8701 85.65 47.8701C85.65 47.8701 82.8599 40.3701 77.2299 38.3001C76.5399 38.0501 75.8599 37.8501 75.1799 37.7201C80.2099 38.2001 83.3699 39.6201 83.3699 39.6201C83.3699 39.6201 77.3399 29.7301 69.1199 28.3501C68.3499 28.2201 67.5799 28.1501 66.8199 28.1401C72.6499 27.2601 77.39 27.6301 77.39 27.6301C77.39 27.6301 71.2799 21.0501 65.0399 22.1201C62.1499 22.6101 59.6599 24.0701 57.8499 25.7601C62.1499 19.3201 68.4399 16.2701 68.4399 16.2701C68.4399 16.2701 56.7199 14.4501 49.5099 22.7601C47.4599 25.1301 46.0799 28.0301 45.2999 30.8801C45.3699 29.5601 45.58 28.1201 46.2 26.6501C48.42 21.4501 50.96 17.6301 50.96 17.6301C50.96 17.6301 44.75 19.5501 42.53 24.7501C42.06 25.8501 41.73 27.0001 41.52 28.1301V28.0601C40.83 22.3701 41.1099 17.6301 41.1099 17.6301C41.1099 17.6301 37.1499 22.5401 37.4399 27.9701L32.89 22.2801L33.8199 30.0401C29.6099 26.7001 22.95 28.4401 22.95 28.4401C22.95 28.4401 26.97 30.7001 31.14 34.5301C31.26 34.6401 31.3799 34.7501 31.4899 34.8601C30.5199 34.0801 29.4299 33.3901 28.2299 32.8901C23.3699 30.8401 17.6899 34.2101 17.6899 34.2101C17.6899 34.2101 22.23 33.8101 27.09 35.8601C27.99 36.2401 28.6499 36.5201 29.3199 37.0801C27.0399 36.4001 23.7399 37.0801 20.6299 38.8901C15.4499 41.9001 12.21 48.4701 12.21 48.4701C12.21 48.4701 15.3799 46.4801 19.8599 44.6101C14.5699 49.3901 15.3799 60.5901 15.3799 60.5901C15.3799 60.5901 18.0599 56.8001 22.3699 52.7701C21.7199 53.7401 21.1299 54.7801 20.6099 55.8701C16.7799 64.0101 20.5999 74.5801 20.5999 74.5801C20.5999 74.5801 20.9699 69.6401 23.5699 63.0201C21.1399 71.7901 26.6099 82.0701 26.6099 82.0701C26.6099 82.0701 26.9299 76.2501 30.2299 69.0401L30.95 74.5201L32.2299 84.2101L37.1299 76.0401L40.02 71.2201C40.08 71.2301 40.14 71.2401 40.2 71.2501L40.0499 72.9101L39.2 82.2801L42.9299 75.9801C42.8499 76.3301 42.8 76.6701 42.77 77.0101C42.05 78.2901 41.8599 79.4801 41.8599 79.4801C41.8599 79.4801 46.2499 77.7301 46.3099 77.6701C47.5399 76.5701 48.3999 75.3801 48.6699 74.5101C49.4199 74.7101 50.2799 74.8301 51.2999 74.8301C51.6399 74.8301 52.1199 74.6801 52.7599 74.4701C53.1199 75.3001 53.9199 76.3401 54.9899 77.3001C55.0499 77.3501 55.1199 77.4101 55.1799 77.4601C54.5199 77.3301 59.4399 79.1001 59.4399 79.1001C59.4399 79.1001 59.3599 78.6201 59.1199 77.9401L62.46 82.0101L60.2899 72.9301C60.4899 72.8601 60.7 72.7901 60.9 72.7201L63.5099 75.6701L69.71 82.6901L69.33 72.9001L69.14 68.0801C69.23 68.0001 69.31 67.9101 69.39 67.8301C69.57 68.1401 69.74 68.4501 69.9 68.7801C73.8 76.5901 74.1599 83.1401 74.1599 83.1401C74.1599 83.1401 79.63 72.8601 77.2 64.0901C79.8 70.7201 80.1699 75.6501 80.1699 75.6501C80.1699 75.6501 83.9899 65.0901 80.1699 56.9401C79.6499 55.8401 79.0599 54.8101 78.4199 53.8401C82.7199 57.8701 85.4099 61.6601 85.4099 61.6601C85.4099 61.6601 86.2399 50.1301 80.6899 45.4701" fill="#0D0D0D"/>
<path d="M73.2599 57.2401C73.2599 57.5501 73.2498 57.8501 73.2198 58.1601C73.2198 58.2701 73.1999 58.3801 73.1899 58.5001C72.1199 67.6401 59.6599 74.8801 51.2299 75.0301C51.1399 75.0301 51.0499 75.0301 50.9499 75.0301C43.6999 75.0301 29.9399 67.7601 28.7299 58.5401C28.6699 58.1101 28.6399 57.6801 28.6399 57.2401C28.6399 48.5701 35.8399 38.6701 35.8399 38.6701C35.8399 38.6701 43.1199 34.4601 50.9499 34.4601C58.3099 34.4601 66.0499 38.6701 66.0499 38.6701C66.0499 38.6701 73.2499 48.5701 73.2499 57.2401" fill="#A59071"/>
<path d="M50.95 74.8501C47.63 74.8501 42.69 72.8901 38.64 69.9701C33.99 66.6201 31.06 62.4601 30.59 58.5601C30.54 58.1801 30.52 57.7801 30.52 57.3901C30.52 49.5801 35.97 40.4801 37.16 38.5801C38.64 37.7201 44.68 34.4701 50.96 34.4701C56.88 34.4701 63.19 37.7301 64.77 38.6001C65.98 40.5301 71.4 49.6001 71.4 57.3901C71.4 57.6701 71.4 57.9601 71.37 58.2401C71.37 58.3401 71.35 58.4501 71.34 58.5501C70.37 67.6401 58.45 74.7101 51.21 74.8501H51.24H50.96" fill="#C9B188"/>
<path d="M32.8098 54.0601C32.8098 54.0601 37.1198 62.9701 40.8098 62.9701C43.6398 62.9701 47.1698 61.5201 47.1698 61.5201C47.1698 61.5201 48.6698 46.6701 40.4798 46.2001C36.7898 45.9901 32.7998 54.0601 32.7998 54.0601" fill="#A59071"/>
<path d="M69.1599 54.0601C69.1599 54.0601 64.85 62.9701 61.15 62.9701C58.32 62.9701 54.7899 61.5201 54.7899 61.5201C54.7899 61.5201 53.2899 46.6701 61.4799 46.2001C65.1699 45.9901 69.1599 54.0601 69.1599 54.0601Z" fill="#A59071"/>
<path d="M36.8 48.1601C36.8 48.1601 36.81 48.1201 36.84 48.0601C36.87 48.0001 36.92 47.9001 36.99 47.8001C37.06 47.6901 37.16 47.5601 37.27 47.4201C37.39 47.2901 37.53 47.1201 37.7 46.9801C37.78 46.9101 37.87 46.8301 37.97 46.7501C38.07 46.6801 38.18 46.6101 38.29 46.5401C38.4 46.4601 38.52 46.4101 38.64 46.3401C38.76 46.2801 38.89 46.2101 39.03 46.1601C39.3 46.0601 39.59 45.9601 39.9 45.9201C40.21 45.8501 40.52 45.8501 40.84 45.8501C41.16 45.8501 41.47 45.9301 41.77 45.9801C42.06 46.0701 42.35 46.1701 42.62 46.2801C42.88 46.4201 43.11 46.5601 43.33 46.6901C43.54 46.8401 43.72 47.0101 43.89 47.1501C43.97 47.2301 44.05 47.3001 44.12 47.3701C44.19 47.4401 44.24 47.5201 44.3 47.5901C44.42 47.7301 44.51 47.8601 44.58 47.9601C44.73 48.1701 44.8 48.3001 44.8 48.3001C44.8 48.3001 44.65 48.2501 44.42 48.1601C44.3 48.1101 44.16 48.0501 44.01 47.9801C43.86 47.9001 43.68 47.8401 43.49 47.7701C43.3 47.7001 43.1 47.6101 42.89 47.5301C42.67 47.4701 42.45 47.4001 42.23 47.3201C42 47.2701 41.76 47.2301 41.52 47.1701C41.4 47.1601 41.28 47.1501 41.15 47.1301C41.03 47.1201 40.91 47.0901 40.78 47.1001C40.54 47.1001 40.29 47.0801 40.05 47.1201C39.93 47.1401 39.81 47.1201 39.69 47.1601C39.57 47.1801 39.46 47.2001 39.34 47.2201C39.22 47.2301 39.11 47.2801 39 47.3001C38.89 47.3301 38.78 47.3501 38.67 47.3901C38.45 47.4601 38.25 47.5201 38.06 47.5901C37.87 47.6501 37.7 47.7301 37.54 47.7901C37.39 47.8601 37.24 47.9201 37.13 47.9701C37.02 48.0201 36.93 48.0701 36.87 48.1001C36.81 48.1301 36.77 48.1501 36.77 48.1501L36.8 48.1601Z" fill="#0D0D0D"/>
<path d="M65.02 48.1601C65.02 48.1601 64.99 48.1401 64.92 48.1101C64.86 48.0801 64.77 48.0401 64.66 47.9801C64.55 47.9201 64.4 47.8701 64.26 47.8001C64.1 47.7401 63.93 47.6601 63.74 47.6001C63.56 47.5201 63.35 47.4601 63.13 47.4001C63.03 47.3601 62.91 47.3401 62.8 47.3101C62.69 47.2901 62.58 47.2401 62.46 47.2301C62.34 47.2101 62.23 47.1901 62.11 47.1701C61.99 47.1401 61.87 47.1501 61.75 47.1301C61.51 47.1001 61.27 47.1101 61.02 47.1101C60.9 47.1001 60.78 47.1301 60.65 47.1401C60.53 47.1601 60.41 47.1601 60.28 47.1801C60.05 47.2401 59.81 47.2801 59.57 47.3301C59.35 47.4101 59.12 47.4801 58.91 47.5401C58.69 47.6201 58.5 47.7101 58.31 47.7801C58.12 47.8501 57.94 47.9101 57.79 47.9901C57.64 48.0601 57.5 48.1201 57.38 48.1701C57.15 48.2701 57 48.3101 57 48.3101C57 48.3101 57.07 48.1801 57.22 47.9701C57.29 47.8701 57.39 47.7401 57.5 47.6001C57.56 47.5301 57.62 47.4501 57.68 47.3801C57.75 47.3101 57.83 47.2401 57.91 47.1601C58.08 47.0101 58.26 46.8501 58.47 46.7001C58.69 46.5701 58.93 46.4301 59.18 46.2901C59.45 46.1801 59.73 46.0801 60.03 45.9901C60.33 45.9401 60.64 45.8701 60.96 45.8601C61.28 45.8601 61.59 45.8601 61.9 45.9301C62.21 45.9701 62.5 46.0701 62.77 46.1701C62.91 46.2201 63.04 46.2901 63.16 46.3501C63.28 46.4101 63.41 46.4701 63.51 46.5501C63.62 46.6201 63.73 46.6901 63.83 46.7601C63.93 46.8301 64.02 46.9101 64.1 46.9901C64.27 47.1301 64.41 47.3001 64.53 47.4301C64.65 47.5701 64.74 47.7001 64.81 47.8101C64.88 47.9201 64.93 48.0101 64.96 48.0701C64.99 48.1301 65 48.1701 65 48.1701L65.02 48.1601Z" fill="#0D0D0D"/>
<path d="M47.1799 61.5301C40.3799 64.7701 35.5899 62.6701 33.4299 54.2701C33.4299 54.2701 41.61 47.9201 45.96 56.0601C46.63 57.3201 47.1799 61.5201 47.1799 61.5201" fill="white"/>
<path d="M40.6 62.06C38.71 62.02 37.13 60.52 36.52 58.44C36.33 57.81 36.24 57.11 36.25 56.4C36.31 53.51 38.11 52.48 40.37 52.41C40.51 52.41 40.65 52.41 40.79 52.41C43.26 52.46 45.13 55.02 45.17 56.6C45.25 59.67 43.05 62.12 40.59 62.07" fill="#F8951D"/>
<path d="M40.6199 61.28C39.1899 61.25 37.9299 60.02 37.4199 58.16C37.2499 57.57 37.1799 56.94 37.1899 56.3C37.2299 54.14 38.2499 53.11 40.4099 53.04C40.5199 53.04 40.6299 53.04 40.7299 53.04H40.7899C42.7299 53.08 44.2099 55.35 44.2399 56.51C44.2799 57.92 43.8099 59.25 42.9499 60.18C42.2899 60.89 41.4899 61.28 40.6699 61.28H40.6099" fill="#3D2E14"/>
<path d="M54.77 61.5301C61.57 64.7701 66.36 62.6701 68.52 54.2701C68.52 54.2701 60.34 47.9201 55.99 56.0601C55.32 57.3201 54.77 61.5201 54.77 61.5201" fill="white"/>
<path d="M61.3399 62.06C63.2299 62.02 64.8099 60.52 65.4199 58.44C65.6099 57.81 65.6999 57.11 65.6899 56.4C65.6299 53.51 63.8299 52.48 61.5699 52.41C61.4299 52.41 61.2899 52.41 61.1499 52.41C58.6799 52.46 56.8099 55.02 56.7699 56.6C56.6899 59.67 58.8899 62.12 61.3499 62.07" fill="#F8951D"/>
<path d="M61.2701 61.28C60.4501 61.28 59.6401 60.89 58.9901 60.17C58.1401 59.24 57.6701 57.9 57.7001 56.5C57.7301 55.34 59.21 53.07 61.16 53.03H61.2101C61.3201 53.03 61.4301 53.03 61.5301 53.03C63.6801 53.1 64.7001 54.13 64.7501 56.29C64.7701 56.93 64.6901 57.56 64.5201 58.15C64.0101 60.02 62.7501 61.24 61.3201 61.27H61.2701" fill="#3D2E14"/>
<path d="M40.9 55.25C40.86 57.11 39.62 58.6 38.12 58.56C37.44 58.55 36.84 58.22 36.37 57.7C36.2 57.15 36.12 56.54 36.14 55.91C36.19 53.37 37.77 52.47 39.75 52.41C40.46 53.03 40.92 54.07 40.9 55.24" fill="white"/>
<path d="M43.2499 60.6301C43.2399 61.2601 42.8199 61.7601 42.3099 61.7501C41.7999 61.7501 41.3999 61.2201 41.4199 60.5901C41.4299 59.9601 41.8499 59.4601 42.3599 59.4701C42.8699 59.4801 43.2699 60.0001 43.2499 60.6301Z" fill="white"/>
<path d="M61.2198 55.5301C61.1798 57.3901 59.9398 58.8801 58.4398 58.8501C57.7698 58.8401 57.1598 58.5101 56.6998 57.9901C56.5298 57.4401 56.4498 56.8301 56.4698 56.2001C56.5198 53.6601 58.0999 52.7601 60.0799 52.7001C60.7899 53.3201 61.2498 54.3601 61.2198 55.5301Z" fill="white"/>
<path d="M63.7499 60.6301C63.7399 61.2601 63.3199 61.7601 62.8099 61.7501C62.2999 61.7501 61.8999 61.2201 61.9199 60.5901C61.9299 59.9601 62.3499 59.4601 62.8599 59.4701C63.3699 59.4801 63.7699 60.0001 63.7499 60.6301Z" fill="white"/>
<path d="M45.95 62.06C46.35 61.9 46.7599 61.72 47.1699 61.53C46.7499 61.73 46.35 61.91 45.95 62.06Z" fill="#B9A482"/>
<path d="M47.1799 61.53C47.1799 61.53 46.63 57.33 45.96 56.07C46.62 57.32 47.1599 61.41 47.1799 61.53ZM33.8199 55.65C33.6799 55.21 33.5499 54.75 33.4199 54.27C33.5399 54.75 33.6799 55.21 33.8199 55.65Z" fill="#9C896E"/>
<path d="M45.95 62.06C45.73 60.86 45.43 59.52 45.09 58.89C45.03 58.78 44.9699 58.66 44.9099 58.55C45.0999 57.94 45.1999 57.28 45.1799 56.58C45.1399 55.01 43.2699 52.45 40.7999 52.39C40.7799 52.39 40.7499 52.39 40.7299 52.39C40.6099 52.39 40.4899 52.39 40.3699 52.39C40.1699 52.39 39.97 52.41 39.78 52.43C39.78 52.42 39.7599 52.41 39.7499 52.4C37.9599 52.45 36.4999 53.19 36.1899 55.2C35.3499 55.48 34.5999 55.84 33.9999 56.17C33.9399 56 33.8799 55.82 33.8199 55.64C33.6799 55.2 33.5499 54.74 33.4199 54.26C33.4199 54.26 33.8399 53.93 34.5499 53.52C35.5699 52.92 37.1899 52.15 38.9699 51.95C39.2399 51.92 39.5299 51.9 39.8099 51.9C41.9599 51.9 44.2499 52.87 45.9399 56.05C46.6099 57.31 47.1599 61.51 47.1599 61.51C46.7399 61.71 46.3399 61.89 45.9399 62.04" fill="#E2E1E1"/>
<path d="M44.91 58.56C44.68 58.16 44.4401 57.79 44.1901 57.47C44.2301 57.16 44.2501 56.83 44.2401 56.51C44.2101 55.35 42.73 53.08 40.79 53.04H40.73C40.62 53.04 40.51 53.04 40.41 53.04C40.37 53.04 40.34 53.04 40.3 53.04C40.15 52.82 39.98 52.62 39.79 52.45C39.98 52.43 40.1801 52.42 40.3801 52.41C40.5001 52.41 40.6201 52.41 40.7401 52.41C40.7601 52.41 40.7901 52.41 40.8101 52.41C43.2801 52.46 45.1501 55.02 45.1901 56.6C45.2101 57.29 45.11 57.96 44.92 58.57" fill="#E08B2A"/>
<path d="M44.1898 57.46C43.1898 56.14 42.0498 55.39 40.8998 55.03C40.8798 54.28 40.6598 53.59 40.2998 53.04C40.3398 53.04 40.3698 53.04 40.4098 53.04C40.5198 53.04 40.6298 53.04 40.7298 53.04H40.7898C42.7298 53.08 44.2098 55.35 44.2398 56.51C44.2398 56.84 44.2398 57.16 44.1898 57.47" fill="#41321C"/>
<path d="M36.2 55.22C36.51 53.22 37.9599 52.48 39.7599 52.42C39.7699 52.43 39.7799 52.44 39.7899 52.45C39.9799 52.62 40.1499 52.82 40.2999 53.04C40.6599 53.59 40.88 54.28 40.9 55.03C40.26 54.83 39.6 54.74 38.96 54.74C37.99 54.74 37.05 54.94 36.2 55.22Z" fill="#E2E1E1"/>
<path d="M55.99 62.0601C55.59 61.9001 55.18 61.7301 54.77 61.5301C54.77 61.5301 54.77 61.4901 54.79 61.4301C54.79 61.5001 54.77 61.5301 54.77 61.5301C55.19 61.7301 55.59 61.9101 55.99 62.0601Z" fill="#B9A482"/>
<path d="M54.78 61.43C54.87 60.77 55.38 57.22 55.98 56.07C56.19 55.68 56.4 55.33 56.62 55.01C56.4 55.34 56.18 55.69 55.98 56.07C55.37 57.22 54.86 60.78 54.78 61.43Z" fill="#9C896E"/>
<path d="M55.99 62.06C55.59 61.9 55.18 61.72 54.77 61.53C54.77 61.53 54.77 61.49 54.79 61.43C54.88 60.78 55.39 57.22 55.99 56.07C56.2 55.69 56.41 55.33 56.63 55.01C56.53 55.36 56.47 55.76 56.46 56.21C56.44 56.84 56.53 57.44 56.69 58C56.77 58.09 56.85 58.17 56.93 58.24C56.96 58.35 56.99 58.46 57.02 58.57C56.96 58.68 56.9 58.79 56.83 58.91C56.5 59.53 56.2 60.88 55.97 62.08" fill="#E2E1E1"/>
<path d="M57.03 58.5601C57 58.4501 56.9599 58.3401 56.9399 58.2301C56.9999 58.2901 57.0699 58.3401 57.1299 58.3901C57.0999 58.4501 57.06 58.5001 57.03 58.5601Z" fill="#E08B2A"/>
<path d="M68.14 55.6C68.27 55.18 68.4 54.74 68.52 54.27C68.4 54.73 68.28 55.17 68.14 55.6ZM58.6899 52.91C59.7999 52.18 60.9699 51.91 62.1099 51.91C62.3899 51.91 62.67 51.93 62.95 51.96C62.68 51.93 62.3899 51.91 62.1099 51.91C60.9699 51.91 59.7899 52.18 58.6899 52.91Z" fill="#9C896E"/>
<path d="M67.9399 56.18C67.2899 55.82 66.46 55.43 65.53 55.15C65.04 53.2 63.4699 52.47 61.5699 52.41C61.4499 52.41 61.33 52.41 61.21 52.41C61.19 52.41 61.16 52.41 61.14 52.41C60.64 52.42 60.16 52.54 59.71 52.73C59.35 52.76 59.01 52.82 58.7 52.92C59.81 52.19 60.9799 51.92 62.1199 51.92C62.3999 51.92 62.68 51.94 62.96 51.97C64.74 52.17 66.3599 52.94 67.3799 53.54C68.0899 53.95 68.5099 54.28 68.5099 54.28C68.3899 54.74 68.2599 55.18 68.1299 55.61C68.0599 55.81 67.9999 56.01 67.9299 56.2" fill="#E2E1E1"/>
<path d="M65.53 55.15C65.21 55.05 64.88 54.97 64.54 54.9C64.13 53.69 63.16 53.09 61.54 53.04C61.43 53.04 61.32 53.04 61.22 53.04H61.17C60.94 53.04 60.71 53.08 60.5 53.14C60.38 52.98 60.24 52.83 60.09 52.71C59.97 52.71 59.84 52.72 59.72 52.73C60.16 52.54 60.64 52.42 61.15 52.41C61.17 52.41 61.2 52.41 61.22 52.41C61.34 52.41 61.46 52.41 61.58 52.41C63.48 52.47 65.05 53.2 65.54 55.15" fill="#E08B2A"/>
<path d="M61.2 54.98C61.12 54.27 60.87 53.63 60.49 53.13C60.71 53.07 60.93 53.03 61.16 53.03H61.21C61.32 53.03 61.43 53.03 61.53 53.03C63.15 53.08 64.13 53.68 64.53 54.89C64.02 54.79 63.5 54.73 62.97 54.73C62.38 54.73 61.78 54.8 61.19 54.97" fill="#41321C"/>
<path d="M57.1298 58.3801C57.0598 58.3301 56.9998 58.2801 56.9398 58.2201C56.8598 58.1501 56.7698 58.0701 56.6998 57.9801C56.5298 57.4301 56.4498 56.8201 56.4698 56.1901C56.4698 55.7401 56.5398 55.3401 56.6398 54.9901C57.2798 54.0601 57.9798 53.3801 58.6998 52.9001C59.0198 52.8001 59.3599 52.7401 59.7099 52.7101C59.8299 52.7001 59.9499 52.6901 60.0799 52.6901C60.2299 52.8201 60.3598 52.9601 60.4898 53.1201C60.8698 53.6201 61.1298 54.2601 61.1998 54.9701C59.7398 55.3901 58.3198 56.4001 57.1298 58.3701" fill="#E2E1E1"/>
<path d="M47.1798 61.5301C47.0998 61.1101 46.9998 60.7001 46.9098 60.2901C46.8198 59.8801 46.7298 59.46 46.6298 59.05C46.5298 58.64 46.4298 58.23 46.3098 57.83C46.1998 57.42 46.0598 57.0601 45.9198 56.6701C45.8298 56.4901 45.7498 56.2501 45.6498 56.1201L45.3198 55.6001C45.0798 55.2601 44.8498 54.9301 44.5698 54.6301C44.4398 54.4701 44.2998 54.3301 44.1498 54.1901C44.0098 54.0501 43.8698 53.9101 43.7098 53.7901C43.5498 53.6601 43.3998 53.5301 43.2298 53.4301C43.0698 53.3101 42.8998 53.2101 42.7198 53.1201C42.3798 52.9201 42.0098 52.7901 41.6398 52.6701C41.2698 52.5501 40.8798 52.4901 40.4898 52.4501C40.0998 52.4201 39.6998 52.4101 39.3098 52.4501C38.9098 52.4801 38.5198 52.5601 38.1298 52.6401C37.3498 52.8301 36.5798 53.1001 35.8498 53.4601C35.4798 53.6401 35.1198 53.8301 34.7698 54.0401C34.4298 54.2501 34.0698 54.4701 33.7598 54.7001L33.9498 54.1401L34.2698 55.2401C34.3598 55.6101 34.4998 55.9601 34.6298 56.3201C34.7498 56.6801 34.8798 57.0401 35.0498 57.3801C35.2098 57.7201 35.3398 58.0801 35.5298 58.4001C35.7198 58.7201 35.8698 59.0801 36.0998 59.3701C36.3198 59.6601 36.5098 60.0001 36.7698 60.2601C37.0198 60.5301 37.2498 60.82 37.5398 61.05L37.9598 61.4101L38.4198 61.7101C38.7198 61.9301 39.0598 62.0601 39.3998 62.2101C39.7298 62.3601 40.0998 62.4201 40.4598 62.5401C40.8298 62.5901 41.1998 62.6601 41.5698 62.6801C41.9498 62.6801 42.3298 62.7101 42.6998 62.6701C43.0798 62.6201 43.4598 62.6301 43.8398 62.5301C44.2098 62.4401 44.5998 62.4001 44.9698 62.2801C45.3398 62.1701 45.7198 62.0801 46.0798 61.9401L47.1798 61.5401V61.5301ZM47.1798 61.5301L46.1398 62.0701C45.7898 62.2501 45.4198 62.3701 45.0498 62.5301C44.6898 62.7001 44.2998 62.7801 43.9198 62.9001C43.5498 63.0301 43.1498 63.0801 42.7598 63.1601C42.3698 63.2601 41.9598 63.23 41.5598 63.27C41.1498 63.27 40.7498 63.2301 40.3398 63.2101C39.9398 63.1101 39.5298 63.0701 39.1398 62.9201C38.7598 62.7701 38.3598 62.6401 38.0098 62.4101L37.4698 62.1001L36.9798 61.7201C36.6398 61.4801 36.3698 61.1701 36.0798 60.8801C35.7698 60.5901 35.5598 60.2401 35.3098 59.9201C35.0498 59.6001 34.8798 59.2301 34.6598 58.8901C34.4398 58.5501 34.2898 58.1701 34.1098 57.8101C33.9298 57.4501 33.7898 57.0701 33.6498 56.7001C33.5098 56.3201 33.3598 55.9501 33.2598 55.5701L32.9198 54.4201L32.8198 54.08L33.1098 53.86C33.4798 53.58 33.8398 53.3401 34.2298 53.1201C34.6098 52.9001 34.9998 52.6901 35.3998 52.5101C36.1998 52.1301 37.0398 51.8401 37.9098 51.6401C38.3498 51.5501 38.7898 51.4801 39.2498 51.4601C39.6998 51.4201 40.1598 51.4501 40.6098 51.4901C41.0598 51.5501 41.5098 51.6401 41.9398 51.7901C42.1598 51.8701 42.3698 51.94 42.5798 52.05C42.7898 52.14 42.9898 52.2501 43.1798 52.3701C43.3798 52.4801 43.5598 52.6101 43.7398 52.7501C43.9298 52.8801 44.0998 53.0301 44.2598 53.1801C44.4298 53.3301 44.5798 53.4901 44.7298 53.6501C44.8898 53.8101 45.0298 53.9801 45.1598 54.1601C45.4298 54.5101 45.6598 54.8801 45.8898 55.2601L46.1998 55.8401C46.3198 56.0801 46.3598 56.2501 46.4498 56.4501C46.5698 56.8601 46.6898 57.3201 46.7598 57.7301C46.8398 58.1501 46.8998 58.5701 46.9598 59.0001C47.0798 59.8401 47.1698 60.6901 47.2198 61.5401L47.1798 61.5301Z" fill="#0D0D0D"/>
<path d="M54.77 61.5301C54.82 60.6801 54.91 59.8401 55.03 58.9901C55.09 58.5701 55.15 58.1501 55.23 57.7201C55.3 57.3101 55.41 56.8501 55.53 56.4401C55.62 56.2301 55.65 56.0601 55.78 55.8301L56.09 55.2501C56.31 54.8801 56.54 54.5001 56.82 54.1501C56.95 53.9701 57.09 53.8001 57.25 53.6401C57.4 53.4801 57.55 53.3101 57.72 53.1701C57.89 53.0201 58.05 52.8701 58.24 52.7401C58.42 52.6001 58.6 52.4701 58.8 52.3601C58.99 52.2401 59.19 52.1301 59.4 52.0401C59.6 51.9301 59.82 51.8601 60.03 51.7801C60.46 51.6301 60.91 51.5401 61.36 51.4801C61.81 51.4301 62.27 51.4101 62.72 51.4501C63.17 51.4701 63.62 51.5401 64.06 51.6301C64.93 51.8301 65.77 52.1201 66.57 52.5001C66.97 52.6901 67.36 52.8901 67.74 53.1101C68.13 53.3301 68.48 53.5701 68.85 53.8501L69.14 54.0701L69.04 54.4101L68.7 55.5601C68.6 55.9501 68.45 56.3201 68.31 56.6901C68.18 57.0701 68.03 57.4401 67.85 57.8001C67.67 58.1601 67.52 58.5301 67.3 58.8801C67.08 59.2201 66.91 59.5901 66.65 59.9101C66.39 60.2301 66.18 60.5801 65.88 60.8701C65.6 61.1701 65.32 61.4801 64.98 61.7101L64.49 62.0901L63.95 62.4001C63.6 62.6301 63.2 62.7601 62.82 62.9101C62.44 63.0601 62.02 63.1001 61.62 63.2001C61.21 63.2301 60.81 63.2701 60.4 63.2601C60 63.2201 59.59 63.2401 59.2 63.1501C58.81 63.0601 58.41 63.0201 58.03 62.8901C57.65 62.7601 57.27 62.6801 56.9 62.5201C56.53 62.3701 56.16 62.2401 55.81 62.0601L54.77 61.5201V61.5301ZM54.77 61.5301L55.88 61.9301C56.25 62.0601 56.63 62.1601 56.99 62.2701C57.36 62.3901 57.74 62.4301 58.12 62.5201C58.49 62.6101 58.88 62.6101 59.26 62.6601C59.64 62.7101 60.02 62.6601 60.39 62.6701C60.76 62.6501 61.13 62.5801 61.5 62.5301C61.85 62.4101 62.22 62.3501 62.56 62.2001C62.89 62.0501 63.24 61.9201 63.54 61.7001L64 61.4001L64.42 61.0401C64.71 60.8201 64.94 60.5201 65.19 60.2501C65.45 59.9901 65.63 59.6601 65.86 59.3601C66.09 59.0701 66.23 58.7101 66.43 58.3901C66.63 58.0701 66.75 57.7101 66.91 57.3701C67.08 57.0301 67.21 56.6701 67.33 56.3101C67.45 55.9501 67.6 55.6001 67.69 55.2301L68.01 54.1301L68.2 54.6901C67.9 54.4601 67.54 54.2401 67.19 54.0301C66.84 53.8201 66.48 53.6301 66.11 53.4501C65.38 53.0901 64.61 52.8201 63.83 52.6301C63.44 52.5401 63.05 52.4601 62.65 52.4401C62.26 52.4001 61.86 52.4101 61.47 52.4401C61.08 52.4801 60.69 52.5501 60.32 52.6601C59.95 52.7801 59.58 52.9101 59.24 53.1101C59.06 53.2001 58.9 53.3001 58.73 53.4201C58.56 53.5201 58.41 53.6501 58.25 53.7801C58.09 53.9001 57.95 54.0401 57.81 54.1801C57.66 54.3201 57.52 54.4701 57.39 54.6201C57.11 54.9201 56.88 55.2601 56.64 55.5901L56.31 56.1101C56.22 56.2401 56.13 56.4801 56.04 56.6601C55.89 57.0501 55.76 57.4101 55.65 57.8201C55.53 58.2201 55.42 58.6301 55.33 59.0401C55.23 59.4501 55.14 59.8701 55.05 60.2801C54.96 60.6901 54.86 61.1101 54.78 61.5201L54.77 61.5301Z" fill="#0D0D0D"/>
<path d="M70.1098 40.3101C68.7498 41.2701 69.6398 42.7601 69.3598 43.4001C61.9498 33.5901 54.4099 33.8101 50.8199 33.5901H50.7599H50.6999C47.1099 33.8101 39.2098 34.3701 32.1598 43.4001C31.8798 42.7601 32.7798 41.2701 31.4098 40.3101C29.5198 38.9801 27.1799 39.4801 27.7799 43.1601C28.1799 45.6001 31.1999 46.8901 31.1999 46.8901C31.1999 46.8901 45.1799 36.2701 50.8299 36.2801C56.4499 36.2801 70.4798 47.0901 70.4798 47.0901C70.4798 47.0901 73.3298 45.6001 73.7298 43.1601C74.3298 39.4801 71.9898 38.9801 70.0998 40.3101H70.1098Z" fill="#A59071"/>
<path d="M30.9699 45.85C30.9699 45.85 28.83 44.99 28.51 43.03C28.34 41.96 28.43 41.14 28.77 40.73C28.95 40.51 29.19 40.41 29.53 40.41C29.97 40.41 30.4799 40.6 30.9699 40.95C31.4899 41.31 31.46 41.74 31.38 42.45C31.33 42.87 31.28 43.31 31.46 43.72C31.57 43.97 31.33 45.99 30.98 45.86L30.9699 45.85Z" fill="#ED9DB2"/>
<path d="M70.5999 45.8901C70.5999 45.8901 72.74 45.0301 73.07 43.0701C73.24 42.0001 73.15 41.1801 72.81 40.7701C72.63 40.5501 72.38 40.4501 72.05 40.4501C71.61 40.4501 71.1 40.6401 70.61 40.9901C70.09 41.3501 70.12 41.7801 70.2 42.4901C70.25 42.9101 70.3 43.3501 70.13 43.7601C70.02 44.0101 70.26 46.0301 70.61 45.9001L70.5999 45.8901Z" fill="#ED9DB2"/>
<path d="M50.8201 33.03H50.67C47.77 33.21 41.1601 34.73 35.8301 38.67C37.5701 38.3 42.4401 36.63 44.2401 38.57C46.5301 41.05 48.8801 45.37 50.6401 45.37C52.3901 45.37 54.74 41.05 57.04 38.57C58.96 36.5 64.49 38.3 66.05 38.67C60.47 34.66 53.7501 33.21 50.8201 33.03Z" fill="#0D0D0D"/>
<path d="M57.3899 65.8701C56.8499 65.1601 56.9699 64.9801 55.1999 63.7301C53.6999 62.6701 53.9499 59.8601 51.1099 59.8601H51.0899H51.0599C48.2299 59.8601 48.4698 62.6701 46.9698 63.7301C45.1998 64.9801 45.3299 65.1601 44.7899 65.8701C42.8299 68.4201 46.0799 72.0101 51.0899 72.0101C56.0999 72.0101 59.3499 68.4301 57.3899 65.8701Z" fill="#726045"/>
<path d="M54.8399 65.71C54.1099 64.86 52.0899 64.54 50.9799 64.54C49.9299 64.54 48.1199 64.83 47.4399 65.63C47.2199 65.89 47.1299 66.19 47.1699 66.51C47.3499 67.82 48.5099 68.52 50.5099 68.52C50.6799 68.52 50.8199 68.52 50.9299 68.52C51.0399 68.52 51.0799 68.52 51.2199 68.52C51.3399 68.52 51.5299 68.53 51.7399 68.53C53.7599 68.53 54.9199 67.84 55.0999 66.54C55.1399 66.24 55.0499 65.96 54.8299 65.71" fill="#0D0D0D"/>
<path d="M52.9299 65.4701C52.9299 65.7201 52.0999 65.9201 51.0699 65.9201C50.0399 65.9201 49.21 65.7201 49.21 65.4701C49.21 65.2201 50.0999 64.8701 51.1299 64.8701C52.1599 64.8701 52.9299 65.2201 52.9299 65.4701Z" fill="white"/>
<path d="M51.0699 65.9101C50.0399 65.9101 49.21 65.7101 49.21 65.4601C49.21 65.2101 50.0999 64.8601 51.1299 64.8601C52.1599 64.8601 52.9299 65.2101 52.9299 65.4601C52.9299 65.7101 52.0999 65.9101 51.0699 65.9101Z" fill="white"/>
<path d="M62.03 68.16C62.03 68.16 62 68.06 61.96 68.02C61.93 67.97 61.89 67.94 61.86 67.9C61.79 67.83 61.69 67.78 61.6 67.74C61.51 67.7 61.41 67.67 61.32 67.65C61.22 67.63 61.12 67.61 61.03 67.59C60.93 67.57 60.83 67.56 60.74 67.56C60.55 67.54 60.35 67.53 60.16 67.53H59.21L60.13 67.76C60.21 67.78 60.32 67.85 60.32 67.88C60.34 67.96 60.35 68.08 60.34 68.18C60.32 68.39 60.24 68.59 60.12 68.77C59.88 69.13 59.51 69.41 59.14 69.66C58.38 70.14 57.52 70.48 56.66 70.76C55.8 71.04 54.91 71.24 54.01 71.4C53.11 71.55 52.21 71.65 51.3 71.67C51.23 71.67 51.17 71.67 51.1 71.67C51.03 71.67 50.96 71.67 50.9 71.67C49.99 71.65 49.09 71.55 48.19 71.4C47.29 71.24 46.41 71.04 45.54 70.76C44.68 70.48 43.82 70.14 43.06 69.66C42.68 69.42 42.32 69.13 42.07 68.77C41.95 68.59 41.86 68.39 41.85 68.18C41.85 68.08 41.85 67.96 41.87 67.88C41.87 67.85 41.97 67.78 42.05 67.76L42.97 67.52H42.02C41.83 67.53 41.63 67.54 41.44 67.56C41.34 67.56 41.25 67.58 41.15 67.59C41.05 67.6 40.96 67.62 40.86 67.65C40.76 67.67 40.67 67.7 40.58 67.74C40.48 67.78 40.39 67.83 40.31 67.9C40.27 67.94 40.24 67.97 40.21 68.02C40.18 68.06 40.16 68.11 40.14 68.16C40.11 68.26 40.11 68.36 40.12 68.46C40.12 68.36 40.15 68.26 40.19 68.18C40.21 68.14 40.24 68.1 40.27 68.06C40.3 68.02 40.34 68 40.37 67.97C40.44 67.92 40.53 67.89 40.62 67.86C40.71 67.83 40.8 67.81 40.89 67.8C41.07 67.77 41.26 67.77 41.45 67.76C41.52 67.76 41.59 67.76 41.66 67.76C41.7 67.69 41.76 67.64 41.81 67.61C41.87 67.57 41.93 67.55 42 67.53L42.03 67.76C41.91 67.76 41.79 67.76 41.67 67.76L41.65 67.8C41.61 67.94 41.61 68.06 41.61 68.2C41.63 68.46 41.73 68.7 41.87 68.91C42.15 69.32 42.53 69.62 42.92 69.87C43.72 70.37 44.58 70.71 45.46 71C46.34 71.28 47.24 71.5 48.14 71.65C49.05 71.81 49.96 71.91 50.88 71.93C50.95 71.93 51.02 71.93 51.09 71.93C51.16 71.93 51.23 71.93 51.3 71.93C52.22 71.91 53.14 71.8 54.05 71.65C54.96 71.49 55.85 71.28 56.73 71C57.61 70.71 58.47 70.37 59.27 69.87C59.66 69.61 60.05 69.32 60.33 68.91C60.46 68.71 60.57 68.46 60.59 68.2C60.59 68.07 60.59 67.95 60.56 67.8C60.56 67.78 60.5 67.69 60.54 67.76C60.61 67.76 60.68 67.76 60.75 67.76C60.94 67.76 61.13 67.77 61.31 67.8C61.4 67.81 61.49 67.83 61.58 67.86C61.67 67.89 61.75 67.92 61.83 67.97C61.86 68 61.9 68.02 61.93 68.06C61.96 68.09 61.98 68.13 62.01 68.18C62.05 68.27 62.07 68.36 62.08 68.46C62.08 68.36 62.08 68.26 62.06 68.16H62.03Z" fill="#231F20"/>
<path d="M42.0099 67.76L41.9799 67.53C41.9099 67.55 41.8599 67.57 41.7899 67.61C41.7399 67.64 41.6799 67.69 41.6399 67.76C41.7599 67.76 41.8799 67.76 41.9999 67.76H42.0099Z" fill="#231F20"/>
</svg>
