<svg width="102" height="102" viewBox="0 0 102 102" fill="none" xmlns="http://www.w3.org/2000/svg">
<path d="M93.0901 0.299988H9.50006C4.71175 0.299988 0.830078 4.18166 0.830078 8.96997V92.56C0.830078 97.3483 4.71175 101.23 9.50006 101.23H93.0901C97.8784 101.23 101.76 97.3483 101.76 92.56V8.96997C101.76 4.18166 97.8784 0.299988 93.0901 0.299988Z" fill="#24B999"/>
<path d="M51.4302 77.26C51.3802 77.26 51.3202 77.26 51.2702 77.26C44.3602 77.26 32.6002 72.05 26.8502 65.01C26.6402 64.97 26.4102 64.96 26.1502 64.96C25.3802 64.96 24.7202 65.13 24.7202 65.14C24.5902 65.18 24.4702 65.19 24.3402 65.19C23.8702 65.19 23.4202 64.95 23.1602 64.54C22.8302 64.02 22.8802 63.34 23.2902 62.88C23.3002 62.87 23.4102 62.75 23.5902 62.55C21.9602 61.32 20.8002 59.99 20.7402 59.92C20.3702 59.5 20.3002 58.91 20.5302 58.41C19.4702 57.41 18.8102 56.48 18.7702 56.41C18.4202 55.9 18.4402 55.21 18.8402 54.73C19.1102 54.4 19.5102 54.22 19.9202 54.22C20.1002 54.22 20.2902 54.26 20.4702 54.33C20.4702 54.33 21.2602 54.65 22.2902 54.65C22.6302 54.65 22.9502 54.61 23.2602 54.55C23.5102 51.13 24.7702 47.31 27.0302 43.14C25.4602 40.87 25.2402 36.94 25.2702 34.61C25.3002 31.71 25.8302 26.42 27.6002 24.96C28.1602 24.49 28.9702 24.27 30.0602 24.27C33.3302 24.27 40.4902 26.65 43.0002 28.99C45.2902 28.53 49.2502 27.89 51.0902 27.89H51.2602C53.1002 27.89 57.0602 28.54 59.3502 28.99C61.8602 26.65 69.0302 24.27 72.2902 24.27C73.3802 24.27 74.1902 24.5 74.7502 24.96C76.6602 26.54 77.0002 32.43 77.0502 33.59C77.1402 35.64 77.1202 40.32 75.4302 42.98C77.7402 47.2 79.0302 51.08 79.2902 54.54C79.6102 54.62 79.9602 54.66 80.3102 54.66C81.3302 54.66 82.1302 54.34 82.1302 54.34C82.3002 54.27 82.4802 54.23 82.6602 54.23C83.0702 54.23 83.4802 54.41 83.7502 54.75C84.1402 55.23 84.1702 55.91 83.8202 56.42C83.7702 56.49 83.1202 57.42 82.0502 58.42C82.2802 58.92 82.2102 59.51 81.8402 59.93C81.7802 60 80.6202 61.32 78.9902 62.56C79.1702 62.76 79.2802 62.88 79.2902 62.89C79.6902 63.36 79.7502 64.03 79.4202 64.55C79.1602 64.96 78.7102 65.2 78.2402 65.2C78.1202 65.2 77.9902 65.18 77.8602 65.15C77.8602 65.15 77.2102 64.98 76.4302 64.98C76.2502 64.98 76.0702 64.98 75.9102 65.01C70.3602 72.2 59.3202 76.95 52.0602 77.26C51.8702 77.27 51.6802 77.28 51.4902 77.28H51.4202L51.4302 77.26Z" fill="#2F150C"/>
<path d="M82.6802 55.62C82.6802 55.62 80.5602 56.53 78.3702 55.72C78.2202 55.67 78.0802 55.6 77.9402 55.52C77.8602 51.19 75.9102 46.61 73.7602 42.86C76.8502 39.82 75.7202 27.59 73.8602 26.05C71.9302 24.46 60.9402 28.36 59.8702 30.54C57.9802 30.12 53.2302 29.29 51.2602 29.29H51.2302H51.1902H51.1202H51.0902C49.1102 29.29 44.3702 30.11 42.4702 30.54C41.4002 28.36 30.4102 24.46 28.4802 26.05C26.5902 27.61 25.4602 40.16 28.7102 42.98C26.5902 46.71 24.6702 51.25 24.6002 55.55C24.4802 55.62 24.3502 55.68 24.2202 55.73C22.0302 56.54 19.9102 55.63 19.9102 55.63C19.9102 55.63 21.7602 58.3 24.2502 59.21C22.9802 59.35 21.7902 59.02 21.7902 59.02C21.7902 59.02 23.5902 61.08 25.7802 62.37C24.9002 63.17 24.3302 63.81 24.3302 63.81C24.3302 63.81 26.1002 63.31 27.6302 63.79C33.1702 70.91 44.9502 75.89 51.2602 75.89C51.3202 75.89 51.3702 75.89 51.4302 75.89C51.4502 75.89 51.4802 75.89 51.5002 75.89C51.6602 75.89 51.8202 75.89 51.9902 75.87C59.3102 75.56 70.0802 70.66 75.1302 63.75C76.6102 63.36 78.2502 63.82 78.2502 63.82C78.2502 63.82 77.6802 63.17 76.8002 62.38C79.0002 61.1 80.7902 59.03 80.7902 59.03C80.7902 59.03 79.6002 59.36 78.3302 59.22C80.8202 58.32 82.6702 55.64 82.6702 55.64L82.6802 55.62Z" fill="#2F150C"/>
<path d="M77.9503 55.79C77.9503 56.14 77.8803 57.07 77.8703 57.2C77.6803 58.85 77.1203 60.45 76.2603 61.97C71.8103 69.93 59.4903 75.71 51.5803 75.86C51.4803 75.86 51.3703 75.86 51.2703 75.86C44.4403 75.86 31.2003 70.03 26.4003 61.97C25.5003 60.47 24.9003 58.89 24.6903 57.25C24.6203 56.77 24.5903 56.27 24.5903 55.78C24.5903 46 34.3903 34.81 34.3903 34.81C34.3903 34.81 42.5303 30.07 51.2703 30.07C59.5003 30.07 68.1503 34.81 68.1503 34.81C68.1503 34.81 77.9503 45.99 77.9503 55.78" fill="#614E45"/>
<path d="M32.3102 59.56C31.9402 59.46 31.5502 59.43 31.1602 59.46C31.0602 59.15 30.9302 58.85 30.7602 58.59C30.1302 57.61 29.5902 57.09 29.1102 56.88C29.1102 56.55 29.0502 56.21 28.8902 55.88C27.1502 52.28 25.9602 55.07 24.2202 55.72C22.0302 56.53 19.9102 55.62 19.9102 55.62C19.9102 55.62 21.7602 58.29 24.2502 59.2C22.9802 59.34 21.7902 59.01 21.7902 59.01C21.7902 59.01 23.5902 61.07 25.7802 62.36C24.9002 63.16 24.3302 63.8 24.3302 63.8C24.3302 63.8 27.0502 63.03 28.6602 64.3C29.9902 65.35 31.0702 67.66 33.3002 64.21C34.2502 62.75 34.1302 60.06 32.3002 59.57L32.3102 59.56Z" fill="#FDFDFE"/>
<path d="M70.2803 59.56C70.6503 59.46 71.0403 59.43 71.4303 59.46C71.5303 59.15 71.6603 58.85 71.8203 58.59C72.4503 57.61 73.0002 57.09 73.4702 56.88C73.4702 56.55 73.5303 56.21 73.6903 55.88C75.4303 52.28 76.6203 55.07 78.3603 55.72C80.5503 56.53 82.6703 55.62 82.6703 55.62C82.6703 55.62 80.8203 58.29 78.3303 59.2C79.6003 59.34 80.7903 59.01 80.7903 59.01C80.7903 59.01 78.9903 61.07 76.8003 62.36C77.6803 63.16 78.2503 63.8 78.2503 63.8C78.2503 63.8 75.5303 63.03 73.9303 64.3C72.6003 65.35 71.5203 67.66 69.2803 64.21C68.3303 62.75 68.4503 60.06 70.2803 59.57V59.56Z" fill="#FDFDFE"/>
<path d="M51.2702 75.86C47.5702 75.86 42.0402 73.63 37.5102 70.32C32.3202 66.52 29.0402 61.81 28.5102 57.39C28.4502 56.95 28.4302 56.51 28.4302 56.06C28.4302 47.2 34.5202 36.88 35.8502 34.74C37.5002 33.77 44.2502 30.08 51.2702 30.08C57.8802 30.08 64.9402 33.78 66.7002 34.76C68.0602 36.95 74.1102 47.23 74.1102 56.06C74.1102 56.38 74.1002 56.71 74.0802 57.02C74.0802 57.14 74.0602 57.26 74.0502 57.37C72.9602 67.67 59.6502 75.69 51.5502 75.86H51.5902H51.2802" fill="#897263"/>
<path d="M55.9201 43.6C55.9201 43.6 55.8401 43.74 55.7201 43.97C55.4401 42.86 54.9701 42.09 54.9701 42.09C54.9701 42.09 54.8401 42.3 54.6801 42.66C54.4001 41.73 54.0201 41.11 54.0201 41.11C54.0201 41.11 53.8301 41.42 53.6201 41.94C53.3501 40.74 52.8301 39.9 52.8301 39.9C52.8301 39.9 52.4501 40.53 52.1601 41.47C51.9601 39.97 51.2701 38.86 51.2701 38.86C51.2701 38.86 50.3401 40.37 50.3201 42.25C50.1001 40.81 49.4501 39.76 49.4501 39.76C49.4501 39.76 48.7601 40.88 48.5601 42.38C48.2801 41.45 47.9001 40.84 47.9001 40.84C47.9001 40.84 47.0601 42.21 46.9601 43.96C46.7601 43.48 46.5801 43.2 46.5801 43.2C46.5801 43.2 45.6301 44.73 45.6301 46.63C45.6301 48.53 46.0601 50.06 46.5801 50.06C47.0301 50.06 47.4101 48.92 47.5001 47.39C47.6201 47.59 47.7501 47.7 47.8901 47.7C48.2801 47.7 48.6201 46.84 48.7701 45.61C48.9401 46.23 49.1801 46.63 49.4401 46.63C49.9201 46.63 50.2701 46.08 50.3301 44.37C50.4701 45.62 50.8601 45.74 51.2601 45.74C51.5301 45.74 51.7701 45.33 51.9401 44.69C52.0801 45.92 52.4201 46.78 52.8101 46.78C52.9501 46.78 53.0901 46.66 53.2101 46.46C53.3801 47.38 53.6701 47.99 54.0001 47.99C54.0901 47.99 54.1701 47.94 54.2501 47.86C54.4201 48.54 54.6701 48.97 54.9501 48.97C55.0001 48.97 55.0501 48.95 55.1001 48.92C55.2701 49.85 55.5601 50.47 55.9001 50.47C56.4201 50.47 56.8501 48.94 56.8501 47.04C56.8501 45.14 55.9001 43.61 55.9001 43.61L55.9201 43.6Z" fill="#EFEFEF"/>
<path d="M27.3601 55.76C27.3601 55.76 35.8101 61.94 39.9401 61.94C43.1001 61.94 47.0501 60.32 47.0501 60.32C47.0501 60.32 50.2301 41.74 39.5701 43.2C28.7901 44.67 27.3501 55.76 27.3501 55.76" fill="#FDFDFE"/>
<path d="M62.0902 68.87C62.0902 72.24 55.3702 75.86 51.5102 75.86C47.6502 75.86 40.4602 72.24 40.4602 68.87C40.4602 65.5 47.6602 55.76 51.5302 55.76C55.4002 55.76 62.0902 65.5 62.0902 68.87Z" fill="#FDFDFE"/>
<path d="M55.9201 46.48C55.9201 46.48 55.8401 46.62 55.7201 46.86C55.4401 45.75 54.9701 44.98 54.9701 44.98C54.9701 44.98 54.8401 45.19 54.6801 45.55C54.4001 44.62 54.0201 44 54.0201 44C54.0201 44 53.8301 44.31 53.6201 44.82C53.3501 43.62 52.8301 42.79 52.8301 42.79C52.8301 42.79 52.4501 43.42 52.1601 44.36C51.9601 42.86 51.2701 41.74 51.2701 41.74L51.2501 41.78L51.2301 41.74C51.2301 41.74 50.5501 42.86 50.3401 44.36C50.0601 43.41 49.6701 42.79 49.6701 42.79C49.6701 42.79 49.1601 43.63 48.8901 44.82C48.6801 44.31 48.4901 44 48.4901 44C48.4901 44 48.1101 44.61 47.8301 45.55C47.6701 45.19 47.5401 44.98 47.5401 44.98C47.5401 44.98 47.0701 45.74 46.7901 46.86C46.6701 46.62 46.5901 46.48 46.5901 46.48C46.5901 46.48 45.6401 48.02 45.6401 49.91C45.6401 51.8 45.9201 53.57 45.9201 53.95C45.9201 56.18 48.5201 57.92 48.8701 59.63C49.2701 61.59 48.0701 64.49 48.3601 65.7C48.6601 66.95 50.4501 66.47 51.2601 66.47C52.0501 66.47 53.9501 66.92 54.3001 65.65C54.6101 64.52 53.3801 61.8 53.7601 59.99C54.1701 58.03 56.2001 56.58 56.2001 54.06C56.2001 53.67 56.8701 51.8 56.8701 49.9C56.8701 48 55.9201 46.47 55.9201 46.47" fill="#FDFDFE"/>
<path d="M33.4901 48.73C30.7301 50.36 26.0701 54.03 27.7001 58.61C29.3201 63.2 33.4901 67.15 36.2301 67.62C38.9701 68.09 45.7902 62.8 47.9602 58.64C48.8002 57.05 46.3701 51.12 45.9501 49.95C44.4201 45.73 37.3801 46.4199 33.4901 48.7199" fill="#171616"/>
<path d="M74.9503 55.76C74.9503 55.76 66.5003 61.94 62.3703 61.94C59.2103 61.94 55.2603 60.32 55.2603 60.32C55.2603 60.32 52.0903 41.74 62.7403 43.2C73.5203 44.67 74.9603 55.76 74.9603 55.76" fill="#FDFDFE"/>
<path d="M68.8203 48.78C71.5803 50.41 76.2402 54.08 74.6102 58.66C72.9902 63.25 68.8203 67.2 66.0803 67.67C63.3403 68.14 56.5303 62.86 54.3403 58.69C53.5103 57.1 55.9302 51.18 56.3502 50C57.8802 45.79 64.9202 46.47 68.8102 48.77" fill="#171616"/>
<path d="M73.1702 43.29C76.9802 41.29 75.8202 27.67 73.8602 26.04C71.9302 24.45 60.9402 28.35 59.8702 30.53C57.9802 30.11 53.2302 29.28 51.2602 29.28H51.2302H51.1902H51.1202H51.0902C49.1102 29.28 44.3702 30.1 42.4702 30.53C41.4002 28.35 30.4102 24.45 28.4802 26.04C26.5102 27.67 25.3602 41.29 29.1702 43.29C28.6102 45.07 40.2302 30.94 51.6702 30.92C62.7802 30.9 73.7302 45.02 73.1802 43.29H73.1702Z" fill="#614E45"/>
<path d="M35.4602 44.69C35.4602 44.69 35.4702 44.65 35.5102 44.58C35.5402 44.51 35.6002 44.41 35.6802 44.29C35.7602 44.16 35.8602 44.02 35.9902 43.87C36.1302 43.72 36.2802 43.54 36.4702 43.38C36.5602 43.3 36.6702 43.21 36.7702 43.13C36.8902 43.05 37.0002 42.97 37.1202 42.89C37.2402 42.8 37.3802 42.74 37.5102 42.67C37.6502 42.6 37.7902 42.52 37.9502 42.47C38.2602 42.36 38.5802 42.24 38.9202 42.2C39.2602 42.12 39.6102 42.13 39.9702 42.12C40.3202 42.12 40.6702 42.2 41.0102 42.26C41.3302 42.36 41.6602 42.48 41.9602 42.6C42.2402 42.75 42.5102 42.91 42.7602 43.06C43.0002 43.23 43.2002 43.41 43.3902 43.58C43.4802 43.66 43.5702 43.74 43.6502 43.82C43.7302 43.9 43.7902 43.99 43.8602 44.07C43.9902 44.22 44.0902 44.37 44.1702 44.49C44.3402 44.72 44.4202 44.87 44.4202 44.87C44.4202 44.87 44.2602 44.81 43.9902 44.71C43.8602 44.65 43.7002 44.59 43.5302 44.51C43.3602 44.42 43.1602 44.35 42.9502 44.27C42.7302 44.19 42.5102 44.09 42.2802 44C42.0402 43.93 41.7802 43.86 41.5302 43.77C41.2702 43.71 41.0002 43.67 40.7402 43.6C40.6002 43.59 40.4702 43.58 40.3302 43.56C40.1902 43.55 40.0602 43.51 39.9202 43.53C39.6502 43.53 39.3802 43.52 39.1102 43.55C38.9802 43.57 38.8402 43.55 38.7102 43.59C38.5802 43.62 38.4502 43.64 38.3202 43.66C38.1902 43.67 38.0702 43.73 37.9402 43.75C37.8102 43.78 37.6902 43.81 37.5702 43.85C37.3302 43.92 37.1002 43.99 36.8902 44.08C36.6702 44.15 36.4902 44.24 36.3102 44.31C36.1402 44.4 35.9802 44.45 35.8602 44.52C35.7302 44.58 35.6302 44.63 35.5602 44.66C35.4902 44.69 35.4502 44.71 35.4502 44.71L35.4602 44.69Z" fill="#1B1A1A"/>
<path d="M67.0001 44.69C67.0001 44.69 66.9701 44.67 66.9001 44.64C66.8301 44.61 66.73 44.56 66.6 44.5C66.48 44.44 66.3101 44.38 66.1501 44.29C65.9701 44.22 65.7801 44.14 65.5701 44.06C65.3601 43.98 65.1301 43.91 64.8901 43.83C64.7701 43.79 64.6501 43.76 64.5201 43.73C64.3901 43.71 64.2701 43.65 64.1401 43.64C64.0101 43.62 63.8801 43.6 63.7501 43.57C63.6201 43.54 63.48 43.55 63.35 43.53C63.08 43.5 62.8101 43.51 62.5301 43.51C62.3901 43.5 62.2601 43.53 62.1201 43.54C61.9901 43.56 61.85 43.57 61.72 43.58C61.45 43.65 61.1901 43.7 60.9301 43.75C60.6801 43.84 60.4301 43.91 60.1801 43.98C59.9401 44.06 59.7201 44.17 59.5101 44.25C59.2901 44.33 59.09 44.4 58.92 44.49C58.75 44.57 58.5901 44.64 58.4601 44.69C58.2001 44.8 58.04 44.85 58.04 44.85C58.04 44.85 58.12 44.71 58.29 44.47C58.37 44.35 58.47 44.21 58.6 44.05C58.66 43.97 58.7301 43.88 58.8101 43.8C58.8901 43.72 58.9801 43.64 59.0701 43.56C59.2601 43.4 59.4601 43.21 59.6901 43.04C59.9401 42.89 60.2101 42.73 60.4901 42.58C60.7901 42.46 61.1101 42.35 61.4401 42.24C61.7801 42.18 62.13 42.1 62.48 42.1C62.84 42.1 63.1901 42.1 63.5301 42.18C63.8801 42.22 64.2001 42.34 64.5001 42.45C64.6501 42.5 64.7901 42.58 64.9301 42.65C65.0701 42.72 65.2101 42.78 65.3201 42.87C65.4401 42.95 65.56 43.03 65.67 43.11C65.78 43.19 65.88 43.28 65.98 43.36C66.18 43.52 66.3201 43.7 66.4601 43.85C66.5901 44.01 66.7001 44.15 66.7701 44.27C66.8501 44.39 66.9101 44.49 66.9401 44.56C66.9701 44.63 66.9901 44.67 66.9901 44.67L67.0001 44.69Z" fill="#1B1A1A"/>
<path d="M47.0602 60.33C39.4602 63.95 34.1102 61.61 31.7002 52.22C31.7002 52.22 40.8402 45.12 45.7002 54.22C46.4502 55.64 47.0602 60.33 47.0602 60.33Z" fill="white"/>
<path d="M39.7103 60.92C37.6003 60.87 35.8303 59.2 35.1503 56.88C34.9403 56.17 34.8302 55.4 34.8502 54.6C34.9202 51.37 36.9303 50.21 39.4603 50.14C39.6203 50.14 39.7702 50.13 39.9302 50.14C42.6902 50.2 44.7803 53.06 44.8203 54.82C44.9103 58.25 42.4603 60.99 39.7003 60.93" fill="#995F26"/>
<path d="M39.7302 60.05C38.1302 60.01 36.7302 58.64 36.1502 56.56C35.9602 55.9 35.8802 55.2 35.8902 54.48C35.9402 52.07 37.0802 50.91 39.4802 50.83C39.6002 50.83 39.7202 50.82 39.8402 50.82H39.9102C42.0802 50.87 43.7402 53.4 43.7702 54.7C43.8102 56.27 43.2902 57.77 42.3302 58.81C41.6002 59.61 40.6902 60.04 39.7802 60.04H39.7202" fill="#3D2E14"/>
<path d="M55.5402 60.33C63.1402 63.95 68.4903 61.61 70.9003 52.22C70.9003 52.22 61.7603 45.12 56.9003 54.22C56.1503 55.64 55.5303 60.33 55.5303 60.33" fill="white"/>
<path d="M62.8902 60.92C65.0002 60.87 66.7702 59.2 67.4502 56.88C67.6602 56.17 67.7702 55.4 67.7502 54.6C67.6802 51.37 65.6702 50.21 63.1402 50.14C62.9802 50.14 62.8202 50.13 62.6702 50.14C59.9202 50.2 57.8302 53.06 57.7802 54.82C57.6902 58.25 60.1402 60.99 62.9002 60.93" fill="#995F26"/>
<path d="M62.8002 60.05C61.8902 60.05 60.9803 59.61 60.2503 58.82C59.2903 57.78 58.7703 56.28 58.8103 54.71C58.8403 53.41 60.5002 50.88 62.6802 50.83H62.7402C62.8602 50.83 62.9802 50.83 63.1002 50.83C65.5002 50.9 66.6403 52.06 66.6903 54.47C66.7003 55.19 66.6202 55.89 66.4302 56.55C65.8602 58.64 64.4502 60 62.8502 60.04H62.7902" fill="#3D2E14"/>
<path d="M40.0401 53.31C39.9901 55.39 38.6101 57.05 36.9401 57.01C36.1801 56.99 35.5101 56.63 34.9901 56.05C34.8101 55.43 34.7101 54.75 34.7301 54.05C34.7901 51.21 36.5501 50.21 38.7701 50.14C39.5701 50.83 40.0801 52 40.0501 53.3" fill="white"/>
<path d="M42.6703 59.33C42.6603 60.03 42.1903 60.59 41.6203 60.58C41.0503 60.57 40.6103 59.9901 40.6203 59.2801C40.6303 58.5801 41.1003 58.0101 41.6703 58.0301C42.2403 58.0401 42.6803 58.62 42.6603 59.33H42.6703Z" fill="white"/>
<path d="M62.7603 53.62C62.7103 55.7 61.3302 57.36 59.6602 57.32C58.9002 57.3 58.2303 56.94 57.7103 56.36C57.5303 55.74 57.4303 55.06 57.4503 54.36C57.5103 51.53 59.2703 50.52 61.4903 50.45C62.2903 51.14 62.8003 52.31 62.7703 53.61" fill="white"/>
<path d="M65.5802 59.33C65.5702 60.03 65.1002 60.59 64.5302 60.58C63.9602 60.57 63.5202 59.9901 63.5302 59.2801C63.5402 58.5801 64.0102 58.0101 64.5802 58.0301C65.1502 58.0401 65.5902 58.62 65.5702 59.33H65.5802Z" fill="white"/>
<path d="M47.0503 60.33C47.0503 60.33 47.0503 60.26 47.0303 60.15C47.0503 60.27 47.0503 60.33 47.0503 60.33Z" fill="#E2E1E1"/>
<path d="M47.0302 60.14C46.9102 59.26 46.3502 55.46 45.6902 54.22C44.0202 51.1 41.8502 49.88 39.7202 49.63C41.8502 49.88 44.0202 51.09 45.6902 54.22C46.3502 55.47 46.9102 59.26 47.0302 60.14ZM32.1402 53.75C31.9802 53.26 31.8402 52.75 31.7002 52.22C31.8402 52.75 31.9802 53.27 32.1402 53.75Z" fill="#1E1E1E"/>
<path d="M45.6902 60.92C45.4402 59.58 45.1002 58.08 44.7302 57.38C44.6602 57.25 44.5902 57.13 44.5202 57.01C44.7302 56.33 44.8402 55.59 44.8202 54.81C44.7702 53.05 42.6902 50.19 39.9302 50.13C39.9102 50.13 39.8802 50.13 39.8502 50.13C39.7202 50.13 39.5802 50.13 39.4602 50.14C39.2302 50.14 39.0102 50.16 38.8002 50.19C38.7902 50.18 38.7702 50.17 38.7602 50.15C36.7602 50.21 35.1302 51.04 34.7902 53.28C33.8502 53.59 33.0102 53.99 32.3402 54.36C32.2702 54.16 32.2002 53.96 32.1402 53.76C31.9802 53.27 31.8402 52.76 31.7002 52.23C31.7602 52.19 35.1302 49.59 38.8402 49.59C39.1302 49.59 39.4202 49.61 39.7202 49.64C41.8502 49.89 44.0202 51.11 45.6902 54.23C46.3502 55.48 46.9102 59.27 47.0302 60.15C47.0502 60.27 47.0502 60.33 47.0502 60.33C46.9702 60.37 46.8802 60.41 46.8002 60.45C46.4202 60.62 46.0502 60.78 45.6802 60.93" fill="#E2E1E1"/>
<path d="M44.5303 57.01C44.2703 56.56 44.0003 56.15 43.7203 55.79C43.7703 55.44 43.7903 55.08 43.7803 54.72C43.7503 53.42 42.0903 50.89 39.9203 50.84H39.8503C39.7303 50.84 39.6103 50.84 39.4903 50.84C39.4503 50.84 39.4103 50.84 39.3603 50.84C39.2003 50.59 39.0103 50.37 38.8003 50.18C39.0103 50.16 39.2303 50.14 39.4603 50.13C39.5903 50.13 39.7203 50.12 39.8503 50.12C39.8703 50.12 39.9003 50.12 39.9303 50.12C42.6903 50.18 44.7803 53.04 44.8203 54.8C44.8403 55.57 44.7303 56.31 44.5203 57" fill="#925E2B"/>
<path d="M43.7201 55.78C42.6001 54.3 41.3301 53.47 40.0401 53.06C40.0201 52.22 39.7701 51.45 39.3701 50.84C39.4101 50.84 39.4501 50.84 39.5001 50.84C39.6201 50.84 39.7401 50.83 39.8601 50.83H39.9301C42.1001 50.88 43.7601 53.41 43.7901 54.71C43.7901 55.07 43.7801 55.43 43.7301 55.78" fill="#41321C"/>
<path d="M34.7902 53.27C35.1402 51.03 36.7603 50.2 38.7603 50.14C38.7703 50.15 38.7902 50.16 38.8002 50.18C39.0102 50.37 39.2002 50.59 39.3602 50.84C39.7602 51.45 40.0103 52.22 40.0303 53.06C39.3103 52.83 38.5902 52.74 37.8702 52.74C36.7902 52.74 35.7303 52.96 34.7803 53.27" fill="#E2E1E1"/>
<path d="M56.9102 60.92C56.4602 60.75 56.0102 60.55 55.5402 60.32C55.5402 60.32 56.1503 55.63 56.9003 54.21C57.1303 53.78 57.3702 53.38 57.6202 53.02C57.3702 53.39 57.1403 53.78 56.9003 54.21C56.1503 55.63 55.5303 60.32 55.5303 60.32C55.9903 60.54 56.4503 60.74 56.9003 60.92M70.4802 53.7C70.6302 53.23 70.7702 52.73 70.9102 52.22C70.7802 52.74 70.6402 53.23 70.4802 53.7ZM59.9302 50.7C60.8802 50.07 61.8802 49.75 62.8802 49.63C61.8902 49.75 60.8902 50.07 59.9402 50.7" fill="#1E1E1E"/>
<path d="M56.91 60.92C56.46 60.74 56.01 60.54 55.54 60.32C55.54 60.32 56.15 55.63 56.91 54.21C57.14 53.78 57.3801 53.39 57.6301 53.03C57.5201 53.42 57.4601 53.87 57.4401 54.37C57.4301 55.07 57.5201 55.75 57.7001 56.37C57.7801 56.46 57.87 56.55 57.97 56.64C58 56.77 58.0401 56.89 58.0701 57.01C58.0001 57.13 57.93 57.25 57.86 57.38C57.49 58.08 57.1501 59.58 56.9001 60.92M70.2601 54.35C69.5401 53.95 68.6101 53.51 67.5701 53.2C67.0201 51.02 65.2601 50.2 63.1401 50.14C63.0101 50.14 62.8701 50.13 62.7501 50.13C62.7201 50.13 62.7 50.13 62.67 50.13C62.11 50.14 61.5701 50.27 61.0801 50.48C60.6801 50.51 60.3001 50.58 59.9501 50.69C60.9001 50.06 61.9001 49.74 62.8901 49.62C63.1801 49.59 63.4801 49.57 63.7701 49.57C67.4901 49.57 70.86 52.17 70.91 52.21C70.78 52.73 70.64 53.22 70.48 53.69C70.41 53.91 70.3401 54.13 70.2601 54.35Z" fill="#E2E1E1"/>
<path d="M58.0703 57.01C58.0303 56.89 58.0002 56.76 57.9702 56.64C58.0402 56.7 58.1102 56.76 58.1902 56.82C58.1602 56.88 58.1203 56.95 58.0803 57.02M67.5703 53.2C67.2103 53.09 66.8403 52.99 66.4603 52.92C66.0103 51.57 64.9102 50.9 63.1102 50.84C62.9902 50.84 62.8702 50.83 62.7502 50.83H62.6902C62.4302 50.83 62.1802 50.88 61.9402 50.95C61.8002 50.77 61.6502 50.61 61.4902 50.47C61.3502 50.47 61.2103 50.48 61.0803 50.49C61.5803 50.28 62.1102 50.15 62.6702 50.14C62.7002 50.14 62.7202 50.14 62.7502 50.14C62.8802 50.14 63.0103 50.14 63.1403 50.15C65.2703 50.21 67.0203 51.03 67.5703 53.21" fill="#925E2B"/>
<path d="M62.7302 53.01C62.6402 52.21 62.3602 51.5 61.9302 50.94C62.1702 50.87 62.4302 50.83 62.6802 50.82H62.7402C62.8602 50.82 62.9802 50.82 63.1002 50.82C64.9102 50.88 66.0002 51.55 66.4502 52.9C65.8902 52.79 65.3002 52.73 64.7102 52.73C64.0502 52.73 63.3802 52.81 62.7202 53" fill="#41321C"/>
<path d="M58.1803 56.81C58.1103 56.75 58.0303 56.69 57.9603 56.63C57.8703 56.55 57.7803 56.46 57.6903 56.36C57.5103 55.74 57.4103 55.06 57.4303 54.36C57.4403 53.86 57.5003 53.41 57.6203 53.02C58.3403 51.98 59.1103 51.22 59.9303 50.68C60.2803 50.57 60.6603 50.5 61.0603 50.47C61.2003 50.46 61.3302 50.45 61.4702 50.45C61.6302 50.59 61.7902 50.76 61.9202 50.93C62.3502 51.48 62.6302 52.2 62.7202 53C61.0902 53.47 59.5002 54.59 58.1702 56.8" fill="#E2E1E1"/>
<path d="M47.0602 60.33C46.9702 59.86 46.8603 59.4 46.7603 58.94C46.6603 58.48 46.5602 58.02 46.4402 57.56C46.3302 57.1 46.2103 56.64 46.0803 56.19C45.9503 55.73 45.8003 55.32 45.6403 54.89C45.5403 54.69 45.4402 54.42 45.3502 54.28L44.9802 53.7C44.7102 53.32 44.4503 52.95 44.1403 52.61C44.0003 52.44 43.8402 52.27 43.6802 52.12C43.5202 51.96 43.3602 51.8 43.1802 51.67C43.0102 51.53 42.8303 51.39 42.6503 51.27C42.4703 51.14 42.2803 51.03 42.0803 50.93C41.7003 50.71 41.2802 50.56 40.8702 50.42C40.4502 50.29 40.0203 50.21 39.5903 50.17C39.1503 50.14 38.7103 50.13 38.2703 50.18C37.8303 50.21 37.3903 50.3 36.9503 50.4C36.0803 50.61 35.2203 50.92 34.4003 51.32C33.9903 51.52 33.5903 51.7299 33.2003 51.9699C32.8203 52.1999 32.4203 52.45 32.0803 52.71L32.2902 52.09L32.6403 53.32C32.7403 53.74 32.9102 54.13 33.0402 54.53C33.1802 54.93 33.3203 55.33 33.5103 55.71C33.6903 56.09 33.8302 56.4899 34.0502 56.8499C34.2702 57.2099 34.4302 57.6 34.6902 57.93C34.9402 58.25 35.1402 58.63 35.4402 58.92C35.7202 59.22 35.9702 59.55 36.3002 59.8L36.7703 60.2L37.2803 60.53C37.6103 60.78 38.0002 60.92 38.3702 61.09C38.7502 61.26 39.1602 61.33 39.5502 61.46C39.9602 61.51 40.3702 61.6 40.7902 61.61C41.2102 61.6 41.6302 61.6499 42.0602 61.5999C42.4802 61.5499 42.9103 61.55 43.3303 61.44C43.7503 61.35 44.1803 61.2999 44.5903 61.1599C45.0003 61.0299 45.4203 60.93 45.8303 60.78L47.0602 60.34V60.33ZM47.0602 60.33L45.8903 60.93C45.5003 61.13 45.0802 61.27 44.6702 61.44C44.2702 61.62 43.8302 61.71 43.4102 61.86C42.9902 62.01 42.5402 62.06 42.1102 62.15C41.6702 62.25 41.2203 62.23 40.7703 62.28C40.3203 62.29 39.8602 62.23 39.4102 62.21C38.9702 62.1 38.5003 62.05 38.0703 61.88C37.6403 61.71 37.2002 61.57 36.8102 61.31L36.2103 60.96L35.6602 60.53C35.2802 60.26 34.9702 59.92 34.6602 59.58C34.3202 59.26 34.0902 58.87 33.8002 58.51C33.5102 58.15 33.3203 57.74 33.0703 57.36C32.8203 56.98 32.6503 56.5599 32.4503 56.1599C32.2503 55.7599 32.0902 55.3399 31.9402 54.9099C31.7902 54.4899 31.6202 54.07 31.5002 53.64L31.1202 52.36L31.0103 51.98L31.3303 51.74C31.7503 51.42 32.1503 51.1599 32.5803 50.9099C33.0103 50.6599 33.4403 50.4399 33.8903 50.2199C34.7803 49.7999 35.7102 49.47 36.6902 49.25C37.1802 49.15 37.6802 49.07 38.1802 49.05C38.6802 49.01 39.1903 49.04 39.7003 49.09C40.2103 49.15 40.7102 49.26 41.1902 49.42C41.4302 49.51 41.6703 49.59 41.9003 49.71C42.1303 49.81 42.3603 49.93 42.5703 50.07C42.7903 50.2 43.0003 50.35 43.2003 50.5C43.4103 50.65 43.5903 50.81 43.7803 50.98C43.9703 51.14 44.1402 51.33 44.3102 51.51C44.4802 51.69 44.6403 51.88 44.7803 52.08C45.0903 52.46 45.3403 52.89 45.5903 53.3L45.9402 53.95C46.0802 54.21 46.1202 54.41 46.2202 54.64C46.3602 55.1 46.4802 55.61 46.5602 56.07C46.6502 56.54 46.7202 57.01 46.7902 57.49C46.9302 58.43 47.0203 59.38 47.0803 60.33H47.0602Z" fill="#2B2B2B"/>
<path d="M55.5402 60.33C55.6002 59.38 55.7003 58.44 55.8303 57.49C55.9003 57.02 55.9702 56.54 56.0602 56.07C56.1302 55.61 56.2603 55.1 56.4003 54.64C56.4903 54.41 56.5402 54.21 56.6802 53.95L57.0203 53.3C57.2703 52.88 57.5303 52.46 57.8303 52.08C57.9703 51.88 58.1402 51.69 58.3102 51.51C58.4802 51.33 58.6503 51.14 58.8403 50.98C59.0203 50.81 59.2102 50.64 59.4202 50.5C59.6202 50.35 59.8202 50.2 60.0402 50.07C60.2502 49.93 60.4803 49.82 60.7103 49.71C60.9303 49.59 61.1802 49.51 61.4202 49.42C61.9002 49.26 62.4002 49.15 62.9102 49.09C63.4202 49.04 63.9202 49.01 64.4302 49.05C64.9302 49.07 65.4302 49.15 65.9202 49.25C66.8902 49.47 67.8302 49.7999 68.7202 50.2199C69.1702 50.4299 69.6003 50.6599 70.0303 50.9099C70.4603 51.1599 70.8603 51.42 71.2803 51.74L71.6002 51.98L71.4902 52.36L71.1102 53.64C70.9902 54.07 70.8202 54.4899 70.6702 54.9099C70.5202 55.3299 70.3602 55.7499 70.1602 56.1599C69.9602 56.5599 69.7902 56.98 69.5502 57.36C69.3002 57.74 69.1103 58.16 68.8203 58.51C68.5303 58.87 68.3003 59.26 67.9603 59.58C67.6403 59.91 67.3403 60.26 66.9503 60.53L66.4003 60.96L65.8002 61.31C65.4102 61.56 64.9603 61.71 64.5303 61.88C64.1003 62.05 63.6302 62.1 63.1902 62.21C62.7302 62.24 62.2803 62.29 61.8303 62.28C61.3803 62.23 60.9202 62.26 60.4802 62.15C60.0402 62.05 59.6002 62.01 59.1802 61.86C58.7602 61.72 58.3302 61.63 57.9202 61.44C57.5202 61.27 57.0903 61.13 56.7003 60.93L55.5303 60.33H55.5402ZM55.5402 60.33L56.7703 60.77C57.1803 60.92 57.6003 61.02 58.0203 61.15C58.4303 61.29 58.8603 61.33 59.2803 61.43C59.7003 61.53 60.1302 61.53 60.5502 61.59C60.9702 61.64 61.4003 61.5899 61.8203 61.5999C62.2403 61.5799 62.6502 61.5 63.0602 61.45C63.4502 61.32 63.8702 61.25 64.2402 61.08C64.6102 60.91 65.0003 60.77 65.3303 60.52L65.8502 60.19L66.3102 59.7899C66.6302 59.5399 66.8902 59.2099 67.1702 58.9099C67.4602 58.6199 67.6702 58.24 67.9202 57.92C68.1702 57.59 68.3402 57.19 68.5502 56.84C68.7702 56.48 68.9103 56.08 69.0903 55.7C69.2703 55.32 69.4202 54.93 69.5602 54.52C69.7002 54.12 69.8603 53.73 69.9603 53.31L70.3102 52.08L70.5203 52.7C70.1803 52.45 69.7803 52.19 69.4003 51.96C69.0103 51.72 68.6103 51.51 68.2003 51.31C67.3803 50.91 66.5303 50.6 65.6503 50.39C65.2103 50.29 64.7703 50.21 64.3303 50.17C63.8903 50.12 63.4403 50.1299 63.0103 50.1599C62.5703 50.1999 62.1402 50.2799 61.7202 50.4099C61.3002 50.5399 60.8903 50.69 60.5103 50.92C60.3103 51.02 60.1302 51.14 59.9402 51.26C59.7502 51.38 59.5802 51.5199 59.4102 51.6599C59.2302 51.7999 59.0702 51.95 58.9102 52.11C58.7502 52.26 58.5903 52.4299 58.4503 52.5999C58.1403 52.9299 57.8802 53.31 57.6102 53.69L57.2402 54.27C57.1402 54.42 57.0402 54.68 56.9402 54.88C56.7802 55.31 56.6302 55.71 56.5002 56.18C56.3602 56.63 56.2503 57.09 56.1403 57.55C56.0203 58.01 55.9303 58.47 55.8203 58.93C55.7203 59.39 55.6103 59.85 55.5203 60.32L55.5402 60.33Z" fill="#2B2B2B"/>
<path d="M30.68 28.9C29.48 29.94 28.25 39.3501 30.91 39.7801C30.91 39.7801 32.79 36.72 34.61 35.05C37.23 32.67 40.54 31.51 40.54 31.51C40.45 30.19 31.88 27.87 30.67 28.9H30.68Z" fill="#ED9DB2"/>
<path d="M51.2602 72.48C49.7002 72.47 48.8502 71.88 48.5402 71.69C48.4002 71.61 48.3502 71.58 48.3802 71.58C48.4102 71.58 48.5202 71.61 48.6902 71.64C48.8602 71.67 49.1002 71.7 49.3802 71.7C49.5402 71.7 49.7102 71.69 49.9002 71.67C50.5202 71.59 51.1002 71.21 51.2602 71.1C51.4202 71.21 52.0002 71.59 52.6202 71.67C52.8102 71.69 52.9802 71.7 53.1402 71.7C53.4202 71.7 53.6602 71.67 53.8302 71.64C54.0002 71.61 54.1202 71.58 54.1502 71.58C54.1802 71.58 54.1302 71.61 53.9902 71.69C53.6702 71.88 52.8202 72.47 51.2602 72.48Z" fill="#D3D9DE"/>
<path d="M71.8303 28.9C73.0303 29.94 74.2602 39.3501 71.6002 39.7801C71.6002 39.7801 69.7203 36.72 67.9003 35.05C65.2803 32.67 61.9702 31.51 61.9702 31.51C62.0602 30.19 70.6303 27.87 71.8303 28.9Z" fill="#ED9DB2"/>
<path d="M54.6603 71.03C54.6103 70.93 54.5503 70.89 54.5503 70.88C54.5503 70.88 54.6004 70.93 54.6504 71.03C54.6604 71.09 54.6704 71.16 54.6504 71.23C54.6204 71.3 54.5503 71.36 54.4703 71.41C54.1403 71.61 53.6004 71.67 53.0904 71.63C52.8304 71.61 52.5803 71.56 52.3603 71.48C52.1303 71.41 51.9304 71.31 51.7804 71.2C51.6304 71.1 51.5103 70.99 51.4403 70.92C51.3703 70.84 51.3203 70.8 51.3203 70.8L51.4004 69.81H51.1203L51.2003 70.81C51.2003 70.81 51.1403 70.84 51.0803 70.93C51.0403 70.97 51.0003 71.02 50.9403 71.07C50.8903 71.12 50.8203 71.17 50.7403 71.23C50.5903 71.33 50.3903 71.44 50.1603 71.51C49.9303 71.58 49.6803 71.63 49.4303 71.64C48.9203 71.67 48.3903 71.59 48.0503 71.4C47.9703 71.35 47.9003 71.3 47.8503 71.23C47.8003 71.17 47.7903 71.1 47.8003 71.05C47.8103 70.99 47.8403 70.96 47.8603 70.93C47.8603 70.93 47.8103 70.99 47.8003 71.05C47.7803 71.11 47.8004 71.19 47.8404 71.26C47.8904 71.33 47.9503 71.39 48.0403 71.44C48.3803 71.66 48.9103 71.79 49.4503 71.79C49.7203 71.79 49.9903 71.76 50.2303 71.7C50.4803 71.64 50.7003 71.54 50.8803 71.44C50.9703 71.38 51.0503 71.33 51.1103 71.28C51.1703 71.24 51.2203 71.19 51.2603 71.15C51.3503 71.23 51.4804 71.34 51.6504 71.44C51.8304 71.54 52.0503 71.63 52.3003 71.69C52.5503 71.75 52.8103 71.79 53.0803 71.79C53.6103 71.79 54.1503 71.7 54.4903 71.47C54.5703 71.41 54.6403 71.34 54.6703 71.26C54.7003 71.18 54.6803 71.11 54.6703 71.05L54.6603 71.03Z" fill="#0D0D0D"/>
<path d="M54.0903 67.93C54.0903 69.16 52.8302 70.16 51.2902 70.16C49.7502 70.16 48.4902 69.16 48.4902 67.93C48.4902 66.7 49.7502 65.7 51.2902 65.7C52.8302 65.7 54.0903 66.7 54.0903 67.93Z" fill="#0D0D0D"/>
<path d="M51.3003 64.64H51.2503H51.2003C50.0403 64.64 47.2603 65.45 47.9203 67.36C49.3003 71.33 49.2303 68.22 50.6903 68.61C51.0803 68.72 50.7803 70.16 51.2103 70.16H51.3003C51.7203 70.16 51.4303 68.72 51.8203 68.61C53.2803 68.22 53.2103 71.33 54.5903 67.36C55.2503 65.45 52.4703 64.64 51.3103 64.64H51.3003Z" fill="#212121"/>
<path d="M53.0002 65.71C53.0002 66.08 52.2102 66.39 51.2302 66.39C50.2502 66.39 49.4602 66.09 49.4602 65.71C49.4602 65.33 50.2502 65.04 51.2302 65.04C52.2102 65.04 53.0002 65.34 53.0002 65.71Z" fill="#FDFDFE"/>
</svg>
