<svg width="101" height="102" viewBox="0 0 101 102" fill="none" xmlns="http://www.w3.org/2000/svg">
<path d="M92.26 0.299988H8.67C3.88169 0.299988 0 4.18166 0 8.96997V92.56C0 97.3483 3.88169 101.23 8.67 101.23H92.26C97.0483 101.23 100.93 97.3483 100.93 92.56V8.96997C100.93 4.18166 97.0483 0.299988 92.26 0.299988Z" fill="#24B999"/>
<path d="M50.54 76.74C46.49 76.74 41.28 75.51 36.92 73.52C25.7 70.64 23.96 63.09 24.8 52.64C24.96 50.68 25.3 48.78 25.82 46.99C22.74 44.85 20.88 41.26 20.8 37.19C20.74 33.94 21.94 30.87 24.19 28.53C26.44 26.19 29.47 24.87 32.72 24.8C32.8 24.8 32.88 24.8 32.96 24.8C37.48 24.8 41.57 27.29 43.67 31.23C45.72 30.84 47.92 30.65 50.21 30.65H50.77C53.04 30.65 55.21 30.84 57.24 31.22C59.34 27.29 63.43 24.81 67.94 24.81C68.02 24.81 68.1 24.81 68.18 24.81C71.43 24.87 74.45 26.19 76.71 28.54C78.96 30.88 80.17 33.96 80.11 37.2C80.03 41.24 78.2 44.81 75.15 46.96C75.68 48.77 76.03 50.68 76.19 52.65C76.4 55.26 76.42 57.48 76.26 59.43V59.52C76.24 59.66 76.23 59.8 76.21 59.94C76.21 59.96 76.21 59.98 76.21 60C75.48 66.87 72.07 71.04 65.49 73.12C61.12 75.3 55.67 76.65 50.87 76.74H50.54Z" fill="#2F150C"/>
<path d="M78.75 37.16C78.86 31.2 74.13 26.27 68.17 26.16C63.62 26.07 59.69 28.81 58.03 32.76C55.85 32.27 53.44 32 50.79 32H50.23C47.55 32 45.12 32.27 42.92 32.77C41.26 28.81 37.32 26.07 32.77 26.16C26.81 26.27 22.07 31.2 22.19 37.16C22.27 41.15 24.21 44.59 27.46 46.39C26.78 48.41 26.35 50.54 26.18 52.75C25.32 63.46 27.47 69.72 37.39 72.22C41.95 74.32 46.98 75.37 50.55 75.37C50.65 75.37 50.75 75.37 50.85 75.37C55.17 75.29 60.46 74.12 64.98 71.84C71.5 69.82 74.23 65.89 74.86 59.81V59.78C74.88 59.65 74.89 59.53 74.9 59.4C74.9 59.37 74.9 59.34 74.9 59.3C75.06 57.33 75.02 55.15 74.83 52.74C74.65 50.52 74.22 48.37 73.53 46.35C76.74 44.54 78.66 41.12 78.74 37.16H78.75Z" fill="#2F150C"/>
<path d="M72.7699 44C74.8799 42.65 76.2499 40.46 76.5199 37.85C76.5399 37.61 76.5499 37.37 76.5499 37.13C76.5499 32.37 72.6899 28.51 67.9299 28.51C66.4099 28.51 64.9899 28.91 63.7499 29.59C62.2299 30.53 60.9899 31.91 60.2199 33.46C60.1999 33.46 59.2999 35.81 59.2999 37.13C59.2999 41.89 63.1599 45.75 67.9199 45.75C69.7499 45.75 72.7799 44.06 72.7599 43.99L72.7699 44Z" fill="#5B5C5C"/>
<path d="M28.16 44C26.05 42.65 24.68 40.46 24.41 37.85C24.39 37.61 24.38 37.37 24.38 37.13C24.38 32.37 28.24 28.51 33 28.51C34.52 28.51 35.94 28.91 37.18 29.59C38.7 30.53 39.94 31.91 40.71 33.46C40.73 33.46 41.63 35.81 41.63 37.13C41.63 41.89 37.77 45.75 33.01 45.75C31.18 45.75 28.15 44.06 28.18 43.99L28.16 44Z" fill="#5B5C5C"/>
<path d="M72.4099 44.09C74.6799 42.63 76.2599 40.01 76.3099 37.11C76.3999 32.49 72.7299 28.68 68.1199 28.59C64.7799 28.53 61.7499 30.8 60.3599 33.61C59.8099 33.48 58.2199 33.03 57.8899 33.07C59.4699 28.95 63.4999 26.0699 68.1699 26.1599C74.1299 26.2699 78.8699 31.1999 78.7499 37.1599C78.6699 41.1599 76.7199 44.61 73.4499 46.41C73.3199 45.61 72.7399 44.89 72.4099 44.09Z" fill="#3B3A3C"/>
<path d="M28.52 44.09C26.25 42.63 24.67 40.01 24.61 37.11C24.52 32.49 28.19 28.68 32.8 28.59C36.14 28.53 39.17 30.8 40.56 33.61C41.11 33.48 42.7 33.03 43.03 33.07C41.45 28.95 37.42 26.0699 32.75 26.1599C26.79 26.2699 22.05 31.1999 22.17 37.1599C22.25 41.1599 24.2 44.61 27.47 46.41C27.6 45.61 28.18 44.89 28.51 44.09H28.52Z" fill="#3B3A3C"/>
<path d="M74.8399 52.75C73.9399 41.57 66.7899 32 50.7899 32H50.2299C34.2299 32 27.0699 41.56 26.1799 52.75C25.3199 63.46 27.4699 69.72 37.3899 72.22C41.9499 74.32 46.9799 75.37 50.5499 75.37C50.6499 75.37 50.7499 75.37 50.8499 75.37C55.1699 75.29 60.4599 74.12 64.9799 71.84C71.4999 69.82 74.2299 65.89 74.8599 59.81V59.78C74.8799 59.65 74.8899 59.53 74.8999 59.4C74.8999 59.37 74.8999 59.34 74.8999 59.3C75.0599 57.33 75.0199 55.15 74.8299 52.74" fill="#DEDDDD"/>
<path d="M50.5399 73.9C46.7799 73.9 41.8999 72.73 37.8099 70.83L37.7199 70.79L37.6299 70.77C28.9999 68.58 26.2699 63.74 27.1899 52.26C27.6499 46.53 29.7499 41.69 33.2499 38.26C37.2699 34.33 42.9799 32.34 50.2199 32.34H50.4999H50.7799C58.0199 32.34 63.7299 34.33 67.7499 38.26C71.2599 41.68 73.3499 46.52 73.8099 52.26C74.0099 54.75 74.0299 56.86 73.8799 58.69V58.77C73.8699 58.9 73.8499 59.02 73.8399 59.13V59.16C73.1999 65.24 70.4599 68.6 64.6599 70.41L64.5799 70.43L64.4999 70.47C60.4199 72.53 55.2999 73.82 50.8099 73.9H50.5299" fill="#F7F7F7"/>
<path d="M58.69 69.14C58.69 72.13 55.16 74.56 50.38 74.56C45.6 74.56 42.24 71.99 42.24 68.99C42.24 65.99 45.6 62 50.37 62C55.14 62 58.68 66.14 58.68 69.13" fill="#DEDDDD"/>
<path d="M47.6699 58.23C47.6699 63.67 42.0099 67.59 35.8099 67.59C29.6099 67.59 27.6899 64.27 27.6899 58.83C27.6899 53.39 33.3899 46.75 39.5899 46.75C45.7899 46.75 47.6699 52.79 47.6699 58.23Z" fill="#3B3A3C"/>
<path d="M53.98 70.64C53.98 70.64 53.94 70.71 53.92 70.75C53.63 71.22 53.05 71.62 52.4 71.91C51.78 72.18 51.1 72.35 50.57 72.35C50.04 72.35 49.37 72.19 48.74 71.92C48.07 71.63 47.46 71.2 47.18 70.71C47.16 70.68 47.15 70.64 47.13 70.6C47.49 70.71 47.94 70.76 48.37 70.73C48.67 70.71 48.97 70.66 49.23 70.57C49.49 70.48 49.72 70.37 49.9 70.25C49.99 70.19 50.06 70.12 50.13 70.07C50.19 70.02 50.24 69.95 50.29 69.91C50.37 69.81 50.41 69.76 50.41 69.76L50.38 68.78H50.71L50.68 69.76C50.68 69.76 50.72 69.81 50.8 69.91C50.89 70 51.01 70.12 51.2 70.24C51.38 70.36 51.62 70.48 51.88 70.56C52.15 70.65 52.44 70.7 52.74 70.73C53.16 70.77 53.6 70.74 53.96 70.64H53.98Z" fill="#B3576F"/>
<path d="M54.61 70.28C54.57 70.37 54.5 70.45 54.4 70.52C54.26 70.62 54.1 70.69 53.92 70.75C53.57 70.86 53.16 70.9 52.75 70.9C52.44 70.9 52.12 70.85 51.83 70.78C51.54 70.71 51.28 70.6 51.07 70.48C50.86 70.36 50.7 70.23 50.59 70.13L50.55 70.09L50.52 70.12C50.47 70.17 50.4 70.23 50.33 70.29C50.25 70.35 50.16 70.42 50.05 70.48C49.84 70.6 49.58 70.72 49.29 70.79C49 70.86 48.68 70.9 48.37 70.9C47.95 70.9 47.52 70.83 47.17 70.71C47 70.65 46.85 70.58 46.72 70.5C46.62 70.44 46.54 70.36 46.49 70.28C46.44 70.2 46.42 70.11 46.45 70.04C46.47 69.98 46.5 69.93 46.53 69.9L46.56 69.87L46.54 69.9C46.54 69.9 46.49 69.97 46.48 70.04C46.46 70.1 46.48 70.19 46.53 70.26C46.58 70.33 46.66 70.4 46.77 70.45C46.88 70.51 47 70.56 47.14 70.6C47.5 70.71 47.95 70.76 48.38 70.73C48.68 70.71 48.98 70.66 49.24 70.57C49.5 70.48 49.73 70.37 49.91 70.25C50 70.19 50.07 70.12 50.14 70.07C50.2 70.02 50.25 69.95 50.3 69.91C50.38 69.81 50.42 69.76 50.42 69.76L50.39 68.78H50.72L50.69 69.76C50.69 69.76 50.73 69.81 50.81 69.91C50.9 70 51.02 70.12 51.21 70.24C51.39 70.36 51.63 70.48 51.89 70.56C52.16 70.65 52.45 70.7 52.75 70.73C53.17 70.77 53.61 70.74 53.97 70.64C54.12 70.6 54.25 70.54 54.36 70.48C54.46 70.42 54.53 70.35 54.57 70.27C54.61 70.19 54.59 70.11 54.57 70.04C54.53 69.95 54.49 69.9 54.47 69.88C54.49 69.9 54.54 69.95 54.58 70.04C54.6 70.1 54.62 70.19 54.58 70.29L54.61 70.28Z" fill="#3B3A3C"/>
<path d="M52.9399 58.15C52.9399 63.59 58.5999 67.51 64.7999 67.51C70.9999 67.51 72.9199 64.19 72.9199 58.75C72.9199 53.31 67.2199 46.67 61.0199 46.67C54.8199 46.67 52.9399 52.7 52.9399 58.15Z" fill="#3B3A3C"/>
<path d="M34.58 47.27C34.58 47.27 34.59 47.23 34.63 47.16C34.67 47.09 34.72 46.99 34.8 46.87C34.88 46.75 34.98 46.61 35.11 46.46C35.24 46.32 35.39 46.14 35.58 45.98C35.67 45.9 35.77 45.81 35.88 45.73C35.99 45.65 36.11 45.57 36.22 45.49C36.34 45.4 36.47 45.34 36.61 45.27C36.75 45.2 36.88 45.12 37.04 45.08C37.34 44.97 37.65 44.86 37.99 44.82C38.32 44.74 38.67 44.75 39.02 44.74C39.37 44.74 39.7 44.82 40.04 44.88C40.36 44.98 40.67 45.09 40.96 45.21C41.24 45.36 41.5 45.51 41.74 45.66C41.97 45.82 42.17 46 42.35 46.17C42.44 46.25 42.53 46.33 42.61 46.41C42.69 46.49 42.75 46.58 42.81 46.65C42.94 46.8 43.04 46.94 43.12 47.06C43.28 47.29 43.36 47.43 43.36 47.43C43.36 47.43 43.2 47.38 42.94 47.27C42.81 47.22 42.66 47.15 42.49 47.07C42.33 46.98 42.13 46.91 41.92 46.84C41.71 46.76 41.5 46.66 41.26 46.58C41.02 46.51 40.78 46.44 40.53 46.35C40.28 46.3 40.01 46.25 39.75 46.18C39.62 46.17 39.48 46.16 39.35 46.14C39.22 46.13 39.09 46.1 38.95 46.11C38.68 46.11 38.42 46.1 38.15 46.13C38.02 46.15 37.88 46.14 37.76 46.17C37.63 46.19 37.5 46.22 37.38 46.24C37.25 46.25 37.13 46.3 37.01 46.33C36.89 46.36 36.76 46.38 36.65 46.43C36.42 46.5 36.19 46.57 35.99 46.65C35.78 46.72 35.6 46.81 35.42 46.87C35.26 46.96 35.1 47.01 34.98 47.07C34.86 47.13 34.76 47.18 34.69 47.21C34.62 47.24 34.59 47.26 34.59 47.26L34.58 47.27Z" fill="#565656"/>
<path d="M65.78 47.27C65.78 47.27 65.74 47.25 65.68 47.22C65.61 47.19 65.52 47.14 65.39 47.08C65.27 47.02 65.11 46.96 64.95 46.88C64.77 46.82 64.59 46.73 64.38 46.66C64.18 46.58 63.95 46.51 63.72 46.44C63.61 46.4 63.48 46.37 63.36 46.34C63.24 46.32 63.12 46.26 62.99 46.25C62.86 46.23 62.73 46.21 62.61 46.18C62.48 46.15 62.35 46.16 62.22 46.14C61.96 46.1 61.69 46.12 61.42 46.12C61.29 46.11 61.15 46.14 61.02 46.15C60.89 46.17 60.75 46.18 60.62 46.19C60.36 46.26 60.1 46.3 59.84 46.36C59.59 46.45 59.35 46.52 59.11 46.59C58.88 46.67 58.66 46.77 58.45 46.85C58.24 46.93 58.04 47 57.88 47.08C57.71 47.16 57.56 47.22 57.43 47.28C57.17 47.39 57.01 47.44 57.01 47.44C57.01 47.44 57.09 47.3 57.25 47.07C57.33 46.96 57.43 46.81 57.56 46.66C57.62 46.58 57.69 46.5 57.76 46.41C57.84 46.33 57.93 46.26 58.02 46.17C58.2 46.01 58.4 45.83 58.63 45.66C58.87 45.51 59.13 45.36 59.41 45.21C59.7 45.09 60.01 44.98 60.34 44.88C60.67 44.82 61.01 44.74 61.36 44.74C61.71 44.74 62.05 44.74 62.39 44.82C62.73 44.86 63.04 44.97 63.34 45.08C63.49 45.13 63.63 45.21 63.76 45.27C63.89 45.34 64.03 45.4 64.15 45.49C64.27 45.57 64.38 45.65 64.49 45.72C64.6 45.8 64.69 45.89 64.79 45.97C64.98 46.12 65.13 46.3 65.26 46.45C65.39 46.6 65.49 46.74 65.57 46.86C65.65 46.98 65.7 47.08 65.74 47.15C65.78 47.21 65.79 47.26 65.79 47.26L65.78 47.27Z" fill="#565656"/>
<path d="M45.92 61.9C38.48 65.44 33.24 63.15 30.88 53.96C30.88 53.96 39.83 47.01 44.58 55.92C45.32 57.3 45.92 61.9 45.92 61.9Z" fill="white"/>
<path d="M38.7299 62.48C36.6599 62.44 34.9299 60.8 34.2699 58.52C34.0599 57.83 33.9599 57.07 33.9799 56.29C34.0499 53.12 36.0099 52 38.4899 51.93C38.6399 51.93 38.7999 51.92 38.9499 51.93C41.6499 51.99 43.6899 54.79 43.7399 56.51C43.8299 59.87 41.4299 62.55 38.7299 62.49" fill="#00A651"/>
<path d="M38.7499 61.63C37.1799 61.59 35.8099 60.25 35.2499 58.22C35.0699 57.57 34.9799 56.88 34.9999 56.19C35.0499 53.83 36.1599 52.69 38.5199 52.62C38.6399 52.62 38.7599 52.61 38.8699 52.61H38.9399C41.0599 52.66 42.6799 55.14 42.7199 56.41C42.7599 57.95 42.2499 59.41 41.3099 60.43C40.5899 61.21 39.7099 61.64 38.8199 61.64H38.7599" fill="#003106"/>
<path d="M54.23 61.9C61.67 65.44 66.91 63.15 69.27 53.96C69.27 53.96 60.32 47.01 55.57 55.92C54.83 57.3 54.23 61.9 54.23 61.9Z" fill="white"/>
<path d="M61.4199 62.48C63.4899 62.44 65.2199 60.8 65.8799 58.52C66.0899 57.83 66.1899 57.07 66.1699 56.29C66.0999 53.12 64.1399 52 61.6599 51.93C61.5099 51.93 61.3499 51.92 61.1999 51.93C58.4999 51.99 56.4599 54.79 56.4099 56.51C56.3199 59.87 58.7199 62.55 61.4199 62.49" fill="#00A651"/>
<path d="M61.3399 61.63C60.4499 61.63 59.5599 61.2 58.8499 60.42C57.9199 59.4 57.3999 57.94 57.4399 56.4C57.4699 55.13 59.0899 52.65 61.2299 52.6H61.2899C61.4099 52.6 61.5299 52.6 61.6499 52.6C63.9999 52.67 65.1199 53.81 65.1699 56.16C65.1799 56.86 65.0999 57.55 64.9199 58.19C64.3599 60.23 62.9799 61.57 61.4199 61.61H61.3599" fill="#003106"/>
<path d="M39.06 55.03C39.02 57.06 37.66 58.69 36.02 58.66C35.28 58.64 34.62 58.29 34.11 57.72C33.93 57.11 33.84 56.45 33.85 55.76C33.91 52.98 35.63 52 37.8 51.93C38.58 52.61 39.08 53.75 39.05 55.02" fill="white"/>
<path d="M41.6299 60.92C41.6099 61.61 41.1499 62.16 40.5999 62.15C40.0499 62.14 39.6099 61.57 39.6199 60.88C39.6299 60.19 40.0899 59.64 40.6499 59.65C41.1999 59.66 41.6399 60.23 41.6299 60.92Z" fill="white"/>
<path d="M61.29 55.33C61.25 57.36 59.89 58.99 58.25 58.96C57.51 58.94 56.85 58.59 56.34 58.02C56.16 57.41 56.07 56.75 56.08 56.06C56.14 53.28 57.86 52.3 60.03 52.23C60.81 52.91 61.31 54.05 61.28 55.32" fill="white"/>
<path d="M64.06 60.92C64.04 61.61 63.58 62.16 63.03 62.15C62.48 62.14 62.04 61.57 62.05 60.88C62.06 60.19 62.52 59.64 63.08 59.65C63.63 59.66 64.07 60.23 64.06 60.92Z" fill="white"/>
<path d="M44.5799 62.48C45.0199 62.31 45.4599 62.11 45.9199 61.9C45.9199 61.9 45.3199 57.3 44.5799 55.92C45.3099 57.31 45.9199 61.9 45.9199 61.9C45.4699 62.12 45.0199 62.31 44.5799 62.48Z" fill="#444445"/>
<path d="M44.58 62.48C44.34 61.17 44.01 59.7 43.64 59.01C43.57 58.88 43.51 58.76 43.44 58.64C43.65 57.97 43.76 57.25 43.74 56.49C43.69 54.77 41.65 51.97 38.95 51.91C38.92 51.91 38.9 51.91 38.87 51.91C38.74 51.91 38.61 51.91 38.48 51.92C38.26 51.92 38.05 51.94 37.84 51.96C37.83 51.95 37.81 51.94 37.8 51.92C35.84 51.98 34.25 52.79 33.91 54.98C32.99 55.28 32.16 55.68 31.51 56.04C31.43 55.81 31.35 55.57 31.27 55.32C31.13 54.88 31 54.42 30.88 53.94C30.93 53.9 34.23 51.36 37.87 51.36C37.96 51.36 38.05 51.36 38.15 51.36C40.42 51.44 42.8 52.55 44.58 55.89C45.32 57.27 45.92 61.87 45.92 61.87C45.47 62.09 45.02 62.28 44.58 62.45" fill="#E2E1E1"/>
<path d="M43.45 58.65C43.2 58.21 42.93 57.81 42.66 57.45C42.71 57.11 42.73 56.75 42.72 56.4C42.69 55.13 41.07 52.65 38.94 52.6H38.87C38.75 52.6 38.63 52.6 38.52 52.6C38.48 52.6 38.44 52.6 38.4 52.6C38.24 52.36 38.05 52.14 37.85 51.96C38.06 51.94 38.28 51.92 38.49 51.92C38.62 51.92 38.75 51.91 38.88 51.91C38.91 51.91 38.93 51.91 38.96 51.91C41.66 51.97 43.7 54.77 43.75 56.49C43.77 57.25 43.66 57.97 43.45 58.64" fill="#009B51"/>
<path d="M42.6599 57.45C41.5599 56.01 40.3199 55.19 39.0599 54.79C39.0399 53.97 38.7899 53.21 38.3999 52.61C38.4399 52.61 38.4799 52.61 38.5199 52.61C38.6399 52.61 38.7599 52.6 38.8699 52.6H38.9399C41.0599 52.65 42.6799 55.13 42.7199 56.4C42.7199 56.76 42.7099 57.11 42.6599 57.45Z" fill="#003812"/>
<path d="M33.9199 54.99C34.2599 52.8 35.8499 51.99 37.8099 51.93C37.8199 51.94 37.8399 51.95 37.8499 51.97C38.0599 52.15 38.2399 52.37 38.3999 52.61C38.7899 53.21 39.0399 53.96 39.0599 54.79C38.3599 54.57 37.6399 54.47 36.9399 54.47C35.8799 54.47 34.8499 54.69 33.9199 54.99Z" fill="#E2E1E1"/>
<path d="M55.57 62.48C55.13 62.31 54.69 62.11 54.23 61.9C54.23 61.9 54.83 57.31 55.57 55.92C55.8 55.5 56.03 55.11 56.27 54.76C56.03 55.11 55.79 55.5 55.57 55.92C54.83 57.3 54.23 61.9 54.23 61.9C54.68 62.12 55.13 62.31 55.57 62.48ZM58.52 52.47C59.64 51.73 60.83 51.42 61.99 51.38C60.83 51.42 59.65 51.73 58.52 52.47Z" fill="#444445"/>
<path d="M55.57 62.48C55.13 62.31 54.69 62.11 54.23 61.9C54.23 61.9 54.83 57.3 55.57 55.92C55.79 55.5 56.03 55.11 56.27 54.76C56.16 55.14 56.1 55.58 56.09 56.07C56.07 56.76 56.17 57.42 56.35 58.03C56.43 58.12 56.52 58.21 56.61 58.29C56.64 58.41 56.67 58.54 56.71 58.66C56.64 58.78 56.57 58.9 56.51 59.03C56.15 59.71 55.82 61.18 55.57 62.5M68.63 56.05C67.92 55.66 67.01 55.23 66 54.92C65.46 52.79 63.74 51.99 61.66 51.93C61.53 51.93 61.4 51.92 61.27 51.92C61.24 51.92 61.22 51.92 61.19 51.92C60.64 51.93 60.11 52.06 59.63 52.26C59.24 52.29 58.87 52.36 58.52 52.47C59.64 51.73 60.83 51.42 61.99 51.38C62.08 51.38 62.17 51.38 62.27 51.38C65.91 51.38 69.21 53.92 69.26 53.96C69.14 54.44 69.01 54.9 68.87 55.34C68.79 55.59 68.71 55.82 68.63 56.06" fill="#E2E1E1"/>
<path d="M56.7 58.65C56.66 58.53 56.63 58.41 56.6 58.28C56.67 58.34 56.74 58.4 56.81 58.45C56.77 58.51 56.74 58.58 56.7 58.64M66 54.92C65.65 54.81 65.29 54.72 64.92 54.65C64.48 53.33 63.41 52.67 61.64 52.61C61.52 52.61 61.4 52.6 61.28 52.6H61.22C60.97 52.6 60.72 52.65 60.48 52.72C60.35 52.55 60.2 52.39 60.04 52.25C59.9 52.25 59.77 52.26 59.64 52.27C60.13 52.06 60.65 51.94 61.2 51.93C61.23 51.93 61.25 51.93 61.28 51.93C61.41 51.93 61.54 51.93 61.67 51.94C63.75 52 65.47 52.8 66.01 54.93" fill="#009B51"/>
<path d="M61.26 54.74C61.17 53.96 60.89 53.26 60.48 52.72C60.72 52.65 60.96 52.61 61.22 52.61H61.28C61.4 52.61 61.52 52.61 61.64 52.61C63.41 52.66 64.48 53.32 64.92 54.65C64.37 54.54 63.8 54.48 63.22 54.48C62.58 54.48 61.92 54.56 61.27 54.75" fill="#003812"/>
<path d="M56.82 58.46C56.75 58.41 56.68 58.35 56.61 58.29C56.52 58.21 56.43 58.12 56.35 58.03C56.17 57.42 56.08 56.76 56.09 56.07C56.1 55.58 56.16 55.14 56.27 54.76C56.97 53.75 57.73 53 58.53 52.48C58.88 52.37 59.25 52.31 59.64 52.27C59.77 52.26 59.91 52.25 60.04 52.25C60.2 52.39 60.35 52.55 60.48 52.72C60.9 53.26 61.18 53.96 61.26 54.74C59.67 55.2 58.11 56.3 56.81 58.46" fill="#E2E1E1"/>
<path d="M45.92 61.9C45.83 61.44 45.73 60.99 45.62 60.54C45.52 60.09 45.42 59.64 45.31 59.19C45.2 58.74 45.09 58.29 44.96 57.85C44.84 57.4 44.69 57 44.53 56.58C44.43 56.38 44.34 56.12 44.24 55.98L43.88 55.41C43.62 55.04 43.36 54.68 43.06 54.35C42.92 54.18 42.77 54.02 42.61 53.87C42.45 53.71 42.3 53.56 42.12 53.43C41.95 53.29 41.78 53.15 41.6 53.04C41.42 52.91 41.24 52.8 41.05 52.71C40.68 52.49 40.27 52.34 39.86 52.21C39.45 52.08 39.03 52.01 38.6 51.97C38.17 51.94 37.74 51.93 37.31 51.98C36.88 52.01 36.45 52.1 36.02 52.19C35.17 52.39 34.33 52.7 33.53 53.09C33.13 53.28 32.73 53.49 32.35 53.73C31.97 53.96 31.58 54.2 31.25 54.45L31.46 53.84L31.8 55.05C31.9 55.46 32.06 55.84 32.2 56.23C32.34 56.63 32.48 57.02 32.66 57.38C32.84 57.75 32.97 58.15 33.19 58.5C33.4 58.85 33.56 59.24 33.81 59.56C34.05 59.88 34.25 60.25 34.54 60.53C34.81 60.82 35.06 61.15 35.38 61.39L35.83 61.79L36.33 62.11C36.66 62.35 37.03 62.49 37.4 62.66C37.77 62.83 38.17 62.89 38.55 63.02C38.95 63.07 39.36 63.15 39.76 63.17C40.17 63.16 40.59 63.21 41 63.16C41.41 63.11 41.84 63.11 42.24 63.01C42.65 62.92 43.08 62.87 43.47 62.74C43.87 62.62 44.29 62.52 44.69 62.37L45.9 61.94L45.92 61.9ZM45.92 61.9L44.78 62.49C44.4 62.68 43.99 62.82 43.59 62.99C43.19 63.17 42.77 63.26 42.36 63.4C41.95 63.55 41.51 63.59 41.08 63.69C40.65 63.79 40.2 63.77 39.77 63.81C39.33 63.82 38.88 63.77 38.44 63.74C38.01 63.63 37.55 63.59 37.13 63.42C36.71 63.26 36.27 63.12 35.89 62.87L35.3 62.53L34.76 62.11C34.38 61.85 34.09 61.51 33.78 61.18C33.45 60.87 33.22 60.48 32.94 60.13C32.65 59.78 32.47 59.38 32.23 59C31.98 58.62 31.82 58.22 31.63 57.82C31.43 57.42 31.28 57.01 31.13 56.6C30.98 56.19 30.81 55.78 30.7 55.36L30.33 54.11L30.22 53.74L30.54 53.5C30.95 53.19 31.34 52.94 31.76 52.69C32.18 52.45 32.6 52.22 33.04 52.02C33.91 51.61 34.83 51.29 35.78 51.07C36.26 50.97 36.75 50.9 37.24 50.87C37.73 50.83 38.23 50.86 38.72 50.91C39.21 50.97 39.71 51.08 40.18 51.24C40.42 51.33 40.65 51.4 40.87 51.52C41.1 51.62 41.32 51.74 41.53 51.87C41.75 51.99 41.95 52.14 42.14 52.29C42.34 52.43 42.53 52.6 42.71 52.76C42.9 52.92 43.06 53.1 43.23 53.28C43.4 53.46 43.56 53.64 43.7 53.84C44 54.22 44.25 54.63 44.5 55.04L44.84 55.67C44.98 55.93 45.02 56.12 45.11 56.34C45.24 56.79 45.37 57.29 45.44 57.74C45.53 58.2 45.6 58.66 45.66 59.13C45.79 60.05 45.89 60.98 45.95 61.91L45.92 61.9Z" fill="#5B5C5C"/>
<path d="M54.23 61.9C54.29 60.97 54.38 60.05 54.52 59.12C54.58 58.66 54.65 58.19 54.74 57.73C54.81 57.28 54.94 56.78 55.07 56.33C55.16 56.1 55.2 55.9099 55.34 55.6599L55.68 55.03C55.93 54.62 56.17 54.21 56.48 53.83C56.62 53.63 56.78 53.45 56.95 53.27C57.11 53.09 57.28 52.91 57.47 52.75C57.65 52.58 57.83 52.42 58.03 52.28C58.23 52.13 58.43 51.98 58.64 51.86C58.85 51.73 59.07 51.61 59.3 51.51C59.52 51.39 59.76 51.31 59.99 51.23C60.46 51.07 60.95 50.96 61.45 50.9C61.95 50.85 62.44 50.82 62.94 50.86C63.43 50.88 63.92 50.96 64.4 51.06C65.35 51.28 66.27 51.6 67.14 52.01C67.58 52.21 68 52.44 68.42 52.68C68.84 52.93 69.23 53.18 69.64 53.49L69.96 53.73L69.85 54.0999L69.48 55.3499C69.37 55.7699 69.2 56.18 69.05 56.59C68.9 57 68.75 57.41 68.55 57.81C68.35 58.21 68.19 58.61 67.95 58.99C67.71 59.37 67.53 59.77 67.24 60.12C66.96 60.47 66.73 60.86 66.4 61.17C66.09 61.49 65.79 61.8399 65.41 62.0999L64.87 62.52L64.28 62.86C63.9 63.11 63.46 63.2499 63.04 63.4099C62.62 63.5799 62.16 63.62 61.73 63.73C61.28 63.76 60.84 63.81 60.4 63.8C59.96 63.76 59.51 63.78 59.08 63.68C58.65 63.58 58.21 63.54 57.8 63.39C57.39 63.25 56.96 63.16 56.57 62.98C56.17 62.81 55.76 62.67 55.38 62.48L54.24 61.89L54.23 61.9ZM54.23 61.9L55.44 62.33C55.84 62.48 56.26 62.58 56.66 62.7C57.06 62.84 57.48 62.8799 57.89 62.9699C58.3 63.0699 58.72 63.07 59.14 63.12C59.55 63.17 59.97 63.12 60.38 63.13C60.79 63.11 61.19 63.03 61.6 62.98C61.99 62.85 62.39 62.79 62.75 62.62C63.12 62.45 63.49 62.31 63.82 62.07L64.32 61.75L64.77 61.3499C65.09 61.1099 65.34 60.78 65.61 60.49C65.9 60.21 66.1 59.84 66.34 59.52C66.59 59.2 66.75 58.81 66.96 58.46C67.18 58.11 67.31 57.72 67.49 57.34C67.67 56.97 67.81 56.58 67.95 56.19C68.09 55.8 68.24 55.42 68.35 55.01L68.69 53.8L68.9 54.4099C68.57 54.1599 68.18 53.91 67.8 53.69C67.42 53.46 67.02 53.25 66.62 53.05C65.82 52.66 64.98 52.36 64.13 52.15C63.7 52.05 63.27 51.97 62.84 51.94C62.41 51.89 61.98 51.9 61.55 51.93C61.12 51.97 60.7 52.05 60.29 52.17C59.88 52.3 59.48 52.45 59.1 52.67C58.91 52.77 58.72 52.88 58.55 53C58.37 53.12 58.2 53.25 58.03 53.39C57.86 53.52 57.7 53.68 57.54 53.83C57.38 53.98 57.23 54.14 57.09 54.31C56.79 54.64 56.53 55.01 56.27 55.37L55.91 55.94C55.81 56.08 55.72 56.3399 55.62 56.5399C55.46 56.9599 55.31 57.36 55.19 57.81C55.06 58.25 54.94 58.7 54.83 59.15C54.72 59.6 54.62 60.05 54.52 60.5C54.42 60.95 54.32 61.4 54.22 61.86L54.23 61.9Z" fill="#5B5C5C"/>
<path d="M52.4 71.9C51.78 72.18 51.09 72.34 50.57 72.34C50.05 72.34 49.37 72.18 48.74 71.91C48.86 71.41 49.31 71.04 49.85 71.04C50.12 71.04 50.37 71.14 50.57 71.3C50.77 71.14 51.01 71.04 51.28 71.04C51.82 71.04 52.27 71.41 52.4 71.91V71.9Z" fill="#ED7693"/>
<path d="M51.9399 66.75C51.9399 66.93 51.3199 67.08 50.5399 67.08C49.7599 67.08 49.1499 66.93 49.1499 66.75C49.1499 66.57 49.8199 66.31 50.5899 66.31C51.3599 66.31 51.9399 66.57 51.9399 66.75Z" fill="#F7F7F7"/>
<path d="M50.6799 66.16C50.6799 66.16 50.5999 66.16 50.5599 66.16C50.5199 66.16 50.4799 66.16 50.4399 66.16C49.4399 66.16 47.5399 66.51 47.6799 67.5C47.9099 69.08 50.0699 68.12 50.0699 68.12C50.0699 68.12 50.1499 68.88 50.5199 68.88H50.5599H50.5999C50.9699 68.88 51.0499 68.12 51.0499 68.12C51.0499 68.12 53.2199 69.09 53.4399 67.5C53.5799 66.51 51.6799 66.16 50.6799 66.16Z" fill="#3B3A3C"/>
<path d="M50.5399 67.08C49.7699 67.08 49.1499 66.93 49.1499 66.75C49.1499 66.57 49.8199 66.31 50.5899 66.31C51.3599 66.31 51.9399 66.57 51.9399 66.75C51.9399 66.93 51.3199 67.08 50.5399 67.08Z" fill="#F7F8F8"/>
</svg>
