<svg width="102" height="102" viewBox="0 0 102 102" fill="none" xmlns="http://www.w3.org/2000/svg">
<path d="M92.67 0.530029H9.08002C4.29171 0.530029 0.410034 4.41173 0.410034 9.20004V92.79C0.410034 97.5783 4.29171 101.46 9.08002 101.46H92.67C97.4584 101.46 101.34 97.5783 101.34 92.79V9.20004C101.34 4.41173 97.4584 0.530029 92.67 0.530029Z" fill="#94A4A5"/>
<path d="M51.6301 80.25C50.6501 80.25 49.5101 80 48.4101 79.55C47.8601 79.44 47.3001 79.3 46.7401 79.15C44.8701 78.63 42.8701 77.85 40.9501 76.88C35.2401 75.17 29.0201 72.61 27.0901 64.13C26.7201 62.48 27.0101 59.75 27.9701 55.77C28.1701 54.81 28.4301 53.81 28.7601 52.79C30.0001 48.87 31.0001 46.26 32.0401 44.29C31.1501 44.17 30.3501 43.98 29.7501 43.73C27.6501 42.87 27.3001 42.29 26.0001 40.13C25.7401 39.7 25.4301 39.19 25.0601 38.58C24.4601 37.73 23.8201 36.75 23.1701 35.66C22.8001 35.11 22.4001 34.52 21.9501 33.88C21.1301 32.65 17.1601 26.47 18.2901 23.65C18.5801 22.92 19.1701 22.42 19.9501 22.25C20.8901 22.02 22.7201 21.77 24.9601 21.77C30.1001 21.77 42.0901 23.15 44.6401 35.73C45.6401 35.56 46.7101 35.43 47.8501 35.34C49.1801 35.13 50.4701 35.03 51.7001 35.03C52.8301 35.03 54.0401 35.13 55.3001 35.32C56.0001 35.37 56.6601 35.45 57.3201 35.54C59.8301 23.1 71.5601 21.73 76.5701 21.73C78.8701 21.73 80.7801 22 81.8101 22.25C82.5601 22.42 83.1501 22.91 83.4401 23.64C84.5501 26.39 80.7401 32.42 79.8601 33.75C79.6001 34.26 79.3401 34.73 79.0901 35.14C78.0701 36.85 77.1001 38.28 76.2101 39.4C75.9601 39.83 75.7501 40.19 75.5601 40.52C74.4601 42.43 74.0901 43.08 72.1701 43.95C71.9301 44.06 71.6601 44.17 71.3801 44.27C72.5001 46.43 73.4901 49.16 74.5701 52.48V52.51C74.9701 53.73 75.2701 54.84 75.4801 55.92C75.4801 55.92 75.4801 55.94 75.4801 55.95C76.4101 59.83 76.6801 62.5 76.3201 64.12C74.5501 71.91 69.0401 74.73 63.8601 76.43C61.3601 77.79 58.7001 78.81 56.1501 79.38C55.6001 79.5 55.0401 79.61 54.4501 79.69C53.4601 80.05 52.4901 80.24 51.6201 80.24L51.6301 80.25Z" fill="#2F150C"/>
<path d="M75.1601 38.68C75.9601 37.69 76.9001 36.35 78.0001 34.5C78.2401 34.09 78.5001 33.62 78.7701 33.11C80.9001 29.9 83.8801 24.04 81.5301 23.51C77.9601 22.64 60.8801 21.24 58.4501 36.7C58.4001 36.72 57.7701 36.88 57.7101 36.9C56.8701 36.76 56.0401 36.66 55.1801 36.6C54.0301 36.42 52.8701 36.31 51.7301 36.31C50.4801 36.31 49.2401 36.42 48.0301 36.62C46.6301 36.73 45.3601 36.9 44.2001 37.13C43.9701 37.05 43.7601 36.97 43.5601 36.9C41.1301 21.44 23.8201 22.64 20.2501 23.52C17.8901 24.05 20.9001 29.95 23.0301 33.15C23.4901 33.81 23.9001 34.42 24.2801 34.98C24.9601 36.13 25.5901 37.08 26.1501 37.87C28.3701 41.45 28.1901 41.69 30.2501 42.54C31.0901 42.88 32.6101 43.14 34.2201 43.15C32.7201 45.36 31.5001 48.43 30.0001 53.15V53.18C29.6901 54.12 29.4301 55.08 29.2301 56.05C28.4601 59.2 27.9701 62.19 28.3501 63.84C30.0801 71.46 35.5601 73.93 41.4301 75.67C43.3401 76.64 45.2701 77.4 47.0901 77.9C47.6701 78.06 48.2401 78.2 48.7901 78.3C49.7901 78.72 50.7901 78.95 51.6301 78.95C52.3801 78.95 53.2501 78.77 54.1401 78.44C54.7101 78.36 55.2901 78.26 55.8801 78.12C58.3301 77.57 60.9201 76.58 63.3501 75.24C68.6801 73.5 73.4701 70.86 75.0701 63.83C75.4301 62.22 74.9701 59.32 74.2401 56.24V56.22C74.0101 55.1 73.71 53.99 73.36 52.91V52.87C71.92 48.51 70.8001 45.6 69.4501 43.47C70.2901 43.28 71.0501 43.04 71.6401 42.77C73.4801 41.94 73.4301 41.57 75.1501 38.66L75.1601 38.68Z" fill="#2F150C"/>
<path d="M78.7401 33.16C80.8701 29.96 83.88 24.05 81.5201 23.52C77.9501 22.65 60.8701 21.25 58.4401 36.71C58.3901 36.73 57.7601 36.89 57.7001 36.91C55.8301 36.6 54.0701 36.49 51.7201 36.49C48.7701 36.49 46.2901 36.72 44.1901 37.13C43.9601 37.05 43.75 36.97 43.55 36.9C41.12 21.44 23.8101 22.64 20.2401 23.52C17.8801 24.05 20.8901 29.95 23.0201 33.15C28.7301 41.37 27.5001 41.42 30.2401 42.54C31.0801 42.88 32.6001 43.14 34.2101 43.15C32.7101 45.36 31.4901 48.43 29.9901 53.15V53.18C29.6801 54.12 29.4201 55.08 29.2201 56.05C28.4501 59.2 27.9601 62.19 28.3401 63.84C30.0701 71.46 35.5501 73.93 41.4201 75.67C43.3301 76.64 45.26 77.4 47.08 77.9C48.77 78.37 50.3501 78.62 51.7101 78.62C51.8101 78.62 51.9001 78.62 51.9901 78.62C53.2101 78.6 54.5201 78.43 55.8701 78.12C58.3201 77.57 60.9101 76.58 63.3401 75.24C68.6701 73.5 73.4601 70.86 75.0601 63.83C75.4201 62.22 74.9601 59.32 74.2301 56.24V56.22C74.0001 55.1 73.7001 53.99 73.3501 52.91V52.87C71.9101 48.51 70.7901 45.6 69.4401 43.47C70.2801 43.28 71.0401 43.04 71.6301 42.77C74.2701 41.57 73.0101 41.35 78.7201 33.14" fill="#997761"/>
<path d="M71.13 41.3399C71.65 41.3099 73.43 42.1599 78 34.5099C79.77 31.5299 82.43 25.3299 80.37 25.2499C79.15 25.2199 74.56 25.3299 70.6 26.9399C66.5 28.5599 63.03 31.6999 60.76 37.8899C57.04 38.8499 71.21 41.3099 71.13 41.3399Z" fill="#F8A081"/>
<path d="M31.1401 41.8199C30.6201 41.7899 28.8401 42.6399 24.2701 34.9899C22.5001 32.0099 19.8401 25.8099 21.9001 25.7299C23.1201 25.6999 27.7101 25.8099 31.6701 27.4199C35.7701 29.0399 39.2401 32.1799 41.5101 38.3699C45.2301 39.3299 31.0601 41.7899 31.1401 41.8199Z" fill="#F8A081"/>
<path d="M51.7201 78.6301C48.3001 78.6301 43.1901 76.5701 39.0101 73.5101C34.2101 70.0001 31.1901 65.6401 30.7001 61.5601C30.6501 61.1601 30.6301 60.7501 30.6301 60.3301C30.6301 52.1501 35.8101 42.2601 37.4801 40.6301C38.7501 39.3901 45.2401 36.3201 51.7201 36.3201C57.8201 36.3201 64.6201 39.3601 65.9701 40.6501C67.6901 42.3001 72.8101 52.1801 72.8101 60.3301C72.8101 60.6301 72.8001 60.93 72.7701 61.22C72.7701 61.33 72.7501 61.44 72.7401 61.55C71.7401 71.07 59.4501 78.4801 51.9601 78.6301H52.0001H51.7101" fill="#AD896C"/>
<path d="M33 56.5601C33 56.5601 37.45 65.7601 41.26 65.7601C44.18 65.7601 47.83 64.2701 47.83 64.2701C47.83 64.2701 49.38 48.9501 40.92 48.4601C37.12 48.2401 33 56.5701 33 56.5701" fill="#997761"/>
<path d="M70.51 56.5601C70.51 56.5601 66.06 65.7601 62.25 65.7601C59.33 65.7601 55.68 64.2701 55.68 64.2701C55.68 64.2701 54.13 48.9501 62.58 48.4601C66.39 48.2401 70.5 56.5701 70.5 56.5701" fill="#997761"/>
<path d="M37.1201 50.46C37.1201 50.46 37.1301 50.42 37.1701 50.36C37.2001 50.3 37.2501 50.2 37.3301 50.09C37.4001 49.97 37.5001 49.85 37.6201 49.7C37.7501 49.56 37.8801 49.4 38.0601 49.25C38.1501 49.18 38.2401 49.1 38.3401 49.02C38.4501 48.95 38.5601 48.88 38.6701 48.8C38.7801 48.72 38.9101 48.66 39.0401 48.6C39.1701 48.54 39.3001 48.46 39.4401 48.42C39.7201 48.32 40.0201 48.21 40.3401 48.17C40.6601 48.1 40.9801 48.1 41.3101 48.1C41.6401 48.1 41.9501 48.18 42.2701 48.23C42.5701 48.32 42.8701 48.43 43.1401 48.54C43.4001 48.68 43.6501 48.83 43.8801 48.97C44.1001 49.12 44.2801 49.3 44.4601 49.45C44.5501 49.53 44.6301 49.6 44.7001 49.68C44.7701 49.75 44.8301 49.84 44.8901 49.91C45.0101 50.05 45.1001 50.19 45.1801 50.29C45.3301 50.51 45.4101 50.64 45.4101 50.64C45.4101 50.64 45.2601 50.59 45.0201 50.49C44.9001 50.44 44.7501 50.38 44.6001 50.31C44.4501 50.23 44.2601 50.16 44.0601 50.09C43.8601 50.02 43.6601 49.93 43.4401 49.85C43.2101 49.79 42.9801 49.72 42.7501 49.64C42.5101 49.59 42.2601 49.54 42.0201 49.48C41.8901 49.48 41.7701 49.46 41.6501 49.44C41.5201 49.43 41.4001 49.4 41.2701 49.41C41.0201 49.41 40.7601 49.39 40.5201 49.43C40.3901 49.45 40.2701 49.43 40.1501 49.47C40.0301 49.49 39.9101 49.52 39.7901 49.53C39.6701 49.54 39.5501 49.59 39.4401 49.61C39.3201 49.64 39.2101 49.66 39.1001 49.7C38.8801 49.77 38.6701 49.84 38.4801 49.91C38.2801 49.97 38.1101 50.06 37.9401 50.12C37.7901 50.2 37.6401 50.25 37.5201 50.31C37.4001 50.36 37.3101 50.41 37.2501 50.44C37.1901 50.47 37.1501 50.49 37.1501 50.49L37.1201 50.46Z" fill="#382111"/>
<path d="M66.2401 50.4601C66.2401 50.4601 66.2001 50.44 66.1401 50.41C66.0801 50.38 65.9901 50.3401 65.8701 50.2801C65.7601 50.2201 65.6101 50.1701 65.4501 50.0901C65.2901 50.0301 65.1101 49.9401 64.9101 49.8801C64.7201 49.8001 64.5001 49.73 64.2901 49.67C64.1801 49.63 64.0701 49.6101 63.9501 49.5801C63.8301 49.5601 63.7201 49.5101 63.6001 49.5001C63.4801 49.4801 63.3601 49.4601 63.2401 49.4401C63.1201 49.4101 62.9901 49.4201 62.8701 49.4001C62.6201 49.3601 62.3701 49.3801 62.1201 49.3801C61.9901 49.3701 61.8701 49.4 61.7501 49.41C61.6201 49.43 61.5001 49.4401 61.3701 49.4501C61.1301 49.5101 60.8801 49.56 60.6401 49.61C60.4101 49.69 60.1801 49.7601 59.9501 49.8301C59.7301 49.9101 59.5301 50.0001 59.3301 50.0701C59.1301 50.1401 58.9401 50.21 58.7901 50.29C58.6301 50.37 58.4901 50.43 58.3701 50.48C58.1301 50.58 57.9801 50.6301 57.9801 50.6301C57.9801 50.6301 58.0501 50.5001 58.2101 50.2801C58.2901 50.1701 58.3801 50.0401 58.5001 49.9001C58.5601 49.8301 58.6201 49.75 58.6901 49.67C58.7601 49.6 58.8501 49.5301 58.9301 49.4401C59.1001 49.2901 59.2901 49.1201 59.5101 48.9601C59.7401 48.8201 59.9901 48.6801 60.2501 48.5301C60.5301 48.4201 60.8201 48.31 61.1201 48.22C61.4401 48.17 61.7501 48.0901 62.0801 48.0901C62.4101 48.0901 62.7401 48.09 63.0501 48.16C63.3701 48.2 63.6701 48.31 63.9501 48.41C64.0901 48.46 64.2201 48.5301 64.3501 48.5901C64.4801 48.6601 64.6101 48.71 64.7201 48.79C64.8301 48.87 64.9401 48.9401 65.0501 49.0101C65.1501 49.0901 65.2401 49.1701 65.3301 49.2401C65.5101 49.3901 65.6501 49.5601 65.7701 49.6901C65.8901 49.8301 65.9901 49.9601 66.0601 50.0801C66.1301 50.1901 66.1801 50.29 66.2101 50.35C66.2501 50.41 66.2601 50.4501 66.2601 50.4501L66.2401 50.4601Z" fill="#382111"/>
<path d="M47.8301 64.26C40.8101 67.6 35.8701 65.44 33.6401 56.77C33.6401 56.77 42.0801 50.21 46.5601 58.62C47.2601 59.92 47.8201 64.26 47.8201 64.26" fill="white"/>
<path d="M41.04 64.81C39.09 64.77 37.45 63.23 36.83 61.08C36.64 60.43 36.54 59.71 36.55 58.98C36.61 55.99 38.47 54.93 40.81 54.86C40.95 54.86 41.1 54.86 41.25 54.86C43.79 54.91 45.72 57.56 45.77 59.18C45.85 62.35 43.59 64.88 41.04 64.82" fill="#7C4E27"/>
<path d="M41.0601 64C39.5801 63.97 38.2901 62.7 37.7601 60.78C37.5901 60.16 37.5101 59.52 37.5201 58.86C37.5701 56.63 38.6201 55.56 40.8401 55.49C40.9501 55.49 41.0601 55.49 41.1701 55.49H41.2301C43.2301 55.54 44.7601 57.87 44.7901 59.07C44.8301 60.52 44.3401 61.9 43.4601 62.86C42.7901 63.6 41.9501 64 41.1101 64H41.0501" fill="#543521"/>
<path d="M55.66 64.26C62.68 67.6 67.62 65.44 69.84 56.77C69.84 56.77 61.4 50.21 56.92 58.62C56.23 59.92 55.66 64.26 55.66 64.26Z" fill="white"/>
<path d="M62.4401 64.81C64.3901 64.77 66.0301 63.23 66.6501 61.08C66.8501 60.43 66.9401 59.71 66.9301 58.98C66.8701 55.99 65.0101 54.93 62.6701 54.86C62.5301 54.86 62.3801 54.86 62.2401 54.86C59.7001 54.91 57.7701 57.56 57.7201 59.18C57.6301 62.35 59.9001 64.88 62.4401 64.82" fill="#7C4E27"/>
<path d="M62.36 64C61.52 64 60.68 63.6 60.01 62.86C59.13 61.9 58.64 60.52 58.68 59.07C58.71 57.87 60.24 55.53 62.25 55.49H62.3C62.41 55.49 62.52 55.49 62.63 55.49C64.85 55.56 65.9 56.63 65.95 58.85C65.96 59.52 65.89 60.16 65.71 60.77C65.18 62.7 63.88 63.96 62.4 63.99H62.34" fill="#543521"/>
<path d="M41.35 57.78C41.31 59.7 40.0301 61.23 38.4801 61.2C37.7801 61.18 37.16 60.85 36.68 60.32C36.51 59.75 36.43 59.12 36.44 58.47C36.49 55.85 38.1201 54.92 40.1701 54.86C40.9101 55.5 41.38 56.57 41.35 57.78Z" fill="white"/>
<path d="M43.7701 63.33C43.7501 63.98 43.3201 64.5 42.8001 64.49C42.2701 64.49 41.8601 63.94 41.8801 63.29C41.9001 62.64 42.3301 62.12 42.8501 62.13C43.3701 62.13 43.7801 62.67 43.7701 63.33Z" fill="white"/>
<path d="M62.32 58.07C62.28 59.99 61 61.52 59.45 61.49C58.75 61.47 58.13 61.14 57.65 60.61C57.48 60.04 57.4 59.41 57.41 58.76C57.47 56.14 59.09 55.21 61.14 55.15C61.88 55.79 62.35 56.86 62.32 58.07Z" fill="white"/>
<path d="M55.4801 66.3101C55.4801 70.1801 53.3401 68.35 51.6601 68.35C49.9801 68.35 47.9401 70.0101 47.9401 66.1401C47.9401 62.2701 49.9801 54.3401 51.6601 54.3401C53.3401 54.3401 55.4801 62.4401 55.4801 66.3101Z" fill="#DFC0A9"/>
<path d="M64.94 63.33C64.92 63.98 64.49 64.5 63.97 64.49C63.44 64.49 63.03 63.94 63.05 63.29C63.06 62.64 63.49 62.12 64.02 62.13C64.54 62.13 64.95 62.67 64.94 63.33Z" fill="white"/>
<path d="M47.8301 64.2601C47.8301 64.2601 47.2601 59.9301 46.5701 58.6201C44.8201 55.3301 42.4601 54.3401 40.2401 54.3401C36.7801 54.3401 33.6401 56.7701 33.6401 56.7701C33.6401 56.7701 36.7701 54.3401 40.2401 54.3401C42.4601 54.3401 44.8201 55.3401 46.5701 58.6201C47.2501 59.9101 47.8101 64.1301 47.8301 64.2601Z" fill="#927361"/>
<path d="M46.5601 64.8101C46.3301 63.5701 46.0201 62.18 45.6801 61.54C45.6201 61.42 45.5501 61.3101 45.4901 61.2001C45.6901 60.5701 45.7901 59.89 45.7701 59.17C45.7201 57.55 43.8001 54.9 41.2501 54.85H41.1801C41.0601 54.85 40.9401 54.85 40.8101 54.85C40.6001 54.85 40.4001 54.8701 40.2001 54.8901C40.1901 54.8901 40.1701 54.87 40.1601 54.86C38.3101 54.91 36.8101 55.6701 36.4901 57.7501C35.6201 58.0401 34.8401 58.4101 34.2301 58.7501C34.1601 58.5501 34.0901 58.3501 34.0201 58.1401C33.8801 57.7101 33.7501 57.2501 33.6301 56.7701C33.6301 56.7701 36.7601 54.3401 40.2301 54.3401C42.4501 54.3401 44.8001 55.3401 46.5601 58.6201C47.2601 59.9201 47.8201 64.2601 47.8201 64.2601C47.3901 64.4701 46.9701 64.6501 46.5601 64.8101Z" fill="#E2E1E1"/>
<path d="M45.4901 61.1901C45.2501 60.7701 45.0001 60.4001 44.7501 60.0601C44.8001 59.7401 44.8101 59.4001 44.8101 59.0701C44.7801 57.8701 43.2501 55.5301 41.2501 55.4901H41.1901C41.0801 55.4901 40.9701 55.4901 40.8601 55.4901C40.8201 55.4901 40.7801 55.4901 40.7401 55.4901C40.5901 55.2601 40.4101 55.0601 40.2201 54.8801C40.4201 54.8601 40.6201 54.8401 40.8301 54.8401C40.9501 54.8401 41.0701 54.8401 41.2001 54.8401H41.2701C43.8101 54.8901 45.7401 57.54 45.7901 59.16C45.8101 59.88 45.7101 60.5601 45.5101 61.1901" fill="#794F2C"/>
<path d="M44.7401 60.06C43.7101 58.7 42.5401 57.93 41.3401 57.55C41.3201 56.77 41.0901 56.06 40.7201 55.49C40.7601 55.49 40.8001 55.49 40.8401 55.49C40.9501 55.49 41.0601 55.49 41.1701 55.49H41.2301C43.2301 55.54 44.7601 57.87 44.7901 59.07C44.7901 59.4 44.7801 59.74 44.7301 60.06" fill="#553926"/>
<path d="M36.5 57.75C36.82 55.68 38.32 54.92 40.17 54.86C40.18 54.86 40.2 54.88 40.21 54.89C40.4 55.06 40.58 55.27 40.73 55.5C41.1 56.06 41.33 56.78 41.35 57.56C40.69 57.35 40.01 57.26 39.35 57.26C38.35 57.26 37.38 57.46 36.5 57.75Z" fill="#E2E1E1"/>
<path d="M55.66 64.26C55.66 64.26 55.66 64.22 55.67 64.15C55.67 64.22 55.66 64.26 55.66 64.26Z" fill="#A3836A"/>
<path d="M55.67 64.1501C55.76 63.4701 56.29 59.8001 56.92 58.6201C56.29 59.8001 55.77 63.4801 55.67 64.1501ZM69.44 58.2001C69.58 57.7501 69.72 57.2701 69.85 56.7701C69.85 56.7701 66.72 54.3401 63.25 54.3401C62.07 54.3401 60.86 54.6201 59.72 55.3701C60.86 54.6201 62.08 54.3401 63.25 54.3401C66.71 54.3401 69.85 56.7701 69.85 56.7701C69.72 57.2701 69.59 57.7401 69.44 58.2001Z" fill="#927361"/>
<path d="M56.92 64.8101C56.51 64.6501 56.09 64.4701 55.66 64.2601C55.66 64.2601 55.66 64.2201 55.67 64.1501C55.76 63.4801 56.29 59.8001 56.92 58.6201C57.13 58.2201 57.35 57.8601 57.58 57.5201C57.48 57.8801 57.42 58.2901 57.41 58.7501C57.4 59.4001 57.48 60.02 57.65 60.6C57.73 60.69 57.81 60.77 57.9 60.85C57.93 60.96 57.96 61.0801 58 61.1901C57.94 61.3001 57.87 61.4201 57.81 61.5301C57.47 62.1701 57.16 63.56 56.93 64.8M69.25 58.7401C68.58 58.3701 67.72 57.97 66.76 57.67C66.25 55.66 64.63 54.9001 62.67 54.8401C62.55 54.8401 62.43 54.8401 62.3 54.8401H62.23C61.71 54.8401 61.22 54.97 60.76 55.17C60.39 55.2 60.04 55.26 59.71 55.36C60.85 54.61 62.06 54.3301 63.24 54.3301C66.7 54.3301 69.84 56.7601 69.84 56.7601C69.71 57.2601 69.58 57.7301 69.43 58.1901C69.37 58.3801 69.31 58.5601 69.25 58.7401Z" fill="#E2E1E1"/>
<path d="M58 61.19C57.96 61.08 57.93 60.96 57.9 60.85C57.96 60.9 58.03 60.96 58.1 61.01C58.06 61.07 58.03 61.13 57.99 61.19M66.77 57.68C66.44 57.58 66.1 57.49 65.75 57.42C65.33 56.17 64.32 55.55 62.65 55.5C62.54 55.5 62.43 55.5 62.32 55.5H62.27C62.03 55.5 61.8 55.54 61.57 55.61C61.44 55.45 61.3 55.29 61.15 55.17C61.02 55.17 60.9 55.17 60.77 55.19C61.23 54.99 61.72 54.87 62.24 54.86H62.31C62.43 54.86 62.55 54.86 62.68 54.86C64.65 54.92 66.27 55.68 66.77 57.69" fill="#794F2C"/>
<path d="M62.3 57.51C62.22 56.78 61.9601 56.11 61.5601 55.6C61.7901 55.54 62.0201 55.5 62.2601 55.49H62.3101C62.4201 55.49 62.5301 55.49 62.6401 55.49C64.3101 55.54 65.3201 56.16 65.7401 57.41C65.2201 57.31 64.6801 57.25 64.1301 57.25C63.5201 57.25 62.9101 57.32 62.2901 57.5" fill="#553926"/>
<path d="M58.1 61.01C58.03 60.96 57.96 60.9 57.9 60.85C57.81 60.77 57.73 60.69 57.65 60.6C57.48 60.03 57.4 59.4 57.41 58.75C57.41 58.29 57.48 57.88 57.58 57.52C58.24 56.56 58.96 55.86 59.71 55.36C60.04 55.26 60.39 55.2 60.76 55.17C60.88 55.16 61.01 55.15 61.14 55.15C61.29 55.28 61.43 55.43 61.56 55.59C61.95 56.1 62.22 56.77 62.3 57.5C60.8 57.93 59.32 58.97 58.11 61.01" fill="#E2E1E1"/>
<path d="M47.83 64.26C47.74 63.83 47.64 63.3999 47.55 62.9699C47.46 62.5399 47.37 62.12 47.26 61.69C47.16 61.26 47.05 60.84 46.92 60.43C46.8 60 46.67 59.63 46.51 59.23C46.42 59.05 46.33 58.8 46.24 58.67L45.9 58.13C45.66 57.78 45.41 57.43 45.13 57.12C44.99 56.96 44.85 56.81 44.7 56.67C44.56 56.52 44.4 56.38 44.24 56.25C44.08 56.11 43.92 55.99 43.75 55.88C43.58 55.76 43.41 55.65 43.23 55.56C42.88 55.36 42.49 55.22 42.11 55.09C41.72 54.97 41.32 54.9 40.92 54.86C40.51 54.83 40.11 54.82 39.7 54.86C39.29 54.89 38.89 54.97 38.49 55.06C37.68 55.25 36.9 55.5399 36.14 55.9099C35.76 56.0899 35.39 56.29 35.03 56.51C34.67 56.72 34.31 56.96 33.99 57.19L34.19 56.61L34.51 57.75C34.61 58.13 34.75 58.5 34.88 58.86C35.01 59.23 35.14 59.6 35.31 59.95C35.47 60.3 35.61 60.67 35.81 61C36.01 61.33 36.16 61.7 36.4 62C36.63 62.3 36.82 62.6499 37.09 62.9099C37.35 63.1899 37.58 63.4899 37.89 63.7199L38.32 64.09L38.8 64.4C39.11 64.63 39.46 64.76 39.81 64.92C40.15 65.08 40.53 65.14 40.9 65.26C41.28 65.31 41.66 65.39 42.05 65.4C42.44 65.4 42.83 65.44 43.22 65.38C43.61 65.33 44.01 65.33 44.39 65.24C44.78 65.15 45.18 65.11 45.56 64.98C45.94 64.86 46.33 64.77 46.71 64.63L47.85 64.2199L47.83 64.26ZM47.83 64.26L46.75 64.82C46.39 65 46 65.1299 45.63 65.2899C45.25 65.4599 44.85 65.54 44.46 65.67C44.07 65.81 43.66 65.85 43.26 65.94C42.86 66.04 42.44 66.01 42.02 66.06C41.6 66.06 41.19 66.02 40.76 65.99C40.35 65.89 39.92 65.85 39.52 65.69C39.12 65.54 38.71 65.4 38.35 65.17L37.8 64.8499L37.29 64.46C36.93 64.22 36.66 63.89 36.36 63.59C36.05 63.29 35.83 62.9299 35.57 62.5999C35.3 62.2699 35.13 61.8899 34.9 61.5399C34.67 61.1899 34.52 60.8 34.33 60.43C34.14 60.06 33.99 59.67 33.86 59.28C33.72 58.89 33.56 58.51 33.45 58.11L33.1 56.92L33 56.57L33.3 56.34C33.69 56.05 34.05 55.81 34.45 55.57C34.84 55.34 35.25 55.13 35.66 54.94C36.48 54.55 37.35 54.2399 38.25 54.0399C38.7 53.9399 39.16 53.8799 39.63 53.8499C40.09 53.8099 40.56 53.84 41.03 53.89C41.5 53.95 41.96 54.05 42.41 54.2C42.63 54.28 42.86 54.35 43.07 54.46C43.28 54.56 43.49 54.67 43.69 54.8C43.89 54.92 44.08 55.05 44.27 55.2C44.46 55.33 44.63 55.49 44.8 55.64C44.97 55.79 45.13 55.96 45.29 56.13C45.45 56.3 45.6 56.4699 45.73 56.6599C46.01 57.0199 46.25 57.3999 46.48 57.7899L46.8 58.39C46.93 58.63 46.97 58.81 47.05 59.02C47.18 59.45 47.29 59.92 47.36 60.34C47.44 60.77 47.51 61.21 47.57 61.64C47.69 62.51 47.79 63.39 47.84 64.26H47.83Z" fill="#382111"/>
<path d="M55.66 64.2601C55.71 63.3901 55.81 62.5101 55.93 61.6401C55.99 61.2101 56.06 60.7701 56.14 60.3401C56.21 59.9101 56.33 59.4401 56.45 59.0201C56.54 58.8101 56.58 58.6301 56.7 58.3901L57.02 57.79C57.25 57.4 57.48 57.02 57.77 56.66C57.91 56.47 58.05 56.3001 58.21 56.1301C58.36 55.9601 58.52 55.7901 58.7 55.6401C58.87 55.4801 59.04 55.3301 59.23 55.2001C59.41 55.0601 59.6 54.92 59.81 54.8C60.01 54.67 60.21 54.5601 60.43 54.4601C60.64 54.3501 60.86 54.2701 61.08 54.2001C61.52 54.0501 61.99 53.9501 62.46 53.8901C62.93 53.8401 63.4 53.82 63.86 53.85C64.33 53.88 64.78 53.94 65.24 54.04C66.14 54.24 67.01 54.5501 67.83 54.9401C68.24 55.1301 68.65 55.3401 69.04 55.5701C69.44 55.8001 69.8 56.0401 70.19 56.3401L70.49 56.5701L70.39 56.92L70.04 58.11C69.93 58.51 69.78 58.8901 69.63 59.2801C69.49 59.6701 69.34 60.06 69.16 60.43C68.97 60.8 68.82 61.19 68.59 61.54C68.36 61.89 68.19 62.27 67.92 62.6C67.66 62.93 67.44 63.3001 67.13 63.5901C66.84 63.8901 66.55 64.2101 66.2 64.4601L65.7 64.85L65.14 65.17C64.78 65.41 64.37 65.5401 63.97 65.6901C63.57 65.8501 63.14 65.89 62.73 65.99C62.31 66.02 61.89 66.07 61.47 66.06C61.05 66.02 60.63 66.0401 60.23 65.9401C59.83 65.8501 59.41 65.81 59.03 65.67C58.64 65.54 58.24 65.46 57.87 65.29C57.49 65.13 57.11 65.0001 56.75 64.8201L55.67 64.2601H55.66ZM55.66 64.2601L56.8 64.67C57.18 64.81 57.57 64.9001 57.95 65.0201C58.33 65.1501 58.73 65.1901 59.12 65.2801C59.5 65.3801 59.91 65.38 60.29 65.42C60.68 65.47 61.07 65.4201 61.46 65.4401C61.85 65.4201 62.23 65.34 62.61 65.3C62.97 65.18 63.35 65.1201 63.7 64.9601C64.05 64.8001 64.4 64.6701 64.71 64.4401L65.19 64.1301L65.62 63.7601C65.92 63.5301 66.16 63.2301 66.42 62.9501C66.69 62.6901 66.88 62.34 67.11 62.04C67.35 61.74 67.5 61.37 67.7 61.04C67.91 60.71 68.04 60.34 68.2 59.99C68.37 59.64 68.51 59.2701 68.63 58.9001C68.76 58.5301 68.91 58.17 69 57.79L69.32 56.6501L69.52 57.23C69.2 57 68.84 56.76 68.48 56.55C68.12 56.33 67.75 56.1301 67.37 55.9501C66.61 55.5801 65.82 55.3 65.02 55.1C64.61 55.01 64.21 54.9301 63.8 54.9001C63.39 54.8501 62.99 54.8601 62.58 54.9001C62.17 54.9401 61.78 55.0101 61.39 55.1301C61.01 55.2601 60.62 55.39 60.27 55.6C60.09 55.69 59.92 55.8 59.75 55.92C59.58 56.03 59.41 56.16 59.26 56.29C59.1 56.41 58.95 56.5601 58.8 56.7101C58.65 56.8501 58.51 57 58.37 57.16C58.09 57.47 57.84 57.82 57.6 58.17L57.26 58.7101C57.17 58.8401 57.08 59.0901 56.99 59.2701C56.84 59.6701 56.7 60.04 56.58 60.47C56.45 60.89 56.34 61.31 56.24 61.73C56.13 62.15 56.04 62.5801 55.95 63.0101C55.85 63.4401 55.76 63.87 55.67 64.3L55.66 64.2601Z" fill="#382111"/>
<path d="M44.1401 72.43C44.1401 76.45 48.8201 78.96 51.6301 78.96C54.4401 78.96 59.1201 76.45 59.1201 72.43C59.1201 68.41 54.4401 64.38 51.6301 64.38C48.8201 64.38 44.1401 68.4 44.1401 72.43Z" fill="#DFC0A9"/>
<path d="M46.8 72.65C46.8 74.99 48.2901 75.95 49.6801 75.95C51.0701 75.95 52.0401 75.02 51.7301 72.44C51.5101 70.69 51.2101 69.88 49.8201 69.88C47.5701 69.88 46.8 71.74 46.8 72.66" fill="#DFC0A9"/>
<path d="M56.4701 72.65C56.4701 74.99 54.9801 75.95 53.5901 75.95C52.2001 75.95 51.2301 75.02 51.5501 72.44C51.7601 70.69 52.0701 69.88 53.4601 69.88C55.7101 69.88 56.4801 71.74 56.4801 72.66" fill="#DFC0A9"/>
<path d="M56.48 73.41C56.45 73.22 56.4 73.04 56.33 72.88C56.27 72.72 56.18 72.58 56.11 72.45C56.03 72.33 55.95 72.22 55.89 72.14C55.75 71.98 55.67 71.89 55.67 71.89C55.67 71.89 55.74 71.98 55.88 72.15C55.94 72.23 56.01 72.34 56.09 72.46C56.15 72.59 56.24 72.72 56.29 72.89C56.35 73.05 56.4 73.23 56.42 73.42C56.44 73.51 56.42 73.61 56.44 73.71C56.44 73.81 56.43 73.91 56.4 74.01C56.36 74.22 56.28 74.42 56.16 74.62C56.04 74.82 55.88 75 55.69 75.16C55.5 75.32 55.28 75.46 55.04 75.58C54.8 75.69 54.55 75.78 54.29 75.83C54.03 75.88 53.78 75.9 53.54 75.9C53.3 75.9 53.07 75.86 52.88 75.8C52.78 75.78 52.69 75.74 52.61 75.71C52.53 75.67 52.45 75.64 52.38 75.6C52.31 75.56 52.25 75.53 52.19 75.49C52.13 75.45 52.09 75.42 52.04 75.39C51.95 75.33 51.9 75.26 51.85 75.23C51.81 75.19 51.76 75.18 51.76 75.18V73.05H51.5V75.19C51.5 75.19 51.44 75.19 51.4 75.23C51.35 75.27 51.3 75.33 51.21 75.39C51.16 75.42 51.12 75.46 51.06 75.49C51 75.53 50.94 75.56 50.87 75.6C50.8 75.63 50.72 75.67 50.64 75.71C50.55 75.74 50.46 75.78 50.36 75.8C50.16 75.86 49.94 75.89 49.7 75.9C49.46 75.9 49.2 75.88 48.95 75.83C48.69 75.78 48.44 75.69 48.2 75.58C47.96 75.47 47.74 75.33 47.55 75.16C47.36 75 47.2 74.82 47.08 74.62C46.97 74.42 46.88 74.22 46.84 74.01C46.81 73.91 46.81 73.81 46.8 73.71C46.8 73.61 46.8 73.51 46.82 73.42C46.84 73.23 46.89 73.05 46.95 72.89C47.01 72.73 47.09 72.59 47.16 72.46C47.23 72.34 47.31 72.23 47.37 72.15C47.5 71.98 47.58 71.89 47.58 71.89C47.58 71.89 47.5 71.98 47.36 72.14C47.3 72.22 47.22 72.33 47.14 72.45C47.07 72.58 46.98 72.71 46.92 72.88C46.85 73.04 46.8 73.22 46.77 73.41C46.75 73.5 46.75 73.61 46.74 73.71C46.74 73.81 46.74 73.92 46.77 74.02C46.8 74.23 46.88 74.44 47 74.65C47.11 74.86 47.28 75.05 47.46 75.22C47.65 75.4 47.88 75.55 48.12 75.67C48.37 75.79 48.63 75.9 48.91 75.95C49.18 76.01 49.45 76.04 49.72 76.04C49.98 76.04 50.23 76 50.45 75.95C50.56 75.93 50.66 75.89 50.76 75.86C50.85 75.82 50.94 75.79 51.02 75.75C51.09 75.71 51.16 75.67 51.23 75.63C51.29 75.59 51.35 75.55 51.39 75.52C51.49 75.45 51.55 75.38 51.61 75.35L51.63 75.33L51.66 75.35C51.66 75.35 51.77 75.46 51.87 75.52C51.92 75.55 51.97 75.59 52.04 75.63C52.1 75.67 52.18 75.71 52.25 75.75C52.33 75.79 52.42 75.82 52.51 75.86C52.61 75.89 52.7 75.93 52.82 75.95C53.04 76.01 53.29 76.03 53.55 76.04C53.81 76.04 54.08 76.01 54.36 75.95C54.63 75.89 54.89 75.79 55.14 75.67C55.39 75.55 55.61 75.4 55.8 75.22C55.99 75.05 56.15 74.85 56.27 74.65C56.38 74.44 56.46 74.23 56.49 74.02C56.51 73.92 56.51 73.81 56.52 73.71C56.51 73.61 56.52 73.51 56.49 73.41H56.48Z" fill="#382111"/>
<path d="M51.24 71.93C51.08 72.28 50.3701 72.2999 49.6401 71.9699C48.9201 71.6399 48.45 71.1 48.61 70.75C48.77 70.4 49.48 70.38 50.21 70.71C50.94 71.04 51.4 71.58 51.24 71.93Z" fill="#010101"/>
<path d="M52.0701 71.93C52.2301 72.28 52.9401 72.2999 53.6701 71.9699C54.4001 71.6399 54.8601 71.1 54.7001 70.75C54.5401 70.4 53.8301 70.38 53.1001 70.71C52.3801 71.04 51.9101 71.58 52.0701 71.93Z" fill="#010101"/>
<path d="M53.4801 66.89C52.8701 66.54 52.4101 66.47 51.6601 66.47C50.9101 66.47 50.5301 66.49 49.8801 66.89C48.5301 67.72 47.2401 68.67 47.5601 70.26C47.6901 70.9 48.4001 71.69 49.0301 71.69C49.4101 71.69 49.6101 71.44 49.7601 71.25C49.8201 71.18 49.9001 71.08 49.9301 71.08C49.9701 71.08 50.1101 71.14 50.5001 71.93C50.6501 72.22 50.7201 72.44 50.7801 72.6C50.9301 73.05 51.0201 73.15 51.6501 73.15C52.2701 73.15 52.3601 73.05 52.5201 72.6C52.5701 72.44 52.6501 72.22 52.8001 71.93C53.1901 71.14 53.3401 71.08 53.3701 71.08C53.4101 71.08 53.4901 71.18 53.5401 71.25C53.6901 71.44 53.8901 71.69 54.2701 71.69C54.9001 71.69 55.6101 70.9 55.7401 70.26C56.0901 68.56 54.7501 67.63 53.4701 66.89" fill="#3E321C"/>
<path d="M49.4 68.84C49.4 69.57 50.78 69.6799 51.66 69.6799C52.54 69.6799 53.85 69.57 53.85 68.84C53.85 68.11 52.55 67.1599 51.67 67.1599C50.79 67.1599 49.41 68.11 49.41 68.84" fill="white"/>
<path d="M51.6501 69.6799C50.7701 69.6799 49.3901 69.57 49.3901 68.84C49.3901 68.11 50.7701 67.1599 51.6501 67.1599C52.5301 67.1599 53.8301 68.11 53.8301 68.84C53.8301 69.57 52.5301 69.6799 51.6401 69.6799" fill="white"/>
<path d="M62.66 38.23L62.69 38.26L62.66 38.23Z" fill="#7A624E"/>
</svg>
