<svg width="102" height="102" viewBox="0 0 102 102" fill="none" xmlns="http://www.w3.org/2000/svg">
<path d="M92.87 0.299988H9.28C4.49169 0.299988 0.609985 4.18166 0.609985 8.96997V92.56C0.609985 97.3483 4.49169 101.23 9.28 101.23H92.87C97.6583 101.23 101.54 97.3483 101.54 92.56V8.96997C101.54 4.18166 97.6583 0.299988 92.87 0.299988Z" fill="#DBBD64"/>
<path d="M51.29 76.27C47.04 76.27 41.1 74.17 36.16 70.91C30.27 67.03 26.68 62.24 26.04 57.4C25.97 56.9 25.93 56.36 25.93 55.83C25.93 54.89 25.97 53.95 26.04 53.02C25.99 53.02 25.95 53.02 25.9 53.02C23.72 53.02 20.6 52.75 18.67 50.46C17.06 48.55 16.6 45.69 17.27 41.73C17.2 41.29 16.67 39.94 16.24 38.85C15.38 36.67 14.32 33.98 13.9 31.61C13.79 31.24 13.45 29.96 13.68 28.65C13.99 26.94 14.95 25.8 16.25 25.6C16.35 25.58 16.45 25.58 16.55 25.58C16.91 25.58 17.21 25.68 17.43 25.77C17.94 25.91 18.39 26.19 18.74 26.45C23.2666 28.25 26.0833 29.25 27.19 29.45C28.94 29.75 33.35 31.23 36.14 33.35C39.7 31.09 44.56 30.03 51.27 30.03C57.44 30.03 62.38 31.08 65.98 33.15C68.74 31.02 73.16 29.5 74.92 29.18C75.8 29.02 76.34 28.81 77.78 28.24C78.9 27.8 80.59 27.13 83.36 26.14C83.72 25.87 84.17 25.59 84.7 25.44C84.92 25.35 85.21 25.25 85.55 25.25C85.63 25.25 85.71 25.25 85.79 25.27C87.1 25.43 88.12 26.6 88.44 28.32C88.68 29.63 88.35 30.91 88.24 31.28C87.83 33.65 86.79 36.35 85.94 38.53C85.52 39.62 84.99 40.97 84.93 41.41C85.63 45.38 85.18 48.24 83.57 50.17C81.71 52.4 78.7 52.73 76.5 52.75C76.59 53.77 76.64 54.8 76.64 55.83C76.64 56.2 76.62 56.57 76.59 56.93C76.58 57.06 76.56 57.2 76.55 57.33C75.98 62.21 72.63 66.98 67.13 70.77C62.26 74.12 56.46 76.18 51.6 76.26H51.28L51.29 76.27Z" fill="#2F150C"/>
<path d="M85.6301 26.61C85.4701 26.59 85.3101 26.64 85.1501 26.72C84.7901 26.79 84.4301 27.02 84.0401 27.32C83.9801 27.34 83.9301 27.37 83.8701 27.39C77.5201 29.67 76.9701 30.18 75.1801 30.5C73.3801 30.83 68.8501 32.46 66.4301 34.52C66.3301 34.6 66.2701 34.73 66.2401 34.88C63.0201 32.69 58.2101 31.37 51.2901 31.37C43.6501 31.37 39.0701 32.77 35.9501 35.13C35.9201 34.96 35.8601 34.82 35.7501 34.73C33.3201 32.68 28.7801 31.07 26.9801 30.76C25.7801 30.5467 22.8767 29.5234 18.2701 27.69C18.2001 27.66 18.1401 27.63 18.0701 27.6C17.7001 27.32 17.3501 27.1 17.0101 27.03C16.8201 26.94 16.6501 26.89 16.4701 26.92C15.6701 27.04 15.1901 27.94 15.0201 28.88C14.8101 30.05 15.2201 31.27 15.2201 31.27C15.9001 35.33 18.8001 40.83 18.6201 41.85C16.9301 51.62 22.9001 51.85 27.5401 51.62C27.3701 52.96 27.2801 54.36 27.2801 55.82C27.2801 56.29 27.3101 56.76 27.3701 57.22C28.6701 67.11 43.4901 74.92 51.2901 74.92C51.3901 74.92 51.4901 74.92 51.5901 74.92C60.6601 74.75 74.0801 66.98 75.2301 57.17C75.2401 57.05 75.2601 56.93 75.2701 56.81C75.3001 56.49 75.3101 56.16 75.3101 55.83C75.3101 54.28 75.2001 52.8 75.0101 51.38C79.6001 51.55 85.3101 51.13 83.6001 41.55C83.4201 40.52 86.2901 35.01 86.9501 30.95C86.9501 30.95 86.9501 30.95 86.9501 30.96C86.9501 30.96 87.3501 29.74 87.1301 28.57C86.9601 27.62 86.4601 26.72 85.6401 26.61H85.6301Z" fill="#2F150C"/>
<path d="M34.2201 34.68C34.2201 34.68 32.5601 33.62 31.7601 32.91C29.3101 30.77 26.2701 30.93 21.7901 29.94C18.9701 29.32 17.6101 26 15.9601 27.32C12.8601 29.81 18.8701 40.38 18.6201 41.85C16.5301 53.91 26.1201 51.43 30.4601 51.51L34.2201 34.68Z" fill="#D39898"/>
<path d="M15.2201 31.2801C15.4301 28.8401 15.6601 27.7001 18.3501 29.5901C21.8901 32.0701 25.2901 32.31 27.7701 33.7C31.4201 35.73 30.9701 37.51 31.8601 40.05C32.7701 42.65 36.9801 35.78 35.7501 34.75C33.3201 32.7 28.7801 31.0901 26.9801 30.7801C25.7801 30.5667 22.8767 29.5434 18.2701 27.7101C17.3801 27.3501 16.9501 26.87 16.4701 26.94C15.6701 27.06 15.1901 27.9601 15.0201 28.9001C14.8101 30.0701 15.2201 31.29 15.2201 31.29V31.2801Z" fill="#E5A8A8"/>
<path d="M67.9601 34.46C67.9601 34.46 69.6101 33.38 70.4101 32.67C72.8501 30.52 75.8901 30.66 80.3601 29.65C83.1801 29.01 84.5201 25.69 86.1701 27C89.2901 29.48 83.3301 40.08 83.5901 41.55C85.7501 53.59 76.1601 51.17 71.8301 51.27L67.9601 34.46Z" fill="#D39898"/>
<path d="M86.9401 30.96C86.7201 28.52 86.6001 27.55 83.8001 29.28C79.2801 32.08 76.8801 32.04 74.4001 33.44C70.7601 35.48 71.2201 37.27 70.3501 39.81C69.4501 42.41 65.2101 35.57 66.4301 34.53C68.8401 32.47 73.3801 30.84 75.1801 30.51C76.9701 30.19 77.5201 29.67 83.8701 27.4C84.7601 27.08 85.1601 26.56 85.6301 26.62C86.4501 26.72 86.9501 27.62 87.1201 28.58C87.3401 29.75 86.9401 30.97 86.9401 30.97V30.96Z" fill="#E5A8A8"/>
<path d="M75.3 55.83C75.3 56.16 75.29 56.49 75.26 56.81C75.26 56.93 75.24 57.05 75.22 57.17C74.07 66.98 60.66 74.75 51.58 74.92C51.48 74.92 51.38 74.92 51.28 74.92C43.48 74.92 28.67 67.12 27.36 57.22C27.3 56.76 27.27 56.29 27.27 55.82C27.27 46.52 31.05 39.46 35.02 35.88C38.16 33.06 42.86 31.36 51.28 31.36C59.21 31.36 64.36 33.1 67.54 35.88C71.56 39.4 75.29 46.51 75.29 55.82" fill="#E5A8A8"/>
<path d="M51.2901 74.93C47.7201 74.93 42.4001 72.81 38.0401 69.67C33.0401 66.05 29.8801 61.57 29.3801 57.37C29.3301 56.95 29.3 56.53 29.3 56.1C29.3 47.68 34.7101 37.49 36.4501 35.82C37.7701 34.54 44.55 31.39 51.3 31.39C57.67 31.39 64.7501 34.51 66.1601 35.84C67.9501 37.53 73.2901 47.71 73.2901 56.1C73.2901 56.41 73.2801 56.71 73.2601 57.01C73.2601 57.12 73.2401 57.23 73.2301 57.35C72.1801 67.15 59.3601 74.77 51.5601 74.93H51.6001H51.3" fill="#EDB9B9"/>
<path d="M31.76 52.4699C31.76 52.4699 36.4 62.06 40.38 62.06C43.42 62.06 47.23 60.5 47.23 60.5C47.23 60.5 48.84 44.52 40.03 44.01C36.06 43.78 31.77 52.4699 31.77 52.4699" fill="#E5A8A8"/>
<path d="M70.89 52.4699C70.89 52.4699 66.25 62.06 62.27 62.06C59.23 62.06 55.42 60.5 55.42 60.5C55.42 60.5 53.81 44.52 62.62 44.01C66.59 43.78 70.88 52.4699 70.88 52.4699" fill="#E5A8A8"/>
<path d="M36.0601 46.12C36.0601 46.12 36.07 46.08 36.11 46.02C36.15 45.95 36.1901 45.85 36.2701 45.74C36.3401 45.62 36.4501 45.48 36.5701 45.33C36.7001 45.19 36.8401 45.01 37.0301 44.86C37.1201 44.78 37.2201 44.7 37.3201 44.62C37.4301 44.55 37.5401 44.47 37.6601 44.39C37.7701 44.31 37.9101 44.25 38.0401 44.18C38.1701 44.11 38.3101 44.04 38.4601 43.99C38.7601 43.89 39.0601 43.77 39.4001 43.73C39.7301 43.65 40.0701 43.6599 40.4101 43.6599C40.7501 43.6599 41.0801 43.74 41.4101 43.8C41.7301 43.9 42.0301 44 42.3201 44.12C42.5901 44.27 42.8501 44.42 43.0901 44.56C43.3201 44.72 43.5101 44.9 43.6901 45.06C43.7801 45.14 43.8601 45.22 43.9401 45.3C44.0101 45.38 44.0801 45.46 44.1401 45.54C44.2601 45.69 44.3601 45.83 44.4401 45.94C44.6001 46.17 44.6801 46.3 44.6801 46.3C44.6801 46.3 44.5201 46.25 44.2701 46.14C44.1501 46.09 43.99 46.03 43.83 45.95C43.67 45.87 43.4701 45.7999 43.2701 45.7199C43.0601 45.6499 42.8501 45.55 42.6201 45.46C42.3901 45.4 42.1401 45.32 41.9001 45.24C41.6501 45.19 41.3901 45.14 41.1401 45.07C41.0101 45.06 40.8801 45.05 40.7501 45.03C40.6201 45.02 40.49 44.99 40.36 45C40.1 45 39.83 44.98 39.58 45.02C39.45 45.04 39.3201 45.02 39.1901 45.06C39.0601 45.08 38.9401 45.11 38.8101 45.12C38.6801 45.13 38.5701 45.18 38.4401 45.21C38.3201 45.24 38.2001 45.26 38.0901 45.3C37.8601 45.37 37.6401 45.44 37.4401 45.52C37.2301 45.59 37.0501 45.67 36.8801 45.74C36.7201 45.82 36.5601 45.87 36.4501 45.93C36.3301 45.99 36.2301 46.04 36.1701 46.07C36.1001 46.1 36.0701 46.12 36.0701 46.12H36.0601Z" fill="#2D2020"/>
<path d="M66.4301 46.12C66.4301 46.12 66.39 46.1 66.33 46.07C66.26 46.04 66.17 45.99 66.05 45.93C65.93 45.87 65.7801 45.82 65.6201 45.74C65.4501 45.68 65.2701 45.59 65.0601 45.52C64.8601 45.44 64.6401 45.37 64.4101 45.3C64.3001 45.26 64.1801 45.23 64.0601 45.21C63.9401 45.19 63.8201 45.14 63.6901 45.12C63.5601 45.1 63.4401 45.08 63.3101 45.06C63.1801 45.03 63.0501 45.04 62.9201 45.02C62.6601 44.98 62.4001 45 62.1401 45C62.0101 44.99 61.8801 45.02 61.7501 45.03C61.6201 45.05 61.49 45.06 61.36 45.07C61.11 45.14 60.8501 45.18 60.6001 45.24C60.3601 45.32 60.1201 45.4 59.8801 45.47C59.6501 45.55 59.4401 45.65 59.2301 45.72C59.0201 45.79 58.8301 45.86 58.6701 45.95C58.5101 46.03 58.3501 46.09 58.2301 46.14C57.9801 46.25 57.8201 46.3 57.8201 46.3C57.8201 46.3 57.9001 46.16 58.0601 45.94C58.1401 45.83 58.24 45.69 58.36 45.54C58.42 45.47 58.4801 45.38 58.5601 45.3C58.6401 45.22 58.7201 45.15 58.8101 45.06C58.9901 44.91 59.1801 44.72 59.4101 44.56C59.6501 44.42 59.9101 44.26 60.1801 44.12C60.4701 44 60.7701 43.89 61.0901 43.8C61.4201 43.75 61.7501 43.67 62.0901 43.66C62.4301 43.66 62.7701 43.66 63.1001 43.73C63.4301 43.77 63.7401 43.88 64.0401 43.99C64.1901 44.04 64.3201 44.11 64.4601 44.18C64.5901 44.25 64.7301 44.31 64.8401 44.39C64.9601 44.47 65.0701 44.55 65.1801 44.62C65.2801 44.7 65.3801 44.78 65.4701 44.86C65.6601 45.01 65.8001 45.19 65.9301 45.33C66.0501 45.48 66.1601 45.62 66.2301 45.74C66.3101 45.85 66.3601 45.96 66.3901 46.02C66.4201 46.09 66.4401 46.12 66.4401 46.12H66.4301Z" fill="#2D2020"/>
<path d="M47.2301 60.51C39.9101 64 34.7601 61.74 32.4301 52.7C32.4301 52.7 41.2301 45.86 45.9101 54.63C46.6301 55.99 47.2201 60.51 47.2201 60.51" fill="white"/>
<path d="M40.15 61.08C38.12 61.04 36.4101 59.43 35.7601 57.19C35.5601 56.51 35.46 55.77 35.47 55C35.54 51.88 37.47 50.77 39.91 50.7C40.06 50.7 40.22 50.69 40.37 50.7C43.02 50.76 45.03 53.51 45.08 55.21C45.17 58.52 42.8 61.15 40.15 61.1" fill="#4F3231"/>
<path d="M40.1801 60.24C38.6401 60.2 37.2901 58.89 36.7401 56.88C36.5601 56.24 36.4801 55.57 36.4901 54.87C36.5401 52.55 37.6401 51.43 39.9501 51.36C40.0701 51.36 40.1801 51.36 40.3001 51.36H40.3701C42.4601 51.41 44.0501 53.85 44.0901 55.1C44.1301 56.61 43.6201 58.05 42.7001 59.05C42.0001 59.82 41.1201 60.24 40.2501 60.24H40.1901" fill="#010101"/>
<path d="M55.4 60.51C62.72 64 67.87 61.74 70.2 52.7C70.2 52.7 61.4 45.86 56.72 54.63C56 55.99 55.41 60.51 55.41 60.51" fill="white"/>
<path d="M62.4801 61.08C64.5101 61.04 66.2201 59.43 66.8701 57.19C67.0701 56.51 67.1701 55.77 67.1601 55C67.0901 51.88 65.1601 50.77 62.7201 50.7C62.5701 50.7 62.4201 50.69 62.2601 50.7C59.6101 50.76 57.5901 53.51 57.5501 55.21C57.4601 58.52 59.8301 61.15 62.4801 61.1" fill="#4F3231"/>
<path d="M62.4001 60.24C61.5201 60.24 60.6501 59.82 59.9501 59.05C59.0301 58.05 58.5301 56.61 58.5601 55.1C58.5901 53.85 60.1901 51.41 62.2801 51.36H62.3401C62.4601 51.36 62.5701 51.36 62.6901 51.36C65.0001 51.43 66.1001 52.55 66.1501 54.87C66.1601 55.57 66.0801 56.24 65.9001 56.87C65.3501 58.88 63.9901 60.2 62.4501 60.23H62.3901" fill="#010101"/>
<path d="M40.4801 53.75C40.4401 55.75 39.1 57.35 37.49 57.32C36.76 57.3 36.11 56.96 35.61 56.4C35.43 55.8 35.34 55.15 35.36 54.47C35.42 51.74 37.1101 50.77 39.2501 50.71C40.0201 51.38 40.5101 52.49 40.4801 53.75Z" fill="white"/>
<path d="M43.0001 59.54C42.9901 60.22 42.5301 60.76 41.9901 60.75C41.4401 60.74 41.0101 60.18 41.0301 59.5C41.0401 58.82 41.5001 58.28 42.0401 58.29C42.5901 58.3 43.0101 58.86 43.0001 59.54Z" fill="white"/>
<path d="M62.35 54.05C62.31 56.05 60.97 57.65 59.36 57.62C58.63 57.6 57.98 57.26 57.48 56.7C57.3 56.1 57.21 55.45 57.23 54.77C57.29 52.04 58.98 51.07 61.12 51.01C61.89 51.68 62.38 52.8 62.35 54.05Z" fill="white"/>
<path d="M65.07 59.54C65.06 60.22 64.6 60.76 64.06 60.75C63.51 60.74 63.08 60.18 63.1 59.5C63.11 58.82 63.57 58.28 64.11 58.29C64.65 58.3 65.08 58.86 65.07 59.54Z" fill="white"/>
<path d="M45.91 61.08C46.34 60.91 46.78 60.72 47.23 60.51C46.78 60.73 46.34 60.92 45.91 61.08Z" fill="#D7AAAA"/>
<path d="M47.2301 60.51C47.2301 60.51 46.6401 55.99 45.9201 54.63C46.6301 55.97 47.2201 60.38 47.2301 60.51Z" fill="#D19C9D"/>
<path d="M45.91 61.08C45.67 59.79 45.35 58.34 44.99 57.67C44.92 57.55 44.86 57.43 44.79 57.31C45 56.65 45.1 55.94 45.08 55.19C45.03 53.5 43.02 50.74 40.37 50.68H40.29C40.16 50.68 40.04 50.68 39.91 50.68C39.69 50.68 39.48 50.7 39.28 50.72C39.27 50.71 39.25 50.7 39.24 50.69C37.31 50.75 35.74 51.54 35.41 53.7C34.5 54 33.69 54.39 33.05 54.74C32.98 54.54 32.91 54.34 32.84 54.13C32.69 53.67 32.55 53.18 32.42 52.68C32.47 52.64 35.72 50.14 39.3 50.14H39.41C41.69 50.17 44.1 51.24 45.9 54.61C46.62 55.97 47.21 60.49 47.21 60.49C46.76 60.7 46.32 60.89 45.89 61.06" fill="#E2E1E1"/>
<path d="M44.79 57.31C44.54 56.88 44.28 56.48 44.01 56.13C44.06 55.79 44.08 55.44 44.07 55.1C44.04 53.85 42.44 51.41 40.35 51.36H40.28C40.16 51.36 40.05 51.36 39.93 51.36C39.89 51.36 39.85 51.36 39.81 51.36C39.65 51.12 39.47 50.91 39.27 50.73C39.48 50.71 39.69 50.69 39.9 50.69C40.03 50.69 40.15 50.69 40.28 50.69H40.36C43.01 50.75 45.02 53.5 45.07 55.2C45.09 55.95 44.98 56.66 44.78 57.32" fill="#513635"/>
<path d="M44.0201 56.13C42.9401 54.71 41.7201 53.91 40.4801 53.51C40.4601 52.7 40.2201 51.96 39.8301 51.37C39.8701 51.37 39.9101 51.37 39.9501 51.37C40.0701 51.37 40.1801 51.37 40.3001 51.37H40.3701C42.4601 51.42 44.0501 53.86 44.0901 55.11C44.0901 55.46 44.0801 55.81 44.0301 56.14" fill="#0F1010"/>
<path d="M35.42 53.72C35.75 51.56 37.32 50.77 39.25 50.71C39.26 50.72 39.28 50.73 39.29 50.74C39.49 50.92 39.67 51.13 39.83 51.37C40.22 51.96 40.46 52.7 40.48 53.51C39.79 53.29 39.09 53.2 38.4 53.2C37.36 53.2 36.34 53.41 35.42 53.71" fill="#E2E1E1"/>
<path d="M55.4 60.51C55.4 60.51 55.4 60.47 55.42 60.4C55.41 60.47 55.4 60.51 55.4 60.51Z" fill="#D7AAAA"/>
<path d="M55.42 60.4C55.52 59.69 56.06 55.86 56.72 54.63C56.94 54.22 57.17 53.83 57.41 53.49C57.17 53.84 56.94 54.22 56.72 54.63C56.06 55.86 55.52 59.7 55.42 60.4Z" fill="#D19C9D"/>
<path d="M56.72 61.08C56.29 60.91 55.85 60.72 55.4 60.51C55.4 60.51 55.4 60.47 55.42 60.4C55.52 59.7 56.06 55.86 56.72 54.63C56.94 54.21 57.17 53.84 57.41 53.49C57.3 53.87 57.24 54.3 57.23 54.78C57.21 55.46 57.3 56.11 57.48 56.71C57.56 56.8 57.65 56.89 57.74 56.97C57.77 57.09 57.8 57.21 57.84 57.33C57.77 57.45 57.71 57.57 57.64 57.69C57.28 58.36 56.96 59.81 56.72 61.1" fill="#E2E1E1"/>
<path d="M57.84 57.31C57.8 57.19 57.77 57.07 57.74 56.95C57.81 57.01 57.88 57.07 57.95 57.12C57.91 57.18 57.88 57.24 57.84 57.31Z" fill="#513635"/>
<path d="M69.8001 54.09C69.9401 53.64 70.0701 53.18 70.2001 52.69C70.0801 53.17 69.9401 53.64 69.8001 54.09ZM59.6301 51.23C60.7901 50.47 62.0101 50.17 63.2101 50.15C62.0201 50.17 60.7901 50.47 59.6401 51.23" fill="#D19C9D"/>
<path d="M69.5801 54.76C68.8801 54.38 67.9901 53.95 66.9901 53.65C66.4601 51.55 64.7701 50.76 62.7201 50.7C62.5901 50.7 62.4701 50.7 62.3401 50.7H62.2701C61.7301 50.71 61.2101 50.83 60.7301 51.04C60.3501 51.07 59.9801 51.14 59.6401 51.24C60.8001 50.48 62.0201 50.18 63.2101 50.16H63.3201C66.9001 50.16 70.1501 52.66 70.2001 52.7C70.0801 53.18 69.9401 53.65 69.8001 54.1C69.7301 54.33 69.6501 54.55 69.5801 54.76Z" fill="#E2E1E1"/>
<path d="M66.9801 53.64C66.6401 53.53 66.2801 53.44 65.9101 53.37C65.4801 52.07 64.4201 51.42 62.6801 51.37C62.5601 51.37 62.45 51.37 62.33 51.37H62.2701C62.0201 51.37 61.7801 51.41 61.5401 51.48C61.4101 51.31 61.2601 51.15 61.1001 51.02C60.9701 51.02 60.8301 51.03 60.7001 51.04C61.1801 50.83 61.6901 50.71 62.2401 50.7H62.3101C62.4401 50.7 62.5601 50.7 62.6901 50.7C64.7401 50.76 66.4301 51.55 66.9601 53.65" fill="#513635"/>
<path d="M62.3201 53.46C62.2401 52.7 61.96 52.01 61.55 51.47C61.78 51.4 62.0301 51.36 62.2801 51.36H62.3401C62.4601 51.36 62.5701 51.36 62.6901 51.36C64.4301 51.41 65.4901 52.06 65.9201 53.36C65.3801 53.26 64.8101 53.19 64.2401 53.19C63.6101 53.19 62.96 53.27 62.33 53.45" fill="#0F1010"/>
<path d="M57.95 57.12C57.88 57.07 57.81 57.01 57.74 56.95C57.65 56.87 57.56 56.79 57.48 56.69C57.3 56.09 57.21 55.44 57.23 54.76C57.24 54.28 57.3 53.85 57.41 53.47C58.1 52.47 58.85 51.74 59.63 51.22C59.97 51.12 60.34 51.05 60.72 51.02C60.85 51.01 60.98 51 61.12 51C61.28 51.13 61.42 51.29 61.56 51.46C61.97 51.99 62.25 52.69 62.33 53.45C60.76 53.9 59.23 54.99 57.95 57.11" fill="#E2E1E1"/>
<path d="M47.23 60.51C47.14 60.06 47.04 59.62 46.94 59.17C46.84 58.73 46.75 58.28 46.64 57.84C46.53 57.4 46.42 56.96 46.29 56.52C46.17 56.08 46.02 55.69 45.86 55.27C45.76 55.08 45.67 54.82 45.58 54.68L45.22 54.12C44.96 53.76 44.71 53.39 44.41 53.07C44.27 52.9 44.12 52.74 43.96 52.6C43.81 52.45 43.65 52.29 43.48 52.17C43.31 52.03 43.15 51.89 42.97 51.78C42.8 51.66 42.62 51.54 42.43 51.45C42.06 51.24 41.66 51.09 41.26 50.96C40.86 50.84 40.44 50.76 40.02 50.72C39.6 50.69 39.17 50.68 38.75 50.72C38.33 50.75 37.9 50.83 37.48 50.93C36.64 51.13 35.82 51.43 35.03 51.81C34.64 52 34.25 52.21 33.87 52.43C33.5 52.65 33.11 52.9 32.79 53.14L33 52.54L33.34 53.73C33.44 54.13 33.59 54.51 33.73 54.89C33.86 55.28 34 55.66 34.18 56.03C34.35 56.39 34.49 56.78 34.7 57.13C34.91 57.47 35.06 57.86 35.31 58.17C35.55 58.48 35.74 58.85 36.03 59.12C36.3 59.41 36.55 59.73 36.86 59.97L37.31 60.36L37.81 60.68C38.13 60.92 38.5 61.05 38.86 61.22C39.22 61.38 39.62 61.45 40 61.58C40.4 61.63 40.79 61.71 41.2 61.73C41.61 61.73 42.01 61.77 42.42 61.72C42.83 61.67 43.24 61.67 43.64 61.57C44.04 61.48 44.46 61.44 44.85 61.3C45.25 61.18 45.65 61.08 46.05 60.94L47.24 60.51H47.23ZM47.23 60.51L46.11 61.09C45.73 61.28 45.33 61.42 44.94 61.58C44.55 61.76 44.13 61.84 43.72 61.98C43.32 62.12 42.89 62.17 42.46 62.26C42.04 62.36 41.6 62.34 41.17 62.38C40.73 62.39 40.3 62.34 39.86 62.31C39.43 62.21 38.98 62.16 38.57 61.99C38.16 61.83 37.73 61.69 37.35 61.45L36.77 61.11L36.24 60.7C35.87 60.44 35.58 60.11 35.27 59.79C34.94 59.48 34.72 59.1 34.44 58.76C34.16 58.42 33.98 58.02 33.74 57.65C33.5 57.28 33.34 56.88 33.15 56.49C32.95 56.1 32.8 55.7 32.66 55.29C32.51 54.88 32.35 54.48 32.24 54.07L31.87 52.83L31.76 52.46L32.07 52.22C32.47 51.91 32.86 51.66 33.27 51.42C33.68 51.18 34.1 50.96 34.53 50.76C35.39 50.35 36.29 50.03 37.23 49.82C37.7 49.72 38.18 49.65 38.67 49.62C39.15 49.58 39.64 49.61 40.13 49.66C40.62 49.72 41.1 49.82 41.56 49.98C41.79 50.06 42.03 50.14 42.24 50.26C42.46 50.36 42.68 50.48 42.89 50.61C43.1 50.73 43.3 50.87 43.49 51.02C43.69 51.16 43.87 51.32 44.05 51.49C44.23 51.65 44.4 51.83 44.56 52C44.73 52.17 44.88 52.36 45.02 52.55C45.32 52.92 45.56 53.33 45.8 53.73L46.13 54.35C46.26 54.6 46.3 54.79 46.4 55.01C46.53 55.45 46.65 55.94 46.73 56.39C46.82 56.84 46.89 57.3 46.95 57.75C47.08 58.66 47.18 59.57 47.23 60.48V60.51Z" fill="#2D2020"/>
<path d="M55.4 60.51C55.46 59.6 55.55 58.69 55.68 57.78C55.74 57.33 55.81 56.87 55.9 56.42C55.97 55.97 56.1 55.48 56.23 55.04C56.32 54.82 56.36 54.63 56.5 54.38L56.83 53.76C57.07 53.36 57.32 52.95 57.61 52.58C57.75 52.39 57.9 52.2 58.07 52.03C58.23 51.86 58.39 51.68 58.58 51.52C58.76 51.36 58.94 51.19 59.14 51.05C59.33 50.9 59.53 50.76 59.74 50.64C59.95 50.51 60.16 50.39 60.39 50.29C60.61 50.17 60.84 50.1 61.07 50.01C61.54 49.85 62.02 49.75 62.5 49.69C62.99 49.64 63.48 49.62 63.96 49.65C64.45 49.67 64.92 49.75 65.4 49.85C66.34 50.06 67.24 50.38 68.1 50.79C68.53 50.99 68.95 51.21 69.36 51.45C69.77 51.69 70.16 51.94 70.56 52.25L70.88 52.49L70.77 52.86L70.4 54.1C70.29 54.51 70.13 54.91 69.98 55.32C69.84 55.73 69.68 56.13 69.49 56.52C69.3 56.91 69.14 57.31 68.9 57.68C68.66 58.05 68.48 58.44 68.2 58.79C67.92 59.14 67.7 59.52 67.37 59.82C67.06 60.14 66.77 60.47 66.4 60.73L65.87 61.14L65.29 61.48C64.91 61.73 64.49 61.86 64.07 62.02C63.66 62.19 63.21 62.23 62.78 62.34C62.34 62.37 61.9 62.42 61.47 62.41C61.04 62.37 60.6 62.39 60.18 62.29C59.76 62.2 59.33 62.15 58.92 62.01C58.51 61.87 58.1 61.79 57.71 61.61C57.32 61.45 56.91 61.31 56.54 61.12L55.42 60.54L55.4 60.51ZM55.4 60.51L56.59 60.94C56.99 61.08 57.39 61.18 57.79 61.3C58.18 61.43 58.6 61.48 59 61.57C59.4 61.67 59.82 61.67 60.22 61.72C60.63 61.77 61.04 61.72 61.44 61.73C61.84 61.71 62.24 61.63 62.64 61.58C63.02 61.45 63.42 61.39 63.77 61.22C64.13 61.05 64.5 60.92 64.82 60.68L65.32 60.36L65.77 59.97C66.08 59.73 66.33 59.42 66.6 59.12C66.88 58.84 67.08 58.48 67.32 58.17C67.57 57.85 67.73 57.47 67.93 57.13C68.14 56.79 68.28 56.4 68.45 56.03C68.63 55.66 68.77 55.28 68.9 54.89C69.04 54.51 69.19 54.13 69.29 53.73L69.63 52.54L69.84 53.14C69.51 52.9 69.13 52.65 68.76 52.43C68.38 52.2 68 52 67.6 51.81C66.81 51.43 65.99 51.13 65.15 50.93C64.73 50.84 64.31 50.75 63.88 50.72C63.46 50.67 63.03 50.68 62.61 50.72C62.19 50.76 61.77 50.83 61.37 50.96C60.97 51.09 60.57 51.24 60.2 51.45C60.01 51.54 59.83 51.66 59.66 51.78C59.48 51.89 59.31 52.03 59.15 52.17C58.98 52.3 58.82 52.45 58.67 52.6C58.51 52.75 58.36 52.91 58.22 53.07C57.92 53.39 57.67 53.76 57.41 54.12L57.06 54.68C56.96 54.82 56.87 55.08 56.77 55.27C56.61 55.69 56.47 56.08 56.35 56.52C56.22 56.95 56.11 57.39 56 57.84C55.89 58.28 55.79 58.73 55.69 59.17C55.59 59.62 55.49 60.06 55.4 60.51Z" fill="#2D2020"/>
<path d="M54.9701 70.72C54.9701 71.33 53.5901 72.46 52.8201 72.8C52.2901 73.03 51.7101 73.17 51.2701 73.17C50.8301 73.17 50.2501 73.04 49.7201 72.8C48.9401 72.46 47.7201 71.26 47.7201 70.64C47.7201 69.61 50.1701 69.43 51.2701 69.43C52.3701 69.43 54.9801 69.68 54.9801 70.71L54.9701 70.72Z" fill="#723648"/>
<path d="M52.8201 72.8C52.2901 73.03 51.7101 73.17 51.2701 73.17C50.8301 73.17 50.2501 73.04 49.7201 72.8C49.8201 72.38 50.2001 72.06 50.6601 72.06C50.8901 72.06 51.1001 72.14 51.2701 72.28C51.4401 72.15 51.6501 72.06 51.8701 72.06C52.3301 72.06 52.7101 72.37 52.8101 72.8H52.8201Z" fill="#D36683"/>
<path d="M56.83 65.9C56.83 69.21 54.4201 68.6 51.4501 68.6C48.4801 68.6 46.0701 69.21 46.0701 65.9C46.0701 64.71 47.2301 63.53 47.7701 62.5C48.7301 60.68 49.5501 59.35 51.4501 59.35C53.3501 59.35 54.1601 60.67 55.1201 62.48C55.6601 63.51 56.83 64.69 56.83 65.89V65.9Z" fill="#D49C9C"/>
<path d="M46.4301 70.25C46.4301 70.25 46.5201 70.28 46.5601 70.3C46.5601 70.3 46.4801 70.26 46.4401 70.25H46.4301Z" fill="#E5A8A8"/>
<path d="M55.7901 64.08C54.6501 62.15 53.6901 60.75 51.4401 60.75C49.1901 60.75 48.21 62.16 47.08 64.09C46.44 65.18 45.0701 65.4 45.0701 67.7C45.0701 69.1 45.6401 69.87 46.4301 70.26C46.4701 70.28 46.51 70.29 46.55 70.31C46.74 70.37 46.9301 70.42 47.1301 70.48C46.9301 70.42 46.74 70.36 46.55 70.31C48.44 71.11 51.4401 69.96 51.4401 69.96C51.4401 69.96 54.3801 71.17 56.2601 70.33C57.1001 69.96 57.7201 69.18 57.7901 67.71C57.9001 65.43 56.4101 65.18 55.7701 64.09L55.7901 64.08Z" fill="#E5A8A8"/>
<path d="M44.7701 68.66C44.7601 68.57 44.7501 68.49 44.7601 68.42C44.7601 68.33 44.7701 68.28 44.7801 68.26C44.7801 68.28 44.7501 68.34 44.7401 68.42C44.7201 68.51 44.7201 68.64 44.7401 68.8C44.7401 68.84 44.7501 68.87 44.7601 68.92C44.8201 69.14 44.9301 69.39 45.1401 69.62C45.2301 69.75 45.3701 69.84 45.4901 69.96C45.6301 70.06 45.7901 70.15 45.9501 70.26C46.1201 70.34 46.3001 70.42 46.4801 70.51C46.6701 70.58 47.1601 70.88 48.0401 70.96C49.7001 71.11 51.4601 70.32 51.4601 70.32C51.4601 70.32 53.2501 71.18 54.9201 70.97C55.5801 70.89 56.1601 70.65 56.6601 70.41C57.0001 70.25 57.2901 70.06 57.5201 69.85C57.7501 69.64 57.9001 69.41 57.9901 69.21C58.0301 69.11 58.0701 69.02 58.0801 68.93C58.1001 68.85 58.1201 68.78 58.1201 68.72C58.1201 68.61 58.1301 68.54 58.1301 68.54C58.1301 68.54 58.1201 68.6 58.1001 68.71C58.0801 68.82 58.0301 68.99 57.9301 69.17C57.8301 69.35 57.6601 69.56 57.4401 69.74C57.2101 69.92 56.9201 70.08 56.5801 70.22C56.4801 70.27 56.3801 70.29 56.2701 70.3C54.3901 71.14 51.4501 69.93 51.4501 69.93C51.4501 69.93 48.3001 71.14 46.4301 70.23C46.2901 70.17 46.1601 70.12 46.0301 70.07C45.8801 69.98 45.7201 69.9 45.5801 69.81C45.4601 69.71 45.3101 69.63 45.2201 69.51C45.0001 69.31 44.8801 69.08 44.8101 68.88C44.7901 68.79 44.7701 68.72 44.7601 68.64" fill="#492F2A"/>
<path d="M48.1601 64.92C47.8801 65.48 47.9601 66.09 48.3301 66.27C48.7001 66.45 48.8902 66.15 49.1702 65.58C49.4502 65.02 49.3401 64.23 49.3401 64.23C49.3401 64.23 48.4402 64.35 48.1702 64.92H48.1601Z" fill="#A57272"/>
<path d="M53.53 65.65C53.81 66.21 54 66.52 54.37 66.34C54.74 66.16 54.81 65.55 54.53 64.99C54.25 64.43 53.36 64.3 53.36 64.3C53.36 64.3 53.25 65.09 53.53 65.65Z" fill="#A57272"/>
<path d="M48.1501 65.24C47.8701 65.8 47.9501 66.41 48.3201 66.59C48.6901 66.77 48.8801 66.47 49.1601 65.9C49.4401 65.34 49.3301 64.55 49.3301 64.55C49.3301 64.55 48.4301 64.67 48.1601 65.24H48.1501Z" fill="#211515"/>
<path d="M53.52 65.97C53.8 66.53 53.99 66.84 54.36 66.66C54.73 66.48 54.8 65.87 54.52 65.31C54.24 64.75 53.35 64.62 53.35 64.62C53.35 64.62 53.24 65.41 53.52 65.97Z" fill="#211515"/>
</svg>
