<svg width="101" height="102" viewBox="0 0 101 102" fill="none" xmlns="http://www.w3.org/2000/svg">
<path d="M92.26 0.190002H8.67C3.88169 0.190002 0 4.07168 0 8.85999V92.45C0 97.2383 3.88169 101.12 8.67 101.12H92.26C97.0483 101.12 100.93 97.2383 100.93 92.45V8.85999C100.93 4.07168 97.0483 0.190002 92.26 0.190002Z" fill="#24B999"/>
<path d="M50.3899 75.55C46.1099 75.55 40.2 73.43 35.27 70.14C34.07 69.91 32.89 69.57 31.65 69.09C31.62 69.08 31.59 69.07 31.56 69.06C31.5 69.21 31.45 69.45 31.45 69.57C31.44 70.02 31.19 70.43 30.81 70.66C30.6 70.78 30.37 70.85 30.13 70.85C29.93 70.85 29.73 70.8 29.54 70.71C29.39 70.64 28.59 70.21 27.72 69.16C27.67 69.16 27.61 69.17 27.56 69.17C27.27 69.17 26.98 69.07 26.73 68.88C26.48 68.68 24.66 67.17 24.03 65.04C23.78 65.35 23.41 65.54 22.99 65.54C22.98 65.54 22.97 65.54 22.95 65.54C22.34 65.52 21.82 65.09 21.69 64.5C21.66 64.34 20.88 60.62 22 57.01C22.14 56.55 22.32 56.11 22.52 55.69C22.14 55.47 21.89 55.06 21.87 54.6C21.87 54.55 21.84 53.84 22.02 52.82C21.51 52.77 21.05 52.45 20.88 51.96C20.86 51.9 20.84 51.84 20.83 51.77C20.3 51.89 19.91 51.92 19.85 51.92C19.83 51.92 19.8 51.92 19.78 51.92C19.17 51.92 18.63 51.5 18.49 50.9C18.35 50.27 18.67 49.63 19.27 49.38C19.27 49.38 20.03 49.02 20.04 48.5C20.04 48.43 19.97 48.17 19.91 47.95C19.84 47.67 19.75 47.33 19.65 46.9C18.95 45.45 18.41 43.89 17.84 42.24C17.42 41.03 16.99 39.78 16.48 38.58C15.97 37.36 14.89 36.12 13.93 35.02C12.33 33.19 10.14 30.68 12.43 28.67C14.64 26.73 17.83 25.74 21.91 25.74C28.47 25.74 36 28.41 38.92 30.54C40.15 30.01 41.45 29.62 42.81 29.38C43.08 29.33 43.3799 29.31 43.7299 29.31C44.8699 29.31 46.3799 29.56 47.8499 29.81C48.8199 29.97 49.74 30.13 50.47 30.2C51.2 30.13 52.12 29.98 53.09 29.81C54.55 29.56 56.0699 29.31 57.2099 29.31C57.5599 29.31 57.86 29.33 58.13 29.38C59.49 29.62 60.79 30.01 62.02 30.54C64.94 28.41 72.47 25.74 79.03 25.74C83.11 25.74 86.3 26.73 88.51 28.67C90.8 30.68 88.61 33.19 87.01 35.02C86.05 36.12 84.96 37.37 84.46 38.58C83.96 39.78 83.53 41.03 83.11 42.24C82.54 43.89 81.99 45.45 81.3 46.9C81.21 47.33 81.12 47.67 81.04 47.95C80.98 48.18 80.91 48.43 80.91 48.52C80.93 49.03 81.68 49.39 81.68 49.39C82.27 49.64 82.6 50.28 82.46 50.91C82.32 51.51 81.78 51.93 81.17 51.93C81.15 51.93 81.12 51.93 81.1 51.93C81.04 51.93 80.65 51.9 80.12 51.78C80.11 51.84 80.09 51.9 80.07 51.97C79.9 52.46 79.44 52.79 78.93 52.83C79.1 53.84 79.08 54.55 79.08 54.61C79.06 55.07 78.81 55.47 78.43 55.7C78.63 56.12 78.81 56.56 78.95 57.03C80.06 60.64 79.29 64.36 79.26 64.52C79.13 65.12 78.61 65.55 78 65.56C77.99 65.56 77.98 65.56 77.96 65.56C77.55 65.56 77.17 65.37 76.93 65.06C76.3 67.19 74.48 68.7 74.23 68.9C73.99 69.09 73.7 69.19 73.4 69.19C73.35 69.19 73.2899 69.19 73.2399 69.18C72.3699 70.23 71.5699 70.66 71.4199 70.73C71.2299 70.82 71.03 70.87 70.83 70.87C70.59 70.87 70.36 70.81 70.15 70.68C69.76 70.45 69.52 70.04 69.51 69.59C69.51 69.43 69.45 69.21 69.4 69.08C69.38 69.08 69.3499 69.1 69.3099 69.11C68.2599 69.51 67.1999 69.83 66.1699 70.06C61.4099 73.37 55.52 75.48 50.74 75.57H50.4199L50.3899 75.55Z" fill="#2F150C"/>
<path d="M87.6199 29.67C80.9599 23.81 64.9399 29.3 62.2099 32.1C60.8999 31.45 59.4599 30.97 57.8899 30.69C56.3299 30.42 52.6399 31.35 50.4699 31.53C48.2999 31.35 44.6099 30.41 43.0499 30.69C41.4699 30.97 40.0399 31.45 38.7299 32.1C35.9999 29.3 19.9799 23.81 13.3199 29.67C11.1699 31.56 16.2299 34.5 17.7199 38.08C18.9299 40.98 19.7099 43.99 20.9299 46.49C21.1599 47.62 21.3899 48.14 21.3799 48.56C21.3299 49.97 19.7999 50.61 19.7999 50.61C19.7999 50.61 20.5699 50.57 21.4299 50.22C22.2999 49.87 22.5799 49.09 22.5799 49.09C22.5799 49.09 22.8999 49.46 22.9299 49.7C23.0799 50.88 22.1799 51.51 22.1799 51.51C22.1799 51.51 22.4699 51.48 23.3099 51C23.5599 50.86 23.8099 50.66 24.0399 50.44C24.0799 50.47 24.1199 50.49 24.1499 50.52C23.1299 52.56 23.1999 54.54 23.1999 54.54C23.1999 54.54 23.7099 53.34 24.4299 52.8C25.8599 51.72 26.8599 51.91 27.1199 51.99C27.1199 52.02 27.1099 52.05 27.0999 52.08C26.6299 52.46 24.1599 54.54 23.2799 57.39C22.2499 60.71 22.9999 64.21 22.9999 64.21C22.9999 64.21 23.7999 61.24 24.4299 60.47C25.3099 59.39 26.1399 58.88 26.6499 58.65C26.6499 58.8 26.6499 58.94 26.6499 59.08C26.0699 59.85 25.2199 61.33 25.1499 63.48C25.0799 65.84 27.5699 67.83 27.5699 67.83C27.5699 67.83 25.7199 65.6 26.8899 63.75C26.9299 63.69 26.8999 63.61 26.9099 63.54C26.9799 64.1 26.9999 64.64 27.1399 65.12C28.1199 68.51 30.1399 69.51 30.1399 69.51C30.1399 69.51 30.2199 67.1 32.1399 67.84C33.4999 68.36 34.7099 68.68 35.7999 68.87C40.6599 72.17 46.4499 74.21 50.4099 74.21C50.5099 74.21 50.5999 74.21 50.6999 74.21C55.2899 74.13 60.9899 72.07 65.6199 68.79C66.5899 68.59 67.6499 68.29 68.8299 67.84C70.7499 67.1 70.8299 69.51 70.8299 69.51C70.8299 69.51 72.8499 68.51 73.8299 65.12C73.9699 64.64 73.9899 64.1 74.0599 63.54C74.0599 63.61 74.0399 63.7 74.0799 63.75C75.2499 65.61 73.3999 67.83 73.3999 67.83C73.3999 67.83 75.8899 65.84 75.8199 63.48C75.7499 61.33 74.8999 59.85 74.3199 59.08C74.3199 58.94 74.3199 58.79 74.3199 58.65C74.8299 58.88 75.6499 59.38 76.5399 60.47C77.1599 61.24 77.9699 64.21 77.9699 64.21C77.9699 64.21 78.7199 60.71 77.6899 57.39C76.7799 54.45 74.1899 52.33 73.8299 52.04V51.99C74.0199 51.92 75.0499 51.66 76.5399 52.79C77.2599 53.33 77.7699 54.53 77.7699 54.53C77.7699 54.53 77.8499 52.55 76.8199 50.51C76.8599 50.48 76.8999 50.46 76.9299 50.43C77.1599 50.65 77.4099 50.84 77.6599 50.99C78.4999 51.46 78.7899 51.5 78.7899 51.5C78.7899 51.5 77.8899 50.87 78.0399 49.69C78.0699 49.44 78.3899 49.08 78.3899 49.08C78.3899 49.08 78.6799 49.86 79.5499 50.21C80.4199 50.56 81.1799 50.6 81.1799 50.6C81.1799 50.6 79.6499 49.96 79.5999 48.55C79.5799 48.12 79.8099 47.61 80.0499 46.48C81.2799 43.99 82.0599 40.97 83.2599 38.07C84.7499 34.5 89.8099 31.55 87.6599 29.66L87.6199 29.67Z" fill="#2F150C"/>
<path d="M61.87 32.55C63.07 29.96 80.58 23.48 87.62 29.67C89.77 31.56 84.71 34.5 83.22 38.08C82.01 40.98 81.23 43.99 80.01 46.49C79.78 47.62 79.55 48.14 79.56 48.56C79.61 49.97 81.14 50.61 81.14 50.61C81.14 50.61 80.37 50.57 79.51 50.22C78.64 49.87 78.35 49.09 78.35 49.09C78.35 49.09 78.03 49.46 78 49.7C77.85 50.88 78.75 51.51 78.75 51.51C78.75 51.51 78.46 51.48 77.62 51C77.37 50.86 77.12 50.66 76.89 50.44C75.99 51.09 74.92 51.59 73.61 51.87C71.95 52.23 55 26.44 61.87 32.53V32.55Z" fill="white"/>
<path d="M73.74 48.01C75.14 46.99 76.71 44.12 77.98 40.47C78.43 39.18 78.89 37.85 79.45 36.5C80.26 34.55 83.4 32.33 82.78 31.62C82.16 30.9 80.47 31.15 79.01 31.15C73.67 31.15 68.08 33.24 65.9 34.44C66.77 35.94 67.97 37.88 69.48 40.16C71.61 43.36 72.61 46.61 73.74 48V48.01Z" fill="#131313"/>
<path d="M39.06 32.55C37.86 29.96 20.35 23.48 13.31 29.67C11.16 31.56 16.22 34.5 17.71 38.08C18.92 40.98 19.7 43.99 20.92 46.49C21.15 47.62 21.38 48.14 21.37 48.56C21.32 49.97 19.79 50.61 19.79 50.61C19.79 50.61 20.56 50.57 21.42 50.22C22.29 49.87 22.57 49.09 22.57 49.09C22.57 49.09 22.89 49.46 22.92 49.7C23.07 50.88 22.17 51.51 22.17 51.51C22.17 51.51 22.46 51.48 23.3 51C23.55 50.86 23.8 50.66 24.03 50.44C24.93 51.09 26 51.59 27.31 51.87C28.97 52.23 45.92 26.44 39.05 32.53L39.06 32.55Z" fill="white"/>
<path d="M27.1901 48.01C25.7901 46.99 24.2201 44.12 22.9501 40.47C22.5001 39.18 22.0401 37.85 21.4801 36.5C20.6701 34.55 17.5301 32.33 18.1501 31.62C18.7701 30.9 20.4601 31.15 21.9201 31.15C27.2601 31.15 32.8501 33.24 35.0301 34.44C34.1601 35.94 32.9601 37.88 31.4501 40.16C29.3201 43.36 28.3201 46.61 27.1901 48V48.01Z" fill="#131313"/>
<path d="M77.65 57.41C76.74 54.47 74.15 52.35 73.79 52.06V52.01C73.98 51.94 75.01 51.68 76.5 52.81C77.22 53.36 77.73 54.55 77.73 54.55C77.73 54.55 77.91 50.06 74.23 47.64C73.14 46.92 73.65 46.26 73.65 46.26C73.65 46.26 75.25 45.96 75.76 45.67C76.1 45.47 76.82 44.89 76.82 44.89C76.82 44.89 74.67 45.44 73.66 44.89C72.12 44.06 72.4 43.24 72.4 43.24C72.4 43.24 73.57 42.67 74.53 42.73C76.02 42.83 77.12 44.06 77.12 44.06C77.12 44.06 76.51 41.95 73.31 40.9C72.83 40.74 71.32 40.49 71.32 40.49C71.32 40.49 71.4 39.94 72.06 39.65C72.47 39.47 73.13 39.47 73.74 39.01C74.42 38.49 74.71 37.32 74.71 37.32C74.71 37.32 73.81 38.16 73.24 38.27C71.5 38.61 70.97 38.05 70.2 37.83C69.72 37.69 69.56 37.73 69.51 37.77C69.61 37.53 70.05 36.58 71.21 35.82C71.83 35.42 74.23 35.52 74.23 35.52C74.23 35.52 72.37 34.53 71.47 34.43C70.57 34.33 68.85 34.46 69.49 34.1C71.57 32.94 71.32 30.59 71.32 30.59C71.32 30.59 70.96 32.58 68.24 33.14C65.62 33.69 65.48 33.14 63.98 32.36C63.98 32.36 64.14 32.74 64.41 33.42C62.56 32.09 60.41 31.13 57.91 30.69C56.35 30.42 52.66 31.35 50.49 31.53C48.32 31.35 44.63 30.41 43.07 30.69C40.57 31.13 38.41 32.08 36.57 33.42C36.84 32.74 36.99 32.36 36.99 32.36C35.49 33.14 35.35 33.69 32.73 33.14C30.01 32.58 29.65 30.59 29.65 30.59C29.65 30.59 29.4 32.94 31.48 34.1C32.12 34.46 30.4 34.33 29.5 34.43C28.6 34.53 26.74 35.52 26.74 35.52C26.74 35.52 29.14 35.42 29.76 35.82C30.92 36.57 31.36 37.52 31.46 37.77C31.41 37.73 31.25 37.69 30.77 37.83C30 38.05 29.47 38.61 27.73 38.27C27.15 38.16 26.26 37.32 26.26 37.32C26.26 37.32 26.55 38.49 27.23 39.01C27.84 39.48 28.5 39.47 28.91 39.65C29.57 39.94 29.65 40.49 29.65 40.49C29.65 40.49 28.14 40.74 27.65 40.9C24.46 41.95 23.84 44.06 23.84 44.06C23.84 44.06 24.93 42.83 26.43 42.73C27.4 42.66 28.56 43.24 28.56 43.24C28.56 43.24 28.84 44.06 27.3 44.89C26.29 45.43 24.14 44.89 24.14 44.89C24.14 44.89 24.85 45.47 25.19 45.67C25.7 45.97 27.3 46.26 27.3 46.26C27.3 46.26 27.81 46.92 26.72 47.64C23.04 50.06 23.22 54.55 23.22 54.55C23.22 54.55 23.73 53.35 24.45 52.81C25.94 51.68 26.97 51.94 27.17 52.01V52.06C26.8 52.35 24.21 54.47 23.3 57.41C22.27 60.73 23.02 64.23 23.02 64.23C23.02 64.23 23.82 61.26 24.45 60.49C25.33 59.41 26.16 58.9 26.67 58.67C26.67 58.82 26.67 58.96 26.67 59.1C26.09 59.87 25.24 61.35 25.17 63.5C25.1 65.86 27.59 67.85 27.59 67.85C27.59 67.85 25.74 65.62 26.91 63.77C26.95 63.71 26.92 63.63 26.93 63.56C27 64.12 27.02 64.66 27.16 65.14C28.14 68.53 30.16 69.53 30.16 69.53C30.16 69.53 30.24 67.12 32.16 67.86C36.14 69.39 38.92 69.21 40.75 69.03C41.73 68.93 42.43 68.84 42.91 69C47.57 70.62 47.7 71.69 50.5 71.88C53.3 71.69 53.43 70.62 58.09 69C58.56 68.83 59.27 68.93 60.25 69.03C62.08 69.21 64.86 69.39 68.84 67.86C70.76 67.12 70.84 69.53 70.84 69.53C70.84 69.53 72.86 68.53 73.84 65.14C73.98 64.66 74 64.12 74.07 63.56C74.07 63.63 74.05 63.72 74.09 63.77C75.26 65.63 73.41 67.85 73.41 67.85C73.41 67.85 75.9 65.86 75.83 63.5C75.76 61.35 74.91 59.87 74.33 59.1C74.33 58.96 74.33 58.81 74.33 58.67C74.84 58.9 75.66 59.4 76.55 60.49C77.17 61.26 77.98 64.23 77.98 64.23C77.98 64.23 78.73 60.73 77.7 57.41" fill="#B64D3C"/>
<path d="M74 55.51C74 55.83 73.99 56.15 73.96 56.47C73.96 56.59 73.94 56.7 73.92 56.82C72.79 66.44 59.6 74.05 50.68 74.22C50.58 74.22 50.49 74.22 50.39 74.22C42.72 74.22 28.15 66.57 26.87 56.87C26.81 56.42 26.78 55.96 26.78 55.5C26.78 46.38 34.4 35.95 34.4 35.95C34.4 35.95 42.1 31.52 50.39 31.52C58.18 31.52 66.38 35.95 66.38 35.95C66.38 35.95 74 46.38 74 55.5" fill="#B64D3C"/>
<path d="M50.39 72.94C46.88 72.94 41.64 70.93 37.36 67.93C32.44 64.49 29.34 60.23 28.84 56.23C28.79 55.84 28.76 55.43 28.76 55.03C28.76 47.02 34.08 37.34 35.79 35.74C37.09 34.53 43.86 32.09 50.5 32.09C56.76 32.09 63.62 34.5 65 35.76C66.76 37.37 72.01 47.04 72.01 55.03C72.01 55.32 72 55.61 71.98 55.9C71.98 56.01 71.96 56.11 71.95 56.22C70.92 65.54 58.31 72.79 50.64 72.94H50.68H50.39Z" fill="#C85B43"/>
<path d="M31.1901 52.28C31.1901 52.28 35.7501 61.71 39.6601 61.71C42.6501 61.71 46.3901 60.18 46.3901 60.18C46.3901 60.18 47.9801 44.47 39.3101 43.96C35.4101 43.73 31.1801 52.28 31.1801 52.28" fill="#B64D3C"/>
<path d="M69.66 52.28C69.66 52.28 65.1 61.71 61.19 61.71C58.2 61.71 54.46 60.18 54.46 60.18C54.46 60.18 52.87 44.47 61.54 43.96C65.44 43.73 69.67 52.28 69.67 52.28" fill="#B64D3C"/>
<path d="M35.42 46.03C35.42 46.03 35.43 45.99 35.47 45.93C35.5 45.86 35.55 45.76 35.63 45.65C35.7 45.53 35.8 45.4 35.93 45.25C36.06 45.11 36.2 44.94 36.38 44.79C36.47 44.71 36.57 44.63 36.67 44.55C36.78 44.48 36.89 44.4 37 44.32C37.11 44.24 37.24 44.18 37.37 44.11C37.5 44.04 37.63 43.97 37.78 43.92C38.07 43.82 38.37 43.71 38.7 43.67C39.02 43.59 39.36 43.5999 39.69 43.5999C40.02 43.5999 40.35 43.68 40.67 43.74C40.98 43.84 41.28 43.94 41.57 44.06C41.84 44.21 42.09 44.35 42.33 44.5C42.55 44.66 42.74 44.84 42.92 44.99C43.01 45.07 43.09 45.1499 43.17 45.2199C43.24 45.2999 43.3 45.39 43.36 45.46C43.48 45.61 43.58 45.7399 43.66 45.8499C43.82 46.0699 43.89 46.21 43.89 46.21C43.89 46.21 43.73 46.16 43.49 46.05C43.37 46 43.22 45.94 43.06 45.86C42.9 45.78 42.71 45.71 42.51 45.64C42.31 45.57 42.1 45.47 41.87 45.39C41.64 45.32 41.4 45.25 41.16 45.17C40.91 45.12 40.66 45.07 40.41 45C40.28 44.99 40.15 44.98 40.02 44.96C39.89 44.95 39.76 44.92 39.63 44.93C39.37 44.93 39.11 44.91 38.86 44.95C38.73 44.97 38.6 44.95 38.48 44.99C38.36 45.01 38.23 45.04 38.11 45.05C37.98 45.06 37.87 45.11 37.75 45.14C37.63 45.17 37.51 45.19 37.4 45.23C37.17 45.3 36.96 45.37 36.76 45.45C36.56 45.52 36.38 45.5999 36.21 45.6599C36.05 45.7399 35.9 45.7899 35.78 45.8499C35.66 45.9099 35.56 45.95 35.5 45.99C35.43 46.02 35.4 46.04 35.4 46.04L35.42 46.03Z" fill="white"/>
<path d="M65.51 46.03C65.51 46.03 65.47 46.01 65.41 45.98C65.35 45.95 65.25 45.9 65.13 45.84C65.01 45.78 64.86 45.73 64.7 45.65C64.53 45.59 64.35 45.5 64.15 45.44C63.95 45.36 63.73 45.29 63.51 45.22C63.4 45.18 63.28 45.15 63.16 45.13C63.04 45.11 62.93 45.06 62.8 45.04C62.68 45.02 62.55 45 62.43 44.97C62.31 44.94 62.18 44.95 62.05 44.93C61.8 44.89 61.54 44.91 61.28 44.91C61.15 44.9 61.02 44.93 60.89 44.94C60.76 44.96 60.63 44.97 60.5 44.98C60.25 45.05 60 45.09 59.75 45.15C59.51 45.23 59.27 45.3 59.04 45.37C58.81 45.45 58.61 45.55 58.4 45.62C58.2 45.69 58 45.76 57.85 45.84C57.69 45.92 57.54 45.98 57.42 46.03C57.17 46.14 57.02 46.19 57.02 46.19C57.02 46.19 57.1 46.05 57.25 45.83C57.33 45.72 57.43 45.58 57.55 45.44C57.61 45.37 57.67 45.28 57.75 45.21C57.83 45.13 57.91 45.06 58 44.98C58.18 44.83 58.37 44.65 58.59 44.49C58.82 44.35 59.08 44.2 59.35 44.05C59.63 43.93 59.93 43.83 60.24 43.73C60.56 43.68 60.89 43.6 61.22 43.59C61.56 43.59 61.89 43.59 62.21 43.66C62.54 43.7 62.84 43.81 63.13 43.91C63.28 43.96 63.41 44.03 63.54 44.1C63.67 44.17 63.8 44.23 63.91 44.31C64.02 44.39 64.14 44.46 64.24 44.54C64.34 44.62 64.44 44.7 64.53 44.78C64.72 44.93 64.85 45.1 64.98 45.24C65.1 45.39 65.2 45.52 65.28 45.64C65.36 45.75 65.41 45.85 65.44 45.92C65.47 45.98 65.49 46.02 65.49 46.02L65.51 46.03Z" fill="white"/>
<path d="M53.1 55.54C53.1 59.61 54.6 60.72 54.57 59.96C54.54 59.08 56.4 59.71 56.32 54.1C56.25 49.01 62.77 47 61.98 46.84C56.12 45.59 53.1 51.47 53.1 55.54Z" fill="white"/>
<path d="M68.88 55.46C68.75 52.98 68.5 49.02 62.89 48.44C59.83 48.12 55.51 51.8 55.1 53.98C54.69 56.16 68.88 55.46 68.88 55.46Z" fill="white"/>
<path d="M47.32 55.54C47.32 59.61 46.12 60.79 46.14 60.03C46.17 59.15 44.17 58.17 44.1 54.1C44.01 49.01 37.65 47 38.44 46.84C44.3 45.59 47.32 51.47 47.32 55.54Z" fill="white"/>
<path d="M67.3201 63.52C67.3201 65.71 65.5501 67.48 63.3601 67.48C63.3601 67.48 53.8701 71.87 50.4701 71.87C47.0501 71.87 37.5201 67.48 37.5201 67.48C35.3301 67.48 33.5601 65.7 33.5601 63.52V61C33.5601 58.81 35.3301 57.04 37.5201 57.04C37.5201 57.04 47.1801 59.92 50.5001 59.92C53.7901 59.92 63.3601 57.04 63.3601 57.04C65.5501 57.04 67.3201 58.81 67.3201 61V63.52Z" fill="#59241E"/>
<path d="M31.54 55.46C31.67 52.98 31.92 49.02 37.53 48.44C40.59 48.12 44.91 51.8 45.32 53.98C45.73 56.16 31.54 55.46 31.54 55.46Z" fill="white"/>
<path d="M67.3201 57.56C67.1901 60.04 66.9401 63.99 61.3301 64.58C58.2701 64.9 54.0201 61.1 53.6001 58.92C53.1901 56.74 67.3101 57.56 67.3101 57.56" fill="white"/>
<path d="M33.13 57.38C33.26 59.87 33.51 63.82 39.12 64.4C42.17 64.72 46.5 61.04 46.91 58.86C47.32 56.68 33.13 57.37 33.13 57.37" fill="white"/>
<path d="M54.97 63.43C53.31 61.48 52.64 59.29 50.42 58.82C48.21 59.29 47.67 61.48 46.02 63.43C44.62 65.07 41.86 66.29 41.86 68.16C41.86 69.94 46.21 73.31 50.5 73.4C54.79 73.31 59.13 69.94 59.13 68.16C59.13 66.29 56.37 65.07 54.97 63.43Z" fill="white"/>
<path d="M53.74 68.36C53.69 68.42 54.3 68.85 53.38 69.48C53.06 69.7 52.79 69.81 52.29 69.79C52.04 69.78 51.78 69.73 51.56 69.66C51.34 69.59 51.14 69.49 50.99 69.39C50.91 69.34 50.85 69.28 50.79 69.23C50.73 69.18 50.69 69.13 50.65 69.09C50.59 69.02 50.55 68.97 50.55 68.96L50.57 68.07H50.33L50.35 68.96C50.35 68.96 50.31 69.01 50.25 69.09C50.21 69.13 50.17 69.18 50.12 69.23C50.07 69.28 50 69.33 49.92 69.39C49.77 69.49 49.57 69.59 49.35 69.66C49.13 69.73 48.87 69.77 48.62 69.79C48.11 69.82 47.84 69.7 47.53 69.48C46.61 68.85 47.22 68.42 47.17 68.36C47.12 68.3 46.67 68.67 46.71 68.73C46.75 68.8 46.96 69.19 47.03 69.26C47.94 70.27 49.15 69.89 49.39 69.83C49.63 69.77 49.85 69.67 50.03 69.57C50.12 69.52 50.2 69.46 50.26 69.41C50.33 69.36 50.38 69.31 50.42 69.27L50.44 69.25L50.46 69.27C50.46 69.27 50.56 69.36 50.62 69.41C50.68 69.47 50.76 69.52 50.85 69.57C51.03 69.67 51.25 69.77 51.49 69.83C51.73 69.89 52.94 70.27 53.85 69.26C53.92 69.19 54.13 68.8 54.17 68.73C54.21 68.66 53.76 68.29 53.71 68.36H53.74Z" fill="#231F20"/>
<path d="M49.84 66.32C49.84 66.86 49.4 67.29 48.87 67.29C48.34 67.29 47.9 66.85 47.9 66.32C47.9 65.79 48.33 65.35 48.87 65.35C49.41 65.35 49.84 65.78 49.84 66.32Z" fill="#090909"/>
<path d="M53.11 66.25C53.11 66.79 52.68 67.22 52.14 67.22C51.6 67.22 51.17 66.78 51.17 66.25C51.17 65.72 51.6 65.28 52.14 65.28C52.68 65.28 53.11 65.72 53.11 66.25Z" fill="#090909"/>
<path d="M53.43 64.76C52.69 63.87 51.51 64 50.46 64.01C49.41 64.01 48.23 63.87 47.49 64.76C46.75 65.66 47.08 65.96 47.49 66.44C47.9 66.93 48.77 67.54 49.05 67.54L49.03 67.36C49.01 67.28 48.99 67.18 49 67.08C49 67.08 47.58 66.75 48.2 66.04C48.48 65.72 49.13 65.85 49.08 66.32C49.02 66.87 49.08 66.32 49 67.01V67.08L49.03 67.36C49.16 67.78 49.61 67.93 49.86 67.99C50.15 68.06 50.31 68.1 50.46 68.1C50.61 68.1 50.77 68.06 51.06 67.99C51.31 67.93 51.76 67.78 51.89 67.36L51.92 67.08V67.01C51.84 66.32 51.9 66.87 51.84 66.32C51.79 65.85 52.44 65.72 52.72 66.04C53.34 66.75 51.92 67.07 51.92 67.07C51.92 67.18 51.92 67.27 51.89 67.36L51.87 67.54C52.15 67.54 53.02 66.93 53.43 66.44C53.84 65.95 54.17 65.65 53.43 64.76Z" fill="#232323"/>
<path d="M50.4701 65.8C49.5501 65.8 48.8 65.5 48.8 65.12C48.8 64.74 49.6 64.21 50.53 64.21C51.46 64.21 52.1501 64.74 52.1501 65.12C52.1501 65.5 51.4 65.8 50.48 65.8" fill="#5C5858"/>
<path d="M65.11 55.93C64.37 56.76 67.65 59.09 67.1 62.23C66.79 64 66.15 64.98 64.96 65.59C62.64 66.76 54.28 70.48 54.21 72.59C54.21 72.59 71.32 67.08 72.41 61.61C73.38 56.7 71.95 54.4 71.95 54.4C71.95 54.4 67.85 52.87 65.12 55.93" fill="white"/>
<path d="M35.66 55.93C36.41 56.76 33.12 59.09 33.67 62.23C33.98 64 34.62 64.98 35.81 65.59C38.13 66.76 47.82 70.87 47.89 72.98C47.89 72.98 29.03 66.79 28.37 61.61C27.74 56.65 28.83 54.4 28.83 54.4C28.83 54.4 32.93 52.87 35.66 55.93Z" fill="white"/>
<path d="M46.4 60.18C39.2 63.61 34.14 61.39 31.85 52.5C31.85 52.5 40.51 45.78 45.1 54.4C45.81 55.74 46.39 60.18 46.39 60.18" fill="white"/>
<path d="M39.44 60.74C37.44 60.7 35.77 59.11 35.12 56.91C34.92 56.24 34.82 55.51 34.84 54.75C34.9 51.68 36.81 50.59 39.21 50.52C39.36 50.52 39.51 50.52 39.66 50.52C42.27 50.58 44.25 53.29 44.29 54.95C44.38 58.2 42.05 60.79 39.44 60.74Z" fill="#F89640"/>
<path d="M39.46 59.92C37.95 59.88 36.62 58.59 36.07 56.62C35.89 55.99 35.81 55.33 35.83 54.65C35.88 52.36 36.96 51.27 39.23 51.2C39.34 51.2 39.46 51.2 39.57 51.2H39.63C41.69 51.25 43.25 53.64 43.28 54.87C43.32 56.36 42.82 57.77 41.92 58.76C41.23 59.52 40.37 59.93 39.51 59.93H39.45" fill="#60281F"/>
<path d="M54.4301 60.18C61.6301 63.61 66.6901 61.39 68.9801 52.5C68.9801 52.5 60.3201 45.78 55.7301 54.4C55.0201 55.74 54.4401 60.18 54.4401 60.18" fill="white"/>
<path d="M61.39 60.74C63.39 60.7 65.06 59.11 65.71 56.91C65.91 56.24 66.01 55.51 65.99 54.75C65.93 51.68 64.02 50.59 61.62 50.52C61.47 50.52 61.32 50.52 61.17 50.52C58.56 50.58 56.58 53.29 56.54 54.95C56.45 58.2 58.78 60.79 61.39 60.74Z" fill="#F89640"/>
<path d="M61.3101 59.92C60.4501 59.92 59.5901 59.51 58.9001 58.75C58.0001 57.77 57.5001 56.35 57.5401 54.86C57.5701 53.63 59.1401 51.23 61.2001 51.19H61.2601C61.3701 51.19 61.4901 51.19 61.6001 51.19C63.8801 51.26 64.9601 52.36 65.0001 54.64C65.0101 55.32 64.9301 55.98 64.7601 56.61C64.2201 58.59 62.8901 59.88 61.3701 59.92H61.3101Z" fill="#60281F"/>
<path d="M39.76 53.53C39.72 55.5 38.4 57.07 36.82 57.04C36.11 57.02 35.46 56.68 34.97 56.13C34.8 55.54 34.71 54.9 34.72 54.24C34.78 51.56 36.44 50.6 38.54 50.54C39.3 51.19 39.78 52.29 39.75 53.53" fill="white"/>
<path d="M42.24 59.23C42.23 59.89 41.78 60.43 41.25 60.42C40.71 60.42 40.29 59.86 40.31 59.19C40.32 58.52 40.77 57.99 41.31 58C41.85 58 42.27 58.56 42.25 59.23H42.24Z" fill="white"/>
<path d="M61.27 53.83C61.23 55.8 59.91 57.37 58.33 57.34C57.62 57.32 56.97 56.98 56.48 56.43C56.31 55.84 56.22 55.2 56.23 54.54C56.29 51.86 57.95 50.9 60.06 50.84C60.82 51.49 61.3 52.6 61.27 53.83Z" fill="white"/>
<path d="M63.94 59.23C63.93 59.89 63.48 60.43 62.95 60.42C62.41 60.42 61.99 59.86 62.01 59.19C62.02 58.52 62.47 57.99 63.01 58C63.55 58 63.97 58.56 63.95 59.23H63.94Z" fill="white"/>
<path d="M31.85 52.5C31.85 52.5 31.9 52.46 31.99 52.4C31.9 52.47 31.85 52.5 31.85 52.5Z" fill="#AC5040"/>
<path d="M46.28 60.23C46.32 60.21 46.36 60.2 46.39 60.18C46.39 60.18 46.39 60.14 46.38 60.08C46.38 60.14 46.39 60.18 46.39 60.18C46.35 60.2 46.31 60.22 46.27 60.24" fill="#5A2924"/>
<path d="M45.14 54.46C45.14 54.46 45.12 54.42 45.11 54.4C43.31 51.03 40.9 50 38.62 50C40.9 50 43.31 51.03 45.11 54.39C45.12 54.41 45.13 54.43 45.14 54.46ZM32.27 53.97C32.14 53.56 32.01 53.14 31.9 52.69C32.02 53.13 32.14 53.56 32.27 53.97Z" fill="#E2E1E1"/>
<path d="M45.1 60.74C44.87 59.47 44.55 58.05 44.19 57.39C44.13 57.27 44.06 57.15 43.99 57.04C44.19 56.4 44.3 55.69 44.28 54.96C44.24 53.3 42.26 50.59 39.65 50.53H39.58C39.46 50.53 39.33 50.53 39.21 50.53C39 50.53 38.79 50.55 38.59 50.57C38.58 50.56 38.56 50.55 38.55 50.54C36.65 50.6 35.11 51.38 34.79 53.5C33.9 53.79 33.1 54.17 32.47 54.52C32.41 54.34 32.34 54.16 32.28 53.97C32.15 53.56 32.03 53.14 31.91 52.69C31.89 52.62 31.88 52.56 31.86 52.49C31.86 52.49 31.91 52.45 32 52.39C32.17 52.27 32.48 52.05 32.91 51.8C34.1 51.08 36.18 50.07 38.42 50C38.49 50 38.56 50 38.63 50C40.91 50 43.32 51.03 45.12 54.4C45.13 54.42 45.14 54.44 45.15 54.46C45.51 55.2 45.84 56.72 46.07 58.01C46.24 58.97 46.36 59.8 46.4 60.08C46.4 60.14 46.41 60.18 46.41 60.18C46.37 60.2 46.33 60.22 46.3 60.23C45.9 60.42 45.51 60.59 45.12 60.74" fill="#E2E1E1"/>
<path d="M44 57.04C43.76 56.61 43.5 56.23 43.24 55.88C43.29 55.55 43.31 55.21 43.3 54.86C43.27 53.63 41.7 51.23 39.65 51.19H39.59C39.48 51.19 39.36 51.19 39.25 51.19C39.21 51.19 39.17 51.19 39.13 51.19C38.98 50.96 38.8 50.75 38.6 50.57C38.8 50.55 39.01 50.53 39.22 50.53C39.34 50.53 39.47 50.53 39.59 50.53H39.66C42.27 50.59 44.25 53.3 44.29 54.96C44.31 55.69 44.21 56.4 44 57.04Z" fill="#DF8C46"/>
<path d="M43.24 55.88C42.18 54.49 40.98 53.69 39.76 53.3C39.74 52.5 39.5 51.77 39.12 51.2C39.16 51.2 39.2 51.2 39.24 51.2C39.35 51.2 39.47 51.2 39.58 51.2H39.64C41.7 51.25 43.26 53.64 43.29 54.87C43.29 55.21 43.28 55.56 43.23 55.89" fill="#612E25"/>
<path d="M34.78 53.5C35.11 51.38 36.65 50.6 38.54 50.54C38.55 50.55 38.57 50.56 38.58 50.57C38.78 50.75 38.96 50.96 39.11 51.19C39.49 51.77 39.73 52.5 39.75 53.29C39.07 53.08 38.38 52.99 37.7 52.99C36.67 52.99 35.68 53.2 34.77 53.5" fill="#E2E1E1"/>
<path d="M54.78 57.97C54.99 56.8 55.28 55.46 55.6 54.67C55.28 55.45 54.99 56.8 54.78 57.97Z" fill="#E2E1E1"/>
<path d="M55.6 54.67C55.64 54.56 55.69 54.47 55.73 54.39C55.95 53.98 56.18 53.61 56.41 53.27C56.18 53.62 55.95 53.99 55.73 54.4C55.69 54.48 55.64 54.58 55.6 54.68" fill="#E2E1E1"/>
<path d="M55.7301 60.74C55.3101 60.57 54.8701 60.39 54.4301 60.18C54.4301 60.18 54.5601 59.17 54.7801 57.97C54.5701 59.17 54.4301 60.18 54.4301 60.18C54.8701 60.39 55.3001 60.58 55.7201 60.74" fill="#E2E1E1"/>
<path d="M55.7301 60.74C55.3101 60.57 54.8701 60.38 54.4401 60.18C54.4401 60.18 54.5701 59.17 54.7901 57.97C55.0001 56.8 55.2901 55.46 55.6101 54.67C55.6501 54.57 55.7001 54.47 55.7401 54.39C55.9601 53.98 56.1801 53.61 56.4201 53.27C56.3201 53.64 56.2601 54.06 56.2501 54.54C56.2401 55.2 56.3201 55.84 56.5001 56.43C56.5801 56.52 56.6701 56.61 56.7501 56.68C56.7801 56.8 56.8101 56.92 56.8501 57.03C56.7801 57.15 56.7201 57.26 56.6501 57.38C56.3001 58.04 55.9801 59.46 55.7501 60.73" fill="#E2E1E1"/>
<path d="M56.83 57.04C56.79 56.92 56.76 56.81 56.73 56.69C56.8 56.75 56.87 56.81 56.94 56.86C56.9 56.92 56.87 56.98 56.83 57.05" fill="#DF8C46"/>
<path d="M68.56 53.97C68.61 53.82 68.66 53.67 68.7 53.51C68.65 53.67 68.61 53.82 68.56 53.97ZM68.31 52.03C68.19 51.96 68.07 51.87 67.93 51.79C68.07 51.87 68.2 51.96 68.31 52.03ZM58.59 51.06C59.76 50.29 61.01 50 62.21 50C61 50 59.76 50.29 58.59 51.06Z" fill="#E2E1E1"/>
<path d="M68.37 54.52C67.68 54.14 66.81 53.73 65.82 53.43C65.3 51.37 63.64 50.59 61.62 50.53C61.5 50.53 61.37 50.53 61.24 50.53H61.17C60.64 50.54 60.13 50.66 59.66 50.86C59.28 50.89 58.92 50.96 58.59 51.06C59.76 50.29 61.01 50 62.21 50C62.28 50 62.35 50 62.42 50C64.65 50.06 66.73 51.08 67.93 51.79C68.07 51.87 68.2 51.96 68.31 52.03C68.74 52.3 68.98 52.49 68.98 52.49C68.89 52.84 68.8 53.18 68.7 53.51C68.65 53.67 68.61 53.82 68.56 53.97C68.5 54.16 68.44 54.34 68.37 54.52Z" fill="#E2E1E1"/>
<path d="M65.82 53.43C65.48 53.32 65.13 53.24 64.77 53.16C64.34 51.88 63.31 51.24 61.59 51.19C61.48 51.19 61.36 51.19 61.25 51.19H61.19C60.94 51.19 60.71 51.23 60.48 51.3C60.35 51.13 60.21 50.98 60.05 50.84C59.92 50.84 59.79 50.84 59.66 50.86C60.13 50.66 60.64 50.54 61.17 50.53H61.24C61.36 50.53 61.49 50.53 61.62 50.53C63.63 50.59 65.3 51.37 65.82 53.43Z" fill="#DF8C46"/>
<path d="M61.24 53.25C61.16 52.5 60.89 51.82 60.48 51.29C60.71 51.22 60.95 51.18 61.19 51.18H61.25C61.36 51.18 61.48 51.18 61.59 51.18C63.3 51.23 64.34 51.87 64.77 53.15C64.24 53.05 63.68 52.98 63.12 52.98C62.5 52.98 61.86 53.06 61.24 53.23" fill="#612E25"/>
<path d="M56.94 56.85C56.87 56.8 56.8 56.74 56.73 56.68C56.64 56.6 56.56 56.52 56.48 56.43C56.31 55.84 56.22 55.2 56.23 54.54C56.24 54.07 56.3 53.65 56.4 53.27C57.07 52.28 57.81 51.57 58.58 51.06C58.91 50.96 59.27 50.89 59.65 50.86C59.78 50.85 59.91 50.84 60.04 50.84C60.2 50.97 60.34 51.13 60.47 51.3C60.87 51.83 61.14 52.51 61.23 53.26C59.69 53.7 58.18 54.77 56.93 56.86" fill="#E2E1E1"/>
<path d="M46.4 60.18C46.31 59.74 46.21 59.3 46.11 58.86C46.01 58.42 45.92 57.98 45.81 57.55C45.71 57.11 45.59 56.68 45.47 56.26C45.35 55.82 45.21 55.44 45.05 55.03C44.96 54.84 44.87 54.59 44.77 54.45L44.42 53.9C44.17 53.54 43.92 53.19 43.63 52.87C43.49 52.7 43.35 52.55 43.19 52.4C43.04 52.25 42.89 52.0999 42.72 51.9699C42.56 51.8299 42.39 51.7 42.22 51.59C42.05 51.47 41.87 51.36 41.68 51.26C41.32 51.05 40.93 50.91 40.53 50.78C40.13 50.66 39.73 50.59 39.31 50.55C38.9 50.52 38.48 50.51 38.06 50.55C37.64 50.58 37.23 50.66 36.81 50.75C35.98 50.95 35.17 51.24 34.4 51.62C34.01 51.81 33.63 52.01 33.26 52.23C32.89 52.45 32.52 52.69 32.2 52.93L32.4 52.34L32.73 53.51C32.83 53.9 32.98 54.28 33.11 54.65C33.24 55.03 33.38 55.41 33.55 55.77C33.72 56.13 33.85 56.5099 34.06 56.8499C34.26 57.1899 34.42 57.56 34.66 57.87C34.9 58.18 35.09 58.54 35.37 58.81C35.63 59.1 35.88 59.41 36.18 59.64L36.62 60.02L37.11 60.33C37.43 60.56 37.79 60.7 38.14 60.86C38.49 61.02 38.88 61.08 39.26 61.21C39.65 61.26 40.04 61.34 40.44 61.36C40.84 61.36 41.24 61.3999 41.64 61.3499C42.04 61.2999 42.45 61.3 42.84 61.2C43.24 61.11 43.65 61.07 44.03 60.94C44.42 60.82 44.82 60.73 45.21 60.58L46.38 60.1599L46.4 60.18ZM46.4 60.18L45.3 60.75C44.93 60.93 44.53 61.07 44.15 61.23C43.77 61.41 43.35 61.49 42.96 61.62C42.56 61.76 42.14 61.8 41.73 61.9C41.32 62 40.88 61.98 40.46 62.02C40.03 62.02 39.6 61.98 39.17 61.95C38.75 61.84 38.31 61.8 37.9 61.64C37.49 61.48 37.07 61.3499 36.7 61.0999L36.13 60.77L35.61 60.37C35.25 60.12 34.96 59.7899 34.66 59.4699C34.34 59.1699 34.12 58.8 33.84 58.46C33.56 58.12 33.38 57.73 33.15 57.37C32.91 57 32.76 56.61 32.57 56.23C32.38 55.85 32.23 55.45 32.08 55.05C31.94 54.65 31.77 54.2599 31.67 53.8499L31.31 52.63L31.21 52.27L31.52 52.0399C31.92 51.7399 32.29 51.49 32.7 51.25C33.1 51.02 33.51 50.7999 33.94 50.5999C34.78 50.1999 35.67 49.89 36.59 49.68C37.05 49.58 37.52 49.51 38 49.49C38.48 49.45 38.96 49.48 39.44 49.53C39.92 49.59 40.39 49.6899 40.85 49.8499C41.08 49.9299 41.31 50.01 41.52 50.12C41.74 50.22 41.95 50.33 42.15 50.46C42.36 50.58 42.55 50.72 42.74 50.86C42.94 51 43.11 51.16 43.29 51.32C43.47 51.48 43.63 51.65 43.79 51.82C43.95 51.99 44.11 52.17 44.24 52.36C44.53 52.72 44.77 53.12 45.01 53.52L45.34 54.13C45.47 54.38 45.51 54.56 45.6 54.78C45.73 55.22 45.85 55.7 45.92 56.14C46.01 56.58 46.07 57.03 46.14 57.48C46.27 58.37 46.36 59.27 46.42 60.17L46.4 60.18Z" fill="#232323"/>
<path d="M54.43 60.18C54.49 59.28 54.58 58.39 54.71 57.49C54.77 57.04 54.84 56.59 54.93 56.15C55 55.71 55.12 55.23 55.25 54.79C55.34 54.57 55.38 54.39 55.51 54.14L55.84 53.53C56.08 53.13 56.32 52.73 56.61 52.37C56.75 52.18 56.9 52 57.06 51.83C57.22 51.66 57.38 51.48 57.56 51.33C57.73 51.17 57.91 51.01 58.11 50.87C58.3 50.72 58.49 50.58 58.7 50.47C58.9 50.34 59.11 50.23 59.33 50.13C59.54 50.01 59.77 49.94 60 49.86C60.46 49.7 60.93 49.6 61.41 49.54C61.89 49.49 62.37 49.46 62.85 49.5C63.33 49.52 63.8 49.6 64.26 49.69C65.18 49.9 66.07 50.21 66.91 50.61C67.33 50.81 67.75 51.02 68.15 51.26C68.56 51.5 68.93 51.75 69.33 52.05L69.64 52.28L69.53 52.64L69.17 53.86C69.06 54.27 68.9 54.66 68.76 55.06C68.62 55.46 68.47 55.86 68.28 56.24C68.09 56.62 67.93 57.02 67.7 57.38C67.47 57.74 67.29 58.13 67.01 58.47C66.74 58.81 66.52 59.18 66.2 59.48C65.9 59.79 65.61 60.12 65.25 60.38L64.73 60.78L64.16 61.11C63.79 61.35 63.37 61.49 62.96 61.65C62.55 61.82 62.11 61.85 61.69 61.96C61.26 61.99 60.83 62.04 60.4 62.03C59.97 61.99 59.54 62.01 59.13 61.91C58.72 61.82 58.29 61.77 57.89 61.63C57.49 61.49 57.08 61.41 56.7 61.24C56.31 61.08 55.92 60.94 55.55 60.76L54.45 60.19L54.43 60.18ZM54.43 60.18L55.6 60.6C55.99 60.74 56.39 60.84 56.78 60.96C57.17 61.09 57.58 61.14 57.97 61.22C58.37 61.32 58.78 61.32 59.17 61.37C59.57 61.42 59.97 61.37 60.37 61.38C60.77 61.36 61.16 61.28 61.55 61.23C61.92 61.1 62.31 61.04 62.67 60.88C63.02 60.71 63.39 60.58 63.7 60.35L64.19 60.04L64.63 59.66C64.94 59.43 65.18 59.11 65.45 58.83C65.73 58.56 65.92 58.2 66.16 57.89C66.4 57.58 66.56 57.2 66.76 56.87C66.97 56.53 67.1 56.15 67.27 55.79C67.45 55.43 67.58 55.05 67.71 54.67C67.84 54.29 67.99 53.92 68.09 53.53L68.42 52.36L68.62 52.95C68.3 52.71 67.92 52.47 67.56 52.25C67.19 52.03 66.81 51.82 66.42 51.64C65.64 51.26 64.83 50.97 64.01 50.77C63.6 50.68 63.18 50.6 62.76 50.57C62.34 50.52 61.92 50.53 61.51 50.57C61.1 50.61 60.69 50.68 60.29 50.8C59.9 50.93 59.5 51.07 59.14 51.28C58.95 51.37 58.78 51.48 58.6 51.61C58.42 51.72 58.26 51.85 58.1 51.99C57.93 52.12 57.78 52.26 57.63 52.42C57.47 52.57 57.33 52.72 57.19 52.89C56.9 53.21 56.65 53.56 56.4 53.92L56.05 54.47C55.96 54.61 55.86 54.86 55.77 55.05C55.61 55.46 55.47 55.84 55.35 56.28C55.22 56.71 55.11 57.14 55.01 57.57C54.9 58 54.81 58.44 54.71 58.88C54.61 59.32 54.51 59.76 54.42 60.2L54.43 60.18Z" fill="#232323"/>
</svg>
