<svg width="102" height="102" viewBox="0 0 102 102" fill="none" xmlns="http://www.w3.org/2000/svg">
<path d="M92.8899 0.880005H9.29987C4.51156 0.880005 0.629883 4.7617 0.629883 9.55001V93.14C0.629883 97.9283 4.51156 101.81 9.29987 101.81H92.8899C97.6782 101.81 101.56 97.9283 101.56 93.14V9.55001C101.56 4.7617 97.6782 0.880005 92.8899 0.880005Z" fill="#24B999"/>
<path d="M45.4699 87.66C44.8299 87.66 44.2399 87.33 43.8899 86.79C41.0499 82.37 40.0999 75.82 39.8299 70.75C29.4699 67.69 24.6199 59.58 26.1299 47.79C26.2899 46.52 26.7599 44.22 27.0599 42.7C27.1699 42.18 27.2499 41.75 27.2999 41.52H27.2599C27.3599 41.14 27.4199 40.85 27.4799 40.57C27.6599 39.78 27.8099 39.1 28.4699 37.43C32.2799 27.81 38.9499 23.89 51.4999 23.89C63.0799 23.89 70.6999 28.53 74.1399 37.69L75.2999 41.58C75.7499 43.57 76.0499 45.59 76.2399 47.86C77.2899 61.02 73.0999 68.16 62.6899 70.86C62.2899 75.93 61.1699 82.45 58.2199 86.8C57.8699 87.32 57.2899 87.63 56.6599 87.63C56.0999 87.63 55.57 87.39 55.21 86.96C54.85 86.54 54.6999 85.99 54.7899 85.44C55.1499 83.21 55.92 77.68 55.83 71.95C55.78 71.95 55.7299 71.95 55.6699 71.96C54.2099 72.29 52.81 72.47 51.52 72.49H51.1999C49.9899 72.49 48.6399 72.32 47.1899 71.97C47.0099 71.97 46.8399 71.95 46.6599 71.94C46.4199 77.69 47.0599 83.26 47.3599 85.52C47.4299 86.06 47.2699 86.6 46.9199 87.01C46.5599 87.42 46.0299 87.66 45.4799 87.66H45.4699Z" fill="#2F150C"/>
<path d="M72.78 38.1901C69.95 30.6801 63.8599 25.3301 51.4999 25.3301C39.1399 25.3301 33.47 28.7401 29.82 37.9501C28.97 40.1101 29.0299 40.4401 28.6599 41.8601C29.1399 40.0201 27.86 45.7401 27.57 47.9701C25.57 63.4901 35.29 69.9101 47.39 70.5301C48.77 70.8701 50.0499 71.0401 51.1899 71.0401C51.2899 71.0401 51.3899 71.0401 51.4899 71.0401C52.7399 71.0201 54.08 70.8301 55.45 70.5201C70.54 69.4601 75.95 62.6301 74.78 47.9701C74.61 45.9101 74.34 43.9001 73.9 41.9801L72.78 38.1901Z" fill="#B5AFA5"/>
<path d="M51.1899 69.3301C50.1499 69.3301 48.9499 69.1701 47.6299 68.8501L47.53 68.8301H47.4299C39.0599 68.4601 35.9199 66.7401 33.1199 63.4101C30.3999 60.1801 27.58 55.2501 28.59 47.4301C28.87 45.2401 29.2299 43.2301 29.6599 41.4301L30.7899 37.6301C33.9199 29.0301 39.7299 25.6901 51.4999 25.6901C62.0899 25.6901 68.7299 29.6801 71.8099 37.8801L72.8899 41.5401C73.2899 43.3101 73.5799 45.2701 73.7499 47.3801C74.3799 55.2901 72.0999 60.5301 69.1299 63.8901C66.4999 66.8701 63.54 68.4301 55.4 68.8101H55.3099L55.2199 68.8401C53.8799 69.1501 52.6199 69.3101 51.4699 69.3301H51.1899Z" fill="#D1CDC3"/>
<path d="M31.22 47.49C31.22 47.49 35.97 57.3 40.04 57.3C43.15 57.3 47.05 55.71 47.05 55.71C47.05 55.71 48.7 39.36 39.68 38.84C35.62 38.6 31.22 47.5 31.22 47.5" fill="#B5AFA5"/>
<path d="M71.2499 47.49C71.2499 47.49 66.4999 57.3 62.4299 57.3C59.3199 57.3 55.4199 55.71 55.4199 55.71C55.4199 55.71 53.7699 39.36 62.7899 38.84C66.8499 38.6 71.2499 47.5 71.2499 47.5" fill="#B5AFA5"/>
<path d="M35.6199 40.9901C35.6199 40.9901 35.6299 40.9501 35.6699 40.8801C35.7099 40.8101 35.7599 40.7101 35.8399 40.5901C35.9199 40.4701 36.0199 40.3301 36.1499 40.1701C36.2799 40.0301 36.4299 39.8501 36.6199 39.6901C36.7099 39.6101 36.8099 39.5301 36.9199 39.4401C37.0299 39.3601 37.1499 39.2901 37.2699 39.2001C37.3899 39.1101 37.5199 39.0601 37.6599 38.9801C37.7999 38.9101 37.9299 38.8401 38.0899 38.7801C38.3899 38.6701 38.7099 38.5601 39.0499 38.5201C39.3799 38.4401 39.7299 38.4501 40.0799 38.4401C40.4299 38.4401 40.7699 38.5301 41.0999 38.5801C41.4199 38.6801 41.7399 38.7901 42.0299 38.9101C42.3099 39.0601 42.5699 39.2201 42.8199 39.3601C43.0499 39.5201 43.2499 39.7101 43.4399 39.8701C43.5299 39.9601 43.6199 40.0301 43.6999 40.1101C43.7799 40.1901 43.8399 40.2801 43.8999 40.3501C44.0299 40.5001 44.1299 40.6501 44.2099 40.7601C44.3699 40.9901 44.4499 41.1301 44.4499 41.1301C44.4499 41.1301 44.2899 41.0801 44.0299 40.9701C43.8999 40.9201 43.7499 40.8601 43.5799 40.7701C43.4199 40.6801 43.2199 40.6201 42.9999 40.5401C42.7899 40.4601 42.5699 40.3601 42.3399 40.2801C42.0999 40.2101 41.8499 40.1401 41.5999 40.0501C41.3399 40.0001 41.0799 39.9501 40.8199 39.8801C40.6899 39.8701 40.5499 39.8601 40.4199 39.8401C40.2899 39.8301 40.1599 39.8001 40.0199 39.8101C39.7499 39.8101 39.4798 39.7901 39.2198 39.8301C39.0898 39.8501 38.9499 39.8301 38.8199 39.8701C38.6899 39.8901 38.5599 39.9201 38.4299 39.9401C38.2999 39.9501 38.1799 40.0101 38.0599 40.0301C37.9399 40.0601 37.8099 40.0801 37.6999 40.1301C37.4599 40.2001 37.2399 40.2701 37.0299 40.3601C36.8199 40.4301 36.6299 40.5201 36.4599 40.5801C36.2999 40.6601 36.1299 40.7201 36.0199 40.7801C35.8899 40.8401 35.7899 40.8901 35.7299 40.9201C35.6599 40.9501 35.6199 40.9701 35.6199 40.9701V40.9901Z" fill="#544D41"/>
<path d="M66.6899 40.99C66.6899 40.99 66.6599 40.97 66.5799 40.94C66.5099 40.91 66.4199 40.86 66.2899 40.8C66.1699 40.73 66.0099 40.68 65.8499 40.6C65.6699 40.53 65.4899 40.45 65.2799 40.38C65.0699 40.3 64.8499 40.23 64.6099 40.15C64.4899 40.11 64.3699 40.08 64.2499 40.05C64.1299 40.03 64.0099 39.97 63.8799 39.96C63.7499 39.94 63.6199 39.92 63.4899 39.89C63.3599 39.86 63.2299 39.87 63.0899 39.85C62.8299 39.81 62.5599 39.83 62.2899 39.83C62.1599 39.82 62.0199 39.85 61.8899 39.86C61.7599 39.88 61.6199 39.89 61.4899 39.9C61.2299 39.97 60.9699 40.02 60.7099 40.07C60.4599 40.16 60.2199 40.23 59.9799 40.3C59.7399 40.39 59.5299 40.49 59.3199 40.56C59.1099 40.64 58.9099 40.71 58.7399 40.8C58.5699 40.88 58.4199 40.94 58.2899 41C58.0299 41.11 57.8699 41.16 57.8699 41.16C57.8699 41.16 57.9499 41.02 58.1099 40.79C58.1999 40.68 58.2999 40.53 58.4199 40.38C58.4899 40.3 58.5499 40.21 58.6299 40.14C58.7099 40.06 58.7999 39.99 58.8799 39.9C59.0699 39.74 59.2699 39.56 59.4999 39.39C59.7399 39.24 60.0099 39.09 60.2899 38.94C60.5799 38.82 60.8998 38.71 61.2198 38.61C61.5498 38.56 61.8999 38.48 62.2399 38.47C62.5899 38.47 62.9399 38.47 63.2699 38.55C63.6099 38.59 63.9299 38.71 64.2299 38.81C64.3799 38.86 64.5199 38.94 64.6599 39.01C64.7899 39.08 64.9299 39.14 65.0499 39.23C65.1699 39.31 65.2899 39.39 65.3999 39.47C65.5099 39.55 65.6099 39.64 65.6999 39.72C65.8899 39.88 66.0399 40.06 66.1699 40.2C66.2999 40.35 66.3999 40.49 66.4799 40.62C66.5599 40.74 66.6099 40.84 66.6499 40.91C66.6799 40.98 66.6999 41.02 66.6999 41.02L66.6899 40.99Z" fill="#544D41"/>
<path d="M47.0399 55.71C39.5499 59.28 34.2799 56.97 31.8999 47.72C31.8999 47.72 40.9099 40.73 45.6899 49.7C46.4299 51.09 47.0299 55.72 47.0299 55.72" fill="#282828"/>
<path d="M39.8001 56.3C37.7201 56.26 35.9801 54.61 35.3101 52.32C35.1001 51.63 35.0001 50.86 35.0201 50.08C35.0901 46.89 37.0701 45.76 39.5601 45.68C39.7201 45.68 39.8701 45.67 40.0301 45.68C42.7501 45.74 44.8 48.56 44.85 50.29C44.94 53.67 42.5201 56.37 39.8101 56.31" fill="#303030"/>
<path d="M39.8199 55.44C38.2499 55.41 36.8599 54.05 36.2999 52.01C36.1199 51.35 36.0299 50.67 36.0499 49.96C36.0899 47.58 37.2199 46.44 39.5899 46.37C39.7099 46.37 39.8299 46.37 39.9499 46.37H40.0199C42.1599 46.42 43.7899 48.91 43.8199 50.19C43.8599 51.74 43.3399 53.21 42.3999 54.24C41.6799 55.03 40.7899 55.46 39.8899 55.46H39.8299" fill="#121212"/>
<path d="M55.3999 55.71C62.8899 59.28 68.1599 56.97 70.5399 47.72C70.5399 47.72 61.5299 40.73 56.7499 49.7C56.0099 51.09 55.3999 55.72 55.3999 55.72" fill="#282828"/>
<path d="M62.6398 56.3C64.7198 56.26 66.4598 54.61 67.1298 52.32C67.3398 51.63 67.4398 50.86 67.4198 50.08C67.3498 46.89 65.3698 45.76 62.8798 45.68C62.7298 45.68 62.5698 45.67 62.4098 45.68C59.6998 45.74 57.6398 48.56 57.5898 50.29C57.4998 53.67 59.9198 56.37 62.6298 56.31" fill="#303030"/>
<path d="M62.5601 55.44C61.6601 55.44 60.7701 55.01 60.0501 54.22C59.1101 53.2 58.5901 51.72 58.6301 50.17C58.6601 48.89 60.2901 46.4 62.4401 46.35H62.5001C62.6201 46.35 62.7401 46.35 62.8601 46.35C65.2301 46.42 66.3601 47.56 66.4001 49.94C66.4101 50.65 66.3301 51.34 66.1501 51.99C65.5901 54.05 64.2001 55.4 62.6201 55.43H62.5601" fill="#121212"/>
<path d="M40.13 48.7901C40.09 50.8401 38.72 52.4701 37.07 52.4401C36.32 52.4201 35.66 52.0701 35.15 51.5001C34.97 50.8901 34.87 50.2201 34.89 49.5301C34.95 46.7401 36.68 45.7401 38.87 45.6801C39.66 46.3601 40.16 47.5101 40.13 48.7901Z" fill="white"/>
<path d="M42.7198 54.72C42.7098 55.41 42.2399 55.97 41.6899 55.95C41.1299 55.94 40.6899 55.37 40.7099 54.67C40.7199 53.98 41.1899 53.42 41.7399 53.44C42.2999 53.45 42.7398 54.02 42.7198 54.72Z" fill="white"/>
<path d="M62.51 49.1C62.47 51.15 61.1 52.78 59.45 52.75C58.7 52.73 58.04 52.38 57.53 51.81C57.35 51.2 57.26 50.53 57.27 49.84C57.33 47.05 59.06 46.05 61.25 45.99C62.04 46.67 62.54 47.82 62.51 49.1Z" fill="white"/>
<path d="M65.3 54.72C65.29 55.41 64.82 55.97 64.27 55.95C63.71 55.94 63.27 55.37 63.29 54.67C63.3 53.98 63.77 53.42 64.32 53.44C64.88 53.45 65.32 54.02 65.3 54.72Z" fill="white"/>
<path d="M47.0399 55.71C47.0399 55.71 46.4299 51.09 45.6999 49.69C43.8299 46.18 41.3199 45.12 38.9499 45.12C38.8399 45.12 38.7199 45.12 38.6099 45.12C38.7299 45.12 38.8399 45.12 38.9599 45.12C41.3299 45.12 43.8399 46.19 45.7099 49.69C46.4399 51.06 47.0399 55.57 47.0499 55.71" fill="#A7A29A"/>
<path d="M45.6899 56.3C45.4499 54.98 45.1099 53.5 44.7499 52.81C44.6799 52.68 44.6199 52.56 44.5499 52.44C44.7599 51.77 44.8699 51.04 44.8499 50.27C44.8099 48.54 42.7499 45.72 40.0299 45.66H39.9599C39.8299 45.66 39.6999 45.66 39.5599 45.66C39.3399 45.66 39.1199 45.68 38.9099 45.7C38.8999 45.69 38.8799 45.68 38.8699 45.67C36.8999 45.73 35.2999 46.54 34.9499 48.75C34.0199 49.06 33.1899 49.45 32.5299 49.81C32.4599 49.62 32.3999 49.43 32.3299 49.23C32.1699 48.75 32.0299 48.24 31.8899 47.71C31.8899 47.71 31.9599 47.66 32.0899 47.57C32.8299 47.04 35.5599 45.26 38.5899 45.13C38.6999 45.13 38.8199 45.13 38.9299 45.13C41.2999 45.13 43.8099 46.2 45.6799 49.7C46.4199 51.09 47.0199 55.72 47.0199 55.72C46.5599 55.94 46.1099 56.14 45.6699 56.31" fill="#2D2D2C"/>
<path d="M44.5499 52.44C44.2999 52 44.0299 51.59 43.7599 51.23C43.8099 50.89 43.8299 50.53 43.8199 50.17C43.7899 48.89 42.16 46.4 40.02 46.35H39.95C39.83 46.35 39.71 46.35 39.59 46.35C39.55 46.35 39.5099 46.35 39.4699 46.35C39.3099 46.11 39.1199 45.89 38.9199 45.7C39.1299 45.68 39.3499 45.66 39.5699 45.66C39.6999 45.66 39.8299 45.66 39.9699 45.66H40.0399C42.7599 45.72 44.8099 48.54 44.8599 50.27C44.8799 51.03 44.7699 51.77 44.5599 52.44" fill="#343433"/>
<path d="M43.7499 51.23C42.6499 49.78 41.3999 48.95 40.1199 48.55C40.0999 47.72 39.85 46.96 39.46 46.36C39.5 46.36 39.54 46.36 39.58 46.36C39.7 46.36 39.8199 46.36 39.9399 46.36H40.0099C42.1499 46.41 43.7799 48.9 43.8099 50.18C43.8199 50.54 43.7999 50.89 43.7499 51.24" fill="#1B1B1B"/>
<path d="M34.95 48.7601C35.29 46.5501 36.8899 45.7401 38.8699 45.6801C38.8799 45.6901 38.8999 45.7001 38.9099 45.7101C39.1199 45.9001 39.3 46.1101 39.46 46.3601C39.86 46.9601 40.0999 47.7201 40.1199 48.5501C39.4099 48.3201 38.6899 48.2301 37.9899 48.2301C36.9199 48.2301 35.8799 48.4501 34.9399 48.7601" fill="#E2E1E1"/>
<path d="M55.3999 55.71C55.3999 55.71 55.3999 55.67 55.4199 55.6C55.4099 55.68 55.3999 55.71 55.3999 55.71Z" fill="#C0BBB2"/>
<path d="M55.4199 55.59C55.5199 54.86 56.0799 50.95 56.7499 49.68C56.9799 49.26 57.21 48.87 57.46 48.51C57.22 48.87 56.9799 49.26 56.7599 49.68C56.0899 50.94 55.5299 54.87 55.4299 55.58" fill="#A7A29A"/>
<path d="M56.7499 56.3C56.3099 56.13 55.8599 55.93 55.3999 55.71C55.3999 55.71 55.3999 55.67 55.4199 55.6C55.5199 54.89 56.0799 50.96 56.7499 49.7C56.9699 49.27 57.2099 48.89 57.4499 48.53C57.3399 48.92 57.2799 49.35 57.2699 49.85C57.2499 50.54 57.3499 51.21 57.5299 51.82C57.6099 51.91 57.6999 52 57.7899 52.08C57.8199 52.2 57.8599 52.32 57.8899 52.44C57.8199 52.56 57.7499 52.68 57.6799 52.81C57.3199 53.5 56.9799 54.98 56.7399 56.3" fill="#2D2D2C"/>
<path d="M57.8998 52.4401C57.8598 52.3201 57.8298 52.2001 57.7998 52.0801C57.8698 52.1401 57.9398 52.2001 58.0098 52.2501C57.9698 52.3101 57.9298 52.3801 57.8998 52.4401Z" fill="#343433"/>
<path d="M70.12 49.18C70.27 48.71 70.41 48.22 70.54 47.72C70.54 47.72 70.47 47.67 70.34 47.57C70.47 47.66 70.54 47.72 70.54 47.72C70.41 48.23 70.27 48.72 70.12 49.18ZM59.73 46.22C60.95 45.42 62.24 45.12 63.5 45.12C62.25 45.12 60.95 45.42 59.73 46.22Z" fill="#A7A29A"/>
<path d="M69.9 49.82C69.18 49.43 68.27 49 67.25 48.68C66.71 46.54 64.97 45.73 62.88 45.67C62.75 45.67 62.62 45.67 62.49 45.67H62.41C61.86 45.68 61.33 45.81 60.84 46.02C60.45 46.05 60.07 46.12 59.73 46.23C60.95 45.43 62.24 45.13 63.5 45.13C63.61 45.13 63.73 45.13 63.84 45.13C66.86 45.26 69.58 47.03 70.33 47.57C70.46 47.66 70.53 47.72 70.53 47.72C70.4 48.23 70.26 48.72 70.11 49.18C70.04 49.4 69.97 49.61 69.89 49.82" fill="#2D2D2C"/>
<path d="M67.2501 48.69C66.9001 48.58 66.53 48.49 66.16 48.41C65.72 47.07 64.64 46.41 62.85 46.36C62.73 46.36 62.6101 46.36 62.4901 46.36H62.4301C62.1701 46.36 61.9201 46.4 61.6901 46.47C61.5501 46.29 61.4001 46.13 61.2401 46C61.1001 46 60.9701 46.0101 60.8301 46.0201C61.3201 45.8101 61.8501 45.68 62.4001 45.67H62.48C62.61 45.67 62.7401 45.67 62.8701 45.67C64.9601 45.73 66.7001 46.54 67.2401 48.68" fill="#343433"/>
<path d="M62.4799 48.5C62.3899 47.72 62.1099 47.01 61.6899 46.47C61.9299 46.4 62.1699 46.36 62.4299 46.36H62.4899C62.6099 46.36 62.7299 46.36 62.8499 46.36C64.6299 46.41 65.7099 47.07 66.1599 48.41C65.5999 48.3 65.0299 48.23 64.4399 48.23C63.7899 48.23 63.1299 48.31 62.4799 48.49" fill="#1B1B1B"/>
<path d="M58.01 52.25C57.94 52.19 57.87 52.14 57.8 52.08C57.71 52 57.62 51.91 57.54 51.82C57.36 51.21 57.27 50.54 57.28 49.85C57.29 49.36 57.35 48.92 57.46 48.53C58.16 47.5 58.93 46.76 59.74 46.23C60.09 46.12 60.46 46.05 60.85 46.02C60.98 46.01 61.12 46 61.26 46C61.42 46.14 61.57 46.3 61.71 46.47C62.13 47.02 62.41 47.72 62.5 48.5C60.89 48.96 59.32 50.07 58.02 52.25" fill="#E2E1E1"/>
<path d="M47.04 55.7101C46.95 55.2501 46.84 54.8001 46.74 54.3401C46.64 53.8901 46.54 53.4301 46.43 52.9801C46.32 52.5301 46.21 52.0801 46.07 51.6301C45.95 51.1801 45.8 50.7801 45.64 50.3501C45.54 50.1501 45.45 49.8901 45.35 49.7501L44.99 49.1701C44.73 48.8001 44.47 48.4301 44.17 48.1001C44.03 47.9301 43.88 47.7701 43.71 47.6201C43.56 47.4601 43.4 47.3101 43.22 47.1801C43.05 47.0401 42.88 46.9001 42.69 46.7801C42.51 46.6501 42.33 46.5401 42.13 46.4401C41.76 46.2201 41.35 46.0801 40.94 45.9401C40.53 45.8101 40.1 45.7401 39.67 45.7001C39.24 45.6701 38.8 45.6601 38.37 45.7001C37.93 45.7301 37.5 45.8201 37.07 45.9101C36.21 46.1201 35.37 46.4201 34.56 46.8101C34.16 47.0101 33.76 47.2201 33.37 47.4501C32.99 47.6801 32.6 47.9301 32.26 48.1801L32.47 47.5601L32.82 48.7701C32.92 49.1801 33.08 49.5701 33.22 49.9601C33.36 50.3601 33.5 50.7501 33.68 51.1301C33.86 51.5001 34 51.9001 34.21 52.2501C34.42 52.6001 34.58 52.9901 34.84 53.3201C35.09 53.6401 35.29 54.0101 35.58 54.3001C35.85 54.6001 36.11 54.9201 36.43 55.1701L36.89 55.5701L37.4 55.9001C37.73 56.1401 38.11 56.2801 38.48 56.4501C38.85 56.6201 39.25 56.6901 39.64 56.8101C40.05 56.8601 40.45 56.9401 40.86 56.9601C41.28 56.9501 41.69 57.0001 42.11 56.9401C42.53 56.8901 42.95 56.8901 43.36 56.7901C43.77 56.7001 44.2 56.6501 44.6 56.5101C45.01 56.3901 45.42 56.2901 45.83 56.1401L47.05 55.7001L47.04 55.7101ZM47.04 55.7101L45.89 56.3001C45.5 56.4901 45.09 56.6301 44.69 56.8001C44.29 56.9801 43.86 57.0701 43.45 57.2101C43.04 57.3601 42.6 57.4001 42.17 57.5001C41.74 57.6001 41.29 57.5801 40.85 57.6201C40.4 57.6301 39.96 57.5801 39.51 57.5501C39.07 57.4401 38.61 57.4001 38.19 57.2301C37.77 57.0701 37.33 56.9201 36.95 56.6701L36.36 56.3301L35.82 55.9101C35.44 55.6501 35.14 55.3101 34.83 54.9801C34.5 54.6601 34.26 54.2801 33.98 53.9201C33.69 53.5701 33.51 53.1601 33.26 52.7901C33.01 52.4101 32.85 52.0001 32.65 51.6001C32.45 51.2001 32.29 50.7901 32.14 50.3701C31.99 49.9601 31.82 49.5501 31.71 49.1201L31.34 47.8601L31.23 47.4901L31.55 47.2501C31.97 46.9401 32.36 46.6801 32.78 46.4301C33.2 46.1901 33.63 45.9601 34.07 45.7601C34.95 45.3401 35.87 45.0201 36.83 44.8001C37.31 44.7001 37.8 44.6201 38.3 44.6001C38.79 44.5601 39.3 44.5901 39.8 44.6401C40.29 44.7101 40.79 44.8101 41.27 44.9701C41.51 45.0501 41.74 45.1301 41.97 45.2501C42.2 45.3501 42.42 45.4701 42.63 45.6101C42.85 45.7301 43.05 45.8801 43.25 46.0301C43.45 46.1701 43.64 46.3401 43.82 46.5001C44.01 46.6601 44.17 46.8401 44.34 47.0201C44.51 47.2001 44.67 47.3801 44.81 47.5801C45.12 47.9601 45.36 48.3701 45.61 48.7901L45.95 49.4301C46.08 49.6901 46.13 49.8801 46.22 50.1101C46.35 50.5701 46.48 51.0701 46.55 51.5201C46.64 51.9801 46.71 52.4501 46.77 52.9101C46.9 53.8401 47 54.7701 47.06 55.7001L47.04 55.7101Z" fill="#544D41"/>
<path d="M41.2799 63.35C41.2799 63.35 40.1599 78.3 45.0999 86C45.3499 86.39 45.9699 86.17 45.8999 85.71C45.3099 81.33 44.1099 69.5 46.8899 61.5C47.5399 59.63 41.8999 57.1 41.2699 63.35H41.2799Z" fill="#E2E2E2"/>
<path d="M61.4098 63.4301C61.4098 63.4301 62.1498 78.4101 57.0098 85.9801C56.7498 86.3601 56.1398 86.1301 56.2098 85.6701C56.9098 81.3101 58.4098 69.5101 55.8298 61.4401C55.2298 59.5501 60.9298 57.1701 61.3998 63.4301H61.4098Z" fill="#E2E2E2"/>
<path d="M55.3999 55.71C55.4599 54.78 55.5499 53.84 55.6899 52.92C55.7499 52.46 55.8199 51.99 55.9099 51.53C55.9899 51.07 56.1099 50.57 56.2399 50.12C56.3399 49.89 56.3799 49.7 56.5099 49.44L56.8499 48.8C57.0999 48.39 57.3399 47.98 57.6499 47.59C57.7899 47.39 57.9499 47.21 58.1199 47.03C58.2799 46.85 58.4499 46.67 58.6399 46.51C58.8199 46.34 58.9999 46.18 59.2099 46.04C59.4099 45.89 59.6099 45.74 59.8299 45.62C60.0399 45.48 60.2599 45.37 60.4899 45.26C60.7099 45.14 60.9499 45.06 61.1899 44.98C61.6699 44.81 62.1599 44.71 62.6599 44.65C63.1599 44.6 63.6599 44.57 64.1599 44.61C64.6599 44.64 65.1499 44.71 65.6299 44.81C66.5899 45.03 67.5099 45.35 68.3899 45.77C68.8299 45.98 69.2599 46.2 69.6799 46.44C70.1099 46.69 70.4999 46.95 70.9099 47.26L71.2299 47.5L71.1199 47.87L70.7499 49.13C70.6399 49.55 70.4699 49.97 70.3199 50.38C70.1699 50.8 70.0099 51.21 69.8099 51.61C69.6099 52.01 69.4499 52.42 69.1999 52.8C68.9599 53.17 68.7699 53.58 68.4799 53.93C68.1899 54.28 67.9699 54.67 67.6299 54.99C67.3099 55.31 67.0099 55.66 66.6399 55.92L66.0999 56.34L65.5099 56.68C65.1299 56.93 64.6899 57.07 64.2699 57.24C63.8499 57.41 63.3899 57.46 62.9499 57.56C62.4999 57.59 62.0499 57.64 61.6099 57.63C61.1699 57.59 60.7199 57.61 60.2899 57.51C59.8599 57.41 59.4199 57.37 58.9999 57.22C58.5799 57.08 58.1599 56.99 57.7599 56.81C57.3599 56.64 56.9499 56.5 56.5599 56.31L55.4099 55.72L55.3999 55.71ZM55.3999 55.71L56.6199 56.15C57.0299 56.3 57.4399 56.4 57.8499 56.52C58.2499 56.66 58.6799 56.7 59.0899 56.8C59.4999 56.91 59.9299 56.9 60.3399 56.95C60.7599 57 61.1799 56.95 61.5899 56.97C61.9999 56.95 62.4099 56.87 62.8099 56.82C63.1999 56.69 63.5998 56.62 63.9698 56.46C64.3398 56.3 64.7199 56.15 65.0499 55.91L65.5599 55.58L66.0199 55.18C66.3399 54.94 66.5899 54.61 66.8699 54.31C67.1599 54.03 67.3599 53.66 67.6099 53.33C67.8599 53.01 68.0199 52.62 68.2399 52.26C68.4599 51.91 68.5899 51.51 68.7699 51.14C68.9499 50.77 69.0999 50.37 69.2299 49.97C69.3699 49.58 69.5199 49.19 69.6299 48.78L69.9799 47.57L70.1899 48.19C69.8599 47.94 69.4599 47.69 69.0799 47.46C68.6899 47.23 68.2999 47.02 67.8899 46.82C67.0799 46.43 66.2399 46.12 65.3799 45.92C64.9499 45.83 64.5199 45.74 64.0799 45.71C63.6499 45.66 63.2099 45.67 62.7799 45.71C62.3499 45.75 61.9199 45.82 61.5099 45.95C61.0999 46.08 60.6899 46.23 60.3199 46.45C60.1199 46.55 59.9399 46.66 59.7599 46.79C59.5699 46.9 59.3999 47.04 59.2299 47.19C59.0499 47.32 58.8999 47.48 58.7399 47.63C58.5799 47.78 58.4199 47.94 58.2799 48.11C57.9699 48.44 57.7199 48.81 57.4599 49.18L57.0999 49.76C56.9999 49.9 56.9099 50.17 56.8099 50.36C56.6499 50.79 56.4999 51.18 56.3799 51.64C56.2499 52.08 56.1299 52.53 56.0199 52.99C55.9099 53.44 55.8099 53.9 55.7099 54.35C55.6099 54.81 55.4999 55.26 55.4099 55.72L55.3999 55.71Z" fill="#544D41"/>
<path d="M52.4799 57.56C52.4799 57.74 51.86 57.89 51.08 57.89C50.3 57.89 49.6899 57.74 49.6899 57.56C49.6899 57.38 50.3599 57.12 51.1299 57.12C51.8999 57.12 52.4799 57.38 52.4799 57.56Z" fill="#F7F7F7"/>
<path d="M54.3099 64.61C54.3099 65.26 53.59 65.84 52.77 66.21C52.21 66.46 51.5899 66.61 51.1099 66.61C50.6299 66.61 50.02 66.47 49.46 66.22C48.63 65.86 47.9099 65.28 47.9099 64.62C47.9099 63.52 49.9399 62.63 51.1099 62.63C52.2799 62.63 54.3099 63.52 54.3099 64.62V64.61Z" fill="#B3576F"/>
<path d="M52.68 66.22C52.14 66.46 51.55 66.6 51.1 66.6C50.65 66.6 50.06 66.46 49.53 66.23C49.64 65.8 50.02 65.48 50.49 65.48C50.73 65.48 50.94 65.57 51.11 65.7C51.28 65.56 51.49 65.48 51.73 65.48C52.2 65.48 52.59 65.8 52.69 66.23L52.68 66.22Z" fill="#ED7693"/>
<path d="M51.08 55.4401C46.77 55.4401 39.52 57.1301 39.3 61.1301C39.15 63.8001 40.53 65.9601 44.29 65.9601C46.29 65.9601 48.99 65.3501 51.09 64.3701C53.19 65.3401 55.9 65.9601 57.89 65.9601C61.65 65.9601 62.85 63.8001 62.88 61.1301C62.93 57.5501 55.1 55.4401 51.06 55.4401H51.08Z" fill="#B5AFA5"/>
<path d="M51.22 56.97C51.22 56.97 51.14 56.97 51.1 56.97C51.06 56.97 51.02 56.97 50.98 56.97C49.98 56.97 48.08 57.32 48.22 58.31C48.45 59.89 50.69 59.69 51.06 59.69H51.1H51.14C51.51 59.69 53.76 59.89 53.98 58.31C54.12 57.32 52.22 56.97 51.22 56.97Z" fill="#3B3A3C"/>
<path d="M51.08 57.89C50.31 57.89 49.6899 57.74 49.6899 57.56C49.6899 57.38 50.3599 57.12 51.1299 57.12C51.8999 57.12 52.4799 57.38 52.4799 57.56C52.4799 57.74 51.86 57.89 51.08 57.89Z" fill="#F7F8F8"/>
</svg>
