<svg width="102" height="102" viewBox="0 0 102 102" fill="none" xmlns="http://www.w3.org/2000/svg">
<path d="M92.67 0.299988H9.08002C4.29171 0.299988 0.410034 4.18166 0.410034 8.96997V92.56C0.410034 97.3483 4.29171 101.23 9.08002 101.23H92.67C97.4584 101.23 101.34 97.3483 101.34 92.56V8.96997C101.34 4.18166 97.4584 0.299988 92.67 0.299988Z" fill="#94A4A5"/>
<path d="M50.96 76.3C46.91 76.3 41.7 75.09 37.35 73.14C26.12 70.32 24.38 62.91 25.22 52.65C25.37 50.81 25.6901 49.04 26.1701 47.36C23.1301 45.21 21.3101 41.65 21.2301 37.61C21.1701 34.36 22.37 31.29 24.63 28.95C26.88 26.61 29.91 25.29 33.16 25.22C33.24 25.22 33.32 25.22 33.4 25.22C37.91 25.22 42 27.7 44.1 31.64C46.16 31.26 48.3501 31.07 50.6401 31.07H51.2001C53.4701 31.07 55.64 31.26 57.68 31.63C59.78 27.71 63.86 25.23 68.37 25.23C68.45 25.23 68.53 25.23 68.61 25.23C71.86 25.29 74.8801 26.61 77.1401 28.96C79.3901 31.3 80.6 34.38 80.53 37.62C80.45 41.62 78.65 45.17 75.65 47.32C76.14 49.01 76.46 50.8 76.61 52.65C76.82 55.2 76.84 57.36 76.68 59.26C76.68 59.27 76.68 59.29 76.68 59.3C76.68 59.34 76.68 59.36 76.68 59.39C76.67 59.53 76.6501 59.66 76.6401 59.8C76.6401 59.83 76.64 59.86 76.63 59.89C75.9 66.61 72.48 70.7 65.9 72.74C61.53 74.87 56.08 76.2 51.29 76.28H50.96V76.3Z" fill="#2F150C"/>
<path d="M68.58 26.6C64.04 26.51 60.11 29.24 58.44 33.18C56.26 32.7 53.85 32.43 51.19 32.43H50.63C47.95 32.43 45.51 32.7 43.32 33.19C41.66 29.24 37.72 26.5 33.18 26.59C27.22 26.7 22.48 31.63 22.6 37.59C22.68 41.54 24.59 44.95 27.79 46.77C27.16 48.67 26.76 50.69 26.59 52.76C25.73 63.26 27.88 69.39 37.8 71.84C42.36 73.9 47.38 74.93 50.96 74.93C51.06 74.93 51.16 74.93 51.26 74.93C55.58 74.85 60.87 73.71 65.39 71.48C71.91 69.5 74.64 65.65 75.27 59.69V59.66C75.29 59.54 75.3 59.41 75.31 59.29C75.31 59.26 75.31 59.23 75.31 59.19C75.48 57.26 75.44 55.12 75.24 52.76C75.07 50.68 74.67 48.65 74.03 46.73C77.19 44.9 79.08 41.51 79.16 37.59C79.28 31.63 74.54 26.7 68.58 26.59V26.6Z" fill="#2F150C"/>
<path d="M73.18 44.43C75.29 43.08 76.66 40.89 76.93 38.28C76.95 38.04 76.96 37.81 76.96 37.56C76.96 32.8 73.1 28.94 68.34 28.94C66.82 28.94 65.4 29.33 64.16 30.02C62.64 30.97 61.4 32.34 60.63 33.89C60.61 33.89 59.71 36.24 59.71 37.56C59.71 42.32 63.57 46.18 68.33 46.18C70.16 46.18 73.2 44.49 73.16 44.43H73.18Z" fill="#D69891"/>
<path d="M28.58 44.43C26.47 43.08 25.1 40.89 24.83 38.28C24.81 38.04 24.8 37.81 24.8 37.56C24.8 32.8 28.6601 28.94 33.4201 28.94C34.9401 28.94 36.3601 29.33 37.6001 30.02C39.1201 30.97 40.3601 32.34 41.1301 33.89C41.1501 33.89 42.05 36.24 42.05 37.56C42.05 42.32 38.1901 46.18 33.4301 46.18C31.6001 46.18 28.5701 44.49 28.6001 44.43H28.58Z" fill="#D69891"/>
<path d="M72.83 44.53C75.1 43.08 76.6801 40.45 76.7401 37.55C76.8301 32.94 73.16 29.12 68.55 29.03C65.21 28.97 62.1801 31.24 60.7901 34.05C60.2401 33.92 58.6501 33.47 58.3201 33.51C59.9001 29.39 63.9301 26.51 68.6001 26.6C74.5601 26.71 79.3001 31.64 79.1801 37.6C79.1001 41.6 77.1501 45.05 73.8801 46.85C73.7501 46.05 73.1701 45.33 72.8401 44.53H72.83Z" fill="#DEDDDD"/>
<path d="M28.93 44.53C26.66 43.08 25.08 40.45 25.03 37.55C24.94 32.94 28.61 29.12 33.22 29.03C36.57 28.97 39.59 31.24 40.98 34.05C41.53 33.92 43.12 33.47 43.45 33.51C41.87 29.39 37.84 26.51 33.17 26.6C27.21 26.71 22.47 31.64 22.59 37.6C22.67 41.6 24.62 45.05 27.89 46.85C28.02 46.05 28.6 45.33 28.93 44.53Z" fill="#DEDDDD"/>
<path d="M75.2501 52.77C74.3501 41.81 67.2001 32.44 51.2001 32.44H50.6401C34.6401 32.44 27.4901 41.81 26.5901 52.77C25.7301 63.27 27.8801 69.4 37.8001 71.85C42.3601 73.91 47.3801 74.94 50.9601 74.94C51.0601 74.94 51.1601 74.94 51.2601 74.94C55.5801 74.86 60.8701 73.72 65.3901 71.49C71.9101 69.51 74.6401 65.66 75.2701 59.7V59.67C75.2901 59.55 75.3001 59.42 75.3101 59.3C75.3101 59.27 75.3101 59.24 75.3101 59.2C75.4801 57.27 75.4401 55.13 75.2401 52.77" fill="#DEDDDD"/>
<path d="M50.96 74.94C47.2 74.94 42.32 73.75 38.23 71.83L38.14 71.79L38.05 71.77C29.42 69.55 26.69 64.64 27.61 52.99C28.07 47.17 30.16 42.26 33.67 38.79C37.69 34.8 43.4 32.78 50.64 32.78H51.2C58.44 32.78 64.15 34.8 68.17 38.79C71.67 42.26 73.77 47.18 74.23 52.99C74.43 55.52 74.45 57.65 74.3 59.51V59.59C74.29 59.73 74.28 59.84 74.26 59.95V59.98C73.62 66.15 70.88 69.55 65.08 71.39L65 71.42L64.92 71.46C60.84 73.55 55.73 74.86 51.23 74.94H50.95" fill="#F7F7F7"/>
<path d="M34.99 47.71C34.99 47.71 35 47.67 35.04 47.6C35.07 47.53 35.13 47.43 35.2 47.31C35.28 47.19 35.38 47.05 35.51 46.9C35.65 46.76 35.79 46.58 35.98 46.42C36.07 46.34 36.17 46.26 36.28 46.17C36.39 46.09 36.51 46.02 36.62 45.93C36.74 45.84 36.87 45.79 37.01 45.71C37.15 45.64 37.28 45.56 37.43 45.52C37.73 45.41 38.04 45.3 38.38 45.26C38.71 45.18 39.06 45.19 39.41 45.18C39.75 45.18 40.09 45.27 40.43 45.32C40.75 45.42 41.06 45.53 41.36 45.65C41.64 45.8 41.9 45.95 42.14 46.1C42.37 46.26 42.57 46.45 42.75 46.61C42.84 46.7 42.93 46.77 43.01 46.85C43.09 46.93 43.15 47.02 43.21 47.09C43.34 47.24 43.44 47.38 43.52 47.5C43.68 47.73 43.76 47.87 43.76 47.87C43.76 47.87 43.6 47.82 43.34 47.71C43.21 47.66 43.06 47.59 42.89 47.51C42.73 47.42 42.53 47.35 42.32 47.28C42.11 47.2 41.89 47.1 41.66 47.02C41.42 46.95 41.18 46.88 40.93 46.79C40.67 46.73 40.41 46.69 40.15 46.62C40.02 46.61 39.88 46.6 39.75 46.58C39.62 46.57 39.49 46.54 39.35 46.55C39.08 46.55 38.81 46.53 38.55 46.57C38.42 46.59 38.29 46.57 38.16 46.61C38.03 46.64 37.9 46.66 37.77 46.68C37.64 46.69 37.52 46.74 37.4 46.77C37.28 46.8 37.16 46.82 37.04 46.87C36.81 46.94 36.58 47.01 36.38 47.1C36.17 47.17 35.98 47.26 35.81 47.32C35.65 47.4 35.49 47.46 35.37 47.52C35.24 47.58 35.15 47.63 35.08 47.66C35.01 47.69 34.97 47.71 34.97 47.71H34.99Z" fill="#383738"/>
<path d="M65.85 47.71C65.85 47.71 65.82 47.69 65.75 47.66C65.68 47.63 65.58 47.58 65.46 47.52C65.34 47.46 65.18 47.4 65.02 47.32C64.84 47.26 64.66 47.17 64.45 47.1C64.25 47.01 64.02 46.95 63.79 46.87C63.67 46.83 63.55 46.8 63.43 46.77C63.31 46.75 63.19 46.69 63.06 46.68C62.93 46.66 62.8 46.64 62.68 46.61C62.55 46.58 62.42 46.59 62.29 46.57C62.03 46.53 61.76 46.55 61.49 46.55C61.36 46.54 61.22 46.57 61.09 46.58C60.96 46.6 60.83 46.61 60.69 46.62C60.43 46.69 60.17 46.73 59.91 46.79C59.66 46.88 59.42 46.95 59.18 47.02C58.95 47.11 58.73 47.2 58.52 47.28C58.31 47.36 58.11 47.43 57.95 47.51C57.79 47.59 57.63 47.66 57.5 47.71C57.25 47.82 57.09 47.87 57.09 47.87C57.09 47.87 57.17 47.73 57.33 47.5C57.41 47.39 57.51 47.24 57.64 47.09C57.7 47.01 57.77 46.93 57.84 46.85C57.92 46.77 58 46.7 58.1 46.61C58.28 46.45 58.48 46.27 58.71 46.1C58.95 45.95 59.22 45.8 59.49 45.65C59.78 45.53 60.09 45.42 60.42 45.32C60.75 45.27 61.09 45.19 61.44 45.18C61.79 45.18 62.13 45.18 62.47 45.26C62.81 45.3 63.12 45.42 63.42 45.52C63.57 45.57 63.71 45.65 63.84 45.71C63.98 45.78 64.11 45.84 64.23 45.93C64.35 46.01 64.46 46.09 64.57 46.17C64.68 46.25 64.77 46.34 64.87 46.42C65.06 46.57 65.2 46.75 65.34 46.9C65.47 47.05 65.57 47.19 65.64 47.31C65.72 47.43 65.77 47.53 65.81 47.6C65.84 47.66 65.86 47.71 65.86 47.71H65.85Z" fill="#383738"/>
<path d="M46.3401 62.33C38.9001 65.87 33.6701 63.58 31.3101 54.39C31.3101 54.39 40.2601 47.44 45.0101 56.35C45.7501 57.73 46.3501 62.33 46.3501 62.33" fill="white"/>
<path d="M39.15 62.92C37.08 62.88 35.35 61.24 34.69 58.96C34.49 58.27 34.38 57.51 34.4 56.73C34.47 53.56 36.43 52.43 38.91 52.36C39.06 52.36 39.22 52.35 39.37 52.36C42.07 52.42 44.11 55.22 44.16 56.94C44.25 60.3 41.85 62.98 39.15 62.92Z" fill="#32C5F4"/>
<path d="M39.17 62.06C37.6 62.02 36.23 60.68 35.67 58.65C35.49 58 35.4 57.31 35.42 56.61C35.47 54.25 36.58 53.11 38.94 53.04C39.06 53.04 39.18 53.04 39.3 53.04H39.37C41.49 53.09 43.11 55.56 43.15 56.84C43.19 58.38 42.68 59.84 41.74 60.86C41.03 61.64 40.14 62.07 39.25 62.07H39.19" fill="#203F7C"/>
<path d="M54.64 62.33C62.08 65.87 67.31 63.58 69.67 54.39C69.67 54.39 60.72 47.44 55.97 56.35C55.23 57.73 54.63 62.33 54.63 62.33" fill="white"/>
<path d="M61.8301 62.92C63.9001 62.88 65.6301 61.24 66.2901 58.96C66.4901 58.27 66.6001 57.51 66.5801 56.73C66.5101 53.56 64.5501 52.43 62.0701 52.36C61.9201 52.36 61.7601 52.35 61.6101 52.36C58.9201 52.42 56.8701 55.22 56.8201 56.94C56.7301 60.3 59.1301 62.98 61.8301 62.92Z" fill="#32C5F4"/>
<path d="M61.75 62.06C60.86 62.06 59.97 61.63 59.26 60.85C58.32 59.83 57.81 58.37 57.85 56.83C57.88 55.56 59.5 53.08 61.64 53.03H61.7C61.82 53.03 61.9399 53.03 62.0499 53.03C64.3999 53.1 65.52 54.24 65.57 56.59C65.58 57.3 65.5 57.98 65.32 58.62C64.76 60.66 63.38 62 61.82 62.04H61.76" fill="#203F7C"/>
<path d="M39.47 55.46C39.43 57.5 38.07 59.12 36.43 59.09C35.69 59.07 35.03 58.72 34.52 58.15C34.34 57.54 34.25 56.88 34.26 56.19C34.32 53.42 36.04 52.43 38.21 52.37C38.99 53.05 39.49 54.18 39.46 55.46" fill="white"/>
<path d="M42.04 61.35C42.03 62.04 41.57 62.59 41.01 62.58C40.46 62.57 40.02 62 40.03 61.31C40.04 60.62 40.5 60.07 41.06 60.08C41.61 60.09 42.05 60.66 42.03 61.35H42.04Z" fill="white"/>
<path d="M61.7 55.77C61.66 57.8 60.3 59.43 58.66 59.4C57.92 59.38 57.26 59.03 56.75 58.46C56.57 57.85 56.48 57.19 56.49 56.5C56.55 53.73 58.27 52.74 60.44 52.68C61.22 53.36 61.72 54.49 61.69 55.77" fill="white"/>
<path d="M58.72 69.42C58.72 72.26 55.39 74.57 50.9 74.57C46.41 74.57 43.24 72.12 43.24 69.27C43.24 66.42 46.4 62.63 50.89 62.63C55.38 62.63 58.71 66.57 58.71 69.42" fill="#DEDDDD"/>
<path d="M64.47 61.35C64.45 62.04 63.99 62.59 63.44 62.58C62.89 62.57 62.45 62 62.46 61.31C62.48 60.62 62.93 60.07 63.49 60.08C64.04 60.09 64.48 60.66 64.47 61.35Z" fill="white"/>
<path d="M45.0001 62.92C45.4401 62.75 45.8801 62.55 46.3401 62.34C46.3401 62.34 45.7401 57.75 45.0001 56.36C43.1401 52.88 40.6501 51.82 38.2901 51.82C38.0801 51.82 37.8701 51.82 37.6701 51.84C37.8801 51.83 38.0801 51.82 38.2901 51.82C40.6501 51.82 43.1401 52.88 45.0001 56.36C45.7401 57.75 46.3401 62.34 46.3401 62.34C45.8901 62.56 45.4401 62.75 45.0001 62.92Z" fill="#DEDDDD"/>
<path d="M45.0001 62.92C44.7601 61.61 44.4301 60.14 44.0601 59.45C44.0001 59.32 43.93 59.2 43.86 59.08C44.07 58.41 44.1801 57.69 44.1601 56.93C44.1101 55.21 42.0701 52.41 39.3701 52.35H39.3C39.17 52.35 39.0401 52.35 38.9101 52.35C38.6901 52.35 38.4701 52.37 38.2601 52.39C38.2501 52.38 38.2301 52.37 38.2201 52.36C36.2601 52.41 34.67 53.22 34.33 55.42C33.41 55.72 32.5901 56.11 31.9301 56.47C31.8601 56.27 31.7901 56.06 31.7201 55.85C31.5701 55.38 31.43 54.89 31.3 54.38C31.35 54.34 34.2801 52.08 37.6701 51.82C37.8701 51.81 38.0801 51.8 38.2901 51.8C40.6401 51.8 43.1401 52.86 45.0001 56.34C45.7401 57.72 46.3401 62.32 46.3401 62.32C45.8901 62.54 45.4401 62.73 45.0001 62.9" fill="#E2E1E1"/>
<path d="M43.86 59.09C43.61 58.65 43.34 58.25 43.07 57.89C43.12 57.55 43.14 57.19 43.13 56.84C43.1 55.57 41.48 53.09 39.35 53.04H39.28C39.16 53.04 39.04 53.04 38.92 53.04C38.88 53.04 38.84 53.04 38.8 53.04C38.64 52.8 38.46 52.58 38.25 52.4C38.46 52.38 38.67 52.36 38.9 52.36C39.03 52.36 39.16 52.36 39.29 52.36H39.36C42.06 52.42 44.1 55.22 44.15 56.94C44.17 57.7 44.06 58.42 43.85 59.09" fill="#45B5D9"/>
<path d="M43.0701 57.89C41.9701 56.45 40.7301 55.63 39.4701 55.23C39.4401 54.41 39.2001 53.65 38.8101 53.06C38.8501 53.06 38.8901 53.06 38.9301 53.06C39.0501 53.06 39.1701 53.06 39.2901 53.06H39.36C41.48 53.11 43.1001 55.58 43.1401 56.86C43.1401 57.22 43.13 57.57 43.08 57.91" fill="#274278"/>
<path d="M34.33 55.43C34.67 53.23 36.2601 52.43 38.2201 52.37C38.2301 52.38 38.2501 52.39 38.2601 52.4C38.4601 52.58 38.6501 52.8 38.8101 53.04C39.2001 53.64 39.4501 54.39 39.4701 55.21C38.7601 54.99 38.0501 54.9 37.3501 54.9C36.2901 54.9 35.2601 55.12 34.3201 55.42" fill="#E2E1E1"/>
<path d="M55.98 62.92C55.54 62.75 55.1 62.55 54.64 62.34C54.64 62.34 55.24 57.75 55.98 56.36C56.21 55.94 56.44 55.55 56.68 55.2C56.44 55.56 56.21 55.94 55.98 56.36C55.24 57.74 54.64 62.34 54.64 62.34C55.09 62.56 55.54 62.75 55.98 62.92Z" fill="#DEDDDD"/>
<path d="M55.98 62.92C55.54 62.75 55.1 62.55 54.64 62.34C54.64 62.34 55.24 57.75 55.98 56.36C56.21 55.94 56.44 55.55 56.68 55.2C56.57 55.59 56.51 56.02 56.5 56.51C56.49 57.2 56.58 57.86 56.76 58.47C56.85 58.56 56.93 58.65 57.02 58.73C57.05 58.85 57.08 58.98 57.12 59.1C57.05 59.22 56.98 59.34 56.92 59.47C56.56 60.15 56.23 61.62 55.98 62.94" fill="#E2E1E1"/>
<path d="M57.12 59.09C57.08 58.97 57.05 58.85 57.02 58.72C57.09 58.78 57.16 58.84 57.24 58.89C57.2 58.95 57.16 59.02 57.13 59.08" fill="#45B5D9"/>
<path d="M58.9399 52.91C60.1499 52.11 61.4399 51.81 62.6899 51.81C62.8999 51.81 63.1099 51.82 63.3199 51.84C63.1099 51.82 62.8999 51.82 62.6899 51.82C61.4399 51.82 60.16 52.12 58.95 52.91" fill="#DEDDDD"/>
<path d="M69.0499 56.49C68.3399 56.1 67.43 55.67 66.42 55.36C65.88 53.23 64.1599 52.43 62.0799 52.37C61.9499 52.37 61.8199 52.37 61.6899 52.37H61.6099C61.0599 52.38 60.5299 52.51 60.0499 52.71C59.6599 52.74 59.2899 52.81 58.9399 52.92C60.1499 52.12 61.4399 51.83 62.6799 51.83C62.8899 51.83 63.0999 51.83 63.3099 51.85C66.6899 52.11 69.62 54.36 69.67 54.4C69.54 54.92 69.3899 55.42 69.2399 55.9C69.1799 56.1 69.1099 56.3 69.0399 56.49" fill="#E2E1E1"/>
<path d="M66.4101 55.36C66.0601 55.25 65.7001 55.16 65.3201 55.08C64.8801 53.76 63.8101 53.1 62.0401 53.05C61.9201 53.05 61.8001 53.05 61.6901 53.05H61.6301C61.3801 53.05 61.1301 53.09 60.8901 53.16C60.7601 52.99 60.6101 52.83 60.4501 52.69C60.3101 52.69 60.18 52.7 60.05 52.71C60.53 52.5 61.06 52.38 61.61 52.37H61.6901C61.8201 52.37 61.95 52.37 62.08 52.37C64.16 52.43 65.8801 53.23 66.4201 55.36" fill="#45B5D9"/>
<path d="M61.68 55.17C61.59 54.39 61.31 53.69 60.9 53.15C61.14 53.08 61.38 53.04 61.64 53.04H61.7C61.82 53.04 61.94 53.04 62.05 53.04C63.82 53.09 64.89 53.75 65.33 55.07C64.78 54.96 64.21 54.9 63.63 54.9C62.99 54.9 62.33 54.98 61.68 55.16" fill="#274278"/>
<path d="M57.23 58.89C57.15 58.84 57.08 58.78 57.01 58.72C56.92 58.64 56.83 58.55 56.75 58.46C56.57 57.85 56.48 57.19 56.49 56.5C56.5 56.01 56.56 55.58 56.67 55.19C57.37 54.17 58.13 53.43 58.93 52.9C59.28 52.79 59.65 52.73 60.04 52.69C60.17 52.68 60.31 52.67 60.44 52.67C60.6 52.81 60.75 52.97 60.88 53.14C61.3 53.68 61.58 54.38 61.66 55.16C60.07 55.62 58.51 56.72 57.21 58.88" fill="#E2E1E1"/>
<path d="M46.34 62.33C46.25 61.88 46.15 61.4199 46.04 60.9699C45.94 60.5199 45.85 60.07 45.73 59.62C45.62 59.17 45.51 58.72 45.38 58.28C45.26 57.83 45.11 57.43 44.95 57.01C44.85 56.81 44.76 56.5499 44.66 56.4099L44.3 55.84C44.04 55.47 43.78 55.1 43.48 54.77C43.34 54.6 43.19 54.4399 43.03 54.2899C42.87 54.1299 42.72 53.9799 42.54 53.8499C42.37 53.7099 42.21 53.57 42.02 53.46C41.85 53.33 41.66 53.22 41.47 53.12C41.1 52.9 40.69 52.76 40.29 52.62C39.88 52.49 39.46 52.42 39.03 52.38C38.6 52.35 38.17 52.34 37.74 52.39C37.31 52.42 36.88 52.5099 36.45 52.5999C35.6 52.7999 34.76 53.11 33.96 53.5C33.56 53.69 33.16 53.91 32.78 54.14C32.4 54.37 32.01 54.61 31.68 54.86L31.89 54.25L32.23 55.46C32.33 55.87 32.49 56.25 32.63 56.64C32.77 57.03 32.91 57.4199 33.09 57.7899C33.27 58.1599 33.41 58.55 33.62 58.9C33.83 59.25 33.99 59.64 34.24 59.96C34.49 60.28 34.68 60.65 34.97 60.93C35.24 61.23 35.49 61.5499 35.81 61.7899L36.27 62.19L36.78 62.51C37.1 62.75 37.48 62.89 37.85 63.06C38.22 63.23 38.62 63.29 39 63.42C39.4 63.47 39.81 63.55 40.22 63.57C40.63 63.57 41.05 63.61 41.46 63.56C41.87 63.51 42.3 63.5099 42.7 63.4099C43.11 63.3199 43.54 63.27 43.94 63.14C44.34 63.02 44.76 62.92 45.16 62.77L46.37 62.34L46.34 62.33ZM46.34 62.33L45.2 62.92C44.82 63.11 44.41 63.25 44.01 63.42C43.61 63.6 43.19 63.69 42.78 63.83C42.37 63.98 41.93 64.02 41.5 64.12C41.07 64.22 40.63 64.2 40.19 64.24C39.75 64.25 39.3 64.2 38.85 64.17C38.42 64.06 37.96 64.0199 37.54 63.8499C37.12 63.6899 36.68 63.55 36.3 63.3L35.71 62.96L35.17 62.5399C34.79 62.2799 34.5 61.94 34.19 61.61C33.86 61.3 33.63 60.91 33.35 60.57C33.07 60.22 32.88 59.82 32.64 59.44C32.39 59.06 32.23 58.65 32.04 58.26C31.84 57.86 31.68 57.4499 31.53 57.0399C31.38 56.6299 31.21 56.22 31.1 55.8L30.73 54.5399L30.62 54.17L30.94 53.93C31.35 53.62 31.74 53.36 32.16 53.12C32.58 52.88 33 52.66 33.44 52.45C34.31 52.04 35.23 51.72 36.18 51.5C36.66 51.4 37.14 51.32 37.64 51.3C38.13 51.26 38.63 51.29 39.13 51.34C39.63 51.4 40.12 51.51 40.59 51.67C40.83 51.76 41.06 51.83 41.28 51.95C41.51 52.05 41.73 52.17 41.94 52.31C42.16 52.43 42.36 52.58 42.55 52.73C42.75 52.87 42.94 53.04 43.11 53.2C43.3 53.36 43.47 53.5399 43.63 53.7199C43.8 53.8999 43.95 54.08 44.09 54.28C44.39 54.66 44.64 55.07 44.89 55.48L45.23 56.11C45.37 56.37 45.4 56.56 45.5 56.78C45.63 57.23 45.76 57.73 45.83 58.18C45.92 58.64 45.99 59.1 46.05 59.56C46.18 60.48 46.28 61.41 46.34 62.34V62.33Z" fill="#383738"/>
<path d="M54.64 62.33C54.69 61.4 54.79 60.48 54.92 59.55C54.98 59.09 55.06 58.63 55.15 58.17C55.22 57.72 55.35 57.22 55.48 56.77C55.57 56.54 55.61 56.3499 55.75 56.0999L56.08 55.4699C56.33 55.0599 56.58 54.65 56.88 54.27C57.02 54.07 57.18 53.89 57.35 53.71C57.51 53.53 57.68 53.35 57.87 53.19C58.05 53.02 58.23 52.8599 58.43 52.7199C58.62 52.5699 58.83 52.42 59.04 52.3C59.25 52.16 59.47 52.05 59.7 51.94C59.92 51.82 60.16 51.7399 60.39 51.6599C60.86 51.4999 61.35 51.39 61.85 51.33C62.35 51.28 62.84 51.2499 63.34 51.2899C63.83 51.3099 64.32 51.39 64.8 51.49C65.75 51.71 66.67 52.03 67.54 52.44C67.98 52.65 68.4 52.87 68.82 53.11C69.24 53.36 69.63 53.61 70.04 53.92L70.36 54.1599L70.25 54.53L69.88 55.7899C69.77 56.2099 69.6 56.62 69.45 57.03C69.3 57.44 69.15 57.85 68.95 58.25C68.76 58.65 68.59 59.06 68.35 59.43C68.11 59.8 67.92 60.21 67.64 60.56C67.36 60.91 67.13 61.2899 66.8 61.5999C66.49 61.9199 66.19 62.27 65.81 62.53L65.27 62.95L64.68 63.2899C64.3 63.5399 63.86 63.68 63.44 63.84C63.02 64.01 62.56 64.0499 62.13 64.1599C61.69 64.1899 61.24 64.24 60.8 64.23C60.36 64.19 59.91 64.21 59.49 64.11C59.06 64.01 58.62 63.97 58.21 63.82C57.8 63.68 57.37 63.5899 56.97 63.4099C56.57 63.2399 56.16 63.0999 55.78 62.9099L54.64 62.32V62.33ZM54.64 62.33L55.85 62.76C56.25 62.91 56.67 63.01 57.07 63.13C57.47 63.27 57.9 63.31 58.3 63.4C58.71 63.51 59.14 63.5 59.55 63.55C59.96 63.6 60.38 63.55 60.79 63.56C61.2 63.54 61.6 63.4599 62.01 63.4099C62.4 63.2799 62.8 63.22 63.16 63.05C63.53 62.88 63.9 62.74 64.23 62.5L64.74 62.18L65.19 61.78C65.51 61.54 65.76 61.22 66.03 60.92C66.32 60.64 66.51 60.27 66.76 59.95C67.01 59.63 67.17 59.24 67.38 58.89C67.6 58.54 67.74 58.15 67.91 57.78C68.09 57.41 68.23 57.02 68.37 56.63C68.51 56.24 68.66 55.85 68.77 55.45L69.11 54.24L69.32 54.8499C68.99 54.5999 68.6 54.35 68.22 54.13C67.84 53.9 67.44 53.69 67.04 53.49C66.24 53.1 65.4 52.8 64.55 52.59C64.12 52.49 63.69 52.41 63.26 52.38C62.83 52.33 62.39 52.34 61.97 52.37C61.54 52.41 61.12 52.49 60.71 52.61C60.3 52.74 59.9 52.89 59.53 53.11C59.34 53.21 59.15 53.32 58.97 53.45C58.79 53.56 58.62 53.7 58.45 53.84C58.27 53.97 58.12 54.12 57.96 54.28C57.8 54.43 57.65 54.59 57.51 54.76C57.21 55.09 56.95 55.46 56.69 55.83L56.33 56.4C56.23 56.54 56.14 56.8 56.04 57C55.88 57.42 55.73 57.82 55.61 58.27C55.48 58.71 55.36 59.16 55.25 59.61C55.14 60.06 55.04 60.51 54.94 60.96C54.83 61.41 54.74 61.87 54.64 62.32V62.33Z" fill="#383738"/>
<path d="M54.5199 69.55C54.5199 70.27 53.7299 70.92 52.8199 71.32C52.1999 71.59 51.5199 71.75 50.9899 71.75C50.4599 71.75 49.7899 71.59 49.1599 71.32C48.2399 70.92 47.45 70.28 47.45 69.55C47.45 68.33 49.6899 67.35 50.9899 67.35C52.2899 67.35 54.5299 68.34 54.5299 69.55H54.5199Z" fill="#5E2A3D"/>
<path d="M51.22 67.46C50.91 67.53 50.88 67.87 50.89 68.14C50.87 67.91 50.81 67.66 50.56 67.44C49.63 66.65 46.77 67.74 46.66 68.71C46.39 71 50.88 70.4 50.98 68.9C51.06 69.81 52.06 70.47 53.97 70.2C56.83 69.79 53.17 67.0199 51.22 67.4699V67.46Z" fill="#DEDDDD"/>
<path d="M52.82 71.32C52.2 71.59 51.52 71.75 50.99 71.75C50.46 71.75 49.79 71.59 49.16 71.32C49.29 70.82 49.73 70.45 50.27 70.45C50.54 70.45 50.79 70.55 50.99 70.71C51.19 70.55 51.43 70.45 51.7 70.45C52.24 70.45 52.69 70.82 52.82 71.32Z" fill="#C15672"/>
<path d="M51.09 65.57H50.86C49.86 65.57 47.96 65.92 48.1 66.91C48.33 68.49 50.49 67.53 50.49 67.53C50.49 67.53 50.57 68.29 50.94 68.29H50.98H51.01C51.38 68.29 51.46 67.53 51.46 67.53C51.46 67.53 53.63 68.5 53.85 66.91C53.99 65.92 52.09 65.57 51.09 65.57Z" fill="#383738"/>
<path d="M52.3501 66.16C52.3501 66.34 51.7301 66.49 50.9601 66.49C50.1901 66.49 49.5601 66.34 49.5601 66.16C49.5601 65.98 50.2301 65.73 51.0001 65.73C51.7701 65.73 52.3501 65.98 52.3501 66.16Z" fill="#F7F7F7"/>
<path d="M50.9601 66.49C50.1901 66.49 49.5601 66.34 49.5601 66.16C49.5601 65.98 50.2301 65.73 51.0001 65.73C51.7701 65.73 52.3501 65.98 52.3501 66.16C52.3501 66.34 51.7301 66.49 50.9601 66.49Z" fill="#F7F8F8"/>
<path d="M55.02 69.44C54.96 69.32 54.89 69.27 54.9 69.27C54.9 69.27 54.96 69.32 55.01 69.45C55.03 69.51 55.04 69.6 55.01 69.68C54.97 69.76 54.89 69.83 54.8 69.89C54.41 70.13 53.79 70.19 53.19 70.14C52.89 70.11 52.6 70.05 52.33 69.97C52.07 69.88 51.83 69.77 51.65 69.65C51.47 69.53 51.34 69.41 51.25 69.32C51.17 69.23 51.13 69.17 51.13 69.17L51.16 68.19H50.83L50.86 69.18C50.86 69.18 50.82 69.23 50.74 69.33C50.7 69.37 50.65 69.43 50.58 69.49C50.52 69.55 50.44 69.61 50.35 69.67C50.17 69.79 49.94 69.91 49.68 70C49.41 70.09 49.12 70.14 48.82 70.16C48.22 70.2 47.6 70.1 47.21 69.87C47.11 69.82 47.03 69.75 46.97 69.68C46.92 69.61 46.9 69.52 46.92 69.46C46.93 69.4 46.96 69.35 46.98 69.32L47.01 69.28L46.97 69.32C46.97 69.32 46.91 69.39 46.89 69.46C46.87 69.52 46.88 69.62 46.93 69.7C46.98 69.78 47.06 69.86 47.16 69.92C47.56 70.18 48.18 70.32 48.81 70.33C49.12 70.33 49.44 70.3 49.73 70.22C50.02 70.14 50.28 70.04 50.49 69.91C50.6 69.85 50.69 69.78 50.77 69.72C50.85 69.66 50.91 69.59 50.96 69.55L50.99 69.52L51.03 69.56C51.14 69.66 51.3 69.79 51.51 69.91C51.72 70.03 51.98 70.14 52.27 70.21C52.56 70.29 52.87 70.32 53.19 70.33C53.81 70.34 54.45 70.23 54.84 69.96C54.94 69.89 55.01 69.81 55.05 69.71C55.08 69.62 55.07 69.53 55.05 69.47L55.02 69.44Z" fill="#383738"/>
</svg>
