<svg width="102" height="102" viewBox="0 0 102 102" fill="none" xmlns="http://www.w3.org/2000/svg">
<path d="M92.8899 0.530029H9.29987C4.51156 0.530029 0.629883 4.41173 0.629883 9.20004V92.79C0.629883 97.5783 4.51156 101.46 9.29987 101.46H92.8899C97.6782 101.46 101.56 97.5783 101.56 92.79V9.20004C101.56 4.41173 97.6782 0.530029 92.8899 0.530029Z" fill="#24B999"/>
<path d="M51.5698 76.14C46.9798 76.14 40.0798 73.31 33.9798 68.94C29.8798 66 22.8698 59.97 21.9398 52.59C21.7998 51.53 22.5798 50.89 24.2798 49.47C24.6698 49.14 25.2198 48.68 25.5198 48.4C25.6198 39.81 28.4098 35.47 31.1698 32.38C31.4598 31.87 31.7698 31.36 32.1198 30.86C32.7198 29.99 33.3698 29.22 34.0398 28.55C34.8298 27.75 35.7398 27.1 36.7198 26.61C37.7298 26.12 38.8098 25.87 39.8598 25.87C40.0098 25.87 40.1598 25.87 40.3098 25.89C40.3298 25.89 40.3598 25.89 40.3798 25.89C40.6298 25.92 40.8798 25.95 41.1198 25.99C41.1998 26 41.2698 26.02 41.3498 26.04L42.0098 26.24C42.1998 26.29 42.3998 26.37 42.5898 26.47L43.1898 26.76C43.3698 26.85 43.4998 26.94 43.5898 27L44.1998 27.41C44.1998 27.41 44.2398 27.44 44.2598 27.45C44.4398 27.59 44.5998 27.72 44.7298 27.84L44.9798 28.06C45.1098 28.17 45.2698 28.31 45.4298 28.48C45.5098 28.57 45.9298 29.03 45.9698 29.07C46.0798 29.18 46.2098 29.32 46.3298 29.49C46.4398 29.64 46.5498 29.78 46.6598 29.92C48.4198 30.31 50.1398 30.51 51.8898 30.51C53.5098 30.51 55.0798 30.36 56.7998 30.05L56.9498 29.85C57.0698 29.7 57.1898 29.57 57.3098 29.44L57.4198 29.32C57.5698 29.16 57.7098 29 57.8598 28.85C58.0098 28.69 58.1498 28.57 58.2698 28.46C58.3098 28.42 58.3598 28.38 58.3998 28.34C58.4198 28.32 58.5898 28.17 58.5898 28.17C58.7298 28.05 58.8698 27.93 59.0098 27.82C59.0298 27.8 59.0598 27.78 59.0798 27.77L59.7098 27.35C59.7898 27.29 59.9098 27.21 60.0698 27.13L60.6898 26.83C60.8898 26.73 61.0798 26.65 61.2698 26.6L61.9198 26.4C61.9998 26.38 62.0698 26.36 62.1498 26.35L62.8698 26.26C62.8698 26.26 62.9298 26.26 62.9598 26.26C63.1098 26.25 63.2598 26.24 63.4098 26.24C64.4498 26.24 65.5298 26.49 66.5298 26.98C67.5098 27.47 68.4098 28.12 69.2298 28.93C69.8998 29.6 70.5498 30.37 71.1398 31.22C71.3798 31.57 71.6098 31.93 71.8298 32.29C75.3498 35.84 77.5498 39.8 77.6198 48.2C78.0498 48.67 78.9998 49.59 79.5498 50.12C81.0298 51.54 81.2598 51.76 81.1798 52.53C79.7998 64.84 61.9398 75.96 51.8798 76.16H51.5298L51.5698 76.14Z" fill="#2F150C"/>
<path d="M51.5699 74.68C51.6799 74.68 51.7899 74.68 51.8899 74.68C61.7499 74.49 78.5099 63.48 79.7599 52.36C79.7699 52.23 76.1899 49.02 76.1899 48.65C76.1899 40.03 73.9399 36.43 70.6899 33.19C70.4699 32.81 70.2299 32.43 69.9599 32.05C69.4599 31.33 68.8899 30.62 68.2299 29.96C67.5699 29.3 66.7999 28.72 65.9299 28.29C65.0599 27.87 64.0599 27.64 63.0899 27.71C62.8499 27.74 62.6099 27.77 62.3699 27.8C62.1399 27.87 61.9199 27.94 61.6899 28.01C61.5699 28.04 61.4699 28.09 61.3599 28.14L61.0499 28.29L60.7399 28.44C60.6399 28.49 60.5499 28.56 60.4499 28.62C60.2599 28.74 60.0799 28.87 59.8899 28.99C59.7099 29.12 59.5599 29.27 59.3899 29.41C59.2299 29.56 59.0599 29.68 58.9199 29.84C58.7799 29.99 58.6399 30.14 58.4999 30.29C58.3599 30.44 58.2199 30.58 58.0999 30.73C57.9799 30.89 57.8599 31.04 57.7499 31.19C57.6999 31.25 57.6599 31.31 57.6099 31.37C55.9299 31.7 54.0299 31.96 51.8799 31.96C49.5399 31.96 47.5399 31.6399 45.7999 31.2199C45.6999 31.0899 45.6099 30.96 45.5099 30.83C45.3899 30.68 45.2799 30.53 45.1599 30.37C45.0399 30.22 44.8999 30.08 44.7599 29.93C44.6199 29.78 44.4799 29.63 44.3399 29.48C44.1999 29.33 44.0299 29.2 43.8699 29.06C43.7099 28.92 43.5499 28.77 43.3699 28.64C43.1899 28.52 42.9999 28.4 42.8099 28.27C42.7199 28.21 42.6299 28.14 42.5299 28.09L42.2199 27.94L41.9099 27.79C41.8099 27.74 41.6999 27.69 41.5899 27.66C41.3599 27.59 41.1299 27.52 40.9099 27.45C40.6699 27.42 40.4299 27.38 40.1899 27.36C39.2199 27.29 38.2299 27.52 37.3599 27.94C36.4899 28.37 35.7099 28.95 35.0599 29.61C34.3999 30.26 33.8199 30.98 33.3199 31.7C32.9699 32.22 32.6499 32.74 32.3599 33.26C29.2999 36.64 26.9699 40.87 26.9699 48.89C26.9699 49.42 23.2999 51.92 23.3699 52.44C24.7899 63.67 43.0699 74.71 51.5499 74.71L51.5699 74.68Z" fill="#2F150C"/>
<path d="M76.1999 48.6401C76.1999 49.0101 79.7799 52.2201 79.7699 52.3501C78.5199 63.4801 61.7599 74.4801 51.8999 74.6701C51.7899 74.6701 51.6799 74.6701 51.5799 74.6701C43.0999 74.6701 24.8199 63.6301 23.3999 52.4001C23.3299 51.8801 26.9999 49.3801 26.9999 48.8501C26.9999 38.3001 31.0399 34.3001 35.4499 30.1801C38.8099 27.0401 42.7699 31.9401 51.9199 31.9401C60.5299 31.9401 64.9799 27.8901 68.3799 30.9801C72.8399 35.0401 76.2099 38.0701 76.2099 48.6301" fill="#507C39"/>
<path d="M51.57 74.2001C47.69 74.2001 41.9 71.86 37.17 68.37C31.73 64.37 25.78 57.6201 25.24 52.9601C25.18 52.5001 28.77 51.6301 28.77 51.1501C28.77 41.8201 30.87 35.0101 32.77 33.1401C33.61 32.3101 40.6 28.4901 42.27 29.0801C44.95 30.0301 47.6 35.07 51.58 35.07C56.43 35.07 58.57 30.89 60.83 29.86C62.91 28.91 68.84 31.4 69.79 32.32C71.74 34.2 74.37 41.8401 74.37 51.1401C74.37 51.4801 77.79 52.8301 77.78 52.9501C76.64 63.8101 60.33 74.02 51.85 74.19H51.89H51.57" fill="#5D9540"/>
<path d="M30.3599 48.2C30.3599 48.2 35.3998 58.63 39.7198 58.63C43.0298 58.63 47.1599 56.93 47.1599 56.93C47.1599 56.93 48.9099 39.56 39.3399 39.01C35.0199 38.76 30.3599 48.2 30.3599 48.2Z" fill="#507C39"/>
<path d="M72.8699 48.2C72.8699 48.2 67.8299 58.63 63.5099 58.63C60.1999 58.63 56.0699 56.93 56.0699 56.93C56.0699 56.93 54.3199 39.56 63.8999 39.01C68.2099 38.76 72.8799 48.2 72.8799 48.2" fill="#507C39"/>
<path d="M35.03 41.3001C35.03 41.3001 35.04 41.2601 35.08 41.1901C35.12 41.1201 35.17 41.0101 35.26 40.8801C35.34 40.7501 35.45 40.6101 35.59 40.4401C35.73 40.2901 35.89 40.1001 36.09 39.9301C36.19 39.8501 36.29 39.7501 36.41 39.6701C36.53 39.5901 36.65 39.5101 36.78 39.4201C36.9 39.3301 37.05 39.2701 37.19 39.1901C37.34 39.1201 37.48 39.0401 37.64 38.9801C37.96 38.8701 38.3 38.7501 38.66 38.7001C39.02 38.6201 39.39 38.6201 39.76 38.6201C40.13 38.6201 40.49 38.7101 40.85 38.7701C41.19 38.8801 41.53 38.9901 41.84 39.1201C42.14 39.2801 42.42 39.4501 42.68 39.6001C42.93 39.7801 43.14 39.9701 43.33 40.1401C43.43 40.2301 43.52 40.3101 43.6 40.4001C43.68 40.4901 43.75 40.5801 43.82 40.6601C43.96 40.8201 44.06 40.9701 44.15 41.0901C44.32 41.3301 44.41 41.4801 44.41 41.4801C44.41 41.4801 44.24 41.4301 43.96 41.3101C43.82 41.2501 43.66 41.1901 43.48 41.1001C43.3 41.0101 43.09 40.9301 42.87 40.8501C42.64 40.7701 42.41 40.6601 42.17 40.5701C41.91 40.5001 41.66 40.4201 41.39 40.3301C41.12 40.2701 40.84 40.2201 40.56 40.1501C40.42 40.1401 40.28 40.1301 40.13 40.1101C39.99 40.1001 39.85 40.0601 39.7 40.0801C39.42 40.0801 39.13 40.0601 38.85 40.1001C38.71 40.1201 38.57 40.1001 38.43 40.1401C38.29 40.1701 38.16 40.1901 38.02 40.2101C37.88 40.2201 37.75 40.2801 37.62 40.3001C37.49 40.3301 37.36 40.3601 37.23 40.4001C36.98 40.4801 36.74 40.5501 36.52 40.6401C36.3 40.7101 36.1 40.8101 35.91 40.8801C35.74 40.9701 35.57 41.0301 35.44 41.1001C35.31 41.1601 35.2 41.2101 35.13 41.2501C35.05 41.2901 35.02 41.3001 35.02 41.3001H35.03Z" fill="#1D2E17"/>
<path d="M68.0299 41.3001C68.0299 41.3001 67.9899 41.2801 67.9199 41.2501C67.8499 41.2201 67.7399 41.1701 67.6099 41.1001C67.4899 41.0301 67.3099 40.9701 67.1399 40.8801C66.9499 40.8101 66.7599 40.7201 66.5299 40.6401C66.3099 40.5501 66.0699 40.4801 65.8199 40.4001C65.6999 40.3601 65.5699 40.3301 65.4399 40.3001C65.2999 40.2701 65.1799 40.2201 65.0399 40.2101C64.8999 40.1901 64.7699 40.1701 64.6299 40.1401C64.4899 40.1001 64.3499 40.1201 64.2099 40.1001C63.9299 40.0601 63.6399 40.0701 63.3599 40.0801C63.2099 40.0701 63.0799 40.1001 62.9299 40.1101C62.7899 40.1301 62.6499 40.1401 62.4999 40.1501C62.2199 40.2201 61.9499 40.2701 61.6699 40.3301C61.4099 40.4201 61.1399 40.5001 60.8899 40.5701C60.6399 40.6601 60.4099 40.7601 60.1899 40.8501C59.9699 40.9301 59.7599 41.0001 59.5799 41.1001C59.3999 41.1901 59.2399 41.2501 59.0999 41.3101C58.8299 41.4201 58.6499 41.4801 58.6499 41.4801C58.6499 41.4801 58.7299 41.3301 58.9099 41.0901C58.9999 40.9701 59.0999 40.8201 59.2399 40.6601C59.3099 40.5801 59.3799 40.4801 59.4599 40.4001C59.5399 40.3201 59.6399 40.2401 59.7299 40.1501C59.9299 39.9801 60.1399 39.7801 60.3899 39.6101C60.6499 39.4501 60.9298 39.2901 61.2198 39.1301C61.5298 39.0001 61.8699 38.8902 62.2099 38.7802C62.5699 38.7202 62.9299 38.6401 63.2999 38.6301C63.6699 38.6301 64.0399 38.6301 64.3999 38.7101C64.7599 38.7601 65.0999 38.8801 65.4199 38.9901C65.5799 39.0401 65.7299 39.1301 65.8799 39.2001C66.0199 39.2801 66.1699 39.3401 66.2899 39.4301C66.4199 39.5201 66.5399 39.6001 66.6599 39.6801C66.7699 39.7701 66.8799 39.8601 66.9799 39.9401C67.1799 40.1101 67.3399 40.3001 67.4799 40.4501C67.6099 40.6201 67.7299 40.7601 67.8099 40.8901C67.8899 41.0101 67.9499 41.1201 67.9899 41.2001C68.0299 41.2701 68.0399 41.3101 68.0399 41.3101L68.0299 41.3001Z" fill="#1D2E17"/>
<path d="M47.1598 56.9301C39.2098 60.7201 33.6098 58.2701 31.0798 48.4401C31.0798 48.4401 40.6498 41.0101 45.7298 50.5401C46.5198 52.0201 47.1598 56.9301 47.1598 56.9301Z" fill="white"/>
<path d="M39.47 57.56C37.26 57.51 35.41 55.7601 34.7 53.3301C34.48 52.5901 34.37 51.7801 34.39 50.9401C34.46 47.5601 36.57 46.3501 39.22 46.2701C39.38 46.2701 39.55 46.2601 39.72 46.2701C42.6 46.3301 44.79 49.33 44.84 51.17C44.94 54.76 42.36 57.6301 39.48 57.5701" fill="#EFB56E"/>
<path d="M39.49 56.43C37.79 56.39 36.29 54.96 35.68 52.78C35.48 52.09 35.39 51.36 35.41 50.6C35.46 48.07 36.68 46.86 39.24 46.79C39.37 46.79 39.5 46.78 39.63 46.78H39.7C42.01 46.83 43.77 49.49 43.81 50.84C43.85 52.48 43.3 54.05 42.28 55.14C41.5 55.97 40.54 56.43 39.57 56.43H39.5" fill="#6C5221"/>
<path d="M56.0398 56.9301C63.9898 60.7201 69.5898 58.2701 72.1198 48.4401C72.1198 48.4401 62.5498 41.0101 57.4698 50.5401C56.6898 52.0201 56.0398 56.9301 56.0398 56.9301Z" fill="white"/>
<path d="M63.73 57.56C65.94 57.51 67.79 55.7601 68.5 53.3301C68.72 52.5901 68.83 51.7801 68.81 50.9401C68.74 47.5601 66.64 46.3501 63.98 46.2701C63.82 46.2701 63.65 46.2601 63.49 46.2701C60.61 46.3301 58.42 49.33 58.37 51.17C58.27 54.76 60.85 57.6301 63.73 57.5701" fill="#EFB56E"/>
<path d="M63.4499 56.43C61.8199 56.39 60.3899 54.96 59.8099 52.78C59.6199 52.09 59.5299 51.36 59.5499 50.6C59.5999 48.07 60.7599 46.86 63.2099 46.79C63.3299 46.79 63.4499 46.78 63.5799 46.78H63.6499C65.8599 46.83 67.5499 49.49 67.5799 50.84C67.6199 52.48 67.0899 54.05 66.1099 55.14C65.3699 55.97 64.4399 56.43 63.5199 56.43H63.4499Z" fill="#6C5221"/>
<path d="M39.8198 49.5901C39.7798 51.7701 38.3198 53.5 36.5698 53.47C35.7798 53.45 35.0699 53.08 34.5299 52.47C34.3399 51.82 34.2398 51.1101 34.2598 50.3801C34.3198 47.4201 36.1598 46.36 38.4898 46.29C39.3298 47.01 39.8598 48.2301 39.8298 49.5901" fill="white"/>
<path d="M42.7199 55.8801C42.7099 56.6201 42.2099 57.2101 41.6199 57.1901C41.0299 57.1801 40.56 56.5701 40.58 55.8301C40.6 55.0901 41.0899 54.5101 41.6799 54.5201C42.2699 54.5301 42.7399 55.1401 42.7199 55.8801Z" fill="white"/>
<path d="M63.5899 49.9101C63.5499 52.0901 62.0899 53.8201 60.3399 53.7901C59.5499 53.7801 58.8398 53.4001 58.2998 52.7901C58.1098 52.1401 58.0099 51.4301 58.0299 50.7001C58.0999 47.7401 59.9398 46.6801 62.2598 46.6101C63.0998 47.3301 63.6298 48.5501 63.5998 49.9101" fill="white"/>
<path d="M66.5498 55.8801C66.5398 56.6201 66.0398 57.2101 65.4498 57.1901C64.8598 57.1801 64.3898 56.5701 64.4098 55.8301C64.4198 55.0901 64.9198 54.5101 65.5098 54.5201C66.0998 54.5301 66.5698 55.1401 66.5498 55.8801Z" fill="white"/>
<path d="M45.73 57.5601C46.2 57.3801 46.68 57.1701 47.16 56.9401C46.67 57.1701 46.2 57.3801 45.73 57.5601Z" fill="#5D8E43"/>
<path d="M47.1598 56.9301C47.1598 56.9301 46.5198 52.02 45.7298 50.54C43.7498 46.82 41.0798 45.6801 38.5598 45.6801C41.0798 45.6801 43.7498 46.8101 45.7298 50.5301C46.4998 51.9901 47.1398 56.78 47.1598 56.92M31.5098 49.9501C31.3598 49.4701 31.2198 48.9701 31.0798 48.4501C31.2198 48.9701 31.3598 49.4801 31.5098 49.9501Z" fill="#52783C"/>
<path d="M45.7298 57.5601C45.4698 56.1601 45.1198 54.58 44.7298 53.85C44.6598 53.72 44.5798 53.5901 44.5098 53.4601C44.7398 52.7501 44.8498 51.97 44.8298 51.16C44.7798 49.32 42.5898 46.3301 39.7098 46.2601H39.6298C39.4898 46.2601 39.3498 46.2601 39.2098 46.2601C38.9798 46.2601 38.7498 46.2801 38.5198 46.3101C38.5098 46.3001 38.4898 46.2801 38.4798 46.2701C36.3798 46.3301 34.6798 47.2 34.3198 49.54C33.3298 49.86 32.4498 50.28 31.7598 50.67C31.6698 50.43 31.5898 50.1901 31.5098 49.9401C31.3598 49.4601 31.2198 48.9601 31.0798 48.4401C31.0798 48.4401 31.6798 47.9801 32.6498 47.4301C33.8498 46.7601 35.6098 45.9601 37.5498 45.7401C37.8798 45.7001 38.2198 45.6801 38.5598 45.6801C41.0798 45.6801 43.7498 46.81 45.7298 50.54C46.5198 52.02 47.1598 56.9301 47.1598 56.9301C46.6698 57.1601 46.1998 57.37 45.7298 57.55" fill="#E2E1E1"/>
<path d="M44.51 53.46C44.25 53.01 43.98 52.59 43.7 52.22C43.78 51.77 43.82 51.31 43.81 50.85C43.77 49.49 42.01 46.84 39.7 46.79H39.63C39.5 46.79 39.37 46.79 39.24 46.79C39.15 46.79 39.06 46.79 38.97 46.8C38.83 46.62 38.69 46.46 38.52 46.31C38.75 46.28 38.98 46.27 39.21 46.26C39.35 46.26 39.49 46.26 39.63 46.26H39.71C42.59 46.32 44.78 49.32 44.83 51.16C44.85 51.97 44.74 52.75 44.51 53.46Z" fill="#D9A76B"/>
<path d="M43.6998 52.22C42.5198 50.65 41.1798 49.7701 39.8198 49.3401C39.7898 48.3701 39.4797 47.4801 38.9697 46.8101C39.0597 46.8101 39.1497 46.81 39.2397 46.8C39.3697 46.8 39.4998 46.79 39.6298 46.79H39.6998C42.0098 46.84 43.7698 49.5 43.8098 50.85C43.8198 51.32 43.7798 51.78 43.6998 52.22Z" fill="#6A5326"/>
<path d="M34.3198 49.55C34.6798 47.21 36.3898 46.34 38.4798 46.28C38.4898 46.29 38.5098 46.31 38.5198 46.32C38.6798 46.47 38.8298 46.63 38.9698 46.81C39.4798 47.48 39.7898 48.37 39.8198 49.34C39.0698 49.1 38.2998 49 37.5598 49C36.4198 49 35.3198 49.23 34.3298 49.56" fill="#E2E1E1"/>
<path d="M57.4698 57.5601C56.9998 57.3801 56.5198 57.1701 56.0398 56.9401C56.5298 57.1701 56.9998 57.3801 57.4698 57.5601Z" fill="#5D8E43"/>
<path d="M56.0498 56.8101C56.1598 56.0401 56.7498 51.88 57.4598 50.54C57.6998 50.09 57.9498 49.67 58.2098 49.3C57.9498 49.68 57.6998 50.09 57.4598 50.54C56.7498 51.88 56.1498 56.0501 56.0498 56.8101Z" fill="#52783C"/>
<path d="M57.4698 57.5601C56.9998 57.3801 56.5198 57.1701 56.0398 56.9401C56.0398 56.9401 56.0398 56.9001 56.0498 56.8201C56.1598 56.0601 56.7498 51.89 57.4598 50.55C57.6998 50.1 57.9498 49.6901 58.2098 49.3101C58.0998 49.7201 58.0298 50.1801 58.0198 50.7001C58.0098 51.4301 58.0998 52.14 58.2898 52.79C58.3798 52.89 58.4798 52.9801 58.5698 53.0701C58.5998 53.2001 58.6398 53.3301 58.6798 53.4601C58.6098 53.5901 58.5298 53.72 58.4598 53.85C58.0698 54.58 57.7198 56.1501 57.4598 57.5601" fill="#E2E1E1"/>
<path d="M58.6798 53.4601C58.6398 53.3301 58.5998 53.2001 58.5698 53.0701C58.6498 53.1401 58.7198 53.2001 58.7998 53.2501C58.7598 53.3201 58.7198 53.3901 58.6798 53.4501" fill="#D9A76B"/>
<path d="M71.6599 50.0301C71.8199 49.5201 71.9699 49.0001 72.1199 48.4401C71.9799 48.9901 71.8299 49.5201 71.6599 50.0301ZM60.6299 46.86C61.9299 46.01 63.2999 45.6901 64.6299 45.6901C63.2999 45.6901 61.9199 46.01 60.6299 46.86Z" fill="#52783C"/>
<path d="M71.4399 50.6801C70.6799 50.2601 69.7099 49.8 68.6199 49.47C68.0499 47.19 66.2099 46.3301 63.9799 46.2701C63.8399 46.2701 63.7099 46.2701 63.5699 46.2701H63.4899C62.8999 46.2801 62.3399 46.4201 61.8199 46.6401C61.3999 46.6801 61.0099 46.75 60.6399 46.86C61.9399 46.01 63.3099 45.6901 64.6399 45.6901C64.9799 45.6901 65.3199 45.7101 65.6399 45.7501C67.5799 45.9701 69.3499 46.7701 70.5499 47.4401C71.5199 47.9801 72.1199 48.4401 72.1199 48.4401C71.9799 48.9901 71.8199 49.5201 71.6599 50.0301C71.5899 50.2501 71.5199 50.4701 71.4399 50.6801Z" fill="#E2E1E1"/>
<path d="M68.6198 49.47C68.0898 49.31 67.5398 49.18 66.9698 49.09C66.2798 47.93 65.0698 46.81 63.6398 46.78H63.5698C63.4398 46.78 63.3198 46.78 63.1998 46.78C62.9498 46.78 62.7098 46.81 62.4898 46.84C62.4098 46.76 62.3298 46.68 62.2398 46.6C62.0998 46.6 61.9498 46.61 61.8098 46.63C62.3298 46.41 62.8898 46.27 63.4798 46.26H63.5598C63.6998 46.26 63.8398 46.26 63.9698 46.26C66.1998 46.33 68.0398 47.18 68.6098 49.46" fill="#D9A76B"/>
<path d="M63.56 49.28C63.45 48.31 63.07 47.46 62.5 46.85C62.72 46.82 62.96 46.8 63.21 46.79C63.33 46.79 63.45 46.78 63.58 46.78H63.65C65.08 46.82 66.29 47.94 66.98 49.09C66.54 49.02 66.1 48.99 65.64 48.99C64.95 48.99 64.26 49.07 63.56 49.27" fill="#6A5326"/>
<path d="M58.8098 53.2501C58.7298 53.2001 58.6599 53.1301 58.5799 53.0701C58.4899 52.9801 58.3898 52.8901 58.2998 52.7901C58.1098 52.1401 58.0099 51.4301 58.0299 50.7001C58.0399 50.1801 58.1098 49.7101 58.2198 49.3101C58.9598 48.2201 59.7798 47.4301 60.6298 46.8701C60.9998 46.7501 61.3998 46.6801 61.8098 46.6501C61.9498 46.6401 62.0998 46.6301 62.2398 46.6201C62.3298 46.7001 62.4098 46.7801 62.4898 46.8601C63.0598 47.4701 63.4498 48.3201 63.5498 49.2901C61.8498 49.7801 60.1698 50.9601 58.7898 53.2701" fill="#E2E1E1"/>
<path d="M47.1599 56.9301C47.0599 56.4401 46.9499 55.9601 46.8399 55.4701C46.7299 54.9901 46.6299 54.5001 46.5099 54.0201C46.3999 53.5401 46.2699 53.0601 46.1299 52.5901C45.9999 52.1101 45.8399 51.6801 45.6699 51.2301C45.5599 51.0201 45.4699 50.7401 45.3599 50.5901L44.9698 49.9801C44.6898 49.5901 44.4199 49.2001 44.0899 48.8401C43.9399 48.6601 43.7799 48.4801 43.5999 48.3201C43.4399 48.1601 43.2599 47.9901 43.0799 47.8501C42.8999 47.7001 42.7199 47.5501 42.5199 47.4301C42.3299 47.2901 42.1299 47.1701 41.9299 47.0701C41.5299 46.8401 41.0999 46.6801 40.6599 46.5401C40.2199 46.4001 39.7699 46.3201 39.3099 46.2801C38.8499 46.2501 38.3899 46.2401 37.9299 46.2801C37.4699 46.3201 37.0099 46.4101 36.5499 46.5101C35.6399 46.7301 34.7399 47.0501 33.8799 47.4701C33.4499 47.6801 33.0299 47.9001 32.6199 48.1501C32.2099 48.3901 31.7999 48.6601 31.4399 48.9201L31.6599 48.2701L32.0199 49.5501C32.1299 49.9801 32.2999 50.4001 32.4399 50.8201C32.5899 51.2401 32.7399 51.6601 32.9299 52.0501C33.1199 52.4501 33.2699 52.8701 33.4999 53.2401C33.7299 53.6101 33.8899 54.0301 34.1599 54.3701C34.4199 54.7101 34.6299 55.1101 34.9399 55.4101C35.2299 55.7301 35.4999 56.0701 35.8399 56.3301L36.3299 56.7501L36.8699 57.1001C37.2199 57.3601 37.6199 57.5101 38.0099 57.6801C38.3999 57.8601 38.8299 57.9301 39.2399 58.0701C39.6699 58.1201 40.0999 58.2101 40.5399 58.2301C40.9799 58.2201 41.4199 58.2701 41.8699 58.2101C42.3099 58.1601 42.7599 58.1601 43.1999 58.0501C43.6299 57.9501 44.0899 57.9001 44.5199 57.7501C44.9499 57.6201 45.3899 57.5101 45.8199 57.3601L47.1199 56.9001L47.1599 56.9301ZM47.1599 56.9301L45.9399 57.5601C45.5299 57.7601 45.0899 57.9101 44.6699 58.0901C44.2399 58.2801 43.7899 58.3801 43.3499 58.5201C42.9099 58.6801 42.4399 58.7201 41.9899 58.8301C41.5299 58.9401 41.0499 58.9101 40.5799 58.9601C40.1099 58.9701 39.6299 58.9101 39.1599 58.8801C38.6999 58.7701 38.2099 58.7201 37.7599 58.5401C37.3099 58.3601 36.8399 58.2201 36.4299 57.9501L35.7999 57.5801L35.2299 57.1301C34.8299 56.8501 34.5099 56.4901 34.1799 56.1401C33.8199 55.8001 33.5799 55.3901 33.2799 55.0201C32.9699 54.6501 32.7799 54.2101 32.5199 53.8201C32.2599 53.4201 32.0899 52.9801 31.8799 52.5601C31.6699 52.1401 31.4999 51.7001 31.3399 51.2601C31.1799 50.8201 30.9999 50.3801 30.8799 49.9301L30.4899 48.5901L30.3699 48.1901L30.7099 47.9301C31.1499 47.6001 31.5599 47.3201 32.0199 47.0601C32.4599 46.8001 32.9199 46.5601 33.3899 46.3401C34.3199 45.9001 35.2999 45.5501 36.3199 45.3201C36.8299 45.2101 37.3499 45.1301 37.8799 45.1001C38.4099 45.0601 38.9399 45.0901 39.4599 45.1401C39.9899 45.2101 40.5199 45.3201 41.0199 45.4901C41.2699 45.5801 41.5299 45.6601 41.7599 45.7901C41.9999 45.9001 42.2399 46.0201 42.4599 46.1701C42.6899 46.3001 42.9099 46.4501 43.1099 46.6201C43.3299 46.7701 43.5198 46.9501 43.7198 47.1301C43.9198 47.3001 44.0999 47.4901 44.2699 47.6801C44.4499 47.8701 44.6199 48.0601 44.7699 48.2801C45.0899 48.6901 45.3599 49.1301 45.6199 49.5601L45.9799 50.2401C46.1299 50.5201 46.1699 50.7201 46.2699 50.9601C46.4099 51.4501 46.5499 51.9801 46.6199 52.4601C46.7099 52.9501 46.7899 53.4501 46.8599 53.9401C46.9999 54.9301 47.0999 55.9201 47.1699 56.9101L47.1599 56.9301Z" fill="#333333"/>
<path d="M56.0397 56.9301C56.0997 55.9401 56.1997 54.9501 56.3497 53.9601C56.4197 53.4701 56.4898 52.9701 56.5898 52.4801C56.6698 51.9901 56.7998 51.4701 56.9398 50.9801C57.0398 50.7401 57.0797 50.5301 57.2297 50.2601L57.5898 49.5801C57.8498 49.1501 58.1198 48.7001 58.4398 48.3001C58.5898 48.0901 58.7598 47.8901 58.9398 47.7001C59.1198 47.5101 59.2897 47.3201 59.4897 47.1501C59.6797 46.9701 59.8798 46.7901 60.0898 46.6401C60.2998 46.4801 60.5098 46.3201 60.7498 46.1901C60.9698 46.0401 61.2098 45.9201 61.4498 45.8101C61.6798 45.6801 61.9398 45.6001 62.1898 45.5101C62.6998 45.3301 63.2198 45.2301 63.7498 45.1601C64.2798 45.1101 64.8098 45.0801 65.3398 45.1201C65.8698 45.1501 66.3898 45.2301 66.8998 45.3401C67.9198 45.5701 68.8998 45.9201 69.8398 46.3601C70.2998 46.5801 70.7598 46.8201 71.2098 47.0801C71.6598 47.3401 72.0798 47.6201 72.5098 47.9501L72.8497 48.2101L72.7297 48.6101L72.3298 49.9501C72.2098 50.4001 72.0298 50.8401 71.8698 51.2801C71.7098 51.7201 71.5498 52.1601 71.3298 52.5801C71.1198 53.0001 70.9497 53.4401 70.6797 53.8401C70.4197 54.2401 70.2297 54.6701 69.9197 55.0401C69.6197 55.4101 69.3798 55.8201 69.0198 56.1601C68.6898 56.5001 68.3697 56.8701 67.9697 57.1501L67.3998 57.6001L66.7698 57.9701C66.3598 58.2401 65.8998 58.3901 65.4498 58.5601C64.9998 58.7401 64.5097 58.7901 64.0497 58.9001C63.5697 58.9301 63.0998 58.9901 62.6198 58.9801C62.1498 58.9301 61.6698 58.9601 61.2098 58.8501C60.7498 58.7501 60.2798 58.7001 59.8398 58.5401C59.3998 58.3901 58.9498 58.3001 58.5198 58.1101C58.0898 57.9301 57.6498 57.7801 57.2498 57.5801L56.0298 56.9501L56.0397 56.9301ZM56.0397 56.9301L57.3298 57.3901C57.7598 57.5501 58.1998 57.6501 58.6298 57.7801C59.0598 57.9301 59.5098 57.9701 59.9498 58.0801C60.3898 58.1901 60.8398 58.1901 61.2798 58.2401C61.7298 58.3001 62.1697 58.2401 62.6097 58.2601C63.0497 58.2401 63.4797 58.1501 63.9097 58.1001C64.3197 57.9601 64.7498 57.8901 65.1398 57.7101C65.5298 57.5301 65.9397 57.3801 66.2897 57.1301L66.8298 56.7801L67.3198 56.3601C67.6598 56.1001 67.9297 55.7601 68.2297 55.4401C68.5397 55.1401 68.7498 54.7501 69.0098 54.4001C69.2798 54.0601 69.4497 53.6401 69.6697 53.2701C69.8997 52.9001 70.0497 52.4801 70.2297 52.0801C70.4297 51.6901 70.5797 51.2701 70.7197 50.8501C70.8697 50.4301 71.0298 50.0201 71.1398 49.5801L71.5098 48.3001L71.7297 48.9501C71.3797 48.6901 70.9597 48.4201 70.5497 48.1801C70.1397 47.9401 69.7197 47.7101 69.2897 47.5001C68.4297 47.0801 67.5398 46.7601 66.6298 46.5401C66.1698 46.4401 65.7098 46.3501 65.2498 46.3101C64.7898 46.2601 64.3298 46.2701 63.8698 46.3101C63.4098 46.3501 62.9598 46.4301 62.5198 46.5701C62.0898 46.7101 61.6498 46.8701 61.2498 47.1001C61.0398 47.2001 60.8497 47.3301 60.6597 47.4601C60.4597 47.5801 60.2797 47.7301 60.0997 47.8801C59.9097 48.0201 59.7498 48.1901 59.5798 48.3501C59.4098 48.5101 59.2498 48.6901 59.0898 48.8701C58.7698 49.2201 58.4898 49.6101 58.2098 50.0101L57.8298 50.6201C57.7198 50.7701 57.6198 51.0501 57.5198 51.2601C57.3398 51.7101 57.1898 52.1401 57.0598 52.6201C56.9198 53.0901 56.7897 53.5701 56.6797 54.0501C56.5597 54.5301 56.4497 55.0101 56.3497 55.5001C56.2397 55.9901 56.1298 56.4701 56.0298 56.9601L56.0397 56.9301Z" fill="#333333"/>
<path d="M51.8999 70.7701C51.2199 70.7701 50.3599 70.5601 49.5599 70.1901C48.3799 69.6501 47.3599 68.7901 47.3599 67.8201C47.3599 66.1801 50.2299 64.8601 51.8899 64.8601C53.5499 64.8601 56.4199 66.1801 56.4199 67.8201C56.4199 68.7901 55.4099 69.6501 54.2399 70.1901C53.4399 70.5601 52.5699 70.7701 51.8899 70.7701" fill="#5E8746"/>
<path d="M55.3898 67.0601C55.3898 67.7801 54.5998 68.4201 53.6898 68.8201C53.0698 69.0901 52.3798 69.2601 51.8498 69.2601C51.3198 69.2601 50.6498 69.1001 50.0298 68.8301C49.1098 68.4301 48.3098 67.7901 48.3098 67.0601C48.3098 65.8401 50.5498 64.8501 51.8498 64.8501C53.1498 64.8501 55.3898 65.8401 55.3898 67.0601Z" fill="#B3576F"/>
<path d="M53.6898 68.83C53.0698 69.1 52.3797 69.27 51.8497 69.27C51.3197 69.27 50.6498 69.11 50.0298 68.84C50.1498 68.34 50.5998 67.97 51.1398 67.97C51.4098 67.97 51.6597 68.07 51.8597 68.23C52.0597 68.07 52.2998 67.97 52.5698 67.97C53.1098 67.97 53.5598 68.34 53.6898 68.84V68.83Z" fill="#ED7693"/>
<path d="M43.0999 65.49C43.0999 65.49 40.4499 65.4601 39.0699 63.0301H39.1399C39.3599 63.0301 39.5599 63.07 39.7399 63.1C40.0899 63.17 40.3299 63.23 40.3299 63.23C40.3299 63.23 40.1299 63.0801 39.7799 62.9501C39.6899 62.9201 39.5899 62.89 39.4899 62.86C39.3799 62.84 39.2699 62.81 39.1499 62.8C39.0299 62.79 38.9099 62.78 38.7799 62.79C38.6599 62.79 38.5199 62.83 38.3999 62.86C38.2799 62.91 38.1499 62.9501 38.0399 63.0301C37.9899 63.0701 37.9299 63.1001 37.8799 63.1401C37.8399 63.1901 37.7899 63.2301 37.7499 63.2801C37.6599 63.3601 37.6199 63.4801 37.5499 63.5701C37.4899 63.6601 37.4699 63.77 37.4399 63.86C37.4099 63.95 37.3799 64.03 37.3799 64.11C37.3799 64.18 37.3699 64.25 37.3599 64.3C37.3599 64.41 37.3499 64.47 37.3499 64.47C37.3499 64.47 37.3699 64.41 37.4099 64.31C37.4299 64.26 37.4499 64.2001 37.4799 64.1301C37.4999 64.0601 37.5399 63.99 37.5799 63.91C37.6199 63.84 37.6498 63.75 37.7198 63.67C37.7798 63.59 37.8299 63.5001 37.9099 63.4401C37.9499 63.4001 37.9899 63.3701 38.0299 63.3301C38.0699 63.3001 38.1199 63.2801 38.1699 63.2501C38.2599 63.1801 38.3698 63.16 38.4698 63.12C38.5698 63.09 38.6699 63.07 38.7699 63.06C39.5999 64.6 40.8899 65.27 41.8499 65.55C42.5599 65.76 43.0799 65.7701 43.0999 65.7701V65.5101V65.49Z" fill="#355729"/>
<path d="M66.4199 64.29C66.4199 64.24 66.4199 64.17 66.4099 64.1C66.4099 64.02 66.3799 63.94 66.3499 63.85C66.3199 63.76 66.2999 63.65 66.2399 63.56C66.1799 63.47 66.1399 63.35 66.0399 63.27C65.9999 63.23 65.9599 63.18 65.9099 63.13C65.8599 63.09 65.7999 63.05 65.7499 63.02C65.6399 62.94 65.52 62.9 65.39 62.85C65.26 62.82 65.1299 62.79 65.0099 62.78C64.8799 62.78 64.76 62.78 64.64 62.79C64.52 62.79 64.4099 62.83 64.2999 62.85C64.1999 62.88 64.0999 62.9 64.0099 62.94C63.6599 63.07 63.46 63.22 63.46 63.22C63.46 63.22 63.6999 63.15 64.0499 63.09C64.2299 63.06 64.43 63.03 64.65 63.02H64.7199C63.3399 65.46 60.7199 65.48 60.6899 65.48V65.74C60.6899 65.74 63.5799 65.71 65.0099 63.03C65.1099 63.03 65.2099 63.06 65.3099 63.09C65.4099 63.13 65.5299 63.16 65.6099 63.22C65.6499 63.25 65.7099 63.27 65.7499 63.3C65.7899 63.34 65.8299 63.37 65.8699 63.41C65.9499 63.47 65.9999 63.57 66.0599 63.64C66.1299 63.71 66.15 63.8 66.2 63.88C66.24 63.96 66.2799 64.03 66.2999 64.1C66.3199 64.17 66.3499 64.23 66.3599 64.28C66.3999 64.38 66.4199 64.44 66.4199 64.44C66.4199 64.44 66.4199 64.38 66.4099 64.27L66.4199 64.29Z" fill="#355729"/>
<path d="M33.5598 59.8801C37.7798 56.4301 43.1898 59.49 43.1898 59.49Z" fill="#5D9540"/>
<path d="M33.5598 59.8801C33.5598 59.8801 33.6798 59.7701 33.8998 59.5901C34.0098 59.5001 34.1498 59.4001 34.3098 59.2901C34.4698 59.1801 34.6598 59.0601 34.8698 58.9501C35.0798 58.8301 35.3198 58.7201 35.5698 58.6101C35.6998 58.5601 35.8398 58.5101 35.9698 58.4601C36.1098 58.4201 36.2498 58.3801 36.3998 58.3401C36.6998 58.2701 36.9998 58.2001 37.3198 58.1701C37.6398 58.1301 37.9598 58.1101 38.2798 58.1101C38.9298 58.1101 39.5798 58.1901 40.1598 58.3101C40.7598 58.4301 41.2898 58.6102 41.7398 58.7802C42.1898 58.9502 42.5498 59.1301 42.7998 59.2601C43.0498 59.3901 43.1798 59.4801 43.1798 59.4801C43.1798 59.4801 43.0298 59.4101 42.7698 59.3001C42.5098 59.1901 42.1398 59.0601 41.6898 58.9201C41.2398 58.7701 40.6998 58.6402 40.1198 58.5302C39.8298 58.4802 39.5298 58.4401 39.2198 58.4001C38.9098 58.3701 38.5998 58.3501 38.2798 58.3601C37.9698 58.3601 37.6498 58.3701 37.3498 58.4001C37.1998 58.4201 37.0398 58.4401 36.8998 58.4601C36.7498 58.4901 36.5998 58.5101 36.4598 58.5401C36.3198 58.5801 36.1798 58.6101 36.0398 58.6501C35.8998 58.6901 35.7698 58.7301 35.6398 58.7701C35.3798 58.8601 35.1498 58.9501 34.9298 59.0501C34.7098 59.1501 34.5198 59.2501 34.3498 59.3501C34.1898 59.4501 34.0398 59.5301 33.9198 59.6101C33.6898 59.7701 33.5498 59.8601 33.5498 59.8601L33.5598 59.8801Z" fill="#355729"/>
<path d="M70.1398 59.8801C65.9298 56.4301 60.8298 59.49 60.8298 59.49Z" fill="#5D9540"/>
<path d="M70.1398 59.8801C70.1398 59.8801 70.0098 59.7901 69.7898 59.6401C69.6798 59.5601 69.5298 59.4801 69.3798 59.3901C69.2198 59.3001 69.0298 59.2001 68.8298 59.1001C68.7198 59.0501 68.6098 59.0001 68.4998 58.9501C68.3798 58.9101 68.2698 58.8601 68.1398 58.8201C67.8898 58.7301 67.6298 58.6601 67.3498 58.5901C67.2098 58.5601 67.0698 58.5301 66.9198 58.5001C66.7798 58.4801 66.6298 58.4601 66.4798 58.4301C66.1798 58.4001 65.8798 58.3801 65.5698 58.3801C65.2598 58.3701 64.9598 58.3901 64.6598 58.4201C64.3598 58.4501 64.0698 58.4901 63.7798 58.5401C63.2198 58.6501 62.6998 58.7801 62.2598 58.9301C61.8198 59.0801 61.4598 59.2101 61.2198 59.3201C60.9698 59.4301 60.8298 59.5001 60.8298 59.5001C60.8298 59.5001 60.9598 59.4102 61.1998 59.2802C61.4398 59.1502 61.7798 58.9601 62.2198 58.7901C62.6498 58.6201 63.1698 58.4401 63.7498 58.3201C64.0298 58.2501 64.3398 58.2001 64.6398 58.1701C64.9498 58.1401 65.2598 58.1201 65.5698 58.1201C65.8798 58.1201 66.1998 58.1501 66.5098 58.1901C66.8198 58.2301 67.1198 58.2901 67.3998 58.3701C67.6798 58.4501 67.9498 58.5501 68.1998 58.6501C68.3198 58.7001 68.4398 58.7601 68.5598 58.8101C68.6698 58.8701 68.7798 58.9301 68.8798 58.9801C69.0798 59.0901 69.2698 59.2101 69.4198 59.3201C69.5698 59.4401 69.7098 59.5301 69.8098 59.6201C70.0098 59.8001 70.1298 59.9001 70.1298 59.9001L70.1398 59.8801Z" fill="#355729"/>
<path d="M49.6499 58.9901C49.6499 58.9901 49.7099 58.9501 49.8099 58.8801C49.9199 58.8101 50.0699 58.7201 50.2699 58.6301C50.3699 58.5801 50.4799 58.5301 50.5999 58.5001C50.7199 58.4701 50.8499 58.4201 50.9799 58.4001C51.1199 58.3801 51.2599 58.3401 51.3999 58.3301C51.5399 58.3201 51.6899 58.3101 51.8399 58.3101C52.4299 58.3101 53.0099 58.4601 53.4099 58.6301C53.6099 58.7101 53.7699 58.8101 53.8799 58.8701C53.9899 58.9301 54.0399 58.98 54.0399 58.98C54.0399 58.98 53.9699 58.96 53.8499 58.92C53.7299 58.88 53.5599 58.84 53.3499 58.79C53.2399 58.76 53.1299 58.75 53.0099 58.72C52.8899 58.69 52.7699 58.68 52.6399 58.66C52.3799 58.63 52.0999 58.6 51.8299 58.6C51.5499 58.6 51.2799 58.6101 51.0199 58.6501C50.8899 58.6501 50.7699 58.6901 50.6499 58.7101C50.5299 58.7301 50.4199 58.7601 50.3199 58.7801C50.2199 58.8101 50.1199 58.82 50.0399 58.85C49.9599 58.88 49.8799 58.9 49.8199 58.92C49.6999 58.96 49.6299 58.98 49.6299 58.98L49.6499 58.9901Z" fill="#355729"/>
<path d="M50.4199 57.31C50.4199 57.31 50.4499 57.2701 50.5099 57.2101C50.5399 57.1801 50.5799 57.14 50.6299 57.1C50.6699 57.06 50.7399 57.02 50.7999 56.98C50.8699 56.94 50.93 56.88 51.02 56.85C51.1 56.82 51.19 56.76 51.28 56.74C51.38 56.72 51.47 56.68 51.58 56.67C51.69 56.66 51.79 56.6401 51.9 56.6501C52.01 56.6501 52.1199 56.66 52.2199 56.68C52.3199 56.69 52.42 56.73 52.52 56.75C52.71 56.82 52.8699 56.89 52.9999 56.98C53.2599 57.15 53.39 57.3201 53.39 57.3201C53.39 57.3201 53.1999 57.23 52.9299 57.13C52.8599 57.11 52.78 57.08 52.7 57.06C52.62 57.03 52.54 57.02 52.45 57C52.27 56.97 52.09 56.93 51.9 56.94C51.81 56.94 51.7099 56.9401 51.6199 56.9501C51.5299 56.9501 51.4399 56.98 51.3499 56.99C51.2599 57 51.1799 57.03 51.0999 57.05C51.0199 57.07 50.9499 57.1 50.8799 57.13C50.8099 57.16 50.7499 57.1701 50.6899 57.2001C50.6399 57.2301 50.5899 57.2501 50.5499 57.2701C50.4699 57.3101 50.4199 57.3201 50.4199 57.3201V57.31Z" fill="#355729"/>
<path d="M45.39 68.3701C45.29 68.3701 45.2 68.3701 45.11 68.3501C42.35 67.9701 42.27 64.8901 42.27 64.5501C42.27 64.3801 42.4 64.2501 42.65 64.0201C42.82 63.8601 43.01 63.6801 43.19 63.4301C43.24 63.3601 43.26 63.2701 43.25 63.1801C43.14 62.1901 43.17 60.6901 43.94 60.0201C44.3 59.7101 45.52 58.8601 46.08 58.8601C47.09 58.8601 47.3 59.1101 48.08 60.0701C48.13 60.1301 48.2 60.1601 48.27 60.1601C48.31 60.1601 48.35 60.1601 48.38 60.1301C49.82 59.3601 50.87 59.7601 51.9 59.7601C52.93 59.7601 53.98 59.3601 55.42 60.1301C55.46 60.1501 55.49 60.1601 55.53 60.1601C55.6 60.1601 55.67 60.1301 55.72 60.0701C56.5 59.1101 56.73 59.0601 57.74 59.0601C58.29 59.0601 59.63 60.0301 59.99 60.3401C60.76 61.0001 60.67 62.1901 60.55 63.1801C60.54 63.2701 60.56 63.3601 60.61 63.4301C60.79 63.6801 60.98 63.8601 61.15 64.0201C61.39 64.2501 61.53 64.3801 61.53 64.5501C61.53 64.9001 61.45 67.9701 58.69 68.3501C58.6 68.3601 58.51 68.3701 58.41 68.3701C57.68 68.3701 56.78 68.0301 55.83 67.6801C54.72 67.2601 53.46 66.7901 52.25 66.7901H51.55C50.34 66.7901 49.08 67.2601 47.97 67.6801C47.02 68.0401 46.12 68.3701 45.39 68.3701Z" fill="#5D9540"/>
<path d="M46.2199 60.01C45.8399 59.78 45.16 60.2 44.71 60.94C44.26 61.69 44.21 62.48 44.59 62.71C44.97 62.94 45.65 62.52 46.09 61.78C46.54 61.04 46.6 60.24 46.21 60.01H46.2199Z" fill="#355729"/>
<path d="M57.99 60.1001C58.35 59.8301 59.06 60.1801 59.59 60.8701C60.11 61.5701 60.25 62.3501 59.89 62.6201C59.53 62.8901 58.8199 62.5401 58.2899 61.8501C57.7699 61.1501 57.63 60.3701 57.99 60.1101V60.1001Z" fill="#355729"/>
<path d="M46.2199 60.3301C45.8399 60.1001 45.16 60.5201 44.71 61.2601C44.26 62.0001 44.21 62.8001 44.59 63.0301C44.97 63.2601 45.65 62.8401 46.09 62.1001C46.54 61.3601 46.6 60.5601 46.21 60.3301H46.2199Z" fill="#2D2D2D"/>
<path d="M57.99 60.42C58.35 60.15 59.06 60.5001 59.59 61.1901C60.11 61.8901 60.25 62.6701 59.89 62.9401C59.53 63.2101 58.8199 62.86 58.2899 62.16C57.7699 61.47 57.63 60.69 57.99 60.41V60.42Z" fill="#2D2D2D"/>
<path d="M61.5498 65.1901C61.5498 65.1901 61.5498 65.2801 61.5498 65.4501C61.5398 65.6201 61.5198 65.87 61.4298 66.17C61.3498 66.48 61.1798 66.8401 60.8998 67.1801C60.6198 67.5301 60.1998 67.8601 59.6698 68.0301C59.6098 68.0601 59.5398 68.08 59.4698 68.11C59.3998 68.12 59.3298 68.1401 59.2598 68.1501C59.1198 68.1801 58.9798 68.2201 58.8298 68.2401C58.6798 68.2501 58.5298 68.2601 58.3798 68.2701H58.1498H57.9198C57.6098 68.2601 57.2798 68.2501 56.9598 68.1901C56.7998 68.1701 56.6298 68.14 56.4698 68.11C56.2898 68.08 56.1398 68.0301 55.9698 67.9901C55.2998 67.7901 54.6698 67.5201 53.9998 67.3201C53.3298 67.1201 52.6398 66.9501 51.9498 66.9501C51.2398 66.9501 50.5698 67.1101 49.8998 67.3201C49.2298 67.5201 48.5898 67.79 47.9298 67.98C47.7598 68.02 47.5998 68.06 47.4198 68.1C47.2598 68.12 47.0998 68.14 46.9298 68.16C46.7698 68.18 46.6098 68.2101 46.4498 68.2101C46.2898 68.2101 46.1298 68.21 45.9698 68.22C45.6598 68.25 45.3498 68.19 45.0498 68.17C44.8998 68.16 44.7598 68.1101 44.6198 68.0801C44.4798 68.0501 44.3398 68.03 44.2098 67.97C43.6798 67.81 43.2598 67.4801 42.9598 67.1501C42.6598 66.8201 42.4898 66.4501 42.3998 66.1501C42.2998 65.8501 42.2798 65.5901 42.2698 65.4301C42.2598 65.2601 42.2698 65.17 42.2698 65.17C42.2698 65.17 42.2698 65.2601 42.2898 65.4301C42.3098 65.5901 42.3598 65.8401 42.4698 66.1301C42.5698 66.4201 42.7498 66.7601 43.0598 67.0601C43.3598 67.3601 43.7698 67.6401 44.2798 67.7801C44.3998 67.8301 44.5398 67.8501 44.6698 67.8801C44.8098 67.9001 44.9398 67.9501 45.0798 67.9501C45.3598 67.9601 45.6598 68 45.9598 67.97C46.1098 67.97 46.2598 67.9601 46.4198 67.9401C46.5698 67.9301 46.7298 67.9001 46.8898 67.8701C47.0498 67.8401 47.2098 67.82 47.3798 67.8C47.5298 67.77 47.6898 67.7201 47.8398 67.6901C48.4698 67.5001 49.1098 67.2201 49.7998 67.0001C50.4798 66.7801 51.2198 66.6101 51.9498 66.5901C52.6998 66.5901 53.4198 66.7801 54.0998 67.0001C54.7798 67.2201 55.4298 67.4901 56.0498 67.6901C56.2098 67.7301 56.3798 67.7901 56.5298 67.8101C56.6898 67.8401 56.8498 67.8701 56.9998 67.9001C57.3098 67.9701 57.6198 67.9801 57.9298 68.0101L58.1498 68.0301H58.3698C58.5198 68.0201 58.6598 68.0101 58.7998 68.0001C58.9398 67.9801 59.0698 67.9501 59.2098 67.9301C59.2798 67.9201 59.3498 67.9001 59.4098 67.8901C59.4698 67.8701 59.5298 67.8501 59.5998 67.8201C60.0998 67.6701 60.5098 67.3901 60.7898 67.0801C61.0798 66.7701 61.2598 66.4301 61.3598 66.1301C61.4698 65.8401 61.5098 65.5901 61.5298 65.4301C61.5598 65.2601 61.5498 65.17 61.5498 65.17V65.1901Z" fill="#1D2E17"/>
<path d="M43.1899 61.48C43.3599 60.96 43.6099 60.4701 43.9399 60.0201C44.2599 59.5801 44.6799 59.17 45.2299 58.98C45.3699 58.93 45.5 58.89 45.65 58.87C45.79 58.85 45.94 58.84 46.08 58.86C46.22 58.86 46.3599 58.9 46.4999 58.93C46.6399 58.97 46.7799 59.01 46.9099 59.07C47.0499 59.12 47.1699 59.19 47.2899 59.26C47.4099 59.33 47.53 59.41 47.65 59.49L47.9799 59.75L48.2899 60.0301L48.14 59.99C48.76 59.85 49.3699 59.75 49.9899 59.67C50.6099 59.6 51.2299 59.5301 51.8599 59.5201C52.0199 59.5201 52.17 59.5201 52.33 59.5201C52.49 59.5201 52.6399 59.5201 52.7999 59.5301C53.1099 59.5301 53.4299 59.57 53.7399 59.6C53.8999 59.61 54.05 59.65 54.21 59.67C54.37 59.69 54.5199 59.72 54.6699 59.76C54.8199 59.8 54.9799 59.82 55.1299 59.88L55.59 60.0301L55.4 60.1C55.48 59.98 55.55 59.8701 55.64 59.7801C55.72 59.6801 55.8199 59.59 55.9199 59.51C56.0299 59.43 56.1299 59.35 56.2399 59.29C56.3499 59.22 56.4799 59.18 56.5999 59.13C56.7199 59.09 56.8599 59.07 56.9799 59.04C57.1099 59.03 57.2399 59.0301 57.3699 59.0201C57.4999 59.0301 57.6299 59.05 57.7499 59.07C57.8799 59.08 57.9899 59.14 58.1199 59.17C58.2399 59.2 58.3599 59.25 58.4699 59.31C58.5799 59.36 58.6999 59.42 58.8099 59.47C59.0199 59.61 59.2399 59.73 59.4299 59.88C59.6199 60.04 59.8199 60.18 59.9999 60.35L60.53 60.87L59.96 60.4001C59.77 60.2401 59.5699 60.12 59.3699 59.97C59.1699 59.83 58.9499 59.73 58.7399 59.61C58.6299 59.56 58.52 59.52 58.4 59.47C58.29 59.42 58.1799 59.38 58.0599 59.35C57.9399 59.32 57.83 59.2801 57.71 59.2701C57.59 59.2601 57.4799 59.24 57.3599 59.24C57.2499 59.25 57.13 59.2501 57.02 59.2701C56.91 59.3001 56.7899 59.32 56.6899 59.36C56.5799 59.41 56.4799 59.44 56.3799 59.51C56.2799 59.56 56.1899 59.6401 56.0999 59.7101C56.0199 59.7901 55.9299 59.8701 55.8599 59.9601C55.7899 60.0401 55.7199 60.15 55.6699 60.23L55.5999 60.3401L55.4799 60.3L55.0499 60.17C54.9099 60.12 54.7599 60.1 54.6099 60.06C54.4599 60.02 54.3099 60 54.1599 59.98C54.0099 59.96 53.86 59.93 53.71 59.92C53.4 59.89 53.0999 59.87 52.7899 59.87C52.6399 59.86 52.48 59.87 52.33 59.87C52.18 59.87 52.0199 59.87 51.8699 59.88C51.5599 59.89 51.26 59.9 50.95 59.93C50.64 59.95 50.34 59.98 50.03 60.01C49.42 60.08 48.81 60.17 48.21 60.29L48.1299 60.31L48.0599 60.25L47.77 59.98L47.46 59.73C47.35 59.66 47.25 59.57 47.14 59.5C47.03 59.43 46.9199 59.36 46.7999 59.31C46.6799 59.25 46.5599 59.21 46.4399 59.17C46.3199 59.14 46.1899 59.1001 46.0599 59.0901C45.9299 59.0801 45.7999 59.0801 45.6799 59.0901C45.5499 59.1001 45.4299 59.13 45.2999 59.17C45.0499 59.25 44.8199 59.3801 44.6099 59.5301C44.3999 59.6901 44.2 59.8801 44.03 60.0801C43.69 60.5001 43.4099 60.9701 43.1899 61.4601V61.48Z" fill="#1D2E17"/>
<path d="M30.1599 40.4001C30.1599 35.7201 39.2399 17.18 48.3099 35.79Z" fill="#5D9540"/>
<path d="M30.1599 40.4001V40.07C30.1599 39.96 30.1599 39.83 30.1799 39.67C30.1899 39.51 30.2099 39.33 30.2499 39.13C30.3099 38.73 30.4099 38.2401 30.5599 37.7001C30.6999 37.1501 30.9 36.5401 31.14 35.8901C31.39 35.2401 31.6799 34.5401 32.0599 33.8301C32.4199 33.1101 32.8499 32.38 33.3499 31.66C33.8499 30.94 34.42 30.23 35.09 29.57C35.75 28.91 36.52 28.3301 37.39 27.9001C38.26 27.4801 39.2499 27.25 40.2199 27.32C40.4599 27.35 40.6999 27.38 40.9399 27.41C41.1699 27.48 41.3999 27.55 41.6199 27.62C41.7299 27.65 41.8399 27.7 41.9399 27.75L42.2499 27.9001L42.5599 28.05C42.6599 28.1 42.75 28.17 42.84 28.23C43.03 28.35 43.21 28.48 43.4 28.6C43.58 28.73 43.74 28.8801 43.9 29.0201C44.06 29.1601 44.2299 29.29 44.3699 29.44C44.5099 29.59 44.6499 29.7401 44.7899 29.8901C44.9199 30.0401 45.0699 30.1801 45.1899 30.3301C45.3099 30.4901 45.4299 30.64 45.5399 30.79C45.7699 31.09 45.9899 31.38 46.1699 31.68C46.3599 31.98 46.53 32.2601 46.71 32.5201C46.87 32.7901 47.01 33.06 47.14 33.31C47.28 33.56 47.3999 33.79 47.5099 34.01C47.6199 34.23 47.7099 34.43 47.7999 34.61C48.1399 35.34 48.3199 35.7701 48.3199 35.7701C48.3199 35.7701 48.0799 35.38 47.6699 34.68C47.5699 34.5 47.46 34.31 47.33 34.11C47.2 33.91 47.05 33.6901 46.9 33.4601C46.75 33.2301 46.5899 32.97 46.4099 32.72C46.2199 32.47 46.03 32.21 45.83 31.93C45.64 31.65 45.3999 31.39 45.1599 31.11C45.0399 30.97 44.9199 30.83 44.7999 30.68C44.6799 30.54 44.53 30.4101 44.39 30.2701C44.25 30.1301 44.1199 30 43.9699 29.86C43.8299 29.72 43.6599 29.61 43.5099 29.48C43.3499 29.36 43.2 29.22 43.03 29.11C42.86 29 42.6799 28.8901 42.5099 28.7801C41.7999 28.3801 40.9999 28.0501 40.1599 28.0201C39.3199 27.9701 38.4699 28.17 37.6899 28.56C36.9099 28.94 36.1799 29.4701 35.5599 30.0801C34.9299 30.7001 34.3499 31.35 33.8599 32.04C33.3699 32.73 32.91 33.41 32.53 34.1C32.14 34.78 31.81 35.44 31.52 36.06C31.24 36.68 30.9899 37.26 30.8099 37.79C30.6199 38.31 30.4799 38.78 30.3799 39.17C30.3299 39.36 30.3 39.54 30.27 39.69C30.24 39.84 30.21 39.9701 30.2 40.0801C30.18 40.2901 30.1599 40.41 30.1599 40.41V40.4001Z" fill="#1D2E17"/>
<path d="M73.15 40.7601C73.15 36.0801 64.07 17.5401 55 36.1501Z" fill="#5D9540"/>
<path d="M73.1498 40.76C73.1498 40.76 73.1397 40.65 73.1097 40.43C73.1097 40.32 73.0797 40.19 73.0397 40.04C73.0097 39.89 72.9797 39.7101 72.9197 39.5201C72.8197 39.1301 72.6897 38.6701 72.4897 38.1401C72.3097 37.6201 72.0598 37.04 71.7798 36.42C71.4898 35.8 71.1598 35.1401 70.7698 34.4601C70.3898 33.7801 69.9298 33.0901 69.4398 32.4001C68.9398 31.7101 68.3597 31.0601 67.7397 30.4501C67.1097 29.8301 66.3897 29.31 65.6097 28.93C64.8297 28.55 63.9798 28.3501 63.1398 28.4001C62.2998 28.4301 61.4997 28.76 60.7897 29.16C60.6097 29.27 60.4398 29.38 60.2698 29.48C60.0998 29.6 59.9497 29.73 59.7897 29.85C59.6397 29.98 59.4698 30.09 59.3298 30.23C59.1898 30.37 59.0497 30.5101 58.9097 30.6401C58.7697 30.7801 58.6298 30.9 58.5098 31.05C58.3898 31.19 58.2698 31.33 58.1498 31.47C57.9098 31.75 57.6697 32.01 57.4797 32.29C57.2797 32.57 57.0798 32.8301 56.8998 33.0801C56.7198 33.3301 56.5597 33.58 56.4097 33.82C56.2597 34.05 56.1097 34.27 55.9797 34.47C55.8497 34.67 55.7498 34.87 55.6398 35.04C55.2298 35.73 54.9897 36.13 54.9897 36.13C54.9897 36.13 55.1698 35.71 55.5098 34.98C55.5998 34.8 55.6897 34.59 55.7897 34.37C55.9097 34.15 56.0297 33.92 56.1597 33.68C56.2997 33.43 56.4298 33.1601 56.5898 32.8901C56.7598 32.6201 56.9398 32.34 57.1298 32.05C57.3098 31.75 57.5398 31.46 57.7698 31.16C57.8798 31.01 57.9998 30.8601 58.1198 30.7001C58.2398 30.5501 58.3798 30.41 58.5198 30.26C58.6598 30.11 58.7998 29.96 58.9398 29.81C59.0798 29.66 59.2497 29.53 59.4097 29.38C59.5697 29.24 59.7297 29.0901 59.9097 28.9601C60.0897 28.8401 60.2797 28.7201 60.4697 28.5901C60.5697 28.5301 60.6598 28.46 60.7598 28.41L61.0698 28.26L61.3798 28.11C61.4798 28.06 61.5898 28.01 61.7098 27.98C61.9398 27.91 62.1598 27.8401 62.3898 27.7701C62.6298 27.7401 62.8697 27.71 63.1097 27.68C64.0797 27.61 65.0698 27.84 65.9498 28.26C66.8198 28.69 67.5898 29.27 68.2498 29.93C68.9098 30.58 69.4897 31.3001 69.9797 32.0201C70.4797 32.7501 70.9098 33.47 71.2698 34.19C71.6398 34.9 71.9298 35.6 72.1898 36.25C72.4298 36.9 72.6398 37.51 72.7698 38.06C72.9198 38.6 73.0098 39.09 73.0798 39.49C73.1198 39.69 73.1298 39.8701 73.1398 40.0301C73.1498 40.1901 73.1697 40.32 73.1597 40.43C73.1597 40.65 73.1597 40.76 73.1597 40.76H73.1498Z" fill="#1D2E17"/>
</svg>
