<svg width="102" height="102" viewBox="0 0 102 102" fill="none" xmlns="http://www.w3.org/2000/svg">
<path d="M92.48 0.419983H8.89001C4.10171 0.419983 0.219971 4.30172 0.219971 9.09003V92.68C0.219971 97.4683 4.10171 101.35 8.89001 101.35H92.48C97.2683 101.35 101.15 97.4683 101.15 92.68V9.09003C101.15 4.30172 97.2683 0.419983 92.48 0.419983Z" fill="#E57D25"/>
<path d="M50.6699 79.33C47.7299 79.33 46 78.59 43.13 77.37C42.13 76.95 40.99 76.47 39.58 75.92C33.56 73.57 30.9999 72.15 27.9099 66.43C26.8599 64.48 26.83 59.2 26.83 58.6C26.83 58.22 26.83 57.84 26.84 57.47C26.84 57.45 26.84 57.39 26.84 57.39C26.87 56.28 26.9499 55.15 27.0599 54.04C27.0599 53.95 27.08 53.82 27.09 53.7L27.14 53.25C27.47 50.42 27.97 48 28.33 46.24C28.46 45.63 28.5899 44.97 28.6699 44.51C26.5999 43.16 21.6299 39.62 22.7499 26.35C22.9099 24.42 23.08 22.43 24.9 22.43C25.56 22.43 26.09 22.77 26.77 23.2C27.01 23.35 27.2799 23.53 27.5999 23.71C27.7599 23.8 27.9199 23.9 28.0999 24C30.9399 25.62 36.01 28.5 36.78 35.14C41.15 33.35 44.97 32.51 48.64 32.51C49.32 32.51 49.9999 32.54 50.6799 32.6C51.3599 32.54 52.0499 32.51 52.7199 32.51C56.3999 32.51 60.21 33.35 64.58 35.14C65.35 28.51 70.42 25.62 73.26 24C73.43 23.9 73.6 23.81 73.76 23.72C74.08 23.54 74.35 23.36 74.59 23.21C75.26 22.78 75.79 22.44 76.46 22.44C78.29 22.44 78.4499 24.43 78.6199 26.36C79.7399 39.64 74.76 43.17 72.7 44.52C72.78 44.97 72.9099 45.64 73.0399 46.25C73.4199 48.09 73.94 50.6 74.27 53.55C74.46 55.29 74.5599 57 74.5599 58.62C74.5599 58.76 74.5599 58.92 74.5599 59.08C74.5499 59.98 74.4299 64.62 73.4899 66.43C70.5899 72.05 67.6999 73.64 61.8099 75.94C60.2799 76.54 59.38 76.93 58.58 77.27C57.96 77.54 57.3699 77.8 56.5999 78.1C54.3499 78.98 52.6499 79.35 50.7199 79.35H50.6899L50.6699 79.33Z" fill="#2F150C"/>
<path d="M77.21 26.47C76.9 22.81 76.6599 23.67 74.4699 24.94C71.6499 26.58 65.72 29.48 65.9 37.25C60.31 34.71 55.58 33.57 50.68 34.01C45.78 33.58 41.05 34.71 35.45 37.25C35.63 29.48 29.71 26.58 26.89 24.94C24.71 23.68 24.46 22.82 24.15 26.47C22.97 40.56 28.72 42.71 30.07 43.76C30.44 44.05 29.15 48.05 28.53 53.41L28.49 53.79C28.48 53.93 28.46 54.06 28.45 54.19C28.34 55.24 28.27 56.35 28.24 57.48V57.52C28.23 57.88 28.2199 58.24 28.2199 58.61C28.2199 60.6 28.44 64.48 29.13 65.76C31.96 70.99 34.16 72.3 40.07 74.61C45.59 76.76 47.07 77.91 50.65 77.92H50.67C52.46 77.92 54.0299 77.55 56.0399 76.76C57.7499 76.09 58.5 75.68 61.26 74.6C67.17 72.3 69.58 70.83 72.2 65.75C72.83 64.54 73.08 61.09 73.11 59.02C73.11 58.87 73.11 58.73 73.11 58.6C73.11 56.89 73 55.24 72.83 53.69C72.22 48.19 70.88 44.04 71.26 43.75C72.62 42.7 78.37 40.55 77.18 26.46L77.21 26.47Z" fill="#2F150C"/>
<path d="M71.2799 43.75C70.8999 44.04 72.2398 48.19 72.8498 53.69C73.0198 55.24 73.1299 56.9 73.1299 58.6C73.1299 58.73 73.1299 58.88 73.1299 59.02C73.0999 61.09 72.8498 64.54 72.2198 65.75C69.5998 70.83 67.1899 72.29 61.2799 74.6C58.5199 75.67 57.7699 76.09 56.0599 76.76C54.0499 77.55 52.4799 77.91 50.6899 77.92H50.6698C47.0898 77.91 45.6099 76.76 40.0899 74.61C34.1799 72.31 31.9799 70.99 29.1499 65.76C28.4599 64.47 28.2398 60.59 28.2398 58.61C28.2398 58.25 28.2399 57.88 28.2499 57.52V57.48C28.2899 56.35 28.3598 55.25 28.4698 54.19C28.4798 54.06 28.4899 53.93 28.5099 53.8L28.5498 53.41C29.1698 48.05 30.4599 44.04 30.0899 43.76C28.7299 42.71 22.9798 40.56 24.1698 26.47C24.4798 22.81 24.7198 23.67 26.9098 24.94C29.7298 26.58 35.6598 29.48 35.4698 37.25C41.0598 34.71 45.7899 33.57 50.6999 34.01C55.5999 33.58 60.3298 34.71 65.9198 37.25C65.7398 29.48 71.6598 26.58 74.4898 24.94C76.6698 23.68 76.9198 22.82 77.2298 26.47C78.4098 40.56 72.6599 42.71 71.3099 43.76" fill="#B29972"/>
<path d="M34.6099 37.74C34.7499 31.82 30.24 29.61 28.09 28.37C26.43 27.41 26.25 26.75 26.01 29.54C25.11 40.26 29.49 41.9 30.52 42.7C30.89 42.98 34.1199 39.28 34.6099 37.75" fill="#F8BFD2"/>
<path d="M66.5498 37.74C66.4098 31.82 70.9198 29.61 73.0698 28.37C74.7298 27.41 74.9099 26.75 75.1499 29.54C76.0499 40.26 71.6698 41.9 70.6398 42.7C70.2798 42.98 67.0398 39.28 66.5498 37.75" fill="#F8BFD2"/>
<path d="M50.68 77.72C47.2 77.72 39.76 73.91 35.51 70.76C30.63 67.14 29.81 64.35 29.32 60.14C29.27 59.72 29.25 59.3 29.25 58.87C29.25 50.44 34.52 40.25 36.21 38.57C37.5 37.29 44.1 34.13 50.68 34.13C56.88 34.13 63.79 37.26 65.16 38.59C66.91 40.29 72.11 50.47 72.11 58.87C72.11 59.18 72.1 59.48 72.08 59.78C72.07 59.89 72.06 60.01 72.05 60.12C71.54 64.97 70.44 67.27 66.3 70.42C62.07 73.64 54.77 77.64 50.93 77.72H50.97H50.68Z" fill="#D3B58D"/>
<path d="M72.5798 57.84V57.8C72.4998 56.73 72.4198 55.63 72.3698 54.65C72.3598 54.34 72.3398 54.03 72.3298 53.74C72.3298 53.93 72.3298 54.11 72.3298 54.27C72.3298 54.35 72.3298 54.43 72.3198 54.5C71.9298 62.09 66.4397 63.49 60.7397 66.66C55.6697 69.47 53.8197 72.81 50.6797 73.13C47.5297 72.8 45.6898 69.47 40.6198 66.66C34.9198 63.49 29.4297 62.09 29.0397 54.5C29.0397 54.43 29.0398 54.36 29.0298 54.28C29.0298 54.11 29.0298 53.93 29.0298 53.74C29.0198 54.03 29.0097 54.34 28.9897 54.65C28.9397 55.64 28.8598 56.73 28.7798 57.8V57.84C28.7698 58.19 28.7598 58.53 28.7598 58.88C28.7598 60.79 28.9798 64.51 29.6498 65.74C32.4198 70.76 34.5697 72.02 40.3497 74.23C45.7397 76.29 47.1897 77.39 50.6697 77.41C54.1397 77.39 55.5997 76.29 60.9897 74.23C66.7697 72.02 68.9298 70.76 71.6898 65.74C72.3598 64.51 72.5798 60.79 72.5798 58.88C72.5798 58.53 72.5798 58.18 72.5698 57.84" fill="#F0EFEF"/>
<path d="M50.7297 62.59C45.1797 62.63 41.2798 69.21 41.2798 71.97C41.2798 74.73 45.1597 77.72 50.7297 77.72C56.2997 77.72 60.1797 74.73 60.1797 71.97C60.1797 69.21 56.2897 62.63 50.7297 62.59Z" fill="#939292"/>
<path d="M30.1499 55.67C30.1499 55.67 35.0299 65.76 39.2099 65.76C42.4099 65.76 46.4199 64.12 46.4199 64.12C46.4199 64.12 48.1199 47.31 38.8399 46.77C34.6699 46.53 30.1499 55.67 30.1499 55.67Z" fill="#B29972"/>
<path d="M71.2999 55.67C71.2999 55.67 66.4199 65.76 62.2399 65.76C59.0399 65.76 55.0299 64.12 55.0299 64.12C55.0299 64.12 53.3299 47.31 62.6099 46.77C66.7799 46.53 71.2999 55.67 71.2999 55.67Z" fill="#B29972"/>
<path d="M34.6699 48.99C34.6699 48.99 34.6799 48.95 34.7199 48.88C34.7599 48.81 34.81 48.7 34.89 48.58C34.97 48.45 35.07 48.31 35.21 48.15C35.35 48 35.4999 47.81 35.6899 47.66C35.7899 47.58 35.8899 47.49 35.9999 47.41C36.1099 47.33 36.2299 47.25 36.3599 47.17C36.4799 47.08 36.6199 47.02 36.7599 46.95C36.8999 46.88 37.04 46.8 37.2 46.75C37.51 46.64 37.8399 46.52 38.1899 46.48C38.5399 46.4 38.8999 46.41 39.2499 46.4C39.6099 46.4 39.9599 46.48 40.2999 46.54C40.6299 46.65 40.9599 46.76 41.2599 46.88C41.5499 47.04 41.8199 47.19 42.0699 47.35C42.3099 47.52 42.52 47.71 42.7 47.87C42.8 47.95 42.88 48.04 42.96 48.11C43.04 48.19 43.0999 48.29 43.1699 48.36C43.2999 48.52 43.3999 48.66 43.4899 48.78C43.6599 49.02 43.7399 49.16 43.7399 49.16C43.7399 49.16 43.5699 49.11 43.3099 48.99C43.1799 48.93 43.0199 48.87 42.8499 48.79C42.6799 48.7 42.4799 48.63 42.2599 48.55C42.0399 48.47 41.82 48.37 41.58 48.28C41.33 48.21 41.0799 48.14 40.8199 48.05C40.5599 47.99 40.29 47.94 40.02 47.87C39.89 47.86 39.7499 47.85 39.6099 47.83C39.4699 47.82 39.33 47.78 39.2 47.8C38.92 47.8 38.6499 47.78 38.3799 47.82C38.2399 47.84 38.0999 47.82 37.9699 47.86C37.8399 47.89 37.6999 47.91 37.5699 47.93C37.4399 47.94 37.3099 48 37.1799 48.02C37.0499 48.05 36.9299 48.08 36.8099 48.12C36.5699 48.19 36.3399 48.26 36.1199 48.35C35.8999 48.42 35.71 48.52 35.53 48.58C35.36 48.66 35.1999 48.72 35.0699 48.78C34.9399 48.84 34.84 48.89 34.77 48.92C34.7 48.95 34.6599 48.97 34.6599 48.97L34.6699 48.99Z" fill="#342913"/>
<path d="M66.6198 48.99C66.6198 48.99 66.5798 48.97 66.5098 48.94C66.4398 48.9 66.3398 48.86 66.2098 48.8C66.0898 48.74 65.9198 48.68 65.7498 48.6C65.5698 48.53 65.3798 48.44 65.1598 48.37C64.9498 48.29 64.7198 48.21 64.4698 48.14C64.3498 48.1 64.2298 48.07 64.0998 48.04C63.9698 48.02 63.8498 47.96 63.7098 47.95C63.5798 47.93 63.4398 47.91 63.3098 47.88C63.1798 47.85 63.0398 47.86 62.8998 47.84C62.6298 47.8 62.3498 47.82 62.0798 47.82C61.9398 47.81 61.7998 47.84 61.6698 47.85C61.5298 47.87 61.3898 47.88 61.2598 47.89C60.9898 47.96 60.7198 48.01 60.4598 48.07C60.2098 48.16 59.9498 48.23 59.6998 48.3C59.4598 48.38 59.2398 48.49 59.0198 48.57C58.7998 48.65 58.5998 48.72 58.4298 48.81C58.2598 48.89 58.0998 48.96 57.9698 49.01C57.6998 49.12 57.5398 49.18 57.5398 49.18C57.5398 49.18 57.6198 49.04 57.7898 48.8C57.8698 48.68 57.9798 48.53 58.1098 48.38C58.1798 48.3 58.2398 48.21 58.3198 48.13C58.3998 48.05 58.4898 47.97 58.5898 47.88C58.7798 47.72 58.9898 47.53 59.2298 47.36C59.4798 47.21 59.7498 47.05 60.0398 46.89C60.3398 46.77 60.6698 46.65 60.9998 46.55C61.3398 46.49 61.6898 46.41 62.0498 46.41C62.4098 46.41 62.7698 46.41 63.1098 46.49C63.4598 46.53 63.7898 46.65 64.0998 46.76C64.2598 46.81 64.3998 46.89 64.5398 46.96C64.6798 47.03 64.8198 47.09 64.9398 47.18C65.0598 47.26 65.1798 47.34 65.2998 47.42C65.4098 47.5 65.5098 47.59 65.6098 47.67C65.8098 47.83 65.9598 48.02 66.0998 48.16C66.2298 48.32 66.3398 48.46 66.4198 48.59C66.4998 48.71 66.5498 48.82 66.5898 48.89C66.6298 48.96 66.6398 49 66.6398 49L66.6198 48.99Z" fill="#342913"/>
<path d="M71.2997 55.67C68.2097 54.89 56.8998 63.15 55.6298 63.24C55.0298 63.28 54.5197 59.88 55.5597 56.47C56.5897 53.08 59.1397 49.7 64.6597 49.7C70.3197 49.7 72.1297 55.87 71.2997 55.67Z" fill="white"/>
<path d="M60.7697 56.2C59.1797 56.72 57.6497 56.53 56.0597 60.78C54.9697 63.68 52.5697 66.14 52.8097 66.48C53.3897 67.34 56.0598 66.7 61.1498 66.01C64.9698 65.49 65.8197 64.98 66.8497 64.11C70.0497 61.42 73.8197 58.59 72.1197 49.7C71.7797 47.95 70.5798 53 60.7798 56.19" fill="#231F20"/>
<path d="M29.9997 55.67C33.0897 54.89 44.3997 63.15 45.6697 63.24C46.2697 63.28 46.7797 59.88 45.7397 56.47C44.7197 53.08 42.1598 49.7 36.6398 49.7C30.9898 49.7 29.1697 55.87 29.9997 55.67Z" fill="white"/>
<path d="M40.5198 56.2C42.1098 56.72 43.6398 56.53 45.2298 60.78C46.3198 63.68 48.7198 66.14 48.4798 66.48C47.8998 67.34 45.2298 66.7 40.1398 66.01C36.3198 65.49 35.4798 64.98 34.4398 64.11C31.2498 61.42 27.4698 58.59 29.1698 49.7C29.5098 47.95 30.7198 53 40.5098 56.19" fill="#231F20"/>
<path d="M46.4099 64.13C38.7099 67.8 33.2899 65.42 30.8499 55.91C30.8499 55.91 40.1099 48.72 45.0299 57.94C45.7899 59.37 46.4199 64.12 46.4199 64.12" fill="white"/>
<path d="M38.9699 64.73C36.8299 64.68 35.0399 62.99 34.3499 60.63C34.1399 59.91 34.0299 59.13 34.0499 58.32C34.1199 55.04 36.1499 53.88 38.7199 53.8C38.8799 53.8 39.04 53.79 39.2 53.8C41.99 53.86 44.11 56.76 44.15 58.54C44.25 62.02 41.7499 64.79 38.9699 64.73Z" fill="#2B2110"/>
<path d="M38.9899 63.85C37.3699 63.81 35.9499 62.43 35.3699 60.32C35.1799 59.65 35.0899 58.94 35.1099 58.21C35.1599 55.76 36.3199 54.59 38.7499 54.52C38.8699 54.52 38.9899 54.51 39.1199 54.51H39.1899C41.3899 54.56 43.0699 57.13 43.0999 58.44C43.1399 60.03 42.6099 61.55 41.6399 62.6C40.8999 63.41 39.9899 63.85 39.0599 63.85H38.9999" fill="#1C140B"/>
<path d="M55.0098 64.13C62.7098 67.8 68.1298 65.42 70.5698 55.91C70.5698 55.91 61.3098 48.72 56.3898 57.94C55.6298 59.37 55.0098 64.12 55.0098 64.12" fill="white"/>
<path d="M62.45 64.73C64.59 64.68 66.38 62.99 67.07 60.63C67.28 59.91 67.39 59.13 67.37 58.32C67.3 55.04 65.27 53.88 62.7 53.8C62.54 53.8 62.38 53.79 62.22 53.8C59.43 53.86 57.31 56.76 57.27 58.54C57.17 62.02 59.66 64.79 62.45 64.73Z" fill="#2B2110"/>
<path d="M62.3699 63.85C61.4399 63.85 60.5299 63.4 59.7899 62.6C58.8299 61.55 58.29 60.03 58.33 58.44C58.36 57.12 60.0399 54.56 62.2499 54.51H62.3099C62.4299 54.51 62.5499 54.51 62.6799 54.51C65.1199 54.58 66.2699 55.76 66.3199 58.2C66.3399 58.93 66.2499 59.64 66.0599 60.31C65.4799 62.42 64.0599 63.81 62.4299 63.85H62.3699Z" fill="#1C140B"/>
<path d="M39.31 57.01C39.27 59.12 37.8599 60.8 36.1599 60.76C35.3999 60.74 34.7099 60.38 34.1799 59.79C33.9899 59.16 33.8999 58.48 33.9099 57.76C33.9699 54.89 35.75 53.87 38 53.8C38.81 54.5 39.3199 55.68 39.2899 57" fill="white"/>
<path d="M41.9698 63.11C41.9498 63.82 41.4798 64.39 40.9098 64.38C40.3298 64.37 39.8798 63.78 39.8998 63.07C39.9098 62.36 40.3898 61.79 40.9598 61.8C41.5298 61.81 41.9798 62.4 41.9698 63.11Z" fill="white"/>
<path d="M62.32 57.33C62.28 59.44 60.8699 61.12 59.1699 61.08C58.4099 61.06 57.72 60.7 57.19 60.11C57 59.48 56.9099 58.8 56.9199 58.08C56.9799 55.21 58.76 54.19 61.01 54.12C61.82 54.82 62.3299 56 62.2999 57.32" fill="white"/>
<path d="M65.1798 63.11C65.1598 63.82 64.6898 64.39 64.1198 64.38C63.5398 64.37 63.0898 63.78 63.1098 63.07C63.1198 62.36 63.5998 61.79 64.1698 61.8C64.7398 61.81 65.1898 62.4 65.1798 63.11Z" fill="white"/>
<path d="M46.2198 62.82C46.1998 62.69 46.1799 62.55 46.1499 62.4C46.1699 62.54 46.1998 62.69 46.2198 62.82Z" fill="#A7926F"/>
<path d="M46.1498 62.41C45.8998 60.9 45.4898 58.81 45.0298 57.94C43.3598 54.8 41.1798 53.56 39.0398 53.3C41.1898 53.57 43.3598 54.8 45.0398 57.94C45.4998 58.81 45.9098 60.9 46.1598 62.41" fill="#E2E1E1"/>
<path d="M45.0299 64.73C45.4799 64.55 45.9499 64.35 46.4199 64.13C46.4199 64.13 46.3499 63.59 46.2299 62.83C46.3499 63.6 46.4199 64.13 46.4199 64.13C45.9499 64.36 45.4899 64.56 45.0299 64.73ZM31.2699 57.36C31.1199 56.9 30.9799 56.41 30.8499 55.9C30.9799 56.41 31.1199 56.89 31.2699 57.36Z" fill="#292526"/>
<path d="M45.0299 64.73C44.7799 63.37 44.4399 61.85 44.0599 61.14C43.9899 61.01 43.9199 60.88 43.8499 60.76C44.0699 60.07 44.1799 59.32 44.1599 58.53C44.1099 56.75 41.9899 53.85 39.2099 53.79H39.1299C38.9999 53.79 38.8599 53.79 38.7299 53.79C38.4999 53.79 38.2799 53.81 38.0599 53.84C38.0499 53.83 38.0399 53.82 38.0199 53.8C35.9899 53.86 34.3399 54.69 33.9899 56.97C33.0299 57.28 32.1799 57.69 31.5099 58.06C31.4299 57.83 31.3499 57.59 31.2699 57.35C31.1199 56.89 30.9799 56.4 30.8499 55.89C30.9099 55.85 34.3199 53.22 38.0899 53.22C38.3999 53.22 38.7199 53.24 39.0399 53.28C41.1899 53.55 43.3599 54.79 45.0299 57.92C45.4899 58.79 45.8999 60.88 46.1499 62.39C46.1699 62.53 46.1998 62.67 46.2198 62.81C46.3398 63.57 46.4099 64.11 46.4099 64.11C45.9399 64.33 45.4799 64.53 45.0199 64.71" fill="#E2E1E1"/>
<path d="M43.8498 60.76C43.5898 60.3 43.3198 59.89 43.0298 59.52C43.0798 59.16 43.0998 58.8 43.0898 58.43C43.0598 57.11 41.3798 54.55 39.1798 54.5H39.1098C38.9898 54.5 38.8598 54.5 38.7398 54.5C38.6998 54.5 38.6598 54.5 38.6098 54.5C38.4498 54.25 38.2498 54.03 38.0398 53.84C38.2598 53.82 38.4798 53.8 38.7098 53.79C38.8398 53.79 38.9798 53.79 39.1098 53.79H39.1898C41.9798 53.85 44.0998 56.75 44.1398 58.53C44.1598 59.31 44.0498 60.06 43.8298 60.76" fill="#302719"/>
<path d="M43.0299 59.52C41.8999 58.03 40.6099 57.18 39.2999 56.76C39.2799 55.91 39.0199 55.13 38.6099 54.51C38.6599 54.51 38.6999 54.51 38.7399 54.51C38.8599 54.51 38.9799 54.5 39.1099 54.5H39.1799C41.3799 54.55 43.0599 57.12 43.0899 58.43C43.0999 58.8 43.0799 59.16 43.0299 59.52Z" fill="#241D16"/>
<path d="M33.9897 56.98C34.3397 54.71 35.9898 53.87 38.0198 53.81C38.0298 53.82 38.0398 53.83 38.0598 53.85C38.2698 54.04 38.4698 54.26 38.6298 54.51C39.0398 55.13 39.2898 55.91 39.3198 56.76C38.5898 56.53 37.8498 56.43 37.1298 56.43C36.0298 56.43 34.9598 56.65 33.9998 56.97" fill="#E2E1E1"/>
<path d="M55.25 62.52C55.5 61 55.92 58.83 56.39 57.94C56.62 57.5 56.87 57.1 57.12 56.73C56.87 57.09 56.63 57.49 56.4 57.93C55.93 58.82 55.51 60.99 55.26 62.51" fill="#E2E1E1"/>
<path d="M56.3998 64.73C55.9498 64.55 55.4798 64.35 55.0098 64.13C55.4798 64.35 55.9398 64.55 56.3998 64.73Z" fill="#292526"/>
<path d="M56.3998 64.73C55.9498 64.55 55.4798 64.35 55.0098 64.13C55.0098 64.13 55.0998 63.45 55.2498 62.52C55.4998 61 55.9198 58.83 56.3898 57.94C56.6198 57.5 56.8697 57.1 57.1097 56.74C56.9997 57.14 56.9397 57.58 56.9297 58.09C56.9097 58.8 57.0098 59.49 57.1998 60.12C57.2798 60.22 57.3797 60.31 57.4697 60.39C57.4997 60.52 57.5398 60.64 57.5798 60.77C57.5098 60.89 57.4398 61.02 57.3698 61.15C56.9998 61.86 56.6498 63.38 56.3998 64.74" fill="#E2E1E1"/>
<path d="M57.5699 60.76C57.5299 60.64 57.5 60.51 57.46 60.38C57.53 60.44 57.5999 60.5 57.6799 60.56C57.6399 60.62 57.5999 60.69 57.5599 60.76" fill="#302719"/>
<path d="M59.46 54.37C60.41 53.74 61.4 53.42 62.39 53.3C61.4 53.42 60.41 53.75 59.46 54.37Z" fill="#E2E1E1"/>
<path d="M70.1299 57.46C70.2899 56.97 70.4399 56.45 70.5799 55.9C70.4399 56.44 70.2899 56.96 70.1299 57.46Z" fill="#292526"/>
<path d="M69.9199 58.07C69.1799 57.67 68.2399 57.22 67.1899 56.9C66.6399 54.69 64.85 53.86 62.7 53.8C62.57 53.8 62.4299 53.8 62.2999 53.8H62.2199C61.6499 53.81 61.1099 53.94 60.5999 54.16C60.1999 54.2 59.81 54.27 59.45 54.38C60.4 53.75 61.3899 53.43 62.3799 53.31C62.6999 53.27 63.01 53.25 63.33 53.25C67.1 53.25 70.5099 55.88 70.5699 55.92C70.4299 56.46 70.2799 56.98 70.1199 57.48C70.0499 57.69 69.9899 57.89 69.9199 58.09" fill="#E2E1E1"/>
<path d="M67.1899 56.9C66.8299 56.79 66.4499 56.69 66.0699 56.61C65.6099 55.24 64.4999 54.56 62.6699 54.5C62.5499 54.5 62.4299 54.49 62.2999 54.49H62.2399C61.9799 54.49 61.7199 54.54 61.4799 54.61C61.3399 54.43 61.1899 54.26 61.0199 54.12C60.8799 54.12 60.7399 54.13 60.5999 54.14C61.0999 53.92 61.6398 53.79 62.2198 53.78H62.2999C62.4299 53.78 62.5699 53.78 62.6999 53.78C64.8499 53.84 66.6299 54.67 67.1899 56.88" fill="#302719"/>
<path d="M62.29 56.71C62.2 55.9 61.91 55.18 61.48 54.62C61.72 54.55 61.98 54.51 62.24 54.5H62.3C62.42 54.5 62.54 54.5 62.67 54.5C64.5 54.56 65.61 55.23 66.07 56.61C65.5 56.5 64.9 56.43 64.3 56.43C63.64 56.43 62.96 56.51 62.29 56.7" fill="#241D16"/>
<path d="M57.69 60.57C57.61 60.51 57.5399 60.45 57.4699 60.39C57.3799 60.31 57.29 60.22 57.2 60.12C57.01 59.49 56.9199 58.81 56.9299 58.09C56.9399 57.58 56.9999 57.13 57.1099 56.74C57.8299 55.69 58.62 54.92 59.45 54.38C59.81 54.27 60.1999 54.2 60.5999 54.16C60.7299 54.15 60.88 54.14 61.02 54.14C61.19 54.28 61.3399 54.45 61.4799 54.63C61.9099 55.19 62.1999 55.92 62.2899 56.72C60.6399 57.19 59.0199 58.33 57.6799 60.57" fill="#E2E1E1"/>
<path d="M46.4099 64.13C46.3099 63.66 46.2099 63.19 46.0999 62.72C45.9899 62.25 45.8999 61.78 45.7799 61.32C45.6699 60.85 45.5499 60.39 45.4099 59.93C45.2799 59.46 45.1299 59.05 44.9599 58.62C44.8599 58.42 44.7699 58.15 44.6599 58L44.2899 57.41C44.0199 57.03 43.7499 56.65 43.4399 56.31C43.2899 56.13 43.1398 55.97 42.9698 55.81C42.8098 55.65 42.6399 55.49 42.4599 55.35C42.2899 55.2 42.1099 55.06 41.9199 54.94C41.7399 54.81 41.5499 54.69 41.3499 54.59C40.9599 54.36 40.5399 54.21 40.1199 54.08C39.6999 53.95 39.2599 53.87 38.8199 53.83C38.3799 53.8 37.9299 53.79 37.4799 53.84C37.0299 53.87 36.5899 53.96 36.1499 54.06C35.2699 54.27 34.3999 54.59 33.5699 54.99C33.1499 55.19 32.7499 55.41 32.3499 55.65C31.9599 55.88 31.5499 56.14 31.2099 56.4L31.4299 55.77L31.7899 57.02C31.8899 57.44 32.0499 57.84 32.1999 58.24C32.3399 58.65 32.4899 59.05 32.6799 59.43C32.8599 59.82 33.0099 60.23 33.2299 60.59C33.4499 60.95 33.6099 61.35 33.8699 61.69C34.1199 62.02 34.3299 62.4 34.6299 62.69C34.9099 62.99 35.1699 63.33 35.4999 63.58L35.9698 63.99L36.4899 64.33C36.8299 64.58 37.2199 64.72 37.5999 64.9C37.9799 65.07 38.3999 65.14 38.7899 65.27C39.2099 65.32 39.6199 65.41 40.0499 65.43C40.4699 65.42 40.9099 65.47 41.3299 65.42C41.7599 65.37 42.1999 65.37 42.6199 65.26C43.0399 65.16 43.4799 65.12 43.8999 64.98C44.3199 64.85 44.7399 64.75 45.1599 64.59L46.4099 64.14V64.13ZM46.4099 64.13L45.2299 64.74C44.8299 64.94 44.4099 65.08 43.9999 65.26C43.5899 65.45 43.1498 65.54 42.7198 65.68C42.2998 65.83 41.8399 65.88 41.3999 65.98C40.9499 66.09 40.4899 66.06 40.0399 66.11C39.5799 66.12 39.1199 66.06 38.6599 66.04C38.2099 65.93 37.7399 65.88 37.2999 65.71C36.8699 65.54 36.4099 65.4 36.0199 65.14L35.4099 64.79L34.8599 64.36C34.4699 64.09 34.1599 63.74 33.8399 63.4C33.4899 63.08 33.2598 62.68 32.9698 62.31C32.6698 61.95 32.4799 61.53 32.2299 61.14C31.9799 60.75 31.8099 60.33 31.5999 59.92C31.3999 59.51 31.2299 59.09 31.0799 58.66C30.9199 58.23 30.7499 57.81 30.6399 57.37L30.2499 56.07L30.1399 55.68L30.4698 55.43C30.8898 55.11 31.2999 54.84 31.7299 54.59C32.1599 54.34 32.5999 54.11 33.0599 53.89C33.9599 53.47 34.9099 53.13 35.8999 52.91C36.3899 52.8 36.8999 52.73 37.4099 52.7C37.9199 52.66 38.4299 52.69 38.9399 52.74C39.4499 52.8 39.9599 52.91 40.4499 53.08C40.6899 53.17 40.9399 53.25 41.1699 53.37C41.3999 53.48 41.6299 53.6 41.8499 53.73C42.0699 53.86 42.2799 54.01 42.4799 54.16C42.6899 54.31 42.8799 54.48 43.0699 54.65C43.2599 54.82 43.4299 55 43.5999 55.19C43.7699 55.37 43.9399 55.56 44.0799 55.77C44.3899 56.16 44.6499 56.59 44.8999 57.01L45.2499 57.66C45.3899 57.93 45.4299 58.12 45.5299 58.36C45.6699 58.83 45.7999 59.34 45.8799 59.81C45.9699 60.28 46.0399 60.76 46.1099 61.24C46.2499 62.19 46.3499 63.15 46.4099 64.11V64.13Z" fill="#342913"/>
<path d="M55.01 64.13C55.07 63.17 55.17 62.21 55.31 61.26C55.37 60.78 55.45 60.3 55.54 59.83C55.62 59.36 55.74 58.84 55.88 58.38C55.98 58.15 56.02 57.95 56.16 57.68L56.51 57.03C56.76 56.61 57.02 56.1799 57.33 55.7899C57.47 55.5899 57.64 55.39 57.81 55.21C57.98 55.02 58.15 54.84 58.35 54.67C58.54 54.5 58.72 54.33 58.93 54.18C59.13 54.02 59.34 53.87 59.57 53.75C59.79 53.61 60.01 53.49 60.25 53.39C60.48 53.27 60.72 53.1899 60.97 53.0999C61.46 52.9299 61.97 52.82 62.48 52.76C62.99 52.71 63.51 52.6799 64.02 52.7199C64.53 52.7399 65.03 52.82 65.53 52.93C66.52 53.15 67.47 53.4899 68.37 53.9099C68.82 54.1299 69.26 54.36 69.69 54.61C70.12 54.86 70.53 55.13 70.95 55.45L71.28 55.7L71.17 56.09L70.78 57.39C70.67 57.83 70.49 58.25 70.34 58.68C70.19 59.11 70.03 59.53 69.82 59.94C69.62 60.35 69.45 60.7699 69.19 61.1599C68.94 61.5499 68.75 61.97 68.45 62.33C68.16 62.69 67.93 63.09 67.58 63.42C67.26 63.76 66.95 64.11 66.56 64.38L66.01 64.81L65.4 65.1599C65 65.4199 64.56 65.56 64.12 65.73C63.69 65.91 63.21 65.95 62.76 66.06C62.3 66.09 61.84 66.14 61.38 66.13C60.92 66.08 60.46 66.11 60.02 66C59.58 65.9 59.12 65.86 58.7 65.7C58.27 65.56 57.83 65.47 57.42 65.28C57.01 65.11 56.58 64.96 56.19 64.76L55.01 64.15V64.13ZM55.01 64.13L56.26 64.58C56.68 64.74 57.1 64.8399 57.52 64.9699C57.93 65.1099 58.37 65.16 58.8 65.25C59.22 65.36 59.66 65.3599 60.09 65.4099C60.52 65.4699 60.95 65.41 61.37 65.42C61.79 65.4 62.21 65.32 62.63 65.26C63.03 65.13 63.45 65.06 63.82 64.89C64.2 64.71 64.59 64.57 64.93 64.32L65.45 63.98L65.92 63.57C66.25 63.32 66.51 62.98 66.79 62.68C67.09 62.39 67.29 62 67.54 61.68C67.8 61.35 67.97 60.94 68.19 60.58C68.41 60.22 68.55 59.81 68.74 59.42C68.93 59.04 69.08 58.64 69.21 58.23C69.35 57.83 69.51 57.43 69.62 57.01L69.98 55.76L70.2 56.39C69.86 56.14 69.45 55.88 69.06 55.64C68.66 55.4 68.25 55.18 67.84 54.98C67.01 54.58 66.14 54.26 65.26 54.05C64.81 53.95 64.37 53.86 63.92 53.83C63.47 53.78 63.03 53.79 62.58 53.82C62.13 53.86 61.7 53.94 61.28 54.07C60.86 54.2 60.44 54.36 60.05 54.58C59.85 54.68 59.66 54.8 59.48 54.93C59.29 55.05 59.11 55.19 58.94 55.34C58.76 55.47 58.6 55.63 58.44 55.8C58.27 55.96 58.11 56.12 57.97 56.3C57.66 56.64 57.39 57.02 57.12 57.4L56.75 57.99C56.65 58.14 56.55 58.41 56.45 58.61C56.28 59.05 56.13 59.45 56 59.92C55.86 60.38 55.74 60.84 55.63 61.31C55.51 61.77 55.41 62.24 55.31 62.71C55.2 63.18 55.1 63.65 55 64.12L55.01 64.13Z" fill="#342913"/>
<path d="M52.8098 70.88H52.7798C52.7798 70.02 52.4498 69.89 50.6898 69.86C48.9298 69.9 48.5998 70.03 48.5998 70.88H48.5698C48.5698 70.88 49.2498 65.35 49.5298 64.72C49.6698 64.4 50.1598 64.37 50.3798 64.37C50.4498 64.37 50.4898 64.37 50.4898 64.37C50.4898 64.37 50.5698 64.37 50.6898 64.38C50.8098 64.37 50.8898 64.37 50.8898 64.37C50.8898 64.37 50.9298 64.37 50.9998 64.37C51.2198 64.37 51.7098 64.41 51.8498 64.72C52.1398 65.35 52.8098 70.88 52.8098 70.88Z" fill="#666766"/>
<path d="M52.6698 70.7199C52.5298 70.3999 51.8798 70.39 51.2298 70.68C50.5698 70.97 50.1598 71.47 50.2998 71.78C50.4398 72.09 51.0898 72.11 51.7398 71.82C52.3998 71.53 52.8098 71.0299 52.6698 70.7199Z" fill="#010101"/>
<path d="M51.0598 71.73C50.9198 72.05 50.2698 72.06 49.6098 71.77C48.9598 71.48 48.5398 70.98 48.6798 70.67C48.8198 70.36 49.4698 70.34 50.1198 70.63C50.7798 70.92 51.1898 71.42 51.0498 71.73" fill="#010101"/>
<path d="M56.0498 72.7C56.0298 72.54 55.9798 72.41 55.9298 72.3C55.8898 72.19 55.8298 72.12 55.8098 72.07C55.7798 72.02 55.7598 71.99 55.7598 71.99C55.7598 71.99 55.7698 72.02 55.8098 72.07C55.8298 72.12 55.8898 72.2 55.9198 72.31C55.9998 72.52 56.0698 72.85 55.9698 73.23C55.9298 73.41 55.8298 73.6 55.7098 73.79C55.5898 73.97 55.4298 74.14 55.2498 74.3C54.8898 74.62 54.4298 74.87 53.9398 75.01C53.4498 75.15 52.9398 75.2 52.4798 75.1C52.2498 75.05 52.0498 74.97 51.8698 74.86C51.6898 74.76 51.5398 74.63 51.4198 74.49C51.2998 74.36 51.2098 74.22 51.1398 74.09C51.0598 73.96 51.0298 73.84 50.9798 73.74C50.9298 73.58 50.9098 73.48 50.8898 73.44V71.98H50.4898V73.44C50.4898 73.44 50.4398 73.59 50.3998 73.74C50.3498 73.84 50.3198 73.97 50.2398 74.09C50.1698 74.22 50.0798 74.36 49.9598 74.5C49.8298 74.63 49.6898 74.77 49.4998 74.87C49.3198 74.98 49.1098 75.06 48.8798 75.11C48.4198 75.21 47.8998 75.17 47.4098 75.04C46.9198 74.9 46.4498 74.66 46.0698 74.35C45.6998 74.04 45.4198 73.66 45.3198 73.28C45.2598 73.1 45.2598 72.92 45.2598 72.76C45.2698 72.6 45.3098 72.47 45.3498 72.36C45.3798 72.25 45.4298 72.18 45.4598 72.12C45.4298 72.18 45.3698 72.25 45.3398 72.36C45.2898 72.47 45.2498 72.6 45.2298 72.76C45.2098 72.92 45.2098 73.11 45.2598 73.3C45.3398 73.7 45.6198 74.11 45.9898 74.45C46.3598 74.79 46.8398 75.06 47.3498 75.23C47.8598 75.4 48.4198 75.47 48.9298 75.38C49.1898 75.34 49.4298 75.26 49.6498 75.15C49.8698 75.04 50.0498 74.89 50.1998 74.75C50.3498 74.6 50.4698 74.44 50.5598 74.29C50.6198 74.2 50.6598 74.12 50.6998 74.04C50.7398 74.12 50.7698 74.2 50.8298 74.29C50.9098 74.44 51.0298 74.59 51.1798 74.75C51.3298 74.89 51.5098 75.05 51.7198 75.15C51.9298 75.26 52.1798 75.34 52.4298 75.38C52.9398 75.46 53.4898 75.39 53.9998 75.21C54.5098 75.03 54.9698 74.75 55.3298 74.4C55.4998 74.22 55.6698 74.04 55.7798 73.84C55.8998 73.64 55.9798 73.44 56.0198 73.24C56.0698 73.05 56.0598 72.86 56.0398 72.7H56.0498Z" fill="#0D0D0D"/>
<path d="M50.6899 69.86C48.9099 69.9 48.5898 70.03 48.5998 70.9C48.5998 71.42 49.6598 71.18 49.9298 71.66C50.3698 72.46 50.1599 72.66 50.6999 72.68C51.2399 72.66 51.0199 72.46 51.4599 71.66C51.7299 71.18 52.7898 71.42 52.7898 70.9C52.7898 70.03 52.4799 69.89 50.6999 69.86" fill="#231F20"/>
<path d="M50.6798 70.7C50.0598 70.7 49.5498 70.58 49.5498 70.43C49.5498 70.28 50.0898 70.08 50.7098 70.08C51.3298 70.08 51.7998 70.29 51.7998 70.43C51.7998 70.57 51.2898 70.7 50.6698 70.7" fill="white"/>
</svg>
