<svg width="101" height="102" viewBox="0 0 101 102" fill="none" xmlns="http://www.w3.org/2000/svg">
<path d="M92.26 0.530029H8.67C3.88169 0.530029 0 4.41173 0 9.20004V92.79C0 97.5783 3.88169 101.46 8.67 101.46H92.26C97.0483 101.46 100.93 97.5783 100.93 92.79V9.20004C100.93 4.41173 97.0483 0.530029 92.26 0.530029Z" fill="#24B999"/>
<path d="M50.85 78.67C50.63 78.67 50.4 78.6701 50.14 78.6401C49.8 78.6201 49.41 78.59 48.99 78.54C44.25 78.14 40.43 76.7501 37.91 74.5001C31.21 70.5901 26.98 65.3401 26.3 60.0901C26.23 59.5901 26.2 59.07 26.2 58.54C26.2 56.65 26.35 54.78 26.65 52.97C24.74 52.79 22.45 52.11 20.68 50.17C18.56 47.85 17.7 44.2501 18.13 39.4901C18.61 34.2201 21.48 29.43 23.15 27.05C23.17 27.02 23.2 26.9901 23.22 26.9601C23.26 26.9201 23.3 26.8601 23.34 26.7801C23.36 26.7401 23.39 26.7 23.42 26.67C23.73 26.25 24.05 25.8601 24.35 25.5001C24.39 25.4601 24.43 25.4101 24.47 25.3701C25.68 24.0101 26.71 23.3201 27.52 23.3201C27.63 23.3201 27.74 23.33 27.84 23.35C28.57 23.5 29.94 23.7901 30.7 25.2501C31.03 25.8701 34.06 30.1801 35.2 31.8101L35.64 32.4401C36.31 33.4001 36.77 34.19 37.08 34.92C37.2 35.19 37.3 35.4501 37.38 35.7001C39.02 34.8401 40.89 34.21 43.06 33.79C43.65 33.11 44.34 32.6 45.03 32.22C44.99 32.22 44.95 32.22 44.91 32.22C44.29 32.22 43.74 31.7801 43.6 31.1501C43.44 30.4301 43.9 29.72 44.62 29.54C45.43 29.34 46.2 29.2401 46.91 29.2401C47.1 29.2401 47.29 29.2401 47.47 29.2601C47.33 29.0301 47.2 28.85 47.11 28.73C46.76 28.25 46.76 27.6101 47.11 27.1301C47.37 26.7701 47.78 26.5701 48.2 26.5701C48.34 26.5701 48.49 26.5901 48.63 26.6401C49.9 27.0601 51.17 28.13 52.25 29.29C52.47 29.15 52.73 29.0701 52.99 29.0701C53.22 29.0701 53.46 29.1301 53.67 29.2601C54.32 29.6401 54.88 30.0801 55.36 30.5101C55.52 30.4501 55.69 30.41 55.86 30.41C56.1 30.41 56.34 30.47 56.56 30.61C59.36 32.31 60.58 33.6101 61.11 34.4501C62.2 34.7901 63.22 35.19 64.16 35.66C64.57 34.5 65.3 33.37 65.98 32.41L66.46 31.73C67.59 30.12 70.59 25.85 70.92 25.23C71.68 23.77 73.04 23.4901 73.78 23.3301C73.89 23.3101 74 23.3 74.1 23.3C74.91 23.3 75.93 23.99 77.15 25.35C77.19 25.39 77.23 25.43 77.27 25.47C77.57 25.82 77.88 26.2101 78.2 26.6401C78.23 26.6801 78.25 26.7201 78.28 26.7601C78.32 26.8301 78.36 26.8901 78.4 26.9301C78.42 26.9601 78.45 26.9901 78.47 27.0201C80.14 29.4001 83.01 34.1901 83.49 39.4601C83.92 44.2201 83.06 47.8101 80.94 50.1401C79.2 52.0401 76.96 52.7301 75.07 52.9301C75.37 54.7501 75.52 56.6201 75.52 58.5101C75.52 58.8701 75.51 59.2301 75.48 59.5901C75.47 59.7201 75.46 59.8501 75.44 59.9901C74.89 64.7401 71.7 69.4 66.44 73.11C61.81 76.39 56.22 78.4401 51.51 78.6201C51.51 78.6201 51.33 78.6301 51.28 78.6301C51.25 78.6301 51.22 78.6301 51.19 78.6301C51.19 78.6301 50.89 78.6301 50.88 78.6301L50.85 78.67Z" fill="#2F150C"/>
<path d="M35.8199 35.4501C35.5199 34.7401 35.0699 34 34.5199 33.22C33.3199 31.51 29.8999 26.6701 29.4899 25.8801C29.0799 25.0901 28.4299 24.8601 27.5499 24.6801C27.2599 24.6201 26.4099 25.2001 25.3899 26.3601L25.3599 26.3801C25.0899 26.7001 24.7899 27.07 24.4899 27.47C24.3999 27.62 24.3199 27.7301 24.2499 27.8201C22.5299 30.2801 19.9099 34.77 19.4699 39.6C18.4699 50.62 24.9299 51.7701 28.2699 51.6501C27.8099 53.7701 27.5399 56.0701 27.5399 58.5301C27.5399 58.9901 27.5699 59.4501 27.6299 59.9001C28.3399 65.3801 33.2199 70.2101 38.6999 73.3801C40.7099 75.2201 44.0399 76.7501 49.1199 77.1701C49.4999 77.2201 49.8599 77.2501 50.2099 77.2701C50.4199 77.2801 50.6299 77.2901 50.8299 77.2901H51.1199H51.0799C51.1899 77.2901 51.2999 77.2801 51.4099 77.2701C60.2099 76.9401 72.9399 69.3701 74.0499 59.8401C74.0599 59.7201 74.0799 59.6001 74.0899 59.4801C74.1199 59.1601 74.1299 58.8401 74.1299 58.5101C74.1299 56.0501 73.8699 53.7501 73.4099 51.6301C76.7799 51.7201 83.0899 50.4801 82.0999 39.5801C81.6599 34.7501 79.0399 30.2501 77.3199 27.8001C77.2499 27.7101 77.1599 27.6001 77.0799 27.4501C76.7799 27.0401 76.4799 26.6701 76.2099 26.3601L76.1799 26.3401C75.1699 25.1901 74.3199 24.6 74.0199 24.66C73.1499 24.84 72.4999 25.0701 72.0799 25.8601C71.6699 26.6501 68.2499 31.4901 67.0499 33.2001C65.9399 34.7801 64.9499 36.4901 65.1599 37.8201C63.7799 36.9001 62.1099 36.1501 60.1099 35.5801C60.1099 35.5801 59.8499 34.2301 55.7999 31.7701C56.0099 31.9201 56.4599 32.3901 56.0599 33.5101C56.0599 33.5101 54.9899 31.6401 52.9199 30.4301C52.9199 30.4301 54.1999 32.2801 54.0599 34.0001C54.0599 34.0001 50.9199 28.8601 48.1399 27.9301C48.1399 27.9301 49.7099 30.0701 50.1399 32.0301C50.1399 32.0301 48.9299 29.86 44.8799 30.85C45.0499 30.82 46.4199 30.6301 48.3599 32.5001C48.3599 32.5001 45.3499 32.7901 43.7499 35.0101C40.4699 35.5901 38.0599 36.61 36.1899 37.97C36.3799 37.22 36.1899 36.33 35.7799 35.41L35.8199 35.4501Z" fill="#2F150C"/>
<path d="M44.8799 32.25C44.2599 32.25 43.6999 31.81 43.5699 31.17C43.4499 30.62 43.6999 30.07 44.1399 29.77C44.2799 29.68 44.4299 29.61 44.5999 29.57C44.5999 29.57 44.6699 29.55 44.6799 29.55C44.7599 29.54 44.8399 29.53 44.9199 29.53C45.5499 29.53 46.1099 29.97 46.2399 30.61C46.3899 31.33 45.9299 32.04 45.2199 32.2C45.1999 32.2 45.1499 32.21 45.1399 32.22C45.0499 32.24 44.9599 32.25 44.8699 32.25H44.8799Z" fill="#2F150C"/>
<path d="M55.84 33.1601C55.6 33.1601 55.36 33.1001 55.14 32.9601L55.05 32.9101C54.43 32.5401 54.22 31.7501 54.55 31.1201C54.79 30.6601 55.26 30.4001 55.75 30.4001C55.94 30.4001 56.13 30.4402 56.32 30.5302C56.39 30.5602 56.5 30.6201 56.63 30.7101C57.22 31.1301 57.37 31.9501 56.97 32.5601C56.71 32.9501 56.28 33.1701 55.84 33.1701V33.1601Z" fill="#2F150C"/>
<path d="M55.84 31.81C55.79 31.77 55.75 31.75 55.75 31.75C55.78 31.77 55.81 31.79 55.84 31.81Z" fill="#2F150C"/>
<path d="M71.3999 51.43C71.3999 51.43 68.7199 44.79 66.8799 40.86C66.1899 39.39 65.6699 38.24 65.5399 37.87C65.0799 36.5 65.8599 34.94 67.0699 33.23C68.2699 31.52 71.6899 26.68 72.0999 25.89C72.5099 25.1 73.1599 24.87 74.0399 24.69C74.3299 24.63 75.1799 25.21 76.1999 26.37L76.2299 26.39C76.4999 26.71 76.7999 27.08 77.0999 27.48C77.1899 27.63 77.2699 27.74 77.3399 27.83C79.0599 30.29 81.6799 34.78 82.1199 39.61C83.4499 54.37 71.4099 51.42 71.4099 51.42L71.3999 51.43Z" fill="#ECE5D6"/>
<path d="M76.1999 26.37C74.6599 24.95 73.2599 25.58 72.7599 26.97C72.1599 28.64 70.4299 31.77 68.8699 34.51C66.6399 38.42 68.0799 40.71 68.1999 42.8C67.5099 41.33 65.3899 38.56 65.2699 38.19C64.8099 36.82 65.8799 34.95 67.0799 33.24C68.2799 31.53 71.6999 26.69 72.1099 25.9C72.5199 25.11 73.1699 24.88 74.0499 24.7C74.3399 24.64 75.1899 25.22 76.2099 26.38L76.1999 26.37Z" fill="#443B27"/>
<path d="M73.96 36.52C73.96 36.52 73.96 36.69 73.91 36.97C73.89 37.11 73.86 37.28 73.82 37.46C73.78 37.65 73.74 37.86 73.64 38.08C73.55 38.31 73.45 38.55 73.33 38.81C73.22 39.07 73.06 39.31 72.89 39.57C72.81 39.7 72.72 39.82 72.63 39.95L72.49 40.15L72.33 40.33C72.12 40.57 71.89 40.8 71.66 41.04C71.41 41.25 71.15 41.45 70.89 41.64C70.64 41.85 70.35 41.99 70.08 42.12C69.94 42.18 69.81 42.26 69.67 42.32C69.54 42.38 69.41 42.44 69.27 42.48C69 42.56 68.74 42.63 68.51 42.69C68.39 42.71 68.28 42.75 68.17 42.76C68.06 42.77 67.95 42.78 67.85 42.79C67.65 42.8 67.48 42.8 67.34 42.8C67.06 42.8 66.9 42.78 66.9 42.78C66.9 42.78 67.03 42.66 67.25 42.49C67.36 42.41 67.49 42.3 67.64 42.2C67.79 42.1 67.96 41.98 68.14 41.83C68.32 41.69 68.51 41.55 68.71 41.4C68.81 41.33 68.91 41.25 69.01 41.16C69.11 41.08 69.21 40.99 69.31 40.91C69.41 40.83 69.52 40.75 69.63 40.66C69.74 40.59 69.83 40.48 69.94 40.39C70.14 40.2 70.37 40.03 70.57 39.84C70.77 39.64 70.97 39.44 71.18 39.26C71.4 39.08 71.57 38.86 71.76 38.68C71.95 38.49 72.16 38.31 72.31 38.13C72.48 37.95 72.65 37.78 72.81 37.63C72.98 37.48 73.12 37.31 73.25 37.17C73.38 37.03 73.51 36.92 73.61 36.82C73.81 36.63 73.95 36.53 73.95 36.53L73.96 36.52Z" fill="#221C12"/>
<path d="M67.4399 43.31C67.4399 43.31 67.5099 43.21 67.6499 43.06C67.7899 42.9 67.9899 42.7 68.2599 42.5C68.5199 42.3 68.8699 42.08 69.1999 41.89C69.3699 41.8 69.5599 41.71 69.7299 41.62C69.8999 41.53 70.0899 41.45 70.2599 41.37C70.4299 41.29 70.5999 41.2 70.7699 41.13C70.9399 41.06 71.0899 40.96 71.2599 40.89C71.3399 40.86 71.4199 40.82 71.4999 40.79C71.5799 40.75 71.6499 40.71 71.7199 40.67C71.8699 40.59 72.0199 40.52 72.1599 40.46C72.3099 40.4 72.4299 40.32 72.5499 40.26C72.6699 40.2 72.7799 40.16 72.8799 40.11C73.0699 40.03 73.1899 39.99 73.1899 39.99C73.1899 39.99 73.1799 40.11 73.1299 40.31C73.0999 40.41 73.0699 40.53 73.0199 40.67C72.9699 40.81 72.9199 40.96 72.8299 41.12C72.7399 41.27 72.6299 41.43 72.5099 41.59C72.4499 41.67 72.3799 41.76 72.3199 41.84C72.2499 41.92 72.1599 41.99 72.0799 42.07C71.9999 42.14 71.9099 42.22 71.8199 42.29C71.7299 42.36 71.6399 42.45 71.5399 42.5C71.3499 42.63 71.1399 42.73 70.9299 42.85C70.7199 42.94 70.5099 43.02 70.2999 43.09C70.0899 43.17 69.8899 43.21 69.6799 43.25C69.2699 43.33 68.9199 43.37 68.5799 43.38C68.4199 43.38 68.2599 43.39 68.1199 43.38C67.9799 43.38 67.8599 43.37 67.7499 43.36C67.5399 43.34 67.4199 43.32 67.4199 43.32L67.4399 43.31Z" fill="#221C12"/>
<path d="M66.73 42.17C66.73 42.17 66.79 42.07 66.9 41.91C66.96 41.83 67.02 41.7301 67.11 41.6401C67.19 41.5401 67.3 41.4401 67.37 41.3201C67.45 41.2001 67.54 41.08 67.63 40.97C67.73 40.87 67.81 40.72 67.91 40.6C68.01 40.47 68.12 40.3601 68.21 40.2101C68.3 40.0701 68.41 39.9501 68.52 39.8101C68.62 39.6701 68.72 39.5301 68.83 39.4001C68.94 39.2701 69.04 39.1201 69.15 38.9901C69.26 38.8601 69.37 38.74 69.47 38.61C69.58 38.48 69.68 38.3701 69.79 38.2601C69.9 38.1501 70 38.05 70.09 37.97C70.18 37.88 70.27 37.8101 70.34 37.7501C70.49 37.6201 70.59 37.5601 70.59 37.5601C70.59 37.5601 70.62 37.6801 70.64 37.8701C70.66 38.0601 70.69 38.3401 70.65 38.6501C70.63 38.8101 70.61 38.9701 70.57 39.1501C70.54 39.3301 70.48 39.5101 70.41 39.7001C70.38 39.7901 70.34 39.89 70.3 39.98C70.27 40.08 70.22 40.1701 70.16 40.2601C70.06 40.4501 69.93 40.62 69.82 40.8C69.68 40.97 69.53 41.1301 69.37 41.2801C69.23 41.4401 69.04 41.55 68.87 41.67C68.69 41.78 68.54 41.8901 68.34 41.9601C68.15 42.0301 67.98 42.0901 67.82 42.1401C67.66 42.1901 67.52 42.1901 67.39 42.2001C67.26 42.2001 67.14 42.2001 67.05 42.2001C66.86 42.2001 66.74 42.17 66.74 42.17H66.73Z" fill="#221C12"/>
<path d="M67.49 43.58C67.49 43.58 67.64 43.5199 67.9 43.4299C68.03 43.3899 68.19 43.34 68.36 43.27C68.53 43.2 68.71 43.1499 68.9 43.0599C69.1 42.9799 69.31 42.8999 69.52 42.7999C69.74 42.7199 69.95 42.5899 70.17 42.4899C70.39 42.3599 70.61 42.2499 70.83 42.1099C71.05 41.9799 71.27 41.8299 71.49 41.6799C71.71 41.5199 71.93 41.37 72.14 41.21C72.36 41.04 72.57 40.8799 72.77 40.7299C72.97 40.5599 73.18 40.4099 73.37 40.2499C73.57 40.0999 73.76 39.9499 73.93 39.8199C74.29 39.5599 74.6 39.3399 74.83 39.1899C75.06 39.0399 75.2 38.96 75.2 38.96C75.2 38.96 75.08 39.5999 74.65 40.4299C74.55 40.6399 74.42 40.86 74.28 41.08C74.14 41.31 73.96 41.5299 73.78 41.7599C73.59 41.9799 73.39 42.2199 73.15 42.4199C72.93 42.6399 72.66 42.83 72.41 43.03C72.13 43.21 71.86 43.3799 71.56 43.5099L71.34 43.6099L71.11 43.6899C70.96 43.7399 70.82 43.8 70.66 43.84C70.36 43.91 70.07 43.9799 69.79 43.9899C69.51 44.0199 69.25 44.0099 69 43.9899C68.76 43.9899 68.53 43.93 68.34 43.89C68.15 43.85 67.99 43.7899 67.87 43.7399C67.61 43.6499 67.47 43.5699 67.47 43.5699L67.49 43.58Z" fill="#221C12"/>
<path d="M74.4999 44.6099C74.4999 44.6099 74.4499 44.7299 74.3499 44.8899C74.2999 44.9799 74.2299 45.0799 74.1399 45.1799C74.0499 45.2999 73.9399 45.4 73.8099 45.52C73.6799 45.64 73.5299 45.74 73.3699 45.84C73.2099 45.95 73.0199 46.0399 72.8299 46.1199C72.6399 46.1999 72.4299 46.2799 72.2199 46.3199C72.0099 46.3799 71.7799 46.3999 71.5599 46.4399C71.3299 46.4399 71.1099 46.4699 70.8799 46.4399C70.6599 46.4299 70.4399 46.39 70.2299 46.34C70.0199 46.29 69.8199 46.2099 69.6399 46.1299C69.4599 46.0399 69.2899 45.95 69.1499 45.84C69.0099 45.74 68.8799 45.63 68.7899 45.52C68.6899 45.42 68.6199 45.3199 68.5699 45.2199C68.4599 45.0399 68.4299 44.9299 68.4299 44.9299C68.4299 44.9299 68.5599 44.9299 68.7499 44.9399C68.8399 44.9499 68.9599 44.9399 69.0799 44.9399C69.1999 44.9399 69.3399 44.9399 69.4799 44.9399C69.6199 44.9399 69.7699 44.9199 69.9199 44.9199C70.0799 44.9099 70.2399 44.8999 70.3999 44.8899C70.4799 44.8799 70.5699 44.8799 70.6499 44.8699C70.7299 44.8599 70.8199 44.8499 70.9099 44.8499C71.0799 44.8399 71.2599 44.8199 71.4299 44.8099C71.6099 44.7999 71.7799 44.78 71.9599 44.77C72.1399 44.76 72.3099 44.7399 72.4799 44.7299C72.8199 44.6999 73.1499 44.6799 73.4499 44.6599C73.5999 44.6599 73.7399 44.6399 73.8599 44.6399C73.9799 44.6399 74.0999 44.6399 74.1999 44.6199C74.3999 44.5999 74.5199 44.6099 74.5199 44.6099H74.4999Z" fill="#221C12"/>
<path d="M68.09 44.18C68.09 44.18 68.22 44.15 68.44 44.13C68.55 44.13 68.69 44.1 68.82 44.08C68.96 44.06 69.1 44.04 69.27 44.01C69.35 44 69.43 43.98 69.52 43.97C69.61 43.95 69.69 43.93 69.78 43.92C69.96 43.9 70.14 43.83 70.32 43.8C70.5 43.74 70.69 43.71 70.88 43.64C71.07 43.59 71.25 43.51 71.44 43.45C71.63 43.38 71.81 43.31 72 43.23C72.19 43.15 72.37 43.07 72.55 43C72.72 42.91 72.91 42.84 73.07 42.76C73.24 42.68 73.4 42.6 73.55 42.53C73.87 42.38 74.14 42.25 74.33 42.16C74.53 42.07 74.66 42.02 74.66 42.02C74.66 42.02 74.64 42.15 74.58 42.37C74.55 42.48 74.51 42.61 74.44 42.75C74.38 42.9 74.3 43.05 74.2 43.22C74.15 43.3 74.09 43.39 74.03 43.47C73.97 43.55 73.9 43.63 73.83 43.72C73.69 43.89 73.51 44.05 73.33 44.21C73.14 44.36 72.94 44.52 72.71 44.64C72.49 44.78 72.24 44.88 72 44.98C71.74 45.06 71.49 45.14 71.23 45.18C70.97 45.23 70.71 45.23 70.46 45.23C70.21 45.21 69.97 45.2 69.75 45.14C69.64 45.11 69.53 45.09 69.43 45.06C69.33 45.02 69.23 44.99 69.14 44.95C68.96 44.88 68.8 44.78 68.66 44.7C68.59 44.65 68.53 44.62 68.47 44.57C68.42 44.52 68.37 44.48 68.33 44.44C68.17 44.29 68.08 44.19 68.08 44.19L68.09 44.18Z" fill="#221C12"/>
<path d="M69.34 46.08C69.34 46.08 69.48 46.08 69.7 46.11C69.81 46.13 69.94 46.13 70.08 46.14C70.21 46.15 70.37 46.15 70.54 46.16C70.7 46.18 70.89 46.16 71.07 46.18C71.25 46.18 71.44 46.18 71.64 46.18C71.74 46.18 71.84 46.18 71.94 46.18C72.04 46.18 72.14 46.18 72.25 46.18C72.46 46.18 72.66 46.17 72.87 46.18C73.08 46.17 73.29 46.17 73.49 46.16C73.59 46.16 73.7 46.16 73.8 46.15C73.9 46.15 74 46.14 74.1 46.14C74.3 46.14 74.5 46.12 74.68 46.11C74.86 46.09 75.05 46.1 75.21 46.08C75.38 46.07 75.54 46.06 75.68 46.05C75.82 46.04 75.96 46.04 76.06 46.02C76.27 45.99 76.41 45.99 76.41 45.99C76.41 45.99 76.35 46.11 76.22 46.3C76.16 46.4 76.06 46.5 75.95 46.61C75.84 46.73 75.7 46.84 75.55 46.96C75.4 47.09 75.21 47.18 75.02 47.29C74.82 47.39 74.61 47.49 74.38 47.56C74.15 47.63 73.91 47.7 73.66 47.74C73.41 47.79 73.16 47.8 72.9 47.82C72.64 47.81 72.39 47.82 72.14 47.78C71.89 47.76 71.65 47.7 71.41 47.63C71.18 47.57 70.96 47.48 70.76 47.39C70.56 47.29 70.37 47.19 70.21 47.07C70.05 46.96 69.91 46.85 69.79 46.72C69.67 46.6 69.58 46.5 69.52 46.41C69.4 46.22 69.34 46.11 69.34 46.11V46.08Z" fill="#221C12"/>
<path d="M69.1699 46.8401C69.1699 46.8401 69.3199 46.85 69.5699 46.91C69.6899 46.93 69.8399 46.9601 70.0099 47.0001C70.1699 47.0401 70.3499 47.0801 70.5499 47.1201C70.9299 47.2101 71.3699 47.3201 71.8499 47.4301C72.0799 47.4801 72.3199 47.5301 72.5599 47.5901C72.7999 47.6401 73.0399 47.6801 73.2799 47.7401C73.5199 47.7801 73.7599 47.82 73.9999 47.86C74.2399 47.9 74.4699 47.9201 74.6999 47.9501C74.9299 47.9601 75.1499 48.0001 75.3699 48.0001C75.4799 48.0101 75.5799 48.0201 75.6899 48.0201C75.7899 48.0201 75.8899 48.0201 75.9899 48.0201C76.1899 48.0301 76.3699 48.0201 76.5299 48.0301C76.6999 48.0301 76.8499 48.0401 76.9699 48.0301C77.2199 48.0301 77.3699 48.0301 77.3699 48.0301C77.3699 48.0301 77.2799 48.1501 77.0899 48.3201C76.9999 48.4101 76.8799 48.52 76.7299 48.61C76.5799 48.71 76.4099 48.83 76.2099 48.92C76.1099 48.97 75.9999 49.0201 75.8899 49.0701C75.7799 49.1101 75.6599 49.1501 75.5399 49.1901C75.2899 49.2701 75.0299 49.3201 74.7499 49.3701C74.4699 49.3901 74.1799 49.43 73.8899 49.41C73.5899 49.41 73.2999 49.3601 72.9999 49.3201C72.7099 49.2501 72.4199 49.1901 72.1499 49.0901C71.8699 49.0101 71.6099 48.8801 71.3699 48.7701C71.1299 48.6401 70.8999 48.5201 70.6899 48.3701C70.4799 48.2301 70.2999 48.0901 70.1299 47.9401C69.7999 47.6601 69.5499 47.37 69.4099 47.17C69.2599 46.96 69.1799 46.8301 69.1799 46.8301L69.1699 46.8401Z" fill="#221C12"/>
<path d="M30.19 51.43C30.19 51.43 32.87 44.79 34.71 40.86C35.4 39.39 35.92 38.24 36.05 37.87C36.51 36.5 35.73 34.94 34.52 33.23C33.32 31.52 29.9 26.68 29.49 25.89C29.08 25.1 28.43 24.87 27.55 24.69C27.26 24.63 26.41 25.21 25.39 26.37L25.36 26.39C25.09 26.71 24.79 27.08 24.49 27.48C24.4 27.63 24.32 27.74 24.25 27.83C22.53 30.29 19.91 34.78 19.47 39.61C18.13 54.37 30.18 51.42 30.18 51.42L30.19 51.43Z" fill="#ECE5D6"/>
<path d="M27.72 36.6C27.72 36.6 27.72 36.77 27.77 37.05C27.79 37.19 27.82 37.36 27.86 37.54C27.9 37.73 27.94 37.94 28.04 38.16C28.13 38.39 28.23 38.63 28.35 38.89C28.46 39.16 28.62 39.39 28.79 39.65C28.87 39.78 28.96 39.9 29.05 40.04L29.19 40.23L29.35 40.41C29.56 40.65 29.79 40.88 30.02 41.12C30.27 41.33 30.53 41.53 30.79 41.72C31.04 41.92 31.33 42.06 31.6 42.2C31.74 42.27 31.87 42.34 32.01 42.4C32.14 42.46 32.27 42.52 32.41 42.56C32.68 42.64 32.94 42.71 33.17 42.77C33.29 42.79 33.4 42.83 33.51 42.84C33.62 42.84 33.73 42.85 33.83 42.86C34.03 42.87 34.2 42.87 34.34 42.87C34.62 42.87 34.79 42.85 34.79 42.85C34.79 42.85 34.66 42.73 34.44 42.56C34.33 42.48 34.2 42.37 34.05 42.27C33.9 42.17 33.73 42.05 33.55 41.9C33.37 41.76 33.18 41.62 32.98 41.47C32.88 41.4 32.78 41.32 32.68 41.24C32.58 41.15 32.48 41.07 32.38 40.99C32.28 40.91 32.17 40.83 32.06 40.75C31.95 40.67 31.86 40.56 31.75 40.48C31.55 40.29 31.32 40.12 31.12 39.93C30.92 39.73 30.72 39.53 30.51 39.35C30.29 39.17 30.13 38.95 29.93 38.77C29.74 38.58 29.53 38.41 29.38 38.22C29.21 38.04 29.04 37.87 28.88 37.72C28.71 37.57 28.57 37.4 28.44 37.27C28.31 37.13 28.18 37.01 28.08 36.91C27.88 36.72 27.74 36.62 27.74 36.62L27.72 36.6Z" fill="#221C12"/>
<path d="M34.23 43.3901C34.23 43.3901 34.16 43.2901 34.02 43.1401C33.88 42.9901 33.68 42.7801 33.41 42.5801C33.15 42.3801 32.8 42.16 32.47 41.98C32.3 41.88 32.11 41.8001 31.94 41.7101C31.77 41.6201 31.58 41.5401 31.41 41.4601C31.24 41.3801 31.07 41.29 30.9 41.22C30.73 41.15 30.58 41.05 30.41 40.98C30.33 40.95 30.25 40.9101 30.17 40.8801C30.09 40.8401 30.02 40.8001 29.95 40.7601C29.8 40.6801 29.65 40.61 29.51 40.55C29.36 40.49 29.24 40.41 29.12 40.35C29 40.29 28.89 40.2401 28.79 40.2001C28.6 40.1201 28.48 40.0801 28.48 40.0801C28.48 40.0801 28.49 40.2101 28.54 40.4001C28.57 40.5001 28.6 40.6201 28.65 40.7601C28.7 40.9001 28.75 41.0501 28.84 41.2101C28.93 41.3601 29.04 41.5201 29.16 41.6901C29.22 41.7701 29.29 41.8501 29.35 41.9401C29.42 42.0101 29.51 42.09 29.59 42.16C29.67 42.23 29.76 42.3101 29.85 42.3801C29.94 42.4501 30.03 42.5301 30.13 42.5901C30.33 42.7101 30.53 42.8201 30.74 42.9301C30.95 43.0201 31.16 43.1 31.37 43.17C31.58 43.25 31.78 43.2901 31.99 43.3301C32.4 43.4101 32.75 43.4501 33.09 43.4601C33.25 43.4601 33.41 43.4701 33.55 43.4601C33.69 43.4601 33.81 43.4501 33.92 43.4401C34.13 43.4201 34.25 43.3901 34.25 43.3901H34.23Z" fill="#221C12"/>
<path d="M34.94 42.25C34.94 42.25 34.88 42.15 34.77 41.99C34.71 41.91 34.65 41.82 34.56 41.72C34.48 41.62 34.37 41.52 34.3 41.4C34.22 41.28 34.13 41.17 34.04 41.05C33.94 40.95 33.86 40.8 33.76 40.68C33.66 40.55 33.55 40.44 33.46 40.29C33.37 40.15 33.26 40.03 33.15 39.89C33.05 39.75 32.95 39.61 32.84 39.48C32.73 39.35 32.63 39.2 32.52 39.07C32.41 38.93 32.3 38.82 32.2 38.69C32.09 38.56 31.99 38.45 31.88 38.34C31.77 38.23 31.67 38.13 31.58 38.05C31.49 37.96 31.4 37.89 31.33 37.83C31.18 37.71 31.08 37.64 31.08 37.64C31.08 37.64 31.05 37.76 31.03 37.95C31.01 38.14 30.98 38.42 31.02 38.73C31.04 38.89 31.06 39.06 31.1 39.23C31.13 39.41 31.19 39.59 31.26 39.78C31.29 39.87 31.33 39.97 31.37 40.06C31.41 40.16 31.45 40.25 31.51 40.34C31.61 40.53 31.74 40.71 31.85 40.89C31.99 41.06 32.14 41.22 32.3 41.37C32.44 41.53 32.63 41.64 32.8 41.76C32.97 41.87 33.13 41.98 33.33 42.05C33.52 42.12 33.69 42.18 33.85 42.23C34.01 42.28 34.15 42.28 34.28 42.29C34.41 42.29 34.53 42.29 34.62 42.29C34.81 42.29 34.93 42.26 34.93 42.26L34.94 42.25Z" fill="#221C12"/>
<path d="M34.18 43.66C34.18 43.66 34.03 43.5901 33.77 43.5101C33.64 43.4701 33.48 43.42 33.31 43.35C33.14 43.28 32.96 43.2301 32.77 43.1401C32.57 43.0601 32.36 42.9801 32.15 42.8801C31.93 42.7901 31.72 42.6701 31.5 42.5701C31.28 42.4401 31.06 42.3401 30.84 42.1901C30.62 42.0601 30.4 41.9101 30.18 41.7601C29.96 41.6001 29.74 41.46 29.53 41.29C29.31 41.12 29.1 40.9601 28.9 40.8101C28.7 40.6401 28.49 40.4901 28.3 40.3301C28.1 40.1801 27.91 40.0301 27.74 39.9001C27.38 39.6301 27.07 39.4101 26.84 39.2601C26.61 39.1101 26.47 39.04 26.47 39.04C26.47 39.04 26.59 39.6801 27.02 40.5001C27.12 40.7101 27.25 40.9301 27.4 41.1501C27.54 41.3801 27.72 41.6001 27.9 41.8301C28.09 42.0501 28.29 42.2901 28.53 42.4901C28.75 42.7101 29.02 42.9 29.27 43.1C29.55 43.28 29.82 43.4501 30.12 43.5801L30.34 43.6801L30.57 43.7601C30.72 43.8101 30.86 43.87 31.02 43.91C31.32 43.98 31.61 44.0501 31.89 44.0601C32.17 44.0901 32.43 44.0801 32.68 44.0601C32.92 44.0601 33.15 44.0001 33.34 43.9601C33.54 43.9301 33.69 43.8601 33.81 43.8101C34.07 43.7101 34.21 43.6401 34.21 43.6401L34.18 43.66Z" fill="#221C12"/>
<path d="M27.17 44.6899C27.17 44.6899 27.22 44.7999 27.32 44.9699C27.37 45.0499 27.44 45.1599 27.53 45.2599C27.62 45.3699 27.73 45.48 27.86 45.59C27.99 45.71 28.14 45.8099 28.3 45.9199C28.46 46.0199 28.64 46.11 28.84 46.2C29.03 46.28 29.24 46.36 29.45 46.4C29.66 46.46 29.89 46.48 30.11 46.52C30.34 46.52 30.56 46.55 30.79 46.52C31.01 46.51 31.23 46.4699 31.44 46.4199C31.65 46.3699 31.85 46.29 32.03 46.21C32.21 46.12 32.38 46.0299 32.52 45.9199C32.66 45.8099 32.79 45.7099 32.88 45.5999C32.98 45.4999 33.05 45.3999 33.1 45.3099C33.21 45.1299 33.24 45.02 33.24 45.02C33.24 45.02 33.11 45.02 32.92 45.03C32.83 45.04 32.71 45.03 32.59 45.03C32.47 45.04 32.33 45.03 32.19 45.03C32.05 45.03 31.9 45.01 31.75 45.02C31.59 45 31.44 44.9999 31.27 44.9899C31.19 44.9799 31.1 44.9799 31.02 44.9699C30.94 44.9599 30.85 44.95 30.76 44.95C30.59 44.94 30.41 44.9199 30.24 44.9099C30.06 44.8999 29.89 44.8799 29.71 44.8699C29.53 44.8599 29.36 44.84 29.19 44.83C28.85 44.8 28.52 44.7799 28.22 44.7599C28.07 44.7599 27.93 44.7499 27.81 44.7399C27.69 44.7299 27.57 44.7399 27.47 44.7199C27.27 44.6999 27.15 44.71 27.15 44.71L27.17 44.6899Z" fill="#221C12"/>
<path d="M33.58 44.2601C33.58 44.2601 33.45 44.2301 33.23 44.2101C33.12 44.2101 32.98 44.19 32.85 44.16C32.71 44.14 32.57 44.1201 32.4 44.0901C32.32 44.0801 32.24 44.07 32.15 44.05C32.06 44.03 31.98 44.0101 31.89 43.9901C31.71 43.9701 31.53 43.9001 31.35 43.8701C31.17 43.8101 30.98 43.7701 30.79 43.7101C30.6 43.6601 30.42 43.5801 30.23 43.5201C30.04 43.4501 29.86 43.38 29.67 43.3C29.48 43.22 29.3 43.1401 29.12 43.0701C28.95 42.9801 28.76 42.9101 28.6 42.8301C28.43 42.7501 28.27 42.67 28.12 42.6C27.8 42.44 27.53 42.32 27.34 42.23C27.14 42.14 27.01 42.0901 27.01 42.0901C27.01 42.0901 27.03 42.2201 27.09 42.4401C27.12 42.5501 27.16 42.6801 27.23 42.8301C27.29 42.9701 27.37 43.13 27.47 43.29C27.52 43.37 27.58 43.46 27.64 43.54C27.7 43.62 27.77 43.7 27.84 43.79C27.98 43.97 28.16 44.1201 28.34 44.2801C28.53 44.4301 28.73 44.5901 28.96 44.7101C29.18 44.8501 29.43 44.94 29.67 45.05C29.93 45.13 30.18 45.2101 30.44 45.2501C30.7 45.3001 30.96 45.3 31.21 45.3C31.46 45.28 31.7 45.2701 31.92 45.2101C32.03 45.1801 32.14 45.1601 32.24 45.1301C32.34 45.0901 32.44 45.0601 32.53 45.0201C32.71 44.9501 32.87 44.8501 33.01 44.7701C33.08 44.7201 33.14 44.6901 33.2 44.6401C33.25 44.5901 33.29 44.5501 33.34 44.5101C33.5 44.3601 33.59 44.2601 33.59 44.2601H33.58Z" fill="#221C12"/>
<path d="M32.33 46.16C32.33 46.16 32.19 46.1601 31.97 46.1901C31.86 46.2101 31.73 46.21 31.59 46.22C31.46 46.23 31.3 46.2301 31.13 46.2401C30.97 46.2601 30.78 46.2401 30.6 46.2601C30.42 46.2601 30.23 46.2601 30.03 46.2601C29.93 46.2601 29.83 46.2601 29.73 46.2601C29.63 46.2601 29.53 46.2601 29.42 46.2601C29.22 46.2601 29.01 46.2501 28.8 46.2501C28.59 46.2401 28.38 46.24 28.18 46.23C28.08 46.23 27.97 46.23 27.87 46.23C27.77 46.23 27.67 46.2101 27.57 46.2101C27.37 46.2101 27.17 46.1901 26.99 46.1901C26.81 46.1701 26.62 46.18 26.46 46.16C26.29 46.15 26.13 46.1401 25.99 46.1301C25.85 46.1101 25.71 46.12 25.61 46.1C25.4 46.08 25.26 46.0701 25.26 46.0701C25.26 46.0701 25.32 46.1901 25.45 46.3801C25.51 46.4801 25.61 46.5801 25.72 46.6901C25.83 46.8101 25.97 46.92 26.12 47.04C26.27 47.17 26.46 47.2601 26.65 47.3701C26.85 47.4601 27.06 47.5601 27.29 47.6301C27.52 47.7001 27.76 47.7701 28.01 47.8101C28.26 47.8601 28.51 47.8701 28.77 47.8901C29.03 47.8801 29.28 47.89 29.53 47.85C29.78 47.83 30.02 47.7701 30.26 47.7001C30.49 47.6401 30.71 47.5501 30.91 47.4601C31.11 47.3501 31.3 47.2601 31.46 47.1401C31.62 47.0301 31.76 46.92 31.88 46.79C32 46.67 32.09 46.57 32.15 46.48C32.27 46.3 32.34 46.1801 32.34 46.1801L32.33 46.16Z" fill="#221C12"/>
<path d="M32.4999 46.9199C32.4999 46.9199 32.3499 46.9399 32.0999 46.9899C31.9799 47.0199 31.8299 47.04 31.6599 47.08C31.4999 47.11 31.3199 47.15 31.1199 47.2C30.7399 47.29 30.2999 47.3999 29.8199 47.5099C29.5899 47.5599 29.3499 47.6099 29.1099 47.6699C28.8699 47.7299 28.6299 47.7699 28.3899 47.8199C28.1499 47.8599 27.9099 47.8999 27.6699 47.9399C27.4299 47.9799 27.1999 48 26.9699 48.03C26.7399 48.04 26.5199 48.08 26.2999 48.08C26.1899 48.08 26.0799 48.0899 25.9799 48.0999C25.8799 48.0999 25.7799 48.0999 25.6799 48.0999C25.4799 48.1099 25.2999 48.0999 25.1399 48.1099C24.9699 48.1099 24.8199 48.1199 24.6999 48.1099C24.4499 48.1099 24.2999 48.1099 24.2999 48.1099C24.2999 48.1099 24.3899 48.23 24.5799 48.4C24.6699 48.49 24.7899 48.6 24.9399 48.7C25.0899 48.8 25.2599 48.9199 25.4599 49.0099C25.5599 49.0599 25.6699 49.0999 25.7799 49.1599C25.8899 49.1999 26.0099 49.24 26.1299 49.28C26.3799 49.36 26.6399 49.41 26.9199 49.46C27.1999 49.48 27.4899 49.5199 27.7899 49.4999C28.0899 49.4999 28.3799 49.4499 28.6799 49.4099C28.9699 49.3399 29.2599 49.2799 29.5299 49.1799C29.8099 49.0999 30.0699 48.9699 30.3099 48.8599C30.5499 48.7299 30.7799 48.61 30.9899 48.46C31.1999 48.32 31.3799 48.18 31.5499 48.03C31.8799 47.75 32.1299 47.4599 32.2699 47.2599C32.4199 47.0599 32.4999 46.9199 32.4999 46.9199Z" fill="#221C12"/>
<path d="M25.4 26.37C26.94 24.95 28.34 25.58 28.84 26.97C29.44 28.64 31.17 31.77 32.73 34.51C34.96 38.42 33.52 40.71 33.4 42.8C34.09 41.33 36.06 38.56 36.18 38.19C36.64 36.82 35.72 34.95 34.52 33.24C33.32 31.53 29.9 26.69 29.49 25.9C29.08 25.11 28.43 24.88 27.55 24.7C27.26 24.64 26.41 25.22 25.39 26.38L25.4 26.37Z" fill="#443B27"/>
<path d="M74.1399 58.54C74.1399 58.87 74.1299 59.19 74.0999 59.51C74.0999 59.63 74.0799 59.75 74.0599 59.87C72.9499 69.51 59.9299 77.15 51.1299 77.31C51.0299 77.31 50.9399 77.31 50.8399 77.31C43.2699 77.31 28.8999 69.64 27.6399 59.91C27.5799 59.46 27.5499 59 27.5499 58.54C27.5499 49.4 31.1899 42.47 35.0699 38.95C38.0999 36.19 42.6699 34.51 50.8399 34.51C58.5299 34.51 63.5399 36.24 66.6099 38.95C70.5399 42.43 74.1299 49.4 74.1299 58.54" fill="#8C6E4C"/>
<path d="M50.85 77.31C47.39 77.31 42.22 75.23 37.99 72.13C33.14 68.58 30.07 64.17 29.58 60.04C29.53 59.63 29.5 59.22 29.5 58.8C29.5 50.52 34.74 40.51 36.43 38.86C37.71 37.61 44.28 34.5 50.83 34.5C57.01 34.5 63.88 37.57 65.25 38.88C66.99 40.55 72.17 50.54 72.17 58.8C72.17 59.1 72.16 59.4 72.14 59.7C72.14 59.81 72.12 59.92 72.11 60.03C71.1 69.66 58.66 77.16 51.09 77.31H51.13H50.84" fill="#9B795A"/>
<path d="M31.91 54.9701C31.91 54.9701 36.41 64.2801 40.27 64.2801C43.22 64.2801 46.91 62.7701 46.91 62.7701C46.91 62.7701 48.48 47.2701 39.92 46.7701C36.07 46.5501 31.9 54.9801 31.9 54.9801" fill="#DDD1BB"/>
<path d="M69.87 54.9701C69.87 54.9701 65.37 64.2801 61.51 64.2801C58.56 64.2801 54.87 62.7701 54.87 62.7701C54.87 62.7701 53.3 47.2701 61.86 46.7701C65.71 46.5501 69.88 54.9801 69.88 54.9801" fill="#DDD1BB"/>
<path d="M64.88 68.1299C64.75 64.2799 56.47 64.7199 55.59 62.7599C54.49 60.3199 54.97 57.7299 55.63 55.8799C56.31 53.9999 56.04 51.9099 54.91 50.2599C54.17 49.1899 53.41 48.2099 53.03 48.0999C52.14 47.8199 48.93 47.8199 48.04 48.0999C47.66 48.2199 46.91 49.1899 46.16 50.2599C45.02 51.8999 44.76 53.9999 45.44 55.8799C46.1 57.7299 46.58 60.3099 45.48 62.7599C44.6 64.7199 36.32 64.2699 36.19 68.1299C36.07 71.6199 39.69 76.8499 50.54 77.2799C61.39 76.8499 65.01 71.6199 64.89 68.1299" fill="#ECE5D6"/>
<path d="M36.0799 48.8C36.0799 48.8 36.0899 48.76 36.1299 48.7C36.1599 48.64 36.2099 48.53 36.2899 48.43C36.3599 48.31 36.4599 48.18 36.5799 48.03C36.7099 47.89 36.8499 47.72 37.0299 47.58C37.1199 47.5 37.2099 47.42 37.3099 47.34C37.4199 47.27 37.5299 47.19 37.6399 47.12C37.7499 47.04 37.8799 46.98 38.0099 46.91C38.1399 46.85 38.2699 46.77 38.4199 46.72C38.7099 46.62 39.0099 46.51 39.3299 46.47C39.6499 46.4 39.9799 46.4 40.3099 46.4C40.6399 46.4 40.9599 46.48 41.2799 46.53C41.5899 46.62 41.8799 46.73 42.1599 46.84C42.4299 46.98 42.6799 47.13 42.9099 47.27C43.1299 47.43 43.3199 47.6 43.4899 47.75C43.5799 47.83 43.6599 47.9 43.7299 47.97C43.7999 48.05 43.8599 48.13 43.9199 48.2C44.0399 48.35 44.1299 48.48 44.2099 48.59C44.3699 48.81 44.4399 48.94 44.4399 48.94C44.4399 48.94 44.2899 48.89 44.0399 48.79C43.9199 48.74 43.7699 48.68 43.6099 48.6C43.4499 48.52 43.2599 48.45 43.0599 48.38C42.8599 48.31 42.6499 48.21 42.4299 48.13C42.1999 48.07 41.9699 47.99 41.7299 47.91C41.4899 47.86 41.2399 47.81 40.9899 47.75C40.8599 47.74 40.7399 47.73 40.6099 47.71C40.4799 47.7 40.3599 47.67 40.2299 47.68C39.9799 47.68 39.7199 47.66 39.4699 47.7C39.3499 47.72 39.2199 47.7 39.0999 47.74C38.9799 47.76 38.8599 47.79 38.7299 47.8C38.6099 47.81 38.4899 47.86 38.3699 47.88C38.2499 47.91 38.1399 47.93 38.0299 47.97C37.8099 48.04 37.5899 48.11 37.3999 48.18C37.1999 48.24 37.0199 48.33 36.8599 48.39C36.7099 48.47 36.5499 48.52 36.4399 48.58C36.3199 48.64 36.2299 48.68 36.1599 48.71C36.0899 48.74 36.0599 48.76 36.0599 48.76L36.0799 48.8Z" fill="#221C12"/>
<path d="M65.54 48.7999C65.54 48.7999 65.5 48.7799 65.44 48.7499C65.38 48.7199 65.28 48.6799 65.16 48.6199C65.05 48.5599 64.89 48.5099 64.74 48.4299C64.57 48.3699 64.4 48.2799 64.2 48.2199C64.01 48.1399 63.79 48.0699 63.57 48.0099C63.46 47.9699 63.34 47.9499 63.23 47.9199C63.11 47.8999 63 47.85 62.87 47.84C62.75 47.82 62.63 47.8 62.5 47.78C62.38 47.75 62.25 47.7599 62.12 47.7399C61.87 47.6999 61.61 47.7199 61.36 47.7199C61.23 47.7099 61.11 47.7399 60.98 47.7499C60.85 47.7699 60.73 47.7699 60.6 47.7899C60.35 47.8499 60.1 47.9 59.86 47.95C59.63 48.03 59.39 48.0999 59.16 48.1699C58.94 48.2499 58.73 48.3499 58.53 48.4199C58.33 48.4899 58.14 48.56 57.98 48.64C57.82 48.72 57.67 48.78 57.55 48.83C57.31 48.93 57.15 48.9799 57.15 48.9799C57.15 48.9799 57.23 48.8399 57.38 48.6299C57.46 48.5199 57.55 48.3899 57.67 48.2399C57.73 48.1699 57.79 48.0799 57.86 48.0099C57.94 47.9399 58.02 47.8599 58.1 47.7899C58.28 47.6399 58.46 47.4599 58.69 47.3099C58.92 47.1699 59.17 47.0199 59.44 46.8799C59.72 46.7599 60.02 46.6599 60.32 46.5699C60.64 46.5199 60.96 46.4399 61.29 46.4399C61.62 46.4399 61.95 46.4399 62.27 46.5099C62.59 46.5499 62.89 46.6599 63.18 46.7599C63.32 46.8099 63.46 46.88 63.59 46.95C63.72 47.02 63.85 47.0799 63.96 47.1599C64.07 47.2399 64.18 47.3099 64.29 47.3799C64.39 47.4599 64.49 47.5399 64.57 47.6199C64.75 47.7699 64.89 47.9399 65.02 48.0699C65.14 48.2199 65.24 48.3499 65.31 48.4699C65.39 48.5799 65.43 48.6799 65.47 48.7399C65.5 48.7999 65.52 48.84 65.52 48.84L65.54 48.7999Z" fill="#221C12"/>
<path d="M46.9099 62.76C39.8099 66.15 34.8099 63.95 32.5599 55.18C32.5599 55.18 41.0999 48.55 45.6399 57.05C46.3399 58.37 46.9199 62.75 46.9199 62.75" fill="white"/>
<path d="M40.05 63.3201C38.08 63.2801 36.42 61.72 35.79 59.55C35.59 58.89 35.49 58.17 35.51 57.42C35.57 54.4 37.45 53.32 39.82 53.25C39.97 53.25 40.12 53.24 40.26 53.25C42.83 53.3 44.79 55.98 44.83 57.62C44.92 60.83 42.62 63.3801 40.05 63.3301" fill="#64413F"/>
<path d="M40.07 62.51C38.58 62.48 37.26 61.2 36.73 59.25C36.56 58.63 36.48 57.98 36.49 57.31C36.54 55.06 37.6 53.97 39.85 53.9C39.96 53.9 40.08 53.9 40.19 53.9H40.25C42.28 53.95 43.83 56.31 43.86 57.53C43.9 59 43.41 60.4 42.52 61.37C41.84 62.11 40.99 62.52 40.14 62.52H40.08" fill="#4F3231"/>
<path d="M54.84 62.76C61.94 66.15 66.94 63.95 69.19 55.18C69.19 55.18 60.65 48.55 56.11 57.05C55.41 58.37 54.83 62.75 54.83 62.75" fill="white"/>
<path d="M61.7 63.3201C63.67 63.2801 65.33 61.72 65.96 59.55C66.16 58.89 66.26 58.17 66.24 57.42C66.18 54.4 64.3 53.32 61.93 53.25C61.78 53.25 61.63 53.24 61.49 53.25C58.92 53.3 56.96 55.98 56.92 57.62C56.83 60.83 59.13 63.3801 61.7 63.3301" fill="#64413F"/>
<path d="M61.62 62.51C60.77 62.51 59.92 62.1 59.24 61.36C58.35 60.39 57.86 58.99 57.9 57.52C57.93 56.31 59.48 53.94 61.51 53.89H61.57C61.68 53.89 61.8 53.89 61.91 53.89C64.15 53.96 65.22 55.04 65.27 57.3C65.28 57.97 65.2 58.63 65.03 59.24C64.49 61.19 63.18 62.47 61.69 62.5H61.63" fill="#4F3231"/>
<path d="M40.36 56.21C40.32 58.15 39.02 59.7 37.46 59.67C36.75 59.65 36.12 59.32 35.64 58.78C35.47 58.2 35.38 57.57 35.4 56.91C35.46 54.26 37.1 53.32 39.17 53.26C39.92 53.91 40.39 55 40.37 56.21" fill="white"/>
<path d="M42.81 61.83C42.8 62.49 42.36 63.01 41.83 63C41.3 62.99 40.88 62.44 40.9 61.79C40.91 61.13 41.35 60.61 41.88 60.62C42.41 60.63 42.82 61.17 42.81 61.83Z" fill="white"/>
<path d="M61.5799 56.5001C61.5399 58.4401 60.2399 59.9901 58.6799 59.9601C57.9799 59.9501 57.3399 59.6101 56.8599 59.0701C56.6899 58.4901 56.5999 57.8501 56.6199 57.2001C56.6799 54.5501 58.3199 53.61 60.3899 53.55C61.1399 54.2 61.6099 55.2801 61.5799 56.5001Z" fill="white"/>
<path d="M64.22 61.83C64.21 62.49 63.77 63.01 63.24 63C62.71 62.99 62.29 62.44 62.31 61.79C62.32 61.13 62.76 60.61 63.29 60.62C63.82 60.63 64.23 61.17 64.22 61.83Z" fill="white"/>
<path d="M32.9999 56.7C32.8399 56.22 32.6999 55.71 32.5599 55.18C32.5599 55.18 35.7299 52.72 39.2399 52.72C41.2699 52.72 43.4199 53.55 45.1199 56.17C45.1199 56.17 45.1199 56.17 45.1199 56.18C43.4199 53.55 41.2699 52.72 39.2299 52.72C35.7299 52.72 32.5499 55.18 32.5499 55.18C32.6899 55.71 32.8299 56.22 32.9899 56.7" fill="#CABFAC"/>
<path d="M45.63 63.3199C46.05 63.1499 46.47 62.9699 46.91 62.7599C46.91 62.7599 46.34 58.3799 45.63 57.0599C45.46 56.7499 45.29 56.4599 45.12 56.1899C45.12 56.1899 45.12 56.1899 45.12 56.1799C45.3 56.4499 45.47 56.7499 45.64 57.0599C46.34 58.3799 46.91 62.7599 46.91 62.7599C46.48 62.9699 46.05 63.1599 45.63 63.3199Z" fill="#D6CEC2"/>
<path d="M45.6299 63.32C45.3999 62.07 45.0799 60.66 44.7399 60.01C44.6799 59.89 44.6099 59.77 44.5499 59.66C44.7499 59.03 44.8499 58.33 44.8299 57.61C44.7899 55.97 42.8299 53.29 40.2599 53.24H40.1899C40.0699 53.24 39.9399 53.24 39.8199 53.24C39.6099 53.24 39.4099 53.26 39.1999 53.28C39.1899 53.27 39.1699 53.26 39.1599 53.25C37.2899 53.31 35.7699 54.08 35.4499 56.17C34.5699 56.46 33.7799 56.83 33.1599 57.18C33.0999 57.02 33.0499 56.86 32.9999 56.7C32.8399 56.22 32.6999 55.71 32.5599 55.18C32.5599 55.18 35.7299 52.72 39.2399 52.72C41.2799 52.72 43.4299 53.55 45.1299 56.18C45.3099 56.45 45.4799 56.74 45.6399 57.05C46.3399 58.37 46.9199 62.75 46.9199 62.75C46.4899 62.96 46.0599 63.14 45.6399 63.31" fill="#E2E1E1"/>
<path d="M44.55 59.66C44.31 59.24 44.06 58.86 43.8 58.52C43.85 58.19 43.87 57.86 43.86 57.51C43.83 56.3 42.28 53.93 40.25 53.88H40.19C40.08 53.88 39.96 53.88 39.85 53.88C39.81 53.88 39.77 53.88 39.73 53.88C39.58 53.65 39.4 53.44 39.21 53.26C39.41 53.24 39.62 53.23 39.83 53.22C39.95 53.22 40.08 53.22 40.2 53.22H40.27C42.84 53.27 44.8 55.95 44.84 57.59C44.86 58.31 44.76 59.01 44.56 59.64" fill="#624341"/>
<path d="M43.79 58.52C42.74 57.14 41.56 56.36 40.35 55.98C40.33 55.19 40.09 54.47 39.72 53.9C39.76 53.9 39.8 53.9 39.84 53.9C39.95 53.9 40.07 53.9 40.18 53.9H40.24C42.27 53.95 43.82 56.31 43.85 57.53C43.85 57.87 43.84 58.21 43.79 58.54" fill="#513635"/>
<path d="M35.4499 56.18C35.7699 54.09 37.2899 53.32 39.1599 53.26C39.1699 53.27 39.1899 53.28 39.1999 53.29C39.3999 53.47 39.5699 53.67 39.7199 53.91C40.0999 54.48 40.3299 55.2 40.3499 55.99C39.6799 55.78 38.9999 55.69 38.3299 55.69C37.3199 55.69 36.3299 55.9 35.4399 56.19" fill="#E2E1E1"/>
<path d="M55.1 61.0499C55.33 59.6699 55.7 57.8299 56.11 57.0599C56.33 56.6499 56.55 56.28 56.78 55.95C56.55 56.29 56.33 56.6499 56.11 57.0499C55.7 57.8299 55.33 59.6599 55.1 61.0399" fill="#CABFAC"/>
<path d="M56.1 63.3201C55.69 63.1601 55.26 62.9701 54.83 62.7601C55.26 62.9701 55.68 63.1501 56.09 63.3101" fill="#D6CEC2"/>
<path d="M56.12 63.32C56.12 63.32 56.11 63.32 56.1 63.32C55.69 63.16 55.27 62.97 54.84 62.77C54.84 62.77 54.94 62.03 55.1 61.06C55.33 59.68 55.7 57.84 56.11 57.07C56.32 56.67 56.55 56.3 56.78 55.97C56.68 56.34 56.62 56.75 56.61 57.22C56.6 57.87 56.68 58.51 56.85 59.09C56.93 59.18 57.01 59.26 57.1 59.34C57.13 59.46 57.16 59.57 57.2 59.69C57.13 59.81 57.07 59.92 57.01 60.04C56.66 60.69 56.35 62.09 56.12 63.35" fill="#E2E1E1"/>
<path d="M57.2 59.66C57.16 59.55 57.13 59.4301 57.1 59.3101C57.17 59.3701 57.23 59.43 57.3 59.48C57.26 59.54 57.23 59.6 57.19 59.66" fill="#624341"/>
<path d="M58.9399 53.77C60.0999 53.01 61.3299 52.72 62.5199 52.72C61.3299 52.72 60.0999 53 58.9499 53.77" fill="#CABFAC"/>
<path d="M68.5899 57.18C67.9099 56.81 67.0499 56.4 66.0699 56.1C65.5599 54.07 63.9099 53.3 61.9299 53.24C61.8099 53.24 61.6799 53.24 61.5599 53.24H61.4899C60.9599 53.25 60.4599 53.37 59.9999 53.57C59.6299 53.6 59.2699 53.66 58.9399 53.77C60.0999 53.01 61.3199 52.72 62.5099 52.72C63.0399 52.72 63.5599 52.78 64.0599 52.87C66.8999 53.4 69.1899 55.18 69.1899 55.18C69.0799 55.6 68.9699 56.01 68.8499 56.4C68.7699 56.67 68.6799 56.93 68.5899 57.18Z" fill="#E2E1E1"/>
<path d="M66.07 56.11C65.74 56.01 65.39 55.92 65.03 55.85C64.61 54.58 63.59 53.96 61.9 53.9C61.79 53.9 61.67 53.9 61.56 53.9H61.5C61.26 53.9 61.02 53.94 60.8 54.01C60.67 53.84 60.53 53.69 60.38 53.56C60.25 53.56 60.12 53.57 60 53.58C60.46 53.38 60.96 53.26 61.49 53.25H61.56C61.68 53.25 61.81 53.25 61.93 53.25C63.92 53.31 65.56 54.08 66.07 56.11Z" fill="#624341"/>
<path d="M61.5499 55.93C61.4699 55.19 61.1999 54.52 60.7999 54C61.0299 53.93 61.2599 53.9 61.4999 53.89H61.5599C61.6699 53.89 61.7899 53.89 61.8999 53.89C63.5899 53.94 64.6099 54.57 65.0299 55.84C64.4999 55.74 63.9599 55.67 63.3999 55.67C62.7899 55.67 62.1599 55.74 61.5399 55.92" fill="#513635"/>
<path d="M57.3099 59.48C57.2399 59.43 57.1699 59.3801 57.1099 59.3101C57.0199 59.2301 56.9399 59.1501 56.8599 59.0601C56.6899 58.4801 56.5999 57.8401 56.6199 57.1901C56.6199 56.7201 56.6899 56.3101 56.7899 55.9401C57.4599 54.9701 58.1799 54.2601 58.9399 53.7601C59.2699 53.6601 59.6299 53.5901 59.9999 53.5601C60.1299 53.5501 60.2499 53.54 60.3799 53.54C60.5299 53.67 60.6799 53.8201 60.7999 53.9901C61.1999 54.5001 61.4699 55.17 61.5499 55.92C60.0299 56.36 58.5399 57.41 57.2999 59.47" fill="#E2E1E1"/>
<path d="M46.91 62.7601C46.82 62.3301 46.72 61.8901 46.63 61.4601C46.53 61.0301 46.44 60.5901 46.33 60.1701C46.23 59.7401 46.12 59.3101 45.99 58.8901C45.87 58.4601 45.73 58.0801 45.58 57.6701C45.49 57.4801 45.4 57.2401 45.3 57.1001L44.95 56.5601C44.7 56.2101 44.46 55.8601 44.17 55.5401C44.03 55.3801 43.89 55.2201 43.74 55.0801C43.59 54.9301 43.44 54.7901 43.27 54.6601C43.11 54.5201 42.95 54.3901 42.77 54.2801C42.6 54.1601 42.43 54.0501 42.24 53.9601C41.88 53.7501 41.5 53.6101 41.11 53.4901C40.72 53.3701 40.32 53.3001 39.91 53.2601C39.5 53.2301 39.09 53.2201 38.68 53.2701C38.27 53.3001 37.86 53.3801 37.45 53.4701C36.63 53.6601 35.84 53.9501 35.07 54.3201C34.69 54.5101 34.31 54.7101 33.95 54.9301C33.59 55.1401 33.22 55.3801 32.9 55.6201L33.1 55.0401L33.43 56.1901C33.53 56.5801 33.68 56.9401 33.81 57.3201C33.94 57.7001 34.08 58.0701 34.25 58.4201C34.42 58.7801 34.55 59.1501 34.76 59.4901C34.96 59.8201 35.11 60.1901 35.35 60.5001C35.58 60.8001 35.77 61.1601 36.05 61.4301C36.31 61.7101 36.55 62.0201 36.85 62.2501L37.28 62.6301L37.76 62.9401C38.07 63.1701 38.43 63.3001 38.78 63.4601C39.13 63.6201 39.51 63.6801 39.88 63.8101C40.26 63.8601 40.65 63.9401 41.04 63.9501C41.43 63.9501 41.83 63.9901 42.22 63.9401C42.61 63.8901 43.02 63.8901 43.41 63.7901C43.8 63.7001 44.21 63.6601 44.59 63.5301C44.98 63.4101 45.37 63.3201 45.75 63.1701L46.9 62.7601H46.91ZM46.91 62.7601L45.82 63.3301C45.46 63.5101 45.06 63.6401 44.68 63.8101C44.3 63.9801 43.9 64.0601 43.5 64.2001C43.11 64.3401 42.69 64.3801 42.28 64.4701C41.87 64.5701 41.44 64.5401 41.02 64.5901C40.6 64.6001 40.17 64.5501 39.75 64.5201C39.34 64.4201 38.9 64.3701 38.5 64.2101C38.1 64.0501 37.68 63.9201 37.32 63.6801L36.76 63.3601L36.25 62.9601C35.89 62.7101 35.61 62.3901 35.31 62.0801C34.99 61.7801 34.77 61.4101 34.51 61.0801C34.24 60.7501 34.06 60.3601 33.83 60.0101C33.6 59.6501 33.44 59.2601 33.25 58.8801C33.06 58.5001 32.91 58.1101 32.77 57.7201C32.63 57.3301 32.47 56.9401 32.36 56.5401L32 55.3401L31.9 54.9801L32.2 54.7501C32.59 54.4601 32.96 54.2101 33.37 53.9701C33.77 53.7401 34.17 53.5301 34.59 53.3301C35.42 52.9401 36.3 52.6301 37.21 52.4201C37.67 52.3201 38.13 52.2501 38.6 52.2301C39.07 52.1901 39.55 52.2201 40.02 52.2601C40.49 52.3201 40.96 52.4201 41.41 52.5701C41.64 52.6501 41.86 52.7301 42.07 52.8401C42.29 52.9401 42.5 53.0501 42.7 53.1801C42.91 53.3001 43.1 53.4401 43.29 53.5801C43.48 53.7101 43.66 53.8701 43.83 54.0301C44.01 54.1901 44.17 54.3501 44.32 54.5301C44.48 54.7001 44.63 54.8701 44.77 55.0601C45.06 55.4201 45.29 55.8201 45.53 56.2001L45.85 56.8001C45.98 57.0501 46.02 57.2301 46.11 57.4401C46.24 57.8701 46.36 58.3501 46.43 58.7801C46.51 59.2201 46.58 59.6601 46.64 60.1001C46.77 60.9801 46.86 61.8601 46.91 62.7501V62.7601Z" fill="#221C12"/>
<path d="M54.84 62.76C54.89 61.88 54.99 60.99 55.11 60.11C55.17 59.67 55.24 59.23 55.32 58.79C55.39 58.36 55.51 57.88 55.64 57.45C55.73 57.23 55.77 57.05 55.9 56.81L56.22 56.2101C56.46 55.8201 56.69 55.43 56.98 55.07C57.11 54.88 57.26 54.7 57.43 54.54C57.59 54.37 57.75 54.2 57.92 54.04C58.09 53.88 58.27 53.7201 58.46 53.5901C58.65 53.4401 58.84 53.31 59.04 53.19C59.24 53.06 59.45 52.95 59.67 52.85C59.88 52.74 60.11 52.66 60.33 52.58C60.78 52.42 61.25 52.33 61.72 52.27C62.19 52.22 62.67 52.2 63.14 52.24C63.61 52.26 64.08 52.33 64.53 52.43C65.44 52.64 66.32 52.9501 67.15 53.3401C67.57 53.5401 67.97 53.75 68.37 53.98C68.77 54.21 69.14 54.46 69.53 54.76L69.84 54.99L69.74 55.35L69.39 56.55C69.28 56.95 69.12 57.34 68.98 57.73C68.84 58.12 68.69 58.52 68.5 58.89C68.31 59.27 68.16 59.66 67.92 60.02C67.69 60.38 67.51 60.7601 67.24 61.0901C66.97 61.4301 66.76 61.7901 66.44 62.0901C66.14 62.4001 65.86 62.72 65.5 62.97L64.99 63.37L64.43 63.69C64.07 63.93 63.65 64.06 63.25 64.22C62.85 64.38 62.41 64.4201 62 64.5301C61.57 64.5501 61.15 64.61 60.73 64.6C60.31 64.56 59.88 64.58 59.47 64.48C59.06 64.39 58.64 64.3501 58.25 64.2101C57.86 64.0801 57.45 64 57.07 63.82C56.69 63.66 56.3 63.5301 55.93 63.3401L54.84 62.77V62.76ZM54.84 62.76L55.99 63.17C56.37 63.31 56.77 63.4101 57.15 63.5301C57.53 63.6601 57.94 63.7 58.33 63.79C58.72 63.89 59.13 63.89 59.52 63.94C59.91 63.99 60.31 63.94 60.7 63.95C61.09 63.93 61.48 63.86 61.86 63.81C62.23 63.68 62.61 63.6201 62.96 63.4601C63.31 63.3001 63.67 63.17 63.98 62.94L64.46 62.63L64.89 62.25C65.19 62.02 65.43 61.71 65.7 61.43C65.97 61.16 66.16 60.81 66.4 60.5C66.64 60.2 66.79 59.82 66.99 59.49C67.2 59.16 67.33 58.78 67.5 58.42C67.67 58.07 67.81 57.7 67.94 57.32C68.07 56.95 68.22 56.58 68.32 56.19L68.65 55.04L68.85 55.62C68.53 55.39 68.16 55.15 67.8 54.93C67.44 54.71 67.06 54.51 66.68 54.32C65.91 53.95 65.11 53.66 64.3 53.47C63.89 53.38 63.48 53.3 63.07 53.27C62.66 53.22 62.24 53.23 61.84 53.26C61.43 53.3 61.03 53.37 60.64 53.49C60.25 53.62 59.86 53.7601 59.51 53.9601C59.32 54.0501 59.15 54.1601 58.98 54.2801C58.8 54.3901 58.64 54.52 58.48 54.66C58.31 54.79 58.16 54.93 58.02 55.08C57.87 55.22 57.72 55.38 57.59 55.54C57.3 55.85 57.06 56.2 56.81 56.56L56.47 57.1C56.38 57.24 56.29 57.49 56.19 57.67C56.04 58.08 55.9 58.45 55.78 58.89C55.65 59.31 55.54 59.74 55.44 60.17C55.33 60.6 55.24 61.0301 55.14 61.4601C55.04 61.8901 54.95 62.32 54.86 62.76H54.84Z" fill="#221C12"/>
<path d="M60.1499 35.6199C60.1499 35.6199 59.8899 34.2499 55.7499 31.7499C55.7499 31.7499 56.6099 32.1299 56.1099 33.5399C56.1099 33.5399 55.0399 31.67 52.9699 30.46C52.9699 30.46 54.2499 32.31 54.1099 34.03C54.1099 34.03 50.9699 28.89 48.1899 27.96C48.1899 27.96 49.7599 30.0999 50.1899 32.0599C50.1899 32.0599 48.9799 29.8799 44.9099 30.8799C44.9099 30.8799 46.3399 30.52 48.4099 32.52C48.4099 32.52 42.4099 33.0899 42.8399 38.8699C42.8399 38.8699 43.7699 37.01 45.5499 36.52C45.5499 36.52 43.7899 40.92 46.3999 43.59C46.4699 43.66 46.5399 43.7299 46.6199 43.7999C46.6199 43.7999 45.6899 41.73 47.1199 39.59C47.1199 39.59 46.9199 41.6999 49.2199 43.9199C49.2799 43.9799 49.3399 44.04 49.3999 44.09C49.3999 44.09 47.5499 38.1 51.8299 36.39C56.1099 34.68 57.2999 36.6099 60.1499 35.6099V35.6199Z" fill="#673213"/>
<path d="M47.73 62.81C47.73 62.81 48.04 62.61 48.56 62.42C48.82 62.33 49.12 62.23 49.46 62.16C49.63 62.12 49.8 62.09 49.98 62.07C50.16 62.06 50.34 62.03 50.53 62.03C50.71 62.03 50.9 62.03 51.08 62.04C51.26 62.04 51.44 62.07 51.61 62.1C51.7 62.11 51.78 62.12 51.86 62.14C51.94 62.16 52.02 62.19 52.1 62.21C52.25 62.25 52.4 62.29 52.52 62.35C52.65 62.4 52.77 62.45 52.87 62.5C52.97 62.55 53.05 62.6 53.12 62.64C53.26 62.72 53.34 62.77 53.34 62.77C53.34 62.77 53.25 62.74 53.1 62.69C53.03 62.66 52.94 62.63 52.83 62.59C52.72 62.56 52.61 62.53 52.48 62.49C52.35 62.45 52.21 62.42 52.06 62.39C51.91 62.36 51.75 62.34 51.58 62.32C51.5 62.31 51.41 62.3 51.33 62.29C51.24 62.29 51.16 62.29 51.07 62.28C50.9 62.27 50.72 62.28 50.54 62.28C50.36 62.28 50.19 62.31 50.01 62.31C49.84 62.34 49.66 62.35 49.5 62.38C49.17 62.43 48.86 62.49 48.6 62.57C48.08 62.7 47.73 62.83 47.73 62.83V62.81Z" fill="#B48D72"/>
<path d="M60.9 68.07C60.8 64.19 54.8 64.64 54.16 62.67C53.33 60.13 53.73 57.44 54.24 55.58C54.73 53.75 54.52 51.81 53.68 50.11C53.14 49.02 52.59 48.04 52.31 47.92C51.67 47.64 49.42 47.64 48.78 47.92C48.45 48.06 47.74 49.41 47.12 50.71C46.44 52.13 46.33 53.76 46.76 55.27C47.3 57.14 47.79 59.99 46.92 62.67C46.28 64.64 40.28 64.19 40.18 68.07C40.09 71.58 42.71 76.83 50.54 77.28C58.38 76.83 60.99 71.58 60.9 68.07Z" fill="#847253"/>
<path d="M53.77 65.3301C53.53 63.9701 52.28 63.3401 50.71 63.3301H50.68H50.65C49.07 63.3501 47.83 63.9801 47.59 65.3401C47.29 67.0401 48.37 67.4501 48.96 67.4001C49.55 67.3501 49.88 67.5401 50.1 67.8201C50.19 67.9401 50.42 68.0101 50.65 68.0201H50.68H50.71C50.94 68.0101 51.17 67.9401 51.26 67.8201C51.48 67.5401 51.82 67.3601 52.4 67.4001C52.99 67.4501 54.07 67.0401 53.77 65.3401V65.3301Z" fill="#191918"/>
<path d="M53.2899 66.24C53.2899 66.24 52.3599 65.65 52.0099 66.1C51.6599 66.55 51.4499 67.14 51.5799 67.2C51.7099 67.26 51.8699 67.23 51.9899 67.16C52.1099 67.09 52.4199 67.14 52.7399 67.07C53.0499 67.01 53.5499 66.47 53.3099 66.24H53.2899Z" fill="black"/>
<path d="M48.08 66.24C48.08 66.24 49.01 65.65 49.36 66.1C49.71 66.55 49.9199 67.14 49.7999 67.2C49.6699 67.26 49.5099 67.23 49.3899 67.16C49.2699 67.09 48.9599 67.14 48.6399 67.07C48.3299 67.01 47.83 66.47 48.0699 66.24H48.08Z" fill="black"/>
<path d="M56.08 69.13C56.08 69.13 56.04 69.23 56 69.31C55.96 69.38 55.9 69.47 55.84 69.56C55.8 69.6 55.76 69.65 55.72 69.69C55.67 69.73 55.62 69.78 55.57 69.82C55.46 69.91 55.33 69.99 55.19 70.06C55.05 70.14 54.89 70.2 54.73 70.26C54.56 70.31 54.39 70.36 54.21 70.4C54.03 70.44 53.84 70.46 53.66 70.48C52.92 70.55 52.16 70.48 51.63 70.36C51.5 70.33 51.38 70.3 51.28 70.26C51.18 70.23 51.09 70.19 51.03 70.16C50.99 70.14 50.98 70.13 50.96 70.12C50.94 70.12 50.93 70.1 50.91 70.08C50.87 70.05 50.78 69.91 50.78 69.91L50.69 69.75C50.69 69.75 50.5 70.05 50.47 70.07C50.45 70.09 50.43 70.1 50.42 70.11C50.4 70.12 50.38 70.13 50.35 70.15C50.29 70.18 50.2 70.22 50.1 70.25C50 70.28 49.88 70.32 49.75 70.35C49.22 70.47 48.46 70.53 47.72 70.45C47.53 70.43 47.35 70.4 47.17 70.36C46.99 70.33 46.82 70.27 46.65 70.22C46.49 70.16 46.33 70.1 46.19 70.02C46.05 69.95 45.92 69.86 45.81 69.77C45.76 69.73 45.71 69.68 45.66 69.64C45.62 69.59 45.58 69.55 45.54 69.5C45.47 69.41 45.41 69.33 45.38 69.25C45.34 69.18 45.32 69.12 45.3 69.08C45.28 69.04 45.27 69.02 45.27 69.02C45.27 69.02 45.27 69.04 45.29 69.09C45.31 69.13 45.32 69.2 45.36 69.27C45.39 69.35 45.44 69.44 45.51 69.54C45.55 69.59 45.58 69.64 45.62 69.69C45.67 69.74 45.71 69.79 45.76 69.84C45.87 69.94 45.99 70.04 46.13 70.13C46.27 70.22 46.43 70.3 46.59 70.37C46.76 70.44 46.93 70.51 47.12 70.56C47.3 70.61 47.49 70.66 47.68 70.69C48.45 70.83 49.23 70.83 49.82 70.75C49.97 70.73 50.1 70.7 50.22 70.67C50.34 70.64 50.45 70.61 50.54 70.57C50.59 70.55 50.65 70.52 50.69 70.5C50.73 70.52 50.79 70.55 50.85 70.57C50.94 70.61 51.04 70.64 51.17 70.67C51.29 70.7 51.43 70.73 51.57 70.75C52.16 70.84 52.94 70.84 53.71 70.7C53.9 70.67 54.09 70.62 54.28 70.57C54.46 70.52 54.64 70.45 54.81 70.39C54.98 70.32 55.14 70.24 55.28 70.15C55.42 70.06 55.55 69.96 55.65 69.87C55.7 69.82 55.75 69.77 55.8 69.72C55.84 69.67 55.88 69.62 55.91 69.57C55.97 69.47 56.03 69.38 56.06 69.3C56.1 69.23 56.11 69.16 56.13 69.12C56.14 69.08 56.15 69.05 56.15 69.05C56.15 69.05 56.15 69.07 56.12 69.11L56.08 69.13Z" fill="#191918"/>
<path d="M50.68 64.7801C51.5858 64.7801 52.32 64.5069 52.32 64.17C52.32 63.8332 51.5858 63.5601 50.68 63.5601C49.7743 63.5601 49.04 63.8332 49.04 64.17C49.04 64.5069 49.7743 64.7801 50.68 64.7801Z" fill="white"/>
</svg>
