<svg width="102" height="102" viewBox="0 0 102 102" fill="none" xmlns="http://www.w3.org/2000/svg">
<path d="M93.06 0.419983H9.47005C4.68174 0.419983 0.800049 4.30172 0.800049 9.09003V92.68C0.800049 97.4683 4.68174 101.35 9.47005 101.35H93.06C97.8484 101.35 101.73 97.4683 101.73 92.68V9.09003C101.73 4.30172 97.8484 0.419983 93.06 0.419983Z" fill="#DBBD64"/>
<path d="M51.1901 84.27C51.0001 84.27 50.8101 84.22 50.6501 84.11C50.4501 83.98 50.3001 83.78 50.2401 83.56C50.0601 83.51 49.9001 83.41 49.7701 83.26C49.2701 82.69 48.7701 81.86 48.3501 81.04C48.3501 81.05 48.3501 81.07 48.3501 81.08C48.3301 81.49 48.0601 81.85 47.6601 81.98C47.5601 82.01 47.4501 82.03 47.3501 82.03C47.0601 82.03 46.7701 81.9 46.5701 81.66C46.1401 81.13 45.8201 80.61 45.5801 80.12C45.5001 80.18 45.4101 80.22 45.3201 80.26C45.2101 80.3 45.1001 80.32 44.9901 80.32C44.6801 80.32 44.3801 80.18 44.1901 79.92C43.5401 79.05 43.3501 77.96 43.3701 76.91C43.2401 76.88 43.1101 76.82 43.0001 76.74C42.6101 76.45 42.4801 75.92 42.7001 75.48C43.7801 73.36 42.0401 72.05 41.6701 71.81C39.8401 71.08 38.5101 70.32 37.5601 69.57C37.3701 69.76 37.1101 69.86 36.8501 69.86C36.6801 69.86 36.5001 69.82 36.3401 69.72C34.8501 68.86 33.9101 67.8 33.5501 66.56C33.4801 66.58 33.4101 66.58 33.3401 66.58C33.3101 66.58 33.2901 66.58 33.2601 66.58C32.7901 66.54 32.4001 66.18 32.3501 65.7C32.2101 64.56 32.6801 63.26 33.2701 62.13C33.2401 62.1 33.2201 62.07 33.2001 62.04C32.9501 61.66 32.9901 61.16 33.2901 60.82C33.8101 60.25 34.2401 59.08 34.6201 58.05C34.6901 57.85 34.7701 57.66 34.8401 57.47C34.9901 56.75 35.1901 56.01 35.4301 55.25C33.5201 56 31.2701 56.51 28.7101 56.78C28.3301 56.82 27.9301 56.84 27.5201 56.84C25.9701 56.84 24.6201 56.56 24.1101 56.44C22.1101 55.96 20.8301 54.92 20.3101 53.35C20.0101 52.43 20.7501 50.92 22.0501 49.82C22.9501 49.06 24.9301 47.78 28.0001 47.78C29.0201 47.78 30.0901 47.93 31.1601 48.21C31.7801 48.38 32.6701 48.47 33.6001 48.47C34.8101 48.47 36.6701 48.31 38.6601 47.57C38.6601 47.57 38.6601 47.57 38.6701 47.57C37.8401 46.91 36.7501 46.25 34.1701 46.06C33.9901 46.05 33.7101 46.04 33.3401 46.04C30.3201 46.04 22.5601 46.49 19.2501 46.68C18.6301 46.72 18.1701 46.74 17.9601 46.75C17.7701 46.75 17.4501 46.77 17.0501 46.77C14.4501 46.77 9.67005 46.32 6.79005 43.27C4.68005 41.04 2.99006 36.11 4.05006 33.33C4.33006 32.6 4.69006 31.85 5.25006 31.52C5.11006 29.1 5.23006 26.71 5.88006 25.54C6.37006 24.65 6.95007 23.82 7.82007 23.82C8.52007 23.82 9.06006 24.37 9.17006 25.18C9.19006 25.33 9.17006 25.48 9.13006 25.63C8.66006 27.07 9.50006 30.22 10.5001 31.7C10.9501 32.36 11.6501 32.72 12.6001 32.77C13.0501 31.88 13.5601 31.48 13.9801 31.31C13.7301 29.38 13.6301 27.34 14.4101 26.19C15.1601 25.1 15.9001 24.87 16.3901 24.87C17.1301 24.87 17.7201 25.42 17.7501 26.14C17.7901 26.98 17.8001 27.75 17.8201 28.43C17.8201 28.5 17.8201 28.58 17.8201 28.65C17.8401 28.62 17.8601 28.58 17.8801 28.55C18.1601 28.17 18.3701 27.89 18.5601 27.67C18.7501 26.62 19.3501 23.64 20.2401 22.72C20.9201 22.01 21.4601 21.44 22.2401 21.44C22.4401 21.44 22.6501 21.48 22.8601 21.56C23.8101 21.95 23.6301 22.91 23.4601 23.84C23.2901 24.76 23.0101 26.29 22.9201 28.76C22.7601 33.38 24.1001 34.76 24.6101 35.28C25.2101 35.9 26.6001 36.38 27.5701 36.44C27.5701 34.89 27.9701 33.36 28.7101 32.05C29.0601 29.34 30.5201 27.01 32.7501 25.63C33.8801 24.94 34.6501 24.63 35.2601 24.63C35.9201 24.63 36.2701 24.98 36.4201 25.19C36.8201 25.75 36.6501 26.39 36.5901 26.58C36.5201 26.78 36.4001 26.95 36.2301 27.07C35.6701 27.48 35.0801 28.21 34.5201 29.17C34.6801 29.57 34.6301 29.96 34.6101 30.1C34.5701 30.3 34.4701 30.49 34.3201 30.63C33.9701 30.97 33.6201 31.47 33.3001 32.12C32.6801 35.33 35.4301 36.92 38.0601 38.16C38.2201 38.24 38.3801 38.31 38.5101 38.38C41.1401 39.67 42.8001 42.68 43.6401 44.64C45.5501 43.92 48.1901 43.16 50.9801 43.08C51.1301 43.08 51.28 43.08 51.43 43.08C51.58 43.08 51.7201 43.08 51.8701 43.08C54.5501 43.16 57.2401 43.94 59.2001 44.68C60.0301 42.72 61.6901 39.68 64.3401 38.38C64.4701 38.31 64.6201 38.24 64.7901 38.17C67.4201 36.93 70.1701 35.34 69.5501 32.12C69.2201 31.48 68.8801 30.98 68.5301 30.64C68.3801 30.5 68.2801 30.31 68.2401 30.1C68.2201 29.97 68.1601 29.57 68.3301 29.17C67.7701 28.21 67.1701 27.48 66.6201 27.07C66.4501 26.95 66.3301 26.78 66.2601 26.58C66.2001 26.4 66.03 25.75 66.43 25.2C66.58 24.99 66.9301 24.64 67.5901 24.64C68.2001 24.64 68.9801 24.95 70.1001 25.64C72.3301 27.02 73.8001 29.35 74.1401 32.06C74.8801 33.38 75.2701 34.9 75.2801 36.45C76.2401 36.39 77.6301 35.91 78.2401 35.29C78.7401 34.77 80.0801 33.39 79.9301 28.77C79.8501 26.3 79.5601 24.77 79.3901 23.86C79.2201 22.93 79.0401 21.96 79.9901 21.57C80.2001 21.49 80.4001 21.45 80.6001 21.45C81.3901 21.45 81.9201 22.01 82.6101 22.72C83.4901 23.64 84.1001 26.62 84.2901 27.67C84.4801 27.88 84.6901 28.16 84.9701 28.55C84.9901 28.58 85.0101 28.61 85.0401 28.65C85.0401 28.57 85.0401 28.5 85.0401 28.42C85.0501 27.74 85.0701 26.97 85.1101 26.13C85.1401 25.41 85.7301 24.86 86.4701 24.86C86.9601 24.86 87.7001 25.09 88.4501 26.18C89.2401 27.33 89.1301 29.37 88.8801 31.3C89.3001 31.47 89.8101 31.87 90.2601 32.76C91.2001 32.71 91.9101 32.35 92.3601 31.69C93.3601 30.22 94.2001 27.07 93.7301 25.62C93.6801 25.48 93.6701 25.32 93.6901 25.17C93.8001 24.35 94.3401 23.81 95.0401 23.81C95.9101 23.81 96.4801 24.64 96.9801 25.53C97.6201 26.7 97.7501 29.09 97.6101 31.51C98.1801 31.84 98.5301 32.59 98.8101 33.32C99.8701 36.1 98.1801 41.03 96.0701 43.26C93.1901 46.31 88.4001 46.76 85.8001 46.76C85.4001 46.76 85.0901 46.75 84.9001 46.74C84.6901 46.73 84.2301 46.7 83.6101 46.67C80.3001 46.48 72.5501 46.03 69.5201 46.03C69.1501 46.03 68.8701 46.03 68.6901 46.05C66.1101 46.24 65.0101 46.9 64.1901 47.56C64.1901 47.56 64.1901 47.56 64.2001 47.56C66.1801 48.3 68.0401 48.45 69.2501 48.45C70.1801 48.45 71.0701 48.35 71.7001 48.19C72.7701 47.9 73.8301 47.76 74.8601 47.76C77.9401 47.76 79.9101 49.03 80.8201 49.79C82.1201 50.88 82.8701 52.4 82.5701 53.32C82.0401 54.89 80.7601 55.93 78.7701 56.41C78.2701 56.53 76.9201 56.81 75.3701 56.81C74.9601 56.81 74.5501 56.79 74.1701 56.75C71.6101 56.48 69.3701 55.97 67.4501 55.23C67.7501 56.16 67.9801 57.07 68.1301 57.93C69.0701 59.41 70.2701 60.52 70.2801 60.54C70.5601 60.8 70.6701 61.19 70.5601 61.55C70.4601 61.91 70.1601 62.19 69.7901 62.26C69.6301 62.29 69.4701 62.31 69.3101 62.31H69.2901C70.1101 65.18 68.6501 66.86 68.5701 66.95C68.3801 67.17 68.1001 67.28 67.8201 67.28C67.6801 67.28 67.5501 67.25 67.4201 67.2C67.3601 67.18 67.3101 67.15 67.2601 67.11C66.7801 67.98 66.1501 68.76 65.4701 69.54C64.7101 70.41 63.6201 71.13 62.5701 71.82C61.5701 72.48 60.5401 73.15 60.0101 73.85C59.7401 74.21 59.66 74.47 59.68 74.59C59.68 74.64 59.7201 74.68 59.7401 74.7C60.1901 74.92 60.3701 75.43 60.2101 75.91C60.1001 76.22 59.8401 76.44 59.5301 76.52C59.5001 76.7 59.4301 76.87 59.3101 77.01C59.1301 77.23 58.8701 77.36 58.6101 77.37C58.2501 79.27 57.1801 81.26 57.0201 81.54C56.8401 81.87 56.5001 82.06 56.1401 82.06C56.0201 82.06 55.9001 82.04 55.7801 81.99C55.7001 81.96 55.6201 81.92 55.5501 81.87C55.4101 82.1 55.3001 82.24 55.2901 82.26C55.1001 82.52 54.8001 82.66 54.4901 82.66C54.3501 82.66 54.2101 82.63 54.0801 82.57C53.7701 82.43 53.5701 82.16 53.5001 81.85C52.7101 83.33 51.8701 84 51.8101 84.05C51.6301 84.19 51.4101 84.26 51.1901 84.26V84.27Z" fill="#2F150C"/>
<path d="M96.54 32.79C96.71 33.71 96.45 34.97 95.98 36.2C96.72 32.59 96.9201 27.57 96.0701 26.02C94.8601 23.82 94.66 25.32 94.66 25.32C95.25 27.12 94.32 30.56 93.17 32.26C92.23 33.65 90.6901 33.86 89.5201 33.76C89.4901 33.56 89.43 33.39 89.36 33.23C88.73 31.97 88.02 32.05 87.95 32.45C87.92 32.63 87.8801 32.81 87.8501 32.99C87.7101 32.66 87.74 32.24 87.79 31.81C87.9 30.97 88.41 27.93 87.61 26.76C86.81 25.59 86.1201 25.78 86.1001 26.18C85.9301 30.29 86.2 32.65 84.9 33.07C84.79 31.38 84.52 29.66 84.15 29.14C83.8 28.65 83.5601 28.34 83.3501 28.17C83.0301 26.24 82.4101 23.98 81.8801 23.43C81.0901 22.6 80.79 22.34 80.36 22.51C79.93 22.68 80.77 24.14 80.93 28.75C81.09 33.35 79.8501 35.09 78.9601 36C78.0701 36.91 76.19 37.5 75.01 37.47C74.74 37.47 74.4801 37.44 74.2401 37.37C74.4101 35.73 74.1 33.94 73.17 32.39C72.94 30.16 71.8001 27.87 69.5701 26.5C66.6901 24.72 67.2101 26.27 67.2101 26.27C68.2501 27.03 69.0801 28.41 69.5701 29.35C69.1201 29.37 69.23 29.92 69.23 29.92C69.75 30.42 70.17 31.11 70.51 31.79C71.52 36.47 66.61 38.39 64.79 39.28C62.22 40.54 60.64 43.79 59.97 45.47C59.8 45.61 59.6401 45.74 59.4901 45.86C57.4901 45.06 54.65 44.16 51.84 44.08C51.71 44.08 51.57 44.08 51.44 44.08C51.3 44.08 51.16 44.08 51.01 44.08C48.08 44.16 45.2901 45.04 43.3501 45.83C43.2101 45.72 43.07 45.59 42.91 45.46C42.24 43.78 40.66 40.53 38.09 39.27C36.26 38.38 31.36 36.46 32.36 31.78C32.7 31.1 33.12 30.41 33.64 29.91C33.64 29.91 33.7401 29.36 33.3001 29.34C33.7901 28.4 34.6201 27.02 35.6601 26.26C35.6601 26.26 36.1801 24.72 33.3001 26.49C31.0701 27.86 29.94 30.15 29.7 32.38C28.78 33.93 28.4601 35.72 28.6301 37.36C28.3901 37.43 28.13 37.46 27.86 37.46C26.68 37.48 24.7901 36.9 23.9101 35.99C23.0201 35.08 21.7801 33.34 21.9401 28.74C22.1001 24.14 22.93 22.68 22.51 22.5C22.08 22.33 21.7801 22.59 20.9901 23.42C20.4601 23.97 19.8401 26.23 19.5201 28.16C19.3101 28.33 19.07 28.64 18.72 29.13C18.34 29.65 18.07 31.37 17.97 33.06C16.67 32.64 16.9401 30.28 16.7701 26.17C16.7501 25.76 16.06 25.58 15.26 26.75C14.46 27.92 14.97 30.96 15.08 31.8C15.14 32.23 15.1601 32.65 15.0201 32.98C14.9901 32.8 14.96 32.63 14.92 32.44C14.85 32.04 14.14 31.96 13.5 33.22C13.42 33.37 13.37 33.55 13.34 33.74C12.17 33.84 10.63 33.63 9.69005 32.24C8.54005 30.54 7.61004 27.1 8.20004 25.3C8.20004 25.3 8.00004 23.81 6.79004 26C5.94004 27.54 6.14005 32.56 6.88005 36.17C6.41005 34.94 6.16005 33.68 6.32005 32.76C6.32005 32.76 5.91005 31.31 5.02005 33.65C4.13005 36 5.70005 40.59 7.55005 42.55C10.65 45.83 16.49 45.79 17.94 45.71C19.39 45.63 32.0401 44.86 34.2701 45.02C38.3001 45.32 39.16 46.74 40.34 47.57C40.24 47.72 40.1201 47.9 39.9901 48.11C39.7001 48.23 39.38 48.35 39.03 48.48C35.75 49.7 32.45 49.55 30.92 49.14C27.09 48.12 24.2501 49.24 22.7101 50.54C21.5101 51.55 21.1601 52.66 21.2701 52.98C21.4501 53.51 21.9601 54.83 24.3501 55.41C25.3001 55.64 26.98 55.9 28.61 55.73C32.62 55.31 35.35 54.34 37.25 53.22C36.65 54.62 36.1201 56.16 35.8001 57.71C35.3101 58.97 34.8 60.59 34.03 61.45C34.03 61.45 34.84 61.17 35.5 60.43V60.45C35.07 61.02 33.11 63.72 33.33 65.55C33.33 65.55 33.87 63.65 35.4 62.68C35.4 62.68 32.33 66.21 36.83 68.82C36.83 68.82 35.26 67.6 36.22 65.25C36.22 65.25 35.36 68.23 42.11 70.87C42.11 70.87 45.18 72.73 43.58 75.89C43.58 75.89 44.43 75.08 44.8 74.35C44.48 75.41 43.9 77.85 44.97 79.27C44.97 79.27 44.93 77.97 45.9 77.07C45.9 77.07 45.65 78.93 47.33 80.98C47.33 80.98 47.44 78.86 48.08 78C48.08 78 49.33 81.2 50.51 82.54C50.51 82.54 50.51 81.09 50.8 80.27C50.8 80.27 51.59 81.61 51.19 83.21C51.19 83.21 52.9 81.87 53.58 78.56C53.58 78.56 54.83 79.72 54.47 81.61C54.47 81.61 55.72 79.97 55.68 78.07C55.68 78.07 56.47 79.45 56.11 81.01C56.11 81.01 58 77.57 57.65 75.66C57.75 75.86 57.98 76.11 58.5 76.32C58.5 76.32 57.57 74.91 58.04 73.94C58.04 73.94 57.79 75.17 59.18 75.5C59.18 75.5 57.96 74.79 59.18 73.19C60.39 71.59 63.29 70.43 64.68 68.83C66.07 67.23 67.07 65.85 67.11 63.62C67.11 63.62 67.97 64.33 67.79 66.23C67.79 66.23 69.65 64.15 67.33 60.46C67.33 60.46 68.54 61.43 69.56 61.23C69.56 61.23 68.1801 59.96 67.1301 58.25C66.8401 56.51 66.25 54.77 65.58 53.2C67.48 54.32 70.21 55.29 74.22 55.71C75.85 55.88 77.53 55.62 78.48 55.39C80.87 54.82 81.39 53.49 81.56 52.96C81.67 52.64 81.32 51.53 80.12 50.52C78.58 49.22 75.75 48.1 71.91 49.12C70.39 49.53 67.09 49.68 63.8 48.46C63.45 48.33 63.1401 48.21 62.8501 48.09C62.7201 47.88 62.6 47.7 62.5 47.55C63.68 46.72 64.5401 45.3 68.5701 45.01C70.8001 44.84 83.45 45.62 84.9 45.7C86.35 45.77 92.19 45.82 95.29 42.53C97.14 40.57 98.7201 35.98 97.8201 33.63C96.9301 31.28 96.5201 32.73 96.5201 32.73L96.54 32.79Z" fill="#2F150C"/>
<path d="M60.0201 46.52C60.0201 46.52 60.3901 47.23 60.9901 48.17C61.8901 49.59 63.3101 51.53 64.7001 52.29C67.0101 53.55 68.8901 55.29 74.6601 55.68C76.3001 55.79 77.5501 55.68 78.5001 55.45C80.8901 54.88 81.4101 53.55 81.5801 53.02C81.6901 52.7 81.3401 51.59 80.1401 50.58C78.6001 49.28 75.7701 48.16 71.9301 49.18C70.4101 49.59 67.1101 49.74 63.8201 48.52C60.5301 47.3 60.0101 46.53 60.0101 46.53L60.0201 46.52Z" fill="#8C6E4C"/>
<path d="M60.9901 48.17C61.8901 49.59 63.5101 54.65 74.2301 55.77C75.8601 55.94 77.5401 55.68 78.4901 55.45C79.4301 54.78 79.0201 53.93 79.0201 53.93C78.3601 51.2 73.6001 50.54 72.4201 50.61C71.2301 50.68 68.4101 50.74 66.4901 50.32C65.1501 50.03 62.8001 48.7 60.9801 48.17H60.9901Z" fill="#E48F8C"/>
<path d="M43.2601 46.52C43.2601 46.52 41.6001 41.01 38.0601 39.28C36.0601 38.3 30.3401 36.09 32.8001 30.34C32.8001 30.34 33.9501 27.49 35.6301 26.26C35.6301 26.26 36.1501 24.72 33.2701 26.49C30.3901 28.27 29.3201 31.58 29.6901 34.3C30.0601 37.02 29.0101 37.44 27.8301 37.46C26.6501 37.48 24.7601 36.9 23.8801 35.99C22.9901 35.08 21.7501 33.34 21.9101 28.74C22.0701 24.14 22.9001 22.68 22.4801 22.5C22.0501 22.33 21.7501 22.59 20.9601 23.42C20.1701 24.25 19.1801 28.86 19.2901 30.52C19.4001 32.18 19.1801 33.06 18.6601 33.12C16.5501 33.33 16.9401 30.91 16.7401 26.17C16.7201 25.76 16.0301 25.58 15.2301 26.75C14.4301 27.92 14.9401 30.96 15.0501 31.8C15.1601 32.64 15.1501 33.43 14.0501 33.65C12.8701 33.88 10.8201 33.96 9.67007 32.25C8.52007 30.55 7.59007 27.11 8.18007 25.31C8.18007 25.31 7.98008 23.82 6.77008 26.01C5.56008 28.21 6.48007 37.43 8.04007 39.63C10.6601 43.31 16.4401 44.08 17.8901 44.21C19.3401 44.34 31.5101 43.26 33.7001 43.74C38.3401 44.75 38.8001 46.35 40.3301 47.24C41.8601 48.13 43.8801 47.15 43.2801 46.51L43.2601 46.52Z" fill="#8C7F5E"/>
<path d="M42.8101 46.52C42.8101 46.52 42.4401 47.23 41.8401 48.16C40.9401 49.58 39.5201 51.52 38.1301 52.28C35.8201 53.54 33.9401 55.29 28.1701 55.67C26.5301 55.78 25.2801 55.67 24.3301 55.44C21.9401 54.86 21.4201 53.54 21.2501 53.01C21.1401 52.69 21.4901 51.58 22.6901 50.57C24.2301 49.27 27.0601 48.15 30.9001 49.17C32.4201 49.58 35.7201 49.73 39.0101 48.51C42.3001 47.29 42.8201 46.52 42.8201 46.52H42.8101Z" fill="#8C6E4C"/>
<path d="M41.8301 48.17C40.9301 49.59 39.3101 54.65 28.5901 55.77C26.9601 55.94 25.2701 55.67 24.3301 55.45C23.3901 54.78 23.8001 53.93 23.8001 53.93C24.4601 51.2 29.2201 50.54 30.4001 50.61C31.5901 50.68 34.4101 50.74 36.3301 50.32C37.6701 50.03 40.0201 48.7 41.8301 48.17Z" fill="#E48F8C"/>
<path d="M69.5701 61.29C69.5701 61.29 68.1901 60.02 67.1401 58.31C66.2101 52.7 62.1901 47.12 62.1901 47.12C62.1901 47.12 56.6601 44.08 51.4101 44.08C45.8201 44.08 40.6301 47.12 40.6301 47.12C40.6301 47.12 36.8801 52.33 35.7901 57.75C35.3001 59.01 34.7901 60.63 34.0201 61.49C34.0201 61.49 34.8301 61.21 35.4901 60.47V60.49C35.0601 61.06 33.1001 63.76 33.3201 65.59C33.3201 65.59 33.8601 63.69 35.3901 62.72C35.3901 62.72 32.3201 66.25 36.8201 68.86C36.8201 68.86 35.2501 67.64 36.2101 65.29C36.2101 65.29 35.3501 68.27 42.1001 70.91C42.1001 70.91 45.1701 72.77 43.5701 75.93C43.5701 75.93 44.4201 75.12 44.7901 74.39C44.4701 75.45 43.8901 77.89 44.9601 79.31C44.9601 79.31 44.9201 78.01 45.8901 77.11C45.8901 77.11 45.6401 78.97 47.3201 81.02C47.3201 81.02 47.4301 78.9 48.0701 78.04C48.0701 78.04 49.3201 81.24 50.5001 82.58C50.5001 82.58 50.5001 81.13 50.7901 80.31C50.7901 80.31 51.5801 81.65 51.1801 83.25C51.1801 83.25 52.8901 81.91 53.5701 78.6C53.5701 78.6 54.8201 79.76 54.4601 81.65C54.4601 81.65 55.7101 80.01 55.6701 78.11C55.6701 78.11 56.4601 79.49 56.1001 81.05C56.1001 81.05 57.9901 77.61 57.6401 75.7C57.7401 75.9 57.9701 76.15 58.4901 76.36C58.4901 76.36 57.5601 74.95 58.0301 73.98C58.0301 73.98 57.7801 75.21 59.1701 75.54C59.1701 75.54 57.9501 74.83 59.1701 73.23C60.3801 71.63 63.2801 70.47 64.6701 68.87C66.0601 67.27 67.0601 65.89 67.1001 63.66C67.1001 63.66 67.9601 64.37 67.7801 66.27C67.7801 66.27 69.6401 64.19 67.3201 60.5C67.3201 60.5 68.5301 61.47 69.5501 61.27" fill="#8C6E4C"/>
<path d="M51.4201 73.35C49.0501 73.35 45.5201 71.93 42.6301 69.81C39.3101 67.38 37.2201 64.37 36.8801 61.54C36.8501 61.26 36.8301 60.98 36.8301 60.69C36.8301 55.03 40.7201 48.43 41.5701 47.06C42.6301 46.44 46.9401 44.08 51.4201 44.08C55.6401 44.08 60.1501 46.44 61.2801 47.07C62.1501 48.47 66.0101 55.04 66.0101 60.69C66.0101 60.9 66.0101 61.1 65.9901 61.3C65.9901 61.38 65.9801 61.45 65.9701 61.53C65.2801 68.12 56.7701 73.24 51.6001 73.35H51.6301H51.4301" fill="#9B795A"/>
<path d="M38.4701 58.08C38.4701 58.08 41.5501 64.44 44.1801 64.44C46.2001 64.44 48.7201 63.4 48.7201 63.4C48.7201 63.4 49.7901 52.8 43.9401 52.46C41.3101 52.31 38.4601 58.07 38.4601 58.07" fill="#8C6E4C"/>
<path d="M64.4201 58.08C64.4201 58.08 61.3401 64.44 58.7101 64.44C56.6901 64.44 54.1701 63.4 54.1701 63.4C54.1701 63.4 53.1001 52.8 58.9501 52.46C61.5801 52.31 64.4301 58.07 64.4301 58.07" fill="#8C6E4C"/>
<path d="M41.3201 53.86C41.3201 53.86 41.3501 53.75 41.4501 53.59C41.5001 53.5 41.5601 53.41 41.6401 53.3C41.7301 53.2 41.8201 53.08 41.9401 52.97C42.0601 52.85 42.2001 52.74 42.3601 52.64C42.5201 52.53 42.7001 52.44 42.9001 52.36C43.1001 52.28 43.3101 52.21 43.5301 52.18C43.7501 52.12 43.9801 52.13 44.2201 52.13C44.4501 52.13 44.6801 52.19 44.9001 52.23C45.1101 52.3 45.3201 52.37 45.5101 52.46C45.6901 52.56 45.8701 52.67 46.0201 52.77C46.1701 52.88 46.3001 53.01 46.4201 53.12C46.5401 53.23 46.6401 53.34 46.7101 53.45C46.7901 53.56 46.8501 53.65 46.9001 53.73C47.0001 53.89 47.0501 53.99 47.0501 53.99C47.0501 53.99 46.9401 53.96 46.7701 53.9C46.6801 53.87 46.5801 53.83 46.4701 53.78C46.3601 53.73 46.2301 53.69 46.0901 53.65C45.9501 53.6 45.8101 53.54 45.6601 53.5C45.5001 53.46 45.3501 53.42 45.1901 53.36C45.0301 53.33 44.8601 53.3 44.6901 53.26C44.5201 53.26 44.3501 53.21 44.1901 53.22C44.0201 53.22 43.8501 53.21 43.6901 53.23C43.5201 53.23 43.3601 53.27 43.2001 53.29C43.0401 53.32 42.8801 53.35 42.7301 53.4C42.5801 53.44 42.4301 53.48 42.3001 53.53C42.0301 53.62 41.7901 53.71 41.6201 53.77C41.4501 53.84 41.3501 53.88 41.3501 53.88L41.3201 53.86Z" fill="#35271E"/>
<path d="M61.4601 53.86C61.4601 53.86 61.3601 53.82 61.1901 53.75C61.0201 53.68 60.7901 53.59 60.5101 53.51C60.3801 53.46 60.2301 53.42 60.0801 53.38C59.9301 53.34 59.7701 53.31 59.6101 53.27C59.4501 53.25 59.2801 53.21 59.1201 53.21C58.9501 53.19 58.7801 53.2 58.6201 53.2C58.4501 53.2 58.2801 53.24 58.1201 53.24C57.9601 53.28 57.7901 53.31 57.6201 53.34C57.4601 53.39 57.3001 53.43 57.1501 53.47C57.0001 53.52 56.8601 53.58 56.7201 53.62C56.5801 53.66 56.4501 53.7 56.3401 53.75C56.2301 53.8 56.1201 53.84 56.0401 53.87C55.8701 53.93 55.7601 53.96 55.7601 53.96C55.7601 53.96 55.8101 53.86 55.9101 53.7C55.9601 53.62 56.0201 53.52 56.1001 53.42C56.1701 53.31 56.2701 53.2 56.3901 53.09C56.5101 52.98 56.6401 52.85 56.7901 52.74C56.9501 52.64 57.1201 52.53 57.3001 52.43C57.4901 52.35 57.7001 52.27 57.9101 52.2C58.1301 52.16 58.3601 52.11 58.5901 52.1C58.8201 52.1 59.0501 52.1 59.2801 52.15C59.5101 52.18 59.7101 52.26 59.9101 52.33C60.1001 52.41 60.2901 52.51 60.4501 52.61C60.6101 52.72 60.7501 52.83 60.8701 52.94C60.9901 53.05 61.0801 53.17 61.1701 53.27C61.2501 53.38 61.3101 53.47 61.3601 53.56C61.4601 53.72 61.4901 53.83 61.4901 53.83L61.4601 53.86Z" fill="#35271E"/>
<path d="M48.7202 63.4C43.8602 65.71 40.4502 64.2099 38.9102 58.2199C38.9102 58.2199 44.7502 53.69 47.8502 59.5C48.3302 60.4 48.7202 63.4 48.7202 63.4Z" fill="white"/>
<path d="M44.0301 63.78C42.6801 63.75 41.5501 62.68 41.1201 61.2C40.9901 60.75 40.9201 60.25 40.9301 59.75C40.9701 57.68 42.2602 56.95 43.8802 56.9C43.9802 56.9 44.0801 56.9 44.1801 56.9C45.9401 56.94 47.2702 58.77 47.3002 59.89C47.3602 62.08 45.7901 63.83 44.0301 63.79" fill="#64413F"/>
<path d="M44.0501 63.23C43.0301 63.21 42.1301 62.33 41.7701 61C41.6501 60.57 41.6001 60.13 41.6101 59.67C41.6401 58.13 42.3701 57.39 43.9101 57.34C43.9901 57.34 44.0601 57.34 44.1401 57.34H44.1801C45.5701 57.37 46.6201 58.99 46.6401 59.82C46.6701 60.82 46.3301 61.78 45.7201 62.45C45.2501 62.96 44.6701 63.24 44.0901 63.24H44.0501" fill="#4F3231"/>
<path d="M54.1401 63.4C59.0001 65.71 62.4101 64.2099 63.9501 58.2199C63.9501 58.2199 58.1101 53.69 55.0101 59.5C54.5301 60.4 54.1401 63.4 54.1401 63.4Z" fill="white"/>
<path d="M58.8402 63.78C60.1902 63.75 61.3202 62.68 61.7502 61.2C61.8802 60.75 61.9502 60.25 61.9402 59.75C61.9002 57.68 60.6102 56.95 59.0002 56.9C58.9002 56.9 58.8002 56.9 58.7002 56.9C56.9402 56.94 55.6102 58.77 55.5802 59.89C55.5202 62.08 57.0902 63.83 58.8502 63.79" fill="#64413F"/>
<path d="M58.7801 63.23C58.2001 63.23 57.6201 62.95 57.1501 62.44C56.5401 61.78 56.2001 60.82 56.2301 59.81C56.2501 58.98 57.3101 57.37 58.7001 57.33H58.7401C58.8201 57.33 58.8901 57.33 58.9701 57.33C60.5101 57.38 61.2301 58.12 61.2701 59.66C61.2701 60.12 61.2201 60.57 61.1101 60.99C60.7401 62.32 59.8501 63.2 58.8201 63.22H58.7801" fill="#4F3231"/>
<path d="M44.2401 58.92C44.2101 60.25 43.3201 61.31 42.2601 61.29C41.7801 61.28 41.3401 61.05 41.0101 60.68C40.8901 60.29 40.8301 59.85 40.8401 59.4C40.8801 57.59 42.0001 56.95 43.4201 56.9C43.9301 57.34 44.2501 58.09 44.2401 58.92Z" fill="white"/>
<path d="M45.9201 62.76C45.9201 63.21 45.6101 63.57 45.2501 63.56C44.8901 63.56 44.6001 63.18 44.6101 62.73C44.6101 62.28 44.9201 61.92 45.2801 61.93C45.6401 61.93 45.9301 62.31 45.9201 62.76Z" fill="white"/>
<path d="M58.7501 59.12C58.7201 60.45 57.8301 61.51 56.7701 61.49C56.2901 61.48 55.8501 61.25 55.5201 60.88C55.4001 60.49 55.3401 60.05 55.3501 59.6C55.3901 57.79 56.5101 57.15 57.9301 57.11C58.4401 57.55 58.7601 58.29 58.7501 59.13" fill="white"/>
<path d="M60.5601 62.76C60.5501 63.21 60.2501 63.57 59.8901 63.56C59.5301 63.56 59.2401 63.18 59.2501 62.73C59.2501 62.28 59.5601 61.92 59.9201 61.93C60.2801 61.93 60.5701 62.31 60.5601 62.76Z" fill="white"/>
<path d="M47.8501 63.78C48.1401 63.67 48.4301 63.54 48.7201 63.4C48.4201 63.54 48.1301 63.67 47.8501 63.78Z" fill="#93755A"/>
<path d="M48.7202 63.4C48.7202 63.4 48.3302 60.4 47.8502 59.5C46.8102 57.55 45.4602 56.76 44.1302 56.58C45.4602 56.76 46.8102 57.55 47.8602 59.5C48.3302 60.39 48.7201 63.32 48.7301 63.4M39.1602 59.11C39.0702 58.83 38.9902 58.53 38.9102 58.23C38.9902 58.54 39.0702 58.83 39.1602 59.11Z" fill="#876C4D"/>
<path d="M47.8502 63.78C47.6902 62.93 47.4802 61.96 47.2402 61.52C47.2002 61.44 47.1502 61.36 47.1102 61.28C47.2502 60.84 47.3202 60.37 47.3002 59.88C47.2702 58.76 45.9301 56.93 44.1801 56.89H44.1402C44.0502 56.89 43.9602 56.89 43.8802 56.89C43.7402 56.89 43.6002 56.9 43.4602 56.92C43.4602 56.92 43.4401 56.9 43.4301 56.89C42.1501 56.93 41.1102 57.46 40.8902 58.89C40.2902 59.09 39.7502 59.34 39.3202 59.58C39.2602 59.42 39.2102 59.26 39.1602 59.1C39.0702 58.82 38.9902 58.52 38.9102 58.22C38.9402 58.19 41.1002 56.54 43.4702 56.54C43.6902 56.54 43.9001 56.55 44.1201 56.58C45.4501 56.76 46.8001 57.55 47.8401 59.5C48.3201 60.4 48.7102 63.4 48.7102 63.4C48.4102 63.54 48.1201 63.67 47.8401 63.78" fill="#E2E1E1"/>
<path d="M47.1101 61.29C46.9501 61 46.7701 60.74 46.6001 60.51C46.6301 60.29 46.6501 60.06 46.6401 59.82C46.6201 58.99 45.5601 57.38 44.1801 57.34H44.1401C44.0601 57.34 43.9901 57.34 43.9101 57.34C43.8801 57.34 43.8601 57.34 43.8301 57.34C43.7301 57.18 43.6001 57.04 43.4701 56.92C43.6101 56.9 43.7501 56.89 43.8901 56.89C43.9801 56.89 44.0701 56.89 44.1501 56.89H44.1901C45.9501 56.93 47.2801 58.76 47.3101 59.88C47.3201 60.38 47.2501 60.85 47.1201 61.28" fill="#624341"/>
<path d="M46.5901 60.5C45.8801 59.56 45.0701 59.03 44.2401 58.76C44.2201 58.22 44.0701 57.73 43.8101 57.34C43.8401 57.34 43.8601 57.34 43.8901 57.34C43.9701 57.34 44.0401 57.34 44.1201 57.34H44.1601C45.5501 57.37 46.6001 58.99 46.6201 59.82C46.6201 60.05 46.6201 60.28 46.5801 60.51" fill="#513635"/>
<path d="M40.8901 58.9C41.1101 57.47 42.1501 56.94 43.4301 56.9C43.4301 56.9 43.4501 56.92 43.4601 56.93C43.5901 57.05 43.7101 57.19 43.8201 57.35C44.0801 57.74 44.2401 58.23 44.2501 58.77C43.7901 58.62 43.3301 58.56 42.8701 58.56C42.1801 58.56 41.5001 58.7 40.9001 58.9" fill="#E2E1E1"/>
<path d="M55.0202 63.78C54.7302 63.67 54.4401 63.54 54.1501 63.4C54.1501 63.4 54.1502 63.37 54.1602 63.32C54.1602 63.37 54.1602 63.4 54.1602 63.4C54.4602 63.54 54.7502 63.67 55.0302 63.78" fill="#93755A"/>
<path d="M54.1501 63.33C54.2101 62.86 54.5801 60.32 55.0101 59.5C54.5701 60.32 54.2101 62.86 54.1501 63.33Z" fill="#876C4D"/>
<path d="M55.0202 63.78C54.7302 63.67 54.4401 63.54 54.1501 63.4C54.1501 63.4 54.1502 63.37 54.1602 63.33C54.2202 62.86 54.5902 60.32 55.0202 59.5C55.1702 59.22 55.3201 58.97 55.4801 58.74C55.4101 58.99 55.3702 59.27 55.3602 59.59C55.3602 60.04 55.4102 60.47 55.5302 60.87C55.5802 60.93 55.6401 60.99 55.7001 61.04C55.7201 61.12 55.7402 61.2 55.7702 61.28C55.7302 61.36 55.6802 61.44 55.6402 61.52C55.4002 61.97 55.1902 62.93 55.0302 63.78" fill="#E2E1E1"/>
<path d="M55.7601 61.29C55.7401 61.21 55.7101 61.13 55.6901 61.05C55.7301 61.09 55.7801 61.13 55.8301 61.16C55.8101 61.2 55.7801 61.24 55.7601 61.29Z" fill="#624341"/>
<path d="M63.6801 59.18C63.7801 58.87 63.8701 58.55 63.9501 58.22C63.8601 58.55 63.7701 58.87 63.6701 59.18" fill="#876C4D"/>
<path d="M63.5401 59.59C63.0801 59.33 62.4901 59.05 61.8201 58.85C61.4701 57.46 60.3501 56.94 58.9901 56.9C58.9001 56.9 58.8101 56.9 58.7301 56.9H58.6901C58.3301 56.9 57.9901 56.99 57.6701 57.13C57.4201 57.15 57.1701 57.2 56.9501 57.27C57.5301 56.89 58.1401 56.68 58.7401 56.6C58.9601 56.57 59.1801 56.56 59.3901 56.56C61.7701 56.56 63.9201 58.22 63.9501 58.24C63.8601 58.57 63.7701 58.89 63.6801 59.2C63.6401 59.34 63.5901 59.47 63.5401 59.61" fill="#E2E1E1"/>
<path d="M61.8301 58.85C61.6001 58.78 61.3601 58.72 61.1201 58.67C60.8301 57.8 60.1301 57.38 58.9801 57.34C58.9001 57.34 58.8301 57.34 58.7501 57.34H58.7101C58.5401 57.34 58.3801 57.37 58.2301 57.42C58.1401 57.3 58.0501 57.2 57.9401 57.11C57.8501 57.11 57.7601 57.11 57.6801 57.13C58.0001 56.99 58.3401 56.91 58.7001 56.9H58.7401C58.8301 56.9 58.9201 56.9 59.0001 56.9C60.3601 56.94 61.4801 57.46 61.8301 58.85Z" fill="#624341"/>
<path d="M58.7401 58.73C58.6801 58.22 58.5001 57.76 58.2301 57.41C58.3801 57.36 58.5501 57.34 58.7101 57.33H58.7501C58.8301 57.33 58.9001 57.33 58.9801 57.33C60.1401 57.37 60.8301 57.79 61.1201 58.66C60.7601 58.59 60.3901 58.55 60.0101 58.55C59.5901 58.55 59.1601 58.6 58.7401 58.72" fill="#513635"/>
<path d="M55.8301 61.16C55.8301 61.16 55.7401 61.09 55.6901 61.05C55.6301 61 55.5701 60.94 55.5201 60.88C55.4001 60.49 55.3401 60.05 55.3501 59.6C55.3501 59.28 55.4001 59 55.4701 58.75C55.9201 58.09 56.4201 57.6 56.9401 57.26C57.1701 57.19 57.4101 57.14 57.6601 57.12C57.7501 57.12 57.8301 57.11 57.9201 57.1C58.0201 57.19 58.1201 57.29 58.2101 57.41C58.4801 57.76 58.6701 58.22 58.7201 58.73C57.6801 59.03 56.6601 59.75 55.8201 61.16" fill="#E2E1E1"/>
<path d="M48.7201 63.4C48.6601 63.1 48.5901 62.81 48.5301 62.51C48.4601 62.21 48.4001 61.92 48.3301 61.62C48.2601 61.33 48.1801 61.04 48.1001 60.75C48.0201 60.45 47.9201 60.2 47.8201 59.92C47.7601 59.79 47.7001 59.62 47.6301 59.53L47.3901 59.16C47.2201 58.92 47.0501 58.68 46.8501 58.47C46.7601 58.36 46.6601 58.25 46.5501 58.15C46.4501 58.05 46.3501 57.95 46.2301 57.86C46.1201 57.77 46.0101 57.68 45.8901 57.6C45.7701 57.52 45.6601 57.44 45.5301 57.38C45.2901 57.24 45.0201 57.14 44.7601 57.06C44.4901 56.98 44.2201 56.93 43.9401 56.9C43.6601 56.88 43.3801 56.87 43.1001 56.9C42.8201 56.92 42.5401 56.98 42.2601 57.04C41.7001 57.17 41.1601 57.37 40.6301 57.63C40.3701 57.76 40.1101 57.89 39.8601 58.04C39.6101 58.19 39.3601 58.35 39.1401 58.51L39.2801 58.11L39.5001 58.9C39.5701 59.16 39.6701 59.42 39.7601 59.67C39.8501 59.93 39.9401 60.18 40.0601 60.42C40.1801 60.66 40.2701 60.92 40.4101 61.15C40.5501 61.38 40.6501 61.63 40.8201 61.84C40.9801 62.05 41.1101 62.29 41.3001 62.47C41.4801 62.66 41.6401 62.87 41.8501 63.03L42.1501 63.29L42.4801 63.5C42.6901 63.66 42.9401 63.75 43.1801 63.86C43.4201 63.97 43.6801 64.01 43.9301 64.1C44.1901 64.13 44.4601 64.19 44.7201 64.2C44.9901 64.2 45.2601 64.23 45.5301 64.19C45.8001 64.16 46.0801 64.16 46.3401 64.09C46.6101 64.03 46.8901 64 47.1501 63.91C47.4101 63.83 47.6801 63.76 47.9401 63.67L48.7301 63.39L48.7201 63.4ZM48.7201 63.4L47.9801 63.79C47.7301 63.92 47.4601 64.01 47.2001 64.12C46.9401 64.24 46.6601 64.29 46.3901 64.38C46.1201 64.48 45.8401 64.51 45.5601 64.57C45.2801 64.64 44.9901 64.62 44.7001 64.65C44.4101 64.65 44.1201 64.62 43.8301 64.6C43.5501 64.53 43.2501 64.5 42.9701 64.39C42.7001 64.28 42.4101 64.19 42.1601 64.03L41.7801 63.81L41.4301 63.54C41.1801 63.37 40.9901 63.15 40.7901 62.94C40.5701 62.74 40.4201 62.49 40.2401 62.26C40.0501 62.03 39.9301 61.77 39.7801 61.53C39.6201 61.28 39.5101 61.02 39.3901 60.76C39.2601 60.5 39.1601 60.23 39.0601 59.97C38.9601 59.7 38.8501 59.44 38.7801 59.16L38.5401 58.34L38.4701 58.1L38.6801 57.94C38.9501 57.74 39.2001 57.57 39.4801 57.41C39.7501 57.25 40.0301 57.1 40.3101 56.97C40.8801 56.7 41.4801 56.49 42.1001 56.35C42.4101 56.28 42.7301 56.24 43.0501 56.22C43.3701 56.19 43.7001 56.22 44.0201 56.24C44.3401 56.28 44.6601 56.35 44.9701 56.45C45.1201 56.51 45.2801 56.56 45.4201 56.64C45.5701 56.71 45.7101 56.78 45.8501 56.87C45.9901 56.95 46.1201 57.04 46.2501 57.14C46.3801 57.23 46.5001 57.34 46.6201 57.45C46.7401 57.55 46.8501 57.67 46.9601 57.79C47.0701 57.9 47.1701 58.02 47.2601 58.15C47.4601 58.4 47.6201 58.67 47.7801 58.93L48.0001 59.34C48.0901 59.51 48.1201 59.63 48.1801 59.78C48.2701 60.08 48.3501 60.4 48.4001 60.7C48.4601 61 48.5001 61.3 48.5401 61.6C48.6301 62.2 48.6901 62.81 48.7301 63.41L48.7201 63.4Z" fill="#492F2A"/>
<path d="M54.1401 63.4C54.1801 62.8 54.2401 62.19 54.3301 61.59C54.3701 61.29 54.4201 60.99 54.4801 60.69C54.5301 60.39 54.6101 60.07 54.7001 59.77C54.7601 59.62 54.7901 59.5 54.8801 59.33L55.1001 58.92C55.2601 58.65 55.4201 58.38 55.6201 58.14C55.7101 58.01 55.8101 57.89 55.9201 57.78C56.0301 57.66 56.1301 57.54 56.2601 57.44C56.3801 57.33 56.5001 57.22 56.6301 57.13C56.7601 57.03 56.8901 56.94 57.0301 56.86C57.1701 56.77 57.3101 56.7 57.4601 56.63C57.6001 56.55 57.7601 56.5 57.9101 56.44C58.2201 56.33 58.5401 56.27 58.8601 56.23C59.1801 56.2 59.5101 56.18 59.8301 56.21C60.1501 56.23 60.4701 56.28 60.7801 56.34C61.4001 56.48 62.0001 56.69 62.5701 56.96C62.8601 57.09 63.1301 57.24 63.4001 57.4C63.6701 57.56 63.9301 57.73 64.2001 57.93L64.4101 58.09L64.3401 58.33L64.1001 59.15C64.0301 59.43 63.9201 59.69 63.8201 59.96C63.7201 60.23 63.6201 60.5 63.4901 60.75C63.3601 61.01 63.2601 61.27 63.1001 61.52C62.9401 61.77 62.8201 62.03 62.6301 62.25C62.4501 62.48 62.3001 62.73 62.0801 62.93C61.8801 63.14 61.6801 63.36 61.4401 63.53L61.0901 63.8L60.7001 64.02C60.4501 64.18 60.1701 64.27 59.8901 64.38C59.6201 64.49 59.3201 64.52 59.0401 64.59C58.7501 64.61 58.4601 64.65 58.1701 64.64C57.8801 64.61 57.5901 64.63 57.3101 64.56C57.0301 64.5 56.7401 64.47 56.4801 64.37C56.2101 64.28 55.9301 64.22 55.6801 64.11C55.4201 64 55.1501 63.91 54.9001 63.78L54.1601 63.39L54.1401 63.4ZM54.1401 63.4L54.9301 63.68C55.1901 63.78 55.4601 63.84 55.7201 63.92C55.9801 64.01 56.2601 64.04 56.5301 64.1C56.8001 64.17 57.0701 64.17 57.3401 64.2C57.6101 64.24 57.8801 64.2 58.1501 64.21C58.4201 64.2 58.6801 64.14 58.9401 64.11C59.1901 64.02 59.4501 63.98 59.6901 63.87C59.9301 63.76 60.1801 63.67 60.3901 63.51L60.7201 63.3L61.0201 63.04C61.2301 62.88 61.3901 62.67 61.5701 62.48C61.7601 62.3 61.8901 62.05 62.0501 61.85C62.2101 61.64 62.3201 61.39 62.4601 61.16C62.6001 60.93 62.6901 60.67 62.8101 60.43C62.9301 60.19 63.0201 59.93 63.1101 59.68C63.2001 59.43 63.3001 59.17 63.3701 58.91L63.5901 58.12L63.7301 58.52C63.5101 58.36 63.2601 58.2 63.0101 58.05C62.7601 57.9 62.5001 57.76 62.2401 57.64C61.7201 57.39 61.1701 57.19 60.6101 57.05C60.3301 56.99 60.0501 56.93 59.7701 56.91C59.4901 56.88 59.2101 56.88 58.9301 56.91C58.6501 56.94 58.3801 56.99 58.1101 57.07C57.8401 57.16 57.5801 57.25 57.3401 57.39C57.2101 57.45 57.0901 57.53 56.9801 57.61C56.8601 57.69 56.7501 57.78 56.6401 57.87C56.5301 57.96 56.4201 58.06 56.3201 58.16C56.2101 58.26 56.1201 58.37 56.0201 58.48C55.8201 58.69 55.6501 58.93 55.4801 59.17L55.2401 59.54C55.1801 59.63 55.1101 59.8 55.0501 59.93C54.9401 60.21 54.8501 60.46 54.7701 60.76C54.6801 61.05 54.6101 61.34 54.5401 61.63C54.4701 61.92 54.4001 62.22 54.3401 62.52C54.2701 62.82 54.2101 63.11 54.1501 63.41L54.1401 63.4Z" fill="#492F2A"/>
<path d="M55.8401 65.92C55.2301 65.08 54.1602 63.41 54.1602 63.41C54.1602 63.41 52.2902 61.69 51.4402 61.67C50.5902 61.69 48.7202 63.41 48.7202 63.41C48.7202 63.41 47.6501 65.09 47.0401 65.92C46.4301 66.76 44.8701 69.44 45.2601 70.91C45.6501 72.38 48.8102 75.11 51.3502 74.94C51.3802 74.94 51.4101 74.94 51.4301 74.94C51.4601 74.94 51.4901 74.94 51.5101 74.94C54.0501 75.11 57.2102 72.38 57.6002 70.91C57.9902 69.44 56.4302 66.76 55.8202 65.92H55.8401Z" fill="#BB9975"/>
<path d="M47.2701 67.71C46.8001 68.39 46.7201 69.6 47.0701 69.84C47.4301 70.08 48.1501 69.64 48.6101 68.96C49.0801 68.28 49.1001 67.16 48.7501 66.92C48.3901 66.68 47.7301 67.03 47.2601 67.71H47.2701Z" fill="#77604E"/>
<path d="M55.6801 67.71C56.1501 68.39 56.2701 69.57 55.9201 69.81C55.5701 70.05 54.8601 69.73 54.4001 69.05C53.9301 68.37 53.8401 67.17 54.2001 66.92C54.5601 66.68 55.2201 67.03 55.6901 67.71H55.6801Z" fill="#77604E"/>
<path d="M44.1101 46.52C44.1101 46.52 40.3401 43.13 38.1801 42.57C36.0201 42.01 29.7301 40.39 31.3701 34.35C31.3701 34.35 32.1101 31.37 33.6001 29.92C33.6001 29.92 33.9001 28.32 31.2901 30.48C28.6801 32.64 28.0901 36.07 28.8301 38.71C29.5701 41.35 28.5901 41.91 27.4301 42.1C26.2601 42.29 24.3101 41.97 23.3101 41.19C22.3001 40.41 20.8401 38.8601 20.3501 34.2801C19.8701 29.7001 20.4901 28.1401 20.0501 28.0301C19.6001 27.9201 19.3401 28.22 18.6701 29.15C18.0001 30.08 17.6701 34.79 18.0001 36.42C18.3401 38.05 18.2401 38.96 17.7301 39.08C15.6701 39.58 15.7201 37.13 14.8701 32.47C14.8001 32.07 14.0901 31.99 13.4501 33.25C12.8201 34.52 13.7501 37.46 13.9701 38.27C14.1901 39.09 14.3001 39.88 13.2301 40.25C12.1001 40.64 10.0801 41 8.7001 39.47C7.3201 37.94 5.9301 34.66 6.2601 32.8C6.2601 32.8 5.85011 31.35 4.96011 33.69C4.07011 36.04 5.64011 40.6301 7.49011 42.5901C10.5901 45.8701 16.4301 45.83 17.8801 45.75C19.3301 45.67 31.9801 44.89 34.2101 45.06C38.9401 45.41 39.3101 47.31 40.9401 47.98C42.5801 48.65 44.7701 47.08 44.0901 46.52H44.1101Z" fill="#D3BB70"/>
<path d="M46.5901 67.31C46.5901 67.31 46.6801 67.11 46.8801 66.85C46.9801 66.72 47.1201 66.58 47.2801 66.45C47.4401 66.31 47.6401 66.2 47.8501 66.11C47.9601 66.07 48.0701 66.04 48.1801 66.02C48.2901 66.02 48.4101 65.99 48.5201 66.02C48.6301 66.03 48.7301 66.0501 48.8201 66.0901C48.9101 66.1201 49.0001 66.16 49.0701 66.21C49.1401 66.26 49.2101 66.3001 49.2501 66.3401C49.3001 66.3901 49.3401 66.43 49.3701 66.47C49.4401 66.54 49.4701 66.58 49.4701 66.58C49.4701 66.58 49.4201 66.56 49.3401 66.51C49.3001 66.49 49.2501 66.46 49.2001 66.43C49.1401 66.4 49.0701 66.38 49.0001 66.35C48.9301 66.32 48.8501 66.3001 48.7701 66.2801C48.6901 66.2601 48.6001 66.25 48.5101 66.25C48.4201 66.23 48.3301 66.2701 48.2301 66.2801C48.1401 66.3001 48.0401 66.33 47.9501 66.36C47.7601 66.43 47.5901 66.53 47.4301 66.64C47.2701 66.74 47.1201 66.86 47.0001 66.95C46.7501 67.15 46.6001 67.3 46.6001 67.3L46.5901 67.31Z" fill="#492F2A"/>
<path d="M56.2601 67.31C56.2601 67.31 56.1001 67.16 55.8601 66.96C55.7401 66.86 55.5901 66.75 55.4301 66.65C55.2701 66.54 55.0901 66.44 54.9101 66.37C54.8201 66.34 54.7201 66.31 54.6301 66.29C54.5401 66.29 54.4401 66.25 54.3501 66.26C54.2601 66.26 54.1701 66.26 54.0901 66.29C54.0101 66.31 53.9301 66.32 53.8601 66.36C53.7901 66.39 53.7201 66.41 53.6601 66.44C53.6001 66.47 53.5601 66.5 53.5201 66.52C53.4401 66.57 53.3901 66.59 53.3901 66.59C53.3901 66.59 53.4201 66.55 53.4901 66.48C53.5201 66.44 53.5601 66.4 53.6101 66.35C53.6601 66.3 53.7201 66.2599 53.7901 66.2199C53.8601 66.1699 53.9401 66.13 54.0401 66.1C54.1301 66.06 54.2301 66.04 54.3401 66.03C54.4501 66.01 54.5601 66.03 54.6801 66.03C54.7901 66.05 54.9001 66.08 55.0101 66.12C55.2201 66.21 55.4201 66.32 55.5801 66.46C55.7401 66.59 55.8801 66.73 55.9801 66.86C56.1801 67.12 56.2701 67.32 56.2701 67.32L56.2601 67.31Z" fill="#492F2A"/>
<path d="M47.2701 68.17C46.8001 68.85 46.7201 69.6 47.0701 69.84C47.4301 70.08 48.0901 69.73 48.5601 69.05C49.0301 68.37 49.1101 67.63 48.7601 67.38C48.4001 67.14 47.7401 67.49 47.2701 68.16V68.17Z" fill="#281818"/>
<path d="M55.6801 68.17C56.1501 68.85 56.2301 69.6 55.8801 69.84C55.5301 70.08 54.8601 69.73 54.3901 69.05C53.9201 68.37 53.8401 67.63 54.1901 67.38C54.5501 67.14 55.2101 67.49 55.6801 68.16V68.17Z" fill="#281818"/>
<path d="M46.9701 70.91C46.9701 70.91 46.9601 70.95 46.9701 71.03C46.9701 71.11 46.9901 71.22 47.0301 71.35C47.0901 71.48 47.1701 71.62 47.3201 71.74C47.3801 71.81 47.4801 71.86 47.5601 71.92C47.6601 71.97 47.7501 72.02 47.8601 72.08C47.9701 72.12 48.0901 72.16 48.2101 72.21C48.3301 72.24 48.4601 72.28 48.6001 72.31C48.7301 72.35 48.8801 72.36 49.0201 72.38C49.1601 72.41 49.3101 72.43 49.4601 72.44C49.6101 72.46 49.7601 72.47 49.9201 72.48C50.0801 72.48 50.2301 72.49 50.3901 72.5C50.7101 72.52 51.0301 72.5 51.3601 72.5C51.6901 72.5 52.0001 72.5 52.3201 72.47C52.6401 72.44 52.9501 72.42 53.2501 72.38C53.8501 72.29 54.4001 72.18 54.8401 71.98C55.0601 71.88 55.2501 71.78 55.4001 71.66C55.5501 71.54 55.6501 71.41 55.7201 71.29C55.7801 71.17 55.8201 71.06 55.8301 70.99C55.8401 70.91 55.8501 70.87 55.8501 70.87C55.8501 70.87 55.8501 70.91 55.8501 70.99C55.8501 71.07 55.8401 71.18 55.7801 71.32C55.7201 71.46 55.6301 71.61 55.4801 71.76C55.3301 71.91 55.1401 72.05 54.9201 72.16C54.4701 72.39 53.9101 72.58 53.3001 72.69C52.9901 72.75 52.6801 72.79 52.3501 72.82C52.0301 72.85 51.6901 72.87 51.3601 72.86C51.0301 72.86 50.7001 72.86 50.3701 72.84C50.0401 72.82 49.7201 72.79 49.4201 72.74C49.1101 72.71 48.8201 72.62 48.5401 72.55C48.4001 72.5 48.2701 72.46 48.1401 72.42C48.0201 72.36 47.9001 72.31 47.7801 72.26C47.6701 72.19 47.5601 72.13 47.4701 72.06C47.3801 71.98 47.2901 71.92 47.2301 71.83C47.0901 71.67 47.0101 71.5 46.9701 71.36C46.9401 71.21 46.9401 71.1 46.9601 71.02C46.9701 70.94 46.9901 70.9 46.9901 70.9L46.9701 70.91Z" fill="#492F2A"/>
<path d="M59.5702 46.52C59.5702 46.52 61.2302 41.02 64.7702 39.28C66.7702 38.3 72.4902 36.09 70.0302 30.35C70.0302 30.35 68.8802 27.5 67.2002 26.27C67.2002 26.27 66.6802 24.73 69.5602 26.5C72.4402 28.28 73.5102 31.59 73.1402 34.31C72.7702 37.03 73.8202 37.45 75.0002 37.47C76.1802 37.49 78.0702 36.91 78.9502 36C79.8402 35.08 81.0802 33.35 80.9202 28.75C80.7602 24.15 79.9302 22.69 80.3502 22.51C80.7802 22.34 81.0802 22.6 81.8702 23.43C82.6602 24.26 83.6502 28.87 83.5402 30.54C83.4302 32.2 83.6502 33.09 84.1702 33.14C86.2802 33.35 85.8902 30.93 86.0902 26.19C86.1102 25.79 86.8002 25.6 87.6002 26.77C88.4002 27.94 87.8902 30.98 87.7802 31.82C87.6702 32.66 87.6802 33.46 88.7802 33.67C89.9602 33.9 92.0102 33.97 93.1602 32.27C94.3102 30.57 95.2402 27.12 94.6502 25.33C94.6502 25.33 94.8502 23.84 96.0602 26.03C97.2702 28.23 96.3502 37.45 94.7902 39.65C92.1702 43.33 86.3902 44.1 84.9402 44.23C83.4902 44.36 71.3202 43.28 69.1302 43.76C64.4902 44.77 64.0302 46.37 62.5002 47.27C60.9702 48.16 58.9502 47.18 59.5502 46.54L59.5702 46.52Z" fill="#8C7F5E"/>
<path d="M58.7101 46.52C58.7101 46.52 62.4801 43.13 64.6401 42.57C66.8001 42.01 73.0901 40.39 71.4501 34.36C71.4501 34.36 70.7101 31.38 69.2201 29.93C69.2201 29.93 68.9201 28.33 71.5301 30.49C74.1401 32.65 74.7301 36.07 73.9901 38.72C73.2501 41.36 74.2301 41.92 75.3901 42.11C76.5601 42.3 78.5101 41.98 79.5101 41.2C80.5101 40.42 81.9801 38.87 82.4701 34.29C82.9501 29.71 82.3301 28.15 82.7701 28.04C83.2201 27.93 83.4801 28.23 84.1501 29.16C84.8201 30.09 85.1601 34.8 84.8201 36.43C84.4801 38.06 84.5801 38.9601 85.0901 39.0901C87.1501 39.5901 87.1001 37.14 87.9501 32.48C88.0201 32.08 88.7301 32 89.3601 33.26C89.9901 34.53 89.0601 37.47 88.8401 38.29C88.6201 39.11 88.5101 39.89 89.5801 40.26C90.7101 40.65 92.7301 41.01 94.1101 39.48C95.4901 37.95 96.8801 34.67 96.5501 32.81C96.5501 32.81 96.9601 31.36 97.8501 33.71C98.7401 36.05 97.1701 40.65 95.3201 42.61C92.2201 45.89 86.3901 45.8501 84.9301 45.7801C83.4801 45.7001 70.8301 44.92 68.6001 45.09C63.8701 45.44 63.5101 47.34 61.8701 48.01C60.2301 48.68 58.0401 47.11 58.7201 46.56L58.7101 46.52Z" fill="#D3BB70"/>
</svg>
