<svg width="102" height="102" viewBox="0 0 102 102" fill="none" xmlns="http://www.w3.org/2000/svg">
<path d="M92.87 0.77002H9.28C4.49169 0.77002 0.609985 4.65171 0.609985 9.44002V93.03C0.609985 97.8183 4.49169 101.7 9.28 101.7H92.87C97.6583 101.7 101.54 97.8183 101.54 93.03V9.44002C101.54 4.65171 97.6583 0.77002 92.87 0.77002Z" fill="#DBBD64"/>
<path d="M51.69 79.61C44.38 79.61 32.74 73.49 28.69 65.6C27.93 64.13 27.45 62.62 27.25 61.11C27.18 60.57 27.14 60.07 27.14 59.57C27.14 56.04 28.17 51.98 30.21 47.5C29.98 46.95 29.46 46.24 28.3 45.79C24.97 44.5 22.24 41.86 20.81 38.52C18.9 35.37 17.56 30.34 21.77 24.1C21.83 24.02 21.89 23.94 21.97 23.87C24.22 21.78 26.44 20.72 28.57 20.72C31.98 20.72 34.96 23.43 36.96 28.34L37 28.43C37.82 30.42 39.74 34.66 40.27 35.32C40.56 35.68 40.86 35.99 41.17 36.26C44.62 35.03 47.94 34.37 51.04 34.29C51.25 34.29 51.48 34.28 51.7 34.28C51.92 34.28 52.12 34.28 52.33 34.29C56.15 34.4 59.98 35.5 62.74 36.51C62.93 36.32 63.11 36.12 63.28 35.91C63.82 35.24 65.73 31.01 66.55 29.02L66.59 28.93C68.59 24.02 71.57 21.31 74.98 21.31C77.11 21.31 79.33 22.37 81.58 24.46C81.65 24.53 81.72 24.61 81.78 24.69C85.99 30.93 84.65 35.96 82.74 39.1C81.3 42.44 78.57 45.09 75.25 46.37C74.19 46.78 73.66 47.4 73.4 47.94C75.3 52.24 76.27 56.15 76.27 59.55C76.27 59.87 76.25 60.21 76.22 60.62C76.21 60.78 76.2 60.91 76.18 61.04C75.96 62.86 75.36 64.66 74.41 66.38C74.39 66.41 74.38 66.44 74.36 66.46C69.97 74.38 59.37 79.44 52.04 79.58C52.04 79.58 52.02 79.58 52.01 79.58H51.71L51.69 79.61Z" fill="#2F150C"/>
<path d="M80.65 25.45C72.34 17.72 68.27 28.35 67.79 29.53C67.31 30.71 65.1 35.8 64.32 36.76C63.87 37.31 63.44 37.73 63.02 38.06C60.14 36.94 56.19 35.74 52.28 35.63C52.08 35.63 51.89 35.62 51.69 35.62C51.48 35.62 51.28 35.62 51.07 35.63C47.29 35.73 43.67 36.75 40.93 37.78C40.4 37.41 39.82 36.9 39.22 36.17C38.44 35.21 36.23 30.12 35.75 28.94C35.26 27.76 31.2 17.13 22.89 24.86C19.35 30.09 19.96 34.56 22.01 37.91C23.38 41.16 25.97 43.45 28.79 44.54C30.89 45.35 31.49 46.86 31.66 47.59C30 51.14 28.49 55.49 28.49 59.57C28.49 60.02 28.52 60.48 28.59 60.93C28.77 62.33 29.23 63.68 29.89 64.98C33.83 72.67 45.24 78.26 51.69 78.26H51.99C59.21 78.12 69.27 72.94 73.2 65.76C74.06 64.21 74.62 62.58 74.82 60.88C74.84 60.77 74.85 60.64 74.86 60.53C74.89 60.21 74.9 59.89 74.9 59.57C74.9 55.64 73.51 51.48 71.92 48C72.14 47.22 72.8 45.87 74.74 45.12C77.56 44.03 80.15 41.74 81.52 38.49C83.58 35.15 84.18 30.68 80.64 25.45H80.65Z" fill="#2F150C"/>
<path d="M66.59 45.01C66.59 45.01 71.5 47.24 71.81 48.59C71.81 48.59 71.92 46.22 74.74 45.13C77.56 44.04 80.15 41.74 81.52 38.49C82.89 35.24 69.39 42.65 66.58 45.01H66.59Z" fill="#C9C9C9"/>
<path d="M74.9 59.57C74.9 59.89 74.88 60.21 74.86 60.53C74.86 60.64 74.84 60.77 74.82 60.88C74.62 62.58 74.06 64.21 73.2 65.75C69.27 72.95 59.21 78.12 51.99 78.26H51.69C45.24 78.26 33.83 72.66 29.89 64.98C29.22 63.69 28.77 62.33 28.59 60.93C28.53 60.47 28.49 60.02 28.49 59.57C28.49 50.46 35.98 40.05 35.98 40.05C35.98 40.05 43.56 35.63 51.69 35.63C59.36 35.63 67.41 40.05 67.41 40.05C67.41 40.05 74.9 50.46 74.9 59.57Z" fill="#C9C9C9"/>
<path d="M72.95 59.82C72.95 60.12 72.9499 60.42 72.9099 60.71C72.9099 60.82 72.8899 60.93 72.8799 61.04C72.6299 63.47 71.6399 65.77 70.1899 67.84C65.9199 73.93 57.6199 78.11 51.9899 78.25H51.6899C48.2499 78.25 43.1 76.18 38.89 73.09C36.53 71.37 34.5899 69.43 33.1799 67.43C31.6899 65.33 30.7699 63.15 30.5099 61.05C30.4599 60.64 30.4299 60.23 30.4299 59.81C30.4299 51.57 36.0999 41.95 37.3399 39.95C38.8799 39.04 45.1699 35.61 51.6899 35.61C57.8399 35.61 64.4099 39.05 66.0499 39.97C67.3099 42.01 72.95 51.59 72.95 59.81" fill="#D8D8D8"/>
<path d="M32.8199 56.01C32.8199 56.01 37.2999 65.2799 41.1499 65.2799C44.0899 65.2799 47.7699 63.7699 47.7699 63.7699C47.7699 63.7699 49.3299 48.3299 40.8099 47.8299C36.9699 47.6099 32.8299 56.01 32.8299 56.01" fill="#C9C9C9"/>
<path d="M57.3799 46.3201C56.1699 43.4201 51.9599 43.3 51.9599 43.3H51.4099C51.4099 43.3 47.1999 43.4301 45.9899 46.3201C44.7799 49.2201 46.7999 52.1601 47.9599 53.6501C49.1199 55.1401 50.0499 59.8101 49.9799 60.0101C49.9099 60.2101 50.5199 61.04 51.3999 61.08C51.5299 61.08 51.8299 61.08 51.9499 61.08C52.8299 61.04 53.4399 60.2001 53.3699 60.0101C53.2999 59.8101 54.2299 55.1401 55.3899 53.6501C56.5599 52.1601 58.5699 49.2101 57.3599 46.3201H57.3799Z" fill="white"/>
<path d="M70.63 56.01C70.63 56.01 66.1499 65.2799 62.2999 65.2799C59.3599 65.2799 55.6799 63.7699 55.6799 63.7699C55.6799 63.7699 54.12 48.3299 62.64 47.8299C66.48 47.6099 70.63 56.01 70.63 56.01Z" fill="#C9C9C9"/>
<path d="M47.77 63.77C40.7 67.14 35.72 64.96 33.47 56.22C33.47 56.22 41.98 49.61 46.5 58.09C47.2 59.41 47.77 63.77 47.77 63.77Z" fill="white"/>
<path d="M40.93 64.33C38.96 64.29 37.32 62.7301 36.69 60.5701C36.49 59.9101 36.39 59.1901 36.41 58.4501C36.47 55.4401 38.34 54.37 40.7 54.3C40.85 54.3 40.99 54.3 41.14 54.3C43.7 54.36 45.65 57.0201 45.69 58.6501C45.78 61.8401 43.49 64.3901 40.93 64.3401" fill="#64413F"/>
<path d="M40.95 63.5199C39.46 63.4899 38.16 62.2099 37.62 60.2799C37.45 59.6599 37.37 59.0099 37.38 58.3399C37.42 56.0899 38.49 55.02 40.73 54.95C40.84 54.95 40.95 54.95 41.07 54.95H41.13C43.15 55 44.69 57.3499 44.72 58.5599C44.76 60.0199 44.27 61.4099 43.38 62.3799C42.7 63.1199 41.86 63.5299 41.01 63.5299H40.95" fill="#4F3231"/>
<path d="M55.6599 63.77C62.7299 67.14 67.7099 64.96 69.9599 56.22C69.9599 56.22 61.4499 49.61 56.9299 58.09C56.2299 59.41 55.6599 63.77 55.6599 63.77Z" fill="white"/>
<path d="M62.5 64.33C64.47 64.29 66.11 62.7301 66.74 60.5701C66.94 59.9101 67.04 59.1901 67.02 58.4501C66.96 55.4401 65.09 54.37 62.73 54.3C62.58 54.3 62.44 54.3 62.29 54.3C59.73 54.36 57.78 57.0201 57.74 58.6501C57.65 61.8401 59.94 64.3901 62.5 64.3401" fill="#64413F"/>
<path d="M62.4201 63.5199C61.5701 63.5199 60.73 63.1099 60.05 62.3699C59.16 61.3999 58.67 60.0099 58.71 58.5499C58.74 57.3399 60.28 54.9799 62.31 54.9399H62.36C62.47 54.9399 62.5901 54.9399 62.7001 54.9399C64.9401 55.0099 66.0001 56.0899 66.0401 58.3299C66.0501 58.9999 65.97 59.6499 65.8 60.2599C65.27 62.1999 63.96 63.4799 62.47 63.5099H62.41" fill="#4F3231"/>
<path d="M41.24 57.2401C41.2 59.1701 39.91 60.7201 38.35 60.6901C37.65 60.6801 37.01 60.34 36.53 59.8C36.36 59.22 36.27 58.5901 36.29 57.9401C36.35 55.3001 37.98 54.36 40.05 54.3C40.79 54.94 41.27 56.0301 41.24 57.2401Z" fill="white"/>
<path d="M43.68 62.84C43.66 63.49 43.23 64.02 42.7 64.01C42.17 64 41.76 63.46 41.77 62.8C41.78 62.14 42.22 61.62 42.75 61.63C43.28 61.64 43.69 62.18 43.68 62.84Z" fill="white"/>
<path d="M70.1799 67.85C65.9099 73.94 57.6099 78.12 51.9799 78.26H51.6799C48.2399 78.26 43.0899 76.19 38.8799 73.1C36.5199 71.38 34.5799 69.44 33.1699 67.44C35.6899 69.06 38.9299 70.6 41.2299 70.04C43.2699 69.55 45.3699 68.64 47.2699 67.85C49.1599 67.05 50.8399 66.37 51.9899 66.34C54.2999 66.41 58.6799 69.07 62.7399 70.06C64.8499 70.57 67.7599 69.31 70.1699 67.86" fill="white"/>
<path d="M62.38 57.53C62.34 59.47 61.05 61.01 59.49 60.98C58.79 60.96 58.16 60.63 57.67 60.09C57.5 59.51 57.41 58.88 57.43 58.23C57.49 55.59 59.12 54.65 61.19 54.59C61.93 55.23 62.41 56.32 62.38 57.53Z" fill="white"/>
<path d="M65.01 62.84C65 63.49 64.56 64.02 64.03 64.01C63.5 64 63.09 63.46 63.1 62.8C63.11 62.14 63.55 61.62 64.08 61.63C64.61 61.64 65.02 62.18 65.01 62.84Z" fill="white"/>
<path d="M46.5 64.33C46.92 64.16 47.34 63.98 47.77 63.77C47.34 63.98 46.91 64.16 46.5 64.33Z" fill="#C5C5C5"/>
<path d="M47.45 61.73C47.22 60.41 46.88 58.81 46.5 58.09C44.73 54.78 42.36 53.77 40.12 53.77C36.63 53.77 33.47 56.22 33.47 56.22C33.6 56.72 33.73 57.19 33.88 57.65C33.73 57.2 33.6 56.72 33.47 56.22C33.47 56.22 36.63 53.77 40.12 53.77C42.36 53.77 44.73 54.78 46.5 58.09C46.88 58.8 47.22 60.4 47.45 61.73Z" fill="#B9B8B8"/>
<path d="M46.49 64.33C46.26 63.08 45.94 61.68 45.6 61.04C45.54 60.92 45.47 60.8 45.41 60.69C45.61 60.06 45.71 59.37 45.69 58.65C45.65 57.02 43.7 54.35 41.14 54.3C41.12 54.3 41.1 54.3 41.07 54.3C40.95 54.3 40.82 54.3 40.7 54.3C40.49 54.3 40.29 54.32 40.09 54.34C40.08 54.33 40.06 54.32 40.05 54.31C38.19 54.37 36.67 55.13 36.35 57.22C35.47 57.51 34.69 57.88 34.07 58.23C34 58.05 33.94 57.86 33.88 57.67C33.73 57.22 33.6 56.74 33.47 56.24C33.47 56.24 36.63 53.79 40.12 53.79C42.36 53.79 44.73 54.8 46.5 58.11C46.88 58.82 47.22 60.42 47.45 61.75C47.64 62.85 47.76 63.76 47.77 63.8C47.34 64.01 46.91 64.19 46.5 64.35" fill="#E2E1E1"/>
<path d="M45.41 60.69C45.17 60.27 44.92 59.89 44.66 59.55C44.71 59.22 44.73 58.89 44.72 58.55C44.69 57.34 43.15 54.98 41.13 54.94H41.07C40.96 54.94 40.85 54.94 40.73 54.94C40.69 54.94 40.65 54.94 40.61 54.94C40.46 54.71 40.28 54.5 40.09 54.33C40.29 54.31 40.49 54.29 40.7 54.29C40.82 54.29 40.95 54.29 41.07 54.29C41.09 54.29 41.11 54.29 41.14 54.29C43.7 54.35 45.65 57.01 45.69 58.64C45.71 59.36 45.61 60.05 45.41 60.68" fill="#624341"/>
<path d="M44.66 59.5499C43.62 58.1799 42.44 57.3999 41.24 57.0199C41.22 56.2399 40.99 55.52 40.61 54.95C40.65 54.95 40.69 54.95 40.73 54.95C40.84 54.95 40.95 54.95 41.07 54.95H41.13C43.15 55 44.69 57.3499 44.72 58.5599C44.72 58.8999 44.71 59.2299 44.66 59.5599" fill="#513635"/>
<path d="M36.35 57.2101C36.67 55.1301 38.19 54.36 40.05 54.3C40.06 54.31 40.08 54.32 40.09 54.33C40.29 54.51 40.46 54.7101 40.61 54.9401C40.98 55.5101 41.21 56.2301 41.24 57.0101C40.57 56.8001 39.89 56.7101 39.23 56.7101C38.22 56.7101 37.24 56.9201 36.35 57.2101Z" fill="#E2E1E1"/>
<path d="M56.9399 64.33C56.5299 64.17 56.0999 63.98 55.6699 63.78C55.6699 63.78 55.6699 63.74 55.6899 63.67C55.6899 63.74 55.6799 63.78 55.6799 63.78C56.1099 63.99 56.5399 64.17 56.9499 64.33" fill="#C5C5C5"/>
<path d="M55.6799 63.67C55.7699 62.98 56.2999 59.29 56.9299 58.09C57.1399 57.69 57.3699 57.32 57.5999 56.98C57.3699 57.31 57.1499 57.68 56.9399 58.08C56.3099 59.27 55.7799 62.97 55.6799 63.65" fill="#B9B8B8"/>
<path d="M56.9399 64.33C56.5199 64.17 56.0999 63.98 55.6699 63.78C55.6699 63.78 55.6699 63.74 55.6799 63.67C55.7699 62.99 56.2999 59.29 56.9399 58.1C57.1499 57.7 57.3699 57.33 57.5999 57C57.4999 57.36 57.4399 57.78 57.4299 58.24C57.4199 58.89 57.4999 59.52 57.6699 60.1C57.7499 60.19 57.8299 60.27 57.9199 60.35C57.9499 60.47 57.9799 60.58 58.0199 60.69C57.9599 60.8 57.8899 60.92 57.8299 61.04C57.4899 61.69 57.1699 63.09 56.9399 64.33Z" fill="#E2E1E1"/>
<path d="M58.0199 60.69C57.9799 60.58 57.9499 60.46 57.9199 60.35C57.9899 60.41 58.0499 60.46 58.1199 60.51C58.0799 60.57 58.0499 60.63 58.0099 60.69" fill="#624341"/>
<path d="M69.53 57.73C69.68 57.25 69.83 56.75 69.96 56.23C69.82 56.75 69.68 57.26 69.52 57.73" fill="#B9B8B8"/>
<path d="M69.36 58.22C68.69 57.85 67.82 57.44 66.85 57.14C66.34 55.12 64.7 54.35 62.72 54.29C62.6 54.29 62.47 54.29 62.35 54.29C62.33 54.29 62.3 54.29 62.28 54.29C61.76 54.3 61.26 54.42 60.8 54.62C60.43 54.65 60.08 54.72 59.75 54.82C60.9 54.06 62.12 53.78 63.31 53.78C66.8 53.78 69.96 56.23 69.96 56.23C69.83 56.76 69.68 57.26 69.53 57.73C69.48 57.9 69.42 58.06 69.37 58.22" fill="#E2E1E1"/>
<path d="M66.8599 57.14C66.5299 57.04 66.1799 56.95 65.8299 56.88C65.4099 55.62 64.3899 55 62.7099 54.94C62.5999 54.94 62.4799 54.94 62.3699 54.94H62.3199C62.0799 54.94 61.8499 54.98 61.6199 55.05C61.4899 54.88 61.35 54.73 61.2 54.6C61.07 54.6 60.9399 54.61 60.8199 54.62C61.2799 54.42 61.7799 54.3 62.2999 54.29C62.3199 54.29 62.3399 54.29 62.3699 54.29C62.4999 54.29 62.6199 54.29 62.7399 54.29C64.7199 54.35 66.3499 55.11 66.8699 57.14" fill="#624341"/>
<path d="M62.35 56.9699C62.27 56.2299 62 55.5599 61.61 55.0499C61.84 54.9899 62.07 54.9499 62.31 54.9399H62.36C62.47 54.9399 62.59 54.9399 62.7 54.9399C64.38 54.9899 65.4 55.6099 65.82 56.8799C65.3 56.7799 64.75 56.7199 64.2 56.7199C63.59 56.7199 62.97 56.7999 62.35 56.9699Z" fill="#513635"/>
<path d="M58.12 60.51C58.05 60.46 57.98 60.4 57.92 60.35C57.83 60.27 57.75 60.19 57.67 60.1C57.5 59.52 57.41 58.89 57.43 58.24C57.44 57.78 57.5 57.36 57.6 57C58.26 56.04 58.99 55.33 59.75 54.83C60.08 54.73 60.43 54.67 60.8 54.63C60.93 54.62 61.05 54.61 61.18 54.61C61.33 54.74 61.47 54.89 61.6 55.06C62 55.58 62.26 56.24 62.34 56.98C60.83 57.41 59.34 58.46 58.11 60.52" fill="#E2E1E1"/>
<path d="M47.7699 63.77C47.6799 63.34 47.5799 62.91 47.4899 62.47C47.3899 62.04 47.3 61.61 47.2 61.18C47.1 60.75 46.9899 60.33 46.8599 59.91C46.7399 59.48 46.6 59.1 46.45 58.7C46.36 58.51 46.2699 58.27 46.1799 58.13L45.8399 57.58C45.5899 57.23 45.3499 56.88 45.0599 56.57C44.9299 56.41 44.7799 56.25 44.6299 56.11C44.4799 55.96 44.33 55.81 44.17 55.69C44.01 55.56 43.85 55.42 43.67 55.32C43.5 55.2 43.33 55.09 43.14 55C42.78 54.79 42.3999 54.66 42.0099 54.53C41.6199 54.41 41.2199 54.34 40.8099 54.3C40.3999 54.27 39.9899 54.26 39.5799 54.3C39.1699 54.33 38.7599 54.41 38.3599 54.5C37.5499 54.69 36.7499 54.98 35.9899 55.35C35.6099 55.53 35.2299 55.74 34.8699 55.95C34.5099 56.16 34.1399 56.4 33.8199 56.64L34.0199 56.06L34.3499 57.21C34.4499 57.6 34.5899 57.96 34.7299 58.33C34.8599 58.71 34.99 59.08 35.17 59.43C35.34 59.78 35.47 60.16 35.67 60.49C35.87 60.82 36.0199 61.19 36.2599 61.5C36.4899 61.8 36.6799 62.16 36.9599 62.42C37.2199 62.7 37.4599 63.01 37.7599 63.24L38.1899 63.62L38.67 63.93C38.98 64.16 39.3399 64.29 39.6899 64.45C40.0399 64.61 40.4199 64.67 40.7899 64.79C41.1699 64.84 41.56 64.92 41.95 64.93C42.34 64.93 42.7399 64.97 43.1299 64.91C43.5199 64.86 43.9299 64.86 44.3099 64.77C44.6999 64.68 45.0999 64.64 45.4799 64.51C45.8599 64.39 46.26 64.3 46.64 64.16L47.7899 63.75L47.7699 63.77ZM47.7699 63.77L46.6899 64.33C46.3299 64.51 45.9399 64.65 45.5599 64.8C45.1799 64.97 44.7799 65.05 44.3799 65.19C43.9899 65.33 43.57 65.37 43.17 65.46C42.76 65.56 42.34 65.54 41.92 65.58C41.5 65.58 41.0799 65.54 40.6499 65.51C40.2399 65.41 39.7999 65.37 39.3999 65.21C38.9999 65.05 38.5899 64.92 38.2199 64.68L37.6599 64.35L37.1499 63.95C36.7899 63.7 36.5099 63.38 36.2099 63.07C35.8899 62.77 35.6799 62.41 35.4099 62.07C35.1399 61.74 34.9599 61.36 34.7299 61C34.4999 60.64 34.3399 60.25 34.1599 59.88C33.9699 59.5 33.8199 59.11 33.6799 58.72C33.5399 58.33 33.3799 57.94 33.2699 57.54L32.92 56.35L32.8199 56L33.1199 55.77C33.5099 55.48 33.8799 55.23 34.2799 55C34.6799 54.77 35.0799 54.56 35.4999 54.36C36.3299 53.97 37.1999 53.66 38.1099 53.45C38.5699 53.35 39.0299 53.28 39.4999 53.26C39.9699 53.22 40.4399 53.25 40.9099 53.29C41.3799 53.35 41.8499 53.45 42.2999 53.6C42.5299 53.68 42.7499 53.75 42.9599 53.87C43.1799 53.97 43.3899 54.08 43.5799 54.21C43.7899 54.33 43.9799 54.46 44.1599 54.61C44.3499 54.74 44.53 54.9 44.7 55.06C44.88 55.21 45.0399 55.38 45.1899 55.55C45.3499 55.72 45.4999 55.89 45.6299 56.08C45.9199 56.44 46.15 56.83 46.39 57.22L46.7099 57.82C46.8399 58.07 46.8799 58.24 46.9699 58.46C47.0999 58.89 47.2199 59.36 47.2899 59.79C47.3699 60.23 47.4399 60.67 47.4999 61.11C47.6299 61.99 47.7199 62.87 47.7699 63.75V63.77Z" fill="#5B5C5C"/>
<path d="M55.6599 63.7701C55.7099 62.8901 55.8099 62.0101 55.9299 61.1301C55.9899 60.6901 56.0599 60.2501 56.1399 59.8101C56.2099 59.3801 56.3299 58.9101 56.4599 58.4801C56.5499 58.2701 56.5899 58.0801 56.7199 57.8401L57.0399 57.2401C57.2799 56.8501 57.5099 56.4601 57.7999 56.1001C57.9299 55.9101 58.0799 55.7401 58.2399 55.5701C58.3899 55.4001 58.5499 55.2301 58.7299 55.0801C58.8999 54.9201 59.0699 54.7601 59.2699 54.6301C59.4599 54.4901 59.6499 54.3501 59.8499 54.2301C60.0499 54.1001 60.2599 53.9901 60.4699 53.8901C60.6799 53.7801 60.9099 53.7001 61.1299 53.6201C61.5799 53.4701 62.0499 53.3701 62.5199 53.3101C62.9899 53.2601 63.4699 53.2401 63.9299 53.2801C64.3999 53.3001 64.8599 53.3701 65.3199 53.4701C66.2299 53.6801 67.0999 53.9801 67.9299 54.3801C68.3499 54.5801 68.7499 54.7901 69.1499 55.0201C69.5499 55.2501 69.9199 55.5001 70.3099 55.7901L70.6099 56.0201L70.5099 56.3701L70.1599 57.5601C70.0599 57.9601 69.8899 58.3501 69.7499 58.7401C69.6099 59.1301 69.4599 59.5201 69.2699 59.9001C69.0799 60.2801 68.9299 60.6701 68.6999 61.0201C68.4699 61.3801 68.2999 61.7601 68.0199 62.0901C67.7499 62.4201 67.5399 62.7901 67.2199 63.0901C66.9199 63.4001 66.6399 63.7201 66.2799 63.9701L65.7699 64.3701L65.2099 64.7001C64.8499 64.9401 64.4299 65.0701 64.0299 65.2301C63.6299 65.3901 63.1899 65.4301 62.7799 65.5301C62.3499 65.5601 61.9299 65.6101 61.5099 65.6001C61.0899 65.5601 60.6699 65.5801 60.2599 65.4801C59.8499 65.3901 59.4399 65.3501 59.0499 65.2101C58.6599 65.0801 58.2499 65.0001 57.8799 64.8201C57.4999 64.6601 57.1099 64.5301 56.7499 64.3501L55.6699 63.7901L55.6599 63.7701ZM55.6599 63.7701L56.8099 64.1801C57.1899 64.3201 57.5899 64.4101 57.9699 64.5301C58.3499 64.6601 58.7499 64.7001 59.1399 64.7901C59.5299 64.8901 59.9299 64.8901 60.3199 64.9301C60.7099 64.9801 61.1099 64.9301 61.4999 64.9501C61.8899 64.9301 62.2699 64.8501 62.6599 64.8101C63.0299 64.6901 63.4099 64.6201 63.7599 64.4701C64.1099 64.3101 64.4699 64.1801 64.7799 63.9501L65.2599 63.6401L65.6899 63.2601C65.9899 63.0301 66.2299 62.7201 66.4899 62.4401C66.7599 62.1701 66.9499 61.8201 67.1799 61.5201C67.4199 61.2201 67.5699 60.8501 67.7699 60.5101C67.9699 60.1801 68.1099 59.8001 68.2699 59.4501C68.4399 59.1001 68.5799 58.7301 68.7099 58.3501C68.8399 57.9801 68.9899 57.6101 69.0899 57.2301L69.4199 56.0801L69.6199 56.6601C69.2999 56.4301 68.9299 56.1901 68.5699 55.9701C68.2099 55.7501 67.8299 55.5501 67.4499 55.3701C66.6899 55.0001 65.8899 54.7101 65.0799 54.5201C64.6699 54.4301 64.2699 54.3501 63.8499 54.3201C63.4399 54.2701 63.0299 54.2801 62.6199 54.3201C62.2099 54.3601 61.8099 54.4301 61.4199 54.5501C61.0299 54.6701 60.6499 54.8101 60.2899 55.0201C60.1099 55.1101 59.9299 55.2201 59.7599 55.3401C59.5799 55.4501 59.4199 55.5801 59.2599 55.7101C59.0899 55.8301 58.9399 55.9801 58.7999 56.1301C58.6499 56.2701 58.4999 56.4301 58.3699 56.5901C58.0799 56.9001 57.8399 57.2501 57.5899 57.6001L57.2499 58.1501C57.1599 58.2901 57.0699 58.5301 56.9699 58.7201C56.8199 59.1201 56.6799 59.5001 56.5599 59.9301C56.4299 60.3501 56.3199 60.7701 56.2199 61.2001C56.1099 61.6301 56.0199 62.0601 55.9299 62.4901C55.8299 62.9201 55.7399 63.3501 55.6499 63.7901L55.6599 63.7701Z" fill="#5B5C5C"/>
<path d="M64.2099 44.42C64.2099 44.42 70.1299 46.54 74.9399 44.28C79.7599 42.02 87.1 35.02 80.64 25.46C80.64 25.46 75.4899 21.16 71.8299 25.91C68.1699 30.66 67.2999 38.09 66.4999 38.65C65.6999 39.21 64.2 44.43 64.2 44.43L64.2099 44.42Z" fill="#E48F8C"/>
<path d="M66.95 39.09C66.95 39.09 67.0999 39.09 67.3599 39.05C67.6199 39.02 67.99 38.96 68.42 38.88C68.64 38.84 68.8699 38.78 69.1199 38.72C69.3699 38.66 69.62 38.57 69.89 38.5C70.15 38.41 70.4299 38.33 70.6899 38.21C70.9599 38.11 71.2299 37.99 71.4899 37.86C71.7599 37.74 72.0199 37.6 72.2699 37.46C72.5299 37.33 72.7599 37.16 72.9899 37.01C73.2299 36.87 73.4299 36.69 73.6299 36.54C73.7299 36.46 73.83 36.39 73.92 36.31C74.01 36.23 74.0899 36.15 74.1799 36.08C74.3399 35.93 74.4999 35.8 74.6299 35.67C74.7499 35.54 74.86 35.42 74.95 35.33C75.13 35.14 75.2399 35.03 75.2399 35.03C75.2399 35.03 75.1499 35.15 74.9999 35.37C74.9199 35.48 74.8299 35.61 74.7199 35.75C74.6099 35.9 74.4599 36.05 74.3099 36.21C74.2299 36.29 74.1499 36.38 74.0699 36.47C73.9799 36.56 73.8899 36.64 73.7899 36.72C73.5899 36.89 73.3999 37.09 73.1599 37.24C72.9299 37.4 72.6999 37.59 72.4299 37.73C72.1699 37.88 71.9099 38.03 71.6299 38.16C71.3599 38.3 71.0799 38.41 70.7999 38.51C70.5199 38.63 70.2399 38.69 69.9699 38.78C69.6899 38.85 69.43 38.91 69.17 38.95C68.91 38.99 68.67 39.03 68.45 39.06C68 39.12 67.6199 39.11 67.3599 39.11C67.0999 39.11 66.95 39.09 66.95 39.09Z" fill="#7C3E3F"/>
<path d="M66.4099 39.91C66.4099 39.91 66.5399 39.91 66.7699 39.93C66.9999 39.95 67.3299 39.94 67.7199 39.95C68.1099 39.95 68.5699 39.94 69.0599 39.91C69.2999 39.9 69.5499 39.87 69.8099 39.84C70.0699 39.82 70.3199 39.77 70.5799 39.73C70.8399 39.69 71.0899 39.63 71.3399 39.58C71.5799 39.5 71.8299 39.45 72.0499 39.37C72.2699 39.28 72.4999 39.22 72.6999 39.12C72.8999 39.02 73.0899 38.94 73.2599 38.84C73.4199 38.73 73.5699 38.64 73.7099 38.56C73.8499 38.48 73.9399 38.38 74.0299 38.31C74.2099 38.17 74.3199 38.09 74.3199 38.09C74.3199 38.09 74.2399 38.19 74.0799 38.36C73.9999 38.44 73.9099 38.56 73.7899 38.66C73.6699 38.76 73.5199 38.88 73.3599 39C73.1999 39.12 72.9999 39.22 72.8099 39.34C72.6099 39.46 72.3799 39.54 72.1499 39.65C71.9199 39.74 71.6699 39.82 71.4199 39.9C71.1599 39.96 70.8999 40.02 70.6399 40.07C70.3799 40.1 70.1099 40.15 69.8499 40.17C69.5899 40.2 69.3299 40.21 69.0799 40.21C68.5799 40.22 68.1199 40.18 67.7199 40.15C67.3199 40.11 66.9999 40.05 66.7699 40C66.5399 39.96 66.4199 39.92 66.4199 39.92L66.4099 39.91Z" fill="#7C3E3F"/>
<path d="M65.9199 40.61C65.9199 40.61 65.9999 40.67 66.1599 40.75C66.3099 40.84 66.5399 40.95 66.8099 41.07C66.9499 41.13 67.0999 41.18 67.2599 41.24C67.4199 41.29 67.5899 41.35 67.7699 41.39C67.8599 41.41 67.9499 41.43 68.0399 41.45C68.1299 41.47 68.2299 41.48 68.3199 41.5C68.5099 41.54 68.7099 41.55 68.8999 41.56C69.0999 41.58 69.2899 41.56 69.4899 41.57C69.6799 41.55 69.8699 41.54 70.0599 41.53C70.2399 41.5 70.4199 41.47 70.5899 41.44C70.7599 41.41 70.9099 41.36 71.0599 41.33C71.1999 41.29 71.3399 41.27 71.4599 41.22C71.5799 41.18 71.6799 41.15 71.7599 41.12C71.9299 41.07 72.0299 41.04 72.0299 41.04C72.0299 41.04 71.9399 41.09 71.7899 41.18C71.7099 41.22 71.6199 41.28 71.5099 41.34C71.3999 41.41 71.2699 41.46 71.1299 41.51C70.9899 41.56 70.8299 41.64 70.6599 41.68C70.4899 41.72 70.3099 41.78 70.1199 41.82C69.9299 41.84 69.7299 41.88 69.5199 41.9C69.3199 41.9 69.1099 41.92 68.8999 41.9C68.6899 41.88 68.4799 41.87 68.2799 41.82C68.0799 41.79 67.8799 41.73 67.6999 41.67C67.5099 41.62 67.3399 41.54 67.1799 41.47C67.0199 41.39 66.8699 41.32 66.7399 41.24C66.4699 41.09 66.2699 40.92 66.1399 40.8C65.9999 40.68 65.9399 40.6 65.9399 40.6L65.9199 40.61Z" fill="#7C3E3F"/>
<path d="M63.8299 45.3101C61.5899 44.9801 59.57 41.0101 60.01 40.0601C60.46 39.1101 62.2499 39.2801 64.2999 36.7601C65.0799 35.8001 67.2899 30.7101 67.7699 29.5301C68.2599 28.3501 72.3199 17.7201 80.6299 25.4501C80.6299 25.4501 75.7799 21.9901 72.7199 27.6801C69.9599 32.8101 71.9099 33.9901 69.0299 37.3701C66.1499 40.7501 65.3499 42.2701 65.1499 42.8901C64.9499 43.5101 65.33 45.5201 63.82 45.3101H63.8299Z" fill="#C9C9C9"/>
<path d="M36.9399 44.4199C36.9399 44.4199 32.0299 46.6499 31.7199 47.9999C31.7199 47.9999 31.6099 45.6199 28.7899 44.5399C25.9699 43.4499 23.3799 41.1499 22.0099 37.8999C20.6399 34.6499 34.1399 42.0599 36.9499 44.4199H36.9399Z" fill="#C9C9C9"/>
<path d="M39.31 43.82C39.31 43.82 33.39 45.94 28.58 43.68C23.76 41.42 16.42 34.42 22.88 24.86C22.88 24.86 28.03 20.56 31.69 25.31C35.35 30.06 36.22 37.49 37.02 38.05C37.82 38.61 39.31 43.83 39.31 43.83V43.82Z" fill="#E48F8C"/>
<path d="M36.58 38.4999C36.58 38.4999 36.43 38.5199 36.17 38.5299C35.91 38.5299 35.53 38.5299 35.08 38.4799C34.85 38.4599 34.61 38.4199 34.36 38.3699C34.1 38.3299 33.84 38.26 33.56 38.2C33.29 38.11 33 38.0499 32.73 37.9299C32.45 37.8299 32.17 37.7199 31.9 37.5799C31.62 37.4599 31.36 37.2999 31.1 37.1499C30.83 37.0099 30.6 36.8199 30.37 36.6599C30.13 36.5099 29.94 36.31 29.74 36.14C29.64 36.05 29.55 35.97 29.46 35.89C29.38 35.8 29.3 35.7099 29.22 35.6299C29.07 35.4599 28.92 35.32 28.81 35.17C28.7 35.02 28.61 34.8899 28.53 34.7899C28.38 34.5799 28.29 34.45 28.29 34.45C28.29 34.45 28.39 34.5599 28.58 34.7499C28.67 34.8399 28.78 34.9599 28.9 35.0899C29.03 35.2199 29.19 35.3499 29.35 35.4999C29.43 35.5699 29.52 35.6499 29.6 35.7299C29.69 35.8099 29.79 35.8799 29.89 35.9599C30.1 36.1099 30.3 36.2799 30.53 36.4299C30.76 36.5799 30.99 36.7399 31.25 36.8799C31.5 37.0199 31.76 37.1699 32.03 37.2899C32.29 37.4299 32.56 37.54 32.84 37.64C33.11 37.75 33.38 37.8299 33.64 37.9299C33.91 37.9999 34.16 38.0899 34.41 38.1499C34.66 38.2099 34.89 38.2699 35.11 38.3099C35.55 38.3899 35.91 38.4599 36.17 38.4799C36.43 38.5099 36.58 38.5199 36.58 38.5199V38.4999Z" fill="#7C3E3F"/>
<path d="M37.12 39.32C37.12 39.32 36.99 39.36 36.77 39.4C36.54 39.44 36.22 39.51 35.82 39.55C35.42 39.58 34.96 39.63 34.46 39.61C34.21 39.61 33.95 39.6 33.69 39.57C33.43 39.55 33.16 39.51 32.9 39.47C32.64 39.43 32.38 39.36 32.12 39.3C31.87 39.22 31.62 39.15 31.38 39.05C31.15 38.95 30.92 38.86 30.72 38.74C30.52 38.62 30.33 38.52 30.17 38.4C30.01 38.28 29.87 38.16 29.74 38.06C29.62 37.96 29.53 37.84 29.45 37.76C29.29 37.59 29.21 37.49 29.21 37.49C29.21 37.49 29.32 37.57 29.49 37.71C29.58 37.78 29.68 37.88 29.82 37.96C29.96 38.04 30.11 38.13 30.27 38.24C30.44 38.34 30.63 38.42 30.83 38.52C31.03 38.62 31.26 38.68 31.48 38.77C31.71 38.85 31.95 38.9 32.2 38.98C32.45 39.03 32.7 39.09 32.96 39.13C33.22 39.17 33.47 39.22 33.73 39.24C33.98 39.27 34.23 39.3 34.48 39.31C34.97 39.34 35.42 39.36 35.82 39.35C36.21 39.35 36.54 39.35 36.77 39.33C37 39.32 37.13 39.31 37.13 39.31L37.12 39.32Z" fill="#7C3E3F"/>
<path d="M37.6 40.02C37.6 40.02 37.53 40.1 37.4 40.22C37.26 40.33 37.07 40.5 36.8 40.66C36.67 40.74 36.52 40.82 36.36 40.89C36.2 40.96 36.02 41.04 35.84 41.09C35.65 41.15 35.46 41.21 35.26 41.24C35.06 41.29 34.85 41.3 34.64 41.32C34.43 41.34 34.22 41.32 34.02 41.32C33.82 41.31 33.62 41.27 33.42 41.24C33.23 41.2 33.05 41.15 32.88 41.1C32.71 41.06 32.56 40.98 32.41 40.93C32.27 40.87 32.13 40.82 32.03 40.76C31.92 40.7 31.83 40.65 31.75 40.6C31.59 40.51 31.51 40.46 31.51 40.46C31.51 40.46 31.61 40.49 31.78 40.54C31.86 40.57 31.97 40.6 32.08 40.64C32.19 40.68 32.33 40.71 32.48 40.75C32.63 40.78 32.78 40.84 32.95 40.86C33.12 40.89 33.29 40.92 33.48 40.95C33.66 40.96 33.85 40.98 34.05 40.99C34.24 40.99 34.44 40.99 34.64 40.99C34.84 40.97 35.03 40.97 35.22 40.93C35.32 40.91 35.41 40.9 35.5 40.88C35.59 40.86 35.68 40.84 35.77 40.82C35.95 40.78 36.12 40.72 36.28 40.67C36.44 40.61 36.59 40.56 36.73 40.5C37.01 40.39 37.23 40.27 37.38 40.18C37.53 40.09 37.62 40.04 37.62 40.04L37.6 40.02Z" fill="#7C3E3F"/>
<path d="M39.69 44.72C41.93 44.39 43.95 40.42 43.51 39.47C43.06 38.52 41.27 38.69 39.22 36.17C38.44 35.21 36.23 30.12 35.75 28.94C35.26 27.76 31.2 17.13 22.89 24.86C22.89 24.86 27.74 21.4 30.8 27.09C33.56 32.22 31.61 33.4 34.49 36.78C37.37 40.16 38.17 41.68 38.37 42.3C38.57 42.92 38.19 44.93 39.7 44.72H39.69Z" fill="#C9C9C9"/>
<path d="M36.98 49.87C36.98 49.87 36.99 49.83 37.03 49.77C37.06 49.71 37.11 49.61 37.19 49.5C37.26 49.38 37.36 49.25 37.48 49.1C37.61 48.96 37.74 48.79 37.93 48.64C38.02 48.56 38.11 48.48 38.21 48.4C38.32 48.33 38.43 48.25 38.54 48.18C38.65 48.1 38.78 48.04 38.91 47.97C39.04 47.91 39.17 47.83 39.32 47.78C39.61 47.68 39.91 47.57 40.23 47.53C40.55 47.46 40.88 47.46 41.21 47.46C41.54 47.46 41.86 47.54 42.18 47.59C42.49 47.69 42.78 47.79 43.06 47.91C43.32 48.05 43.57 48.2 43.8 48.34C44.02 48.5 44.21 48.67 44.38 48.83C44.47 48.91 44.55 48.98 44.62 49.06C44.69 49.14 44.75 49.22 44.81 49.29C44.93 49.44 45.02 49.57 45.1 49.68C45.25 49.9 45.33 50.03 45.33 50.03C45.33 50.03 45.18 49.98 44.93 49.88C44.81 49.83 44.66 49.77 44.5 49.7C44.34 49.62 44.15 49.55 43.95 49.48C43.75 49.41 43.54 49.31 43.32 49.24C43.09 49.18 42.86 49.11 42.63 49.03C42.39 48.98 42.14 48.94 41.9 48.87C41.77 48.86 41.65 48.85 41.52 48.83C41.39 48.82 41.27 48.79 41.14 48.8C40.89 48.8 40.63 48.78 40.39 48.82C40.27 48.84 40.14 48.82 40.02 48.86C39.9 48.88 39.78 48.91 39.66 48.92C39.54 48.93 39.43 48.98 39.31 49C39.19 49.03 39.08 49.05 38.97 49.09C38.75 49.16 38.53 49.22 38.34 49.3C38.14 49.36 37.96 49.45 37.8 49.51C37.65 49.59 37.49 49.64 37.38 49.7C37.26 49.76 37.17 49.8 37.1 49.83C37.03 49.86 37 49.88 37 49.88L36.98 49.87Z" fill="#565656"/>
<path d="M66.55 49.8699C66.55 49.8699 66.51 49.8499 66.45 49.8199C66.39 49.7899 66.29 49.7499 66.17 49.6899C66.06 49.6299 65.9 49.5799 65.75 49.4999C65.58 49.4399 65.41 49.3599 65.21 49.2899C65.02 49.2099 64.8 49.1499 64.58 49.0799C64.47 49.0399 64.35 49.0199 64.24 48.9899C64.12 48.9699 64.01 48.9199 63.89 48.9099C63.77 48.8899 63.65 48.8699 63.53 48.8499C63.41 48.8199 63.28 48.8299 63.16 48.8099C62.91 48.7799 62.66 48.7899 62.41 48.7899C62.28 48.7799 62.16 48.8099 62.03 48.8199C61.9 48.8399 61.78 48.8499 61.65 48.8599C61.4 48.9199 61.16 48.9699 60.92 49.0199C60.69 49.0999 60.45 49.1699 60.23 49.2299C60.01 49.3099 59.8 49.3999 59.6 49.4699C59.4 49.5399 59.21 49.6099 59.05 49.6899C58.89 49.7699 58.74 49.8199 58.62 49.8699C58.38 49.9699 58.22 50.0199 58.22 50.0199C58.22 50.0199 58.29 49.89 58.45 49.67C58.53 49.56 58.62 49.4299 58.74 49.2799C58.8 49.2099 58.86 49.1199 58.93 49.0499C59 48.9799 59.09 48.8999 59.17 48.8199C59.35 48.6699 59.53 48.4899 59.75 48.3299C59.98 48.1899 60.23 48.0399 60.49 47.8999C60.77 47.7799 61.07 47.6799 61.37 47.5799C61.69 47.5299 62.01 47.45 62.34 47.45C62.67 47.45 63 47.4499 63.32 47.5199C63.64 47.5599 63.94 47.6699 64.23 47.7699C64.37 47.8199 64.5 47.8899 64.63 47.9599C64.76 48.0299 64.89 48.09 65 48.17C65.11 48.25 65.22 48.32 65.33 48.39C65.43 48.47 65.52 48.5499 65.61 48.6299C65.79 48.7799 65.93 48.9499 66.06 49.0899C66.18 49.2399 66.28 49.3699 66.35 49.4899C66.43 49.5999 66.47 49.6999 66.51 49.7599C66.54 49.8199 66.56 49.8599 66.56 49.8599L66.55 49.8699Z" fill="#565656"/>
<path d="M54.2699 71.0499C54.2699 71.4999 53.7799 71.89 53.2199 72.14C52.8299 72.31 52.4099 72.4099 52.0899 72.4099C51.7699 72.4099 51.3499 72.31 50.9599 72.14C50.3899 71.89 49.8999 71.4999 49.8999 71.0499C49.8999 70.2999 51.2899 69.6899 52.0899 69.6899C52.8899 69.6899 54.2799 70.2999 54.2799 71.0499" fill="#B3576F"/>
<path d="M52.0199 73.26C51.6399 73.26 51.1399 73.14 50.6899 72.93C50.0199 72.62 49.4399 72.13 49.4399 71.58C49.4399 71.21 49.6899 70.88 50.0599 70.6C49.9499 70.74 49.89 70.9 49.89 71.05C49.89 71.5 50.39 71.9 50.95 72.14C51.34 72.31 51.7499 72.41 52.0799 72.41C52.4099 72.41 52.8299 72.31 53.2099 72.14C53.7699 71.89 54.2599 71.5 54.2599 71.05C54.2599 70.96 54.2399 70.88 54.2099 70.8C54.4399 71.03 54.5899 71.3 54.5899 71.58C54.5899 72.13 54.0099 72.62 53.3499 72.93C52.8999 73.14 52.3999 73.26 52.0099 73.26" fill="#CFCDCC"/>
<path d="M52.08 72.41C51.75 72.41 51.34 72.31 50.95 72.14C50.38 71.89 49.89 71.5 49.89 71.05C49.89 70.89 49.95 70.74 50.06 70.6C50.62 70.17 51.45 69.9 52.02 69.9C52.68 69.9 53.68 70.27 54.22 70.8C54.25 70.88 54.27 70.97 54.27 71.05C54.27 71.5 53.78 71.89 53.22 72.14C52.83 72.31 52.41 72.41 52.09 72.41" fill="#9F596B"/>
<path d="M52.04 70.1201C52.04 70.7101 53.16 71.4501 54.24 71.4501C55.32 71.4501 55.94 70.1101 55.94 69.5301C55.94 68.9501 55.64 68.5601 54.56 68.5601C53.84 68.5601 52.7 68.7601 52.21 69.2401C51.96 69.4801 52.04 69.9301 52.04 70.1301V70.1201Z" fill="white"/>
<path d="M52.04 70.12C52.04 70.71 51.17 71.53 50.09 71.53C49.01 71.53 48.26 70.36 48.26 69.77C48.26 69.18 48.59 68.66 49.67 68.66C50.39 68.66 51.36 68.99 51.86 69.47C52.11 69.71 52.04 69.93 52.04 70.13V70.12Z" fill="white"/>
<path d="M53.22 72.14C52.83 72.31 52.41 72.41 52.09 72.41C51.77 72.41 51.35 72.31 50.96 72.14C51.04 71.83 51.31 71.6 51.65 71.6C51.82 71.6 51.97 71.66 52.09 71.76C52.21 71.66 52.36 71.6 52.53 71.6C52.86 71.6 53.14 71.83 53.22 72.14Z" fill="#ED7693"/>
<path d="M55.27 70.16C55.2 70.08 55.13 70.03 55.08 70C55.02 69.96 54.97 69.94 54.94 69.93C54.91 69.92 54.89 69.91 54.89 69.91C54.89 69.91 54.91 69.91 54.94 69.93C54.97 69.95 55.02 69.97 55.07 70.01C55.13 70.05 55.2 70.1 55.26 70.18C55.32 70.26 55.38 70.37 55.38 70.51C55.38 70.64 55.34 70.78 55.26 70.9C55.18 71.02 55.08 71.12 54.96 71.2C54.72 71.36 54.43 71.43 54.14 71.44C54 71.44 53.85 71.43 53.71 71.39C53.57 71.36 53.44 71.32 53.31 71.26C53.18 71.21 53.06 71.14 52.95 71.08C52.84 71.02 52.74 70.94 52.64 70.87C52.46 70.73 52.31 70.59 52.22 70.49C52.15 70.42 52.1 70.37 52.08 70.34L52.13 69.21H51.92L51.97 70.34C51.97 70.34 51.9 70.41 51.83 70.49C51.73 70.59 51.59 70.73 51.4 70.87C51.31 70.94 51.21 71.02 51.09 71.08C50.98 71.15 50.86 71.21 50.73 71.26C50.6 71.31 50.47 71.36 50.33 71.39C50.19 71.42 50.05 71.43 49.9 71.44C49.61 71.44 49.33 71.36 49.08 71.2C48.96 71.12 48.86 71.02 48.78 70.9C48.7 70.78 48.65 70.64 48.66 70.51C48.66 70.38 48.72 70.26 48.78 70.18C48.84 70.1 48.91 70.05 48.96 70.01C49.02 69.97 49.06 69.95 49.09 69.93C49.06 69.94 49.01 69.96 48.95 70C48.89 70.03 48.82 70.08 48.76 70.16C48.69 70.24 48.63 70.35 48.62 70.5C48.62 70.65 48.66 70.8 48.74 70.94C48.82 71.07 48.93 71.18 49.05 71.28C49.3 71.46 49.6 71.56 49.9 71.58C50.05 71.58 50.2 71.58 50.35 71.56C50.5 71.54 50.64 71.5 50.78 71.45C50.92 71.4 51.05 71.34 51.17 71.28C51.29 71.22 51.4 71.14 51.5 71.08C51.7 70.94 51.85 70.81 51.96 70.71L52.02 70.65L52.08 70.71C52.19 70.81 52.34 70.94 52.54 71.08C52.64 71.15 52.75 71.22 52.87 71.28C52.99 71.34 53.12 71.4 53.25 71.45C53.39 71.5 53.53 71.54 53.68 71.56C53.83 71.59 53.98 71.59 54.13 71.58C54.43 71.56 54.73 71.46 54.98 71.28C55.1 71.19 55.21 71.08 55.29 70.94C55.37 70.81 55.42 70.65 55.41 70.5C55.41 70.35 55.34 70.24 55.27 70.16Z" fill="#221E12"/>
<path d="M53.2599 68.5101C53.1999 69.0101 52.5499 68.8001 52.3699 69.0101C52.1499 69.2601 52.2399 69.5601 52.0399 69.5601C51.7799 69.5601 51.9599 69.2701 51.7199 69.0201C51.4999 68.7901 50.8999 68.9301 50.8099 68.5101C50.6599 67.8101 51.3199 67.8 52.0399 67.8C52.7599 67.8 53.3599 67.8001 53.2699 68.5101H53.2599Z" fill="#E48F8C"/>
<path d="M52.91 68.19C52.91 68.36 52.51 68.5 52.02 68.5C51.53 68.5 51.13 68.36 51.13 68.19C51.13 68.02 51.53 67.88 52.02 67.88C52.51 67.88 52.91 68.02 52.91 68.19Z" fill="#FEF8FB"/>
<path d="M50.78 67.4701C50.78 67.4701 52.02 66.5201 53.27 67.4701Z" fill="#FEF8FB"/>
<path d="M50.78 67.47C50.78 67.47 50.91 67.36 51.13 67.24C51.35 67.12 51.68 67.01 52.02 67.01C52.19 67.01 52.36 67.03 52.51 67.07C52.59 67.08 52.66 67.12 52.73 67.14C52.8 67.16 52.86 67.2 52.91 67.23C53.02 67.29 53.1 67.35 53.16 67.4C53.22 67.44 53.25 67.47 53.25 67.47C53.25 67.47 53.21 67.45 53.15 67.41C53.12 67.39 53.08 67.37 53.04 67.34C53 67.31 52.94 67.3 52.89 67.27C52.83 67.24 52.77 67.21 52.71 67.2C52.64 67.18 52.57 67.15 52.5 67.14C52.35 67.11 52.19 67.09 52.02 67.09C51.69 67.09 51.37 67.19 51.14 67.28C50.91 67.37 50.77 67.47 50.77 67.47H50.78Z" fill="#6B6B6B"/>
</svg>
