<svg width="102" height="102" viewBox="0 0 102 102" fill="none" xmlns="http://www.w3.org/2000/svg">
<path d="M93.0901 0.419983H9.50006C4.71175 0.419983 0.830078 4.30172 0.830078 9.09003V92.68C0.830078 97.4683 4.71175 101.35 9.50006 101.35H93.0901C97.8784 101.35 101.76 97.4683 101.76 92.68V9.09003C101.76 4.30172 97.8784 0.419983 93.0901 0.419983Z" fill="#24B999"/>
<path d="M69.5 84.56C69.3 84.56 69.09 84.52 68.89 84.43C68.13 84.09 67.79 83.21 68.12 82.45L68.24 82.18C68.29 82.08 68.33 81.98 68.38 81.86C68.39 81.82 68.41 81.78 68.43 81.73C68.44 81.68 68.49 81.51 68.49 81.51C68.53 81.37 68.57 81.22 68.61 81.06C68.63 80.97 68.64 80.87 68.66 80.76C68.67 80.66 68.6901 80.56 68.7101 80.46C68.7101 80.44 68.7101 80.43 68.7101 80.41C68.7201 80.34 68.73 80.19 68.73 80.05C68.73 79.97 68.73 79.89 68.74 79.81C68.74 79.69 68.75 79.57 68.76 79.46L68.72 78.62C68.72 78.56 68.7 78.49 68.7 78.42C68.69 78.34 68.68 78.26 68.67 78.18C68.65 78.05 68.63 77.88 68.61 77.71C68.59 77.59 68.56 77.47 68.54 77.35C68.54 77.35 68.44 76.86 68.43 76.77C68.39 76.61 68.34 76.44 68.3 76.28C68.21 75.93 68.1 75.59 67.99 75.28C67.79 74.69 67.52 74.04 67.14 73.23C66.81 72.59 66.44 71.91 66 71.3C65.99 71.28 65.9701 71.26 65.9601 71.24C65.8101 71.01 65.62 70.78 65.43 70.54L65.2801 70.36C65.2301 70.3 65.1601 70.23 65.0801 70.15L64.93 70C64.88 69.95 64.8301 69.9 64.7801 69.84C64.4501 70.03 64.12 70.2 63.79 70.38C63.79 70.38 63.58 70.49 63.51 70.53C64.13 72.32 64.44 74.31 64.36 76.05C64.35 76.54 64.29 76.99 64.24 77.32C64.17 77.74 64.11 78.05 64.04 78.32C63.97 78.61 63.9 78.84 63.85 78.97C63.83 79.04 63.81 79.08 63.81 79.09C63.62 79.75 63.02 80.18 62.37 80.18C62.24 80.18 62.1001 80.16 61.9601 80.12C61.1701 79.9 60.7 79.08 60.92 78.28C60.92 78.28 60.94 78.2 60.99 78.05C61.03 77.93 61.07 77.81 61.1 77.65C61.1 77.63 61.1 77.62 61.11 77.6C61.17 77.33 61.29 76.76 61.31 75.94C61.36 74.64 61.13 73.16 60.69 71.82C59.55 72.27 58.42 72.66 57.29 72.96C57.27 72.96 57.26 72.96 57.24 72.97C55.37 73.47 53.58 73.75 51.91 73.8H51.76L51.4001 73.81C51.3801 73.81 51.34 73.81 51.32 73.81C51.31 73.81 51.28 73.81 51.25 73.81C50.98 73.81 50.71 73.8 50.41 73.77C50.28 73.77 50.1601 73.75 50.0301 73.74C48.3901 73.59 46.6 73.19 44.7 72.56C43.74 72.24 42.7501 71.86 41.7701 71.43C41.2401 72.88 40.96 74.51 41.01 75.93C41.04 76.76 41.1501 77.33 41.2101 77.6C41.2101 77.62 41.21 77.63 41.22 77.65C41.25 77.81 41.29 77.94 41.32 78.04C41.37 78.2 41.3901 78.28 41.3901 78.28C41.6101 79.08 41.14 79.91 40.35 80.13C40.22 80.17 40.08 80.19 39.95 80.19C39.29 80.19 38.69 79.75 38.5 79.09C38.5 79.09 38.49 79.05 38.47 78.99C38.42 78.83 38.3501 78.61 38.2801 78.33C38.2101 78.06 38.1401 77.74 38.0801 77.35C38.0301 77 37.9701 76.55 37.9601 76.03C37.8701 74.16 38.25 71.97 38.97 70.08C38.62 69.89 38.27 69.69 37.92 69.49C37.86 69.54 37.8 69.6 37.73 69.65C37.59 69.78 37.4801 69.88 37.3901 69.98L37.23 70.15C37.16 70.22 37.0801 70.3 37.0201 70.38L36.8901 70.54C36.6901 70.78 36.51 71.01 36.36 71.24C36.35 71.26 36.33 71.28 36.32 71.3C35.88 71.91 35.51 72.58 35.18 73.23C34.79 74.04 34.5201 74.69 34.3301 75.27C34.2201 75.6 34.1001 75.94 34.0301 76.26C33.9801 76.45 33.9301 76.62 33.8901 76.78C33.8701 76.87 33.7701 77.36 33.7701 77.36C33.7401 77.48 33.72 77.6 33.7 77.72C33.68 77.89 33.6601 78.06 33.6401 78.22C33.6401 78.27 33.62 78.35 33.61 78.43C33.61 78.49 33.5901 78.56 33.5901 78.62C33.5901 78.62 33.56 79.4 33.55 79.47C33.55 79.58 33.55 79.69 33.56 79.8V80C33.57 80.16 33.5801 80.33 33.5901 80.41C33.5901 80.43 33.5901 80.44 33.5901 80.46C33.6101 80.56 33.6201 80.66 33.6401 80.76C33.6501 80.86 33.67 80.96 33.69 81.06C33.74 81.22 33.8301 81.58 33.8301 81.58C33.8501 81.63 33.86 81.68 33.87 81.73C33.89 81.78 33.91 81.83 33.93 81.87C33.98 81.98 34.02 82.07 34.05 82.15L34.18 82.45C34.51 83.21 34.18 84.09 33.41 84.43C33.21 84.52 33.01 84.56 32.8 84.56C32.22 84.56 31.67 84.23 31.43 83.67L31.07 82.87C31.04 82.81 31.02 82.74 31 82.68L30.75 81.85C30.75 81.85 30.73 81.77 30.72 81.73C30.69 81.58 30.6601 81.42 30.6401 81.26C30.6301 81.18 30.61 81.09 30.6 81C30.54 80.71 30.5301 80.43 30.5201 80.19L30.49 79.54C30.49 79.54 30.49 79.44 30.49 79.4L30.5301 78.46C30.5301 78.46 30.5301 78.41 30.5301 78.39C30.5501 78.22 30.5701 78.05 30.5901 77.88L30.6501 77.35C30.6501 77.35 30.65 77.29 30.66 77.25C30.68 77.13 30.71 77 30.73 76.88L30.87 76.17C30.87 76.17 30.8901 76.09 30.9001 76.05C30.9301 75.96 31.04 75.51 31.04 75.51C31.12 75.17 31.2401 74.79 31.4001 74.3C31.6901 73.42 32.0801 72.55 32.3901 71.9C32.3901 71.89 32.4 71.87 32.41 71.86C32.77 71.16 33.2101 70.33 33.7801 69.53C33.9101 69.34 34.05 69.16 34.18 68.98C34.02 69.13 33.87 69.28 33.75 69.42C33.74 69.44 33.22 69.98 33.22 69.98C33.22 69.98 32.7901 70.52 32.7801 70.54C32.5801 70.77 32.41 71.02 32.24 71.27L31.85 71.83L31.6501 72.17C31.3801 72.62 31.23 72.88 31.23 72.88C30.95 73.36 30.45 73.63 29.93 73.63C29.68 73.63 29.43 73.57 29.19 73.43C28.47 73.02 28.22 72.11 28.62 71.39C28.62 71.39 28.77 71.12 29.04 70.64L29.26 70.25C29.26 70.25 29.3 70.19 29.32 70.16L29.7 69.59C29.89 69.3 30.12 68.94 30.43 68.58L30.86 68.03C30.86 68.03 30.91 67.97 30.93 67.94L31.43 67.39C31.73 67.04 32.05 66.75 32.36 66.46C32.47 66.35 32.59 66.25 32.7 66.14C32.73 66.11 32.77 66.08 32.8 66.05C32.82 66.03 32.85 66.01 32.87 65.99C28.26 62.14 25.4501 57.65 24.8901 53.2C24.8601 52.99 24.84 52.77 24.82 52.54C24.79 52.21 24.7801 51.86 24.7801 51.49C24.7801 49.93 24.87 48.38 25.05 46.88C25.05 46.85 25.05 46.83 25.06 46.8L25.0801 46.7C25.1701 45.92 25.29 45.16 25.43 44.43C24.78 44.03 24.09 43.35 23.41 42.21C21.91 39.66 20.99 35.64 22.13 33.58C23.87 30.43 26 30.03 27.67 30.03C28.05 30.03 28.4201 30.05 28.7701 30.07C29.1201 30.09 29.4601 30.11 29.7801 30.11C30.0701 30.11 30.33 30.09 30.56 30.06C33.6 26.95 37.4601 25 42.0301 24.24C42.0701 24.23 42.12 24.22 42.16 24.22C42.19 24.22 42.22 24.22 42.24 24.21C44.85 23.62 47.84 23.33 51.36 23.33C53.87 23.33 56.2201 23.51 58.3301 23.85C58.3601 23.85 58.39 23.85 58.41 23.86C62.18 24.14 65.55 25.22 68.43 27.07C69.62 27.66 70.67 28.37 72.55 30.15C72.97 30.19 73.41 30.21 73.87 30.22C75.97 30.29 78.58 30.37 80.39 33.57C81.6 35.71 80.5 39.52 79.47 41.56C78.83 42.82 78.0901 43.75 77.2801 44.31C77.4901 45.43 77.65 46.57 77.76 47.73C77.81 48.22 77.84 48.67 77.86 49.12C77.91 49.88 77.93 50.68 77.93 51.49C77.93 51.89 77.92 52.21 77.89 52.52C77.89 52.57 77.89 52.63 77.88 52.68C77.88 52.83 77.8501 52.98 77.8401 53.13C77.3101 57.84 74.48 62.49 69.82 66.38C69.85 66.41 69.88 66.44 69.91 66.46C70.22 66.75 70.5401 67.05 70.8401 67.39L71.3401 67.94C71.3401 67.94 71.39 68 71.41 68.03L71.8401 68.58C72.1501 68.95 72.38 69.3 72.57 69.59L72.95 70.16C72.95 70.16 72.99 70.22 73.01 70.25L73.22 70.63C73.5 71.12 73.6501 71.39 73.6501 71.39C74.0501 72.11 73.8001 73.01 73.0901 73.42C72.8501 73.55 72.6001 73.62 72.3401 73.62C71.8301 73.62 71.33 73.36 71.05 72.88L70.42 71.81L70.0301 71.25C69.8601 71.01 69.69 70.75 69.49 70.52C69.48 70.51 69.05 69.96 69.05 69.96L68.57 69.45C68.57 69.45 68.5401 69.42 68.5301 69.4C68.4101 69.26 68.26 69.11 68.1 68.96C68.24 69.13 68.37 69.31 68.5 69.51C69.07 70.31 69.51 71.14 69.87 71.84C69.87 71.85 69.88 71.87 69.89 71.88C70.2 72.53 70.59 73.4 70.88 74.3C71.04 74.77 71.16 75.15 71.25 75.52C71.25 75.52 71.36 75.94 71.38 76.03C71.39 76.07 71.4 76.11 71.41 76.15L71.55 76.86C71.57 76.99 71.6 77.11 71.62 77.23C71.62 77.26 71.63 77.29 71.63 77.33L71.69 77.86C71.71 78.03 71.74 78.2 71.75 78.37C71.75 78.39 71.75 78.42 71.75 78.44L71.79 79.38C71.79 79.38 71.79 79.48 71.79 79.52L71.76 80.18C71.75 80.42 71.73 80.69 71.68 80.98C71.66 81.07 71.65 81.15 71.64 81.24C71.61 81.4 71.59 81.56 71.56 81.71C71.56 81.75 71.5401 81.79 71.5301 81.83L71.2801 82.66C71.2601 82.73 71.2401 82.79 71.2101 82.85L70.85 83.65C70.6 84.21 70.05 84.54 69.48 84.54L69.5 84.56Z" fill="#2F150C"/>
<path d="M79.1101 34.32C77.2601 31.06 74.5701 32 71.8901 31.58C69.8201 29.57 68.8202 28.93 67.7102 28.38C64.5602 26.33 61.1501 25.56 58.2501 25.36H58.1901L58.1701 25.35C56.1601 25.02 53.9001 24.84 51.3801 24.84C47.8601 24.84 44.9601 25.14 42.5401 25.69C42.4901 25.69 42.4301 25.71 42.3801 25.72H42.3601C38.7801 26.31 34.7002 27.85 31.3402 31.46C30.4402 31.69 29.5701 31.64 28.7201 31.59C26.8401 31.48 25.0902 31.38 23.4602 34.33C22.2702 36.48 24.5702 43.46 27.1502 43.46C27.1402 43.58 27.1201 43.69 27.1001 43.8C27.0901 43.87 27.0801 43.94 27.0701 44C26.8701 44.94 26.7102 45.92 26.5902 46.93C26.5902 46.98 26.5701 47.03 26.5601 47.07C26.3901 48.49 26.3001 49.97 26.3001 51.5C26.3001 51.82 26.3102 52.13 26.3402 52.44C26.3602 52.64 26.3702 52.83 26.4002 53.03C27.0302 58.07 30.7402 62.61 35.3402 66.02C35.2802 66.06 35.2301 66.1 35.1701 66.13C34.6601 66.46 34.2101 66.87 33.7601 67.23C33.3401 67.63 32.9201 68 32.5701 68.4C32.3901 68.6 32.2201 68.79 32.0501 68.97C31.9001 69.17 31.7501 69.36 31.6001 69.54C31.3001 69.9 31.0701 70.26 30.8701 70.57C30.7601 70.73 30.6701 70.87 30.5801 71.01C30.5001 71.15 30.4301 71.28 30.3601 71.4C30.0901 71.87 29.9401 72.14 29.9401 72.14C29.9401 72.14 30.0901 71.87 30.3701 71.41C30.4401 71.3 30.5101 71.17 30.6001 71.03C30.6901 70.89 30.8002 70.75 30.9002 70.6C31.1102 70.29 31.3502 69.94 31.6502 69.58C31.7902 69.4 31.9401 69.21 32.1001 69.02C32.2701 68.84 32.4501 68.65 32.6301 68.46C32.9801 68.06 33.4001 67.7 33.8201 67.3C34.2701 66.94 34.7201 66.55 35.2301 66.22C35.2901 66.17 35.3601 66.13 35.4201 66.09C36.1701 66.64 36.9401 67.17 37.7301 67.66C37.3801 67.93 37.0301 68.21 36.6901 68.52C36.5401 68.65 36.3801 68.8 36.2401 68.95C36.1001 69.1 35.9401 69.24 35.8101 69.4C35.5401 69.73 35.2701 70.05 35.0401 70.4C34.5501 71.09 34.1402 71.83 33.7702 72.56C33.4202 73.31 33.0901 74.06 32.8501 74.81C32.7201 75.19 32.6102 75.55 32.5202 75.92C32.4702 76.1 32.4301 76.29 32.3801 76.47C32.3501 76.65 32.3102 76.83 32.2702 77.01C32.2302 77.19 32.2001 77.36 32.1701 77.54C32.1501 77.71 32.1301 77.89 32.1101 78.05C32.0901 78.22 32.0601 78.38 32.0501 78.55C32.0501 78.71 32.0402 78.87 32.0302 79.03C32.0202 79.19 32.0201 79.34 32.0101 79.5C32.0101 79.65 32.0202 79.8 32.0302 79.94C32.0502 80.23 32.0501 80.5 32.1001 80.75C32.1501 81 32.1801 81.24 32.2201 81.46C32.2801 81.67 32.3401 81.87 32.3901 82.05C32.4201 82.14 32.4401 82.22 32.4701 82.3C32.4501 82.22 32.4202 82.14 32.4002 82.05C32.3502 81.87 32.3001 81.67 32.2401 81.46C32.2001 81.24 32.1701 81.01 32.1301 80.75C32.0801 80.5 32.0801 80.23 32.0701 79.94C32.0701 79.8 32.0501 79.65 32.0501 79.5C32.0501 79.35 32.0601 79.2 32.0701 79.04C32.0801 78.88 32.0902 78.72 32.0902 78.56C32.1102 78.4 32.1302 78.23 32.1502 78.06C32.1702 77.89 32.2002 77.72 32.2102 77.55C32.2402 77.38 32.2801 77.2 32.3201 77.03C32.3501 76.85 32.3901 76.68 32.4201 76.49C32.4701 76.31 32.5201 76.13 32.5701 75.95C32.6601 75.58 32.7801 75.21 32.9101 74.84C33.1601 74.1 33.4802 73.35 33.8402 72.61C34.2202 71.88 34.6201 71.14 35.1201 70.47C35.3501 70.12 35.6201 69.8 35.8801 69.48C36.0101 69.32 36.1601 69.18 36.3101 69.03C36.4501 68.88 36.6001 68.74 36.7501 68.6C37.1001 68.29 37.4501 68 37.8101 67.73C38.8401 68.37 39.8801 68.95 40.9301 69.46C40.8101 69.69 40.7001 69.92 40.6001 70.15C39.7201 72.17 39.4001 74.4 39.4701 76.04C39.4801 76.45 39.5301 76.83 39.5801 77.16C39.6301 77.49 39.6901 77.78 39.7501 78.01C39.8001 78.24 39.8602 78.42 39.9002 78.55C39.8602 78.43 39.8101 78.25 39.7601 78.01C39.6501 77.54 39.5402 76.87 39.5202 76.04C39.4602 74.4 39.7901 72.19 40.6801 70.18C40.7801 69.94 40.9001 69.71 41.0101 69.48H41.0401C42.4301 70.17 43.8301 70.74 45.1801 71.19C46.9501 71.78 48.6501 72.16 50.1701 72.3C50.2801 72.31 50.3901 72.32 50.5001 72.33C50.7401 72.35 50.9901 72.36 51.2501 72.36C51.2801 72.36 51.3001 72.36 51.3301 72.36C51.3301 72.36 51.3401 72.36 51.3501 72.36C51.3701 72.36 51.3802 72.36 51.4002 72.36H51.7401C51.7401 72.36 51.8301 72.36 51.8801 72.36C53.4601 72.31 55.1601 72.04 56.9101 71.57C58.4301 71.16 59.9901 70.6 61.5201 69.9C61.5701 70 61.6201 70.1 61.6601 70.2C62.5501 72.2 62.8801 74.42 62.8201 76.06C62.7901 76.88 62.6901 77.56 62.5801 78.03C62.5301 78.27 62.4701 78.45 62.4401 78.57C62.4801 78.45 62.5402 78.27 62.5902 78.03C62.6502 77.8 62.7101 77.51 62.7601 77.18C62.8101 76.85 62.8501 76.47 62.8701 76.06C62.9401 74.42 62.6301 72.19 61.7401 70.17C61.6901 70.07 61.6401 69.97 61.6001 69.87C62.0901 69.65 62.5701 69.41 63.0501 69.16L63.1101 69.13C63.7401 68.8 64.3601 68.46 64.9701 68.09C65.1801 68.26 65.3902 68.44 65.5902 68.62C65.7402 68.76 65.8902 68.9 66.0302 69.05C66.1702 69.2 66.3302 69.35 66.4602 69.5C66.7202 69.82 66.9901 70.14 67.2201 70.49C67.7101 71.17 68.1201 71.9 68.5001 72.63C68.8501 73.37 69.1801 74.12 69.4301 74.86C69.5601 75.23 69.6801 75.6 69.7701 75.97C69.8201 76.15 69.8701 76.33 69.9201 76.51C69.9501 76.69 69.9902 76.87 70.0302 77.05C70.0702 77.23 70.1101 77.4 70.1401 77.57C70.1601 77.75 70.1801 77.92 70.2001 78.08C70.2201 78.25 70.2501 78.41 70.2601 78.58C70.2601 78.74 70.2802 78.9 70.2802 79.06C70.2802 79.22 70.2901 79.37 70.3001 79.52C70.3001 79.67 70.2902 79.82 70.2802 79.96C70.2602 80.25 70.2701 80.52 70.2201 80.77C70.1801 81.03 70.1501 81.26 70.1101 81.48C70.0501 81.69 70.0001 81.89 69.9501 82.07C69.9201 82.16 69.9001 82.24 69.8801 82.32C69.9001 82.25 69.9301 82.16 69.9501 82.07C70.0001 81.89 70.0601 81.7 70.1201 81.48C70.1701 81.26 70.2001 81.03 70.2401 80.77C70.2901 80.52 70.2901 80.24 70.3101 79.96C70.3101 79.82 70.3201 79.67 70.3301 79.52C70.3301 79.37 70.3201 79.21 70.3101 79.05C70.3001 78.89 70.3001 78.73 70.2901 78.57C70.2801 78.4 70.2501 78.24 70.2301 78.07C70.2101 77.9 70.1901 77.73 70.1701 77.56C70.1401 77.39 70.1001 77.21 70.0701 77.03C70.0401 76.85 70.0002 76.67 69.9602 76.49C69.9102 76.31 69.8701 76.13 69.8201 75.94C69.7301 75.57 69.6101 75.2 69.4901 74.83C69.2501 74.08 68.9201 73.33 68.5701 72.58C68.1901 71.84 67.7901 71.11 67.3001 70.42C67.0701 70.07 66.7902 69.75 66.5302 69.42C66.3902 69.26 66.2401 69.12 66.1001 68.97C65.9601 68.82 65.8002 68.67 65.6502 68.54C65.4502 68.36 65.2501 68.19 65.0401 68.03C65.8501 67.54 66.6402 67.01 67.4002 66.45C67.7902 66.73 68.1501 67.04 68.5101 67.33C68.9301 67.73 69.3601 68.09 69.7001 68.49C69.8801 68.68 70.0601 68.87 70.2301 69.05C70.3801 69.25 70.5301 69.43 70.6801 69.61C70.9801 69.96 71.2101 70.32 71.4301 70.63C71.5301 70.78 71.6401 70.93 71.7301 71.06C71.8101 71.2 71.8902 71.33 71.9602 71.44C72.2302 71.91 72.3901 72.17 72.3901 72.17C72.3901 72.17 72.2401 71.9 71.9701 71.43C71.9001 71.31 71.8301 71.18 71.7501 71.04C71.6601 70.9 71.5602 70.76 71.4602 70.6C71.2502 70.29 71.0301 69.93 70.7301 69.57C70.5901 69.39 70.4402 69.2 70.2802 69C70.1102 68.82 69.9401 68.62 69.7601 68.43C69.4101 68.02 68.9901 67.66 68.5701 67.26C68.2101 66.98 67.8601 66.67 67.4701 66.39C72.1501 62.93 75.8001 58.24 76.3901 53.01C76.4101 52.88 76.4201 52.75 76.4301 52.62C76.4301 52.58 76.4301 52.53 76.4301 52.49C76.4601 52.18 76.4602 51.86 76.4602 51.54C76.4602 50.76 76.4401 50 76.3901 49.25C76.3701 48.8 76.3301 48.36 76.2901 47.92C76.1401 46.37 75.9101 44.89 75.6001 43.49C78.1001 43.18 80.3001 36.45 79.1201 34.36L79.1101 34.32Z" fill="#2F150C"/>
<path d="M75.5901 43.43C75.9001 44.84 76.1401 46.32 76.2801 47.87C76.3201 48.31 76.3601 48.75 76.3801 49.2C76.4301 49.95 76.4501 50.71 76.4501 51.49C76.4501 51.81 76.45 52.12 76.42 52.44C76.42 52.48 76.42 52.53 76.42 52.57C76.42 52.7 76.4001 52.83 76.3801 52.96C75.6201 59.73 69.73 65.61 63.11 69.06L63.05 69.09C61.03 70.14 58.94 70.96 56.91 71.51C55.1 72 53.3401 72.28 51.7101 72.31C51.6001 72.31 51.5001 72.31 51.4001 72.31C51.1101 72.31 50.81 72.3 50.5 72.28C50.39 72.28 50.28 72.27 50.17 72.25C48.66 72.11 46.96 71.73 45.18 71.14C43.83 70.69 42.43 70.12 41.04 69.44L40.94 69.41C34.07 66.03 27.29 60 26.42 53.02C26.39 52.82 26.37 52.63 26.36 52.43C26.33 52.12 26.3201 51.81 26.3201 51.49C26.3201 49.96 26.4101 48.48 26.5801 47.06C26.5801 47.01 26.6 46.97 26.61 46.92C26.73 45.91 26.8901 44.93 27.0901 43.99C27.1001 43.92 27.11 43.86 27.12 43.79C27.14 43.68 27.15 43.56 27.17 43.45C24.6 43.45 22.3 36.47 23.48 34.32C25.11 31.37 26.86 31.48 28.74 31.58C29.58 31.63 30.46 31.68 31.36 31.45C34.73 27.84 38.8001 26.3 42.3801 25.72H42.4001C42.4501 25.7 42.51 25.69 42.56 25.69C44.98 25.14 47.8801 24.84 51.4001 24.84C53.9201 24.84 56.18 25.02 58.19 25.35H58.2701C61.1701 25.57 64.58 26.34 67.73 28.39C68.84 28.94 69.84 29.58 71.91 31.59C74.59 32.01 77.2801 31.06 79.1301 34.33C80.3101 36.42 78.11 43.15 75.61 43.44" fill="#7A624E"/>
<path d="M24.5 36.62C24.5 38.41 25.62 41.31 27.19 41.31C28.05 41.31 28.67 39.51 29.18 37.93C29.6 36.61 30.55 35.55 30.55 34.74C30.55 32.95 28.92 33.38 27.35 33.38C26.48 33.38 24.5 34.03 24.5 36.63V36.62Z" fill="#191919"/>
<path d="M78.05 36.62C78.05 38.41 76.93 41.31 75.36 41.31C74.5 41.31 73.88 39.51 73.38 37.93C72.96 36.61 72.01 35.55 72.01 34.74C72.01 32.95 73.64 33.38 75.21 33.38C76.08 33.38 78.06 34.03 78.06 36.63L78.05 36.62Z" fill="#191919"/>
<path d="M75.9601 51.78C75.9601 52.12 75.95 52.45 75.92 52.77C75.92 52.89 75.9001 53.02 75.8901 53.14C75.1401 59.99 68.9901 65.86 62.3701 69.24C60.6301 70.13 58.8601 70.85 57.1501 71.36C55.2301 71.94 53.38 72.27 51.73 72.31H51.4001C49.4201 72.31 46.94 71.74 44.35 70.74H44.3301C43.6701 70.47 43.0001 70.19 42.3301 69.88C40.3801 68.98 38.42 67.85 36.6 66.58C31.01 62.64 27.49 57.75 26.92 53.17C26.88 52.87 26.8501 52.57 26.8401 52.27C26.8401 52.11 26.8301 51.95 26.8301 51.79C26.8301 42.6 32.8701 31.51 34.8101 29.68C35.9101 28.64 40.39 26.46 45.73 25.42C47.55 25.06 49.4701 24.84 51.3901 24.84C53.0101 24.84 54.68 25.02 56.3 25.31C61.79 26.29 66.7801 28.58 67.9901 29.7C69.9901 31.55 75.9601 42.63 75.9601 51.79" fill="#8D735D"/>
<path d="M29.5801 48.39C29.5801 48.39 34.7601 59.1 39.2001 59.1C42.6001 59.1 46.85 57.36 46.85 57.36C46.85 57.36 48.6501 39.51 38.8101 38.94C34.3701 38.68 29.5801 48.39 29.5801 48.39Z" fill="#7A624E"/>
<path d="M73.28 48.39C73.28 48.39 68.1 59.1 63.66 59.1C60.26 59.1 56.01 57.36 56.01 57.36C56.01 57.36 54.21 39.51 64.05 38.94C68.49 38.68 73.28 48.39 73.28 48.39Z" fill="#7A624E"/>
<path d="M34.3901 41.29C34.3901 41.29 34.4001 41.24 34.4501 41.17C34.4901 41.1 34.5401 40.98 34.6301 40.85C34.7101 40.71 34.8301 40.5601 34.9701 40.4001C35.1201 40.2401 35.2801 40.04 35.4901 39.87C35.5901 39.78 35.7001 39.69 35.8201 39.6C35.9401 39.51 36.0701 39.4301 36.2001 39.3401C36.3301 39.2501 36.4801 39.18 36.6201 39.1C36.7701 39.03 36.9201 38.94 37.0901 38.89C37.4201 38.77 37.7701 38.65 38.1401 38.6C38.5001 38.51 38.8901 38.52 39.2701 38.52C39.6501 38.52 40.0201 38.61 40.3901 38.67C40.7401 38.78 41.0901 38.9001 41.4101 39.0301C41.7201 39.2001 42.0001 39.3601 42.2701 39.5301C42.5301 39.7101 42.7401 39.9101 42.9501 40.0901C43.0501 40.1801 43.1501 40.27 43.2301 40.35C43.3101 40.44 43.3801 40.53 43.4501 40.62C43.5901 40.79 43.7001 40.94 43.7901 41.07C43.9701 41.32 44.0601 41.48 44.0601 41.48C44.0601 41.48 43.8801 41.42 43.6001 41.3C43.4601 41.24 43.2901 41.17 43.1101 41.08C42.9301 40.99 42.7101 40.91 42.4801 40.82C42.2501 40.74 42.0101 40.6201 41.7601 40.5301C41.5001 40.4601 41.2301 40.3801 40.9601 40.2801C40.6801 40.2201 40.3901 40.17 40.1101 40.1C39.9601 40.09 39.8201 40.08 39.6701 40.06C39.5201 40.04 39.3801 40.0101 39.2301 40.0301C38.9401 40.0301 38.6401 40.01 38.3601 40.05C38.2201 40.07 38.0701 40.0501 37.9301 40.0901C37.7901 40.1201 37.6501 40.15 37.5101 40.16C37.3701 40.18 37.2401 40.23 37.1001 40.26C36.9601 40.29 36.8301 40.32 36.7101 40.37C36.4501 40.45 36.2101 40.52 35.9801 40.61C35.7501 40.69 35.5401 40.79 35.3501 40.86C35.1701 40.95 34.9901 41.01 34.8701 41.08C34.7301 41.15 34.6201 41.2 34.5501 41.23C34.4701 41.26 34.4301 41.29 34.4301 41.29H34.3901Z" fill="#332419"/>
<path d="M68.3002 41.29C68.3002 41.29 68.2602 41.27 68.1802 41.23C68.1102 41.19 68.0002 41.14 67.8602 41.08C67.7302 41.01 67.5502 40.95 67.3802 40.86C67.1802 40.79 66.9802 40.69 66.7502 40.61C66.5202 40.52 66.2802 40.44 66.0202 40.37C65.8902 40.32 65.7602 40.29 65.6202 40.26C65.4802 40.23 65.3502 40.18 65.2102 40.16C65.0702 40.14 64.9302 40.12 64.7902 40.09C64.6502 40.06 64.5002 40.07 64.3602 40.05C64.0702 40.01 63.7802 40.02 63.4902 40.03C63.3402 40.02 63.2002 40.05 63.0502 40.06C62.9002 40.08 62.7602 40.09 62.6102 40.1C62.3302 40.18 62.0402 40.22 61.7602 40.29C61.4902 40.38 61.2202 40.46 60.9602 40.54C60.7002 40.63 60.4702 40.74 60.2402 40.83C60.0102 40.91 59.7902 40.99 59.6102 41.09C59.4302 41.18 59.2602 41.25 59.1202 41.31C58.8402 41.43 58.6602 41.49 58.6602 41.49C58.6602 41.49 58.7502 41.34 58.9302 41.08C59.0202 40.96 59.1302 40.8 59.2702 40.63C59.3402 40.55 59.4102 40.45 59.5002 40.36C59.5902 40.28 59.6802 40.19 59.7802 40.1C59.9902 39.93 60.2002 39.72 60.4602 39.54C60.7302 39.38 61.0202 39.21 61.3202 39.04C61.6402 38.91 61.9802 38.79 62.3402 38.68C62.7002 38.62 63.0802 38.53 63.4602 38.53C63.8402 38.53 64.2202 38.53 64.5902 38.61C64.9602 38.66 65.3102 38.78 65.6402 38.9C65.8102 38.95 65.9602 39.04 66.1102 39.11C66.2602 39.19 66.4102 39.25 66.5302 39.35C66.6602 39.44 66.7902 39.52 66.9102 39.61C67.0302 39.7 67.1302 39.79 67.2402 39.88C67.4502 40.05 67.6102 40.25 67.7502 40.41C67.8902 40.58 68.0102 40.73 68.0902 40.86C68.1802 40.99 68.2402 41.1 68.2702 41.18C68.3102 41.25 68.3202 41.3 68.3202 41.3L68.3002 41.29Z" fill="#332419"/>
<path d="M46.86 57.37C38.68 61.26 32.9301 58.74 30.3301 48.65C30.3301 48.65 40.1601 41.01 45.3901 50.8C46.2001 52.32 46.86 57.37 46.86 57.37Z" fill="white"/>
<path d="M38.9501 58.01C36.6801 57.96 34.7801 56.16 34.0501 53.66C33.8201 52.9 33.7101 52.07 33.7301 51.21C33.8001 47.73 35.9601 46.49 38.6901 46.41C38.8601 46.41 39.0301 46.4 39.2001 46.41C42.1601 46.47 44.4101 49.55 44.4601 51.44C44.5601 55.13 41.9201 58.07 38.9601 58.01" fill="#7C4E27"/>
<path d="M38.9801 57.07C37.2601 57.03 35.7502 55.56 35.1302 53.32C34.9302 52.61 34.8401 51.86 34.8601 51.08C34.9101 48.48 36.1401 47.24 38.7201 47.16C38.8501 47.16 38.9801 47.15 39.1101 47.15H39.1802C41.5102 47.21 43.3002 49.93 43.3302 51.33C43.3802 53.02 42.8102 54.63 41.7802 55.75C40.9902 56.61 40.0201 57.08 39.0401 57.08H38.9701" fill="#543521"/>
<path d="M55.98 57.37C64.16 61.26 69.91 58.74 72.51 48.65C72.51 48.65 62.68 41.01 57.46 50.8C56.65 52.32 55.99 57.37 55.99 57.37" fill="white"/>
<path d="M63.8799 58.01C66.1499 57.96 68.05 56.16 68.78 53.66C69.01 52.9 69.1199 52.07 69.0999 51.21C69.0299 47.73 66.86 46.49 64.14 46.41C63.97 46.41 63.7999 46.4 63.6299 46.41C60.6699 46.47 58.4199 49.55 58.3699 51.44C58.2699 55.13 60.9099 58.07 63.8699 58.01" fill="#7C4E27"/>
<path d="M63.79 57.07C62.81 57.07 61.84 56.6 61.05 55.74C60.03 54.62 59.46 53.01 59.5 51.32C59.53 49.92 61.32 47.2 63.66 47.15H63.72C63.85 47.15 63.98 47.15 64.11 47.15C66.7 47.23 67.93 48.47 67.98 51.07C67.99 51.85 67.9 52.6 67.7 53.31C67.08 55.55 65.57 57.02 63.85 57.07H63.78" fill="#543521"/>
<path d="M39.3101 49.82C39.2601 52.06 37.7701 53.84 35.9701 53.8C35.1601 53.78 34.4301 53.39 33.8701 52.77C33.6701 52.1 33.5702 51.37 33.5902 50.62C33.6502 47.57 35.5501 46.48 37.9401 46.41C38.8001 47.16 39.3501 48.41 39.3201 49.81" fill="white"/>
<path d="M76.4201 52.44C76.4201 52.44 76.4201 52.53 76.4201 52.57C76.4201 52.7 76.4001 52.83 76.3801 52.96C75.6201 59.73 69.7301 65.61 63.1101 69.06L63.0501 69.09C61.0301 70.14 58.9401 70.96 56.9101 71.51C55.1001 72 53.3401 72.28 51.7101 72.31C51.6001 72.31 51.5001 72.31 51.4001 72.31C51.1101 72.31 50.8101 72.3 50.5001 72.28C50.3901 72.28 50.2801 72.27 50.1701 72.25C48.6601 72.11 46.9601 71.73 45.1801 71.14C43.8301 70.69 42.4301 70.12 41.0401 69.44L40.9401 69.41C34.0701 66.03 27.2901 60 26.4201 53.02C26.3901 52.82 26.3701 52.63 26.3601 52.43C29.4601 54.16 29.3001 50.81 29.3001 50.81C29.3001 50.81 32.9801 64.59 45.6201 58.89C45.9701 58.73 42.8401 61.79 42.0501 64.16C41.0601 67.12 45.1501 67.68 46.4701 67.79C48.5001 67.95 48.7901 66.46 51.3001 66.46H51.5201C54.0301 66.46 54.6501 68.02 56.6801 67.86C58.0001 67.76 61.7601 67.12 60.7601 64.16C59.9701 61.79 56.8401 58.73 57.1901 58.89C69.8301 64.59 73.5101 50.81 73.5101 50.81C73.5101 50.81 73.3401 54.14 76.4401 52.43" fill="white"/>
<path d="M42.1401 56.29C42.1201 57.04 41.6201 57.65 41.0101 57.64C40.4001 57.63 39.9201 57 39.9401 56.24C39.9601 55.48 40.4601 54.88 41.0701 54.89C41.6801 54.9 42.1601 55.52 42.1401 56.29Z" fill="white"/>
<path d="M63.7401 50.15C63.7001 52.39 62.2001 54.17 60.4001 54.13C59.5901 54.11 58.8601 53.72 58.3001 53.1C58.1001 52.43 58.0001 51.7 58.0201 50.95C58.0801 47.9 59.9801 46.81 62.3701 46.75C63.2301 47.49 63.7701 48.74 63.7401 50.15Z" fill="white"/>
<path d="M66.7802 56.29C66.7602 57.04 66.2602 57.65 65.6502 57.64C65.0402 57.63 64.5602 57 64.5802 56.24C64.6002 55.48 65.1002 54.88 65.7102 54.89C66.3202 54.9 66.8002 55.52 66.7802 56.29Z" fill="white"/>
<path d="M46.86 57.37C46.86 57.37 46.2001 52.32 45.3901 50.8C46.1901 52.3 46.84 57.22 46.86 57.37ZM30.7701 50.19C30.6101 49.69 30.4701 49.18 30.3301 48.64C30.4701 49.18 30.6201 49.69 30.7701 50.19Z" fill="#77604F"/>
<path d="M45.3901 58.01C45.1201 56.57 44.76 54.95 44.36 54.2C44.29 54.06 44.2101 53.93 44.1401 53.79C44.3701 53.06 44.4901 52.26 44.4601 51.43C44.4101 49.54 42.1601 46.46 39.2001 46.4C39.1701 46.4 39.1501 46.4 39.1201 46.4C38.9801 46.4 38.8301 46.4 38.6901 46.41C38.4501 46.41 38.21 46.43 37.98 46.46C37.96 46.45 37.9501 46.43 37.9301 46.42C35.7801 46.48 34.02 47.37 33.66 49.78C32.65 50.11 31.7401 50.55 31.0201 50.94C30.9301 50.7 30.8501 50.44 30.7701 50.19C30.6101 49.69 30.4701 49.18 30.3301 48.64C30.3301 48.64 30.41 48.58 30.55 48.48C31.36 47.9 34.35 45.95 37.66 45.81C37.78 45.81 37.8901 45.81 38.0101 45.81C40.6001 45.81 43.3401 46.98 45.3801 50.8C46.1901 52.32 46.85 57.37 46.85 57.37C46.35 57.61 45.8601 57.82 45.3801 58.01" fill="#E2E1E1"/>
<path d="M44.14 53.79C43.86 53.31 43.57 52.87 43.27 52.48C43.32 52.1 43.35 51.71 43.33 51.32C43.3 49.92 41.51 47.2 39.18 47.15H39.11C38.98 47.15 38.85 47.15 38.72 47.15C38.67 47.15 38.63 47.15 38.58 47.15C38.4 46.88 38.2 46.65 37.98 46.44C38.21 46.41 38.45 46.39 38.69 46.39C38.83 46.39 38.98 46.38 39.12 46.38C39.15 46.38 39.17 46.38 39.2 46.38C42.16 46.44 44.41 49.52 44.46 51.41C44.48 52.24 44.37 53.04 44.14 53.77" fill="#794F2C"/>
<path d="M43.2701 52.48C42.0701 50.89 40.7001 50 39.3101 49.55C39.2801 48.65 39.0201 47.82 38.5901 47.16C38.6401 47.16 38.68 47.16 38.73 47.16C38.86 47.16 38.9901 47.15 39.1201 47.15H39.1901C41.5201 47.21 43.3101 49.93 43.3401 51.33C43.3501 51.72 43.3301 52.11 43.2801 52.49" fill="#553926"/>
<path d="M33.6602 49.78C34.0302 47.37 35.7802 46.48 37.9302 46.42C37.9402 46.44 37.9602 46.45 37.9802 46.46C38.2102 46.66 38.4102 46.9 38.5802 47.17C39.0102 47.83 39.2802 48.66 39.3002 49.56C38.5302 49.32 37.7502 49.21 36.9802 49.21C35.8102 49.21 34.6802 49.45 33.6602 49.78Z" fill="#E2E1E1"/>
<path d="M55.98 57.37C55.98 57.37 55.98 57.32 56 57.24C55.99 57.32 55.98 57.37 55.98 57.37Z" fill="#86705C"/>
<path d="M56 57.24C56.11 56.45 56.72 52.17 57.45 50.79C57.7 50.32 57.96 49.9 58.22 49.51C57.95 49.9 57.69 50.33 57.45 50.79C56.71 52.17 56.1 56.46 56 57.24Z" fill="#77604F"/>
<path d="M57.45 58.01C56.97 57.82 56.48 57.6 55.98 57.37C55.98 57.37 55.98 57.32 56 57.25C56.11 56.47 56.72 52.18 57.45 50.8C57.69 50.34 57.95 49.91 58.22 49.53C58.1 49.95 58.03 50.43 58.02 50.97C58 51.72 58.1 52.45 58.3 53.12C58.39 53.22 58.49 53.32 58.59 53.41C58.62 53.55 58.66 53.68 58.7 53.81C58.63 53.94 58.55 54.08 58.47 54.22C58.07 54.97 57.71 56.59 57.44 58.03" fill="#E2E1E1"/>
<path d="M58.7101 53.79C58.6701 53.66 58.6301 53.53 58.6001 53.39C58.6701 53.46 58.7501 53.52 58.8301 53.58C58.7901 53.65 58.7501 53.72 58.7101 53.79Z" fill="#794F2C"/>
<path d="M72.0402 50.28C72.2102 49.76 72.3602 49.21 72.5102 48.64C72.5102 48.64 72.4402 48.58 72.2902 48.48C72.4302 48.58 72.5102 48.64 72.5102 48.64C72.3602 49.21 72.2102 49.75 72.0402 50.28ZM60.7002 47.01C62.0302 46.14 63.4502 45.81 64.8202 45.81C64.9402 45.81 65.0502 45.81 65.1702 45.81C65.0502 45.81 64.9302 45.81 64.8202 45.81C63.4502 45.81 62.0402 46.14 60.7102 47.01" fill="#77604F"/>
<path d="M71.8099 50.94C71.0299 50.51 70.0399 50.04 68.9199 49.7C68.3299 47.36 66.44 46.48 64.15 46.41C64.01 46.41 63.8599 46.4 63.7199 46.4C63.6899 46.4 63.66 46.4 63.64 46.4C63.04 46.41 62.4599 46.55 61.9299 46.78C61.4999 46.82 61.09 46.89 60.71 47.01C62.04 46.13 63.4499 45.81 64.8199 45.81C64.9399 45.81 65.0599 45.81 65.1699 45.81C68.4799 45.95 71.47 47.9 72.28 48.48C72.42 48.58 72.4999 48.64 72.4999 48.64C72.3499 49.21 72.2 49.75 72.03 50.28C71.96 50.51 71.8799 50.73 71.7999 50.94" fill="#E2E1E1"/>
<path d="M68.9202 49.7C68.5302 49.58 68.1402 49.48 67.7302 49.4C67.2502 47.94 66.0702 47.22 64.1202 47.16C63.9902 47.16 63.8602 47.15 63.7302 47.15H63.6702C63.3902 47.15 63.1202 47.2 62.8602 47.28C62.7102 47.09 62.5502 46.91 62.3702 46.76C62.2202 46.76 62.0702 46.77 61.9302 46.78C62.4602 46.55 63.0402 46.41 63.6402 46.4C63.6702 46.4 63.7002 46.4 63.7202 46.4C63.8602 46.4 64.0102 46.4 64.1502 46.41C66.4302 46.48 68.3302 47.36 68.9202 49.7Z" fill="#794F2C"/>
<path d="M63.7201 49.5C63.6301 48.64 63.3201 47.88 62.8601 47.28C63.1201 47.21 63.3901 47.16 63.6701 47.16H63.7301C63.8601 47.16 63.9901 47.16 64.1201 47.16C66.0701 47.22 67.2501 47.94 67.7301 49.4C67.1201 49.28 66.5001 49.21 65.8601 49.21C65.1501 49.21 64.4301 49.3 63.7201 49.5Z" fill="#553926"/>
<path d="M58.8301 53.59C58.7501 53.53 58.67 53.47 58.6 53.4C58.5 53.31 58.4001 53.22 58.3101 53.11C58.1101 52.44 58.0101 51.71 58.0301 50.96C58.0401 50.42 58.1101 49.94 58.2301 49.52C59.0001 48.4 59.8401 47.58 60.7101 47.01C61.0901 46.89 61.5001 46.82 61.9301 46.78C62.0801 46.77 62.2201 46.76 62.3701 46.76C62.5501 46.91 62.7101 47.09 62.8601 47.28C63.3201 47.88 63.63 48.65 63.72 49.5C61.97 50 60.2501 51.21 58.8301 53.59Z" fill="#E2E1E1"/>
<path d="M46.8601 57.37C46.7601 56.87 46.6502 56.37 46.5302 55.87C46.4202 55.37 46.3101 54.88 46.1901 54.38C46.0701 53.88 45.9501 53.39 45.8001 52.91C45.6601 52.41 45.5101 51.98 45.3301 51.51C45.2201 51.29 45.1201 51.01 45.0101 50.85L44.6101 50.22C44.3201 49.81 44.0401 49.41 43.7101 49.05C43.5601 48.86 43.3901 48.69 43.2101 48.52C43.0401 48.35 42.8701 48.1801 42.6801 48.0301C42.4901 47.8801 42.3101 47.73 42.1101 47.6C41.9101 47.46 41.7201 47.34 41.5001 47.23C41.0901 46.99 40.6401 46.83 40.2001 46.69C39.7501 46.55 39.2901 46.47 38.8201 46.42C38.3501 46.39 37.8701 46.37 37.4001 46.43C36.9201 46.46 36.4501 46.56 35.9801 46.66C35.0401 46.89 34.1201 47.22 33.2401 47.65C32.8001 47.86 32.3701 48.09 31.9501 48.35C31.5401 48.6 31.1101 48.87 30.7401 49.14L30.9701 48.47L31.3501 49.79C31.4601 50.24 31.6301 50.6601 31.7901 51.0901C31.9401 51.5301 32.0901 51.95 32.2901 52.36C32.4901 52.77 32.6401 53.2001 32.8701 53.5901C33.1001 53.9701 33.2801 54.4 33.5501 54.75C33.8201 55.1 34.0401 55.51 34.3601 55.82C34.6601 56.15 34.9302 56.5 35.2802 56.77L35.7802 57.21L36.3401 57.57C36.7001 57.84 37.1101 57.99 37.5101 58.17C37.9101 58.35 38.3502 58.43 38.7802 58.57C39.2202 58.63 39.6701 58.72 40.1201 58.74C40.5701 58.73 41.0301 58.78 41.4801 58.73C41.9301 58.67 42.4001 58.67 42.8501 58.56C43.3001 58.46 43.7701 58.41 44.2101 58.26C44.6501 58.12 45.1001 58.02 45.5501 57.85L46.8801 57.37H46.8601ZM46.8601 57.37L45.6101 58.02C45.1901 58.23 44.7401 58.38 44.3001 58.57C43.8601 58.77 43.4001 58.86 42.9501 59.02C42.5001 59.18 42.0201 59.2301 41.5501 59.3401C41.0801 59.4501 40.5901 59.43 40.1101 59.48C39.6201 59.49 39.1301 59.4301 38.6401 59.4001C38.1601 59.2801 37.6601 59.23 37.2001 59.05C36.7401 58.87 36.2601 58.72 35.8401 58.44L35.1901 58.06L34.6001 57.6C34.1901 57.31 33.8601 56.94 33.5201 56.58C33.1601 56.24 32.9001 55.81 32.5901 55.43C32.2701 55.05 32.0701 54.6 31.8101 54.2C31.5401 53.78 31.3601 53.34 31.1501 52.9C30.9301 52.46 30.7601 52.01 30.6001 51.56C30.4401 51.11 30.2501 50.66 30.1301 50.19L29.7201 48.81L29.6001 48.4L29.9501 48.14C30.4001 47.8 30.8301 47.52 31.2901 47.25C31.7401 46.98 32.2101 46.74 32.6901 46.51C33.6501 46.06 34.6601 45.7 35.7001 45.46C36.2301 45.35 36.7601 45.27 37.3101 45.24C37.8501 45.19 38.4001 45.2201 38.9401 45.2801C39.4801 45.3501 40.0201 45.46 40.5401 45.64C40.8001 45.73 41.0601 45.82 41.3001 45.95C41.5501 46.06 41.7901 46.1901 42.0201 46.3401C42.2601 46.4801 42.4801 46.64 42.7001 46.8C42.9201 46.96 43.1201 47.14 43.3201 47.32C43.5301 47.5 43.7101 47.69 43.8901 47.89C44.0801 48.09 44.2501 48.29 44.4001 48.51C44.7301 48.92 45.0001 49.38 45.2701 49.83L45.6401 50.52C45.7901 50.8 45.8301 51.01 45.9401 51.26C46.0901 51.76 46.2201 52.3 46.3001 52.8C46.4001 53.3 46.4801 53.81 46.5401 54.32C46.6901 55.33 46.7901 56.35 46.8601 57.37Z" fill="#332419"/>
<path d="M55.98 57.37C56.04 56.35 56.15 55.33 56.3 54.32C56.37 53.81 56.45 53.3 56.55 52.8C56.63 52.3 56.77 51.75 56.91 51.26C57.02 51.01 57.06 50.8 57.21 50.52L57.58 49.83C57.85 49.38 58.12 48.93 58.45 48.51C58.6 48.29 58.78 48.09 58.96 47.89C59.14 47.69 59.32 47.5 59.53 47.32C59.73 47.14 59.93 46.96 60.15 46.8C60.36 46.64 60.59 46.4701 60.82 46.3401C61.05 46.1901 61.29 46.07 61.54 45.95C61.78 45.82 62.05 45.73 62.3 45.64C62.82 45.46 63.36 45.3501 63.9 45.2801C64.44 45.2201 64.99 45.19 65.53 45.24C66.07 45.27 66.61 45.35 67.14 45.46C68.19 45.7 69.2 46.06 70.15 46.51C70.63 46.74 71.1 46.98 71.55 47.25C72.02 47.52 72.44 47.8 72.89 48.14L73.24 48.4L73.12 48.81L72.71 50.19C72.59 50.66 72.41 51.1 72.24 51.56C72.08 52.01 71.91 52.46 71.69 52.9C71.48 53.34 71.3 53.78 71.03 54.2C70.76 54.61 70.56 55.05 70.25 55.43C69.94 55.82 69.69 56.24 69.33 56.58C68.98 56.94 68.66 57.31 68.25 57.6L67.66 58.06L67.01 58.44C66.59 58.71 66.11 58.87 65.65 59.05C65.19 59.23 64.69 59.2801 64.21 59.4001C63.72 59.4301 63.23 59.49 62.74 59.48C62.26 59.43 61.77 59.4601 61.3 59.3401C60.83 59.2301 60.35 59.19 59.9 59.02C59.45 58.87 58.98 58.77 58.55 58.57C58.11 58.39 57.66 58.23 57.24 58.02L55.99 57.37H55.98ZM55.98 57.37L57.31 57.85C57.75 58.01 58.21 58.12 58.65 58.26C59.09 58.41 59.56 58.46 60 58.56C60.45 58.67 60.92 58.67 61.37 58.73C61.82 58.79 62.28 58.73 62.73 58.74C63.18 58.72 63.62 58.63 64.07 58.57C64.49 58.43 64.94 58.36 65.34 58.17C65.74 57.98 66.16 57.83 66.51 57.57L67.07 57.21L67.57 56.77C67.92 56.5 68.2 56.15 68.5 55.82C68.82 55.51 69.03 55.1 69.3 54.75C69.57 54.4 69.75 53.9701 69.98 53.5901C70.22 53.2101 70.37 52.77 70.56 52.36C70.76 51.95 70.92 51.5301 71.07 51.0901C71.22 50.6601 71.39 50.24 71.5 49.79L71.88 48.47L72.11 49.14C71.75 48.87 71.31 48.6 70.9 48.35C70.48 48.09 70.05 47.87 69.61 47.65C68.73 47.22 67.81 46.89 66.87 46.66C66.4 46.55 65.93 46.46 65.45 46.43C64.98 46.37 64.5 46.39 64.03 46.42C63.56 46.47 63.1 46.55 62.65 46.69C62.2 46.83 61.76 46.99 61.35 47.23C61.14 47.34 60.94 47.46 60.74 47.6C60.54 47.73 60.35 47.8801 60.17 48.0301C59.98 48.1801 59.81 48.35 59.64 48.52C59.46 48.69 59.29 48.86 59.14 49.05C58.81 49.41 58.52 49.82 58.24 50.22L57.84 50.85C57.73 51.01 57.63 51.29 57.52 51.51C57.34 51.98 57.18 52.41 57.05 52.91C56.9 53.39 56.78 53.89 56.66 54.38C56.54 54.87 56.43 55.37 56.32 55.87C56.21 56.37 56.09 56.87 55.99 57.37H55.98Z" fill="#332419"/>
<path d="M61.12 65.19C61.12 62.34 56.94 58.38 51.32 58.38C45.7 58.38 41.73 62.19 41.73 65.04C41.73 66.69 43.84 67.24 45.26 69.19C46.26 70.57 47.86 72.31 51.24 72.31C54.62 72.31 56.32 70.64 57.35 69.3C58.88 67.31 61.12 66.86 61.12 65.19Z" fill="#D1BAA7"/>
<path d="M55.3 65.83C55.3 66.63 54.43 67.33 53.43 67.77C52.74 68.07 52 68.25 51.41 68.25C50.82 68.25 50.09 68.08 49.4 67.77C48.39 67.33 47.52 66.63 47.52 65.83C47.52 64.49 49.99 63.41 51.41 63.41C52.83 63.41 55.29 64.49 55.29 65.83H55.3Z" fill="#5E2A3D"/>
<path d="M51.67 63.53C51.35 63.69 51.29 63.98 51.3 64.28C51.28 64.02 51.22 63.75 50.93 63.51C49.91 62.64 46.48 64.2 46.6 65.26C46.82 67.23 51.29 66.75 51.4 65.11C51.48 66.11 52.57 66.76 54.69 66.54C57.69 66.21 55.53 61.63 51.67 63.53Z" fill="#D1BAA7"/>
<path d="M53.4301 67.77C52.7401 68.07 52.0001 68.25 51.4101 68.25C50.8201 68.25 50.0901 68.08 49.4001 67.77C49.5401 67.22 50.0301 66.81 50.6201 66.81C50.9201 66.81 51.1901 66.92 51.4101 67.09C51.6301 66.92 51.9001 66.81 52.1901 66.81C52.7801 66.81 53.2801 67.22 53.4201 67.76L53.4301 67.77Z" fill="#C15672"/>
<path d="M55.85 65.71C55.78 65.57 55.71 65.53 55.71 65.52C55.71 65.52 55.77 65.58 55.83 65.72C55.85 65.79 55.86 65.88 55.83 65.97C55.78 66.06 55.7 66.14 55.6 66.2C55.18 66.46 54.48 66.53 53.83 66.48C53.5 66.45 53.18 66.39 52.88 66.29C52.59 66.2 52.33 66.07 52.13 65.94C51.93 65.81 51.79 65.67 51.69 65.57C51.6 65.47 51.55 65.41 51.55 65.41L51.58 64.33H51.2199L51.25 65.41C51.25 65.41 51.2 65.47 51.11 65.57C51.06 65.62 51.01 65.69 50.94 65.75C50.87 65.82 50.79 65.89 50.69 65.95C50.49 66.09 50.24 66.21 49.95 66.31C49.66 66.4 49.33 66.46 49 66.48C48.34 66.53 47.66 66.41 47.23 66.17C47.12 66.11 47.0299 66.04 46.9699 65.96C46.9099 65.88 46.8899 65.79 46.9099 65.72C46.9199 65.65 46.95 65.6 46.98 65.57C46.98 65.57 46.92 65.65 46.9 65.72C46.88 65.79 46.9 65.89 46.95 65.98C47.01 66.07 47.1 66.15 47.2 66.22C47.64 66.5 48.33 66.66 49.01 66.67C49.35 66.67 49.7 66.63 50.02 66.55C50.34 66.47 50.62 66.35 50.85 66.21C50.97 66.14 51.07 66.07 51.15 66C51.24 65.93 51.3 65.86 51.36 65.81L51.4 65.77L51.44 65.82C51.56 65.92 51.7299 66.07 51.9699 66.2C52.1999 66.33 52.49 66.45 52.81 66.53C53.13 66.61 53.47 66.65 53.81 66.66C54.5 66.67 55.19 66.55 55.63 66.25C55.73 66.18 55.82 66.08 55.86 65.98C55.9 65.88 55.88 65.78 55.86 65.71H55.85Z" fill="#38281D"/>
<path d="M51.07 63.53C50.94 63.83 50.32 63.85 49.7 63.57C49.08 63.29 48.68 62.82 48.82 62.52C48.95 62.22 49.5699 62.2 50.1899 62.48C50.8099 62.76 51.21 63.23 51.07 63.53Z" fill="#010101"/>
<path d="M51.7802 63.53C51.9202 63.83 52.5302 63.85 53.1502 63.57C53.7702 63.29 54.1702 62.82 54.0302 62.52C53.8902 62.22 53.2801 62.2 52.6601 62.48C52.0401 62.76 51.6402 63.23 51.7802 63.53Z" fill="#010101"/>
<path d="M51.4201 59.97C50.7801 59.97 50.4801 60.04 49.9501 60.3C48.8401 60.83 47.7801 61.64 48.0501 62.64C48.1501 63.01 48.7001 63.51 49.1901 63.51C49.9101 63.51 49.7501 62.48 50.5601 63.71C50.9801 64.36 50.7201 64.46 51.4301 64.46H51.4401C52.1601 64.46 51.8901 64.36 52.3101 63.71C53.1201 62.48 52.9501 63.51 53.6701 63.51C54.1601 63.51 54.7201 63.01 54.8101 62.64C55.0901 61.61 54.0702 60.82 52.9002 60.3C52.3902 60.07 52.0101 59.97 51.4101 59.97" fill="#231F20"/>
<path d="M51.43 61.92C50.67 61.92 49.5 61.85 49.5 61.37C49.5 60.89 50.66 60.09 51.42 60.09C52.18 60.09 53.3 60.89 53.3 61.37C53.3 61.85 52.19 61.92 51.43 61.92Z" fill="white"/>
<path d="M46.45 64.11H46.15C46.05 64.11 45.93 64.11 45.79 64.11C45.65 64.12 45.48 64.14 45.3 64.16C44.94 64.2 44.5 64.28 44.01 64.42C43.51 64.55 42.97 64.75 42.39 64.98C41.81 65.23 41.19 65.51 40.56 65.87C39.93 66.22 39.28 66.61 38.64 67.06C38 67.51 37.35 68 36.74 68.55C36.59 68.69 36.44 68.83 36.3 68.98C36.16 69.13 36 69.28 35.87 69.43C35.61 69.75 35.34 70.07 35.11 70.42C34.62 71.1 34.21 71.83 33.83 72.56C33.48 73.3 33.15 74.05 32.9 74.79C32.77 75.16 32.65 75.53 32.56 75.9C32.51 76.08 32.46 76.26 32.41 76.44C32.38 76.62 32.34 76.8 32.3 76.98C32.26 77.16 32.22 77.33 32.19 77.5C32.17 77.68 32.15 77.85 32.13 78.01C32.11 78.18 32.08 78.34 32.07 78.51C32.07 78.67 32.06 78.83 32.05 78.99C32.05 79.15 32.04 79.3 32.03 79.45C32.03 79.6 32.04 79.75 32.05 79.89C32.06 80.18 32.06 80.45 32.11 80.7C32.15 80.96 32.18 81.19 32.22 81.41C32.28 81.62 32.33 81.82 32.38 82C32.41 82.09 32.43 82.17 32.45 82.25C32.43 82.18 32.4 82.09 32.37 82C32.32 81.82 32.26 81.63 32.2 81.41C32.15 81.19 32.12 80.96 32.08 80.7C32.03 80.45 32.03 80.17 32.01 79.89C32.01 79.75 31.99 79.6 31.99 79.45C31.99 79.3 32 79.14 32.01 78.98C32.01 78.82 32.02 78.66 32.03 78.5C32.04 78.33 32.07 78.17 32.09 78C32.11 77.83 32.13 77.66 32.15 77.49C32.18 77.32 32.22 77.14 32.25 76.96C32.28 76.78 32.32 76.6 32.36 76.42C32.41 76.24 32.45 76.06 32.5 75.87C32.59 75.5 32.71 75.13 32.83 74.76C33.07 74.01 33.4 73.26 33.75 72.51C34.13 71.77 34.53 71.04 35.02 70.35C35.25 70 35.53 69.68 35.79 69.35C35.93 69.19 36.08 69.05 36.22 68.9C36.36 68.75 36.52 68.6 36.67 68.47C37.29 67.92 37.94 67.43 38.59 66.98C39.24 66.53 39.89 66.14 40.52 65.79C41.15 65.44 41.78 65.16 42.35 64.91C42.94 64.68 43.49 64.49 43.98 64.37C44.48 64.24 44.92 64.17 45.28 64.13C45.46 64.11 45.63 64.1 45.77 64.09C45.91 64.09 46.03 64.09 46.13 64.09C46.33 64.09 46.43 64.09 46.43 64.09L46.45 64.11Z" fill="#362010"/>
<path d="M46.2602 62.99C46.2602 62.99 45.9502 62.99 45.4102 63.01C45.2802 63.01 45.1202 63.01 44.9602 63.02C44.8002 63.04 44.6202 63.05 44.4302 63.07C44.0502 63.1 43.6302 63.13 43.1802 63.2C42.9502 63.23 42.7102 63.26 42.4702 63.3C42.2302 63.35 41.9702 63.4 41.7202 63.45C41.1902 63.54 40.6702 63.71 40.1102 63.85C39.5702 64.04 38.9902 64.2 38.4402 64.45C37.8702 64.66 37.3302 64.96 36.7802 65.23C36.2502 65.54 35.7102 65.83 35.2202 66.19C34.7102 66.51 34.2602 66.91 33.8102 67.27C33.3902 67.67 32.9602 68.03 32.6202 68.43C32.4402 68.62 32.2602 68.81 32.0902 68.99C31.9402 69.19 31.7902 69.37 31.6402 69.55C31.3402 69.9 31.1102 70.26 30.8902 70.57C30.7802 70.72 30.6802 70.87 30.5902 71C30.5102 71.14 30.4302 71.27 30.3602 71.38C30.0802 71.85 29.9302 72.11 29.9302 72.11C29.9302 72.11 30.0802 71.84 30.3502 71.37C30.4202 71.25 30.4902 71.12 30.5702 70.98C30.6602 70.84 30.7602 70.7 30.8602 70.54C31.0702 70.23 31.2902 69.87 31.5902 69.51C31.7302 69.33 31.8802 69.14 32.0402 68.94C32.2102 68.76 32.3802 68.56 32.5602 68.37C32.9102 67.96 33.3302 67.6 33.7502 67.2C34.2002 66.84 34.6502 66.44 35.1602 66.1C35.6502 65.74 36.1902 65.44 36.7202 65.12C37.2802 64.85 37.8202 64.56 38.3902 64.35C38.9502 64.1 39.5202 63.94 40.0702 63.75C40.6302 63.61 41.1702 63.44 41.6902 63.36C41.9502 63.31 42.2002 63.26 42.4502 63.21C42.7002 63.18 42.9302 63.15 43.1702 63.12C43.6302 63.05 44.0502 63.03 44.4302 63.01C44.6202 63 44.7902 62.99 44.9602 62.98C45.1202 62.98 45.2702 62.98 45.4102 62.98C45.9502 62.98 46.2602 62.98 46.2602 62.98V62.99Z" fill="#362010"/>
<path d="M47.0101 64.74C47.0101 64.74 46.9401 64.74 46.8101 64.77C46.6801 64.79 46.4901 64.8 46.2601 64.86C46.0201 64.9 45.75 64.99 45.43 65.1C45.28 65.16 45.1101 65.23 44.9401 65.3C44.7701 65.39 44.59 65.47 44.42 65.57C44.07 65.78 43.6901 66.02 43.3401 66.34C42.9801 66.64 42.63 67 42.3 67.39C41.97 67.78 41.6701 68.22 41.3901 68.68C41.1101 69.14 40.8701 69.63 40.6501 70.13C39.7601 72.13 39.43 74.35 39.49 75.99C39.52 76.81 39.62 77.49 39.73 77.96C39.78 78.2 39.8401 78.38 39.8701 78.5C39.8301 78.38 39.77 78.2 39.72 77.96C39.66 77.73 39.6 77.44 39.55 77.11C39.5 76.78 39.4601 76.4 39.4401 75.99C39.3601 74.35 39.6801 72.12 40.5701 70.1C40.8001 69.6 41.0401 69.1 41.3301 68.64C41.6201 68.18 41.9201 67.74 42.2601 67.35C42.5901 66.95 42.9401 66.6 43.3101 66.3C43.6701 65.99 44.0501 65.74 44.4001 65.53C44.5801 65.43 44.76 65.35 44.93 65.26C45.11 65.19 45.27 65.13 45.43 65.06C45.75 64.96 46.0301 64.88 46.2701 64.84C46.5101 64.78 46.6901 64.78 46.8201 64.76C46.9501 64.74 47.0201 64.74 47.0201 64.74H47.0101Z" fill="#362010"/>
<path d="M55.86 64.11C55.86 64.11 55.97 64.11 56.16 64.11C56.26 64.11 56.3801 64.11 56.5201 64.11C56.6601 64.12 56.8301 64.13 57.0101 64.15C57.3701 64.19 57.8201 64.26 58.3101 64.39C58.8101 64.51 59.3501 64.7 59.9401 64.93C60.5201 65.18 61.1401 65.46 61.7701 65.81C62.4001 66.16 63.0601 66.55 63.7001 67C64.3501 67.45 65.0001 67.94 65.6201 68.49C65.7701 68.62 65.9301 68.77 66.0701 68.92C66.2101 69.07 66.3701 69.21 66.5001 69.37C66.7701 69.7 67.0401 70.02 67.2701 70.37C67.7601 71.06 68.17 71.8 68.54 72.53C68.89 73.28 69.2201 74.03 69.4601 74.78C69.5901 75.16 69.7 75.52 69.79 75.89C69.84 76.07 69.8801 76.26 69.9301 76.44C69.9601 76.62 70 76.8 70.04 76.98C70.07 77.16 70.1101 77.33 70.1401 77.51C70.1601 77.68 70.1801 77.86 70.2001 78.02C70.2201 78.19 70.2501 78.35 70.2601 78.52C70.2601 78.68 70.2701 78.84 70.2801 79C70.2801 79.16 70.29 79.31 70.3 79.47C70.3 79.62 70.2801 79.77 70.2801 79.91C70.2601 80.2 70.2601 80.47 70.2101 80.72C70.1601 80.97 70.1401 81.21 70.0901 81.43C70.0301 81.64 69.97 81.84 69.92 82.02C69.89 82.11 69.87 82.19 69.85 82.27C69.82 82.35 69.7901 82.42 69.7601 82.48C69.7901 82.42 69.82 82.34 69.85 82.27C69.87 82.19 69.9 82.11 69.92 82.02C69.97 81.84 70.0201 81.64 70.0801 81.43C70.1301 81.21 70.1501 80.98 70.1901 80.72C70.2401 80.47 70.2401 80.2 70.2501 79.91C70.2501 79.77 70.2601 79.62 70.2701 79.47C70.2701 79.32 70.2601 79.17 70.2501 79.01C70.2401 78.85 70.23 78.69 70.23 78.53C70.21 78.37 70.19 78.2 70.17 78.03C70.15 77.86 70.12 77.69 70.11 77.52C70.08 77.35 70.0401 77.17 70.0001 77C69.9701 76.82 69.9301 76.65 69.8901 76.46C69.8401 76.28 69.7901 76.1 69.7401 75.92C69.6501 75.55 69.5301 75.18 69.4001 74.81C69.1501 74.07 68.83 73.32 68.47 72.58C68.09 71.85 67.6901 71.11 67.1901 70.44C66.9601 70.09 66.6901 69.77 66.4301 69.45C66.3001 69.29 66.1401 69.15 66.0001 69C65.8601 68.85 65.7101 68.71 65.5601 68.57C64.9401 68.02 64.3001 67.53 63.6501 67.08C63.0101 66.63 62.36 66.24 61.73 65.89C61.1 65.53 60.4801 65.26 59.9001 65C59.3201 64.77 58.7701 64.58 58.2801 64.44C57.7901 64.3 57.3501 64.23 56.9901 64.18C56.8101 64.16 56.6401 64.15 56.5001 64.13C56.3601 64.13 56.2401 64.13 56.1401 64.13H55.8401L55.86 64.11Z" fill="#362010"/>
<path d="M56.05 62.99C56.05 62.99 56.3601 62.99 56.9001 62.99C57.0401 62.99 57.18 62.99 57.35 62.99C57.51 63 57.6901 63.01 57.8801 63.02C58.2601 63.04 58.6801 63.07 59.1401 63.13C59.3701 63.16 59.61 63.19 59.86 63.22C60.1 63.27 60.3601 63.32 60.6201 63.37C61.1501 63.46 61.6801 63.63 62.2401 63.76C62.7901 63.94 63.36 64.11 63.92 64.36C64.49 64.57 65.0401 64.86 65.5901 65.13C66.1201 65.45 66.6601 65.75 67.1501 66.11C67.6601 66.44 68.1101 66.85 68.5601 67.21C68.9801 67.61 69.4001 67.98 69.7501 68.38C69.9301 68.58 70.1001 68.77 70.2701 68.95C70.4201 69.15 70.57 69.34 70.72 69.52C71.02 69.88 71.2501 70.24 71.4501 70.55C71.5601 70.71 71.6501 70.85 71.7401 70.99C71.8201 71.13 71.8901 71.26 71.9601 71.38C72.2301 71.85 72.3801 72.12 72.3801 72.12C72.3801 72.12 72.2201 71.85 71.9501 71.39C71.8801 71.28 71.81 71.15 71.72 71.01C71.63 70.87 71.52 70.73 71.42 70.58C71.21 70.27 70.97 69.92 70.67 69.56C70.53 69.38 70.38 69.19 70.22 69C70.05 68.82 69.8701 68.63 69.6901 68.44C69.3401 68.04 68.9201 67.68 68.5001 67.28C68.0501 66.92 67.6001 66.53 67.0901 66.2C66.6001 65.84 66.0601 65.54 65.5301 65.24C64.9801 64.97 64.4401 64.67 63.8701 64.46C63.3101 64.21 62.7401 64.04 62.2001 63.86C61.6401 63.72 61.1101 63.54 60.5901 63.46C60.3301 63.41 60.0801 63.36 59.8401 63.31C59.5901 63.28 59.3601 63.24 59.1301 63.21C58.6701 63.14 58.2501 63.11 57.8801 63.08C57.6901 63.07 57.52 63.05 57.35 63.03C57.19 63.03 57.0401 63.03 56.9001 63.02C56.3601 63 56.05 63 56.05 63V62.99Z" fill="#362010"/>
<path d="M55.3 64.74C55.3 64.74 55.3701 64.74 55.5001 64.76C55.6301 64.78 55.82 64.79 56.05 64.84C56.29 64.88 56.5701 64.96 56.8901 65.06C57.0501 65.12 57.2101 65.19 57.3901 65.26C57.5601 65.35 57.74 65.43 57.92 65.53C58.28 65.74 58.6601 65.98 59.0101 66.3C59.3701 66.6 59.7301 66.96 60.0601 67.35C60.4001 67.74 60.7001 68.18 60.9901 68.64C61.2801 69.1 61.5201 69.6 61.7501 70.1C62.6301 72.12 62.9501 74.35 62.8801 75.99C62.8701 76.4 62.8201 76.78 62.7701 77.11C62.7201 77.44 62.66 77.73 62.6 77.96C62.55 78.19 62.4901 78.37 62.4501 78.5C62.4901 78.38 62.5401 78.2 62.5901 77.96C62.7001 77.49 62.8101 76.82 62.8301 75.99C62.8901 74.35 62.56 72.14 61.67 70.13C61.45 69.63 61.2101 69.14 60.9301 68.68C60.6501 68.22 60.3501 67.78 60.0201 67.39C59.6901 66.99 59.34 66.64 58.98 66.34C58.63 66.03 58.2601 65.78 57.9001 65.57C57.7201 65.46 57.5401 65.39 57.3801 65.3C57.2101 65.23 57.0501 65.16 56.8901 65.1C56.5701 64.99 56.3001 64.9 56.0601 64.86C55.8301 64.8 55.6401 64.79 55.5101 64.77C55.3901 64.75 55.3101 64.74 55.3101 64.74H55.3Z" fill="#362010"/>
</svg>
