<svg width="102" height="102" viewBox="0 0 102 102" fill="none" xmlns="http://www.w3.org/2000/svg">
<path d="M92.48 0.299988H8.89001C4.10171 0.299988 0.219971 4.18166 0.219971 8.96997V92.56C0.219971 97.3483 4.10171 101.23 8.89001 101.23H92.48C97.2683 101.23 101.15 97.3483 101.15 92.56V8.96997C101.15 4.18166 97.2683 0.299988 92.48 0.299988Z" fill="#E57D25"/>
<path d="M50.6799 76.15C48.5999 76.12 46.5599 75.81 43.1699 75.28L42.21 75.13C38.87 74.62 34.5599 72.99 31.8699 70.46C31.8499 70.46 31.8299 70.46 31.8199 70.46C30.3499 70.46 27.2799 68.47 26.1299 60.92C25.7599 58.46 26.6599 51.05 28.4799 46.51C28.8299 45.28 29.0499 44.51 29.1799 44.1C29.2099 44.01 29.2399 43.89 29.2899 43.77C27.6099 43.13 26.3299 42.03 25.4499 40.49C22.5799 35.43 25.3699 27.34 25.4899 27C25.6299 26.59 25.9599 26.28 26.3699 26.16C26.4799 26.13 29.0499 25.4 32.0999 25.4C36.9699 25.4 40.36 27.3 41.77 30.79C43.8 30.41 46.8099 30.13 48.6799 30.02C49.3399 29.96 50.0299 29.93 50.6799 29.93C51.2799 29.93 51.9199 29.96 52.5599 30.01C54.3699 30.11 57.5 30.4 59.58 30.79C61 27.3 64.3799 25.39 69.2499 25.39C72.2999 25.39 74.8799 26.12 74.9799 26.15C75.3899 26.27 75.7199 26.58 75.8599 26.99C75.9799 27.33 78.77 35.42 75.9 40.48C75.02 42.03 73.7299 43.13 72.0599 43.76C72.1099 43.88 72.1399 44 72.1699 44.09C72.2999 44.5 72.5199 45.27 72.8699 46.5C74.6899 51.05 75.5999 58.46 75.2199 60.91C74.0699 68.46 71 70.45 69.53 70.45C69.51 70.45 69.4999 70.45 69.4799 70.45C66.7999 72.98 62.4799 74.61 59.1399 75.12L58.1399 75.27C54.8299 75.78 52.81 76.09 50.78 76.13C50.74 76.13 50.6999 76.13 50.6699 76.13H50.65L50.6799 76.15Z" fill="#2F150C"/>
<path d="M31.0199 42.88C30.6499 44.09 30.6199 44.08 30.5999 44.08C30.5699 44.08 30.5499 44.06 29.7299 46.93C27.9999 51.2 27.0999 58.48 27.4299 60.72C28.6699 68.87 32.2999 69.81 32.1099 68.81C34.5199 71.62 39.1399 73.32 42.3999 73.82C46.3199 74.42 48.5199 74.79 50.6899 74.82C52.8499 74.79 55.0499 74.42 58.9599 73.82C62.2199 73.32 66.8399 71.61 69.2499 68.81C69.0699 69.81 72.6999 68.87 73.9299 60.72C74.2699 58.48 73.3599 51.21 71.6299 46.94C70.8199 44.07 70.7899 44.08 70.7599 44.08C70.7399 44.08 70.7099 44.09 70.3399 42.88C79.4099 41.04 74.6299 27.43 74.6299 27.43C74.6299 27.43 62.5898 23.96 60.4698 32.35C58.9098 31.89 54.9699 31.48 52.4599 31.33C51.8699 31.28 51.2699 31.26 50.6799 31.26C50.0399 31.26 49.3999 31.29 48.7599 31.34C46.2499 31.49 42.4199 31.89 40.8899 32.35C38.7799 23.96 26.7299 27.43 26.7299 27.43C26.7299 27.43 21.9499 41.04 31.0199 42.88Z" fill="#2F150C"/>
<path d="M70.3499 42.88C79.4199 41.04 74.6399 27.43 74.6399 27.43C74.6399 27.43 62.5999 23.96 60.4799 32.35C58.5299 31.77 52.8699 31.28 50.9199 31.28C50.8499 31.28 50.7699 31.28 50.6899 31.28H50.4599C48.5099 31.28 42.8499 31.77 40.8999 32.35C38.7899 23.96 26.7399 27.43 26.7399 27.43C26.7399 27.43 21.9599 41.04 31.0299 42.88C30.6599 44.09 30.6299 44.08 30.6099 44.08C30.5799 44.08 30.5599 44.06 29.7399 46.93C28.0099 51.2 27.1099 58.48 27.4399 60.72C28.6799 68.87 32.3099 69.81 32.1199 68.81C34.5299 71.62 39.1499 73.32 42.4099 73.82C46.3299 74.42 48.5299 74.79 50.6999 74.82C52.8599 74.79 55.0598 74.42 58.9698 73.82C62.2298 73.32 66.8499 71.61 69.2599 68.81C69.0799 69.81 72.7099 68.87 73.9399 60.72C74.2799 58.48 73.3699 51.21 71.6399 46.94C70.8299 44.07 70.7999 44.08 70.7699 44.08C70.7499 44.08 70.7199 44.09 70.3499 42.88Z" fill="#705325"/>
<path d="M30.2899 39.88C29.3899 39.45 28.9699 38.84 28.7199 38.37C27.4699 36.04 28.1 32.04 28.71 29.7C29.58 29.54 30.7999 29.37 32.1099 29.37C35.7799 29.37 37.2799 30.62 37.9399 31.72C37.9399 31.72 34.2499 33.89 33.2999 34.91C32.3499 35.93 30.2999 39.89 30.2999 39.89L30.2899 39.88Z" fill="#D69891"/>
<path d="M70.9798 39.88C71.8798 39.45 72.2998 38.84 72.5498 38.37C73.7998 36.04 73.1698 32.04 72.5598 29.7C71.6898 29.54 70.4698 29.37 69.1598 29.37C65.4898 29.37 63.9898 30.62 63.3298 31.72C63.3298 31.72 67.0198 33.89 67.9698 34.91C68.9198 35.93 70.9698 39.89 70.9698 39.89L70.9798 39.88Z" fill="#D69891"/>
<path d="M65.3497 35.69C64.0397 34.42 57.3598 31.26 50.6898 31.26C44.0198 31.26 37.3298 34.42 36.0298 35.69C34.3098 37.37 28.9697 47.55 28.9697 55.98C28.9697 56.41 28.9897 56.83 29.0497 57.25C29.5497 61.46 32.6697 65.94 37.5997 69.56C41.8997 72.71 47.1598 74.83 50.6898 74.83C54.2198 74.83 59.4698 72.71 63.7798 69.56C68.7198 65.95 71.8298 61.46 72.3298 57.25C72.3798 56.84 72.4097 56.41 72.4097 55.98C72.4097 47.55 67.0697 37.37 65.3497 35.69Z" fill="#8E6938"/>
<path d="M31.4099 52.08C31.4099 52.08 35.9899 61.55 39.9099 61.55C42.9199 61.55 46.6699 60.01 46.6699 60.01C46.6699 60.01 48.2699 44.23 39.5599 43.72C35.6399 43.49 31.3999 52.07 31.3999 52.07" fill="#705325"/>
<path d="M70.0399 52.08C70.0399 52.08 65.4599 61.55 61.5399 61.55C58.5299 61.55 54.7799 60.01 54.7799 60.01C54.7799 60.01 53.1899 44.23 61.8899 43.72C65.8099 43.49 70.0499 52.07 70.0499 52.07" fill="#705325"/>
<path d="M35.6599 45.81C35.6599 45.81 35.67 45.77 35.71 45.71C35.74 45.65 35.7899 45.55 35.8699 45.43C35.9399 45.31 36.0399 45.18 36.1699 45.03C36.2999 44.89 36.4399 44.71 36.6299 44.57C36.7199 44.49 36.8199 44.41 36.9199 44.33C37.0299 44.26 37.1399 44.1799 37.2499 44.0999C37.3699 44.0199 37.4999 43.96 37.6299 43.89C37.7599 43.83 37.8999 43.75 38.0399 43.7C38.3299 43.6 38.6399 43.49 38.9699 43.44C39.2899 43.36 39.6299 43.37 39.9699 43.37C40.3099 43.37 40.63 43.45 40.96 43.51C41.27 43.61 41.5799 43.71 41.8599 43.83C42.1299 43.97 42.3799 44.12 42.6199 44.27C42.8499 44.43 43.03 44.61 43.21 44.76C43.3 44.84 43.38 44.91 43.46 44.99C43.53 45.07 43.5999 45.15 43.6599 45.23C43.7799 45.38 43.88 45.52 43.96 45.62C44.12 45.84 44.2 45.98 44.2 45.98C44.2 45.98 44.0399 45.93 43.7999 45.83C43.6799 45.78 43.5199 45.72 43.3699 45.64C43.2099 45.56 43.0199 45.4899 42.8099 45.4099C42.5999 45.3399 42.3999 45.2399 42.1699 45.1599C41.9399 45.0899 41.7 45.02 41.46 44.94C41.21 44.89 40.96 44.84 40.71 44.78C40.58 44.77 40.45 44.76 40.33 44.74C40.2 44.73 40.0699 44.7 39.9399 44.71C39.6799 44.71 39.4199 44.69 39.1599 44.73C39.0299 44.75 38.9 44.73 38.78 44.77C38.66 44.79 38.5299 44.82 38.4099 44.84C38.2799 44.85 38.1699 44.9 38.0499 44.92C37.9299 44.95 37.81 44.98 37.7 45.01C37.47 45.08 37.2599 45.15 37.0599 45.23C36.8599 45.3 36.6799 45.38 36.5099 45.45C36.3499 45.53 36.2 45.59 36.08 45.65C35.96 45.71 35.8599 45.75 35.7999 45.78C35.7299 45.81 35.7 45.83 35.7 45.83L35.6599 45.81Z" fill="#291F10"/>
<path d="M65.6399 45.81C65.6399 45.81 65.5999 45.79 65.5399 45.76C65.4699 45.73 65.3799 45.68 65.2599 45.63C65.1399 45.57 64.9899 45.51 64.8299 45.43C64.6599 45.37 64.4799 45.28 64.2799 45.21C64.0799 45.13 63.8599 45.06 63.6399 44.99C63.5299 44.95 63.4099 44.93 63.2899 44.9C63.1699 44.88 63.0499 44.83 62.9299 44.82C62.7999 44.8 62.6799 44.78 62.5599 44.75C62.4399 44.72 62.2999 44.73 62.1799 44.71C61.9199 44.67 61.6599 44.69 61.3999 44.69C61.2699 44.68 61.1399 44.71 61.0199 44.72C60.8899 44.74 60.7599 44.75 60.6299 44.76C60.3799 44.82 60.1299 44.87 59.8799 44.92C59.6399 45 59.3999 45.08 59.1699 45.14C58.9399 45.22 58.7399 45.32 58.5299 45.39C58.3199 45.46 58.1299 45.53 57.9799 45.62C57.8199 45.7 57.6699 45.76 57.5499 45.81C57.2999 45.91 57.1499 45.96 57.1499 45.96C57.1499 45.96 57.2299 45.82 57.3899 45.6C57.4699 45.49 57.5699 45.35 57.6899 45.21C57.7499 45.14 57.8099 45.05 57.8899 44.97C57.9699 44.9 58.0499 44.82 58.1399 44.74C58.3199 44.58 58.5099 44.4 58.7299 44.25C58.9699 44.1 59.2199 43.95 59.4899 43.81C59.7799 43.69 60.0799 43.58 60.3899 43.49C60.7099 43.44 61.0399 43.36 61.3799 43.35C61.7199 43.35 62.0599 43.35 62.3799 43.42C62.7099 43.46 63.0099 43.57 63.3099 43.68C63.4599 43.73 63.5898 43.81 63.7198 43.87C63.8498 43.94 63.9899 44 64.0999 44.08C64.2099 44.16 64.3299 44.23 64.4399 44.31C64.5399 44.39 64.6399 44.47 64.7299 44.55C64.9199 44.7 65.0499 44.88 65.1899 45.01C65.3099 45.16 65.4099 45.29 65.4899 45.41C65.5699 45.52 65.6199 45.62 65.6499 45.69C65.6899 45.76 65.6999 45.79 65.6999 45.79L65.6399 45.81Z" fill="#291F10"/>
<path d="M46.6698 60.02C39.4498 63.46 34.3598 61.23 32.0698 52.31C32.0698 52.31 40.7598 45.56 45.3798 54.21C46.0998 55.55 46.6798 60.02 46.6798 60.02" fill="white"/>
<path d="M39.6898 60.58C37.6798 60.53 35.9997 58.95 35.3497 56.74C35.1497 56.07 35.0498 55.33 35.0598 54.57C35.1298 51.5 37.0398 50.4 39.4498 50.33C39.5998 50.33 39.7498 50.33 39.8998 50.33C42.5198 50.39 44.4998 53.11 44.5498 54.78C44.6398 58.04 42.2998 60.65 39.6798 60.59" fill="#664119"/>
<path d="M39.7099 59.75C38.1899 59.71 36.8499 58.41 36.3099 56.43C36.1299 55.8 36.0499 55.13 36.0599 54.45C36.1099 52.16 37.1899 51.06 39.4799 50.99C39.5899 50.99 39.7099 50.98 39.8199 50.98H39.8899C41.9499 51.03 43.5299 53.43 43.5599 54.67C43.5999 56.17 43.0999 57.59 42.1899 58.58C41.4999 59.34 40.6299 59.75 39.7699 59.75H39.7099Z" fill="#3D2210"/>
<path d="M54.7498 60.02C61.9798 63.46 67.0597 61.23 69.3497 52.31C69.3497 52.31 60.6597 45.56 56.0397 54.21C55.3297 55.55 54.7397 60.02 54.7397 60.02" fill="white"/>
<path d="M61.7299 60.58C63.7399 60.53 65.4199 58.95 66.0599 56.74C66.2599 56.07 66.3599 55.33 66.3499 54.57C66.2799 51.5 64.38 50.4 61.96 50.33C61.81 50.33 61.66 50.33 61.51 50.33C58.89 50.39 56.8999 53.11 56.8599 54.78C56.7699 58.04 59.1099 60.65 61.7299 60.59" fill="#664119"/>
<path d="M61.6499 59.75C60.7799 59.75 59.9299 59.33 59.2299 58.58C58.3199 57.59 57.8199 56.17 57.8599 54.67C57.8899 53.44 59.4699 51.03 61.5399 50.98H61.5999C61.7099 50.98 61.8299 50.98 61.9399 50.99C64.2299 51.06 65.3099 52.16 65.3599 54.45C65.3699 55.13 65.2899 55.8 65.1199 56.43C64.5699 58.41 63.2399 59.71 61.7199 59.75H61.6599" fill="#3D2210"/>
<path d="M40.01 53.34C39.97 55.31 38.65 56.89 37.06 56.86C36.34 56.85 35.7 56.51 35.2 55.95C35.03 55.36 34.94 54.72 34.95 54.05C35.01 51.35 36.6799 50.39 38.7899 50.33C39.5499 50.99 40.03 52.09 40.01 53.34Z" fill="white"/>
<path d="M42.5098 59.06C42.4898 59.73 42.0498 60.26 41.5098 60.25C40.9698 60.24 40.5497 59.69 40.5597 59.02C40.5797 58.35 41.0197 57.82 41.5597 57.83C42.0997 57.84 42.5198 58.39 42.5098 59.06Z" fill="white"/>
<path d="M61.5998 53.64C61.5598 55.62 60.2399 57.19 58.6499 57.16C57.9299 57.14 57.2898 56.8 56.7898 56.25C56.6198 55.66 56.5298 55.02 56.5398 54.35C56.5998 51.65 58.2698 50.69 60.3798 50.63C61.1398 51.29 61.6198 52.39 61.5998 53.64Z" fill="white"/>
<path d="M64.29 59.06C64.27 59.73 63.83 60.26 63.29 60.25C62.75 60.24 62.32 59.69 62.34 59.02C62.35 58.35 62.8 57.82 63.34 57.83C63.88 57.84 64.3 58.39 64.29 59.06Z" fill="white"/>
<path d="M46.6799 60.01H45.3799V60.58H46.6799V60.01Z" fill="#88673C"/>
<path d="M46.6698 60.02C46.6698 60.02 46.0898 55.56 45.3698 54.21C43.5698 50.83 41.1398 49.8 38.8598 49.8C35.2898 49.8 32.0698 52.31 32.0698 52.31C32.1998 52.8 32.3298 53.27 32.4698 53.71C32.3298 53.26 32.1898 52.79 32.0698 52.31C32.0698 52.31 35.2998 49.8 38.8598 49.8C41.1498 49.8 43.5698 50.83 45.3798 54.21C46.0798 55.54 46.6598 59.89 46.6798 60.01" fill="#6E532A"/>
<path d="M45.3798 60.58C45.1398 59.31 44.8198 57.88 44.4698 57.21C44.3998 57.09 44.3398 56.97 44.2698 56.85C44.4698 56.2 44.5798 55.5 44.5598 54.76C44.5098 53.09 42.5298 50.37 39.9098 50.31H39.8298C39.7098 50.31 39.5798 50.31 39.4598 50.31C39.2498 50.31 39.0398 50.33 38.8298 50.35C38.8198 50.34 38.7998 50.33 38.7898 50.32C36.8898 50.38 35.3398 51.16 35.0098 53.29C34.1098 53.59 33.3098 53.97 32.6798 54.32C32.6098 54.11 32.5298 53.91 32.4698 53.69C32.3298 53.24 32.1898 52.77 32.0698 52.29C32.0698 52.29 35.2998 49.78 38.8598 49.78C41.1498 49.78 43.5698 50.81 45.3698 54.19C46.0898 55.53 46.6698 60 46.6698 60C46.2298 60.21 45.7998 60.4 45.3698 60.57" fill="#E2E1E1"/>
<path d="M44.2698 56.86C44.0198 56.44 43.7698 56.05 43.4998 55.7C43.5498 55.36 43.5698 55.02 43.5598 54.68C43.5298 53.45 41.9498 51.04 39.8898 50.99H39.8198C39.7098 50.99 39.5898 50.99 39.4798 51C39.4398 51 39.3998 51 39.3598 51C39.1998 50.76 39.0198 50.55 38.8298 50.37C39.0398 50.35 39.2398 50.33 39.4598 50.33C39.5898 50.33 39.7098 50.33 39.8298 50.33H39.9098C42.5298 50.39 44.5098 53.11 44.5598 54.78C44.5798 55.52 44.4698 56.22 44.2698 56.87" fill="#65441E"/>
<path d="M43.4999 55.7C42.4399 54.3 41.2299 53.5 39.9999 53.11C39.9699 52.31 39.7399 51.58 39.3599 51C39.3999 51 39.4399 51 39.4799 51C39.5899 51 39.7099 50.99 39.8199 50.99H39.8899C41.9499 51.04 43.5299 53.44 43.5599 54.68C43.5599 55.03 43.5499 55.37 43.4999 55.7Z" fill="#402718"/>
<path d="M35.01 53.31C35.34 51.18 36.89 50.39 38.79 50.34C38.8 50.35 38.82 50.36 38.83 50.37C39.03 50.55 39.21 50.76 39.36 51C39.74 51.58 39.98 52.31 40 53.11C39.31 52.89 38.62 52.8 37.94 52.8C36.91 52.8 35.91 53.01 35 53.31" fill="#E2E1E1"/>
<path d="M56.05 60.58C55.63 60.41 55.19 60.23 54.75 60.01C55.19 60.22 55.62 60.41 56.05 60.58Z" fill="#88673C"/>
<path d="M54.7598 59.91C54.8598 59.21 55.3997 55.43 56.0397 54.21C56.2597 53.8 56.4797 53.42 56.7197 53.08C56.4797 53.42 56.2597 53.8 56.0397 54.2C55.3897 55.42 54.8498 59.21 54.7598 59.9" fill="#6E532A"/>
<path d="M56.05 60.58C55.62 60.41 55.19 60.22 54.75 60.01C54.75 60.01 54.75 59.97 54.76 59.9C54.86 59.21 55.4 55.42 56.04 54.2C56.26 53.79 56.48 53.42 56.72 53.08C56.62 53.45 56.55 53.87 56.54 54.35C56.53 55.01 56.62 55.66 56.79 56.25C56.87 56.34 56.96 56.43 57.05 56.51C57.08 56.63 57.11 56.75 57.15 56.86C57.08 56.98 57.02 57.1 56.95 57.22C56.6 57.88 56.28 59.31 56.04 60.59" fill="#E2E1E1"/>
<path d="M57.1498 56.86C57.1098 56.74 57.0798 56.63 57.0498 56.51C57.1198 56.57 57.1898 56.63 57.2598 56.68C57.2198 56.74 57.1898 56.8 57.1498 56.86Z" fill="#65441E"/>
<path d="M68.9299 53.77C69.0799 53.3 69.2199 52.81 69.3499 52.3C69.3499 52.3 66.1199 49.79 62.5599 49.79C61.3499 49.79 60.0999 50.08 58.9199 50.85C60.0999 50.07 61.3499 49.79 62.5599 49.79C66.1299 49.79 69.3599 52.3 69.3599 52.3C69.2299 52.81 69.0899 53.3 68.9399 53.77" fill="#6E532A"/>
<path d="M68.7399 54.34C68.0499 53.96 67.1699 53.54 66.1799 53.24C65.6599 51.17 63.99 50.39 61.96 50.33C61.84 50.33 61.71 50.33 61.59 50.33H61.52C60.98 50.34 60.4799 50.47 59.9999 50.67C59.6199 50.7 59.2599 50.77 58.9199 50.87C60.0999 50.09 61.3399 49.81 62.5599 49.81C66.1299 49.81 69.3499 52.32 69.3499 52.32C69.2199 52.83 69.0799 53.32 68.9299 53.79C68.8699 53.98 68.7999 54.17 68.7399 54.36" fill="#E2E1E1"/>
<path d="M66.18 53.24C65.84 53.14 65.49 53.05 65.13 52.97C64.7 51.68 63.66 51.05 61.94 50.99C61.82 50.99 61.71 50.98 61.6 50.98H61.54C61.29 50.98 61.06 51.03 60.82 51.09C60.69 50.92 60.54 50.76 60.39 50.63C60.26 50.63 60.13 50.64 60 50.65C60.47 50.45 60.98 50.33 61.52 50.31H61.59C61.72 50.31 61.84 50.31 61.96 50.31C63.98 50.37 65.65 51.15 66.18 53.22" fill="#65441E"/>
<path d="M61.5798 53.06C61.4998 52.3 61.2298 51.62 60.8198 51.1C61.0498 51.03 61.2898 50.99 61.5398 50.99H61.5998C61.7098 50.99 61.8298 50.99 61.9398 51C63.6598 51.05 64.6998 51.69 65.1298 52.98C64.5998 52.87 64.0398 52.81 63.4698 52.81C62.8498 52.81 62.2098 52.89 61.5798 53.07" fill="#402718"/>
<path d="M57.2598 56.68C57.1898 56.63 57.1198 56.57 57.0498 56.51C56.9598 56.43 56.8798 56.35 56.7898 56.25C56.6198 55.66 56.5298 55.02 56.5398 54.35C56.5498 53.87 56.6098 53.45 56.7198 53.08C57.3998 52.09 58.1398 51.38 58.9098 50.86C59.2498 50.76 59.6098 50.69 59.9898 50.66C60.1198 50.66 60.2498 50.64 60.3798 50.64C60.5398 50.78 60.6798 50.93 60.8098 51.1C61.2098 51.63 61.4898 52.31 61.5698 53.06C60.0198 53.5 58.5098 54.58 57.2498 56.68" fill="#E2E1E1"/>
<path d="M46.6699 60.02C46.5799 59.58 46.4799 59.14 46.3799 58.7C46.2799 58.26 46.19 57.82 46.08 57.38C45.97 56.95 45.8599 56.51 45.7399 56.08C45.6199 55.64 45.4799 55.26 45.3199 54.84C45.2299 54.65 45.1399 54.4 45.0399 54.26L44.6899 53.7C44.4399 53.34 44.19 52.99 43.89 52.67C43.75 52.5 43.6 52.34 43.45 52.2C43.3 52.05 43.1399 51.9 42.9799 51.77C42.8199 51.63 42.6499 51.5 42.4799 51.39C42.3099 51.27 42.1299 51.15 41.9399 51.06C41.5799 50.85 41.1799 50.71 40.7899 50.58C40.3999 50.46 39.9799 50.38 39.5699 50.34C39.1499 50.31 38.7299 50.3 38.3099 50.34C37.8899 50.37 37.4699 50.46 37.0599 50.55C36.2299 50.75 35.42 51.04 34.64 51.42C34.25 51.61 33.8699 51.8099 33.4999 52.0399C33.1299 52.2599 32.7499 52.5 32.4299 52.74L32.6299 52.15L32.96 53.32C33.06 53.71 33.21 54.0899 33.34 54.4699C33.47 54.8499 33.6099 55.23 33.7899 55.59C33.9599 55.95 34.0999 56.34 34.2999 56.67C34.4999 57.01 34.66 57.39 34.9 57.7C35.14 58.01 35.3299 58.37 35.6099 58.65C35.8799 58.94 36.1199 59.25 36.4299 59.49L36.8699 59.87L37.3599 60.19C37.6799 60.42 38.04 60.5599 38.4 60.7199C38.76 60.8799 39.15 60.95 39.52 61.07C39.91 61.12 40.3 61.1999 40.7 61.2199C41.1 61.2099 41.4999 61.26 41.9099 61.2C42.3099 61.15 42.7199 61.15 43.1199 61.05C43.5199 60.96 43.9299 60.92 44.3199 60.78C44.7099 60.66 45.1099 60.56 45.4999 60.42L46.6699 60V60.02ZM46.6699 60.02L45.5599 60.59C45.1899 60.78 44.7899 60.91 44.4099 61.07C44.0199 61.25 43.61 61.33 43.21 61.46C42.81 61.61 42.3899 61.65 41.9699 61.74C41.5599 61.84 41.1199 61.82 40.6899 61.86C40.2599 61.87 39.83 61.8199 39.4 61.7899C38.98 61.6799 38.5299 61.64 38.1299 61.48C37.7199 61.32 37.2999 61.18 36.9299 60.94L36.3599 60.61L35.84 60.21C35.47 59.95 35.1899 59.63 34.8799 59.31C34.5599 59.01 34.3399 58.6299 34.0599 58.2899C33.7799 57.9499 33.5999 57.56 33.3699 57.2C33.1299 56.84 32.9799 56.44 32.7899 56.06C32.5899 55.67 32.4499 55.27 32.2999 54.87C32.1499 54.47 31.9899 54.08 31.8799 53.67L31.52 52.45L31.4099 52.09L31.7199 51.86C32.1199 51.56 32.5 51.31 32.9 51.07C33.3 50.83 33.72 50.62 34.14 50.42C34.99 50.02 35.8799 49.71 36.7999 49.49C37.2599 49.39 37.7399 49.32 38.2199 49.3C38.6999 49.26 39.1799 49.29 39.6599 49.34C40.1399 49.4 40.62 49.4999 41.08 49.6599C41.31 49.7399 41.5399 49.82 41.7599 49.93C41.9799 50.03 42.19 50.14 42.4 50.28C42.61 50.4 42.7999 50.54 42.9899 50.69C43.1899 50.83 43.3599 50.99 43.5399 51.15C43.7199 51.31 43.8799 51.48 44.0399 51.65C44.1999 51.82 44.3599 52 44.4899 52.19C44.7799 52.56 45.0199 52.96 45.2599 53.36L45.58 53.9699C45.71 54.2199 45.75 54.4 45.84 54.63C45.97 55.07 46.0899 55.55 46.1599 55.99C46.2499 56.44 46.3199 56.89 46.3799 57.34C46.5099 58.24 46.6099 59.1299 46.6599 60.0399L46.6699 60.02Z" fill="#291F10"/>
<path d="M54.75 60.02C54.8 59.12 54.9 58.22 55.03 57.32C55.09 56.87 55.16 56.42 55.25 55.97C55.32 55.53 55.44 55.05 55.57 54.61C55.66 54.39 55.7 54.21 55.83 53.95L56.16 53.34C56.4 52.94 56.64 52.54 56.93 52.17C57.07 51.98 57.22 51.8 57.38 51.63C57.54 51.45 57.7 51.28 57.88 51.13C58.05 50.97 58.23 50.8 58.43 50.67C58.62 50.52 58.81 50.38 59.03 50.26C59.23 50.13 59.44 50.02 59.67 49.91C59.88 49.8 60.11 49.72 60.34 49.64C60.8 49.48 61.28 49.38 61.76 49.32C62.24 49.27 62.73 49.24 63.2 49.28C63.68 49.3 64.15 49.37 64.62 49.47C65.55 49.68 66.44 50 67.28 50.4C67.7 50.6 68.12 50.82 68.52 51.05C68.93 51.29 69.31 51.54 69.7 51.84L70.01 52.07L69.9 52.43L69.54 53.65C69.43 54.06 69.27 54.46 69.12 54.85C68.98 55.25 68.82 55.65 68.64 56.04C68.45 56.42 68.29 56.82 68.05 57.18C67.81 57.54 67.64 57.94 67.36 58.27C67.09 58.61 66.87 58.99 66.54 59.29C66.24 59.61 65.95 59.93 65.58 60.19L65.06 60.59L64.49 60.92C64.12 61.16 63.7 61.3 63.29 61.46C62.88 61.62 62.44 61.67 62.02 61.77C61.59 61.8 61.15 61.85 60.72 61.84C60.29 61.8 59.86 61.82 59.44 61.72C59.03 61.63 58.6 61.59 58.2 61.44C57.8 61.31 57.39 61.22 57 61.05C56.61 60.89 56.21 60.75 55.84 60.57L54.73 60L54.75 60.02ZM54.75 60.02L55.92 60.44C56.31 60.58 56.71 60.68 57.1 60.8C57.49 60.93 57.9 60.97 58.3 61.07C58.69 61.17 59.11 61.17 59.51 61.22C59.91 61.27 60.32 61.22 60.71 61.24C61.11 61.22 61.5 61.14 61.89 61.09C62.26 60.96 62.66 60.9 63.01 60.74C63.37 60.58 63.73 60.44 64.05 60.21L64.54 59.89L64.98 59.51C65.29 59.27 65.53 58.96 65.8 58.67C66.08 58.39 66.27 58.04 66.51 57.72C66.75 57.41 66.91 57.03 67.11 56.69C67.32 56.35 67.45 55.97 67.62 55.61C67.8 55.25 67.94 54.87 68.07 54.49C68.2 54.11 68.36 53.74 68.45 53.34L68.78 52.17L68.99 52.76C68.67 52.52 68.29 52.28 67.92 52.06C67.55 51.84 67.17 51.64 66.78 51.44C66 51.07 65.19 50.77 64.36 50.57C63.94 50.48 63.53 50.39 63.11 50.36C62.69 50.31 62.27 50.32 61.86 50.36C61.44 50.4 61.03 50.47 60.64 50.6C60.25 50.73 59.85 50.87 59.49 51.08C59.3 51.17 59.13 51.28 58.95 51.41C58.77 51.52 58.61 51.66 58.45 51.79C58.28 51.92 58.13 52.07 57.98 52.22C57.82 52.36 57.68 52.52 57.54 52.69C57.25 53.01 57 53.37 56.74 53.72L56.39 54.28C56.29 54.42 56.2 54.67 56.11 54.86C55.95 55.27 55.81 55.66 55.69 56.1C55.56 56.53 55.45 56.96 55.35 57.4C55.24 57.84 55.15 58.28 55.05 58.72C54.95 59.16 54.85 59.6 54.76 60.04L54.75 60.02Z" fill="#291F10"/>
<path d="M59.2698 67.66C59.2698 70.82 55.5698 73.38 50.5898 73.38C45.6098 73.38 42.0898 70.66 42.0898 67.5C42.0898 64.34 45.5998 60.12 50.5798 60.12C55.5598 60.12 59.2598 64.5 59.2598 67.66" fill="#EDAF55"/>
<path d="M54.1597 69.1C54.1597 69.8 53.3898 70.43 52.4998 70.82C51.8998 71.09 51.2297 71.24 50.7197 71.24C50.2097 71.24 49.5498 71.08 48.9498 70.82C48.0598 70.43 47.2798 69.8 47.2798 69.1C47.2798 67.92 49.4597 66.96 50.7197 66.96C51.9797 66.96 54.1597 67.92 54.1597 69.1Z" fill="#5E2A3D"/>
<path d="M52.4999 70.82C51.8999 71.09 51.2299 71.24 50.7199 71.24C50.2099 71.24 49.55 71.08 48.95 70.82C49.07 70.33 49.5 69.97 50.03 69.97C50.3 69.97 50.5299 70.07 50.7299 70.22C50.9199 70.06 51.1599 69.97 51.4199 69.97C51.9399 69.97 52.3799 70.33 52.4999 70.82Z" fill="#C15672"/>
<path d="M50.7299 68.19C50.7299 68.92 49.5199 69.37 48.4199 69.37C47.3199 69.37 45.6699 68.59 45.6699 67.86C45.6699 67.13 47.0999 65.34 48.1899 65.34C48.8199 65.34 49.8399 65.18 50.3499 65.9C50.7299 66.45 50.71 67.87 50.71 68.18L50.7299 68.19Z" fill="#EDAF55"/>
<path d="M50.7198 68.19C50.7198 68.92 51.9299 69.37 53.0299 69.37C54.1299 69.37 55.7799 68.59 55.7799 67.86C55.7799 67.13 54.3499 65.34 53.2499 65.34C52.6099 65.34 51.5699 65.21 51.0499 65.96C50.6899 66.49 50.7198 67.88 50.7198 68.19Z" fill="#EDAF55"/>
<path d="M49.7999 65.3C49.6599 65.65 49.0398 65.67 48.4098 65.34C47.7798 65.02 47.3699 64.47 47.5099 64.12C47.6499 63.77 48.2699 63.75 48.8999 64.08C49.5299 64.41 49.9399 64.95 49.7999 65.3Z" fill="#010101"/>
<path d="M51.64 65.3C51.78 65.65 52.4 65.67 53.04 65.34C53.67 65.02 54.07 64.47 53.94 64.12C53.81 63.77 53.18 63.75 52.55 64.08C51.92 64.41 51.51 64.95 51.65 65.3H51.64Z" fill="#010101"/>
<path d="M50.7499 60.67C48.0799 60.67 47.0399 62.43 47.3099 64.04C47.4099 64.63 48.7199 63.78 49.5399 65.76C49.9699 66.8 50.03 66.97 50.77 66.97H50.78C51.51 66.97 51.5699 66.81 51.9999 65.76C52.8199 63.79 54.1299 64.64 54.2299 64.04C54.5099 62.39 53.46 60.67 50.76 60.67" fill="#231F20"/>
<path d="M58.08 67.08C58.08 67.08 58.0799 67.03 58.0599 66.99C58.0499 66.95 58.0299 66.91 57.9899 66.86C57.9599 66.82 57.9099 66.77 57.8599 66.72C57.6399 66.54 57.2899 66.4 56.9399 66.3C56.5799 66.2 56.2099 66.14 55.9399 66.11C55.7999 66.1 55.6799 66.09 55.5999 66.08C55.5199 66.08 55.4699 66.07 55.4699 66.07V66.29C55.4699 66.29 55.5599 66.48 55.6199 66.59C55.6599 66.68 55.73 66.79 55.77 66.93C55.79 67 55.82 67.07 55.83 67.15C55.85 67.23 55.8599 67.31 55.8599 67.4C55.8699 67.58 55.8299 67.76 55.7499 67.94C55.6799 68.12 55.54 68.29 55.39 68.44C55.23 68.6 55.04 68.72 54.84 68.83C54.64 68.94 54.4199 69.03 54.1899 69.1C53.7399 69.24 53.26 69.31 52.83 69.3C52.61 69.3 52.4 69.27 52.2 69.24C52.01 69.2 51.8299 69.15 51.6699 69.08C51.5899 69.05 51.51 69.01 51.45 68.97C51.38 68.93 51.32 68.89 51.27 68.85C51.21 68.81 51.1699 68.77 51.1299 68.73C51.0799 68.69 51.05 68.65 51.02 68.61C50.96 68.54 50.92 68.47 50.9 68.43C50.87 68.39 50.78 68.4 50.78 68.4L50.8699 66.71H50.58L50.6699 68.4C50.6699 68.4 50.5999 68.4 50.5699 68.44C50.5499 68.49 50.51 68.55 50.45 68.62C50.42 68.66 50.39 68.7 50.34 68.74C50.3 68.78 50.25 68.83 50.2 68.86C50.15 68.9 50.09 68.94 50.02 68.98C49.95 69.02 49.8799 69.05 49.7999 69.09C49.6399 69.16 49.46 69.21 49.27 69.25C49.07 69.28 48.86 69.31 48.64 69.31C48.2 69.31 47.73 69.25 47.28 69.11C47.05 69.03 46.8399 68.95 46.6299 68.84C46.4299 68.73 46.24 68.6 46.08 68.45C45.93 68.3 45.7899 68.13 45.7199 67.95C45.6399 67.77 45.5999 67.58 45.6099 67.41C45.6099 67.33 45.6099 67.24 45.6299 67.16C45.6399 67.08 45.6699 67.01 45.6899 66.94C45.7299 66.8 45.8 66.69 45.83 66.6C45.9 66.49 45.9399 66.41 45.9699 66.37C45.9999 66.37 46.02 66.08 46.02 66.08C46.02 66.08 45.97 66.08 45.89 66.09C45.81 66.09 45.6899 66.1 45.5599 66.12C45.2799 66.15 44.9099 66.21 44.5599 66.31C44.1999 66.41 43.85 66.55 43.64 66.73C43.58 66.77 43.5399 66.82 43.4999 66.87C43.4699 66.92 43.4399 66.96 43.4299 67C43.4099 67.04 43.4199 67.07 43.4099 67.09C43.4099 67.07 43.4099 67.04 43.4399 67C43.4499 66.96 43.48 66.92 43.52 66.88C43.56 66.84 43.6099 66.8 43.6599 66.76C43.8799 66.61 44.23 66.51 44.59 66.44C44.94 66.38 45.31 66.36 45.58 66.36C45.7 66.36 45.7999 66.36 45.8799 66.36C45.8499 66.41 45.8099 66.47 45.7599 66.55C45.7199 66.65 45.6399 66.76 45.5999 66.9C45.5699 66.97 45.55 67.05 45.53 67.13C45.51 67.21 45.4899 67.3 45.4999 67.4C45.4799 67.59 45.5199 67.79 45.5999 67.99C45.6699 68.2 45.8199 68.38 45.9699 68.55C46.1299 68.72 46.3299 68.86 46.5399 68.98C46.7499 69.11 46.98 69.2 47.21 69.28C48.14 69.6 49.1699 69.61 49.8799 69.32C49.9699 69.29 50.0599 69.25 50.1299 69.21C50.2099 69.17 50.28 69.13 50.34 69.08C50.41 69.04 50.4599 68.99 50.5099 68.94C50.5599 68.89 50.61 68.85 50.64 68.8C50.67 68.77 50.69 68.74 50.71 68.71C50.73 68.74 50.75 68.77 50.78 68.8C50.82 68.85 50.8599 68.89 50.9099 68.94C50.9599 68.99 51.02 69.04 51.08 69.08C51.15 69.13 51.2199 69.17 51.2999 69.21C51.3799 69.25 51.4599 69.29 51.5499 69.32C52.2599 69.6 53.2899 69.59 54.2299 69.28C54.4599 69.2 54.69 69.1 54.9 68.98C55.11 68.86 55.3099 68.72 55.4699 68.55C55.6299 68.38 55.7699 68.2 55.8499 67.99C55.9299 67.79 55.97 67.58 55.95 67.4C55.95 67.3 55.9299 67.22 55.9099 67.13C55.8999 67.04 55.8699 66.97 55.8499 66.9C55.7999 66.75 55.7299 66.64 55.6799 66.55C55.6299 66.47 55.5899 66.41 55.5599 66.36C55.6399 66.36 55.75 66.36 55.89 66.36C56.16 66.36 56.5199 66.38 56.8699 66.44C57.2199 66.5 57.5699 66.61 57.7999 66.76C57.8599 66.8 57.8999 66.84 57.9399 66.88C57.9799 66.92 58 66.96 58.02 67C58.04 67.03 58.0399 67.07 58.0499 67.09L58.08 67.08Z" fill="#291F10"/>
<path d="M50.7399 63C50.1699 63 48.7 62.92 48.7 62.38C48.7 61.02 50.1499 60.94 50.7299 60.94C51.3099 60.94 52.7299 60.97 52.7299 62.38C52.7299 62.92 51.3199 63 50.7399 63Z" fill="white"/>
<path d="M54.1198 63.85C54.1198 63.85 53.3398 62.31 53.3398 63C53.3398 63.07 54.0098 64.09 53.7998 64.48C53.5898 64.86 52.5698 65.3 51.7898 65.47C51.1598 65.61 50.8198 65.93 50.7298 66.69C50.6298 65.93 50.2898 65.61 49.6598 65.47C48.8798 65.29 47.8598 64.86 47.6398 64.48C47.4298 64.1 48.0998 63.07 48.0998 63C48.0998 62.3 47.3098 63.85 47.3098 63.85C46.3598 65.3 48.4598 66.66 49.2998 66.85C50.0298 67.02 50.5798 68.16 50.7198 67.63C50.8598 68.16 51.4098 67.02 52.1398 66.85C52.9698 66.65 55.0598 65.3 54.1098 63.85H54.1198Z" fill="#231F20"/>
<path d="M50.7299 64.3C50.7299 64.3 50.7299 64.5 50.7499 64.79C50.7499 65.08 50.76 65.47 50.77 65.86C50.77 66.25 50.7699 66.64 50.7499 66.93C50.7299 67.22 50.7299 67.42 50.7299 67.42C50.7299 67.42 50.72 67.22 50.71 66.93C50.7 66.64 50.6899 66.25 50.6899 65.86C50.6899 65.47 50.69 65.08 50.71 64.79C50.72 64.5 50.7299 64.3 50.7299 64.3Z" fill="#232323"/>
</svg>
