<svg width="102" height="102" viewBox="0 0 102 102" fill="none" xmlns="http://www.w3.org/2000/svg">
<path d="M92.8899 0.77002H9.29987C4.51156 0.77002 0.629883 4.65171 0.629883 9.44002V93.03C0.629883 97.8183 4.51156 101.7 9.29987 101.7H92.8899C97.6782 101.7 101.56 97.8183 101.56 93.03V9.44002C101.56 4.65171 97.6782 0.77002 92.8899 0.77002Z" fill="#24B999"/>
<path d="M54.5998 85.2501C54.4198 85.2501 54.2398 85.2201 54.0598 85.1401C53.5198 84.9201 53.1798 84.38 53.1998 83.8C53.1998 83.76 53.2198 82.9101 53.1098 81.7501C52.9598 82.1701 52.7898 82.5801 52.6098 82.9601C52.3698 83.4501 51.8798 83.7601 51.3498 83.7601C51.2498 83.7601 51.1398 83.7501 51.0398 83.7201C50.4898 83.6001 50.0798 83.1601 49.9798 82.6301C49.8398 82.3201 49.7098 81.9901 49.5898 81.6601C49.4998 82.5401 49.4898 83.2801 49.4998 83.7101C49.5198 84.2901 49.1698 84.83 48.6298 85.05C48.4598 85.12 48.2698 85.1601 48.0898 85.1601C47.7098 85.1601 47.3398 85.0101 47.0698 84.7201C46.0998 83.6801 45.4398 81.9601 44.9998 80.2801C44.5098 81.1001 44.1298 81.6301 44.0898 81.6801C43.8198 82.0601 43.3898 82.2601 42.9498 82.2601C42.7998 82.2601 42.6498 82.2401 42.4998 82.1901C42.2398 82.4501 41.8798 82.6001 41.5098 82.6001C41.3498 82.6001 41.1798 82.5701 41.0198 82.5101C40.3798 82.2701 40.0098 81.6201 40.1298 80.9501C40.2398 80.3301 40.2898 79.69 40.3098 79.05C40.0198 78.97 39.7498 78.8 39.5498 78.55C39.0798 77.93 38.6898 77.3101 38.3598 76.7101C38.0198 76.6401 37.6998 76.4401 37.4898 76.1301C37.1498 75.6301 36.8498 75.1001 36.5698 74.5601C36.3398 74.7201 36.0598 74.8101 35.7698 74.8101C35.7098 74.8101 35.6498 74.81 35.5898 74.8C34.8798 74.71 34.3498 74.1001 34.3698 73.3901C34.3798 72.7101 34.2198 71.8601 33.9698 70.9601C33.8198 71.2301 33.5798 71.4601 33.2798 71.5901C33.0998 71.6601 32.9198 71.7001 32.7398 71.7001C32.2698 71.7001 31.8098 71.4601 31.5498 71.0401C30.4898 69.3401 29.9498 67.46 29.6898 65.8C28.9898 66.28 28.2998 66.4901 27.8098 66.5401C27.7598 66.5401 27.7198 66.5401 27.6698 66.5401C27.1598 66.5401 26.6798 66.26 26.4298 65.8C26.1598 65.3 26.2198 64.6901 26.5798 64.2501C27.2898 63.3901 27.6598 61.39 27.6498 58.7701C26.8598 59.1801 26.2298 59.2601 26.0998 59.2801C26.0498 59.2801 26.0098 59.2801 25.9598 59.2801C25.4398 59.2801 24.9598 58.9901 24.7098 58.5201C24.4498 58.0101 24.5198 57.3901 24.8998 56.9601C26.0698 55.6101 26.3598 51.4801 25.6198 46.7001C25.1898 43.9701 25.9198 42.1701 26.3498 41.3901C26.7998 33.1301 29.7298 25.5401 34.2298 21.0201C37.7698 17.4601 42.9498 15.7701 50.5198 15.7001C50.5198 15.7001 50.7598 15.7001 50.8398 15.7001H51.0098C58.5298 15.7001 64.1798 17.4901 67.7798 21.0101C72.2598 25.3901 75.1798 32.9101 75.6598 41.2201C76.0098 41.7601 77.0298 43.69 76.5498 46.8C75.8098 51.58 76.0998 55.7101 77.2698 57.0601C77.6498 57.4901 77.7198 58.1101 77.4598 58.6201C77.2198 59.0901 76.7298 59.3801 76.2098 59.3801C76.1698 59.3801 76.1198 59.3801 76.0698 59.3801C75.9798 59.3801 75.5598 59.3201 74.9998 59.1001C75.0098 61.9801 75.5198 63.6801 76.0698 64.3501C76.4298 64.7901 76.4898 65.4001 76.2198 65.9001C75.9698 66.3601 75.4998 66.6401 74.9798 66.6401C74.9298 66.6401 74.8898 66.6401 74.8398 66.6401C74.7698 66.6401 73.9298 66.5401 72.9598 65.8901C72.6998 67.5501 72.1698 69.4401 71.1098 71.1401C70.8498 71.5601 70.3898 71.8 69.9198 71.8C69.7398 71.8 69.5598 71.7601 69.3798 71.6901C69.0698 71.5601 68.8298 71.3401 68.6898 71.0601C68.4298 71.9601 68.2698 72.8101 68.2798 73.4901C68.2898 74.2001 67.7598 74.8101 67.0498 74.9001C66.9898 74.9001 66.9298 74.9101 66.8698 74.9101C66.5798 74.9101 66.2998 74.8201 66.0698 74.6601C65.7898 75.2001 65.4898 75.7301 65.1498 76.2301C64.9398 76.5401 64.6298 76.7401 64.2798 76.8201C63.9598 77.4201 63.5698 78.0401 63.0998 78.6601C62.9098 78.9101 62.6398 79.0801 62.3398 79.1601C62.3498 79.8001 62.4098 80.4401 62.5198 81.0601C62.6398 81.7301 62.2598 82.3901 61.6298 82.6201C61.4698 82.6801 61.2998 82.7101 61.1398 82.7101C60.7698 82.7101 60.4098 82.56 60.1498 82.3C59.9998 82.35 59.8498 82.3701 59.6998 82.3701C59.2598 82.3701 58.8298 82.1601 58.5598 81.7901C58.5198 81.7401 58.1398 81.2001 57.6498 80.3901C57.2098 82.0701 56.5598 83.79 55.5798 84.83C55.3098 85.12 54.9398 85.2701 54.5598 85.2701L54.5998 85.2501Z" fill="#2F150C"/>
<path d="M76.2297 57.9601C74.5197 55.9901 74.4897 51.0101 75.1797 46.5601C75.6497 43.5301 74.4498 41.8901 74.4498 41.8901H74.3098C73.9198 32.6601 70.5198 25.6201 66.8198 22.0001C63.7498 19.0001 58.7298 17.0901 51.0298 17.0901C51.0098 17.0901 50.9897 17.0901 50.9697 17.0901C50.9297 17.0901 50.8997 17.0901 50.8597 17.0901C50.7597 17.0901 50.6598 17.0901 50.5598 17.0901C42.6798 17.1601 38.2198 19.0101 35.2498 22.0001C31.5998 25.6601 28.1698 32.6101 27.7598 41.8001C27.7598 41.8001 26.5598 43.4401 27.0298 46.4701C27.7198 50.9101 27.6897 55.8901 25.9797 57.8701C25.9797 57.8701 27.7698 57.6901 28.8998 55.5601C29.2898 59.4701 29.0798 63.4201 27.6898 65.1201C27.6898 65.1201 29.7798 64.9101 30.7798 62.0201C30.8198 62.1001 30.8598 62.1801 30.8998 62.2601C30.8398 63.8401 30.9498 67.3901 32.7498 70.2801C32.7498 70.2801 31.8897 66.7301 32.6797 64.4401C32.6997 64.3801 32.7198 64.3201 32.7498 64.2701C32.7498 64.2701 35.8397 70.1201 35.7897 73.4001C35.7897 73.4001 36.2897 71.3401 36.0397 69.2301C36.0397 69.2301 36.9797 72.8301 38.6697 75.3301C38.5997 75.1401 37.8998 73.2701 38.2798 71.9501C38.2798 71.9501 38.5297 74.9001 40.6697 77.6801C40.6697 77.6801 40.2498 74.3101 40.8198 72.8001C40.7898 73.1801 40.7397 73.5601 40.6597 73.9301C40.6597 73.9301 40.8098 73.6901 41.0298 73.3001C41.3598 74.6901 42.0598 78.1601 41.5198 81.1901C41.5198 81.1901 43.4598 77.9001 43.7598 75.0701C43.7598 75.0701 43.3598 79.3601 42.9598 80.8601C42.9598 80.8601 44.9997 78.0201 45.5997 75.4101C45.5997 75.4101 46.0998 81.6401 48.0898 83.7601C48.0898 83.7601 47.9398 79.0801 49.6898 76.1301C49.6898 76.1301 50.2197 79.9001 51.3497 82.2601V82.3501C52.4797 79.9901 53.0098 76.2201 53.0098 76.2201C54.7498 79.1701 54.6097 83.8501 54.6097 83.8501C56.5997 81.7301 57.0997 75.5001 57.0997 75.5001C57.6997 78.1201 59.7397 80.9501 59.7397 80.9501C59.3397 79.4501 58.9398 75.1601 58.9398 75.1601C59.2398 78.0001 61.1898 81.2801 61.1898 81.2801C60.7098 78.6301 61.1897 75.6401 61.5397 74.0001C61.5397 74.0101 61.5598 74.0301 61.5598 74.0301C61.5598 74.0101 61.5598 73.9901 61.5598 73.9801C61.7198 73.2301 61.8497 72.7801 61.8497 72.7801C62.4997 74.2201 62.0497 77.7901 62.0497 77.7901C64.1897 75.0101 64.4398 72.0601 64.4398 72.0601C64.8198 73.3801 64.1097 75.2501 64.0497 75.4401C65.7397 72.9401 66.6797 69.3401 66.6797 69.3401C66.4297 71.4501 66.9297 73.5101 66.9297 73.5101C66.8797 70.2301 69.9697 64.3801 69.9697 64.3801C69.9897 64.4401 70.0098 64.5001 70.0298 64.5501C70.8198 66.8401 69.9697 70.3901 69.9697 70.3901C72.3597 66.5501 71.7698 61.5401 71.7698 61.5401C72.6698 64.9901 75.0298 65.2301 75.0298 65.2301C73.7198 63.6201 73.4598 60.0301 73.7498 56.3601C74.8498 57.8401 76.2397 57.9801 76.2397 57.9801L76.2297 57.9601Z" fill="#2F150C"/>
<path d="M75.0097 65.2201C73.3997 63.2501 73.3697 58.2701 74.0197 53.8201C74.4697 50.7901 73.3297 49.1501 73.3297 49.1501L52.9997 50.1801L51.3397 50.1401V50.05L49.6797 50.0901L29.3497 49.0601C29.3497 49.0601 28.2097 50.7001 28.6597 53.7301C29.3097 58.1701 29.2797 63.1501 27.6697 65.1301C27.6697 65.1301 30.0397 64.8901 30.9397 61.4401C30.9397 61.4401 30.3397 66.4501 32.7397 70.2901C32.7397 70.2901 31.8797 66.7401 32.6697 64.4501C32.6897 64.3901 32.7097 64.3301 32.7397 64.2801C32.7397 64.2801 35.8297 70.1301 35.7797 73.4101C35.7797 73.4101 36.2797 71.3501 36.0297 69.2401C36.0297 69.2401 36.9697 72.8401 38.6597 75.3401C38.5897 75.1501 37.8897 73.2801 38.2697 71.9601C38.2697 71.9601 38.5197 74.9101 40.6597 77.6901C40.6597 77.6901 40.2097 74.1301 40.8597 72.6801C40.8597 72.6801 42.1997 77.3001 41.5097 81.1901C41.5097 81.1901 43.4497 77.9001 43.7497 75.0701C43.7497 75.0701 43.3497 79.36 42.9497 80.86C42.9497 80.86 44.9897 78.0201 45.5897 75.4101C45.5897 75.4101 46.0897 81.6401 48.0797 83.7601C48.0797 83.7601 47.9297 79.0801 49.6797 76.1301C49.6797 76.1301 50.2097 79.9001 51.3397 82.2601V82.3501C52.4697 79.9901 52.9997 76.2201 52.9997 76.2201C54.7397 79.1701 54.5997 83.8501 54.5997 83.8501C56.5897 81.7301 57.0897 75.5001 57.0897 75.5001C57.6897 78.1201 59.7297 80.9501 59.7297 80.9501C59.3297 79.4501 58.9297 75.1601 58.9297 75.1601C59.2297 78.0001 61.1797 81.2801 61.1797 81.2801C60.4797 77.3801 61.8297 72.7701 61.8297 72.7701C62.4797 74.2101 62.0297 77.7801 62.0297 77.7801C64.1697 75.0001 64.4197 72.05 64.4197 72.05C64.7997 73.37 64.0897 75.2401 64.0297 75.4301C65.7197 72.9301 66.6597 69.33 66.6597 69.33C66.4097 71.44 66.9097 73.5001 66.9097 73.5001C66.8597 70.2201 69.9497 64.3701 69.9497 64.3701C69.9697 64.4301 69.9897 64.4901 70.0097 64.5401C70.7997 66.8301 69.9497 70.3801 69.9497 70.3801C72.3397 66.5401 71.7497 61.5301 71.7497 61.5301C72.6497 64.9801 75.0097 65.2201 75.0097 65.2201Z" fill="#7A562A"/>
<path d="M76.2297 57.9601C74.5197 55.9901 74.4897 51.0101 75.1797 46.5601C75.6497 43.5301 74.4498 41.8901 74.4498 41.8901L52.8597 42.9201L51.0997 42.8801V42.7901L49.3398 42.83L27.7498 41.8C27.7498 41.8 26.5498 43.4401 27.0198 46.4701C27.7098 50.9101 27.6797 55.8901 25.9697 57.8701C25.9697 57.8701 28.4798 57.6301 29.4398 54.1801C29.4398 54.1801 28.8097 59.1901 31.3497 63.0301C31.3497 63.0301 30.4398 59.4801 31.2798 57.1901C31.2998 57.1301 31.3197 57.0701 31.3497 57.0201C31.3497 57.0201 34.6298 62.8701 34.5798 66.1501C34.5798 66.1501 35.1098 64.0901 34.8398 61.9801C34.8398 61.9801 35.8398 65.58 37.6398 68.08C37.5698 67.89 36.8197 66.0201 37.2197 64.7001C37.2197 64.7001 37.4898 67.6501 39.7598 70.4301C39.7598 70.4301 39.2797 66.8701 39.9697 65.4201C39.9697 65.4201 41.3997 70.0401 40.6597 73.9301C40.6597 73.9301 42.7197 70.6401 43.0397 67.8101C43.0397 67.8101 42.6098 72.0901 42.1898 73.6001C42.1898 73.6001 44.3598 70.7601 44.9998 68.1501C44.9998 68.1501 45.5298 74.3801 47.6398 76.5001C47.6398 76.5001 47.4798 71.8201 49.3298 68.8701C49.3298 68.8701 49.8898 72.6401 51.0898 75.0001V75.0901C52.2898 72.7301 52.8497 68.9601 52.8497 68.9601C54.6997 71.9101 54.5397 76.5901 54.5397 76.5901C56.6497 74.4701 57.1797 68.2401 57.1797 68.2401C57.8197 70.8601 59.9897 73.6901 59.9897 73.6901C59.5697 72.1901 59.1398 67.9001 59.1398 67.9001C59.4598 70.7401 61.5198 74.0201 61.5198 74.0201C60.7798 70.12 62.2098 65.5101 62.2098 65.5101C62.8998 66.9501 62.4197 70.5201 62.4197 70.5201C64.6997 67.7401 64.9598 64.7901 64.9598 64.7901C65.3598 66.1101 64.6197 67.9801 64.5397 68.1701C66.3397 65.6701 67.3398 62.0701 67.3398 62.0701C67.0698 64.1801 67.5997 66.2401 67.5997 66.2401C67.5497 62.9601 70.8298 57.11 70.8298 57.11C70.8598 57.17 70.8798 57.2301 70.8998 57.2801C71.7398 59.5701 70.8298 63.1201 70.8298 63.1201C73.3698 59.2801 72.7397 54.2701 72.7397 54.2701C73.6897 57.7201 76.2098 57.9601 76.2098 57.9601" fill="white"/>
<path d="M74.3397 43.6701C74.3397 44.0301 74.3297 44.3901 74.2997 44.7401C74.2897 44.8701 74.2797 45.0001 74.2697 45.1301C73.1497 55.7901 60.1297 64.2401 51.3197 64.4201C51.2197 64.4201 51.1297 64.4201 51.0297 64.4201C43.4497 64.4201 29.0697 55.9401 27.7997 45.1801C27.7397 44.6801 27.7097 44.1701 27.7097 43.6601C27.7097 33.5501 31.3497 25.8901 35.2397 21.9901C38.2697 18.9401 42.8497 17.0801 51.0297 17.0801C58.7297 17.0801 63.7497 18.9901 66.8197 21.9901C70.7497 25.8401 74.3497 33.5501 74.3497 43.6601" fill="white"/>
<path d="M50.8497 64.4201C47.3897 64.4201 42.2097 62.1201 37.9797 58.7001C33.1197 54.7701 30.0598 49.9001 29.5598 45.3301C29.5098 44.8801 29.4797 44.4201 29.4797 43.9501C29.4797 34.7901 34.7297 23.7301 36.4197 21.9101C37.6997 20.5301 44.2798 17.0901 50.8398 17.0901C57.0198 17.0901 63.8998 20.4901 65.2698 21.9301C67.0098 23.7701 72.1998 34.8201 72.1998 43.9501C72.1998 44.2801 72.1897 44.6201 72.1697 44.9401C72.1597 45.0601 72.1498 45.1801 72.1398 45.3101C71.1298 55.9601 58.6797 64.2501 51.0997 64.4201H51.1398H50.8497Z" fill="white"/>
<path d="M40.5997 49.0601C40.7197 49.0601 40.8298 49.0601 40.9398 49.0601C41.0498 49.0601 41.1598 49.0601 41.2698 49.0601C41.4398 49.0601 41.5798 49.0601 41.6998 49.0401C41.8498 49.0201 41.9998 49.0101 42.1498 49.0001C42.4298 48.9801 42.6898 48.9601 42.9398 48.8901C43.0998 48.8501 43.2597 48.8201 43.4197 48.7901C43.6897 48.7401 43.9497 48.69 44.1797 48.61C44.3297 48.56 44.4798 48.5201 44.6298 48.4801C44.8998 48.4001 45.1697 48.3301 45.4197 48.2301L46.3798 47.8901C46.2998 47.5201 46.2198 47.16 46.1398 46.8L46.0798 46.5101C45.9998 46.1401 45.9198 45.7801 45.8298 45.4201C45.7098 44.9201 45.5897 44.4701 45.4697 44.0601C45.3397 43.5901 45.1897 43.1901 45.0397 42.7801C45.0197 42.7301 44.9798 42.6501 44.9398 42.5601C44.8898 42.4401 44.8298 42.3001 44.7798 42.2401L44.3998 41.6401L44.3798 41.61C44.1198 41.25 43.8797 40.9101 43.5997 40.6001C43.4397 40.4101 43.2898 40.2501 43.1498 40.1201C42.9998 39.9701 42.8397 39.8201 42.6697 39.6901C42.4897 39.5401 42.3297 39.4101 42.1597 39.3101C41.9497 39.1601 41.7798 39.0601 41.6198 38.9801C41.2298 38.7601 40.8298 38.6101 40.4498 38.4901C40.0898 38.3801 39.6797 38.3001 39.2297 38.2601C38.9897 38.2401 38.7798 38.2401 38.5798 38.2401C38.3598 38.2401 38.1597 38.2501 37.9697 38.2701C37.5597 38.3001 37.1597 38.3801 36.6797 38.4801C35.8497 38.6801 35.0098 38.9801 34.1998 39.3701C33.7798 39.5701 33.3798 39.7901 33.0098 40.0101C32.7998 40.1301 32.6097 40.2501 32.4297 40.3701L32.5997 40.9701C32.6697 41.2701 32.7798 41.5601 32.8898 41.8501C32.9298 41.9501 32.9698 42.0601 32.9998 42.1601C33.1498 42.6001 33.2898 42.9601 33.4598 43.3101C33.5198 43.4401 33.5798 43.5801 33.6398 43.7101C33.7498 43.9701 33.8597 44.2101 33.9897 44.4301C34.0697 44.5701 34.1497 44.7101 34.2197 44.8401C34.3497 45.0701 34.4597 45.2901 34.6097 45.4801C34.6997 45.6001 34.7898 45.73 34.8798 45.86C35.0298 46.08 35.1598 46.2801 35.3298 46.4501C35.4198 46.5401 35.4898 46.6201 35.5598 46.7001C35.7598 46.9201 35.9497 47.14 36.1697 47.3L36.6298 47.7001L37.1298 48.0201C37.3798 48.2001 37.6497 48.3201 37.9297 48.4401C38.0197 48.4801 38.1098 48.5201 38.1898 48.5601C38.3998 48.6501 38.6198 48.7101 38.8698 48.7801C39.0198 48.8201 39.1598 48.8601 39.3098 48.9101C39.4298 48.9301 39.5597 48.9401 39.6797 48.9601C39.9597 49.0001 40.2297 49.0401 40.4897 49.0601H40.5997ZM40.3398 50.4401C40.0498 50.4401 39.7497 50.4201 39.4697 50.3901C39.3397 50.3801 39.2098 50.37 39.0698 50.36H39.0397H39.0098C38.8598 50.32 38.7198 50.2901 38.5598 50.2701C38.2498 50.2101 37.9297 50.1501 37.6097 50.0201L37.3698 49.9301C37.0098 49.7901 36.6298 49.6501 36.2798 49.4201L35.6697 49.0701L35.0997 48.6301C34.7597 48.4001 34.4798 48.1001 34.2098 47.8201L34.0497 47.6501C33.8097 47.4301 33.6197 47.1601 33.4297 46.9001C33.3397 46.7801 33.2497 46.66 33.1597 46.55C32.9497 46.3 32.7998 46.0301 32.6398 45.7601C32.5598 45.6301 32.4897 45.49 32.4097 45.36C32.2097 45.06 32.0697 44.7501 31.9297 44.4501C31.8797 44.3401 31.8298 44.2301 31.7698 44.1201C31.5598 43.6901 31.3897 43.25 31.2397 42.83C31.1997 42.73 31.1598 42.6301 31.1198 42.5201C30.9998 42.2001 30.8697 41.8701 30.7897 41.5201L30.4097 40.2401L30.2297 39.6201L30.7498 39.2301C31.1698 38.9101 31.5797 38.6401 32.0397 38.3701C32.4797 38.1201 32.9298 37.8801 33.3798 37.6701C34.3198 37.2301 35.2898 36.8901 36.2698 36.6701C36.8298 36.5501 37.3398 36.4801 37.8298 36.4601C37.9998 36.4501 38.1797 36.4401 38.3597 36.4401C38.6797 36.4401 39.0098 36.4601 39.3998 36.5001C39.9898 36.5801 40.4997 36.69 40.9797 36.86L41.0798 36.9001C41.2998 36.9801 41.5197 37.0601 41.7397 37.1801C41.9997 37.3001 42.2298 37.4201 42.4398 37.5601C42.6298 37.6701 42.8398 37.8101 43.0898 38.0101C43.3098 38.1601 43.5098 38.3401 43.6898 38.5201C43.8898 38.6901 44.0697 38.8901 44.2397 39.0701C44.4397 39.2701 44.5998 39.4701 44.7498 39.6801C45.0498 40.0601 45.3098 40.4901 45.5598 40.9001L45.5798 40.9401L45.9297 41.6001C46.0297 41.7901 46.0898 41.9601 46.1398 42.1001C46.1698 42.1701 46.1897 42.2501 46.2197 42.3201V42.3501C46.3897 42.8901 46.5098 43.41 46.5798 43.83C46.6598 44.25 46.7298 44.7101 46.8098 45.2601C46.9498 46.2201 47.0497 47.1901 47.1097 48.1401L46.7897 48.1801L46.9197 48.4701L45.7498 49.08C45.4698 49.22 45.1897 49.3301 44.9197 49.4401C44.7797 49.4901 44.6398 49.55 44.5098 49.61C44.2298 49.74 43.9298 49.8201 43.6498 49.9101C43.5098 49.9501 43.3597 49.9901 43.2197 50.0401C42.9197 50.1501 42.5997 50.2101 42.2997 50.2601C42.1597 50.2901 42.0198 50.3101 41.8798 50.3401C41.5598 50.4201 41.2498 50.4301 40.9398 50.4401C40.7898 50.4401 40.6397 50.4501 40.4897 50.4701H40.3298" fill="#FED814"/>
<path d="M56.6797 48.2502C56.9397 48.3402 57.2097 48.4202 57.4697 48.5002C57.6197 48.5402 57.7697 48.5802 57.9197 48.6302C58.1697 48.7102 58.4198 48.7602 58.6898 48.8102C58.8498 48.8402 59.0097 48.8701 59.1597 48.9001C59.4197 48.9601 59.6798 48.9902 59.9598 49.0102C60.1098 49.0202 60.2597 49.0301 60.4097 49.0501C60.5397 49.0701 60.6798 49.0702 60.8398 49.0702C60.9498 49.0702 61.0597 49.0702 61.1697 49.0702C61.2797 49.0702 61.3998 49.0702 61.5098 49.0702H61.6398C61.8898 49.0602 62.1497 49.0202 62.4297 48.9802C62.5497 48.9602 62.6797 48.9401 62.7997 48.9301C62.9397 48.8801 63.0897 48.8401 63.2397 48.8001C63.4797 48.7401 63.7097 48.6701 63.9197 48.5801C63.9997 48.5401 64.0897 48.5002 64.1797 48.4702C64.4597 48.3502 64.7298 48.2302 64.9598 48.0602L65.4797 47.7302L65.9297 47.3401C66.1597 47.1601 66.3497 46.9502 66.5497 46.7202C66.6197 46.6402 66.6898 46.5602 66.7598 46.4802C66.9398 46.3102 67.0797 46.1002 67.2297 45.8802C67.3097 45.7502 67.3997 45.6302 67.4897 45.5102C67.6397 45.3202 67.7598 45.1001 67.8798 44.8701C67.9498 44.7301 68.0297 44.5901 68.1097 44.4601C68.2497 44.2401 68.3498 44.0001 68.4598 43.7401C68.5198 43.6101 68.5798 43.4801 68.6398 43.3401C68.8298 42.9601 68.9697 42.5702 69.0997 42.1902C69.1297 42.0902 69.1698 41.9902 69.2098 41.8902C69.3198 41.5902 69.4198 41.3002 69.4998 41.0102L69.6797 40.4001C69.4997 40.2901 69.3097 40.1702 69.0997 40.0402C68.7297 39.8202 68.3297 39.6001 67.9197 39.4001C67.1097 39.0101 66.2797 38.7102 65.4297 38.5002C65.0497 38.4202 64.5997 38.3202 64.1597 38.2902C63.9597 38.2702 63.7497 38.2602 63.5397 38.2602C63.3397 38.2602 63.1398 38.2602 62.8898 38.2902C62.4498 38.3302 62.0497 38.4101 61.6797 38.5201C61.2997 38.6401 60.8998 38.7802 60.5298 39.0002C60.3498 39.0902 60.1897 39.1901 59.9897 39.3301C59.7997 39.4501 59.6297 39.5902 59.4797 39.7202C59.2997 39.8602 59.1398 40.0201 58.9998 40.1501C58.8398 40.2901 58.6997 40.4401 58.5497 40.6201C58.2597 40.9301 58.0198 41.2702 57.7698 41.6302L57.7197 41.6902L57.3597 42.2602C57.2997 42.3402 57.2398 42.4802 57.1898 42.6002C57.1498 42.6802 57.1198 42.7701 57.0798 42.8401C56.9198 43.2601 56.7797 43.6401 56.6597 44.0801C56.5397 44.4901 56.4197 44.9202 56.2997 45.4402C56.2097 45.8102 56.1197 46.1801 56.0397 46.5501L55.9797 46.8202C55.8997 47.1902 55.8197 47.5502 55.7397 47.9202L56.6898 48.2602M61.6298 50.4402C61.4498 50.4202 61.2998 50.4202 61.1498 50.4102C60.8398 50.4002 60.5198 50.3801 60.1998 50.3001C60.0598 50.2701 59.9198 50.2402 59.7798 50.2202C59.4698 50.1602 59.1597 50.1102 58.8497 50.0002C58.7197 49.9502 58.5697 49.9101 58.4297 49.8701C58.1397 49.7901 57.8498 49.7002 57.5598 49.5702C57.4298 49.5202 57.2997 49.4602 57.1597 49.4102C56.8897 49.3002 56.5998 49.1901 56.3298 49.0501L55.1597 48.4402L55.2897 48.1501L54.9697 48.1101C55.0297 47.1701 55.1298 46.2002 55.2698 45.2302C55.3398 44.6902 55.4198 44.2202 55.4998 43.7902C55.5698 43.3702 55.6897 42.8702 55.8497 42.3202V42.2902C55.8997 42.2102 55.9198 42.1402 55.9398 42.0702C55.9898 41.9302 56.0498 41.7602 56.1498 41.5702L56.4998 40.9202L56.5298 40.8701C56.7798 40.4601 57.0397 40.0302 57.3497 39.6402C57.4797 39.4602 57.6397 39.2602 57.8497 39.0402C58.0097 38.8602 58.1997 38.6602 58.4097 38.4802C58.5897 38.3202 58.7898 38.1302 59.0198 37.9702C59.2598 37.7902 59.4697 37.6401 59.6797 37.5201C59.8697 37.3901 60.0998 37.2702 60.3798 37.1402C60.5698 37.0302 60.7998 36.9502 61.0098 36.8802L61.1198 36.8401C61.6098 36.6701 62.1198 36.5602 62.6898 36.4802C63.0998 36.4402 63.4298 36.4202 63.7498 36.4202C63.9298 36.4202 64.1097 36.4202 64.2897 36.4402C64.7697 36.4602 65.2798 36.5301 65.8398 36.6501C66.8198 36.8701 67.7897 37.2101 68.7297 37.6501C69.1897 37.8701 69.6498 38.1001 70.0698 38.3601C70.5298 38.6201 70.9297 38.9001 71.3597 39.2101L71.8798 39.6002L71.3198 41.5102C71.2298 41.8502 71.1097 42.1802 70.9797 42.5102L70.8698 42.8001C70.7298 43.1901 70.5598 43.6401 70.3398 44.0901C70.2798 44.2001 70.2297 44.3102 70.1797 44.4202C70.0397 44.7202 69.8998 45.0301 69.6998 45.3301C69.6198 45.4601 69.5398 45.6002 69.4598 45.7302C69.3098 45.9902 69.1498 46.2601 68.9398 46.5201C68.8498 46.6301 68.7597 46.7501 68.6797 46.8701C68.4897 47.1301 68.2997 47.3902 68.0497 47.6302L67.9097 47.7802C67.6297 48.0702 67.3498 48.3701 66.9998 48.6101L66.4498 49.0402L65.8198 49.4001C65.4898 49.6201 65.1098 49.7601 64.7498 49.9001L64.4998 49.9901C64.1898 50.1101 63.8698 50.1801 63.5598 50.2401C63.4098 50.2701 63.2597 50.3001 63.1097 50.3301H63.0798H63.0497C62.9197 50.3301 62.7898 50.3501 62.6498 50.3601C62.3698 50.3801 62.0798 50.4102 61.7798 50.4102H61.6498" fill="#FED814"/>
<path d="M46.7896 48.1301C39.1496 51.7701 33.7696 49.4101 31.3496 39.9801C31.3496 39.9801 40.5396 32.8501 45.4196 42.0001C46.1696 43.4201 46.7896 48.1401 46.7896 48.1401" fill="white"/>
<path d="M39.3999 48.7302C37.2799 48.6802 35.4999 47.0102 34.8199 44.6702C34.6099 43.9602 34.4999 43.1802 34.5199 42.3802C34.5899 39.1302 36.6099 37.9701 39.1499 37.9001C39.3099 37.9001 39.4699 37.9001 39.6299 37.9001C42.3999 37.9601 44.4999 40.8402 44.5499 42.6002C44.6399 46.0502 42.1699 48.8001 39.4099 48.7401" fill="#FFCE06"/>
<path d="M39.4297 47.8601C37.8197 47.8201 36.4097 46.4501 35.8397 44.3601C35.6497 43.6901 35.5697 42.9901 35.5797 42.2701C35.6297 39.8401 36.7797 38.6801 39.1897 38.6101C39.3097 38.6101 39.4297 38.6101 39.5497 38.6101H39.6197C41.7997 38.6601 43.4697 41.2001 43.4997 42.5101C43.5397 44.0901 43.0097 45.5901 42.0597 46.6401C41.3197 47.4401 40.4197 47.8801 39.4997 47.8801H39.4397" fill="#392E14"/>
<path d="M55.3198 48.1301C62.9598 51.7701 68.3398 49.4101 70.7598 39.9801C70.7598 39.9801 61.5698 32.8501 56.6898 42.0001C55.9398 43.4201 55.3198 48.1401 55.3198 48.1401" fill="white"/>
<path d="M62.6998 48.7302C64.8198 48.6802 66.5998 47.0102 67.2798 44.6702C67.4898 43.9602 67.5998 43.1802 67.5798 42.3802C67.5098 39.1302 65.4898 37.9701 62.9498 37.9001C62.7898 37.9001 62.6297 37.9001 62.4697 37.9001C59.6997 37.9601 57.5997 40.8402 57.5497 42.6002C57.4597 46.0502 59.9298 48.8001 62.6898 48.7401" fill="#FED814"/>
<path d="M62.6197 47.8601C61.6997 47.8601 60.7897 47.4201 60.0597 46.6201C59.0997 45.5801 58.5697 44.0701 58.6197 42.4901C58.6497 41.1801 60.3197 38.6401 62.5097 38.5901H62.5697C62.6897 38.5901 62.8197 38.5901 62.9297 38.5901C65.3497 38.6701 66.4997 39.8301 66.5397 42.2501C66.5597 42.9701 66.4697 43.6801 66.2797 44.3401C65.6997 46.4401 64.2897 47.8101 62.6797 47.8501H62.6197" fill="#392E14"/>
<path d="M39.7397 41.0801C39.6997 43.1701 38.2997 44.8401 36.6197 44.8001C35.8597 44.7801 35.1797 44.4201 34.6597 43.8401C34.4697 43.2201 34.3797 42.5401 34.3997 41.8301C34.4597 38.9801 36.2297 37.9701 38.4597 37.9001C39.2597 38.6001 39.7697 39.7602 39.7397 41.0702" fill="white"/>
<path d="M42.3797 47.1301C42.3697 47.8401 41.8897 48.4001 41.3197 48.3901C40.7497 48.3801 40.2997 47.7901 40.3197 47.0801C40.3297 46.3701 40.8097 45.8101 41.3797 45.8201C41.9497 45.8301 42.3997 46.4101 42.3797 47.1201V47.1301Z" fill="white"/>
<path d="M62.5698 41.4001C62.5298 43.4901 61.1298 45.1601 59.4498 45.1201C58.6898 45.1001 58.0098 44.7401 57.4898 44.1601C57.2998 43.5401 57.2098 42.8601 57.2298 42.1501C57.2898 39.3001 59.0598 38.2901 61.2898 38.2201C62.0898 38.9101 62.5998 40.0801 62.5698 41.4001Z" fill="white"/>
<path d="M65.4098 47.1301C65.3998 47.8401 64.9198 48.4001 64.3498 48.3901C63.7798 48.3801 63.3298 47.7901 63.3498 47.0801C63.3598 46.3701 63.8398 45.8101 64.4098 45.8201C64.9798 45.8301 65.4298 46.4101 65.4098 47.1201V47.1301Z" fill="white"/>
<path d="M45.4098 48.7302C45.8598 48.5502 46.3198 48.3502 46.7798 48.1302C46.3098 48.3502 45.8498 48.5502 45.4098 48.7302ZM31.7998 41.5702C31.6398 41.0702 31.4898 40.5402 31.3398 39.9802C31.4798 40.5302 31.6298 41.0602 31.7998 41.5702Z" fill="#E6C430"/>
<path d="M45.4096 48.7301C45.1596 47.3801 44.8196 45.8701 44.4496 45.1701C44.3796 45.0401 44.3096 44.9201 44.2396 44.7901C44.4596 44.1101 44.5696 43.36 44.5496 42.58C44.4996 40.82 42.3996 37.9401 39.6296 37.8801C39.6096 37.8801 39.5796 37.8801 39.5596 37.8801C39.4196 37.8801 39.2897 37.8801 39.1497 37.8801C38.9297 37.8801 38.6996 37.9001 38.4896 37.9301C38.4796 37.9201 38.4696 37.9101 38.4496 37.8901C36.4396 37.9501 34.7997 38.7801 34.4597 41.0301C33.5097 41.3401 32.6696 41.7401 31.9996 42.1201C31.9296 41.9401 31.8696 41.7501 31.8096 41.5601C31.6496 41.0601 31.4996 40.5301 31.3496 39.9701C31.4096 39.9201 34.7997 37.3201 38.5297 37.3201C38.8997 37.3201 39.2696 37.3501 39.6396 37.4001C41.7096 37.7101 43.7996 38.9501 45.4196 41.9801C46.1696 43.4001 46.7896 48.1201 46.7896 48.1201C46.3196 48.3401 45.8596 48.5401 45.4196 48.7201" fill="#E2E1E1"/>
<path d="M44.2397 44.8001C43.9797 44.3501 43.7097 43.9401 43.4297 43.5701C43.4797 43.2201 43.4997 42.8501 43.4897 42.4901C43.4597 41.1801 41.7897 38.6401 39.6097 38.5901H39.5397C39.4197 38.5901 39.2897 38.5901 39.1797 38.5901C39.1397 38.5901 39.0997 38.5901 39.0497 38.5901C38.8897 38.3401 38.6997 38.1201 38.4797 37.9301C38.6997 37.9101 38.9198 37.8901 39.1398 37.8801C39.2798 37.8801 39.4097 37.8801 39.5497 37.8801C39.5697 37.8801 39.5998 37.8801 39.6198 37.8801C42.3898 37.9401 44.4897 40.8201 44.5397 42.5801C44.5597 43.3601 44.4497 44.1001 44.2297 44.7901" fill="#E5BC28"/>
<path d="M43.4398 43.5701C42.3098 42.0901 41.0398 41.2501 39.7398 40.8401C39.7198 39.9901 39.4698 39.2201 39.0598 38.6101C39.0998 38.6101 39.1398 38.6101 39.1898 38.6101C39.3098 38.6101 39.4298 38.6101 39.5498 38.6101H39.6198C41.7998 38.6601 43.4698 41.2001 43.4998 42.5101C43.5098 42.8801 43.4898 43.2401 43.4398 43.5901" fill="#3C321B"/>
<path d="M34.4597 41.0501C34.7997 38.8001 36.4397 37.9702 38.4497 37.9102C38.4597 37.9202 38.4797 37.9302 38.4897 37.9502C38.6997 38.1402 38.8897 38.3601 39.0597 38.6101C39.4597 39.2201 39.7097 40.0001 39.7397 40.8401C39.0197 40.6101 38.2797 40.5102 37.5697 40.5102C36.4797 40.5102 35.4197 40.7301 34.4697 41.0501" fill="#E2E1E1"/>
<path d="M56.6898 48.7302C56.2398 48.5502 55.7798 48.3602 55.3198 48.1302C55.3198 48.1302 55.9398 43.4101 56.6898 41.9901C56.9198 41.5601 57.1598 41.1601 57.4098 40.8001C57.1598 41.1701 56.9198 41.5602 56.6898 42.0002C55.9398 43.4202 55.3198 48.1402 55.3198 48.1402C55.7898 48.3602 56.2498 48.5601 56.6898 48.7401M70.3198 41.5102C70.4698 41.0202 70.6198 40.5102 70.7598 39.9802C70.6198 40.5102 70.4798 41.0202 70.3198 41.5102ZM59.7298 38.4601C60.6098 37.8801 61.5398 37.5502 62.4598 37.4202C61.5398 37.5602 60.6198 37.8801 59.7298 38.4601Z" fill="#E6C430"/>
<path d="M56.6898 48.7301C56.2398 48.5501 55.7798 48.3501 55.3198 48.1301C55.3198 48.1301 55.9398 43.4101 56.6898 41.9901C56.9198 41.5601 57.1598 41.1601 57.4098 40.8001C57.2998 41.1901 57.2298 41.6401 57.2198 42.1401C57.1998 42.8401 57.2998 43.5301 57.4798 44.1501C57.5598 44.2501 57.6598 44.3401 57.7498 44.4201C57.7798 44.5501 57.8198 44.6701 57.8598 44.7901C57.7898 44.9101 57.7198 45.0401 57.6498 45.1701C57.2798 45.8701 56.9398 47.3801 56.6898 48.7301ZM70.1098 42.1301C69.3798 41.7301 68.4498 41.2901 67.3998 40.9701C66.8498 38.7801 65.0798 37.9601 62.9498 37.8901C62.8098 37.8901 62.6798 37.8901 62.5398 37.8901C62.5198 37.8901 62.4898 37.8901 62.4698 37.8901C61.9098 37.9001 61.3698 38.0301 60.8698 38.2501C60.4698 38.2801 60.0898 38.3501 59.7298 38.4601C60.6098 37.8801 61.5398 37.5501 62.4598 37.4201C62.8298 37.3601 63.1998 37.3401 63.5698 37.3401C67.3098 37.3401 70.6898 39.9401 70.7498 39.9901C70.6098 40.5201 70.4698 41.0301 70.3098 41.5201C70.2398 41.7301 70.1698 41.9401 70.0998 42.1401" fill="#E2E1E1"/>
<path d="M57.8597 44.8001C57.8197 44.6801 57.7898 44.5501 57.7498 44.4301C57.8198 44.4901 57.8897 44.5501 57.9697 44.6101C57.9297 44.6701 57.8897 44.7401 57.8597 44.8001ZM67.3998 40.9701C67.0398 40.8601 66.6697 40.7601 66.2897 40.6901C65.8297 39.3301 64.7397 38.6501 62.9197 38.6001C62.7997 38.6001 62.6798 38.6001 62.5598 38.6001H62.4998C62.2398 38.6001 61.9898 38.6501 61.7498 38.7201C61.6098 38.5401 61.4597 38.3801 61.2897 38.2301C61.1497 38.2301 61.0098 38.2401 60.8798 38.2501C61.3798 38.0401 61.9197 37.9101 62.4797 37.8901C62.4997 37.8901 62.5297 37.8901 62.5497 37.8901C62.6897 37.8901 62.8198 37.8901 62.9598 37.8901C65.0998 37.9501 66.8597 38.7801 67.4097 40.9701" fill="#E6C430"/>
<path d="M62.5397 40.7801C62.4497 39.9801 62.1597 39.2601 61.7397 38.7001C61.9797 38.6301 62.2297 38.5901 62.4897 38.5801H62.5497C62.6697 38.5801 62.7997 38.5801 62.9097 38.5801C64.7297 38.6401 65.8298 39.3101 66.2798 40.6701C65.7098 40.5601 65.1298 40.4901 64.5298 40.4901C63.8698 40.4901 63.1998 40.5701 62.5298 40.7601" fill="#3C321B"/>
<path d="M57.9698 44.6001C57.8998 44.5401 57.8198 44.4901 57.7498 44.4201C57.6598 44.3401 57.5598 44.2501 57.4798 44.1501C57.2898 43.5301 57.1998 42.8501 57.2198 42.1401C57.2298 41.6401 57.2898 41.1901 57.4098 40.8001C58.1298 39.7501 58.9098 38.9901 59.7298 38.4501C60.0798 38.3401 60.4698 38.2701 60.8698 38.2401C61.0098 38.2301 61.1398 38.2201 61.2798 38.2201C61.4398 38.3601 61.5998 38.5301 61.7398 38.7101C62.1698 39.2701 62.4598 39.9901 62.5398 40.7901C60.8998 41.2601 59.2998 42.3901 57.9698 44.6101" fill="#E2E1E1"/>
<path d="M46.7896 48.13C46.6996 47.66 46.5896 47.2001 46.4796 46.7301C46.3696 46.2701 46.2796 45.8 46.1596 45.34C46.0496 44.88 45.9296 44.42 45.7996 43.97C45.6696 43.5 45.5196 43.1 45.3596 42.66C45.2596 42.46 45.1596 42.19 45.0596 42.05L44.6896 41.46C44.4196 41.08 44.1596 40.7 43.8496 40.37C43.6996 40.19 43.5496 40.03 43.3796 39.87C43.2196 39.71 43.0596 39.5501 42.8796 39.4201C42.6996 39.2801 42.5297 39.13 42.3397 39.02C42.1597 38.89 41.9697 38.7701 41.7697 38.6701C41.3897 38.4501 40.9696 38.3 40.5496 38.16C40.1296 38.03 39.6896 37.95 39.2596 37.91C38.8196 37.88 38.3796 37.87 37.9296 37.91C37.4796 37.94 37.0396 38.03 36.5996 38.13C35.7196 38.34 34.8596 38.65 34.0396 39.05C33.6296 39.25 33.2197 39.4701 32.8297 39.7001C32.4397 39.9301 32.0396 40.19 31.6996 40.44L31.9096 39.81L32.2596 41.05C32.3596 41.47 32.5196 41.86 32.6696 42.26C32.8096 42.66 32.9496 43.0701 33.1396 43.4501C33.3196 43.8301 33.4596 44.24 33.6796 44.59C33.8996 44.95 34.0596 45.35 34.3196 45.68C34.5696 46.01 34.7796 46.39 35.0696 46.68C35.3496 46.98 35.6096 47.31 35.9396 47.56L36.4096 47.97L36.9296 48.3C37.2696 48.55 37.6497 48.69 38.0297 48.86C38.4097 49.03 38.8196 49.1001 39.2196 49.2301C39.6296 49.2801 40.0496 49.37 40.4696 49.38C40.8896 49.38 41.3196 49.42 41.7396 49.36C42.1596 49.31 42.5997 49.3101 43.0197 49.2001C43.4397 49.1001 43.8796 49.0601 44.2896 48.9201C44.7096 48.7901 45.1296 48.69 45.5396 48.54L46.7797 48.1L46.7896 48.13ZM46.7896 48.13L45.6196 48.74C45.2296 48.94 44.8097 49.08 44.3997 49.25C43.9897 49.44 43.5596 49.5201 43.1296 49.6701C42.7096 49.8201 42.2596 49.87 41.8196 49.96C41.3796 50.07 40.9196 50.04 40.4696 50.09C40.0096 50.1 39.5596 50.05 39.0996 50.02C38.6496 49.91 38.1796 49.86 37.7496 49.69C37.3196 49.52 36.8696 49.38 36.4796 49.12L35.8696 48.77L35.3196 48.34C34.9296 48.07 34.6296 47.7201 34.3096 47.3901C33.9696 47.0701 33.7296 46.67 33.4396 46.31C33.1496 45.95 32.9597 45.54 32.7097 45.15C32.4597 44.76 32.2897 44.35 32.0897 43.94C31.8897 43.53 31.7296 43.11 31.5696 42.69C31.4196 42.27 31.2396 41.8501 31.1296 41.4201L30.7496 40.13L30.6396 39.75L30.9696 39.5C31.3896 39.18 31.7896 38.9201 32.2296 38.6701C32.6496 38.4201 33.0896 38.1901 33.5396 37.9801C34.4296 37.5601 35.3796 37.22 36.3596 37C36.8496 36.89 37.3496 36.82 37.8596 36.8C38.3596 36.76 38.8796 36.79 39.3896 36.84C39.8896 36.91 40.3996 37.01 40.8796 37.18C41.1196 37.27 41.3696 37.35 41.5996 37.47C41.8296 37.58 42.0597 37.69 42.2697 37.83C42.4897 37.96 42.6997 38.1 42.8997 38.26C43.1097 38.41 43.2996 38.58 43.4796 38.75C43.6696 38.92 43.8396 39.1 44.0096 39.28C44.1896 39.46 44.3496 39.65 44.4896 39.85C44.7996 40.24 45.0496 40.66 45.3096 41.08L45.6497 41.7301C45.7897 41.9901 45.8296 42.1901 45.9296 42.4201C46.0696 42.8801 46.1997 43.4 46.2697 43.86C46.3597 44.33 46.4296 44.81 46.4996 45.28C46.6396 46.23 46.7296 47.18 46.7896 48.13Z" fill="#362C13"/>
<path d="M55.3198 48.13C55.3798 47.18 55.4798 46.23 55.6098 45.28C55.6698 44.81 55.7498 44.33 55.8398 43.86C55.9198 43.4 56.0398 42.8801 56.1798 42.4201C56.2698 42.1901 56.3198 41.9901 56.4598 41.7301L56.8098 41.08C57.0598 40.66 57.3098 40.24 57.6298 39.85C57.7698 39.65 57.9398 39.46 58.1098 39.28C58.2698 39.09 58.4498 38.91 58.6398 38.75C58.8298 38.58 59.0098 38.41 59.2198 38.26C59.4198 38.1 59.6298 37.96 59.8498 37.83C60.0598 37.69 60.2898 37.57 60.5198 37.47C60.7498 37.35 60.9898 37.27 61.2298 37.18C61.7198 37.01 62.2198 36.91 62.7298 36.84C63.2398 36.79 63.7498 36.76 64.2598 36.8C64.7698 36.83 65.2698 36.9 65.7598 37C66.7398 37.22 67.6798 37.5601 68.5798 37.9801C69.0298 38.1901 69.4698 38.4201 69.8898 38.6701C70.3198 38.9201 70.7198 39.19 71.1398 39.5L71.4698 39.75L71.3598 40.13L70.9798 41.4201C70.8698 41.8501 70.6998 42.27 70.5398 42.69C70.3898 43.11 70.2298 43.53 70.0198 43.94C69.8198 44.35 69.6498 44.77 69.3998 45.15C69.1498 45.53 68.9698 45.95 68.6698 46.31C68.3798 46.67 68.1498 47.0701 67.7998 47.3901C67.4798 47.7201 67.1798 48.07 66.7898 48.34L66.2398 48.77L65.6298 49.12C65.2398 49.38 64.7898 49.52 64.3598 49.69C63.9298 49.86 63.4598 49.91 63.0098 50.02C62.5498 50.05 62.0898 50.1 61.6398 50.09C61.1898 50.05 60.7298 50.07 60.2898 49.96C59.8498 49.86 59.3998 49.8201 58.9798 49.6701C58.5598 49.5301 58.1198 49.44 57.7098 49.25C57.2998 49.08 56.8798 48.93 56.4898 48.74L55.3198 48.13ZM55.3198 48.13L56.5598 48.57C56.9698 48.72 57.3998 48.8201 57.8098 48.9501C58.2198 49.0901 58.6598 49.1301 59.0798 49.2301C59.4998 49.3401 59.9398 49.3301 60.3598 49.3901C60.7798 49.4501 61.2098 49.39 61.6298 49.41C62.0498 49.39 62.4598 49.31 62.8798 49.26C63.2798 49.13 63.6898 49.0601 64.0698 48.8901C64.4498 48.7201 64.8298 48.57 65.1698 48.33L65.6898 48L66.1598 47.59C66.4898 47.34 66.7498 47.01 67.0298 46.71C67.3198 46.42 67.5298 46.04 67.7798 45.71C68.0398 45.38 68.1998 44.98 68.4198 44.62C68.6398 44.26 68.7798 43.8601 68.9598 43.4801C69.1498 43.1001 69.2898 42.7 69.4298 42.29C69.5698 41.89 69.7298 41.49 69.8298 41.08L70.1798 39.84L70.3898 40.47C70.0498 40.22 69.6498 39.9601 69.2598 39.7301C68.8698 39.5001 68.4598 39.28 68.0498 39.08C67.2298 38.68 66.3698 38.37 65.4898 38.16C65.0498 38.06 64.6098 37.98 64.1598 37.94C63.7198 37.89 63.2698 37.9 62.8298 37.94C62.3898 37.98 61.9598 38.06 61.5398 38.19C61.1198 38.32 60.7098 38.4701 60.3198 38.7001C60.1198 38.8001 59.9298 38.92 59.7498 39.05C59.5598 39.17 59.3898 39.3101 59.2098 39.4501C59.0298 39.5901 58.8698 39.74 58.7098 39.9C58.5398 40.05 58.3898 40.22 58.2398 40.4C57.9298 40.74 57.6698 41.11 57.3898 41.49L57.0198 42.08C56.9198 42.23 56.8198 42.49 56.7198 42.69C56.5598 43.13 56.3998 43.53 56.2798 44C56.1398 44.45 56.0198 44.91 55.9198 45.37C55.7998 45.83 55.6998 46.3 55.5998 46.76C55.4898 47.23 55.3898 47.69 55.2898 48.16L55.3198 48.13Z" fill="#362C13"/>
<path d="M56.8398 49.95C56.0898 49.75 54.9598 47.67 54.0598 46.39C53.1598 45.12 51.0198 44.77 51.0198 44.77V57.81C53.7998 57.84 55.5897 56.74 56.1697 56.31C56.7497 55.88 57.0098 55.85 57.7598 55.67C58.5098 55.5 59.8698 53.88 60.8198 52.52C61.7698 51.16 57.5798 50.15 56.8298 49.95H56.8398Z" fill="#FCC719"/>
<path d="M47.9897 46.39C47.0997 47.66 45.9697 49.74 45.2197 49.95C44.4697 50.15 40.2697 51.16 41.2297 52.52C42.1797 53.88 43.5397 55.5 44.2897 55.67C45.0397 55.84 45.2998 55.87 45.8798 56.31C46.4598 56.74 48.2498 57.84 51.0298 57.81V44.77C51.0298 44.77 48.8897 45.12 47.9897 46.39Z" fill="#FED814"/>
<path d="M50.5298 56.9202C50.4698 56.9202 50.3998 56.8902 50.3698 56.8202C49.5098 55.1402 46.6998 54.2701 45.1298 54.1101C43.5598 53.9501 43.3498 51.7001 43.3398 51.6101C43.3398 51.5101 43.3998 51.4302 43.4998 51.4202C43.5898 51.4202 43.6798 51.4801 43.6898 51.5801C43.6898 51.6001 43.8798 53.6302 45.1598 53.7602C46.7998 53.9202 49.7598 54.8602 50.6798 56.6602C50.7198 56.7502 50.6798 56.8501 50.5998 56.9001L50.5198 56.9202H50.5298Z" fill="#705823"/>
<path d="M51.5197 56.9201L51.4397 56.9001C51.3597 56.8601 51.3197 56.7501 51.3697 56.6601C52.2897 54.8601 55.2397 53.9301 56.8897 53.7601C58.1697 53.6301 58.3597 51.6001 58.3597 51.5801C58.3697 51.4801 58.4597 51.4101 58.5497 51.4201C58.6397 51.4201 58.7097 51.5101 58.7097 51.6101C58.7097 51.7101 58.4897 53.9501 56.9197 54.1101C55.3497 54.2701 52.5397 55.1401 51.6797 56.8201C51.6497 56.8801 51.5897 56.9201 51.5197 56.9201Z" fill="#705823"/>
<path d="M47.4396 51.6801C46.9196 55.0601 51.0196 60.1501 51.0196 60.1501V47.7201C51.0196 47.7201 47.9596 48.3001 47.4396 51.6801Z" fill="#FED814"/>
<path d="M54.6097 51.6801C54.0897 48.3001 51.0198 47.7201 51.0198 47.7201V60.1501C51.0198 60.1501 55.1297 55.0601 54.6097 51.6801Z" fill="#FCC719"/>
<path d="M54.3399 54.6501L54.2799 54.4202L53.9999 54.6702C53.9299 54.9402 52.4199 58.1402 51.0199 59.8802C49.6199 58.1502 48.1099 54.9402 48.0399 54.6702L47.7699 54.4202L47.6499 54.5201L47.6899 54.6501C47.6199 54.9001 49.4499 58.5801 50.8699 60.2701L51.0099 60.5002L51.1499 60.2701C52.5699 58.5801 54.3999 54.9001 54.3299 54.6501H54.3399Z" fill="#705823"/>
<path d="M49.6799 49.2401C49.6799 49.2401 50.1799 47.47 48.7799 47.36C48.5499 47.34 48.0899 47.87 48.6399 48.3C49.1799 48.73 49.7199 48.9501 49.6899 49.2401H49.6799Z" fill="#705823"/>
<path d="M52.2297 49.2401C52.2297 49.2401 51.7198 47.47 53.1298 47.36C53.3598 47.34 53.8198 47.87 53.2698 48.3C52.7298 48.73 52.1897 48.9501 52.2297 49.2401Z" fill="#705823"/>
<path d="M29.7097 35.1401C29.7097 35.1401 31.2097 33.9601 31.7997 34.0301C36.8397 34.6601 45.9997 47 47.9497 46.36C49.8997 45.73 45.7697 30.9101 40.3697 29.5301C36.5297 28.5501 29.7197 35.1401 29.7197 35.1401H29.7097Z" fill="#E5E5E5"/>
<path d="M29.5996 35.1401C29.5996 35.1401 29.6797 35.0801 29.8297 34.9601C29.9797 34.8401 30.1996 34.6701 30.4996 34.4801C30.6496 34.3801 30.8196 34.2801 31.0096 34.1801C31.1996 34.0901 31.4096 33.9701 31.6896 33.9701C32.1896 34.0201 32.7396 34.1801 33.2996 34.4301C34.4196 34.9401 35.6096 35.7401 36.7896 36.6901C37.9796 37.6501 39.1697 38.7401 40.3397 39.8601C41.4897 41.0001 42.6396 42.1301 43.7196 43.1901C44.2596 43.7201 44.7896 44.2301 45.2896 44.7001C45.7996 45.1601 46.2996 45.5901 46.7896 45.9201C47.0396 46.0801 47.2896 46.2201 47.5396 46.2801C47.6696 46.3101 47.7696 46.3001 47.8896 46.2501C48.0096 46.2001 48.1396 46.1701 48.2396 46.1101C48.4596 46.0201 48.6196 45.8601 48.7496 45.7001C48.8696 45.5301 48.9196 45.3501 48.9396 45.1801C48.9496 44.8301 48.8596 44.5601 48.7896 44.3901C48.7096 44.2201 48.6596 44.1301 48.6596 44.1301C48.6596 44.1301 48.7196 44.2101 48.8096 44.3801C48.8896 44.5501 49.0196 44.8101 49.0096 45.1801C48.9996 45.3601 48.9497 45.5601 48.8297 45.7501C48.6997 45.9301 48.5296 46.1001 48.2996 46.2201C48.1896 46.2901 48.0696 46.3301 47.9496 46.3801C47.8296 46.4401 47.6597 46.4701 47.5197 46.4401C47.2297 46.3801 46.9596 46.2401 46.6996 46.0801C46.1696 45.7501 45.6596 45.3401 45.1296 44.8801C44.5996 44.4201 44.0597 43.9301 43.5197 43.4001C42.4297 42.3501 41.2696 41.2201 40.0996 40.1001C38.9396 38.9801 37.7596 37.8701 36.5996 36.9101C35.4396 35.9501 34.2996 35.1101 33.2196 34.5901C32.6796 34.3301 32.1596 34.1501 31.6796 34.0801C31.4596 34.0701 31.2396 34.1601 31.0496 34.2501C30.8596 34.3401 30.6897 34.4301 30.5297 34.5201C29.9197 34.8801 29.5996 35.1301 29.5996 35.1301V35.1401Z" fill="#433515"/>
<path d="M72.4596 35.1401C72.4596 35.1401 70.9596 33.9601 70.3696 34.0301C65.3296 34.6601 56.1696 47 54.2196 46.36C52.2696 45.73 56.3996 30.9101 61.7996 29.5301C65.6496 28.5501 72.4596 35.1401 72.4596 35.1401Z" fill="#E5E5E5"/>
<path d="M72.5599 35.1401C72.5599 35.1401 72.2399 34.8901 71.6299 34.5301C71.4799 34.4401 71.3099 34.3501 71.1199 34.2601C70.9299 34.1801 70.7099 34.0801 70.4899 34.0901C70.0099 34.1601 69.4899 34.3401 68.9499 34.6001C67.8699 35.1201 66.7299 35.9601 65.5699 36.9201C64.4099 37.8801 63.2199 38.9801 62.0699 40.1101C60.9099 41.2301 59.7499 42.3601 58.6599 43.4101C58.1099 43.9401 57.5699 44.4301 57.0399 44.8901C56.5099 45.3401 55.9998 45.7601 55.4698 46.0901C55.2098 46.2501 54.9399 46.3901 54.6499 46.4501C54.5099 46.4801 54.3299 46.4501 54.2099 46.3901C54.0899 46.3401 53.9699 46.3001 53.8599 46.2201C53.6299 46.1001 53.4599 45.9301 53.3299 45.7501C53.2099 45.5601 53.1599 45.3601 53.1499 45.1801C53.1499 44.8101 53.2699 44.5501 53.3499 44.3801C53.4399 44.2101 53.4999 44.1301 53.4999 44.1301C53.4999 44.1301 53.4399 44.2101 53.3599 44.3901C53.2899 44.5601 53.1899 44.8301 53.2099 45.1801C53.2299 45.3501 53.2799 45.5301 53.3999 45.7001C53.5299 45.8601 53.6899 46.0101 53.9099 46.1101C54.0099 46.1701 54.1299 46.2101 54.2599 46.2501C54.3799 46.3001 54.4799 46.3101 54.6099 46.2801C54.8599 46.2201 55.1099 46.0801 55.3599 45.9201C55.8499 45.5901 56.3499 45.1601 56.8599 44.7001C57.3699 44.2301 57.8899 43.7201 58.4299 43.1901C59.5099 42.1301 60.6599 40.9901 61.8099 39.8601C62.9799 38.7401 64.1799 37.6501 65.3599 36.6901C66.5499 35.7301 67.7299 34.9301 68.8499 34.4301C69.4099 34.1801 69.9599 34.0101 70.4599 33.9701C70.7399 33.9701 70.9499 34.0901 71.1399 34.1801C71.3299 34.2801 71.4999 34.3801 71.6399 34.4801C71.9399 34.6701 72.1599 34.8501 72.3099 34.9601C72.4599 35.0801 72.5399 35.1401 72.5399 35.1401H72.5599Z" fill="#433515"/>
</svg>
