<svg width="102" height="101" viewBox="0 0 102 101" fill="none" xmlns="http://www.w3.org/2000/svg">
<path d="M92.48 0H8.89001C4.10171 0 0.219971 3.88169 0.219971 8.67V92.26C0.219971 97.0483 4.10171 100.93 8.89001 100.93H92.48C97.2683 100.93 101.15 97.0483 101.15 92.26V8.67C101.15 3.88169 97.2683 0 92.48 0Z" fill="#E57D25"/>
<path d="M50.6 73.62C44.93 73.62 35.54 69.54 30.08 62.93C29.48 62.63 29.06 62.07 28.71 61.6C28.57 61.41 28.44 61.23 28.33 61.11C28.27 61.04 28.08 60.84 27.56 60.84C27.14 60.84 26.78 60.97 26.77 60.97C26.62 61.02 26.47 61.05 26.33 61.05C25.94 61.05 25.56 60.88 25.31 60.56C24.96 60.13 24.93 59.52 25.23 59.05C25.23 59.04 25.36 58.85 25.56 58.57C24.38 57.38 23.53 56.07 23.49 56C23.24 55.61 23.22 55.11 23.43 54.71C22.68 53.79 22.22 52.91 22.14 52.74C21.88 52.23 21.99 51.6 22.41 51.21C22.66 50.98 22.98 50.85 23.3 50.85C23.52 50.85 23.75 50.91 23.95 51.03C23.95 51.03 24.38 51.26 24.92 51.26C25.19 51.26 25.44 51.2 25.67 51.09C25.79 51.03 26.03 50.78 26.2 50.6C26.44 46.89 27.23 43.4 28.55 40.22C27.21 39.34 26.06 38.45 25.54 37.46C23.47 33.55 25.48 31.1 26.68 29.63C27.65 28.45 28.73 28.2 29.47 28.2C31.45 28.2 33.24 29.95 34.38 31.68C35.07 31.08 35.83 30.53 36.63 30.05C37.6 29.34 38.67 28.71 39.64 28.26C42.52 26.92 45.24 26.38 49.02 26.38C49.62 26.38 50.25 26.39 50.9 26.42C51.55 26.39 52.19 26.38 52.78 26.38C56.56 26.38 59.28 26.93 62.16 28.26C63.86 29.05 65.93 30.43 67.29 31.87C68.45 30.01 70.32 28.2 72.33 28.2C73.07 28.2 74.15 28.45 75.12 29.63C76.32 31.1 78.32 33.55 76.26 37.45C75.69 38.53 74.38 39.48 72.81 40.49C73.89 43.2 74.6 46.14 74.91 49.27C75.13 49.46 75.33 49.66 75.52 49.86C75.69 50.04 75.95 50.31 76.07 50.37C76.31 50.49 76.55 50.55 76.82 50.55C77.36 50.55 77.8 50.32 77.8 50.31C78 50.19 78.22 50.14 78.44 50.14C78.76 50.14 79.08 50.26 79.33 50.5C79.75 50.9 79.85 51.52 79.59 52.04C79.51 52.2 79.04 53.09 78.29 54.01C78.5 54.41 78.48 54.9 78.23 55.3C78.19 55.37 77.34 56.68 76.16 57.87C76.36 58.15 76.48 58.34 76.49 58.35C76.79 58.82 76.76 59.43 76.4 59.87C76.15 60.18 75.78 60.35 75.39 60.35C75.23 60.35 75.08 60.32 74.93 60.26C74.93 60.26 74.57 60.13 74.15 60.13C73.63 60.13 73.44 60.33 73.38 60.4C73.27 60.52 73.14 60.7 73 60.88C72.74 61.23 72.45 61.62 72.08 61.92C67.62 68.34 58.37 73.45 50.9 73.59H50.59L50.6 73.62Z" fill="#2F150C"/>
<path d="M26.2601 55.4901C25.3901 55.6201 24.5801 55.3101 24.5801 55.3101C24.5801 55.3101 25.8101 57.2301 27.3201 58.4201C26.7101 59.1601 26.3301 59.7601 26.3301 59.7601C26.3301 59.7601 28.19 59.0501 29.29 60.2301C29.81 60.7901 30.2801 61.7401 30.8701 61.8401C35.8501 68.0601 45.06 72.3201 50.61 72.3201C50.71 72.3201 50.8001 72.3201 50.9001 72.3201C57.5901 72.1901 66.71 67.6001 71.16 61.0301C71.62 60.7401 72.0201 60.0001 72.4601 59.5401C73.5601 58.3601 75.42 59.0701 75.42 59.0701C75.42 59.0701 75.0301 58.4701 74.4301 57.7301C75.9301 56.5401 77.16 54.6201 77.16 54.6201C77.16 54.6201 76.35 54.9301 75.48 54.8001C77.19 53.9601 78.4501 51.4701 78.4501 51.4701C78.4501 51.4701 77.0001 52.3101 75.5001 51.5601C74.8201 51.2201 74.2601 50.2201 73.6901 50.0601C73.3701 46.2301 72.4601 42.8401 71.2001 40.0101C72.5001 39.1901 74.5501 37.9601 75.1301 36.8701C76.7701 33.7601 75.3201 31.9301 74.1401 30.4701C71.8101 27.6201 68.4501 31.8301 67.5901 34.2401C67.4501 34.0801 67.3 33.9201 67.16 33.7601C66.21 32.2201 63.6301 30.3701 61.6401 29.4501C58.9201 28.1901 56.05 27.5001 50.92 27.7301C45.79 27.5001 42.9201 28.1801 40.2001 29.4501C39.3101 29.8701 38.29 30.4701 37.35 31.1501C36.43 31.6901 35.63 32.2901 34.92 32.9601C34.63 33.2301 34.3501 33.5101 34.0701 33.8101C33.0001 31.3701 29.8901 27.7801 27.6901 30.4701C26.5001 31.9301 25.0501 33.7601 26.6901 36.8701C27.2101 37.8501 28.9101 38.9401 30.1901 39.7401C28.7401 42.9001 27.7 46.7501 27.47 51.1701C27.09 51.5401 26.7001 52.0401 26.2601 52.2601C24.7601 53.0101 23.3101 52.1701 23.3101 52.1701C23.3101 52.1701 24.5701 54.6501 26.2801 55.5001L26.2601 55.4901Z" fill="#2F150C"/>
<path d="M77.1501 54.6101C77.1501 54.6101 76.34 54.9201 75.47 54.7901C77.18 53.9501 78.4401 51.46 78.4401 51.46C78.4401 51.46 76.9901 52.3 75.4901 51.55C74.8101 51.21 74.2501 50.21 73.6801 50.05C73.3601 46.22 72.4501 42.83 71.1901 40C72.4901 39.18 74.5401 37.9501 75.1201 36.8601C76.7601 33.7501 75.3101 31.92 74.1301 30.46C71.8001 27.61 68.4401 31.82 67.5801 34.23C67.4401 34.07 67.2901 33.91 67.1501 33.75C66.2001 32.21 63.6201 30.36 61.6301 29.44C58.9101 28.18 56.04 27.49 50.91 27.72C45.78 27.49 42.9101 28.17 40.1901 29.44C39.3001 29.86 38.2801 30.46 37.3401 31.14C36.4201 31.68 35.62 32.28 34.91 32.95C34.62 33.22 34.3401 33.5 34.0601 33.8C32.9901 31.36 29.8801 27.77 27.6801 30.46C26.4901 31.92 25.0401 33.7501 26.6801 36.8601C27.2001 37.8401 28.9001 38.93 30.1801 39.73C28.7301 42.89 27.6901 46.74 27.4601 51.16C27.0801 51.53 26.6901 52.03 26.2501 52.25C24.7501 53 23.3 52.16 23.3 52.16C23.3 52.16 24.5601 54.6401 26.2701 55.4901C25.4001 55.6201 24.5901 55.3101 24.5901 55.3101C24.5901 55.3101 25.8201 57.23 27.3301 58.42C26.7201 59.16 26.3401 59.76 26.3401 59.76C26.3401 59.76 28.2 59.05 29.3 60.23C29.82 60.79 30.2901 61.74 30.8801 61.84C35.8601 68.06 45.0701 72.32 50.6201 72.32C50.7201 72.32 50.81 72.32 50.91 72.32C57.6 72.19 66.72 67.6 71.17 61.03C71.63 60.74 72.03 60.0001 72.47 59.5401C73.57 58.3601 75.4301 59.07 75.4301 59.07C75.4301 59.07 75.0401 58.47 74.4401 57.73C75.9401 56.54 77.17 54.62 77.17 54.62" fill="#7C5F43"/>
<path d="M50.6001 71.55C47.1501 71.55 42.0101 69.45 37.8001 66.33C32.9701 62.75 29.9201 58.31 29.4301 54.14C29.3801 53.73 29.3601 53.31 29.3601 52.88C29.3601 44.53 34.5801 34.45 36.2601 32.79C37.5301 31.53 44.0801 28.4 50.6101 28.4C56.7601 28.4 63.6101 31.5 64.9701 32.81C66.7101 34.49 71.8601 44.56 71.8601 52.88C71.8601 53.18 71.8501 53.49 71.8301 53.78C71.8301 53.89 71.8101 54 71.8001 54.11C70.7901 63.82 58.4101 71.38 50.8701 71.53H50.9101H50.6201" fill="#8C6E4C"/>
<path d="M31.74 48.7801C31.74 48.7801 36.22 58.0501 40.06 58.0501C43 58.0501 46.68 56.5401 46.68 56.5401C46.68 56.5401 48.24 41.1001 39.72 40.6101C35.89 40.3901 31.74 48.7801 31.74 48.7801Z" fill="#7C5F43"/>
<path d="M69.5401 48.7801C69.5401 48.7801 65.0601 58.0501 61.2201 58.0501C58.2801 58.0501 54.6001 56.5401 54.6001 56.5401C54.6001 56.5401 53.0401 41.1001 61.5601 40.6101C65.3901 40.3901 69.5401 48.7801 69.5401 48.7801Z" fill="#7C5F43"/>
<path d="M35.9001 42.64C35.9001 42.64 35.9101 42.6 35.9501 42.54C35.9801 42.48 36.0301 42.38 36.1101 42.27C36.1801 42.15 36.2801 42.02 36.4001 41.88C36.5301 41.74 36.6601 41.57 36.8401 41.43C36.9301 41.35 37.0201 41.27 37.1301 41.19C37.2301 41.12 37.3401 41.04 37.4601 40.97C37.5701 40.89 37.7001 40.83 37.8301 40.76C37.9601 40.7 38.0901 40.62 38.2301 40.58C38.5201 40.48 38.8101 40.37 39.1401 40.33C39.4601 40.26 39.7901 40.26 40.1201 40.26C40.4501 40.26 40.7701 40.34 41.0901 40.39C41.4001 40.48 41.6901 40.59 41.9701 40.7C42.2301 40.84 42.4801 40.99 42.7101 41.13C42.9301 41.28 43.1201 41.46 43.2901 41.61C43.3801 41.69 43.4602 41.76 43.5302 41.83C43.6002 41.91 43.6601 41.99 43.7201 42.06C43.8401 42.2 43.9301 42.34 44.0101 42.45C44.1701 42.67 44.2401 42.8 44.2401 42.8C44.2401 42.8 44.0901 42.75 43.8401 42.65C43.7201 42.6 43.5701 42.54 43.4101 42.46C43.2501 42.38 43.0701 42.31 42.8601 42.24C42.6601 42.17 42.4501 42.07 42.2301 41.99C42.0001 41.93 41.7701 41.86 41.5401 41.77C41.3001 41.72 41.0501 41.67 40.8001 41.61C40.6801 41.6 40.5501 41.59 40.4201 41.57C40.2901 41.56 40.1701 41.53 40.0401 41.54C39.7901 41.54 39.5302 41.52 39.2802 41.56C39.1502 41.58 39.0301 41.56 38.9001 41.6C38.7801 41.62 38.6601 41.65 38.5401 41.66C38.4201 41.67 38.3001 41.72 38.1901 41.74C38.0701 41.77 37.9601 41.79 37.8501 41.83C37.6301 41.9 37.4201 41.96 37.2201 42.04C37.0201 42.11 36.8501 42.19 36.6801 42.25C36.5301 42.33 36.3701 42.38 36.2601 42.44C36.1401 42.5 36.0501 42.54 35.9801 42.57C35.9201 42.6 35.8801 42.62 35.8801 42.62L35.9001 42.64Z" fill="#4F3231"/>
<path d="M65.2301 42.64C65.2301 42.64 65.1901 42.62 65.1301 42.59C65.0701 42.56 64.9701 42.52 64.8501 42.46C64.7401 42.4 64.5901 42.35 64.4301 42.27C64.2601 42.21 64.0901 42.13 63.8901 42.06C63.7001 41.98 63.4801 41.92 63.2601 41.85C63.1501 41.81 63.0401 41.79 62.9201 41.76C62.8001 41.74 62.6901 41.69 62.5701 41.68C62.4501 41.66 62.3301 41.64 62.2001 41.62C62.0801 41.59 61.9501 41.6 61.8301 41.58C61.5801 41.54 61.3301 41.56 61.0701 41.56C60.9401 41.55 60.8201 41.58 60.6901 41.59C60.5601 41.61 60.4401 41.62 60.3101 41.63C60.0601 41.69 59.8201 41.74 59.5701 41.79C59.3401 41.87 59.1001 41.94 58.8801 42.01C58.6601 42.09 58.4501 42.18 58.2501 42.26C58.0501 42.33 57.8601 42.4 57.7101 42.48C57.5501 42.56 57.4102 42.62 57.2802 42.67C57.0402 42.77 56.8801 42.82 56.8801 42.82C56.8801 42.82 56.9501 42.69 57.1101 42.47C57.1901 42.36 57.2801 42.23 57.4001 42.08C57.4601 42.01 57.5201 41.93 57.5901 41.85C57.6601 41.78 57.7501 41.7 57.8301 41.63C58.0101 41.48 58.1901 41.3 58.4101 41.15C58.6401 41.01 58.8901 40.86 59.1501 40.72C59.4301 40.61 59.7302 40.5 60.0302 40.41C60.3502 40.36 60.6701 40.28 61.0001 40.28C61.3301 40.28 61.6601 40.28 61.9701 40.35C62.2901 40.39 62.5901 40.5 62.8801 40.6C63.0201 40.65 63.1501 40.72 63.2901 40.78C63.4201 40.85 63.5501 40.9 63.6601 40.99C63.7701 41.07 63.8801 41.14 63.9901 41.21C64.0901 41.29 64.1801 41.37 64.2701 41.45C64.4501 41.6 64.5901 41.77 64.7201 41.9C64.8401 42.05 64.9401 42.18 65.0101 42.29C65.0801 42.4 65.1301 42.5 65.1701 42.56C65.2101 42.62 65.2201 42.66 65.2201 42.66L65.2301 42.64Z" fill="#4F3231"/>
<path d="M46.6801 56.5401C39.6101 59.9101 34.6301 57.7301 32.3901 48.9901C32.3901 48.9901 40.9001 42.3901 45.4101 50.8601C46.1101 52.1701 46.6801 56.5401 46.6801 56.5401Z" fill="white"/>
<path d="M39.8499 57.1001C37.8899 57.0601 36.2399 55.5001 35.6099 53.3401C35.4199 52.6801 35.31 51.9601 35.33 51.2201C35.4 48.2101 37.2599 47.1401 39.6199 47.0701C39.7699 47.0701 39.9199 47.0701 40.0599 47.0701C42.6199 47.1301 44.5599 49.7901 44.6099 51.4201C44.6999 54.6101 42.4099 57.1601 39.8499 57.1101" fill="#64413F"/>
<path d="M39.8702 56.2801C38.3802 56.2501 37.0801 54.9701 36.5401 53.0401C36.3701 52.4201 36.2901 51.7701 36.3001 51.1001C36.3501 48.8601 37.4102 47.7801 39.6502 47.7101C39.7602 47.7101 39.8701 47.7101 39.9801 47.7101H40.0401C42.0601 47.7601 43.6002 50.1101 43.6302 51.3201C43.6702 52.7801 43.1801 54.1701 42.2901 55.1401C41.6101 55.8801 40.7701 56.2901 39.9201 56.2901H39.8601" fill="#4F3231"/>
<path d="M54.5801 56.5401C61.6501 59.9101 66.6301 57.7301 68.8701 48.9901C68.8701 48.9901 60.36 42.3901 55.85 50.8601C55.15 52.1701 54.5801 56.5401 54.5801 56.5401Z" fill="white"/>
<path d="M61.41 57.1001C63.37 57.0601 65.02 55.5001 65.65 53.3401C65.84 52.6801 65.94 51.9601 65.93 51.2201C65.87 48.2101 64 47.1401 61.64 47.0701C61.49 47.0701 61.34 47.0701 61.2 47.0701C58.64 47.1301 56.69 49.7901 56.65 51.4201C56.56 54.6101 58.85 57.1601 61.41 57.1101" fill="#64413F"/>
<path d="M61.33 56.2801C60.48 56.2801 59.64 55.8701 58.96 55.1301C58.07 54.1601 57.5799 52.7701 57.6199 51.3101C57.6499 50.1001 59.1899 47.7501 61.2199 47.7001H61.28C61.39 47.7001 61.4999 47.7001 61.6199 47.7001C63.8599 47.7701 64.92 48.8501 64.96 51.0901C64.98 51.7601 64.8999 52.4101 64.7199 53.0201C64.1799 54.9601 62.88 56.2301 61.39 56.2701H61.33" fill="#4F3231"/>
<path d="M40.16 50.0101C40.12 51.9401 38.8301 53.4901 37.2701 53.4601C36.5701 53.4401 35.9401 53.1101 35.4601 52.5701C35.2901 51.9901 35.2 51.3601 35.22 50.7101C35.28 48.0701 36.91 47.1301 38.98 47.0701C39.72 47.7101 40.19 48.8001 40.17 50.0101" fill="white"/>
<path d="M42.6001 55.61C42.5801 56.26 42.1501 56.79 41.6201 56.78C41.0901 56.78 40.6801 56.23 40.6901 55.57C40.7001 54.91 41.1401 54.39 41.6701 54.4C42.2001 54.41 42.6101 54.95 42.6001 55.61Z" fill="white"/>
<path d="M61.2901 50.3001C61.2501 52.2301 59.9602 53.7801 58.4002 53.7501C57.7002 53.7301 57.0701 53.4001 56.5801 52.8601C56.4101 52.2801 56.3202 51.6501 56.3402 51.0001C56.4002 48.3601 58.0301 47.4201 60.1001 47.3601C60.8401 48.0001 61.3201 49.0901 61.2901 50.3001Z" fill="white"/>
<path d="M63.9199 55.61C63.8999 56.26 63.4699 56.79 62.9399 56.78C62.4099 56.78 61.9999 56.23 62.0099 55.57C62.0199 54.91 62.4599 54.39 62.9899 54.4C63.5199 54.41 63.9299 54.95 63.9199 55.61Z" fill="white"/>
<path d="M45.4102 57.1C45.8302 56.94 46.2502 56.75 46.6802 56.54C46.2502 56.75 45.8202 56.93 45.4102 57.09" fill="#876C4D"/>
<path d="M46.6801 56.5401C46.6801 56.5401 46.1101 52.1701 45.4101 50.8601C43.8001 47.8301 41.6701 46.7301 39.6101 46.5701C41.6701 46.7401 43.7901 47.8401 45.4101 50.8601C46.1001 52.1601 46.6601 56.4101 46.6801 56.5401ZM32.7901 50.4001C32.6501 49.9501 32.5101 49.4801 32.3901 48.9901C32.5201 49.4801 32.6501 49.9501 32.7901 50.4001Z" fill="#795F45"/>
<path d="M45.4101 57.09C45.1801 55.84 44.8601 54.45 44.5201 53.8C44.4601 53.68 44.3901 53.56 44.3301 53.45C44.5301 52.82 44.6301 52.13 44.6101 51.41C44.5601 49.78 42.6201 47.11 40.0601 47.06C40.0301 47.06 40.0101 47.06 39.9901 47.06C39.8701 47.06 39.7501 47.06 39.6201 47.06C39.4101 47.06 39.2101 47.08 39.0101 47.1C39.0001 47.09 38.9801 47.08 38.9701 47.07C37.1101 47.12 35.5901 47.89 35.2701 49.98C34.3901 50.27 33.6101 50.64 32.9901 50.98C32.9201 50.79 32.8601 50.6 32.7901 50.4C32.6501 49.95 32.5101 49.48 32.3901 48.99C32.4401 48.95 35.5801 46.54 39.0401 46.54C39.2301 46.54 39.4301 46.54 39.6201 46.56C41.6801 46.73 43.8001 47.83 45.4201 50.85C46.1201 52.16 46.6901 56.53 46.6901 56.53C46.2601 56.74 45.8301 56.92 45.4201 57.08" fill="#E2E1E1"/>
<path d="M44.33 53.4501C44.09 53.0301 43.84 52.6501 43.58 52.3101C43.63 51.9801 43.65 51.6501 43.64 51.3101C43.61 50.1001 42.07 47.7501 40.05 47.7001H39.99C39.88 47.7001 39.77 47.7001 39.66 47.7001C39.62 47.7001 39.58 47.7001 39.54 47.7001C39.39 47.4701 39.21 47.26 39.02 47.09C39.22 47.07 39.43 47.05 39.63 47.05C39.75 47.05 39.88 47.05 40 47.05C40.03 47.05 40.05 47.05 40.07 47.05C42.63 47.11 44.57 49.7701 44.62 51.4001C44.64 52.1201 44.54 52.81 44.34 53.44" fill="#624341"/>
<path d="M43.58 52.3101C42.54 50.9401 41.36 50.1601 40.16 49.7801C40.14 49.0001 39.91 48.2801 39.53 47.7101C39.57 47.7101 39.61 47.7101 39.65 47.7101C39.76 47.7101 39.87 47.7101 39.98 47.7101H40.04C42.06 47.7601 43.6 50.1101 43.63 51.3201C43.63 51.6601 43.63 51.9901 43.57 52.3201" fill="#513635"/>
<path d="M35.27 49.9801C35.59 47.9001 37.11 47.1301 38.97 47.0701C38.97 47.0801 38.99 47.0901 39.01 47.1001C39.2 47.2701 39.38 47.4801 39.53 47.7101C39.91 48.2801 40.14 49.0001 40.16 49.7801C39.49 49.5701 38.81 49.4801 38.15 49.4801C37.14 49.4801 36.16 49.6901 35.27 49.9801Z" fill="#E2E1E1"/>
<path d="M55.85 57.1001C55.43 56.9401 55.0101 56.7501 54.5801 56.5501C54.5801 56.5501 54.5801 56.5101 54.5901 56.4401C54.5901 56.5101 54.5801 56.5501 54.5801 56.5501C55.0101 56.7601 55.44 56.9401 55.85 57.1001Z" fill="#876C4D"/>
<path d="M54.5901 56.43C54.6801 55.74 55.21 52.05 55.85 50.85C56.06 50.45 56.2901 50.08 56.5201 49.74C56.2901 50.08 56.07 50.44 55.85 50.84C55.22 52.03 54.6901 55.74 54.5901 56.41" fill="#795F45"/>
<path d="M55.85 57.09C55.43 56.93 55.0101 56.74 54.5801 56.54C54.5801 56.54 54.5801 56.5 54.5901 56.43C54.6801 55.75 55.21 52.05 55.85 50.86C56.06 50.46 56.2901 50.09 56.5201 49.76C56.4201 50.12 56.36 50.54 56.35 51C56.33 51.65 56.4201 52.28 56.5901 52.86C56.6701 52.95 56.7601 53.03 56.8401 53.11C56.8701 53.23 56.9001 53.34 56.9401 53.45C56.8801 53.56 56.8101 53.68 56.7501 53.8C56.4101 54.45 56.09 55.85 55.86 57.09" fill="#E2E1E1"/>
<path d="M56.9301 53.4501C56.8901 53.3401 56.8601 53.2201 56.8301 53.1101C56.9001 53.1701 56.9601 53.2201 57.0301 53.2701C56.9901 53.3301 56.96 53.3901 56.92 53.4501" fill="#624341"/>
<path d="M68.4702 50.3701C68.6102 49.9301 68.7402 49.4701 68.8702 48.9901C68.7502 49.4701 68.6202 49.9301 68.4702 50.3701Z" fill="#795F45"/>
<path d="M68.2702 50.98C67.5902 50.61 66.7302 50.2 65.7602 49.9C65.2502 47.88 63.6102 47.11 61.6402 47.05C61.5202 47.05 61.3902 47.05 61.2702 47.05C61.2502 47.05 61.2202 47.05 61.2002 47.05C60.6702 47.06 60.1802 47.18 59.7102 47.38C59.3402 47.41 58.9902 47.48 58.6602 47.58C59.6202 46.95 60.6402 46.64 61.6402 46.56C61.8302 46.54 62.0302 46.54 62.2202 46.54C65.6802 46.54 68.8202 48.95 68.8702 48.99C68.7502 49.47 68.6102 49.93 68.4702 50.37C68.4002 50.58 68.3402 50.78 68.2702 50.98Z" fill="#E2E1E1"/>
<path d="M65.7599 49.9101C65.4299 49.8101 65.0799 49.7201 64.7299 49.6501C64.3099 48.3901 63.2899 47.7701 61.6099 47.7101C61.4999 47.7101 61.39 47.7101 61.27 47.7101H61.21C60.97 47.7101 60.7399 47.7501 60.5099 47.8201C60.3799 47.6501 60.24 47.5001 60.09 47.3701C59.96 47.3701 59.83 47.3801 59.71 47.3901C60.17 47.1901 60.67 47.0701 61.2 47.0601C61.22 47.0601 61.25 47.0601 61.27 47.0601C61.39 47.0601 61.52 47.0601 61.64 47.0601C63.62 47.1201 65.2499 47.8801 65.7599 49.9101Z" fill="#624341"/>
<path d="M61.27 49.7401C61.19 49.0001 60.92 48.3301 60.52 47.8201C60.75 47.7601 60.98 47.7201 61.22 47.7101H61.28C61.39 47.7101 61.5 47.7101 61.62 47.7101C63.3 47.7601 64.32 48.3901 64.74 49.6501C64.21 49.5501 63.67 49.4901 63.12 49.4901C62.51 49.4901 61.89 49.5701 61.27 49.7401Z" fill="#513635"/>
<path d="M57.0399 53.27C56.9699 53.22 56.9 53.16 56.84 53.11C56.76 53.03 56.67 52.95 56.59 52.86C56.42 52.28 56.3299 51.65 56.3499 51C56.3499 50.53 56.42 50.12 56.52 49.76C57.18 48.79 57.9099 48.09 58.6699 47.59C58.9999 47.49 59.3499 47.42 59.7199 47.39C59.8499 47.38 59.9799 47.37 60.0999 47.37C60.2599 47.5 60.4 47.65 60.52 47.82C60.92 48.34 61.19 49 61.27 49.74C59.75 50.17 58.2699 51.22 57.0399 53.28" fill="#E2E1E1"/>
<path d="M46.68 56.54C46.59 56.11 46.49 55.68 46.39 55.25C46.3 54.82 46.21 54.39 46.1 53.96C46 53.53 45.89 53.11 45.76 52.69C45.64 52.26 45.5 51.88 45.35 51.48C45.26 51.29 45.17 51.05 45.08 50.91L44.74 50.37C44.49 50.02 44.25 49.67 43.96 49.36C43.82 49.2 43.68 49.04 43.53 48.9C43.38 48.75 43.23 48.61 43.07 48.48C42.91 48.35 42.75 48.21 42.58 48.11C42.41 47.99 42.24 47.88 42.05 47.79C41.69 47.58 41.31 47.44 40.92 47.32C40.53 47.2 40.13 47.13 39.72 47.09C39.31 47.06 38.9 47.05 38.49 47.09C38.08 47.12 37.67 47.2 37.27 47.29C36.46 47.48 35.66 47.77 34.9 48.14C34.52 48.33 34.14 48.53 33.78 48.74C33.42 48.95 33.05 49.19 32.73 49.43L32.93 48.85L33.25 50C33.35 50.39 33.5 50.75 33.63 51.12C33.76 51.49 33.9 51.87 34.07 52.22C34.24 52.57 34.37 52.95 34.57 53.28C34.77 53.61 34.92 53.98 35.16 54.29C35.39 54.59 35.58 54.95 35.85 55.21C36.11 55.49 36.35 55.8 36.65 56.03L37.08 56.41L37.56 56.72C37.87 56.95 38.23 57.08 38.58 57.24C38.93 57.4 39.31 57.46 39.68 57.59C40.06 57.64 40.45 57.72 40.84 57.73C41.23 57.73 41.63 57.77 42.02 57.71C42.41 57.66 42.82 57.66 43.2 57.57C43.59 57.48 43.99 57.44 44.37 57.31C44.75 57.19 45.15 57.1 45.53 56.96L46.68 56.55V56.54ZM46.68 56.54L45.6 57.1C45.24 57.28 44.84 57.42 44.47 57.57C44.09 57.74 43.69 57.82 43.3 57.96C42.91 58.1 42.5 58.14 42.09 58.23C41.68 58.33 41.26 58.31 40.84 58.35C40.42 58.36 40 58.31 39.57 58.28C39.16 58.18 38.72 58.14 38.32 57.98C37.92 57.82 37.51 57.69 37.14 57.45L36.58 57.13L36.07 56.73C35.71 56.48 35.43 56.16 35.14 55.85C34.82 55.55 34.6 55.19 34.34 54.85C34.07 54.52 33.89 54.14 33.66 53.78C33.43 53.42 33.27 53.04 33.09 52.66C32.9 52.28 32.75 51.89 32.61 51.5C32.47 51.11 32.31 50.72 32.2 50.32L31.85 49.13L31.75 48.78L32.05 48.55C32.44 48.26 32.81 48.01 33.21 47.78C33.61 47.55 34.01 47.34 34.43 47.14C35.26 46.75 36.13 46.44 37.04 46.23C37.49 46.13 37.96 46.06 38.43 46.04C38.89 46 39.37 46.03 39.84 46.07C40.31 46.13 40.78 46.23 41.23 46.38C41.45 46.46 41.68 46.53 41.89 46.65C42.1 46.75 42.32 46.86 42.51 46.99C42.71 47.11 42.91 47.24 43.09 47.39C43.28 47.52 43.46 47.68 43.63 47.84C43.81 47.99 43.96 48.16 44.12 48.33C44.28 48.5 44.43 48.67 44.56 48.86C44.85 49.22 45.08 49.61 45.32 50L45.64 50.6C45.77 50.85 45.81 51.02 45.9 51.24C46.03 51.67 46.15 52.14 46.21 52.57C46.29 53.01 46.36 53.45 46.42 53.89C46.55 54.77 46.64 55.65 46.69 56.53L46.68 56.54Z" fill="#303030"/>
<path d="M54.5801 56.5401C54.6401 55.6601 54.73 54.7801 54.85 53.9001C54.91 53.4601 54.9801 53.0201 55.0601 52.5801C55.1301 52.1501 55.2501 51.6801 55.3701 51.2501C55.4601 51.0401 55.5001 50.8501 55.6301 50.6101L55.9501 50.0101C56.1801 49.6201 56.4201 49.2301 56.7101 48.8701C56.8401 48.6801 56.9901 48.5101 57.1501 48.3401C57.3101 48.1701 57.4601 48.0001 57.6401 47.8501C57.8101 47.6901 57.9801 47.5301 58.1801 47.4001C58.3701 47.2501 58.5601 47.1201 58.7601 47.0001C58.9601 46.8701 59.1701 46.7601 59.3801 46.6601C59.5901 46.5501 59.81 46.4701 60.04 46.3901C60.49 46.2401 60.9601 46.1401 61.4301 46.0801C61.9001 46.0301 62.3701 46.0101 62.8401 46.0501C63.3101 46.0701 63.77 46.1401 64.23 46.2401C65.14 46.4501 66.0101 46.7501 66.8401 47.1501C67.2501 47.3401 67.66 47.5601 68.05 47.7901C68.45 48.0201 68.8201 48.2701 69.2101 48.5601L69.5201 48.7901L69.42 49.1401L69.0701 50.3301C68.9601 50.7301 68.8 51.1201 68.66 51.5101C68.52 51.9001 68.3701 52.2901 68.1801 52.6701C68.0001 53.0501 67.84 53.4301 67.61 53.7901C67.38 54.1501 67.2101 54.5301 66.9301 54.8601C66.6601 55.1901 66.4501 55.5601 66.1301 55.8601C65.8301 56.1701 65.5501 56.4901 65.2001 56.7401L64.6901 57.1401L64.1301 57.4601C63.7701 57.7001 63.3501 57.8301 62.9601 57.9901C62.5601 58.1501 62.1301 58.1901 61.7101 58.2901C61.2801 58.3201 60.8601 58.3701 60.4401 58.3601C60.0201 58.3201 59.6001 58.3401 59.1901 58.2401C58.7801 58.1501 58.37 58.1101 57.98 57.9701C57.59 57.8401 57.1801 57.7601 56.8101 57.5801C56.4301 57.4201 56.0401 57.2901 55.6801 57.1101L54.6 56.5501L54.5801 56.5401ZM54.5801 56.5401L55.73 56.9501C56.11 57.0901 56.5101 57.1801 56.8901 57.3001C57.2701 57.4301 57.6801 57.4701 58.0601 57.5601C58.4501 57.6601 58.8501 57.6601 59.2401 57.7001C59.6401 57.7501 60.03 57.7001 60.42 57.7201C60.81 57.7001 61.1901 57.6201 61.5801 57.5801C61.9501 57.4601 62.33 57.3901 62.67 57.2301C63.02 57.0701 63.3801 56.9401 63.6901 56.7101L64.17 56.4001L64.6 56.0201C64.91 55.7901 65.1401 55.4801 65.4001 55.2001C65.6701 54.9301 65.8601 54.5801 66.0901 54.2801C66.3301 53.9801 66.4801 53.6101 66.6801 53.2701C66.8801 52.9401 67.0101 52.5601 67.1801 52.2101C67.3601 51.8601 67.4901 51.4901 67.6201 51.1101C67.7501 50.7401 67.9001 50.3701 68.0001 49.9901L68.3301 48.8401L68.5301 49.4201C68.2201 49.1901 67.84 48.9501 67.48 48.7301C67.12 48.5101 66.74 48.3101 66.36 48.1301C65.6 47.7601 64.8001 47.4701 63.9901 47.2801C63.5801 47.1901 63.1801 47.1101 62.7601 47.0801C62.3501 47.0301 61.9401 47.0401 61.5301 47.0801C61.1201 47.1201 60.7201 47.1901 60.3301 47.3101C59.9401 47.4301 59.5601 47.5701 59.2001 47.7801C59.0201 47.8701 58.84 47.9801 58.67 48.1001C58.49 48.2101 58.33 48.3401 58.17 48.4701C58 48.6001 57.8601 48.7401 57.7101 48.8901C57.5601 49.0301 57.4101 49.1901 57.2801 49.3501C56.9901 49.6601 56.7501 50.0101 56.5001 50.3601L56.16 50.9001C56.07 51.0401 55.9701 51.2801 55.8801 51.4701C55.7201 51.8701 55.58 52.2501 55.47 52.6801C55.34 53.1001 55.2301 53.5201 55.1301 53.9501C55.0201 54.3801 54.9301 54.8101 54.8301 55.2401C54.7301 55.6701 54.64 56.1001 54.55 56.5301L54.5801 56.5401Z" fill="#303030"/>
<path d="M50.6401 71.0001H50.55C46.25 71.0001 41.3 67.5401 41.3 65.8501C41.3 61.0001 45.03 57.0701 50.61 57.0701C56.19 57.0701 59.92 61.0001 59.92 65.8501C59.92 67.5501 54.9501 71.0101 50.6301 71.0001M50.5901 63.3301C50.8301 64.1201 52.0001 64.5901 53.0901 64.5901C53.1601 64.5901 53.23 64.5901 53.3 64.5901C55.06 64.4901 56.2601 63.5701 56.2601 62.5401C56.2601 61.5901 54.6701 60.0401 53.1501 59.9601C53.0301 59.2401 52.5101 58.5801 51.8301 58.3801C51.3501 58.2401 51.08 58.2401 50.61 58.2401V58.3701L50.5801 58.2401C50.1301 58.2401 49.8601 58.2401 49.3801 58.3801C48.7001 58.5801 48.1901 59.2401 48.0601 59.9501C46.5301 59.9901 44.9001 61.5701 44.9001 62.5301C44.9001 63.5501 46.1 64.4801 47.86 64.5801C47.93 64.5801 48.0001 64.5801 48.0701 64.5801C49.1601 64.5801 50.3401 64.1101 50.5801 63.3201M50.5901 62.6301C50.5801 62.5701 50.56 62.5101 50.55 62.4401C50.57 62.4401 50.6001 62.4401 50.6201 62.4401H50.6401C50.6201 62.5001 50.61 62.5601 50.6 62.6301" fill="#DFB391"/>
<path d="M50.5901 62.7401C49.0201 62.7401 46.9201 62.6801 47.3101 64.2001C48.7401 69.8101 49.5601 67.3901 50.6101 67.4701H50.6201V62.7401H50.5901Z" fill="#E5E5E5"/>
<path d="M49.2201 67.39C48.7201 67.39 48.1601 66.21 47.5601 63.87C47.4901 63.6 47.5201 63.39 47.6301 63.24C48.0201 62.74 49.4101 62.74 50.2401 62.74H50.6101V66.96C50.4001 67 49.9301 67.11 49.7501 67.2C49.5601 67.3 49.3801 67.39 49.2201 67.39Z" fill="#FFFCFA"/>
<path d="M50.6501 62.7401C52.2201 62.7401 54.3201 62.6801 53.9301 64.2001C52.5001 69.8101 51.6801 67.3901 50.6301 67.4701H50.6201V62.7401H50.6501Z" fill="#E5E5E5"/>
<path d="M52.0101 67.39C51.8501 67.39 51.6701 67.3 51.4801 67.2C51.3001 67.11 50.8401 67 50.6201 66.96V62.74H50.9901C51.8201 62.74 53.2201 62.74 53.6001 63.24C53.7201 63.39 53.7401 63.6 53.6701 63.87C53.0701 66.21 52.5101 67.39 52.0101 67.39Z" fill="#FFFCFA"/>
<path d="M50.54 63.04C50.54 64.06 52.02 64.66 53.3 64.59C55.06 64.49 56.2601 63.57 56.2601 62.54C56.2601 61.51 54.4201 59.8 52.8101 59.97C51.5401 60.11 50.54 62.01 50.54 63.04Z" fill="white"/>
<path d="M50.6302 63.04C50.6302 64.06 49.1502 64.66 47.8702 64.59C46.1102 64.49 44.9102 63.57 44.9102 62.54C44.9102 61.51 46.7502 59.8 48.3602 59.97C49.6302 60.11 50.6302 62.01 50.6302 63.04Z" fill="white"/>
<path d="M56.24 62.28C56.2 62.13 56.16 62.01 56.1 61.92C56.06 61.82 56 61.76 55.97 61.71C55.94 61.66 55.92 61.64 55.92 61.64C55.92 61.64 55.94 61.67 55.97 61.71C56 61.76 56.0501 61.83 56.0901 61.93C56.1401 62.03 56.1801 62.15 56.2101 62.29C56.2301 62.44 56.2501 62.61 56.2101 62.78C56.1701 62.96 56.1 63.14 55.97 63.31C55.85 63.48 55.6901 63.63 55.5101 63.77C55.1401 64.04 54.6901 64.23 54.2101 64.34C53.7401 64.45 53.25 64.47 52.8 64.43C52.58 64.4 52.36 64.37 52.16 64.31C51.96 64.26 51.7801 64.19 51.6201 64.11C51.4601 64.03 51.3101 63.96 51.1901 63.87C51.0701 63.8 50.9701 63.71 50.8901 63.65C50.8101 63.58 50.7601 63.52 50.7101 63.49C50.6701 63.45 50.61 63.47 50.61 63.47L50.6801 62.08H50.41L50.49 63.47C50.49 63.47 50.4301 63.45 50.3901 63.49C50.3501 63.53 50.2901 63.59 50.2101 63.65C50.1301 63.71 50.03 63.8 49.91 63.87C49.79 63.95 49.65 64.03 49.49 64.11C49.32 64.18 49.1501 64.25 48.9501 64.31C48.7501 64.37 48.5301 64.4 48.3101 64.43C47.8601 64.48 47.3801 64.45 46.9001 64.34C46.4301 64.23 45.97 64.04 45.61 63.77C45.43 63.63 45.2701 63.48 45.1501 63.31C45.0201 63.14 44.95 62.96 44.91 62.78C44.87 62.6 44.88 62.43 44.91 62.29C44.94 62.14 44.9801 62.02 45.0301 61.93C45.0701 61.83 45.1201 61.76 45.1501 61.71C45.1801 61.66 45.2001 61.64 45.2001 61.64C45.2001 61.64 45.1801 61.67 45.1501 61.71C45.1201 61.76 45.0601 61.82 45.0201 61.92C44.9701 62.02 44.9201 62.14 44.8801 62.28C44.8501 62.43 44.8301 62.6 44.8701 62.78C44.9101 62.96 44.97 63.16 45.1 63.34C45.22 63.52 45.3801 63.68 45.5601 63.83C45.9301 64.12 46.3901 64.33 46.8701 64.46C47.3501 64.59 47.8601 64.63 48.3201 64.6C48.5501 64.58 48.78 64.55 48.99 64.5C49.2 64.45 49.4001 64.38 49.5701 64.31C49.7501 64.24 49.9001 64.16 50.0301 64.07C50.1601 63.99 50.27 63.91 50.36 63.84C50.43 63.78 50.4901 63.73 50.5301 63.69C50.5701 63.73 50.6201 63.78 50.7001 63.84C50.7901 63.91 50.9001 63.99 51.0301 64.07C51.1601 64.15 51.32 64.23 51.49 64.31C51.67 64.38 51.8601 64.45 52.0701 64.5C52.2801 64.55 52.51 64.58 52.74 64.6C53.21 64.63 53.7101 64.59 54.1901 64.46C54.6701 64.33 55.1301 64.12 55.5001 63.83C55.6801 63.68 55.8401 63.52 55.9601 63.34C56.0901 63.16 56.1501 62.97 56.1901 62.78C56.2301 62.6 56.21 62.42 56.18 62.28H56.24Z" fill="#4F3231"/>
<path d="M50.3499 61.6501C50.2599 61.8601 49.82 61.8701 49.38 61.6801C48.94 61.4801 48.66 61.1501 48.75 60.9401C48.85 60.7301 49.2799 60.7101 49.7199 60.9101C50.1599 61.1101 50.4399 61.4401 50.3499 61.6501Z" fill="#010101"/>
<path d="M50.8601 61.6501C50.9601 61.8601 51.3901 61.8701 51.8301 61.6801C52.2701 61.4801 52.5501 61.1501 52.4601 60.9401C52.3701 60.7301 51.9301 60.7101 51.4901 60.9101C51.0501 61.1101 50.7701 61.4401 50.8601 61.6501Z" fill="#010101"/>
<path d="M51.8402 58.39C51.3602 58.25 51.0902 58.25 50.6202 58.25V58.38L50.5902 58.25C50.1402 58.25 49.8702 58.25 49.3902 58.39C48.5002 58.65 47.8902 59.71 48.0802 60.65C48.1602 61.02 48.5902 61.56 49.0202 61.56C49.2702 61.56 49.4102 61.39 49.5002 61.27C49.5302 61.24 49.5602 61.19 49.5602 61.18C49.5802 61.18 49.6602 61.25 49.8702 61.67C49.9602 61.84 50.0001 61.97 50.0401 62.07C50.1401 62.36 50.2102 62.44 50.6202 62.44C51.0202 62.44 51.0902 62.37 51.1902 62.07C51.2202 61.97 51.2701 61.84 51.3601 61.67C51.5701 61.25 51.6502 61.19 51.6502 61.18C51.6702 61.18 51.7101 61.24 51.7301 61.27C51.8201 61.38 51.9602 61.56 52.2102 61.56C52.6502 61.56 53.0802 61.01 53.1502 60.65C53.3402 59.71 52.7302 58.65 51.8402 58.39Z" fill="#262626"/>
<path d="M50.6099 60.1601C50.0699 60.1601 48.71 60.0901 48.71 59.6501C48.71 58.5301 50.0599 58.4701 50.5999 58.4701C51.1399 58.4701 52.4699 58.5001 52.4699 59.6501C52.4699 60.0901 51.1499 60.1601 50.6099 60.1601Z" fill="#797575"/>
<path d="M33.2501 34.7201C32.8001 33.1301 30.3801 29.9401 28.7401 31.9601C27.9301 32.9501 26.9501 34.1901 28.0601 36.3001C28.5201 37.1701 30.3601 38.1701 31.1301 38.7001C32.3701 39.1101 33.2001 34.9201 33.2401 34.7201H33.2501Z" fill="#ED9DB2"/>
<path d="M68.3901 34.7201C68.8501 33.1301 71.2601 29.9401 72.9001 31.9601C73.7101 32.9501 74.6901 34.1901 73.5801 36.3001C73.1201 37.1701 71.2801 38.1701 70.5101 38.7001C69.2701 39.1101 68.4501 34.9201 68.4001 34.7201H68.3901Z" fill="#ED9DB2"/>
</svg>
