<svg width="101" height="102" viewBox="0 0 101 102" fill="none" xmlns="http://www.w3.org/2000/svg">
<path d="M92.26 0.650024H8.67C3.88169 0.650024 0 4.53173 0 9.32004V92.91C0 97.6983 3.88169 101.58 8.67 101.58H92.26C97.0483 101.58 100.93 97.6983 100.93 92.91V9.32004C100.93 4.53173 97.0483 0.650024 92.26 0.650024Z" fill="#24B999"/>
<path d="M49.29 79.2601C45.26 79.2001 39.66 77.1301 35.02 73.9701C30.04 70.5801 26.84 66.5001 25.86 62.3601C25.57 62.7201 25.28 63.0901 24.98 63.4601C22.92 66.0601 20.79 68.7401 18.45 69.6301C18.06 69.7801 17.64 69.8501 17.22 69.8501C16 69.8501 14.74 69.2201 13.58 68.0401C11.73 66.1701 10.35 63.1301 10.34 60.9301L8.26995 47.7201C6.85995 41.8901 10.99 39.1601 15.37 36.2701C16.45 35.5501 17.58 34.8101 18.69 33.9901C20.13 32.9301 21.3 31.8801 22.33 30.9501C25.05 28.5101 27.2 26.5801 31.63 26.5801H31.84C36.57 26.6501 37.97 28.6701 39.32 30.6201C39.87 31.4201 40.45 32.2401 41.29 32.9801C42.5 34.0301 43.92 34.9201 45 35.5201C46.26 35.4101 47.63 35.3501 49.07 35.3501C49.33 35.3501 49.6 35.3501 49.87 35.3501C51.91 35.3801 53.83 35.5301 55.6 35.8001C56.58 35.2601 58.38 34.2001 59.85 32.8801C60.69 32.1301 61.25 31.3001 61.79 30.4901C63.11 28.5201 64.48 26.4801 69.21 26.3401C69.36 26.3401 69.51 26.3401 69.65 26.3401C73.93 26.3401 76.08 28.2101 78.8 30.5701C79.84 31.4801 81.03 32.5101 82.48 33.5501C83.61 34.3601 84.74 35.0801 85.84 35.7801C90.26 38.6001 94.44 41.2701 93.12 47.1201L91.25 60.3601C91.27 62.5901 89.92 65.6701 88.07 67.5701C86.91 68.7601 85.66 69.3901 84.45 69.3901C84.05 69.3901 83.65 69.3201 83.27 69.1801C80.92 68.3301 78.75 65.6801 76.65 63.1101C75.61 61.8401 74.55 60.5401 73.55 59.5801C73.55 59.7801 73.55 59.9801 73.55 60.1901C73.55 60.5501 73.53 60.9001 73.49 61.2301C73.48 61.3401 73.46 61.4601 73.45 61.5701V61.6001C72.84 66.2301 69.61 70.7201 64.35 74.2501C59.7 77.3701 54.18 79.2501 49.58 79.2701H49.29V79.2601Z" fill="#2F150C"/>
<path d="M18.03 68.46C21.01 67.33 23.9799 62.32 26.8099 59.36C26.8099 59.42 26.8099 59.4801 26.8099 59.5401C26.8099 59.9901 26.8299 60.43 26.8799 60.87C27.9799 70.3 41.92 77.91 49.31 78.02C49.36 78.02 49.4 78.02 49.45 78.02C49.5 78.02 49.5499 78.02 49.5999 78.02C58.1999 77.98 71.01 70.77 72.23 61.46C72.24 61.35 72.2599 61.23 72.2699 61.12C72.2999 60.81 72.32 60.5 72.32 60.18C72.34 59.1 72.2999 58.04 72.2099 57.02C72.2699 57.1 72.33 57.1601 72.4 57.1901C75.95 58.8401 79.87 66.6301 83.72 68.0101C86.68 69.0701 90.12 63.43 90.03 60.28L91.92 46.8901C93.37 40.6101 87.59 38.71 81.79 34.56C76.52 30.78 75 27.42 69.29 27.59C63.35 27.76 63.7699 31.07 60.7299 33.81C58.9499 35.41 56.7299 36.6401 55.8699 37.1001C54.0999 36.8001 52.12 36.6301 49.91 36.6001C48.01 36.5701 46.32 36.64 44.79 36.8C43.71 36.22 41.98 35.1901 40.52 33.9201C37.43 31.2301 37.81 27.91 31.86 27.83C26.14 27.75 24.6799 31.14 19.4699 34.99C13.7399 39.23 7.97995 41.2101 9.52995 47.4701L11.62 60.83C11.58 63.98 15.0999 69.57 18.0499 68.46H18.03Z" fill="#2F150C"/>
<path d="M11.5999 60.8301C11.5599 63.9801 15.0799 69.5701 18.0299 68.4601C21.8599 67.0201 25.6599 59.1701 29.1799 57.4601C30.3999 56.8701 29.9399 48.2901 34.1699 43.6901C40.0299 37.3301 47.5899 37.3401 45.7999 37.3101C45.7999 37.3101 42.7999 35.9101 40.4999 33.9101C37.4099 31.2201 37.7899 27.9001 31.8399 27.8201C26.1199 27.7401 24.6599 31.1301 19.4499 34.9801C13.7199 39.2201 7.95993 41.2001 9.50993 47.4601L11.5999 60.8201V60.8301Z" fill="#C9C9C9"/>
<path d="M19.03 67.7201C18.78 67.7101 17.95 67.2401 17.05 65.9001C16.09 64.4801 15.67 63.0201 15.68 62.2601V62.0701L13.54 48.4201L13.52 48.3201C12.74 45.1501 14.34 43.7601 19.13 40.6101C20.25 39.8701 21.41 39.1001 22.61 38.2201C24.18 37.0601 25.41 35.9501 26.5 34.9701C29.02 32.7001 30.41 31.4601 33.61 31.5001C36.52 31.5401 37.06 32.3201 38.25 34.0201C38.86 34.9001 39.63 36.0001 40.8 37.0301C41.22 37.4001 41.66 37.7401 42.1 38.0701C39.13 39.3401 35.12 41.9301 33.48 44.6701C29.7 51.0201 30.27 51.9601 29.7 55.2501C29.58 55.9201 29.45 56.7001 29.33 57.1801C27.46 58.3401 25.79 60.4501 24.03 62.6701C22.36 64.7801 20.46 67.1801 19.03 67.7201Z" fill="#ED9DB2"/>
<path d="M72.3099 60.1701C72.3099 60.4801 72.2899 60.8001 72.2599 61.1101C72.2499 61.2201 72.2299 61.3401 72.2199 61.4501C70.9999 70.7601 58.1899 77.9801 49.5899 78.0101C49.5399 78.0101 49.4899 78.0101 49.4399 78.0101C49.3899 78.0101 49.3499 78.0101 49.2999 78.0101C41.9099 77.9101 27.9699 70.2901 26.8699 60.8601C26.8199 60.4201 26.7899 59.9801 26.7999 59.5301C26.9199 50.6801 30.5899 44.0201 34.4099 40.6701C37.4199 38.0301 41.8899 36.4801 49.8799 36.5901C57.3899 36.6901 62.2599 38.4201 65.2299 41.1001C68.9999 44.5101 72.4399 51.3101 72.3099 60.1601" fill="#C9C9C9"/>
<path d="M49.32 76.41C45.94 76.36 40.92 74.36 36.83 71.42C32.14 68.05 29.2 63.91 28.78 60.06C28.74 59.68 28.72 59.29 28.72 58.9C28.83 51.2 34.1 41.95 35.75 40.45C37.03 39.29 43.48 36.5 49.88 36.59C55.91 36.67 62.58 39.61 63.91 40.86C65.56 42.42 70.52 51.8 70.41 59.48C70.41 59.76 70.39 60.04 70.37 60.31C70.37 60.41 70.35 60.52 70.34 60.62C69.22 69.56 56.98 76.37 49.58 76.41H49.62H49.34" fill="#D8D8D8"/>
<path d="M31.1 56.3301C31.1 56.3301 35.37 65.4801 39.14 65.5301C42.02 65.5701 45.65 64.1401 45.65 64.1401C45.65 64.1401 47.39 49.0201 39.05 48.4201C35.29 48.1501 31.11 56.3301 31.11 56.3301" fill="#C9C9C9"/>
<path d="M68.1799 56.8501C68.1799 56.8501 63.6599 65.8801 59.8899 65.8301C57.0099 65.7901 53.4199 64.2601 53.4199 64.2601C53.4199 64.2601 52.0999 49.0901 60.4599 48.7301C64.2199 48.5601 68.1799 56.8601 68.1799 56.8601" fill="#C9C9C9"/>
<path d="M35.26 50.3601C35.26 50.3601 35.27 50.3201 35.31 50.2601C35.34 50.2001 35.39 50.1001 35.47 49.9901C35.54 49.8801 35.64 49.7501 35.76 49.6101C35.89 49.4801 36.02 49.3101 36.2 49.1701C36.29 49.1001 36.38 49.0201 36.48 48.9401C36.59 48.8701 36.69 48.8001 36.8 48.7201C36.91 48.6401 37.04 48.5901 37.16 48.5201C37.29 48.4601 37.42 48.3901 37.56 48.3401C37.84 48.2401 38.14 48.1401 38.45 48.1101C38.76 48.0401 39.09 48.0501 39.41 48.0501C39.73 48.0501 40.05 48.1401 40.36 48.1901C40.66 48.2901 40.95 48.3901 41.22 48.5101C41.48 48.6501 41.72 48.8001 41.94 48.9401C42.15 49.1001 42.33 49.2701 42.5 49.4201C42.58 49.5001 42.66 49.5701 42.73 49.6501C42.8 49.7301 42.86 49.8101 42.91 49.8801C43.02 50.0201 43.11 50.1601 43.19 50.2701C43.34 50.4901 43.41 50.6201 43.41 50.6201C43.41 50.6201 43.26 50.5701 43.02 50.4701C42.9 50.4201 42.76 50.3601 42.6 50.2801C42.45 50.2001 42.26 50.1301 42.07 50.0601C41.87 49.9901 41.68 49.8901 41.46 49.8101C41.24 49.7501 41.01 49.6701 40.78 49.5901C40.54 49.5401 40.3 49.4901 40.06 49.4301C39.94 49.4201 39.81 49.4101 39.69 49.3901C39.57 49.3801 39.44 49.3501 39.32 49.3601C39.07 49.3601 38.83 49.3401 38.58 49.3601C38.46 49.3801 38.33 49.3601 38.21 49.3901C38.09 49.4101 37.97 49.4301 37.85 49.4501C37.73 49.4601 37.62 49.5101 37.5 49.5301C37.39 49.5601 37.27 49.5801 37.16 49.6101C36.94 49.6701 36.73 49.7301 36.54 49.8101C36.34 49.8701 36.17 49.9501 36 50.0101C35.85 50.0801 35.7 50.1301 35.58 50.1901C35.46 50.2401 35.37 50.2801 35.31 50.3101C35.24 50.3401 35.21 50.3601 35.21 50.3601H35.26Z" fill="#565656"/>
<path d="M64.0399 50.7701C64.0399 50.7701 64.0099 50.7501 63.9399 50.7201C63.8799 50.6901 63.7899 50.6501 63.6699 50.5901C63.5599 50.5301 63.4099 50.4801 63.2599 50.4001C63.0999 50.3401 62.9299 50.2601 62.7299 50.1901C62.5399 50.1101 62.3299 50.0401 62.1199 49.9801C62.0099 49.9401 61.8999 49.9201 61.7899 49.8901C61.6699 49.8701 61.5599 49.8201 61.4399 49.8001C61.3199 49.7801 61.1999 49.7601 61.0799 49.7301C60.9599 49.7001 60.8399 49.7101 60.7199 49.6901C60.4799 49.6501 60.2299 49.6601 59.9799 49.6601C59.8599 49.6501 59.7299 49.6701 59.6099 49.6801C59.4899 49.7001 59.3599 49.7001 59.2399 49.7101C58.9999 49.7701 58.7599 49.8101 58.5199 49.8501C58.2899 49.9301 58.0599 49.9901 57.8399 50.0501C57.6199 50.1201 57.4199 50.2101 57.2199 50.2801C57.0199 50.3501 56.8399 50.4101 56.6799 50.4901C56.5199 50.5601 56.3799 50.6201 56.2599 50.6701C56.0199 50.7601 55.8699 50.8101 55.8699 50.8101C55.8699 50.8101 55.9399 50.6801 56.0999 50.4701C56.1799 50.3601 56.2699 50.2301 56.3899 50.0901C56.4499 50.0201 56.5099 49.9401 56.5799 49.8601C56.6499 49.7901 56.7399 49.7201 56.8199 49.6401C56.9899 49.4901 57.1799 49.3201 57.3999 49.1701C57.6299 49.0301 57.8699 48.8901 58.1399 48.7601C58.4099 48.6501 58.7099 48.5501 59.0099 48.4601C59.3199 48.4101 59.6399 48.3401 59.9599 48.3401C60.2799 48.3401 60.6099 48.3401 60.9199 48.4201C61.2399 48.4601 61.5299 48.5801 61.8099 48.6801C61.9499 48.7301 62.0799 48.8001 62.1999 48.8701C62.3299 48.9401 62.4499 49.0001 62.5599 49.0801C62.6699 49.1601 62.7799 49.2301 62.8799 49.3001C62.9799 49.3801 63.0699 49.4601 63.1499 49.5401C63.3299 49.6901 63.4599 49.8601 63.5799 50.0001C63.6999 50.1501 63.7899 50.2801 63.8599 50.3901C63.9299 50.5001 63.9799 50.6001 64.0099 50.6601C64.0399 50.7201 64.0499 50.7601 64.0499 50.7601L64.0399 50.7701Z" fill="#565656"/>
<path d="M45.65 64.1501C38.67 67.3601 33.81 65.1501 31.73 56.5501C31.73 56.5501 40.16 50.1901 44.48 58.5601C45.15 59.8601 45.65 64.1501 45.65 64.1501Z" fill="white"/>
<path d="M38.9399 64.6C37.0099 64.53 35.4199 62.98 34.8299 60.85C34.6499 60.2 34.5599 59.49 34.5899 58.76C34.6899 55.81 36.5399 54.78 38.8499 54.75C38.9899 54.75 39.1399 54.75 39.2799 54.75C41.7899 54.84 43.6599 57.48 43.6799 59.08C43.7199 62.21 41.4399 64.68 38.9299 64.59" fill="#8C5843"/>
<path d="M38.97 63.8001C37.51 63.7501 36.25 62.4801 35.75 60.5701C35.59 59.9601 35.52 59.3201 35.54 58.6701C35.61 56.4701 36.67 55.4301 38.87 55.3901C38.98 55.3901 39.09 55.3901 39.2 55.3901H39.26C41.24 55.4601 42.72 57.8001 42.73 58.9801C42.75 60.4101 42.25 61.7701 41.36 62.7101C40.68 63.4301 39.85 63.8201 39.02 63.8001H38.96" fill="#3D2E17"/>
<path d="M53.3899 64.2501C60.2799 67.6501 65.1899 65.5801 67.5099 57.0401C67.5099 57.0401 59.2599 50.4501 54.7099 58.6901C54.0099 59.9701 53.3899 64.2501 53.3899 64.2501Z" fill="white"/>
<path d="M60.09 64.89C62.02 64.87 63.65 63.37 64.3 61.26C64.5 60.62 64.61 59.91 64.6 59.18C64.58 56.23 62.76 55.15 60.45 55.05C60.31 55.05 60.16 55.04 60.02 55.04C57.51 55.06 55.56 57.64 55.5 59.25C55.37 62.38 57.58 64.91 60.09 64.89Z" fill="#8C5843"/>
<path d="M60.0199 64.1001C59.1899 64.0901 58.3699 63.6801 57.7099 62.9401C56.8499 61.9801 56.3899 60.6101 56.4499 59.1701C56.4999 57.9801 58.0399 55.7001 60.0299 55.6801H60.0799C60.1899 55.6801 60.2999 55.6801 60.4099 55.6901C62.5999 55.7901 63.6299 56.8601 63.6399 59.0601C63.6399 59.7201 63.5599 60.3501 63.3799 60.9501C62.8299 62.8501 61.5299 64.0801 60.0699 64.0901H60.0099" fill="#3D2E17"/>
<path d="M39.34 57.65C39.27 59.55 37.98 61.04 36.46 60.99C35.77 60.97 35.16 60.63 34.69 60.09C34.53 59.52 34.45 58.9 34.48 58.26C34.57 55.67 36.19 54.78 38.22 54.74C38.94 55.38 39.39 56.45 39.35 57.64" fill="white"/>
<path d="M41.6599 63.18C41.6399 63.82 41.1999 64.33 40.6899 64.31C40.1699 64.29 39.7699 63.76 39.7999 63.11C39.8199 62.47 40.2599 61.9601 40.7699 61.9801C41.2899 62.0001 41.6899 62.53 41.6599 63.18Z" fill="white"/>
<path d="M60.0599 58.2301C59.9899 60.1301 58.6999 61.6201 57.1799 61.5701C56.4899 61.5501 55.8799 61.2101 55.4099 60.6701C55.2499 60.1001 55.1699 59.4801 55.1999 58.8401C55.2899 56.2501 56.9099 55.3601 58.9399 55.3201C59.6599 55.9601 60.1099 57.0301 60.0699 58.2201" fill="white"/>
<path d="M62.57 63.4701C62.55 64.1101 62.11 64.6201 61.6 64.6001C61.08 64.5801 60.68 64.0501 60.71 63.4001C60.73 62.7601 61.17 62.2501 61.68 62.2701C62.2 62.2901 62.6 62.8201 62.57 63.4701Z" fill="white"/>
<path d="M45.65 64.1501C45.65 64.1501 45.15 59.8601 44.48 58.5601C45.14 59.8401 45.63 64.0201 45.65 64.1501ZM32.04 57.7201C31.93 57.3401 31.83 56.9601 31.73 56.5501C31.83 56.9501 31.93 57.3401 32.04 57.7201Z" fill="#B9B8B8"/>
<path d="M44.39 64.6701C44.18 63.4401 43.89 62.0701 43.56 61.4301C43.5 61.3101 43.44 61.2001 43.37 61.0801C43.57 60.4601 43.68 59.7901 43.67 59.0801C43.65 57.4801 41.78 54.8401 39.27 54.7501C39.22 54.7501 39.16 54.7501 39.11 54.7501C39.02 54.7501 38.93 54.7501 38.84 54.7501C38.64 54.7501 38.44 54.7601 38.24 54.7801C38.23 54.7701 38.22 54.7601 38.2 54.7501C36.37 54.7801 34.88 55.5101 34.53 57.5501C33.67 57.8201 32.89 58.1801 32.28 58.5001C32.19 58.2401 32.11 57.9801 32.03 57.7101C31.92 57.3301 31.82 56.9501 31.72 56.5401C31.77 56.5001 34.82 54.2301 38.17 54.2301C38.59 54.2301 39.01 54.2601 39.43 54.3401C41.26 54.6801 43.08 55.8501 44.47 58.5501C45.14 59.8501 45.64 64.1401 45.64 64.1401C45.21 64.3401 44.79 64.5101 44.38 64.6701" fill="#E2E1E1"/>
<path d="M43.38 61.09C43.15 60.68 42.91 60.3 42.66 59.96C42.71 59.64 42.73 59.31 42.73 58.98C42.72 57.79 41.24 55.46 39.26 55.39H39.2C39.2 55.39 39.15 55.39 39.12 55.39C39.03 55.39 38.95 55.39 38.87 55.39C38.83 55.39 38.79 55.39 38.75 55.39C38.6 55.16 38.43 54.96 38.24 54.78C38.44 54.76 38.64 54.75 38.84 54.75C38.93 54.75 39.02 54.75 39.11 54.75C39.16 54.75 39.22 54.75 39.27 54.75C41.78 54.84 43.65 57.48 43.67 59.08C43.67 59.79 43.57 60.46 43.37 61.08" fill="#875945"/>
<path d="M42.6599 59.9601C41.6599 58.6001 40.5099 57.8201 39.3399 57.4301C39.3299 56.6601 39.1099 55.9501 38.7499 55.3901C38.7899 55.3901 38.8299 55.3901 38.8699 55.3901C38.9499 55.3901 39.0399 55.3901 39.1199 55.3901C39.1399 55.3901 39.1699 55.3901 39.1999 55.3901H39.2599C41.2399 55.4601 42.7199 57.8001 42.7299 58.9801C42.7299 59.3101 42.7099 59.6401 42.6599 59.9601Z" fill="#41331E"/>
<path d="M34.5399 57.56C34.8799 55.52 36.3799 54.79 38.2099 54.76C38.2199 54.77 38.2299 54.78 38.2499 54.79C38.4399 54.96 38.6099 55.17 38.7599 55.4C39.1199 55.96 39.3399 56.67 39.3499 57.44C38.6599 57.21 37.9599 57.12 37.2799 57.12C36.3299 57.12 35.3999 57.3 34.5599 57.57" fill="#E2E1E1"/>
<path d="M54.6299 64.82C54.2199 64.66 53.8099 64.47 53.3899 64.26C53.3899 64.26 53.3899 64.22 53.4099 64.15C53.3999 64.22 53.3899 64.26 53.3899 64.26C53.8099 64.47 54.2199 64.65 54.6299 64.82Z" fill="#C5C5C5"/>
<path d="M53.4099 64.1501C53.5099 63.4801 54.0799 59.8601 54.7199 58.7001C54.9399 58.3101 55.1599 57.9501 55.3899 57.6201C55.1599 57.9501 54.9399 58.3001 54.7199 58.6901C54.0799 59.8501 53.5099 63.4801 53.4099 64.1401" fill="#B9B8B8"/>
<path d="M54.6299 64.8201C54.2199 64.6501 53.8099 64.4701 53.3899 64.2601C53.3899 64.2601 53.3899 64.2201 53.4099 64.1601C53.5099 63.5001 54.0799 59.8701 54.7199 58.7101C54.9299 58.3201 55.1599 57.9601 55.3899 57.6401C55.2799 58.0001 55.2199 58.4001 55.1999 58.8601C55.1799 59.5001 55.2499 60.1201 55.4099 60.6901C55.4899 60.7801 55.5699 60.8601 55.6499 60.9401C55.6799 61.0501 55.7099 61.1701 55.7399 61.2801C55.6699 61.3901 55.6099 61.5001 55.5499 61.6201C55.1999 62.2501 54.8799 63.6201 54.6299 64.8401" fill="#E2E1E1"/>
<path d="M55.7399 61.26C55.7099 61.15 55.6799 61.03 55.6499 60.92C55.7099 60.98 55.7799 61.03 55.8499 61.08C55.8099 61.14 55.7799 61.2 55.7399 61.26Z" fill="#875945"/>
<path d="M67.1199 58.3801C67.2599 57.9601 67.3899 57.51 67.5199 57.05C67.3899 57.51 67.2599 57.9501 67.1199 58.3801ZM57.5199 55.5201C58.6299 54.8101 59.7899 54.55 60.9199 54.55C59.7899 54.55 58.6199 54.8201 57.5199 55.5201Z" fill="#B9B8B8"/>
<path d="M66.8999 58.9901C66.2399 58.6201 65.3999 58.2001 64.4599 57.9001C63.9899 55.9101 62.3899 55.14 60.4499 55.05C60.3099 55.05 60.1599 55.0401 60.0199 55.0401C59.5099 55.0401 59.0199 55.1601 58.5599 55.3401C58.1999 55.3701 57.8499 55.4201 57.5299 55.5201C58.6399 54.8101 59.7999 54.55 60.9299 54.55C60.9599 54.55 60.9799 54.55 61.0099 54.55C63.7199 54.58 66.2199 56.1301 67.1399 56.7701C67.3799 56.9401 67.5099 57.0401 67.5099 57.0401C67.3799 57.5001 67.2499 57.9401 67.1099 58.3701C67.0399 58.5801 66.9699 58.7901 66.8899 58.9901" fill="#E2E1E1"/>
<path d="M64.4599 57.9001C64.1399 57.8001 63.7999 57.7001 63.4499 57.6301C63.0599 56.3901 62.0699 55.7601 60.4199 55.6901C60.3099 55.6901 60.1999 55.6801 60.0899 55.6801H60.0399C59.7999 55.6801 59.5699 55.7201 59.3499 55.7801C59.2299 55.6101 59.0899 55.47 58.9399 55.33C58.8099 55.33 58.6899 55.3301 58.5599 55.3501C59.0199 55.1601 59.5099 55.05 60.0199 55.05C60.1599 55.05 60.3099 55.0501 60.4499 55.0601C62.3899 55.1401 63.9799 55.9201 64.4599 57.9101" fill="#875945"/>
<path d="M60.05 57.67C59.98 56.94 59.73 56.28 59.35 55.77C59.57 55.71 59.8 55.68 60.04 55.67H60.09C60.2 55.67 60.31 55.67 60.42 55.68C62.07 55.75 63.06 56.38 63.45 57.62C62.91 57.5 62.34 57.44 61.76 57.44C61.18 57.44 60.62 57.51 60.04 57.66" fill="#41331E"/>
<path d="M55.8499 61.08C55.7799 61.03 55.7199 60.9701 55.6499 60.9201C55.5699 60.8401 55.4899 60.7601 55.4099 60.6701C55.2499 60.1001 55.1699 59.4801 55.1999 58.8401C55.2199 58.3801 55.2799 57.9801 55.3899 57.6201C56.0499 56.6801 56.7799 56.0001 57.5299 55.5201C57.8499 55.4301 58.1999 55.3701 58.5699 55.3401C58.6899 55.3401 58.8199 55.3301 58.9499 55.3201C59.0999 55.4501 59.2299 55.6001 59.3599 55.7701C59.7399 56.2801 59.9899 56.9401 60.0599 57.6701C58.5699 58.0801 57.0999 59.08 55.8599 61.08" fill="#E2E1E1"/>
<path d="M45.65 64.15C45.57 63.72 45.48 63.3 45.39 62.88C45.3 62.46 45.22 62.03 45.12 61.61C45.03 61.19 44.92 60.77 44.81 60.36C44.7 59.94 44.57 59.57 44.42 59.17C44.33 58.99 44.25 58.74 44.16 58.61L43.83 58.07C43.59 57.72 43.36 57.38 43.08 57.07C42.95 56.91 42.81 56.76 42.66 56.61C42.52 56.46 42.37 56.32 42.21 56.19C42.06 56.06 41.9 55.93 41.73 55.82C41.57 55.7 41.4 55.59 41.22 55.5C40.88 55.29 40.5 55.15 40.12 55.02C39.74 54.9 39.35 54.82 38.95 54.78C38.55 54.75 38.15 54.73 37.74 54.78C37.34 54.8 36.93 54.88 36.54 54.96C35.74 55.14 34.96 55.41 34.2 55.76C33.82 55.94 33.45 56.13 33.09 56.34C32.74 56.55 32.37 56.77 32.06 57L32.26 56.43L32.57 57.56C32.66 57.94 32.8 58.3 32.92 58.67C33.04 59.04 33.17 59.41 33.33 59.75C33.49 60.1 33.61 60.47 33.81 60.8C34 61.13 34.15 61.49 34.38 61.8C34.6 62.1 34.78 62.45 35.05 62.71C35.3 62.99 35.53 63.29 35.82 63.52L36.24 63.9L36.71 64.21C37.01 64.44 37.36 64.57 37.7 64.74C38.04 64.9 38.41 64.97 38.77 65.09C39.14 65.14 39.52 65.22 39.9 65.25C40.28 65.25 40.67 65.3 41.06 65.25C41.44 65.21 41.84 65.22 42.22 65.12C42.6 65.04 43 65 43.37 64.88C43.75 64.77 44.13 64.68 44.51 64.55L45.64 64.16L45.65 64.15ZM45.65 64.15L44.58 64.69C44.22 64.86 43.84 64.99 43.46 65.14C43.09 65.3 42.69 65.38 42.3 65.5C41.91 65.63 41.51 65.67 41.11 65.75C40.71 65.84 40.29 65.81 39.88 65.85C39.47 65.85 39.05 65.8 38.64 65.77C38.24 65.66 37.81 65.62 37.42 65.45C37.03 65.29 36.63 65.15 36.27 64.92L35.73 64.59L35.23 64.2C34.88 63.95 34.61 63.63 34.32 63.33C34.01 63.03 33.81 62.67 33.55 62.34C33.29 62.01 33.12 61.63 32.9 61.28C32.68 60.93 32.53 60.54 32.35 60.17C32.17 59.8 32.03 59.41 31.9 59.03C31.77 58.64 31.61 58.26 31.52 57.87L31.19 56.69L31.09 56.34L31.39 56.12C31.78 55.84 32.14 55.6 32.54 55.38C32.93 55.16 33.33 54.96 33.74 54.77C34.56 54.4 35.42 54.11 36.31 53.92C36.76 53.83 37.21 53.77 37.67 53.75C38.13 53.72 38.59 53.75 39.05 53.8C39.51 53.87 39.97 53.97 40.4 54.13C40.62 54.21 40.84 54.29 41.04 54.4C41.25 54.5 41.45 54.61 41.65 54.74C41.85 54.86 42.04 54.99 42.21 55.14C42.4 55.27 42.57 55.43 42.73 55.59C42.9 55.74 43.05 55.91 43.2 56.08C43.36 56.25 43.5 56.42 43.63 56.61C43.91 56.97 44.13 57.35 44.36 57.74L44.66 58.33C44.78 58.57 44.82 58.75 44.9 58.96C45.02 59.38 45.13 59.85 45.19 60.27C45.27 60.7 45.33 61.13 45.38 61.56C45.49 62.42 45.57 63.29 45.61 64.15H45.65Z" fill="#5B5C5C"/>
<path d="M53.3899 64.2501C53.4599 63.3901 53.5599 62.5201 53.6899 61.6701C53.7499 61.2401 53.8299 60.8101 53.9199 60.3801C53.9899 59.9601 54.1199 59.5001 54.2499 59.0801C54.3399 58.8701 54.3799 58.6901 54.5099 58.4601L54.8299 57.8801C55.0599 57.5001 55.2999 57.1201 55.5899 56.7701C55.7199 56.5901 55.8699 56.4201 56.0299 56.2601C56.1799 56.0901 56.3399 55.9301 56.5199 55.7801C56.6899 55.6301 56.8599 55.4701 57.0499 55.3501C57.2299 55.2101 57.4199 55.0801 57.6299 54.9701C57.8299 54.8501 58.0299 54.7401 58.2499 54.6501C58.4599 54.5401 58.6799 54.4701 58.8999 54.4001C59.3399 54.2501 59.7999 54.1601 60.2599 54.1101C60.7199 54.0701 61.1899 54.0501 61.6499 54.1001C62.1099 54.1301 62.5599 54.2001 63.0099 54.3001C63.8999 54.5101 64.7499 54.8301 65.5499 55.2201C65.9499 55.4201 66.3499 55.6301 66.7299 55.8601C67.1199 56.0901 67.4799 56.3401 67.8599 56.6301L68.1599 56.8601L68.0499 57.2101L67.6899 58.3801C67.5799 58.7701 67.4199 59.1501 67.2699 59.5301C67.1299 59.9101 66.9799 60.2901 66.7899 60.6601C66.5999 61.0301 66.4399 61.4001 66.2099 61.7501C65.9799 62.1001 65.7999 62.4701 65.5299 62.7901C65.2599 63.1101 65.0499 63.4701 64.7299 63.7601C64.4299 64.0601 64.1499 64.3701 63.7999 64.6101L63.2999 64.9901L62.7499 65.3001C62.3899 65.5301 61.9799 65.6501 61.5899 65.8001C61.1999 65.9501 60.7699 65.9901 60.3599 66.0801C59.9399 66.1001 59.5299 66.1401 59.1199 66.1301C58.7099 66.0801 58.2899 66.1001 57.8899 66.0001C57.4899 65.9101 57.0899 65.8601 56.6999 65.7201C56.3199 65.5901 55.9199 65.5001 55.5499 65.3301C55.1799 65.1701 54.7999 65.0301 54.4499 64.8501L53.3899 64.2901V64.2501ZM53.3899 64.2501L54.5099 64.6701C54.8799 64.8101 55.2699 64.9101 55.6399 65.0301C56.0099 65.1601 56.4099 65.2101 56.7899 65.3001C57.1699 65.4001 57.5699 65.4101 57.9499 65.4601C58.3299 65.5201 58.7199 65.4801 59.1099 65.4901C59.4899 65.4801 59.8699 65.4101 60.2499 65.3601C60.6099 65.2501 60.9899 65.1901 61.3299 65.0401C61.6699 64.8901 62.0299 64.7601 62.3299 64.5401L62.7999 64.2401L63.2299 63.8801C63.5299 63.6601 63.7699 63.3601 64.0299 63.0901C64.2999 62.8301 64.4899 62.4901 64.7199 62.1901C64.9599 61.9001 65.1099 61.5301 65.3099 61.2101C65.5199 60.8901 65.6499 60.5201 65.8199 60.1801C65.9899 59.8401 66.1299 59.4801 66.2599 59.1101C66.3899 58.7501 66.5399 58.3901 66.6399 58.0101L66.9799 56.8901L67.1699 57.4601C66.8599 57.2301 66.4999 56.9901 66.1499 56.7701C65.7999 56.5501 65.4299 56.3501 65.0599 56.1601C64.3199 55.7901 63.5399 55.4901 62.7499 55.2901C62.3499 55.2001 61.9499 55.1101 61.5499 55.0701C61.1499 55.0201 60.7399 55.0201 60.3499 55.0501C59.9499 55.0801 59.5599 55.1501 59.1699 55.2601C58.7899 55.3801 58.4099 55.5101 58.0599 55.7001C57.8799 55.7901 57.7099 55.8901 57.5399 56.0101C57.3699 56.1101 57.2099 56.2401 57.0499 56.3701C56.8899 56.4901 56.7399 56.6301 56.5899 56.7801C56.4399 56.9201 56.2899 57.0701 56.1599 57.2201C55.8699 57.5201 55.6299 57.8601 55.3799 58.2001L55.0399 58.7301C54.9499 58.8601 54.8499 59.1001 54.7599 59.2801C54.5999 59.6701 54.4599 60.0401 54.3399 60.4601C54.2099 60.8701 54.0999 61.2801 53.9899 61.7001C53.8799 62.1201 53.7799 62.5401 53.6799 62.9601C53.5799 63.3801 53.4799 63.8001 53.3899 64.2301V64.2501Z" fill="#5B5C5C"/>
<path d="M90.01 60.28C90.1 63.43 86.66 69.0701 83.7 68.0101C79.85 66.6201 75.93 58.8401 72.38 57.1901C71.16 56.6201 71.48 48.0301 67.18 43.5001C61.22 37.2301 53.66 37.36 55.46 37.3C55.46 37.3 58.44 35.8501 60.7 33.8201C63.74 31.0801 63.32 27.7701 69.26 27.6001C74.98 27.4301 76.49 30.7901 81.76 34.5701C87.56 38.7201 93.34 40.62 91.89 46.9L90 60.2901L90.01 60.28Z" fill="#C9C9C9"/>
<path d="M82.6799 67.27C82.9299 67.25 83.7499 66.7701 84.6299 65.4201C85.5699 63.9801 85.9699 62.5201 85.9499 61.7601V61.57L87.8699 47.8901L87.8899 47.7901C88.6199 44.6101 86.9999 43.25 82.1699 40.16C81.0399 39.44 79.8599 38.69 78.6599 37.82C77.0699 36.68 75.8199 35.59 74.7099 34.63C72.1499 32.4 70.7399 31.18 67.5499 31.27C64.6399 31.36 64.1099 32.14 62.9499 33.86C62.3499 34.75 61.5999 35.86 60.4399 36.91C60.0299 37.28 59.5899 37.64 59.1599 37.97C62.1499 39.19 65.2499 40.7 67.0499 43.33C70.2599 48.04 71.1999 51.6701 71.8199 54.9501C71.9499 55.6101 72.0999 56.4 72.2199 56.87C74.1099 58 75.8099 60.09 77.5999 62.28C79.3099 64.37 81.2399 66.7301 82.6699 67.2601L82.6799 67.27Z" fill="#ED9DB2"/>
<path d="M53.7999 65.81C53.7999 65.81 50.3799 60.71 45.1799 65.18L45.4999 65.13C45.4999 65.13 43.9199 65.27 42.0399 67.37C42.0399 67.37 44.3199 67.9 44.2699 69.87C44.2699 69.87 44.4499 66.93 40.6899 67.64C36.7699 68.38 36.3699 64.21 36.0899 62.64C35.7799 60.9 33.9399 55.59 29.5199 58.35C29.5199 58.35 28.8299 58.08 28.8799 57.56C28.9299 57.04 27.8799 56.84 27.7399 57.54C27.5999 58.24 29.6899 59.2 27.9999 60.01C26.3099 60.83 28.5599 61.87 29.5099 60.62C29.5099 60.62 31.0299 59.38 32.2799 60.91C33.5199 62.44 34.0699 67.98 35.2699 69.96C37.3999 73.45 41.4699 75.05 49.2599 74.32C57.0499 73.59 56.0499 70.16 56.0499 70.16C56.0499 70.16 55.6999 69.7 55.5299 69.64C55.2299 69.52 54.2499 69.67 54.2499 69.67C54.2499 69.67 55.2299 69.49 55.4999 69.49C55.8199 69.49 56.7599 69.68 56.7599 69.68L53.7999 65.79V65.81Z" fill="#C9C8C8"/>
<path d="M46.74 74.62C40.8 74.8 37.18 73.3501 35.16 70.0401C34.57 69.0801 34.14 67.29 33.72 65.56C33.27 63.71 32.81 61.7901 32.18 61.0101C31.83 60.5801 31.43 60.34 30.99 60.3C30.23 60.22 29.59 60.73 29.59 60.74C29.15 61.32 28.41 61.4401 27.88 61.2901C27.52 61.1901 27.29 60.97 27.27 60.71C27.25 60.51 27.36 60.2101 27.95 59.9201C28.3 59.7501 28.49 59.5701 28.54 59.3801C28.6 59.1001 28.34 58.77 28.08 58.46C27.82 58.14 27.57 57.84 27.63 57.53C27.72 57.09 28.11 56.94 28.44 56.99C28.75 57.03 29.04 57.25 29.01 57.58C28.98 57.92 29.37 58.1501 29.52 58.2201C30.84 57.4101 32.04 57.2501 33.11 57.7201C35.02 58.5701 35.98 61.3001 36.22 62.6301C36.24 62.7401 36.26 62.8601 36.28 62.9801C36.48 64.1701 36.81 66.1701 38.13 67.1001C38.8 67.5701 39.65 67.71 40.68 67.53C41.1 67.45 41.49 67.42 41.84 67.43L41.96 67.3C43.12 65.98 44.22 65.4401 44.97 65.2301L45.12 65.1001C46.78 63.6701 48.44 63.06 50.04 63.28C52.45 63.61 53.94 65.89 53.88 65.93C53.82 65.97 53.75 65.95 53.71 65.9C53.7 65.88 52.3 63.84 50 63.53C48.55 63.34 47.04 63.86 45.53 65.09H45.85C45.85 65.09 45.92 65.09 45.93 65.09C45.93 65.09 44.02 65.43 42.28 67.33C42.46 67.39 42.73 67.5001 43.03 67.6701C43.27 67.7701 43.48 67.91 43.65 68.08C43.76 68.18 43.85 68.2901 43.92 68.4101C44.26 68.8401 44.46 69.41 44.28 70.15C44.28 70.15 44.17 69.1701 43.66 68.4701C43.47 68.2501 43.23 68.07 43 67.93C42.45 67.67 41.68 67.6201 40.73 67.7901C39.64 67.9801 38.72 67.8301 38 67.3201C36.6 66.3301 36.25 64.2701 36.05 63.0401C36.03 62.9101 36.01 62.7901 35.99 62.6901C35.76 61.4101 34.84 58.77 33.02 57.96C32.02 57.52 30.87 57.6901 29.61 58.4801L29.56 58.5101L29.5 58.49C29.5 58.49 28.73 58.18 28.78 57.58C28.8 57.4 28.61 57.2801 28.42 57.2501C28.21 57.2201 27.95 57.2901 27.89 57.6001C27.85 57.7901 28.08 58.0601 28.29 58.3201C28.57 58.6601 28.89 59.0501 28.8 59.4501C28.74 59.7201 28.5 59.9601 28.08 60.1601C27.72 60.3301 27.52 60.5301 27.54 60.7001C27.55 60.8501 27.72 60.99 27.97 61.06C28.42 61.19 29.05 61.09 29.43 60.58C29.48 60.54 30.18 59.9801 31.04 60.0701C31.55 60.1201 32.01 60.39 32.39 60.87C33.06 61.69 33.51 63.55 33.98 65.52C34.39 67.23 34.82 69 35.39 69.93C37.63 73.6 41.91 74.9201 49.27 74.2301C53.4 73.8401 54.99 72.69 55.59 71.8C56.16 70.96 55.95 70.2401 55.95 70.2301C55.95 70.2301 55.62 69.6501 54.96 69.6701H54.94C54.75 69.7001 54.6 69.74 54.48 69.78C54.26 69.87 54.21 69.89 54.14 69.83L54.08 69.77L54.12 69.6901C54.12 69.6901 54.16 69.65 54.21 69.62C54.26 69.6 54.32 69.57 54.4 69.55C54.59 69.47 54.77 69.44 54.93 69.43C55.22 69.38 55.55 69.3601 55.86 69.3801C56.62 69.4301 57.61 69.78 58.02 71.11C58.04 71.17 58 71.2401 57.94 71.2601C57.87 71.2801 58.01 70.46 56.64 69.81C56.33 69.66 55.98 69.62 55.65 69.61C55.99 69.82 56.16 70.1201 56.17 70.1301C56.19 70.1901 56.42 71 55.79 71.93C55.15 72.87 53.51 74.0701 49.29 74.4701C48.4 74.5501 47.56 74.6101 46.76 74.6301L46.74 74.62Z" fill="#5B5C5C"/>
</svg>
