<svg width="102" height="102" viewBox="0 0 102 102" fill="none" xmlns="http://www.w3.org/2000/svg">
<path d="M92.67 0.190002H9.08002C4.29171 0.190002 0.410034 4.07168 0.410034 8.85999V92.45C0.410034 97.2383 4.29171 101.12 9.08002 101.12H92.67C97.4584 101.12 101.34 97.2383 101.34 92.45V8.85999C101.34 4.07168 97.4584 0.190002 92.67 0.190002Z" fill="#94A4A5"/>
<path d="M34.29 78.04C33.78 78.04 33.29 77.75 33.05 77.26C33.05 77.26 33 77.16 32.92 76.99L32.69 76.48C32.66 76.42 32.64 76.36 32.62 76.3L32.52 75.97C32.48 75.83 32.43 75.69 32.39 75.53C32.39 75.5 32.37 75.47 32.37 75.44C32.33 75.27 32.31 75.08 32.27 74.89L32.25 74.76C32.19 74.49 32.18 74.24 32.17 74.02L32.14 73.43C32.14 73.43 32.14 73.34 32.14 73.29C32.14 73.16 32.15 73.03 32.16 72.9C32.16 72.74 32.17 72.6 32.18 72.46C32.18 72.43 32.18 72.4 32.18 72.36C32.18 72.26 32.2 72.15 32.22 72.05L32.24 71.88C32.26 71.72 32.28 71.56 32.3 71.4C32.3 71.4 32.3 71.37 32.3 71.36C32.32 71.22 32.35 71.09 32.37 70.95C32.37 70.95 32.47 70.44 32.49 70.34C32.49 70.3 32.51 70.26 32.52 70.22C32.56 70.07 32.6 69.91 32.65 69.75C32.75 69.35 32.87 68.96 32.99 68.62C33.13 68.18 33.31 67.71 33.55 67.17C33.4 67.07 33.25 66.97 33.11 66.86L32.83 67.33C32.57 67.76 32.12 68 31.65 68C31.42 68 31.18 67.94 30.97 67.82C30.32 67.45 30.09 66.62 30.45 65.96C30.45 65.96 30.59 65.71 30.84 65.27C30.88 65.2 30.92 65.13 30.97 65.05C26.74 60.85 25.02 54.67 25.99 47.08C26.18 45.59 26.4 44.21 26.66 42.9C26.51 42.91 26.36 42.92 26.2 42.93C26.14 42.93 26.09 42.93 26.03 42.93C23.93 42.93 22.79 41.45 22.79 40.06C22.79 38.67 23.97 37.12 26.15 37.12C26.98 37.12 27.83 36.7 28.49 36.31C32.03 27.04 38.68 23.24 51.29 23.24C62.63 23.24 70.16 27.71 73.67 36.52C74.25 36.83 74.94 37.11 75.62 37.11C76.95 37.11 78.03 37.68 78.6 38.66C79.09 39.52 79.1 40.57 78.6 41.42C78.05 42.37 77 42.92 75.73 42.92C75.68 42.92 75.62 42.92 75.56 42.92C75.51 42.92 75.46 42.92 75.41 42.92C75.64 44.24 75.81 45.64 75.93 47.15C76.6 55.59 75.14 61.4 71.34 65.29L71.72 65.95C72.09 66.61 71.87 67.44 71.22 67.82C71 67.95 70.77 68.01 70.53 68.01C70.06 68.01 69.6 67.77 69.35 67.33L69.21 67.1C69.05 67.21 68.89 67.32 68.73 67.42C68.91 67.85 69.06 68.25 69.19 68.64C69.3 68.96 69.43 69.35 69.52 69.75C69.56 69.92 69.61 70.08 69.65 70.24C69.65 70.26 69.66 70.28 69.67 70.31L69.71 70.51C69.73 70.61 69.75 70.7 69.77 70.79C69.77 70.81 69.77 70.83 69.78 70.85C69.79 70.91 69.8 70.97 69.81 71.03C69.83 71.14 69.85 71.25 69.87 71.35L69.95 72.04C69.96 72.15 69.98 72.25 69.98 72.36C69.98 72.38 69.98 72.4 69.98 72.42C69.98 72.42 70 72.88 70 72.9V73.32C70 73.32 70.01 73.36 70.01 73.39C70.01 73.54 70 73.68 69.99 73.82V74.01C69.97 74.23 69.95 74.49 69.9 74.76C69.89 74.84 69.87 74.92 69.86 74.99C69.84 75.14 69.81 75.29 69.78 75.43C69.78 75.47 69.76 75.51 69.75 75.54L69.53 76.29C69.51 76.36 69.49 76.42 69.46 76.48L69.37 76.67C69.33 76.76 69.29 76.84 69.26 76.91L69.23 76.98C69.15 77.16 69.1 77.26 69.1 77.26C68.86 77.75 68.37 78.04 67.86 78.04C67.67 78.04 67.47 78 67.29 77.91C66.61 77.6 66.3 76.8 66.6 76.11L66.71 75.86C66.75 75.76 66.79 75.67 66.84 75.56C66.84 75.55 66.89 75.45 66.89 75.45C66.89 75.44 66.92 75.32 66.93 75.31C66.97 75.18 67.07 74.83 67.07 74.83C67.08 74.75 67.09 74.67 67.11 74.59C67.12 74.49 67.14 74.38 67.16 74.27C67.16 74.25 67.16 74.23 67.17 74.21C67.18 74.15 67.19 74.01 67.19 73.89V73.71C67.2 73.59 67.21 73.47 67.21 73.35L67.17 72.59C67.16 72.47 67.14 72.35 67.12 72.23C67.12 72.22 67.12 72.2 67.12 72.19C67.1 72.05 67.09 71.92 67.07 71.78C67.06 71.7 67.04 71.62 67.02 71.55L66.89 70.92C66.89 70.92 66.76 70.45 66.76 70.43C66.69 70.14 66.59 69.83 66.49 69.54C66.41 69.3 66.32 69.05 66.21 68.78C65.27 69.2 64.25 69.57 63.17 69.89C63.17 70.01 63.17 70.13 63.17 70.25C63.17 70.62 63.12 71.02 63.06 71.43C63 71.83 62.94 72.1 62.88 72.34C62.82 72.59 62.75 72.79 62.71 72.91L62.65 73.09C62.46 73.67 61.92 74.03 61.35 74.03C61.22 74.03 61.08 74.01 60.95 73.97C60.24 73.75 59.83 73.01 60.02 72.29C60.02 72.29 60.04 72.22 60.08 72.08V72.04C60.12 71.95 60.15 71.84 60.19 71.69C60.24 71.48 60.32 71.09 60.36 70.56C58.84 70.85 57.19 71.06 55.43 71.18C53.97 71.51 52.58 71.69 51.29 71.71H50.97C49.76 71.71 48.41 71.54 46.97 71.19C45.17 71.09 43.44 70.87 41.8 70.52C41.84 71.06 41.92 71.46 41.97 71.67C41.97 71.68 41.97 71.69 41.97 71.71C42 71.85 42.03 71.96 42.06 72.04C42.06 72.04 42.11 72.21 42.11 72.22C42.35 72.94 41.96 73.72 41.24 73.96C41.1 74.01 40.95 74.03 40.8 74.03C40.23 74.03 39.69 73.67 39.5 73.09C39.5 73.09 39.43 72.9 39.43 72.88L39.41 72.82C39.37 72.69 39.32 72.53 39.27 72.34C39.2 72.08 39.15 71.79 39.09 71.45C39.03 71.02 38.99 70.63 38.98 70.25C38.98 70.1 38.98 69.95 38.98 69.79C37.94 69.45 36.95 69.06 36.02 68.6C35.88 68.94 35.76 69.25 35.67 69.54C35.53 69.93 35.45 70.21 35.39 70.45C35.34 70.63 35.3 70.78 35.26 70.93C35.23 71.08 35.2 71.23 35.17 71.37L35.13 71.57C35.11 71.65 35.1 71.72 35.09 71.8L35.01 72.4C35.01 72.47 34.99 72.54 34.99 72.61L34.95 73.38L34.97 73.92C34.97 74.04 34.97 74.18 34.99 74.24C34.99 74.27 35 74.29 35 74.32L35.03 74.53C35.05 74.65 35.06 74.76 35.08 74.86L35.13 75.02C35.16 75.12 35.19 75.22 35.21 75.31C35.21 75.33 35.24 75.44 35.25 75.47L35.34 75.67L35.44 75.9C35.49 76 35.52 76.07 35.52 76.09C35.85 76.77 35.56 77.6 34.87 77.92C34.68 78.01 34.48 78.06 34.28 78.06L34.29 78.04Z" fill="#2F150C"/>
<path d="M75.62 38.51C74.46 38.51 73.39 37.98 72.56 37.5C69.73 29.99 63.64 24.64 51.28 24.64C38.92 24.64 32.99 27.95 29.6 37.26C28.73 37.79 27.5 38.51 26.14 38.51C23.5 38.51 23.5 41.67 26.14 41.58C27.08 41.55 27.83 41.4 28.44 41.17C28 43.02 27.64 45.05 27.35 47.28C26.28 55.56 28.56 61.25 32.75 64.85C32.67 64.98 32.58 65.1 32.51 65.21C32.41 65.35 32.32 65.48 32.24 65.61C32.17 65.74 32.1 65.86 32.04 65.96C31.8 66.39 31.66 66.64 31.66 66.64C31.66 66.64 31.8 66.4 32.06 65.97C32.12 65.86 32.19 65.75 32.27 65.62C32.35 65.5 32.45 65.37 32.54 65.22C32.62 65.11 32.7 64.99 32.79 64.86C33.58 65.53 34.43 66.13 35.34 66.66C35.28 66.78 35.22 66.89 35.16 67.01C34.84 67.7 34.54 68.38 34.32 69.07C34.2 69.41 34.09 69.75 34.01 70.09C33.97 70.26 33.92 70.43 33.88 70.59C33.85 70.76 33.81 70.92 33.78 71.08C33.75 71.24 33.71 71.4 33.69 71.56C33.67 71.72 33.65 71.88 33.63 72.03C33.61 72.18 33.59 72.34 33.58 72.48C33.58 72.63 33.57 72.78 33.56 72.92C33.56 73.06 33.55 73.21 33.54 73.34C33.54 73.48 33.55 73.62 33.56 73.75C33.58 74.01 33.58 74.26 33.63 74.49C33.67 74.72 33.7 74.94 33.74 75.14C33.79 75.34 33.85 75.51 33.9 75.68C33.92 75.76 33.94 75.83 33.97 75.91C34 75.98 34.03 76.04 34.06 76.1C34.11 76.22 34.16 76.32 34.2 76.4C34.28 76.56 34.32 76.65 34.32 76.65C34.32 76.65 34.28 76.56 34.21 76.4C34.18 76.32 34.13 76.21 34.08 76.09C34.05 76.03 34.02 75.97 33.99 75.9C33.97 75.83 33.95 75.75 33.93 75.67C33.88 75.51 33.83 75.33 33.78 75.14C33.74 74.94 33.71 74.72 33.68 74.49C33.63 74.26 33.64 74.01 33.62 73.75C33.62 73.62 33.61 73.48 33.6 73.34C33.6 73.2 33.61 73.06 33.62 72.92C33.62 72.78 33.63 72.63 33.64 72.48C33.65 72.33 33.67 72.18 33.69 72.03C33.71 71.88 33.73 71.72 33.75 71.56C33.77 71.4 33.81 71.24 33.84 71.08C33.87 70.92 33.91 70.75 33.94 70.59C33.98 70.43 34.03 70.26 34.07 70.1C34.15 69.76 34.26 69.43 34.38 69.09C34.6 68.41 34.9 67.73 35.23 67.04C35.29 66.92 35.35 66.81 35.41 66.69C36.93 67.57 38.62 68.25 40.42 68.76C40.38 69.27 40.36 69.75 40.38 70.18C40.39 70.56 40.43 70.9 40.48 71.2C40.53 71.51 40.58 71.77 40.64 71.98C40.69 72.19 40.75 72.36 40.78 72.47C40.82 72.58 40.84 72.64 40.84 72.64C40.84 72.64 40.82 72.58 40.78 72.46C40.75 72.35 40.69 72.18 40.65 71.97C40.55 71.54 40.45 70.92 40.43 70.17C40.41 69.74 40.43 69.27 40.48 68.77C42.58 69.35 44.84 69.7 47.19 69.82C48.56 70.16 49.85 70.33 50.99 70.33C51.09 70.33 51.19 70.33 51.29 70.33C52.54 70.31 53.88 70.12 55.25 69.81C57.66 69.64 59.81 69.32 61.74 68.85C61.78 69.32 61.8 69.77 61.78 70.18C61.76 70.93 61.66 71.55 61.56 71.98C61.51 72.2 61.46 72.36 61.43 72.47C61.4 72.58 61.38 72.65 61.38 72.65C61.38 72.65 61.4 72.59 61.44 72.48C61.48 72.37 61.53 72.2 61.58 71.99C61.64 71.78 61.69 71.52 61.73 71.21C61.78 70.91 61.82 70.56 61.83 70.19C61.85 69.78 61.83 69.32 61.8 68.85C63.74 68.37 65.44 67.73 66.92 66.93C66.94 66.97 66.97 67.01 66.99 67.06C67.32 67.74 67.61 68.42 67.84 69.11C67.96 69.45 68.07 69.79 68.15 70.12C68.19 70.28 68.24 70.45 68.28 70.61C68.31 70.77 68.35 70.94 68.38 71.1C68.41 71.26 68.45 71.42 68.47 71.58C68.49 71.74 68.51 71.9 68.53 72.05C68.55 72.2 68.57 72.36 68.59 72.5C68.59 72.65 68.6 72.8 68.61 72.94C68.61 73.08 68.62 73.22 68.63 73.36C68.63 73.5 68.62 73.64 68.61 73.77C68.6 74.03 68.6 74.28 68.55 74.51C68.51 74.74 68.49 74.96 68.45 75.16C68.39 75.35 68.34 75.53 68.3 75.69C68.28 75.77 68.26 75.85 68.24 75.92C68.21 75.99 68.18 76.05 68.15 76.11C68.1 76.23 68.05 76.33 68.02 76.42C68.06 76.34 68.11 76.24 68.16 76.12C68.19 76.06 68.22 76 68.25 75.93C68.27 75.86 68.29 75.78 68.32 75.7C68.37 75.54 68.42 75.36 68.48 75.16C68.52 74.96 68.55 74.74 68.59 74.51C68.64 74.28 68.64 74.03 68.66 73.77C68.66 73.64 68.67 73.51 68.68 73.36C68.68 73.22 68.67 73.08 68.67 72.94C68.67 72.8 68.66 72.65 68.65 72.5C68.64 72.35 68.62 72.2 68.6 72.05C68.58 71.9 68.56 71.74 68.54 71.58C68.52 71.42 68.48 71.26 68.45 71.1C68.42 70.94 68.38 70.77 68.35 70.61C68.31 70.45 68.26 70.28 68.22 70.11C68.14 69.77 68.03 69.44 67.91 69.09C67.69 68.4 67.39 67.72 67.06 67.03C67.04 66.99 67.01 66.94 66.99 66.9C67.95 66.37 68.81 65.78 69.58 65.11C69.61 65.15 69.64 65.2 69.67 65.24C69.77 65.38 69.86 65.51 69.95 65.64C70.03 65.77 70.09 65.88 70.16 65.99C70.41 66.42 70.56 66.66 70.56 66.66C70.56 66.66 70.42 66.41 70.17 65.98C70.11 65.87 70.04 65.75 69.97 65.63C69.89 65.5 69.8 65.37 69.71 65.23C69.68 65.19 69.65 65.14 69.62 65.09C73.79 61.44 75.27 55.64 74.6 47.29C74.44 45.23 74.16 43.22 73.72 41.3C74.26 41.45 74.9 41.56 75.65 41.59C78.29 41.69 78.3 38.52 75.65 38.52L75.62 38.51Z" fill="#2F150C"/>
<path d="M75.62 38.51C74.46 38.51 73.39 37.98 72.56 37.5C69.73 29.99 63.64 24.64 51.28 24.64C38.92 24.64 32.99 27.95 29.6 37.26C28.73 37.79 27.5 38.51 26.14 38.51C23.5 38.51 23.5 41.67 26.14 41.58C27.08 41.55 27.83 41.4 28.44 41.17C28 43.02 27.64 45.05 27.35 47.28C25.35 62.8 35.07 69.22 47.17 69.84C48.54 70.18 49.83 70.35 50.97 70.35C51.07 70.35 51.17 70.35 51.27 70.35C52.52 70.33 53.86 70.14 55.23 69.83C70.32 68.77 75.73 61.94 74.56 47.28C74.39 45.22 74.12 43.21 73.68 41.29C74.22 41.44 74.86 41.55 75.61 41.58C78.25 41.68 78.26 38.51 75.61 38.51" fill="#B5AFA5"/>
<path d="M50.9701 68.63C49.9301 68.63 48.7301 68.47 47.4101 68.15L47.3101 68.13H47.2101C38.8401 67.76 35.7001 66.04 32.9001 62.71C30.1801 59.48 27.3601 54.55 28.3701 46.73C28.6501 44.54 29.0101 42.53 29.4401 40.73L29.8901 38.86L28.0901 39.52C27.5501 39.72 26.8801 39.84 26.1101 39.86C24.8901 39.9 24.7501 38.86 26.1501 38.86C27.8401 38.86 29.2801 37.98 30.1401 37.46L30.4501 37.27L30.5701 36.93C33.7001 28.33 39.5101 24.99 51.2801 24.99C61.8701 24.99 68.5101 28.98 71.5901 37.18L71.7201 37.52L72.0401 37.71C72.9601 38.25 74.2001 38.86 75.6201 38.86C77.0401 38.86 76.8801 39.91 75.6601 39.86C75.0201 39.84 74.4501 39.75 73.9801 39.62L72.3001 39.13L72.6901 40.83C73.0901 42.6 73.3801 44.56 73.5501 46.67C74.1801 54.58 71.9001 59.82 68.9301 63.18C66.3001 66.16 63.3401 67.72 55.2001 68.1H55.1101L55.0201 68.13C53.6801 68.44 52.4201 68.6 51.2701 68.62H51.0001" fill="#D1CDC3"/>
<path d="M31 46.79C31 46.79 35.75 56.6 39.82 56.6C42.93 56.6 46.83 55 46.83 55C46.83 55 48.48 38.65 39.46 38.13C35.4 37.89 31 46.79 31 46.79Z" fill="#B5AFA5"/>
<path d="M71.03 46.79C71.03 46.79 66.28 56.6 62.21 56.6C59.1 56.6 55.2 55 55.2 55C55.2 55 53.55 38.65 62.57 38.13C66.63 37.89 71.03 46.79 71.03 46.79Z" fill="#B5AFA5"/>
<path d="M35.4 40.29C35.4 40.29 35.41 40.25 35.45 40.18C35.49 40.11 35.54 40.01 35.62 39.89C35.7 39.77 35.8 39.63 35.93 39.47C36.06 39.33 36.21 39.15 36.4 38.99C36.49 38.91 36.59 38.83 36.7 38.74C36.81 38.66 36.93 38.59 37.05 38.5C37.17 38.41 37.3 38.36 37.44 38.28C37.58 38.21 37.71 38.14 37.87 38.08C38.17 37.97 38.49 37.86 38.83 37.82C39.16 37.74 39.51 37.75 39.86 37.74C40.21 37.74 40.55 37.83 40.88 37.88C41.2 37.98 41.52 38.09 41.81 38.21C42.09 38.36 42.35 38.52 42.6 38.66C42.83 38.82 43.03 39.01 43.22 39.17C43.31 39.26 43.4 39.33 43.48 39.41C43.56 39.49 43.62 39.58 43.68 39.65C43.81 39.8 43.91 39.95 43.99 40.06C44.15 40.29 44.23 40.43 44.23 40.43C44.23 40.43 44.07 40.38 43.81 40.27C43.68 40.22 43.53 40.16 43.36 40.07C43.2 39.98 43 39.92 42.78 39.84C42.57 39.76 42.35 39.66 42.12 39.58C41.88 39.51 41.63 39.44 41.38 39.35C41.12 39.29 40.86 39.25 40.6 39.18C40.47 39.17 40.33 39.16 40.2 39.14C40.07 39.13 39.94 39.1 39.8 39.11C39.53 39.11 39.26 39.09 39 39.13C38.87 39.15 38.73 39.13 38.6 39.17C38.47 39.19 38.34 39.22 38.21 39.24C38.08 39.25 37.96 39.31 37.84 39.33C37.72 39.36 37.59 39.38 37.48 39.43C37.24 39.5 37.02 39.57 36.81 39.66C36.6 39.73 36.41 39.82 36.24 39.88C36.07 39.96 35.91 40.02 35.8 40.08C35.67 40.14 35.57 40.19 35.51 40.22C35.44 40.25 35.4 40.27 35.4 40.27V40.29Z" fill="#544D41"/>
<path d="M66.47 40.29C66.47 40.29 66.44 40.27 66.36 40.24C66.29 40.21 66.2 40.16 66.07 40.1C65.95 40.03 65.79 39.98 65.63 39.9C65.45 39.83 65.27 39.75 65.06 39.68C64.85 39.6 64.63 39.53 64.39 39.45C64.27 39.41 64.15 39.38 64.03 39.35C63.91 39.33 63.79 39.27 63.66 39.26C63.53 39.24 63.4 39.22 63.27 39.19C63.14 39.16 63.01 39.17 62.87 39.15C62.61 39.11 62.34 39.13 62.07 39.13C61.94 39.12 61.8 39.15 61.67 39.16C61.54 39.18 61.4 39.19 61.27 39.2C61.01 39.27 60.75 39.32 60.49 39.37C60.24 39.46 60 39.53 59.76 39.6C59.52 39.69 59.31 39.79 59.1 39.86C58.89 39.94 58.69 40.01 58.52 40.1C58.35 40.18 58.2 40.24 58.07 40.3C57.81 40.41 57.65 40.46 57.65 40.46C57.65 40.46 57.73 40.32 57.89 40.09C57.98 39.98 58.08 39.83 58.2 39.68C58.27 39.6 58.33 39.51 58.41 39.44C58.49 39.36 58.57 39.29 58.66 39.2C58.85 39.04 59.05 38.86 59.28 38.69C59.52 38.54 59.79 38.39 60.07 38.24C60.36 38.12 60.68 38.01 61 37.91C61.33 37.85 61.68 37.78 62.02 37.77C62.37 37.77 62.72 37.77 63.05 37.85C63.39 37.89 63.71 38.01 64.01 38.11C64.16 38.16 64.3 38.24 64.44 38.31C64.57 38.38 64.71 38.44 64.83 38.53C64.95 38.61 65.07 38.69 65.18 38.77C65.29 38.85 65.39 38.94 65.48 39.02C65.67 39.18 65.82 39.36 65.95 39.5C66.08 39.65 66.18 39.79 66.26 39.92C66.34 40.04 66.39 40.14 66.43 40.21C66.46 40.28 66.48 40.32 66.48 40.32L66.47 40.29Z" fill="#544D41"/>
<path d="M46.8201 55.01C39.3301 58.58 34.0601 56.27 31.6801 47.02C31.6801 47.02 40.6901 40.03 45.4701 49C46.2101 50.39 46.8101 55.02 46.8101 55.02" fill="#282828"/>
<path d="M39.58 55.6C37.5 55.56 35.76 53.91 35.09 51.62C34.88 50.93 34.78 50.16 34.8 49.38C34.87 46.19 36.85 45.06 39.34 44.98C39.5 44.98 39.65 44.97 39.81 44.98C42.53 45.04 44.58 47.86 44.63 49.59C44.72 52.97 42.3 55.67 39.59 55.61" fill="#303030"/>
<path d="M39.6 54.74C38.03 54.71 36.64 53.35 36.08 51.31C35.9 50.65 35.81 49.97 35.83 49.26C35.87 46.88 37 45.74 39.37 45.67C39.49 45.67 39.61 45.67 39.73 45.67H39.8C41.94 45.72 43.57 48.21 43.6 49.49C43.64 51.04 43.12 52.51 42.18 53.54C41.46 54.33 40.57 54.76 39.67 54.76H39.61" fill="#121212"/>
<path d="M55.1801 55.01C62.6701 58.58 67.9401 56.27 70.3201 47.02C70.3201 47.02 61.3101 40.03 56.5301 49C55.7901 50.39 55.1801 55.02 55.1801 55.02" fill="#282828"/>
<path d="M62.42 55.6C64.5 55.56 66.24 53.91 66.91 51.62C67.12 50.93 67.22 50.16 67.2 49.38C67.13 46.19 65.15 45.06 62.66 44.98C62.51 44.98 62.35 44.97 62.19 44.98C59.48 45.04 57.42 47.86 57.37 49.59C57.28 52.97 59.7 55.67 62.41 55.61" fill="#303030"/>
<path d="M62.3401 54.74C61.4401 54.74 60.5501 54.31 59.8301 53.52C58.8901 52.5 58.3701 51.02 58.4101 49.47C58.4401 48.19 60.0701 45.7 62.2201 45.65H62.2801C62.4001 45.65 62.5201 45.65 62.6401 45.65C65.0101 45.72 66.1401 46.86 66.1801 49.24C66.1901 49.95 66.1101 50.64 65.9301 51.29C65.3701 53.35 63.9801 54.7 62.4001 54.73H62.3401" fill="#121212"/>
<path d="M39.91 48.09C39.87 50.14 38.5 51.77 36.85 51.74C36.1 51.72 35.44 51.37 34.93 50.8C34.75 50.19 34.65 49.52 34.67 48.83C34.73 46.04 36.46 45.04 38.65 44.98C39.44 45.66 39.94 46.81 39.91 48.09Z" fill="white"/>
<path d="M42.5 54.02C42.49 54.71 42.02 55.27 41.47 55.25C40.91 55.24 40.47 54.6699 40.49 53.9699C40.5 53.2799 40.97 52.72 41.52 52.74C42.08 52.75 42.52 53.32 42.5 54.02Z" fill="white"/>
<path d="M62.29 48.4C62.25 50.45 60.88 52.08 59.23 52.05C58.48 52.03 57.82 51.68 57.31 51.11C57.13 50.5 57.03 49.83 57.05 49.14C57.11 46.35 58.84 45.35 61.03 45.29C61.82 45.97 62.32 47.12 62.29 48.4Z" fill="white"/>
<path d="M65.08 54.02C65.07 54.71 64.6 55.27 64.05 55.25C63.49 55.24 63.05 54.6699 63.07 53.9699C63.08 53.2799 63.55 52.72 64.1 52.74C64.66 52.75 65.1 53.32 65.08 54.02Z" fill="white"/>
<path d="M46.8201 55.01C46.8201 55.01 46.2201 50.39 45.4801 48.99C43.6101 45.48 41.1001 44.42 38.7301 44.42C38.6201 44.42 38.5001 44.42 38.3901 44.42C38.5101 44.42 38.6201 44.42 38.7401 44.42C41.1101 44.42 43.6201 45.49 45.4901 48.99C46.2201 50.36 46.82 54.87 46.83 55.01" fill="#A7A29A"/>
<path d="M45.47 55.6C45.23 54.28 44.89 52.8 44.53 52.11C44.46 51.98 44.4 51.86 44.33 51.74C44.54 51.07 44.65 50.34 44.63 49.57C44.59 47.84 42.53 45.02 39.81 44.96H39.74C39.61 44.96 39.48 44.96 39.34 44.96C39.12 44.96 38.9 44.98 38.69 45C38.68 44.99 38.66 44.98 38.65 44.97C36.68 45.03 35.08 45.84 34.73 48.05C33.8 48.36 32.97 48.75 32.31 49.11C32.24 48.92 32.18 48.72 32.11 48.53C31.95 48.05 31.81 47.54 31.67 47.01C31.67 47.01 31.74 46.96 31.87 46.87C32.61 46.34 35.34 44.56 38.37 44.43C38.48 44.43 38.6 44.43 38.71 44.43C41.08 44.43 43.59 45.5 45.46 49C46.2 50.39 46.8 55.02 46.8 55.02C46.34 55.24 45.89 55.44 45.45 55.61" fill="#2D2D2C"/>
<path d="M44.33 51.74C44.08 51.3 43.8101 50.89 43.5401 50.53C43.5901 50.19 43.6101 49.83 43.6001 49.47C43.5701 48.19 41.94 45.7 39.8 45.65H39.7301C39.6101 45.65 39.4901 45.65 39.3701 45.65C39.3301 45.65 39.2901 45.65 39.2501 45.65C39.0901 45.41 38.9001 45.19 38.7001 45C38.9101 44.98 39.1301 44.96 39.3501 44.96C39.4801 44.96 39.6101 44.96 39.7501 44.96H39.8201C42.5401 45.02 44.5901 47.84 44.6401 49.57C44.6601 50.33 44.5501 51.07 44.3401 51.74" fill="#343433"/>
<path d="M43.54 50.53C42.44 49.08 41.19 48.25 39.91 47.85C39.89 47.02 39.64 46.26 39.25 45.66C39.29 45.66 39.33 45.66 39.37 45.66C39.49 45.66 39.61 45.66 39.73 45.66H39.8C41.94 45.71 43.57 48.2 43.6 49.48C43.61 49.84 43.59 50.19 43.54 50.54" fill="#1B1B1B"/>
<path d="M34.74 48.06C35.08 45.85 36.68 45.04 38.66 44.98C38.67 44.99 38.69 45 38.7 45.01C38.91 45.2 39.09 45.41 39.25 45.66C39.65 46.26 39.89 47.02 39.91 47.85C39.2 47.62 38.48 47.53 37.78 47.53C36.71 47.53 35.67 47.75 34.73 48.06" fill="#E2E1E1"/>
<path d="M55.1801 55.01C55.1801 55.01 55.1801 54.97 55.2001 54.9C55.1901 54.98 55.1801 55.01 55.1801 55.01Z" fill="#C0BBB2"/>
<path d="M55.2001 54.9C55.3001 54.17 55.8601 50.26 56.5301 48.99C56.7601 48.57 56.9901 48.18 57.2401 47.82C57.0001 48.18 56.7601 48.57 56.5401 48.99C55.8701 50.25 55.3101 54.18 55.2101 54.89" fill="#A7A29A"/>
<path d="M56.5301 55.6C56.0901 55.43 55.6401 55.23 55.1801 55.01C55.1801 55.01 55.1801 54.97 55.2001 54.9C55.3001 54.18 55.8601 50.26 56.5301 49C56.7501 48.57 56.9901 48.19 57.2301 47.83C57.1201 48.22 57.06 48.65 57.05 49.15C57.03 49.84 57.1301 50.51 57.3101 51.12C57.3901 51.21 57.4801 51.3 57.5701 51.38C57.6001 51.5 57.6401 51.62 57.6701 51.74C57.6001 51.86 57.5301 51.98 57.4601 52.11C57.1001 52.8 56.7601 54.28 56.5201 55.6" fill="#2D2D2C"/>
<path d="M57.6801 51.74C57.6401 51.62 57.6101 51.5 57.5801 51.38C57.6501 51.44 57.7201 51.5 57.7901 51.55C57.7501 51.61 57.7101 51.68 57.6801 51.74Z" fill="#343433"/>
<path d="M69.9 48.48C70.05 48.01 70.19 47.52 70.32 47.02C70.32 47.02 70.25 46.97 70.12 46.87C70.25 46.96 70.32 47.02 70.32 47.02C70.19 47.53 70.05 48.02 69.9 48.48ZM59.51 45.52C60.73 44.72 62.02 44.42 63.28 44.42C62.03 44.42 60.73 44.72 59.51 45.52Z" fill="#A7A29A"/>
<path d="M69.68 49.12C68.97 48.73 68.05 48.3 67.03 47.98C66.49 45.84 64.75 45.03 62.66 44.97C62.53 44.97 62.4 44.97 62.27 44.97H62.19C61.64 44.98 61.11 45.11 60.62 45.32C60.23 45.35 59.85 45.42 59.51 45.53C60.73 44.73 62.02 44.43 63.28 44.43C63.39 44.43 63.51 44.43 63.62 44.43C66.64 44.56 69.36 46.33 70.11 46.87C70.24 46.96 70.31 47.02 70.31 47.02C70.18 47.53 70.04 48.02 69.89 48.48C69.82 48.7 69.75 48.91 69.67 49.12" fill="#2D2D2C"/>
<path d="M67.03 47.99C66.68 47.88 66.31 47.79 65.94 47.71C65.5 46.37 64.42 45.71 62.63 45.66C62.51 45.66 62.39 45.66 62.27 45.66H62.21C61.95 45.66 61.7 45.7 61.47 45.77C61.33 45.59 61.18 45.43 61.02 45.3C60.88 45.3 60.75 45.31 60.61 45.32C61.1 45.11 61.63 44.98 62.18 44.97H62.26C62.39 44.97 62.52 44.97 62.65 44.97C64.74 45.03 66.48 45.84 67.02 47.98" fill="#343433"/>
<path d="M62.27 47.8C62.18 47.02 61.9 46.31 61.48 45.77C61.72 45.7 61.96 45.66 62.22 45.66H62.28C62.4 45.66 62.52 45.66 62.64 45.66C64.42 45.71 65.5 46.38 65.95 47.71C65.39 47.6 64.82 47.53 64.23 47.53C63.58 47.53 62.92 47.61 62.27 47.79" fill="#1B1B1B"/>
<path d="M57.79 51.55C57.72 51.49 57.65 51.44 57.58 51.38C57.49 51.3 57.4 51.21 57.32 51.12C57.14 50.51 57.04 49.84 57.06 49.15C57.07 48.66 57.13 48.22 57.24 47.83C57.94 46.8 58.71 46.06 59.52 45.53C59.87 45.42 60.24 45.35 60.63 45.32C60.76 45.31 60.9 45.3 61.04 45.3C61.2 45.44 61.35 45.6 61.49 45.77C61.91 46.32 62.19 47.02 62.28 47.8C60.67 48.26 59.1 49.37 57.8 51.55" fill="#E2E1E1"/>
<path d="M46.82 55.01C46.73 54.55 46.62 54.1 46.52 53.64C46.42 53.19 46.32 52.73 46.21 52.28C46.1 51.83 45.99 51.38 45.85 50.93C45.73 50.48 45.58 50.08 45.42 49.65C45.32 49.45 45.23 49.19 45.13 49.05L44.77 48.47C44.51 48.1 44.25 47.73 43.94 47.4C43.8 47.23 43.65 47.07 43.48 46.92C43.33 46.76 43.17 46.61 42.99 46.48C42.82 46.34 42.65 46.2 42.46 46.08C42.28 45.95 42.1 45.84 41.9 45.74C41.53 45.52 41.12 45.38 40.71 45.24C40.3 45.11 39.87 45.04 39.44 45C39.01 44.97 38.57 44.96 38.14 45C37.7 45.03 37.27 45.12 36.84 45.21C35.98 45.42 35.14 45.72 34.33 46.11C33.93 46.31 33.53 46.52 33.14 46.75C32.76 46.98 32.37 47.23 32.03 47.48L32.24 46.86L32.59 48.07C32.69 48.48 32.85 48.87 32.99 49.26C33.13 49.66 33.27 50.05 33.45 50.43C33.63 50.8 33.77 51.2 33.98 51.55C34.19 51.9 34.35 52.29 34.61 52.62C34.86 52.94 35.06 53.31 35.35 53.6C35.62 53.9 35.88 54.22 36.2 54.47L36.66 54.87L37.17 55.2C37.5 55.44 37.88 55.58 38.25 55.75C38.62 55.92 39.02 55.99 39.41 56.11C39.82 56.16 40.22 56.24 40.63 56.26C41.05 56.25 41.46 56.3 41.88 56.24C42.3 56.19 42.72 56.19 43.13 56.09C43.54 56 43.97 55.95 44.37 55.81C44.78 55.69 45.19 55.59 45.6 55.44L46.82 55V55.01ZM46.82 55.01L45.67 55.6C45.28 55.79 44.87 55.93 44.47 56.1C44.07 56.28 43.64 56.37 43.23 56.51C42.82 56.66 42.38 56.7 41.95 56.8C41.52 56.9 41.07 56.88 40.63 56.92C40.18 56.93 39.74 56.88 39.29 56.85C38.85 56.74 38.39 56.7 37.97 56.53C37.55 56.37 37.11 56.22 36.73 55.97L36.14 55.63L35.6 55.21C35.22 54.95 34.92 54.6 34.61 54.28C34.28 53.96 34.04 53.58 33.76 53.22C33.47 52.87 33.29 52.46 33.04 52.09C32.79 51.71 32.63 51.3 32.43 50.9C32.23 50.5 32.07 50.09 31.92 49.67C31.77 49.26 31.6 48.85 31.49 48.42L31.12 47.16L31.01 46.79L31.33 46.55C31.75 46.24 32.14 45.98 32.56 45.73C32.98 45.49 33.41 45.26 33.85 45.06C34.73 44.64 35.65 44.32 36.61 44.1C37.09 44 37.58 43.92 38.08 43.9C38.57 43.86 39.08 43.89 39.58 43.94C40.08 44.01 40.57 44.11 41.05 44.27C41.29 44.35 41.52 44.43 41.75 44.55C41.98 44.65 42.2 44.77 42.41 44.91C42.63 45.03 42.83 45.18 43.03 45.33C43.23 45.47 43.42 45.64 43.6 45.8C43.79 45.96 43.95 46.14 44.12 46.32C44.29 46.5 44.45 46.68 44.59 46.88C44.9 47.26 45.14 47.67 45.39 48.09L45.73 48.73C45.86 48.99 45.91 49.18 46 49.41C46.13 49.87 46.26 50.37 46.33 50.82C46.42 51.28 46.49 51.75 46.55 52.21C46.68 53.14 46.78 54.07 46.84 55L46.82 55.01Z" fill="#544D41"/>
<path d="M55.1801 55.01C55.2401 54.08 55.3301 53.1399 55.4701 52.2199C55.5301 51.7599 55.6001 51.29 55.6901 50.83C55.7701 50.37 55.8901 49.87 56.0201 49.42C56.1201 49.19 56.1601 49 56.2901 48.74L56.6301 48.0999C56.8801 47.6899 57.1201 47.28 57.4301 46.89C57.5701 46.69 57.7301 46.51 57.9001 46.33C58.0601 46.15 58.2301 45.97 58.4201 45.81C58.6001 45.64 58.7801 45.48 58.9901 45.34C59.1901 45.19 59.39 45.04 59.61 44.92C59.82 44.78 60.0401 44.67 60.2701 44.56C60.4901 44.44 60.7301 44.36 60.9701 44.28C61.4501 44.11 61.9401 44.01 62.4401 43.95C62.9401 43.9 63.4401 43.8699 63.9401 43.9099C64.4401 43.9399 64.9301 44.01 65.4101 44.11C66.3701 44.33 67.2901 44.65 68.1701 45.07C68.6101 45.28 69.0401 45.5 69.4601 45.74C69.8901 45.99 70.2801 46.25 70.6901 46.56L71.0101 46.8L70.9001 47.17L70.5301 48.43C70.4201 48.85 70.2501 49.27 70.1001 49.68C69.9501 50.1 69.7901 50.5099 69.5901 50.9099C69.3901 51.3099 69.2301 51.7199 68.9801 52.0999C68.7401 52.4699 68.5501 52.88 68.2601 53.23C67.9701 53.58 67.7501 53.9699 67.4101 54.2899C67.0901 54.6099 66.7901 54.9599 66.4201 55.2199L65.8801 55.64L65.2901 55.98C64.9101 56.23 64.47 56.3699 64.05 56.5399C63.63 56.7099 63.1701 56.76 62.7301 56.86C62.2801 56.89 61.8301 56.94 61.3901 56.93C60.9501 56.89 60.5001 56.91 60.0701 56.81C59.6401 56.71 59.2001 56.67 58.7801 56.52C58.3601 56.38 57.9401 56.29 57.5401 56.11C57.1401 55.94 56.7301 55.8 56.3401 55.61L55.1901 55.02L55.1801 55.01ZM55.1801 55.01L56.4001 55.45C56.8101 55.6 57.2201 55.7 57.6301 55.82C58.0301 55.96 58.4601 55.9999 58.8701 56.0999C59.2801 56.2099 59.7101 56.2 60.1201 56.25C60.5401 56.3 60.9601 56.25 61.3701 56.27C61.7801 56.25 62.1901 56.17 62.5901 56.12C62.9801 55.99 63.3801 55.92 63.7501 55.76C64.1201 55.59 64.5 55.45 64.83 55.21L65.3401 54.88L65.8 54.48C66.12 54.24 66.3701 53.91 66.6501 53.61C66.9401 53.33 67.1401 52.96 67.3901 52.63C67.6401 52.31 67.8001 51.92 68.0201 51.56C68.2401 51.21 68.37 50.81 68.55 50.44C68.73 50.07 68.8801 49.67 69.0101 49.27C69.1501 48.88 69.3001 48.49 69.4101 48.08L69.7601 46.87L69.9701 47.49C69.6401 47.24 69.24 46.99 68.86 46.76C68.47 46.53 68.0801 46.32 67.6701 46.12C66.8601 45.73 66.0201 45.4199 65.1601 45.2199C64.7301 45.1299 64.3 45.04 63.86 45.01C63.43 44.96 62.9901 44.97 62.5601 45.01C62.1301 45.05 61.7001 45.12 61.2901 45.25C60.8801 45.38 60.4701 45.53 60.1001 45.75C59.9001 45.85 59.7201 45.96 59.5401 46.09C59.3501 46.2 59.1801 46.34 59.0101 46.49C58.8301 46.62 58.6801 46.78 58.5201 46.93C58.3601 47.08 58.2001 47.2399 58.0601 47.4099C57.7501 47.7399 57.5001 48.11 57.2301 48.48L56.8701 49.06C56.7701 49.2 56.68 49.4699 56.58 49.6599C56.42 50.0899 56.2701 50.48 56.1501 50.94C56.0201 51.38 55.9001 51.8299 55.7901 52.2899C55.6801 52.7399 55.5801 53.2 55.4801 53.65C55.3801 54.11 55.2701 54.56 55.1801 55.02V55.01Z" fill="#544D41"/>
<path d="M51.43 55.03C50.2 55.03 50.35 54.52 49.01 54.52C46.52 54.52 43.26 60.8 43.26 61.92C43.26 63.04 45.19 64.19 47.21 64.19C47.81 64.19 48.65 63.39 49.71 62.41C50.26 61.9 50.89 61.77 51.09 61.68L51.43 55.04V55.03Z" fill="#B5AFA5"/>
<path d="M51.23 55.03C52.46 55.03 51.97 54.52 53.31 54.52C55.8 54.52 59.06 60.8 59.06 61.92C59.06 63.04 57.12 64.19 55.11 64.19C54.51 64.19 53.67 63.39 52.61 62.41C52.06 61.9 51.08 61.61 50.88 61.53V55.04H51.22L51.23 55.03Z" fill="#B5AFA5"/>
<path d="M46.77 59.31H46.5C46.41 59.31 46.3 59.31 46.17 59.31C46.04 59.32 45.89 59.34 45.72 59.35C45.39 59.39 44.98 59.46 44.53 59.59C44.08 59.71 43.58 59.89 43.05 60.1C42.52 60.33 41.95 60.58 41.38 60.91C40.81 61.23 40.21 61.59 39.62 62C39.03 62.41 38.44 62.86 37.88 63.37C37.74 63.5 37.6 63.62 37.47 63.77C37.34 63.91 37.2 64.04 37.08 64.19C36.84 64.49 36.59 64.78 36.38 65.1C35.93 65.72 35.56 66.39 35.21 67.06C34.88 67.74 34.58 68.42 34.36 69.11C34.24 69.45 34.13 69.79 34.05 70.12C34.01 70.29 33.96 70.45 33.92 70.62C33.89 70.78 33.85 70.95 33.82 71.11C33.79 71.27 33.75 71.43 33.73 71.59C33.71 71.75 33.69 71.91 33.67 72.06C33.65 72.21 33.63 72.37 33.62 72.51C33.62 72.66 33.61 72.81 33.6 72.95C33.6 73.09 33.59 73.23 33.58 73.37C33.58 73.51 33.59 73.65 33.6 73.78C33.61 74.04 33.61 74.29 33.66 74.52C33.69 74.75 33.72 74.97 33.76 75.17C33.82 75.36 33.86 75.54 33.91 75.7C33.93 75.78 33.95 75.86 33.97 75.93C34 76 34.03 76.06 34.06 76.12C34.11 76.24 34.16 76.34 34.19 76.43C34.26 76.59 34.3 76.68 34.3 76.68C34.3 76.68 34.26 76.59 34.18 76.43C34.14 76.35 34.1 76.25 34.04 76.13C34.02 76.07 33.98 76.01 33.95 75.94C33.93 75.87 33.91 75.79 33.88 75.71C33.83 75.55 33.78 75.37 33.72 75.17C33.68 74.97 33.65 74.75 33.61 74.52C33.56 74.29 33.56 74.04 33.54 73.78C33.54 73.65 33.53 73.52 33.52 73.37C33.52 73.23 33.53 73.09 33.54 72.95C33.54 72.81 33.55 72.66 33.56 72.51C33.57 72.36 33.6 72.21 33.62 72.06C33.64 71.91 33.66 71.75 33.68 71.59C33.7 71.43 33.74 71.27 33.77 71.11C33.8 70.95 33.84 70.78 33.87 70.62C33.91 70.46 33.96 70.29 34 70.12C34.08 69.78 34.19 69.45 34.31 69.1C34.53 68.41 34.83 67.73 35.15 67.04C35.5 66.37 35.87 65.69 36.32 65.06C36.53 64.74 36.78 64.44 37.03 64.15C37.15 64 37.29 63.87 37.42 63.73C37.55 63.59 37.69 63.46 37.83 63.33C38.4 62.82 38.99 62.37 39.59 61.96C40.18 61.55 40.78 61.19 41.36 60.87C41.94 60.55 42.51 60.29 43.04 60.07C43.58 59.86 44.08 59.69 44.54 59.57C44.99 59.45 45.4 59.39 45.73 59.35C45.9 59.34 46.05 59.33 46.18 59.32C46.31 59.32 46.42 59.32 46.51 59.32C46.69 59.32 46.78 59.32 46.78 59.32L46.77 59.31Z" fill="#362010"/>
<path d="M46.6 58.28C46.6 58.28 46.32 58.28 45.82 58.3C45.7 58.3 45.56 58.3 45.41 58.31C45.26 58.32 45.1 58.33 44.93 58.35C44.59 58.37 44.2 58.41 43.79 58.47C43.58 58.5 43.36 58.53 43.14 58.56C42.91 58.6 42.68 58.65 42.45 58.7C41.97 58.78 41.48 58.94 40.97 59.06C40.47 59.24 39.95 59.39 39.44 59.62C38.92 59.82 38.42 60.08 37.92 60.33C37.44 60.61 36.94 60.88 36.49 61.21C36.02 61.51 35.61 61.87 35.2 62.2C34.82 62.56 34.42 62.89 34.11 63.26C33.95 63.44 33.79 63.61 33.63 63.78C33.49 63.96 33.35 64.13 33.22 64.3C32.94 64.62 32.74 64.95 32.54 65.23C32.44 65.37 32.35 65.5 32.27 65.63C32.19 65.76 32.12 65.87 32.06 65.98C31.81 66.41 31.66 66.65 31.66 66.65C31.66 66.65 31.8 66.4 32.04 65.97C32.1 65.86 32.17 65.74 32.24 65.62C32.32 65.49 32.41 65.36 32.51 65.22C32.7 64.93 32.91 64.6 33.18 64.28C33.31 64.11 33.45 63.94 33.59 63.76C33.74 63.59 33.9 63.42 34.06 63.23C34.38 62.86 34.77 62.53 35.15 62.16C35.57 61.83 35.97 61.46 36.44 61.16C36.89 60.83 37.39 60.55 37.87 60.27C38.38 60.02 38.88 59.75 39.4 59.56C39.91 59.34 40.44 59.19 40.94 59.01C41.46 58.89 41.94 58.73 42.42 58.65C42.66 58.61 42.89 58.56 43.11 58.52C43.34 58.49 43.56 58.46 43.77 58.43C44.19 58.37 44.58 58.34 44.92 58.33C45.09 58.32 45.25 58.31 45.4 58.3C45.55 58.3 45.69 58.3 45.81 58.3C46.31 58.3 46.59 58.3 46.59 58.3L46.6 58.28Z" fill="#362010"/>
<path d="M47.29 59.88C47.29 59.88 47.23 59.88 47.11 59.9C46.99 59.92 46.82 59.93 46.61 59.99C46.39 60.03 46.14 60.11 45.85 60.2C45.71 60.26 45.56 60.32 45.4 60.39C45.25 60.47 45.08 60.54 44.92 60.64C44.6 60.83 44.26 61.06 43.93 61.34C43.6 61.62 43.28 61.94 42.98 62.31C42.67 62.67 42.4 63.07 42.14 63.49C41.88 63.91 41.67 64.36 41.46 64.82C40.65 66.66 40.34 68.69 40.4 70.19C40.42 70.94 40.52 71.56 40.62 71.99C40.66 72.21 40.72 72.37 40.75 72.48C40.78 72.59 40.81 72.66 40.81 72.66C40.81 72.66 40.79 72.6 40.75 72.49C40.72 72.38 40.66 72.21 40.61 72C40.55 71.79 40.5 71.53 40.45 71.22C40.41 70.92 40.37 70.57 40.35 70.2C40.28 68.69 40.58 66.65 41.38 64.8C41.59 64.34 41.81 63.89 42.08 63.46C42.34 63.04 42.62 62.64 42.93 62.28C43.23 61.92 43.56 61.59 43.89 61.31C44.22 61.02 44.56 60.8 44.89 60.61C45.05 60.52 45.22 60.44 45.37 60.36C45.53 60.3 45.68 60.24 45.82 60.18C46.12 60.09 46.37 60.02 46.59 59.98C46.8 59.93 46.98 59.93 47.1 59.91C47.22 59.9 47.28 59.89 47.28 59.89L47.29 59.88Z" fill="#362010"/>
<path d="M55.4 59.31C55.4 59.31 55.5 59.31 55.67 59.31C55.76 59.31 55.87 59.31 56 59.31C56.13 59.32 56.28 59.33 56.45 59.34C56.78 59.38 57.19 59.44 57.64 59.56C58.1 59.67 58.6 59.85 59.14 60.06C59.67 60.29 60.24 60.54 60.82 60.86C61.4 61.18 62 61.54 62.59 61.95C63.18 62.36 63.78 62.81 64.34 63.32C64.48 63.44 64.63 63.57 64.76 63.72C64.89 63.86 65.03 63.99 65.15 64.14C65.39 64.44 65.64 64.73 65.86 65.05C66.31 65.68 66.68 66.36 67.03 67.03C67.36 67.72 67.65 68.4 67.88 69.09C68 69.43 68.11 69.77 68.19 70.11C68.23 70.28 68.28 70.45 68.32 70.61C68.35 70.78 68.39 70.94 68.42 71.1C68.45 71.26 68.49 71.42 68.51 71.58C68.53 71.74 68.55 71.9 68.57 72.05C68.59 72.2 68.61 72.36 68.62 72.5C68.62 72.65 68.63 72.8 68.64 72.94C68.64 73.08 68.65 73.23 68.65 73.36C68.65 73.5 68.64 73.64 68.63 73.77C68.61 74.03 68.61 74.28 68.56 74.51C68.52 74.74 68.49 74.96 68.45 75.16C68.39 75.36 68.34 75.53 68.29 75.7C68.27 75.78 68.25 75.85 68.22 75.93C68.19 76 68.16 76.06 68.13 76.12C68.08 76.24 68.03 76.34 67.99 76.42C68.03 76.34 68.07 76.23 68.12 76.11C68.15 76.05 68.18 75.99 68.21 75.92C68.23 75.85 68.25 75.77 68.27 75.69C68.31 75.53 68.37 75.35 68.42 75.16C68.46 74.96 68.48 74.74 68.52 74.51C68.57 74.28 68.56 74.03 68.58 73.77C68.58 73.64 68.59 73.5 68.6 73.36C68.6 73.22 68.59 73.08 68.58 72.94C68.58 72.8 68.57 72.65 68.56 72.5C68.55 72.35 68.53 72.2 68.51 72.05C68.49 71.9 68.47 71.74 68.45 71.58C68.42 71.42 68.39 71.26 68.36 71.1C68.33 70.94 68.29 70.77 68.26 70.61C68.22 70.45 68.17 70.28 68.13 70.11C68.05 69.77 67.94 69.44 67.82 69.1C67.59 68.42 67.3 67.74 66.97 67.05C66.62 66.38 66.25 65.71 65.8 65.09C65.59 64.77 65.34 64.47 65.1 64.18C64.98 64.04 64.84 63.9 64.71 63.76C64.58 63.62 64.45 63.49 64.3 63.36C63.74 62.85 63.15 62.4 62.56 61.99C61.97 61.58 61.37 61.22 60.8 60.9C60.23 60.57 59.66 60.32 59.13 60.09C58.59 59.88 58.1 59.7 57.64 59.58C57.19 59.46 56.78 59.38 56.45 59.34C56.28 59.33 56.13 59.31 56 59.3C55.87 59.3 55.76 59.3 55.67 59.3H55.4V59.31Z" fill="#362010"/>
<path d="M55.5701 58.28C55.5701 58.28 55.8501 58.28 56.3501 58.28C56.4701 58.28 56.6101 58.28 56.7601 58.28C56.9101 58.28 57.0701 58.3 57.2401 58.31C57.5801 58.33 57.9701 58.35 58.3901 58.41C58.6001 58.44 58.82 58.47 59.05 58.5C59.27 58.54 59.5001 58.59 59.7401 58.63C60.2201 58.71 60.7101 58.86 61.2201 58.99C61.7201 59.16 62.2501 59.31 62.7601 59.54C63.2801 59.74 63.7801 60 64.2901 60.25C64.7801 60.54 65.2701 60.81 65.7201 61.14C66.1901 61.45 66.6001 61.81 67.0101 62.14C67.3901 62.51 67.7801 62.84 68.1001 63.21C68.2601 63.39 68.42 63.57 68.58 63.74C68.72 63.92 68.8601 64.09 68.9901 64.26C69.2601 64.58 69.4701 64.91 69.6601 65.2C69.7501 65.34 69.8401 65.47 69.9201 65.6C70.0001 65.73 70.0601 65.85 70.1201 65.95C70.3601 66.38 70.5101 66.63 70.5101 66.63C70.5101 66.63 70.37 66.39 70.11 65.96C70.04 65.85 69.9801 65.74 69.9001 65.61C69.8101 65.49 69.7201 65.36 69.6301 65.21C69.4301 64.93 69.2201 64.6 68.9501 64.28C68.8201 64.12 68.6801 63.94 68.5401 63.76C68.3901 63.6 68.2301 63.42 68.0601 63.24C67.7401 62.88 67.3501 62.55 66.9701 62.18C66.5501 61.85 66.1501 61.49 65.6801 61.19C65.2301 60.86 64.7401 60.59 64.2501 60.31C63.7501 60.06 63.2501 59.79 62.7301 59.6C62.2201 59.37 61.7001 59.22 61.2001 59.04C60.6901 58.91 60.2001 58.75 59.7201 58.68C59.4801 58.63 59.2501 58.59 59.0301 58.54C58.8001 58.51 58.5901 58.48 58.3801 58.45C57.9601 58.38 57.5801 58.35 57.2301 58.33C57.0601 58.31 56.9001 58.3 56.7501 58.29C56.6001 58.29 56.4601 58.29 56.3401 58.28C55.8501 58.27 55.5601 58.26 55.5601 58.26L55.5701 58.28Z" fill="#362010"/>
<path d="M54.88 59.88C54.88 59.88 54.94 59.88 55.06 59.9C55.18 59.92 55.35 59.92 55.57 59.97C55.79 60.01 56.04 60.08 56.34 60.17C56.48 60.23 56.64 60.29 56.8 60.35C56.95 60.43 57.12 60.5 57.28 60.6C57.61 60.79 57.95 61.02 58.28 61.3C58.61 61.57 58.94 61.9 59.24 62.27C59.55 62.63 59.82 63.03 60.09 63.45C60.35 63.87 60.58 64.33 60.78 64.79C61.59 66.64 61.88 68.68 61.81 70.19C61.8 70.57 61.76 70.91 61.71 71.21C61.66 71.52 61.61 71.78 61.56 71.99C61.51 72.2 61.45 72.37 61.42 72.48C61.39 72.59 61.36 72.65 61.36 72.65C61.36 72.65 61.38 72.59 61.41 72.47C61.44 72.36 61.5 72.19 61.54 71.98C61.64 71.55 61.74 70.93 61.76 70.18C61.82 68.68 61.51 66.65 60.69 64.81C60.49 64.35 60.27 63.9 60.01 63.48C59.75 63.06 59.48 62.66 59.17 62.3C58.87 61.94 58.55 61.61 58.22 61.33C57.9 61.04 57.55 60.82 57.23 60.63C57.07 60.53 56.9 60.46 56.75 60.38C56.59 60.31 56.44 60.25 56.3 60.19C56.01 60.09 55.76 60.01 55.54 59.98C55.33 59.92 55.15 59.91 55.04 59.89C54.92 59.87 54.86 59.87 54.86 59.87L54.88 59.88Z" fill="#362010"/>
<path d="M51.79 58.62C51.79 58.62 51.04 55.99 53.13 55.83C53.48 55.81 54.15 56.58 53.34 57.23C52.54 57.88 51.73 58.2 51.78 58.63L51.79 58.62Z" fill="#282828"/>
<path d="M50.3901 58.62C50.3901 58.62 51.1401 55.99 49.0501 55.83C48.7001 55.81 48.0301 56.58 48.8401 57.23C49.6401 57.88 50.4501 58.2 50.4001 58.63L50.3901 58.62Z" fill="#282828"/>
<path d="M51.15 57.9C51.17 58.21 51.19 58.52 51.2 58.83L51.24 59.76L51.29 61.63V61.72L51.2 61.76C51.02 61.84 50.84 61.92 50.67 62.02C50.49 62.11 50.32 62.22 50.15 62.31L49.65 62.63C49.49 62.75 49.33 62.87 49.18 62.99C49.04 63.12 48.89 63.25 48.76 63.39L48.39 63.85C48.23 64.04 48.02 64.16 47.81 64.23C47.6 64.3 47.38 64.33 47.17 64.34C46.32 64.36 45.51 64.12 44.78 63.73C44.42 63.53 44.07 63.3 43.8 62.99C43.52 62.69 43.3 62.32 43.25 61.91C43.36 62.3 43.59 62.64 43.89 62.9C44.19 63.16 44.53 63.37 44.88 63.54C45.24 63.7 45.61 63.83 46 63.91C46.39 63.99 46.78 64.04 47.16 64.01C47.53 63.99 47.93 63.88 48.13 63.64L48.52 63.16C48.66 63 48.82 62.87 48.97 62.73C49.13 62.6 49.3 62.48 49.47 62.36C49.64 62.25 49.82 62.14 49.99 62.03C50.17 61.94 50.35 61.83 50.54 61.74C50.73 61.65 50.91 61.56 51.1 61.49L51.01 61.62L51.06 59.75L51.1 58.82C51.11 58.51 51.13 58.2 51.15 57.89V57.9Z" fill="#544D41"/>
<path d="M51.15 57.89C51.17 58.2 51.19 58.51 51.2 58.82L51.24 59.75L51.29 61.62L51.2 61.49C51.4 61.57 51.58 61.65 51.76 61.74C51.95 61.83 52.12 61.93 52.3 62.03C52.48 62.13 52.65 62.24 52.83 62.36C52.99 62.48 53.16 62.6 53.32 62.73C53.47 62.87 53.64 63 53.78 63.16L54.16 63.65C54.36 63.89 54.76 64 55.13 64.02C55.51 64.05 55.9 64 56.29 63.92C56.67 63.84 57.05 63.71 57.41 63.55C57.77 63.38 58.11 63.17 58.4 62.91C58.7 62.65 58.93 62.32 59.04 61.92C58.99 62.33 58.77 62.7 58.49 63C58.21 63.31 57.87 63.54 57.51 63.74C56.78 64.12 55.97 64.37 55.12 64.35C54.91 64.34 54.69 64.31 54.48 64.24C54.27 64.17 54.06 64.05 53.9 63.86L53.53 63.4C53.4 63.26 53.25 63.13 53.11 62.99C52.96 62.87 52.8 62.75 52.64 62.63L52.14 62.31C51.97 62.21 51.8 62.1 51.62 62.02C51.44 61.93 51.26 61.84 51.09 61.76L51 61.72V61.63L51.06 59.76L51.1 58.83C51.11 58.52 51.13 58.21 51.15 57.9V57.89Z" fill="#544D41"/>
</svg>
