<svg width="101" height="101" viewBox="0 0 101 101" fill="none" xmlns="http://www.w3.org/2000/svg">
<path d="M92.28 0.0700073H8.69C3.90169 0.0700073 0.0200195 3.95168 0.0200195 8.73999V92.33C0.0200195 97.1183 3.90169 101 8.69 101H92.28C97.0683 101 100.95 97.1183 100.95 92.33V8.73999C100.95 3.95168 97.0683 0.0700073 92.28 0.0700073Z" fill="#94A4A5"/>
<path d="M49.7701 76.3199C46.5001 76.3199 42.26 74.98 38.1 72.65C31.6 70.56 23.8 66.63 23.25 59.7C23.18 58.88 23.41 57.75 23.79 55.96C23.95 55.22 24.11 54.45 24.23 53.75C24.23 53.73 24.23 53.7001 24.23 53.6801C24.23 52.5801 24.27 51.49 24.36 50.35C24.35 45.13 25.9 40.64 26.74 38.23C26.87 37.84 27.02 37.42 27.1 37.16C26.93 36.81 26.6801 36.45 26.4401 36.1C26.0001 35.46 25.5501 34.79 25.3901 34.02C24.7801 31.08 25.5301 29.39 26.2701 28.49C27.0901 27.48 28.3401 26.92 29.7801 26.92C30.5001 26.92 31.26 27.06 32.04 27.33C32.19 27.38 32.3801 27.44 32.5901 27.51C33.2901 27.73 34.1901 28.01 34.9601 28.4C35.0601 28.36 35.1701 28.31 35.2701 28.27C37.9201 26.63 41.24 25.65 45.41 25.26C46.83 25.02 48.27 24.86 49.68 24.77C49.71 24.77 49.7301 24.77 49.7601 24.77C49.7901 24.77 49.8101 24.77 49.8401 24.77C51.3801 24.86 52.95 25.05 54.5 25.33C58.15 25.74 61.28 26.67 63.8 28.08C64.07 28.19 64.32 28.3 64.56 28.4C65.32 28.01 66.22 27.73 66.92 27.51C67.13 27.44 67.32 27.38 67.48 27.33C68.26 27.06 69.02 26.92 69.74 26.92C71.18 26.92 72.42 27.48 73.25 28.49C73.99 29.39 74.7301 31.09 74.1301 34.02C73.9701 34.79 73.5201 35.46 73.0901 36.1C72.8501 36.45 72.61 36.81 72.43 37.16C72.51 37.43 72.66 37.85 72.79 38.24C73.63 40.67 75.2 45.19 75.17 50.45C75.25 51.54 75.29 52.62 75.29 53.67C75.41 54.4 75.58 55.2 75.74 55.97C76.12 57.75 76.3501 58.88 76.2801 59.7C75.8701 64.9 71.21 69.2199 62.8 72.1899C58.58 74.7299 53.9501 76.2399 50.0801 76.3199H49.75H49.7701Z" fill="#2F150C"/>
<path d="M73.9499 53.67C73.9499 52.58 73.9099 51.52 73.8299 50.49C73.8899 43.4 70.8399 37.54 71.0499 36.97C71.5199 35.73 72.6099 34.72 72.8199 33.74C73.7599 29.21 71.1799 27.46 67.9399 28.59C67.1799 28.86 65.5299 29.28 64.6599 29.9C64.1699 29.68 63.6999 29.48 63.2199 29.28C60.9299 27.98 57.9999 27.06 54.3199 26.65C52.7399 26.37 51.2199 26.19 49.7699 26.1C48.4399 26.18 47.04 26.34 45.59 26.58C41.34 26.97 38.26 27.97 35.9 29.45C35.56 29.59 35.2199 29.74 34.8899 29.89C34.0199 29.27 32.3799 28.85 31.6099 28.58C28.3699 27.45 25.7899 29.19 26.7299 33.73C26.9299 34.7 28.0299 35.72 28.4999 36.96C28.7099 37.53 25.6899 43.34 25.7199 50.39C25.6399 51.45 25.59 52.54 25.59 53.67C25.59 53.72 25.59 53.7699 25.59 53.8199C25.24 55.9399 24.5099 58.53 24.5999 59.58C25.0799 65.6 32.08 69.31 38.65 71.4C42.62 73.65 46.7199 74.96 49.7699 74.96C49.8699 74.96 49.9699 74.96 50.0699 74.96C53.7799 74.88 58.2099 73.41 62.2399 70.96C68.3899 68.81 74.5099 65.2 74.9599 59.59C75.0499 58.53 74.3099 55.91 73.9599 53.78V53.6801L73.9499 53.67Z" fill="#2F150C"/>
<path d="M73.9499 53.78V53.6801C73.9499 52.5901 73.9099 51.53 73.8299 50.5C73.8899 43.41 70.8399 37.55 71.0499 36.98C71.5199 35.74 72.6099 34.73 72.8199 33.75C73.7599 29.22 71.1799 27.47 67.9399 28.6C67.1799 28.87 65.5299 29.29 64.6599 29.91C64.1699 29.69 63.6999 29.49 63.2199 29.29C60.9299 27.99 57.9999 27.07 54.3199 26.66C52.7399 26.38 51.2199 26.2 49.7699 26.11C48.4399 26.19 47.04 26.35 45.59 26.59C41.34 26.98 38.26 27.98 35.9 29.46C35.56 29.6 35.2199 29.75 34.8899 29.9C34.0199 29.28 32.3799 28.86 31.6099 28.59C28.3699 27.46 25.7899 29.2 26.7299 33.74C26.9299 34.71 28.0299 35.73 28.4999 36.97C28.7099 37.54 25.6899 43.35 25.7199 50.4C25.6399 51.46 25.59 52.5501 25.59 53.6801C25.59 53.7301 25.59 53.78 25.59 53.83C25.24 55.95 24.5099 58.54 24.5999 59.59C25.0799 65.61 32.08 69.32 38.65 71.41C42.62 73.66 46.7199 74.97 49.7699 74.97C49.8699 74.97 49.9699 74.97 50.0699 74.97C53.7799 74.89 58.2099 73.42 62.2399 70.97C68.3899 68.82 74.5099 65.21 74.9599 59.6C75.0499 58.54 74.3099 55.92 73.9599 53.79" fill="#C6AB7F"/>
<path d="M49.77 74.3199C45.98 74.3199 40.33 71.99 35.7 68.53C32.99 66.5 29.0099 65.12 27.4299 62.75C25.9199 60.49 26.7599 57.25 26.4999 54.99C26.4399 54.53 26.4199 54.07 26.4199 53.59C26.4199 44.32 32.1599 33.12 34.0099 31.28C35.4099 29.88 42.6 26.4 49.78 26.4C56.54 26.4 64.0699 29.84 65.5599 31.3C67.4599 33.17 73.14 44.36 73.14 53.59C73.14 53.93 73.1299 54.26 73.0999 54.59C73.0899 54.71 73.0799 54.84 73.0699 54.96C72.8099 57.45 73.9399 60.3 72.5699 62.47C70.5699 65.62 67.0299 66.42 63.3699 68.4C58.6699 70.94 57.4899 73.8701 50.0499 74.3101H50.09H49.77" fill="#DCC290"/>
<path d="M27.9299 49.61C27.9299 49.61 33.1199 60.34 37.5699 60.34C40.9699 60.34 45.2299 58.6 45.2299 58.6C45.2299 58.6 47.0399 40.72 37.1699 40.15C32.7299 39.89 27.9199 49.62 27.9199 49.62" fill="#C6AB7F"/>
<path d="M35.1901 59.4599C32.1601 58.5099 31.51 55.19 29.72 53.42C31.25 51.72 30.6901 48.47 34.0001 47.43C39.1201 45.83 42.4101 51.9 44.2601 54.25C42.5401 56.41 39.6901 60.8699 35.1901 59.4599ZM47.9301 60.98C48.0901 58.93 46.4801 54.12 45.0201 51.67C43.7701 48.32 40.5801 43.78 35.0101 44.01C29.9901 44.22 28.07 50.12 27.85 52.91C27.57 54.74 27.2301 60.95 35.1801 61.75C41.8601 62.42 44.7101 59.8 45.7101 57.27C45.8901 57.76 46.0501 58.25 46.2001 58.75C46.9401 61.22 45.5701 63.4199 46.4601 63.3199C46.9701 63.2599 47.6001 63.36 47.8101 63.18C48.2801 62.77 47.8801 61.64 47.9301 60.99" fill="white"/>
<path d="M71.7099 49.61C71.7099 49.61 66.5199 60.34 62.0699 60.34C58.6599 60.34 54.4098 58.6 54.4098 58.6C54.4098 58.6 52.5999 40.72 62.4599 40.15C66.8999 39.89 71.7099 49.62 71.7099 49.62" fill="#C6AB7F"/>
<path d="M32.74 42.5C32.74 42.5 32.76 42.46 32.79 42.39C32.83 42.32 32.88 42.1999 32.98 42.0699C33.06 41.9399 33.18 41.79 33.32 41.62C33.47 41.47 33.63 41.2699 33.84 41.0899C33.94 40.9999 34.05 40.9099 34.17 40.8199C34.29 40.7399 34.42 40.65 34.55 40.56C34.68 40.47 34.83 40.3999 34.98 40.3199C35.13 40.2499 35.28 40.16 35.45 40.11C35.78 39.99 36.12 39.8699 36.5 39.8199C36.86 39.7299 37.25 39.74 37.63 39.74C38.01 39.74 38.38 39.83 38.75 39.89C39.1 40 39.45 40.12 39.77 40.25C40.08 40.42 40.36 40.58 40.63 40.75C40.89 40.93 41.1 41.13 41.3 41.31C41.4 41.4 41.5 41.4899 41.58 41.5699C41.66 41.6599 41.73 41.7599 41.8 41.8399C41.94 42.0099 42.05 42.16 42.14 42.29C42.32 42.54 42.41 42.6899 42.41 42.6899C42.41 42.6899 42.23 42.63 41.96 42.51C41.82 42.45 41.65 42.38 41.47 42.29C41.29 42.2 41.07 42.12 40.84 42.03C40.61 41.95 40.37 41.84 40.11 41.75C39.85 41.68 39.58 41.59 39.31 41.5C39.03 41.44 38.74 41.39 38.46 41.31C38.31 41.3 38.17 41.29 38.02 41.27C37.87 41.25 37.73 41.2199 37.58 41.2299C37.29 41.2299 36.99 41.21 36.7 41.25C36.56 41.27 36.41 41.26 36.27 41.29C36.13 41.32 35.99 41.34 35.85 41.36C35.71 41.38 35.58 41.4299 35.44 41.4599C35.31 41.4899 35.17 41.52 35.05 41.56C34.79 41.64 34.54 41.71 34.32 41.81C34.09 41.89 33.89 41.99 33.69 42.06C33.51 42.15 33.34 42.21 33.2 42.28C33.06 42.35 32.95 42.3999 32.88 42.4399C32.8 42.4799 32.76 42.49 32.76 42.49L32.74 42.5Z" fill="#49331A"/>
<path d="M66.72 42.5C66.72 42.5 66.68 42.48 66.61 42.45C66.54 42.41 66.43 42.36 66.29 42.29C66.16 42.22 65.98 42.1599 65.8 42.0699C65.6 41.9999 65.4 41.8999 65.17 41.8199C64.95 41.7299 64.7001 41.6499 64.4401 41.5699C64.3101 41.5299 64.18 41.5 64.04 41.47C63.91 41.44 63.7701 41.39 63.6301 41.37C63.4901 41.35 63.3501 41.32 63.2101 41.3C63.0701 41.27 62.9201 41.28 62.7801 41.26C62.4901 41.22 62.1901 41.24 61.9001 41.24C61.7501 41.23 61.6101 41.26 61.4601 41.28C61.3201 41.3 61.1701 41.3099 61.0201 41.3199C60.7301 41.3899 60.45 41.44 60.17 41.5C59.9 41.59 59.63 41.68 59.36 41.75C59.1 41.84 58.8701 41.95 58.6401 42.04C58.4101 42.12 58.1901 42.2 58.0101 42.29C57.8301 42.38 57.6601 42.45 57.5201 42.51C57.2401 42.63 57.0601 42.6899 57.0601 42.6899C57.0601 42.6899 57.1501 42.54 57.3301 42.29C57.4201 42.17 57.53 42.01 57.67 41.84C57.74 41.76 57.8101 41.6599 57.8901 41.5699C57.9801 41.4899 58.07 41.4001 58.17 41.3101C58.38 41.1301 58.59 40.93 58.85 40.75C59.12 40.58 59.4001 40.42 59.7101 40.25C60.0301 40.12 60.37 39.99 60.73 39.89C61.1 39.83 61.47 39.74 61.85 39.74C62.23 39.74 62.61 39.7399 62.98 39.8199C63.35 39.8699 63.7001 39.99 64.0301 40.11C64.2001 40.16 64.3501 40.2499 64.5001 40.3199C64.6501 40.3999 64.8 40.4601 64.92 40.5601C65.05 40.6501 65.18 40.7399 65.3 40.8199C65.42 40.9099 65.5301 41 65.6301 41.09C65.8401 41.26 66.0001 41.46 66.1501 41.62C66.2901 41.79 66.4001 41.9399 66.4901 42.0699C66.5801 42.1999 66.63 42.31 66.67 42.39C66.71 42.46 66.72 42.5 66.72 42.5Z" fill="#49331A"/>
<path d="M71.6698 52.39H71.6399C71.3399 49.44 69.5599 44.1999 64.8399 43.9999C59.8199 43.7899 56.7299 47.46 55.2599 50.64C53.6699 52.4 51.4399 58.5799 51.6299 60.9699C51.6799 61.6099 51.4198 62.73 51.8598 63.14C52.0698 63.34 52.6698 63.26 53.1098 63.31C54.2298 63.44 52.6198 61.2099 53.3598 58.7399C53.5198 58.2099 53.6899 57.7 53.8799 57.18C54.8599 59.73 57.6999 62.4199 64.4499 61.7399C73.7799 60.7999 71.6798 52.39 71.6798 52.39M63.9798 59.2399C59.6198 60.5999 57.0499 56.58 55.4499 54.42C57.2799 52.22 60.5998 45.79 65.8498 47.43C69.1598 48.46 68.3599 51.7299 69.7799 53.4499C67.9099 55.1799 66.9798 58.3099 63.9798 59.2499" fill="white"/>
<path d="M45.2399 58.6C37.0499 62.5 31.2799 59.98 28.6899 49.86C28.6899 49.86 38.54 42.21 43.77 52.02C44.58 53.54 45.2399 58.6 45.2399 58.6Z" fill="white"/>
<path d="M37.3199 59.24C35.0499 59.19 33.1399 57.39 32.4099 54.88C32.1799 54.12 32.07 53.29 32.09 52.42C32.16 48.93 34.3299 47.69 37.0599 47.61C37.2299 47.61 37.3999 47.61 37.5699 47.61C40.5399 47.67 42.79 50.76 42.84 52.65C42.94 56.35 40.2899 59.3 37.3299 59.24" fill="#7E5321"/>
<path d="M37.34 58.3C35.62 58.26 34.0999 56.78 33.4799 54.54C33.2799 53.82 33.19 53.07 33.2 52.3C33.25 49.7 34.48 48.45 37.08 48.37C37.21 48.37 37.3399 48.36 37.4699 48.36H37.5399C39.8799 48.41 41.66 51.14 41.7 52.54C41.74 54.23 41.18 55.84 40.15 56.96C39.36 57.82 38.38 58.29 37.4 58.29H37.33" fill="#49331A"/>
<path d="M54.3799 58.6C62.5699 62.5 68.3299 59.98 70.9299 49.86C70.9299 49.86 61.0799 42.21 55.8499 52.02C55.0399 53.54 54.3799 58.6 54.3799 58.6Z" fill="white"/>
<path d="M62.2898 59.24C64.5598 59.19 66.4698 57.39 67.1998 54.88C67.4298 54.12 67.5398 53.29 67.5198 52.42C67.4498 48.93 65.2798 47.69 62.5498 47.61C62.3798 47.61 62.2098 47.61 62.0398 47.61C59.0698 47.67 56.8198 50.76 56.7698 52.65C56.6698 56.35 59.3198 59.3 62.2798 59.24" fill="#7E5321"/>
<path d="M62.2 58.3C61.22 58.3 60.24 57.83 59.46 56.97C58.43 55.85 57.87 54.24 57.91 52.55C57.94 51.15 59.73 48.42 62.08 48.37H62.14C62.27 48.37 62.4 48.37 62.53 48.38C65.12 48.46 66.35 49.7101 66.4 52.3101C66.42 53.0901 66.32 53.84 66.12 54.55C65.5 56.8 63.99 58.2701 62.26 58.3101H62.19" fill="#49331A"/>
<path d="M37.68 51.04C37.63 53.28 36.14 55.07 34.34 55.03C33.52 55.01 32.79 54.63 32.23 54C32.03 53.33 31.93 52.6 31.95 51.85C32.01 48.8 33.91 47.71 36.3 47.64C37.16 48.38 37.71 49.64 37.68 51.04Z" fill="white"/>
<path d="M40.51 57.52C40.49 58.28 39.98 58.88 39.38 58.87C38.77 58.86 38.29 58.23 38.3 57.47C38.31 56.71 38.82 56.11 39.43 56.12C40.04 56.13 40.52 56.76 40.5 57.52H40.51Z" fill="white"/>
<path d="M62.15 51.37C62.11 53.61 60.61 55.4 58.81 55.36C58 55.34 57.27 54.95 56.71 54.33C56.51 53.66 56.41 52.9301 56.43 52.1801C56.49 49.1301 58.39 48.04 60.78 47.97C61.64 48.71 62.19 49.97 62.16 51.37" fill="white"/>
<path d="M65.1999 57.52C65.1799 58.28 64.6799 58.88 64.0699 58.87C63.4599 58.86 62.9799 58.23 62.9899 57.47C63.0099 56.71 63.5099 56.11 64.1199 56.12C64.7299 56.13 65.2099 56.76 65.1899 57.52H65.1999Z" fill="white"/>
<path d="M44.8599 58.77C44.9799 58.71 45.1099 58.66 45.2299 58.59C45.1099 58.65 44.9799 58.71 44.8499 58.77" fill="#C9B187"/>
<path d="M45.2399 58.6C45.2399 58.6 45.22 58.49 45.2 58.29C45.23 58.47 45.2399 58.58 45.2399 58.6Z" fill="#B79F79"/>
<path d="M43.7599 59.24C44.1199 59.1 44.4899 58.94 44.8599 58.77C44.4899 58.94 44.1299 59.1 43.7599 59.24ZM43.7599 52.02C41.7199 48.19 38.9699 47.02 36.3799 47.02C36.2499 47.02 36.1099 47.02 35.9799 47.03C36.1099 47.03 36.2499 47.02 36.3799 47.02C38.9699 47.02 41.7199 48.19 43.7599 52.02ZM29.1299 51.4301C28.9699 50.9201 28.8199 50.4 28.6799 49.86C28.8199 50.41 28.9699 50.9301 29.1299 51.4301Z" fill="#E2E1E1"/>
<path d="M43.7599 59.24C43.4899 57.8 43.1299 56.1801 42.7299 55.4301C42.6599 55.2901 42.5799 55.16 42.5099 55.03C42.7399 54.3 42.86 53.5 42.83 52.66C42.78 50.77 40.5299 47.68 37.5599 47.62H37.4699C37.3299 47.62 37.1899 47.62 37.0499 47.62C36.8099 47.63 36.57 47.64 36.34 47.67C36.33 47.66 36.3099 47.64 36.2999 47.63C34.1399 47.69 32.39 48.58 32.02 51C31 51.33 30.0999 51.77 29.3799 52.17C29.2999 51.93 29.2099 51.6899 29.1299 51.4399C28.9699 50.9399 28.8199 50.41 28.6799 49.87C28.7299 49.83 32.1299 47.21 35.9799 47.04C36.1099 47.04 36.2499 47.03 36.3799 47.03C38.9699 47.03 41.7199 48.2 43.7599 52.03C44.4499 53.33 45.0299 57.18 45.1899 58.3C45.2199 58.5 45.2299 58.61 45.2299 58.61C45.1099 58.67 44.9799 58.73 44.8599 58.79C44.4899 58.96 44.1199 59.11 43.7599 59.26" fill="#E2E1E1"/>
<path d="M42.5098 55.02C42.2298 54.54 41.9398 54.1 41.6398 53.71C41.6898 53.33 41.7198 52.94 41.7098 52.55C41.6698 51.15 39.8898 48.42 37.5498 48.37H37.4798C37.3498 48.37 37.2198 48.37 37.0898 48.38C37.0398 48.38 36.9998 48.38 36.9498 48.38C36.7698 48.11 36.5698 47.87 36.3398 47.67C36.5698 47.64 36.8098 47.63 37.0498 47.62C37.1898 47.62 37.3298 47.62 37.4698 47.62H37.5598C40.5298 47.68 42.7798 50.77 42.8298 52.66C42.8498 53.5 42.7398 54.29 42.5098 55.03" fill="#7A5426"/>
<path d="M41.64 53.71C40.43 52.12 39.0699 51.22 37.6799 50.78C37.6499 49.87 37.39 49.04 36.95 48.38C36.99 48.38 37.04 48.38 37.09 48.38C37.22 48.38 37.3499 48.37 37.4799 48.37H37.5499C39.8899 48.42 41.67 51.15 41.71 52.55C41.72 52.94 41.7 53.33 41.64 53.71Z" fill="#4B3721"/>
<path d="M32.02 51C32.39 48.59 34.14 47.7 36.3 47.63C36.32 47.64 36.33 47.65 36.34 47.67C36.57 47.87 36.77 48.11 36.95 48.38C37.38 49.04 37.65 49.87 37.68 50.78C36.9 50.53 36.12 50.4301 35.35 50.4301C34.18 50.4301 33.04 50.67 32.02 51.01" fill="#E2E1E1"/>
<path d="M53.1199 68.13C53.1199 68.81 52.3699 69.42 51.5099 69.8C50.9199 70.06 50.27 70.21 49.77 70.21C49.27 70.21 48.6299 70.06 48.0399 69.8C47.1699 69.42 46.4199 68.81 46.4199 68.13C46.4199 66.97 48.54 66.04 49.77 66.04C51 66.04 53.1199 66.97 53.1199 68.13Z" fill="#78374B"/>
<path d="M51.5101 69.8C50.9201 70.06 50.2701 70.21 49.7701 70.21C49.2701 70.21 48.63 70.06 48.04 69.8C48.16 69.32 48.5801 68.97 49.0901 68.97C49.3501 68.97 49.5801 69.06 49.7701 69.21C49.9601 69.06 50.1901 68.97 50.4401 68.97C50.9501 68.97 51.3801 69.32 51.5001 69.79L51.5101 69.8Z" fill="#ED7693"/>
<path d="M54.7499 58.77C54.6299 58.71 54.4999 58.66 54.3699 58.59C54.3699 58.59 54.3699 58.55 54.3899 58.46C54.3799 58.54 54.3799 58.59 54.3799 58.59C54.4999 58.65 54.6299 58.71 54.7499 58.77Z" fill="#C9B187"/>
<path d="M54.3899 58.47C54.3899 58.42 54.4099 58.36 54.4199 58.28C54.4099 58.35 54.3999 58.42 54.3899 58.47Z" fill="#B79F79"/>
<path d="M55.8499 59.24C55.4899 59.1 55.1199 58.94 54.7499 58.77C55.1199 58.94 55.4899 59.09 55.8499 59.24ZM54.4199 58.29C54.5799 57.17 55.1599 53.32 55.8499 52.02C56.0999 51.55 56.3599 51.13 56.6299 50.74C56.3599 51.13 56.0999 51.56 55.8599 52.02C55.1699 53.32 54.5899 57.17 54.4299 58.29" fill="#E2E1E1"/>
<path d="M55.8499 59.24C55.4899 59.1 55.1199 58.94 54.7499 58.77C54.6299 58.71 54.4999 58.66 54.3799 58.59C54.3799 58.59 54.3799 58.55 54.3899 58.47C54.3899 58.42 54.4099 58.36 54.4199 58.28C54.5799 57.16 55.1599 53.31 55.8499 52.01C56.0999 51.55 56.3599 51.12 56.6199 50.74C56.4999 51.16 56.4299 51.6401 56.4199 52.1801C56.3999 52.9301 56.4999 53.67 56.6999 54.33C56.7899 54.43 56.8899 54.53 56.9899 54.62C57.0199 54.75 57.0599 54.89 57.0999 55.02C57.0199 55.15 56.9499 55.29 56.8699 55.42C56.4699 56.17 56.1099 57.79 55.8399 59.23" fill="#E2E1E1"/>
<path d="M57.1 55.02C57.06 54.89 57.02 54.76 56.99 54.62C57.07 54.69 57.15 54.7501 57.23 54.8101C57.19 54.8801 57.15 54.95 57.11 55.02" fill="#7A5426"/>
<path d="M70.4698 51.48C70.6398 50.96 70.7899 50.43 70.9299 49.86C70.7899 50.42 70.6299 50.96 70.4599 51.48M59.1099 48.23C60.4399 47.35 61.8599 47.02 63.2299 47.02C63.3699 47.02 63.5099 47.02 63.6499 47.03C63.5099 47.03 63.3699 47.02 63.2299 47.02C61.8599 47.02 60.4399 47.35 59.1099 48.22" fill="#E2E1E1"/>
<path d="M70.2299 52.17C69.4499 51.74 68.4499 51.27 67.3299 50.92C66.7399 48.57 64.8399 47.69 62.5499 47.62C62.4099 47.62 62.2699 47.62 62.1299 47.62H62.0399C61.4299 47.63 60.8599 47.77 60.3199 48C59.8899 48.04 59.4799 48.11 59.0999 48.23C60.4299 47.35 61.8498 47.03 63.2198 47.03C63.3598 47.03 63.4999 47.03 63.6399 47.04C67.4799 47.23 70.8599 49.83 70.9099 49.87C70.7699 50.43 70.6099 50.97 70.4499 51.49C70.3799 51.72 70.2998 51.9501 70.2198 52.1801" fill="#E2E1E1"/>
<path d="M67.3398 50.92C66.9498 50.8 66.5498 50.7 66.1398 50.62C65.6498 49.16 64.4798 48.44 62.5298 48.38C62.3998 48.38 62.2698 48.37 62.1398 48.37H62.0798C61.7998 48.37 61.5298 48.42 61.2698 48.5C61.1298 48.3 60.9598 48.13 60.7798 47.98C60.6298 47.98 60.4798 47.99 60.3398 48.01C60.8798 47.78 61.4498 47.64 62.0598 47.63H62.1498C62.2898 47.63 62.4298 47.63 62.5698 47.63C64.8598 47.7 66.7598 48.5801 67.3498 50.9301" fill="#7A5426"/>
<path d="M62.12 50.72C62.03 49.86 61.72 49.09 61.26 48.5C61.52 48.42 61.79 48.38 62.07 48.37H62.13C62.26 48.37 62.39 48.37 62.52 48.38C64.47 48.44 65.65 49.16 66.13 50.62C65.52 50.5 64.89 50.4301 64.25 50.4301C63.54 50.4301 62.82 50.52 62.11 50.72" fill="#4B3721"/>
<path d="M57.23 54.8101C57.15 54.7501 57.07 54.69 56.99 54.62C56.89 54.53 56.79 54.43 56.7 54.33C56.5 53.66 56.4 52.9301 56.42 52.1801C56.43 51.6401 56.5 51.16 56.62 50.74C57.39 49.61 58.23 48.8 59.11 48.22C59.49 48.11 59.9 48.03 60.33 47.99C60.47 47.98 60.62 47.97 60.77 47.96C60.95 48.11 61.11 48.29 61.26 48.48C61.72 49.08 62.03 49.85 62.12 50.7C60.36 51.21 58.65 52.42 57.22 54.79" fill="#E2E1E1"/>
<path d="M45.2399 58.5999C45.1399 58.0999 45.0199 57.5999 44.9099 57.0999C44.7999 56.5999 44.6899 56.1 44.5699 55.61C44.4499 55.11 44.3199 54.62 44.1799 54.14C44.0399 53.64 43.88 53.21 43.7 52.74C43.6 52.52 43.4899 52.2399 43.3799 52.0799L42.9799 51.4499C42.6899 51.0499 42.41 50.64 42.08 50.28C41.93 50.09 41.76 49.91 41.58 49.75C41.41 49.58 41.2399 49.41 41.0399 49.26C40.8499 49.1 40.67 48.9499 40.46 48.8299C40.27 48.6899 40.0699 48.5599 39.8499 48.4599C39.4399 48.2199 38.9899 48.06 38.5499 47.91C38.0999 47.77 37.6299 47.69 37.1599 47.64C36.6899 47.61 36.2099 47.6 35.7299 47.65C35.2499 47.68 34.7799 47.78 34.3099 47.88C33.3699 48.11 32.4499 48.44 31.5699 48.87C31.1299 49.09 30.69 49.3199 30.27 49.5699C29.86 49.8199 29.4199 50.09 29.0599 50.36L29.2899 49.6899L29.6699 51.01C29.7799 51.46 29.9499 51.88 30.0999 52.31C30.2499 52.74 30.4099 53.1699 30.6099 53.5799C30.8099 53.9899 30.9599 54.43 31.1899 54.81C31.4199 55.19 31.5999 55.6199 31.8799 55.9699C32.1499 56.3199 32.3699 56.73 32.6799 57.04C32.9799 57.37 33.2599 57.72 33.6099 57.99L34.1099 58.42L34.6699 58.78C35.0299 59.05 35.4499 59.2 35.8499 59.38C36.2499 59.57 36.6999 59.64 37.1199 59.78C37.5599 59.84 38.01 59.9199 38.46 59.9499C38.91 59.9399 39.3699 59.99 39.8199 59.93C40.2699 59.87 40.7399 59.88 41.1899 59.76C41.6399 59.66 42.1099 59.6099 42.5499 59.4599C42.9899 59.3299 43.45 59.21 43.89 59.05L45.2199 58.5699L45.2399 58.5999ZM45.2399 58.5999L43.9799 59.25C43.5599 59.46 43.1099 59.61 42.6699 59.8C42.2299 60 41.7699 60.1 41.3099 60.25C40.8599 60.41 40.38 60.4599 39.9 60.5699C39.43 60.6799 38.94 60.6599 38.45 60.6999C37.96 60.7099 37.4799 60.65 36.9799 60.62C36.4999 60.5 36 60.45 35.53 60.27C35.07 60.09 34.5899 59.93 34.1699 59.66L33.52 59.29L32.9299 58.8299C32.5099 58.5399 32.19 58.17 31.84 57.81C31.47 57.47 31.2199 57.04 30.9099 56.65C30.5899 56.27 30.3899 55.82 30.1199 55.41C29.8499 55 29.67 54.55 29.46 54.11C29.24 53.67 29.0699 53.22 28.9099 52.77C28.7499 52.32 28.5599 51.87 28.4399 51.4L28.03 50.02L27.9099 49.61L28.2599 49.3399C28.7099 48.9999 29.1399 48.7199 29.5999 48.4499C30.0599 48.1799 30.5299 47.9299 31.0099 47.7099C31.9699 47.2599 32.98 46.9 34.03 46.66C34.56 46.55 35.09 46.4699 35.64 46.4399C36.18 46.3999 36.73 46.43 37.27 46.48C37.82 46.55 38.3599 46.6599 38.8799 46.8399C39.1399 46.9299 39.4 47.02 39.65 47.15C39.9 47.26 40.1399 47.39 40.3699 47.54C40.6099 47.67 40.8299 47.83 41.0399 48C41.2599 48.16 41.4599 48.34 41.6599 48.52C41.8699 48.7 42.0499 48.8899 42.2299 49.0899C42.4199 49.2799 42.5899 49.4799 42.7499 49.6999C43.0799 50.1099 43.3499 50.57 43.6299 51.02L43.9999 51.7099C44.1499 51.9899 44.1899 52.1999 44.2999 52.4499C44.4399 52.9499 44.5799 53.49 44.6599 53.99C44.7599 54.5 44.8399 55 44.9099 55.51C45.0499 56.52 45.1599 57.5499 45.2299 58.5699L45.2399 58.5999Z" fill="#49331A"/>
<path d="M54.3799 58.5999C54.4399 57.5799 54.5499 56.56 54.6899 55.54C54.7599 55.03 54.8399 54.52 54.9399 54.02C55.0199 53.52 55.1599 52.97 55.2999 52.48C55.3999 52.23 55.4499 52.02 55.5999 51.74L55.9698 51.05C56.2398 50.6 56.5099 50.14 56.8499 49.73C57.0099 49.51 57.1799 49.31 57.3699 49.12C57.5499 48.92 57.7299 48.73 57.9399 48.55C58.1399 48.37 58.3399 48.18 58.5599 48.03C58.7799 47.86 58.9999 47.6999 59.2299 47.5699C59.4599 47.4199 59.6999 47.29 59.9499 47.18C60.1899 47.05 60.4599 46.96 60.7099 46.87C61.2299 46.69 61.7699 46.58 62.3099 46.51C62.8599 46.46 63.4099 46.4299 63.9499 46.4699C64.4899 46.4999 65.0299 46.5799 65.5499 46.6899C66.5999 46.9299 67.6099 47.29 68.5699 47.74C69.0499 47.97 69.5199 48.21 69.9799 48.48C70.4399 48.75 70.8699 49.03 71.3199 49.37L71.6699 49.64L71.5499 50.05L71.1399 51.43C71.0199 51.9 70.8299 52.34 70.6699 52.8C70.5099 53.25 70.3299 53.7 70.1199 54.14C69.8999 54.57 69.7299 55.0299 69.4599 55.4399C69.1899 55.8499 68.9899 56.3 68.6699 56.68C68.3599 57.07 68.1099 57.4899 67.7499 57.8399C67.3999 58.1999 67.0799 58.57 66.6599 58.86L66.0699 59.3199L65.4199 59.6899C64.9999 59.9599 64.5199 60.12 64.0599 60.3C63.5899 60.49 63.0899 60.54 62.6199 60.65C62.1299 60.68 61.6399 60.74 61.1499 60.73C60.6599 60.68 60.1699 60.7099 59.6999 60.5999C59.2299 60.4899 58.7499 60.44 58.2899 60.28C57.8399 60.13 57.3699 60.0299 56.9299 59.8299C56.4899 59.6399 56.0399 59.49 55.6199 59.28L54.3699 58.63L54.3799 58.5999ZM54.3799 58.5999L55.7099 59.0799C56.1499 59.2399 56.6099 59.35 57.0499 59.49C57.4899 59.64 57.9599 59.69 58.4099 59.79C58.8599 59.9 59.3299 59.8999 59.7799 59.9599C60.2299 60.0199 60.6899 59.96 61.1399 59.98C61.5899 59.96 62.0399 59.87 62.4799 59.81C62.8999 59.67 63.3499 59.59 63.7499 59.41C64.1499 59.22 64.5699 59.07 64.9299 58.81L65.4899 58.4499L65.9899 58.02C66.3399 57.75 66.6199 57.3999 66.9199 57.0699C67.2399 56.7599 67.4599 56.36 67.7299 56C67.9999 55.65 68.1799 55.2199 68.4099 54.8399C68.6499 54.4599 68.7999 54.02 68.9899 53.61C69.1899 53.2 69.3499 52.7699 69.4999 52.3399C69.6499 51.9099 69.8199 51.48 69.9299 51.04L70.3099 49.7199L70.5399 50.39C70.1799 50.12 69.7399 49.8399 69.3299 49.5999C68.9099 49.3499 68.4799 49.11 68.0299 48.9C67.1499 48.47 66.2299 48.14 65.2899 47.91C64.8199 47.81 64.3499 47.71 63.8699 47.68C63.3899 47.63 62.9199 47.64 62.4499 47.67C61.9799 47.71 61.5099 47.7999 61.0599 47.9399C60.6099 48.0799 60.1599 48.25 59.7499 48.49C59.5399 48.59 59.3399 48.72 59.1399 48.86C58.9399 48.98 58.7499 49.14 58.5699 49.29C58.3799 49.43 58.2099 49.6 58.0299 49.78C57.8499 49.95 57.6899 50.12 57.5299 50.31C57.1999 50.67 56.9099 51.07 56.6299 51.48L56.2299 52.11C56.1199 52.27 56.0199 52.55 55.9099 52.77C55.7299 53.24 55.5699 53.67 55.4399 54.17C55.2999 54.66 55.1699 55.15 55.0499 55.64C54.9299 56.13 54.8199 56.63 54.7099 57.13C54.5999 57.63 54.4799 58.13 54.3799 58.63V58.5999Z" fill="#49331A"/>
<path d="M49.8 58.1601C49.8 58.1601 51.0501 58.14 51.2101 58.38C51.4801 58.81 52.54 62.36 52.54 62.36C52.54 62.36 50.3201 62.97 49.7801 62.97C49.1701 62.97 47.0801 62.36 47.0801 62.36C47.0801 62.36 48.1901 58.81 48.4001 58.36C48.5401 58.06 49.8101 58.1601 49.8101 58.1601" fill="#C6AB7F"/>
<path d="M49.6899 62.86C49.1999 62.86 48.7299 62.67 48.3099 62.49C47.8999 62.3 47.5399 62.12 47.3199 62.12C47.2199 62.12 47.1399 62.16 47.0999 62.24C47.2899 61.64 48.1999 58.76 48.3799 58.35C48.4599 58.17 48.9599 58.13 49.3299 58.13C49.5799 58.13 49.7799 58.15 49.7799 58.15H49.8499C50.1199 58.15 51.0599 58.16 51.1899 58.37C51.4199 58.74 52.2199 61.37 52.4499 62.14C52.3999 62.08 52.3399 62.05 52.2499 62.05C51.7699 62.05 50.7398 62.82 49.7198 62.85H49.6699" fill="#C6AB7F"/>
<path d="M50.3199 63.6801C50.0099 63.8301 49.8399 64.1501 49.7699 64.5501C49.6899 64.1801 49.5299 63.88 49.2299 63.73C47.8599 63.08 44.4199 61.41 44.6599 65.94C44.7199 67.05 46.1799 68.98 47.5999 68.98C49.0299 68.99 49.7099 67.4501 49.7099 67.2701C49.7099 67.0401 49.75 66.72 49.78 66.35C49.81 66.7 49.8499 67 49.8499 67.22C49.8499 67.4 50.5299 68.9401 51.9599 68.9301C53.3799 68.9201 54.8299 66.99 54.8899 65.88C55.1399 61.35 51.6999 63.0201 50.3299 63.6701" fill="white"/>
<path d="M54.4901 66.77C54.3001 67.16 54.0801 67.53 53.7901 67.84C53.5101 68.15 53.1701 68.4001 52.8101 68.5601C52.4501 68.7201 52.07 68.78 51.72 68.73C51.37 68.68 51.0801 68.5101 50.8501 68.3101C50.6101 68.1101 50.4701 67.86 50.3401 67.65C50.2901 67.53 50.2401 67.4199 50.1901 67.3199C50.1601 67.2099 50.1201 67.12 50.1001 67.03C50.0401 66.86 50.0201 66.71 50.0001 66.61C49.9801 66.53 49.97 66.49 49.97 66.48V64.4301L49.5901 64.48V66.54C49.5901 66.54 49.5801 66.6 49.5601 66.67C49.5301 66.77 49.5201 66.92 49.4601 67.09C49.4301 67.18 49.4001 67.28 49.3701 67.38C49.3201 67.48 49.28 67.59 49.22 67.71C49.09 67.93 48.9501 68.18 48.7101 68.38C48.4801 68.58 48.1901 68.74 47.8401 68.79C47.5001 68.84 47.1101 68.79 46.7501 68.62C46.3901 68.46 46.0601 68.21 45.7701 67.9C45.4901 67.58 45.2501 67.2199 45.0701 66.8199C44.8801 66.4299 44.4501 65.18 44.5101 65.62C44.6001 66.05 44.7001 66.49 44.8901 66.9C45.0701 67.31 45.3001 67.71 45.6001 68.05C45.8901 68.39 46.2501 68.67 46.6401 68.86C47.0301 69.05 47.4701 69.14 47.8801 69.08C48.2901 69.03 48.6501 68.85 48.9201 68.62C49.2001 68.39 49.3701 68.11 49.5201 67.87C49.5801 67.74 49.6401 67.62 49.7001 67.51C49.7301 67.43 49.7601 67.35 49.7801 67.27H49.7901C49.8101 67.32 49.8401 67.39 49.8601 67.46C49.9101 67.57 49.9701 67.6899 50.0301 67.8199C50.1801 68.0599 50.3601 68.3401 50.6401 68.5601C50.9101 68.7901 51.2801 68.97 51.6801 69.03C52.0901 69.08 52.5301 69 52.9201 68.8C53.3101 68.61 53.6601 68.33 53.9601 67.99C54.2501 67.65 54.49 67.26 54.66 66.84C54.85 66.43 54.9601 65.9901 55.0401 65.5601C55.1101 65.1301 54.6801 66.37 54.4801 66.76L54.4901 66.77Z" fill="#49331A"/>
<path d="M51.7699 63.04C51.6599 62.8 51.1699 62.78 50.6699 63.01C50.1699 63.23 49.8499 63.61 49.9599 63.85C50.0699 64.09 50.5599 64.1 51.0599 63.88C51.5599 63.66 51.8799 63.28 51.7699 63.04Z" fill="#010101"/>
<path d="M49.5599 63.86C49.4499 64.1 48.96 64.11 48.46 63.89C47.96 63.67 47.6399 63.29 47.7499 63.05C47.8599 62.81 48.3499 62.79 48.8499 63.02C49.3499 63.24 49.6699 63.62 49.5599 63.86Z" fill="#010101"/>
<path d="M47.0701 62.69C47.1101 63.08 47.6001 63.6 47.9901 63.6C48.5701 63.6 48.8801 63.4401 49.0901 63.8101C49.4601 64.4801 49.2201 64.6 49.7901 64.6C50.3701 64.6 50.1401 64.4901 50.4901 63.8101C50.6301 63.5401 51.0101 63.6 51.5901 63.6C51.9801 63.6 52.4501 63.08 52.5101 62.69C52.7501 61.19 51.2201 62.81 49.7301 62.85C49.2301 62.86 48.7301 62.67 48.3001 62.48C47.5101 62.13 46.9701 61.78 47.0601 62.69" fill="#403626"/>
<path d="M48.8799 63.01C48.8799 63.31 49.4199 63.38 49.7799 63.38C50.1399 63.38 50.6699 63.3 50.6699 63.01C50.6699 62.72 50.1399 62.91 49.7799 62.91C49.4199 62.91 48.8799 62.71 48.8799 63" fill="white"/>
<path d="M49.7799 63.39C49.4199 63.39 48.8799 63.31 48.8799 63.02C48.8799 62.9 48.9799 62.86 49.1199 62.86C49.3099 62.86 49.5699 62.92 49.7799 62.92C49.9899 62.92 50.2399 62.86 50.4299 62.86C50.5699 62.86 50.6699 62.9 50.6699 63.02C50.6699 63.31 50.1399 63.39 49.7799 63.39Z" fill="white"/>
<path d="M29.1099 34.84C29.1099 34.84 27.1599 31.11 28.4299 30.11C29.6999 29.11 33.2099 30.33 33.2099 30.33C33.2099 30.33 31.8199 31.01 30.7999 32.28C30.1399 33.1 29.6299 33.95 29.1099 34.84Z" fill="#D69891"/>
<path d="M70.4999 34.84C70.4999 34.84 72.4499 31.11 71.1799 30.11C69.9099 29.11 66.3999 30.33 66.3999 30.33C66.3999 30.33 67.7899 31.01 68.8099 32.28C69.4699 33.1 69.9899 33.95 70.4999 34.84Z" fill="#D69891"/>
</svg>
