<svg width="101" height="102" viewBox="0 0 101 102" fill="none" xmlns="http://www.w3.org/2000/svg">
<path d="M92.26 0.419983H8.67C3.88169 0.419983 0 4.30172 0 9.09003V92.68C0 97.4683 3.88169 101.35 8.67 101.35H92.26C97.0483 101.35 100.93 97.4683 100.93 92.68V9.09003C100.93 4.30172 97.0483 0.419983 92.26 0.419983Z" fill="#24B999"/>
<path d="M50.37 72.65C50.06 72.65 49.73 72.63 49.34 72.58C41.67 71.88 29.42 65 27.38 56.01C26.89 56.09 26.4 56.13 25.91 56.13C25.1 56.13 24.3 56.02 23.52 55.8C20.93 55.08 18.82 53.27 17.58 50.7C16.37 48.19 16.14 45.24 16.93 42.41C18.3 37.46 22.48 34 27.09 34C27.9 34 28.71 34.11 29.49 34.33C30.66 34.65 31.75 35.22 32.71 35.98C36.41 31.42 41.78 29.12 48.69 29.12C49.41 29.12 50.15 29.15 50.91 29.2C51.66 29.15 52.41 29.12 53.13 29.12C60 29.12 65.34 31.4 69.04 35.9C69.97 35.18 71.02 34.65 72.15 34.34C72.93 34.12 73.74 34.01 74.55 34.01C79.16 34.01 83.33 37.47 84.71 42.42C85.5 45.26 85.26 48.2 84.06 50.71C82.82 53.28 80.71 55.09 78.12 55.81C77.34 56.03 76.54 56.14 75.73 56.14C75.3 56.14 74.86 56.11 74.43 56.05C72.38 65.02 60.14 71.9 52.44 72.6C52.43 72.6 52.41 72.6 52.4 72.6C51.77 72.64 51.23 72.66 50.8 72.66H50.61C50.59 72.66 50.57 72.66 50.54 72.66C50.49 72.66 50.44 72.66 50.39 72.66L50.37 72.65Z" fill="#2F150C"/>
<path d="M83.37 42.78C81.92 37.57 77.0499 34.37 72.4899 35.64C71.0499 36.04 69.8099 36.84 68.8399 37.9C65.7399 33.46 60.36 29.89 50.8899 30.55C41.3399 29.88 35.95 33.52 32.86 38.01C31.87 36.89 30.6 36.05 29.11 35.63C24.55 34.36 19.67 37.56 18.23 42.77C16.78 47.98 19.31 53.23 23.88 54.5C25.43 54.93 27.01 54.84 28.49 54.34C28.5 54.47 28.51 54.6 28.53 54.73C29.67 63.53 42.09 70.56 49.5 71.23C49.94 71.28 50.2699 71.29 50.5299 71.29C50.5499 71.29 50.57 71.29 50.59 71.29H50.74C51.12 71.29 51.6299 71.27 52.2999 71.23C59.7099 70.56 72.1299 63.53 73.2699 54.73C73.2899 54.62 73.29 54.51 73.3 54.4C74.72 54.85 76.24 54.91 77.73 54.5C82.29 53.23 84.82 47.98 83.38 42.77L83.37 42.78Z" fill="#2F150C"/>
<path d="M34.76 47.36C33.31 52.57 28.44 55.77 23.88 54.5C19.32 53.23 16.79 47.98 18.23 42.77C19.68 37.56 24.55 34.36 29.11 35.63C33.67 36.9 36.2 42.15 34.76 47.36Z" fill="#5E3E1F"/>
<path d="M25.91 52.3C25.45 52.3 24.99 52.24 24.54 52.11C21.3 51.21 19.54 47.32 20.62 43.44C21.52 40.2 24.24 37.84 27.08 37.84C27.54 37.84 28 37.9 28.45 38.03C29.96 38.45 31.2 39.54 31.95 41.1C32.76 42.77 32.9 44.76 32.36 46.7C31.46 49.94 28.74 52.3 25.9 52.3H25.91Z" fill="#E48F8C"/>
<path d="M66.8399 47.36C68.2899 52.57 73.16 55.77 77.72 54.5C82.28 53.23 84.81 47.98 83.37 42.77C81.92 37.56 77.0499 34.36 72.4899 35.63C67.9299 36.9 65.3999 42.15 66.8399 47.36Z" fill="#5E3E1F"/>
<path d="M75.69 52.3C76.15 52.3 76.61 52.24 77.06 52.11C80.3 51.21 82.06 47.32 80.98 43.44C80.08 40.2 77.36 37.84 74.52 37.84C74.06 37.84 73.6 37.9 73.15 38.03C71.64 38.45 70.4 39.54 69.65 41.1C68.84 42.77 68.7 44.76 69.24 46.7C70.14 49.94 72.86 52.3 75.7 52.3H75.69Z" fill="#E48F8C"/>
<path d="M50.57 71.29C47.28 71.29 42.36 69.31 38.33 66.36C33.71 62.98 30.8 58.78 30.33 54.85C30.28 54.46 30.26 54.06 30.26 53.66C30.26 45.78 35.25 36.25 36.86 34.69C38.08 33.5 44.33 30.54 50.57 30.54C56.45 30.54 62.99 33.46 64.29 34.71C65.95 36.3 70.88 45.81 70.88 53.67C70.88 53.96 70.87 54.24 70.85 54.52C70.85 54.62 70.83 54.73 70.82 54.83C69.85 64 58.02 71.13 50.81 71.28H50.85H50.57" fill="#FED4A9"/>
<path d="M32.5499 50.0301C32.5499 50.0301 36.8299 58.89 40.5099 58.89C43.3199 58.89 46.8299 57.45 46.8299 57.45C46.8299 57.45 48.3199 42.69 40.1799 42.22C36.5099 42.01 32.5499 50.0301 32.5499 50.0301Z" fill="#F3C899"/>
<path d="M68.67 50.0301C68.67 50.0301 64.39 58.89 60.71 58.89C57.9 58.89 54.39 57.45 54.39 57.45C54.39 57.45 52.9 42.69 61.04 42.22C64.71 42.01 68.67 50.0301 68.67 50.0301Z" fill="#F3C899"/>
<path d="M36.52 44.16C36.52 44.16 36.57 44.02 36.71 43.8C36.78 43.68 36.87 43.56 36.98 43.41C37.1 43.28 37.23 43.11 37.4 42.97C37.48 42.9 37.57 42.81 37.67 42.74C37.77 42.67 37.88 42.59 37.98 42.52C38.09 42.44 38.21 42.39 38.33 42.32C38.45 42.26 38.58 42.18 38.72 42.14C38.99 42.04 39.28 41.94 39.59 41.9C39.9 41.83 40.21 41.83 40.53 41.83C40.85 41.83 41.16 41.91 41.46 41.96C41.75 42.05 42.04 42.15 42.31 42.27C42.56 42.41 42.8 42.55 43.02 42.69C43.23 42.84 43.41 43.01 43.57 43.16C43.65 43.24 43.73 43.31 43.8 43.38C43.87 43.45 43.92 43.54 43.98 43.61C44.09 43.75 44.18 43.88 44.25 43.99C44.39 44.2 44.46 44.33 44.46 44.33C44.46 44.33 44.31 44.29 44.08 44.19C43.96 44.14 43.82 44.09 43.67 44.02C43.52 43.95 43.34 43.88 43.14 43.82C42.95 43.76 42.75 43.67 42.54 43.6C42.32 43.54 42.1 43.47 41.88 43.4C41.65 43.35 41.41 43.31 41.18 43.25C40.94 43.25 40.7 43.18 40.47 43.19C40.23 43.19 39.99 43.17 39.76 43.21C39.64 43.23 39.52 43.21 39.41 43.24C39.29 43.26 39.18 43.28 39.06 43.3C38.83 43.35 38.61 43.39 38.4 43.46C38.19 43.52 37.98 43.58 37.8 43.65C37.61 43.71 37.44 43.79 37.28 43.84C37.13 43.91 36.98 43.96 36.87 44.01C36.64 44.12 36.5 44.17 36.5 44.17L36.52 44.16Z" fill="#322112"/>
<path d="M64.56 44.16C64.56 44.16 64.43 44.1 64.19 44C64.08 43.95 63.93 43.9 63.78 43.83C63.62 43.77 63.45 43.7 63.26 43.64C63.07 43.57 62.87 43.51 62.66 43.45C62.45 43.39 62.22 43.34 62 43.29C61.88 43.27 61.77 43.25 61.65 43.23C61.54 43.2 61.41 43.21 61.3 43.2C61.06 43.17 60.82 43.18 60.59 43.18C60.35 43.18 60.11 43.23 59.87 43.24C59.64 43.3 59.4 43.34 59.17 43.39C58.95 43.46 58.72 43.53 58.51 43.59C58.3 43.66 58.1 43.75 57.91 43.81C57.72 43.87 57.54 43.94 57.38 44.01C57.23 44.08 57.08 44.14 56.97 44.18C56.73 44.27 56.59 44.32 56.59 44.32C56.59 44.32 56.66 44.19 56.8 43.98C56.87 43.87 56.96 43.74 57.07 43.6C57.13 43.53 57.18 43.45 57.25 43.37C57.32 43.3 57.4 43.23 57.48 43.15C57.65 43 57.82 42.83 58.04 42.68C58.26 42.54 58.5 42.4 58.75 42.26C59.02 42.14 59.3 42.04 59.6 41.95C59.9 41.9 60.22 41.83 60.53 41.82C60.85 41.82 61.17 41.82 61.47 41.89C61.78 41.93 62.07 42.04 62.34 42.13C62.48 42.18 62.6 42.25 62.73 42.31C62.85 42.38 62.98 42.43 63.08 42.51C63.19 42.58 63.29 42.66 63.39 42.73C63.49 42.8 63.58 42.89 63.66 42.96C63.83 43.1 63.96 43.27 64.08 43.4C64.19 43.54 64.29 43.67 64.35 43.79C64.49 44.01 64.54 44.15 64.54 44.15L64.56 44.16Z" fill="#322112"/>
<path d="M46.8299 57.45C40.0699 60.67 35.3099 58.58 33.1699 50.24C33.1699 50.24 41.2999 43.93 45.6199 52.02C46.2899 53.28 46.8299 57.45 46.8299 57.45Z" fill="white"/>
<path d="M40.29 57.98C38.41 57.94 36.84 56.45 36.24 54.38C36.05 53.75 35.96 53.06 35.97 52.35C36.03 49.48 37.82 48.45 40.07 48.38C40.21 48.38 40.35 48.37 40.49 48.38C42.94 48.43 44.8 50.98 44.84 52.54C44.92 55.59 42.74 58.03 40.29 57.98Z" fill="#935A24"/>
<path d="M40.31 57.2C38.89 57.17 37.64 55.95 37.13 54.1C36.96 53.51 36.89 52.89 36.9 52.25C36.94 50.11 37.96 49.08 40.1 49.01C40.21 49.01 40.31 49.01 40.42 49.01H40.48C42.41 49.05 43.88 51.31 43.91 52.46C43.95 53.86 43.48 55.19 42.63 56.11C41.98 56.82 41.17 57.21 40.36 57.21H40.3" fill="#322112"/>
<path d="M54.37 57.45C61.13 60.67 65.89 58.58 68.03 50.24C68.03 50.24 59.9 43.93 55.58 52.02C54.91 53.28 54.37 57.45 54.37 57.45Z" fill="white"/>
<path d="M60.8999 57.98C62.7799 57.94 64.3499 56.45 64.9499 54.38C65.1399 53.75 65.2299 53.06 65.2199 52.35C65.1599 49.48 63.3699 48.45 61.1199 48.38C60.9799 48.38 60.8399 48.37 60.6999 48.38C58.2499 48.43 56.3899 50.98 56.3499 52.54C56.2699 55.59 58.4499 58.03 60.8999 57.98Z" fill="#935A24"/>
<path d="M60.83 57.2C60.02 57.2 59.21 56.81 58.56 56.1C57.71 55.18 57.2399 53.84 57.2799 52.45C57.3099 51.3 58.78 49.04 60.72 49H60.77C60.88 49 60.99 49 61.09 49C63.23 49.07 64.24 50.1 64.29 52.24C64.3 52.88 64.2299 53.5 64.0599 54.09C63.5499 55.95 62.3 57.16 60.88 57.2H60.83Z" fill="#322112"/>
<path d="M40.5899 51.21C40.5499 53.06 39.3199 54.54 37.8299 54.5C37.1599 54.48 36.5599 54.16 36.0899 53.65C35.9299 53.1 35.8399 52.5 35.8599 51.87C35.9099 49.35 37.4799 48.45 39.4499 48.39C40.1599 49.01 40.6099 50.04 40.5899 51.2" fill="white"/>
<path d="M42.9199 56.56C42.9099 57.19 42.4899 57.68 41.9899 57.67C41.4899 57.66 41.0899 57.14 41.0999 56.52C41.1099 55.89 41.5299 55.4 42.0299 55.41C42.5299 55.42 42.9299 55.93 42.9199 56.56Z" fill="white"/>
<path d="M60.79 51.49C60.75 53.34 59.52 54.82 58.03 54.78C57.36 54.77 56.76 54.44 56.29 53.93C56.13 53.38 56.04 52.78 56.06 52.15C56.11 49.63 57.68 48.73 59.65 48.68C60.36 49.29 60.81 50.33 60.79 51.49Z" fill="white"/>
<path d="M63.2999 56.56C63.2899 57.19 62.8699 57.68 62.3699 57.67C61.8699 57.66 61.4699 57.14 61.4799 56.52C61.4899 55.89 61.9099 55.4 62.4099 55.41C62.9099 55.42 63.3099 55.93 63.2999 56.56Z" fill="white"/>
<path d="M46.83 57.45H45.61V57.98H46.83V57.45Z" fill="#E3BF9D"/>
<path d="M46.8299 57.45C46.8299 57.45 46.2799 53.27 45.6199 52.02C43.9299 48.86 41.6599 47.9 39.5299 47.9C36.1999 47.9 33.1799 50.24 33.1799 50.24C33.3099 50.74 33.4499 51.22 33.5899 51.67C33.4399 51.22 33.2999 50.74 33.1799 50.24C33.1799 50.24 36.1999 47.9 39.5399 47.9C41.6799 47.9 43.9499 48.86 45.6299 52.02C46.2899 53.26 46.8299 57.32 46.8399 57.45" fill="#DCB68F"/>
<path d="M45.6099 57.98C45.3899 56.79 45.0899 55.45 44.7599 54.83C44.6999 54.71 44.6399 54.6 44.5799 54.49C44.7699 53.89 44.8699 53.23 44.8499 52.54C44.8099 50.98 42.9499 48.43 40.4999 48.38H40.4299C40.3099 48.38 40.1999 48.38 40.0799 48.38C39.8799 48.38 39.6899 48.4 39.4899 48.42C39.4799 48.41 39.4699 48.4 39.4499 48.39C37.6699 48.44 36.2199 49.18 35.9199 51.17C35.0799 51.45 34.3299 51.8 33.7399 52.13C33.6899 51.97 33.6299 51.82 33.5799 51.66C33.4299 51.21 33.2999 50.73 33.1699 50.23C33.1699 50.23 36.1899 47.89 39.5199 47.89C41.6599 47.89 43.9299 48.85 45.6099 52.01C46.2799 53.27 46.8199 57.44 46.8199 57.44C46.4099 57.64 45.9999 57.81 45.5999 57.97" fill="#E2E1E1"/>
<path d="M44.58 54.5C44.35 54.1 44.11 53.74 43.86 53.41C43.9 53.1 43.92 52.78 43.91 52.46C43.88 51.31 42.41 49.05 40.48 49.01H40.42C40.31 49.01 40.2 49.01 40.1 49.01C40.06 49.01 40.02 49.01 39.99 49.01C39.84 48.79 39.68 48.59 39.49 48.43C39.68 48.41 39.88 48.39 40.08 48.39C40.2 48.39 40.31 48.39 40.43 48.39H40.5C42.95 48.44 44.81 50.99 44.85 52.55C44.87 53.24 44.77 53.9 44.58 54.5Z" fill="#8D592A"/>
<path d="M43.86 53.41C42.87 52.1 41.74 51.36 40.59 50.99C40.57 50.24 40.35 49.56 39.99 49.01C40.03 49.01 40.06 49.01 40.1 49.01C40.21 49.01 40.31 49.01 40.42 49.01H40.48C42.41 49.05 43.88 51.31 43.91 52.46C43.91 52.79 43.9 53.1 43.86 53.41Z" fill="#37261A"/>
<path d="M35.9199 51.18C36.2299 49.19 37.6699 48.45 39.4499 48.4C39.4599 48.41 39.4699 48.42 39.4899 48.43C39.6799 48.6 39.8399 48.79 39.9899 49.01C40.3499 49.56 40.5699 50.24 40.5899 50.99C39.9499 50.79 39.2999 50.7 38.6699 50.7C37.7099 50.7 36.7699 50.9 35.9199 51.17" fill="#E2E1E1"/>
<path d="M55.59 57.98C55.19 57.82 54.79 57.65 54.37 57.45C54.37 57.45 54.37 57.41 54.38 57.35C54.38 57.41 54.37 57.45 54.37 57.45C54.78 57.65 55.19 57.82 55.59 57.98Z" fill="#E3BF9D"/>
<path d="M54.39 57.35C54.48 56.7 54.98 53.16 55.59 52.02C55.8 51.63 56.01 51.29 56.23 50.96C56.01 51.28 55.8 51.63 55.59 52.01C54.98 53.15 54.48 56.69 54.39 57.34" fill="#DCB68F"/>
<path d="M55.59 57.98C55.19 57.82 54.79 57.64 54.37 57.45C54.37 57.45 54.37 57.41 54.38 57.35C54.47 56.7 54.97 53.16 55.58 52.02C55.78 51.64 56 51.29 56.22 50.97C56.12 51.32 56.07 51.71 56.06 52.16C56.05 52.78 56.13 53.39 56.29 53.94C56.37 54.02 56.45 54.1 56.53 54.18C56.56 54.29 56.59 54.4 56.62 54.51C56.56 54.62 56.5 54.73 56.44 54.85C56.11 55.47 55.81 56.81 55.59 58" fill="#E2E1E1"/>
<path d="M56.6199 54.5C56.5899 54.39 56.5599 54.28 56.5299 54.17C56.5899 54.23 56.6599 54.28 56.7199 54.33C56.6899 54.39 56.6499 54.45 56.6199 54.5Z" fill="#8D592A"/>
<path d="M67.6599 51.55C67.7899 51.13 67.9199 50.69 68.0399 50.24C68.0399 50.24 65.0199 47.9 61.6899 47.9C60.5599 47.9 59.3899 48.17 58.2899 48.89C59.3899 48.17 60.5599 47.89 61.6899 47.89C65.0299 47.89 68.0499 50.23 68.0499 50.23C67.9299 50.69 67.8099 51.12 67.6699 51.54" fill="#DCB68F"/>
<path d="M67.4599 52.14C66.8199 51.78 65.9899 51.4 65.0699 51.11C64.5799 49.18 63.0199 48.45 61.1299 48.39C61.0099 48.39 60.8999 48.39 60.7799 48.39H60.7099C60.2099 48.4 59.7299 48.52 59.2899 48.7C58.9399 48.73 58.5999 48.79 58.2799 48.89C59.3799 48.17 60.5499 47.9 61.6799 47.9C65.0099 47.9 68.0299 50.24 68.0299 50.24C67.9099 50.7 67.7899 51.13 67.6499 51.55C67.5899 51.75 67.5199 51.95 67.4499 52.14" fill="#E2E1E1"/>
<path d="M65.0699 51.11C64.7499 51.01 64.4199 50.93 64.0799 50.86C63.6799 49.65 62.7099 49.06 61.0999 49.01C60.9899 49.01 60.8799 49.01 60.7799 49.01H60.7299C60.4999 49.01 60.2799 49.05 60.0599 49.12C59.9399 48.96 59.7999 48.82 59.6599 48.69C59.5399 48.69 59.4099 48.7 59.2899 48.71C59.7299 48.52 60.2099 48.41 60.7099 48.4H60.7799C60.8999 48.4 61.0099 48.4 61.1299 48.4C63.0199 48.45 64.5799 49.19 65.0699 51.12" fill="#8D592A"/>
<path d="M60.7599 50.94C60.6799 50.23 60.4299 49.6 60.0499 49.1C60.2699 49.04 60.4899 49 60.7199 48.99H60.7699C60.8799 48.99 60.9899 48.99 61.0899 48.99C62.6999 49.04 63.6699 49.64 64.0699 50.84C63.5699 50.74 63.0499 50.68 62.5199 50.68C61.9399 50.68 61.3399 50.75 60.7499 50.92" fill="#37261A"/>
<path d="M56.72 54.32C56.65 54.27 56.59 54.22 56.53 54.16C56.45 54.09 56.37 54.01 56.29 53.92C56.13 53.37 56.04 52.77 56.06 52.14C56.06 51.7 56.13 51.3 56.22 50.95C56.85 50.03 57.55 49.36 58.27 48.88C58.58 48.79 58.92 48.72 59.28 48.69C59.4 48.68 59.52 48.67 59.65 48.67C59.8 48.8 59.93 48.94 60.05 49.1C60.43 49.59 60.68 50.23 60.76 50.94C59.31 51.36 57.89 52.36 56.72 54.32Z" fill="#E2E1E1"/>
<path d="M46.8299 57.45C46.7499 57.04 46.6499 56.62 46.5599 56.21C46.4699 55.8 46.3799 55.39 46.2799 54.98C46.1799 54.57 46.0799 54.17 45.9599 53.77C45.8499 53.36 45.7199 53 45.5699 52.62C45.4799 52.44 45.3999 52.2 45.3099 52.07L44.9799 51.55C44.7399 51.22 44.5099 50.88 44.2399 50.59C44.1099 50.43 43.9799 50.29 43.8299 50.15C43.6899 50.01 43.5499 49.87 43.3899 49.75C43.2399 49.62 43.0799 49.5 42.9199 49.39C42.7599 49.27 42.5899 49.17 42.4199 49.08C42.0799 48.88 41.7099 48.75 41.3399 48.63C40.9699 48.51 40.5799 48.4499 40.1999 48.4099C39.8099 48.3799 39.4199 48.3699 39.0299 48.4099C38.6399 48.4399 38.2499 48.5199 37.8599 48.5999C37.0799 48.7899 36.3199 49.06 35.5999 49.42C35.2399 49.6 34.8799 49.79 34.5299 50C34.1899 50.21 33.8299 50.4299 33.5299 50.6599L33.7199 50.0999L34.0299 51.19C34.1199 51.56 34.2599 51.91 34.3899 52.26C34.5099 52.62 34.6399 52.97 34.8099 53.31C34.9699 53.65 35.0999 54.01 35.2899 54.32C35.4799 54.64 35.6299 54.99 35.8599 55.28C36.0799 55.57 36.2599 55.9099 36.5199 56.1599C36.7699 56.4299 36.9999 56.72 37.2799 56.94L37.6899 57.3L38.1499 57.59C38.4499 57.81 38.7899 57.94 39.1199 58.09C39.4499 58.24 39.8199 58.3 40.1699 58.42C40.5399 58.47 40.8999 58.54 41.2699 58.56C41.6399 58.55 42.0199 58.59 42.3999 58.55C42.7699 58.5 43.1599 58.5099 43.5299 58.4099C43.8999 58.3199 44.2899 58.2799 44.6499 58.1599C45.0199 58.0499 45.3899 57.96 45.7599 57.82L46.8599 57.43L46.8299 57.45ZM46.8299 57.45L45.7899 57.98C45.4399 58.16 45.0699 58.28 44.7099 58.43C44.3499 58.6 43.9599 58.67 43.5899 58.8C43.2199 58.94 42.8199 58.97 42.4299 59.06C42.0399 59.15 41.6299 59.13 41.2399 59.17C40.8399 59.18 40.4299 59.13 40.0299 59.11C39.6399 59.01 39.2199 58.97 38.8399 58.82C38.4599 58.67 38.0599 58.54 37.7199 58.32L37.1799 58.01L36.6899 57.63C36.3499 57.39 36.0799 57.0799 35.7999 56.7899C35.4999 56.5099 35.2899 56.16 35.0299 55.84C34.7699 55.52 34.5999 55.16 34.3799 54.82C34.1599 54.48 34.0099 54.11 33.8299 53.75C33.6499 53.39 33.5099 53.02 33.3699 52.64C33.2299 52.27 33.0799 51.9 32.9799 51.51L32.6399 50.37L32.5399 50.03L32.8299 49.81C33.1999 49.53 33.5599 49.3 33.9399 49.08C34.3199 48.86 34.6999 48.6499 35.0999 48.4699C35.8899 48.0999 36.7199 47.8 37.5899 47.61C38.0299 47.52 38.4699 47.45 38.9199 47.43C39.3699 47.4 39.8199 47.42 40.2699 47.46C40.7199 47.52 41.1699 47.61 41.5899 47.76C41.7999 47.83 42.0199 47.91 42.2199 48.01C42.4299 48.1 42.6299 48.21 42.8199 48.33C43.0199 48.44 43.1999 48.57 43.3799 48.71C43.5599 48.84 43.7299 48.99 43.8899 49.14C44.0599 49.29 44.2099 49.45 44.3599 49.61C44.5099 49.77 44.6599 49.94 44.7799 50.12C45.0499 50.46 45.2799 50.84 45.4999 51.21L45.8099 51.78C45.9299 52.01 45.9699 52.19 46.0499 52.39C46.1699 52.8 46.2799 53.2499 46.3499 53.6599C46.4299 54.0799 46.4899 54.5 46.5499 54.92C46.6699 55.76 46.7599 56.6 46.8099 57.44L46.8299 57.45Z" fill="#322112"/>
<path d="M54.37 57.45C54.42 56.61 54.51 55.77 54.63 54.93C54.69 54.51 54.75 54.09 54.83 53.67C54.9 53.26 55.01 52.81 55.13 52.4C55.21 52.19 55.25 52.02 55.38 51.79L55.69 51.2199C55.91 50.8499 56.14 50.47 56.41 50.13C56.54 49.95 56.68 49.78 56.83 49.62C56.98 49.46 57.13 49.29 57.3 49.15C57.46 49 57.63 48.8499 57.81 48.7199C57.99 48.5799 58.17 48.45 58.37 48.34C58.56 48.22 58.76 48.11 58.97 48.02C59.17 47.91 59.39 47.84 59.6 47.77C60.03 47.62 60.48 47.5299 60.92 47.4699C61.37 47.4299 61.82 47.4 62.27 47.44C62.72 47.46 63.16 47.53 63.6 47.62C64.47 47.82 65.3 48.11 66.09 48.48C66.49 48.67 66.87 48.87 67.25 49.09C67.63 49.31 67.99 49.54 68.36 49.82L68.65 50.04L68.55 50.38L68.21 51.52C68.11 51.9 67.96 52.28 67.82 52.65C67.69 53.03 67.54 53.4 67.36 53.76C67.18 54.12 67.03 54.49 66.81 54.83C66.59 55.17 66.42 55.53 66.16 55.85C65.9 56.17 65.7 56.52 65.4 56.8C65.12 57.09 64.85 57.4 64.5 57.64L64.01 58.02L63.47 58.33C63.12 58.56 62.73 58.69 62.35 58.83C61.97 58.98 61.55 59.02 61.16 59.12C60.75 59.14 60.35 59.19 59.95 59.18C59.55 59.14 59.14 59.16 58.76 59.07C58.37 58.98 57.97 58.94 57.6 58.81C57.22 58.68 56.84 58.61 56.48 58.44C56.12 58.29 55.74 58.16 55.4 57.99L54.36 57.46L54.37 57.45ZM54.37 57.45L55.47 57.84C55.84 57.97 56.21 58.06 56.58 58.18C56.94 58.31 57.33 58.34 57.7 58.43C58.07 58.52 58.46 58.52 58.83 58.57C59.21 58.62 59.58 58.57 59.96 58.58C60.33 58.56 60.7 58.49 61.06 58.44C61.41 58.32 61.78 58.26 62.11 58.11C62.44 57.96 62.79 57.83 63.08 57.61L63.54 57.32L63.95 56.96C64.24 56.74 64.47 56.45 64.72 56.18C64.98 55.93 65.16 55.59 65.38 55.3C65.61 55.01 65.75 54.66 65.95 54.34C66.15 54.03 66.27 53.67 66.43 53.33C66.59 52.99 66.73 52.64 66.85 52.28C66.97 51.93 67.12 51.58 67.21 51.21L67.52 50.12L67.71 50.68C67.41 50.46 67.05 50.23 66.71 50.02C66.36 49.81 66.01 49.62 65.64 49.44C64.91 49.08 64.15 48.81 63.38 48.62C62.99 48.54 62.6 48.46 62.21 48.43C61.82 48.39 61.42 48.4 61.04 48.43C60.65 48.47 60.27 48.54 59.9 48.65C59.53 48.77 59.16 48.9 58.82 49.1C58.64 49.19 58.48 49.2899 58.32 49.4099C58.15 49.5099 58 49.64 57.85 49.77C57.69 49.89 57.55 50.03 57.41 50.17C57.26 50.31 57.13 50.45 57 50.61C56.73 50.91 56.49 51.24 56.26 51.57L55.93 52.09C55.84 52.22 55.75 52.46 55.67 52.64C55.52 53.02 55.39 53.38 55.28 53.79C55.16 54.19 55.05 54.6 54.96 55C54.86 55.41 54.77 55.82 54.68 56.23C54.59 56.64 54.49 57.0499 54.41 57.4699L54.37 57.45Z" fill="#322112"/>
<path d="M50.88 70.64C54.57 70.93 56.85 70.18 58.95 67.19C61.05 64.21 56.36 59.15 56.36 59.15C56.36 59.15 52.62 56.29 50.84 56.31C49.1 56.32 45.53 59.16 45.53 59.16C45.53 59.16 40.84 64.22 42.94 67.2C45.04 70.18 47.31 70.94 51.01 70.65" fill="#F3C899"/>
<path d="M50.92 60.75C50.92 60.75 50.94 60.84 50.95 61C50.96 61.16 51 61.39 51.01 61.66C51.05 62.21 51.08 62.94 51.08 63.66C51.08 64.39 51.05 65.12 51.01 65.66C50.99 65.93 50.96 66.16 50.95 66.32C50.93 66.48 50.92 66.57 50.92 66.57C50.92 66.57 50.91 66.48 50.89 66.32C50.88 66.16 50.84 65.93 50.83 65.66C50.79 65.11 50.76 64.38 50.76 63.66C50.76 62.93 50.79 62.2 50.83 61.66C50.85 61.39 50.88 61.16 50.89 61C50.91 60.84 50.92 60.75 50.92 60.75Z" fill="#322112"/>
<path d="M47.8999 59.86C47.8999 59.86 48.0099 59.91 48.4799 60.38C48.9499 60.86 50.1699 60.62 49.6099 61.59C49.4699 61.82 48.8799 61.55 48.4099 61.07C47.9399 60.59 47.8999 59.86 47.8999 59.86Z" fill="#322112"/>
<path d="M53.9499 59.89C53.9499 59.89 53.5499 60.32 53.1399 60.55C52.4999 60.91 51.7899 61.16 52.2399 61.62C52.4299 61.81 52.9699 61.57 53.4399 61.1C53.9099 60.62 53.9499 59.89 53.9499 59.89Z" fill="#322112"/>
<path d="M43.8 64.7C43.8 64.7 43.78 64.76 43.77 64.89C43.76 65.01 43.77 65.19 43.84 65.4C43.92 65.61 44.04 65.85 44.27 66.06C44.37 66.18 44.52 66.26 44.65 66.37C44.8 66.46 44.96 66.55 45.12 66.64C45.3 66.71 45.48 66.79 45.67 66.87C45.87 66.93 46.07 66.99 46.28 67.05C46.49 67.11 46.72 67.14 46.94 67.19C47.05 67.21 47.17 67.24 47.28 67.26C47.4 67.28 47.52 67.29 47.64 67.31C47.88 67.34 48.12 67.38 48.37 67.41C48.62 67.43 48.87 67.45 49.12 67.47C49.63 67.52 50.14 67.51 50.66 67.53C51.18 67.55 51.69 67.55 52.2 67.53C52.71 67.51 53.21 67.47 53.68 67.41C54.64 67.29 55.53 67.11 56.23 66.81C56.58 66.66 56.89 66.49 57.13 66.3C57.37 66.11 57.54 65.89 57.65 65.7C57.76 65.5 57.81 65.33 57.83 65.21C57.85 65.09 57.86 65.03 57.86 65.03C57.86 65.03 57.86 65.09 57.85 65.22C57.85 65.28 57.83 65.36 57.81 65.44C57.8 65.53 57.75 65.62 57.71 65.73C57.61 65.94 57.45 66.18 57.21 66.4C56.97 66.62 56.66 66.82 56.3 66.99C55.58 67.33 54.68 67.57 53.71 67.71C53.22 67.78 52.72 67.83 52.2 67.86C51.69 67.89 51.16 67.9 50.64 67.88C50.12 67.85 49.6 67.86 49.08 67.8C48.82 67.78 48.57 67.75 48.32 67.73C48.07 67.7 47.82 67.66 47.58 67.62C47.46 67.6 47.34 67.58 47.22 67.56C47.1 67.54 46.98 67.51 46.87 67.48C46.64 67.42 46.41 67.38 46.2 67.3C45.99 67.23 45.78 67.15 45.58 67.08C45.39 66.99 45.2 66.9 45.02 66.82C44.85 66.71 44.69 66.62 44.54 66.51C44.41 66.38 44.26 66.29 44.17 66.15C43.95 65.91 43.83 65.64 43.77 65.42C43.72 65.19 43.72 65.01 43.75 64.89C43.77 64.77 43.8 64.71 43.8 64.71V64.7Z" fill="#322112"/>
<path d="M70.1099 56.54C68.2199 62.67 60.3599 62.67 60.3599 62.67C60.3599 62.67 61.1099 70.5 50.8899 70.68C40.6699 70.51 41.4199 62.67 41.4199 62.67C41.4199 62.67 33.5599 62.67 31.6699 56.54C30.1899 51.76 32.4599 44.82 34.1499 42.36C37.3699 37.68 43.9499 35.7 50.8499 43.27V43.35L50.8899 43.31L50.9299 43.35V43.27C57.8299 35.7 64.3999 37.68 67.6299 42.36C69.3199 44.82 71.5899 51.75 70.1099 56.54ZM71.7699 43.99C69.6999 37.43 64.5499 29.59 50.8899 30.55C37.2299 29.6 32.0799 37.43 30.0099 43.99C29.9699 44.02 28.4299 49.94 28.4299 53.42C28.4299 53.86 28.4599 54.29 28.5199 54.72C29.6599 63.52 42.0799 70.55 49.4899 71.22C49.9599 71.27 50.3099 71.29 50.5799 71.27C50.9699 71.27 51.5199 71.27 52.2899 71.22C59.6999 70.55 72.1199 63.52 73.2599 54.72C73.3199 54.29 73.3499 53.85 73.3499 53.42C73.3499 49.94 71.8099 44.01 71.7699 43.99Z" fill="#5E3E1F"/>
</svg>
