<svg width="101" height="102" viewBox="0 0 101 102" fill="none" xmlns="http://www.w3.org/2000/svg">
<path d="M92.28 0.77002H8.69C3.90169 0.77002 0.0200195 4.65171 0.0200195 9.44002V93.03C0.0200195 97.8183 3.90169 101.7 8.69 101.7H92.28C97.0683 101.7 100.95 97.8183 100.95 93.03V9.44002C100.95 4.65171 97.0683 0.77002 92.28 0.77002Z" fill="#94A4A5"/>
<path d="M51.2501 81.0101C49.7401 80.9301 48.4401 80.4401 47.4001 79.5701C46.0501 79.2701 44.6401 78.8301 43.2001 78.2601C41.3501 77.5301 39.5401 76.63 37.8101 75.58C37.0001 75.09 36.1901 74.5401 35.4001 73.9701C30.4401 70.3401 27.4001 65.95 26.8301 61.61C26.7601 61.09 26.7301 60.57 26.7301 60.08C26.7301 54.03 28.2601 49.4001 29.7901 46.2901C28.7701 45.9101 27.7901 45.44 27.0901 44.83C23.6901 41.91 21.9501 39.0401 20.8601 34.5901C20.5101 33.1701 20.2101 30.5001 20.1001 27.9501C19.8901 22.9001 20.5701 22.3601 21.0101 22.0001C21.3001 21.7701 21.7501 21.4601 22.3701 21.4601C23.3301 21.4601 23.8701 22.1301 24.5501 22.9901C24.8001 23.3101 25.0901 23.6601 25.4601 24.0901C27.0801 25.9401 29.8801 28.7501 35.5801 31.8701C37.5601 32.9501 39.1601 34.4601 40.3501 36.3501C41.0501 36.1101 41.7901 35.9001 42.5601 35.7201C43.1301 35.1301 43.8301 34.7301 44.6201 34.5301C44.5801 34.4101 44.5501 34.3001 44.5301 34.1901C44.0201 31.9201 45.6501 29.82 45.8401 29.58C46.0901 29.27 46.4701 29.1001 46.8501 29.1001C47.0401 29.1001 47.2401 29.1401 47.4201 29.2301C47.9601 29.5001 48.2501 30.1001 48.1101 30.6901C48.0501 30.9201 47.9801 31.3401 48.1301 31.5301C48.6201 32.1601 51.1101 32.2001 52.9301 32.2401C54.0301 32.2601 55.1701 32.2801 56.2901 32.3801C58.8501 32.6201 60.5801 33.7001 61.6101 34.9701C62.6501 33.7101 63.9201 32.67 65.3901 31.86C71.0901 28.74 73.9001 25.93 75.5101 24.08C75.8801 23.66 76.1701 23.3001 76.4201 22.9801C77.1001 22.1301 77.6401 21.4501 78.6001 21.4501C79.2101 21.4501 79.6701 21.7601 79.9601 21.9901C80.4101 22.3501 81.0801 22.8801 80.8701 27.9401C80.7601 30.5001 80.4601 33.17 80.1101 34.58C79.2001 38.32 77.8201 40.9301 75.4201 43.3701C75.7201 44.2301 75.9201 45.0901 76.0401 45.8901C76.0601 45.8901 76.0701 45.8901 76.0901 45.8901C76.1201 45.8901 76.1501 45.8901 76.1801 45.8901C76.7201 45.8901 77.2101 46.2301 77.4001 46.7401C77.7901 47.8201 77.8201 49.4101 77.7201 50.9401C78.2901 51.0301 78.7401 51.5001 78.8001 52.0901C78.9801 53.8901 78.4601 56.2301 77.8801 58.1601C78.2701 58.4201 78.4901 58.88 78.4401 59.36C77.6901 66.81 70.8801 71.2601 69.8001 71.9201C69.0201 72.6601 68.1901 73.3701 67.3001 74.0301C66.5001 74.6201 65.7001 75.1701 64.8901 75.6601C62.7001 77.0001 60.2801 78.1101 57.8901 78.8701C56.9701 79.1601 56.0601 79.4 55.1801 79.58C54.1401 80.44 52.8601 80.9101 51.3601 80.9901C51.3401 80.9901 51.3101 80.9901 51.2901 80.9901C51.2701 80.9901 51.24 80.9901 51.22 80.9901L51.2501 81.0101Z" fill="#2F150C"/>
<path d="M27.9301 43.84C28.8601 44.64 30.5601 45.2 31.6301 45.54C29.5201 49.25 28.0201 54.2 28.0201 60.07C28.0201 60.53 28.0501 60.98 28.1101 61.43C28.6901 65.87 32.0101 69.87 36.1601 72.91C36.9101 73.46 37.6801 73.98 38.4801 74.46C40.1801 75.49 41.9401 76.36 43.6701 77.04C45.1701 77.63 46.6301 78.08 48.0001 78.36C48.7501 79.07 49.8101 79.62 51.3201 79.7C52.8101 79.62 53.8701 79.08 54.6101 78.38C55.5601 78.2 56.5401 77.95 57.5201 77.64C59.7801 76.92 62.0801 75.88 64.2301 74.56C65.0201 74.07 65.7901 73.55 66.5401 72.99C67.6901 72.12 68.7701 71.18 69.7301 70.16C69.3201 70.68 69.0301 70.87 69.0301 70.87C69.0301 70.87 76.4201 66.58 77.1601 59.22C77.1601 59.22 76.4401 60.52 75.3901 61.26C75.3901 61.26 77.8501 55.54 77.5101 52.21C77.5101 52.21 77.0701 53.77 75.8501 55.08C75.8501 55.08 77.0001 49.44 76.1801 47.16C76.1801 47.16 75.9201 48.44 75.0301 49.88C74.9801 49.96 74.9301 50.04 74.8701 50.12C74.8701 50.12 75.3701 46.4 73.9001 43.02C76.5301 40.54 77.9201 38.04 78.8501 34.24C79.5101 31.53 80.0201 23.66 79.1501 22.97C78.2801 22.28 78.1301 23.02 76.4801 24.9C74.8401 26.78 71.9401 29.72 66.0101 32.96C63.8001 34.17 62.3801 35.82 61.4601 37.42C61.3501 36.96 60.4801 34.03 56.1701 33.63C51.4901 33.2 45.9201 34.26 46.8501 30.35C46.8501 30.35 43.8201 34.1 47.7201 35.97C47.7201 35.97 44.8801 34.77 43.2601 36.85C41.9601 37.13 40.8001 37.48 39.7701 37.9C38.8701 36.16 37.3801 34.29 34.9501 32.96C29.0101 29.71 26.1201 26.77 24.4801 24.9C22.8401 23.02 22.6801 22.28 21.8101 22.97C20.9401 23.66 21.4501 31.53 22.1101 34.24C23.1401 38.44 24.7201 41.05 27.9301 43.81V43.84Z" fill="#2F150C"/>
<path d="M69.1501 46.8301C69.1501 46.8301 72.6201 62.1601 71.6301 66.0001C70.6401 69.8401 69.04 70.9001 69.04 70.9001C69.04 70.9001 76.43 66.6101 77.17 59.2501C77.17 59.2501 76.4501 60.5501 75.4001 61.2901C75.4001 61.2901 77.8601 55.5701 77.5201 52.2401C77.5201 52.2401 77.08 53.8001 75.86 55.1101C75.86 55.1101 77.0101 49.4701 76.1901 47.1901C76.1901 47.1901 75.93 48.4701 75.04 49.9101C74.99 49.9901 74.9401 50.0701 74.8801 50.1501C74.8801 50.1501 75.42 46.1201 73.72 42.6401C73.72 42.6401 69.3801 44.8901 69.1401 46.8201L69.1501 46.8301Z" fill="#231E1B"/>
<path d="M78.8701 34.2801C77.8401 38.4801 76.26 41.0901 73.05 43.8501C72.11 44.6701 70.37 45.2301 69.3 45.5701C66.6 46.4101 63.8601 45.3401 62.0301 44.2801C60.6701 43.5001 59.8 42.7201 59.8 42.7201C59.8 42.7201 60.0901 36.27 66.0201 33.02C71.9601 29.77 74.8501 26.83 76.4901 24.96C78.1301 23.08 78.29 22.3401 79.16 23.0301C80.03 23.7201 79.52 31.59 78.86 34.3L78.8701 34.2801Z" fill="#685D52"/>
<path d="M72.32 43.77C71.38 44.59 70.36 45.22 69.29 45.56C66.59 46.4 63.85 45.33 62.02 44.27C62.64 41.85 64.15 37.7 67.53 35.62C72.47 32.58 77.68 27.25 78.12 25C78.12 25 79.78 36.18 72.31 43.77H72.32Z" fill="#F8A081"/>
<path d="M22.1101 34.2801C23.1401 38.4801 24.7201 41.0901 27.9301 43.8501C28.8701 44.6701 30.6101 45.2301 31.6801 45.5701C34.3801 46.4101 37.1201 45.3401 38.9501 44.2801C40.3101 43.5001 41.1801 42.7201 41.1801 42.7201C41.1801 42.7201 40.8901 36.27 34.9601 33.02C29.0201 29.77 26.1301 26.83 24.4901 24.96C22.8501 23.08 22.6901 22.3401 21.8201 23.0301C20.9501 23.7201 21.4601 31.59 22.1201 34.3L22.1101 34.2801Z" fill="#685D52"/>
<path d="M28.6501 43.77C29.6001 44.59 30.6101 45.22 31.6801 45.56C34.3801 46.4 37.1201 45.33 38.9501 44.27C38.3301 41.85 36.8201 37.7 33.4401 35.62C28.5001 32.58 23.2901 27.25 22.8501 25C22.8501 25 21.1901 36.18 28.6501 43.77Z" fill="#F8A081"/>
<path d="M74.35 60.07C74.35 60.39 74.33 60.71 74.31 61.03C74.31 61.15 74.29 61.27 74.27 61.38C73.75 65.88 70.62 69.94 66.54 73C65.79 73.55 65.02 74.08 64.23 74.57C60.21 77.03 55.66 78.56 51.83 78.72C51.71 78.72 51.59 78.72 51.46 78.73C51.37 78.73 51.27 78.73 51.17 78.73C47.72 78.73 42.85 77.13 38.46 74.46C37.67 73.98 36.89 73.46 36.14 72.91C31.99 69.87 28.67 65.87 28.09 61.43C28.03 60.98 28 60.53 28 60.07C28 50.98 31.62 44.09 35.48 40.58C38.5 37.84 43.04 36.17 51.17 36.17C58.81 36.17 63.8 37.88 66.85 40.58C70.76 44.04 74.33 50.97 74.33 60.07" fill="#685D52"/>
<path d="M51.1902 78.7401C47.7502 78.7401 42.6103 76.6701 38.4003 73.5901C33.5803 70.0601 30.5302 65.6801 30.0402 61.5701C29.9902 61.1601 29.9702 60.75 29.9702 60.33C29.9702 52.1 35.1802 42.1501 36.8602 40.5101C38.1402 39.2701 44.6702 36.1801 51.1902 36.1801C57.3302 36.1801 64.1703 39.2301 65.5303 40.5301C67.2603 42.1901 72.4102 52.13 72.4102 60.33C72.4102 60.63 72.4102 60.9301 72.3802 61.2201C72.3802 61.3301 72.3602 61.44 72.3502 61.55C71.3402 71.13 58.9703 78.5801 51.4503 78.7401H51.4902H51.2003" fill="#7C6F63"/>
<path d="M32.3501 56.5201C32.3501 56.5201 36.8301 65.7701 40.6601 65.7701C43.6001 65.7701 47.2701 64.2701 47.2701 64.2701C47.2701 64.2701 48.8301 48.8501 40.3201 48.3601C36.4901 48.1401 32.3501 56.5201 32.3501 56.5201Z" fill="#685D52"/>
<path d="M70.1001 56.5201C70.1001 56.5201 65.6201 65.7701 61.7901 65.7701C58.8501 65.7701 55.1801 64.2701 55.1801 64.2701C55.1801 64.2701 53.6202 48.8501 62.1302 48.3601C65.9602 48.1401 70.1001 56.5201 70.1001 56.5201Z" fill="#685D52"/>
<path d="M36.5 50.39C36.5 50.39 36.51 50.35 36.55 50.29C36.59 50.23 36.63 50.13 36.71 50.02C36.78 49.9 36.88 49.77 37 49.63C37.13 49.49 37.27 49.32 37.45 49.18C37.54 49.1 37.63 49.02 37.73 48.95C37.84 48.88 37.94 48.8 38.06 48.73C38.17 48.65 38.3 48.59 38.43 48.52C38.56 48.46 38.69 48.38 38.84 48.34C39.13 48.24 39.42 48.13 39.74 48.09C40.05 48.02 40.38 48.02 40.71 48.02C41.04 48.02 41.36 48.1 41.68 48.15C41.98 48.24 42.28 48.35 42.56 48.46C42.83 48.6 43.07 48.75 43.3 48.89C43.52 49.04 43.71 49.22 43.88 49.37C43.96 49.45 44.05 49.52 44.12 49.59C44.19 49.67 44.25 49.75 44.31 49.82C44.43 49.96 44.52 50.1 44.6 50.21C44.76 50.43 44.83 50.56 44.83 50.56C44.83 50.56 44.68 50.51 44.43 50.41C44.31 50.36 44.16 50.3 44.01 50.22C43.85 50.14 43.67 50.07 43.47 50C43.27 49.93 43.07 49.83 42.85 49.75C42.62 49.69 42.39 49.62 42.16 49.53C41.92 49.48 41.67 49.43 41.42 49.37C41.29 49.36 41.17 49.35 41.04 49.33C40.91 49.32 40.79 49.29 40.66 49.3C40.41 49.3 40.15 49.28 39.9 49.32C39.78 49.34 39.65 49.32 39.53 49.36C39.41 49.38 39.29 49.41 39.16 49.42C39.04 49.43 38.93 49.48 38.81 49.5C38.69 49.53 38.58 49.55 38.47 49.59C38.25 49.66 38.03 49.72 37.84 49.8C37.64 49.87 37.46 49.95 37.3 50.01C37.14 50.09 36.99 50.14 36.88 50.2C36.76 50.26 36.67 50.3 36.6 50.33C36.54 50.36 36.5 50.38 36.5 50.38V50.39Z" fill="#282320"/>
<path d="M66.0202 50.39C66.0202 50.39 65.9802 50.37 65.9202 50.34C65.8602 50.31 65.7602 50.27 65.6502 50.21C65.5402 50.15 65.3802 50.1 65.2302 50.02C65.0602 49.96 64.8902 49.88 64.6902 49.81C64.5002 49.73 64.2802 49.67 64.0602 49.6C63.9502 49.56 63.8402 49.54 63.7202 49.51C63.6002 49.49 63.4902 49.44 63.3702 49.43C63.2502 49.41 63.1302 49.39 63.0002 49.37C62.8802 49.34 62.7502 49.35 62.6302 49.33C62.3802 49.29 62.1302 49.31 61.8702 49.31C61.7402 49.3 61.6202 49.33 61.4902 49.34C61.3602 49.36 61.2402 49.37 61.1102 49.38C60.8702 49.44 60.6202 49.49 60.3702 49.54C60.1402 49.62 59.9002 49.69 59.6802 49.76C59.4602 49.84 59.2502 49.93 59.0502 50.01C58.8502 50.08 58.6602 50.15 58.5102 50.23C58.3502 50.31 58.2102 50.37 58.0902 50.42C57.8502 50.52 57.6902 50.57 57.6902 50.57C57.6902 50.57 57.7602 50.44 57.9202 50.22C58.0002 50.11 58.0902 49.98 58.2102 49.83C58.2702 49.76 58.3302 49.68 58.4002 49.6C58.4802 49.53 58.5602 49.45 58.6402 49.38C58.8202 49.23 59.0002 49.05 59.2202 48.9C59.4502 48.76 59.7002 48.61 59.9602 48.47C60.2402 48.36 60.5302 48.25 60.8402 48.16C61.1502 48.11 61.4802 48.03 61.8102 48.03C62.1402 48.03 62.4702 48.03 62.7802 48.1C63.1002 48.14 63.4002 48.25 63.6802 48.35C63.8302 48.4 63.9602 48.47 64.0902 48.53C64.2202 48.6 64.3502 48.65 64.4602 48.74C64.5702 48.82 64.6802 48.89 64.7902 48.96C64.8902 49.04 64.9802 49.12 65.0702 49.19C65.2502 49.34 65.3902 49.51 65.5202 49.64C65.6402 49.79 65.7402 49.92 65.8102 50.03C65.8902 50.14 65.9302 50.24 65.9702 50.3C66.0002 50.36 66.0202 50.4 66.0202 50.4V50.39Z" fill="#282320"/>
<path d="M47.27 64.28C40.21 67.64 35.24 65.47 33 56.74C33 56.74 41.49 50.14 46.01 58.6C46.71 59.91 47.28 64.27 47.28 64.27" fill="white"/>
<path d="M40.4501 64.83C38.4901 64.79 36.8502 63.2401 36.2102 61.0701C36.0202 60.4101 35.9201 59.6901 35.9301 58.9501C35.9901 55.9401 37.8602 54.8701 40.2102 54.8101C40.3602 54.8101 40.5002 54.8101 40.6502 54.8101C43.2102 54.8701 45.1501 57.5201 45.1901 59.1601C45.2801 62.3501 43.0001 64.8901 40.4401 64.8401" fill="#64413F"/>
<path d="M40.4702 64.0201C38.9802 63.9901 37.6802 62.7101 37.1402 60.7801C36.9702 60.1601 36.8902 59.5101 36.9002 58.8501C36.9502 56.6101 38.0102 55.5301 40.2402 55.4601C40.3502 55.4601 40.4602 55.4601 40.5802 55.4601H40.6402C42.6602 55.5101 44.2002 57.8601 44.2202 59.0701C44.2602 60.5301 43.7702 61.9201 42.8802 62.8901C42.2002 63.6301 41.3602 64.0401 40.5102 64.0401H40.4502" fill="#4F3231"/>
<path d="M55.1501 64.28C62.2101 67.64 67.1801 65.47 69.4201 56.74C69.4201 56.74 60.9301 50.14 56.4201 58.6C55.7201 59.91 55.1501 64.27 55.1501 64.27" fill="white"/>
<path d="M61.9801 64.83C63.9401 64.79 65.5801 63.2401 66.2201 61.0701C66.4101 60.4101 66.5101 59.6901 66.5001 58.9501C66.4401 55.9401 64.5701 54.8701 62.2201 54.8101C62.0701 54.8101 61.9302 54.8101 61.7802 54.8101C59.2202 54.8701 57.2801 57.5201 57.2401 59.1601C57.1501 62.3501 59.4401 64.8901 61.9901 64.8401" fill="#64413F"/>
<path d="M61.9001 64.0201C61.0501 64.0201 60.2101 63.6101 59.5301 62.8701C58.6401 61.9001 58.16 60.51 58.19 59.05C58.22 57.84 59.7601 55.4901 61.7801 55.4501H61.8301C61.9401 55.4501 62.06 55.4501 62.17 55.4501C64.4 55.5201 65.4701 56.6001 65.5101 58.8401C65.5201 59.5101 65.4401 60.1601 65.2701 60.7701C64.7401 62.7101 63.43 63.9801 61.94 64.0101H61.8901" fill="#4F3231"/>
<path d="M40.7601 57.7501C40.7201 59.6801 39.4301 61.2201 37.8801 61.1901C37.1801 61.1801 36.5501 60.84 36.0701 60.3C35.9001 59.72 35.8101 59.1001 35.8301 58.4401C35.8901 55.8101 37.5201 54.8701 39.5801 54.8101C40.3201 55.4501 40.7901 56.5301 40.7701 57.7401" fill="white"/>
<path d="M43.1902 63.3401C43.1802 63.9901 42.7402 64.5201 42.2102 64.5001C41.6802 64.4901 41.2702 63.9501 41.2802 63.2901C41.2902 62.6301 41.7302 62.1101 42.2602 62.1301C42.7902 62.1401 43.2002 62.6801 43.1902 63.3401Z" fill="white"/>
<path d="M61.8602 58.0501C61.8202 59.9801 60.5302 61.5201 58.9802 61.4901C58.2802 61.4701 57.6502 61.1401 57.1602 60.6001C56.9902 60.0201 56.9002 59.3901 56.9202 58.7401C56.9802 56.1101 58.6102 55.1701 60.6702 55.1101C61.4102 55.7501 61.8802 56.8301 61.8602 58.0401" fill="white"/>
<path d="M64.4902 63.3401C64.4802 63.9901 64.0402 64.5201 63.5102 64.5001C62.9802 64.4901 62.5703 63.9501 62.5803 63.2901C62.5903 62.6301 63.0302 62.1101 63.5602 62.1301C64.0902 62.1401 64.5002 62.6801 64.4802 63.3401H64.4902Z" fill="white"/>
<path d="M46 64.83C46.41 64.67 46.84 64.48 47.27 64.28C46.84 64.49 46.41 64.67 46 64.83Z" fill="#786C62"/>
<path d="M47.2703 64.2801C47.2703 64.2801 46.7002 59.92 46.0002 58.61C44.2402 55.31 41.8702 54.3 39.6302 54.3C36.1402 54.3 32.9902 56.7501 32.9902 56.7501C32.9902 56.7501 36.1502 54.3 39.6302 54.3C41.8602 54.3 44.2302 55.31 46.0002 58.61C46.6902 59.91 47.2503 64.1601 47.2703 64.2801Z" fill="#665C53"/>
<path d="M46 64.83C45.77 63.59 45.46 62.19 45.11 61.54C45.05 61.42 44.98 61.31 44.92 61.19C45.12 60.56 45.22 59.87 45.2 59.15C45.16 57.52 43.22 54.86 40.66 54.8C40.64 54.8 40.61 54.8 40.59 54.8C40.47 54.8 40.34 54.8 40.22 54.8C40.01 54.8 39.81 54.82 39.61 54.84C39.6 54.83 39.58 54.82 39.57 54.81C37.71 54.86 36.2 55.63 35.88 57.71C35 58 34.22 58.37 33.6 58.71C33.52 58.48 33.44 58.24 33.36 57.99C33.23 57.58 33.11 57.16 33 56.72C33 56.72 36.15 54.27 39.64 54.27C41.87 54.27 44.24 55.28 46.01 58.58C46.71 59.89 47.28 64.25 47.28 64.25C46.85 64.46 46.42 64.64 46.01 64.8" fill="#E2E1E1"/>
<path d="M44.9201 61.1901C44.6801 60.7701 44.4301 60.4 44.1701 60.05C44.2201 59.72 44.2301 59.39 44.2301 59.05C44.2001 57.84 42.6601 55.4901 40.6501 55.4501H40.5901C40.4801 55.4501 40.3701 55.4501 40.2501 55.4501C40.2101 55.4501 40.1701 55.4501 40.1301 55.4501C39.9801 55.2201 39.8001 55.0101 39.6101 54.8401C39.8101 54.8201 40.0101 54.8 40.2201 54.8C40.3401 54.8 40.4701 54.8 40.5901 54.8C40.6101 54.8 40.6401 54.8 40.6601 54.8C43.2201 54.86 45.1601 57.5101 45.2001 59.1501C45.2201 59.8701 45.1201 60.5601 44.9201 61.1901Z" fill="#624341"/>
<path d="M44.1701 60.0601C43.1301 58.6901 41.9501 57.9101 40.7501 57.5301C40.7301 56.7501 40.5001 56.0301 40.1201 55.4701C40.1601 55.4701 40.2001 55.4701 40.2401 55.4701C40.3501 55.4701 40.4601 55.4701 40.5801 55.4701H40.6401C42.6601 55.5201 44.2001 57.8701 44.2201 59.0801C44.2201 59.4201 44.2201 59.7501 44.1601 60.0801" fill="#513635"/>
<path d="M35.8801 57.7201C36.2001 55.6401 37.7101 54.8701 39.5701 54.8201C39.5801 54.8301 39.6001 54.8401 39.6101 54.8501C39.8001 55.0201 39.9801 55.2301 40.1301 55.4601C40.5001 56.0301 40.7301 56.7401 40.7601 57.5201C40.0901 57.3101 39.4201 57.2201 38.7501 57.2201C37.7401 57.2201 36.7601 57.4201 35.8801 57.7201Z" fill="#E2E1E1"/>
<path d="M56.4101 64.82C56.0001 64.66 55.5801 64.48 55.1501 64.27C55.1501 64.27 55.1501 64.23 55.1701 64.16C55.1701 64.23 55.1501 64.27 55.1501 64.27C55.5801 64.47 56.0001 64.66 56.4101 64.82Z" fill="#786C62"/>
<path d="M55.1702 64.17C55.2602 63.49 55.7902 59.79 56.4202 58.6C56.6302 58.2 56.8602 57.83 57.0902 57.5C56.8602 57.84 56.6402 58.21 56.4302 58.61C55.7902 59.8 55.2702 63.5 55.1802 64.18" fill="#665C53"/>
<path d="M56.4201 64.83C56.4201 64.83 56.4201 64.83 56.4101 64.83C56.0001 64.67 55.5801 64.48 55.1501 64.28C55.1501 64.28 55.1501 64.24 55.1701 64.17C55.2601 63.49 55.7901 59.79 56.4201 58.6C56.6301 58.2 56.8501 57.83 57.0801 57.5C56.9801 57.86 56.9201 58.28 56.9101 58.74C56.8901 59.39 56.9801 60.02 57.1501 60.6C57.2301 60.69 57.3101 60.77 57.4001 60.85C57.4301 60.97 57.4601 61.08 57.5001 61.19C57.4401 61.3 57.3701 61.42 57.3101 61.54C56.9701 62.19 56.6501 63.59 56.4201 64.83Z" fill="#E2E1E1"/>
<path d="M57.5102 61.1901C57.4702 61.0801 57.4402 60.9601 57.4102 60.8501C57.4702 60.9101 57.5402 60.9601 57.6102 61.0101C57.5702 61.0701 57.5402 61.1301 57.5102 61.1901Z" fill="#624341"/>
<path d="M69.05 58.05C69.18 57.63 69.31 57.19 69.42 56.74C69.42 56.74 66.27 54.29 62.78 54.29C61.6 54.29 60.38 54.57 59.23 55.33C60.38 54.57 61.6 54.29 62.79 54.29C66.27 54.29 69.43 56.74 69.43 56.74C69.31 57.19 69.19 57.63 69.06 58.05" fill="#665C53"/>
<path d="M68.8303 58.7301C68.1603 58.3601 67.3003 57.9501 66.3303 57.6601C65.8203 55.6401 64.1803 54.8801 62.2103 54.8201C62.0903 54.8201 61.9603 54.8201 61.8403 54.8201C61.8203 54.8201 61.7903 54.8201 61.7703 54.8201C61.2503 54.8301 60.7502 54.9501 60.2902 55.1501C59.9202 55.1801 59.5702 55.2501 59.2402 55.3501C60.3902 54.5901 61.6102 54.3101 62.7902 54.3101C66.2702 54.3101 69.4302 56.7601 69.4302 56.7601C69.3102 57.2101 69.1902 57.6501 69.0602 58.0701C68.9902 58.3001 68.9103 58.5301 68.8303 58.7501" fill="#E2E1E1"/>
<path d="M66.3301 57.6501C66.0001 57.5501 65.65 57.4601 65.3 57.3901C64.88 56.1301 63.8601 55.5101 62.1801 55.4601C62.0701 55.4601 61.9601 55.4601 61.8401 55.4601H61.79C61.55 55.4601 61.3101 55.5001 61.0901 55.5701C60.9601 55.4001 60.82 55.2501 60.67 55.1201C60.54 55.1201 60.41 55.1301 60.29 55.1401C60.75 54.9401 61.2501 54.8201 61.7701 54.8101C61.7901 54.8101 61.8201 54.8101 61.8401 54.8101C61.9601 54.8101 62.0901 54.8101 62.2101 54.8101C64.1801 54.8701 65.8201 55.6301 66.3301 57.6501Z" fill="#624341"/>
<path d="M61.8301 57.4801C61.7501 56.7401 61.4801 56.0801 61.0901 55.5601C61.3101 55.5001 61.55 55.4601 61.79 55.4501H61.8401C61.9501 55.4501 62.0701 55.4501 62.1801 55.4501C63.8601 55.5001 64.88 56.1201 65.3 57.3801C64.78 57.2801 64.2301 57.2201 63.6801 57.2201C63.0701 57.2201 62.4501 57.3001 61.8301 57.4701" fill="#513635"/>
<path d="M57.6102 61.0101C57.5402 60.9601 57.4702 60.9001 57.4102 60.8501C57.3202 60.7701 57.2402 60.6901 57.1602 60.6001C56.9902 60.0201 56.9002 59.3901 56.9202 58.7401C56.9202 58.2701 56.9903 57.8601 57.0903 57.5001C57.7503 56.5301 58.4802 55.8301 59.2402 55.3301C59.5702 55.2301 59.9202 55.1701 60.2902 55.1301C60.4202 55.1201 60.5402 55.1101 60.6702 55.1101C60.8202 55.2401 60.9603 55.3901 61.0903 55.5601C61.4903 56.0701 61.7503 56.7401 61.8303 57.4801C60.3203 57.9101 58.8402 58.9601 57.6102 61.0101Z" fill="#E2E1E1"/>
<path d="M47.2701 64.2801C47.1801 63.8501 47.0901 63.4201 46.9901 62.9901C46.9001 62.5601 46.8001 62.1301 46.7001 61.7101C46.6001 61.2801 46.4901 60.8601 46.3601 60.4401C46.2401 60.0101 46.1101 59.6401 45.9501 59.2301C45.8601 59.0401 45.7701 58.8001 45.6701 58.6601L45.3301 58.1201C45.0801 57.7701 44.8401 57.4201 44.5501 57.1101C44.4201 56.9501 44.2701 56.7901 44.1201 56.6501C43.9701 56.5001 43.8201 56.3601 43.6601 56.2301C43.5001 56.1001 43.3401 55.9601 43.1601 55.8601C42.9901 55.7401 42.8201 55.6301 42.6401 55.5401C42.2901 55.3301 41.9001 55.1901 41.5201 55.0701C41.1301 54.9501 40.7301 54.8801 40.3201 54.8401C39.9101 54.8101 39.5001 54.8001 39.1001 54.8401C38.6901 54.8701 38.2801 54.9501 37.8701 55.0401C37.0601 55.2301 36.2701 55.5201 35.5001 55.8901C35.1201 56.0701 34.7401 56.2701 34.3801 56.4901C34.0201 56.7001 33.6501 56.9401 33.3401 57.1701L33.5401 56.5901L33.8701 57.7301C33.9601 58.1201 34.1101 58.4801 34.2501 58.8501C34.3801 59.2201 34.5101 59.6001 34.6801 59.9501C34.8501 60.3001 34.9801 60.6801 35.1801 61.0101C35.3801 61.3401 35.5301 61.7101 35.7701 62.0101C36.0001 62.3101 36.1901 62.6701 36.4701 62.9301C36.7301 63.2101 36.9701 63.5201 37.2701 63.7501L37.7001 64.1301L38.1801 64.4401C38.4901 64.6701 38.8501 64.8001 39.1901 64.9601C39.5401 65.1201 39.9201 65.1801 40.2901 65.3001C40.6701 65.3501 41.0501 65.4301 41.4401 65.4401C41.8301 65.4401 42.2201 65.4801 42.6201 65.4201C43.0101 65.3701 43.4101 65.3701 43.8001 65.2801C44.1901 65.1901 44.5901 65.1501 44.9701 65.0201C45.3601 64.9001 45.7401 64.8101 46.1301 64.6701L47.2802 64.2601L47.2701 64.2801ZM47.2701 64.2801L46.1901 64.8401C45.8301 65.0201 45.4401 65.1501 45.0601 65.3101C44.6801 65.4801 44.2801 65.5601 43.8901 65.7001C43.5001 65.8401 43.0901 65.8801 42.6801 65.9701C42.2701 66.0701 41.8501 66.0501 41.4301 66.0901C41.0101 66.1001 40.5901 66.0501 40.1601 66.0201C39.7501 65.9201 39.3101 65.8801 38.9201 65.7201C38.5201 65.5601 38.1101 65.4301 37.7501 65.1901L37.1901 64.8701L36.6801 64.4701C36.3201 64.2201 36.0401 63.9001 35.7501 63.5901C35.4401 63.2901 35.2201 62.9301 34.9501 62.5901C34.6801 62.2601 34.5002 61.8801 34.2802 61.5201C34.0502 61.1601 33.8901 60.7801 33.7101 60.4001C33.5201 60.0201 33.3701 59.6301 33.2301 59.2401C33.0901 58.8501 32.9301 58.4601 32.8201 58.0601L32.4701 56.8701L32.3701 56.5201L32.6701 56.2901C33.0601 56.0001 33.4301 55.7501 33.8301 55.5201C34.2201 55.2901 34.6301 55.0801 35.0401 54.8801C35.8701 54.4901 36.7401 54.1801 37.6401 53.9801C38.1001 53.8801 38.5602 53.8101 39.0302 53.7901C39.5002 53.7501 39.9701 53.7801 40.4401 53.8201C40.9101 53.8801 41.3701 53.9801 41.8201 54.1301C42.0401 54.2101 42.2701 54.2801 42.4801 54.4001C42.6901 54.5001 42.9001 54.6101 43.1001 54.7401C43.3101 54.8601 43.5001 54.9901 43.6801 55.1401C43.8701 55.2701 44.0501 55.4301 44.2101 55.5901C44.3901 55.7401 44.5501 55.9101 44.7001 56.0801C44.8601 56.2501 45.0101 56.4201 45.1401 56.6101C45.4301 56.9701 45.6601 57.3601 45.9001 57.7501L46.2201 58.3501C46.3501 58.6001 46.3901 58.7701 46.4801 58.9901C46.6101 59.4201 46.7201 59.8901 46.7901 60.3201C46.8701 60.7601 46.9401 61.1901 47.0001 61.6301C47.1301 62.5101 47.2201 63.3901 47.2701 64.2701V64.2801Z" fill="#282320"/>
<path d="M55.1501 64.2801C55.2101 63.4001 55.3001 62.5201 55.4201 61.6401C55.4801 61.2001 55.5501 60.7601 55.6301 60.3301C55.7001 59.9001 55.8201 59.4301 55.9401 59.0001C56.0301 58.7901 56.0701 58.6001 56.2001 58.3601L56.5201 57.7601C56.7501 57.3701 56.9902 56.9801 57.2802 56.6201C57.4102 56.4301 57.5601 56.2601 57.7201 56.0901C57.8701 55.9201 58.0301 55.7501 58.2101 55.6001C58.3801 55.4401 58.5501 55.2801 58.7501 55.1501C58.9301 55.0001 59.1301 54.8701 59.3301 54.7501C59.5301 54.6201 59.7401 54.5101 59.9501 54.4101C60.1601 54.3001 60.3901 54.2201 60.6101 54.1401C61.0601 53.9901 61.5301 53.8901 61.9901 53.8301C62.4601 53.7801 62.9301 53.7601 63.4001 53.8001C63.8701 53.8201 64.3301 53.8901 64.7901 53.9901C65.6901 54.2001 66.5701 54.5001 67.3901 54.8901C67.8001 55.0901 68.2101 55.3001 68.6101 55.5301C69.0101 55.7601 69.3801 56.0101 69.7701 56.3001L70.0701 56.5301L69.9701 56.8801L69.6201 58.0701C69.5201 58.4701 69.3601 58.8601 69.2101 59.2501C69.0701 59.6401 68.9201 60.0301 68.7301 60.4101C68.5501 60.7901 68.3901 61.1701 68.1601 61.5301C67.9301 61.8901 67.7501 62.2701 67.4801 62.6001C67.2101 62.9301 67.0001 63.3001 66.6801 63.6001C66.3801 63.9101 66.1001 64.2301 65.7401 64.4801L65.2301 64.8801L64.6701 65.2001C64.3101 65.4401 63.9001 65.5701 63.5001 65.7301C63.1001 65.8901 62.6701 65.9301 62.2601 66.0301C61.8401 66.0601 61.4101 66.1101 60.9901 66.1001C60.5801 66.0601 60.1501 66.0801 59.7401 65.9801C59.3301 65.8901 58.9202 65.8501 58.5302 65.7101C58.1402 65.5801 57.7401 65.5001 57.3601 65.3201C56.9801 65.1601 56.5901 65.0301 56.2301 64.8501L55.1501 64.2901V64.2801ZM55.1501 64.2801L56.3001 64.6901C56.6801 64.8301 57.0701 64.9201 57.4601 65.0401C57.8401 65.1701 58.2401 65.2101 58.6301 65.3001C59.0201 65.4001 59.4201 65.4001 59.8101 65.4401C60.2001 65.4901 60.6001 65.4401 60.9901 65.4601C61.3801 65.4401 61.7601 65.3701 62.1401 65.3201C62.5101 65.2001 62.8901 65.1301 63.2401 64.9801C63.5901 64.8201 63.9501 64.6901 64.2501 64.4601L64.7301 64.1501L65.1601 63.7701C65.4601 63.5401 65.7001 63.2301 65.9601 62.9501C66.2301 62.6801 66.4201 62.3301 66.6501 62.0301C66.8901 61.7301 67.0401 61.3601 67.2401 61.0301C67.4401 60.7001 67.5701 60.3301 67.7401 59.9701C67.9101 59.6201 68.0501 59.2501 68.1801 58.8701C68.3101 58.5001 68.4601 58.1301 68.5501 57.7501L68.8801 56.6101L69.0801 57.1901C68.7701 56.9601 68.3901 56.7201 68.0401 56.5101C67.6801 56.2901 67.3001 56.0901 66.9201 55.9101C66.1601 55.5401 65.3601 55.2501 64.5501 55.0601C64.1401 54.9701 63.7401 54.8901 63.3201 54.8601C62.9101 54.8101 62.5001 54.8201 62.0901 54.8601C61.6901 54.9001 61.2801 54.9701 60.8901 55.0901C60.5001 55.2101 60.1201 55.3501 59.7701 55.5601C59.5901 55.6501 59.4101 55.7601 59.2401 55.8801C59.0601 55.9901 58.9001 56.1201 58.7401 56.2501C58.5701 56.3801 58.4302 56.5201 58.2802 56.6701C58.1202 56.8101 57.9801 56.9701 57.8501 57.1301C57.5601 57.4401 57.3201 57.7901 57.0701 58.1401L56.7301 58.6801C56.6401 58.8201 56.5501 59.0601 56.4501 59.2501C56.3001 59.6501 56.1601 60.0301 56.0401 60.4601C55.9101 60.8801 55.8101 61.3001 55.7001 61.7301C55.5901 62.1601 55.5001 62.5901 55.4101 63.0101C55.3101 63.4401 55.2201 63.8701 55.1301 64.3001L55.1501 64.2801Z" fill="#282320"/>
<path d="M64.24 74.58C60.23 77.04 55.67 78.5701 51.84 78.7301C51.72 78.7301 51.6 78.7301 51.47 78.7401C51.38 78.7401 51.28 78.7401 51.18 78.7401C47.73 78.7401 42.86 77.1401 38.48 74.4701C41.82 69.7401 45.08 68.3 51.32 68.3C57.56 68.3 60.9 69.79 64.24 74.58Z" fill="white"/>
<path d="M61.48 37.5201C61.48 37.5201 60.86 34.1001 56.17 33.6701C51.49 33.2401 45.92 34.3001 46.85 30.3901C46.85 30.3901 43.82 34.1401 47.72 36.0101C47.72 36.0101 42.97 33.9901 42.25 39.6801C42.25 39.6801 42.82 38.1701 45.27 38.0901C45.27 38.0901 42.75 41.9801 46.64 45.5801C46.64 45.5801 46.3 41.1901 49.93 39.7401C49.93 39.7401 49.46 42.1201 51.04 43.6301C51.04 43.6301 50.97 37.7201 55.8 38.3001C60.63 38.8801 60.47 38.4601 61.49 37.5101L61.48 37.5201Z" fill="#231E1B"/>
<path d="M51.32 74.7601C48.79 74.6901 46.23 74.6801 46.23 74.6801C46.23 74.6801 46.64 79.4601 51.32 79.7101C56 79.4601 56.4 74.6801 56.4 74.6801C56.4 74.6801 53.85 74.6801 51.32 74.7601Z" fill="#D1D2D1"/>
<path d="M54.8201 76.13C54.8201 76.72 53.4901 77.81 52.7401 78.14C52.2301 78.36 51.6701 78.5 51.2401 78.5C50.8101 78.5 50.2601 78.37 49.7501 78.15C49.0001 77.82 47.8201 76.66 47.8201 76.07C47.8201 75.07 50.1801 74.91 51.2401 74.91C52.3001 74.91 54.8101 75.15 54.8101 76.15L54.8201 76.13Z" fill="#723648"/>
<path d="M52.74 78.1401C52.23 78.3601 51.67 78.5001 51.24 78.5001C50.81 78.5001 50.26 78.3701 49.75 78.1501C49.85 77.7401 50.22 77.4401 50.66 77.4401C50.88 77.4401 51.08 77.5201 51.25 77.6501C51.41 77.5201 51.61 77.4401 51.83 77.4401C52.27 77.4401 52.64 77.7401 52.74 78.1501V78.1401Z" fill="#D36683"/>
<path d="M56.8802 70.54C56.8802 70.54 59.9803 69.57 58.0103 67.36C56.7603 65.95 55.4602 67.74 55.3802 68.07C55.3802 68.07 54.9202 64.89 51.3202 64.51C47.7202 64.89 47.2603 68.07 47.2603 68.07C47.1803 67.74 45.8802 65.96 44.6302 67.36C42.6702 69.57 45.7703 70.54 45.7703 70.54C45.3103 70.46 42.4602 71.62 44.3002 74.29C45.5802 76.15 49.1902 76.37 51.3202 76.34C53.4502 76.38 57.0603 76.16 58.3403 74.29C60.1803 71.62 57.3302 70.46 56.8702 70.54H56.8802Z" fill="white"/>
<path d="M55.5103 70.13C55.5103 70.13 57.3003 69.51 57.4603 68.82C57.6203 68.13 57.1702 67.86 56.6702 68.07C56.1702 68.28 55.5103 70.14 55.5103 70.14V70.13Z" fill="#282320"/>
<path d="M47.1301 70.13C47.1301 70.13 45.3301 69.51 45.1801 68.82C45.0201 68.13 45.4701 67.86 45.9701 68.07C46.4701 68.28 47.1301 70.14 47.1301 70.14V70.13Z" fill="#282320"/>
<path d="M43.74 73.3201C43.74 73.3201 43.72 73.3901 43.71 73.5101C43.69 73.6401 43.71 73.82 43.78 74.05C43.83 74.16 43.86 74.2801 43.95 74.4001C43.99 74.4601 44.02 74.52 44.07 74.58C44.12 74.64 44.17 74.6901 44.23 74.7501C44.33 74.8701 44.49 74.96 44.63 75.08C44.78 75.18 44.95 75.2701 45.12 75.3701C45.3 75.4501 45.5 75.53 45.7 75.61C45.91 75.67 46.12 75.74 46.34 75.8C46.56 75.87 46.8 75.9001 47.03 75.9501C47.15 75.9701 47.27 76.0001 47.39 76.0201C47.51 76.0401 47.64 76.0501 47.76 76.0701C48.01 76.1001 48.26 76.1401 48.52 76.1701C48.78 76.1901 49.04 76.2101 49.3 76.2301C49.83 76.2801 50.3699 76.2701 50.9099 76.2901C51.4499 76.3201 51.99 76.3101 52.52 76.2901C53.05 76.2701 53.57 76.2201 54.07 76.1601C55.07 76.0301 56 75.8401 56.74 75.5301C57.11 75.3701 57.43 75.1901 57.68 74.9901C57.94 74.7901 58.1099 74.56 58.2199 74.36C58.3299 74.15 58.39 73.9701 58.4 73.8501C58.42 73.7201 58.43 73.6601 58.43 73.6601C58.43 73.6601 58.43 73.73 58.42 73.86C58.42 73.93 58.4 74.0001 58.38 74.0901C58.36 74.1801 58.32 74.2801 58.27 74.3901C58.17 74.6101 58 74.8601 57.75 75.0901C57.5 75.3201 57.18 75.5301 56.8 75.7001C56.05 76.0501 55.11 76.3001 54.09 76.4401C53.58 76.5101 53.05 76.5601 52.52 76.5901C51.99 76.6201 51.43 76.63 50.89 76.61C50.34 76.58 49.8 76.5901 49.26 76.5301C48.99 76.5101 48.73 76.4801 48.46 76.4601C48.2 76.4301 47.94 76.3801 47.69 76.3501C47.56 76.3301 47.44 76.3101 47.31 76.2901C47.19 76.2701 47.06 76.2301 46.94 76.2001C46.7 76.1401 46.46 76.1001 46.24 76.0201C46.02 75.9401 45.8 75.87 45.59 75.8C45.39 75.71 45.19 75.6101 45 75.5301C44.83 75.4201 44.65 75.3201 44.5 75.2101C44.36 75.0801 44.21 74.9801 44.11 74.8401C44.06 74.7701 44.01 74.7101 43.95 74.6501C43.9 74.5901 43.87 74.5101 43.84 74.4501C43.76 74.3301 43.73 74.19 43.69 74.08C43.64 73.84 43.6399 73.6501 43.6599 73.5201C43.6799 73.3901 43.71 73.33 43.71 73.33L43.74 73.3201Z" fill="#492F2A"/>
</svg>
