<svg width="102" height="102" viewBox="0 0 102 102" fill="none" xmlns="http://www.w3.org/2000/svg">
<path d="M93.0901 0.650024H9.50006C4.71175 0.650024 0.830078 4.53173 0.830078 9.32004V92.91C0.830078 97.6983 4.71175 101.58 9.50006 101.58H93.0901C97.8784 101.58 101.76 97.6983 101.76 92.91V9.32004C101.76 4.53173 97.8784 0.650024 93.0901 0.650024Z" fill="#24B999"/>
<path d="M51.04 77.2801C48.79 77.2801 45.73 76.2501 42.83 74.5301C39.15 73.5601 35.91 72.0501 33.2 70.0301C25.22 66.4301 21.55 60.5801 22.59 53.1201C22.95 50.5501 24.03 48.9801 24.99 47.6001C25.53 46.8301 26.03 46.0901 26.37 45.2401C27.54 42.2401 28.46 40.0501 29.28 38.2801C26.5 37.1601 24.46 35.2601 23.78 33.0901C23.22 31.2901 23.63 29.4601 24.94 27.9201C26.66 25.9001 28.24 24.9501 29.91 24.9501C32.06 24.9501 33.73 26.5601 35.49 28.2601C35.73 28.4901 35.97 28.7201 36.22 28.9601C39.83 26.5801 44.56 26.0901 51.25 26.0901C57.94 26.0901 62.73 26.59 66.35 29.0201C66.61 28.7701 66.87 28.5201 67.13 28.2701C68.89 26.5601 70.56 24.9501 72.71 24.9501C74.38 24.9501 75.96 25.8901 77.68 27.9201C79 29.4701 79.41 31.31 78.83 33.11C78.14 35.3 76.05 37.2101 73.23 38.3201C74.06 40.1101 74.96 42.2801 76.12 45.2401C76.47 46.1401 76.97 46.9001 77.49 47.7001C78.38 49.0601 79.38 50.5901 79.88 53.0401C81.06 58.8201 78.69 63.4601 72.63 67.2301C69.7 70.1601 65.73 72.5001 61.13 73.9901C58.77 75.5401 55.05 77.2901 52.05 77.2901C51.89 77.2901 51.74 77.2901 51.59 77.2801C51.58 77.2801 51.56 77.2801 51.55 77.2801C51.54 77.2801 51.52 77.2801 51.51 77.2801C51.36 77.2801 51.2 77.2901 51.05 77.2901L51.04 77.2801Z" fill="#2F150C"/>
<path d="M24.0201 53.3201C23.0201 60.4901 26.7601 65.5901 33.9401 68.7801C36.8501 70.9901 40.1901 72.3601 43.3901 73.1801C45.9301 74.7201 49.1401 75.9701 51.4001 75.8201C51.4401 75.8201 51.4901 75.8201 51.5301 75.8101C51.5801 75.8101 51.6201 75.8101 51.6601 75.8201C54.1701 75.9801 57.8501 74.4301 60.4801 72.6601C64.5901 71.3501 68.6501 69.1801 71.7001 66.0701C77.2501 62.6601 79.5301 58.6501 78.4401 53.3101C77.7101 49.7201 75.7701 48.3701 74.7501 45.7501C73.4501 42.4201 72.3101 39.6901 71.1901 37.4401C76.3001 36.1201 79.3501 32.1201 76.5501 28.8301C72.2701 23.8001 70.2001 27.5201 66.4201 30.8601C63.1601 28.1701 58.7901 27.5101 51.2201 27.5101C43.6501 27.5101 39.3401 28.1701 36.0901 30.8101C32.3401 27.4901 30.2801 23.8301 26.0201 28.8401C23.2501 32.1001 26.2301 36.0701 31.2701 37.4201C30.1401 39.6701 29.0001 42.4101 27.7001 45.7601C26.6801 48.3801 24.5101 49.6901 24.0101 53.3201H24.0201Z" fill="#2F150C"/>
<path d="M78.4599 53.3201C77.7299 49.7301 75.7899 48.3801 74.7699 45.7601C73.4699 42.4301 72.3299 39.7001 71.2099 37.4501C76.3199 36.1301 79.3699 32.1301 76.5699 28.8401C72.2899 23.8101 70.2199 27.5301 66.4399 30.8701C63.1799 28.1801 58.8099 27.5201 51.2399 27.5201C43.6699 27.5201 39.3599 28.1801 36.1099 30.8201C32.3599 27.5001 30.2999 23.8401 26.0399 28.8501C23.2699 32.1101 26.2499 36.0801 31.2899 37.4301C30.1599 39.6801 29.0198 42.4201 27.7198 45.7701C26.6998 48.3901 24.5299 49.7001 24.0299 53.3301C23.0299 60.5001 26.7699 65.6001 33.9499 68.7901C39.4899 72.9801 46.5799 74.2101 51.2799 74.2101C51.3899 74.2101 51.4899 74.2101 51.5999 74.2101C57.9899 74.0901 66.3799 71.5301 71.7299 66.0901C77.2799 62.6801 79.5598 58.6701 78.4698 53.3301" fill="#C9C9C9"/>
<path d="M51.2798 72.7901C46.6098 72.7901 39.7498 71.1301 34.5998 67.2401L34.4998 67.1701L34.3898 67.1201C30.0198 65.1801 23.9398 61.3901 25.0898 53.1201C25.3298 51.4201 25.9098 50.9101 26.7298 50.2001C27.4198 49.6001 28.1998 47.1501 28.7298 45.8001C34.6898 30.5401 36.6998 28.2401 51.2498 28.2401C65.7998 28.2401 67.8098 30.5401 73.7698 45.8001C74.2998 47.1601 75.0398 49.6101 75.6998 50.2201C76.4598 50.9201 77.0598 51.4801 77.4098 53.1901C78.6498 59.2801 74.4298 62.8401 71.1598 64.8401L71.0498 64.9101L70.9598 65.0001C66.0298 70.0201 57.8798 72.6801 51.5798 72.7901H51.2798Z" fill="#D8D8D8"/>
<path d="M61.3698 62.3601C61.1198 62.0201 58.8898 60.2501 57.6998 60.4101C56.4698 60.5801 55.5798 61.5801 55.5798 61.5801C55.5798 61.5801 53.1598 61.0501 51.5298 61.0001C50.8798 61.0201 46.9298 61.5801 46.9298 61.5801C46.9298 61.5801 45.7098 59.9001 43.7098 60.3101C42.6598 60.5301 41.8398 61.8501 41.5598 62.2301C40.5798 63.5601 38.7898 67.1001 39.4098 69.4401C40.0398 71.7701 47.2998 76.1001 51.3998 75.8401C51.4398 75.8401 51.4898 75.8401 51.5298 75.8301C51.5798 75.8301 51.6198 75.8301 51.6598 75.8401C55.7598 76.1001 63.0198 71.7801 63.6498 69.4401C64.2798 67.1101 62.3398 63.6901 61.3598 62.3701L61.3698 62.3601Z" fill="#EDB2B2"/>
<path d="M30.3899 49.9901C30.3899 49.9901 35.3499 60.0801 39.6099 60.0801C42.8699 60.0801 46.9399 58.4401 46.9399 58.4401C46.9399 58.4401 48.6699 41.6301 39.2299 41.1001C34.9799 40.8601 30.3899 50.0001 30.3899 50.0001" fill="#C9C9C9"/>
<path d="M72.2499 49.9901C72.2499 49.9901 67.2799 60.0801 63.0299 60.0801C59.7699 60.0801 55.6999 58.4401 55.6999 58.4401C55.6999 58.4401 53.9699 41.6301 63.4099 41.1001C67.6599 40.8601 72.2499 50.0001 72.2499 50.0001" fill="#C9C9C9"/>
<path d="M34.9897 43.3101C34.9897 43.3101 34.9997 43.2701 35.0397 43.2001C35.0797 43.1301 35.1297 43.0201 35.2197 42.9001C35.2997 42.7701 35.4097 42.6301 35.5497 42.4701C35.6897 42.3201 35.8397 42.1301 36.0397 41.9701C36.1397 41.8901 36.2397 41.8001 36.3597 41.7101C36.4797 41.6301 36.5997 41.5501 36.7197 41.4701C36.8397 41.3801 36.9898 41.3201 37.1298 41.2501C37.2698 41.1801 37.4198 41.1 37.5798 41.05C37.8898 40.94 38.2298 40.8201 38.5798 40.7801C38.9298 40.7001 39.2897 40.7101 39.6597 40.7001C40.0197 40.7001 40.3797 40.7901 40.7197 40.8401C41.0597 40.9401 41.3898 41.0601 41.6898 41.1801C41.9798 41.3401 42.2598 41.4901 42.5098 41.6501C42.7598 41.8201 42.9597 42.0101 43.1597 42.1801C43.2497 42.2701 43.3497 42.3501 43.4297 42.4301C43.5097 42.5101 43.5798 42.6001 43.6398 42.6801C43.7698 42.8401 43.8798 42.99 43.9598 43.11C44.1298 43.35 44.2197 43.5001 44.2197 43.5001C44.2197 43.5001 44.0498 43.4501 43.7798 43.3401C43.6498 43.2801 43.4798 43.2201 43.3098 43.1401C43.1398 43.0501 42.9298 42.9801 42.6998 42.9001C42.4798 42.8201 42.2498 42.7201 42.0098 42.6401C41.7598 42.5701 41.4997 42.4901 41.2397 42.4101C40.9697 42.3601 40.6997 42.3101 40.4197 42.2401C40.2797 42.2301 40.1398 42.2201 39.9998 42.2001C39.8598 42.1901 39.7198 42.1501 39.5798 42.1701C39.2998 42.1701 39.0197 42.1501 38.7397 42.1901C38.5997 42.2101 38.4598 42.1901 38.3298 42.2301C38.1898 42.2601 38.0597 42.28 37.9197 42.3C37.7897 42.31 37.6598 42.3701 37.5298 42.3901C37.3998 42.4201 37.2698 42.4501 37.1498 42.4901C36.8998 42.5601 36.6698 42.6301 36.4498 42.7201C36.2298 42.7901 36.0297 42.8801 35.8497 42.9501C35.6797 43.0301 35.5098 43.0901 35.3798 43.1601C35.2498 43.2201 35.1498 43.27 35.0798 43.3C35.0098 43.33 34.9697 43.3501 34.9697 43.3501L34.9897 43.3101Z" fill="#3D3D3D"/>
<path d="M67.49 43.3102C67.49 43.3102 67.45 43.2902 67.38 43.2602C67.31 43.2302 67.21 43.1801 67.07 43.1201C66.94 43.0601 66.78 43.0002 66.6 42.9102C66.42 42.8402 66.22 42.7501 66 42.6801C65.78 42.6001 65.55 42.5302 65.3 42.4502C65.18 42.4102 65.05 42.3802 64.92 42.3502C64.79 42.3302 64.66 42.2702 64.53 42.2602C64.4 42.2402 64.26 42.2202 64.13 42.1902C64 42.1602 63.86 42.1701 63.72 42.1501C63.44 42.1101 63.16 42.1302 62.88 42.1302C62.74 42.1202 62.6 42.1502 62.46 42.1602C62.32 42.1802 62.18 42.1902 62.04 42.2002C61.77 42.2702 61.49 42.3201 61.22 42.3701C60.96 42.4601 60.7 42.5302 60.45 42.6002C60.2 42.6802 59.98 42.7901 59.76 42.8601C59.54 42.9401 59.33 43.0102 59.16 43.1002C58.98 43.1802 58.82 43.2501 58.69 43.3001C58.42 43.4101 58.25 43.4601 58.25 43.4601C58.25 43.4601 58.33 43.3102 58.51 43.0702C58.6 42.9502 58.7 42.8002 58.83 42.6402C58.9 42.5602 58.96 42.4702 59.05 42.3902C59.13 42.3102 59.22 42.2302 59.32 42.1402C59.52 41.9702 59.72 41.7801 59.97 41.6101C60.22 41.4601 60.5 41.3002 60.79 41.1402C61.1 41.0202 61.43 40.9001 61.76 40.8001C62.11 40.7401 62.46 40.6602 62.83 40.6602C63.19 40.6602 63.56 40.6601 63.91 40.7401C64.26 40.7801 64.59 40.9002 64.91 41.0102C65.07 41.0602 65.21 41.1401 65.35 41.2101C65.49 41.2801 65.64 41.3401 65.76 41.4301C65.89 41.5101 66.01 41.5902 66.12 41.6702C66.23 41.7502 66.34 41.8401 66.43 41.9301C66.63 42.0901 66.79 42.2801 66.93 42.4301C67.06 42.5901 67.18 42.7301 67.25 42.8601C67.34 42.9801 67.39 43.0902 67.43 43.1602C67.47 43.2302 67.48 43.2701 67.48 43.2701L67.49 43.3102Z" fill="#3D3D3D"/>
<path d="M46.9299 58.4401C39.0999 62.1101 33.5799 59.7301 31.0999 50.2301C31.0999 50.2301 40.5199 43.0401 45.5299 52.2601C46.3099 53.6901 46.9399 58.4401 46.9399 58.4401" fill="white"/>
<path d="M39.36 59.0501C37.18 59.0001 35.36 57.3101 34.66 54.9601C34.44 54.2401 34.33 53.4601 34.35 52.6501C34.42 49.3701 36.49 48.2101 39.1 48.1301C39.26 48.1301 39.42 48.1301 39.59 48.1301C42.43 48.1901 44.58 51.0901 44.63 52.8701C44.73 56.3501 42.2 59.1201 39.36 59.0601" fill="#64413F"/>
<path d="M39.3898 58.1601C37.7398 58.1201 36.2898 56.7401 35.6998 54.6301C35.5098 53.9601 35.4197 53.2501 35.4397 52.5201C35.4897 50.0801 36.6698 48.9001 39.1498 48.8301C39.2698 48.8301 39.3998 48.8301 39.5198 48.8301H39.5898C41.8298 48.8801 43.5298 51.4401 43.5698 52.7601C43.6098 54.3501 43.0698 55.8701 42.0898 56.9201C41.3398 57.7301 40.3998 58.1701 39.4598 58.1701H39.3998" fill="#4F3231"/>
<path d="M55.6799 58.4401C63.5099 62.1101 69.0299 59.7301 71.5099 50.2301C71.5099 50.2301 62.09 43.0401 57.08 52.2601C56.31 53.6901 55.6799 58.4401 55.6799 58.4401Z" fill="white"/>
<path d="M63.2499 59.0501C65.4299 59.0001 67.2499 57.3101 67.9499 54.9601C68.1699 54.2401 68.2699 53.4601 68.2599 52.6501C68.1899 49.3701 66.1199 48.2101 63.5099 48.1301C63.3499 48.1301 63.1799 48.1301 63.0199 48.1301C60.1799 48.1901 58.0299 51.0901 57.9799 52.8701C57.8799 56.3501 60.4199 59.1201 63.2499 59.0601" fill="#64413F"/>
<path d="M63.1598 58.1601C62.2198 58.1601 61.2898 57.7201 60.5398 56.9101C59.5498 55.8601 59.0098 54.3401 59.0598 52.7501C59.0898 51.4301 60.7998 48.8701 63.0398 48.8201H63.0998C63.2198 48.8201 63.3498 48.8201 63.4698 48.8201C65.9498 48.9001 67.1298 50.0701 67.1698 52.5101C67.1898 53.2401 67.0998 53.95 66.9098 54.61C66.3198 56.72 64.8698 58.1101 63.2198 58.1501H63.1499" fill="#4F3231"/>
<path d="M39.7099 51.3301C39.6699 53.4301 38.2298 55.1201 36.5098 55.0801C35.7298 55.0601 35.0298 54.7001 34.4998 54.1101C34.3098 53.4801 34.2098 52.8001 34.2298 52.0901C34.2898 49.2201 36.0998 48.2001 38.3898 48.1301C39.2098 48.8301 39.7399 50.0101 39.7099 51.3301Z" fill="white"/>
<path d="M42.9197 64.0101C43.1597 64.8001 44.4397 65.69 45.1297 65.61C45.8097 65.53 46.1297 64.7301 45.8897 63.9401C45.6497 63.1501 44.3997 62.3601 43.7197 62.4401C43.0297 62.5201 42.6797 63.2201 42.9197 64.0101Z" fill="#A46C6C"/>
<path d="M60.28 64.15C59.81 64.9 58.37 65.6601 57.72 65.5101C57.07 65.3601 56.85 64.62 57.31 63.87C57.78 63.12 59.28 62.37 59.94 62.52C60.59 62.67 60.74 63.39 60.28 64.15Z" fill="#A46C6C"/>
<path d="M43.4499 64.3301C43.6899 65.1201 44.4399 65.6901 45.1299 65.6201C45.8099 65.5401 46.1699 64.8401 45.9299 64.0501C45.6799 63.2601 44.9299 62.6901 44.2499 62.7601C43.5699 62.8401 43.2099 63.5401 43.4499 64.3301Z" fill="#281818"/>
<path d="M59.6698 64.4101C59.1998 65.1601 58.2999 65.6501 57.6499 65.5001C56.9999 65.3501 56.8498 64.6201 57.3098 63.8701C57.7798 63.1201 58.6799 62.6301 59.3299 62.7801C59.9799 62.9301 60.1298 63.6601 59.6698 64.4101Z" fill="#281818"/>
<path d="M42.41 57.4301C42.39 58.1401 41.91 58.7101 41.33 58.7001C40.75 58.6901 40.29 58.1001 40.3 57.3901C40.31 56.6801 40.8 56.1101 41.38 56.1201C41.96 56.1301 42.42 56.7201 42.41 57.4301Z" fill="white"/>
<path d="M63.12 51.6501C63.07 53.7501 61.6399 55.4401 59.9199 55.4001C59.1399 55.3801 58.4399 55.0201 57.9099 54.4301C57.7199 53.8001 57.62 53.1201 57.64 52.4101C57.7 49.5401 59.52 48.5201 61.81 48.4501C62.63 49.1501 63.16 50.3301 63.13 51.6501" fill="white"/>
<path d="M66.0299 57.4301C66.0199 58.1401 65.5299 58.7101 64.9499 58.7001C64.3699 58.6901 63.9098 58.1001 63.9198 57.3901C63.9398 56.6801 64.4199 56.1101 65.0099 56.1201C65.5899 56.1301 66.0498 56.7201 66.0398 57.4301H66.0299Z" fill="white"/>
<path d="M45.5298 59.05C45.9898 58.87 46.4598 58.6701 46.9398 58.4501C46.4598 58.6801 45.9898 58.88 45.5298 59.05Z" fill="#C5C5C5"/>
<path d="M46.9299 58.4401C46.9299 58.4401 46.2999 53.6901 45.5199 52.2601C43.5599 48.6601 40.9399 47.5601 38.4599 47.5601C40.9399 47.5601 43.5699 48.6601 45.5199 52.2601C46.2799 53.6701 46.9099 58.3101 46.9199 58.4401" fill="#B9B8B8"/>
<path d="M45.5298 59.05C45.2698 57.69 44.9198 56.1701 44.5398 55.4701C44.4698 55.3401 44.3998 55.2101 44.3198 55.0901C44.5398 54.4001 44.6498 53.65 44.6298 52.86C44.5798 51.08 42.4298 48.1801 39.5898 48.1201C39.5598 48.1201 39.5398 48.1201 39.5098 48.1201C39.3698 48.1201 39.2398 48.1201 39.0998 48.1201C38.8698 48.1201 38.6398 48.1401 38.4198 48.1701C38.4098 48.1601 38.3898 48.1501 38.3798 48.1301C36.3198 48.1901 34.6398 49.03 34.2798 51.3C33.3098 51.61 32.4398 52.0201 31.7498 52.3901C31.6798 52.2001 31.6198 52.0101 31.5498 51.8101C31.3898 51.3001 31.2298 50.7701 31.0798 50.2201C31.1398 50.1701 34.6098 47.55 38.4498 47.55C40.9298 47.55 43.5498 48.6501 45.5098 52.2501C46.2898 53.6801 46.9198 58.4301 46.9198 58.4301C46.4398 58.6501 45.9698 58.8601 45.5098 59.0301" fill="#E2E1E1"/>
<path d="M44.33 55.0801C44.07 54.6301 43.7899 54.2101 43.4999 53.8401C43.5499 53.4801 43.5799 53.1201 43.5599 52.7501C43.5199 51.4301 41.82 48.8701 39.58 48.8201H39.5099C39.3799 48.8201 39.26 48.8201 39.14 48.8201C39.09 48.8201 39.0499 48.8201 39.0099 48.8201C38.8399 48.5701 38.6499 48.3401 38.4299 48.1501C38.6499 48.1301 38.8799 48.1101 39.1099 48.1001C39.2399 48.1001 39.38 48.1001 39.52 48.1001C39.55 48.1001 39.5699 48.1001 39.5999 48.1001C42.4399 48.1601 44.59 51.0601 44.64 52.8401C44.66 53.6301 44.55 54.3801 44.33 55.0701" fill="#624341"/>
<path d="M43.4998 53.8401C42.3498 52.3501 41.0398 51.5001 39.7098 51.0801C39.6798 50.2301 39.4298 49.4501 39.0098 48.8301C39.0498 48.8301 39.0998 48.8301 39.1398 48.8301C39.2598 48.8301 39.3898 48.8301 39.5098 48.8301H39.5798C41.8198 48.8801 43.5198 51.4401 43.5598 52.7601C43.5698 53.1301 43.5498 53.4901 43.4998 53.8501" fill="#513635"/>
<path d="M34.2898 51.3001C34.6498 49.0301 36.3198 48.1901 38.3898 48.1301C38.3998 48.1401 38.4198 48.1501 38.4298 48.1701C38.6498 48.3601 38.8398 48.5801 39.0098 48.8401C39.4298 49.4601 39.6798 50.2401 39.7098 51.0901C38.9698 50.8601 38.2198 50.7601 37.4798 50.7601C36.3598 50.7601 35.2698 50.9801 34.2898 51.3001Z" fill="#E2E1E1"/>
<path d="M57.09 59.0501C56.63 58.8701 56.1599 58.6701 55.6799 58.4501C55.6799 58.4501 55.68 58.4101 55.7 58.3301C55.69 58.4101 55.6899 58.4501 55.6899 58.4501C56.1699 58.6701 56.6399 58.8801 57.0999 59.0501" fill="#C5C5C5"/>
<path d="M55.6899 58.33C55.7899 57.58 56.38 53.5601 57.08 52.2601C57.32 51.8201 57.5599 51.4201 57.8199 51.0601C57.5599 51.4301 57.32 51.8301 57.08 52.2601C56.38 53.5601 55.7899 57.59 55.6899 58.33Z" fill="#B9B8B8"/>
<path d="M57.09 59.05C56.63 58.87 56.1599 58.6701 55.6799 58.4501C55.6799 58.4501 55.6799 58.41 55.6899 58.33C55.7899 57.59 56.38 53.5601 57.08 52.2601C57.32 51.8201 57.5599 51.4301 57.8199 51.0601C57.6999 51.4601 57.6399 51.9101 57.6299 52.4101C57.6199 53.1201 57.71 53.8101 57.9 54.4301C57.99 54.5301 58.0799 54.6201 58.1699 54.7001C58.1999 54.8301 58.24 54.95 58.28 55.08C58.21 55.2 58.1399 55.3301 58.0699 55.4601C57.6899 56.1701 57.34 57.6901 57.08 59.0401" fill="#E2E1E1"/>
<path d="M58.2899 55.08C58.2499 54.96 58.2099 54.8301 58.1799 54.7001C58.2499 54.7601 58.3299 54.8201 58.4099 54.8801C58.3699 54.9401 58.3299 55.01 58.2899 55.08Z" fill="#624341"/>
<path d="M60.2 48.6901C61.47 47.8601 62.83 47.5601 64.15 47.5601C62.84 47.5601 61.48 47.8701 60.21 48.6901" fill="#B9B8B8"/>
<path d="M70.8499 52.3901C70.0999 51.9901 69.1499 51.5401 68.0699 51.2201C67.4999 49.0201 65.6899 48.1801 63.4999 48.1201C63.3599 48.1201 63.23 48.1201 63.09 48.1201C63.06 48.1201 63.0399 48.1201 63.0099 48.1201C62.4299 48.1301 61.8799 48.2601 61.3699 48.4801C60.9599 48.5101 60.57 48.5801 60.2 48.6901C61.47 47.8701 62.83 47.5601 64.14 47.5601C67.97 47.5601 71.4399 50.1801 71.4999 50.2301C71.3599 50.7701 71.1999 51.2901 71.0499 51.7901C70.9799 52.0001 70.91 52.2001 70.84 52.3901" fill="#E2E1E1"/>
<path d="M68.0699 51.2201C67.6999 51.1101 67.3199 51.0101 66.9299 50.9401C66.4599 49.5701 65.3298 48.8901 63.4698 48.8301C63.3498 48.8301 63.2199 48.8301 63.0999 48.8301H63.0399C62.7699 48.8301 62.5099 48.8801 62.2599 48.9501C62.1199 48.7701 61.9599 48.6001 61.7899 48.4601C61.6499 48.4601 61.4999 48.4701 61.3599 48.4801C61.8699 48.2601 62.4199 48.1301 62.9999 48.1201C63.0299 48.1201 63.0499 48.1201 63.0799 48.1201C63.2099 48.1201 63.3499 48.1201 63.4899 48.1201C65.6799 48.1801 67.4899 49.0201 68.0599 51.2201" fill="#624341"/>
<path d="M63.09 51.0301C63 50.2201 62.7 49.5001 62.27 48.9401C62.52 48.8701 62.78 48.8301 63.05 48.8201H63.11C63.23 48.8201 63.36 48.8201 63.48 48.8201C65.34 48.8801 66.47 49.5501 66.94 50.9301C66.36 50.8201 65.76 50.7501 65.15 50.7501C64.47 50.7501 63.78 50.8301 63.1 51.0201" fill="#513635"/>
<path d="M58.4099 54.8801C58.3299 54.8201 58.2499 54.7601 58.1799 54.7001C58.0899 54.6201 57.9899 54.5301 57.9099 54.4301C57.7199 53.8001 57.62 53.1201 57.64 52.4101C57.65 51.9001 57.72 51.4501 57.83 51.0601C58.57 50.0001 59.37 49.2401 60.21 48.6901C60.57 48.5801 60.96 48.5101 61.38 48.4801C61.52 48.4701 61.66 48.4601 61.81 48.4601C61.98 48.6001 62.13 48.7701 62.28 48.9501C62.72 49.5101 63.0099 50.2401 63.0999 51.0401C61.4199 51.5101 59.7799 52.6501 58.4199 54.8901" fill="#E2E1E1"/>
<path d="M46.9299 58.4401C46.8299 57.9701 46.7199 57.5001 46.6199 57.0301C46.5199 56.5601 46.4099 56.0901 46.2999 55.6301C46.1799 55.1601 46.0699 54.7001 45.9199 54.2501C45.7899 53.7801 45.6398 53.3701 45.4698 52.9301C45.3698 52.7301 45.2699 52.4601 45.1699 52.3101L44.7899 51.7201C44.5199 51.3401 44.2399 50.9601 43.9199 50.6201C43.7699 50.4401 43.6199 50.2801 43.4399 50.1201C43.2799 49.9601 43.1099 49.8001 42.9299 49.6601C42.7499 49.5101 42.5799 49.3701 42.3799 49.2501C42.1899 49.1201 41.9999 49.0001 41.7999 48.9001C41.4099 48.6801 40.9799 48.5201 40.5499 48.3901C40.1199 48.2601 39.6699 48.1801 39.2299 48.1401C38.7799 48.1101 38.3199 48.1001 37.8699 48.1401C37.4199 48.1701 36.9599 48.2601 36.5099 48.3601C35.6099 48.5701 34.7299 48.8901 33.8899 49.2901C33.4699 49.4901 33.0499 49.7101 32.6499 49.9501C32.2599 50.1801 31.8399 50.4401 31.4999 50.7001L31.7198 50.0701L32.0799 51.3201C32.1799 51.7401 32.3499 52.1401 32.4999 52.5401C32.6399 52.9501 32.7999 53.3501 32.9799 53.7301C33.1699 54.1101 33.3099 54.5201 33.5399 54.8801C33.7599 55.2401 33.9299 55.6401 34.1899 55.9701C34.4499 56.3001 34.6599 56.6801 34.9599 56.9701C35.2499 57.2801 35.5099 57.6101 35.8399 57.8601L36.3199 58.2701L36.8499 58.6101C37.1899 58.8601 37.5899 59.0001 37.9799 59.1801C38.3599 59.3501 38.7899 59.4201 39.1899 59.5501C39.6199 59.6001 40.0398 59.6901 40.4698 59.7101C40.8998 59.7001 41.3399 59.7501 41.7799 59.6901C42.2099 59.6401 42.6599 59.6401 43.0899 59.5301C43.5199 59.4301 43.9699 59.3901 44.3899 59.2501C44.8199 59.1201 45.2499 59.0201 45.6699 58.8701L46.9399 58.4201L46.9299 58.4401ZM46.9299 58.4401L45.7299 59.0501C45.3299 59.2501 44.8999 59.3901 44.4799 59.5701C44.0599 59.7601 43.6099 59.8501 43.1799 59.9901C42.7499 60.1401 42.2899 60.1901 41.8399 60.2901C41.3899 60.4001 40.9199 60.3701 40.4599 60.4201C39.9899 60.4301 39.5299 60.3701 39.0599 60.3501C38.5999 60.2401 38.1199 60.1901 37.6799 60.0201C37.2399 59.8501 36.7799 59.7001 36.3799 59.4501L35.7599 59.1001L35.1999 58.6701C34.7999 58.4001 34.4899 58.0501 34.1599 57.7101C33.8099 57.3901 33.5699 56.9901 33.2699 56.6201C32.9699 56.2601 32.7699 55.8401 32.5199 55.4501C32.2599 55.0601 32.0899 54.6401 31.8899 54.2301C31.6799 53.8201 31.5099 53.4001 31.3599 52.9701C31.1999 52.5401 31.0199 52.1201 30.9099 51.6901L30.5199 50.3901L30.3999 50.0001L30.7399 49.7501C31.1699 49.4301 31.5799 49.1601 32.0199 48.9101C32.4599 48.6601 32.8999 48.4301 33.3699 48.2101C34.2899 47.7801 35.2499 47.4501 36.2599 47.2301C36.7599 47.1201 37.2799 47.0501 37.7999 47.0201C38.3199 46.9801 38.8399 47.0101 39.3599 47.0601C39.8799 47.1301 40.3999 47.2301 40.8899 47.4001C41.1399 47.4901 41.3899 47.5701 41.6199 47.6901C41.8599 47.8001 42.0899 47.9201 42.3099 48.0601C42.5399 48.1901 42.7499 48.3401 42.9599 48.4901C43.1699 48.6401 43.3599 48.8101 43.5599 48.9801C43.7499 49.1501 43.9299 49.3301 44.0999 49.5201C44.2799 49.7001 44.4499 49.8901 44.5899 50.1001C44.9099 50.4901 45.1699 50.9201 45.4299 51.3401L45.7799 51.9901C45.9199 52.2601 45.9599 52.4501 46.0599 52.6901C46.1999 53.1601 46.3299 53.6701 46.4099 54.1401C46.4999 54.6201 46.5799 55.0901 46.6399 55.5701C46.7799 56.5201 46.8799 57.4801 46.9399 58.4401H46.9299Z" fill="#3D3D3D"/>
<path d="M55.6799 58.4401C55.7399 57.4801 55.8399 56.5201 55.9799 55.5701C56.0499 55.0901 56.12 54.6101 56.21 54.1401C56.29 53.6701 56.4199 53.1601 56.5599 52.6901C56.6599 52.4601 56.7 52.2601 56.84 51.9901L57.2 51.3401C57.46 50.9201 57.7199 50.4901 58.0399 50.1001C58.1899 49.9001 58.35 49.7101 58.53 49.5201C58.7 49.3301 58.88 49.1501 59.08 48.9801C59.27 48.8101 59.4599 48.6401 59.6799 48.4901C59.8899 48.3301 60.0999 48.1801 60.3199 48.0601C60.5399 47.9201 60.7699 47.8001 61.0099 47.6901C61.2399 47.5701 61.4899 47.4901 61.7399 47.4001C62.2399 47.2301 62.75 47.1201 63.27 47.0601C63.79 47.0101 64.32 46.9801 64.84 47.0201C65.36 47.0401 65.8699 47.1201 66.3699 47.2301C67.3699 47.4501 68.3399 47.7901 69.2599 48.2101C69.7199 48.4201 70.1699 48.6501 70.6099 48.9101C71.0499 49.1601 71.47 49.4301 71.89 49.7501L72.2299 50.0001L72.1099 50.3901L71.7199 51.6901C71.5999 52.1301 71.43 52.5501 71.27 52.9701C71.11 53.4001 70.9499 53.8201 70.7399 54.2301C70.5299 54.6401 70.3599 55.0601 70.0999 55.4501C69.8499 55.8401 69.6499 56.2501 69.3499 56.6201C69.0499 56.9801 68.8199 57.3801 68.4699 57.7101C68.1399 58.0401 67.8299 58.4001 67.4299 58.6701L66.8599 59.1001L66.2399 59.4501C65.8399 59.7101 65.3799 59.8501 64.9399 60.0201C64.4999 60.1901 64.0199 60.2401 63.5599 60.3501C63.0899 60.3801 62.6199 60.4301 62.1599 60.4201C61.6899 60.3701 61.23 60.4001 60.77 60.2901C60.32 60.1901 59.8599 60.1501 59.4299 59.9901C58.9899 59.8501 58.5499 59.7601 58.1299 59.5701C57.7099 59.4001 57.2799 59.2501 56.8699 59.0501L55.6699 58.4401H55.6799ZM55.6799 58.4401L56.95 58.8901C57.38 59.0401 57.8099 59.1501 58.2299 59.2701C58.6499 59.4101 59.1 59.4601 59.53 59.5501C59.96 59.6601 60.41 59.6601 60.84 59.7101C61.27 59.7701 61.71 59.7101 62.14 59.7301C62.57 59.7101 62.9999 59.6301 63.4199 59.5701C63.8199 59.4401 64.2499 59.3701 64.6299 59.2001C65.0199 59.0201 65.4199 58.8801 65.7599 58.6301L66.2899 58.2901L66.77 57.8801C67.11 57.6301 67.3699 57.3001 67.6599 56.9901C67.9599 56.7001 68.1699 56.3201 68.4299 55.9901C68.6899 55.6601 68.86 55.2601 69.09 54.9001C69.32 54.5401 69.46 54.1301 69.65 53.7501C69.84 53.3701 69.9899 52.9601 70.1299 52.5601C70.2699 52.1601 70.4399 51.7601 70.5499 51.3401L70.9099 50.0901L71.1299 50.7201C70.7799 50.4701 70.3699 50.2101 69.9699 49.9701C69.5699 49.7301 69.1499 49.5101 68.7299 49.3101C67.8899 48.9101 66.9999 48.5901 66.1099 48.3801C65.6599 48.2801 65.2099 48.1901 64.7499 48.1601C64.2999 48.1101 63.84 48.1201 63.39 48.1601C62.94 48.2001 62.4899 48.2801 62.0699 48.4101C61.6399 48.5501 61.2099 48.7001 60.8199 48.9201C60.6099 49.0201 60.4199 49.1401 60.2399 49.2701C60.0499 49.3901 59.8699 49.5301 59.6899 49.6801C59.5099 49.8201 59.3399 49.9801 59.1799 50.1401C59.0099 50.2901 58.85 50.4601 58.7 50.6401C58.38 50.9801 58.11 51.3601 57.84 51.7401L57.46 52.3301C57.36 52.4801 57.2599 52.7501 57.1599 52.9501C56.9899 53.3901 56.83 53.8001 56.71 54.2701C56.57 54.7301 56.45 55.1901 56.34 55.6501C56.22 56.1101 56.1199 56.5801 56.0099 57.0501C55.8999 57.5201 55.8 57.9901 55.7 58.4601L55.6799 58.4401Z" fill="#3D3D3D"/>
<path d="M46.7 72.0602C46.7 72.7402 46.14 72.9202 45.45 72.9202C44.76 72.9202 44.2 72.7302 44.2 72.0602V71.6302C44.2 70.9502 44.76 70.4001 45.45 70.4001C46.14 70.4001 46.7 70.9502 46.7 71.6302V72.0602Z" fill="white"/>
<path d="M56.3899 72.0602C56.3899 72.7402 56.9499 72.9202 57.6399 72.9202C58.3299 72.9202 58.8899 72.7302 58.8899 72.0602V71.6302C58.8899 70.9502 58.3299 70.4001 57.6399 70.4001C56.9499 70.4001 56.3899 70.9502 56.3899 71.6302V72.0602Z" fill="white"/>
<path d="M40.07 66.7101C40.07 66.7101 40.03 66.8101 40.02 67.0101C39.99 67.2101 40.0199 67.5001 40.1199 67.8501C40.1899 68.0201 40.25 68.2101 40.38 68.3901C40.44 68.4801 40.48 68.5901 40.57 68.6701C40.65 68.7601 40.73 68.8501 40.82 68.9401C40.9 69.0401 41.0099 69.1101 41.1199 69.2001C41.2199 69.2801 41.34 69.3701 41.45 69.4501C41.7 69.6001 41.9599 69.7501 42.2299 69.9001C42.5199 70.0201 42.82 70.1501 43.13 70.2801C43.45 70.3801 43.79 70.4801 44.14 70.5801C44.49 70.6801 44.8499 70.7301 45.2299 70.8201C45.4099 70.8601 45.5999 70.9001 45.7899 70.9301C45.9799 70.9601 46.1799 70.9801 46.3699 71.0101C46.7599 71.0601 47.1599 71.1301 47.5599 71.1701C47.9699 71.2001 48.3799 71.2301 48.7899 71.2601C48.9999 71.2801 49.2099 71.2901 49.4099 71.3101L50.0399 71.3301C50.4599 71.3401 50.8799 71.3501 51.2999 71.3601C52.1499 71.4001 52.99 71.3901 53.82 71.3601C54.65 71.3201 55.4699 71.2601 56.2499 71.1601C57.8099 70.9601 59.2699 70.6601 60.4299 70.1701C61.0099 69.9301 61.5199 69.6501 61.9099 69.3301C62.3099 69.0101 62.59 68.6601 62.77 68.3401C62.85 68.1701 62.93 68.0301 62.96 67.8901C63.01 67.7501 63.0499 67.6401 63.0499 67.5401C63.0799 67.3401 63.0999 67.2401 63.0999 67.2401C63.0999 67.2401 63.09 67.3501 63.07 67.5401C63.07 67.6401 63.0299 67.7601 62.9999 67.9001C62.9699 68.0501 62.9 68.2001 62.83 68.3701C62.66 68.7001 62.3899 69.0801 61.9999 69.4301C61.6099 69.7801 61.1 70.0901 60.51 70.3501C59.34 70.8801 57.8699 71.2501 56.2899 71.4601C55.4999 71.5701 54.68 71.6401 53.84 71.6901C53 71.7301 52.1399 71.7501 51.2999 71.7201C50.8799 71.7101 50.45 71.6901 50.03 71.6801L49.39 71.6601C49.18 71.6401 48.97 71.6201 48.76 71.6101C48.34 71.5701 47.93 71.5401 47.52 71.5001C47.11 71.4501 46.7099 71.3801 46.3099 71.3301C46.1099 71.3001 45.9199 71.2701 45.7199 71.2401C45.5299 71.2001 45.34 71.1601 45.15 71.1101C44.78 71.0201 44.4099 70.9501 44.0599 70.8401C43.7099 70.7201 43.3699 70.6101 43.0399 70.5001C42.7199 70.3601 42.42 70.2201 42.13 70.0901C41.85 69.9301 41.58 69.7701 41.34 69.6101C41.23 69.5101 41.12 69.4201 41.01 69.3301C40.91 69.2401 40.7999 69.1601 40.7199 69.0501C40.6299 68.9501 40.5499 68.8501 40.4699 68.7601C40.3899 68.6701 40.34 68.5501 40.28 68.4601C40.15 68.2701 40.1 68.0601 40.03 67.8901C39.94 67.5301 39.9399 67.2301 39.9799 67.0301C40.0099 66.8301 40.0499 66.7301 40.0499 66.7301L40.07 66.7101Z" fill="#845251"/>
<path d="M62.38 68.34C62.38 70.11 57.6 71.55 51.7 71.55C45.8 71.55 41.02 70.11 41.02 68.34C41.02 66.57 45.64 68.7201 51.54 68.7201C57.44 68.7201 62.38 66.56 62.38 68.34Z" fill="#EDB2B2"/>
<path d="M51.5399 62.7501C51.5399 62.7501 51.5599 62.8701 51.5799 63.0801C51.5899 63.2901 51.6299 63.5901 51.6499 63.9501C51.6899 64.6701 51.7299 65.6201 51.7299 66.5801C51.7299 67.5401 51.6999 68.4901 51.6499 69.2101C51.6299 69.5701 51.5999 69.8701 51.5799 70.0801C51.5599 70.2901 51.5399 70.4101 51.5399 70.4101C51.5399 70.4101 51.5299 70.2901 51.4999 70.0801C51.4899 69.8701 51.4499 69.5701 51.4299 69.2101C51.3899 68.4901 51.3599 67.5401 51.3499 66.5801C51.3499 65.6201 51.3799 64.6701 51.4299 63.9501C51.4499 63.5901 51.4799 63.2901 51.4999 63.0801C51.5199 62.8701 51.5299 62.7501 51.5299 62.7501H51.5399Z" fill="#845251"/>
<path d="M41.21 63.0701C41.42 62.4701 41.7199 61.9101 42.0999 61.4001C42.4799 60.9001 42.9699 60.4401 43.5999 60.2201C43.7599 60.1701 43.91 60.1201 44.08 60.1001C44.16 60.0901 44.24 60.0801 44.33 60.0801C44.41 60.0801 44.5 60.0801 44.58 60.0801C44.75 60.0801 44.8999 60.1201 45.0699 60.1601C45.2299 60.2101 45.3899 60.2501 45.5399 60.3201C45.6899 60.3801 45.8299 60.4601 45.9799 60.5401C46.1199 60.6201 46.25 60.7101 46.39 60.8001L46.77 61.1001L47.1299 61.4201L46.9899 61.3801C47.6999 61.2301 48.42 61.1101 49.14 61.0201C49.5 60.9701 49.8599 60.9401 50.2199 60.9101C50.5799 60.8801 50.9499 60.8601 51.3099 60.8501C51.4899 60.8501 51.6699 60.8501 51.8599 60.8501C52.0399 60.8501 52.2199 60.8501 52.4099 60.8601C52.7699 60.8601 53.1399 60.9001 53.4999 60.9401C53.6799 60.9601 53.8599 60.9901 54.0399 61.0201C54.2199 61.0401 54.4 61.0801 54.58 61.1201C54.76 61.1701 54.9399 61.1901 55.1099 61.2501L55.64 61.4201L55.45 61.4901C55.54 61.3501 55.6199 61.2301 55.7199 61.1201C55.8199 61.0101 55.9299 60.9101 56.0399 60.8101C56.1599 60.7201 56.2799 60.6301 56.4199 60.5601C56.5499 60.4801 56.69 60.4401 56.83 60.3801C56.97 60.3301 57.12 60.3101 57.27 60.2801C57.42 60.2601 57.57 60.2601 57.71 60.2601C57.86 60.2701 58 60.2901 58.15 60.3101C58.29 60.3301 58.4299 60.3801 58.5699 60.4201C58.6399 60.4401 58.71 60.4601 58.78 60.4801L58.9799 60.5701C59.1099 60.6301 59.2399 60.6901 59.3699 60.7501L59.7399 60.9801C59.8599 61.0601 59.99 61.1301 60.09 61.2201L60.4299 61.4801C60.5399 61.5701 60.6599 61.6501 60.7599 61.7501L61.3799 62.3401L60.7199 61.8001C60.6099 61.7001 60.4899 61.6301 60.3799 61.5501L60.03 61.3101C59.92 61.2201 59.7899 61.1601 59.6699 61.0901L59.2999 60.8901C59.1699 60.8301 59.0399 60.7901 58.9099 60.7301L58.7199 60.6501C58.6599 60.6301 58.59 60.6201 58.52 60.6001C58.39 60.5701 58.2499 60.5201 58.1199 60.5101C57.9799 60.5001 57.85 60.4801 57.71 60.4801C57.58 60.4901 57.4399 60.5001 57.3099 60.5101C57.1799 60.5501 57.0499 60.5601 56.9199 60.6201C56.7999 60.6801 56.6699 60.7201 56.5599 60.7901C56.4399 60.8501 56.3399 60.9401 56.2399 61.0201C56.1399 61.1101 56.04 61.2001 55.96 61.3001C55.87 61.4001 55.7899 61.5201 55.7299 61.6201L55.6699 61.7301L55.5499 61.6901L55.0399 61.5401C54.8699 61.4801 54.69 61.4601 54.52 61.4201C54.35 61.3801 54.1699 61.3501 53.9999 61.3301C53.8199 61.3101 53.6499 61.2701 53.4699 61.2601C53.1199 61.2301 52.7599 61.2001 52.4099 61.2001C52.2299 61.2001 52.0499 61.2001 51.8699 61.2001C51.6899 61.2001 51.51 61.2001 51.34 61.2001C50.98 61.2101 50.63 61.2301 50.27 61.2501C49.91 61.2701 49.56 61.3101 49.2 61.3501C48.49 61.4301 47.78 61.5401 47.08 61.6801L46.9999 61.7001L46.9399 61.6401L46.5999 61.3301L46.2399 61.0401C46.1099 60.9601 45.9899 60.8601 45.8599 60.7801C45.7299 60.7001 45.6 60.6201 45.46 60.5601C45.33 60.4901 45.1799 60.4501 45.0399 60.4001C44.8999 60.3701 44.7499 60.3301 44.5999 60.3201C44.5199 60.3101 44.4499 60.3101 44.3799 60.3101C44.2999 60.3101 44.2299 60.3101 44.1599 60.3101C44.0099 60.3201 43.8599 60.3601 43.7199 60.4001C43.4299 60.4901 43.1599 60.6401 42.9199 60.8201C42.6699 61.0001 42.4499 61.2201 42.2499 61.4601C41.8499 61.9401 41.5199 62.4801 41.2599 63.0601L41.21 63.0701Z" fill="#845251"/>
<path d="M31.8298 36.11C29.2298 35.45 27.1598 34.0001 26.5698 32.3701C26.2398 31.4501 26.4198 30.6001 27.1398 29.7601C28.2398 28.4601 29.1698 27.8101 29.8998 27.8101C30.8798 27.8101 32.0798 28.9701 33.4698 30.3101C34.0598 30.8801 34.7098 31.5101 35.4198 32.1201C34.6998 33.0501 33.2398 34.66 31.8298 36.11Z" fill="#EDB2B2"/>
<path d="M70.78 36.11C69.37 34.66 67.9099 33.0501 67.1899 32.1201C67.8999 31.5101 68.55 30.8801 69.14 30.3101C70.53 28.9701 71.73 27.8101 72.71 27.8101C73.45 27.8101 74.3699 28.4701 75.4799 29.7601C76.1899 30.6001 76.3799 31.4601 76.0499 32.3701C75.4599 34.0001 73.3899 35.45 70.7899 36.11H70.78Z" fill="#EDB2B2"/>
</svg>
