<svg width="102" height="101" viewBox="0 0 102 101" fill="none" xmlns="http://www.w3.org/2000/svg">
<path d="M92.8899 0H9.29987C4.51156 0 0.629883 3.88169 0.629883 8.67V92.26C0.629883 97.0483 4.51156 100.93 9.29987 100.93H92.8899C97.6782 100.93 101.56 97.0483 101.56 92.26V8.67C101.56 3.88169 97.6782 0 92.8899 0Z" fill="#24B999"/>
<path d="M51.5198 79.28C47.4698 79.28 41.8197 77.05 37.1197 73.6C31.5697 69.52 28.1798 64.48 27.5798 59.42C27.5198 58.89 27.4797 58.34 27.4797 57.79C27.4797 54.66 27.8298 51.61 28.5198 48.73C23.2998 45.89 23.6697 35.15 24.7997 31C25.7997 27.34 27.6097 26.94 28.3497 26.94C28.9397 26.94 29.4898 27.17 29.8998 27.59C30.3298 28.03 30.5597 28.62 30.5497 29.26C30.5297 30 31.9897 31.1 33.1597 31.99C34.3097 32.86 35.4997 33.76 36.2497 34.85C37.6397 33.7 39.2298 32.8 41.0898 32.14C42.0098 31.03 44.5997 28.18 48.0497 26.86C47.9597 26.78 47.8597 26.71 47.7597 26.64C47.3397 26.38 47.1098 25.91 47.1398 25.42C47.1698 24.93 47.4697 24.5 47.9197 24.3C48.0297 24.25 48.4497 24.08 49.0497 24.08C49.2697 24.08 49.5197 24.1 49.7897 24.16C49.8897 23.65 50.0597 23.12 50.3697 22.59C50.6097 22.17 51.0598 21.93 51.5198 21.93C51.7098 21.93 51.8998 21.97 52.0898 22.06C52.3598 22.19 52.5698 22.4 52.6998 22.64C53.2598 22.24 53.9597 21.9 54.8197 21.67C54.9297 21.64 55.0497 21.63 55.1597 21.63C55.6097 21.63 56.0397 21.86 56.2897 22.26C56.5997 22.75 56.5497 23.39 56.1597 23.83C56.1097 23.89 54.9498 25.28 55.2798 26.84C58.2798 27.98 60.5198 30.29 61.9598 32.21C63.7098 32.84 65.2497 33.67 66.5697 34.69C67.3197 33.58 68.5197 32.67 69.6897 31.79C70.8597 30.9 72.3097 29.8 72.2997 29.06C72.2797 28.42 72.5097 27.83 72.9397 27.39C73.3497 26.97 73.8997 26.74 74.4897 26.74C75.2197 26.74 77.0397 27.14 78.0397 30.8C79.1597 34.89 79.5397 45.48 74.4797 48.44C75.2097 51.41 75.5798 54.54 75.5798 57.78C75.5798 58.12 75.5697 58.48 75.5397 58.91C75.5397 58.91 75.4997 59.33 75.4997 59.34C74.9597 64.44 71.8097 69.45 66.6197 73.44C61.9997 76.99 56.4797 79.17 51.8497 79.27H51.5397L51.5198 79.28Z" fill="#2F150C"/>
<path d="M29.9799 47.9C29.9799 47.9 30.0599 47.92 30.0999 47.93C29.2999 50.85 28.8099 54.15 28.8099 57.79C28.8099 58.29 28.8399 58.78 28.8999 59.26C30.1299 69.71 44.1499 77.95 51.5199 77.95C51.6199 77.95 51.7099 77.95 51.8099 77.95C60.3899 77.77 73.0799 69.57 74.1699 59.21C74.1699 59.08 74.1899 58.95 74.1999 58.83C74.2199 58.49 74.2399 58.14 74.2399 57.79C74.2399 54.06 73.7299 50.67 72.8999 47.69C78.1399 46.09 77.8499 35.17 76.7499 31.15C75.6499 27.12 73.5799 27.77 73.6099 29.04C73.6599 31.52 68.7999 33.3 67.4799 35.75C67.2699 36.13 67.0599 36.43 66.8399 36.68C65.3999 35.29 63.5199 34.15 61.1299 33.34C59.5299 31.13 57.1698 28.81 54.2198 27.9C53.1198 25.32 55.1598 22.98 55.1598 22.98C52.2798 23.74 52.0099 25.91 52.0099 25.91C50.7599 25.34 51.5299 23.28 51.5299 23.28C50.6499 24.81 51.2099 26.55 51.2099 26.55C49.7399 24.96 48.4698 25.53 48.4698 25.53C49.3198 26.06 49.7899 26.88 50.0599 27.66C46.3899 28.39 43.2699 31.49 41.8799 33.27C39.4399 34.09 37.6099 35.27 36.1499 36.74C36.0999 36.79 36.0599 36.83 36.0099 36.88C35.7899 36.63 35.5699 36.32 35.3599 35.94C34.0399 33.5 29.1699 31.72 29.2299 29.23C29.2599 27.97 27.1899 27.32 26.0899 31.34C24.9899 35.37 24.6899 46.34 29.9799 47.89V47.9Z" fill="#2F150C"/>
<path d="M38.4999 37.9099C38.4999 37.9099 36.6799 38.3899 35.3599 35.9399C34.0399 33.4999 29.1699 31.7199 29.2299 29.2299C29.2599 27.9699 27.1899 27.3199 26.0899 31.3399C24.9899 35.3699 24.6899 46.3399 29.9799 47.8899C33.0799 48.7999 34.1199 46.2899 36.1299 44.3099C38.1399 42.3299 38.4899 37.8899 38.4899 37.8899L38.4999 37.9099Z" fill="#ECB85A"/>
<path d="M27.8199 32.48C27.8199 32.48 28.39 36.9 34.4 40.64C38.46 43.16 32.9099 46.49 32.8599 46.88C32.7999 47.27 29.32 45.55 28.33 42.13C27.34 38.71 27.8199 32.48 27.8199 32.48Z" fill="#E48F8C"/>
<path d="M64.3398 37.72C64.3398 37.72 66.1598 38.2 67.4798 35.75C68.7998 33.31 73.6698 31.53 73.6098 29.04C73.5798 27.78 75.6498 27.13 76.7498 31.15C77.8498 35.17 78.1398 46.15 72.8598 47.7C69.7598 48.61 68.7198 46.1 66.6998 44.12C64.6898 42.14 64.3398 37.7 64.3398 37.7V37.72Z" fill="#ECB85A"/>
<path d="M75.0097 32.29C75.0097 32.29 74.4497 36.71 68.4297 40.45C64.3697 42.97 69.9197 46.3 69.9697 46.69C70.0297 47.08 73.5097 45.37 74.4997 41.94C75.4897 38.52 75.0097 32.29 75.0097 32.29Z" fill="#E48F8C"/>
<path d="M74.2398 57.79C74.2398 58.14 74.2198 58.49 74.1998 58.83C74.1898 58.96 74.1798 59.08 74.1698 59.21C73.0798 69.57 60.3898 77.77 51.8098 77.95C51.7098 77.95 51.6198 77.95 51.5198 77.95C44.1398 77.95 30.1298 69.71 28.8998 59.26C28.8398 58.77 28.8098 58.28 28.8098 57.79C28.8098 47.97 32.3598 40.53 36.1498 36.74C39.0998 33.78 43.5598 31.97 51.5298 31.97C59.0298 31.97 63.9198 33.82 66.9098 36.74C70.7398 40.48 74.2498 47.97 74.2498 57.79" fill="#ECB85A"/>
<path d="M65.58 36.57C65.05 36.01 63.65 35.14 61.77 34.3C60.21 31.85 57.59 28.94 54.21 27.9C53.11 25.32 55.15 22.98 55.15 22.98C52.27 23.74 51.9999 25.91 51.9999 25.91C50.7499 25.34 51.52 23.28 51.52 23.28C50.64 24.81 51.2 26.55 51.2 26.55C49.73 24.96 48.46 25.53 48.46 25.53C49.31 26.06 49.7799 26.88 50.0499 27.66C45.4899 28.57 41.7899 33.12 41.1799 34.29C39.3299 35.13 37.9799 36 37.4699 36.55C35.8199 38.32 30.71 49.07 30.71 57.97C30.71 58.42 30.73 58.87 30.78 59.31C31.26 63.75 34.2499 68.48 38.9799 72.3C43.0999 75.63 48.1399 77.86 51.5099 77.86H51.7999H51.7599C59.1399 77.69 71.2699 69.64 72.2599 59.29C72.2699 59.17 72.2799 59.05 72.2899 58.93C72.3099 58.61 72.3199 58.29 72.3199 57.97C72.3199 49.1 67.2699 38.37 65.5699 36.58" fill="#FFCD66"/>
<path d="M32.25 54.01C32.25 54.01 36.83 63.47 40.76 63.47C43.76 63.47 47.52 61.93 47.52 61.93C47.52 61.93 49.11 46.17 40.41 45.67C36.49 45.44 32.25 54.01 32.25 54.01Z" fill="#ECB85A"/>
<path d="M70.8698 54.01C70.8698 54.01 66.2898 63.47 62.3598 63.47C59.3598 63.47 55.5998 61.93 55.5998 61.93C55.5998 61.93 54.0098 46.17 62.7098 45.67C66.6298 45.44 70.8698 54.01 70.8698 54.01Z" fill="#ECB85A"/>
<path d="M36.5 47.74C36.5 47.74 36.51 47.7 36.55 47.64C36.58 47.58 36.63 47.47 36.71 47.36C36.79 47.24 36.89 47.11 37.01 46.96C37.14 46.82 37.28 46.65 37.47 46.5C37.56 46.42 37.66 46.34 37.76 46.26C37.87 46.19 37.98 46.11 38.09 46.03C38.21 45.95 38.34 45.89 38.47 45.82C38.6 45.76 38.74 45.68 38.88 45.63C39.17 45.53 39.48 45.42 39.81 45.37C40.13 45.29 40.47 45.3 40.81 45.3C41.14 45.3 41.47 45.38 41.8 45.43C42.11 45.53 42.41 45.63 42.7 45.75C42.97 45.9 43.22 46.04 43.46 46.19C43.69 46.35 43.88 46.53 44.06 46.68C44.15 46.76 44.23 46.83 44.31 46.91C44.38 46.99 44.45 47.07 44.51 47.15C44.63 47.3 44.73 47.43 44.81 47.54C44.97 47.76 45.05 47.9 45.05 47.9C45.05 47.9 44.89 47.85 44.65 47.75C44.52 47.7 44.37 47.64 44.21 47.56C44.05 47.48 43.86 47.41 43.66 47.33C43.45 47.26 43.25 47.16 43.02 47.08C42.79 47.01 42.55 46.94 42.31 46.86C42.06 46.81 41.81 46.76 41.56 46.7C41.43 46.69 41.3 46.68 41.17 46.66C41.04 46.65 40.91 46.62 40.79 46.63C40.53 46.63 40.27 46.61 40.01 46.65C39.88 46.67 39.75 46.65 39.63 46.69C39.5 46.71 39.38 46.74 39.26 46.75C39.13 46.76 39.02 46.81 38.9 46.84C38.78 46.87 38.66 46.89 38.55 46.93C38.32 47 38.11 47.07 37.91 47.15C37.7 47.22 37.53 47.3 37.36 47.37C37.2 47.45 37.05 47.5 36.93 47.56C36.81 47.62 36.71 47.66 36.65 47.69C36.58 47.72 36.55 47.74 36.55 47.74H36.5Z" fill="#382210"/>
<path d="M66.47 47.74C66.47 47.74 66.43 47.72 66.37 47.69C66.3 47.66 66.21 47.61 66.09 47.56C65.97 47.5 65.82 47.44 65.66 47.37C65.49 47.31 65.31 47.22 65.11 47.15C64.91 47.07 64.69 47 64.47 46.93C64.36 46.89 64.24 46.87 64.12 46.84C64 46.82 63.88 46.77 63.76 46.75C63.64 46.73 63.51 46.71 63.39 46.69C63.26 46.66 63.13 46.67 63.01 46.65C62.76 46.61 62.5 46.63 62.24 46.63C62.11 46.62 61.98 46.65 61.85 46.66C61.72 46.68 61.59 46.69 61.47 46.7C61.22 46.76 60.97 46.81 60.72 46.86C60.48 46.94 60.24 47.01 60.01 47.08C59.78 47.16 59.58 47.26 59.37 47.33C59.16 47.4 58.97 47.47 58.81 47.56C58.65 47.64 58.5 47.7 58.38 47.75C58.13 47.85 57.98 47.9 57.98 47.9C57.98 47.9 58.06 47.76 58.22 47.54C58.3 47.43 58.4 47.29 58.52 47.14C58.58 47.07 58.64 46.98 58.72 46.9C58.8 46.83 58.88 46.75 58.97 46.67C59.15 46.52 59.34 46.34 59.56 46.18C59.8 46.04 60.05 45.89 60.32 45.74C60.6 45.62 60.91 45.52 61.22 45.42C61.55 45.37 61.87 45.29 62.21 45.29C62.55 45.29 62.88 45.29 63.21 45.36C63.54 45.4 63.84 45.51 64.14 45.62C64.29 45.67 64.42 45.74 64.55 45.81C64.68 45.88 64.81 45.94 64.92 46.02C65.04 46.1 65.15 46.17 65.25 46.25C65.36 46.33 65.45 46.41 65.54 46.49C65.73 46.64 65.86 46.81 65.99 46.95C66.12 47.1 66.22 47.23 66.29 47.35C66.37 47.46 66.42 47.56 66.45 47.63C66.48 47.69 66.5 47.73 66.5 47.73L66.47 47.74Z" fill="#382210"/>
<path d="M47.52 61.93C40.29 65.37 35.2099 63.14 32.9199 54.23C32.9199 54.23 41.6099 47.49 46.2199 56.13C46.9399 57.47 47.52 61.93 47.52 61.93Z" fill="white"/>
<path d="M40.5399 62.5C38.5299 62.46 36.8499 60.87 36.2099 58.66C36.0099 57.99 35.9099 57.25 35.9199 56.49C35.9899 53.42 37.8999 52.32 40.2999 52.25C40.4499 52.25 40.5999 52.25 40.7499 52.25C43.3699 52.31 45.3599 55.03 45.3999 56.69C45.4899 59.95 43.1599 62.55 40.5399 62.5Z" fill="#64413F"/>
<path d="M40.5598 61.6699C39.0398 61.6299 37.6998 60.3399 37.1598 58.3599C36.9798 57.7299 36.8998 57.0699 36.9098 56.3799C36.9598 54.0899 38.0398 52.9899 40.3298 52.9199C40.4398 52.9199 40.5598 52.9199 40.6698 52.9199H40.7398C42.7998 52.9699 44.3698 55.3699 44.4098 56.5999C44.4498 58.0899 43.9498 59.5099 43.0398 60.4999C42.3498 61.2599 41.4798 61.6699 40.6198 61.6699H40.5598Z" fill="#4F3231"/>
<path d="M55.5798 61.93C62.7998 65.37 67.8898 63.14 70.1798 54.23C70.1798 54.23 61.4898 47.49 56.8798 56.13C56.1598 57.47 55.5798 61.93 55.5798 61.93Z" fill="white"/>
<path d="M62.5598 62.5C64.5698 62.46 66.2498 60.87 66.8898 58.66C67.0898 57.99 67.1898 57.25 67.1798 56.49C67.1098 53.42 65.1998 52.32 62.7998 52.25C62.6498 52.25 62.4997 52.25 62.3497 52.25C59.7297 52.31 57.7498 55.03 57.6998 56.69C57.6098 59.95 59.9498 62.55 62.5598 62.5Z" fill="#64413F"/>
<path d="M62.4797 61.6699C61.6097 61.6699 60.7497 61.2499 60.0597 60.4999C59.1497 59.5099 58.6497 58.0899 58.6897 56.5999C58.7197 55.3699 60.2897 52.9599 62.3697 52.9199H62.4297C62.5397 52.9199 62.6598 52.9199 62.7798 52.9199C65.0598 52.9899 66.1497 54.0899 66.1997 56.3799C66.2097 57.0599 66.1297 57.7299 65.9597 58.3499C65.4097 60.3299 64.0797 61.6299 62.5597 61.6699H62.4997" fill="#4F3231"/>
<path d="M45.64 69.2899C45.64 69.2899 43.2299 69.2599 41.9799 67.0499H42.0499C42.2499 67.0499 42.4299 67.0799 42.5999 67.1099C42.9199 67.1699 43.14 67.2299 43.14 67.2299C43.14 67.2299 42.96 67.0899 42.64 66.9799C42.56 66.9499 42.4699 66.9199 42.3799 66.8999C42.2799 66.8799 42.1799 66.8499 42.0699 66.8499C41.9599 66.8399 41.8499 66.8299 41.7399 66.8499C41.6199 66.8499 41.51 66.8799 41.39 66.9099C41.28 66.9599 41.1599 66.9899 41.0599 67.0599C41.0099 67.0899 40.9599 67.1199 40.9099 67.1599C40.8699 67.1999 40.8299 67.2399 40.7899 67.2799C40.6999 67.3499 40.6699 67.4599 40.6099 67.5399C40.5499 67.6199 40.5399 67.7199 40.5099 67.7999C40.4899 67.8799 40.46 67.9599 40.46 68.0299C40.45 68.0999 40.4499 68.1599 40.4399 68.1999C40.4399 68.2999 40.4299 68.3499 40.4299 68.3499C40.4299 68.3499 40.4499 68.2999 40.4899 68.2099C40.4999 68.1599 40.5299 68.1099 40.5499 68.0399C40.5699 67.9699 40.61 67.9099 40.64 67.8399C40.68 67.7699 40.7 67.6899 40.77 67.6199C40.83 67.5499 40.87 67.4699 40.95 67.4099C40.99 67.3799 41.0199 67.3499 41.0599 67.3099C41.0999 67.2799 41.1399 67.2599 41.1899 67.2299C41.2699 67.1699 41.37 67.1499 41.46 67.1099C41.55 67.0899 41.6399 67.0699 41.7299 67.0599C42.4799 68.4599 43.66 69.0699 44.53 69.3299C45.17 69.5199 45.6499 69.5299 45.6599 69.5299V69.2899H45.64Z" fill="#C09247"/>
<path d="M63.23 68.2C63.23 68.2 63.23 68.09 63.21 68.03C63.21 67.96 63.18 67.89 63.16 67.8C63.13 67.72 63.11 67.62 63.06 67.54C63.01 67.46 62.97 67.35 62.88 67.28C62.84 67.24 62.8 67.2 62.76 67.16C62.72 67.12 62.66 67.09 62.61 67.06C62.51 66.99 62.4 66.95 62.28 66.91C62.17 66.88 62.05 66.85 61.93 66.85C61.81 66.85 61.7 66.85 61.6 66.85C61.49 66.85 61.39 66.89 61.29 66.9C61.19 66.93 61.1 66.95 61.02 66.98C60.7 67.1 60.52 67.23 60.52 67.23C60.52 67.23 60.74 67.17 61.06 67.11C61.22 67.08 61.41 67.05 61.61 67.05H61.68C60.43 69.26 58.05 69.28 58.02 69.28V69.52C58.02 69.52 60.64 69.49 61.95 67.06C62.04 67.06 62.13 67.09 62.22 67.11C62.31 67.15 62.42 67.17 62.5 67.23C62.54 67.26 62.59 67.28 62.62 67.31C62.66 67.34 62.69 67.37 62.73 67.41C62.81 67.47 62.85 67.55 62.91 67.62C62.97 67.69 62.99 67.77 63.04 67.84C63.07 67.91 63.12 67.97 63.13 68.04C63.15 68.1 63.17 68.16 63.19 68.21C63.23 68.3 63.25 68.35 63.25 68.35C63.25 68.35 63.25 68.29 63.25 68.2H63.23Z" fill="#C09247"/>
<path d="M40.8498 55.27C40.8098 57.24 39.4899 58.82 37.8999 58.79C37.1799 58.77 36.5398 58.43 36.0398 57.88C35.8698 57.29 35.7798 56.65 35.7898 55.98C35.8498 53.29 37.5198 52.33 39.6298 52.27C40.3898 52.93 40.8698 54.03 40.8498 55.27Z" fill="white"/>
<path d="M43.3498 60.98C43.3398 61.65 42.8898 62.18 42.3498 62.17C41.8098 62.16 41.3898 61.61 41.3998 60.94C41.4098 60.27 41.8598 59.74 42.3998 59.75C42.9398 59.76 43.3598 60.31 43.3498 60.98Z" fill="white"/>
<path d="M62.4397 55.5599C62.3997 57.5299 61.0797 59.1099 59.4897 59.0799C58.7697 59.0599 58.1297 58.7199 57.6297 58.1699C57.4497 57.5799 57.3697 56.9399 57.3797 56.2699C57.4397 53.5799 59.1097 52.6199 61.2197 52.5599C61.9797 53.2199 62.4597 54.3199 62.4397 55.5599Z" fill="white"/>
<path d="M65.1299 60.98C65.1199 61.65 64.6699 62.18 64.1299 62.17C63.5899 62.16 63.1699 61.61 63.1799 60.94C63.1999 60.27 63.6399 59.74 64.1799 59.75C64.7199 59.76 65.1399 60.31 65.1199 60.98H65.1299Z" fill="white"/>
<path d="M46.2197 62.4999C46.6497 62.3299 47.0798 62.1399 47.5198 61.9299C47.0798 62.1399 46.6397 62.3299 46.2197 62.4999Z" fill="#E4BA66"/>
<path d="M47.52 61.93C47.52 61.93 46.9399 57.47 46.2199 56.13C44.4199 52.75 41.99 51.72 39.71 51.72C39.58 51.72 39.4399 51.72 39.3199 51.73C39.4499 51.73 39.58 51.72 39.71 51.72C41.99 51.72 44.4199 52.75 46.2199 56.13C46.9199 57.45 47.5 61.8 47.52 61.93ZM33.33 55.67C33.18 55.21 33.0399 54.73 32.9199 54.23C33.0499 54.73 33.19 55.21 33.33 55.67Z" fill="#D7A95B"/>
<path d="M46.2199 62.5C45.9799 61.23 45.6599 59.8 45.3099 59.14C45.2499 59.02 45.1799 58.9 45.1099 58.78C45.3099 58.13 45.42 57.43 45.4 56.69C45.36 55.02 43.3699 52.3 40.7499 52.25C40.7299 52.25 40.6999 52.25 40.6699 52.25C40.5499 52.25 40.4199 52.25 40.2999 52.25C40.0799 52.25 39.8799 52.27 39.6699 52.29C39.6599 52.28 39.6399 52.27 39.6299 52.26C37.7299 52.32 36.1799 53.1 35.8499 55.23C34.9499 55.52 34.16 55.91 33.52 56.26C33.45 56.07 33.3799 55.87 33.3199 55.67C33.1699 55.21 33.0299 54.73 32.9099 54.23C32.9599 54.19 35.9299 51.91 39.3099 51.74C39.4399 51.74 39.57 51.73 39.7 51.73C41.98 51.73 44.41 52.76 46.21 56.14C46.93 57.48 47.5099 61.94 47.5099 61.94C47.0699 62.15 46.64 62.34 46.21 62.51" fill="#E2E1E1"/>
<path d="M45.1099 58.78C44.8599 58.35 44.61 57.97 44.34 57.62C44.39 57.29 44.41 56.94 44.4 56.6C44.37 55.37 42.7999 52.96 40.7299 52.92H40.6599C40.5399 52.92 40.4299 52.92 40.3199 52.92C40.2799 52.92 40.24 52.92 40.2 52.92C40.04 52.68 39.8699 52.47 39.6699 52.3C39.8699 52.28 40.0799 52.26 40.2999 52.26C40.4199 52.26 40.5499 52.26 40.6699 52.26C40.6999 52.26 40.7199 52.26 40.7499 52.26C43.3699 52.32 45.36 55.04 45.4 56.7C45.42 57.44 45.3199 58.14 45.1099 58.79" fill="#624341"/>
<path d="M44.3497 57.6199C43.2897 56.2199 42.0797 55.4299 40.8597 55.0399C40.8297 54.2399 40.5997 53.5099 40.2197 52.9299C40.2597 52.9299 40.2998 52.9299 40.3398 52.9299C40.4498 52.9299 40.5697 52.9299 40.6797 52.9299H40.7498C42.8098 52.9799 44.3797 55.3799 44.4197 56.6099C44.4197 56.9599 44.4097 57.2999 44.3597 57.6299" fill="#513635"/>
<path d="M35.8599 55.23C36.1899 53.1 37.7399 52.32 39.6399 52.26C39.6499 52.27 39.6699 52.28 39.6799 52.29C39.8799 52.47 40.0599 52.68 40.2099 52.91C40.5899 53.49 40.8299 54.22 40.8499 55.02C40.1599 54.8 39.4699 54.71 38.7899 54.71C37.7599 54.71 36.7599 54.92 35.8499 55.22" fill="#E2E1E1"/>
<path d="M56.8798 62.4999C56.4598 62.3299 56.0198 62.1499 55.5798 61.9299C55.5798 61.9299 55.5798 61.8899 55.5998 61.8199C55.5898 61.8899 55.5898 61.9299 55.5898 61.9299C56.0298 62.1399 56.4598 62.3299 56.8898 62.4999" fill="#E4BA66"/>
<path d="M55.5999 61.82C55.6999 61.12 56.2299 57.35 56.8799 56.13C57.0999 55.72 57.3299 55.34 57.5599 55C57.3199 55.35 57.0999 55.72 56.8799 56.13C56.2299 57.35 55.6899 61.13 55.5999 61.82Z" fill="#D7A95B"/>
<path d="M56.8798 62.5C56.4598 62.33 56.0198 62.14 55.5798 61.93C55.5798 61.93 55.5798 61.89 55.5898 61.82C55.6798 61.13 56.2198 57.35 56.8698 56.13C57.0898 55.72 57.3098 55.35 57.5498 55.01C57.4398 55.38 57.3798 55.8 57.3698 56.28C57.3598 56.95 57.4398 57.59 57.6198 58.18C57.6998 58.27 57.7898 58.36 57.8798 58.43C57.9098 58.55 57.9398 58.67 57.9798 58.78C57.9098 58.9 57.8498 59.01 57.7798 59.14C57.4298 59.8 57.1098 61.23 56.8698 62.5" fill="#E2E1E1"/>
<path d="M57.9899 58.7799C57.9499 58.6599 57.9199 58.5499 57.8899 58.4299C57.9599 58.4899 58.0299 58.5399 58.0999 58.5999C58.0699 58.6599 58.0299 58.7199 57.9899 58.7799Z" fill="#624341"/>
<path d="M59.7598 52.79C60.9398 52.02 62.1798 51.73 63.3998 51.73C63.5298 51.73 63.6597 51.73 63.7897 51.74C63.6597 51.74 63.5298 51.73 63.3998 51.73C62.1898 51.73 60.9398 52.02 59.7698 52.79" fill="#D7A95B"/>
<path d="M69.5698 56.26C68.8798 55.88 67.9998 55.46 67.0098 55.16C66.4898 53.09 64.8197 52.31 62.7997 52.25C62.6797 52.25 62.5497 52.25 62.4297 52.25C62.3997 52.25 62.3797 52.25 62.3497 52.25C61.8197 52.26 61.3098 52.38 60.8298 52.59C60.4498 52.62 60.0898 52.69 59.7598 52.79C60.9398 52.02 62.1798 51.73 63.3898 51.73C63.5198 51.73 63.6598 51.73 63.7798 51.74C67.1598 51.91 70.1297 54.19 70.1797 54.23C70.0497 54.73 69.9198 55.2 69.7698 55.66C69.6998 55.87 69.6398 56.07 69.5598 56.26" fill="#E2E1E1"/>
<path d="M67.0098 55.16C66.6698 55.06 66.3198 54.97 65.9598 54.89C65.5298 53.6 64.4898 52.97 62.7698 52.91C62.6498 52.91 62.5398 52.91 62.4198 52.91H62.3598C62.1098 52.91 61.8798 52.95 61.6398 53.02C61.5098 52.85 61.3598 52.7 61.2098 52.56C61.0798 52.56 60.9498 52.57 60.8198 52.58C61.2898 52.38 61.7998 52.26 62.3398 52.24C62.3698 52.24 62.3898 52.24 62.4198 52.24C62.5398 52.24 62.6698 52.24 62.7898 52.24C64.8098 52.3 66.4798 53.08 66.9998 55.15" fill="#624341"/>
<path d="M62.4199 54.9899C62.3399 54.2299 62.0699 53.5499 61.6599 53.0299C61.8899 52.9599 62.1299 52.9199 62.3799 52.9199H62.4399C62.5499 52.9199 62.6699 52.9199 62.7899 52.9199C64.5099 52.9699 65.5499 53.6099 65.9799 54.8999C65.4499 54.7899 64.89 54.7299 64.33 54.7299C63.71 54.7299 63.0699 54.8099 62.4399 54.9899" fill="#513635"/>
<path d="M58.09 58.5999C58.02 58.5499 57.95 58.4899 57.88 58.4299C57.79 58.3499 57.71 58.2699 57.62 58.1799C57.44 57.5899 57.36 56.9499 57.37 56.2799C57.37 55.8099 57.44 55.3799 57.55 55.0099C58.23 54.0199 58.97 53.2999 59.75 52.7899C60.08 52.6899 60.45 52.6199 60.82 52.5899C60.95 52.5799 61.08 52.5699 61.21 52.5699C61.37 52.7099 61.51 52.8599 61.64 53.0299C62.04 53.5599 62.32 54.2399 62.4 54.9899C60.85 55.4299 59.34 56.4999 58.08 58.5999" fill="#E2E1E1"/>
<path d="M47.52 61.93C47.43 61.49 47.33 61.05 47.23 60.61C47.13 60.17 47.04 59.73 46.93 59.3C46.83 58.86 46.71 58.43 46.59 58C46.47 57.56 46.33 57.18 46.17 56.77C46.08 56.58 45.98 56.33 45.89 56.19L45.54 55.63C45.29 55.27 45.04 54.92 44.74 54.6C44.6 54.43 44.46 54.28 44.3 54.13C44.15 53.98 43.99 53.83 43.83 53.7C43.67 53.56 43.51 53.43 43.32 53.32C43.15 53.2 42.97 53.08 42.78 52.99C42.42 52.78 42.02 52.64 41.63 52.51C41.24 52.39 40.82 52.32 40.41 52.28C39.99 52.25 39.57 52.24 39.15 52.28C38.73 52.31 38.31 52.39 37.9 52.49C37.07 52.69 36.26 52.98 35.48 53.36C35.09 53.55 34.71 53.75 34.34 53.98C33.98 54.2 33.6 54.44 33.27 54.68L33.47 54.09L33.8 55.26C33.9 55.65 34.05 56.03 34.18 56.41C34.31 56.79 34.45 57.17 34.62 57.53C34.79 57.89 34.93 58.27 35.13 58.61C35.34 58.95 35.49 59.33 35.74 59.64C35.98 59.95 36.17 60.31 36.45 60.58C36.72 60.87 36.96 61.18 37.27 61.42L37.71 61.8L38.2 62.12C38.52 62.35 38.88 62.49 39.24 62.65C39.6 62.81 39.99 62.88 40.36 63C40.75 63.05 41.14 63.13 41.54 63.15C41.94 63.15 42.34 63.19 42.75 63.13C43.15 63.08 43.56 63.08 43.96 62.98C44.36 62.89 44.77 62.85 45.16 62.72C45.55 62.6 45.95 62.5 46.34 62.36L47.51 61.94L47.52 61.93ZM47.52 61.93L46.41 62.5C46.04 62.69 45.64 62.82 45.25 62.98C44.87 63.16 44.45 63.24 44.05 63.38C43.65 63.52 43.22 63.56 42.81 63.66C42.4 63.76 41.96 63.74 41.53 63.78C41.1 63.79 40.67 63.74 40.23 63.71C39.81 63.61 39.36 63.56 38.96 63.4C38.55 63.24 38.13 63.1 37.76 62.86L37.19 62.53L36.67 62.13C36.31 61.88 36.02 61.55 35.72 61.23C35.4 60.93 35.18 60.55 34.9 60.21C34.62 59.87 34.44 59.48 34.21 59.12C33.97 58.76 33.82 58.36 33.62 57.98C33.43 57.59 33.28 57.2 33.13 56.8C32.99 56.4 32.82 56.01 32.72 55.6L32.36 54.38L32.25 54.02L32.56 53.79C32.96 53.49 33.34 53.24 33.75 53C34.15 52.76 34.57 52.55 34.99 52.35C35.83 51.95 36.72 51.64 37.65 51.43C38.12 51.33 38.59 51.26 39.07 51.24C39.55 51.2 40.03 51.23 40.51 51.28C40.99 51.34 41.47 51.44 41.93 51.6C42.16 51.68 42.39 51.76 42.6 51.87C42.82 51.97 43.03 52.08 43.24 52.21C43.45 52.33 43.65 52.47 43.84 52.62C44.04 52.76 44.21 52.92 44.39 53.08C44.57 53.24 44.73 53.41 44.89 53.58C45.05 53.75 45.2 53.93 45.34 54.12C45.64 54.49 45.87 54.89 46.11 55.28L46.44 55.89C46.57 56.14 46.61 56.32 46.7 56.54C46.83 56.98 46.95 57.46 47.02 57.9C47.11 58.35 47.18 58.79 47.24 59.24C47.37 60.13 47.47 61.03 47.52 61.93Z" fill="#382210"/>
<path d="M55.5798 61.9299C55.6298 61.0299 55.7298 60.1299 55.8598 59.2399C55.9198 58.7899 55.9898 58.3399 56.0798 57.8999C56.1498 57.4599 56.2698 56.9799 56.3998 56.5399C56.4898 56.3199 56.5298 56.1399 56.6598 55.8899L56.9798 55.2799C57.2198 54.8799 57.4598 54.4799 57.7498 54.1199C57.8898 53.9299 58.0398 53.7499 58.1998 53.5799C58.3598 53.4099 58.5198 53.2299 58.6998 53.0799C58.8698 52.9199 59.0498 52.7599 59.2498 52.6199C59.4398 52.4699 59.6298 52.3299 59.8398 52.2099C60.0498 52.0799 60.2598 51.9699 60.4798 51.8699C60.6898 51.7499 60.9198 51.6799 61.1498 51.5999C61.6098 51.4399 62.0898 51.3399 62.5698 51.2799C63.0498 51.2299 63.5298 51.2099 64.0098 51.2399C64.4898 51.2599 64.9598 51.3399 65.4298 51.4299C66.3598 51.6399 67.2498 51.9499 68.0898 52.3499C68.5098 52.5499 68.9298 52.7699 69.3298 52.9999C69.7398 53.2399 70.1198 53.4899 70.5098 53.7899L70.8198 54.0199L70.7098 54.3799L70.3498 55.5999C70.2398 56.0099 70.0798 56.3999 69.9298 56.7999C69.7898 57.1999 69.6298 57.5999 69.4398 57.9799C69.2498 58.3599 69.0898 58.7599 68.8598 59.1199C68.6198 59.4799 68.4498 59.8699 68.1698 60.2099C67.8998 60.5499 67.6798 60.9199 67.3498 61.2299C67.0398 61.5399 66.7598 61.8699 66.3898 62.1299L65.8698 62.5299L65.2998 62.8599C64.9298 63.0999 64.4998 63.2399 64.0998 63.3999C63.6898 63.5599 63.2498 63.6099 62.8298 63.7099C62.3998 63.7399 61.9598 63.7899 61.5398 63.7799C61.1098 63.7399 60.6798 63.7599 60.2598 63.6599C59.8498 63.5699 59.4198 63.5199 59.0198 63.3799C58.6198 63.2499 58.2098 63.1599 57.8198 62.9799C57.4398 62.8199 57.0298 62.6799 56.6698 62.4999L55.5598 61.9299H55.5798ZM55.5798 61.9299L56.7498 62.3499C57.1398 62.4899 57.5398 62.5899 57.9298 62.7099C58.3198 62.8399 58.7298 62.8799 59.1298 62.9699C59.5298 63.0699 59.9398 63.0699 60.3398 63.1199C60.7398 63.1699 61.1498 63.1199 61.5398 63.1399C61.9398 63.1199 62.3298 63.0399 62.7198 62.9899C63.0898 62.8699 63.4898 62.7999 63.8398 62.6399C64.1998 62.4799 64.5598 62.3399 64.8798 62.1099L65.3698 61.7899L65.8098 61.4099C66.1198 61.1699 66.3598 60.8599 66.6298 60.5699C66.9098 60.2999 67.0998 59.9399 67.3398 59.6299C67.5798 59.3199 67.7398 58.9399 67.9398 58.5999C68.1498 58.2599 68.2798 57.8799 68.4498 57.5199C68.6298 57.1599 68.7598 56.7799 68.8998 56.3999C69.0298 56.0199 69.1798 55.6499 69.2798 55.2499L69.6098 54.0799L69.8098 54.6699C69.4898 54.4299 69.1098 54.1899 68.7398 53.9699C68.3698 53.7499 67.9898 53.5399 67.5998 53.3499C66.8198 52.9699 66.0098 52.6799 65.1798 52.4799C64.7598 52.3899 64.3398 52.3099 63.9298 52.2699C63.5098 52.2199 63.0898 52.2299 62.6698 52.2699C62.2598 52.3099 61.8398 52.3799 61.4498 52.4999C61.0498 52.6299 60.6598 52.7699 60.2998 52.9799C60.1098 53.0699 59.9398 53.1799 59.7598 53.3099C59.5798 53.4199 59.4198 53.5499 59.2598 53.6899C59.0898 53.8199 58.9398 53.9699 58.7898 54.1199C58.6298 54.2599 58.4898 54.4199 58.3498 54.5899C58.0598 54.9099 57.8098 55.2599 57.5498 55.6199L57.1998 56.1799C57.1098 56.3199 57.0098 56.5699 56.9198 56.7599C56.7598 57.1699 56.6198 57.5499 56.4998 57.9899C56.3698 58.4199 56.2598 58.8499 56.1598 59.2899C56.0498 59.7199 55.9598 60.1699 55.8598 60.5999C55.7598 61.0399 55.6598 61.4799 55.5698 61.9199L55.5798 61.9299Z" fill="#382210"/>
<path d="M51.8298 70.77C51.8298 70.77 46.9298 69.89 46.0598 69.97C46.0598 69.97 47.5998 75.45 51.8298 75.42C56.0598 75.44 57.5998 69.97 57.5998 69.97C56.7398 69.9 51.8298 70.77 51.8298 70.77Z" fill="#ECB85A"/>
<path d="M55.8198 70.2899C55.8198 71.0999 54.9298 71.8299 53.8998 72.2799C53.1998 72.5899 52.4298 72.7699 51.8298 72.7699C51.2298 72.7699 50.4698 72.5899 49.7698 72.2799C48.7398 71.8299 47.8398 71.1099 47.8398 70.2899C47.8398 68.9199 50.3698 67.8099 51.8298 67.8099C53.2898 67.8099 55.8198 68.9199 55.8198 70.2899Z" fill="#B3576F"/>
<path d="M53.9 72.2799C53.2 72.5899 52.43 72.7699 51.83 72.7699C51.23 72.7699 50.47 72.5899 49.77 72.2799C49.91 71.7199 50.41 71.2999 51.02 71.2999C51.33 71.2999 51.61 71.4099 51.83 71.5899C52.05 71.4099 52.33 71.2999 52.64 71.2999C53.25 71.2999 53.76 71.7199 53.9 72.2799Z" fill="#ED7693"/>
<path d="M56.2499 63.74C56.2499 63.74 56.1099 63.36 56.2499 63.22C56.3999 63.08 57.3999 61.86 56.1899 61.06C54.9799 60.26 54.7899 58.1 54.7399 56.88C54.6999 55.66 52.9499 54.86 51.8299 54.86C50.7099 54.86 48.9599 55.66 48.9199 56.88C48.8699 58.1 48.6799 60.26 47.4799 61.06C46.2699 61.86 47.2699 63.08 47.4199 63.22C47.5599 63.36 47.4199 63.74 47.4199 63.74C45.5499 65.05 44.3499 68.47 44.9299 69.88C46.3599 73.35 51.8399 69.77 51.8399 69.77C51.8399 69.77 57.3899 73.29 58.7499 69.88C59.3099 68.46 58.1299 65.04 56.2599 63.74H56.2499Z" fill="#ECB85A"/>
<path d="M47.9099 62.1C47.9099 62.1 49.4999 61.79 50.0599 63.44C50.0599 63.44 47.0499 62.92 47.9099 62.1Z" fill="#382210"/>
<path d="M55.7499 62.1C55.7499 62.1 54.1599 61.79 53.5999 63.44C53.5999 63.44 56.6099 62.92 55.7499 62.1Z" fill="#382210"/>
<path d="M51.8298 64.49C51.8298 64.49 51.8298 64.78 51.8498 65.22C51.8598 65.66 51.8698 66.24 51.8698 66.83C51.8698 67.42 51.8698 68 51.8498 68.44C51.8398 68.88 51.8298 69.17 51.8298 69.17C51.8298 69.17 51.8298 68.88 51.8098 68.44C51.8098 68 51.7998 67.42 51.7898 66.83C51.7898 66.25 51.7898 65.66 51.8098 65.22C51.8298 64.78 51.8298 64.49 51.8298 64.49Z" fill="#382210"/>
<path d="M49.7798 60.6C49.7798 60.6 50.0998 60.63 50.5798 60.78C50.8098 60.86 51.0897 60.96 51.3497 61.16C51.4097 61.21 51.4698 61.27 51.5298 61.34C51.5698 61.41 51.6197 61.48 51.6597 61.55C51.7397 61.66 51.8697 61.73 51.9897 61.69C52.1197 61.65 52.2497 61.56 52.2997 61.43C52.4197 61.25 52.5497 61.19 52.6797 61.09C52.9397 60.92 53.2098 60.8 53.4498 60.73C53.6898 60.65 53.8897 60.62 54.0397 60.62C54.1097 60.62 54.1698 60.62 54.2098 60.62C54.2498 60.62 54.2698 60.62 54.2698 60.62C54.2698 60.62 54.1897 60.62 54.0497 60.65C53.9097 60.67 53.7097 60.73 53.4897 60.82C53.2597 60.91 53.0198 61.05 52.7698 61.21C52.6498 61.29 52.5098 61.4 52.4498 61.49C52.3798 61.67 52.2197 61.79 52.0497 61.85C51.9497 61.87 51.8498 61.87 51.7498 61.83C51.6598 61.78 51.5897 61.72 51.5397 61.64C51.4497 61.49 51.3898 61.38 51.2698 61.29C51.0498 61.1 50.7898 60.98 50.5598 60.89C50.3298 60.8 50.1398 60.73 50.0098 60.69C49.8698 60.65 49.7997 60.62 49.7997 60.62L49.7798 60.6Z" fill="#382210"/>
<path d="M50.3599 63.47C50.3599 63.47 50.5199 63.62 50.7899 63.8C50.9299 63.89 51.0899 63.97 51.2799 64.04C51.3699 64.07 51.4699 64.1 51.5699 64.12C51.6699 64.14 51.7699 64.16 51.8799 64.15C51.9799 64.16 52.0899 64.14 52.1899 64.13C52.2899 64.12 52.3899 64.08 52.4799 64.05C52.5699 64.01 52.6599 63.97 52.7399 63.93C52.8199 63.89 52.8899 63.83 52.9599 63.79C53.0999 63.71 53.1999 63.61 53.2699 63.55C53.3499 63.49 53.3899 63.46 53.3899 63.46C53.3899 63.46 53.3599 63.5 53.2899 63.58C53.2199 63.65 53.1499 63.77 53.0099 63.87C52.9399 63.92 52.8799 63.99 52.7899 64.04C52.7099 64.09 52.6199 64.15 52.5199 64.19C52.4199 64.22 52.3099 64.27 52.2099 64.29C52.0999 64.31 51.9799 64.33 51.8699 64.32C51.7499 64.32 51.6399 64.3 51.5299 64.28C51.4199 64.26 51.3198 64.22 51.2198 64.17C51.0198 64.08 50.8599 63.97 50.7299 63.87C50.4699 63.66 50.3499 63.47 50.3499 63.47H50.3599Z" fill="#382210"/>
</svg>
