<svg width="101" height="102" viewBox="0 0 101 102" fill="none" xmlns="http://www.w3.org/2000/svg">
<path d="M92.28 0.530029H8.69C3.90169 0.530029 0.0200195 4.41173 0.0200195 9.20004V92.79C0.0200195 97.5783 3.90169 101.46 8.69 101.46H92.28C97.0683 101.46 100.95 97.5783 100.95 92.79V9.20004C100.95 4.41173 97.0683 0.530029 92.28 0.530029Z" fill="#94A4A5"/>
<path d="M50.6599 75.98L49.92 75.96C49.74 75.96 49.58 75.94 49.42 75.93C48.74 75.87 48.05 75.77 47.36 75.64H47.29C47.29 75.64 47.2399 75.62 47.2199 75.61C47.1999 75.61 47.18 75.61 47.17 75.61C43.9 74.95 40.24 73.49 36.89 71.5C35.85 70.89 34.83 70.21 33.87 69.49C32.87 68.76 31.92 67.96 31.04 67.14C30.28 66.78 29.61 66.36 29.01 65.87C26.99 64.22 25.7999 61.77 25.3499 58.38C25.1199 57.2 24.9999 52.76 25.1599 51.46C25.1999 49.72 25.34 47.79 25.98 45.48C25.46 44.79 25.26 43.92 25.42 42.99C25.52 42.42 25.36 41.07 23.19 38.29C22.94 37.97 22.65 37.67 22.34 37.35C20.87 35.82 19.05 33.92 21.31 29.45C21.48 29.11 21.67 28.79 21.87 28.49C21.87 28.49 21.88 28.47 21.89 28.46C21.91 28.44 22 28.3 22 28.3C22.09 28.17 22.19 28.05 22.28 27.93L22.36 27.83C22.41 27.77 22.46 27.72 22.51 27.67L22.54 27.64C22.6 27.58 22.65 27.52 22.71 27.46C22.78 27.39 22.86 27.32 22.96 27.25C23.93 26.44 25.12 26.03 26.51 26.03C28.36 26.03 30.15 26.77 31.11 27.17C33.25 28.06 35.1799 29.12 36.9699 30.39C37.0499 30.39 37.13 30.38 37.2 30.38C37.41 30.38 37.61 30.41 37.79 30.47C38.01 30.39 38.25 30.29 38.51 30.19C40.43 29.43 43.63 28.17 48.79 27.99C48.81 27.99 48.85 27.99 48.86 27.99C49.05 27.99 49.23 28.01 49.42 28.05C49.85 28.03 50.2599 28.02 50.6599 28.02C51.0999 28.02 51.55 28.03 52.03 28.06C52.24 28.01 52.44 27.99 52.64 27.99C52.65 27.99 52.69 27.99 52.7 27.99C57.87 28.17 61.07 29.43 62.99 30.19C63.25 30.29 63.49 30.39 63.7 30.47C63.89 30.41 64.08 30.38 64.29 30.38C64.35 30.38 64.42 30.38 64.48 30.38C66.24 29.14 68.14 28.11 70.24 27.23C71.2 26.83 72.99 26.09 74.84 26.09C76.18 26.09 77.34 26.47 78.29 27.23C78.43 27.33 78.55 27.43 78.65 27.53C78.74 27.62 78.83 27.72 78.92 27.82C78.92 27.82 78.93 27.83 78.94 27.84C79.01 27.92 79.06 27.98 79.12 28.05C79.18 28.12 79.24 28.21 79.31 28.29L79.33 28.32C79.37 28.37 79.41 28.43 79.45 28.48C79.67 28.81 79.87 29.14 80.06 29.5C82.32 33.97 80.49 35.88 79.02 37.4C78.71 37.72 78.42 38.02 78.17 38.34C75.99 41.12 75.84 42.47 75.94 43.03C76.09 43.9 75.94 44.7 75.5 45.36C76.27 48.15 76.35 50.5 76.36 52.85C76.43 53.55 76.4699 54.25 76.4699 54.93C76.4699 55.34 76.46 55.71 76.43 56.06C76.43 56.07 76.4099 56.21 76.4099 56.21C76.4099 56.3 76.39 56.39 76.38 56.48C76.36 56.66 76.33 56.83 76.3 57L76.28 57.12C75.92 62 74.1399 65.21 70.8499 66.93C70.0699 67.73 69.21 68.48 68.31 69.19C67.29 70 66.18 70.76 65.01 71.47C61.89 73.37 58.49 74.75 55.2 75.45C55.16 75.46 55.13 75.47 55.09 75.48C53.64 75.78 52.27 75.95 50.99 75.97H50.9099C50.9099 75.97 50.85 75.97 50.82 75.97H50.67L50.6599 75.98Z" fill="#2F150C"/>
<path d="M78.83 30.1099C78.67 29.7899 78.5 29.51 78.32 29.25C78.28 29.2 78.24 29.14 78.21 29.09C78.16 29.02 78.11 28.96 78.06 28.9C78.02 28.85 77.97 28.7899 77.93 28.7399C77.93 28.7399 77.93 28.7399 77.92 28.7299C77.85 28.6499 77.77 28.5599 77.7 28.4899C77.64 28.4299 77.56 28.37 77.48 28.31C75.38 26.61 72.33 27.8399 70.79 28.4899C67.91 29.6899 65.94 31.0099 64.79 31.8599C64.37 31.6699 64.06 31.6899 63.92 31.9699C62.18 31.4799 59.04 29.5699 52.68 29.3499C52.52 29.3499 52.35 29.38 52.19 29.44C51.68 29.4 51.18 29.38 50.68 29.38C50.22 29.38 49.75 29.3999 49.29 29.4199C49.14 29.3699 48.99 29.3399 48.85 29.3499C42.49 29.5699 39.35 31.4799 37.61 31.9699C37.47 31.6799 37.15 31.67 36.71 31.87C35.58 31.03 33.57 29.6599 30.6 28.4199C29.03 27.7699 25.92 26.51 23.81 28.32C23.76 28.35 23.72 28.3899 23.68 28.4199C23.63 28.4699 23.57 28.53 23.52 28.59C23.48 28.63 23.45 28.67 23.41 28.71C23.39 28.74 23.36 28.7599 23.34 28.7899C23.27 28.8799 23.19 28.97 23.12 29.07C23.1 29.1 23.08 29.13 23.06 29.15C23.06 29.16 23.04 29.1699 23.04 29.1799C22.86 29.4399 22.69 29.7199 22.53 30.0499C20.28 34.4899 22.71 35.4399 24.27 37.4299C25.83 39.4299 27.07 41.56 26.78 43.21C26.63 44.11 27.02 44.71 27.53 45.08C26.79 47.45 26.59 49.44 26.54 51.57C26.35 52.7 26.54 57.57 26.71 58.15C27.14 61.48 28.31 63.51 29.89 64.81C30.48 65.3 31.14 65.6799 31.83 65.9899C32.72 66.8399 33.69 67.64 34.7 68.39C35.63 69.08 36.6 69.73 37.61 70.32C40.89 72.27 44.42 73.66 47.46 74.27C47.52 74.28 47.58 74.29 47.65 74.31C48.31 74.44 48.94 74.53 49.54 74.58C49.68 74.59 49.83 74.5999 49.98 74.6099C50.18 74.6099 50.38 74.62 50.61 74.63H50.68H50.83C50.88 74.63 50.93 74.63 50.98 74.63C52.2 74.61 53.49 74.4499 54.82 74.1699H54.83L54.89 74.15C57.99 73.49 61.29 72.16 64.31 70.33C65.41 69.67 66.47 68.94 67.47 68.15C68.38 67.43 69.24 66.6599 70.03 65.8499C70.09 65.8199 70.16 65.79 70.22 65.75C72.7 64.46 74.56 62.06 74.92 57C74.95 56.78 75 56.5699 75.02 56.3499C75.04 56.2299 75.05 56.0999 75.06 55.9799C75.09 55.6399 75.1 55.31 75.1 54.96C75.1 54.3 75.06 53.63 74.99 52.96C74.99 50.27 74.88 47.95 73.97 45.07C74.42 44.7 74.73 44.13 74.59 43.31C74.3 41.66 75.53 39.53 77.1 37.53C78.67 35.53 81.09 34.59 78.84 30.15L78.83 30.1099Z" fill="#2F150C"/>
<path d="M37.59 32.5598C37.6 32.7698 37.64 33.1099 37.71 33.6399C37.93 35.4099 35.41 36.8299 34.23 37.3999C33.86 37.5799 33.63 37.6698 33.63 37.6698C28.26 40.4398 29.66 45.5798 28.84 45.5398C28.02 45.4998 26.5 44.8598 26.78 43.2198C27.07 41.5798 25.84 39.4399 24.27 37.4399C22.71 35.4499 20.28 34.4998 22.53 30.0598C22.88 29.3598 23.26 28.8298 23.67 28.4298C24.17 27.9398 25.82 27.7298 26.36 27.7398C28.41 27.7598 28.78 28.0698 30.21 28.4698C32.23 29.0198 36.91 32.0699 37.6 32.5699L37.59 32.5598Z" fill="#E48F8C"/>
<path d="M37.59 32.56C37.6 32.77 37.64 33.11 37.71 33.64C37.93 35.41 35.41 36.83 34.23 37.4C33.46 32.52 32.88 31.49 29.67 29.39C28.28 28.49 24.66 27.34 23.03 29.19C25.06 26.17 28.8 27.69 30.58 28.42C34.64 30.11 36.9 32.05 37.59 32.55V32.56Z" fill="#D3AA7F"/>
<path d="M63.7701 32.62C63.7501 32.83 63.7201 33.17 63.6501 33.7C63.4401 35.47 65.9501 36.89 67.1401 37.46C67.5001 37.63 67.7501 37.73 67.7501 37.73C73.1201 40.5 71.7201 45.63 72.5401 45.59C73.3601 45.55 74.88 44.91 74.6 43.27C74.31 41.62 75.5401 39.49 77.1101 37.49C78.6801 35.49 81.1 34.55 78.85 30.11C78.49 29.41 78.1101 28.88 77.7101 28.49C77.3101 28.09 76.5001 27.8 76.0301 27.77C73.4301 27.61 72.23 28.46 70.72 28.88C68.7 29.43 64.4701 32.12 63.7901 32.62H63.7701Z" fill="#E48F8C"/>
<path d="M63.7701 32.62C63.7501 32.83 63.7201 33.17 63.6501 33.7C63.4401 35.47 65.9501 36.8901 67.1401 37.4601C67.9101 32.5801 68.4901 31.55 71.7001 29.45C73.0901 28.55 76.7101 27.4 78.3301 29.25C76.3001 26.23 72.5601 27.75 70.7801 28.48C66.7201 30.17 64.4601 32.11 63.7701 32.61V32.62Z" fill="#D3AA7F"/>
<path d="M73.8999 44.8199C74.8699 47.8099 74.9799 50.1699 74.9799 52.9299C75.0499 53.5999 75.0899 54.2699 75.0899 54.9299C75.0899 55.2699 75.0799 55.6099 75.0499 55.9499C75.0399 56.0699 75.0299 56.1999 75.0099 56.3199C74.9899 56.5399 74.9398 56.7499 74.9098 56.9699C74.5498 62.0299 72.6899 64.4299 70.2099 65.7199C70.1399 65.7499 70.0799 65.7899 70.0199 65.8199C69.2299 66.6299 68.3699 67.3999 67.4599 68.1199C66.4699 68.9099 65.3999 69.6399 64.2999 70.2999C61.2899 72.1299 57.9799 73.4599 54.8799 74.1199H54.8199L54.8099 74.1399C53.4799 74.4199 52.1898 74.5799 50.9698 74.5999C50.9198 74.5999 50.8699 74.5999 50.8199 74.5999H50.5998C50.3798 74.5899 50.1698 74.5799 49.9698 74.5799C49.8198 74.5799 49.6699 74.5599 49.5299 74.5499C48.9299 74.4999 48.2999 74.4099 47.6399 74.2799C47.5699 74.2699 47.5199 74.2499 47.4499 74.2399C44.4099 73.6299 40.8798 72.2399 37.5998 70.2899C36.5998 69.6999 35.6199 69.0499 34.6899 68.3599C33.6699 67.6099 32.7099 66.8099 31.8199 65.9599C31.1299 65.6499 30.4799 65.2699 29.8799 64.7799C28.2999 63.4799 27.1299 61.4499 26.6999 58.1199C26.5299 57.5399 26.3399 52.6699 26.5299 51.5399C26.5799 49.3399 26.7898 47.2799 27.5998 44.7999C25.4998 43.4899 36.5199 29.7499 37.5899 31.9599C39.3399 31.4699 42.4799 29.5599 48.8299 29.3399C49.2199 29.3299 49.5999 29.5399 49.9799 29.7299C50.1999 29.7299 50.4298 29.7199 50.6598 29.7199C50.9398 29.7199 51.2199 29.7199 51.4999 29.7399C51.8799 29.5599 52.2698 29.3399 52.6598 29.3499C59.0198 29.5699 62.1599 31.4799 63.8999 31.9699C64.9699 29.7699 75.9899 43.4999 73.8899 44.8099" fill="#D3AA7F"/>
<path d="M64.31 32.8699C64.18 32.7799 63.7 32.6999 63.7 32.6999C63.27 32.5799 62.78 32.3799 62.21 32.1599C60.3 31.4099 57.43 30.2699 52.63 30.1099C52.47 30.1099 52.22 30.2299 51.97 30.3499C51.61 30.5299 51.2 30.7199 50.74 30.7399C50.27 30.7199 49.87 30.5199 49.51 30.3499C49.27 30.2299 49.01 30.1099 48.85 30.1099C44.06 30.2699 41.18 31.4099 39.27 32.1599C38.7 32.3799 38.21 32.5799 37.78 32.6999C37.78 32.6999 37.3 32.7899 37.17 32.8699C34.13 34.8399 30.15 41.2599 28.49 44.4899C28.42 44.6199 28.31 45.0499 28.31 45.0499C27.25 48.3299 27.25 50.8699 27.26 54.0799C27.26 54.4199 27.26 54.7599 27.26 55.1099C27.26 64.9099 31.94 65.7099 37.36 66.6199C38.8 66.8699 40.28 67.1199 41.65 67.5599C43.99 68.3199 45.35 68.9798 46.35 69.4698C47.79 70.1698 48.52 70.5199 50.74 70.5399C52.96 70.5199 53.7 70.1698 55.13 69.4698C56.12 68.9798 57.48 68.3199 59.82 67.5599C61.19 67.1199 62.67 66.8699 64.11 66.6199C69.53 65.6999 74.21 64.9099 74.21 55.1099C74.21 54.7599 74.21 54.4199 74.21 54.0799C74.22 50.8699 74.23 48.3299 73.16 45.0499C73.16 45.0499 73.05 44.6199 72.98 44.4899C71.31 41.2699 67.28 34.9299 64.29 32.8699" fill="#EDC494"/>
<path d="M50.67 73.1499C47.04 73.1499 41.6201 71.0199 37.1901 67.8599C32.1001 64.2299 28.8901 59.7199 28.3801 55.4999C28.3301 55.0799 28.3 54.6599 28.3 54.2299C28.3 45.7599 33.8001 35.5299 35.5701 33.8499C36.9101 32.5699 43.8001 29.3899 50.6801 29.3899C57.1501 29.3899 64.36 32.5299 65.8 33.8699C67.63 35.5699 73.0601 45.7899 73.0601 54.2299C73.0601 54.5299 73.0501 54.8499 73.0301 55.1499C73.0301 55.2599 73.0101 55.3799 73.0001 55.4899C71.9401 65.3399 58.8901 72.9999 50.9601 73.1599H51.0001H50.7001" fill="#EDC494"/>
<path d="M64.8799 65.7099C65.0499 66.3099 66.2099 66.5299 67.4799 66.1799C68.7499 65.8299 69.6399 65.0599 69.4799 64.4499C69.3199 63.8399 68.1499 63.6298 66.8799 63.9798C65.6099 64.3298 64.7199 65.0999 64.8799 65.7099Z" fill="#231F20"/>
<path d="M35.25 65.3499C35.09 65.8699 33.96 65.9799 32.72 65.5999C31.48 65.2199 30.6 64.4999 30.76 63.9799C30.92 63.4599 32.05 63.3499 33.29 63.7299C34.53 64.1099 35.41 64.8399 35.25 65.3499Z" fill="#231F20"/>
<path d="M29.4201 44.7399C29.6401 44.9999 30.2301 44.8599 30.7401 44.4299C31.2501 43.9999 31.4901 43.4499 31.2701 43.1899C31.0501 42.9299 30.4601 43.0699 29.9501 43.4999C29.4401 43.9299 29.2001 44.4799 29.4201 44.7399Z" fill="#231F20"/>
<path d="M68.3399 42.78C68.0599 42.7 67.9799 42.6399 67.8999 43.0599C67.8199 43.4899 68.1199 44.0399 68.3399 44.2399C68.5599 44.4399 68.6799 44.4999 69.0499 44.5099C69.4199 44.5199 69.6699 44.6599 69.5899 44.2399C69.5099 43.8199 69.3399 43.2099 69.1799 43.0599C69.0199 42.9099 69.1399 42.7399 68.9699 42.7199C68.8099 42.6999 68.3399 42.7699 68.3399 42.7699V42.78Z" fill="#231F20"/>
<path d="M71.2399 45.3899C70.9099 45.6699 70.7299 46.5199 70.9299 46.7599C71.1199 46.9899 71.16 47.7399 71.65 47.9299C72.15 48.1099 72.27 48.4899 72.4 47.8899C72.52 47.2799 72.61 46.2899 72.4 46.1699C72.19 46.0499 71.6899 45.5799 71.6899 45.5799L71.2499 45.3999L71.2399 45.3899Z" fill="#231F20"/>
<path d="M74.17 51C73.96 50.67 73.76 50.29 73.47 50.44C73.18 50.59 72.92 50.6299 72.93 51.1699C72.93 51.7099 72.96 52.62 72.93 53.07C72.9 53.52 72.85 54.1399 73.22 54.3499C73.59 54.5599 73.63 54.8 73.96 54.56C74.29 54.31 74.56 54.0299 74.56 53.7399C74.56 53.4499 74.17 51.02 74.17 51.02V51Z" fill="#231F20"/>
<path d="M73.7399 58.88C73.5199 58.51 73.3399 58.3 72.9299 58.43C72.5199 58.56 72.1499 58.56 71.9499 59.24C71.7399 59.92 71.4799 60 71.6899 60.68C71.9099 61.36 71.5099 61.87 72.1599 61.74C72.8099 61.61 73.3399 61.37 73.4499 61.09C73.5599 60.81 73.7399 58.89 73.7399 58.89V58.88Z" fill="#231F20"/>
<path d="M27.0601 54.97C27.2701 54.51 26.7701 54.51 27.2701 54.51C27.7701 54.51 27.9301 54.43 28.1301 55.29C28.3301 56.15 28.1701 56.32 28.3301 57.1C28.5001 57.88 28.8301 58.21 28.3301 58.42C27.8301 58.63 27.47 58.59 27.47 58.59C27.47 58.59 27.1501 57.05 27.0401 56.81C26.9201 56.57 27.0601 54.96 27.0601 54.96V54.97Z" fill="#231F20"/>
<path d="M27.39 47.93C27.89 47.7 27.72 47.37 28.13 47.66C28.54 47.95 28.9499 47.88 28.8499 48.61C28.7499 49.35 28.59 49.8 28.38 50.25C28.18 50.7 28.4899 51 27.7999 51.36C27.1099 51.73 27.12 52.12 27 51.59C26.88 51.07 26.98 49.29 27 49.06C27.02 48.83 27.4 47.92 27.4 47.92L27.39 47.93Z" fill="#231F20"/>
<path d="M30.8 51.19C30.8 51.19 35.5201 60.95 39.5701 60.95C42.6701 60.95 46.54 59.36 46.54 59.36C46.54 59.36 48.18 43.1 39.22 42.58C35.18 42.34 30.8101 51.19 30.8101 51.19" fill="#D3AA7F"/>
<path d="M70.61 51.19C70.61 51.19 65.8899 60.95 61.8499 60.95C58.7499 60.95 54.88 59.36 54.88 59.36C54.88 59.36 53.24 43.1 62.2 42.58C66.24 42.34 70.61 51.18 70.61 51.18" fill="#D3AA7F"/>
<path d="M57.9399 51.27C57.9399 51.27 52.3299 55.26 53.9499 63.57C53.9499 63.57 53.8799 62.08 56.1799 62.15C58.4799 62.22 60.4399 61.07 60.4399 61.07L57.9399 51.27Z" fill="#231F20"/>
<path d="M35.1799 44.7299C35.1799 44.7299 35.1899 44.6899 35.2299 44.6199C35.2599 44.5499 35.32 44.45 35.39 44.33C35.47 44.21 35.57 44.0699 35.7 43.9199C35.84 43.7799 35.9799 43.5999 36.1699 43.4399C36.2699 43.3599 36.3599 43.2699 36.4699 43.1899C36.5799 43.1099 36.6999 43.04 36.8199 42.96C36.9399 42.87 37.07 42.8099 37.21 42.7399C37.35 42.6699 37.4799 42.5899 37.6299 42.5499C37.9299 42.4399 38.25 42.3299 38.58 42.2899C38.91 42.2099 39.2599 42.22 39.6099 42.21C39.9599 42.21 40.2899 42.2899 40.6299 42.3499C40.9499 42.4499 41.2599 42.5599 41.5599 42.6799C41.8399 42.8299 42.1 42.9799 42.34 43.1299C42.57 43.2899 42.77 43.48 42.95 43.64C43.04 43.72 43.13 43.7999 43.21 43.8799C43.29 43.9599 43.3499 44.0499 43.4099 44.1299C43.5399 44.2799 43.6399 44.4199 43.7199 44.5399C43.8799 44.7699 43.96 44.9099 43.96 44.9099C43.96 44.9099 43.7999 44.8599 43.5499 44.7499C43.4199 44.6999 43.2699 44.6299 43.0999 44.5499C42.9399 44.4599 42.74 44.3899 42.53 44.3199C42.32 44.2399 42.0999 44.1399 41.8699 44.0599C41.6299 43.9899 41.38 43.92 41.14 43.83C40.88 43.78 40.6199 43.7299 40.3599 43.6599C40.2299 43.6499 40.09 43.6399 39.96 43.6199C39.83 43.6099 39.6899 43.58 39.5599 43.59C39.2899 43.59 39.0199 43.5799 38.7599 43.6099C38.6299 43.6299 38.4999 43.62 38.3699 43.65C38.2399 43.68 38.1099 43.6999 37.9799 43.7199C37.8499 43.7299 37.7299 43.7799 37.6099 43.8099C37.4899 43.8399 37.3699 43.8699 37.2499 43.9099C37.0199 43.9799 36.79 44.0499 36.59 44.1299C36.38 44.1999 36.19 44.2899 36.02 44.3499C35.86 44.4299 35.7 44.4899 35.58 44.5499C35.45 44.6099 35.3599 44.6599 35.2899 44.6899C35.2199 44.7199 35.1799 44.7399 35.1799 44.7399V44.7299Z" fill="#302A13"/>
<path d="M43.04 50.3699C43.04 50.3699 42.56 46.0399 45.41 44.7599C45.41 44.7599 46.15 44.1699 45.1 46.8299C44.05 49.4899 45.41 53.34 45.41 53.34L43.04 50.3699Z" fill="#231F20"/>
<path d="M43.4399 51.27C43.4399 51.27 49.0499 55.26 47.4299 63.57C47.4299 63.57 47.5 62.08 45.2 62.15C42.9 62.22 40.9399 61.07 40.9399 61.07L43.4399 51.27Z" fill="#231F20"/>
<path d="M66.0701 44.7299C66.0701 44.7299 66.0301 44.7099 65.9601 44.6799C65.8901 44.6499 65.8 44.5999 65.67 44.5399C65.55 44.4799 65.39 44.42 65.23 44.34C65.06 44.28 64.87 44.1899 64.66 44.1199C64.45 44.0399 64.2301 43.97 64.0001 43.9C63.8801 43.86 63.7601 43.8299 63.6401 43.7999C63.5201 43.7799 63.4001 43.73 63.2701 43.71C63.1401 43.69 63.0101 43.67 62.8901 43.64C62.7601 43.61 62.6301 43.6199 62.5001 43.5999C62.2401 43.5699 61.9701 43.58 61.7001 43.58C61.5701 43.57 61.43 43.5999 61.3 43.6099C61.17 43.6299 61.0301 43.64 60.9001 43.65C60.6401 43.72 60.3801 43.7599 60.1201 43.8199C59.8701 43.9099 59.6301 43.9799 59.3901 44.0499C59.1601 44.1299 58.94 44.2299 58.73 44.3099C58.52 44.3899 58.32 44.4599 58.16 44.5399C58 44.6199 57.8401 44.6799 57.7101 44.7399C57.4601 44.8499 57.3 44.9 57.3 44.9C57.3 44.9 57.38 44.76 57.54 44.53C57.62 44.41 57.72 44.2699 57.85 44.1199C57.91 44.0399 57.98 43.9599 58.05 43.8699C58.13 43.7899 58.2201 43.7199 58.3101 43.6299C58.4901 43.4699 58.69 43.2899 58.92 43.1199C59.16 42.9699 59.4301 42.8199 59.7001 42.6699C59.9901 42.5499 60.3001 42.44 60.6301 42.34C60.9701 42.29 61.3001 42.21 61.6501 42.2C62.0001 42.2 62.3401 42.2 62.6801 42.28C63.0201 42.32 63.3301 42.4299 63.6301 42.5399C63.7801 42.5899 63.92 42.6699 64.05 42.7299C64.19 42.7999 64.3201 42.86 64.4401 42.95C64.5601 43.03 64.67 43.1099 64.79 43.1799C64.9 43.2599 65.0001 43.3499 65.0901 43.4299C65.2801 43.5799 65.4201 43.7599 65.5601 43.9099C65.6901 44.0599 65.7901 44.1999 65.8701 44.3199C65.9501 44.4399 66.0001 44.5399 66.0301 44.6099C66.0701 44.6699 66.0801 44.7199 66.0801 44.7199L66.0701 44.7299Z" fill="#302A13"/>
<path d="M46.53 59.3599C39.08 62.9099 33.84 60.6099 31.48 51.4099C31.48 51.4099 40.43 44.4499 45.19 53.3699C45.93 54.7599 46.53 59.3499 46.53 59.3499" fill="white"/>
<path d="M39.34 59.9499C37.27 59.9099 35.5399 58.2699 34.8699 55.9899C34.6699 55.2999 34.56 54.5399 34.58 53.7499C34.65 50.5799 36.6199 49.4499 39.0999 49.3799C39.2499 49.3799 39.4099 49.3699 39.5599 49.3799C42.2599 49.4399 44.2999 52.2399 44.3499 53.9599C44.4399 57.3299 42.03 60.0099 39.34 59.9499Z" fill="#ECB61E"/>
<path d="M39.3599 59.09C37.7899 59.05 36.4199 57.7099 35.8599 55.6699C35.6799 55.0199 35.5899 54.3299 35.6099 53.6299C35.6599 51.2599 36.7799 50.1299 39.1299 50.0599C39.2499 50.0599 39.3699 50.0499 39.4799 50.0499H39.5499C41.6799 50.0999 43.3 52.5799 43.33 53.8499C43.37 55.3899 42.8499 56.8499 41.9199 57.8699C41.2099 58.6499 40.3199 59.08 39.4299 59.08H39.3699" fill="#6C5221"/>
<path d="M54.8501 59.3599C62.3001 62.9099 67.5401 60.6099 69.9001 51.4099C69.9001 51.4099 60.9501 44.4499 56.1901 53.3699C55.4501 54.7599 54.8501 59.3499 54.8501 59.3499" fill="white"/>
<path d="M62.04 59.9499C64.11 59.9099 65.84 58.2699 66.51 55.9899C66.72 55.2999 66.82 54.5399 66.8 53.7499C66.73 50.5799 64.76 49.4499 62.28 49.3799C62.13 49.3799 61.97 49.3699 61.82 49.3799C59.12 49.4399 57.08 52.2399 57.03 53.9599C56.94 57.3299 59.34 60.0099 62.04 59.9499Z" fill="#ECB61E"/>
<path d="M61.9601 59.09C61.0701 59.09 60.18 58.6599 59.47 57.8799C58.53 56.8599 58.02 55.3999 58.06 53.8599C58.09 52.5899 59.71 50.1099 61.85 50.0599H61.91C62.03 50.0599 62.1501 50.0599 62.2701 50.0599C64.6201 50.1299 65.74 51.2699 65.79 53.6299C65.8 54.3299 65.72 55.0199 65.54 55.6699C64.98 57.7099 63.6001 59.05 62.0301 59.09H61.97" fill="#6C5221"/>
<path d="M39.6599 52.4899C39.6199 54.5299 38.26 56.1499 36.62 56.1199C35.88 56.0999 35.22 55.7499 34.71 55.1799C34.53 54.5699 34.44 53.9098 34.45 53.2198C34.51 50.4398 36.2299 49.4499 38.4099 49.3899C39.1899 50.0699 39.6899 51.2099 39.6599 52.4899Z" fill="white"/>
<path d="M42.2299 58.38C42.2199 59.07 41.7499 59.62 41.1999 59.61C40.6499 59.6 40.2099 59.03 40.2199 58.34C40.2399 57.65 40.6999 57.1 41.2499 57.11C41.7999 57.12 42.2399 57.69 42.2199 58.38H42.2299Z" fill="white"/>
<path d="M61.9199 52.7999C61.8799 54.8399 60.52 56.4599 58.88 56.4299C58.14 56.4099 57.4799 56.0599 56.9699 55.4899C56.7899 54.8799 56.7 54.22 56.71 53.53C56.77 50.75 58.4899 49.76 60.6699 49.7C61.4499 50.38 61.9499 51.5199 61.9199 52.7999Z" fill="white"/>
<path d="M54.9501 65.51C54.3101 65.01 54.3501 64.22 54.1501 64.11C54.0601 64.06 51.5601 65.44 50.7001 65.45C49.8401 65.44 47.3601 64.15 47.2701 64.2C47.0801 64.31 47.0701 65.01 46.4301 65.51C45.7901 66.01 44.8301 67.55 44.7001 68.87C44.5701 70.23 44.9901 70.8 45.2801 71.38C45.5701 71.95 49.2301 73.26 50.6801 73.28C52.1301 73.26 55.8001 71.83 56.0901 71.27C56.3801 70.7 56.6401 70.29 56.6301 68.94C56.6201 67.61 55.5701 66.01 54.9301 65.52" fill="white"/>
<path d="M64.6899 58.38C64.6699 59.07 64.2098 59.62 63.6598 59.61C63.0998 59.6 62.6699 59.03 62.6799 58.34C62.6999 57.65 63.1599 57.1 63.7099 57.11C64.2599 57.12 64.6999 57.69 64.6899 58.38Z" fill="white"/>
<path d="M31.93 52.9699C31.77 52.4699 31.62 51.9499 31.48 51.4099C31.48 51.4099 34.81 48.83 38.48 48.83C40.26 48.83 42.12 49.4399 43.73 51.2399L43.75 51.27C42.14 49.45 40.27 48.84 38.48 48.84C34.81 48.84 31.48 51.4199 31.48 51.4199C31.62 51.9599 31.77 52.4799 31.93 52.9799M44.54 52.28C44.54 52.28 44.54 52.28 44.53 52.27C44.48 52.19 44.42 52.11 44.37 52.03L44.39 52.0599C44.44 52.1299 44.49 52.2 44.54 52.28Z" fill="#C29D7A"/>
<path d="M44.39 52.07L44.37 52.04C44.17 51.76 43.97 51.51 43.76 51.27L43.74 51.24C43.97 51.49 44.18 51.77 44.4 52.07" fill="#292526"/>
<path d="M45.2 59.95C45.64 59.78 46.08 59.58 46.54 59.37C46.54 59.37 45.94 54.77 45.2 53.39C44.98 52.99 44.76 52.62 44.53 52.28C44.53 52.28 44.53 52.28 44.54 52.29C44.77 52.62 44.99 52.99 45.2 53.39C45.93 54.78 46.54 59.37 46.54 59.37C46.09 59.59 45.64 59.78 45.2 59.95Z" fill="#292526"/>
<path d="M45.2 59.95C44.95 58.64 44.63 57.1599 44.26 56.4799C44.19 56.3499 44.12 56.2299 44.05 56.1099C44.26 55.4399 44.37 54.72 44.35 53.96C44.3 52.24 42.25 49.4399 39.56 49.3799C39.53 49.3799 39.5 49.3799 39.47 49.3799C39.34 49.3799 39.22 49.38 39.09 49.39C38.87 49.39 38.65 49.4099 38.44 49.4299C38.43 49.4199 38.41 49.41 38.4 49.39C36.44 49.45 34.85 50.26 34.51 52.45C33.59 52.75 32.76 53.1499 32.11 53.5099C32.05 53.3299 31.99 53.1499 31.93 52.9699C31.77 52.4699 31.62 51.9499 31.48 51.4099C31.48 51.4099 34.81 48.83 38.48 48.83C40.27 48.83 42.14 49.4399 43.75 51.2599C43.96 51.4999 44.16 51.75 44.36 52.03C44.41 52.11 44.47 52.18 44.52 52.27C44.75 52.61 44.97 52.9799 45.19 53.3799C45.93 54.7699 46.53 59.3599 46.53 59.3599C46.08 59.5799 45.63 59.7699 45.19 59.9399" fill="#E2E1E1"/>
<path d="M44.0599 56.1099C43.8099 55.6699 43.54 55.2699 43.27 54.9099C43.32 54.5599 43.34 54.2099 43.33 53.8599C43.3 52.5899 41.6799 50.1099 39.5499 50.0599H39.4799C39.3599 50.0599 39.2399 50.0599 39.1299 50.0599C39.0899 50.0599 39.0399 50.0599 38.9999 50.0599C38.8399 49.8199 38.65 49.5999 38.45 49.4199C38.66 49.3999 38.8799 49.3799 39.0999 49.3799C39.2299 49.3799 39.3499 49.3699 39.4799 49.3699C39.5099 49.3699 39.5399 49.3699 39.5699 49.3699C42.2699 49.4299 44.3099 52.2299 44.3599 53.9499C44.3799 54.7099 44.2699 55.4399 44.0599 56.0999" fill="#D7A72D"/>
<path d="M43.27 54.9099C42.17 53.4599 40.93 52.6499 39.67 52.2399C39.64 51.4199 39.4 50.6599 39.01 50.0599C39.05 50.0599 39.09 50.0599 39.14 50.0599C39.26 50.0599 39.38 50.0499 39.49 50.0499H39.56C41.69 50.0999 43.31 52.5799 43.34 53.8499C43.34 54.2099 43.33 54.56 43.28 54.9" fill="#6A5326"/>
<path d="M34.52 52.4499C34.86 50.2599 36.45 49.4499 38.41 49.3899C38.42 49.3999 38.44 49.4099 38.45 49.4299C38.65 49.6099 38.84 49.8299 39 50.0699C39.39 50.6699 39.64 51.4199 39.66 52.2499C38.95 52.0299 38.24 51.9399 37.54 51.9399C36.48 51.9399 35.44 52.1599 34.51 52.4599" fill="#E2E1E1"/>
<path d="M56.8501 52.27C56.8501 52.27 56.8701 52.24 56.8801 52.22C56.8801 52.22 56.8601 52.25 56.8601 52.26H56.8501" fill="#C29D7A"/>
<path d="M56.1901 59.95C55.7501 59.78 55.3001 59.58 54.8501 59.37C54.8501 59.37 55.4501 54.77 56.1901 53.39C56.4101 52.99 56.6301 52.62 56.8601 52.28H56.8701C56.6401 52.61 56.4101 52.99 56.1901 53.39C55.4501 54.78 54.8501 59.37 54.8501 59.37C55.3001 59.59 55.7501 59.78 56.1901 59.95Z" fill="#292526"/>
<path d="M56.1901 59.95C55.7501 59.78 55.3101 59.58 54.8501 59.37C54.8501 59.37 55.4501 54.77 56.1901 53.39C56.4101 52.98 56.6301 52.61 56.8701 52.27C56.8701 52.26 56.8901 52.25 56.8901 52.24C56.7801 52.63 56.7201 53.06 56.7101 53.55C56.7001 54.24 56.7901 54.9 56.9701 55.51C57.0601 55.6 57.1401 55.69 57.2301 55.77C57.2601 55.89 57.3001 56.02 57.3301 56.13C57.2601 56.25 57.1901 56.37 57.1301 56.5C56.7701 57.18 56.4401 58.66 56.1901 59.97" fill="#E2E1E1"/>
<path d="M57.33 56.11C57.29 55.99 57.26 55.87 57.23 55.75C57.3 55.81 57.37 55.87 57.45 55.92C57.41 55.98 57.37 56.05 57.34 56.11" fill="#D7A72D"/>
<path d="M69.5001 52.7999C69.6401 52.3599 69.7701 51.8899 69.8901 51.4199C69.8901 51.4199 66.5601 48.84 62.8901 48.84C61.6401 48.84 60.3601 49.1399 59.1401 49.9399C60.3501 49.1399 61.6401 48.84 62.8901 48.84C66.5601 48.84 69.8901 51.4199 69.8901 51.4199C69.7601 51.8999 69.6301 52.3599 69.4901 52.7999" fill="#C29D7A"/>
<path d="M69.2699 53.5099C68.5599 53.1199 67.6499 52.6899 66.6299 52.3799C66.0899 50.2499 64.3699 49.4399 62.2899 49.3799C62.1599 49.3799 62.0399 49.3699 61.9099 49.3699C61.8799 49.3699 61.8499 49.3699 61.8199 49.3699C61.2699 49.3799 60.7499 49.5099 60.2599 49.7199C59.8699 49.7499 59.4999 49.8199 59.1499 49.9299C60.3599 49.1299 61.6499 48.83 62.8999 48.83C66.5699 48.83 69.8999 51.4099 69.8999 51.4099C69.7799 51.8899 69.6499 52.3499 69.5099 52.7899C69.4299 53.0299 69.3599 53.2699 69.2699 53.4999" fill="#E2E1E1"/>
<path d="M66.63 52.3799C66.28 52.2699 65.92 52.1799 65.54 52.0999C65.1 50.7699 64.03 50.1199 62.26 50.0599C62.14 50.0599 62.02 50.0499 61.9 50.0499H61.84C61.59 50.0499 61.34 50.0999 61.1 50.1699C60.97 49.9999 60.82 49.8399 60.66 49.6899C60.52 49.6899 60.39 49.6999 60.26 49.7099C60.75 49.4999 61.27 49.3799 61.82 49.3599C61.85 49.3599 61.88 49.3599 61.91 49.3599C62.04 49.3599 62.16 49.3599 62.29 49.3699C64.37 49.4299 66.09 50.2299 66.63 52.3699" fill="#D7A72D"/>
<path d="M61.8899 52.2C61.7999 51.42 61.5199 50.7199 61.1099 50.1799C61.3499 50.1099 61.5999 50.0699 61.8499 50.0699H61.9099C62.0299 50.0699 62.1499 50.0699 62.2699 50.0699C64.0399 50.1199 65.1099 50.7799 65.5499 52.1099C64.9999 51.9999 64.4299 51.9399 63.8399 51.9399C63.1999 51.9399 62.5399 52.02 61.8899 52.2Z" fill="#6A5326"/>
<path d="M57.44 55.9199C57.36 55.8699 57.2899 55.8099 57.2199 55.7499C57.1299 55.6699 57.04 55.5799 56.96 55.4899C56.78 54.8799 56.69 54.22 56.7 53.53C56.71 53.04 56.77 52.6099 56.88 52.2199C57.58 51.1999 58.34 50.4599 59.14 49.9299C59.49 49.8199 59.86 49.7599 60.25 49.7199C60.38 49.7099 60.52 49.7 60.65 49.7C60.81 49.84 60.96 49.9999 61.09 50.1799C61.51 50.7199 61.79 51.42 61.87 52.2C60.28 52.66 58.7099 53.7599 57.4199 55.9299" fill="#E2E1E1"/>
<path d="M45.33 59.7899C44.93 59.9399 44.52 60.0399 44.11 60.1599C43.71 60.2999 43.28 60.3399 42.87 60.4299C42.46 60.5299 42.04 60.5299 41.63 60.5799C41.21 60.6299 40.8 60.5799 40.39 60.5999C39.98 60.5799 39.58 60.4999 39.17 60.4499C38.79 60.3199 38.38 60.2499 38.01 60.0799C37.64 59.9099 37.27 59.7699 36.94 59.5299L36.43 59.2099L35.98 58.8099C35.66 58.5699 35.41 58.2399 35.14 57.9499C34.85 57.6699 34.65 57.2999 34.41 56.9799C34.16 56.6599 34 56.2699 33.79 55.9199C33.57 55.5699 33.43 55.1799 33.26 54.8099C33.08 54.4399 32.94 54.0499 32.8 53.6499C32.66 53.2599 32.51 52.8698 32.4 52.4698L32.16 51.6499C32.41 51.4799 32.68 51.3099 32.94 51.1499C33.32 50.9199 33.72 50.7099 34.12 50.5099C34.92 50.1199 35.76 49.8199 36.61 49.6099C37.04 49.5099 37.47 49.4299 37.9 49.3899C38.33 49.3399 38.76 49.3499 39.2 49.3899C39.63 49.4299 40.05 49.5099 40.46 49.6299C40.87 49.7599 41.27 49.9099 41.65 50.1199C41.84 50.2199 42.03 50.3299 42.2 50.4599C42.39 50.5699 42.56 50.7099 42.72 50.8499C42.89 50.9799 43.05 51.1399 43.21 51.2899C43.37 51.4399 43.52 51.5999 43.66 51.7799C43.96 52.1099 44.22 52.4799 44.48 52.8399L44.84 53.4099C44.94 53.5499 45.03 53.8099 45.13 54.0099C45.29 54.4399 45.44 54.8299 45.56 55.2799C45.69 55.7199 45.81 56.1699 45.91 56.6199C46.03 57.0699 46.12 57.5299 46.22 57.9799C46.32 58.4299 46.42 58.8899 46.52 59.3399L45.31 59.7699L45.33 59.7899ZM46.93 56.4899C46.85 55.9499 46.78 55.4899 46.7 55.0899C46.63 54.6499 46.51 54.1499 46.35 53.5999V53.5699L46.33 53.5399C46.3 53.4699 46.28 53.4099 46.25 53.3399C46.2 53.1899 46.14 53.0199 46.02 52.7999L45.68 52.1699L45.64 52.1099C45.39 51.6999 45.14 51.2799 44.82 50.8799C44.67 50.6799 44.51 50.4699 44.31 50.2699C44.14 50.0799 43.95 49.8799 43.75 49.7099C43.57 49.5399 43.37 49.3499 43.12 49.1799C42.88 48.9899 42.67 48.8399 42.45 48.7299C42.25 48.5999 42.02 48.4699 41.74 48.3499C41.51 48.2299 41.28 48.1399 41.07 48.0699L40.97 48.0399C40.48 47.8699 39.96 47.7499 39.36 47.6699C38.96 47.6299 38.62 47.6099 38.3 47.6099C38.12 47.6099 37.93 47.6099 37.77 47.6299C37.27 47.6499 36.76 47.7299 36.19 47.8499C35.21 48.0699 34.24 48.4099 33.31 48.8499C32.86 49.0599 32.41 49.2999 31.98 49.5499C31.52 49.8099 31.12 50.0899 30.69 50.3999L30 50.9299L30.24 51.7599L30.61 52.9899C30.7 53.3399 30.83 53.6699 30.94 53.9899C30.98 54.0899 31.02 54.1899 31.05 54.2899C31.2 54.7099 31.37 55.1499 31.58 55.5799C31.63 55.6899 31.68 55.7999 31.73 55.8999C31.87 56.1999 32.02 56.5199 32.22 56.8299C32.3 56.9499 32.37 57.0799 32.44 57.1999C32.59 57.4699 32.75 57.7499 32.97 58.0099C33.06 58.1199 33.14 58.2299 33.22 58.3399C33.41 58.5999 33.61 58.8799 33.86 59.1099L34.02 59.2699C34.29 59.5599 34.57 59.8599 34.94 60.1099L35.5 60.5399L36.11 60.8999C36.48 61.1399 36.86 61.2799 37.22 61.4199L37.45 61.5099C37.78 61.6499 38.12 61.7099 38.43 61.7699C38.57 61.7999 38.71 61.8199 38.85 61.8599H38.91L38.97 61.8799C39.1 61.8899 39.23 61.8999 39.35 61.9099C39.63 61.9299 39.93 61.9599 40.23 61.9599H40.39H40.42C40.56 61.9499 40.7 61.9399 40.84 61.9399C41.16 61.9299 41.49 61.9099 41.82 61.8299C41.95 61.7999 42.09 61.7799 42.22 61.7499C42.53 61.6999 42.85 61.6399 43.16 61.5199C43.29 61.4799 43.43 61.4399 43.57 61.3999C43.86 61.3199 44.16 61.2299 44.45 61.0999C44.58 61.0499 44.71 60.9899 44.84 60.9399C45.12 60.8299 45.4 60.7199 45.69 60.5699C45.69 60.5699 46.43 59.7399 46.59 59.4099C46.9 58.7499 47.05 57.4399 46.91 56.4999L46.93 56.4899Z" fill="#F8D089"/>
<path d="M58.34 50.3699C58.34 50.3699 58.81 46.0499 55.97 44.7599C55.97 44.7599 55.23 44.1799 56.28 46.8299C57.32 49.4899 55.97 53.34 55.97 53.34L58.34 50.3599V50.3699Z" fill="#231F20"/>
<path d="M54.85 59.3599C54.94 58.8999 55.0401 58.4499 55.1501 57.9999C55.2501 57.5499 55.3401 57.0899 55.4601 56.6399C55.5701 56.1899 55.68 55.7399 55.81 55.2999C55.93 54.8499 56.08 54.4499 56.24 54.0299C56.34 53.8399 56.4301 53.5799 56.5301 53.4299L56.8901 52.8599C57.1501 52.4899 57.4101 52.1299 57.7101 51.7999C57.8501 51.6299 58 51.4699 58.16 51.3099C58.32 51.1599 58.4701 50.9999 58.6501 50.8699C58.8201 50.7299 58.98 50.5899 59.17 50.4799C59.34 50.3499 59.53 50.2399 59.72 50.1399C60.09 49.9199 60.5 49.7799 60.91 49.6499C61.32 49.5199 61.74 49.4499 62.17 49.4099C62.6 49.3799 63.03 49.3699 63.47 49.4099C63.9 49.4399 64.33 49.5299 64.76 49.6299C65.61 49.8299 66.45 50.1399 67.25 50.5299C67.65 50.7199 68.05 50.9399 68.43 51.1699C68.69 51.3299 68.9601 51.4999 69.2101 51.6699L68.97 52.4899C68.87 52.8999 68.71 53.2799 68.57 53.6699C68.43 54.0599 68.29 54.4599 68.11 54.8299C67.93 55.1999 67.7901 55.5999 67.5801 55.9399C67.3701 56.2899 67.2101 56.6799 66.9601 56.9999C66.7101 57.3199 66.52 57.6898 66.23 57.9698C65.96 58.2598 65.7101 58.5899 65.3901 58.8299L64.94 59.2299L64.43 59.5499C64.11 59.7899 63.73 59.9299 63.36 60.0999C62.99 60.2699 62.5901 60.3398 62.2001 60.4698C61.8001 60.5198 61.39 60.5999 60.98 60.6199C60.57 60.6099 60.15 60.6599 59.74 60.5999C59.33 60.5499 58.9 60.5499 58.5 60.4499C58.09 60.3499 57.6601 60.3099 57.2601 60.1799C56.8601 60.0499 56.44 59.9499 56.04 59.8099L54.8301 59.3799L54.85 59.3599ZM54.7801 59.3999C54.9401 59.7299 55.68 60.5599 55.68 60.5599C55.97 60.6999 56.2501 60.8199 56.5301 60.9299C56.6601 60.9799 56.79 61.0299 56.92 61.0899C57.21 61.2199 57.51 61.3099 57.8 61.3899C57.94 61.4299 58.0701 61.4699 58.2101 61.5099C58.5201 61.6199 58.8401 61.6799 59.1501 61.7399C59.2801 61.7699 59.42 61.7899 59.55 61.8199C59.88 61.8999 60.2101 61.9199 60.5301 61.9299C60.6701 61.9299 60.8101 61.9399 60.9501 61.9499H60.98H61.1401C61.4401 61.9499 61.7301 61.9299 62.0201 61.8999C62.1501 61.8999 62.2701 61.8799 62.4001 61.8699H62.4601L62.5201 61.8499C62.6601 61.8199 62.8 61.7899 62.94 61.7599C63.26 61.6999 63.59 61.6299 63.92 61.4999L64.1501 61.4099C64.5201 61.2699 64.9 61.1299 65.26 60.8899L65.87 60.5299L66.43 60.0999C66.79 59.8499 67.08 59.5499 67.35 59.2599L67.51 59.0999C67.76 58.8699 67.9501 58.5999 68.1501 58.3299C68.2301 58.2199 68.3101 58.0999 68.4001 57.9999C68.6201 57.7399 68.78 57.4599 68.93 57.1899C69 57.0699 69.0701 56.9399 69.1501 56.8199C69.3501 56.5099 69.5001 56.1999 69.6401 55.8899C69.6901 55.7799 69.74 55.6699 69.79 55.5699C70.01 55.1399 70.17 54.6999 70.32 54.2799C70.35 54.1799 70.39 54.0799 70.43 53.9799C70.55 53.6599 70.68 53.3299 70.76 52.9799L71.13 51.7499L71.37 50.9199L70.68 50.3899C70.25 50.0699 69.8501 49.7999 69.3901 49.5399C68.9601 49.2899 68.51 49.0499 68.06 48.8399C67.13 48.3999 66.16 48.0599 65.18 47.8399C64.61 47.7199 64.1 47.6499 63.6 47.6199C63.44 47.6099 63.25 47.5999 63.07 47.5999C62.75 47.5999 62.41 47.6199 62.01 47.6599C61.41 47.7399 60.8901 47.8599 60.4001 48.0299L60.3 48.0599C60.09 48.1399 59.86 48.2199 59.63 48.3399C59.35 48.4699 59.13 48.5898 58.92 48.7198C58.71 48.8398 58.5 48.9899 58.25 49.1699C58.01 49.3399 57.8 49.5299 57.62 49.6999C57.42 49.8699 57.23 50.0699 57.06 50.2599C56.87 50.4599 56.7 50.6599 56.55 50.8699C56.23 51.2699 55.98 51.6899 55.73 52.0999L55.69 52.1599L55.36 52.7899C55.25 53.0099 55.19 53.1799 55.13 53.3299C55.11 53.3899 55.09 53.4599 55.05 53.5299V53.5599L55.0301 53.5899C54.8701 54.1399 54.75 54.6399 54.68 55.0799C54.6 55.4899 54.5301 55.9399 54.4501 56.4799C54.3201 57.4199 54.4601 58.7299 54.7701 59.3899L54.7801 59.3999Z" fill="#F8D089"/>
<path d="M46.5301 59.3599C46.4401 58.8999 46.34 58.4499 46.23 57.9999C46.13 57.5499 46.04 57.09 45.92 56.65C45.81 56.2 45.7001 55.7499 45.5701 55.3099C45.4501 54.8599 45.3001 54.4599 45.1401 54.0399C45.0401 53.8399 44.95 53.5799 44.85 53.4399L44.4901 52.8699C44.2301 52.4999 43.97 52.1299 43.67 51.7999C43.53 51.6299 43.38 51.4699 43.22 51.3199C43.06 51.1599 42.91 51.0099 42.73 50.8799C42.56 50.7399 42.4001 50.5999 42.2101 50.4899C42.0401 50.3699 41.85 50.2499 41.66 50.1499C41.29 49.9299 40.88 49.7799 40.47 49.6499C40.06 49.5199 39.6401 49.4499 39.2101 49.4099C38.7801 49.3799 38.35 49.3699 37.91 49.4199C37.48 49.4499 37.0501 49.5399 36.6201 49.6299C35.7701 49.8299 34.9301 50.14 34.1301 50.53C33.7301 50.72 33.3301 50.9299 32.9501 51.1699C32.5701 51.3999 32.18 51.6499 31.85 51.8899L32.0601 51.28L32.41 52.4899C32.51 52.8999 32.6701 53.2799 32.8101 53.6699C32.9501 54.0699 33.0901 54.4599 33.2701 54.8299C33.4501 55.1999 33.59 55.5999 33.8 55.9499C34.01 56.2999 34.17 56.6899 34.42 57.0099C34.67 57.3299 34.8601 57.6999 35.1501 57.9799C35.4201 58.2699 35.6701 58.6 35.9901 58.84L36.4401 59.2399L36.9501 59.5599C37.2701 59.7999 37.6501 59.9399 38.0201 60.1099C38.3901 60.2799 38.7901 60.3399 39.1801 60.4699C39.5801 60.5199 39.9901 60.5999 40.4001 60.6199C40.8101 60.6099 41.2301 60.6599 41.6401 60.6099C42.0501 60.5599 42.4801 60.5599 42.8801 60.4599C43.2901 60.3699 43.7201 60.3199 44.1201 60.1899C44.5201 60.0699 44.9401 59.9699 45.3401 59.8199L46.55 59.3899L46.5301 59.3599ZM46.5301 59.3599L45.3901 59.9499C45.0101 60.1399 44.6001 60.2799 44.2001 60.4499C43.8001 60.6299 43.3801 60.7199 42.9601 60.8599C42.5501 61.0099 42.1101 61.05 41.6801 61.15C41.2501 61.25 40.8 61.2299 40.36 61.2699C39.92 61.2799 39.4701 61.2299 39.0201 61.1999C38.5901 61.0899 38.1301 61.0499 37.7101 60.8799C37.2901 60.7199 36.85 60.5799 36.47 60.3299L35.8801 59.9899L35.3401 59.5699C34.9601 59.3099 34.67 58.9699 34.36 58.6399C34.03 58.3299 33.8001 57.94 33.5201 57.59C33.2301 57.24 33.0401 56.8399 32.8101 56.4599C32.5601 56.0799 32.4001 55.68 32.2101 55.28C32.0101 54.88 31.8501 54.4699 31.7001 54.0599C31.5501 53.6499 31.3801 53.2399 31.2701 52.8199L30.9001 51.5699L30.79 51.1999L31.11 50.9599C31.52 50.6499 31.9101 50.3899 32.3301 50.1499C32.7501 49.9099 33.17 49.6799 33.61 49.4799C34.48 49.0699 35.4 48.75 36.35 48.53C36.83 48.43 37.3101 48.3599 37.8101 48.3299C38.3001 48.2899 38.8 48.3199 39.3 48.3699C39.8 48.4299 40.2901 48.5399 40.7601 48.6999C41.0001 48.7899 41.2301 48.8599 41.4501 48.9799C41.6801 49.0799 41.9 49.1999 42.11 49.3299C42.33 49.4499 42.53 49.5999 42.72 49.7499C42.92 49.8899 43.1101 50.0599 43.2801 50.2299C43.4701 50.3899 43.64 50.5699 43.8 50.7499C43.97 50.9299 44.1201 51.1099 44.2701 51.3099C44.5701 51.6899 44.8201 52.0999 45.0601 52.5099L45.4001 53.1399C45.5401 53.3999 45.58 53.5899 45.67 53.8099C45.8 54.2599 45.9301 54.7599 46.0001 55.2099C46.0901 55.6699 46.16 56.1299 46.22 56.5999C46.35 57.5199 46.4501 58.4499 46.5101 59.3799L46.5301 59.3599Z" fill="#302A13"/>
<path d="M54.85 59.3599C54.9 58.4299 55.0001 57.4999 55.1301 56.5799C55.2001 56.1199 55.27 55.6499 55.36 55.1899C55.43 54.7399 55.5601 54.2399 55.6901 53.7899C55.7801 53.5599 55.8201 53.3699 55.9601 53.1199L56.3 52.4899C56.55 52.0799 56.8 51.6699 57.1 51.2899C57.24 51.0899 57.4001 50.9099 57.5701 50.7299C57.7301 50.5499 57.9001 50.3699 58.0901 50.2099C58.2701 50.0399 58.4501 49.8799 58.6501 49.7299C58.8401 49.5799 59.0501 49.4299 59.2601 49.3099C59.4701 49.1799 59.69 49.0599 59.92 48.9599C60.14 48.8399 60.38 48.7599 60.61 48.6799C61.08 48.5199 61.5701 48.4099 62.0701 48.3499C62.5701 48.2999 63.0601 48.2699 63.5601 48.3099C64.0501 48.3299 64.5401 48.4099 65.0201 48.5099C65.9701 48.7299 66.8901 49.0499 67.7601 49.4599C68.2001 49.6699 68.62 49.8899 69.04 50.1299C69.46 50.3799 69.8501 50.6299 70.2601 50.9399L70.5801 51.1799L70.47 51.5499L70.1 52.7999C69.99 53.2199 69.82 53.6299 69.67 54.0399C69.52 54.4499 69.37 54.8599 69.17 55.2599C68.98 55.6599 68.8101 56.0599 68.5701 56.4399C68.3301 56.8199 68.14 57.2199 67.86 57.5699C67.58 57.9199 67.3501 58.3099 67.0201 58.6199C66.7101 58.9399 66.4101 59.2899 66.0301 59.5499L65.5001 59.9699L64.91 60.3099C64.53 60.5599 64.09 60.6999 63.67 60.8599C63.25 61.0299 62.79 61.0699 62.36 61.1799C61.91 61.2099 61.4601 61.2599 61.0201 61.2499C60.5801 61.2099 60.1301 61.2299 59.7001 61.1299C59.2701 61.0299 58.83 60.99 58.42 60.84C58.01 60.7 57.5801 60.6099 57.1801 60.4299C56.7801 60.2599 56.3701 60.1199 55.9901 59.9299L54.85 59.34V59.3599ZM54.85 59.3599L56.0601 59.7899C56.4601 59.9399 56.8701 60.0399 57.2801 60.1599C57.6801 60.2999 58.1101 60.3399 58.5201 60.4299C58.9301 60.5299 59.3501 60.5299 59.7601 60.5799C60.1701 60.6299 60.5901 60.58 61.0001 60.59C61.4101 60.57 61.82 60.4899 62.22 60.4399C62.61 60.3099 63.0101 60.2499 63.3801 60.0799C63.7501 59.9099 64.1301 59.77 64.4501 59.53L64.9601 59.2099L65.41 58.8099C65.73 58.5699 65.9801 58.2399 66.2501 57.9499C66.5401 57.6699 66.74 57.2999 66.98 56.9799C67.23 56.6599 67.39 56.2699 67.6 55.9199C67.82 55.5699 67.9601 55.1799 68.1301 54.7999C68.3101 54.4299 68.4501 54.0399 68.5901 53.6399C68.7301 53.2499 68.8801 52.8599 68.9901 52.4599L69.3301 51.2499L69.54 51.8599C69.21 51.6099 68.8201 51.3599 68.4401 51.1399C68.0601 50.9099 67.6601 50.6999 67.2601 50.4999C66.4601 50.1099 65.6201 49.8099 64.7701 49.5999C64.3401 49.4999 63.91 49.4199 63.48 49.3899C63.05 49.3399 62.6101 49.3499 62.1801 49.3799C61.7501 49.4199 61.33 49.4999 60.92 49.6199C60.51 49.7499 60.11 49.8999 59.73 50.1199C59.54 50.2199 59.35 50.3299 59.17 50.4599C58.99 50.5799 58.8201 50.7099 58.6501 50.8499C58.4801 50.9799 58.32 51.1399 58.16 51.2899C58 51.4399 57.8501 51.5999 57.7101 51.7699C57.4101 52.0999 57.1501 52.47 56.8901 52.84L56.5301 53.4099C56.4301 53.5499 56.3401 53.8099 56.2401 54.0099C56.0801 54.4299 55.9301 54.83 55.8101 55.28C55.6801 55.72 55.5601 56.1699 55.4501 56.6199C55.3401 57.0699 55.2401 57.5199 55.1401 57.9699C55.0301 58.4199 54.9401 58.8799 54.8401 59.3299L54.85 59.3599Z" fill="#302A13"/>
<path d="M50.9201 66.14C51.0701 66.44 51.7201 66.4299 52.3701 66.1099C53.0301 65.7899 53.4401 65.2899 53.2901 64.9899C53.1401 64.6899 52.4901 64.7 51.8401 65.02C51.1801 65.34 50.7701 65.84 50.9201 66.14Z" fill="#0E0E0E"/>
<path d="M50.3101 66.2C50.1601 66.5 49.5101 66.49 48.8601 66.17C48.2101 65.85 47.7901 65.35 47.9401 65.05C48.0901 64.75 48.7401 64.76 49.3901 65.08C50.0501 65.4 50.4601 65.9 50.3101 66.2Z" fill="#0E0E0E"/>
<path d="M50.62 67.92L50.52 66.76H50.83L50.73 67.92H50.62Z" fill="#231F20"/>
<path d="M46.7499 67.34C46.7499 67.34 46.7299 67.3499 46.6799 67.3699C46.6399 67.3899 46.5698 67.41 46.4898 67.46C46.4098 67.5 46.3198 67.56 46.2398 67.64C46.1598 67.73 46.0799 67.8499 46.0799 67.9999C46.0799 68.1499 46.1399 68.2999 46.2499 68.4299C46.3599 68.5599 46.4998 68.6699 46.6698 68.7499C46.9998 68.9199 47.3898 68.9999 47.7898 69.0099C47.9798 69.0099 48.1799 69 48.3699 68.96C48.5599 68.93 48.7498 68.8699 48.9198 68.8199C49.0898 68.7599 49.2598 68.6899 49.4198 68.6199C49.5698 68.5499 49.7099 68.47 49.8399 68.39C50.0899 68.23 50.2898 68.0899 50.4198 67.9799C50.5498 67.8699 50.6299 67.8099 50.6299 67.8099L50.8199 68.0399C50.8199 68.0399 50.7399 68.1 50.5899 68.21C50.4499 68.32 50.2299 68.4599 49.9599 68.6199C49.8199 68.6899 49.6699 68.77 49.5099 68.84C49.3499 68.91 49.1698 68.97 48.9798 69.03C48.7898 69.08 48.5899 69.13 48.3899 69.15C48.1899 69.18 47.9799 69.1799 47.7699 69.1699C47.3599 69.1499 46.9498 69.04 46.6098 68.84C46.4398 68.74 46.2999 68.6199 46.1899 68.4799C46.0799 68.3399 46.0199 68.1699 46.0299 67.9999C46.0399 67.8399 46.1298 67.7099 46.2198 67.6299C46.3098 67.5399 46.4098 67.49 46.4898 67.45C46.5698 67.41 46.6399 67.3899 46.6799 67.3699C46.7199 67.3599 46.7499 67.3499 46.7499 67.3499V67.34Z" fill="#231F20"/>
<path d="M47.34 67.4099C47.34 67.4099 47.3099 67.4899 47.2599 67.4899C47.2099 67.4899 47.1799 67.4599 47.1799 67.4099C47.1799 67.3599 47.2099 67.33 47.2599 67.33C47.3099 67.33 47.34 67.3599 47.34 67.4099Z" fill="#231F20"/>
<path d="M48.48 66.9299C48.48 66.9299 48.4501 67.0099 48.4001 67.0099C48.3501 67.0099 48.3201 66.9799 48.3201 66.9299C48.3201 66.8799 48.3501 66.8499 48.4001 66.8499C48.4501 66.8499 48.48 66.8799 48.48 66.9299Z" fill="#231F20"/>
<path d="M48.2401 68.2099C48.2401 68.2099 48.21 68.2899 48.16 68.2899C48.12 68.2899 48.0801 68.2599 48.0801 68.2099C48.0801 68.1599 48.11 68.1299 48.16 68.1299C48.2 68.1299 48.2401 68.1599 48.2401 68.2099Z" fill="#231F20"/>
<path d="M49.2699 67.65C49.2699 67.65 49.2399 67.7299 49.1899 67.7299C49.1399 67.7299 49.1099 67.7 49.1099 67.65C49.1099 67.6 49.1399 67.5699 49.1899 67.5699C49.2399 67.5699 49.2699 67.6 49.2699 67.65Z" fill="#231F20"/>
<path d="M51.9501 67.4199C51.9501 67.4199 51.9201 67.4999 51.8701 67.4999C51.8201 67.4999 51.79 67.4699 51.79 67.4199C51.79 67.3699 51.8201 67.34 51.8701 67.34C51.9201 67.34 51.9501 67.3699 51.9501 67.4199Z" fill="#231F20"/>
<path d="M53.09 66.9299C53.09 66.9299 53.0599 67.0099 53.0099 67.0099C52.9599 67.0099 52.9299 66.9799 52.9299 66.9299C52.9299 66.8799 52.9599 66.8499 53.0099 66.8499C53.0599 66.8499 53.09 66.8799 53.09 66.9299Z" fill="#231F20"/>
<path d="M52.84 68.2099C52.84 68.2099 52.8099 68.2899 52.7599 68.2899C52.7199 68.2899 52.6799 68.2599 52.6799 68.2099C52.6799 68.1699 52.7099 68.1299 52.7599 68.1299C52.7999 68.1299 52.84 68.1599 52.84 68.2099Z" fill="#231F20"/>
<path d="M53.88 67.65C53.88 67.65 53.85 67.7299 53.8 67.7299C53.75 67.7299 53.72 67.7 53.72 67.65C53.72 67.6 53.75 67.5699 53.8 67.5699C53.85 67.5699 53.88 67.6 53.88 67.65Z" fill="#231F20"/>
<path d="M54.6 67.34C54.6 67.34 54.62 67.3499 54.67 67.3599C54.71 67.3799 54.78 67.3899 54.86 67.4399C54.94 67.4799 55.0301 67.5299 55.1301 67.6199C55.2201 67.6999 55.3101 67.8299 55.3201 67.9899C55.3301 68.1499 55.27 68.3199 55.16 68.4699C55.05 68.6099 54.9001 68.73 54.7401 68.83C54.4001 69.03 53.9901 69.1299 53.5801 69.1599C53.3701 69.1599 53.1701 69.16 52.9601 69.14C52.7601 69.12 52.5601 69.08 52.3801 69.02C52.1901 68.97 52.01 68.9 51.85 68.83C51.68 68.77 51.5401 68.6899 51.4001 68.6099C51.1301 68.4599 50.9101 68.31 50.7701 68.2C50.6301 68.09 50.54 68.03 50.54 68.03L50.73 67.7999C50.73 67.7999 50.8101 67.8599 50.9401 67.9699C51.0701 68.0799 51.2701 68.2299 51.5201 68.3799C51.6501 68.4499 51.7801 68.5399 51.9401 68.6099C52.0901 68.6899 52.2601 68.7499 52.4301 68.8099C52.6101 68.8599 52.79 68.92 52.98 68.95C53.17 68.98 53.3701 68.9899 53.5701 68.9999C53.9601 68.9999 54.3601 68.9099 54.6901 68.7399C54.8501 68.6499 55 68.5499 55.1 68.4199C55.21 68.2899 55.2701 68.1399 55.2701 67.9899C55.2701 67.8399 55.19 67.7199 55.11 67.6299C55.03 67.5399 54.94 67.49 54.86 67.45C54.78 67.41 54.72 67.3799 54.67 67.3599C54.63 67.3399 54.6 67.33 54.6 67.33V67.34Z" fill="#231F20"/>
<path d="M53.9799 64.6999C52.2499 67.4799 53.0099 64.2299 52.0499 65.2799C51.9299 65.4099 51.8299 65.6299 51.6499 65.9199C51.2499 66.5499 51.7799 67.1199 50.6799 67.1199C49.5099 67.1199 49.9899 66.5899 49.6599 66.0599C49.2999 65.4799 48.9499 64.8199 48.6099 65.1299C48.2699 65.4299 48.6099 66.7599 47.3799 64.9299C46.4799 63.5899 49.0699 63.1299 50.6799 63.1299C52.2899 63.1299 54.8399 63.3199 53.9799 64.6999Z" fill="#F8A181"/>
<path d="M52.9599 64.0599C52.9599 64.4099 51.9399 64.7 50.6799 64.7C49.4199 64.7 48.3999 64.4099 48.3999 64.0599C48.3999 63.7099 49.4199 63.4199 50.6799 63.4199C51.9399 63.4199 52.9599 63.7099 52.9599 64.0599Z" fill="white"/>
<path d="M41.29 65.22C41.88 65.36 42.4701 65.5 43.0601 65.64C43.3501 65.71 43.6501 65.77 43.9401 65.86C44.2301 65.95 44.52 66.04 44.8 66.16C44.5 66.14 44.2001 66.07 43.9001 66C43.6101 65.93 43.3201 65.84 43.0301 65.75C42.4501 65.58 41.87 65.4 41.29 65.23V65.22Z" fill="#212120"/>
<path d="M38.8799 68.03L41.4499 67.45C41.8799 67.35 42.3099 67.25 42.7399 67.17C43.1699 67.1 43.6099 67.02 44.0499 66.98C43.6299 67.12 43.1999 67.22 42.7699 67.33C42.3399 67.43 41.9098 67.5 41.4698 67.58L38.8799 68.06V68.03Z" fill="#212120"/>
<path d="M41.3801 69.5899L43.0601 68.5699C43.3401 68.3999 43.6201 68.2199 43.9101 68.0699C44.2001 67.9199 44.4901 67.7599 44.8001 67.6399C44.5401 67.8499 44.2601 68.0299 43.9801 68.1999C43.7001 68.3699 43.4101 68.5199 43.1201 68.6799L41.3801 69.6099H41.3701L41.3801 69.5899Z" fill="#212120"/>
<path d="M60.04 65.2299C59.46 65.4099 58.88 65.5799 58.3 65.7499C58.01 65.8399 57.72 65.9299 57.43 65.9999C57.13 66.0699 56.84 66.1299 56.53 66.1699C56.81 66.0299 57.1 65.9399 57.39 65.8499C57.68 65.7599 57.98 65.6999 58.27 65.6299C58.86 65.4899 59.45 65.35 60.04 65.21V65.2299Z" fill="#212120"/>
<path d="M62.44 68.04L59.84 67.56C59.41 67.48 58.97 67.41 58.54 67.31C58.11 67.21 57.68 67.11 57.26 66.98C57.7 67.01 58.14 67.09 58.57 67.16C59 67.24 59.43 67.34 59.86 67.44L62.43 68.02L62.44 68.04Z" fill="#212120"/>
<path d="M59.94 69.6099L58.2 68.6799C57.91 68.5299 57.62 68.3799 57.34 68.1999C57.06 68.0299 56.78 67.8499 56.52 67.6499C56.83 67.7599 57.12 67.9099 57.41 68.0699C57.7 68.2199 57.97 68.3999 58.25 68.5699L59.93 69.5999L59.94 69.6099Z" fill="#212120"/>
<path d="M39.72 37.7299C39.72 37.7299 39.0901 38.09 38.7701 37.93C38.4401 37.77 38.48 35.7 40.38 36.19C42.28 36.68 41.27 37.17 40.97 37.4C40.68 37.63 39.72 37.7299 39.72 37.7299Z" fill="#231F20"/>
<path d="M41.5 34.3199C41.5 34.3199 41.82 33.2699 42.34 33.4299C42.86 33.5899 42.7 33.8899 42.73 34.3199C42.76 34.7499 42.61 35.3999 42.11 35.0099C41.61 34.6199 41.49 34.3199 41.49 34.3199H41.5Z" fill="#231F20"/>
<path d="M45.39 36.81C45.39 36.81 46.28 36.09 46.74 36.81C47.2 37.53 47.13 38.13 46.41 38.13C45.69 38.13 44.3 38.13 45.39 36.81Z" fill="#231F20"/>
<path d="M36.86 62.6399C36.86 62.6399 37.75 61.9199 38.21 62.6399C38.67 63.3599 38.6 63.96 37.88 63.96C37.16 63.96 35.77 63.9599 36.86 62.6399Z" fill="#231F20"/>
<path d="M61.83 62.6399C61.83 62.6399 62.7199 61.9199 63.1799 62.6399C63.6399 63.3599 63.5699 63.96 62.8499 63.96C62.1299 63.96 60.74 63.9599 61.83 62.6399Z" fill="#231F20"/>
<path d="M30.86 61.02C30.86 61.02 31.75 60.3 32.21 61.02C32.67 61.74 32.6 62.3299 31.88 62.3299C31.16 62.3299 29.77 62.33 30.86 61.02Z" fill="#231F20"/>
<path d="M44.65 30.9699C44.65 30.9699 45.13 29.92 45.39 30.25C45.65 30.58 46.18 31.07 46.45 31.27C46.71 31.47 47.07 31.86 46.32 31.99C45.56 32.12 44.27 31.5999 44.66 30.9699H44.65Z" fill="#231F20"/>
<path d="M49.34 30.97C49.42 30.75 49.73 29.86 50.32 30.19C50.91 30.52 51.01 31.44 50.32 31.6C49.63 31.76 49.24 31.23 49.34 30.97Z" fill="#231F20"/>
<path d="M65.16 62.8099C65.24 62.5899 65.5501 61.7 66.1401 62.03C66.7301 62.35 66.8301 63.2699 66.1401 63.4399C65.4501 63.5999 65.06 63.0699 65.16 62.8099Z" fill="#231F20"/>
<path d="M49.32 33.6799C49.32 34.1399 49.07 34.52 48.77 34.52C48.47 34.52 48.22 34.1399 48.22 33.6799C48.22 33.2199 48.47 32.84 48.77 32.84C49.07 32.84 49.32 33.2199 49.32 33.6799Z" fill="#231F20"/>
<path d="M50.8 32.5399C50.8 32.5399 50.22 33.3899 50.55 33.6699C50.88 33.9499 51.1801 33.6799 51.2101 33.4099C51.2401 33.1299 51.38 32.3399 50.8 32.5399Z" fill="#231F20"/>
<path d="M52.5899 33.42C52.5899 33.42 52.7899 33.01 53.1499 33.16C53.5099 33.3 53.2799 34.65 52.8699 34.65C52.4599 34.65 52.2299 34.06 52.5899 33.42Z" fill="#231F20"/>
<path d="M54.8501 34.0899C55.1801 33.8599 56.4301 33.9299 56.2301 34.5199C56.0301 35.1099 55.0501 35.2799 54.8501 34.8799C54.6601 34.4799 54.8501 34.0899 54.8501 34.0899Z" fill="#231F20"/>
<path d="M67.1999 60.51C67.5299 60.28 68.7799 60.35 68.5799 60.94C68.3799 61.53 67.3999 61.7 67.1999 61.3C67.0099 60.91 67.1999 60.51 67.1999 60.51Z" fill="#231F20"/>
<path d="M45.6899 34.2699C45.6899 34.2699 46.3499 33.1499 46.8699 33.9599C47.3999 34.7699 47.3099 35.1999 46.7599 35.0799C46.2099 34.9599 45.5899 35.1699 45.6899 34.2599V34.2699Z" fill="#231F20"/>
<path d="M49.1701 36.4899C49.1701 36.4899 48.7101 35.5799 49.0401 35.4599C49.3701 35.3399 50.3601 35.6399 50.0601 36.1199C49.7601 36.5899 49.1701 36.4999 49.1701 36.4999V36.4899Z" fill="#231F20"/>
<path d="M47.23 35.83C47.23 35.83 48.1599 35.51 48.2199 35.97C48.2899 36.42 48.2199 36.59 47.7199 36.5C47.2299 36.42 46.9299 35.91 47.2199 35.83H47.23Z" fill="#231F20"/>
<path d="M44.26 35.2999C44.26 35.2999 44.59 34.6599 44.99 35.1299C45.39 35.5999 45.41 36.0099 44.99 35.9699C44.57 35.9299 44.07 35.7699 44.26 35.3099V35.2999Z" fill="#231F20"/>
<path d="M40.96 32.84C40.96 33.16 40.7 33.43 40.37 33.43C40.04 33.43 39.78 33.16 39.78 32.84C39.78 32.52 40.05 32.25 40.37 32.25C40.69 32.25 40.96 32.51 40.96 32.84Z" fill="#231F20"/>
<path d="M49.3201 45.2999C49.3201 45.7599 49.5 46.14 49.72 46.14C49.94 46.14 50.1201 45.7599 50.1201 45.2999C50.1201 44.8399 49.94 44.46 49.72 44.46C49.5 44.46 49.3201 44.8399 49.3201 45.2999Z" fill="#231F20"/>
<path d="M48.0499 43.1199C48.0499 43.1199 46.6699 44.5099 47.3899 44.3099C48.1099 44.0999 48.8399 43.1199 48.0499 43.1199Z" fill="#231F20"/>
<path d="M46.4599 41.84C46.4599 41.84 45.8799 42.56 46.4599 42.53C47.0399 42.5 47.4699 41.48 47.3699 41.48C47.2699 41.48 46.4599 41.84 46.4599 41.84Z" fill="#231F20"/>
<path d="M47.1099 39.21C47.1099 39.21 46.9 40.6199 47.38 40.4199C47.86 40.2299 47.8099 39.21 47.1099 39.21Z" fill="#231F20"/>
<path d="M28.5999 53.34C28.5999 53.34 28.3899 54.7499 28.8699 54.5499C29.3499 54.3599 29.2999 53.34 28.5999 53.34Z" fill="#231F20"/>
<path d="M48.7701 38.46C48.7701 38.46 47.9701 40.42 48.7701 40.11C49.5601 39.8 49.3501 38.26 48.7701 38.46Z" fill="#231F20"/>
<path d="M29.2601 50.44C29.2601 50.44 28.4601 52.4 29.2601 52.09C30.0501 51.78 29.8401 50.24 29.2601 50.44Z" fill="#231F20"/>
<path d="M59.32 36.52C59.32 36.52 57.45 36.19 57.65 36.85C57.84 37.51 59.49 38.03 59.69 37.67C59.88 37.31 59.92 36.59 59.33 36.52H59.32Z" fill="#231F20"/>
<path d="M63.6199 39.08C63.6199 39.08 63.52 39.89 63.95 40.14C64.38 40.39 65.6599 40.72 65.7499 40.44C65.8499 40.16 64.7699 38.71 63.6199 39.07V39.08Z" fill="#231F20"/>
<path d="M59.8101 33.88C59.8101 33.88 58.79 33.76 59.22 34.31C59.65 34.87 61.02 34.8 60.99 34.52C60.96 34.24 59.8101 33.87 59.8101 33.87V33.88Z" fill="#231F20"/>
<path d="M54.0001 30.3499C53.9201 30.3999 53.1101 31.4899 54.4301 31.6299C55.7501 31.7599 55.3501 29.5599 54.0001 30.3499Z" fill="#231F20"/>
<path d="M51.54 35.4299C51.54 35.4299 51.14 35.9499 51.73 36.1199C52.32 36.2899 52.72 35.7799 52.72 35.7799C52.72 35.7799 52.19 34.8399 51.54 35.4299Z" fill="#231F20"/>
<path d="M52.8699 37.5699C52.8699 37.5699 54.2599 37.9299 54.0699 38.4399C53.8699 38.9499 53.1499 39.1499 52.8699 38.7199C52.5899 38.2899 51.9699 38.0299 52.8699 37.5699Z" fill="#231F20"/>
<path d="M36.68 65.1299C36.68 65.1299 38.08 65.4899 37.88 65.9999C37.68 66.5099 36.96 66.7099 36.68 66.2799C36.4 65.8499 35.78 65.5899 36.68 65.1299Z" fill="#231F20"/>
<path d="M34.49 61.26C34.49 61.26 35.89 61.62 35.69 62.13C35.49 62.64 34.77 62.84 34.49 62.41C34.21 61.98 33.59 61.72 34.49 61.26Z" fill="#231F20"/>
<path d="M50.45 38.64C50.45 39 50.6699 39.3 50.9299 39.3C51.1899 39.3 51.4099 39.01 51.4099 38.64C51.4099 38.27 51.1899 37.98 50.9299 37.98C50.6699 37.98 50.45 38.28 50.45 38.64Z" fill="#231F20"/>
<path d="M50.8 48.5199C50.8 49.0199 50.94 49.4199 51.1 49.4199C51.26 49.4199 51.4001 49.0099 51.4001 48.5199C51.4001 48.0299 51.27 47.6199 51.1 47.6199C50.93 47.6199 50.8 48.0199 50.8 48.5199Z" fill="#231F20"/>
<path d="M48.42 47.6199C48.19 47.6499 47.37 48.7699 47.8 48.8699C48.22 48.9699 48.87 48.3399 48.86 48.0799C48.85 47.8199 48.92 47.5499 48.42 47.6199Z" fill="#231F20"/>
<path d="M71.52 56.1299C71.28 56.1599 70.47 57.2799 70.89 57.3799C71.32 57.4799 71.96 56.85 71.95 56.59C71.94 56.33 72 56.0699 71.51 56.1299H71.52Z" fill="#231F20"/>
<path d="M71.0101 57.97C70.7701 58 69.9601 59.12 70.3901 59.22C70.8101 59.32 71.4601 58.7 71.4501 58.43C71.4401 58.17 71.5101 57.9 71.0101 57.97Z" fill="#231F20"/>
<path d="M47.5601 46.5C47.4701 46.53 46.4401 47.16 46.7901 47.32C47.1401 47.48 47.9601 46.79 47.9601 46.66C47.9601 46.53 47.5601 46.5 47.5601 46.5Z" fill="#231F20"/>
<path d="M70.48 60.53C70.39 60.56 69.37 61.19 69.71 61.35C70.06 61.52 70.88 60.83 70.88 60.69C70.88 60.55 70.48 60.53 70.48 60.53Z" fill="#231F20"/>
<path d="M53.6301 47.54C53.8701 47.57 54.6801 48.69 54.2601 48.79C53.8301 48.89 53.1901 48.26 53.2001 48C53.2101 47.74 53.1501 47.48 53.6401 47.54H53.6301Z" fill="#231F20"/>
<path d="M71.8 53.9499C72.04 53.9799 72.85 55.0999 72.43 55.1999C72 55.2999 71.36 54.6799 71.37 54.4099C71.38 54.1499 71.31 53.8799 71.8 53.9499Z" fill="#231F20"/>
<path d="M29.86 55.49C30.1 55.52 30.91 56.64 30.49 56.74C30.06 56.84 29.42 56.22 29.43 55.95C29.44 55.69 29.37 55.42 29.86 55.49Z" fill="#231F20"/>
<path d="M29.6301 57.4299C29.8601 57.4599 30.6801 58.5799 30.2501 58.6799C29.8301 58.7799 29.1801 58.1499 29.1901 57.8899C29.2001 57.6299 29.1301 57.3599 29.6301 57.4299Z" fill="#231F20"/>
<path d="M54.4901 46.4199C54.5801 46.4499 55.6001 47.0799 55.2601 47.2399C54.9101 47.3999 54.0901 46.72 54.0901 46.58C54.0901 46.44 54.4901 46.4199 54.4901 46.4199Z" fill="#231F20"/>
<path d="M28.97 59.6399C29.06 59.6699 30.0801 60.2999 29.7401 60.4599C29.3901 60.6199 28.5701 59.9299 28.5701 59.7999C28.5701 59.6699 28.97 59.6399 28.97 59.6399Z" fill="#231F20"/>
<path d="M52.0601 44.6299C51.9101 45.0599 53.0801 46.2999 53.3201 45.7499C53.5701 45.1899 52.3901 43.6499 52.0601 44.6299Z" fill="#231F20"/>
<path d="M53.81 42.4099C53.67 42.8399 54.83 44.08 55.07 43.53C55.32 42.97 54.14 41.4299 53.81 42.4099Z" fill="#231F20"/>
<path d="M52.4 42.5499C52.4 42.7599 52.14 42.9199 51.83 42.9199C51.52 42.9199 51.26 42.7599 51.26 42.5499C51.26 42.3399 51.52 42.1799 51.83 42.1799C52.14 42.1799 52.4 42.3499 52.4 42.5499Z" fill="#231F20"/>
<path d="M52.87 39.8699C52.87 40.1899 52.73 40.45 52.57 40.45C52.41 40.45 52.27 40.1899 52.27 39.8699C52.27 39.5499 52.41 39.2899 52.57 39.2899C52.73 39.2899 52.87 39.5499 52.87 39.8699Z" fill="#231F20"/>
<path d="M72.2599 52.1299C72.2599 52.4499 72.12 52.71 71.96 52.71C71.8 52.71 71.6599 52.4499 71.6599 52.1299C71.6599 51.8099 71.79 51.5499 71.96 51.5499C72.13 51.5499 72.2599 51.8099 72.2599 52.1299Z" fill="#231F20"/>
<path d="M53.3201 40.1199C53.3201 40.2999 53.4601 40.45 53.6401 40.45C53.8201 40.45 53.9601 40.2999 53.9601 40.1199C53.9601 39.9399 53.8201 39.7899 53.6401 39.7899C53.4601 39.7899 53.3201 39.9399 53.3201 40.1199Z" fill="#231F20"/>
<path d="M49.29 42.3199C49.29 42.6499 49.51 42.9199 49.79 42.9199C50.07 42.9199 50.29 42.6499 50.29 42.3199C50.29 41.9899 50.06 41.71 49.79 41.71C49.52 41.71 49.29 41.9799 49.29 42.3199Z" fill="#231F20"/>
<path d="M58.72 40.5199C58.72 40.7399 58.39 40.9199 57.99 40.9199C57.59 40.9199 57.26 40.7399 57.26 40.5199C57.26 40.2999 57.59 40.1199 57.99 40.1199C58.39 40.1199 58.72 40.2999 58.72 40.5199Z" fill="#231F20"/>
<path d="M60.8 38.3C60.8 38.58 61.0001 38.82 61.2401 38.82C61.4801 38.82 61.6801 38.59 61.6801 38.3C61.6801 38.01 61.4801 37.78 61.2401 37.78C61.0001 37.78 60.8 38.01 60.8 38.3Z" fill="#231F20"/>
<path d="M55.61 36.8799C55.61 37.1199 55.31 37.3199 54.94 37.3199C54.57 37.3199 54.27 37.1199 54.27 36.8799C54.27 36.6399 54.57 36.4399 54.94 36.4399C55.31 36.4399 55.61 36.6299 55.61 36.8799Z" fill="#231F20"/>
<path d="M63.8799 41.61C63.8799 41.83 63.5999 42.01 63.2599 42.01C62.9199 42.01 62.6299 41.83 62.6299 41.61C62.6299 41.39 62.9099 41.22 63.2599 41.22C63.6099 41.22 63.8799 41.4 63.8799 41.61Z" fill="#231F20"/>
<path d="M66.6701 37.7899C66.6701 38.0499 66.5002 38.27 66.2802 38.27C66.0602 38.27 65.8901 38.0499 65.8901 37.7899C65.8901 37.5299 66.0602 37.3199 66.2802 37.3199C66.5002 37.3199 66.6701 37.5299 66.6701 37.7899Z" fill="#231F20"/>
<path d="M66.45 44.7299C66.61 44.4699 67.21 44.6198 67.4 45.0998C67.6 45.5898 67.17 46.5599 66.68 45.8899C66.19 45.2199 66.45 44.7299 66.45 44.7299Z" fill="#231F20"/>
<path d="M67.96 43.45C68.14 43.08 68.39 42.79 68.78 43.12C69.17 43.45 69.24 44.5399 68.78 44.5999C68.32 44.6599 67.6 44.17 67.96 43.45Z" fill="#231F20"/>
<path d="M31.5801 58.89C31.7601 58.52 32.0101 58.23 32.4001 58.56C32.8001 58.89 32.8601 59.98 32.4001 60.04C31.9401 60.1 31.2201 59.61 31.5801 58.89Z" fill="#231F20"/>
<path d="M38.1598 38.2899C38.1598 38.2899 38.2599 39.0999 37.8299 39.3499C37.3999 39.5999 36.1199 39.93 36.0299 39.65C35.9299 39.37 37.0098 37.92 38.1598 38.28V38.2899Z" fill="#231F20"/>
<path d="M63.95 64.9098C63.95 64.9098 64.05 65.7199 63.62 65.9799C63.19 66.2299 61.91 66.5599 61.82 66.2799C61.73 65.9999 62.8 64.5498 63.95 64.9098Z" fill="#231F20"/>
<path d="M43.0601 39.7199C43.0601 39.9399 43.39 40.1199 43.79 40.1199C44.19 40.1199 44.5201 39.9399 44.5201 39.7199C44.5201 39.4999 44.19 39.3199 43.79 39.3199C43.39 39.3199 43.0601 39.4999 43.0601 39.7199Z" fill="#231F20"/>
<path d="M37.8901 40.8199C37.8901 41.0399 38.1701 41.21 38.5201 41.21C38.8701 41.21 39.1401 41.0399 39.1401 40.8199C39.1401 40.5999 38.8601 40.4299 38.5201 40.4299C38.1801 40.4299 37.8901 40.5999 37.8901 40.8199Z" fill="#231F20"/>
<path d="M35.1001 36.99C35.1001 37.25 35.2801 37.47 35.5001 37.47C35.7201 37.47 35.8901 37.26 35.8901 36.99C35.8901 36.72 35.7201 36.51 35.5001 36.51C35.2801 36.51 35.1001 36.72 35.1001 36.99Z" fill="#231F20"/>
<path d="M35.3299 43.9399C35.1699 43.6799 34.5699 43.8199 34.3799 44.3099C34.1899 44.7899 34.6099 45.7699 35.0999 45.0999C35.5999 44.4299 35.3299 43.9399 35.3299 43.9399Z" fill="#231F20"/>
<path d="M33.8201 42.65C33.6401 42.28 33.3901 41.99 33.0001 42.32C32.6001 42.65 32.5401 43.74 33.0001 43.8C33.4601 43.86 34.1801 43.37 33.8201 42.65Z" fill="#231F20"/>
</svg>
