<svg width="90" height="896" viewBox="0 0 90 896" fill="none" xmlns="http://www.w3.org/2000/svg">
<mask id="path-1-outside-1_332_701" maskUnits="userSpaceOnUse" x="-67" y="-87" width="157" height="983" fill="black">
<rect fill="white" x="-67" y="-87" width="157" height="983"/>
<path d="M-63.2969 894.604L-63.2969 835.849C-63.2969 824.365 -61.5879 814.384 -58.1699 805.908C-54.752 797.431 -49.6934 790.903 -42.9941 786.323C-36.2949 781.674 -28.0234 779.35 -18.1797 779.35C-9.63478 779.35 -2.49122 780.683 3.25097 783.349C8.99315 786.015 13.7441 789.741 17.5039 794.526C21.1953 799.243 24.2373 804.746 26.6299 811.035L33.2949 822.827L33.2949 872.148L5.50683 872.353L5.50683 835.849C5.50683 831.269 4.68651 827.475 3.04589 824.467C1.40526 821.459 -0.918954 819.204 -3.92677 817.7C-7.00294 816.127 -10.6602 815.341 -14.8984 815.341C-19.2051 815.341 -22.8965 816.127 -25.9727 817.7C-29.0488 819.272 -31.4072 821.596 -33.0479 824.672C-34.6885 827.68 -35.5088 831.406 -35.5088 835.849L-35.5088 858.613L86 858.613L86 894.604L-63.2969 894.604ZM86 812.88L19.9648 845.898L19.7598 807.753L84.4619 774.326L86 774.326L86 812.88ZM58.3144 652.768L86 652.768L86 732.338L58.3144 732.338L58.3144 652.768ZM-63.2969 719.521L86 719.521L86 755.512L-63.2969 755.512L-63.2969 719.521ZM-4.02931 663.021L22.7334 663.021L22.7334 732.338L-4.02931 732.338L-4.02931 663.021ZM-63.2969 652.46L-35.5088 652.46L-35.5088 732.338L-63.2969 732.338L-63.2969 652.46ZM46.3174 558.998C43.9931 558.998 41.9082 559.339 40.0625 560.023C38.1484 560.707 36.3711 561.971 34.7304 563.817C33.0898 565.663 31.4492 568.329 29.8086 571.815C28.0996 575.233 26.3222 579.745 24.4765 585.35C22.289 591.913 19.8281 598.236 17.0937 604.32C14.291 610.404 11.0439 615.838 7.35252 620.624C3.59276 625.409 -0.782244 629.203 -5.77248 632.005C-10.8311 634.808 -16.71 636.21 -23.4092 636.21C-29.835 636.21 -35.6113 634.774 -40.7383 631.903C-45.9336 629.032 -50.3428 625.033 -53.9658 619.906C-57.6572 614.711 -60.46 608.627 -62.374 601.654C-64.3565 594.681 -65.3477 587.059 -65.3477 578.788C-65.3477 567.85 -63.4336 558.212 -59.6055 549.872C-55.8457 541.463 -50.4795 534.901 -43.5069 530.184C-36.6026 525.399 -28.4336 523.006 -19 523.006L-19 558.793C-22.7598 558.793 -26.0752 559.579 -28.9463 561.151C-31.8174 562.655 -34.0733 564.945 -35.7139 568.021C-37.3545 571.097 -38.1748 574.96 -38.1748 579.608C-38.1748 584.12 -37.4912 587.914 -36.124 590.99C-34.7569 594.066 -32.9111 596.39 -30.5869 597.962C-28.3311 599.535 -25.836 600.321 -23.1016 600.321C-20.8457 600.321 -18.7949 599.706 -16.9492 598.475C-15.1719 597.176 -13.4971 595.365 -11.9248 593.041C-10.3526 590.648 -8.84865 587.777 -7.4131 584.427C-5.97756 581.009 -4.57619 577.181 -3.209 572.943C-0.679708 565.013 2.15721 557.972 5.30174 551.82C8.37791 545.599 11.8984 540.37 15.8633 536.131C19.7597 531.825 24.2031 528.578 29.1933 526.39C34.1836 524.134 39.8232 523.006 46.1123 523.006C52.8115 523.006 58.7588 524.305 63.9541 526.903C69.1494 529.501 73.5586 533.226 77.1816 538.08C80.7363 542.933 83.4365 548.744 85.2822 555.511C87.1279 562.279 88.0508 569.833 88.0508 578.172C88.0508 585.829 87.0937 593.382 85.1797 600.834C83.1972 608.216 80.1894 614.916 76.1562 620.931C72.0547 626.947 66.8252 631.766 60.4678 635.389C54.042 638.944 46.4199 640.721 37.6015 640.721L37.6015 604.628C41.9765 604.628 45.6679 604.046 48.6758 602.884C51.6836 601.722 54.1103 600.013 55.956 597.757C57.7334 595.502 59.0322 592.733 59.8525 589.452C60.6045 586.17 60.9804 582.411 60.9804 578.172C60.9804 573.592 60.331 569.901 59.0322 567.098C57.665 564.295 55.8877 562.245 53.7002 560.946C51.4443 559.647 48.9834 558.998 46.3174 558.998ZM58.3144 399.603L86 399.603L86 479.173L58.3144 479.173L58.3144 399.603ZM-63.2969 466.356L86 466.356L86 502.347L-63.2969 502.347L-63.2969 466.356ZM-4.02932 409.857L22.7334 409.857L22.7334 479.173L-4.02932 479.173L-4.02932 409.857ZM-63.2969 399.295L-35.5088 399.295L-35.5088 479.173L-63.2969 479.173L-63.2969 399.295ZM-63.2969 382.737L-63.2969 323.982C-63.2969 312.498 -61.5879 302.517 -58.17 294.041C-54.752 285.564 -49.6934 279.036 -42.9942 274.456C-36.295 269.807 -28.0235 267.483 -18.1797 267.483C-9.6348 267.483 -2.49124 268.816 3.25094 271.482C8.99313 274.148 13.7441 277.874 17.5039 282.659C21.1953 287.376 24.2373 292.879 26.6298 299.168L33.2949 310.96L33.2949 360.281L5.50681 360.486L5.5068 323.982C5.5068 319.402 4.68649 315.608 3.04587 312.6C1.40524 309.593 -0.918977 307.337 -3.92679 305.833C-7.00296 304.261 -10.6602 303.474 -14.8985 303.474C-19.2051 303.474 -22.8965 304.261 -25.9727 305.833C-29.0489 307.405 -31.4073 309.729 -33.0479 312.805C-34.6885 315.813 -35.5088 319.539 -35.5088 323.982L-35.5088 346.746L86 346.746L86 382.737L-63.2969 382.737ZM86 301.013L19.9648 334.031L19.7597 295.887L84.4619 262.459L86 262.459L86 301.013ZM50.8291 189.197L-63.2969 158.127L-63.2969 117.829L86 168.176L86 194.221L50.8291 189.197ZM-63.2969 217.395L50.8291 186.326L86 181.096L86 207.449L-63.2969 257.488L-63.2969 217.395ZM-63.2969 66.5107L86 66.5107L86 102.399L-63.2969 102.399L-63.2969 66.5107ZM-63.2969 -85.6039L85.9999 -85.6039L85.9999 -49.7152L-6.90043 3.0924L86 3.0924L86 39.0836L-63.2969 39.0836L-63.2969 3.09241L29.6035 -49.7152L-63.2969 -49.7152L-63.2969 -85.6039Z"/>
</mask>
<path d="M-63.2969 894.604L-64.2969 894.604L-64.2969 895.604L-63.2969 895.604L-63.2969 894.604ZM-42.9941 786.323L-42.4298 787.148L-42.4241 787.144L-42.9941 786.323ZM17.5039 794.526L18.2914 793.909L18.2902 793.908L17.5039 794.526ZM26.6299 811.035L25.6952 811.39L25.7221 811.461L25.7593 811.527L26.6299 811.035ZM33.2949 822.827L34.2949 822.827L34.2949 822.564L34.1655 822.335L33.2949 822.827ZM33.2949 872.148L33.3023 873.148L34.2949 873.14L34.2949 872.148L33.2949 872.148ZM5.50683 872.353L4.50683 872.353L4.50683 873.36L5.51421 873.353L5.50683 872.353ZM-3.92677 817.7L-4.3819 818.59L-4.37398 818.594L-3.92677 817.7ZM-33.0479 824.672L-32.1699 825.151L-32.1655 825.143L-33.0479 824.672ZM-35.5088 858.613L-36.5088 858.613L-36.5088 859.613L-35.5088 859.613L-35.5088 858.613ZM86 858.613L87 858.613L87 857.613L86 857.613L86 858.613ZM86 894.604L86 895.604L87 895.604L87 894.604L86 894.604ZM86 812.88L86.4472 813.775L87 813.498L87 812.88L86 812.88ZM19.9648 845.898L18.9648 845.903L18.9735 847.512L20.412 846.792L19.9648 845.898ZM19.7598 807.753L19.3008 806.865L18.7565 807.146L18.7598 807.759L19.7598 807.753ZM84.4619 774.326L84.4619 773.326L84.2188 773.326L84.0029 773.437L84.4619 774.326ZM86 774.326L87 774.326L87 773.326L86 773.326L86 774.326ZM-63.2969 894.604L-62.2969 894.604L-62.2969 835.849L-63.2969 835.849L-64.2969 835.849L-64.2969 894.604L-63.2969 894.604ZM-63.2969 835.849L-62.2969 835.849C-62.2969 824.461 -60.602 814.613 -57.2425 806.282L-58.1699 805.908L-59.0974 805.534C-62.5738 814.155 -64.2969 824.268 -64.2969 835.849L-63.2969 835.849ZM-58.1699 805.908L-57.2425 806.282C-53.8887 797.964 -48.946 791.603 -42.4298 787.148L-42.9941 786.323L-43.5585 785.497C-50.4407 790.202 -55.6152 796.898 -59.0974 805.534L-58.1699 805.908ZM-42.9941 786.323L-42.4241 787.144C-35.9244 782.634 -27.8626 780.35 -18.1797 780.35L-18.1797 779.35L-18.1797 778.35C-28.1843 778.35 -36.6655 780.714 -43.5642 785.501L-42.9941 786.323ZM-18.1797 779.35L-18.1797 780.35C-9.73205 780.35 -2.74274 781.669 2.82985 784.256L3.25097 783.349L3.67208 782.442C-2.2397 779.697 -9.5375 778.35 -18.1797 778.35L-18.1797 779.35ZM3.25097 783.349L2.82985 784.256C8.43518 786.859 13.0591 790.487 16.7176 795.144L17.5039 794.526L18.2902 793.908C14.4292 788.994 9.55112 785.172 3.67208 782.442L3.25097 783.349ZM17.5039 794.526L16.7164 795.142C20.3388 799.771 23.334 805.183 25.6952 811.39L26.6299 811.035L27.5645 810.679C25.1406 804.308 22.0518 798.714 18.2914 793.909L17.5039 794.526ZM26.6299 811.035L25.7593 811.527L32.4244 823.319L33.2949 822.827L34.1655 822.335L27.5004 810.543L26.6299 811.035ZM33.2949 822.827L32.2949 822.827L32.2949 872.148L33.2949 872.148L34.2949 872.148L34.2949 822.827L33.2949 822.827ZM33.2949 872.148L33.2875 871.148L5.49945 871.353L5.50683 872.353L5.51421 873.353L33.3023 873.148L33.2949 872.148ZM5.50683 872.353L6.50683 872.353L6.50683 835.849L5.50683 835.849L4.50683 835.849L4.50683 872.353L5.50683 872.353ZM5.50683 835.849L6.50683 835.849C6.50683 831.156 5.66699 827.184 3.92379 823.988L3.04589 824.467L2.16799 824.946C3.70604 827.766 4.50683 831.382 4.50683 835.849L5.50683 835.849ZM3.04589 824.467L3.92379 823.988C2.18735 820.805 -0.285486 818.402 -3.47955 816.805L-3.92677 817.7L-4.37398 818.594C-1.55242 820.005 0.623175 822.114 2.16799 824.946L3.04589 824.467ZM-3.92677 817.7L-3.47166 816.809C-6.71714 815.15 -10.5373 814.341 -14.8984 814.341L-14.8984 815.341L-14.8984 816.341C-10.7831 816.341 -7.28874 817.104 -4.38188 818.59L-3.92677 817.7ZM-14.8984 815.341L-14.8984 814.341C-19.3251 814.341 -23.1802 815.149 -26.4278 816.809L-25.9727 817.7L-25.5176 818.59C-22.6128 817.105 -19.0851 816.341 -14.8984 816.341L-14.8984 815.341ZM-25.9727 817.7L-26.4278 816.809C-29.6877 818.475 -32.1944 820.947 -33.9302 824.202L-33.0479 824.672L-32.1655 825.143C-30.6201 822.245 -28.41 820.068 -25.5176 818.59L-25.9727 817.7ZM-33.0479 824.672L-33.9258 824.193C-35.6668 827.385 -36.5088 831.287 -36.5088 835.849L-35.5088 835.849L-34.5088 835.849C-34.5088 831.525 -33.7102 827.975 -32.17 825.151L-33.0479 824.672ZM-35.5088 835.849L-36.5088 835.849L-36.5088 858.613L-35.5088 858.613L-34.5088 858.613L-34.5088 835.849L-35.5088 835.849ZM-35.5088 858.613L-35.5088 859.613L86 859.613L86 858.613L86 857.613L-35.5088 857.613L-35.5088 858.613ZM86 858.613L85 858.613L85 894.604L86 894.604L87 894.604L87 858.613L86 858.613ZM86 894.604L86 893.604L-63.2969 893.604L-63.2969 894.604L-63.2969 895.604L86 895.604L86 894.604ZM86 812.88L85.5528 811.986L19.5176 845.003L19.9648 845.898L20.412 846.792L86.4472 813.775L86 812.88ZM19.9648 845.898L20.9648 845.892L20.7597 807.748L19.7598 807.753L18.7598 807.759L18.9648 845.903L19.9648 845.898ZM19.7598 807.753L20.2188 808.642L84.9209 775.214L84.4619 774.326L84.0029 773.437L19.3008 806.865L19.7598 807.753ZM84.4619 774.326L84.4619 775.326L86 775.326L86 774.326L86 773.326L84.4619 773.326L84.4619 774.326ZM86 774.326L85 774.326L85 812.88L86 812.88L87 812.88L87 774.326L86 774.326ZM58.3144 652.768L58.3144 651.768L57.3144 651.768L57.3144 652.768L58.3144 652.768ZM86 652.768L87 652.768L87 651.768L86 651.768L86 652.768ZM86 732.338L86 733.338L87 733.338L87 732.338L86 732.338ZM58.3144 732.338L57.3144 732.338L57.3144 733.338L58.3144 733.338L58.3144 732.338ZM-63.2969 719.521L-63.2969 718.521L-64.2969 718.521L-64.2969 719.521L-63.2969 719.521ZM86 719.521L87 719.521L87 718.521L86 718.521L86 719.521ZM86 755.512L86 756.512L87 756.512L87 755.512L86 755.512ZM-63.2969 755.512L-64.2969 755.512L-64.2969 756.512L-63.2969 756.512L-63.2969 755.512ZM-4.02931 663.021L-4.02931 662.021L-5.02931 662.021L-5.02931 663.021L-4.02931 663.021ZM22.7334 663.021L23.7334 663.021L23.7334 662.021L22.7334 662.021L22.7334 663.021ZM22.7334 732.338L22.7334 733.338L23.7334 733.338L23.7334 732.338L22.7334 732.338ZM-4.02931 732.338L-5.02931 732.338L-5.02931 733.338L-4.02931 733.338L-4.02931 732.338ZM-63.2969 652.46L-63.2969 651.46L-64.2969 651.46L-64.2969 652.46L-63.2969 652.46ZM-35.5088 652.46L-34.5088 652.46L-34.5088 651.46L-35.5088 651.46L-35.5088 652.46ZM-35.5088 732.338L-35.5088 733.338L-34.5088 733.338L-34.5088 732.338L-35.5088 732.338ZM-63.2969 732.338L-64.2969 732.338L-64.2969 733.338L-63.2969 733.338L-63.2969 732.338ZM58.3144 652.768L58.3144 653.768L86 653.768L86 652.768L86 651.768L58.3144 651.768L58.3144 652.768ZM86 652.768L85 652.768L85 732.338L86 732.338L87 732.338L87 652.768L86 652.768ZM86 732.338L86 731.338L58.3144 731.338L58.3144 732.338L58.3144 733.338L86 733.338L86 732.338ZM58.3144 732.338L59.3144 732.338L59.3144 652.768L58.3144 652.768L57.3144 652.768L57.3144 732.338L58.3144 732.338ZM-63.2969 719.521L-63.2969 720.521L86 720.521L86 719.521L86 718.521L-63.2969 718.521L-63.2969 719.521ZM86 719.521L85 719.521L85 755.512L86 755.512L87 755.512L87 719.521L86 719.521ZM86 755.512L86 754.512L-63.2969 754.512L-63.2969 755.512L-63.2969 756.512L86 756.512L86 755.512ZM-63.2969 755.512L-62.2969 755.512L-62.2969 719.521L-63.2969 719.521L-64.2969 719.521L-64.2969 755.512L-63.2969 755.512ZM-4.02931 663.021L-4.02931 664.021L22.7334 664.021L22.7334 663.021L22.7334 662.021L-4.02931 662.021L-4.02931 663.021ZM22.7334 663.021L21.7334 663.021L21.7334 732.338L22.7334 732.338L23.7334 732.338L23.7334 663.021L22.7334 663.021ZM22.7334 732.338L22.7334 731.338L-4.02931 731.338L-4.02931 732.338L-4.02931 733.338L22.7334 733.338L22.7334 732.338ZM-4.02931 732.338L-3.02931 732.338L-3.02931 663.021L-4.02931 663.021L-5.02931 663.021L-5.02931 732.338L-4.02931 732.338ZM-63.2969 652.46L-63.2969 653.46L-35.5088 653.46L-35.5088 652.46L-35.5088 651.46L-63.2969 651.46L-63.2969 652.46ZM-35.5088 652.46L-36.5088 652.46L-36.5088 732.338L-35.5088 732.338L-34.5088 732.338L-34.5088 652.46L-35.5088 652.46ZM-35.5088 732.338L-35.5088 731.338L-63.2969 731.338L-63.2969 732.338L-63.2969 733.338L-35.5088 733.338L-35.5088 732.338ZM-63.2969 732.338L-62.2969 732.338L-62.2969 652.46L-63.2969 652.46L-64.2969 652.46L-64.2969 732.338L-63.2969 732.338ZM40.0625 560.023L40.3988 560.965L40.4098 560.961L40.0625 560.023ZM29.8086 571.815L30.703 572.262L30.7083 572.252L30.7134 572.241L29.8086 571.815ZM24.4765 585.35L25.4252 585.666L25.4264 585.663L24.4765 585.35ZM17.0937 604.32L18.002 604.738L18.0058 604.73L17.0937 604.32ZM7.35252 620.624L8.13887 621.241L8.1443 621.234L7.35252 620.624ZM-5.77248 632.005L-5.28783 632.88L-5.28279 632.877L-5.77248 632.005ZM-40.7383 631.903L-40.2497 631.03L-40.2546 631.028L-40.7383 631.903ZM-53.9658 619.906L-53.1492 619.329L-53.1507 619.327L-53.9658 619.906ZM-62.374 601.654L-61.4097 601.389L-61.4122 601.38L-62.374 601.654ZM-59.6055 549.872L-58.6966 550.289L-58.6926 550.28L-59.6055 549.872ZM-43.5069 530.184L-42.9465 531.013L-42.9372 531.006L-43.5069 530.184ZM-19 523.006L-18 523.006L-18 522.006L-19 522.006L-19 523.006ZM-19 558.793L-19 559.793L-18 559.793L-18 558.793L-19 558.793ZM-28.9463 561.151L-28.4823 562.037L-28.4741 562.032L-28.466 562.028L-28.9463 561.151ZM-30.5869 597.962L-30.0151 597.142L-30.0266 597.134L-30.5869 597.962ZM-16.9492 598.475L-16.3945 599.307L-16.3766 599.295L-16.3592 599.283L-16.9492 598.475ZM-11.9248 593.041L-11.0965 593.601L-11.0891 593.59L-11.9248 593.041ZM-7.4131 584.427L-6.49394 584.821L-6.49112 584.815L-7.4131 584.427ZM-3.209 572.943L-2.25729 573.25L-2.25629 573.247L-3.209 572.943ZM5.30174 551.82L6.19225 552.275L6.19812 552.263L5.30174 551.82ZM15.8633 536.131L16.5935 536.815L16.5992 536.809L16.6048 536.802L15.8633 536.131ZM29.1933 526.39L29.5948 527.306L29.6053 527.301L29.1933 526.39ZM77.1816 538.08L77.9884 537.489L77.983 537.481L77.1816 538.08ZM85.1797 600.834L86.1455 601.093L86.1482 601.082L85.1797 600.834ZM76.1562 620.931L76.9825 621.495L76.9868 621.488L76.1562 620.931ZM60.4678 635.389L60.9519 636.264L60.9629 636.258L60.4678 635.389ZM37.6015 640.721L36.6015 640.721L36.6015 641.721L37.6015 641.721L37.6015 640.721ZM37.6015 604.628L37.6015 603.628L36.6015 603.628L36.6015 604.628L37.6015 604.628ZM55.956 597.757L56.73 598.391L56.7358 598.384L56.7415 598.376L55.956 597.757ZM59.8525 589.452L60.8227 589.694L60.8251 589.685L60.8272 589.675L59.8525 589.452ZM59.0322 567.098L59.9395 566.678L59.9353 566.669L59.931 566.66L59.0322 567.098ZM53.7002 560.946L54.2108 560.086L54.1991 560.079L53.7002 560.946ZM46.3174 558.998L46.3174 557.998C43.8956 557.998 41.6901 558.354 39.7152 559.085L40.0625 560.023L40.4098 560.961C42.1262 560.325 44.0907 559.998 46.3174 559.998L46.3174 558.998ZM40.0625 560.023L39.7261 559.081C37.6233 559.832 35.7114 561.208 33.983 563.153L34.7304 563.817L35.4779 564.481C37.0307 562.734 38.6735 561.581 40.3988 560.965L40.0625 560.023ZM34.7304 563.817L33.983 563.153C32.2536 565.098 30.5651 567.859 28.9038 571.389L29.8086 571.815L30.7134 572.241C32.3333 568.798 33.926 566.227 35.4779 564.481L34.7304 563.817ZM29.8086 571.815L28.9141 571.368C27.1751 574.846 25.3804 579.408 23.5267 585.037L24.4765 585.35L25.4264 585.663C27.2641 580.082 29.024 575.62 30.703 572.262L29.8086 571.815ZM24.4765 585.35L23.5279 585.034C21.3506 591.566 18.9017 597.858 16.1816 603.91L17.0937 604.32L18.0058 604.73C20.7545 598.614 23.2275 592.26 25.4252 585.666L24.4765 585.35ZM17.0937 604.32L16.1855 603.902C13.4109 609.924 10.2016 615.293 6.56074 620.013L7.35252 620.624L8.1443 621.234C11.8863 616.384 15.1711 610.883 18.002 604.738L17.0937 604.32ZM7.35252 620.624L6.5662 620.006C2.88244 624.694 -1.39368 628.399 -6.26217 631.134L-5.77248 632.005L-5.28279 632.877C-0.170809 630.006 4.30307 626.123 8.13884 621.241L7.35252 620.624ZM-5.77248 632.005L-6.25712 631.131C-11.1454 633.839 -16.8524 635.21 -23.4092 635.21L-23.4092 636.21L-23.4092 637.21C-16.5675 637.21 -10.5168 635.777 -5.28784 632.88L-5.77248 632.005ZM-23.4092 636.21L-23.4092 635.21C-29.6803 635.21 -35.2857 633.81 -40.2497 631.03L-40.7383 631.903L-41.2269 632.775C-35.937 635.738 -29.9896 637.21 -23.4092 637.21L-23.4092 636.21ZM-40.7383 631.903L-40.2546 631.028C-45.3103 628.234 -49.6081 624.34 -53.1492 619.329L-53.9658 619.906L-54.7825 620.483C-51.0775 625.726 -46.5569 629.83 -41.222 632.778L-40.7383 631.903ZM-53.9658 619.906L-53.1507 619.327C-56.7659 614.239 -59.5225 608.264 -61.4097 601.389L-62.374 601.654L-63.3384 601.919C-61.3975 608.989 -58.5486 615.183 -54.781 620.485L-53.9658 619.906ZM-62.374 601.654L-61.4122 601.38C-63.366 594.508 -64.3477 586.979 -64.3477 578.788L-65.3477 578.788L-66.3477 578.788C-66.3477 587.139 -65.3469 594.854 -63.3359 601.927L-62.374 601.654ZM-65.3477 578.788L-64.3477 578.788C-64.3477 567.967 -62.4543 558.475 -58.6967 550.289L-59.6055 549.872L-60.5143 549.454C-64.4129 557.948 -66.3477 567.733 -66.3477 578.788L-65.3477 578.788ZM-59.6055 549.872L-58.6926 550.28C-55.0015 542.025 -49.7504 535.615 -42.9465 531.012L-43.5069 530.184L-44.0672 529.356C-51.2086 534.187 -56.6899 540.902 -60.5184 549.463L-59.6055 549.872ZM-43.5069 530.184L-42.9372 531.006C-36.2204 526.351 -28.2561 524.006 -19 524.006L-19 523.006L-19 522.006C-28.6112 522.006 -36.9847 524.447 -44.0765 529.362L-43.5069 530.184ZM-19 523.006L-20 523.006L-20 558.793L-19 558.793L-18 558.793L-18 523.006L-19 523.006ZM-19 558.793L-19 557.793C-22.9025 557.793 -26.3877 558.61 -29.4266 560.274L-28.9463 561.151L-28.466 562.028C-25.7628 560.548 -22.6171 559.793 -19 559.793L-19 558.793ZM-28.9463 561.151L-29.4103 560.265C-32.473 561.869 -34.8686 564.311 -36.5962 567.551L-35.7139 568.021L-34.8315 568.492C-33.278 565.579 -31.1618 563.44 -28.4823 562.037L-28.9463 561.151ZM-35.7139 568.021L-36.5962 567.551C-38.3355 570.812 -39.1748 574.848 -39.1748 579.608L-38.1748 579.608L-37.1748 579.608C-37.1748 575.071 -36.3735 571.383 -34.8315 568.492L-35.7139 568.021ZM-38.1748 579.608L-39.1748 579.608C-39.1748 584.215 -38.4777 588.156 -37.0379 591.396L-36.124 590.99L-35.2102 590.584C-36.5048 587.671 -37.1748 584.025 -37.1748 579.608L-38.1748 579.608ZM-36.124 590.99L-37.0379 591.396C-35.61 594.609 -33.655 597.094 -31.1472 598.791L-30.5869 597.962L-30.0266 597.134C-32.1673 595.686 -33.9037 593.523 -35.2102 590.584L-36.124 590.99ZM-30.5869 597.962L-31.1587 598.783C-28.7361 600.471 -26.0417 601.321 -23.1016 601.321L-23.1016 600.321L-23.1016 599.321C-25.6303 599.321 -27.926 598.598 -30.0151 597.142L-30.5869 597.962ZM-23.1016 600.321L-23.1016 601.321C-20.6519 601.321 -18.4074 600.649 -16.3945 599.307L-16.9492 598.475L-17.5039 597.643C-19.1824 598.762 -21.0396 599.321 -23.1016 599.321L-23.1016 600.321ZM-16.9492 598.475L-16.3592 599.283C-14.4672 597.9 -12.7165 595.996 -11.0965 593.601L-11.9248 593.041L-12.7531 592.48C-14.2777 594.734 -15.8766 596.453 -17.5393 597.668L-16.9492 598.475ZM-11.9248 593.041L-11.0891 593.59C-9.47718 591.137 -7.94676 588.211 -6.49396 584.821L-7.4131 584.427L-8.33225 584.033C-9.75055 587.343 -11.2279 590.159 -12.7605 592.491L-11.9248 593.041ZM-7.4131 584.427L-6.49112 584.815C-5.0426 581.366 -3.63157 577.51 -2.2573 573.25L-3.209 572.943L-4.16071 572.636C-5.52082 576.852 -6.91252 580.653 -8.33509 584.04L-7.4131 584.427ZM-3.209 572.943L-2.25629 573.247C0.259646 565.359 3.07691 558.37 6.19217 552.275L5.30174 551.82L4.4113 551.365C1.2375 557.574 -1.61906 564.668 -4.16172 572.639L-3.209 572.943ZM5.30174 551.82L6.19812 552.263C9.23915 546.114 12.7071 540.969 16.5935 536.815L15.8633 536.131L15.133 535.448C11.0898 539.77 7.51666 545.085 4.40535 551.377L5.30174 551.82ZM15.8633 536.131L16.6048 536.802C20.4129 532.593 24.7424 529.433 29.5948 527.306L29.1933 526.39L28.7919 525.474C23.6638 527.722 19.1066 531.056 15.1217 535.461L15.8633 536.131ZM29.1933 526.39L29.6053 527.301C34.4482 525.112 39.9443 524.006 46.1123 524.006L46.1123 523.006L46.1123 522.006C39.7022 522.006 33.919 523.157 28.7814 525.479L29.1933 526.39ZM46.1123 523.006L46.1123 524.006C52.6801 524.006 58.4703 525.279 63.5069 527.797L63.9541 526.903L64.4013 526.008C59.0473 523.331 52.9429 522.006 46.1123 522.006L46.1123 523.006ZM63.9541 526.903L63.5069 527.797C68.5566 530.322 72.8464 533.944 76.3803 538.678L77.1816 538.08L77.983 537.481C74.2707 532.508 69.7422 528.679 64.4013 526.008L63.9541 526.903ZM77.1816 538.08L76.3749 538.671C79.8463 543.41 82.4987 549.106 84.3174 555.774L85.2822 555.511L86.247 555.248C84.3743 548.382 81.6263 542.456 77.9884 537.489L77.1816 538.08ZM85.2822 555.511L84.3174 555.774C86.1358 562.442 87.0508 569.905 87.0508 578.172L88.0508 578.172L89.0508 578.172C89.0508 569.76 88.12 562.116 86.247 555.248L85.2822 555.511ZM88.0508 578.172L87.0508 578.172C87.0508 585.744 86.1044 593.215 84.2111 600.585L85.1797 600.834L86.1482 601.082C88.0831 593.55 89.0508 585.913 89.0508 578.172L88.0508 578.172ZM85.1797 600.834L84.2139 600.574C82.2583 607.857 79.2944 614.455 75.3256 620.374L76.1562 620.931L76.9868 621.488C81.0844 615.376 84.1362 608.576 86.1455 601.093L85.1797 600.834ZM76.1562 620.931L75.33 620.368C71.3146 626.257 66.1986 630.972 59.9726 634.52L60.4678 635.389L60.9629 636.258C67.4518 632.56 72.7947 627.637 76.9825 621.495L76.1562 620.931ZM60.4678 635.389L59.9837 634.514C53.7332 637.972 46.2845 639.721 37.6015 639.721L37.6015 640.721L37.6015 641.721C46.5553 641.721 54.3508 639.916 60.9518 636.264L60.4678 635.389ZM37.6015 640.721L38.6015 640.721L38.6015 604.628L37.6015 604.628L36.6015 604.628L36.6015 640.721L37.6015 640.721ZM37.6015 604.628L37.6015 605.628C42.0586 605.628 45.8804 605.036 49.0362 603.817L48.6758 602.884L48.3154 601.952C45.4555 603.057 41.8945 603.628 37.6015 603.628L37.6015 604.628ZM48.6758 602.884L49.0362 603.817C52.1879 602.599 54.7633 600.794 56.73 598.391L55.956 597.757L55.1821 597.124C53.4573 599.232 51.1793 600.845 48.3154 601.952L48.6758 602.884ZM55.956 597.757L56.7415 598.376C58.6205 595.991 59.9741 593.089 60.8227 589.694L59.8525 589.452L58.8824 589.209C58.0903 592.377 56.8463 595.012 55.1705 597.139L55.956 597.757ZM59.8525 589.452L60.8272 589.675C61.5997 586.305 61.9804 582.467 61.9804 578.172L60.9804 578.172L59.9804 578.172C59.9804 582.354 59.6093 586.036 58.8778 589.228L59.8525 589.452ZM60.9804 578.172L61.9804 578.172C61.9804 573.511 61.3216 569.66 59.9395 566.678L59.0322 567.098L58.1249 567.519C59.3405 570.142 59.9804 573.673 59.9804 578.172L60.9804 578.172ZM59.0322 567.098L59.931 566.66C58.4977 563.722 56.6004 561.505 54.2107 560.086L53.7002 560.946L53.1896 561.806C55.1749 562.985 56.8323 564.869 58.1334 567.537L59.0322 567.098ZM53.7002 560.946L54.1991 560.079C51.7877 558.691 49.1541 557.998 46.3174 557.998L46.3174 558.998L46.3174 559.998C48.8127 559.998 51.1009 560.603 53.2012 561.812L53.7002 560.946ZM58.3144 399.603L58.3144 398.603L57.3144 398.603L57.3144 399.603L58.3144 399.603ZM86 399.603L87 399.603L87 398.603L86 398.603L86 399.603ZM86 479.173L86 480.173L87 480.173L87 479.173L86 479.173ZM58.3144 479.173L57.3144 479.173L57.3144 480.173L58.3144 480.173L58.3144 479.173ZM-63.2969 466.356L-63.2969 465.356L-64.2969 465.356L-64.2969 466.356L-63.2969 466.356ZM86 466.356L87 466.356L87 465.356L86 465.356L86 466.356ZM86 502.347L86 503.347L87 503.347L87 502.347L86 502.347ZM-63.2969 502.347L-64.2969 502.347L-64.2969 503.347L-63.2969 503.347L-63.2969 502.347ZM-4.02932 409.857L-4.02932 408.857L-5.02932 408.857L-5.02932 409.857L-4.02932 409.857ZM22.7334 409.857L23.7334 409.857L23.7334 408.857L22.7334 408.857L22.7334 409.857ZM22.7334 479.173L22.7334 480.173L23.7334 480.173L23.7334 479.173L22.7334 479.173ZM-4.02932 479.173L-5.02932 479.173L-5.02932 480.173L-4.02932 480.173L-4.02932 479.173ZM-63.2969 399.295L-63.2969 398.295L-64.2969 398.295L-64.2969 399.295L-63.2969 399.295ZM-35.5088 399.295L-34.5088 399.295L-34.5088 398.295L-35.5088 398.295L-35.5088 399.295ZM-35.5088 479.173L-35.5088 480.173L-34.5088 480.173L-34.5088 479.173L-35.5088 479.173ZM-63.2969 479.173L-64.2969 479.173L-64.2969 480.173L-63.2969 480.173L-63.2969 479.173ZM58.3144 399.603L58.3144 400.603L86 400.603L86 399.603L86 398.603L58.3144 398.603L58.3144 399.603ZM86 399.603L85 399.603L85 479.173L86 479.173L87 479.173L87 399.603L86 399.603ZM86 479.173L86 478.173L58.3144 478.173L58.3144 479.173L58.3144 480.173L86 480.173L86 479.173ZM58.3144 479.173L59.3144 479.173L59.3144 399.603L58.3144 399.603L57.3144 399.603L57.3144 479.173L58.3144 479.173ZM-63.2969 466.356L-63.2969 467.356L86 467.356L86 466.356L86 465.356L-63.2969 465.356L-63.2969 466.356ZM86 466.356L85 466.356L85 502.347L86 502.347L87 502.347L87 466.356L86 466.356ZM86 502.347L86 501.347L-63.2969 501.347L-63.2969 502.347L-63.2969 503.347L86 503.347L86 502.347ZM-63.2969 502.347L-62.2969 502.347L-62.2969 466.356L-63.2969 466.356L-64.2969 466.356L-64.2969 502.347L-63.2969 502.347ZM-4.02932 409.857L-4.02932 410.857L22.7334 410.857L22.7334 409.857L22.7334 408.857L-4.02932 408.857L-4.02932 409.857ZM22.7334 409.857L21.7334 409.857L21.7334 479.173L22.7334 479.173L23.7334 479.173L23.7334 409.857L22.7334 409.857ZM22.7334 479.173L22.7334 478.173L-4.02932 478.173L-4.02932 479.173L-4.02932 480.173L22.7334 480.173L22.7334 479.173ZM-4.02932 479.173L-3.02932 479.173L-3.02932 409.857L-4.02932 409.857L-5.02932 409.857L-5.02932 479.173L-4.02932 479.173ZM-63.2969 399.295L-63.2969 400.295L-35.5088 400.295L-35.5088 399.295L-35.5088 398.295L-63.2969 398.295L-63.2969 399.295ZM-35.5088 399.295L-36.5088 399.295L-36.5088 479.173L-35.5088 479.173L-34.5088 479.173L-34.5088 399.295L-35.5088 399.295ZM-35.5088 479.173L-35.5088 478.173L-63.2969 478.173L-63.2969 479.173L-63.2969 480.173L-35.5088 480.173L-35.5088 479.173ZM-63.2969 479.173L-62.2969 479.173L-62.2969 399.295L-63.2969 399.295L-64.2969 399.295L-64.2969 479.173L-63.2969 479.173ZM-63.2969 382.737L-64.2969 382.737L-64.2969 383.737L-63.2969 383.737L-63.2969 382.737ZM-42.9942 274.456L-42.4298 275.281L-42.4241 275.277L-42.9942 274.456ZM17.5039 282.659L18.2914 282.043L18.2902 282.041L17.5039 282.659ZM26.6298 299.168L25.6952 299.523L25.7221 299.594L25.7593 299.66L26.6298 299.168ZM33.2949 310.96L34.2949 310.96L34.2949 310.697L34.1654 310.468L33.2949 310.96ZM33.2949 360.281L33.3023 361.281L34.2949 361.274L34.2949 360.281L33.2949 360.281ZM5.50681 360.486L4.50681 360.486L4.50681 361.494L5.51418 361.486L5.50681 360.486ZM-3.92679 305.833L-4.38192 306.723L-4.374 306.727L-3.92679 305.833ZM-33.0479 312.805L-32.1699 313.284L-32.1655 313.276L-33.0479 312.805ZM-35.5088 346.746L-36.5088 346.746L-36.5088 347.746L-35.5088 347.746L-35.5088 346.746ZM86 346.746L87 346.746L87 345.746L86 345.746L86 346.746ZM86 382.737L86 383.737L87 383.737L87 382.737L86 382.737ZM86 301.013L86.4472 301.908L87 301.632L87 301.013L86 301.013ZM19.9648 334.031L18.9648 334.036L18.9735 335.645L20.412 334.925L19.9648 334.031ZM19.7597 295.887L19.3007 294.998L18.7565 295.279L18.7597 295.892L19.7597 295.887ZM84.4619 262.459L84.4619 261.459L84.2188 261.459L84.0029 261.57L84.4619 262.459ZM86 262.459L87 262.459L87 261.459L86 261.459L86 262.459ZM-63.2969 382.737L-62.2969 382.737L-62.2969 323.982L-63.2969 323.982L-64.2969 323.982L-64.2969 382.737L-63.2969 382.737ZM-63.2969 323.982L-62.2969 323.982C-62.2969 312.594 -60.602 302.746 -57.2425 294.415L-58.17 294.041L-59.0974 293.667C-62.5738 302.288 -64.2969 312.401 -64.2969 323.982L-63.2969 323.982ZM-58.17 294.041L-57.2425 294.415C-53.8887 286.097 -48.946 279.736 -42.4298 275.281L-42.9942 274.456L-43.5586 273.63C-50.4407 278.336 -55.6153 285.031 -59.0974 293.667L-58.17 294.041ZM-42.9942 274.456L-42.4241 275.277C-35.9244 270.767 -27.8627 268.483 -18.1797 268.483L-18.1797 267.483L-18.1797 266.483C-28.1843 266.483 -36.6655 268.847 -43.5643 273.634L-42.9942 274.456ZM-18.1797 267.483L-18.1797 268.483C-9.73207 268.483 -2.74276 269.802 2.82983 272.389L3.25094 271.482L3.67206 270.575C-2.23973 267.831 -9.53752 266.483 -18.1797 266.483L-18.1797 267.483ZM3.25094 271.482L2.82983 272.389C8.43516 274.992 13.059 278.621 16.7176 283.277L17.5039 282.659L18.2902 282.041C14.4292 277.127 9.5511 273.305 3.67206 270.575L3.25094 271.482ZM17.5039 282.659L16.7164 283.275C20.3388 287.904 23.334 293.317 25.6952 299.523L26.6298 299.168L27.5645 298.812C25.1406 292.441 22.0517 286.848 18.2914 282.043L17.5039 282.659ZM26.6298 299.168L25.7593 299.66L32.4243 311.452L33.2949 310.96L34.1654 310.468L27.5004 298.676L26.6298 299.168ZM33.2949 310.96L32.2949 310.96L32.2949 360.281L33.2949 360.281L34.2949 360.281L34.2949 310.96L33.2949 310.96ZM33.2949 360.281L33.2875 359.281L5.49943 359.486L5.50681 360.486L5.51418 361.486L33.3023 361.281L33.2949 360.281ZM5.50681 360.486L6.50681 360.486L6.5068 323.982L5.5068 323.982L4.5068 323.982L4.50681 360.486L5.50681 360.486ZM5.5068 323.982L6.5068 323.982C6.5068 319.289 5.66697 315.317 3.92377 312.122L3.04587 312.6L2.16797 313.079C3.70602 315.899 4.5068 319.515 4.5068 323.982L5.5068 323.982ZM3.04587 312.6L3.92377 312.122C2.18733 308.938 -0.285508 306.535 -3.47958 304.938L-3.92679 305.833L-4.374 306.727C-1.55245 308.138 0.623153 310.247 2.16797 313.079L3.04587 312.6ZM-3.92679 305.833L-3.47168 304.942C-6.71716 303.284 -10.5373 302.474 -14.8985 302.474L-14.8985 303.474L-14.8985 304.474C-10.7831 304.474 -7.28876 305.238 -4.3819 306.723L-3.92679 305.833ZM-14.8985 303.474L-14.8985 302.474C-19.3251 302.474 -23.1802 303.283 -26.4278 304.942L-25.9727 305.833L-25.5176 306.723C-22.6128 305.239 -19.0851 304.474 -14.8985 304.474L-14.8985 303.474ZM-25.9727 305.833L-26.4278 304.942C-29.6877 306.609 -32.1944 309.08 -33.9302 312.335L-33.0479 312.805L-32.1655 313.276C-30.6201 310.378 -28.41 308.202 -25.5176 306.723L-25.9727 305.833ZM-33.0479 312.805L-33.9258 312.327C-35.6668 315.519 -36.5088 319.42 -36.5088 323.982L-35.5088 323.982L-34.5088 323.982C-34.5088 319.658 -33.7102 316.108 -32.17 313.284L-33.0479 312.805ZM-35.5088 323.982L-36.5088 323.982L-36.5088 346.746L-35.5088 346.746L-34.5088 346.746L-34.5088 323.982L-35.5088 323.982ZM-35.5088 346.746L-35.5088 347.746L86 347.746L86 346.746L86 345.746L-35.5088 345.746L-35.5088 346.746ZM86 346.746L85 346.746L85 382.737L86 382.737L87 382.737L87 346.746L86 346.746ZM86 382.737L86 381.737L-63.2969 381.737L-63.2969 382.737L-63.2969 383.737L86 383.737L86 382.737ZM86 301.013L85.5527 300.119L19.5176 333.137L19.9648 334.031L20.412 334.925L86.4472 301.908L86 301.013ZM19.9648 334.031L20.9648 334.026L20.7597 295.881L19.7597 295.887L18.7597 295.892L18.9648 334.036L19.9648 334.031ZM19.7597 295.887L20.2187 296.775L84.9209 263.347L84.4619 262.459L84.0029 261.57L19.3007 294.998L19.7597 295.887ZM84.4619 262.459L84.4619 263.459L86 263.459L86 262.459L86 261.459L84.4619 261.459L84.4619 262.459ZM86 262.459L85 262.459L85 301.013L86 301.013L87 301.013L87 262.459L86 262.459ZM50.8291 189.197L50.5664 190.162L50.6262 190.178L50.6876 190.187L50.8291 189.197ZM-63.2969 158.127L-64.2969 158.127L-64.2969 158.891L-63.5596 159.092L-63.2969 158.127ZM-63.2969 117.829L-62.9774 116.882L-64.2969 116.437L-64.2969 117.829L-63.2969 117.829ZM86 168.176L87 168.176L87 167.458L86.3195 167.229L86 168.176ZM86 194.221L85.8585 195.211L87 195.374L87 194.221L86 194.221ZM-63.2969 217.395L-63.5596 216.43L-64.2969 216.631L-64.2969 217.395L-63.2969 217.395ZM50.8291 186.326L50.682 185.336L50.6235 185.345L50.5664 185.361L50.8291 186.326ZM86 181.096L87 181.096L87 179.936L85.8529 180.107L86 181.096ZM86 207.449L86.3178 208.397L87 208.168L87 207.449L86 207.449ZM-63.2969 257.488L-64.2969 257.488L-64.2969 258.878L-62.9791 258.436L-63.2969 257.488ZM50.8291 189.197L51.0917 188.232L-63.0342 157.162L-63.2969 158.127L-63.5596 159.092L50.5664 190.162L50.8291 189.197ZM-63.2969 158.127L-62.2969 158.127L-62.2969 117.829L-63.2969 117.829L-64.2969 117.829L-64.2969 158.127L-63.2969 158.127ZM-63.2969 117.829L-63.6165 118.777L85.6804 169.124L86 168.176L86.3195 167.229L-62.9774 116.882L-63.2969 117.829ZM86 168.176L85 168.176L85 194.221L86 194.221L87 194.221L87 168.176L86 168.176ZM86 194.221L86.1414 193.231L50.9705 188.207L50.8291 189.197L50.6876 190.187L85.8585 195.211L86 194.221ZM-63.2969 217.395L-63.0342 218.36L51.0917 187.29L50.8291 186.326L50.5664 185.361L-63.5596 216.43L-63.2969 217.395ZM50.8291 186.326L50.9761 187.315L86.147 182.085L86 181.096L85.8529 180.107L50.682 185.336L50.8291 186.326ZM86 181.096L85 181.096L85 207.449L86 207.449L87 207.449L87 181.096L86 181.096ZM86 207.449L85.6822 206.5L-63.6147 256.539L-63.2969 257.488L-62.9791 258.436L86.3178 208.397L86 207.449ZM-63.2969 257.488L-62.2969 257.488L-62.2969 217.395L-63.2969 217.395L-64.2969 217.395L-64.2969 257.488L-63.2969 257.488ZM-63.2969 66.5107L-63.2969 65.5107L-64.2969 65.5107L-64.2969 66.5107L-63.2969 66.5107ZM86 66.5107L87 66.5107L87 65.5107L86 65.5107L86 66.5107ZM86 102.399L86 103.399L87 103.399L87 102.399L86 102.399ZM-63.2969 102.399L-64.2969 102.399L-64.2969 103.399L-63.2969 103.399L-63.2969 102.399ZM-63.2969 66.5107L-63.2969 67.5107L86 67.5107L86 66.5107L86 65.5107L-63.2969 65.5107L-63.2969 66.5107ZM86 66.5107L85 66.5107L85 102.399L86 102.399L87 102.399L87 66.5107L86 66.5107ZM86 102.399L86 101.399L-63.2969 101.399L-63.2969 102.399L-63.2969 103.399L86 103.399L86 102.399ZM-63.2969 102.399L-62.2969 102.399L-62.2969 66.5107L-63.2969 66.5107L-64.2969 66.5107L-64.2969 102.399L-63.2969 102.399ZM-63.2969 -85.6039L-63.2969 -86.6039L-64.2969 -86.6039L-64.2969 -85.6039L-63.2969 -85.6039ZM85.9999 -85.6039L86.9999 -85.6039L86.9999 -86.6039L85.9999 -86.6039L85.9999 -85.6039ZM85.9999 -49.7152L86.4941 -48.8458L86.9999 -49.1334L86.9999 -49.7152L85.9999 -49.7152ZM-6.90043 3.0924L-7.39461 2.22302L-10.6832 4.0924L-6.90043 4.0924L-6.90043 3.0924ZM86 3.0924L87 3.0924L87 2.0924L86 2.0924L86 3.0924ZM86 39.0836L86 40.0836L87 40.0836L87 39.0836L86 39.0836ZM-63.2969 39.0836L-64.2969 39.0836L-64.2969 40.0836L-63.2969 40.0836L-63.2969 39.0836ZM-63.2969 3.09241L-63.7911 2.22302L-64.2969 2.51056L-64.2969 3.09241L-63.2969 3.09241ZM29.6035 -49.7152L30.0976 -48.8458L33.3863 -50.7152L29.6035 -50.7152L29.6035 -49.7152ZM-63.2969 -49.7152L-64.2969 -49.7152L-64.2969 -48.7152L-63.2969 -48.7152L-63.2969 -49.7152ZM-63.2969 -85.6039L-63.2969 -84.6039L85.9999 -84.6039L85.9999 -85.6039L85.9999 -86.6039L-63.2969 -86.6039L-63.2969 -85.6039ZM85.9999 -85.6039L84.9999 -85.6039L84.9999 -49.7152L85.9999 -49.7152L86.9999 -49.7152L86.9999 -85.6039L85.9999 -85.6039ZM85.9999 -49.7152L85.5058 -50.5846L-7.39461 2.22302L-6.90043 3.0924L-6.40626 3.96179L86.4941 -48.8458L85.9999 -49.7152ZM-6.90043 3.0924L-6.90043 4.0924L86 4.0924L86 3.0924L86 2.0924L-6.90043 2.0924L-6.90043 3.0924ZM86 3.0924L85 3.0924L85 39.0836L86 39.0836L87 39.0836L87 3.0924L86 3.0924ZM86 39.0836L86 38.0836L-63.2969 38.0836L-63.2969 39.0836L-63.2969 40.0836L86 40.0836L86 39.0836ZM-63.2969 39.0836L-62.2969 39.0836L-62.2969 3.09241L-63.2969 3.09241L-64.2969 3.09241L-64.2969 39.0836L-63.2969 39.0836ZM-63.2969 3.09241L-62.8027 3.96179L30.0976 -48.8458L29.6035 -49.7152L29.1093 -50.5846L-63.7911 2.22302L-63.2969 3.09241ZM29.6035 -49.7152L29.6035 -50.7152L-63.2969 -50.7152L-63.2969 -49.7152L-63.2969 -48.7152L29.6035 -48.7152L29.6035 -49.7152ZM-63.2969 -49.7152L-62.2969 -49.7152L-62.2969 -85.6039L-63.2969 -85.6039L-64.2969 -85.6039L-64.2969 -49.7152L-63.2969 -49.7152Z" fill="white" fill-opacity="0.5" mask="url(#path-1-outside-1_332_701)"/>
</svg>
