<svg width="91" height="982" viewBox="0 0 91 982" fill="none" xmlns="http://www.w3.org/2000/svg">
<mask id="path-1-outside-1_332_702" maskUnits="userSpaceOnUse" x="1.12256e-05" y="-7.85864e-06" width="157" height="983" fill="black">
<rect fill="white" x="1.12256e-05" y="-7.85864e-06" width="157" height="983"/>
<path d="M153.297 981.604L153.297 922.849C153.297 911.365 151.588 901.384 148.17 892.908C144.752 884.431 139.693 877.903 132.994 873.323C126.295 868.674 118.023 866.35 108.18 866.35C99.6348 866.35 92.4912 867.683 86.749 870.349C81.0068 873.015 76.2559 876.741 72.4961 881.526C68.8047 886.243 65.7627 891.746 63.3701 898.035L56.7051 909.827L56.7051 959.148L84.4932 959.353L84.4932 922.849C84.4932 918.269 85.3135 914.475 86.9541 911.467C88.5947 908.459 90.919 906.204 93.9268 904.7C97.0029 903.127 100.66 902.341 104.898 902.341C109.205 902.341 112.896 903.127 115.973 904.7C119.049 906.272 121.407 908.596 123.048 911.672C124.688 914.68 125.509 918.406 125.509 922.849L125.509 945.613L4.00001 945.613L4.00001 981.604L153.297 981.604ZM4.00001 899.88L70.0352 932.898L70.2402 894.753L5.5381 861.326L4.00002 861.326L4.00001 899.88ZM31.6856 739.768L4.00002 739.768L4.00002 819.338L31.6856 819.338L31.6856 739.768ZM153.297 806.521L4.00002 806.521L4.00002 842.512L153.297 842.512L153.297 806.521ZM94.0293 750.021L67.2666 750.021L67.2666 819.338L94.0293 819.338L94.0293 750.021ZM153.297 739.46L125.509 739.46L125.509 819.338L153.297 819.338L153.297 739.46ZM43.6826 645.998C46.0069 645.998 48.0918 646.339 49.9375 647.023C51.8516 647.707 53.6289 648.971 55.2696 650.817C56.9102 652.663 58.5508 655.329 60.1914 658.815C61.9004 662.233 63.6778 666.745 65.5235 672.35C67.711 678.913 70.1719 685.236 72.9063 691.32C75.709 697.404 78.9561 702.838 82.6475 707.624C86.4072 712.409 90.7822 716.203 95.7725 719.005C100.831 721.808 106.71 723.21 113.409 723.21C119.835 723.21 125.611 721.774 130.738 718.903C135.934 716.032 140.343 712.033 143.966 706.906C147.657 701.711 150.46 695.627 152.374 688.654C154.356 681.681 155.348 674.059 155.348 665.788C155.348 654.85 153.434 645.212 149.605 636.872C145.846 628.463 140.48 621.901 133.507 617.184C126.603 612.399 118.434 610.006 109 610.006L109 645.793C112.76 645.793 116.075 646.579 118.946 648.151C121.817 649.655 124.073 651.945 125.714 655.021C127.355 658.097 128.175 661.96 128.175 666.608C128.175 671.12 127.491 674.914 126.124 677.99C124.757 681.066 122.911 683.39 120.587 684.962C118.331 686.535 115.836 687.321 113.102 687.321C110.846 687.321 108.795 686.706 106.949 685.475C105.172 684.176 103.497 682.365 101.925 680.041C100.353 677.648 98.8487 674.777 97.4131 671.427C95.9776 668.009 94.5762 664.181 93.209 659.943C90.6797 652.013 87.8428 644.972 84.6983 638.82C81.6221 632.599 78.1016 627.37 74.1367 623.131C70.2403 618.825 65.7969 615.578 60.8067 613.39C55.8164 611.134 50.1768 610.006 43.8877 610.006C37.1885 610.006 31.2412 611.305 26.0459 613.903C20.8506 616.501 16.4414 620.226 12.8184 625.08C9.2637 629.933 6.5635 635.744 4.7178 642.511C2.8721 649.279 1.94924 656.833 1.94924 665.172C1.94924 672.829 2.90627 680.382 4.82034 687.834C6.80276 695.216 9.81057 701.916 13.8438 707.931C17.9453 713.947 23.1748 718.766 29.5322 722.389C35.958 725.944 43.5801 727.721 52.3985 727.721L52.3985 691.628C48.0235 691.628 44.3321 691.046 41.3242 689.884C38.3164 688.722 35.8897 687.013 34.044 684.757C32.2666 682.502 30.9678 679.733 30.1475 676.452C29.3955 673.17 29.0196 669.411 29.0196 665.172C29.0196 660.592 29.669 656.901 30.9678 654.098C32.335 651.295 34.1123 649.245 36.2998 647.946C38.5557 646.647 41.0166 645.998 43.6826 645.998ZM31.6856 486.603L4.00003 486.603L4.00003 566.173L31.6856 566.173L31.6856 486.603ZM153.297 553.356L4.00003 553.356L4.00003 589.347L153.297 589.347L153.297 553.356ZM94.0293 496.857L67.2666 496.857L67.2666 566.173L94.0293 566.173L94.0293 496.857ZM153.297 486.295L125.509 486.295L125.509 566.173L153.297 566.173L153.297 486.295ZM153.297 469.737L153.297 410.982C153.297 399.498 151.588 389.517 148.17 381.041C144.752 372.564 139.693 366.036 132.994 361.456C126.295 356.807 118.023 354.483 108.18 354.483C99.6348 354.483 92.4912 355.816 86.7491 358.482C81.0069 361.148 76.2559 364.874 72.4961 369.659C68.8047 374.376 65.7627 379.879 63.3702 386.168L56.7051 397.96L56.7051 447.281L84.4932 447.486L84.4932 410.982C84.4932 406.402 85.3135 402.608 86.9541 399.6C88.5948 396.593 90.919 394.337 93.9268 392.833C97.003 391.261 100.66 390.474 104.898 390.474C109.205 390.474 112.897 391.261 115.973 392.833C119.049 394.405 121.407 396.729 123.048 399.805C124.689 402.813 125.509 406.539 125.509 410.982L125.509 433.746L4.00003 433.746L4.00003 469.737L153.297 469.737ZM4.00004 388.013L70.0352 421.031L70.2403 382.887L5.53812 349.459L4.00004 349.459L4.00004 388.013ZM39.1709 276.197L153.297 245.127L153.297 204.829L4.00004 255.176L4.00004 281.221L39.1709 276.197ZM153.297 304.395L39.1709 273.326L4.00004 268.096L4.00004 294.449L153.297 344.488L153.297 304.395ZM153.297 153.511L4.00005 153.511L4.00005 189.399L153.297 189.399L153.297 153.511ZM153.297 1.39612L4.00005 1.39611L4.00005 37.2848L96.9004 90.0924L4.00005 90.0924L4.00005 126.084L153.297 126.084L153.297 90.0924L60.3965 37.2848L153.297 37.2848L153.297 1.39612Z"/>
</mask>
<path d="M153.297 981.604L154.297 981.604L154.297 982.604L153.297 982.604L153.297 981.604ZM132.994 873.323L132.43 874.148L132.424 874.144L132.994 873.323ZM72.4961 881.526L71.7086 880.909L71.7098 880.908L72.4961 881.526ZM63.3701 898.035L64.3048 898.39L64.2779 898.461L64.2407 898.527L63.3701 898.035ZM56.7051 909.827L55.7051 909.827L55.7051 909.564L55.8345 909.335L56.7051 909.827ZM56.7051 959.148L56.6977 960.148L55.7051 960.14L55.7051 959.148L56.7051 959.148ZM84.4932 959.353L85.4932 959.353L85.4932 960.36L84.4858 960.353L84.4932 959.353ZM93.9268 904.7L94.3819 905.59L94.374 905.594L93.9268 904.7ZM123.048 911.672L122.17 912.151L122.166 912.143L123.048 911.672ZM125.509 945.613L126.509 945.613L126.509 946.613L125.509 946.613L125.509 945.613ZM4.00001 945.613L3.00001 945.613L3.00001 944.613L4.00001 944.613L4.00001 945.613ZM4.00001 981.604L4.00001 982.604L3.00001 982.604L3.00001 981.604L4.00001 981.604ZM4.00001 899.88L3.55279 900.775L3.00001 900.498L3.00001 899.88L4.00001 899.88ZM70.0352 932.898L71.0352 932.903L71.0265 934.512L69.588 933.792L70.0352 932.898ZM70.2402 894.753L70.6992 893.865L71.2435 894.146L71.2402 894.759L70.2402 894.753ZM5.5381 861.326L5.5381 860.326L5.78116 860.326L5.9971 860.437L5.5381 861.326ZM4.00002 861.326L3.00002 861.326L3.00002 860.326L4.00002 860.326L4.00002 861.326ZM153.297 981.604L152.297 981.604L152.297 922.849L153.297 922.849L154.297 922.849L154.297 981.604L153.297 981.604ZM153.297 922.849L152.297 922.849C152.297 911.461 150.602 901.613 147.242 893.282L148.17 892.908L149.097 892.534C152.574 901.155 154.297 911.268 154.297 922.849L153.297 922.849ZM148.17 892.908L147.242 893.282C143.889 884.964 138.946 878.603 132.43 874.148L132.994 873.323L133.559 872.497C140.441 877.202 145.615 883.898 149.097 892.534L148.17 892.908ZM132.994 873.323L132.424 874.144C125.924 869.634 117.863 867.35 108.18 867.35L108.18 866.35L108.18 865.35C118.184 865.35 126.665 867.714 133.564 872.501L132.994 873.323ZM108.18 866.35L108.18 867.35C99.7321 867.35 92.7427 868.669 87.1701 871.256L86.749 870.349L86.3279 869.442C92.2397 866.697 99.5375 865.35 108.18 865.35L108.18 866.35ZM86.749 870.349L87.1701 871.256C81.5648 873.859 76.9409 877.487 73.2824 882.144L72.4961 881.526L71.7098 880.908C75.5708 875.994 80.4489 872.172 86.3279 869.442L86.749 870.349ZM72.4961 881.526L73.2836 882.142C69.6612 886.771 66.666 892.183 64.3048 898.39L63.3701 898.035L62.4355 897.679C64.8594 891.308 67.9482 885.714 71.7086 880.909L72.4961 881.526ZM63.3701 898.035L64.2407 898.527L57.5756 910.319L56.7051 909.827L55.8345 909.335L62.4996 897.543L63.3701 898.035ZM56.7051 909.827L57.7051 909.827L57.7051 959.148L56.7051 959.148L55.7051 959.148L55.7051 909.827L56.7051 909.827ZM56.7051 959.148L56.7125 958.148L84.5005 958.353L84.4932 959.353L84.4858 960.353L56.6977 960.148L56.7051 959.148ZM84.4932 959.353L83.4932 959.353L83.4932 922.849L84.4932 922.849L85.4932 922.849L85.4932 959.353L84.4932 959.353ZM84.4932 922.849L83.4932 922.849C83.4932 918.156 84.333 914.184 86.0762 910.988L86.9541 911.467L87.832 911.946C86.294 914.766 85.4932 918.382 85.4932 922.849L84.4932 922.849ZM86.9541 911.467L86.0762 910.988C87.8126 907.805 90.2855 905.402 93.4796 903.805L93.9268 904.7L94.374 905.594C91.5524 907.005 89.3768 909.114 87.832 911.946L86.9541 911.467ZM93.9268 904.7L93.4717 903.809C96.7171 902.15 100.537 901.341 104.898 901.341L104.898 902.341L104.898 903.341C100.783 903.341 97.2887 904.104 94.3819 905.59L93.9268 904.7ZM104.898 902.341L104.898 901.341C109.325 901.341 113.18 902.149 116.428 903.809L115.973 904.7L115.518 905.59C112.613 904.105 109.085 903.341 104.898 903.341L104.898 902.341ZM115.973 904.7L116.428 903.809C119.688 905.475 122.194 907.947 123.93 911.202L123.048 911.672L122.166 912.143C120.62 909.245 118.41 907.068 115.518 905.59L115.973 904.7ZM123.048 911.672L123.926 911.193C125.667 914.385 126.509 918.287 126.509 922.849L125.509 922.849L124.509 922.849C124.509 918.525 123.71 914.975 122.17 912.151L123.048 911.672ZM125.509 922.849L126.509 922.849L126.509 945.613L125.509 945.613L124.509 945.613L124.509 922.849L125.509 922.849ZM125.509 945.613L125.509 946.613L4.00001 946.613L4.00001 945.613L4.00001 944.613L125.509 944.613L125.509 945.613ZM4.00001 945.613L5.00001 945.613L5.00001 981.604L4.00001 981.604L3.00001 981.604L3.00001 945.613L4.00001 945.613ZM4.00001 981.604L4.00001 980.604L153.297 980.604L153.297 981.604L153.297 982.604L4.00001 982.604L4.00001 981.604ZM4.00001 899.88L4.44723 898.986L70.4824 932.003L70.0352 932.898L69.588 933.792L3.55279 900.775L4.00001 899.88ZM70.0352 932.898L69.0352 932.892L69.2403 894.748L70.2402 894.753L71.2402 894.759L71.0352 932.903L70.0352 932.898ZM70.2402 894.753L69.7812 895.642L5.0791 862.214L5.5381 861.326L5.9971 860.437L70.6992 893.865L70.2402 894.753ZM5.5381 861.326L5.5381 862.326L4.00002 862.326L4.00002 861.326L4.00002 860.326L5.5381 860.326L5.5381 861.326ZM4.00002 861.326L5.00002 861.326L5.00001 899.88L4.00001 899.88L3.00001 899.88L3.00002 861.326L4.00002 861.326ZM31.6856 739.768L31.6856 738.768L32.6856 738.768L32.6856 739.768L31.6856 739.768ZM4.00002 739.768L3.00002 739.768L3.00002 738.768L4.00002 738.768L4.00002 739.768ZM4.00002 819.338L4.00002 820.338L3.00002 820.338L3.00002 819.338L4.00002 819.338ZM31.6856 819.338L32.6856 819.338L32.6856 820.338L31.6856 820.338L31.6856 819.338ZM153.297 806.521L153.297 805.521L154.297 805.521L154.297 806.521L153.297 806.521ZM4.00002 806.521L3.00002 806.521L3.00002 805.521L4.00002 805.521L4.00002 806.521ZM4.00002 842.512L4.00002 843.512L3.00002 843.512L3.00002 842.512L4.00002 842.512ZM153.297 842.512L154.297 842.512L154.297 843.512L153.297 843.512L153.297 842.512ZM94.0293 750.021L94.0293 749.021L95.0293 749.021L95.0293 750.021L94.0293 750.021ZM67.2666 750.021L66.2666 750.021L66.2666 749.021L67.2666 749.021L67.2666 750.021ZM67.2666 819.338L67.2666 820.338L66.2666 820.338L66.2666 819.338L67.2666 819.338ZM94.0293 819.338L95.0293 819.338L95.0293 820.338L94.0293 820.338L94.0293 819.338ZM153.297 739.46L153.297 738.46L154.297 738.46L154.297 739.46L153.297 739.46ZM125.509 739.46L124.509 739.46L124.509 738.46L125.509 738.46L125.509 739.46ZM125.509 819.338L125.509 820.338L124.509 820.338L124.509 819.338L125.509 819.338ZM153.297 819.338L154.297 819.338L154.297 820.338L153.297 820.338L153.297 819.338ZM31.6856 739.768L31.6856 740.768L4.00002 740.768L4.00002 739.768L4.00002 738.768L31.6856 738.768L31.6856 739.768ZM4.00002 739.768L5.00002 739.768L5.00002 819.338L4.00002 819.338L3.00002 819.338L3.00002 739.768L4.00002 739.768ZM4.00002 819.338L4.00002 818.338L31.6856 818.338L31.6856 819.338L31.6856 820.338L4.00002 820.338L4.00002 819.338ZM31.6856 819.338L30.6856 819.338L30.6856 739.768L31.6856 739.768L32.6856 739.768L32.6856 819.338L31.6856 819.338ZM153.297 806.521L153.297 807.521L4.00002 807.521L4.00002 806.521L4.00002 805.521L153.297 805.521L153.297 806.521ZM4.00002 806.521L5.00002 806.521L5.00002 842.512L4.00002 842.512L3.00002 842.512L3.00002 806.521L4.00002 806.521ZM4.00002 842.512L4.00002 841.512L153.297 841.512L153.297 842.512L153.297 843.512L4.00002 843.512L4.00002 842.512ZM153.297 842.512L152.297 842.512L152.297 806.521L153.297 806.521L154.297 806.521L154.297 842.512L153.297 842.512ZM94.0293 750.021L94.0293 751.021L67.2666 751.021L67.2666 750.021L67.2666 749.021L94.0293 749.021L94.0293 750.021ZM67.2666 750.021L68.2666 750.021L68.2666 819.338L67.2666 819.338L66.2666 819.338L66.2666 750.021L67.2666 750.021ZM67.2666 819.338L67.2666 818.338L94.0293 818.338L94.0293 819.338L94.0293 820.338L67.2666 820.338L67.2666 819.338ZM94.0293 819.338L93.0293 819.338L93.0293 750.021L94.0293 750.021L95.0293 750.021L95.0293 819.338L94.0293 819.338ZM153.297 739.46L153.297 740.46L125.509 740.46L125.509 739.46L125.509 738.46L153.297 738.46L153.297 739.46ZM125.509 739.46L126.509 739.46L126.509 819.338L125.509 819.338L124.509 819.338L124.509 739.46L125.509 739.46ZM125.509 819.338L125.509 818.338L153.297 818.338L153.297 819.338L153.297 820.338L125.509 820.338L125.509 819.338ZM153.297 819.338L152.297 819.338L152.297 739.46L153.297 739.46L154.297 739.46L154.297 819.338L153.297 819.338ZM49.9375 647.023L49.6012 647.965L49.5902 647.961L49.9375 647.023ZM60.1914 658.815L59.297 659.262L59.2917 659.252L59.2866 659.241L60.1914 658.815ZM65.5235 672.35L64.5748 672.666L64.5736 672.663L65.5235 672.35ZM72.9063 691.32L71.998 691.738L71.9942 691.73L72.9063 691.32ZM82.6475 707.624L81.8611 708.241L81.8557 708.234L82.6475 707.624ZM95.7725 719.005L95.2878 719.88L95.2828 719.877L95.7725 719.005ZM130.738 718.903L130.25 718.03L130.255 718.028L130.738 718.903ZM143.966 706.906L143.149 706.329L143.151 706.327L143.966 706.906ZM152.374 688.654L151.41 688.389L151.412 688.38L152.374 688.654ZM149.605 636.872L148.697 637.289L148.693 637.28L149.605 636.872ZM133.507 617.184L132.947 618.013L132.937 618.006L133.507 617.184ZM109 610.006L108 610.006L108 609.006L109 609.006L109 610.006ZM109 645.793L109 646.793L108 646.793L108 645.793L109 645.793ZM118.946 648.151L118.482 649.037L118.474 649.032L118.466 649.028L118.946 648.151ZM120.587 684.962L120.015 684.142L120.027 684.134L120.587 684.962ZM106.949 685.475L106.395 686.307L106.377 686.295L106.359 686.283L106.949 685.475ZM101.925 680.041L101.096 680.601L101.089 680.59L101.925 680.041ZM97.4131 671.427L96.4939 671.821L96.4911 671.815L97.4131 671.427ZM93.209 659.943L92.2573 660.25L92.2563 660.247L93.209 659.943ZM84.6983 638.82L83.8078 639.275L83.8019 639.263L84.6983 638.82ZM74.1367 623.131L73.4065 623.815L73.4008 623.809L73.3952 623.802L74.1367 623.131ZM60.8067 613.39L60.4052 614.306L60.3947 614.301L60.8067 613.39ZM12.8184 625.08L12.0116 624.489L12.017 624.481L12.8184 625.08ZM4.82034 687.834L3.85449 688.093L3.85178 688.082L4.82034 687.834ZM13.8438 707.931L13.0175 708.495L13.0132 708.488L13.8438 707.931ZM29.5322 722.389L29.0481 723.264L29.0371 723.258L29.5322 722.389ZM52.3985 727.721L53.3985 727.721L53.3985 728.721L52.3985 728.721L52.3985 727.721ZM52.3985 691.628L52.3985 690.628L53.3985 690.628L53.3985 691.628L52.3985 691.628ZM34.044 684.757L33.27 685.391L33.2642 685.384L33.2585 685.376L34.044 684.757ZM30.1475 676.452L29.1773 676.694L29.1749 676.685L29.1728 676.675L30.1475 676.452ZM30.9678 654.098L30.0605 653.678L30.0647 653.669L30.069 653.66L30.9678 654.098ZM36.2998 647.946L35.7892 647.086L35.8009 647.079L36.2998 647.946ZM43.6826 645.998L43.6826 644.998C46.1044 644.998 48.3099 645.354 50.2848 646.085L49.9375 647.023L49.5902 647.961C47.8738 647.325 45.9093 646.998 43.6826 646.998L43.6826 645.998ZM49.9375 647.023L50.2739 646.081C52.3767 646.832 54.2886 648.208 56.017 650.153L55.2696 650.817L54.5221 651.481C52.9693 649.734 51.3265 648.581 49.6012 647.965L49.9375 647.023ZM55.2696 650.817L56.017 650.153C57.7464 652.098 59.4349 654.859 61.0962 658.389L60.1914 658.815L59.2866 659.241C57.6667 655.798 56.074 653.227 54.5221 651.481L55.2696 650.817ZM60.1914 658.815L61.0859 658.368C62.8249 661.846 64.6196 666.408 66.4733 672.037L65.5235 672.35L64.5736 672.663C62.7359 667.082 60.976 662.62 59.297 659.262L60.1914 658.815ZM65.5235 672.35L66.4721 672.034C68.6494 678.566 71.0983 684.858 73.8184 690.91L72.9063 691.32L71.9942 691.73C69.2455 685.614 66.7725 679.26 64.5748 672.666L65.5235 672.35ZM72.9063 691.32L73.8145 690.902C76.5891 696.924 79.7984 702.293 83.4393 707.013L82.6475 707.624L81.8557 708.234C78.1137 703.384 74.8289 697.883 71.998 691.738L72.9063 691.32ZM82.6475 707.624L83.4338 707.006C87.1176 711.694 91.3937 715.399 96.2622 718.134L95.7725 719.005L95.2828 719.877C90.1708 717.006 85.6969 713.123 81.8612 708.241L82.6475 707.624ZM95.7725 719.005L96.2571 718.131C101.145 720.839 106.852 722.21 113.409 722.21L113.409 723.21L113.409 724.21C106.568 724.21 100.517 722.777 95.2878 719.88L95.7725 719.005ZM113.409 723.21L113.409 722.21C119.68 722.21 125.286 720.81 130.25 718.03L130.738 718.903L131.227 719.775C125.937 722.738 119.99 724.21 113.409 724.21L113.409 723.21ZM130.738 718.903L130.255 718.028C135.31 715.234 139.608 711.34 143.149 706.329L143.966 706.906L144.783 707.483C141.078 712.726 136.557 716.83 131.222 719.778L130.738 718.903ZM143.966 706.906L143.151 706.327C146.766 701.239 149.522 695.264 151.41 688.389L152.374 688.654L153.338 688.919C151.397 695.989 148.549 702.183 144.781 707.485L143.966 706.906ZM152.374 688.654L151.412 688.38C153.366 681.508 154.348 673.979 154.348 665.788L155.348 665.788L156.348 665.788C156.348 674.139 155.347 681.854 153.336 688.927L152.374 688.654ZM155.348 665.788L154.348 665.788C154.348 654.967 152.454 645.475 148.697 637.289L149.605 636.872L150.514 636.454C154.413 644.948 156.348 654.733 156.348 665.788L155.348 665.788ZM149.605 636.872L148.693 637.28C145.001 629.025 139.75 622.615 132.947 618.012L133.507 617.184L134.067 616.356C141.209 621.187 146.69 627.902 150.518 636.463L149.605 636.872ZM133.507 617.184L132.937 618.006C126.22 613.351 118.256 611.006 109 611.006L109 610.006L109 609.006C118.611 609.006 126.985 611.447 134.076 616.362L133.507 617.184ZM109 610.006L110 610.006L110 645.793L109 645.793L108 645.793L108 610.006L109 610.006ZM109 645.793L109 644.793C112.902 644.793 116.388 645.61 119.427 647.274L118.946 648.151L118.466 649.028C115.763 647.548 112.617 646.793 109 646.793L109 645.793ZM118.946 648.151L119.41 647.265C122.473 648.869 124.869 651.311 126.596 654.551L125.714 655.021L124.832 655.492C123.278 652.579 121.162 650.44 118.482 649.037L118.946 648.151ZM125.714 655.021L126.596 654.551C128.336 657.812 129.175 661.848 129.175 666.608L128.175 666.608L127.175 666.608C127.175 662.071 126.373 658.383 124.832 655.492L125.714 655.021ZM128.175 666.608L129.175 666.608C129.175 671.215 128.478 675.156 127.038 678.396L126.124 677.99L125.21 677.584C126.505 674.671 127.175 671.025 127.175 666.608L128.175 666.608ZM126.124 677.99L127.038 678.396C125.61 681.609 123.655 684.094 121.147 685.791L120.587 684.962L120.027 684.134C122.167 682.686 123.904 680.523 125.21 677.584L126.124 677.99ZM120.587 684.962L121.159 685.783C118.736 687.471 116.042 688.321 113.102 688.321L113.102 687.321L113.102 686.321C115.63 686.321 117.926 685.598 120.015 684.142L120.587 684.962ZM113.102 687.321L113.102 688.321C110.652 688.321 108.407 687.649 106.395 686.307L106.949 685.475L107.504 684.643C109.182 685.762 111.04 686.321 113.102 686.321L113.102 687.321ZM106.949 685.475L106.359 686.283C104.467 684.9 102.716 682.996 101.097 680.601L101.925 680.041L102.753 679.48C104.278 681.734 105.877 683.453 107.539 684.668L106.949 685.475ZM101.925 680.041L101.089 680.59C99.4772 678.137 97.9468 675.211 96.494 671.821L97.4131 671.427L98.3322 671.033C99.7505 674.343 101.228 677.159 102.761 679.491L101.925 680.041ZM97.4131 671.427L96.4911 671.815C95.0426 668.366 93.6316 664.51 92.2573 660.25L93.209 659.943L94.1607 659.636C95.5208 663.852 96.9125 667.653 98.3351 671.04L97.4131 671.427ZM93.209 659.943L92.2563 660.247C89.7404 652.359 86.9231 645.37 83.8078 639.275L84.6983 638.82L85.5887 638.365C88.7625 644.574 91.6191 651.668 94.1617 659.639L93.209 659.943ZM84.6983 638.82L83.8019 639.263C80.7608 633.114 77.2929 627.969 73.4065 623.815L74.1367 623.131L74.867 622.448C78.9102 626.77 82.4833 632.085 85.5946 638.377L84.6983 638.82ZM74.1367 623.131L73.3952 623.802C69.5871 619.593 65.2576 616.433 60.4052 614.306L60.8067 613.39L61.2081 612.474C66.3362 614.722 70.8934 618.056 74.8783 622.461L74.1367 623.131ZM60.8067 613.39L60.3947 614.301C55.5518 612.112 50.0557 611.006 43.8877 611.006L43.8877 610.006L43.8877 609.006C50.2978 609.006 56.081 610.157 61.2186 612.479L60.8067 613.39ZM43.8877 610.006L43.8877 611.006C37.3199 611.006 31.5297 612.279 26.4931 614.797L26.0459 613.903L25.5987 613.008C30.9527 610.331 37.0571 609.006 43.8877 609.006L43.8877 610.006ZM26.0459 613.903L26.4931 614.797C21.4434 617.322 17.1536 620.944 13.6197 625.678L12.8184 625.08L12.017 624.481C15.7293 619.508 20.2578 615.679 25.5987 613.008L26.0459 613.903ZM12.8184 625.08L13.6251 625.671C10.1537 630.41 7.50134 636.106 5.68257 642.774L4.7178 642.511L3.75303 642.248C5.62567 635.382 8.37374 629.456 12.0116 624.489L12.8184 625.08ZM4.7178 642.511L5.68257 642.774C3.86416 649.442 2.94924 656.905 2.94924 665.172L1.94924 665.172L0.949244 665.172C0.949244 656.76 1.88003 649.116 3.75303 642.248L4.7178 642.511ZM1.94924 665.172L2.94924 665.172C2.94924 672.744 3.89561 680.215 5.78889 687.585L4.82034 687.834L3.85178 688.082C1.91694 680.55 0.949243 672.913 0.949244 665.172L1.94924 665.172ZM4.82034 687.834L5.78613 687.574C7.74169 694.857 10.7056 701.455 14.6744 707.374L13.8438 707.931L13.0132 708.488C8.91558 702.376 5.86382 695.576 3.85455 688.093L4.82034 687.834ZM13.8438 707.931L14.67 707.368C18.6854 713.257 23.8014 717.972 30.0274 721.52L29.5322 722.389L29.0371 723.258C22.5482 719.56 17.2053 714.637 13.0175 708.495L13.8438 707.931ZM29.5322 722.389L30.0163 721.514C36.2668 724.972 43.7155 726.721 52.3985 726.721L52.3985 727.721L52.3985 728.721C43.4447 728.721 35.6492 726.916 29.0482 723.264L29.5322 722.389ZM52.3985 727.721L51.3985 727.721L51.3985 691.628L52.3985 691.628L53.3985 691.628L53.3985 727.721L52.3985 727.721ZM52.3985 691.628L52.3985 692.628C47.9414 692.628 44.1196 692.036 40.9638 690.817L41.3242 689.884L41.6846 688.952C44.5445 690.057 48.1055 690.628 52.3985 690.628L52.3985 691.628ZM41.3242 689.884L40.9638 690.817C37.8121 689.599 35.2367 687.794 33.27 685.391L34.044 684.757L34.8179 684.124C36.5427 686.232 38.8207 687.845 41.6846 688.952L41.3242 689.884ZM34.044 684.757L33.2585 685.376C31.3795 682.991 30.0259 680.089 29.1773 676.694L30.1475 676.452L31.1176 676.209C31.9097 679.377 33.1537 682.012 34.8295 684.139L34.044 684.757ZM30.1475 676.452L29.1728 676.675C28.4003 673.305 28.0196 669.467 28.0196 665.172L29.0196 665.172L30.0196 665.172C30.0196 669.354 30.3907 673.036 31.1222 676.228L30.1475 676.452ZM29.0196 665.172L28.0196 665.172C28.0196 660.511 28.6784 656.66 30.0605 653.678L30.9678 654.098L31.8751 654.519C30.6595 657.142 30.0196 660.673 30.0196 665.172L29.0196 665.172ZM30.9678 654.098L30.069 653.66C31.5023 650.722 33.3996 648.505 35.7893 647.086L36.2998 647.946L36.8104 648.806C34.8251 649.985 33.1677 651.869 31.8666 654.537L30.9678 654.098ZM36.2998 647.946L35.8009 647.079C38.2123 645.691 40.8459 644.998 43.6826 644.998L43.6826 645.998L43.6826 646.998C41.1873 646.998 38.8991 647.603 36.7988 648.812L36.2998 647.946ZM31.6856 486.603L31.6856 485.603L32.6856 485.603L32.6856 486.603L31.6856 486.603ZM4.00003 486.603L3.00003 486.603L3.00003 485.603L4.00003 485.603L4.00003 486.603ZM4.00003 566.173L4.00003 567.173L3.00003 567.173L3.00003 566.173L4.00003 566.173ZM31.6856 566.173L32.6856 566.173L32.6856 567.173L31.6856 567.173L31.6856 566.173ZM153.297 553.356L153.297 552.356L154.297 552.356L154.297 553.356L153.297 553.356ZM4.00003 553.356L3.00003 553.356L3.00003 552.356L4.00003 552.356L4.00003 553.356ZM4.00003 589.347L4.00003 590.347L3.00003 590.347L3.00003 589.347L4.00003 589.347ZM153.297 589.347L154.297 589.347L154.297 590.347L153.297 590.347L153.297 589.347ZM94.0293 496.857L94.0293 495.857L95.0293 495.857L95.0293 496.857L94.0293 496.857ZM67.2666 496.857L66.2666 496.857L66.2666 495.857L67.2666 495.857L67.2666 496.857ZM67.2666 566.173L67.2666 567.173L66.2666 567.173L66.2666 566.173L67.2666 566.173ZM94.0293 566.173L95.0293 566.173L95.0293 567.173L94.0293 567.173L94.0293 566.173ZM153.297 486.295L153.297 485.295L154.297 485.295L154.297 486.295L153.297 486.295ZM125.509 486.295L124.509 486.295L124.509 485.295L125.509 485.295L125.509 486.295ZM125.509 566.173L125.509 567.173L124.509 567.173L124.509 566.173L125.509 566.173ZM153.297 566.173L154.297 566.173L154.297 567.173L153.297 567.173L153.297 566.173ZM31.6856 486.603L31.6856 487.603L4.00003 487.603L4.00003 486.603L4.00003 485.603L31.6856 485.603L31.6856 486.603ZM4.00003 486.603L5.00003 486.603L5.00003 566.173L4.00003 566.173L3.00003 566.173L3.00003 486.603L4.00003 486.603ZM4.00003 566.173L4.00003 565.173L31.6856 565.173L31.6856 566.173L31.6856 567.173L4.00003 567.173L4.00003 566.173ZM31.6856 566.173L30.6856 566.173L30.6856 486.603L31.6856 486.603L32.6856 486.603L32.6856 566.173L31.6856 566.173ZM153.297 553.356L153.297 554.356L4.00003 554.356L4.00003 553.356L4.00003 552.356L153.297 552.356L153.297 553.356ZM4.00003 553.356L5.00003 553.356L5.00003 589.347L4.00003 589.347L3.00003 589.347L3.00003 553.356L4.00003 553.356ZM4.00003 589.347L4.00003 588.347L153.297 588.347L153.297 589.347L153.297 590.347L4.00003 590.347L4.00003 589.347ZM153.297 589.347L152.297 589.347L152.297 553.356L153.297 553.356L154.297 553.356L154.297 589.347L153.297 589.347ZM94.0293 496.857L94.0293 497.857L67.2666 497.857L67.2666 496.857L67.2666 495.857L94.0293 495.857L94.0293 496.857ZM67.2666 496.857L68.2666 496.857L68.2666 566.173L67.2666 566.173L66.2666 566.173L66.2666 496.857L67.2666 496.857ZM67.2666 566.173L67.2666 565.173L94.0293 565.173L94.0293 566.173L94.0293 567.173L67.2666 567.173L67.2666 566.173ZM94.0293 566.173L93.0293 566.173L93.0293 496.857L94.0293 496.857L95.0293 496.857L95.0293 566.173L94.0293 566.173ZM153.297 486.295L153.297 487.295L125.509 487.295L125.509 486.295L125.509 485.295L153.297 485.295L153.297 486.295ZM125.509 486.295L126.509 486.295L126.509 566.173L125.509 566.173L124.509 566.173L124.509 486.295L125.509 486.295ZM125.509 566.173L125.509 565.173L153.297 565.173L153.297 566.173L153.297 567.173L125.509 567.173L125.509 566.173ZM153.297 566.173L152.297 566.173L152.297 486.295L153.297 486.295L154.297 486.295L154.297 566.173L153.297 566.173ZM153.297 469.737L154.297 469.737L154.297 470.737L153.297 470.737L153.297 469.737ZM132.994 361.456L132.43 362.281L132.424 362.277L132.994 361.456ZM72.4961 369.659L71.7086 369.043L71.7098 369.041L72.4961 369.659ZM63.3702 386.168L64.3048 386.523L64.2779 386.594L64.2407 386.66L63.3702 386.168ZM56.7051 397.96L55.7051 397.96L55.7051 397.697L55.8346 397.468L56.7051 397.96ZM56.7051 447.281L56.6977 448.281L55.7051 448.274L55.7051 447.281L56.7051 447.281ZM84.4932 447.486L85.4932 447.486L85.4932 448.494L84.4858 448.486L84.4932 447.486ZM93.9268 392.833L94.3819 393.723L94.374 393.727L93.9268 392.833ZM123.048 399.805L122.17 400.284L122.166 400.276L123.048 399.805ZM125.509 433.746L126.509 433.746L126.509 434.746L125.509 434.746L125.509 433.746ZM4.00003 433.746L3.00004 433.746L3.00004 432.746L4.00004 432.746L4.00003 433.746ZM4.00003 469.737L4.00003 470.737L3.00003 470.737L3.00003 469.737L4.00003 469.737ZM4.00004 388.013L3.55282 388.908L3.00004 388.632L3.00004 388.013L4.00004 388.013ZM70.0352 421.031L71.0352 421.036L71.0265 422.645L69.588 421.925L70.0352 421.031ZM70.2403 382.887L70.6993 381.998L71.2435 382.279L71.2403 382.892L70.2403 382.887ZM5.53812 349.459L5.53812 348.459L5.78118 348.459L5.99712 348.57L5.53812 349.459ZM4.00004 349.459L3.00004 349.459L3.00004 348.459L4.00004 348.459L4.00004 349.459ZM153.297 469.737L152.297 469.737L152.297 410.982L153.297 410.982L154.297 410.982L154.297 469.737L153.297 469.737ZM153.297 410.982L152.297 410.982C152.297 399.594 150.602 389.746 147.243 381.415L148.17 381.041L149.097 380.667C152.574 389.288 154.297 399.401 154.297 410.982L153.297 410.982ZM148.17 381.041L147.243 381.415C143.889 373.097 138.946 366.736 132.43 362.281L132.994 361.456L133.559 360.63C140.441 365.336 145.615 372.031 149.097 380.667L148.17 381.041ZM132.994 361.456L132.424 362.277C125.924 357.767 117.863 355.483 108.18 355.483L108.18 354.483L108.18 353.483C118.184 353.483 126.665 355.847 133.564 360.634L132.994 361.456ZM108.18 354.483L108.18 355.483C99.7321 355.483 92.7428 356.802 87.1702 359.389L86.7491 358.482L86.3279 357.575C92.2397 354.831 99.5375 353.483 108.18 353.483L108.18 354.483ZM86.7491 358.482L87.1702 359.389C81.5648 361.992 76.941 365.621 73.2824 370.277L72.4961 369.659L71.7098 369.041C75.5708 364.127 80.4489 360.305 86.3279 357.575L86.7491 358.482ZM72.4961 369.659L73.2836 370.275C69.6612 374.904 66.666 380.317 64.3048 386.523L63.3702 386.168L62.4355 385.812C64.8594 379.441 67.9483 373.848 71.7086 369.043L72.4961 369.659ZM63.3702 386.168L64.2407 386.66L57.5757 398.452L56.7051 397.96L55.8346 397.468L62.4996 385.676L63.3702 386.168ZM56.7051 397.96L57.7051 397.96L57.7051 447.281L56.7051 447.281L55.7051 447.281L55.7051 397.96L56.7051 397.96ZM56.7051 447.281L56.7125 446.281L84.5006 446.486L84.4932 447.486L84.4858 448.486L56.6977 448.281L56.7051 447.281ZM84.4932 447.486L83.4932 447.486L83.4932 410.982L84.4932 410.982L85.4932 410.982L85.4932 447.486L84.4932 447.486ZM84.4932 410.982L83.4932 410.982C83.4932 406.289 84.333 402.317 86.0762 399.122L86.9541 399.6L87.832 400.079C86.294 402.899 85.4932 406.515 85.4932 410.982L84.4932 410.982ZM86.9541 399.6L86.0762 399.122C87.8127 395.938 90.2855 393.535 93.4796 391.938L93.9268 392.833L94.374 393.727C91.5524 395.138 89.3768 397.247 87.832 400.079L86.9541 399.6ZM93.9268 392.833L93.4717 391.942C96.7172 390.284 100.537 389.474 104.898 389.474L104.898 390.474L104.898 391.474C100.783 391.474 97.2888 392.238 94.3819 393.723L93.9268 392.833ZM104.898 390.474L104.898 389.474C109.325 389.474 113.18 390.283 116.428 391.942L115.973 392.833L115.518 393.723C112.613 392.239 109.085 391.474 104.898 391.474L104.898 390.474ZM115.973 392.833L116.428 391.942C119.688 393.609 122.194 396.08 123.93 399.335L123.048 399.805L122.166 400.276C120.62 397.378 118.41 395.202 115.518 393.723L115.973 392.833ZM123.048 399.805L123.926 399.327C125.667 402.519 126.509 406.42 126.509 410.982L125.509 410.982L124.509 410.982C124.509 406.658 123.71 403.108 122.17 400.284L123.048 399.805ZM125.509 410.982L126.509 410.982L126.509 433.746L125.509 433.746L124.509 433.746L124.509 410.982L125.509 410.982ZM125.509 433.746L125.509 434.746L4.00003 434.746L4.00003 433.746L4.00004 432.746L125.509 432.746L125.509 433.746ZM4.00003 433.746L5.00003 433.746L5.00003 469.737L4.00003 469.737L3.00003 469.737L3.00004 433.746L4.00003 433.746ZM4.00003 469.737L4.00003 468.737L153.297 468.737L153.297 469.737L153.297 470.737L4.00003 470.737L4.00003 469.737ZM4.00004 388.013L4.44726 387.119L70.4824 420.137L70.0352 421.031L69.588 421.925L3.55282 388.908L4.00004 388.013ZM70.0352 421.031L69.0352 421.026L69.2403 382.881L70.2403 382.887L71.2403 382.892L71.0352 421.036L70.0352 421.031ZM70.2403 382.887L69.7813 383.775L5.07912 350.347L5.53812 349.459L5.99712 348.57L70.6993 381.998L70.2403 382.887ZM5.53812 349.459L5.53812 350.459L4.00004 350.459L4.00004 349.459L4.00004 348.459L5.53812 348.459L5.53812 349.459ZM4.00004 349.459L5.00004 349.459L5.00004 388.013L4.00004 388.013L3.00004 388.013L3.00004 349.459L4.00004 349.459ZM39.1709 276.197L39.4336 277.162L39.3738 277.178L39.3124 277.187L39.1709 276.197ZM153.297 245.127L154.297 245.127L154.297 245.891L153.56 246.092L153.297 245.127ZM153.297 204.829L152.977 203.882L154.297 203.437L154.297 204.829L153.297 204.829ZM4.00004 255.176L3.00004 255.176L3.00004 254.458L3.68049 254.229L4.00004 255.176ZM4.00004 281.221L4.14146 282.211L3.00004 282.374L3.00004 281.221L4.00004 281.221ZM153.297 304.395L153.56 303.43L154.297 303.631L154.297 304.395L153.297 304.395ZM39.1709 273.326L39.318 272.336L39.3765 272.345L39.4336 272.361L39.1709 273.326ZM4.00004 268.096L3.00004 268.096L3.00004 266.936L4.14711 267.107L4.00004 268.096ZM4.00004 294.449L3.68225 295.397L3.00004 295.168L3.00004 294.449L4.00004 294.449ZM153.297 344.488L154.297 344.488L154.297 345.878L152.979 345.436L153.297 344.488ZM39.1709 276.197L38.9083 275.232L153.034 244.162L153.297 245.127L153.56 246.092L39.4336 277.162L39.1709 276.197ZM153.297 245.127L152.297 245.127L152.297 204.829L153.297 204.829L154.297 204.829L154.297 245.127L153.297 245.127ZM153.297 204.829L153.616 205.777L4.31959 256.124L4.00004 255.176L3.68049 254.229L152.977 203.882L153.297 204.829ZM4.00004 255.176L5.00004 255.176L5.00004 281.221L4.00004 281.221L3.00004 281.221L3.00004 255.176L4.00004 255.176ZM4.00004 281.221L3.85862 280.231L39.0295 275.207L39.1709 276.197L39.3124 277.187L4.14146 282.211L4.00004 281.221ZM153.297 304.395L153.034 305.36L38.9083 274.29L39.1709 273.326L39.4336 272.361L153.56 303.43L153.297 304.395ZM39.1709 273.326L39.0239 274.315L3.85298 269.085L4.00004 268.096L4.14711 267.107L39.318 272.336L39.1709 273.326ZM4.00004 268.096L5.00004 268.096L5.00004 294.449L4.00004 294.449L3.00004 294.449L3.00004 268.096L4.00004 268.096ZM4.00004 294.449L4.31784 293.5L153.615 343.539L153.297 344.488L152.979 345.436L3.68225 295.397L4.00004 294.449ZM153.297 344.488L152.297 344.488L152.297 304.395L153.297 304.395L154.297 304.395L154.297 344.488L153.297 344.488ZM153.297 153.511L153.297 152.511L154.297 152.511L154.297 153.511L153.297 153.511ZM4.00005 153.511L3.00005 153.511L3.00005 152.511L4.00005 152.511L4.00005 153.511ZM4.00005 189.399L4.00005 190.399L3.00005 190.399L3.00005 189.399L4.00005 189.399ZM153.297 189.399L154.297 189.399L154.297 190.399L153.297 190.399L153.297 189.399ZM153.297 153.511L153.297 154.511L4.00005 154.511L4.00005 153.511L4.00005 152.511L153.297 152.511L153.297 153.511ZM4.00005 153.511L5.00005 153.511L5.00005 189.399L4.00005 189.399L3.00005 189.399L3.00005 153.511L4.00005 153.511ZM4.00005 189.399L4.00005 188.399L153.297 188.399L153.297 189.399L153.297 190.399L4.00005 190.399L4.00005 189.399ZM153.297 189.399L152.297 189.399L152.297 153.511L153.297 153.511L154.297 153.511L154.297 189.399L153.297 189.399ZM153.297 1.39612L153.297 0.396117L154.297 0.396117L154.297 1.39612L153.297 1.39612ZM4.00005 1.39611L3.00005 1.39611L3.00005 0.39611L4.00005 0.39611L4.00005 1.39611ZM4.00005 37.2848L3.50588 38.1542L3.00005 37.8666L3.00005 37.2848L4.00005 37.2848ZM96.9004 90.0924L97.3946 89.223L100.683 91.0924L96.9004 91.0924L96.9004 90.0924ZM4.00005 90.0924L3.00005 90.0924L3.00005 89.0924L4.00005 89.0924L4.00005 90.0924ZM4.00005 126.084L4.00005 127.084L3.00005 127.084L3.00005 126.084L4.00005 126.084ZM153.297 126.084L154.297 126.084L154.297 127.084L153.297 127.084L153.297 126.084ZM153.297 90.0924L153.791 89.223L154.297 89.5106L154.297 90.0924L153.297 90.0924ZM60.3965 37.2848L59.9024 38.1542L56.6137 36.2848L60.3965 36.2848L60.3965 37.2848ZM153.297 37.2848L154.297 37.2848L154.297 38.2848L153.297 38.2848L153.297 37.2848ZM153.297 1.39612L153.297 2.39612L4.00005 2.39611L4.00005 1.39611L4.00005 0.39611L153.297 0.396117L153.297 1.39612ZM4.00005 1.39611L5.00005 1.39611L5.00005 37.2848L4.00005 37.2848L3.00005 37.2848L3.00005 1.39611L4.00005 1.39611ZM4.00005 37.2848L4.49422 36.4154L97.3946 89.223L96.9004 90.0924L96.4063 90.9618L3.50588 38.1542L4.00005 37.2848ZM96.9004 90.0924L96.9004 91.0924L4.00005 91.0924L4.00005 90.0924L4.00005 89.0924L96.9004 89.0924L96.9004 90.0924ZM4.00005 90.0924L5.00005 90.0924L5.00005 126.084L4.00005 126.084L3.00005 126.084L3.00005 90.0924L4.00005 90.0924ZM4.00005 126.084L4.00005 125.084L153.297 125.084L153.297 126.084L153.297 127.084L4.00005 127.084L4.00005 126.084ZM153.297 126.084L152.297 126.084L152.297 90.0924L153.297 90.0924L154.297 90.0924L154.297 126.084L153.297 126.084ZM153.297 90.0924L152.803 90.9618L59.9024 38.1542L60.3965 37.2848L60.8907 36.4154L153.791 89.223L153.297 90.0924ZM60.3965 37.2848L60.3965 36.2848L153.297 36.2848L153.297 37.2848L153.297 38.2848L60.3965 38.2848L60.3965 37.2848ZM153.297 37.2848L152.297 37.2848L152.297 1.39612L153.297 1.39612L154.297 1.39612L154.297 37.2848L153.297 37.2848Z" fill="white" fill-opacity="0.5" mask="url(#path-1-outside-1_332_702)"/>
</svg>
