<svg width="235" height="212" viewBox="0 0 235 212" fill="none" xmlns="http://www.w3.org/2000/svg">
<path d="M0 186.414V160.828H56.7241V212H0V186.414ZM48.6207 186.414V168.138H8.10345V204.69H48.6207V186.414ZM16.2069 186.414V175.448H40.5172V197.379H16.2069V186.414ZM72.931 208.345V204.69H64.8276V190.069H72.931V168.138H81.0345V160.828H64.8276V153.517H32.4138V146.207H40.5172V138.897H24.3103V153.517H16.2069V146.207H0V138.897H16.2069V124.276H8.10345V131.586H0V116.966H16.2069V124.276H24.3103V131.586H32.4138V124.276H40.5172V131.586H56.7241V124.276H48.6207V116.966H24.3103V109.655H48.6207V102.345H24.3103V95.0345H16.2069V102.345H0V80.4138H8.10345V87.7241H56.7241V80.4138H48.6207V73.1034H32.4138V80.4138H24.3103V73.1034H8.10345V58.4828H24.3103V73.1034H32.4138V65.7931H48.6207V58.4828H56.7241V65.7931H48.6207V73.1034H56.7241V80.4138H64.8276V65.7931H72.931V58.4828H64.8276V36.5517H81.0345V43.8621H89.1379V51.1724H81.0345V58.4828H89.1379V102.345H72.931V95.0345H64.8276V102.345H56.7241V109.655H48.6207V116.966H56.7241V124.276H64.8276V131.586H81.0345V124.276H72.931V116.966H64.8276V109.655H81.0345V124.276H89.1379V109.655H97.2414V124.276H105.345V102.345H113.448V95.0345H121.552V102.345H113.448V109.655H121.552V116.966H145.862V109.655H137.759V102.345H129.655V87.7241H121.552V80.4138H129.655V73.1034H137.759V65.7931H129.655V58.4828H121.552V73.1034H113.448V65.7931H105.345V73.1034H97.2414V65.7931H105.345V58.4828H97.2414V36.5517H89.1379V29.2414H97.2414V36.5517H105.345V7.31034H113.448V21.931H129.655V14.6207H121.552V0H137.759V7.31034H129.655V14.6207H145.862V7.31034H153.966V0H170.172V21.931H153.966V14.6207H145.862V29.2414H153.966V51.1724H162.069V43.8621H170.172V80.4138H186.379V73.1034H178.276V58.4828H194.483V80.4138H210.69V73.1034H202.586V58.4828H210.69V73.1034H218.793V65.7931H235V80.4138H226.897V73.1034H218.793V80.4138H210.69V102.345H218.793V109.655H210.69V116.966H194.483V124.276H186.379V131.586H170.172V124.276H162.069V116.966H153.966V131.586H162.069V138.897H186.379V146.207H202.586V138.897H194.483V131.586H202.586V124.276H210.69V131.586H218.793V138.897H226.897V124.276H218.793V116.966H235V138.897H226.897V153.517H235V168.138H226.897V190.069H235V197.379H210.69V212H186.379V204.69H202.586V197.379H186.379V182.759H178.276V197.379H170.172V204.69H178.276V212H162.069V190.069H153.966V204.69H145.862V197.379H137.759V168.138H145.862V190.069H153.966V168.138H162.069V153.517H153.966V146.207H145.862V138.897H153.966V131.586H145.862V124.276H137.759V153.517H145.862V160.828H129.655V175.448H121.552V190.069H129.655V197.379H121.552V204.69H137.759V212H121.552V204.69H113.448V197.379H105.345V212H72.931V208.345ZM97.2414 197.379V190.069H105.345V168.138H89.1379V175.448H97.2414V182.759H81.0345V190.069H72.931V197.379H81.0345V204.69H97.2414V197.379ZM210.69 190.069V182.759H218.793V168.138H226.897V160.828H218.793V138.897H210.69V160.828H218.793V168.138H210.69V175.448H202.586V197.379H210.69V190.069ZM170.172 186.414V182.759H162.069V190.069H170.172V186.414ZM121.552 171.793V168.138H113.448V175.448H121.552V171.793ZM194.483 164.483V153.517H170.172V175.448H194.483V164.483ZM178.276 164.483V160.828H186.379V168.138H178.276V164.483ZM113.448 157.172V153.517H129.655V146.207H113.448V138.897H105.345V146.207H113.448V153.517H97.2414V146.207H89.1379V153.517H81.0345V146.207H72.931V138.897H64.8276V131.586H56.7241V138.897H48.6207V146.207H56.7241V138.897H64.8276V146.207H72.931V153.517H81.0345V160.828H113.448V157.172ZM89.1379 135.241V131.586H81.0345V138.897H89.1379V135.241ZM129.655 131.586V124.276H113.448V131.586H121.552V138.897H129.655V131.586ZM178.276 120.621V116.966H170.172V124.276H178.276V120.621ZM194.483 113.31V109.655H202.586V87.7241H194.483V95.0345H186.379V102.345H178.276V95.0345H162.069V87.7241H153.966V80.4138H162.069V58.4828H153.966V51.1724H145.862V43.8621H137.759V51.1724H129.655V29.2414H137.759V36.5517H145.862V29.2414H137.759V21.931H129.655V29.2414H121.552V51.1724H129.655V58.4828H137.759V51.1724H145.862V73.1034H137.759V80.4138H129.655V87.7241H137.759V102.345H145.862V95.0345H162.069V102.345H170.172V109.655H186.379V116.966H194.483V113.31ZM186.379 106V102.345H194.483V109.655H186.379V106ZM56.7241 98.6897V95.0345H64.8276V87.7241H56.7241V95.0345H48.6207V102.345H56.7241V98.6897ZM81.0345 84.069V80.4138H72.931V87.7241H81.0345V84.069ZM81.0345 47.5172V43.8621H72.931V51.1724H81.0345V47.5172ZM113.448 43.8621V36.5517H105.345V51.1724H113.448V43.8621ZM162.069 10.9655V7.31034H153.966V14.6207H162.069V10.9655ZM226.897 208.345V204.69H235V212H226.897V208.345ZM226.897 102.345V95.0345H218.793V87.7241H226.897V95.0345H235V109.655H226.897V102.345ZM0 25.5862V0H56.7241V51.1724H0V25.5862ZM48.6207 25.5862V7.31034H8.10345V43.8621H48.6207V25.5862ZM16.2069 25.5862V14.6207H40.5172V36.5517H16.2069V25.5862ZM178.276 25.5862V0H235V51.1724H178.276V25.5862ZM226.897 25.5862V7.31034H186.379V43.8621H226.897V25.5862ZM194.483 25.5862V14.6207H218.793V36.5517H194.483V25.5862ZM64.8276 25.5862V21.931H72.931V29.2414H64.8276V25.5862ZM81.0345 18.2759V14.6207H72.931V0H81.0345V7.31034H89.1379V0H97.2414V7.31034H89.1379V21.931H81.0345V18.2759Z" fill="black"/>
</svg>
